<svg class="main-svg" xmlns="http://www.w3.org/2000/svg" xmlns:xlink="http://www.w3.org/1999/xlink" width="150" height="150" style="" viewBox="0 0 150 150"><rect x="0" y="0" width="150" height="150" style="fill: rgb(255, 255, 255); fill-opacity: 1;"/><defs id="defs-f7c7c1"><g class="clips"><clipPath id="clipf7c7c1xyplot" class="plotclip"><rect width="103" height="96"/></clipPath><clipPath class="axesclip" id="clipf7c7c1x"><rect x="36" y="0" width="103" height="150"/></clipPath><clipPath class="axesclip" id="clipf7c7c1y"><rect x="0" y="20" width="150" height="96"/></clipPath><clipPath class="axesclip" id="clipf7c7c1xy"><rect x="36" y="20" width="103" height="96"/></clipPath><clipPath class="contourclip" id="clip1dbf0f"><path d="M103,0L0,0L0,96L103,96Z"/></clipPath></g><g class="gradients"/><g class="patterns"/></defs><g class="bglayer"/><g class="layer-below"><g class="imagelayer"/><g class="shapelayer"/></g><g class="cartesianlayer"><g class="subplot xy"><g class="layer-subplot"><g class="shapelayer"/><g class="imagelayer"/></g><g class="minor-gridlayer"><g class="x"/><g class="y"/></g><g class="gridlayer"><g class="x"><path class="xgrid crisp" transform="translate(55.230000000000004,0)" d="M0,20v96" style="stroke: rgb(128, 128, 128); stroke-opacity: 1; stroke-width: 0.2px;"/><path class="xgrid crisp" transform="translate(83.55,0)" d="M0,20v96" style="stroke: rgb(128, 128, 128); stroke-opacity: 1; stroke-width: 0.2px;"/><path class="xgrid crisp" transform="translate(111.88,0)" d="M0,20v96" style="stroke: rgb(128, 128, 128); stroke-opacity: 1; stroke-width: 0.2px;"/></g><g class="y"/></g><g class="zerolinelayer"/><g class="layer-between"><g class="shapelayer"/><g class="imagelayer"/></g><path class="xlines-below"/><path class="ylines-below"/><g class="overlines-below"/><g class="xaxislayer-below"/><g class="yaxislayer-below"/><g class="overaxes-below"/><g class="overplot"><g class="xy" transform="translate(36,20)" clip-path="url(#clipf7c7c1xyplot)"><g class="contourlayer mlayer"><g class="contour" clip-path="url(#clip1dbf0f)" style="opacity: 1;"><g class="heatmapcoloring"/><g class="contourbg"><path d="M103,0L0,0L0,96L103,96Z" style="stroke: none; fill: rgb(117, 112, 179);"/></g><g class="contourfill"><path d="M103,32.58Q37.66,35.02 30.81,42.67C28.19,45.6 31.43,50.43 30.5,53.33C29.76,55.66 27.98,57.25 26.67,59.07C25.42,60.8 24.12,62.23 22.81,64C21.35,65.97 19.45,68.4 18.32,70.36C17.44,71.89 17.19,73.44 16.33,74.67C15.53,75.82 14.4,76.54 13.4,77.6C12.27,78.8 10.65,80.15 9.9,81.54C9.25,82.74 9.37,84.17 8.89,85.33C8.44,86.42 7.94,87.83 7.18,88.32C6.57,88.71 5.67,88.47 4.96,88.51C4.31,88.54 3.68,88.54 3.07,88.55C2.51,88.56 1.97,88.56 1.44,88.57Q0.95,88.58 0,88.6L0,96L103,96Z" style="stroke: none; fill: rgb(132, 127, 187);"/><path d="M103,33.16Q41.76,35.31 34.96,42.67C32.28,45.57 35.49,49.92 34.33,53.33C33.04,57.1 29.56,60.55 26.965000000000003,64.11500000000001C24.3,67.78 21.04,72.04 18.515,75.015C16.65,77.21 14.76,78.68 13.4,80.53C12.23,82.12 11.24,83.96 10.65,85.33C10.25,86.27 10.34,86.96 9.9,87.83C9.32,88.99 8.18,90.96 7.18,91.52C6.48,91.91 5.67,91.66 4.96,91.7C4.31,91.74 3.68,91.74 3.07,91.76C2.51,91.78 1.97,91.79 1.44,91.81Q0.95,91.83 0,91.86L0,96L103,96Z" style="stroke: none; fill: rgb(146, 142, 195);"/><path d="M103,33.74Q45.81,35.61 39.1,42.67C36.37,45.55 39.31,49.91 38.16,53.33C36.92,57.04 33.88,62.02 31.48,64C29.95,65.26 28.24,64.67 26.67,65.85C24.36,67.58 21.39,72.51 19.95,74.67C19.17,75.84 19.07,76.42 18.32,77.5C17.17,79.16 14.41,82 13.4,83.46C12.87,84.23 12.7,84.46 12.33,85.33C11.59,87.05 11.15,91.95 9.9,93.41C9.15,94.29 8.06,94.48 7.18,94.72C6.42,94.92 5.67,94.84 4.96,94.88C4.3,94.92 3.68,94.95 3.07,94.98C2.51,95.01 1.97,95.03 1.44,95.05Q0.95,95.07 0,95.12L0,96L103,96Z" style="stroke: none; fill: rgb(161, 157, 203);"/><path d="M103,34.32Q49.84,35.92 43.24,42.67C40.45,45.52 43.15,49.89 41.99,53.33C40.75,57.02 38.49,61.64 35.7,64C33.23,66.09 29.11,65.64 26.67,67.47C24.31,69.24 22.67,72.45 21.19,74.67C20.01,76.44 19.44,77.96 18.32,79.64C17.07,81.51 14.25,83.09 13.99,85.33C13.67,88.06 16.17,93.38 18.32,95.02Q19.97,96.29 24.54,96L103,96Z" style="stroke: none; fill: rgb(175, 172, 211);"/><path d="M103,34.9Q53.86,36.24 47.39,42.67C44.56,45.49 47,49.88 45.83,53.33C44.59,57 42.9,61.4 39.91,64C36.68,66.81 29.68,66.85 26.67,69.1C24.56,70.68 23.76,72.65 22.42,74.67C20.97,76.85 19.6,79.85 18.32,81.78C17.37,83.2 15.77,83.93 15.61,85.33C15.41,87.03 16.73,89.86 18.32,91.38C20.17,93.15 22.89,93.88 26.67,94.68Q33.82,96.19 58.8,96L103,96Z" style="stroke: none; fill: rgb(190, 187, 219);"/><path d="M103,35.47Q57.84,36.57 51.53,42.67C48.65,45.45 50.83,49.86 49.66,53.33C48.43,56.98 47.23,61.23 44.13,64C40.26,67.46 29.93,68.27 26.67,70.72C24.99,71.98 24.75,73.03 23.66,74.67C22.06,77.07 19.46,82.21 18.32,83.92C17.85,84.62 17.3,84.78 17.24,85.33C17.16,86 17.6,86.88 18.32,87.73C19.73,89.38 22.26,91.8 26.67,93.22Q38.15,96.91 94.19,96L103,96Z" style="stroke: none; fill: rgb(204, 202, 227);"/><path d="M103,36.05Q61.8,36.92 55.67,42.67C52.75,45.42 54.66,49.85 53.49,53.33C52.26,56.96 51.5,61.1 48.35,64C43.94,68.06 29.79,70 26.67,72.34C25.56,73.17 25.62,73.58 24.9,74.67C23.44,76.9 18.38,82.4 18.92,85.33C19.41,87.99 22.31,90.07 26.67,91.76Q38.67,96.42 103,95.42Z" style="stroke: none; fill: rgb(219, 217, 235);"/><path d="M103,36.63Q65.73,37.27 59.82,42.67C56.86,45.37 58.5,49.83 57.32,53.33C56.1,56.94 55.74,60.97 52.57,64C47.66,68.7 31.61,69.62 26.4,74.315C22.94,77.43 20.11,82.54 20.67,85.33C21.12,87.54 23.19,88.93 26.67,90.3Q37.58,94.58 103,94.64Z" style="stroke: none; fill: rgb(233, 232, 243);"/><path d="M103,37.21Q69.62,37.65 63.96,42.67C60.97,45.33 62.33,49.81 61.15,53.33C59.95,56.93 59.85,60.95 56.78,64C51.96,68.8 35.2,72.42 30.42,74.67C28.57,75.54 27.8,75.53 26.67,76.7C24.98,78.46 21.98,83.21 22.43,85.33C22.77,86.93 24.11,87.82 26.67,88.84Q36.21,92.63 103,93.86Z" style="stroke: none; fill: rgb(248, 247, 251);"/><path d="M103,37.79Q73.47,38.03 68.1,42.67C65.09,45.27 66.15,49.8 64.98,53.33C63.79,56.91 63.89,60.93 61,64C56.61,68.67 43.32,71.57 37.03,74.67C32.81,76.75 28.79,78.08 26.67,80.28C25.21,81.8 23.92,84.09 24.19,85.33C24.39,86.27 25.09,86.75 26.67,87.39Q34.34,90.49 103,93.09Z" style="stroke: none; fill: rgb(253, 247, 242);"/><path d="M103,38.37Q77.29,38.44 72.25,42.67C69.23,45.21 69.99,49.78 68.82,53.33C67.65,56.89 67.93,60.9 65.22,64C61.26,68.53 50.38,71.18 43.65,74.67C37.62,77.79 28.29,81.68 26.67,83.87C26.17,84.54 25.9,85.08 26.310000000000002,85.63Q29.02,89.26 103,92.31Z" style="stroke: none; fill: rgb(249, 230, 215);"/><path d="M103,38.95Q81.05,38.86 76.39,42.67C73.37,45.14 73.81,49.76 72.65,53.33C71.49,56.87 71.95,60.87 69.43,64C65.89,68.39 56.56,71.08 50.26,74.67C44.07,78.19 31.34,82.63 31.94,85.33Q33.05,90.28 103,91.53Z" style="stroke: none; fill: rgb(245, 213, 188);"/><path d="M103,39.53Q84.75,39.3 80.53,42.67C77.54,45.06 77.63,49.75 76.48,53.33C75.35,56.86 75.97,60.83 73.65,64C70.54,68.25 62.39,71.09 56.88,74.67C51.46,78.2 40.17,82.69 40.84,85.33Q42.05,90.09 103,90.75Z" style="stroke: none; fill: rgb(241, 196, 162);"/><path d="M103,40.11Q88.41,39.78 84.68,42.67C81.74,44.95 81.45,49.73 80.31,53.33C79.2,56.84 79.97,60.78 77.87,64C75.18,68.11 68.21,71.09 63.49,74.67C58.84,78.2 48.99,82.75 49.75,85.33Q51.08,89.86 103,89.98Z" style="stroke: none; fill: rgb(237, 179, 135);"/><path d="M103,40.69Q91.97,40.28 88.82,42.67C85.98,44.82 85.27,49.71 84.14,53.33C83.05,56.83 83.95,60.73 82.09,64C79.83,67.98 74.04,71.09 70.11,74.67C66.23,78.2 57.79,82.81 58.66,85.33Q60.12,89.57 103,89.2Z" style="stroke: none; fill: rgb(233, 162, 109);"/><path d="M103,41.26Q95.44,40.84 92.96,42.67C90.29,44.64 89.08,49.7 87.97,53.33C86.91,56.81 87.89,60.66 86.3,64C84.47,67.85 79.86,71.1 76.72,74.67C73.61,78.21 66.57,82.9 67.56,85.33Q69.14,89.2 103,88.42Z" style="stroke: none; fill: rgb(229, 146, 82);"/><path d="M103,41.84Q93.78,49.22 91.81,53.33C90.2,56.7 91.79,60.59 90.52,64C89.13,67.73 85.69,71.1 83.34,74.67C81.01,78.21 75.33,83.01 76.47,85.33Q78.12,88.69 103,87.65Z" style="stroke: none; fill: rgb(225, 129, 55);"/><path d="M103,42.42Q96.98,49.53 95.64,53.33C94.43,56.76 95.64,60.52 94.74,64C93.8,67.64 91.52,71.11 89.96,74.67C88.4,78.22 84.09,83.18 85.38,85.33Q86.97,87.98 103,86.87Z" style="stroke: none; fill: rgb(221, 112, 29);"/><path d="M103,46.78Q100.18,50.79 99.47,53.33C98.62,56.37 99.44,60.46 98.96,64C98.48,67.58 96.05,71.15 96.57,74.67Q97.14,78.52 103,86.09Z" style="stroke: none; fill: rgb(217, 95, 2);"/></g><g class="contourlines"/></g></g></g></g><path class="xlines-above crisp" d="M35.5,116.25H139.5M35.5,19.75H139.5" style="fill: none; stroke-width: 0.5px; stroke: rgb(0, 0, 0); stroke-opacity: 1;"/><path class="ylines-above crisp" d="M35.75,20V116M139.25,20V116" style="fill: none; stroke-width: 0.5px; stroke: rgb(0, 0, 0); stroke-opacity: 1;"/><g class="overlines-above"/><g class="xaxislayer-above"><path class="xtick ticks crisp" d="M0,116v-5" transform="translate(55.230000000000004,0)" style="stroke: rgb(0, 0, 0); stroke-opacity: 1; stroke-width: 0.5px;"/><path class="xtick ticks crisp" d="M0,116v-5" transform="translate(83.55,0)" style="stroke: rgb(0, 0, 0); stroke-opacity: 1; stroke-width: 0.5px;"/><path class="xtick ticks crisp" d="M0,116v-5" transform="translate(111.88,0)" style="stroke: rgb(0, 0, 0); stroke-opacity: 1; stroke-width: 0.5px;"/><g class="xtick"><text text-anchor="middle" x="0" y="129.7" transform="translate(55.230000000000004,0)" style="font-family: 'Open Sans', verdana, arial, sans-serif; font-size: 11px; fill: rgb(0, 0, 0); fill-opacity: 1; white-space: pre; opacity: 1;">1</text></g><g class="xtick"><text text-anchor="middle" x="0" y="129.7" style="font-family: 'Open Sans', verdana, arial, sans-serif; font-size: 11px; fill: rgb(0, 0, 0); fill-opacity: 1; white-space: pre; opacity: 1;" transform="translate(83.55,0)">10</text></g><g class="xtick"><text text-anchor="middle" x="0" y="129.7" style="font-family: 'Open Sans', verdana, arial, sans-serif; font-size: 11px; fill: rgb(0, 0, 0); fill-opacity: 1; white-space: pre; opacity: 1;" transform="translate(111.88,0)">100</text></g></g><g class="yaxislayer-above"><path class="ytick ticks crisp" d="M36,0h5" transform="translate(0,84)" style="stroke: rgb(0, 0, 0); stroke-opacity: 1; stroke-width: 0.5px;"/><path class="ytick ticks crisp" d="M36,0h5" transform="translate(0,52)" style="stroke: rgb(0, 0, 0); stroke-opacity: 1; stroke-width: 0.5px;"/><g class="ytick"><text text-anchor="end" x="33.3" y="3.8499999999999996" transform="translate(0,116)" style="font-family: 'Open Sans', verdana, arial, sans-serif; font-size: 11px; fill: rgb(0, 0, 0); fill-opacity: 1; white-space: pre; opacity: 1;">0</text></g><g class="ytick"><text text-anchor="end" x="33.3" y="3.8499999999999996" style="font-family: 'Open Sans', verdana, arial, sans-serif; font-size: 11px; fill: rgb(0, 0, 0); fill-opacity: 1; white-space: pre; opacity: 1;" transform="translate(0,84)">0.1</text></g><g class="ytick"><text text-anchor="end" x="33.3" y="3.8499999999999996" style="font-family: 'Open Sans', verdana, arial, sans-serif; font-size: 11px; fill: rgb(0, 0, 0); fill-opacity: 1; white-space: pre; opacity: 1;" transform="translate(0,52)">0.2</text></g><g class="ytick"><text text-anchor="end" x="33.3" y="3.8499999999999996" style="font-family: 'Open Sans', verdana, arial, sans-serif; font-size: 11px; fill: rgb(0, 0, 0); fill-opacity: 1; white-space: pre; opacity: 1;" transform="translate(0,20)">0.3</text></g></g><g class="overaxes-above"/></g></g><g class="polarlayer"/><g class="smithlayer"/><g class="ternarylayer"/><g class="geolayer"/><g class="funnelarealayer"/><g class="pielayer"/><g class="iciclelayer"/><g class="treemaplayer"/><g class="sunburstlayer"/><g class="glimages"/><defs id="topdefs-f7c7c1"><g class="clips"/></defs><g class="layer-above"><g class="imagelayer"/><g class="shapelayer"/></g><g class="infolayer"><g class="g-gtitle"><text class="gtitle" x="7.5" y="10" text-anchor="start" dy="0em" style="opacity: 1; font-family: 'Open Sans', verdana, arial, sans-serif; font-size: 11px; fill: rgb(0, 0, 0); fill-opacity: 1; white-space: pre;">Cross-feeding</text></g><g class="g-xtitle" transform="translate(0,4.550000000000011)"><text class="xtitle" x="87.5" y="140.153125" text-anchor="middle" style="opacity: 1; font-family: 'Open Sans', verdana, arial, sans-serif; font-size: 11px; fill: rgb(0, 0, 0); fill-opacity: 1; white-space: pre;">Thiamine concentration in chemostat [nM]</text></g><g class="g-ytitle"><text class="ytitle" transform="rotate(-90,14.181249999999999,68)" x="14.181249999999999" y="68" text-anchor="middle" style="opacity: 1; font-family: 'Open Sans', verdana, arial, sans-serif; font-size: 11px; fill: rgb(0, 0, 0); fill-opacity: 1; white-space: pre;">Dilution rate [1/h]</text></g></g></svg>