<svg class="main-svg" xmlns="http://www.w3.org/2000/svg" xmlns:xlink="http://www.w3.org/1999/xlink" width="170" height="150" style="" viewBox="0 0 170 150"><rect x="0" y="0" width="170" height="150" style="fill: rgb(255, 255, 255); fill-opacity: 1;"/><defs id="defs-4110c4"><g class="clips"><clipPath id="clip4110c4xyplot" class="plotclip"><rect width="109" height="96"/></clipPath><clipPath class="axesclip" id="clip4110c4x"><rect x="42" y="0" width="109" height="150"/></clipPath><clipPath class="axesclip" id="clip4110c4y"><rect x="0" y="20" width="170" height="96"/></clipPath><clipPath class="axesclip" id="clip4110c4xy"><rect x="42" y="20" width="109" height="96"/></clipPath><clipPath class="contourclip" id="clip39d8d3"><path d="M0,0L109,0L109,96L0,96Z"/></clipPath></g><g class="gradients"/><g class="patterns"/></defs><g class="bglayer"/><g class="layer-below"><g class="imagelayer"/><g class="shapelayer"/></g><g class="cartesianlayer"><g class="subplot xy"><g class="layer-subplot"><g class="shapelayer"/><g class="imagelayer"/></g><g class="minor-gridlayer"><g class="x"/><g class="y"/></g><g class="gridlayer"><g class="x"><path class="xgrid crisp" transform="translate(62.92,0)" d="M0,20v96" style="stroke: rgb(128, 128, 128); stroke-opacity: 1; stroke-width: 0.2px;"/><path class="xgrid crisp" transform="translate(84.94,0)" d="M0,20v96" style="stroke: rgb(128, 128, 128); stroke-opacity: 1; stroke-width: 0.2px;"/><path class="xgrid crisp" transform="translate(106.96,0)" d="M0,20v96" style="stroke: rgb(128, 128, 128); stroke-opacity: 1; stroke-width: 0.2px;"/><path class="xgrid crisp" transform="translate(128.98000000000002,0)" d="M0,20v96" style="stroke: rgb(128, 128, 128); stroke-opacity: 1; stroke-width: 0.2px;"/></g><g class="y"/></g><g class="zerolinelayer"/><g class="layer-between"><g class="shapelayer"/><g class="imagelayer"/></g><path class="xlines-below"/><path class="ylines-below"/><g class="overlines-below"/><g class="xaxislayer-below"/><g class="yaxislayer-below"/><g class="overaxes-below"/><g class="overplot"><g class="xy" transform="translate(42,20)" clip-path="url(#clip4110c4xyplot)"><g class="contourlayer mlayer"><g class="contour" clip-path="url(#clip39d8d3)" style="opacity: 1;"><g class="heatmapcoloring"/><g class="contourbg"><path d="M0,0L109,0L109,96L0,96Z" style="stroke: none; fill: rgb(117, 112, 179);"/></g><g class="contourfill"><path d="M0,56.91Q0.48,54.85 0.61,53.33C0.83,50.73 0.61,46.22 0.61,42.67C0.61,39.11 -0.85,35.24 0.61,32C2.39,28.07 8.48,25.07 12.415,21.6C16.35,18.13 19.93,12.82 24.22,11.2C27.98,9.78 32.29,11.2 36.33,11.2C40.37,11.2 44.4,11.2 48.44,11.2C52.48,11.2 56.52,11.2 60.56,11.2C64.6,11.2 68.63,11.2 72.67,11.2C76.71,11.2 80.74,11.2 84.78,11.2C88.82,11.2 92.85,11.2 96.89,11.2Q100.93,11.2 109,11.2L109,96L0,96Z" style="stroke: none; fill: rgb(132, 127, 187);"/><path d="M0,60.48Q0.99,55.96 1.21,53.33C1.48,50.14 1.21,46.22 1.21,42.67C1.21,39.11 -0.25,35.22 1.21,32C2.95,28.14 8.88,25.24 12.715,21.865C16.55,18.49 20.01,13.32 24.22,11.73C27.96,10.32 32.29,11.73 36.33,11.73C40.37,11.73 44.4,11.73 48.44,11.73C52.48,11.73 56.52,11.73 60.56,11.73C64.6,11.73 68.63,11.73 72.67,11.73C76.71,11.73 80.74,11.73 84.78,11.73C88.82,11.73 92.85,11.73 96.89,11.73Q100.93,11.73 109,11.73L109,96L0,96Z" style="stroke: none; fill: rgb(146, 142, 195);"/><path d="M0,64.03Q1.52,56.91 1.82,53.33C2.12,49.79 1.82,46.22 1.82,42.67C1.82,39.11 0.4,35.14 1.82,32C3.43,28.44 10.08,24.72 12.11,22.93C12.96,22.18 13.08,22.08 13.93,21.33C15.96,19.54 20.34,13.73 24.22,12.27C27.86,10.89 32.29,12.27 36.33,12.27C40.37,12.27 44.4,12.27 48.44,12.27C52.48,12.27 56.52,12.27 60.56,12.27C64.6,12.27 68.63,12.27 72.67,12.27C76.71,12.27 80.74,12.27 84.78,12.27C88.82,12.27 92.85,12.27 96.89,12.27Q100.93,12.27 109,12.27L109,96L0,96Z" style="stroke: none; fill: rgb(161, 157, 203);"/><path d="M0,65.67Q2.03,57.31 2.42,53.33C2.78,49.66 2.42,46.22 2.42,42.67C2.42,39.11 1.02,35.09 2.42,32C3.96,28.6 9.96,25.37 12.11,23.47C13.19,22.52 13.45,22.28 14.53,21.33C16.68,19.43 20.51,14.2 24.22,12.8C27.81,11.45 32.29,12.8 36.33,12.8C40.37,12.8 44.4,12.8 48.44,12.8C52.48,12.8 56.52,12.8 60.56,12.8C64.6,12.8 68.63,12.8 72.67,12.8C76.71,12.8 80.74,12.8 84.78,12.8C88.82,12.8 92.85,12.8 96.89,12.8Q100.93,12.8 109,12.8L109,96L0,96Z" style="stroke: none; fill: rgb(175, 172, 211);"/><path d="M4.05,96L0,95.39L0,67.32Q1.01,65.46 1.43,64C2.15,61.49 2.76,56.9 3.03,53.33C3.29,49.79 3.03,46.22 3.03,42.67C3.03,39.11 1.65,35.05 3.03,32C4.5,28.76 9.89,25.95 12.11,24C13.39,22.87 13.86,22.46 15.14,21.33C17.36,19.38 20.69,14.66 24.22,13.33C27.75,12 32.29,13.33 36.33,13.33C40.37,13.33 44.4,13.33 48.44,13.33C52.48,13.33 56.52,13.33 60.56,13.33C64.6,13.33 68.63,13.33 72.67,13.33C76.71,13.33 80.74,13.33 84.78,13.33C88.82,13.33 92.85,13.33 96.89,13.33Q100.93,13.33 109,13.33L109,96Z" style="stroke: none; fill: rgb(190, 187, 219);"/><path d="M12.02,96L0,94.2L0,68.96Q1.59,66.01 2.15,64C2.95,61.16 3.38,56.89 3.63,53.33C3.87,49.78 3.63,46.22 3.63,42.67C3.63,39.11 2.28,35 3.63,32C5.02,28.92 9.87,26.5 12.11,24.53C13.57,23.24 14.28,22.62 15.74,21.33C17.98,19.36 20.87,15.14 24.22,13.87C27.69,12.56 32.29,13.87 36.33,13.87C40.37,13.87 44.4,13.87 48.44,13.87C52.48,13.87 56.52,13.87 60.56,13.87C64.6,13.87 68.63,13.87 72.67,13.87C76.71,13.87 80.74,13.87 84.78,13.87C88.82,13.87 92.85,13.87 96.89,13.87Q100.93,13.87 109,13.87L109,96Z" style="stroke: none; fill: rgb(204, 202, 227);"/><path d="M109,95.43Q100.93,95.42 96.89,95.42C92.85,95.42 88.82,95.42 84.78,95.42C80.74,95.42 76.71,95.41 72.67,95.41C68.63,95.41 64.6,95.41 60.56,95.41C56.52,95.41 52.48,95.4 48.44,95.39C44.4,95.39 40.37,95.39 36.33,95.38C32.29,95.37 28.26,95.36 24.22,95.34C20.18,95.32 16.13,95.63 12.11,95.25Q8.06,94.86 0,93.01L0,70.61Q2.17,66.52 2.86,64C3.71,60.92 4.01,56.89 4.24,53.33C4.47,49.78 4.24,46.22 4.24,42.67C4.24,39.11 2.91,34.94 4.24,32C5.56,29.08 9.89,27.03 12.11,25.07C13.74,23.63 14.72,22.77 16.35,21.33C18.57,19.37 21.05,15.6 24.22,14.4C27.63,13.11 32.29,14.4 36.33,14.4C40.37,14.4 44.4,14.4 48.44,14.4C52.48,14.4 56.52,14.4 60.56,14.4C64.6,14.4 68.63,14.4 72.67,14.4C76.71,14.4 80.74,14.4 84.78,14.4C88.82,14.4 92.85,14.4 96.89,14.4Q100.93,14.4 109,14.4Z" style="stroke: none; fill: rgb(219, 217, 235);"/><path d="M109,94.65Q100.93,94.65 96.89,94.65C92.85,94.65 88.82,94.64 84.78,94.64C80.74,94.64 76.71,94.64 72.67,94.64C68.63,94.64 64.6,94.63 60.56,94.63C56.52,94.63 52.48,94.63 48.44,94.62C44.4,94.62 40.37,94.61 36.33,94.6C32.29,94.59 28.26,94.59 24.22,94.57C20.18,94.55 16.12,94.93 12.11,94.48Q8.05,94.02 0,91.82L0,72.25Q2.76,66.99 3.57,64C4.45,60.73 4.63,56.89 4.84,53.33C5.05,49.78 4.84,46.22 4.84,42.67C4.84,39.11 3.54,34.88 4.84,32C6.08,29.25 9.93,27.52 12.11,25.6C13.89,24.03 15.17,22.9 16.95,21.33C19.13,19.41 21.24,16.06 24.22,14.93C27.56,13.67 32.29,14.93 36.33,14.93C40.37,14.93 44.4,14.93 48.44,14.93C52.48,14.93 56.52,14.93 60.56,14.93C64.6,14.93 68.63,14.93 72.67,14.93C76.71,14.93 80.74,14.93 84.78,14.93C88.82,14.93 92.85,14.93 96.89,14.93Q100.93,14.93 109,14.93Z" style="stroke: none; fill: rgb(233, 232, 243);"/><path d="M109,93.87Q100.93,93.87 96.89,93.87C92.85,93.87 88.82,93.87 84.78,93.87C80.74,93.87 76.71,93.86 72.67,93.86C68.63,93.86 64.6,93.86 60.56,93.86C56.52,93.86 52.48,93.86 48.44,93.85C44.4,93.85 40.37,93.84 36.33,93.83C32.29,93.82 28.26,93.82 24.22,93.8C20.18,93.78 16.12,94.24 12.11,93.72Q8.04,93.2 0,90.63L0,73.9Q3.37,67.43 4.28,64C5.19,60.58 5.26,56.89 5.45,53.33C5.64,49.78 5.45,46.22 5.45,42.67C5.45,39.11 4.18,34.82 5.45,32C6.61,29.43 10,27.99 12.11,26.13C14.02,24.45 15.65,23.01 17.56,21.33C19.67,19.47 21.43,16.52 24.22,15.47C27.48,14.24 32.29,15.47 36.33,15.47C40.37,15.47 44.4,15.47 48.44,15.47C52.48,15.47 56.52,15.47 60.56,15.47C64.6,15.47 68.63,15.47 72.67,15.47C76.71,15.47 80.74,15.47 84.78,15.47C88.82,15.47 92.85,15.47 96.89,15.47Q100.93,15.47 109,15.47Z" style="stroke: none; fill: rgb(248, 247, 251);"/><path d="M109,93.1Q100.93,93.09 96.89,93.09C92.85,93.09 88.82,93.09 84.78,93.09C80.74,93.09 76.71,93.09 72.67,93.09C68.63,93.09 64.6,93.08 60.56,93.08C56.52,93.08 52.48,93.07 48.44,93.07C44.4,93.07 40.37,93.07 36.33,93.06C32.29,93.05 28.26,93.05 24.22,93.03C20.18,93.01 16.11,93.54 12.11,92.96Q8.03,92.37 0,89.44L0,76.09Q3.99,67.98 4.99,64C5.89,60.4 5.88,56.89 6.06,53.33C6.24,49.78 6.06,46.22 6.06,42.67C6.06,39.11 4.82,34.75 6.06,32C7.14,29.61 10.09,28.45 12.11,26.67C14.13,24.89 16.15,23.11 18.17,21.33C20.19,19.55 21.63,16.98 24.22,16C27.39,14.8 32.29,16 36.33,16C40.37,16 44.4,16 48.44,16C52.48,16 56.52,16 60.56,16C64.6,16 68.63,16 72.67,16C76.71,16 80.74,16 84.78,16C88.82,16 92.85,16 96.89,16Q100.93,16 109,16Z" style="stroke: none; fill: rgb(253, 247, 242);"/><path d="M109,92.32Q100.93,92.32 96.89,92.32C92.85,92.32 88.82,92.32 84.78,92.32C80.74,92.32 76.71,92.31 72.67,92.31C68.63,92.31 64.6,92.31 60.56,92.31C56.52,92.31 52.48,92.3 48.44,92.3C44.4,92.3 40.37,92.3 36.33,92.29C32.29,92.28 28.26,92.27 24.22,92.26C20.18,92.24 16.1,92.84 12.11,92.2Q8.02,91.54 0,88.25L0,78.77Q1.08,76.37 1.76,74.67C2.84,71.96 4.9,67.61 5.71,64C6.5,60.5 6.5,56.89 6.66,53.33C6.82,49.78 6.66,46.22 6.66,42.67C6.66,39.11 5.45,34.67 6.66,32C7.66,29.8 10.2,28.88 12.11,27.2C14.22,25.34 16.66,23.19 18.77,21.33C20.68,19.65 21.83,17.43 24.22,16.53C27.3,15.37 32.29,16.53 36.33,16.53C40.37,16.53 44.4,16.53 48.44,16.53C52.48,16.53 56.52,16.53 60.56,16.53C64.6,16.53 68.63,16.53 72.67,16.53C76.71,16.53 80.74,16.53 84.78,16.53C88.82,16.53 92.85,16.53 96.89,16.53Q100.93,16.53 109,16.53Z" style="stroke: none; fill: rgb(249, 230, 215);"/><path d="M109,91.54Q100.93,91.54 96.89,91.54C92.85,91.54 88.82,91.54 84.78,91.54C80.74,91.54 76.71,91.54 72.67,91.54C68.63,91.54 64.6,91.53 60.56,91.53C56.52,91.53 52.48,91.52 48.44,91.52C44.4,91.52 40.37,91.51 36.33,91.51C32.29,91.5 28.26,91.5 24.22,91.49C20.18,91.48 16.09,92.14 12.11,91.43Q8.01,90.7 0,87.06L0,81.45Q1.95,77.21 2.91,74.67C4.09,71.54 5.7,67.6 6.42,64C7.13,60.49 7.13,56.89 7.27,53.33C7.41,49.78 7.27,46.22 7.27,42.67C7.27,39.11 6.1,34.59 7.27,32C8.18,29.99 10.33,29.3 12.11,27.73C14.29,25.81 17.2,23.25 19.38,21.33C21.16,19.77 22.04,17.89 24.22,17.07C27.2,15.94 32.29,17.07 36.33,17.07C40.37,17.07 44.4,17.07 48.44,17.07C52.48,17.07 56.52,17.07 60.56,17.07C64.6,17.07 68.63,17.07 72.67,17.07C76.71,17.07 80.74,17.07 84.78,17.07C88.82,17.07 92.85,17.07 96.89,17.07Q100.93,17.07 109,17.07Z" style="stroke: none; fill: rgb(245, 213, 188);"/><path d="M109,90.77Q100.93,90.77 96.89,90.77C92.85,90.77 88.82,90.76 84.78,90.76C80.74,90.76 76.71,90.76 72.67,90.76C68.63,90.76 64.6,90.76 60.56,90.76C56.52,90.76 52.48,90.75 48.44,90.75C44.4,90.75 40.37,90.74 36.33,90.74C32.29,90.73 28.26,90.73 24.22,90.72C20.18,90.71 16.08,91.44 12.11,90.67Q8,89.88 0,85.87L0,84.13Q2.89,77.96 4.06,74.67C5.28,71.26 6.5,67.59 7.13,64C7.75,60.48 7.75,56.89 7.87,53.33C7.99,49.78 7.87,46.22 7.87,42.67C7.87,39.11 6.75,34.49 7.87,32C8.69,30.19 10.48,29.71 12.11,28.27C14.33,26.31 17.76,23.29 19.98,21.33C21.61,19.89 22.26,18.34 24.22,17.6C27.09,16.52 32.29,17.6 36.33,17.6C40.37,17.6 44.4,17.6 48.44,17.6C52.48,17.6 56.52,17.6 60.56,17.6C64.6,17.6 68.63,17.6 72.67,17.6C76.71,17.6 80.74,17.6 84.78,17.6C88.82,17.6 92.85,17.6 96.89,17.6Q100.93,17.6 109,17.6Z" style="stroke: none; fill: rgb(241, 196, 162);"/><path d="M109,89.99Q100.93,89.99 96.89,89.99C92.85,89.99 88.82,89.99 84.78,89.99C80.74,89.99 76.71,89.99 72.67,89.99C68.63,89.99 64.6,89.98 60.56,89.98C56.52,89.98 52.48,89.98 48.44,89.98C44.4,89.98 40.37,89.97 36.33,89.97C32.29,89.96 28.26,89.96 24.22,89.95C20.18,89.94 15.98,90.69 12.11,89.91C8.25,89.14 2.12,87.92 1.02,85.33C-0.06,82.8 4.07,78.26 5.21,74.67C6.33,71.15 7.3,67.58 7.84,64C8.38,60.47 8.37,56.89 8.48,53.33C8.59,49.78 8.48,46.22 8.48,42.67C8.48,39.11 7.41,34.38 8.48,32C9.2,30.4 10.65,30.09 12.11,28.8C14.35,26.83 18.35,23.3 20.59,21.33C22.05,20.04 22.49,18.78 24.22,18.13C26.96,17.1 32.29,18.13 36.33,18.13C40.37,18.13 44.4,18.13 48.44,18.13C52.48,18.13 56.52,18.13 60.56,18.13C64.6,18.13 68.63,18.13 72.67,18.13C76.71,18.13 80.74,18.13 84.78,18.13C88.82,18.13 92.85,18.13 96.89,18.13Q100.93,18.13 109,18.13Z" style="stroke: none; fill: rgb(237, 179, 135);"/><path d="M109,89.22Q100.93,89.21 96.89,89.21C92.85,89.21 88.82,89.21 84.78,89.21C80.74,89.21 76.71,89.21 72.67,89.21C68.63,89.21 64.6,89.21 60.56,89.21C56.52,89.21 52.48,89.2 48.44,89.2C44.4,89.2 40.37,89.2 36.33,89.2C32.29,89.2 28.26,89.19 24.22,89.18C20.18,89.17 15.81,89.89 12.11,89.15C8.75,88.48 3.92,87.61 2.87,85.33C1.76,82.91 5.41,78.25 6.36,74.67C7.3,71.14 8.1,67.57 8.55,64C9,60.46 8.99,56.89 9.08,53.33C9.17,49.78 9.08,46.22 9.08,42.67C9.08,39.11 8.06,34.25 9.08,32C9.71,30.62 10.83,30.46 12.11,29.33C14.33,27.38 18.97,23.28 21.19,21.33C22.47,20.2 22.73,19.23 24.22,18.67C26.81,17.7 32.29,18.67 36.33,18.67C40.37,18.67 44.4,18.67 48.44,18.67C52.48,18.67 56.52,18.67 60.56,18.67C64.6,18.67 68.63,18.67 72.67,18.67C76.71,18.67 80.74,18.67 84.78,18.67C88.82,18.67 92.85,18.67 96.89,18.67Q100.93,18.67 109,18.67Z" style="stroke: none; fill: rgb(233, 162, 109);"/><path d="M109,88.44Q100.93,88.44 96.89,88.44C92.85,88.44 88.82,88.44 84.78,88.44C80.74,88.44 76.71,88.43 72.67,88.43C68.63,88.43 64.6,88.43 60.56,88.43C56.52,88.43 52.48,88.43 48.44,88.43C44.4,88.43 40.37,88.42 36.33,88.42C32.29,88.42 28.26,88.42 24.22,88.41C20.18,88.4 15.59,89.07 12.11,88.38C9.28,87.82 5.68,87.27 4.71,85.33C3.58,83.05 6.75,78.24 7.51,74.67C8.26,71.13 8.9,67.57 9.26,64C9.62,60.45 9.62,56.89 9.69,53.33C9.76,49.78 9.69,46.22 9.69,42.67C9.69,39.11 8.74,34.1 9.69,32C10.21,30.85 11.03,30.82 12.11,29.87C14.26,27.97 19.65,23.23 21.8,21.33C22.88,20.38 22.98,19.67 24.22,19.2C26.63,18.29 32.29,19.2 36.33,19.2C40.37,19.2 44.4,19.2 48.44,19.2C52.48,19.2 56.52,19.2 60.56,19.2C64.6,19.2 68.63,19.2 72.67,19.2C76.71,19.2 80.74,19.2 84.78,19.2C88.82,19.2 92.85,19.2 96.89,19.2Q100.93,19.2 109,19.2Z" style="stroke: none; fill: rgb(229, 146, 82);"/><path d="M109,87.66Q100.93,87.66 96.89,87.66C92.85,87.66 88.82,87.66 84.78,87.66C80.74,87.66 76.71,87.66 72.67,87.66C68.63,87.66 64.6,87.66 60.56,87.66C56.52,87.66 52.48,87.66 48.44,87.66C44.4,87.66 40.37,87.65 36.33,87.65C32.29,87.65 28.26,87.64 24.22,87.64C20.18,87.63 15.32,88.26 12.11,87.62C9.85,87.17 7.4,86.89 6.56,85.33C5.43,83.23 8.09,78.23 8.66,74.67C9.23,71.12 9.71,67.56 9.98,64C10.25,60.45 10.24,56.89 10.29,53.33C10.34,49.78 10.29,46.22 10.29,42.67C10.29,39.11 9.43,33.91 10.29,32C10.7,31.09 11.26,31.15 12.11,30.4C14.14,28.61 20.38,23.12 22.41,21.33C23.26,20.58 23.25,20.1 24.22,19.73C26.4,18.9 32.29,19.73 36.33,19.73C40.37,19.73 44.4,19.73 48.44,19.73C52.48,19.73 56.52,19.73 60.56,19.73C64.6,19.73 68.63,19.73 72.67,19.73C76.71,19.73 80.74,19.73 84.78,19.73C88.82,19.73 92.85,19.73 96.89,19.73Q100.93,19.73 109,19.73Z" style="stroke: none; fill: rgb(225, 129, 55);"/><path d="M109,86.89Q100.93,86.89 96.89,86.89C92.85,86.89 88.82,86.88 84.78,86.88C80.74,86.88 76.71,86.88 72.67,86.88C68.63,86.88 64.6,86.88 60.56,86.88C56.52,86.88 52.48,86.88 48.44,86.88C44.4,86.88 40.37,86.88 36.33,86.88C32.29,86.88 28.26,86.87 24.22,86.87C20.18,86.87 14.95,87.42 12.11,86.86C10.48,86.54 9.07,86.47 8.41,85.33C7.33,83.46 9.43,78.23 9.81,74.67C10.19,71.12 10.51,67.56 10.69,64C10.87,60.45 10.87,56.89 10.9,53.33C10.93,49.78 10.8,46.27 10.9,42.67C11,38.98 9.86,34.85 11.504999999999999,31.465C13.47,27.41 19.19,22.58 23.615000000000002,20.799999999999997C27.55,19.22 32.14,20.36 36.33,20.27C40.41,20.18 44.4,20.27 48.44,20.27C52.48,20.27 56.52,20.27 60.56,20.27C64.6,20.27 68.63,20.27 72.67,20.27C76.71,20.27 80.74,20.27 84.78,20.27C88.82,20.27 92.85,20.27 96.89,20.27Q100.93,20.27 109,20.27Z" style="stroke: none; fill: rgb(221, 112, 29);"/><path d="M109,86.11Q100.93,86.11 96.89,86.11C92.85,86.11 88.82,86.11 84.78,86.11C80.74,86.11 76.71,86.11 72.67,86.11C68.63,86.11 64.6,86.11 60.56,86.11C56.52,86.11 52.48,86.11 48.44,86.11C44.4,86.11 40.37,86.11 36.33,86.11C32.29,86.11 28.33,86.16 24.22,86.1C19.95,86.04 13.31,87.86 11.184999999999999,85.715C9.23,83.74 10.92,78.32 10.96,74.67C11,71.08 11.31,67.56 11.4,64C11.49,60.44 11.49,56.89 11.51,53.33C11.53,49.78 11.46,46.25 11.51,42.67C11.56,39.05 10.25,35.06 11.809999999999999,31.735C13.7,27.7 19.52,22.78 23.92,21.064999999999998C27.78,19.56 32.22,20.84 36.33,20.8C40.39,20.76 44.4,20.8 48.44,20.8C52.48,20.8 56.52,20.8 60.56,20.8C64.6,20.8 68.63,20.8 72.67,20.8C76.71,20.8 80.74,20.8 84.78,20.8C88.82,20.8 92.85,20.8 96.89,20.8Q100.93,20.8 109,20.8Z" style="stroke: none; fill: rgb(217, 95, 2);"/></g><g class="contourlines"/></g></g></g></g><path class="xlines-above crisp" d="M41.5,116.25H151.5M41.5,19.75H151.5" style="fill: none; stroke-width: 0.5px; stroke: rgb(0, 0, 0); stroke-opacity: 1;"/><path class="ylines-above crisp" d="M41.75,20V116M151.25,20V116" style="fill: none; stroke-width: 0.5px; stroke: rgb(0, 0, 0); stroke-opacity: 1;"/><g class="overlines-above"/><g class="xaxislayer-above"><g class="xtick"><text text-anchor="middle" x="0" y="129.7" transform="translate(62.92,0)" style="font-family: 'Open Sans', verdana, arial, sans-serif; font-size: 11px; fill: rgb(0, 0, 0); fill-opacity: 1; white-space: pre; opacity: 1;">20</text></g><g class="xtick"><text text-anchor="middle" x="0" y="129.7" style="font-family: 'Open Sans', verdana, arial, sans-serif; font-size: 11px; fill: rgb(0, 0, 0); fill-opacity: 1; white-space: pre; opacity: 1;" transform="translate(84.94,0)">40</text></g><g class="xtick"><text text-anchor="middle" x="0" y="129.7" style="font-family: 'Open Sans', verdana, arial, sans-serif; font-size: 11px; fill: rgb(0, 0, 0); fill-opacity: 1; white-space: pre; opacity: 1;" transform="translate(106.96,0)">60</text></g><g class="xtick"><text text-anchor="middle" x="0" y="129.7" style="font-family: 'Open Sans', verdana, arial, sans-serif; font-size: 11px; fill: rgb(0, 0, 0); fill-opacity: 1; white-space: pre; opacity: 1;" transform="translate(128.98000000000002,0)">80</text></g><g class="xtick"><text text-anchor="middle" x="0" y="129.7" style="font-family: 'Open Sans', verdana, arial, sans-serif; font-size: 11px; fill: rgb(0, 0, 0); fill-opacity: 1; white-space: pre; opacity: 1;" transform="translate(151,0)">100</text></g></g><g class="yaxislayer-above"><g class="ytick"><text text-anchor="end" x="39.3" y="3.8499999999999996" transform="translate(0,116)" style="font-family: 'Open Sans', verdana, arial, sans-serif; font-size: 11px; fill: rgb(0, 0, 0); fill-opacity: 1; white-space: pre; opacity: 1;">0</text></g><g class="ytick"><text text-anchor="end" x="39.3" y="3.8499999999999996" style="font-family: 'Open Sans', verdana, arial, sans-serif; font-size: 11px; fill: rgb(0, 0, 0); fill-opacity: 1; white-space: pre; opacity: 1;" transform="translate(0,92)">0.05</text></g><g class="ytick"><text text-anchor="end" x="39.3" y="3.8499999999999996" style="font-family: 'Open Sans', verdana, arial, sans-serif; font-size: 11px; fill: rgb(0, 0, 0); fill-opacity: 1; white-space: pre; opacity: 1;" transform="translate(0,68)">0.1</text></g><g class="ytick"><text text-anchor="end" x="39.3" y="3.8499999999999996" style="font-family: 'Open Sans', verdana, arial, sans-serif; font-size: 11px; fill: rgb(0, 0, 0); fill-opacity: 1; white-space: pre; opacity: 1;" transform="translate(0,44)">0.15</text></g><g class="ytick"><text text-anchor="end" x="39.3" y="3.8499999999999996" style="font-family: 'Open Sans', verdana, arial, sans-serif; font-size: 11px; fill: rgb(0, 0, 0); fill-opacity: 1; white-space: pre; opacity: 1;" transform="translate(0,20)">0.2</text></g></g><g class="overaxes-above"/></g></g><g class="polarlayer"/><g class="smithlayer"/><g class="ternarylayer"/><g class="geolayer"/><g class="funnelarealayer"/><g class="pielayer"/><g class="iciclelayer"/><g class="treemaplayer"/><g class="sunburstlayer"/><g class="glimages"/><defs id="topdefs-4110c4"><g class="clips"/></defs><g class="layer-above"><g class="imagelayer"/><g class="shapelayer"/></g><g class="infolayer"><g class="g-gtitle"><text class="gtitle" x="8.5" y="10" text-anchor="start" dy="0em" style="opacity: 1; font-family: 'Open Sans', verdana, arial, sans-serif; font-size: 11px; fill: rgb(0, 0, 0); fill-opacity: 1; white-space: pre;">Thiamine supplied</text></g><g class="g-xtitle" transform="translate(0,4.550000000000011)"><text class="xtitle" x="96.5" y="140.153125" text-anchor="middle" style="opacity: 1; font-family: 'Open Sans', verdana, arial, sans-serif; font-size: 11px; fill: rgb(0, 0, 0); fill-opacity: 1; white-space: pre;">Thiamine supply concentration [nM]</text></g><g class="g-ytitle"><text class="ytitle" transform="rotate(-90,13.899999999999999,68)" x="13.899999999999999" y="68" text-anchor="middle" style="opacity: 1; font-family: 'Open Sans', verdana, arial, sans-serif; font-size: 11px; fill: rgb(0, 0, 0); fill-opacity: 1; white-space: pre;">Dilution rate [1/h]</text></g></g></svg>