<svg class="main-svg" xmlns="http://www.w3.org/2000/svg" xmlns:xlink="http://www.w3.org/1999/xlink" width="150" height="195" style="" viewBox="0 0 150 195"><rect x="0" y="0" width="150" height="195" style="fill: rgb(255, 255, 255); fill-opacity: 1;"/><defs id="defs-9aff14"><g class="clips"><clipPath id="clip9aff14xyplot" class="plotclip"><rect width="90" height="131"/></clipPath><clipPath class="axesclip" id="clip9aff14x"><rect x="42" y="0" width="90" height="195"/></clipPath><clipPath class="axesclip" id="clip9aff14y"><rect x="0" y="30" width="150" height="131"/></clipPath><clipPath class="axesclip" id="clip9aff14xy"><rect x="42" y="30" width="90" height="131"/></clipPath></g><g class="gradients"/><g class="patterns"/></defs><g class="bglayer"/><g class="layer-below"><g class="imagelayer"/><g class="shapelayer"/></g><g class="cartesianlayer"><g class="subplot xy"><g class="layer-subplot"><g class="shapelayer"/><g class="imagelayer"/></g><g class="minor-gridlayer"><g class="x"/><g class="y"/></g><g class="gridlayer"><g class="x"><path class="xgrid crisp" transform="translate(72,0)" d="M0,30v131" style="stroke: rgb(128, 128, 128); stroke-opacity: 1; stroke-width: 0.2px;"/><path class="xgrid crisp" transform="translate(102,0)" d="M0,30v131" style="stroke: rgb(128, 128, 128); stroke-opacity: 1; stroke-width: 0.2px;"/></g><g class="y"><path class="ygrid crisp" transform="translate(0,154.26)" d="M42,0h90" style="stroke: rgb(128, 128, 128); stroke-opacity: 1; stroke-width: 0.2px;"/><path class="ygrid crisp" transform="translate(0,106.39)" d="M42,0h90" style="stroke: rgb(128, 128, 128); stroke-opacity: 1; stroke-width: 0.2px;"/><path class="ygrid crisp" transform="translate(0,58.519999999999996)" d="M42,0h90" style="stroke: rgb(128, 128, 128); stroke-opacity: 1; stroke-width: 0.2px;"/></g></g><g class="zerolinelayer"/><g class="layer-between"><g class="shapelayer"/><g class="imagelayer"/></g><path class="xlines-below"/><path class="ylines-below"/><g class="overlines-below"/><g class="xaxislayer-below"/><g class="yaxislayer-below"/><g class="overaxes-below"/><g class="overplot"><g class="xy" transform="translate(42,30)" clip-path="url(#clip9aff14xyplot)"><g class="scatterlayer mlayer"><g class="trace scatter traceb5d5d8" style="stroke-miterlimit: 2; opacity: 1;"><g class="fills"/><g class="errorbars"/><g class="lines"><path class="js-line" d="M0,124.26Q0.06,124.09 0.09,124.01C0.12,123.92 0.15,123.84 0.18,123.75C0.21,123.67 0.24,123.58 0.27,123.5C0.3,123.41 0.33,123.33 0.36,123.24C0.39,123.15 0.42,123.07 0.45,122.98C0.48,122.9 0.51,122.81 0.54,122.73C0.57,122.64 0.6,122.56 0.63,122.47C0.66,122.39 0.69,122.3 0.72,122.22C0.75,122.13 0.78,122.05 0.81,121.96C0.84,121.88 0.87,121.79 0.9,121.71C0.93,121.63 0.96,121.54 0.99,121.46C1.02,121.37 1.05,121.29 1.08,121.2C1.11,121.12 1.14,121.03 1.17,120.95C1.2,120.86 1.23,120.78 1.26,120.69C1.29,120.61 1.32,120.52 1.35,120.44C1.38,120.35 1.41,120.27 1.44,120.18C1.47,120.1 1.5,120.01 1.53,119.93C1.56,119.85 1.59,119.76 1.62,119.68C1.65,119.59 1.68,119.51 1.71,119.42C1.74,119.34 1.77,119.25 1.8,119.17C1.83,119.09 1.86,119 1.89,118.92C1.92,118.83 1.95,118.75 1.98,118.66C2.01,118.58 2.04,118.49 2.07,118.41C2.1,118.33 2.13,118.24 2.16,118.16C2.19,118.07 2.22,117.99 2.25,117.9C2.28,117.82 2.31,117.73 2.34,117.65C2.37,117.57 2.4,117.48 2.43,117.4C2.46,117.32 2.49,117.23 2.52,117.15C2.55,117.06 2.58,116.98 2.61,116.89C2.64,116.81 2.67,116.72 2.7,116.64C2.73,116.56 2.76,116.47 2.79,116.39C2.82,116.31 2.85,116.22 2.88,116.14C2.91,116.06 2.94,115.97 2.97,115.89C3,115.8 3.03,115.72 3.06,115.63C3.09,115.55 3.12,115.46 3.15,115.38C3.18,115.3 3.21,115.21 3.24,115.13C3.27,115.05 3.3,114.96 3.33,114.88C3.36,114.8 3.39,114.71 3.42,114.63C3.45,114.55 3.48,114.46 3.51,114.38C3.54,114.29 3.57,114.21 3.6,114.12C3.63,114.04 3.66,113.95 3.69,113.87C3.72,113.79 3.75,113.7 3.78,113.62C3.81,113.54 3.84,113.45 3.87,113.37C3.9,113.29 3.93,113.2 3.96,113.12C3.99,113.04 4.02,112.95 4.05,112.87C4.08,112.79 4.11,112.7 4.14,112.62C4.17,112.54 4.2,112.45 4.23,112.37C4.26,112.29 4.29,112.2 4.32,112.12C4.35,112.04 4.38,111.95 4.41,111.87C4.44,111.79 4.47,111.7 4.5,111.62C4.53,111.54 4.56,111.45 4.59,111.37C4.62,111.29 4.65,111.2 4.68,111.12C4.71,111.04 4.74,110.95 4.77,110.87C4.8,110.79 4.83,110.7 4.86,110.62C4.89,110.54 4.92,110.45 4.95,110.37C4.98,110.29 5.02,110.2 5.05,110.12C5.08,110.04 5.11,109.95 5.14,109.87C5.17,109.79 5.2,109.71 5.23,109.63C5.26,109.55 5.29,109.46 5.32,109.38C5.35,109.3 5.38,109.21 5.41,109.13C5.44,109.05 5.47,108.96 5.5,108.88C5.53,108.8 5.56,108.71 5.59,108.63C5.62,108.55 5.65,108.46 5.68,108.38C5.71,108.3 5.74,108.22 5.77,108.14C5.8,108.06 5.83,107.97 5.86,107.89C5.89,107.81 5.92,107.72 5.95,107.64C5.98,107.56 6.01,107.47 6.04,107.39C6.07,107.31 6.1,107.22 6.13,107.14C6.16,107.06 6.19,106.98 6.22,106.9C6.25,106.82 6.28,106.73 6.31,106.65C6.34,106.57 6.37,106.48 6.4,106.4C6.43,106.32 6.46,106.24 6.49,106.16C6.52,106.08 6.55,105.99 6.58,105.91C6.61,105.83 6.64,105.74 6.67,105.66C6.7,105.58 6.73,105.5 6.76,105.42C6.79,105.34 6.82,105.25 6.85,105.17C6.88,105.09 6.91,105 6.94,104.92C6.97,104.84 7,104.76 7.03,104.68C7.06,104.6 7.09,104.51 7.12,104.43C7.15,104.35 7.18,104.27 7.21,104.19C7.24,104.11 7.27,104.02 7.3,103.94C7.33,103.86 7.36,103.78 7.39,103.7C7.42,103.62 7.45,103.53 7.48,103.45C7.51,103.37 7.54,103.29 7.57,103.21C7.6,103.13 7.63,103.04 7.66,102.96C7.69,102.88 7.72,102.8 7.75,102.72C7.78,102.64 7.81,102.55 7.84,102.47C7.87,102.39 7.9,102.31 7.93,102.23C7.96,102.15 7.99,102.06 8.02,101.98C8.05,101.9 8.08,101.82 8.11,101.74C8.14,101.66 8.17,101.57 8.2,101.49C8.23,101.41 8.26,101.33 8.29,101.25C8.32,101.17 8.35,101.09 8.38,101.01C8.41,100.93 8.44,100.84 8.47,100.76C8.5,100.68 8.53,100.6 8.56,100.52C8.59,100.44 8.62,100.36 8.65,100.28C8.68,100.2 8.71,100.11 8.74,100.03C8.77,99.95 8.8,99.87 8.83,99.79C8.86,99.71 8.89,99.63 8.92,99.55C8.95,99.47 8.98,99.39 9.01,99.31C9.04,99.23 9.07,99.14 9.1,99.06C9.13,98.98 9.16,98.9 9.19,98.82C9.22,98.74 9.25,98.66 9.28,98.58C9.31,98.5 9.34,98.42 9.37,98.34C9.4,98.26 9.43,98.18 9.46,98.1C9.49,98.02 9.52,97.94 9.55,97.86C9.58,97.78 9.61,97.69 9.64,97.61C9.67,97.53 9.7,97.45 9.73,97.37C9.76,97.29 9.79,97.21 9.82,97.13C9.85,97.05 9.88,96.97 9.91,96.89C9.94,96.81 9.97,96.73 10,96.65C10.03,96.57 10.06,96.49 10.09,96.41C10.12,96.33 10.15,96.25 10.18,96.17C10.21,96.09 10.24,96.01 10.27,95.93C10.3,95.85 10.33,95.77 10.36,95.69C10.39,95.61 10.42,95.53 10.45,95.45C10.48,95.37 10.51,95.29 10.54,95.21C10.57,95.13 10.6,95.05 10.63,94.97C10.66,94.89 10.69,94.81 10.72,94.73C10.75,94.65 10.78,94.57 10.81,94.49C10.84,94.41 10.87,94.34 10.9,94.26C10.93,94.18 10.96,94.1 10.99,94.02C11.02,93.94 11.05,93.86 11.08,93.78C11.11,93.7 11.14,93.62 11.17,93.54C11.2,93.46 11.23,93.38 11.26,93.3C11.29,93.22 11.32,93.14 11.35,93.06C11.38,92.98 11.41,92.91 11.44,92.83C11.47,92.75 11.5,92.67 11.53,92.59C11.56,92.51 11.59,92.43 11.62,92.35C11.65,92.27 11.68,92.2 11.71,92.12C11.74,92.04 11.77,91.96 11.8,91.88C11.83,91.8 11.86,91.72 11.89,91.64C11.92,91.56 11.95,91.49 11.98,91.41C12.01,91.33 12.04,91.25 12.07,91.17C12.1,91.09 12.13,91.01 12.16,90.93C12.19,90.85 12.22,90.78 12.25,90.7C12.28,90.62 12.31,90.54 12.34,90.46C12.37,90.38 12.4,90.31 12.43,90.23C12.46,90.15 12.49,90.07 12.52,89.99C12.55,89.91 12.58,89.84 12.61,89.76C12.64,89.68 12.67,89.6 12.7,89.52C12.73,89.44 12.76,89.37 12.79,89.29C12.82,89.21 12.85,89.13 12.88,89.05C12.91,88.97 12.94,88.9 12.97,88.82C13,88.74 13.03,88.67 13.06,88.59C13.09,88.51 13.12,88.43 13.15,88.35C13.18,88.27 13.21,88.2 13.24,88.12C13.27,88.04 13.3,87.97 13.33,87.89C13.36,87.81 13.39,87.73 13.42,87.65C13.45,87.57 13.48,87.5 13.51,87.42C13.54,87.34 13.57,87.27 13.6,87.19C13.63,87.11 13.66,87.04 13.69,86.96C13.72,86.88 13.75,86.8 13.78,86.72C13.81,86.64 13.84,86.57 13.87,86.49C13.9,86.41 13.93,86.34 13.96,86.26C13.99,86.18 14.02,86.11 14.05,86.03C14.08,85.95 14.11,85.88 14.14,85.8C14.17,85.72 14.2,85.65 14.23,85.57C14.26,85.49 14.29,85.42 14.32,85.34C14.35,85.26 14.38,85.19 14.41,85.11C14.44,85.03 14.47,84.96 14.5,84.88C14.53,84.8 14.56,84.73 14.59,84.65C14.62,84.57 14.65,84.5 14.68,84.42C14.71,84.34 14.74,84.27 14.77,84.19C14.8,84.11 14.83,84.04 14.86,83.96C14.89,83.88 14.92,83.81 14.95,83.73C14.98,83.65 15.02,83.58 15.05,83.5C15.08,83.42 15.11,83.35 15.14,83.27C15.17,83.2 15.2,83.12 15.23,83.05C15.26,82.97 15.29,82.9 15.32,82.82C15.35,82.74 15.38,82.67 15.41,82.59C15.44,82.51 15.47,82.44 15.5,82.36C15.53,82.29 15.56,82.21 15.59,82.14C15.62,82.06 15.65,81.99 15.68,81.91C15.71,81.83 15.74,81.76 15.77,81.68C15.8,81.61 15.83,81.53 15.86,81.46C15.89,81.38 15.92,81.31 15.95,81.23C15.98,81.16 16.01,81.08 16.04,81.01C16.07,80.93 16.1,80.86 16.13,80.78C16.16,80.71 16.19,80.63 16.22,80.56C16.25,80.48 16.28,80.41 16.31,80.33C16.34,80.26 16.37,80.18 16.4,80.11C16.43,80.03 16.46,79.96 16.49,79.88C16.52,79.81 16.55,79.73 16.58,79.66C16.61,79.58 16.64,79.51 16.67,79.43C16.7,79.36 16.73,79.28 16.76,79.21C16.79,79.14 16.82,79.06 16.85,78.99C16.88,78.91 16.91,78.84 16.94,78.76C16.97,78.69 17,78.61 17.03,78.54C17.06,78.47 17.09,78.39 17.12,78.32C17.15,78.25 17.18,78.17 17.21,78.1C17.24,78.03 17.27,77.95 17.3,77.88C17.33,77.81 17.36,77.73 17.39,77.66C17.42,77.58 17.45,77.51 17.48,77.43C17.51,77.36 17.54,77.28 17.57,77.21C17.6,77.14 17.63,77.06 17.66,76.99C17.69,76.92 17.72,76.84 17.75,76.77C17.78,76.7 17.81,76.62 17.84,76.55C17.87,76.48 17.9,76.4 17.93,76.33C17.96,76.26 17.99,76.18 18.02,76.11C18.05,76.04 18.08,75.97 18.11,75.9C18.14,75.83 18.17,75.75 18.2,75.68C18.23,75.61 18.26,75.53 18.29,75.46C18.32,75.39 18.35,75.31 18.38,75.24C18.41,75.17 18.44,75.09 18.47,75.02C18.5,74.95 18.53,74.88 18.56,74.81C18.59,74.74 18.62,74.66 18.65,74.59C18.68,74.52 18.71,74.44 18.74,74.37C18.77,74.3 18.8,74.23 18.83,74.16C18.86,74.09 18.89,74.01 18.92,73.94C18.95,73.87 18.98,73.79 19.01,73.72C19.04,73.65 19.07,73.58 19.1,73.51C19.13,73.44 19.16,73.36 19.19,73.29C19.22,73.22 19.25,73.15 19.28,73.08C19.31,73.01 19.34,72.94 19.37,72.87C19.4,72.8 19.43,72.72 19.46,72.65C19.49,72.58 19.52,72.51 19.55,72.44C19.58,72.37 19.61,72.3 19.64,72.23C19.67,72.16 19.7,72.08 19.73,72.01C19.76,71.94 19.79,71.87 19.82,71.8C19.85,71.73 19.88,71.66 19.91,71.59C19.94,71.52 19.97,71.45 20,71.38C20.03,71.31 20.06,71.24 20.09,71.17C20.12,71.1 20.15,71.02 20.18,70.95C20.21,70.88 20.24,70.81 20.27,70.74C20.3,70.67 20.33,70.6 20.36,70.53C20.39,70.46 20.42,70.39 20.45,70.32C20.48,70.25 20.51,70.18 20.54,70.11C20.57,70.04 20.6,69.98 20.63,69.91C20.66,69.84 20.69,69.77 20.72,69.7C20.75,69.63 20.78,69.56 20.81,69.49C20.84,69.42 20.87,69.35 20.9,69.28C20.93,69.21 20.96,69.14 20.99,69.07C21.02,69 21.05,68.94 21.08,68.87C21.11,68.8 21.14,68.73 21.17,68.66C21.2,68.59 21.23,68.52 21.26,68.45C21.29,68.38 21.32,68.32 21.35,68.25C21.38,68.18 21.41,68.11 21.44,68.04C21.47,67.97 21.5,67.91 21.53,67.84C21.56,67.77 21.59,67.7 21.62,67.63C21.65,67.56 21.68,67.5 21.71,67.43C21.74,67.36 21.77,67.3 21.8,67.23C21.83,67.16 21.86,67.09 21.89,67.02C21.92,66.95 21.95,66.89 21.98,66.82C22.01,66.75 22.04,66.69 22.07,66.62C22.1,66.55 22.13,66.49 22.16,66.42C22.19,66.35 22.22,66.28 22.25,66.21C22.28,66.14 22.31,66.08 22.34,66.01C22.37,65.94 22.4,65.88 22.43,65.81C22.46,65.74 22.49,65.68 22.52,65.61C22.55,65.54 22.58,65.48 22.61,65.41C22.64,65.34 22.67,65.28 22.7,65.21C22.73,65.14 22.76,65.08 22.79,65.01C22.82,64.95 22.85,64.88 22.88,64.82C22.91,64.75 22.94,64.69 22.97,64.62C23,64.55 23.03,64.49 23.06,64.42C23.09,64.35 23.12,64.29 23.15,64.22C23.18,64.16 23.21,64.09 23.24,64.03C23.27,63.96 23.3,63.9 23.33,63.83C23.36,63.77 23.39,63.7 23.42,63.64C23.45,63.57 23.48,63.51 23.51,63.44C23.54,63.38 23.57,63.31 23.6,63.25C23.63,63.18 23.66,63.12 23.69,63.05C23.72,62.99 23.75,62.92 23.78,62.86C23.81,62.8 23.84,62.73 23.87,62.67C23.9,62.61 23.93,62.54 23.96,62.48C23.99,62.41 24.02,62.35 24.05,62.28C24.08,62.22 24.11,62.15 24.14,62.09C24.17,62.03 24.2,61.96 24.23,61.9C24.26,61.84 24.29,61.77 24.32,61.71C24.35,61.65 24.38,61.58 24.41,61.52C24.44,61.46 24.47,61.39 24.5,61.33C24.53,61.27 24.56,61.2 24.59,61.14C24.62,61.08 24.65,61.02 24.68,60.96C24.71,60.9 24.74,60.83 24.77,60.77C24.8,60.71 24.83,60.64 24.86,60.58C24.89,60.52 24.92,60.46 24.95,60.4C24.98,60.34 25.02,60.27 25.05,60.21C25.08,60.15 25.11,60.09 25.14,60.03C25.17,59.97 25.2,59.9 25.23,59.84C25.26,59.78 25.29,59.72 25.32,59.66C25.35,59.6 25.38,59.53 25.41,59.47C25.44,59.41 25.47,59.35 25.5,59.29C25.53,59.23 25.56,59.17 25.59,59.11C25.62,59.05 25.65,58.99 25.68,58.93C25.71,58.87 25.74,58.81 25.77,58.75C25.8,58.69 25.83,58.63 25.86,58.57C25.89,58.51 25.92,58.45 25.95,58.39C25.98,58.33 26.01,58.27 26.04,58.21C26.07,58.15 26.1,58.09 26.13,58.03C26.16,57.97 26.19,57.91 26.22,57.85C26.25,57.79 26.28,57.73 26.31,57.67C26.34,57.61 26.37,57.56 26.4,57.5C26.43,57.44 26.46,57.38 26.49,57.32C26.52,57.26 26.55,57.21 26.58,57.15C26.61,57.09 26.64,57.03 26.67,56.97C26.7,56.91 26.73,56.86 26.76,56.8C26.79,56.74 26.82,56.68 26.85,56.62C26.88,56.56 26.91,56.51 26.94,56.45C26.97,56.39 27,56.34 27.03,56.28C27.06,56.22 27.09,56.17 27.12,56.11C27.15,56.05 27.18,56 27.21,55.94C27.24,55.88 27.27,55.83 27.3,55.77C27.33,55.71 27.36,55.66 27.39,55.6C27.42,55.54 27.45,55.49 27.48,55.43C27.51,55.38 27.54,55.32 27.57,55.27C27.6,55.21 27.63,55.16 27.66,55.1C27.69,55.04 27.72,54.99 27.75,54.93C27.78,54.88 27.81,54.82 27.84,54.77C27.87,54.71 27.9,54.66 27.93,54.6C27.96,54.55 27.99,54.49 28.02,54.44C28.05,54.39 28.08,54.33 28.11,54.28C28.14,54.22 28.17,54.17 28.2,54.11C28.23,54.06 28.26,54 28.29,53.95C28.32,53.9 28.35,53.84 28.38,53.79C28.41,53.74 28.44,53.68 28.47,53.63C28.5,53.58 28.53,53.52 28.56,53.47C28.59,53.42 28.62,53.37 28.65,53.32C28.68,53.27 28.71,53.21 28.74,53.16C28.77,53.11 28.8,53.05 28.83,53C28.86,52.95 28.89,52.9 28.92,52.85C28.95,52.8 28.98,52.74 29.01,52.69C29.04,52.64 29.07,52.59 29.1,52.54C29.13,52.49 29.16,52.44 29.19,52.39C29.22,52.34 29.25,52.28 29.28,52.23C29.31,52.18 29.34,52.13 29.37,52.08C29.4,52.03 29.43,51.98 29.46,51.93C29.49,51.88 29.52,51.83 29.55,51.78C29.58,51.73 29.61,51.68 29.64,51.63C29.67,51.58 29.7,51.54 29.73,51.49C29.76,51.44 29.79,51.39 29.82,51.34C29.85,51.29 29.88,51.24 29.91,51.19C29.94,51.14 29.97,51.1 30,51.05C30.03,51 30.06,50.96 30.09,50.91C30.12,50.86 30.15,50.81 30.18,50.76C30.21,50.71 30.24,50.67 30.27,50.62C30.3,50.57 30.33,50.53 30.36,50.48C30.39,50.43 30.42,50.39 30.45,50.34C30.48,50.29 30.51,50.25 30.54,50.2C30.57,50.15 30.6,50.11 30.63,50.06C30.66,50.02 30.69,49.97 30.72,49.93C30.75,49.88 30.78,49.84 30.81,49.79C30.84,49.75 30.87,49.7 30.9,49.66C30.93,49.61 30.96,49.57 30.99,49.52C31.02,49.48 31.05,49.43 31.08,49.39C31.11,49.35 31.14,49.3 31.17,49.26C31.2,49.22 31.23,49.17 31.26,49.13C31.29,49.09 31.32,49.04 31.35,49C31.38,48.96 31.41,48.91 31.44,48.87C31.47,48.83 31.5,48.78 31.53,48.74C31.56,48.7 31.59,48.66 31.62,48.62C31.65,48.58 31.68,48.53 31.71,48.49C31.74,48.45 31.77,48.41 31.8,48.37C31.83,48.33 31.86,48.29 31.89,48.25C31.92,48.21 31.95,48.17 31.98,48.13C32.01,48.09 32.04,48.05 32.07,48.01C32.1,47.97 32.13,47.93 32.16,47.89C32.19,47.85 32.22,47.81 32.25,47.77C32.28,47.73 32.31,47.69 32.34,47.65C32.37,47.61 32.4,47.58 32.43,47.54C32.46,47.5 32.49,47.47 32.52,47.43C32.55,47.39 32.58,47.35 32.61,47.31C32.64,47.27 32.67,47.24 32.7,47.2C32.73,47.16 32.76,47.13 32.79,47.09C32.82,47.05 32.85,47.02 32.88,46.98C32.91,46.95 32.94,46.91 32.97,46.88C33,46.84 33.03,46.81 33.06,46.77C33.09,46.74 33.12,46.7 33.15,46.67C33.18,46.63 33.21,46.6 33.24,46.56C33.27,46.53 33.3,46.49 33.33,46.46C33.36,46.43 33.39,46.39 33.42,46.36C33.45,46.33 33.48,46.29 33.51,46.26C33.54,46.23 33.57,46.2 33.6,46.17C33.63,46.14 33.66,46.1 33.69,46.07C33.72,46.04 33.75,46.01 33.78,45.98C33.81,45.95 33.84,45.92 33.87,45.89C33.9,45.86 33.93,45.82 33.96,45.79C33.99,45.76 34.02,45.73 34.05,45.7C34.08,45.67 34.11,45.65 34.14,45.62C34.17,45.59 34.2,45.56 34.23,45.53C34.26,45.5 34.29,45.48 34.32,45.45C34.35,45.42 34.38,45.39 34.41,45.36C34.44,45.33 34.47,45.31 34.5,45.28C34.53,45.25 34.56,45.23 34.59,45.2C34.62,45.17 34.65,45.15 34.68,45.12C34.71,45.1 34.74,45.07 34.77,45.05C34.8,45.02 34.83,45 34.86,44.97C34.89,44.95 34.92,44.92 34.95,44.9C34.98,44.88 35.02,44.85 35.05,44.83C35.08,44.81 35.11,44.78 35.14,44.76C35.17,44.74 35.2,44.71 35.23,44.69C35.26,44.67 35.29,44.65 35.32,44.63C35.35,44.61 35.38,44.58 35.41,44.56C35.44,44.54 35.47,44.52 35.5,44.5C35.53,44.48 35.56,44.46 35.59,44.44C35.62,44.42 35.65,44.4 35.68,44.38C35.71,44.36 35.74,44.35 35.77,44.33C35.8,44.31 35.83,44.29 35.86,44.27C35.89,44.25 35.92,44.24 35.95,44.22C35.98,44.2 36.01,44.19 36.04,44.17C36.07,44.15 36.1,44.14 36.13,44.12C36.16,44.11 36.19,44.09 36.22,44.08C36.25,44.06 36.28,44.05 36.31,44.03C36.34,44.02 36.37,44 36.4,43.99C36.43,43.98 36.46,43.96 36.49,43.95C36.52,43.94 36.55,43.92 36.58,43.91C36.61,43.9 36.64,43.89 36.67,43.88C36.7,43.87 36.73,43.85 36.76,43.84C36.79,43.83 36.82,43.82 36.85,43.81C36.88,43.8 36.91,43.8 36.94,43.79C36.97,43.78 37,43.77 37.03,43.76C37.06,43.75 37.09,43.75 37.12,43.74C37.15,43.73 37.18,43.73 37.21,43.72C37.24,43.71 37.27,43.71 37.3,43.7C37.33,43.69 37.36,43.69 37.39,43.68C37.42,43.68 37.45,43.67 37.48,43.67C37.51,43.67 37.54,43.66 37.57,43.66C37.6,43.66 37.63,43.65 37.66,43.65C37.69,43.65 37.72,43.64 37.75,43.64C37.78,43.64 37.81,43.64 37.84,43.64C37.87,43.64 37.9,43.64 37.93,43.64C37.96,43.64 37.99,43.64 38.02,43.64C38.05,43.64 38.08,43.65 38.11,43.65C38.14,43.65 38.17,43.65 38.2,43.65C38.23,43.65 38.26,43.66 38.29,43.67C38.32,43.67 38.35,43.68 38.38,43.68C38.41,43.69 38.44,43.69 38.47,43.7C38.5,43.71 38.53,43.71 38.56,43.72C38.59,43.73 38.62,43.73 38.65,43.74C38.68,43.75 38.71,43.75 38.74,43.76C38.77,43.77 38.8,43.78 38.83,43.79C38.86,43.8 38.89,43.82 38.92,43.83C38.95,43.84 38.98,43.85 39.01,43.86C39.04,43.87 39.07,43.89 39.1,43.9C39.13,43.91 39.16,43.93 39.19,43.94C39.22,43.96 39.25,43.97 39.28,43.99C39.31,44.01 39.34,44.02 39.37,44.04C39.4,44.06 39.43,44.07 39.46,44.09C39.49,44.11 39.52,44.12 39.55,44.14C39.58,44.16 39.61,44.18 39.64,44.2C39.67,44.22 39.7,44.25 39.73,44.27C39.76,44.29 39.79,44.31 39.82,44.33C39.85,44.35 39.88,44.38 39.91,44.4C39.94,44.43 39.97,44.45 40,44.48C40.03,44.51 40.06,44.53 40.09,44.56C40.12,44.59 40.15,44.61 40.18,44.64C40.21,44.67 40.24,44.7 40.27,44.73C40.3,44.76 40.33,44.79 40.36,44.82C40.39,44.85 40.42,44.88 40.45,44.91C40.48,44.94 40.51,44.98 40.54,45.01C40.57,45.04 40.6,45.08 40.63,45.11C40.66,45.15 40.69,45.18 40.72,45.22C40.75,45.26 40.78,45.29 40.81,45.33C40.84,45.37 40.87,45.41 40.9,45.45C40.93,45.49 40.96,45.53 40.99,45.57C41.02,45.61 41.05,45.65 41.08,45.69C41.11,45.73 41.14,45.78 41.17,45.83C41.2,45.87 41.23,45.92 41.26,45.96C41.29,46.01 41.32,46.05 41.35,46.1C41.38,46.15 41.41,46.2 41.44,46.25C41.47,46.3 41.5,46.35 41.53,46.4C41.56,46.45 41.59,46.5 41.62,46.55C41.65,46.6 41.68,46.66 41.71,46.71C41.74,46.77 41.77,46.82 41.8,46.88C41.83,46.94 41.86,46.99 41.89,47.05C41.92,47.11 41.95,47.17 41.98,47.23C42.01,47.29 42.04,47.35 42.07,47.41C42.1,47.47 42.13,47.54 42.16,47.6C42.19,47.66 42.22,47.73 42.25,47.79C42.28,47.86 42.31,47.92 42.34,47.99C42.37,48.06 42.4,48.13 42.43,48.2C42.46,48.27 42.49,48.34 42.52,48.41C42.55,48.48 42.58,48.56 42.61,48.63C42.64,48.71 42.67,48.78 42.7,48.86C42.73,48.94 42.76,49.01 42.79,49.09C42.82,49.17 42.85,49.25 42.88,49.33C42.91,49.41 42.94,49.49 42.97,49.57C43,49.65 43.03,49.74 43.06,49.83C43.09,49.92 43.12,50 43.15,50.09C43.18,50.18 43.21,50.26 43.24,50.35C43.27,50.44 43.3,50.54 43.33,50.63C43.36,50.72 43.39,50.82 43.42,50.91C43.45,51.01 43.48,51.1 43.51,51.2C43.54,51.3 43.57,51.4 43.6,51.5C43.63,51.6 43.66,51.7 43.69,51.8C43.72,51.9 43.75,52 43.78,52.11C43.81,52.22 43.84,52.33 43.87,52.44C43.9,52.55 43.93,52.66 43.96,52.77C43.99,52.88 44.02,53 44.05,53.11C44.08,53.22 44.11,53.33 44.14,53.45C44.17,53.57 44.2,53.69 44.23,53.81C44.26,53.93 44.29,54.06 44.32,54.18C44.35,54.3 44.38,54.42 44.41,54.55C44.44,54.68 44.47,54.81 44.5,54.94C44.53,55.07 44.56,55.21 44.59,55.34C44.62,55.47 44.65,55.6 44.68,55.74C44.71,55.88 44.74,56.02 44.77,56.16C44.8,56.3 44.83,56.44 44.86,56.58C44.89,56.72 44.92,56.87 44.95,57.02C44.98,57.17 45.02,57.32 45.05,57.47C45.08,57.62 45.11,57.78 45.14,57.93C45.17,58.09 45.2,58.24 45.23,58.4C45.26,58.56 45.29,58.72 45.32,58.88C45.35,59.04 45.38,59.21 45.41,59.38C45.44,59.55 45.47,59.72 45.5,59.89C45.53,60.06 45.56,60.24 45.59,60.41C45.62,60.59 45.65,60.76 45.68,60.94C45.71,61.12 45.74,61.31 45.77,61.49C45.8,61.68 45.83,61.86 45.86,62.05C45.89,62.24 45.92,62.43 45.95,62.62C45.98,62.81 46.01,63.01 46.04,63.21C46.07,63.41 46.1,63.62 46.13,63.82C46.16,64.03 46.19,64.23 46.22,64.44C46.25,64.65 46.28,64.86 46.31,65.07C46.34,65.28 46.37,65.5 46.4,65.72C46.43,65.94 46.46,66.17 46.49,66.39C46.52,66.62 46.55,66.84 46.58,67.07C46.61,67.3 46.64,67.53 46.67,67.77C46.7,68.01 46.73,68.25 46.76,68.49C46.79,68.73 46.82,68.98 46.85,69.23C46.88,69.48 46.91,69.73 46.94,69.98C46.97,70.24 47,70.5 47.03,70.76C47.06,71.02 47.09,71.28 47.12,71.55C47.15,71.82 47.18,72.09 47.21,72.36C47.24,72.64 47.27,72.92 47.3,73.2C47.33,73.48 47.36,73.76 47.39,74.05C47.42,74.34 47.45,74.64 47.48,74.93C47.51,75.23 47.54,75.53 47.57,75.83C47.6,76.14 47.63,76.45 47.66,76.76C47.69,77.07 47.72,77.39 47.75,77.71C47.78,78.03 47.81,78.35 47.84,78.68C47.87,79.01 47.9,79.35 47.93,79.68C47.96,80.02 47.99,80.36 48.02,80.7C48.05,81.05 48.08,81.4 48.11,81.75C48.14,82.11 48.17,82.47 48.2,82.83C48.23,83.2 48.26,83.57 48.29,83.94C48.32,84.32 48.35,84.7 48.38,85.08C48.41,85.47 48.44,85.86 48.47,86.25C48.5,86.65 48.53,87.05 48.56,87.45C48.59,87.86 48.62,88.27 48.65,88.68C48.68,89.1 48.71,89.52 48.74,89.95C48.77,90.38 48.8,90.81 48.83,91.25C48.86,91.69 48.89,92.14 48.92,92.59C48.95,93.04 48.98,93.5 49.01,93.96C49.04,94.43 49.07,94.9 49.1,95.38C49.13,95.86 49.16,96.34 49.19,96.83C49.22,97.33 49.25,97.83 49.28,98.33C49.31,98.84 49.34,99.35 49.37,99.87C49.4,100.39 49.43,100.92 49.46,101.45C49.49,101.99 49.52,102.53 49.55,103.08C49.58,103.64 49.61,104.2 49.64,104.76C49.67,105.33 49.7,105.91 49.73,106.49C49.76,107.08 49.79,107.67 49.82,108.27C49.85,108.88 49.88,109.49 49.91,110.1C49.94,110.72 49.97,111.36 50,111.99C50.03,112.63 50.06,113.28 50.09,113.93C50.12,114.59 50.15,115.27 50.18,115.94C50.21,116.62 50.24,117.31 50.27,118.01C50.3,118.72 50.33,119.35 50.36,120.17C50.4,121.27 50.35,123.52 50.45,124.03C50.48,124.16 50.5,124.24 50.54,124.27C50.57,124.29 50.6,124.27 50.63,124.27C50.66,124.27 50.69,124.27 50.72,124.27C50.75,124.27 50.78,124.26 50.81,124.26C50.84,124.26 50.87,124.26 50.9,124.26C50.93,124.26 50.96,124.26 50.99,124.26C51.02,124.26 51.05,124.26 51.08,124.26C51.11,124.26 51.14,124.26 51.17,124.26C51.2,124.26 51.23,124.26 51.26,124.26C51.29,124.26 51.32,124.26 51.35,124.26C51.38,124.26 51.41,124.26 51.44,124.26C51.47,124.26 51.5,124.26 51.53,124.26C51.56,124.26 51.59,124.26 51.62,124.26C51.65,124.26 51.68,124.26 51.71,124.26C51.74,124.26 51.77,124.26 51.8,124.26C51.83,124.26 51.86,124.26 51.89,124.26C51.92,124.26 51.95,124.26 51.98,124.26C52.01,124.26 52.04,124.26 52.07,124.26C52.1,124.26 52.13,124.26 52.16,124.26C52.19,124.26 52.22,124.26 52.25,124.26C52.28,124.26 52.31,124.26 52.34,124.26C52.37,124.26 52.4,124.26 52.43,124.26C52.46,124.26 52.49,124.26 52.52,124.26C52.55,124.26 52.58,124.26 52.61,124.26C52.64,124.26 52.67,124.26 52.7,124.26C52.73,124.26 52.76,124.26 52.79,124.26C52.82,124.26 52.85,124.26 52.88,124.26C52.91,124.26 52.94,124.26 52.97,124.26C53,124.26 53.03,124.26 53.06,124.26C53.09,124.26 53.12,124.26 53.15,124.26C53.18,124.26 53.21,124.26 53.24,124.26C53.27,124.26 53.3,124.26 53.33,124.26C53.36,124.26 53.39,124.26 53.42,124.26C53.45,124.26 53.48,124.26 53.51,124.26C53.54,124.26 53.57,124.26 53.6,124.26C53.63,124.26 53.66,124.26 53.69,124.26C53.72,124.26 53.75,124.26 53.78,124.26C53.81,124.26 53.84,124.26 53.87,124.26C53.9,124.26 53.93,124.26 53.96,124.26C53.99,124.26 54.02,124.26 54.05,124.26C54.08,124.26 54.11,124.26 54.14,124.26C54.17,124.26 54.2,124.26 54.23,124.26C54.26,124.26 54.29,124.26 54.32,124.26C54.35,124.26 54.38,124.26 54.41,124.26C54.44,124.26 54.47,124.26 54.5,124.26C54.53,124.26 54.56,124.26 54.59,124.26C54.62,124.26 54.65,124.26 54.68,124.26C54.71,124.26 54.74,124.26 54.77,124.26C54.8,124.26 54.83,124.26 54.86,124.26C54.89,124.26 54.92,124.26 54.95,124.26C54.98,124.26 55.02,124.26 55.05,124.26C55.08,124.26 55.11,124.26 55.14,124.26C55.17,124.26 55.2,124.26 55.23,124.26C55.26,124.26 55.29,124.26 55.32,124.26C55.35,124.26 55.38,124.26 55.41,124.26C55.44,124.26 55.47,124.26 55.5,124.26C55.53,124.26 55.56,124.26 55.59,124.26C55.62,124.26 55.65,124.26 55.68,124.26C55.71,124.26 55.74,124.26 55.77,124.26C55.8,124.26 55.83,124.26 55.86,124.26C55.89,124.26 55.92,124.26 55.95,124.26C55.98,124.26 56.01,124.26 56.04,124.26C56.07,124.26 56.1,124.26 56.13,124.26C56.16,124.26 56.19,124.26 56.22,124.26C56.25,124.26 56.28,124.26 56.31,124.26C56.34,124.26 56.37,124.26 56.4,124.26C56.43,124.26 56.46,124.26 56.49,124.26C56.52,124.26 56.55,124.26 56.58,124.26C56.61,124.26 56.64,124.26 56.67,124.26C56.7,124.26 56.73,124.26 56.76,124.26C56.79,124.26 56.82,124.26 56.85,124.26C56.88,124.26 56.91,124.26 56.94,124.26C56.97,124.26 57,124.26 57.03,124.26C57.06,124.26 57.09,124.26 57.12,124.26C57.15,124.26 57.18,124.26 57.21,124.26C57.24,124.26 57.27,124.26 57.3,124.26C57.33,124.26 57.36,124.26 57.39,124.26C57.42,124.26 57.45,124.26 57.48,124.26C57.51,124.26 57.54,124.26 57.57,124.26C57.6,124.26 57.63,124.26 57.66,124.26C57.69,124.26 57.72,124.26 57.75,124.26C57.78,124.26 57.81,124.26 57.84,124.26C57.87,124.26 57.9,124.26 57.93,124.26C57.96,124.26 57.99,124.26 58.02,124.26C58.05,124.26 58.08,124.26 58.11,124.26C58.14,124.26 58.17,124.26 58.2,124.26C58.23,124.26 58.26,124.26 58.29,124.26C58.32,124.26 58.35,124.26 58.38,124.26C58.41,124.26 58.44,124.26 58.47,124.26C58.5,124.26 58.53,124.26 58.56,124.26C58.59,124.26 58.62,124.26 58.65,124.26C58.68,124.26 58.71,124.26 58.74,124.26C58.77,124.26 58.8,124.26 58.83,124.26C58.86,124.26 58.89,124.26 58.92,124.26C58.95,124.26 58.98,124.26 59.01,124.26C59.04,124.26 59.07,124.26 59.1,124.26C59.13,124.26 59.16,124.26 59.19,124.26C59.22,124.26 59.25,124.26 59.28,124.26C59.31,124.26 59.34,124.26 59.37,124.26C59.4,124.26 59.43,124.26 59.46,124.26C59.49,124.26 59.52,124.26 59.55,124.26C59.58,124.26 59.61,124.26 59.64,124.26C59.67,124.26 59.7,124.26 59.73,124.26C59.76,124.26 59.79,124.26 59.82,124.26C59.85,124.26 59.88,124.26 59.91,124.26C59.94,124.26 59.97,124.26 60,124.26C60.03,124.26 60.06,124.26 60.09,124.26C60.12,124.26 60.15,124.26 60.18,124.26C60.21,124.26 60.24,124.26 60.27,124.26C60.3,124.26 60.33,124.26 60.36,124.26C60.39,124.26 60.42,124.26 60.45,124.26C60.48,124.26 60.51,124.26 60.54,124.26C60.57,124.26 60.6,124.26 60.63,124.26C60.66,124.26 60.69,124.26 60.72,124.26C60.75,124.26 60.78,124.26 60.81,124.26C60.84,124.26 60.87,124.26 60.9,124.26C60.93,124.26 60.96,124.26 60.99,124.26C61.02,124.26 61.05,124.26 61.08,124.26C61.11,124.26 61.14,124.26 61.17,124.26C61.2,124.26 61.23,124.26 61.26,124.26C61.29,124.26 61.32,124.26 61.35,124.26C61.38,124.26 61.41,124.26 61.44,124.26C61.47,124.26 61.5,124.26 61.53,124.26C61.56,124.26 61.59,124.26 61.62,124.26C61.65,124.26 61.68,124.26 61.71,124.26C61.74,124.26 61.77,124.26 61.8,124.26C61.83,124.26 61.86,124.26 61.89,124.26C61.92,124.26 61.95,124.26 61.98,124.26C62.01,124.26 62.04,124.26 62.07,124.26C62.1,124.26 62.13,124.26 62.16,124.26C62.19,124.26 62.22,124.26 62.25,124.26C62.28,124.26 62.31,124.26 62.34,124.26C62.37,124.26 62.4,124.26 62.43,124.26C62.46,124.26 62.49,124.26 62.52,124.26C62.55,124.26 62.58,124.26 62.61,124.26C62.64,124.26 62.67,124.26 62.7,124.26C62.73,124.26 62.76,124.26 62.79,124.26C62.82,124.26 62.85,124.26 62.88,124.26C62.91,124.26 62.94,124.26 62.97,124.26C63,124.26 63.03,124.26 63.06,124.26C63.09,124.26 63.12,124.26 63.15,124.26C63.18,124.26 63.21,124.26 63.24,124.26C63.27,124.26 63.3,124.26 63.33,124.26C63.36,124.26 63.39,124.26 63.42,124.26C63.45,124.26 63.48,124.26 63.51,124.26C63.54,124.26 63.57,124.26 63.6,124.26C63.63,124.26 63.66,124.26 63.69,124.26C63.72,124.26 63.75,124.26 63.78,124.26C63.81,124.26 63.84,124.26 63.87,124.26C63.9,124.26 63.93,124.26 63.96,124.26C63.99,124.26 64.02,124.26 64.05,124.26C64.08,124.26 64.11,124.26 64.14,124.26C64.17,124.26 64.2,124.26 64.23,124.26C64.26,124.26 64.29,124.26 64.32,124.26C64.35,124.26 64.38,124.26 64.41,124.26C64.44,124.26 64.47,124.26 64.5,124.26C64.53,124.26 64.56,124.26 64.59,124.26C64.62,124.26 64.65,124.26 64.68,124.26C64.71,124.26 64.74,124.26 64.77,124.26C64.8,124.26 64.83,124.26 64.86,124.26C64.89,124.26 64.92,124.26 64.95,124.26C64.98,124.26 65.02,124.26 65.05,124.26C65.08,124.26 65.11,124.26 65.14,124.26C65.17,124.26 65.2,124.26 65.23,124.26C65.26,124.26 65.29,124.26 65.32,124.26C65.35,124.26 65.38,124.26 65.41,124.26C65.44,124.26 65.47,124.26 65.5,124.26C65.53,124.26 65.56,124.26 65.59,124.26C65.62,124.26 65.65,124.26 65.68,124.26C65.71,124.26 65.74,124.26 65.77,124.26C65.8,124.26 65.83,124.26 65.86,124.26C65.89,124.26 65.92,124.26 65.95,124.26C65.98,124.26 66.01,124.26 66.04,124.26C66.07,124.26 66.1,124.26 66.13,124.26C66.16,124.26 66.19,124.26 66.22,124.26C66.25,124.26 66.28,124.26 66.31,124.26C66.34,124.26 66.37,124.26 66.4,124.26C66.43,124.26 66.46,124.26 66.49,124.26C66.52,124.26 66.55,124.26 66.58,124.26C66.61,124.26 66.64,124.26 66.67,124.26C66.7,124.26 66.73,124.26 66.76,124.26C66.79,124.26 66.82,124.26 66.85,124.26C66.88,124.26 66.91,124.26 66.94,124.26C66.97,124.26 67,124.26 67.03,124.26C67.06,124.26 67.09,124.26 67.12,124.26C67.15,124.26 67.18,124.26 67.21,124.26C67.24,124.26 67.27,124.26 67.3,124.26C67.33,124.26 67.36,124.26 67.39,124.26C67.42,124.26 67.45,124.26 67.48,124.26C67.51,124.26 67.54,124.26 67.57,124.26C67.6,124.26 67.63,124.26 67.66,124.26C67.69,124.26 67.72,124.26 67.75,124.26C67.78,124.26 67.81,124.26 67.84,124.26C67.87,124.26 67.9,124.26 67.93,124.26C67.96,124.26 67.99,124.26 68.02,124.26C68.05,124.26 68.08,124.26 68.11,124.26C68.14,124.26 68.17,124.26 68.2,124.26C68.23,124.26 68.26,124.26 68.29,124.26C68.32,124.26 68.35,124.26 68.38,124.26C68.41,124.26 68.44,124.26 68.47,124.26C68.5,124.26 68.53,124.26 68.56,124.26C68.59,124.26 68.62,124.26 68.65,124.26C68.68,124.26 68.71,124.26 68.74,124.26C68.77,124.26 68.8,124.26 68.83,124.26C68.86,124.26 68.89,124.26 68.92,124.26C68.95,124.26 68.98,124.26 69.01,124.26C69.04,124.26 69.07,124.26 69.1,124.26C69.13,124.26 69.16,124.26 69.19,124.26C69.22,124.26 69.25,124.26 69.28,124.26C69.31,124.26 69.34,124.26 69.37,124.26C69.4,124.26 69.43,124.26 69.46,124.26C69.49,124.26 69.52,124.26 69.55,124.26C69.58,124.26 69.61,124.26 69.64,124.26C69.67,124.26 69.7,124.26 69.73,124.26C69.76,124.26 69.79,124.26 69.82,124.26C69.85,124.26 69.88,124.26 69.91,124.26C69.94,124.26 69.97,124.26 70,124.26C70.03,124.26 70.06,124.26 70.09,124.26C70.12,124.26 70.15,124.26 70.18,124.26C70.21,124.26 70.24,124.26 70.27,124.26C70.3,124.26 70.33,124.26 70.36,124.26C70.39,124.26 70.42,124.26 70.45,124.26C70.48,124.26 70.51,124.26 70.54,124.26C70.57,124.26 70.6,124.26 70.63,124.26C70.66,124.26 70.69,124.26 70.72,124.26C70.75,124.26 70.78,124.26 70.81,124.26C70.84,124.26 70.87,124.26 70.9,124.26C70.93,124.26 70.96,124.26 70.99,124.26C71.02,124.26 71.05,124.26 71.08,124.26C71.11,124.26 71.14,124.26 71.17,124.26C71.2,124.26 71.23,124.26 71.26,124.26C71.29,124.26 71.32,124.26 71.35,124.26C71.38,124.26 71.41,124.26 71.44,124.26C71.47,124.26 71.5,124.26 71.53,124.26C71.56,124.26 71.59,124.26 71.62,124.26C71.65,124.26 71.68,124.26 71.71,124.26C71.74,124.26 71.77,124.26 71.8,124.26C71.83,124.26 71.86,124.26 71.89,124.26C71.92,124.26 71.95,124.26 71.98,124.26C72.01,124.26 72.04,124.26 72.07,124.26C72.1,124.26 72.13,124.26 72.16,124.26C72.19,124.26 72.22,124.26 72.25,124.26C72.28,124.26 72.31,124.26 72.34,124.26C72.37,124.26 72.4,124.26 72.43,124.26C72.46,124.26 72.49,124.26 72.52,124.26C72.55,124.26 72.58,124.26 72.61,124.26C72.64,124.26 72.67,124.26 72.7,124.26C72.73,124.26 72.76,124.26 72.79,124.26C72.82,124.26 72.85,124.26 72.88,124.26C72.91,124.26 72.94,124.26 72.97,124.26C73,124.26 73.03,124.26 73.06,124.26C73.09,124.26 73.12,124.26 73.15,124.26C73.18,124.26 73.21,124.26 73.24,124.26C73.27,124.26 73.3,124.26 73.33,124.26C73.36,124.26 73.39,124.26 73.42,124.26C73.45,124.26 73.48,124.26 73.51,124.26C73.54,124.26 73.57,124.26 73.6,124.26C73.63,124.26 73.66,124.26 73.69,124.26C73.72,124.26 73.75,124.26 73.78,124.26C73.81,124.26 73.84,124.26 73.87,124.26C73.9,124.26 73.93,124.26 73.96,124.26C73.99,124.26 74.02,124.26 74.05,124.26C74.08,124.26 74.11,124.26 74.14,124.26C74.17,124.26 74.2,124.26 74.23,124.26C74.26,124.26 74.29,124.26 74.32,124.26C74.35,124.26 74.38,124.26 74.41,124.26C74.44,124.26 74.47,124.26 74.5,124.26C74.53,124.26 74.56,124.26 74.59,124.26C74.62,124.26 74.65,124.26 74.68,124.26C74.71,124.26 74.74,124.26 74.77,124.26C74.8,124.26 74.83,124.26 74.86,124.26C74.89,124.26 74.92,124.26 74.95,124.26C74.98,124.26 75.02,124.26 75.05,124.26C75.08,124.26 75.11,124.26 75.14,124.26C75.17,124.26 75.2,124.26 75.23,124.26C75.26,124.26 75.29,124.26 75.32,124.26C75.35,124.26 75.38,124.26 75.41,124.26C75.44,124.26 75.47,124.26 75.5,124.26C75.53,124.26 75.56,124.26 75.59,124.26C75.62,124.26 75.65,124.26 75.68,124.26C75.71,124.26 75.74,124.26 75.77,124.26C75.8,124.26 75.83,124.26 75.86,124.26C75.89,124.26 75.92,124.26 75.95,124.26C75.98,124.26 76.01,124.26 76.04,124.26C76.07,124.26 76.1,124.26 76.13,124.26C76.16,124.26 76.19,124.26 76.22,124.26C76.25,124.26 76.28,124.26 76.31,124.26C76.34,124.26 76.37,124.26 76.4,124.26C76.43,124.26 76.46,124.26 76.49,124.26C76.52,124.26 76.55,124.26 76.58,124.26C76.61,124.26 76.64,124.26 76.67,124.26C76.7,124.26 76.73,124.26 76.76,124.26C76.79,124.26 76.82,124.26 76.85,124.26C76.88,124.26 76.91,124.26 76.94,124.26C76.97,124.26 77,124.26 77.03,124.26C77.06,124.26 77.09,124.26 77.12,124.26C77.15,124.26 77.18,124.26 77.21,124.26C77.24,124.26 77.27,124.26 77.3,124.26C77.33,124.26 77.36,124.26 77.39,124.26C77.42,124.26 77.45,124.26 77.48,124.26C77.51,124.26 77.54,124.26 77.57,124.26C77.6,124.26 77.63,124.26 77.66,124.26C77.69,124.26 77.72,124.26 77.75,124.26C77.78,124.26 77.81,124.26 77.84,124.26C77.87,124.26 77.9,124.26 77.93,124.26C77.96,124.26 77.99,124.26 78.02,124.26C78.05,124.26 78.08,124.26 78.11,124.26C78.14,124.26 78.17,124.26 78.2,124.26C78.23,124.26 78.26,124.26 78.29,124.26C78.32,124.26 78.35,124.26 78.38,124.26C78.41,124.26 78.44,124.26 78.47,124.26C78.5,124.26 78.53,124.26 78.56,124.26C78.59,124.26 78.62,124.26 78.65,124.26C78.68,124.26 78.71,124.26 78.74,124.26C78.77,124.26 78.8,124.26 78.83,124.26C78.86,124.26 78.89,124.26 78.92,124.26C78.95,124.26 78.98,124.26 79.01,124.26C79.04,124.26 79.07,124.26 79.1,124.26C79.13,124.26 79.16,124.26 79.19,124.26C79.22,124.26 79.25,124.26 79.28,124.26C79.31,124.26 79.34,124.26 79.37,124.26C79.4,124.26 79.43,124.26 79.46,124.26C79.49,124.26 79.52,124.26 79.55,124.26C79.58,124.26 79.61,124.26 79.64,124.26C79.67,124.26 79.7,124.26 79.73,124.26C79.76,124.26 79.79,124.26 79.82,124.26C79.85,124.26 79.88,124.26 79.91,124.26C79.94,124.26 79.97,124.26 80,124.26C80.03,124.26 80.06,124.26 80.09,124.26C80.12,124.26 80.15,124.26 80.18,124.26C80.21,124.26 80.24,124.26 80.27,124.26C80.3,124.26 80.33,124.26 80.36,124.26C80.39,124.26 80.42,124.26 80.45,124.26C80.48,124.26 80.51,124.26 80.54,124.26C80.57,124.26 80.6,124.26 80.63,124.26C80.66,124.26 80.69,124.26 80.72,124.26C80.75,124.26 80.78,124.26 80.81,124.26C80.84,124.26 80.87,124.26 80.9,124.26C80.93,124.26 80.96,124.26 80.99,124.26C81.02,124.26 81.05,124.26 81.08,124.26C81.11,124.26 81.14,124.26 81.17,124.26C81.2,124.26 81.23,124.26 81.26,124.26C81.29,124.26 81.32,124.26 81.35,124.26C81.38,124.26 81.41,124.26 81.44,124.26C81.47,124.26 81.5,124.26 81.53,124.26C81.56,124.26 81.59,124.26 81.62,124.26C81.65,124.26 81.68,124.26 81.71,124.26C81.74,124.26 81.77,124.26 81.8,124.26C81.83,124.26 81.86,124.26 81.89,124.26C81.92,124.26 81.95,124.26 81.98,124.26C82.01,124.26 82.04,124.26 82.07,124.26C82.1,124.26 82.13,124.26 82.16,124.26C82.19,124.26 82.22,124.26 82.25,124.26C82.28,124.26 82.31,124.26 82.34,124.26C82.37,124.26 82.4,124.26 82.43,124.26C82.46,124.26 82.49,124.26 82.52,124.26C82.55,124.26 82.58,124.26 82.61,124.26C82.64,124.26 82.67,124.26 82.7,124.26C82.73,124.26 82.76,124.26 82.79,124.26C82.82,124.26 82.85,124.26 82.88,124.26C82.91,124.26 82.94,124.26 82.97,124.26C83,124.26 83.03,124.26 83.06,124.26C83.09,124.26 83.12,124.26 83.15,124.26C83.18,124.26 83.21,124.26 83.24,124.26C83.27,124.26 83.3,124.26 83.33,124.26C83.36,124.26 83.39,124.26 83.42,124.26C83.45,124.26 83.48,124.26 83.51,124.26C83.54,124.26 83.57,124.26 83.6,124.26C83.63,124.26 83.66,124.26 83.69,124.26C83.72,124.26 83.75,124.26 83.78,124.26C83.81,124.26 83.84,124.26 83.87,124.26C83.9,124.26 83.93,124.26 83.96,124.26C83.99,124.26 84.02,124.26 84.05,124.26C84.08,124.26 84.11,124.26 84.14,124.26C84.17,124.26 84.2,124.26 84.23,124.26C84.26,124.26 84.29,124.26 84.32,124.26C84.35,124.26 84.38,124.26 84.41,124.26C84.44,124.26 84.47,124.26 84.5,124.26C84.53,124.26 84.56,124.26 84.59,124.26C84.62,124.26 84.65,124.26 84.68,124.26C84.71,124.26 84.74,124.26 84.77,124.26C84.8,124.26 84.83,124.26 84.86,124.26C84.89,124.26 84.92,124.26 84.95,124.26C84.98,124.26 85.02,124.26 85.05,124.26C85.08,124.26 85.11,124.26 85.14,124.26C85.17,124.26 85.2,124.26 85.23,124.26C85.26,124.26 85.29,124.26 85.32,124.26C85.35,124.26 85.38,124.26 85.41,124.26C85.44,124.26 85.47,124.26 85.5,124.26C85.53,124.26 85.56,124.26 85.59,124.26C85.62,124.26 85.65,124.26 85.68,124.26C85.71,124.26 85.74,124.26 85.77,124.26C85.8,124.26 85.83,124.26 85.86,124.26C85.89,124.26 85.92,124.26 85.95,124.26C85.98,124.26 86.01,124.26 86.04,124.26C86.07,124.26 86.1,124.26 86.13,124.26C86.16,124.26 86.19,124.26 86.22,124.26C86.25,124.26 86.28,124.26 86.31,124.26C86.34,124.26 86.37,124.26 86.4,124.26C86.43,124.26 86.46,124.26 86.49,124.26C86.52,124.26 86.55,124.26 86.58,124.26C86.61,124.26 86.64,124.26 86.67,124.26C86.7,124.26 86.73,124.26 86.76,124.26C86.79,124.26 86.82,124.26 86.85,124.26C86.88,124.26 86.91,124.26 86.94,124.26C86.97,124.26 87,124.26 87.03,124.26C87.06,124.26 87.09,124.26 87.12,124.26C87.15,124.26 87.18,124.26 87.21,124.26C87.24,124.26 87.27,124.26 87.3,124.26C87.33,124.26 87.36,124.26 87.39,124.26C87.42,124.26 87.45,124.26 87.48,124.26C87.51,124.26 87.54,124.26 87.57,124.26C87.6,124.26 87.63,124.26 87.66,124.26C87.69,124.26 87.72,124.26 87.75,124.26C87.78,124.26 87.81,124.26 87.84,124.26C87.87,124.26 87.9,124.26 87.93,124.26C87.96,124.26 87.99,124.26 88.02,124.26C88.05,124.26 88.08,124.26 88.11,124.26C88.14,124.26 88.17,124.26 88.2,124.26C88.23,124.26 88.26,124.26 88.29,124.26C88.32,124.26 88.35,124.26 88.38,124.26C88.41,124.26 88.44,124.26 88.47,124.26C88.5,124.26 88.53,124.26 88.56,124.26C88.59,124.26 88.62,124.26 88.65,124.26C88.68,124.26 88.71,124.26 88.74,124.26C88.77,124.26 88.8,124.26 88.83,124.26C88.86,124.26 88.89,124.26 88.92,124.26C88.95,124.26 88.98,124.26 89.01,124.26C89.04,124.26 89.07,124.26 89.1,124.26C89.13,124.26 89.16,124.26 89.19,124.26C89.22,124.26 89.25,124.26 89.28,124.26C89.31,124.26 89.34,124.26 89.37,124.26C89.4,124.26 89.43,124.26 89.46,124.26C89.49,124.26 89.52,124.26 89.55,124.26C89.58,124.26 89.61,124.26 89.64,124.26C89.67,124.26 89.7,124.26 89.73,124.26C89.76,124.26 89.79,124.26 89.82,124.26C89.85,124.26 89.88,124.26 89.91,124.26Q89.94,124.26 90,124.26" style="vector-effect: none; fill: none; stroke: rgb(117, 112, 179); stroke-opacity: 1; stroke-width: 1.5px; opacity: 1;"/></g><g class="points"/><g class="text"/></g><g class="trace scatter trace4cb2f6" style="stroke-miterlimit: 2; opacity: 1;"><g class="fills"/><g class="errorbars"/><g class="lines"><path class="js-line" d="M0,124.26Q0.06,124.32 0.09,124.32C0.12,124.32 0.15,124.3 0.18,124.29C0.21,124.28 0.24,124.28 0.27,124.27C0.3,124.27 0.33,124.26 0.36,124.26C0.39,124.26 0.42,124.26 0.45,124.26C0.48,124.26 0.51,124.26 0.54,124.26C0.57,124.26 0.6,124.26 0.63,124.26C0.66,124.26 0.69,124.26 0.72,124.26C0.75,124.26 0.78,124.26 0.81,124.26C0.84,124.26 0.87,124.26 0.9,124.26C0.93,124.26 0.96,124.26 0.99,124.26C1.02,124.26 1.05,124.26 1.08,124.26C1.11,124.26 1.14,124.26 1.17,124.26C1.2,124.26 1.23,124.26 1.26,124.26C1.29,124.26 1.32,124.26 1.35,124.26C1.38,124.26 1.41,124.26 1.44,124.26C1.47,124.26 1.5,124.26 1.53,124.26C1.56,124.26 1.59,124.26 1.62,124.26C1.65,124.26 1.68,124.26 1.71,124.26C1.74,124.26 1.77,124.26 1.8,124.26C1.83,124.26 1.86,124.26 1.89,124.26C1.92,124.26 1.95,124.26 1.98,124.26C2.01,124.26 2.04,124.26 2.07,124.26C2.1,124.26 2.13,124.26 2.16,124.26C2.19,124.26 2.22,124.26 2.25,124.26C2.28,124.26 2.31,124.26 2.34,124.26C2.37,124.26 2.4,124.26 2.43,124.26C2.46,124.26 2.49,124.26 2.52,124.26C2.55,124.26 2.58,124.26 2.61,124.26C2.64,124.26 2.67,124.26 2.7,124.26C2.73,124.26 2.76,124.26 2.79,124.26C2.82,124.26 2.85,124.26 2.88,124.26C2.91,124.26 2.94,124.26 2.97,124.26C3,124.26 3.03,124.26 3.06,124.26C3.09,124.26 3.12,124.26 3.15,124.26C3.18,124.26 3.21,124.26 3.24,124.26C3.27,124.26 3.3,124.26 3.33,124.26C3.36,124.26 3.39,124.26 3.42,124.26C3.45,124.26 3.48,124.26 3.51,124.26C3.54,124.26 3.57,124.26 3.6,124.26C3.63,124.26 3.66,124.26 3.69,124.26C3.72,124.26 3.75,124.26 3.78,124.26C3.81,124.26 3.84,124.26 3.87,124.26C3.9,124.26 3.93,124.26 3.96,124.26C3.99,124.26 4.02,124.26 4.05,124.26C4.08,124.26 4.11,124.26 4.14,124.26C4.17,124.26 4.2,124.26 4.23,124.26C4.26,124.26 4.29,124.26 4.32,124.26C4.35,124.26 4.38,124.26 4.41,124.26C4.44,124.26 4.47,124.26 4.5,124.26C4.53,124.26 4.56,124.26 4.59,124.26C4.62,124.26 4.65,124.26 4.68,124.26C4.71,124.26 4.74,124.26 4.77,124.26C4.8,124.26 4.83,124.26 4.86,124.26C4.89,124.26 4.92,124.26 4.95,124.26C4.98,124.26 5.02,124.26 5.05,124.26C5.08,124.26 5.11,124.26 5.14,124.26C5.17,124.26 5.2,124.26 5.23,124.26C5.26,124.26 5.29,124.26 5.32,124.26C5.35,124.26 5.38,124.26 5.41,124.26C5.44,124.26 5.47,124.26 5.5,124.26C5.53,124.26 5.56,124.26 5.59,124.26C5.62,124.26 5.65,124.26 5.68,124.26C5.71,124.26 5.74,124.26 5.77,124.26C5.8,124.26 5.83,124.26 5.86,124.26C5.89,124.26 5.92,124.26 5.95,124.26C5.98,124.26 6.01,124.26 6.04,124.26C6.07,124.26 6.1,124.26 6.13,124.26C6.16,124.26 6.19,124.26 6.22,124.26C6.25,124.26 6.28,124.26 6.31,124.26C6.34,124.26 6.37,124.26 6.4,124.26C6.43,124.26 6.46,124.26 6.49,124.26C6.52,124.26 6.55,124.26 6.58,124.26C6.61,124.26 6.64,124.26 6.67,124.26C6.7,124.26 6.73,124.26 6.76,124.26C6.79,124.26 6.82,124.26 6.85,124.26C6.88,124.26 6.91,124.26 6.94,124.26C6.97,124.26 7,124.26 7.03,124.26C7.06,124.26 7.09,124.26 7.12,124.26C7.15,124.26 7.18,124.26 7.21,124.26C7.24,124.26 7.27,124.26 7.3,124.26C7.33,124.26 7.36,124.26 7.39,124.26C7.42,124.26 7.45,124.26 7.48,124.26C7.51,124.26 7.54,124.26 7.57,124.26C7.6,124.26 7.63,124.26 7.66,124.26C7.69,124.26 7.72,124.26 7.75,124.26C7.78,124.26 7.81,124.26 7.84,124.26C7.87,124.26 7.9,124.26 7.93,124.26C7.96,124.26 7.99,124.26 8.02,124.26C8.05,124.26 8.08,124.26 8.11,124.26C8.14,124.26 8.17,124.26 8.2,124.26C8.23,124.26 8.26,124.26 8.29,124.26C8.32,124.26 8.35,124.26 8.38,124.26C8.41,124.26 8.44,124.26 8.47,124.26C8.5,124.26 8.53,124.26 8.56,124.26C8.59,124.26 8.62,124.26 8.65,124.26C8.68,124.26 8.71,124.26 8.74,124.26C8.77,124.26 8.8,124.26 8.83,124.26C8.86,124.26 8.89,124.26 8.92,124.26C8.95,124.26 8.98,124.26 9.01,124.26C9.04,124.26 9.07,124.26 9.1,124.26C9.13,124.26 9.16,124.26 9.19,124.26C9.22,124.26 9.25,124.26 9.28,124.26C9.31,124.26 9.34,124.26 9.37,124.26C9.4,124.26 9.43,124.26 9.46,124.26C9.49,124.26 9.52,124.26 9.55,124.26C9.58,124.26 9.61,124.26 9.64,124.26C9.67,124.26 9.7,124.26 9.73,124.26C9.76,124.26 9.79,124.26 9.82,124.26C9.85,124.26 9.88,124.26 9.91,124.26C9.94,124.26 9.97,124.26 10,124.26C10.03,124.26 10.06,124.26 10.09,124.26C10.12,124.26 10.15,124.26 10.18,124.26C10.21,124.26 10.24,124.26 10.27,124.26C10.3,124.26 10.33,124.26 10.36,124.26C10.39,124.26 10.42,124.26 10.45,124.26C10.48,124.26 10.51,124.26 10.54,124.26C10.57,124.26 10.6,124.26 10.63,124.26C10.66,124.26 10.69,124.26 10.72,124.26C10.75,124.26 10.78,124.26 10.81,124.26C10.84,124.26 10.87,124.26 10.9,124.26C10.93,124.26 10.96,124.26 10.99,124.26C11.02,124.26 11.05,124.26 11.08,124.26C11.11,124.26 11.14,124.26 11.17,124.26C11.2,124.26 11.23,124.26 11.26,124.26C11.29,124.26 11.32,124.26 11.35,124.26C11.38,124.26 11.41,124.26 11.44,124.26C11.47,124.26 11.5,124.26 11.53,124.26C11.56,124.26 11.59,124.26 11.62,124.26C11.65,124.26 11.68,124.26 11.71,124.26C11.74,124.26 11.77,124.26 11.8,124.26C11.83,124.26 11.86,124.26 11.89,124.26C11.92,124.26 11.95,124.26 11.98,124.26C12.01,124.26 12.04,124.26 12.07,124.26C12.1,124.26 12.13,124.26 12.16,124.26C12.19,124.26 12.22,124.26 12.25,124.26C12.28,124.26 12.31,124.26 12.34,124.26C12.37,124.26 12.4,124.26 12.43,124.26C12.46,124.26 12.49,124.26 12.52,124.26C12.55,124.26 12.58,124.26 12.61,124.26C12.64,124.26 12.67,124.26 12.7,124.26C12.73,124.26 12.76,124.26 12.79,124.26C12.82,124.26 12.85,124.26 12.88,124.26C12.91,124.26 12.94,124.26 12.97,124.26C13,124.26 13.03,124.26 13.06,124.26C13.09,124.26 13.12,124.26 13.15,124.26C13.18,124.26 13.21,124.26 13.24,124.26C13.27,124.26 13.3,124.26 13.33,124.26C13.36,124.26 13.39,124.26 13.42,124.26C13.45,124.26 13.48,124.26 13.51,124.26C13.54,124.26 13.57,124.26 13.6,124.26C13.63,124.26 13.66,124.26 13.69,124.26C13.72,124.26 13.75,124.26 13.78,124.26C13.81,124.26 13.84,124.26 13.87,124.26C13.9,124.26 13.93,124.26 13.96,124.26C13.99,124.26 14.02,124.26 14.05,124.26C14.08,124.26 14.11,124.26 14.14,124.26C14.17,124.26 14.2,124.26 14.23,124.26C14.26,124.26 14.29,124.26 14.32,124.26C14.35,124.26 14.38,124.26 14.41,124.26C14.44,124.26 14.47,124.26 14.5,124.26C14.53,124.26 14.56,124.26 14.59,124.26C14.62,124.26 14.65,124.26 14.68,124.26C14.71,124.26 14.74,124.26 14.77,124.26C14.8,124.26 14.83,124.26 14.86,124.26C14.89,124.26 14.92,124.26 14.95,124.26C14.98,124.26 15.02,124.26 15.05,124.26C15.08,124.26 15.11,124.26 15.14,124.26C15.17,124.26 15.2,124.26 15.23,124.26C15.26,124.26 15.29,124.26 15.32,124.26C15.35,124.26 15.38,124.26 15.41,124.26C15.44,124.26 15.47,124.26 15.5,124.26C15.53,124.26 15.56,124.26 15.59,124.26C15.62,124.26 15.65,124.26 15.68,124.26C15.71,124.26 15.74,124.26 15.77,124.26C15.8,124.26 15.83,124.26 15.86,124.26C15.89,124.26 15.92,124.26 15.95,124.26C15.98,124.26 16.01,124.26 16.04,124.26C16.07,124.26 16.1,124.26 16.13,124.26C16.16,124.26 16.19,124.26 16.22,124.26C16.25,124.26 16.28,124.26 16.31,124.26C16.34,124.26 16.37,124.26 16.4,124.26C16.43,124.26 16.46,124.26 16.49,124.26C16.52,124.26 16.55,124.26 16.58,124.26C16.61,124.26 16.64,124.26 16.67,124.26C16.7,124.26 16.73,124.26 16.76,124.26C16.79,124.26 16.82,124.26 16.85,124.26C16.88,124.26 16.91,124.26 16.94,124.26C16.97,124.26 17,124.26 17.03,124.26C17.06,124.26 17.09,124.26 17.12,124.26C17.15,124.26 17.18,124.26 17.21,124.26C17.24,124.26 17.27,124.26 17.3,124.26C17.33,124.26 17.36,124.26 17.39,124.26C17.42,124.26 17.45,124.26 17.48,124.26C17.51,124.26 17.54,124.26 17.57,124.26C17.6,124.26 17.63,124.26 17.66,124.26C17.69,124.26 17.72,124.26 17.75,124.26C17.78,124.26 17.81,124.26 17.84,124.26C17.87,124.26 17.9,124.26 17.93,124.26C17.96,124.26 17.99,124.26 18.02,124.26C18.05,124.26 18.08,124.26 18.11,124.26C18.14,124.26 18.17,124.26 18.2,124.26C18.23,124.26 18.26,124.26 18.29,124.26C18.32,124.26 18.35,124.26 18.38,124.26C18.41,124.26 18.44,124.26 18.47,124.26C18.5,124.26 18.53,124.26 18.56,124.26C18.59,124.26 18.62,124.26 18.65,124.26C18.68,124.26 18.71,124.26 18.74,124.26C18.77,124.26 18.8,124.26 18.83,124.26C18.86,124.26 18.89,124.26 18.92,124.26C18.95,124.26 18.98,124.26 19.01,124.26C19.04,124.26 19.07,124.26 19.1,124.26C19.13,124.26 19.16,124.26 19.19,124.26C19.22,124.26 19.25,124.26 19.28,124.26C19.31,124.26 19.34,124.26 19.37,124.26C19.4,124.26 19.43,124.26 19.46,124.26C19.49,124.26 19.52,124.26 19.55,124.26C19.58,124.26 19.61,124.26 19.64,124.26C19.67,124.26 19.7,124.26 19.73,124.26C19.76,124.26 19.79,124.26 19.82,124.26C19.85,124.26 19.88,124.26 19.91,124.26C19.94,124.26 19.97,124.26 20,124.26C20.03,124.26 20.06,124.26 20.09,124.26C20.12,124.26 20.15,124.26 20.18,124.26C20.21,124.26 20.24,124.26 20.27,124.26C20.3,124.26 20.33,124.26 20.36,124.26C20.39,124.26 20.42,124.26 20.45,124.26C20.48,124.26 20.51,124.26 20.54,124.26C20.57,124.26 20.6,124.26 20.63,124.26C20.66,124.26 20.69,124.26 20.72,124.26C20.75,124.26 20.78,124.26 20.81,124.26C20.84,124.26 20.87,124.26 20.9,124.26C20.93,124.26 20.96,124.26 20.99,124.26C21.02,124.26 21.05,124.26 21.08,124.26C21.11,124.26 21.14,124.26 21.17,124.26C21.2,124.26 21.23,124.26 21.26,124.26C21.29,124.26 21.32,124.26 21.35,124.26C21.38,124.26 21.41,124.26 21.44,124.26C21.47,124.26 21.5,124.26 21.53,124.26C21.56,124.26 21.59,124.26 21.62,124.26C21.65,124.26 21.68,124.26 21.71,124.26C21.74,124.26 21.77,124.26 21.8,124.26C21.83,124.26 21.86,124.26 21.89,124.26C21.92,124.26 21.95,124.26 21.98,124.26C22.01,124.26 22.04,124.26 22.07,124.26C22.1,124.26 22.13,124.26 22.16,124.26C22.19,124.26 22.22,124.26 22.25,124.26C22.28,124.26 22.31,124.26 22.34,124.26C22.37,124.26 22.4,124.26 22.43,124.26C22.46,124.26 22.49,124.26 22.52,124.26C22.55,124.26 22.58,124.26 22.61,124.26C22.64,124.26 22.67,124.26 22.7,124.26C22.73,124.26 22.76,124.26 22.79,124.26C22.82,124.26 22.85,124.26 22.88,124.26C22.91,124.26 22.94,124.26 22.97,124.26C23,124.26 23.03,124.26 23.06,124.26C23.09,124.26 23.12,124.26 23.15,124.26C23.18,124.26 23.21,124.26 23.24,124.26C23.27,124.26 23.3,124.26 23.33,124.26C23.36,124.26 23.39,124.26 23.42,124.26C23.45,124.26 23.48,124.26 23.51,124.26C23.54,124.26 23.57,124.26 23.6,124.26C23.63,124.26 23.66,124.26 23.69,124.26C23.72,124.26 23.75,124.26 23.78,124.26C23.81,124.26 23.84,124.26 23.87,124.26C23.9,124.26 23.93,124.26 23.96,124.26C23.99,124.26 24.02,124.26 24.05,124.26C24.08,124.26 24.11,124.26 24.14,124.26C24.17,124.26 24.2,124.26 24.23,124.26C24.26,124.26 24.29,124.26 24.32,124.26C24.35,124.26 24.38,124.26 24.41,124.26C24.44,124.26 24.47,124.26 24.5,124.26C24.53,124.26 24.56,124.26 24.59,124.26C24.62,124.26 24.65,124.26 24.68,124.26C24.71,124.26 24.74,124.26 24.77,124.26C24.8,124.26 24.83,124.26 24.86,124.26C24.89,124.26 24.92,124.26 24.95,124.26C24.98,124.26 25.02,124.26 25.05,124.26C25.08,124.26 25.11,124.26 25.14,124.26C25.17,124.26 25.2,124.26 25.23,124.26C25.26,124.26 25.29,124.26 25.32,124.26C25.35,124.26 25.38,124.26 25.41,124.26C25.44,124.26 25.47,124.26 25.5,124.26C25.53,124.26 25.56,124.26 25.59,124.26C25.62,124.26 25.65,124.26 25.68,124.26C25.71,124.26 25.74,124.26 25.77,124.26C25.8,124.26 25.83,124.26 25.86,124.26C25.89,124.26 25.92,124.26 25.95,124.26C25.98,124.26 26.01,124.26 26.04,124.26C26.07,124.26 26.1,124.26 26.13,124.26C26.16,124.26 26.19,124.26 26.22,124.26C26.25,124.26 26.28,124.26 26.31,124.26C26.34,124.26 26.37,124.26 26.4,124.26C26.43,124.26 26.46,124.26 26.49,124.26C26.52,124.26 26.55,124.26 26.58,124.26C26.61,124.26 26.64,124.26 26.67,124.26C26.7,124.26 26.73,124.26 26.76,124.26C26.79,124.26 26.82,124.26 26.85,124.26C26.88,124.26 26.91,124.26 26.94,124.26C26.97,124.26 27,124.26 27.03,124.26C27.06,124.26 27.09,124.26 27.12,124.26C27.15,124.26 27.18,124.26 27.21,124.26C27.24,124.26 27.27,124.26 27.3,124.26C27.33,124.26 27.36,124.26 27.39,124.26C27.42,124.26 27.45,124.26 27.48,124.26C27.51,124.26 27.54,124.26 27.57,124.26C27.6,124.26 27.63,124.26 27.66,124.26C27.69,124.26 27.72,124.26 27.75,124.26C27.78,124.26 27.81,124.26 27.84,124.26C27.87,124.26 27.9,124.26 27.93,124.26C27.96,124.26 27.99,124.26 28.02,124.26C28.05,124.26 28.08,124.26 28.11,124.26C28.14,124.26 28.17,124.26 28.2,124.26C28.23,124.26 28.26,124.26 28.29,124.26C28.32,124.26 28.35,124.26 28.38,124.26C28.41,124.26 28.44,124.26 28.47,124.26C28.5,124.26 28.53,124.26 28.56,124.26C28.59,124.26 28.62,124.26 28.65,124.26C28.68,124.26 28.71,124.26 28.74,124.26C28.77,124.26 28.8,124.26 28.83,124.26C28.86,124.26 28.89,124.26 28.92,124.26C28.95,124.26 28.98,124.26 29.01,124.26C29.04,124.26 29.07,124.26 29.1,124.26C29.13,124.26 29.16,124.26 29.19,124.26C29.22,124.26 29.25,124.26 29.28,124.26C29.31,124.26 29.34,124.26 29.37,124.26C29.4,124.26 29.43,124.26 29.46,124.26C29.49,124.26 29.52,124.26 29.55,124.26C29.58,124.26 29.61,124.26 29.64,124.26C29.67,124.26 29.7,124.26 29.73,124.26C29.76,124.26 29.79,124.26 29.82,124.26C29.85,124.26 29.88,124.26 29.91,124.26C29.94,124.26 29.97,124.26 30,124.26C30.03,124.26 30.06,124.26 30.09,124.26C30.12,124.26 30.15,124.26 30.18,124.26C30.21,124.26 30.24,124.26 30.27,124.26C30.3,124.26 30.33,124.26 30.36,124.26C30.39,124.26 30.42,124.26 30.45,124.26C30.48,124.26 30.51,124.26 30.54,124.26C30.57,124.26 30.6,124.26 30.63,124.26C30.66,124.26 30.69,124.26 30.72,124.26C30.75,124.26 30.78,124.26 30.81,124.26C30.84,124.26 30.87,124.26 30.9,124.26C30.93,124.26 30.96,124.26 30.99,124.26C31.02,124.26 31.05,124.26 31.08,124.26C31.11,124.26 31.14,124.26 31.17,124.26C31.2,124.26 31.23,124.26 31.26,124.26C31.29,124.26 31.32,124.26 31.35,124.26C31.38,124.26 31.41,124.26 31.44,124.26C31.47,124.26 31.5,124.26 31.53,124.26C31.56,124.26 31.59,124.26 31.62,124.26C31.65,124.26 31.68,124.26 31.71,124.26C31.74,124.26 31.77,124.26 31.8,124.26C31.83,124.26 31.86,124.26 31.89,124.26C31.92,124.26 31.95,124.26 31.98,124.26C32.01,124.26 32.04,124.26 32.07,124.26C32.1,124.26 32.13,124.26 32.16,124.26C32.19,124.26 32.22,124.26 32.25,124.26C32.28,124.26 32.31,124.26 32.34,124.26C32.37,124.26 32.4,124.26 32.43,124.26C32.46,124.26 32.49,124.26 32.52,124.26C32.55,124.26 32.58,124.26 32.61,124.26C32.64,124.26 32.67,124.26 32.7,124.26C32.73,124.26 32.76,124.26 32.79,124.26C32.82,124.26 32.85,124.26 32.88,124.26C32.91,124.26 32.94,124.26 32.97,124.26C33,124.26 33.03,124.26 33.06,124.26C33.09,124.26 33.12,124.26 33.15,124.26C33.18,124.26 33.21,124.26 33.24,124.26C33.27,124.26 33.3,124.26 33.33,124.26C33.36,124.26 33.39,124.26 33.42,124.26C33.45,124.26 33.48,124.26 33.51,124.26C33.54,124.26 33.57,124.26 33.6,124.26C33.63,124.26 33.66,124.26 33.69,124.26C33.72,124.26 33.75,124.26 33.78,124.26C33.81,124.26 33.84,124.26 33.87,124.26C33.9,124.26 33.93,124.26 33.96,124.26C33.99,124.26 34.02,124.26 34.05,124.26C34.08,124.26 34.11,124.26 34.14,124.26C34.17,124.26 34.2,124.26 34.23,124.26C34.26,124.26 34.29,124.26 34.32,124.26C34.35,124.26 34.38,124.26 34.41,124.26C34.44,124.26 34.47,124.26 34.5,124.26C34.53,124.26 34.56,124.26 34.59,124.26C34.62,124.26 34.65,124.26 34.68,124.26C34.71,124.26 34.74,124.26 34.77,124.26C34.8,124.26 34.83,124.26 34.86,124.26C34.89,124.26 34.92,124.26 34.95,124.26C34.98,124.26 35.02,124.26 35.05,124.26C35.08,124.26 35.11,124.26 35.14,124.26C35.17,124.26 35.2,124.26 35.23,124.26C35.26,124.26 35.29,124.26 35.32,124.26C35.35,124.26 35.38,124.26 35.41,124.26C35.44,124.26 35.47,124.26 35.5,124.26C35.53,124.26 35.56,124.26 35.59,124.26C35.62,124.26 35.65,124.26 35.68,124.26C35.71,124.26 35.74,124.26 35.77,124.26C35.8,124.26 35.83,124.26 35.86,124.26C35.89,124.26 35.92,124.26 35.95,124.26C35.98,124.26 36.01,124.26 36.04,124.26C36.07,124.26 36.1,124.26 36.13,124.26C36.16,124.26 36.19,124.26 36.22,124.26C36.25,124.26 36.28,124.26 36.31,124.26C36.34,124.26 36.37,124.26 36.4,124.26C36.43,124.26 36.46,124.26 36.49,124.26C36.52,124.26 36.55,124.26 36.58,124.26C36.61,124.26 36.64,124.26 36.67,124.26C36.7,124.26 36.73,124.26 36.76,124.26C36.79,124.26 36.82,124.26 36.85,124.26C36.88,124.26 36.91,124.26 36.94,124.26C36.97,124.26 37,124.26 37.03,124.26C37.06,124.26 37.09,124.26 37.12,124.26C37.15,124.26 37.18,124.26 37.21,124.26C37.24,124.26 37.27,124.26 37.3,124.26C37.33,124.26 37.36,124.26 37.39,124.26C37.42,124.26 37.45,124.26 37.48,124.26C37.51,124.26 37.54,124.26 37.57,124.26C37.6,124.26 37.63,124.26 37.66,124.26C37.69,124.26 37.72,124.26 37.75,124.26C37.78,124.26 37.81,124.26 37.84,124.26C37.87,124.26 37.9,124.26 37.93,124.26C37.96,124.26 37.99,124.26 38.02,124.26C38.05,124.26 38.08,124.26 38.11,124.26C38.14,124.26 38.17,124.26 38.2,124.26C38.23,124.26 38.26,124.26 38.29,124.26C38.32,124.26 38.35,124.26 38.38,124.26C38.41,124.26 38.44,124.26 38.47,124.26C38.5,124.26 38.53,124.26 38.56,124.26C38.59,124.26 38.62,124.26 38.65,124.26C38.68,124.26 38.71,124.26 38.74,124.26C38.77,124.26 38.8,124.26 38.83,124.26C38.86,124.26 38.89,124.26 38.92,124.26C38.95,124.26 38.98,124.26 39.01,124.26C39.04,124.26 39.07,124.26 39.1,124.26C39.13,124.26 39.16,124.26 39.19,124.26C39.22,124.26 39.25,124.26 39.28,124.26C39.31,124.26 39.34,124.26 39.37,124.26C39.4,124.26 39.43,124.26 39.46,124.26C39.49,124.26 39.52,124.26 39.55,124.26C39.58,124.26 39.61,124.26 39.64,124.26C39.67,124.26 39.7,124.26 39.73,124.26C39.76,124.26 39.79,124.26 39.82,124.26C39.85,124.26 39.88,124.26 39.91,124.26C39.94,124.26 39.97,124.26 40,124.26C40.03,124.26 40.06,124.26 40.09,124.26C40.12,124.26 40.15,124.26 40.18,124.26C40.21,124.26 40.24,124.26 40.27,124.26C40.3,124.26 40.33,124.26 40.36,124.26C40.39,124.26 40.42,124.26 40.45,124.26C40.48,124.26 40.51,124.26 40.54,124.26C40.57,124.26 40.6,124.26 40.63,124.26C40.66,124.26 40.69,124.26 40.72,124.26C40.75,124.26 40.78,124.26 40.81,124.26C40.84,124.26 40.87,124.26 40.9,124.26C40.93,124.26 40.96,124.26 40.99,124.26C41.02,124.26 41.05,124.26 41.08,124.26C41.11,124.26 41.14,124.26 41.17,124.26C41.2,124.26 41.23,124.26 41.26,124.26C41.29,124.26 41.32,124.26 41.35,124.26C41.38,124.26 41.41,124.26 41.44,124.26C41.47,124.26 41.5,124.26 41.53,124.26C41.56,124.26 41.59,124.26 41.62,124.26C41.65,124.26 41.68,124.26 41.71,124.26C41.74,124.26 41.77,124.26 41.8,124.26C41.83,124.26 41.86,124.26 41.89,124.26C41.92,124.26 41.95,124.26 41.98,124.26C42.01,124.26 42.04,124.26 42.07,124.26C42.1,124.26 42.13,124.26 42.16,124.26C42.19,124.26 42.22,124.26 42.25,124.26C42.28,124.26 42.31,124.26 42.34,124.26C42.37,124.26 42.4,124.26 42.43,124.26C42.46,124.26 42.49,124.26 42.52,124.26C42.55,124.26 42.58,124.26 42.61,124.26C42.64,124.26 42.67,124.26 42.7,124.26C42.73,124.26 42.76,124.26 42.79,124.26C42.82,124.26 42.85,124.26 42.88,124.26C42.91,124.26 42.94,124.26 42.97,124.26C43,124.26 43.03,124.26 43.06,124.26C43.09,124.26 43.12,124.26 43.15,124.26C43.18,124.26 43.21,124.26 43.24,124.26C43.27,124.26 43.3,124.26 43.33,124.26C43.36,124.26 43.39,124.26 43.42,124.26C43.45,124.26 43.48,124.26 43.51,124.26C43.54,124.26 43.57,124.26 43.6,124.26C43.63,124.26 43.66,124.26 43.69,124.26C43.72,124.26 43.75,124.26 43.78,124.26C43.81,124.26 43.84,124.26 43.87,124.26C43.9,124.26 43.93,124.26 43.96,124.26C43.99,124.26 44.02,124.26 44.05,124.26C44.08,124.26 44.11,124.26 44.14,124.26C44.17,124.26 44.2,124.26 44.23,124.26C44.26,124.26 44.29,124.26 44.32,124.26C44.35,124.26 44.38,124.26 44.41,124.26C44.44,124.26 44.47,124.26 44.5,124.26C44.53,124.26 44.56,124.26 44.59,124.26C44.62,124.26 44.65,124.26 44.68,124.26C44.71,124.26 44.74,124.26 44.77,124.26C44.8,124.26 44.83,124.26 44.86,124.26C44.89,124.26 44.92,124.26 44.95,124.26C44.98,124.26 45.02,124.26 45.05,124.26C45.08,124.26 45.11,124.26 45.14,124.26C45.17,124.26 45.2,124.26 45.23,124.26C45.26,124.26 45.29,124.26 45.32,124.26C45.35,124.26 45.38,124.26 45.41,124.26C45.44,124.26 45.47,124.26 45.5,124.26C45.53,124.26 45.56,124.26 45.59,124.26C45.62,124.26 45.65,124.26 45.68,124.26C45.71,124.26 45.74,124.26 45.77,124.26C45.8,124.26 45.83,124.26 45.86,124.26C45.89,124.26 45.92,124.26 45.95,124.26C45.98,124.26 46.01,124.26 46.04,124.26C46.07,124.26 46.1,124.26 46.13,124.26C46.16,124.26 46.19,124.26 46.22,124.26C46.25,124.26 46.28,124.26 46.31,124.26C46.34,124.26 46.37,124.26 46.4,124.26C46.43,124.26 46.46,124.26 46.49,124.26C46.52,124.26 46.55,124.26 46.58,124.26C46.61,124.26 46.64,124.26 46.67,124.26C46.7,124.26 46.73,124.26 46.76,124.26C46.79,124.26 46.82,124.26 46.85,124.26C46.88,124.26 46.91,124.26 46.94,124.26C46.97,124.26 47,124.26 47.03,124.26C47.06,124.26 47.09,124.26 47.12,124.26C47.15,124.26 47.18,124.26 47.21,124.26C47.24,124.26 47.27,124.26 47.3,124.26C47.33,124.26 47.36,124.26 47.39,124.26C47.42,124.26 47.45,124.26 47.48,124.26C47.51,124.26 47.54,124.26 47.57,124.26C47.6,124.26 47.63,124.26 47.66,124.26C47.69,124.26 47.72,124.26 47.75,124.26C47.78,124.26 47.81,124.26 47.84,124.26C47.87,124.26 47.9,124.26 47.93,124.26C47.96,124.26 47.99,124.26 48.02,124.26C48.05,124.26 48.08,124.26 48.11,124.26C48.14,124.26 48.17,124.26 48.2,124.26C48.23,124.26 48.26,124.26 48.29,124.26C48.32,124.26 48.35,124.26 48.38,124.26C48.41,124.26 48.44,124.26 48.47,124.26C48.5,124.26 48.53,124.26 48.56,124.26C48.59,124.26 48.62,124.26 48.65,124.26C48.68,124.26 48.71,124.26 48.74,124.26C48.77,124.26 48.8,124.26 48.83,124.26C48.86,124.26 48.89,124.26 48.92,124.26C48.95,124.26 48.98,124.26 49.01,124.26C49.04,124.26 49.07,124.26 49.1,124.26C49.13,124.26 49.16,124.26 49.19,124.26C49.22,124.26 49.25,124.26 49.28,124.26C49.31,124.26 49.34,124.26 49.37,124.26C49.4,124.26 49.43,124.26 49.46,124.26C49.49,124.26 49.52,124.26 49.55,124.26C49.58,124.26 49.61,124.26 49.64,124.26C49.67,124.26 49.7,124.26 49.73,124.26C49.76,124.26 49.79,124.26 49.82,124.26C49.85,124.26 49.88,124.26 49.91,124.26C49.94,124.26 49.97,124.26 50,124.26C50.03,124.26 50.06,124.26 50.09,124.26C50.12,124.26 50.15,124.26 50.18,124.26C50.21,124.26 50.24,124.26 50.27,124.26C50.3,124.26 50.33,124.24 50.36,124.26C50.4,124.29 50.42,124.45 50.45,124.45C50.48,124.45 50.51,124.3 50.54,124.22C50.57,124.14 50.6,124.05 50.63,123.97C50.66,123.88 50.69,123.8 50.72,123.71C50.75,123.62 50.78,123.54 50.81,123.45C50.84,123.37 50.87,123.28 50.9,123.2C50.93,123.11 50.96,123.03 50.99,122.94C51.02,122.85 51.05,122.77 51.08,122.68C51.11,122.6 51.14,122.51 51.17,122.43C51.2,122.34 51.23,122.26 51.26,122.17C51.29,122.09 51.32,122 51.35,121.92C51.38,121.83 51.41,121.75 51.44,121.66C51.47,121.57 51.5,121.49 51.53,121.4C51.56,121.32 51.59,121.23 51.62,121.15C51.65,121.06 51.68,120.98 51.71,120.89C51.74,120.8 51.77,120.72 51.8,120.63C51.83,120.55 51.86,120.46 51.89,120.38C51.92,120.29 51.95,120.21 51.98,120.12C52.01,120.03 52.04,119.95 52.07,119.86C52.1,119.77 52.13,119.69 52.16,119.6C52.19,119.52 52.22,119.43 52.25,119.35C52.28,119.26 52.31,119.18 52.34,119.09C52.37,119 52.4,118.92 52.43,118.83C52.46,118.74 52.49,118.66 52.52,118.57C52.55,118.49 52.58,118.4 52.61,118.32C52.64,118.23 52.67,118.15 52.7,118.06C52.73,117.97 52.76,117.89 52.79,117.8C52.82,117.71 52.85,117.63 52.88,117.54C52.91,117.45 52.94,117.37 52.97,117.28C53,117.2 53.03,117.11 53.06,117.03C53.09,116.94 53.12,116.86 53.15,116.77C53.18,116.68 53.21,116.6 53.24,116.51C53.27,116.42 53.3,116.34 53.33,116.25C53.36,116.16 53.39,116.08 53.42,115.99C53.45,115.9 53.48,115.82 53.51,115.73C53.54,115.65 53.57,115.56 53.6,115.48C53.63,115.39 53.66,115.31 53.69,115.22C53.72,115.13 53.75,115.05 53.78,114.96C53.81,114.87 53.84,114.79 53.87,114.7C53.9,114.61 53.93,114.53 53.96,114.44C53.99,114.35 54.02,114.27 54.05,114.18C54.08,114.09 54.11,114.01 54.14,113.92C54.17,113.83 54.2,113.75 54.23,113.66C54.26,113.57 54.29,113.49 54.32,113.4C54.35,113.31 54.38,113.23 54.41,113.14C54.44,113.05 54.47,112.97 54.5,112.88C54.53,112.79 54.56,112.71 54.59,112.62C54.62,112.53 54.65,112.45 54.68,112.36C54.71,112.27 54.74,112.19 54.77,112.1C54.8,112.01 54.83,111.93 54.86,111.84C54.89,111.75 54.92,111.67 54.95,111.58C54.98,111.49 55.02,111.41 55.05,111.32C55.08,111.23 55.11,111.15 55.14,111.06C55.17,110.97 55.2,110.89 55.23,110.8C55.26,110.71 55.29,110.63 55.32,110.54C55.35,110.45 55.38,110.37 55.41,110.28C55.44,110.19 55.47,110.11 55.5,110.02C55.53,109.93 55.56,109.85 55.59,109.76C55.62,109.67 55.65,109.59 55.68,109.5C55.71,109.41 55.74,109.33 55.77,109.24C55.8,109.15 55.83,109.07 55.86,108.98C55.89,108.89 55.92,108.81 55.95,108.72C55.98,108.63 56.01,108.55 56.04,108.46C56.07,108.37 56.1,108.29 56.13,108.2C56.16,108.11 56.19,108.03 56.22,107.94C56.25,107.85 56.28,107.77 56.31,107.68C56.34,107.59 56.37,107.5 56.4,107.41C56.43,107.32 56.46,107.24 56.49,107.15C56.52,107.06 56.55,106.98 56.58,106.89C56.61,106.8 56.64,106.72 56.67,106.63C56.7,106.54 56.73,106.46 56.76,106.37C56.79,106.28 56.82,106.2 56.85,106.11C56.88,106.02 56.91,105.94 56.94,105.85C56.97,105.76 57,105.67 57.03,105.58C57.06,105.49 57.09,105.41 57.12,105.32C57.15,105.23 57.18,105.15 57.21,105.06C57.24,104.97 57.27,104.89 57.3,104.8C57.33,104.71 57.36,104.63 57.39,104.54C57.42,104.45 57.45,104.36 57.48,104.27C57.51,104.18 57.54,104.1 57.57,104.01C57.6,103.92 57.63,103.84 57.66,103.75C57.69,103.66 57.72,103.58 57.75,103.49C57.78,103.4 57.81,103.31 57.84,103.22C57.87,103.13 57.9,103.05 57.93,102.96C57.96,102.87 57.99,102.79 58.02,102.7C58.05,102.61 58.08,102.53 58.11,102.44C58.14,102.35 58.17,102.26 58.2,102.17C58.23,102.08 58.26,102 58.29,101.91C58.32,101.82 58.35,101.74 58.38,101.65C58.41,101.56 58.44,101.48 58.47,101.39C58.5,101.3 58.53,101.21 58.56,101.12C58.59,101.03 58.62,100.95 58.65,100.86C58.68,100.77 58.71,100.69 58.74,100.6C58.77,100.51 58.8,100.42 58.83,100.33C58.86,100.24 58.89,100.16 58.92,100.07C58.95,99.98 58.98,99.9 59.01,99.81C59.04,99.72 59.07,99.63 59.1,99.54C59.13,99.45 59.16,99.37 59.19,99.28C59.22,99.19 59.25,99.11 59.28,99.02C59.31,98.93 59.34,98.84 59.37,98.75C59.4,98.66 59.43,98.58 59.46,98.49C59.49,98.4 59.52,98.32 59.55,98.23C59.58,98.14 59.61,98.05 59.64,97.96C59.67,97.87 59.7,97.79 59.73,97.7C59.76,97.61 59.79,97.52 59.82,97.43C59.85,97.34 59.88,97.26 59.91,97.17C59.94,97.08 59.97,97 60,96.91C60.03,96.82 60.06,96.73 60.09,96.64C60.12,96.55 60.15,96.47 60.18,96.38C60.21,96.29 60.24,96.2 60.27,96.11C60.3,96.02 60.33,95.94 60.36,95.85C60.39,95.76 60.42,95.68 60.45,95.59C60.48,95.5 60.51,95.41 60.54,95.32C60.57,95.23 60.6,95.15 60.63,95.06C60.66,94.97 60.69,94.88 60.72,94.79C60.75,94.7 60.78,94.62 60.81,94.53C60.84,94.44 60.87,94.35 60.9,94.26C60.93,94.17 60.96,94.09 60.99,94C61.02,93.91 61.05,93.82 61.08,93.73C61.11,93.64 61.14,93.56 61.17,93.47C61.2,93.38 61.23,93.29 61.26,93.2C61.29,93.11 61.32,93.03 61.35,92.94C61.38,92.85 61.41,92.76 61.44,92.67C61.47,92.58 61.5,92.5 61.53,92.41C61.56,92.32 61.59,92.23 61.62,92.14C61.65,92.05 61.68,91.97 61.71,91.88C61.74,91.79 61.77,91.7 61.8,91.61C61.83,91.52 61.86,91.44 61.89,91.35C61.92,91.26 61.95,91.17 61.98,91.08C62.01,90.99 62.04,90.91 62.07,90.82C62.1,90.73 62.13,90.64 62.16,90.55C62.19,90.46 62.22,90.38 62.25,90.29C62.28,90.2 62.31,90.11 62.34,90.02C62.37,89.93 62.4,89.85 62.43,89.76C62.46,89.67 62.49,89.58 62.52,89.49C62.55,89.4 62.58,89.31 62.61,89.22C62.64,89.13 62.67,89.05 62.7,88.96C62.73,88.87 62.76,88.78 62.79,88.69C62.82,88.6 62.85,88.52 62.88,88.43C62.91,88.34 62.94,88.25 62.97,88.16C63,88.07 63.03,87.98 63.06,87.89C63.09,87.8 63.12,87.72 63.15,87.63C63.18,87.54 63.21,87.45 63.24,87.36C63.27,87.27 63.3,87.19 63.33,87.1C63.36,87.01 63.39,86.92 63.42,86.83C63.45,86.74 63.48,86.65 63.51,86.56C63.54,86.47 63.57,86.39 63.6,86.3C63.63,86.21 63.66,86.12 63.69,86.03C63.72,85.94 63.75,85.85 63.78,85.76C63.81,85.67 63.84,85.59 63.87,85.5C63.9,85.41 63.93,85.32 63.96,85.23C63.99,85.14 64.02,85.05 64.05,84.96C64.08,84.87 64.11,84.79 64.14,84.7C64.17,84.61 64.2,84.52 64.23,84.43C64.26,84.34 64.29,84.25 64.32,84.16C64.35,84.07 64.38,83.99 64.41,83.9C64.44,83.81 64.47,83.72 64.5,83.63C64.53,83.54 64.56,83.45 64.59,83.36C64.62,83.27 64.65,83.19 64.68,83.1C64.71,83.01 64.74,82.92 64.77,82.83C64.8,82.74 64.83,82.65 64.86,82.56C64.89,82.47 64.92,82.39 64.95,82.3C64.98,82.21 65.02,82.12 65.05,82.03C65.08,81.94 65.11,81.85 65.14,81.76C65.17,81.67 65.2,81.58 65.23,81.49C65.26,81.4 65.29,81.32 65.32,81.23C65.35,81.14 65.38,81.05 65.41,80.96C65.44,80.87 65.47,80.78 65.5,80.69C65.53,80.6 65.56,80.51 65.59,80.42C65.62,80.33 65.65,80.25 65.68,80.16C65.71,80.07 65.74,79.98 65.77,79.89C65.8,79.8 65.83,79.71 65.86,79.62C65.89,79.53 65.92,79.44 65.95,79.35C65.98,79.26 66.01,79.18 66.04,79.09C66.07,79 66.1,78.91 66.13,78.82C66.16,78.73 66.19,78.64 66.22,78.55C66.25,78.46 66.28,78.37 66.31,78.28C66.34,78.19 66.37,78.1 66.4,78.01C66.43,77.92 66.46,77.84 66.49,77.75C66.52,77.66 66.55,77.57 66.58,77.48C66.61,77.39 66.64,77.3 66.67,77.21C66.7,77.12 66.73,77.03 66.76,76.94C66.79,76.85 66.82,76.76 66.85,76.67C66.88,76.58 66.91,76.5 66.94,76.41C66.97,76.32 67,76.23 67.03,76.14C67.06,76.05 67.09,75.96 67.12,75.87C67.15,75.78 67.18,75.69 67.21,75.6C67.24,75.51 67.27,75.42 67.3,75.33C67.33,75.24 67.36,75.15 67.39,75.06C67.42,74.97 67.45,74.88 67.48,74.79C67.51,74.7 67.54,74.62 67.57,74.53C67.6,74.44 67.63,74.35 67.66,74.26C67.69,74.17 67.72,74.08 67.75,73.99C67.78,73.9 67.81,73.81 67.84,73.72C67.87,73.63 67.9,73.54 67.93,73.45C67.96,73.36 67.99,73.27 68.02,73.18C68.05,73.09 68.08,73 68.11,72.91C68.14,72.82 68.17,72.73 68.2,72.64C68.23,72.55 68.26,72.47 68.29,72.38C68.32,72.29 68.35,72.2 68.38,72.11C68.41,72.02 68.44,71.93 68.47,71.84C68.5,71.75 68.53,71.66 68.56,71.57C68.59,71.48 68.62,71.39 68.65,71.3C68.68,71.21 68.71,71.12 68.74,71.03C68.77,70.94 68.8,70.85 68.83,70.76C68.86,70.67 68.89,70.58 68.92,70.49C68.95,70.4 68.98,70.31 69.01,70.22C69.04,70.13 69.07,70.04 69.1,69.95C69.13,69.86 69.16,69.77 69.19,69.68C69.22,69.59 69.25,69.5 69.28,69.41C69.31,69.32 69.34,69.24 69.37,69.15C69.4,69.06 69.43,68.97 69.46,68.88C69.49,68.79 69.52,68.7 69.55,68.61C69.58,68.52 69.61,68.43 69.64,68.34C69.67,68.25 69.7,68.16 69.73,68.07C69.76,67.98 69.79,67.89 69.82,67.8C69.85,67.71 69.88,67.62 69.91,67.53C69.94,67.44 69.97,67.35 70,67.26C70.03,67.17 70.06,67.08 70.09,66.99C70.12,66.9 70.15,66.81 70.18,66.72C70.21,66.63 70.24,66.54 70.27,66.45C70.3,66.36 70.33,66.27 70.36,66.18C70.39,66.09 70.42,66 70.45,65.91C70.48,65.82 70.51,65.73 70.54,65.64C70.57,65.55 70.6,65.46 70.63,65.37C70.66,65.28 70.69,65.19 70.72,65.1C70.75,65.01 70.78,64.92 70.81,64.83C70.84,64.74 70.87,64.65 70.9,64.56C70.93,64.47 70.96,64.38 70.99,64.29C71.02,64.2 71.05,64.11 71.08,64.02C71.11,63.93 71.14,63.84 71.17,63.75C71.2,63.66 71.23,63.57 71.26,63.48C71.29,63.39 71.32,63.3 71.35,63.21C71.38,63.12 71.41,63.03 71.44,62.94C71.47,62.85 71.5,62.76 71.53,62.67C71.56,62.58 71.59,62.49 71.62,62.4C71.65,62.31 71.68,62.21 71.71,62.12C71.74,62.03 71.77,61.94 71.8,61.85C71.83,61.76 71.86,61.67 71.89,61.58C71.92,61.49 71.95,61.4 71.98,61.31C72.01,61.22 72.04,61.13 72.07,61.04C72.1,60.95 72.13,60.86 72.16,60.77C72.19,60.68 72.22,60.59 72.25,60.5C72.28,60.41 72.31,60.32 72.34,60.23C72.37,60.14 72.4,60.05 72.43,59.96C72.46,59.87 72.49,59.78 72.52,59.69C72.55,59.6 72.58,59.51 72.61,59.42C72.64,59.33 72.67,59.24 72.7,59.15C72.73,59.06 72.76,58.97 72.79,58.88C72.82,58.79 72.85,58.69 72.88,58.6C72.91,58.51 72.94,58.42 72.97,58.33C73,58.24 73.03,58.15 73.06,58.06C73.09,57.97 73.12,57.88 73.15,57.79C73.18,57.7 73.21,57.61 73.24,57.52C73.27,57.43 73.3,57.34 73.33,57.25C73.36,57.16 73.39,57.07 73.42,56.98C73.45,56.89 73.48,56.8 73.51,56.71C73.54,56.62 73.57,56.52 73.6,56.43C73.63,56.34 73.66,56.25 73.69,56.16C73.72,56.07 73.75,55.98 73.78,55.89C73.81,55.8 73.84,55.71 73.87,55.62C73.9,55.53 73.93,55.44 73.96,55.35C73.99,55.26 74.02,55.17 74.05,55.08C74.08,54.99 74.11,54.9 74.14,54.81C74.17,54.72 74.2,54.62 74.23,54.53C74.26,54.44 74.29,54.35 74.32,54.26C74.35,54.17 74.38,54.08 74.41,53.99C74.44,53.9 74.47,53.81 74.5,53.72C74.53,53.63 74.56,53.54 74.59,53.45C74.62,53.36 74.65,53.27 74.68,53.18C74.71,53.09 74.74,52.99 74.77,52.9C74.8,52.81 74.83,52.72 74.86,52.63C74.89,52.54 74.92,52.45 74.95,52.36C74.98,52.27 75.02,52.18 75.05,52.09C75.08,52 75.11,51.91 75.14,51.82C75.17,51.73 75.2,51.63 75.23,51.54C75.26,51.45 75.29,51.36 75.32,51.27C75.35,51.18 75.38,51.09 75.41,51C75.44,50.91 75.47,50.82 75.5,50.73C75.53,50.64 75.56,50.55 75.59,50.46C75.62,50.37 75.65,50.27 75.68,50.18C75.71,50.09 75.74,50 75.77,49.91C75.8,49.82 75.83,49.73 75.86,49.64C75.89,49.55 75.92,49.46 75.95,49.37C75.98,49.28 76.01,49.19 76.04,49.1C76.07,49.01 76.1,48.91 76.13,48.82C76.16,48.73 76.19,48.64 76.22,48.55C76.25,48.46 76.28,48.37 76.31,48.28C76.34,48.19 76.37,48.1 76.4,48.01C76.43,47.92 76.46,47.82 76.49,47.73C76.52,47.64 76.55,47.55 76.58,47.46C76.61,47.37 76.64,47.28 76.67,47.19C76.7,47.1 76.73,47.01 76.76,46.92C76.79,46.83 76.82,46.73 76.85,46.64C76.88,46.55 76.91,46.46 76.94,46.37C76.97,46.28 77,46.19 77.03,46.1C77.06,46.01 77.09,45.92 77.12,45.83C77.15,45.74 77.18,45.64 77.21,45.55C77.24,45.46 77.27,45.37 77.3,45.28C77.33,45.19 77.36,45.1 77.39,45.01C77.42,44.92 77.45,44.82 77.48,44.73C77.51,44.64 77.54,44.55 77.57,44.46C77.6,44.37 77.63,44.28 77.66,44.19C77.69,44.1 77.72,44.01 77.75,43.92C77.78,43.83 77.81,43.73 77.84,43.64C77.87,43.55 77.9,43.46 77.93,43.37C77.96,43.28 77.99,43.19 78.02,43.1C78.05,43.01 78.08,42.91 78.11,42.82C78.14,42.73 78.17,42.64 78.2,42.55C78.23,42.46 78.26,42.37 78.29,42.28C78.32,42.19 78.35,42.1 78.38,42.01C78.41,41.92 78.44,41.82 78.47,41.73C78.5,41.64 78.53,41.55 78.56,41.46C78.59,41.37 78.62,41.28 78.65,41.19C78.68,41.1 78.71,41 78.74,40.91C78.77,40.82 78.8,40.73 78.83,40.64C78.86,40.55 78.89,40.46 78.92,40.37C78.95,40.28 78.98,40.18 79.01,40.09C79.04,40 79.07,39.91 79.1,39.82C79.13,39.73 79.16,39.64 79.19,39.55C79.22,39.46 79.25,39.36 79.28,39.27C79.31,39.18 79.34,39.09 79.37,39C79.4,38.91 79.43,38.82 79.46,38.73C79.49,38.64 79.52,38.54 79.55,38.45C79.58,38.36 79.61,38.27 79.64,38.18C79.67,38.09 79.7,38 79.73,37.91C79.76,37.82 79.79,37.72 79.82,37.63C79.85,37.54 79.88,37.45 79.91,37.36C79.94,37.27 79.97,37.17 80,37.08C80.03,36.99 80.06,36.9 80.09,36.81C80.12,36.72 80.15,36.63 80.18,36.54C80.21,36.45 80.24,36.35 80.27,36.26C80.3,36.17 80.33,36.08 80.36,35.99C80.39,35.9 80.42,35.81 80.45,35.72C80.48,35.63 80.51,35.53 80.54,35.44C80.57,35.35 80.6,35.26 80.63,35.17C80.66,35.08 80.69,34.98 80.72,34.89C80.75,34.8 80.78,34.71 80.81,34.62C80.84,34.53 80.87,34.44 80.9,34.35C80.93,34.26 80.96,34.16 80.99,34.07C81.02,33.98 81.05,33.89 81.08,33.8C81.11,33.71 81.14,33.61 81.17,33.52C81.2,33.43 81.23,33.34 81.26,33.25C81.29,33.16 81.32,33.07 81.35,32.98C81.38,32.89 81.41,32.79 81.44,32.7C81.47,32.61 81.5,32.52 81.53,32.43C81.56,32.34 81.59,32.24 81.62,32.15C81.65,32.06 81.68,31.97 81.71,31.88C81.74,31.79 81.77,31.7 81.8,31.61C81.83,31.52 81.86,31.42 81.89,31.33C81.92,31.24 81.95,31.15 81.98,31.06C82.01,30.97 82.04,30.87 82.07,30.78C82.1,30.69 82.13,30.6 82.16,30.51C82.19,30.42 82.22,30.32 82.25,30.23C82.28,30.14 82.31,30.05 82.34,29.96C82.37,29.87 82.4,29.78 82.43,29.69C82.46,29.6 82.49,29.5 82.52,29.41C82.55,29.32 82.58,29.23 82.61,29.14C82.64,29.05 82.67,28.95 82.7,28.86C82.73,28.77 82.76,28.68 82.79,28.59C82.82,28.5 82.85,28.4 82.88,28.31C82.91,28.22 82.94,28.13 82.97,28.04C83,27.95 83.03,27.85 83.06,27.76C83.09,27.67 83.12,27.58 83.15,27.49C83.18,27.4 83.21,27.31 83.24,27.22C83.27,27.13 83.3,27.03 83.33,26.94C83.36,26.85 83.39,26.76 83.42,26.67C83.45,26.58 83.48,26.48 83.51,26.39C83.54,26.3 83.57,26.21 83.6,26.12C83.63,26.03 83.66,25.93 83.69,25.84C83.72,25.75 83.75,25.66 83.78,25.57C83.81,25.48 83.84,25.38 83.87,25.29C83.9,25.2 83.93,25.11 83.96,25.02C83.99,24.93 84.02,24.83 84.05,24.74C84.08,24.65 84.11,24.56 84.14,24.47C84.17,24.38 84.2,24.28 84.23,24.19C84.26,24.1 84.29,24.01 84.32,23.92C84.35,23.83 84.38,23.73 84.41,23.64C84.44,23.55 84.47,23.46 84.5,23.37C84.53,23.28 84.56,23.18 84.59,23.09C84.62,23 84.65,22.91 84.68,22.82C84.71,22.73 84.74,22.63 84.77,22.54C84.8,22.45 84.83,22.36 84.86,22.27C84.89,22.18 84.92,22.08 84.95,21.99C84.98,21.9 85.02,21.81 85.05,21.72C85.08,21.63 85.11,21.53 85.14,21.44C85.17,21.35 85.2,21.26 85.23,21.17C85.26,21.08 85.29,20.98 85.32,20.89C85.35,20.8 85.38,20.71 85.41,20.62C85.44,20.53 85.47,20.43 85.5,20.34C85.53,20.25 85.56,20.16 85.59,20.07C85.62,19.98 85.65,19.88 85.68,19.79C85.71,19.7 85.74,19.61 85.77,19.52C85.8,19.43 85.83,19.33 85.86,19.24C85.89,19.15 85.92,19.05 85.95,18.96C85.98,18.87 86.01,18.78 86.04,18.69C86.07,18.6 86.1,18.5 86.13,18.41C86.16,18.32 86.19,18.23 86.22,18.14C86.25,18.05 86.28,17.95 86.31,17.86C86.34,17.77 86.37,17.68 86.4,17.59C86.43,17.5 86.46,17.4 86.49,17.31C86.52,17.22 86.55,17.13 86.58,17.04C86.61,16.95 86.64,16.85 86.67,16.76C86.7,16.67 86.73,16.58 86.76,16.49C86.79,16.4 86.82,16.3 86.85,16.21C86.88,16.12 86.91,16.02 86.94,15.93C86.97,15.84 87,15.75 87.03,15.66C87.06,15.57 87.09,15.47 87.12,15.38C87.15,15.29 87.18,15.2 87.21,15.11C87.24,15.02 87.27,14.92 87.3,14.83C87.33,14.74 87.36,14.65 87.39,14.56C87.42,14.47 87.45,14.37 87.48,14.28C87.51,14.19 87.54,14.09 87.57,14C87.6,13.91 87.63,13.82 87.66,13.73C87.69,13.64 87.72,13.54 87.75,13.45C87.78,13.36 87.81,13.27 87.84,13.18C87.87,13.09 87.9,12.99 87.93,12.9C87.96,12.81 87.99,12.72 88.02,12.63C88.05,12.54 88.08,12.44 88.11,12.35C88.14,12.26 88.17,12.16 88.2,12.07C88.23,11.98 88.26,11.89 88.29,11.8C88.32,11.71 88.35,11.61 88.38,11.52C88.41,11.43 88.44,11.34 88.47,11.25C88.5,11.16 88.53,11.06 88.56,10.97C88.59,10.88 88.62,10.78 88.65,10.69C88.68,10.6 88.71,10.51 88.74,10.42C88.77,10.33 88.8,10.23 88.83,10.14C88.86,10.05 88.89,9.95 88.92,9.86C88.95,9.77 88.98,9.68 89.01,9.59C89.04,9.5 89.07,9.4 89.1,9.31C89.13,9.22 89.16,9.13 89.19,9.04C89.22,8.95 89.25,8.85 89.28,8.76C89.31,8.67 89.34,8.57 89.37,8.48C89.4,8.39 89.43,8.3 89.46,8.21C89.49,8.12 89.52,8.02 89.55,7.93C89.58,7.84 89.61,7.75 89.64,7.66C89.67,7.57 89.7,7.47 89.73,7.38C89.76,7.29 89.79,7.19 89.82,7.1C89.85,7.01 89.88,6.92 89.91,6.83Q89.94,6.74 90,6.55" style="vector-effect: none; fill: none; stroke: rgb(217, 95, 2); stroke-opacity: 1; stroke-width: 1.5px; opacity: 1;"/></g><g class="points"/><g class="text"/></g></g></g></g><path class="xlines-above crisp" d="M41.5,161.25H132.5M41.5,29.75H132.5" style="fill: none; stroke-width: 0.5px; stroke: rgb(0, 0, 0); stroke-opacity: 1;"/><path class="ylines-above crisp" d="M41.75,30V161M132.25,30V161" style="fill: none; stroke-width: 0.5px; stroke: rgb(0, 0, 0); stroke-opacity: 1;"/><g class="overlines-above"/><g class="xaxislayer-above"><path class="xtick ticks crisp" d="M0,161v-5" transform="translate(72,0)" style="stroke: rgb(68, 68, 68); stroke-opacity: 1; stroke-width: 1px;"/><path class="xtick ticks crisp" d="M0,161v-5" transform="translate(102,0)" style="stroke: rgb(68, 68, 68); stroke-opacity: 1; stroke-width: 1px;"/><g class="xtick"><text text-anchor="middle" x="0" y="174.7" transform="translate(42,0)" style="font-family: 'Open Sans', verdana, arial, sans-serif; font-size: 11px; fill: rgb(0, 0, 0); fill-opacity: 1; white-space: pre; opacity: 1;">0</text></g><g class="xtick"><text text-anchor="middle" x="0" y="174.7" style="font-family: 'Open Sans', verdana, arial, sans-serif; font-size: 11px; fill: rgb(0, 0, 0); fill-opacity: 1; white-space: pre; opacity: 1;" transform="translate(72,0)">0.1</text></g><g class="xtick"><text text-anchor="middle" x="0" y="174.7" style="font-family: 'Open Sans', verdana, arial, sans-serif; font-size: 11px; fill: rgb(0, 0, 0); fill-opacity: 1; white-space: pre; opacity: 1;" transform="translate(102,0)">0.2</text></g><g class="xtick"><text text-anchor="middle" x="0" y="174.7" style="font-family: 'Open Sans', verdana, arial, sans-serif; font-size: 11px; fill: rgb(0, 0, 0); fill-opacity: 1; white-space: pre; opacity: 1;" transform="translate(132,0)">0.3</text></g></g><g class="yaxislayer-above"><path class="ytick ticks crisp" d="M42,0h5" transform="translate(0,154.26)" style="stroke: rgb(68, 68, 68); stroke-opacity: 1; stroke-width: 1px;"/><path class="ytick ticks crisp" d="M42,0h5" transform="translate(0,106.39)" style="stroke: rgb(68, 68, 68); stroke-opacity: 1; stroke-width: 1px;"/><path class="ytick ticks crisp" d="M42,0h5" transform="translate(0,58.519999999999996)" style="stroke: rgb(68, 68, 68); stroke-opacity: 1; stroke-width: 1px;"/><g class="ytick"><text text-anchor="end" x="39.3" y="3.8499999999999996" transform="translate(0,154.26)" style="font-family: 'Open Sans', verdana, arial, sans-serif; font-size: 11px; fill: rgb(0, 0, 0); fill-opacity: 1; white-space: pre; opacity: 1;">0</text></g><g class="ytick"><text text-anchor="end" x="39.3" y="3.8499999999999996" style="font-family: 'Open Sans', verdana, arial, sans-serif; font-size: 11px; fill: rgb(0, 0, 0); fill-opacity: 1; white-space: pre; opacity: 1;" transform="translate(0,106.39)">0.05</text></g><g class="ytick"><text text-anchor="end" x="39.3" y="3.8499999999999996" style="font-family: 'Open Sans', verdana, arial, sans-serif; font-size: 11px; fill: rgb(0, 0, 0); fill-opacity: 1; white-space: pre; opacity: 1;" transform="translate(0,58.519999999999996)">0.1</text></g></g><g class="overaxes-above"/></g></g><g class="polarlayer"/><g class="smithlayer"/><g class="ternarylayer"/><g class="geolayer"/><g class="funnelarealayer"/><g class="pielayer"/><g class="iciclelayer"/><g class="treemaplayer"/><g class="sunburstlayer"/><g class="glimages"/><defs id="topdefs-9aff14"><g class="clips"/></defs><g class="layer-above"><g class="imagelayer"/><g class="shapelayer"/></g><g class="infolayer"><g class="g-gtitle"><text class="gtitle" x="7.5" y="15" text-anchor="start" dy="0em" style="opacity: 1; font-family: 'Open Sans', verdana, arial, sans-serif; font-size: 11px; fill: rgb(0, 0, 0); fill-opacity: 1; white-space: pre;"><tspan class="line" dy="0em" x="7.5" y="15">Missing growth rate</tspan><tspan class="line" dy="1.3em" x="7.5" y="15">for coexistence</tspan></text></g><g class="g-xtitle" transform="translate(0,4.550000000000011)"><text class="xtitle" x="87" y="185.153125" text-anchor="middle" style="opacity: 1; font-family: 'Open Sans', verdana, arial, sans-serif; font-size: 11px; fill: rgb(0, 0, 0); fill-opacity: 1; white-space: pre;">Dilution rate [1/h]</text></g><g class="g-ytitle"><text class="ytitle" transform="rotate(-90,13.899999999999999,95.5)" x="13.899999999999999" y="95.5" text-anchor="middle" style="opacity: 1; font-family: 'Open Sans', verdana, arial, sans-serif; font-size: 11px; fill: rgb(0, 0, 0); fill-opacity: 1; white-space: pre;">J 1/h</text></g></g></svg>