<svg class="main-svg" xmlns="http://www.w3.org/2000/svg" xmlns:xlink="http://www.w3.org/1999/xlink" width="150" height="195" style="" viewBox="0 0 150 195"><rect x="0" y="0" width="150" height="195" style="fill: rgb(255, 255, 255); fill-opacity: 1;"/><defs id="defs-68ac49"><g class="clips"><clipPath id="clip68ac49xyplot" class="plotclip"><rect width="96" height="141"/></clipPath><clipPath class="axesclip" id="clip68ac49x"><rect x="36" y="0" width="96" height="195"/></clipPath><clipPath class="axesclip" id="clip68ac49y"><rect x="0" y="20" width="150" height="141"/></clipPath><clipPath class="axesclip" id="clip68ac49xy"><rect x="36" y="20" width="96" height="141"/></clipPath></g><g class="gradients"/><g class="patterns"/></defs><g class="bglayer"/><g class="layer-below"><g class="imagelayer"/><g class="shapelayer"><g class="shape-group" data-index="0" clip-path="url(#clip68ac49x)"><path data-index="0" fill-rule="evenodd" d="M36,161H89.89V20H36Z" style="opacity: 0.3; stroke: rgb(0, 0, 0); stroke-opacity: 0; fill: rgb(217, 95, 2); fill-opacity: 1; stroke-width: 0px;"/></g><g class="shape-group" data-index="1" clip-path="url(#clip68ac49x)"><path data-index="1" fill-rule="evenodd" d="M89.89,161H132V20H89.89Z" style="opacity: 0.3; stroke: rgb(0, 0, 0); stroke-opacity: 0; fill: rgb(117, 112, 179); fill-opacity: 1; stroke-width: 0px;"/></g></g></g><g class="cartesianlayer"><g class="subplot xy"><g class="layer-subplot"><g class="shapelayer"/><g class="imagelayer"/></g><g class="minor-gridlayer"><g class="x"/><g class="y"/></g><g class="gridlayer"><g class="x"/><g class="y"/></g><g class="zerolinelayer"/><g class="layer-between"><g class="shapelayer"/><g class="imagelayer"/></g><path class="xlines-below"/><path class="ylines-below"/><g class="overlines-below"/><g class="xaxislayer-below"/><g class="yaxislayer-below"/><g class="overaxes-below"/><g class="overplot"><g class="xy" transform="translate(36,20)" clip-path="url(#clip68ac49xyplot)"><g class="scatterlayer mlayer"><g class="trace scatter tracea1c28a" style="stroke-miterlimit: 2; opacity: 1;"><g class="fills"/><g class="errorbars"/><g class="lines"><path class="js-line" d="M0,133.95Q0.07,133.95 0.1,133.95C0.13,133.95 0.16,133.94 0.19,133.94C0.22,133.94 0.26,133.94 0.29,133.94C0.32,133.94 0.35,133.94 0.38,133.94C0.41,133.94 0.45,133.93 0.48,133.93C0.51,133.93 0.55,133.93 0.58,133.93C0.61,133.93 0.64,133.93 0.67,133.93C0.7,133.93 0.74,133.92 0.77,133.92C0.8,133.92 0.83,133.92 0.86,133.92C0.89,133.92 0.93,133.91 0.96,133.91C0.99,133.91 1.03,133.91 1.06,133.91C1.09,133.91 1.12,133.91 1.15,133.91C1.18,133.91 1.22,133.9 1.25,133.9C1.28,133.9 1.32,133.9 1.35,133.9C1.38,133.9 1.41,133.9 1.44,133.9C1.47,133.9 1.51,133.89 1.54,133.89C1.57,133.89 1.6,133.89 1.63,133.89C1.66,133.89 1.7,133.88 1.73,133.88C1.76,133.88 1.8,133.88 1.83,133.88C1.86,133.88 1.89,133.88 1.92,133.88C1.95,133.88 1.99,133.87 2.02,133.87C2.05,133.87 2.08,133.87 2.11,133.87C2.14,133.87 2.18,133.87 2.21,133.87C2.24,133.87 2.28,133.86 2.31,133.86C2.34,133.86 2.37,133.86 2.4,133.86C2.43,133.86 2.47,133.85 2.5,133.85C2.53,133.85 2.56,133.85 2.59,133.85C2.62,133.85 2.66,133.85 2.69,133.85C2.72,133.85 2.76,133.84 2.79,133.84C2.82,133.84 2.85,133.84 2.88,133.84C2.91,133.84 2.95,133.83 2.98,133.83C3.01,133.83 3.05,133.83 3.08,133.83C3.11,133.83 3.14,133.83 3.17,133.83C3.2,133.83 3.24,133.82 3.27,133.82C3.3,133.82 3.33,133.82 3.36,133.82C3.39,133.82 3.43,133.81 3.46,133.81C3.49,133.81 3.53,133.81 3.56,133.81C3.59,133.81 3.62,133.81 3.65,133.81C3.68,133.81 3.72,133.8 3.75,133.8C3.78,133.8 3.81,133.8 3.84,133.8C3.87,133.8 3.91,133.79 3.94,133.79C3.97,133.79 4.01,133.79 4.04,133.79C4.07,133.79 4.1,133.79 4.13,133.79C4.16,133.79 4.2,133.78 4.23,133.78C4.26,133.78 4.29,133.78 4.32,133.78C4.35,133.78 4.39,133.77 4.42,133.77C4.45,133.77 4.49,133.77 4.52,133.77C4.55,133.77 4.58,133.77 4.61,133.77C4.64,133.77 4.68,133.76 4.71,133.76C4.74,133.76 4.77,133.76 4.8,133.76C4.83,133.76 4.87,133.75 4.9,133.75C4.93,133.75 4.97,133.75 5,133.75C5.03,133.75 5.06,133.74 5.09,133.74C5.12,133.74 5.16,133.74 5.19,133.74C5.22,133.74 5.26,133.74 5.29,133.74C5.32,133.74 5.35,133.73 5.38,133.73C5.41,133.73 5.45,133.73 5.48,133.73C5.51,133.73 5.54,133.72 5.57,133.72C5.6,133.72 5.64,133.72 5.67,133.72C5.7,133.72 5.74,133.71 5.77,133.71C5.8,133.71 5.83,133.71 5.86,133.71C5.89,133.71 5.93,133.71 5.96,133.71C5.99,133.71 6.02,133.7 6.05,133.7C6.08,133.7 6.12,133.7 6.15,133.7C6.18,133.7 6.22,133.69 6.25,133.69C6.28,133.69 6.31,133.69 6.34,133.69C6.37,133.69 6.41,133.68 6.44,133.68C6.47,133.68 6.5,133.68 6.53,133.68C6.56,133.68 6.6,133.67 6.63,133.67C6.66,133.67 6.7,133.67 6.73,133.67C6.76,133.67 6.79,133.67 6.82,133.67C6.85,133.67 6.89,133.66 6.92,133.66C6.95,133.66 6.99,133.66 7.02,133.66C7.05,133.66 7.08,133.65 7.11,133.65C7.14,133.65 7.18,133.65 7.21,133.65C7.24,133.65 7.27,133.64 7.3,133.64C7.33,133.64 7.37,133.64 7.4,133.64C7.43,133.64 7.47,133.63 7.5,133.63C7.53,133.63 7.56,133.63 7.59,133.63C7.62,133.63 7.66,133.62 7.69,133.62C7.72,133.62 7.75,133.62 7.78,133.62C7.81,133.62 7.85,133.61 7.88,133.61C7.91,133.61 7.95,133.61 7.98,133.61C8.01,133.61 8.04,133.61 8.07,133.61C8.1,133.61 8.14,133.6 8.17,133.6C8.2,133.6 8.23,133.6 8.26,133.6C8.29,133.6 8.33,133.59 8.36,133.59C8.39,133.59 8.43,133.59 8.46,133.59C8.49,133.59 8.52,133.58 8.55,133.58C8.58,133.58 8.62,133.58 8.65,133.58C8.68,133.58 8.71,133.57 8.74,133.57C8.77,133.57 8.81,133.57 8.84,133.57C8.87,133.57 8.91,133.56 8.94,133.56C8.97,133.56 9,133.56 9.03,133.56C9.06,133.56 9.1,133.55 9.13,133.55C9.16,133.55 9.2,133.55 9.23,133.55C9.26,133.55 9.29,133.54 9.32,133.54C9.35,133.54 9.39,133.54 9.42,133.54C9.45,133.54 9.48,133.53 9.51,133.53C9.54,133.53 9.58,133.53 9.61,133.53C9.64,133.53 9.68,133.52 9.71,133.52C9.74,133.52 9.77,133.52 9.8,133.52C9.83,133.52 9.87,133.51 9.9,133.51C9.93,133.51 9.96,133.51 9.99,133.51C10.02,133.51 10.06,133.5 10.09,133.5C10.12,133.5 10.16,133.5 10.19,133.5C10.22,133.5 10.25,133.49 10.28,133.49C10.31,133.49 10.35,133.49 10.38,133.49C10.41,133.49 10.44,133.48 10.47,133.48C10.5,133.48 10.54,133.47 10.57,133.47C10.6,133.47 10.64,133.47 10.67,133.47C10.7,133.47 10.73,133.46 10.76,133.46C10.79,133.46 10.83,133.46 10.86,133.46C10.89,133.46 10.92,133.45 10.95,133.45C10.98,133.45 11.02,133.45 11.05,133.45C11.08,133.45 11.12,133.44 11.15,133.44C11.18,133.44 11.21,133.44 11.24,133.44C11.27,133.44 11.31,133.43 11.34,133.43C11.37,133.43 11.41,133.43 11.44,133.43C11.47,133.43 11.5,133.42 11.53,133.42C11.56,133.42 11.6,133.42 11.63,133.42C11.66,133.42 11.69,133.41 11.72,133.41C11.75,133.41 11.79,133.4 11.82,133.4C11.85,133.4 11.89,133.4 11.92,133.4C11.95,133.4 11.98,133.39 12.01,133.39C12.04,133.39 12.08,133.39 12.11,133.39C12.14,133.39 12.17,133.38 12.2,133.38C12.23,133.38 12.27,133.38 12.3,133.38C12.33,133.38 12.37,133.37 12.4,133.37C12.43,133.37 12.46,133.36 12.49,133.36C12.52,133.36 12.56,133.36 12.59,133.36C12.62,133.36 12.65,133.35 12.68,133.35C12.71,133.35 12.75,133.35 12.78,133.35C12.81,133.35 12.85,133.34 12.88,133.34C12.91,133.34 12.94,133.34 12.97,133.34C13,133.34 13.04,133.33 13.07,133.33C13.1,133.33 13.14,133.32 13.17,133.32C13.2,133.32 13.23,133.32 13.26,133.32C13.29,133.32 13.33,133.31 13.36,133.31C13.39,133.31 13.42,133.31 13.45,133.31C13.48,133.31 13.52,133.3 13.55,133.3C13.58,133.3 13.62,133.29 13.65,133.29C13.68,133.29 13.71,133.29 13.74,133.29C13.77,133.29 13.81,133.28 13.84,133.28C13.87,133.28 13.9,133.28 13.93,133.28C13.96,133.28 14,133.27 14.03,133.27C14.06,133.27 14.1,133.26 14.13,133.26C14.16,133.26 14.19,133.26 14.22,133.26C14.25,133.26 14.29,133.25 14.32,133.25C14.35,133.25 14.38,133.24 14.41,133.24C14.44,133.24 14.48,133.24 14.51,133.24C14.54,133.24 14.58,133.23 14.61,133.23C14.64,133.23 14.67,133.23 14.7,133.23C14.73,133.23 14.77,133.22 14.8,133.22C14.83,133.22 14.86,133.21 14.89,133.21C14.92,133.21 14.96,133.21 14.99,133.21C15.02,133.21 15.06,133.2 15.09,133.2C15.12,133.2 15.15,133.19 15.18,133.19C15.21,133.19 15.25,133.19 15.28,133.19C15.31,133.19 15.35,133.18 15.38,133.18C15.41,133.18 15.44,133.17 15.47,133.17C15.5,133.17 15.54,133.17 15.57,133.17C15.6,133.17 15.63,133.16 15.66,133.16C15.69,133.16 15.73,133.15 15.76,133.15C15.79,133.15 15.83,133.15 15.86,133.15C15.89,133.15 15.92,133.14 15.95,133.14C15.98,133.14 16.02,133.13 16.05,133.13C16.08,133.13 16.11,133.13 16.14,133.13C16.17,133.13 16.21,133.12 16.24,133.12C16.27,133.12 16.31,133.11 16.34,133.11C16.37,133.11 16.4,133.11 16.43,133.11C16.46,133.11 16.5,133.1 16.53,133.1C16.56,133.1 16.59,133.09 16.62,133.09C16.65,133.09 16.69,133.08 16.72,133.08C16.75,133.08 16.79,133.08 16.82,133.08C16.85,133.08 16.88,133.07 16.91,133.07C16.94,133.07 16.98,133.06 17.01,133.06C17.04,133.06 17.08,133.06 17.11,133.06C17.14,133.06 17.17,133.05 17.2,133.05C17.23,133.05 17.27,133.04 17.3,133.04C17.33,133.04 17.36,133.04 17.39,133.04C17.42,133.04 17.46,133.03 17.49,133.03C17.52,133.03 17.56,133.02 17.59,133.02C17.62,133.02 17.65,133.01 17.68,133.01C17.71,133.01 17.75,133.01 17.78,133.01C17.81,133.01 17.84,133 17.87,133C17.9,133 17.94,132.99 17.97,132.99C18,132.99 18.04,132.98 18.07,132.98C18.1,132.98 18.13,132.98 18.16,132.98C18.19,132.98 18.23,132.97 18.26,132.97C18.29,132.97 18.32,132.96 18.35,132.96C18.38,132.96 18.42,132.95 18.45,132.95C18.48,132.95 18.52,132.95 18.55,132.95C18.58,132.95 18.61,132.94 18.64,132.94C18.67,132.94 18.71,132.93 18.74,132.93C18.77,132.93 18.8,132.92 18.83,132.92C18.86,132.92 18.9,132.91 18.93,132.91C18.96,132.91 19,132.91 19.03,132.91C19.06,132.91 19.09,132.9 19.12,132.9C19.15,132.9 19.19,132.89 19.22,132.89C19.25,132.89 19.29,132.88 19.32,132.88C19.35,132.88 19.38,132.87 19.41,132.87C19.44,132.87 19.48,132.87 19.51,132.87C19.54,132.87 19.57,132.86 19.6,132.86C19.63,132.86 19.67,132.85 19.7,132.85C19.73,132.85 19.77,132.84 19.8,132.84C19.83,132.84 19.86,132.83 19.89,132.83C19.92,132.83 19.96,132.83 19.99,132.83C20.02,132.83 20.05,132.82 20.08,132.82C20.11,132.82 20.15,132.81 20.18,132.81C20.21,132.81 20.25,132.8 20.28,132.8C20.31,132.8 20.34,132.79 20.37,132.79C20.4,132.79 20.44,132.78 20.47,132.78C20.5,132.78 20.53,132.78 20.56,132.78C20.59,132.78 20.63,132.77 20.66,132.77C20.69,132.77 20.73,132.76 20.76,132.76C20.79,132.76 20.82,132.75 20.85,132.75C20.88,132.75 20.92,132.74 20.95,132.74C20.98,132.74 21.02,132.73 21.05,132.73C21.08,132.73 21.11,132.72 21.14,132.72C21.17,132.72 21.21,132.71 21.24,132.71C21.27,132.71 21.3,132.71 21.33,132.71C21.36,132.71 21.4,132.7 21.43,132.7C21.46,132.7 21.5,132.69 21.53,132.69C21.56,132.69 21.59,132.68 21.62,132.68C21.65,132.68 21.69,132.67 21.72,132.67C21.75,132.67 21.78,132.66 21.81,132.66C21.84,132.66 21.88,132.65 21.91,132.65C21.94,132.65 21.98,132.64 22.01,132.64C22.04,132.64 22.07,132.63 22.1,132.63C22.13,132.63 22.17,132.62 22.2,132.62C22.23,132.62 22.26,132.61 22.29,132.61C22.32,132.61 22.36,132.61 22.39,132.61C22.42,132.61 22.46,132.6 22.49,132.6C22.52,132.6 22.55,132.59 22.58,132.59C22.61,132.59 22.65,132.58 22.68,132.58C22.71,132.58 22.74,132.57 22.77,132.57C22.8,132.57 22.84,132.56 22.87,132.56C22.9,132.56 22.94,132.55 22.97,132.55C23,132.55 23.03,132.54 23.06,132.54C23.09,132.54 23.13,132.53 23.16,132.53C23.19,132.53 23.23,132.52 23.26,132.52C23.29,132.52 23.32,132.51 23.35,132.51C23.38,132.51 23.42,132.5 23.45,132.5C23.48,132.5 23.51,132.49 23.54,132.49C23.57,132.49 23.61,132.48 23.64,132.48C23.67,132.48 23.71,132.47 23.74,132.47C23.77,132.47 23.8,132.46 23.83,132.46C23.86,132.46 23.9,132.45 23.93,132.45C23.96,132.45 23.99,132.44 24.02,132.44C24.05,132.44 24.09,132.43 24.12,132.43C24.15,132.43 24.19,132.42 24.22,132.42C24.25,132.42 24.28,132.41 24.31,132.41C24.34,132.4 24.38,132.4 24.41,132.39C24.44,132.39 24.47,132.38 24.5,132.38C24.53,132.38 24.57,132.37 24.6,132.37C24.63,132.37 24.67,132.36 24.7,132.36C24.73,132.36 24.76,132.35 24.79,132.35C24.82,132.35 24.86,132.34 24.89,132.34C24.92,132.34 24.95,132.33 24.98,132.33C25.01,132.33 25.05,132.32 25.08,132.32C25.11,132.32 25.15,132.31 25.18,132.31C25.21,132.31 25.24,132.3 25.27,132.3C25.3,132.3 25.34,132.29 25.37,132.29C25.4,132.28 25.44,132.28 25.47,132.27C25.5,132.27 25.53,132.26 25.56,132.26C25.59,132.26 25.63,132.25 25.66,132.25C25.69,132.25 25.72,132.24 25.75,132.24C25.78,132.24 25.82,132.23 25.85,132.23C25.88,132.23 25.92,132.23 25.95,132.22C25.98,132.22 26.01,132.2 26.04,132.2C26.07,132.19 26.11,132.19 26.14,132.19C26.17,132.19 26.2,132.18 26.23,132.18C26.26,132.18 26.3,132.17 26.33,132.17C26.36,132.17 26.4,132.17 26.43,132.16C26.46,132.16 26.49,132.14 26.52,132.14C26.55,132.13 26.59,132.13 26.62,132.13C26.65,132.13 26.68,132.12 26.71,132.12C26.74,132.12 26.78,132.11 26.81,132.11C26.84,132.11 26.88,132.11 26.91,132.1C26.94,132.1 26.97,132.08 27,132.08C27.03,132.07 27.07,132.07 27.1,132.07C27.13,132.07 27.17,132.06 27.2,132.06C27.23,132.06 27.26,132.05 27.29,132.05C27.32,132.04 27.36,132.04 27.39,132.03C27.42,132.03 27.45,132.02 27.48,132.02C27.51,132.02 27.55,132.01 27.58,132.01C27.61,132 27.65,132 27.68,131.99C27.71,131.99 27.74,131.98 27.77,131.98C27.8,131.98 27.84,131.98 27.87,131.97C27.9,131.97 27.93,131.95 27.96,131.95C27.99,131.94 28.03,131.94 28.06,131.94C28.09,131.94 28.13,131.94 28.16,131.93C28.19,131.93 28.22,131.91 28.25,131.91C28.28,131.9 28.32,131.9 28.35,131.9C28.38,131.9 28.41,131.89 28.44,131.89C28.47,131.88 28.51,131.88 28.54,131.87C28.57,131.87 28.61,131.87 28.64,131.86C28.67,131.86 28.7,131.84 28.73,131.84C28.76,131.83 28.8,131.83 28.83,131.83C28.86,131.83 28.89,131.82 28.92,131.82C28.95,131.81 28.99,131.81 29.02,131.8C29.05,131.8 29.09,131.8 29.12,131.79C29.15,131.79 29.18,131.77 29.21,131.77C29.24,131.76 29.28,131.76 29.31,131.76C29.34,131.75 29.38,131.75 29.41,131.74C29.44,131.74 29.47,131.73 29.5,131.73C29.53,131.72 29.57,131.72 29.6,131.71C29.63,131.71 29.66,131.7 29.69,131.7C29.72,131.69 29.76,131.69 29.79,131.68C29.82,131.68 29.86,131.68 29.89,131.67C29.92,131.67 29.95,131.65 29.98,131.65C30.01,131.64 30.05,131.65 30.08,131.64C30.11,131.64 30.14,131.62 30.17,131.62C30.2,131.61 30.24,131.61 30.27,131.61C30.3,131.6 30.34,131.6 30.37,131.59C30.4,131.59 30.43,131.58 30.46,131.58C30.49,131.57 30.53,131.57 30.56,131.56C30.59,131.55 30.62,131.54 30.65,131.54C30.68,131.53 30.72,131.53 30.75,131.53C30.78,131.52 30.82,131.52 30.85,131.51C30.88,131.5 30.91,131.49 30.94,131.49C30.97,131.48 31.01,131.48 31.04,131.48C31.07,131.47 31.11,131.47 31.14,131.46C31.17,131.45 31.2,131.44 31.23,131.44C31.26,131.43 31.3,131.44 31.33,131.43C31.36,131.43 31.39,131.42 31.42,131.41C31.45,131.4 31.49,131.4 31.52,131.39C31.55,131.39 31.59,131.39 31.62,131.38C31.65,131.38 31.68,131.37 31.71,131.36C31.74,131.35 31.78,131.35 31.81,131.34C31.84,131.33 31.87,131.32 31.9,131.32C31.93,131.31 31.97,131.31 32,131.31C32.03,131.3 32.07,131.3 32.1,131.29C32.13,131.28 32.16,131.28 32.19,131.27C32.22,131.26 32.26,131.26 32.29,131.25C32.32,131.24 32.35,131.23 32.38,131.23C32.41,131.22 32.45,131.22 32.48,131.22C32.51,131.21 32.55,131.21 32.58,131.2C32.61,131.19 32.64,131.19 32.67,131.18C32.7,131.17 32.74,131.17 32.77,131.16C32.8,131.15 32.83,131.15 32.86,131.14C32.89,131.13 32.93,131.13 32.96,131.12C32.99,131.11 33.03,131.11 33.06,131.1C33.09,131.09 33.12,131.09 33.15,131.08C33.18,131.07 33.22,131.07 33.25,131.06C33.28,131.05 33.32,131.05 33.35,131.04C33.38,131.03 33.41,131.03 33.44,131.02C33.47,131.01 33.51,131.01 33.54,131C33.57,130.99 33.6,130.99 33.63,130.98C33.66,130.97 33.7,130.97 33.73,130.96C33.76,130.95 33.8,130.95 33.83,130.94C33.86,130.93 33.89,130.93 33.92,130.92C33.95,130.91 33.99,130.91 34.02,130.9C34.05,130.89 34.08,130.89 34.11,130.88C34.14,130.87 34.18,130.87 34.21,130.86C34.24,130.85 34.28,130.85 34.31,130.84C34.34,130.83 34.37,130.82 34.4,130.81C34.43,130.8 34.47,130.8 34.5,130.79C34.53,130.78 34.56,130.78 34.59,130.77C34.62,130.76 34.66,130.76 34.69,130.75C34.72,130.74 34.76,130.73 34.79,130.72C34.82,130.71 34.85,130.71 34.88,130.7C34.91,130.69 34.95,130.69 34.98,130.68C35.01,130.67 35.05,130.67 35.08,130.66C35.11,130.65 35.14,130.64 35.17,130.63C35.2,130.62 35.24,130.62 35.27,130.61C35.3,130.6 35.33,130.6 35.36,130.59C35.39,130.58 35.43,130.57 35.46,130.56C35.49,130.55 35.53,130.55 35.56,130.54C35.59,130.53 35.62,130.52 35.65,130.51C35.68,130.5 35.72,130.5 35.75,130.49C35.78,130.48 35.81,130.48 35.84,130.47C35.87,130.46 35.91,130.45 35.94,130.44C35.97,130.43 36.01,130.43 36.04,130.42C36.07,130.41 36.1,130.4 36.13,130.39C36.16,130.38 36.2,130.37 36.23,130.36C36.26,130.35 36.29,130.35 36.32,130.34C36.35,130.33 36.39,130.32 36.42,130.31C36.45,130.3 36.49,130.3 36.52,130.29C36.55,130.28 36.58,130.27 36.61,130.26C36.64,130.25 36.68,130.24 36.71,130.23C36.74,130.22 36.77,130.22 36.8,130.21C36.83,130.2 36.87,130.19 36.9,130.18C36.93,130.17 36.97,130.16 37,130.15C37.03,130.14 37.06,130.13 37.09,130.12C37.12,130.11 37.16,130.11 37.19,130.1C37.22,130.09 37.26,130.08 37.29,130.07C37.32,130.06 37.35,130.05 37.38,130.04C37.41,130.03 37.45,130.02 37.48,130.01C37.51,130 37.54,129.99 37.57,129.98C37.6,129.97 37.64,129.96 37.67,129.95C37.7,129.94 37.74,129.93 37.77,129.92C37.8,129.91 37.83,129.9 37.86,129.89C37.89,129.88 37.93,129.87 37.96,129.86C37.99,129.85 38.02,129.84 38.05,129.83C38.08,129.82 38.12,129.81 38.15,129.8C38.18,129.79 38.22,129.78 38.25,129.77C38.28,129.76 38.31,129.75 38.34,129.74C38.37,129.73 38.41,129.72 38.44,129.71C38.47,129.7 38.5,129.69 38.53,129.68C38.56,129.67 38.6,129.65 38.63,129.64C38.66,129.63 38.7,129.62 38.73,129.61C38.76,129.6 38.79,129.59 38.82,129.58C38.85,129.57 38.89,129.55 38.92,129.54C38.95,129.53 38.99,129.52 39.02,129.51C39.05,129.5 39.08,129.49 39.11,129.48C39.14,129.47 39.18,129.45 39.21,129.44C39.24,129.43 39.27,129.42 39.3,129.41C39.33,129.4 39.37,129.38 39.4,129.37C39.43,129.36 39.47,129.35 39.5,129.34C39.53,129.33 39.56,129.31 39.59,129.3C39.62,129.29 39.66,129.27 39.69,129.26C39.72,129.25 39.75,129.24 39.78,129.23C39.81,129.22 39.85,129.2 39.88,129.19C39.91,129.18 39.95,129.16 39.98,129.15C40.01,129.14 40.04,129.12 40.07,129.11C40.1,129.1 40.14,129.09 40.17,129.08C40.2,129.07 40.23,129.05 40.26,129.04C40.29,129.03 40.33,129.01 40.36,129C40.39,128.99 40.43,128.97 40.46,128.96C40.49,128.95 40.52,128.93 40.55,128.92C40.58,128.91 40.62,128.89 40.65,128.88C40.68,128.87 40.71,128.85 40.74,128.84C40.77,128.83 40.81,128.81 40.84,128.8C40.87,128.78 40.91,128.77 40.94,128.75C40.97,128.74 41,128.72 41.03,128.71C41.06,128.7 41.1,128.68 41.13,128.67C41.16,128.66 41.2,128.65 41.23,128.63C41.26,128.62 41.29,128.59 41.32,128.58C41.35,128.56 41.39,128.56 41.42,128.54C41.45,128.53 41.48,128.5 41.51,128.49C41.54,128.47 41.58,128.46 41.61,128.45C41.64,128.43 41.68,128.42 41.71,128.4C41.74,128.38 41.77,128.36 41.8,128.35C41.83,128.33 41.87,128.33 41.9,128.31C41.93,128.3 41.96,128.28 41.99,128.26C42.02,128.24 42.06,128.23 42.09,128.21C42.12,128.19 42.16,128.18 42.19,128.16C42.22,128.14 42.25,128.13 42.28,128.11C42.31,128.09 42.35,128.08 42.38,128.06C42.41,128.04 42.44,128.03 42.47,128.01C42.5,127.99 42.54,127.98 42.57,127.96C42.6,127.94 42.64,127.93 42.67,127.91C42.7,127.89 42.73,127.87 42.76,127.85C42.79,127.83 42.83,127.82 42.86,127.8C42.89,127.78 42.92,127.77 42.95,127.75C42.98,127.73 43.02,127.71 43.05,127.69C43.08,127.67 43.12,127.66 43.15,127.64C43.18,127.62 43.21,127.6 43.24,127.58C43.27,127.56 43.31,127.54 43.34,127.52C43.37,127.5 43.41,127.48 43.44,127.46C43.47,127.44 43.5,127.43 43.53,127.41C43.56,127.39 43.6,127.37 43.63,127.35C43.66,127.33 43.69,127.31 43.72,127.29C43.75,127.27 43.79,127.24 43.82,127.22C43.85,127.2 43.89,127.18 43.92,127.16C43.95,127.14 43.98,127.12 44.01,127.1C44.04,127.08 44.08,127.06 44.11,127.04C44.14,127.02 44.17,126.99 44.2,126.97C44.23,126.95 44.27,126.93 44.3,126.91C44.33,126.89 44.37,126.86 44.4,126.84C44.43,126.82 44.46,126.79 44.49,126.77C44.52,126.75 44.56,126.72 44.59,126.7C44.62,126.68 44.65,126.65 44.68,126.63C44.71,126.61 44.75,126.58 44.78,126.56C44.81,126.54 44.85,126.51 44.88,126.49C44.91,126.47 44.94,126.44 44.97,126.42C45,126.39 45.04,126.37 45.07,126.34C45.1,126.32 45.14,126.3 45.17,126.27C45.2,126.25 45.23,126.22 45.26,126.19C45.29,126.16 45.33,126.14 45.36,126.11C45.39,126.09 45.42,126.06 45.45,126.04C45.48,126.01 45.52,125.99 45.55,125.96C45.58,125.93 45.62,125.9 45.65,125.87C45.68,125.84 45.71,125.82 45.74,125.79C45.77,125.76 45.81,125.74 45.84,125.71C45.87,125.68 45.9,125.65 45.93,125.62C45.96,125.59 46,125.57 46.03,125.54C46.06,125.51 46.1,125.48 46.13,125.45C46.16,125.42 46.19,125.39 46.22,125.36C46.25,125.33 46.29,125.3 46.32,125.27C46.35,125.24 46.38,125.2 46.41,125.17C46.44,125.14 46.48,125.11 46.51,125.08C46.54,125.05 46.58,125.01 46.61,124.98C46.64,124.95 46.67,124.92 46.7,124.89C46.73,124.86 46.77,124.82 46.8,124.79C46.83,124.76 46.86,124.72 46.89,124.69C46.92,124.65 46.96,124.62 46.99,124.58C47.02,124.55 47.06,124.51 47.09,124.48C47.12,124.44 47.15,124.41 47.18,124.37C47.21,124.33 47.25,124.3 47.28,124.26C47.31,124.22 47.35,124.19 47.38,124.15C47.41,124.11 47.44,124.08 47.47,124.04C47.5,124 47.54,123.96 47.57,123.92C47.6,123.88 47.63,123.84 47.66,123.8C47.69,123.76 47.73,123.72 47.76,123.68C47.79,123.64 47.83,123.6 47.86,123.56C47.89,123.52 47.92,123.48 47.95,123.44C47.98,123.4 48.02,123.35 48.05,123.31C48.08,123.27 48.11,123.22 48.14,123.18C48.17,123.14 48.21,123.09 48.24,123.05C48.27,123 48.31,122.96 48.34,122.91C48.37,122.87 48.4,122.82 48.43,122.78C48.46,122.73 48.5,122.69 48.53,122.64C48.56,122.59 48.59,122.54 48.62,122.49C48.65,122.44 48.69,122.39 48.72,122.34C48.75,122.29 48.79,122.24 48.82,122.19C48.85,122.14 48.88,122.09 48.91,122.04C48.94,121.99 48.98,121.93 49.01,121.88C49.04,121.83 49.08,121.77 49.11,121.72C49.14,121.67 49.17,121.61 49.2,121.56C49.23,121.5 49.27,121.45 49.3,121.39C49.33,121.33 49.36,121.28 49.39,121.22C49.42,121.16 49.46,121.1 49.49,121.04C49.52,120.98 49.56,120.92 49.59,120.86C49.62,120.8 49.65,120.74 49.68,120.68C49.71,120.62 49.75,120.55 49.78,120.49C49.81,120.43 49.84,120.36 49.87,120.3C49.9,120.23 49.94,120.17 49.97,120.1C50,120.03 50.04,119.96 50.07,119.89C50.1,119.82 50.13,119.76 50.16,119.69C50.19,119.62 50.23,119.54 50.26,119.47C50.29,119.4 50.32,119.32 50.35,119.25C50.38,119.18 50.42,119.11 50.45,119.03C50.48,118.95 50.52,118.87 50.55,118.79C50.58,118.71 50.61,118.63 50.64,118.55C50.67,118.47 50.71,118.39 50.74,118.31C50.77,118.23 50.8,118.14 50.83,118.06C50.86,117.97 50.9,117.89 50.93,117.8C50.96,117.71 51,117.62 51.03,117.53C51.06,117.44 51.09,117.35 51.12,117.26C51.15,117.16 51.19,117.07 51.22,116.97C51.25,116.87 51.29,116.78 51.32,116.68C51.35,116.58 51.38,116.48 51.41,116.38C51.44,116.28 51.48,116.17 51.51,116.07C51.54,115.96 51.57,115.86 51.6,115.75C51.63,115.64 51.67,115.53 51.7,115.42C51.73,115.31 51.77,115.2 51.8,115.08C51.83,114.96 51.86,114.84 51.89,114.72C51.92,114.6 51.96,114.48 51.99,114.36C52.02,114.24 52.05,114.11 52.08,113.98C52.11,113.85 52.15,113.72 52.18,113.59C52.21,113.46 52.25,113.32 52.28,113.18C52.31,113.04 52.34,112.9 52.37,112.76C52.4,112.61 52.44,112.47 52.47,112.32C52.5,112.17 52.53,112.02 52.56,111.87C52.59,111.71 52.63,111.56 52.66,111.4C52.69,111.24 52.73,111.08 52.76,110.91C52.79,110.74 52.82,110.57 52.85,110.4C52.88,110.22 52.92,110.05 52.95,109.87C52.98,109.69 53.02,109.51 53.05,109.32C53.08,109.13 53.11,108.93 53.14,108.74C53.17,108.54 53.21,108.34 53.24,108.14C53.27,107.93 53.3,107.72 53.33,107.51C53.36,107.29 53.4,107.07 53.43,106.85C53.46,106.63 53.5,106.4 53.53,106.17C53.56,105.93 53.59,105.69 53.62,105.44C53.65,105.19 53.69,104.97 53.72,104.68C53.76,104.3 53.74,103.57 53.81,103.34C53.84,103.25 53.87,103.22 53.91,103.17C53.94,103.13 53.98,103.1 54.01,103.07C54.04,103.04 54.07,103.01 54.1,102.98C54.13,102.95 54.17,102.92 54.2,102.89C54.23,102.86 54.26,102.82 54.29,102.79C54.32,102.76 54.36,102.72 54.39,102.69C54.42,102.66 54.46,102.63 54.49,102.6C54.52,102.57 54.55,102.53 54.58,102.5C54.61,102.47 54.65,102.44 54.68,102.41C54.71,102.38 54.74,102.34 54.77,102.31C54.8,102.28 54.84,102.24 54.87,102.21C54.9,102.18 54.94,102.14 54.97,102.11C55,102.08 55.03,102.05 55.06,102.02C55.09,101.99 55.13,101.95 55.16,101.92C55.19,101.89 55.23,101.85 55.26,101.82C55.29,101.79 55.32,101.75 55.35,101.72C55.38,101.69 55.42,101.65 55.45,101.62C55.48,101.59 55.51,101.55 55.54,101.52C55.57,101.49 55.61,101.45 55.64,101.42C55.67,101.39 55.71,101.35 55.74,101.32C55.77,101.29 55.8,101.26 55.83,101.23C55.86,101.2 55.9,101.16 55.93,101.13C55.96,101.09 55.99,101.06 56.02,101.02C56.05,100.99 56.09,100.95 56.12,100.92C56.15,100.89 56.19,100.85 56.22,100.82C56.25,100.79 56.28,100.75 56.31,100.72C56.34,100.69 56.38,100.65 56.41,100.62C56.44,100.59 56.47,100.55 56.5,100.52C56.53,100.49 56.57,100.45 56.6,100.42C56.63,100.39 56.67,100.35 56.7,100.32C56.73,100.28 56.76,100.25 56.79,100.21C56.82,100.18 56.86,100.14 56.89,100.11C56.92,100.08 56.95,100.04 56.98,100.01C57.01,99.97 57.05,99.94 57.08,99.9C57.11,99.87 57.15,99.83 57.18,99.8C57.21,99.77 57.24,99.73 57.27,99.7C57.3,99.66 57.34,99.63 57.37,99.59C57.4,99.56 57.44,99.52 57.47,99.49C57.5,99.45 57.53,99.42 57.56,99.38C57.59,99.35 57.63,99.31 57.66,99.28C57.69,99.24 57.72,99.21 57.75,99.17C57.78,99.14 57.82,99.1 57.85,99.07C57.88,99.03 57.92,99 57.95,98.96C57.98,98.92 58.01,98.89 58.04,98.85C58.07,98.82 58.11,98.78 58.14,98.75C58.17,98.71 58.2,98.68 58.23,98.64C58.26,98.6 58.3,98.57 58.33,98.53C58.36,98.5 58.4,98.46 58.43,98.43C58.46,98.39 58.49,98.36 58.52,98.32C58.55,98.28 58.59,98.25 58.62,98.21C58.65,98.17 58.68,98.14 58.71,98.1C58.74,98.06 58.78,98.03 58.81,97.99C58.84,97.96 58.88,97.92 58.91,97.89C58.94,97.85 58.97,97.82 59,97.78C59.03,97.74 59.07,97.71 59.1,97.67C59.13,97.63 59.17,97.6 59.2,97.56C59.23,97.52 59.26,97.49 59.29,97.45C59.32,97.41 59.36,97.38 59.39,97.34C59.42,97.3 59.45,97.27 59.48,97.23C59.51,97.19 59.55,97.16 59.58,97.12C59.61,97.08 59.65,97.04 59.68,97C59.71,96.96 59.74,96.93 59.77,96.89C59.8,96.85 59.84,96.82 59.87,96.78C59.9,96.74 59.93,96.71 59.96,96.67C59.99,96.63 60.03,96.6 60.06,96.56C60.09,96.52 60.13,96.48 60.16,96.44C60.19,96.4 60.22,96.37 60.25,96.33C60.28,96.29 60.32,96.26 60.35,96.22C60.38,96.18 60.41,96.14 60.44,96.1C60.47,96.06 60.51,96.03 60.54,95.99C60.57,95.95 60.61,95.91 60.64,95.87C60.67,95.83 60.7,95.8 60.73,95.76C60.76,95.72 60.8,95.68 60.83,95.64C60.86,95.6 60.89,95.57 60.92,95.53C60.95,95.49 60.99,95.45 61.02,95.41C61.05,95.37 61.09,95.34 61.12,95.3C61.15,95.26 61.18,95.22 61.21,95.18C61.24,95.14 61.28,95.1 61.31,95.06C61.34,95.02 61.38,94.99 61.41,94.95C61.44,94.91 61.47,94.87 61.5,94.83C61.53,94.79 61.57,94.75 61.6,94.71C61.63,94.67 61.66,94.63 61.69,94.59C61.72,94.55 61.76,94.51 61.79,94.47C61.82,94.43 61.86,94.4 61.89,94.36C61.92,94.32 61.95,94.28 61.98,94.24C62.01,94.2 62.05,94.16 62.08,94.12C62.11,94.08 62.14,94.04 62.17,94C62.2,93.96 62.24,93.92 62.27,93.88C62.3,93.84 62.34,93.8 62.37,93.76C62.4,93.72 62.43,93.67 62.46,93.63C62.49,93.59 62.53,93.55 62.56,93.51C62.59,93.47 62.62,93.43 62.65,93.39C62.68,93.35 62.72,93.31 62.75,93.27C62.78,93.23 62.82,93.19 62.85,93.15C62.88,93.11 62.91,93.06 62.94,93.02C62.97,92.98 63.01,92.94 63.04,92.9C63.07,92.86 63.11,92.82 63.14,92.78C63.17,92.74 63.2,92.69 63.23,92.65C63.26,92.61 63.3,92.57 63.33,92.53C63.36,92.49 63.39,92.45 63.42,92.41C63.45,92.37 63.49,92.32 63.52,92.28C63.55,92.24 63.59,92.2 63.62,92.16C63.65,92.12 63.68,92.07 63.71,92.03C63.74,91.99 63.78,91.94 63.81,91.9C63.84,91.86 63.87,91.82 63.9,91.78C63.93,91.74 63.97,91.69 64,91.65C64.03,91.61 64.07,91.56 64.1,91.52C64.13,91.48 64.16,91.44 64.19,91.4C64.22,91.36 64.26,91.31 64.29,91.27C64.32,91.23 64.35,91.18 64.38,91.14C64.41,91.1 64.45,91.05 64.48,91.01C64.51,90.97 64.55,90.92 64.58,90.88C64.61,90.84 64.64,90.79 64.67,90.75C64.7,90.71 64.74,90.66 64.77,90.62C64.8,90.58 64.83,90.53 64.86,90.49C64.89,90.45 64.93,90.4 64.96,90.36C64.99,90.32 65.03,90.27 65.06,90.23C65.09,90.19 65.12,90.14 65.15,90.1C65.18,90.06 65.22,90.01 65.25,89.97C65.28,89.92 65.32,89.88 65.35,89.83C65.38,89.79 65.41,89.74 65.44,89.7C65.47,89.66 65.51,89.61 65.54,89.57C65.57,89.52 65.6,89.48 65.63,89.43C65.66,89.39 65.7,89.34 65.73,89.3C65.76,89.26 65.8,89.21 65.83,89.17C65.86,89.12 65.89,89.08 65.92,89.03C65.95,88.99 65.99,88.94 66.02,88.9C66.05,88.85 66.08,88.81 66.11,88.76C66.14,88.71 66.18,88.67 66.21,88.62C66.24,88.58 66.28,88.53 66.31,88.49C66.34,88.44 66.37,88.4 66.4,88.35C66.43,88.3 66.47,88.26 66.5,88.21C66.53,88.17 66.56,88.12 66.59,88.08C66.62,88.03 66.66,87.99 66.69,87.94C66.72,87.89 66.76,87.85 66.79,87.8C66.82,87.75 66.85,87.71 66.88,87.66C66.91,87.61 66.95,87.57 66.98,87.52C67.01,87.47 67.05,87.43 67.08,87.38C67.11,87.33 67.14,87.29 67.17,87.24C67.2,87.19 67.24,87.15 67.27,87.1C67.3,87.05 67.33,87.01 67.36,86.96C67.39,86.91 67.43,86.87 67.46,86.82C67.49,86.77 67.53,86.72 67.56,86.67C67.59,86.62 67.62,86.58 67.65,86.53C67.68,86.48 67.72,86.44 67.75,86.39C67.78,86.34 67.81,86.29 67.84,86.24C67.87,86.19 67.91,86.15 67.94,86.1C67.97,86.05 68.01,86.01 68.04,85.96C68.07,85.91 68.1,85.86 68.13,85.81C68.16,85.76 68.2,85.72 68.23,85.67C68.26,85.62 68.29,85.57 68.32,85.52C68.35,85.47 68.39,85.42 68.42,85.37C68.45,85.32 68.49,85.28 68.52,85.23C68.55,85.18 68.58,85.13 68.61,85.08C68.64,85.03 68.68,84.98 68.71,84.93C68.74,84.88 68.77,84.83 68.8,84.78C68.83,84.73 68.87,84.68 68.9,84.63C68.93,84.58 68.97,84.54 69,84.49C69.03,84.44 69.06,84.39 69.09,84.34C69.12,84.29 69.16,84.24 69.19,84.19C69.22,84.14 69.26,84.08 69.29,84.03C69.32,83.98 69.35,83.93 69.38,83.88C69.41,83.83 69.45,83.78 69.48,83.73C69.51,83.68 69.54,83.63 69.57,83.58C69.6,83.53 69.64,83.48 69.67,83.43C69.7,83.38 69.74,83.32 69.77,83.27C69.8,83.22 69.83,83.17 69.86,83.12C69.89,83.07 69.93,83.02 69.96,82.97C69.99,82.92 70.02,82.86 70.05,82.81C70.08,82.76 70.12,82.71 70.15,82.66C70.18,82.61 70.22,82.55 70.25,82.5C70.28,82.45 70.31,82.39 70.34,82.34C70.37,82.29 70.41,82.24 70.44,82.19C70.47,82.14 70.5,82.08 70.53,82.03C70.56,81.98 70.6,81.92 70.63,81.87C70.66,81.82 70.7,81.76 70.73,81.71C70.76,81.66 70.79,81.6 70.82,81.55C70.85,81.5 70.89,81.45 70.92,81.4C70.95,81.35 70.99,81.29 71.02,81.24C71.05,81.18 71.08,81.13 71.11,81.07C71.14,81.02 71.18,80.96 71.21,80.91C71.24,80.86 71.27,80.8 71.3,80.75C71.33,80.7 71.37,80.64 71.4,80.59C71.43,80.54 71.47,80.48 71.5,80.43C71.53,80.37 71.56,80.32 71.59,80.26C71.62,80.21 71.66,80.15 71.69,80.1C71.72,80.05 71.75,79.99 71.78,79.94C71.81,79.88 71.85,79.83 71.88,79.77C71.91,79.72 71.95,79.66 71.98,79.61C72.01,79.55 72.04,79.5 72.07,79.44C72.1,79.38 72.14,79.33 72.17,79.27C72.2,79.22 72.23,79.16 72.26,79.11C72.29,79.05 72.33,79 72.36,78.94C72.39,78.88 72.43,78.83 72.46,78.77C72.49,78.71 72.52,78.66 72.55,78.6C72.58,78.54 72.62,78.49 72.65,78.43C72.68,78.37 72.71,78.32 72.74,78.26C72.77,78.2 72.81,78.15 72.84,78.09C72.87,78.03 72.91,77.98 72.94,77.92C72.97,77.86 73,77.81 73.03,77.75C73.06,77.69 73.1,77.63 73.13,77.57C73.16,77.51 73.2,77.46 73.23,77.4C73.26,77.34 73.29,77.29 73.32,77.23C73.35,77.17 73.39,77.11 73.42,77.05C73.45,76.99 73.48,76.94 73.51,76.88C73.54,76.82 73.58,76.76 73.61,76.7C73.64,76.64 73.68,76.59 73.71,76.53C73.74,76.47 73.77,76.41 73.8,76.35C73.83,76.29 73.87,76.23 73.9,76.17C73.93,76.11 73.96,76.05 73.99,75.99C74.02,75.93 74.06,75.88 74.09,75.82C74.12,75.76 74.16,75.7 74.19,75.64C74.22,75.58 74.25,75.52 74.28,75.46C74.31,75.4 74.35,75.34 74.38,75.28C74.41,75.22 74.44,75.15 74.47,75.09C74.5,75.03 74.54,74.97 74.57,74.91C74.6,74.85 74.64,74.79 74.67,74.73C74.7,74.67 74.73,74.61 74.76,74.55C74.79,74.49 74.83,74.42 74.86,74.36C74.89,74.3 74.92,74.24 74.95,74.18C74.98,74.12 75.02,74.05 75.05,73.99C75.08,73.93 75.12,73.87 75.15,73.81C75.18,73.75 75.21,73.68 75.24,73.62C75.27,73.56 75.31,73.49 75.34,73.43C75.37,73.37 75.41,73.31 75.44,73.25C75.47,73.19 75.5,73.12 75.53,73.06C75.56,73 75.6,72.93 75.63,72.87C75.66,72.81 75.69,72.74 75.72,72.68C75.75,72.62 75.79,72.55 75.82,72.49C75.85,72.43 75.89,72.36 75.92,72.3C75.95,72.23 75.98,72.17 76.01,72.1C76.04,72.04 76.08,71.97 76.11,71.91C76.14,71.85 76.17,71.78 76.2,71.72C76.23,71.65 76.27,71.59 76.3,71.52C76.33,71.46 76.37,71.39 76.4,71.33C76.43,71.26 76.46,71.2 76.49,71.13C76.52,71.06 76.56,71 76.59,70.93C76.62,70.87 76.65,70.8 76.68,70.74C76.71,70.67 76.75,70.61 76.78,70.54C76.81,70.47 76.85,70.41 76.88,70.34C76.91,70.27 76.94,70.21 76.97,70.14C77,70.07 77.04,70.01 77.07,69.94C77.1,69.87 77.14,69.81 77.17,69.74C77.2,69.67 77.23,69.61 77.26,69.54C77.29,69.47 77.33,69.41 77.36,69.34C77.39,69.27 77.42,69.2 77.45,69.13C77.48,69.06 77.52,69 77.55,68.93C77.58,68.86 77.62,68.79 77.65,68.72C77.68,68.65 77.71,68.59 77.74,68.52C77.77,68.45 77.81,68.38 77.84,68.31C77.87,68.24 77.9,68.17 77.93,68.1C77.96,68.03 78,67.97 78.03,67.9C78.06,67.83 78.1,67.76 78.13,67.69C78.16,67.62 78.19,67.55 78.22,67.48C78.25,67.41 78.29,67.34 78.32,67.27C78.35,67.2 78.38,67.13 78.41,67.06C78.44,66.99 78.48,66.91 78.51,66.84C78.54,66.77 78.58,66.7 78.61,66.63C78.64,66.56 78.67,66.49 78.7,66.42C78.73,66.35 78.77,66.27 78.8,66.2C78.83,66.13 78.86,66.06 78.89,65.99C78.92,65.92 78.96,65.84 78.99,65.77C79.02,65.7 79.06,65.63 79.09,65.56C79.12,65.49 79.15,65.41 79.18,65.34C79.21,65.27 79.25,65.19 79.28,65.12C79.31,65.05 79.35,64.97 79.38,64.9C79.41,64.83 79.44,64.75 79.47,64.68C79.5,64.61 79.54,64.53 79.57,64.46C79.6,64.38 79.63,64.31 79.66,64.23C79.69,64.16 79.73,64.08 79.76,64.01C79.79,63.94 79.83,63.86 79.86,63.79C79.89,63.71 79.92,63.64 79.95,63.56C79.98,63.49 80.02,63.41 80.05,63.34C80.08,63.26 80.11,63.19 80.14,63.11C80.17,63.03 80.21,62.96 80.24,62.88C80.27,62.8 80.31,62.73 80.34,62.65C80.37,62.57 80.4,62.5 80.43,62.42C80.46,62.34 80.5,62.27 80.53,62.19C80.56,62.11 80.59,62.04 80.62,61.96C80.65,61.88 80.69,61.81 80.72,61.73C80.75,61.65 80.79,61.58 80.82,61.5C80.85,61.42 80.88,61.34 80.91,61.26C80.94,61.18 80.98,61.11 81.01,61.03C81.04,60.95 81.08,60.87 81.11,60.79C81.14,60.71 81.17,60.63 81.2,60.55C81.23,60.47 81.27,60.4 81.3,60.32C81.33,60.24 81.36,60.16 81.39,60.08C81.42,60 81.46,59.92 81.49,59.84C81.52,59.76 81.56,59.68 81.59,59.6C81.62,59.52 81.65,59.43 81.68,59.35C81.71,59.27 81.75,59.19 81.78,59.11C81.81,59.03 81.84,58.95 81.87,58.87C81.9,58.79 81.94,58.7 81.97,58.62C82,58.54 82.04,58.46 82.07,58.38C82.1,58.3 82.13,58.21 82.16,58.13C82.19,58.05 82.23,57.96 82.26,57.88C82.29,57.8 82.32,57.71 82.35,57.63C82.38,57.55 82.42,57.46 82.45,57.38C82.48,57.3 82.52,57.21 82.55,57.13C82.58,57.05 82.61,56.96 82.64,56.88C82.67,56.79 82.71,56.71 82.74,56.62C82.77,56.54 82.8,56.45 82.83,56.37C82.86,56.28 82.9,56.2 82.93,56.11C82.96,56.03 83,55.94 83.03,55.86C83.06,55.77 83.09,55.69 83.12,55.6C83.15,55.51 83.19,55.43 83.22,55.34C83.25,55.25 83.29,55.17 83.32,55.08C83.35,54.99 83.38,54.91 83.41,54.82C83.44,54.73 83.48,54.65 83.51,54.56C83.54,54.47 83.57,54.38 83.6,54.29C83.63,54.2 83.67,54.12 83.7,54.03C83.73,53.94 83.77,53.85 83.8,53.76C83.83,53.67 83.86,53.59 83.89,53.5C83.92,53.41 83.96,53.32 83.99,53.23C84.02,53.14 84.05,53.05 84.08,52.96C84.11,52.87 84.15,52.78 84.18,52.69C84.21,52.6 84.25,52.51 84.28,52.42C84.31,52.33 84.34,52.24 84.37,52.15C84.4,52.06 84.44,51.96 84.47,51.87C84.5,51.78 84.53,51.69 84.56,51.6C84.59,51.51 84.63,51.41 84.66,51.32C84.69,51.23 84.73,51.13 84.76,51.04C84.79,50.95 84.82,50.85 84.85,50.76C84.88,50.67 84.92,50.57 84.95,50.48C84.98,50.39 85.02,50.29 85.05,50.2C85.08,50.11 85.11,50.01 85.14,49.92C85.17,49.83 85.21,49.73 85.24,49.64C85.27,49.54 85.3,49.45 85.33,49.35C85.36,49.25 85.4,49.16 85.43,49.06C85.46,48.97 85.5,48.87 85.53,48.78C85.56,48.68 85.59,48.59 85.62,48.49C85.65,48.39 85.69,48.3 85.72,48.2C85.75,48.1 85.78,48 85.81,47.9C85.84,47.8 85.88,47.71 85.91,47.61C85.94,47.51 85.98,47.42 86.01,47.32C86.04,47.22 86.07,47.12 86.1,47.02C86.13,46.92 86.17,46.82 86.2,46.72C86.23,46.62 86.26,46.53 86.29,46.43C86.32,46.33 86.36,46.23 86.39,46.13C86.42,46.03 86.46,45.92 86.49,45.82C86.52,45.72 86.55,45.62 86.58,45.52C86.61,45.42 86.65,45.32 86.68,45.22C86.71,45.12 86.74,45.01 86.77,44.91C86.8,44.81 86.84,44.71 86.87,44.61C86.9,44.51 86.94,44.4 86.97,44.3C87,44.2 87.03,44.09 87.06,43.99C87.09,43.89 87.13,43.78 87.16,43.68C87.19,43.57 87.23,43.47 87.26,43.36C87.29,43.26 87.32,43.15 87.35,43.05C87.38,42.94 87.42,42.84 87.45,42.73C87.48,42.63 87.51,42.52 87.54,42.42C87.57,42.31 87.61,42.21 87.64,42.1C87.67,41.99 87.71,41.89 87.74,41.78C87.77,41.67 87.8,41.57 87.83,41.46C87.86,41.35 87.9,41.24 87.93,41.13C87.96,41.02 87.99,40.92 88.02,40.81C88.05,40.7 88.09,40.59 88.12,40.48C88.15,40.37 88.19,40.26 88.22,40.15C88.25,40.04 88.28,39.93 88.31,39.82C88.34,39.71 88.38,39.6 88.41,39.49C88.44,39.38 88.47,39.27 88.5,39.16C88.53,39.05 88.57,38.94 88.6,38.83C88.63,38.72 88.67,38.6 88.7,38.49C88.73,38.38 88.76,38.26 88.79,38.15C88.82,38.04 88.86,37.92 88.89,37.81C88.92,37.7 88.95,37.58 88.98,37.47C89.01,37.36 89.05,37.24 89.08,37.13C89.11,37.02 89.15,36.9 89.18,36.79C89.21,36.67 89.24,36.56 89.27,36.44C89.3,36.32 89.34,36.21 89.37,36.09C89.4,35.97 89.44,35.86 89.47,35.74C89.5,35.62 89.53,35.51 89.56,35.39C89.59,35.27 89.63,35.16 89.66,35.04C89.69,34.92 89.72,34.8 89.75,34.68C89.78,34.56 89.82,34.45 89.85,34.33C89.88,34.21 89.92,34.09 89.95,33.97C89.98,33.85 90.01,33.73 90.04,33.61C90.07,33.49 90.11,33.37 90.14,33.25C90.17,33.13 90.2,33 90.23,32.88C90.26,32.76 90.3,32.64 90.33,32.52C90.36,32.4 90.4,32.27 90.43,32.15C90.46,32.03 90.49,31.9 90.52,31.78C90.55,31.66 90.59,31.53 90.62,31.41C90.65,31.28 90.68,31.16 90.71,31.03C90.74,30.91 90.78,30.78 90.81,30.66C90.84,30.53 90.88,30.41 90.91,30.28C90.94,30.15 90.97,30.03 91,29.9C91.03,29.77 91.07,29.65 91.1,29.52C91.13,29.39 91.17,29.27 91.2,29.14C91.23,29.01 91.26,28.88 91.29,28.75C91.32,28.62 91.36,28.5 91.39,28.37C91.42,28.24 91.45,28.11 91.48,27.98C91.51,27.85 91.55,27.72 91.58,27.59C91.61,27.46 91.65,27.32 91.68,27.19C91.71,27.06 91.74,26.93 91.77,26.8C91.8,26.67 91.84,26.53 91.87,26.4C91.9,26.27 91.93,26.13 91.96,26C91.99,25.87 92.03,25.73 92.06,25.6C92.09,25.46 92.13,25.33 92.16,25.19C92.19,25.06 92.22,24.92 92.25,24.79C92.28,24.65 92.32,24.52 92.35,24.38C92.38,24.24 92.41,24.11 92.44,23.97C92.47,23.83 92.51,23.7 92.54,23.56C92.57,23.42 92.61,23.28 92.64,23.14C92.67,23 92.7,22.87 92.73,22.73C92.76,22.59 92.8,22.45 92.83,22.31C92.86,22.17 92.89,22.02 92.92,21.88C92.95,21.74 92.99,21.6 93.02,21.46C93.05,21.32 93.09,21.17 93.12,21.03C93.15,20.89 93.18,20.74 93.21,20.6C93.24,20.46 93.28,20.31 93.31,20.17C93.34,20.03 93.38,19.88 93.41,19.74C93.44,19.59 93.47,19.45 93.5,19.3C93.53,19.16 93.57,19.02 93.6,18.87C93.63,18.72 93.66,18.57 93.69,18.42C93.72,18.27 93.76,18.13 93.79,17.98C93.82,17.83 93.86,17.69 93.89,17.54C93.92,17.39 93.95,17.24 93.98,17.09C94.01,16.94 94.05,16.79 94.08,16.64C94.11,16.49 94.14,16.33 94.17,16.18C94.2,16.03 94.24,15.88 94.27,15.73C94.3,15.58 94.34,15.42 94.37,15.27C94.4,15.12 94.43,14.96 94.46,14.81C94.49,14.65 94.53,14.5 94.56,14.34C94.59,14.19 94.62,14.03 94.65,13.88C94.68,13.72 94.72,13.57 94.75,13.41C94.78,13.25 94.82,13.1 94.85,12.94C94.88,12.78 94.91,12.62 94.94,12.46C94.97,12.3 95.01,12.14 95.04,11.98C95.07,11.82 95.11,11.66 95.14,11.5C95.17,11.34 95.2,11.18 95.23,11.02C95.26,10.86 95.3,10.69 95.33,10.53C95.36,10.37 95.39,10.2 95.42,10.04C95.45,9.88 95.49,9.71 95.52,9.55C95.55,9.39 95.59,9.22 95.62,9.06C95.65,8.89 95.68,8.73 95.71,8.56C95.74,8.39 95.78,8.23 95.81,8.06C95.84,7.89 95.87,7.73 95.9,7.56Q95.93,7.39 96,7.05" style="vector-effect: none; fill: none; stroke: rgb(0, 0, 0); stroke-opacity: 1; stroke-width: 1.5px; opacity: 1;"/></g><g class="points"/><g class="text"/></g></g></g></g><path class="xlines-above crisp" d="M35.5,161.25H132.5M35.5,19.75H132.5" style="fill: none; stroke-width: 0.5px; stroke: rgb(0, 0, 0); stroke-opacity: 1;"/><path class="ylines-above crisp" d="M35.75,20V161M132.25,20V161" style="fill: none; stroke-width: 0.5px; stroke: rgb(0, 0, 0); stroke-opacity: 1;"/><g class="overlines-above"/><g class="xaxislayer-above"><path class="xtick ticks crisp" d="M0,161v-5" transform="translate(68,0)" style="stroke: rgb(68, 68, 68); stroke-opacity: 1; stroke-width: 1px;"/><path class="xtick ticks crisp" d="M0,161v-5" transform="translate(100,0)" style="stroke: rgb(68, 68, 68); stroke-opacity: 1; stroke-width: 1px;"/><g class="xtick"><text text-anchor="middle" x="0" y="174.7" transform="translate(36,0)" style="font-family: 'Open Sans', verdana, arial, sans-serif; font-size: 11px; fill: rgb(0, 0, 0); fill-opacity: 1; white-space: pre; opacity: 1;">0</text></g><g class="xtick"><text text-anchor="middle" x="0" y="174.7" style="font-family: 'Open Sans', verdana, arial, sans-serif; font-size: 11px; fill: rgb(0, 0, 0); fill-opacity: 1; white-space: pre; opacity: 1;" transform="translate(68,0)">0.1</text></g><g class="xtick"><text text-anchor="middle" x="0" y="174.7" style="font-family: 'Open Sans', verdana, arial, sans-serif; font-size: 11px; fill: rgb(0, 0, 0); fill-opacity: 1; white-space: pre; opacity: 1;" transform="translate(100,0)">0.2</text></g><g class="xtick"><text text-anchor="middle" x="0" y="174.7" style="font-family: 'Open Sans', verdana, arial, sans-serif; font-size: 11px; fill: rgb(0, 0, 0); fill-opacity: 1; white-space: pre; opacity: 1;" transform="translate(132,0)">0.3</text></g></g><g class="yaxislayer-above"><path class="ytick ticks crisp" d="M36,0h5" transform="translate(0,153.95)" style="stroke: rgb(68, 68, 68); stroke-opacity: 1; stroke-width: 1px;"/><path class="ytick ticks crisp" d="M36,0h5" transform="translate(0,111.65)" style="stroke: rgb(68, 68, 68); stroke-opacity: 1; stroke-width: 1px;"/><path class="ytick ticks crisp" d="M36,0h5" transform="translate(0,69.35)" style="stroke: rgb(68, 68, 68); stroke-opacity: 1; stroke-width: 1px;"/><path class="ytick ticks crisp" d="M36,0h5" transform="translate(0,27.05)" style="stroke: rgb(68, 68, 68); stroke-opacity: 1; stroke-width: 1px;"/><g class="ytick"><text text-anchor="end" x="33.3" y="3.8499999999999996" transform="translate(0,153.95)" style="font-family: 'Open Sans', verdana, arial, sans-serif; font-size: 11px; fill: rgb(0, 0, 0); fill-opacity: 1; white-space: pre; opacity: 1;">0</text></g><g class="ytick"><text text-anchor="end" x="33.3" y="3.8499999999999996" style="font-family: 'Open Sans', verdana, arial, sans-serif; font-size: 11px; fill: rgb(0, 0, 0); fill-opacity: 1; white-space: pre; opacity: 1;" transform="translate(0,111.65)">0.2</text></g><g class="ytick"><text text-anchor="end" x="33.3" y="3.8499999999999996" style="font-family: 'Open Sans', verdana, arial, sans-serif; font-size: 11px; fill: rgb(0, 0, 0); fill-opacity: 1; white-space: pre; opacity: 1;" transform="translate(0,69.35)">0.4</text></g><g class="ytick"><text text-anchor="end" x="33.3" y="3.8499999999999996" style="font-family: 'Open Sans', verdana, arial, sans-serif; font-size: 11px; fill: rgb(0, 0, 0); fill-opacity: 1; white-space: pre; opacity: 1;" transform="translate(0,27.05)">0.6</text></g></g><g class="overaxes-above"/></g></g><g class="polarlayer"/><g class="smithlayer"/><g class="ternarylayer"/><g class="geolayer"/><g class="funnelarealayer"/><g class="pielayer"/><g class="iciclelayer"/><g class="treemaplayer"/><g class="sunburstlayer"/><g class="glimages"/><defs id="topdefs-68ac49"><g class="clips"/></defs><g class="layer-above"><g class="imagelayer"/><g class="shapelayer"><g class="shape-group" data-index="2" clip-path="url(#clip68ac49x)"><path data-index="2" fill-rule="evenodd" d="M89.89,161L89.89,20" style="opacity: 1; stroke: rgb(0, 0, 0); stroke-opacity: 1; fill: rgb(0, 0, 0); fill-opacity: 0; stroke-dasharray: 3px, 3px; stroke-width: 1.5px;"/></g></g></g><g class="infolayer"><g class="g-gtitle"><text class="gtitle" x="7.5" y="10" text-anchor="start" dy="0em" style="opacity: 1; font-family: 'Open Sans', verdana, arial, sans-serif; font-size: 11px; fill: rgb(0, 0, 0); fill-opacity: 1; white-space: pre;">Competition for acetate</text></g><g class="g-xtitle" transform="translate(0,4.550000000000011)"><text class="xtitle" x="84" y="185.153125" text-anchor="middle" style="opacity: 1; font-family: 'Open Sans', verdana, arial, sans-serif; font-size: 11px; fill: rgb(0, 0, 0); fill-opacity: 1; white-space: pre;">Dilution rate [1/h]</text></g><g class="g-ytitle"><text class="ytitle" transform="rotate(-90,14.181249999999999,90.5)" x="14.181249999999999" y="90.5" text-anchor="middle" style="opacity: 1; font-family: 'Open Sans', verdana, arial, sans-serif; font-size: 11px; fill: rgb(0, 0, 0); fill-opacity: 1; white-space: pre;">Acetate concentration [mM]</text></g></g></svg>