<svg class="main-svg" xmlns="http://www.w3.org/2000/svg" xmlns:xlink="http://www.w3.org/1999/xlink" width="190" height="150" style="" viewBox="0 0 190 150"><rect x="0" y="0" width="190" height="150" style="fill: rgb(255, 255, 255); fill-opacity: 1;"/><defs id="defs-05dff8"><g class="clips"><clipPath id="clip05dff8xyplot" class="plotclip"><rect width="143" height="123"/></clipPath><clipPath class="axesclip" id="clip05dff8x"><rect x="37" y="0" width="143" height="150"/></clipPath><clipPath class="axesclip" id="clip05dff8y"><rect x="0" y="10" width="190" height="123"/></clipPath><clipPath class="axesclip" id="clip05dff8xy"><rect x="37" y="10" width="143" height="123"/></clipPath></g><g class="gradients"/><g class="patterns"/></defs><g class="bglayer"/><g class="layer-below"><g class="imagelayer"/><g class="shapelayer"/></g><g class="cartesianlayer"><g class="subplot xy"><g class="layer-subplot"><g class="shapelayer"/><g class="imagelayer"/></g><g class="minor-gridlayer"><g class="x"/><g class="y"/></g><g class="gridlayer"><g class="x"><path class="xgrid crisp" transform="translate(66.78999999999999,0)" d="M0,10v123" style="stroke: rgb(128, 128, 128); stroke-opacity: 1; stroke-width: 0.2px;"/><path class="xgrid crisp" transform="translate(96.58,0)" d="M0,10v123" style="stroke: rgb(128, 128, 128); stroke-opacity: 1; stroke-width: 0.2px;"/><path class="xgrid crisp" transform="translate(126.38,0)" d="M0,10v123" style="stroke: rgb(128, 128, 128); stroke-opacity: 1; stroke-width: 0.2px;"/><path class="xgrid crisp" transform="translate(156.17000000000002,0)" d="M0,10v123" style="stroke: rgb(128, 128, 128); stroke-opacity: 1; stroke-width: 0.2px;"/></g><g class="y"><path class="ygrid crisp" transform="translate(0,126.85)" d="M37,0h143" style="stroke: rgb(128, 128, 128); stroke-opacity: 1; stroke-width: 0.2px;"/><path class="ygrid crisp" transform="translate(0,97.17)" d="M37,0h143" style="stroke: rgb(128, 128, 128); stroke-opacity: 1; stroke-width: 0.2px;"/><path class="ygrid crisp" transform="translate(0,67.49000000000001)" d="M37,0h143" style="stroke: rgb(128, 128, 128); stroke-opacity: 1; stroke-width: 0.2px;"/><path class="ygrid crisp" transform="translate(0,37.82)" d="M37,0h143" style="stroke: rgb(128, 128, 128); stroke-opacity: 1; stroke-width: 0.2px;"/></g></g><g class="zerolinelayer"/><g class="layer-between"><g class="shapelayer"/><g class="imagelayer"/></g><path class="xlines-below"/><path class="ylines-below"/><g class="overlines-below"/><g class="xaxislayer-below"/><g class="yaxislayer-below"/><g class="overaxes-below"/><g class="overplot"><g class="xy" transform="translate(37,10)" clip-path="url(#clip05dff8xyplot)"><g class="scatterlayer mlayer"><g class="trace scatter trace864bb9" style="stroke-miterlimit: 2; opacity: 1;"><g class="fills"/><g class="errorbars"/><g class="lines"><path class="js-line" d="M0,116.85Q0.09,110.92 0.14,108.03C0.19,105.23 0.24,102.48 0.29,99.77C0.34,97.15 0.38,94.57 0.43,92.04C0.48,89.59 0.52,87.18 0.57,84.81C0.62,82.52 0.67,80.26 0.72,78.05C0.77,75.91 0.81,73.81 0.86,71.75C0.91,69.76 0.95,67.8 1,65.88C1.05,64.02 1.1,62.2 1.15,60.41C1.2,58.69 1.24,56.99 1.29,55.33C1.34,53.73 1.38,52.16 1.43,50.62C1.48,49.13 1.52,47.67 1.57,46.24C1.62,44.87 1.67,43.52 1.72,42.2C1.77,40.93 1.81,39.68 1.86,38.46C1.91,37.29 1.95,36.14 2,35.01C2.05,33.93 2.1,32.87 2.15,31.83C2.2,30.84 2.24,29.86 2.29,28.91C2.34,28 2.38,27.11 2.43,26.24C2.48,25.41 2.53,24.59 2.58,23.79C2.63,23.03 2.67,22.29 2.72,21.56C2.77,20.87 2.81,20.19 2.86,19.53C2.91,18.9 2.96,18.3 3.01,17.7C3.06,17.13 3.1,16.58 3.15,16.04C3.2,15.53 3.24,15.02 3.29,14.54C3.34,14.08 3.39,13.64 3.44,13.21C3.49,12.8 3.53,12.41 3.58,12.02C3.63,11.66 3.67,11.3 3.72,10.96C3.77,10.64 3.81,10.34 3.86,10.04C3.91,9.76 3.96,9.49 4.01,9.23C4.06,8.99 4.1,8.76 4.15,8.54C4.2,8.34 4.24,8.14 4.29,7.95C4.34,7.78 4.39,7.61 4.44,7.45C4.49,7.31 4.53,7.18 4.58,7.05C4.62,6.93 4.67,6.82 4.72,6.72C4.77,6.63 4.82,6.55 4.87,6.48C4.92,6.42 4.96,6.36 5.01,6.31C5.05,6.27 5.1,6.23 5.15,6.2C5.2,6.17 5.25,6.16 5.3,6.15C5.35,6.14 5.39,6.15 5.44,6.16C5.49,6.17 5.53,6.19 5.58,6.22C5.63,6.25 5.68,6.29 5.73,6.33C5.78,6.37 5.82,6.43 5.87,6.48C5.92,6.54 5.96,6.6 6.01,6.67C6.06,6.74 6.11,6.82 6.16,6.9C6.21,6.98 6.25,7.07 6.3,7.16C6.35,7.25 6.39,7.35 6.44,7.45C6.49,7.55 6.53,7.66 6.58,7.77C6.63,7.88 6.68,8 6.73,8.12C6.78,8.24 6.82,8.37 6.87,8.49C6.92,8.62 6.96,8.74 7.01,8.87C7.06,9 7.11,9.14 7.16,9.28C7.21,9.42 7.25,9.56 7.3,9.7C7.35,9.84 7.39,9.99 7.44,10.14C7.49,10.29 7.54,10.44 7.59,10.59C7.64,10.74 7.68,10.9 7.73,11.06C7.78,11.22 7.82,11.37 7.87,11.53C7.92,11.69 7.97,11.85 8.02,12.01C8.07,12.17 8.11,12.34 8.16,12.5C8.21,12.67 8.25,12.83 8.3,13C8.35,13.17 8.4,13.33 8.45,13.5C8.5,13.67 8.54,13.84 8.59,14.01C8.64,14.18 8.68,14.35 8.73,14.52C8.78,14.69 8.82,14.87 8.87,15.04C8.92,15.21 8.97,15.38 9.02,15.55C9.07,15.72 9.11,15.9 9.16,16.07C9.21,16.24 9.25,16.42 9.3,16.59C9.35,16.77 9.4,16.94 9.45,17.12C9.5,17.29 9.54,17.47 9.59,17.64C9.64,17.81 9.68,17.99 9.73,18.16C9.78,18.33 9.83,18.51 9.88,18.68C9.93,18.86 9.97,19.03 10.02,19.21C10.07,19.38 10.11,19.56 10.16,19.73C10.21,19.9 10.26,20.08 10.31,20.25C10.36,20.42 10.4,20.59 10.45,20.76C10.5,20.93 10.54,21.11 10.59,21.28C10.64,21.45 10.69,21.62 10.74,21.79C10.79,21.96 10.83,22.14 10.88,22.31C10.93,22.48 10.97,22.65 11.02,22.82C11.07,22.99 11.12,23.16 11.17,23.33C11.22,23.5 11.26,23.66 11.31,23.83C11.36,24 11.4,24.16 11.45,24.33C11.5,24.5 11.54,24.66 11.59,24.83C11.64,25 11.69,25.16 11.74,25.33C11.79,25.5 11.83,25.66 11.88,25.83C11.93,25.99 11.97,26.16 12.02,26.32C12.07,26.48 12.12,26.65 12.17,26.81C12.22,26.97 12.26,27.13 12.31,27.29C12.36,27.45 12.4,27.62 12.45,27.78C12.5,27.94 12.55,28.1 12.6,28.26C12.65,28.42 12.69,28.58 12.74,28.74C12.79,28.9 12.83,29.05 12.88,29.21C12.93,29.37 12.98,29.52 13.03,29.68C13.08,29.84 13.12,29.99 13.17,30.15C13.22,30.3 13.26,30.46 13.31,30.61C13.36,30.77 13.41,30.92 13.46,31.08C13.51,31.23 13.55,31.39 13.6,31.54C13.65,31.69 13.69,31.84 13.74,31.99C13.79,32.14 13.83,32.29 13.88,32.44C13.93,32.59 13.98,32.74 14.03,32.89C14.08,33.04 14.12,33.19 14.17,33.34C14.22,33.49 14.26,33.64 14.31,33.79C14.36,33.94 14.41,34.08 14.46,34.23C14.51,34.38 14.55,34.52 14.6,34.67C14.65,34.81 14.69,34.96 14.74,35.1C14.79,35.24 14.84,35.39 14.89,35.53C14.94,35.67 14.98,35.82 15.03,35.96C15.08,36.1 15.12,36.25 15.17,36.39C15.22,36.53 15.27,36.67 15.32,36.81C15.37,36.95 15.41,37.09 15.46,37.23C15.51,37.37 15.55,37.51 15.6,37.65C15.65,37.79 15.7,37.93 15.75,38.07C15.8,38.21 15.84,38.34 15.89,38.48C15.94,38.62 15.98,38.75 16.03,38.89C16.08,39.02 16.13,39.16 16.18,39.29C16.23,39.43 16.27,39.56 16.32,39.7C16.37,39.83 16.41,39.97 16.46,40.1C16.51,40.23 16.55,40.37 16.6,40.5C16.65,40.63 16.7,40.76 16.75,40.89C16.8,41.02 16.84,41.15 16.89,41.28C16.94,41.41 16.98,41.54 17.03,41.67C17.08,41.8 17.13,41.93 17.18,42.06C17.23,42.19 17.27,42.32 17.32,42.45C17.37,42.58 17.41,42.7 17.46,42.83C17.51,42.96 17.56,43.08 17.61,43.21C17.66,43.33 17.7,43.46 17.75,43.58C17.8,43.71 17.84,43.83 17.89,43.96C17.94,44.08 17.99,44.21 18.04,44.33C18.09,44.45 18.13,44.58 18.18,44.7C18.23,44.82 18.27,44.94 18.32,45.06C18.37,45.18 18.42,45.3 18.47,45.42C18.52,45.54 18.56,45.66 18.61,45.78C18.66,45.9 18.7,46.02 18.75,46.14C18.8,46.26 18.84,46.38 18.89,46.5C18.94,46.62 18.99,46.73 19.04,46.85C19.09,46.97 19.13,47.08 19.18,47.2C19.23,47.31 19.27,47.43 19.32,47.54C19.37,47.66 19.42,47.77 19.47,47.89C19.52,48 19.56,48.12 19.61,48.23C19.66,48.34 19.7,48.46 19.75,48.57C19.8,48.68 19.85,48.8 19.9,48.91C19.95,49.02 19.99,49.13 20.04,49.24C20.09,49.35 20.13,49.46 20.18,49.57C20.23,49.68 20.28,49.79 20.33,49.9C20.38,50.01 20.42,50.11 20.47,50.22C20.52,50.33 20.56,50.44 20.61,50.55C20.66,50.66 20.71,50.76 20.76,50.87C20.81,50.97 20.85,51.08 20.9,51.18C20.95,51.29 20.99,51.39 21.04,51.5C21.09,51.6 21.14,51.71 21.19,51.81C21.24,51.91 21.28,52.02 21.33,52.12C21.38,52.22 21.42,52.33 21.47,52.43C21.52,52.53 21.56,52.63 21.61,52.73C21.66,52.83 21.71,52.93 21.76,53.03C21.81,53.13 21.85,53.23 21.9,53.33C21.95,53.43 21.99,53.52 22.04,53.62C22.09,53.72 22.14,53.82 22.19,53.92C22.24,54.02 22.28,54.11 22.33,54.21C22.38,54.31 22.42,54.4 22.47,54.5C22.52,54.6 22.57,54.69 22.62,54.79C22.67,54.88 22.71,54.98 22.76,55.07C22.81,55.17 22.85,55.26 22.9,55.36C22.95,55.45 23,55.55 23.05,55.64C23.1,55.74 23.14,55.83 23.19,55.93C23.24,56.03 23.28,56.12 23.33,56.22C23.38,56.32 23.43,56.42 23.48,56.52C23.53,56.62 23.57,56.72 23.62,56.83C23.67,56.94 23.71,57.05 23.76,57.16C23.81,57.28 23.85,57.4 23.9,57.52C23.95,57.65 24,57.78 24.05,57.92C24.1,58.07 24.15,58.24 24.19,58.41C24.24,58.6 24.28,58.8 24.33,59.02C24.38,59.27 24.44,59.55 24.48,59.85C24.53,60.22 24.58,60.62 24.62,61.07C24.67,61.64 24.72,62.28 24.76,63.02C24.82,63.98 24.87,65.08 24.91,66.32C24.97,67.94 25.01,69.88 25.05,71.92C25.1,74.38 25.14,77.3 25.19,80.06C25.24,82.91 25.29,85.99 25.34,88.77C25.39,91.32 25.43,93.84 25.48,96.12C25.52,98.11 25.57,99.99 25.62,101.71C25.67,103.19 25.72,104.56 25.77,105.82C25.81,106.9 25.86,107.91 25.91,108.83C25.95,109.62 26,110.35 26.05,111.02C26.1,111.59 26.15,112.12 26.2,112.61C26.24,113.03 26.29,113.41 26.34,113.77C26.38,114.07 26.43,114.35 26.48,114.61C26.52,114.83 26.57,115.03 26.62,115.22C26.67,115.38 26.72,115.53 26.77,115.67C26.81,115.79 26.86,115.89 26.91,115.99C26.95,116.07 27,116.15 27.05,116.22C27.1,116.29 27.15,116.35 27.2,116.4C27.25,116.45 27.29,116.48 27.34,116.52C27.39,116.55 27.43,116.58 27.48,116.61C27.53,116.64 27.58,116.66 27.63,116.68C27.68,116.7 27.72,116.71 27.77,116.72C27.82,116.73 27.86,116.75 27.91,116.76C27.96,116.77 28.01,116.77 28.06,116.78C28.11,116.79 28.15,116.79 28.2,116.8C28.25,116.8 28.29,116.81 28.34,116.81C28.39,116.81 28.44,116.82 28.49,116.82C28.54,116.82 28.58,116.83 28.63,116.83C28.68,116.83 28.72,116.84 28.77,116.84C28.82,116.84 28.86,116.84 28.91,116.84C28.96,116.84 29.01,116.84 29.06,116.84C29.11,116.84 29.15,116.84 29.2,116.84C29.25,116.84 29.29,116.85 29.34,116.85C29.39,116.85 29.44,116.85 29.49,116.85C29.54,116.85 29.58,116.85 29.63,116.85C29.68,116.85 29.72,116.85 29.77,116.85C29.82,116.85 29.87,116.85 29.92,116.85C29.97,116.85 30.01,116.85 30.06,116.85C30.11,116.85 30.15,116.85 30.2,116.85C30.25,116.85 30.3,116.85 30.35,116.85C30.4,116.85 30.44,116.85 30.49,116.85C30.54,116.85 30.58,116.85 30.63,116.85C30.68,116.85 30.73,116.85 30.78,116.85C30.83,116.85 30.87,116.85 30.92,116.85C30.97,116.85 31.01,116.85 31.06,116.85C31.11,116.85 31.16,116.85 31.21,116.85C31.26,116.85 31.3,116.85 31.35,116.85C31.4,116.85 31.44,116.85 31.49,116.85C31.54,116.85 31.58,116.85 31.63,116.85C31.68,116.85 31.73,116.85 31.78,116.85C31.83,116.85 31.87,116.85 31.92,116.85C31.97,116.85 32.01,116.85 32.06,116.85C32.11,116.85 32.16,116.85 32.21,116.85C32.26,116.85 32.3,116.85 32.35,116.85C32.4,116.85 32.44,116.85 32.49,116.85C32.54,116.85 32.59,116.85 32.64,116.85C32.69,116.85 32.73,116.85 32.78,116.85C32.83,116.85 32.87,116.85 32.92,116.85C32.97,116.85 33.02,116.85 33.07,116.85C33.12,116.85 33.16,116.85 33.21,116.85C33.26,116.85 33.3,116.85 33.35,116.85C33.4,116.85 33.45,116.85 33.5,116.85C33.55,116.85 33.59,116.85 33.64,116.85C33.69,116.85 33.73,116.85 33.78,116.85C33.83,116.85 33.87,116.85 33.92,116.85C33.97,116.85 34.02,116.85 34.07,116.85C34.12,116.85 34.16,116.85 34.21,116.85C34.26,116.85 34.3,116.85 34.35,116.85C34.4,116.85 34.45,116.85 34.5,116.85C34.55,116.85 34.59,116.85 34.64,116.85C34.69,116.85 34.73,116.85 34.78,116.85C34.83,116.85 34.88,116.85 34.93,116.85C34.98,116.85 35.02,116.85 35.07,116.85C35.12,116.85 35.16,116.85 35.21,116.85C35.26,116.85 35.31,116.85 35.36,116.85C35.41,116.85 35.45,116.85 35.5,116.85C35.55,116.85 35.59,116.85 35.64,116.85C35.69,116.85 35.74,116.85 35.79,116.85C35.84,116.85 35.88,116.85 35.93,116.85C35.98,116.85 36.02,116.85 36.07,116.85C36.12,116.85 36.17,116.85 36.22,116.85C36.27,116.85 36.31,116.85 36.36,116.85C36.41,116.85 36.45,116.85 36.5,116.85C36.55,116.85 36.59,116.85 36.64,116.85C36.69,116.85 36.74,116.85 36.79,116.85C36.84,116.85 36.88,116.85 36.93,116.85C36.98,116.85 37.02,116.85 37.07,116.85C37.12,116.85 37.17,116.85 37.22,116.85C37.27,116.85 37.31,116.85 37.36,116.85C37.41,116.85 37.45,116.85 37.5,116.85C37.55,116.85 37.6,116.85 37.65,116.85C37.7,116.85 37.74,116.85 37.79,116.85C37.84,116.85 37.88,116.85 37.93,116.85C37.98,116.85 38.03,116.85 38.08,116.85C38.13,116.85 38.17,116.85 38.22,116.85C38.27,116.85 38.31,116.85 38.36,116.85C38.41,116.85 38.46,116.85 38.51,116.85C38.56,116.85 38.6,116.85 38.65,116.85C38.7,116.85 38.74,116.85 38.79,116.85C38.84,116.85 38.88,116.85 38.93,116.85C38.98,116.85 39.03,116.85 39.08,116.85C39.13,116.85 39.17,116.85 39.22,116.85C39.27,116.85 39.31,116.85 39.36,116.85C39.41,116.85 39.46,116.85 39.51,116.85C39.56,116.85 39.6,116.85 39.65,116.85C39.7,116.85 39.74,116.85 39.79,116.85C39.84,116.85 39.89,116.85 39.94,116.85C39.99,116.85 40.03,116.85 40.08,116.85C40.13,116.85 40.17,116.85 40.22,116.85C40.27,116.85 40.32,116.85 40.37,116.85C40.42,116.85 40.46,116.85 40.51,116.85C40.56,116.85 40.6,116.85 40.65,116.85C40.7,116.85 40.75,116.85 40.8,116.85C40.85,116.85 40.89,116.85 40.94,116.85C40.99,116.85 41.03,116.85 41.08,116.85C41.13,116.85 41.18,116.85 41.23,116.85C41.28,116.85 41.32,116.85 41.37,116.85C41.42,116.85 41.46,116.85 41.51,116.85C41.56,116.85 41.6,116.85 41.65,116.85C41.7,116.85 41.75,116.85 41.8,116.85C41.85,116.85 41.89,116.85 41.94,116.85C41.99,116.85 42.03,116.85 42.08,116.85C42.13,116.85 42.18,116.85 42.23,116.85C42.28,116.85 42.32,116.85 42.37,116.85C42.42,116.85 42.46,116.85 42.51,116.85C42.56,116.85 42.61,116.85 42.66,116.85C42.71,116.85 42.75,116.85 42.8,116.85C42.85,116.85 42.89,116.85 42.94,116.85C42.99,116.85 43.04,116.85 43.09,116.85C43.14,116.85 43.18,116.85 43.23,116.85C43.28,116.85 43.32,116.85 43.37,116.85C43.42,116.85 43.47,116.85 43.52,116.85C43.57,116.85 43.61,116.85 43.66,116.85C43.71,116.85 43.75,116.85 43.8,116.85C43.85,116.85 43.89,116.85 43.94,116.85C43.99,116.85 44.04,116.85 44.09,116.85C44.14,116.85 44.18,116.85 44.23,116.85C44.28,116.85 44.32,116.85 44.37,116.85C44.42,116.85 44.47,116.85 44.52,116.85C44.57,116.85 44.61,116.85 44.66,116.85C44.71,116.85 44.75,116.85 44.8,116.85C44.85,116.85 44.9,116.85 44.95,116.85C45,116.85 45.04,116.85 45.09,116.85C45.14,116.85 45.18,116.85 45.23,116.85C45.28,116.85 45.33,116.85 45.38,116.85C45.43,116.85 45.47,116.85 45.52,116.85C45.57,116.85 45.61,116.85 45.66,116.85C45.71,116.85 45.76,116.85 45.81,116.85C45.86,116.85 45.9,116.85 45.95,116.85C46,116.85 46.04,116.85 46.09,116.85C46.14,116.85 46.19,116.85 46.24,116.85C46.29,116.85 46.33,116.85 46.38,116.85C46.43,116.85 46.47,116.85 46.52,116.85C46.57,116.85 46.61,116.85 46.66,116.85C46.71,116.85 46.76,116.85 46.81,116.85C46.86,116.85 46.9,116.85 46.95,116.85C47,116.85 47.04,116.85 47.09,116.85C47.14,116.85 47.19,116.85 47.24,116.85C47.29,116.85 47.33,116.85 47.38,116.85C47.43,116.85 47.47,116.85 47.52,116.85C47.57,116.85 47.62,116.85 47.67,116.85C47.72,116.85 47.76,116.85 47.81,116.85C47.86,116.85 47.9,116.85 47.95,116.85C48,116.85 48.05,116.85 48.1,116.85C48.15,116.85 48.19,116.85 48.24,116.85C48.29,116.85 48.33,116.85 48.38,116.85C48.43,116.85 48.48,116.85 48.53,116.85C48.58,116.85 48.62,116.85 48.67,116.85C48.72,116.85 48.76,116.85 48.81,116.85C48.86,116.85 48.9,116.85 48.95,116.85C49,116.85 49.05,116.85 49.1,116.85C49.15,116.85 49.19,116.85 49.24,116.85C49.29,116.85 49.33,116.85 49.38,116.85C49.43,116.85 49.48,116.85 49.53,116.85C49.58,116.85 49.62,116.85 49.67,116.85C49.72,116.85 49.76,116.85 49.81,116.85C49.86,116.85 49.91,116.85 49.96,116.85C50.01,116.85 50.05,116.85 50.1,116.85C50.15,116.85 50.19,116.85 50.24,116.85C50.29,116.85 50.34,116.85 50.39,116.85C50.44,116.85 50.48,116.85 50.53,116.85C50.58,116.85 50.62,116.85 50.67,116.85C50.72,116.85 50.77,116.85 50.82,116.85C50.87,116.85 50.91,116.85 50.96,116.85C51.01,116.85 51.05,116.85 51.1,116.85C51.15,116.85 51.2,116.85 51.25,116.85C51.3,116.85 51.34,116.85 51.39,116.85C51.44,116.85 51.48,116.85 51.53,116.85C51.58,116.85 51.62,116.85 51.67,116.85C51.72,116.85 51.77,116.85 51.82,116.85C51.87,116.85 51.91,116.85 51.96,116.85C52.01,116.85 52.05,116.85 52.1,116.85C52.15,116.85 52.2,116.85 52.25,116.85C52.3,116.85 52.34,116.85 52.39,116.85C52.44,116.85 52.48,116.85 52.53,116.85C52.58,116.85 52.63,116.85 52.68,116.85C52.73,116.85 52.77,116.85 52.82,116.85C52.87,116.85 52.91,116.85 52.96,116.85C53.01,116.85 53.06,116.85 53.11,116.85C53.16,116.85 53.2,116.85 53.25,116.85C53.3,116.85 53.34,116.85 53.39,116.85C53.44,116.85 53.49,116.85 53.54,116.85C53.59,116.85 53.63,116.85 53.68,116.85C53.73,116.85 53.77,116.85 53.82,116.85C53.87,116.85 53.91,116.85 53.96,116.85C54.01,116.85 54.06,116.85 54.11,116.85C54.16,116.85 54.2,116.85 54.25,116.85C54.3,116.85 54.34,116.85 54.39,116.85C54.44,116.85 54.49,116.85 54.54,116.85C54.59,116.85 54.63,116.85 54.68,116.85C54.73,116.85 54.77,116.85 54.82,116.85C54.87,116.85 54.92,116.85 54.97,116.85C55.02,116.85 55.06,116.85 55.11,116.85C55.16,116.85 55.2,116.85 55.25,116.85C55.3,116.85 55.35,116.85 55.4,116.85C55.45,116.85 55.49,116.85 55.54,116.85C55.59,116.85 55.63,116.85 55.68,116.85C55.73,116.85 55.78,116.85 55.83,116.85C55.88,116.85 55.92,116.85 55.97,116.85C56.02,116.85 56.06,116.85 56.11,116.85C56.16,116.85 56.21,116.85 56.26,116.85C56.31,116.85 56.35,116.85 56.4,116.85C56.45,116.85 56.49,116.85 56.54,116.85C56.59,116.85 56.63,116.85 56.68,116.85C56.73,116.85 56.78,116.85 56.83,116.85C56.88,116.85 56.92,116.85 56.97,116.85C57.02,116.85 57.06,116.85 57.11,116.85C57.16,116.85 57.21,116.85 57.26,116.85C57.31,116.85 57.35,116.85 57.4,116.85C57.45,116.85 57.49,116.85 57.54,116.85C57.59,116.85 57.64,116.85 57.69,116.85C57.74,116.85 57.78,116.85 57.83,116.85C57.88,116.85 57.92,116.85 57.97,116.85C58.02,116.85 58.07,116.85 58.12,116.85C58.17,116.85 58.21,116.85 58.26,116.85C58.31,116.85 58.35,116.85 58.4,116.85C58.45,116.85 58.5,116.85 58.55,116.85C58.6,116.85 58.64,116.85 58.69,116.85C58.74,116.85 58.78,116.85 58.83,116.85C58.88,116.85 58.92,116.85 58.97,116.85C59.02,116.85 59.07,116.85 59.12,116.85C59.17,116.85 59.21,116.85 59.26,116.85C59.31,116.85 59.35,116.85 59.4,116.85C59.45,116.85 59.5,116.85 59.55,116.85C59.6,116.85 59.64,116.85 59.69,116.85C59.74,116.85 59.78,116.85 59.83,116.85C59.88,116.85 59.93,116.85 59.98,116.85C60.03,116.85 60.07,116.85 60.12,116.85C60.17,116.85 60.21,116.85 60.26,116.85C60.31,116.85 60.36,116.85 60.41,116.85C60.46,116.85 60.5,116.85 60.55,116.85C60.6,116.85 60.64,116.85 60.69,116.85C60.74,116.85 60.79,116.85 60.84,116.85C60.89,116.85 60.93,116.85 60.98,116.85C61.03,116.85 61.07,116.85 61.12,116.85C61.17,116.85 61.22,116.85 61.27,116.85C61.32,116.85 61.36,116.85 61.41,116.85C61.46,116.85 61.5,116.85 61.55,116.85C61.6,116.85 61.64,116.85 61.69,116.85C61.74,116.85 61.79,116.85 61.84,116.85C61.89,116.85 61.93,116.85 61.98,116.85C62.03,116.85 62.07,116.85 62.12,116.85C62.17,116.85 62.22,116.85 62.27,116.85C62.32,116.85 62.36,116.85 62.41,116.85C62.46,116.85 62.5,116.85 62.55,116.85C62.6,116.85 62.65,116.85 62.7,116.85C62.75,116.85 62.79,116.85 62.84,116.85C62.89,116.85 62.93,116.85 62.98,116.85C63.03,116.85 63.08,116.85 63.13,116.85C63.18,116.85 63.22,116.85 63.27,116.85C63.32,116.85 63.36,116.85 63.41,116.85C63.46,116.85 63.51,116.85 63.56,116.85C63.61,116.85 63.65,116.85 63.7,116.85C63.75,116.85 63.79,116.85 63.84,116.85C63.89,116.85 63.93,116.85 63.98,116.85C64.03,116.85 64.08,116.85 64.13,116.85C64.18,116.85 64.22,116.85 64.27,116.85C64.32,116.85 64.36,116.85 64.41,116.85C64.46,116.85 64.51,116.85 64.56,116.85C64.61,116.85 64.65,116.85 64.7,116.85C64.75,116.85 64.79,116.85 64.84,116.85C64.89,116.85 64.94,116.85 64.99,116.85C65.04,116.85 65.08,116.85 65.13,116.85C65.18,116.85 65.22,116.85 65.27,116.85C65.32,116.85 65.37,116.85 65.42,116.85C65.47,116.85 65.51,116.85 65.56,116.85C65.61,116.85 65.65,116.85 65.7,116.85C65.75,116.85 65.8,116.85 65.85,116.85C65.9,116.85 65.94,116.85 65.99,116.85C66.04,116.85 66.08,116.85 66.13,116.85C66.18,116.85 66.23,116.85 66.28,116.85C66.33,116.85 66.37,116.85 66.42,116.85C66.47,116.85 66.51,116.85 66.56,116.85C66.61,116.85 66.65,116.85 66.7,116.85C66.75,116.85 66.8,116.85 66.85,116.85C66.9,116.85 66.94,116.85 66.99,116.85C67.04,116.85 67.08,116.85 67.13,116.85C67.18,116.85 67.23,116.85 67.28,116.85C67.33,116.85 67.37,116.85 67.42,116.85C67.47,116.85 67.51,116.85 67.56,116.85C67.61,116.85 67.66,116.85 67.71,116.85C67.76,116.85 67.8,116.85 67.85,116.85C67.9,116.85 67.94,116.85 67.99,116.85C68.04,116.85 68.09,116.85 68.14,116.85C68.19,116.85 68.23,116.85 68.28,116.85C68.33,116.85 68.37,116.85 68.42,116.85C68.47,116.85 68.52,116.85 68.57,116.85C68.62,116.85 68.66,116.85 68.71,116.85C68.76,116.85 68.8,116.85 68.85,116.85C68.9,116.85 68.94,116.85 68.99,116.85C69.04,116.85 69.09,116.85 69.14,116.85C69.19,116.85 69.23,116.85 69.28,116.85C69.33,116.85 69.37,116.85 69.42,116.85C69.47,116.85 69.52,116.85 69.57,116.85C69.62,116.85 69.66,116.85 69.71,116.85C69.76,116.85 69.8,116.85 69.85,116.85C69.9,116.85 69.95,116.85 70,116.85C70.05,116.85 70.09,116.85 70.14,116.85C70.19,116.85 70.23,116.85 70.28,116.85C70.33,116.85 70.38,116.85 70.43,116.85C70.48,116.85 70.52,116.85 70.57,116.85C70.62,116.85 70.66,116.85 70.71,116.85C70.76,116.85 70.81,116.85 70.86,116.85C70.91,116.85 70.95,116.85 71,116.85C71.05,116.85 71.09,116.85 71.14,116.85C71.19,116.85 71.24,116.85 71.29,116.85C71.34,116.85 71.38,116.85 71.43,116.85C71.48,116.85 71.52,116.85 71.57,116.85C71.62,116.85 71.66,116.85 71.71,116.85C71.76,116.85 71.81,116.85 71.86,116.85C71.91,116.85 71.95,116.85 72,116.85C72.05,116.85 72.09,116.85 72.14,116.85C72.19,116.85 72.24,116.85 72.29,116.85C72.34,116.85 72.38,116.85 72.43,116.85C72.48,116.85 72.52,116.85 72.57,116.85C72.62,116.85 72.67,116.85 72.72,116.85C72.77,116.85 72.81,116.85 72.86,116.85C72.91,116.85 72.95,116.85 73,116.85C73.05,116.85 73.1,116.85 73.15,116.85C73.2,116.85 73.24,116.85 73.29,116.85C73.34,116.85 73.38,116.85 73.43,116.85C73.48,116.85 73.53,116.85 73.58,116.85C73.63,116.85 73.67,116.85 73.72,116.85C73.77,116.85 73.81,116.85 73.86,116.85C73.91,116.85 73.96,116.85 74.01,116.85C74.06,116.85 74.1,116.85 74.15,116.85C74.2,116.85 74.24,116.85 74.29,116.85C74.34,116.85 74.38,116.85 74.43,116.85C74.48,116.85 74.53,116.85 74.58,116.85C74.63,116.85 74.67,116.85 74.72,116.85C74.77,116.85 74.81,116.85 74.86,116.85C74.91,116.85 74.96,116.85 75.01,116.85C75.06,116.85 75.1,116.85 75.15,116.85C75.2,116.85 75.24,116.85 75.29,116.85C75.34,116.85 75.39,116.85 75.44,116.85C75.49,116.85 75.53,116.85 75.58,116.85C75.63,116.85 75.67,116.85 75.72,116.85C75.77,116.85 75.82,116.85 75.87,116.85C75.92,116.85 75.96,116.85 76.01,116.85C76.06,116.85 76.1,116.85 76.15,116.85C76.2,116.85 76.25,116.85 76.3,116.85C76.35,116.85 76.39,116.85 76.44,116.85C76.49,116.85 76.53,116.85 76.58,116.85C76.63,116.85 76.67,116.85 76.72,116.85C76.77,116.85 76.82,116.85 76.87,116.85C76.92,116.85 76.96,116.85 77.01,116.85C77.06,116.85 77.1,116.85 77.15,116.85C77.2,116.85 77.25,116.85 77.3,116.85C77.35,116.85 77.39,116.85 77.44,116.85C77.49,116.85 77.53,116.85 77.58,116.85C77.63,116.85 77.68,116.85 77.73,116.85C77.78,116.85 77.82,116.85 77.87,116.85C77.92,116.85 77.96,116.85 78.01,116.85C78.06,116.85 78.11,116.85 78.16,116.85C78.21,116.85 78.25,116.85 78.3,116.85C78.35,116.85 78.39,116.85 78.44,116.85C78.49,116.85 78.54,116.85 78.59,116.85C78.64,116.85 78.68,116.85 78.73,116.85C78.78,116.85 78.82,116.85 78.87,116.85C78.92,116.85 78.97,116.85 79.02,116.85C79.07,116.85 79.11,116.85 79.16,116.85C79.21,116.85 79.25,116.85 79.3,116.85C79.35,116.85 79.39,116.85 79.44,116.85C79.49,116.85 79.54,116.85 79.59,116.85C79.64,116.85 79.68,116.85 79.73,116.85C79.78,116.85 79.82,116.85 79.87,116.85C79.92,116.85 79.97,116.85 80.02,116.85C80.07,116.85 80.11,116.85 80.16,116.85C80.21,116.85 80.25,116.85 80.3,116.85C80.35,116.85 80.4,116.85 80.45,116.85C80.5,116.85 80.54,116.85 80.59,116.85C80.64,116.85 80.68,116.85 80.73,116.85C80.78,116.85 80.83,116.85 80.88,116.85C80.93,116.85 80.97,116.85 81.02,116.85C81.07,116.85 81.11,116.85 81.16,116.85C81.21,116.85 81.26,116.85 81.31,116.85C81.36,116.85 81.4,116.85 81.45,116.85C81.5,116.85 81.54,116.85 81.59,116.85C81.64,116.85 81.68,116.85 81.73,116.85C81.78,116.85 81.83,116.85 81.88,116.85C81.93,116.85 81.97,116.85 82.02,116.85C82.07,116.85 82.11,116.85 82.16,116.85C82.21,116.85 82.26,116.85 82.31,116.85C82.36,116.85 82.4,116.85 82.45,116.85C82.5,116.85 82.54,116.85 82.59,116.85C82.64,116.85 82.69,116.85 82.74,116.85C82.79,116.85 82.83,116.85 82.88,116.85C82.93,116.85 82.97,116.85 83.02,116.85C83.07,116.85 83.12,116.85 83.17,116.85C83.22,116.85 83.26,116.85 83.31,116.85C83.36,116.85 83.4,116.85 83.45,116.85C83.5,116.85 83.55,116.85 83.6,116.85C83.65,116.85 83.69,116.85 83.74,116.85C83.79,116.85 83.83,116.85 83.88,116.85C83.93,116.85 83.98,116.85 84.03,116.85C84.08,116.85 84.12,116.85 84.17,116.85C84.22,116.85 84.26,116.85 84.31,116.85C84.36,116.85 84.4,116.85 84.45,116.85C84.5,116.85 84.55,116.85 84.6,116.85C84.65,116.85 84.69,116.85 84.74,116.85C84.79,116.85 84.83,116.85 84.88,116.85C84.93,116.85 84.98,116.85 85.03,116.85C85.08,116.85 85.12,116.85 85.17,116.85C85.22,116.85 85.26,116.85 85.31,116.85C85.36,116.85 85.41,116.85 85.46,116.85C85.51,116.85 85.55,116.85 85.6,116.85C85.65,116.85 85.69,116.85 85.74,116.85C85.79,116.85 85.84,116.85 85.89,116.85C85.94,116.85 85.98,116.85 86.03,116.85C86.08,116.85 86.12,116.85 86.17,116.85C86.22,116.85 86.27,116.85 86.32,116.85C86.37,116.85 86.41,116.85 86.46,116.85C86.51,116.85 86.55,116.85 86.6,116.85C86.65,116.85 86.69,116.85 86.74,116.85C86.79,116.85 86.84,116.85 86.89,116.85C86.94,116.85 86.98,116.85 87.03,116.85C87.08,116.85 87.12,116.85 87.17,116.85C87.22,116.85 87.27,116.85 87.32,116.85C87.37,116.85 87.41,116.85 87.46,116.85C87.51,116.85 87.55,116.85 87.6,116.85C87.65,116.85 87.7,116.85 87.75,116.85C87.8,116.85 87.84,116.85 87.89,116.85C87.94,116.85 87.98,116.85 88.03,116.85C88.08,116.85 88.13,116.85 88.18,116.85C88.23,116.85 88.27,116.85 88.32,116.85C88.37,116.85 88.41,116.85 88.46,116.85C88.51,116.85 88.56,116.85 88.61,116.85C88.66,116.85 88.7,116.85 88.75,116.85C88.8,116.85 88.84,116.85 88.89,116.85C88.94,116.85 88.99,116.85 89.04,116.85C89.09,116.85 89.13,116.85 89.18,116.85C89.23,116.85 89.27,116.85 89.32,116.85C89.37,116.85 89.41,116.85 89.46,116.85C89.51,116.85 89.56,116.85 89.61,116.85C89.66,116.85 89.7,116.85 89.75,116.85C89.8,116.85 89.84,116.85 89.89,116.85C89.94,116.85 89.99,116.85 90.04,116.85C90.09,116.85 90.13,116.85 90.18,116.85C90.23,116.85 90.27,116.85 90.32,116.85C90.37,116.85 90.42,116.85 90.47,116.85C90.52,116.85 90.56,116.85 90.61,116.85C90.66,116.85 90.7,116.85 90.75,116.85C90.8,116.85 90.85,116.85 90.9,116.85C90.95,116.85 90.99,116.85 91.04,116.85C91.09,116.85 91.13,116.85 91.18,116.85C91.23,116.85 91.28,116.85 91.33,116.85C91.38,116.85 91.42,116.85 91.47,116.85C91.52,116.85 91.56,116.85 91.61,116.85C91.66,116.85 91.7,116.85 91.75,116.85C91.8,116.85 91.85,116.85 91.9,116.85C91.95,116.85 91.99,116.85 92.04,116.85C92.09,116.85 92.13,116.85 92.18,116.85C92.23,116.85 92.28,116.85 92.33,116.85C92.38,116.85 92.42,116.85 92.47,116.85C92.52,116.85 92.56,116.85 92.61,116.85C92.66,116.85 92.71,116.85 92.76,116.85C92.81,116.85 92.85,116.85 92.9,116.85C92.95,116.85 92.99,116.85 93.04,116.85C93.09,116.85 93.14,116.85 93.19,116.85C93.24,116.85 93.28,116.85 93.33,116.85C93.38,116.85 93.42,116.85 93.47,116.85C93.52,116.85 93.57,116.85 93.62,116.85C93.67,116.85 93.71,116.85 93.76,116.85C93.81,116.85 93.85,116.85 93.9,116.85C93.95,116.85 94,116.85 94.05,116.85C94.1,116.85 94.14,116.85 94.19,116.85C94.24,116.85 94.28,116.85 94.33,116.85C94.38,116.85 94.42,116.85 94.47,116.85C94.52,116.85 94.57,116.85 94.62,116.85C94.67,116.85 94.71,116.85 94.76,116.85C94.81,116.85 94.85,116.85 94.9,116.85C94.95,116.85 95,116.85 95.05,116.85C95.1,116.85 95.14,116.85 95.19,116.85C95.24,116.85 95.28,116.85 95.33,116.85C95.38,116.85 95.43,116.85 95.48,116.85C95.53,116.85 95.57,116.85 95.62,116.85C95.67,116.85 95.71,116.85 95.76,116.85C95.81,116.85 95.86,116.85 95.91,116.85C95.96,116.85 96,116.85 96.05,116.85C96.1,116.85 96.14,116.85 96.19,116.85C96.24,116.85 96.29,116.85 96.34,116.85C96.39,116.85 96.43,116.85 96.48,116.85C96.53,116.85 96.57,116.85 96.62,116.85C96.67,116.85 96.71,116.85 96.76,116.85C96.81,116.85 96.86,116.85 96.91,116.85C96.96,116.85 97,116.85 97.05,116.85C97.1,116.85 97.14,116.85 97.19,116.85C97.24,116.85 97.29,116.85 97.34,116.85C97.39,116.85 97.43,116.85 97.48,116.85C97.53,116.85 97.57,116.85 97.62,116.85C97.67,116.85 97.72,116.85 97.77,116.85C97.82,116.85 97.86,116.85 97.91,116.85C97.96,116.85 98,116.85 98.05,116.85C98.1,116.85 98.15,116.85 98.2,116.85C98.25,116.85 98.29,116.85 98.34,116.85C98.39,116.85 98.43,116.85 98.48,116.85C98.53,116.85 98.58,116.85 98.63,116.85C98.68,116.85 98.72,116.85 98.77,116.85C98.82,116.85 98.86,116.85 98.91,116.85C98.96,116.85 99.01,116.85 99.06,116.85C99.11,116.85 99.15,116.85 99.2,116.85C99.25,116.85 99.29,116.85 99.34,116.85C99.39,116.85 99.43,116.85 99.48,116.85C99.53,116.85 99.58,116.85 99.63,116.85C99.68,116.85 99.72,116.85 99.77,116.85C99.82,116.85 99.86,116.85 99.91,116.85C99.96,116.85 100.01,116.85 100.06,116.85C100.11,116.85 100.15,116.85 100.2,116.85C100.25,116.85 100.29,116.85 100.34,116.85C100.39,116.85 100.44,116.85 100.49,116.85C100.54,116.85 100.58,116.85 100.63,116.85C100.68,116.85 100.72,116.85 100.77,116.85C100.82,116.85 100.87,116.85 100.92,116.85C100.97,116.85 101.01,116.85 101.06,116.85C101.11,116.85 101.15,116.85 101.2,116.85C101.25,116.85 101.3,116.85 101.35,116.85C101.4,116.85 101.44,116.85 101.49,116.85C101.54,116.85 101.58,116.85 101.63,116.85C101.68,116.85 101.72,116.85 101.77,116.85C101.82,116.85 101.87,116.85 101.92,116.85C101.97,116.85 102.01,116.85 102.06,116.85C102.11,116.85 102.15,116.85 102.2,116.85C102.25,116.85 102.3,116.85 102.35,116.85C102.4,116.85 102.44,116.85 102.49,116.85C102.54,116.85 102.58,116.85 102.63,116.85C102.68,116.85 102.73,116.85 102.78,116.85C102.83,116.85 102.87,116.85 102.92,116.85C102.97,116.85 103.01,116.85 103.06,116.85C103.11,116.85 103.16,116.85 103.21,116.85C103.26,116.85 103.3,116.85 103.35,116.85C103.4,116.85 103.44,116.85 103.49,116.85C103.54,116.85 103.59,116.85 103.64,116.85C103.69,116.85 103.73,116.85 103.78,116.85C103.83,116.85 103.87,116.85 103.92,116.85C103.97,116.85 104.02,116.85 104.07,116.85C104.12,116.85 104.16,116.85 104.21,116.85C104.26,116.85 104.3,116.85 104.35,116.85C104.4,116.85 104.44,116.85 104.49,116.85C104.54,116.85 104.59,116.85 104.64,116.85C104.69,116.85 104.73,116.85 104.78,116.85C104.83,116.85 104.87,116.85 104.92,116.85C104.97,116.85 105.02,116.85 105.07,116.85C105.12,116.85 105.16,116.85 105.21,116.85C105.26,116.85 105.3,116.85 105.35,116.85C105.4,116.85 105.45,116.85 105.5,116.85C105.55,116.85 105.59,116.85 105.64,116.85C105.69,116.85 105.73,116.85 105.78,116.85C105.83,116.85 105.88,116.85 105.93,116.85C105.98,116.85 106.02,116.85 106.07,116.85C106.12,116.85 106.16,116.85 106.21,116.85C106.26,116.85 106.31,116.85 106.36,116.85C106.41,116.85 106.45,116.85 106.5,116.85C106.55,116.85 106.59,116.85 106.64,116.85C106.69,116.85 106.73,116.85 106.78,116.85C106.83,116.85 106.88,116.85 106.93,116.85C106.98,116.85 107.02,116.85 107.07,116.85C107.12,116.85 107.16,116.85 107.21,116.85C107.26,116.85 107.31,116.85 107.36,116.85C107.41,116.85 107.45,116.85 107.5,116.85C107.55,116.85 107.59,116.85 107.64,116.85C107.69,116.85 107.74,116.85 107.79,116.85C107.84,116.85 107.88,116.85 107.93,116.85C107.98,116.85 108.02,116.85 108.07,116.85C108.12,116.85 108.17,116.85 108.22,116.85C108.27,116.85 108.31,116.85 108.36,116.85C108.41,116.85 108.45,116.85 108.5,116.85C108.55,116.85 108.6,116.85 108.65,116.85C108.7,116.85 108.74,116.85 108.79,116.85C108.84,116.85 108.88,116.85 108.93,116.85C108.98,116.85 109.03,116.85 109.08,116.85C109.13,116.85 109.17,116.85 109.22,116.85C109.27,116.85 109.31,116.85 109.36,116.85C109.41,116.85 109.45,116.85 109.5,116.85C109.55,116.85 109.6,116.85 109.65,116.85C109.7,116.85 109.74,116.85 109.79,116.85C109.84,116.85 109.88,116.85 109.93,116.85C109.98,116.85 110.03,116.85 110.08,116.85C110.13,116.85 110.17,116.85 110.22,116.85C110.27,116.85 110.31,116.85 110.36,116.85C110.41,116.85 110.46,116.85 110.51,116.85C110.56,116.85 110.6,116.85 110.65,116.85C110.7,116.85 110.74,116.85 110.79,116.85C110.84,116.85 110.89,116.85 110.94,116.85C110.99,116.85 111.03,116.85 111.08,116.85C111.13,116.85 111.17,116.85 111.22,116.85C111.27,116.85 111.32,116.85 111.37,116.85C111.42,116.85 111.46,116.85 111.51,116.85C111.56,116.85 111.6,116.85 111.65,116.85C111.7,116.85 111.74,116.85 111.79,116.85C111.84,116.85 111.89,116.85 111.94,116.85C111.99,116.85 112.03,116.85 112.08,116.85C112.13,116.85 112.17,116.85 112.22,116.85C112.27,116.85 112.32,116.85 112.37,116.85C112.42,116.85 112.46,116.85 112.51,116.85C112.56,116.85 112.6,116.85 112.65,116.85C112.7,116.85 112.75,116.85 112.8,116.85C112.85,116.85 112.89,116.85 112.94,116.85C112.99,116.85 113.03,116.85 113.08,116.85C113.13,116.85 113.18,116.85 113.23,116.85C113.28,116.85 113.32,116.85 113.37,116.85C113.42,116.85 113.46,116.85 113.51,116.85C113.56,116.85 113.61,116.85 113.66,116.85C113.71,116.85 113.75,116.85 113.8,116.85C113.85,116.85 113.89,116.85 113.94,116.85C113.99,116.85 114.04,116.85 114.09,116.85C114.14,116.85 114.18,116.85 114.23,116.85C114.28,116.85 114.32,116.85 114.37,116.85C114.42,116.85 114.46,116.85 114.51,116.85C114.56,116.85 114.61,116.85 114.66,116.85C114.71,116.85 114.75,116.85 114.8,116.85C114.85,116.85 114.89,116.85 114.94,116.85C114.99,116.85 115.04,116.85 115.09,116.85C115.14,116.85 115.18,116.85 115.23,116.85C115.28,116.85 115.32,116.85 115.37,116.85C115.42,116.85 115.47,116.85 115.52,116.85C115.57,116.85 115.61,116.85 115.66,116.85C115.71,116.85 115.75,116.85 115.8,116.85C115.85,116.85 115.9,116.85 115.95,116.85C116,116.85 116.04,116.85 116.09,116.85C116.14,116.85 116.18,116.85 116.23,116.85C116.28,116.85 116.33,116.85 116.38,116.85C116.43,116.85 116.47,116.85 116.52,116.85C116.57,116.85 116.61,116.85 116.66,116.85C116.71,116.85 116.75,116.85 116.8,116.85C116.85,116.85 116.9,116.85 116.95,116.85C117,116.85 117.04,116.85 117.09,116.85C117.14,116.85 117.18,116.85 117.23,116.85C117.28,116.85 117.33,116.85 117.38,116.85C117.43,116.85 117.47,116.85 117.52,116.85C117.57,116.85 117.61,116.85 117.66,116.85C117.71,116.85 117.76,116.85 117.81,116.85C117.86,116.85 117.9,116.85 117.95,116.85C118,116.85 118.04,116.85 118.09,116.85C118.14,116.85 118.19,116.85 118.24,116.85C118.29,116.85 118.33,116.85 118.38,116.85C118.43,116.85 118.47,116.85 118.52,116.85C118.57,116.85 118.62,116.85 118.67,116.85C118.72,116.85 118.76,116.85 118.81,116.85C118.86,116.85 118.9,116.85 118.95,116.85C119,116.85 119.05,116.85 119.1,116.85C119.15,116.85 119.19,116.85 119.24,116.85C119.29,116.85 119.33,116.85 119.38,116.85C119.43,116.85 119.47,116.85 119.52,116.85C119.57,116.85 119.62,116.85 119.67,116.85C119.72,116.85 119.76,116.85 119.81,116.85C119.86,116.85 119.9,116.85 119.95,116.85C120,116.85 120.05,116.85 120.1,116.85C120.15,116.85 120.19,116.85 120.24,116.85C120.29,116.85 120.33,116.85 120.38,116.85C120.43,116.85 120.48,116.85 120.53,116.85C120.58,116.85 120.62,116.85 120.67,116.85C120.72,116.85 120.76,116.85 120.81,116.85C120.86,116.85 120.91,116.85 120.96,116.85C121.01,116.85 121.05,116.85 121.1,116.85C121.15,116.85 121.19,116.85 121.24,116.85C121.29,116.85 121.34,116.85 121.39,116.85C121.44,116.85 121.48,116.85 121.53,116.85C121.58,116.85 121.62,116.85 121.67,116.85C121.72,116.85 121.76,116.85 121.81,116.85C121.86,116.85 121.91,116.85 121.96,116.85C122.01,116.85 122.05,116.85 122.1,116.85C122.15,116.85 122.19,116.85 122.24,116.85C122.29,116.85 122.34,116.85 122.39,116.85C122.44,116.85 122.48,116.85 122.53,116.85C122.58,116.85 122.62,116.85 122.67,116.85C122.72,116.85 122.77,116.85 122.82,116.85C122.87,116.85 122.91,116.85 122.96,116.85C123.01,116.85 123.05,116.85 123.1,116.85C123.15,116.85 123.2,116.85 123.25,116.85C123.3,116.85 123.34,116.85 123.39,116.85C123.44,116.85 123.48,116.85 123.53,116.85C123.58,116.85 123.63,116.85 123.68,116.85C123.73,116.85 123.77,116.85 123.82,116.85C123.87,116.85 123.91,116.85 123.96,116.85C124.01,116.85 124.06,116.85 124.11,116.85C124.16,116.85 124.2,116.85 124.25,116.85C124.3,116.85 124.34,116.85 124.39,116.85C124.44,116.85 124.48,116.85 124.53,116.85C124.58,116.85 124.63,116.85 124.68,116.85C124.73,116.85 124.77,116.85 124.82,116.85C124.87,116.85 124.91,116.85 124.96,116.85C125.01,116.85 125.06,116.85 125.11,116.85C125.16,116.85 125.2,116.85 125.25,116.85C125.3,116.85 125.34,116.85 125.39,116.85C125.44,116.85 125.49,116.85 125.54,116.85C125.59,116.85 125.63,116.85 125.68,116.85C125.73,116.85 125.77,116.85 125.82,116.85C125.87,116.85 125.92,116.85 125.97,116.85C126.02,116.85 126.06,116.85 126.11,116.85C126.16,116.85 126.2,116.85 126.25,116.85C126.3,116.85 126.35,116.85 126.4,116.85C126.45,116.85 126.49,116.85 126.54,116.85C126.59,116.85 126.63,116.85 126.68,116.85C126.73,116.85 126.77,116.85 126.82,116.85C126.87,116.85 126.92,116.85 126.97,116.85C127.02,116.85 127.06,116.85 127.11,116.85C127.16,116.85 127.2,116.85 127.25,116.85C127.3,116.85 127.35,116.85 127.4,116.85C127.45,116.85 127.49,116.85 127.54,116.85C127.59,116.85 127.63,116.85 127.68,116.85C127.73,116.85 127.78,116.85 127.83,116.85C127.88,116.85 127.92,116.85 127.97,116.85C128.02,116.85 128.06,116.85 128.11,116.85C128.16,116.85 128.21,116.85 128.26,116.85C128.31,116.85 128.35,116.85 128.4,116.85C128.45,116.85 128.49,116.85 128.54,116.85C128.59,116.85 128.64,116.85 128.69,116.85C128.74,116.85 128.78,116.85 128.83,116.85C128.88,116.85 128.92,116.85 128.97,116.85C129.02,116.85 129.07,116.85 129.12,116.85C129.17,116.85 129.21,116.85 129.26,116.85C129.31,116.85 129.35,116.85 129.4,116.85C129.45,116.85 129.49,116.85 129.54,116.85C129.59,116.85 129.64,116.85 129.69,116.85C129.74,116.85 129.78,116.85 129.83,116.85C129.88,116.85 129.92,116.85 129.97,116.85C130.02,116.85 130.07,116.85 130.12,116.85C130.17,116.85 130.21,116.85 130.26,116.85C130.31,116.85 130.35,116.85 130.4,116.85C130.45,116.85 130.5,116.85 130.55,116.85C130.6,116.85 130.64,116.85 130.69,116.85C130.74,116.85 130.78,116.85 130.83,116.85C130.88,116.85 130.93,116.85 130.98,116.85C131.03,116.85 131.07,116.85 131.12,116.85C131.17,116.85 131.21,116.85 131.26,116.85C131.31,116.85 131.36,116.85 131.41,116.85C131.46,116.85 131.5,116.85 131.55,116.85C131.6,116.85 131.64,116.85 131.69,116.85C131.74,116.85 131.78,116.85 131.83,116.85C131.88,116.85 131.93,116.85 131.98,116.85C132.03,116.85 132.07,116.85 132.12,116.85C132.17,116.85 132.21,116.85 132.26,116.85C132.31,116.85 132.36,116.85 132.41,116.85C132.46,116.85 132.5,116.85 132.55,116.85C132.6,116.85 132.64,116.85 132.69,116.85C132.74,116.85 132.79,116.85 132.84,116.85C132.89,116.85 132.93,116.85 132.98,116.85C133.03,116.85 133.07,116.85 133.12,116.85C133.17,116.85 133.22,116.85 133.27,116.85C133.32,116.85 133.36,116.85 133.41,116.85C133.46,116.85 133.5,116.85 133.55,116.85C133.6,116.85 133.65,116.85 133.7,116.85C133.75,116.85 133.79,116.85 133.84,116.85C133.89,116.85 133.93,116.85 133.98,116.85C134.03,116.85 134.08,116.85 134.13,116.85C134.18,116.85 134.22,116.85 134.27,116.85C134.32,116.85 134.36,116.85 134.41,116.85C134.46,116.85 134.5,116.85 134.55,116.85C134.6,116.85 134.65,116.85 134.7,116.85C134.75,116.85 134.79,116.85 134.84,116.85C134.89,116.85 134.93,116.85 134.98,116.85C135.03,116.85 135.08,116.85 135.13,116.85C135.18,116.85 135.22,116.85 135.27,116.85C135.32,116.85 135.36,116.85 135.41,116.85C135.46,116.85 135.51,116.85 135.56,116.85C135.61,116.85 135.65,116.85 135.7,116.85C135.75,116.85 135.79,116.85 135.84,116.85C135.89,116.85 135.94,116.85 135.99,116.85C136.04,116.85 136.08,116.85 136.13,116.85C136.18,116.85 136.22,116.85 136.27,116.85C136.32,116.85 136.37,116.85 136.42,116.85C136.47,116.85 136.51,116.85 136.56,116.85C136.61,116.85 136.65,116.85 136.7,116.85C136.75,116.85 136.79,116.85 136.84,116.85C136.89,116.85 136.94,116.85 136.99,116.85C137.04,116.85 137.08,116.85 137.13,116.85C137.18,116.85 137.22,116.85 137.27,116.85C137.32,116.85 137.37,116.85 137.42,116.85C137.47,116.85 137.51,116.85 137.56,116.85C137.61,116.85 137.65,116.85 137.7,116.85C137.75,116.85 137.8,116.85 137.85,116.85C137.9,116.85 137.94,116.85 137.99,116.85C138.04,116.85 138.08,116.85 138.13,116.85C138.18,116.85 138.23,116.85 138.28,116.85C138.33,116.85 138.37,116.85 138.42,116.85C138.47,116.85 138.51,116.85 138.56,116.85C138.61,116.85 138.66,116.85 138.71,116.85C138.76,116.85 138.8,116.85 138.85,116.85C138.9,116.85 138.94,116.85 138.99,116.85C139.04,116.85 139.09,116.85 139.14,116.85C139.19,116.85 139.23,116.85 139.28,116.85C139.33,116.85 139.37,116.85 139.42,116.85C139.47,116.85 139.51,116.85 139.56,116.85C139.61,116.85 139.66,116.85 139.71,116.85C139.76,116.85 139.8,116.85 139.85,116.85C139.9,116.85 139.94,116.85 139.99,116.85C140.04,116.85 140.09,116.85 140.14,116.85C140.19,116.85 140.23,116.85 140.28,116.85C140.33,116.85 140.37,116.85 140.42,116.85C140.47,116.85 140.52,116.85 140.57,116.85C140.62,116.85 140.66,116.85 140.71,116.85C140.76,116.85 140.8,116.85 140.85,116.85C140.9,116.85 140.95,116.85 141,116.85C141.05,116.85 141.09,116.85 141.14,116.85C141.19,116.85 141.23,116.85 141.28,116.85C141.33,116.85 141.38,116.85 141.43,116.85C141.48,116.85 141.52,116.85 141.57,116.85C141.62,116.85 141.66,116.85 141.71,116.85C141.76,116.85 141.8,116.85 141.85,116.85C141.9,116.85 141.95,116.85 142,116.85C142.05,116.85 142.09,116.85 142.14,116.85C142.19,116.85 142.23,116.85 142.28,116.85C142.33,116.85 142.38,116.85 142.43,116.85C142.48,116.85 142.52,116.85 142.57,116.85C142.62,116.85 142.66,116.85 142.71,116.85C142.76,116.85 142.81,116.85 142.86,116.85Q142.91,116.85 143,116.85" style="vector-effect: none; fill: none; stroke: rgb(0, 0, 0); stroke-opacity: 1; stroke-width: 1.5px; opacity: 1;"/></g><g class="points"/><g class="text"/></g></g></g></g><g class="zerolinelayer-above"/><path class="xlines-above crisp" d="M36.5,133.25H180.5M36.5,9.75H180.5" style="fill: none; stroke-width: 0.5px; stroke: rgb(0, 0, 0); stroke-opacity: 1;"/><path class="ylines-above crisp" d="M36.75,10V133M180.25,10V133" style="fill: none; stroke-width: 0.5px; stroke: rgb(0, 0, 0); stroke-opacity: 1;"/><g class="overlines-above"/><g class="xaxislayer-above"><path class="xtick ticks crisp" d="M0,133v-5" transform="translate(66.78999999999999,0)" style="stroke: rgb(0, 0, 0); stroke-opacity: 1; stroke-width: 0.5px;"/><path class="xtick ticks crisp" d="M0,133v-5" transform="translate(96.58,0)" style="stroke: rgb(0, 0, 0); stroke-opacity: 1; stroke-width: 0.5px;"/><path class="xtick ticks crisp" d="M0,133v-5" transform="translate(126.38,0)" style="stroke: rgb(0, 0, 0); stroke-opacity: 1; stroke-width: 0.5px;"/><path class="xtick ticks crisp" d="M0,133v-5" transform="translate(156.17000000000002,0)" style="stroke: rgb(0, 0, 0); stroke-opacity: 1; stroke-width: 0.5px;"/><g class="xtick"><text text-anchor="middle" x="0" y="146.7" transform="translate(37,0)" style="font-family: 'Open Sans', verdana, arial, sans-serif; font-size: 11px; fill: rgb(0, 0, 0); fill-opacity: 1; white-space: pre;">0</text></g><g class="xtick"><text text-anchor="middle" x="0" y="146.7" style="font-family: 'Open Sans', verdana, arial, sans-serif; font-size: 11px; fill: rgb(0, 0, 0); fill-opacity: 1; white-space: pre;" transform="translate(66.78999999999999,0)">5</text></g><g class="xtick"><text text-anchor="middle" x="0" y="146.7" style="font-family: 'Open Sans', verdana, arial, sans-serif; font-size: 11px; fill: rgb(0, 0, 0); fill-opacity: 1; white-space: pre;" transform="translate(96.58,0)">10</text></g><g class="xtick"><text text-anchor="middle" x="0" y="146.7" style="font-family: 'Open Sans', verdana, arial, sans-serif; font-size: 11px; fill: rgb(0, 0, 0); fill-opacity: 1; white-space: pre;" transform="translate(126.38,0)">15</text></g><g class="xtick"><text text-anchor="middle" x="0" y="146.7" style="font-family: 'Open Sans', verdana, arial, sans-serif; font-size: 11px; fill: rgb(0, 0, 0); fill-opacity: 1; white-space: pre;" transform="translate(156.17000000000002,0)">20</text></g></g><g class="yaxislayer-above"><path class="ytick ticks crisp" d="M37,0h5" transform="translate(0,126.85)" style="stroke: rgb(0, 0, 0); stroke-opacity: 1; stroke-width: 0.5px;"/><path class="ytick ticks crisp" d="M37,0h5" transform="translate(0,97.17)" style="stroke: rgb(0, 0, 0); stroke-opacity: 1; stroke-width: 0.5px;"/><path class="ytick ticks crisp" d="M37,0h5" transform="translate(0,67.49000000000001)" style="stroke: rgb(0, 0, 0); stroke-opacity: 1; stroke-width: 0.5px;"/><path class="ytick ticks crisp" d="M37,0h5" transform="translate(0,37.82)" style="stroke: rgb(0, 0, 0); stroke-opacity: 1; stroke-width: 0.5px;"/><g class="ytick"><text text-anchor="end" x="34.3" y="3.8499999999999996" transform="translate(0,126.85)" style="font-family: 'Open Sans', verdana, arial, sans-serif; font-size: 11px; fill: rgb(0, 0, 0); fill-opacity: 1; white-space: pre;">0</text></g><g class="ytick"><text text-anchor="end" x="34.3" y="3.8499999999999996" style="font-family: 'Open Sans', verdana, arial, sans-serif; font-size: 11px; fill: rgb(0, 0, 0); fill-opacity: 1; white-space: pre;" transform="translate(0,97.17)">0.0005</text></g><g class="ytick"><text text-anchor="end" x="34.3" y="3.8499999999999996" style="font-family: 'Open Sans', verdana, arial, sans-serif; font-size: 11px; fill: rgb(0, 0, 0); fill-opacity: 1; white-space: pre;" transform="translate(0,67.49000000000001)">0.001</text></g><g class="ytick"><text text-anchor="end" x="34.3" y="3.8499999999999996" style="font-family: 'Open Sans', verdana, arial, sans-serif; font-size: 11px; fill: rgb(0, 0, 0); fill-opacity: 1; white-space: pre;" transform="translate(0,37.82)">0.0015</text></g></g><g class="overaxes-above"/></g></g><g class="polarlayer"/><g class="smithlayer"/><g class="ternarylayer"/><g class="geolayer"/><g class="funnelarealayer"/><g class="pielayer"/><g class="iciclelayer"/><g class="treemaplayer"/><g class="sunburstlayer"/><g class="glimages"/><defs id="topdefs-05dff8"><g class="clips"/></defs><g class="layer-above"><g class="imagelayer"/><g class="shapelayer"/></g><g class="infolayer"><g class="g-gtitle"/><g class="g-xtitle"/><g class="g-ytitle"/></g></svg>