<svg class="main-svg" xmlns="http://www.w3.org/2000/svg" xmlns:xlink="http://www.w3.org/1999/xlink" width="100" height="150" style="" viewBox="0 0 100 150"><rect x="0" y="0" width="100" height="150" style="fill: rgb(255, 255, 255); fill-opacity: 1;"/><defs id="defs-511f14"><g class="clips"><clipPath id="clip511f14xyplot" class="plotclip"><rect width="65" height="119"/></clipPath><clipPath class="axesclip" id="clip511f14x"><rect x="25" y="0" width="65" height="150"/></clipPath><clipPath class="axesclip" id="clip511f14y"><rect x="0" y="10" width="100" height="119"/></clipPath><clipPath class="axesclip" id="clip511f14xy"><rect x="25" y="10" width="65" height="119"/></clipPath></g><g class="gradients"/><g class="patterns"/></defs><g class="bglayer"/><g class="layer-below"><g class="imagelayer"/><g class="shapelayer"/></g><g class="cartesianlayer"><g class="subplot xy"><g class="layer-subplot"><g class="shapelayer"/><g class="imagelayer"/></g><g class="minor-gridlayer"><g class="x"/><g class="y"/></g><g class="gridlayer"><g class="x"><path class="xgrid crisp" transform="translate(38.54,0)" d="M0,10v119" style="stroke: rgb(128, 128, 128); stroke-opacity: 1; stroke-width: 0.2px;"/><path class="xgrid crisp" transform="translate(52.08,0)" d="M0,10v119" style="stroke: rgb(128, 128, 128); stroke-opacity: 1; stroke-width: 0.2px;"/><path class="xgrid crisp" transform="translate(65.63,0)" d="M0,10v119" style="stroke: rgb(128, 128, 128); stroke-opacity: 1; stroke-width: 0.2px;"/><path class="xgrid crisp" transform="translate(79.17,0)" d="M0,10v119" style="stroke: rgb(128, 128, 128); stroke-opacity: 1; stroke-width: 0.2px;"/></g><g class="y"><path class="ygrid crisp" transform="translate(0,123.05)" d="M25,0h65" style="stroke: rgb(128, 128, 128); stroke-opacity: 1; stroke-width: 0.2px;"/><path class="ygrid crisp" transform="translate(0,96.61)" d="M25,0h65" style="stroke: rgb(128, 128, 128); stroke-opacity: 1; stroke-width: 0.2px;"/><path class="ygrid crisp" transform="translate(0,70.16)" d="M25,0h65" style="stroke: rgb(128, 128, 128); stroke-opacity: 1; stroke-width: 0.2px;"/><path class="ygrid crisp" transform="translate(0,43.72)" d="M25,0h65" style="stroke: rgb(128, 128, 128); stroke-opacity: 1; stroke-width: 0.2px;"/><path class="ygrid crisp" transform="translate(0,17.27)" d="M25,0h65" style="stroke: rgb(128, 128, 128); stroke-opacity: 1; stroke-width: 0.2px;"/></g></g><g class="zerolinelayer"/><g class="layer-between"><g class="shapelayer"/><g class="imagelayer"/></g><path class="xlines-below"/><path class="ylines-below"/><g class="overlines-below"/><g class="xaxislayer-below"/><g class="yaxislayer-below"/><g class="overaxes-below"/><g class="overplot"><g class="xy" transform="translate(25,10)" clip-path="url(#clip511f14xyplot)"><g class="scatterlayer mlayer"><g class="trace scatter traceb7d994" style="stroke-miterlimit: 2; opacity: 1;"><g class="fills"/><g class="errorbars"/><g class="lines"><path class="js-line" d="M0,113.05Q0.05,113 0.07,112.97C0.09,112.94 0.11,112.92 0.13,112.89C0.15,112.86 0.18,112.83 0.2,112.8C0.22,112.77 0.24,112.75 0.26,112.72C0.28,112.69 0.31,112.67 0.33,112.64C0.35,112.61 0.37,112.59 0.39,112.56C0.41,112.53 0.44,112.5 0.46,112.47C0.48,112.44 0.5,112.42 0.52,112.39C0.54,112.36 0.57,112.34 0.59,112.31C0.61,112.28 0.63,112.25 0.65,112.22C0.67,112.19 0.7,112.17 0.72,112.14C0.74,112.11 0.76,112.08 0.78,112.05C0.8,112.02 0.83,111.99 0.85,111.96C0.87,111.93 0.89,111.91 0.91,111.88C0.93,111.85 0.96,111.82 0.98,111.79C1,111.76 1.02,111.74 1.04,111.71C1.06,111.68 1.09,111.65 1.11,111.62C1.13,111.59 1.15,111.56 1.17,111.53C1.19,111.5 1.22,111.47 1.24,111.44C1.26,111.41 1.28,111.39 1.3,111.36C1.32,111.33 1.35,111.3 1.37,111.27C1.39,111.24 1.41,111.21 1.43,111.18C1.45,111.15 1.48,111.12 1.5,111.09C1.52,111.06 1.54,111.03 1.56,111C1.58,110.97 1.61,110.94 1.63,110.91C1.65,110.88 1.67,110.85 1.69,110.82C1.71,110.79 1.74,110.76 1.76,110.73C1.78,110.7 1.8,110.66 1.82,110.63C1.84,110.6 1.87,110.57 1.89,110.54C1.91,110.51 1.93,110.48 1.95,110.45C1.97,110.42 2,110.39 2.02,110.36C2.04,110.33 2.06,110.3 2.08,110.27C2.1,110.24 2.13,110.2 2.15,110.17C2.17,110.14 2.19,110.11 2.21,110.08C2.23,110.05 2.26,110.01 2.28,109.98C2.3,109.95 2.32,109.92 2.34,109.89C2.36,109.86 2.39,109.82 2.41,109.79C2.43,109.76 2.45,109.73 2.47,109.7C2.49,109.67 2.52,109.63 2.54,109.6C2.56,109.57 2.58,109.54 2.6,109.51C2.62,109.48 2.65,109.44 2.67,109.41C2.69,109.38 2.71,109.34 2.73,109.31C2.75,109.28 2.78,109.25 2.8,109.22C2.82,109.19 2.84,109.15 2.86,109.12C2.88,109.09 2.91,109.05 2.93,109.02C2.95,108.99 2.97,108.95 2.99,108.92C3.01,108.89 3.04,108.85 3.06,108.82C3.08,108.79 3.1,108.75 3.12,108.72C3.14,108.69 3.17,108.65 3.19,108.62C3.21,108.59 3.23,108.55 3.25,108.52C3.27,108.49 3.3,108.45 3.32,108.42C3.34,108.39 3.36,108.35 3.38,108.32C3.4,108.29 3.43,108.25 3.45,108.22C3.47,108.19 3.49,108.15 3.51,108.12C3.53,108.08 3.56,108.05 3.58,108.01C3.6,107.98 3.62,107.94 3.64,107.91C3.66,107.88 3.69,107.84 3.71,107.81C3.73,107.77 3.75,107.74 3.77,107.7C3.79,107.67 3.82,107.63 3.84,107.6C3.86,107.56 3.88,107.53 3.9,107.49C3.92,107.46 3.95,107.42 3.97,107.39C3.99,107.35 4.01,107.32 4.03,107.28C4.05,107.25 4.08,107.21 4.1,107.18C4.12,107.14 4.14,107.11 4.16,107.07C4.18,107.03 4.21,107 4.23,106.96C4.25,106.92 4.27,106.89 4.29,106.85C4.31,106.82 4.34,106.78 4.36,106.75C4.38,106.71 4.4,106.68 4.42,106.64C4.44,106.6 4.47,106.57 4.49,106.53C4.51,106.49 4.53,106.46 4.55,106.42C4.57,106.38 4.6,106.35 4.62,106.31C4.64,106.27 4.66,106.24 4.68,106.2C4.7,106.16 4.73,106.13 4.75,106.09C4.77,106.05 4.79,106.02 4.81,105.98C4.83,105.94 4.86,105.9 4.88,105.86C4.9,105.82 4.92,105.79 4.94,105.75C4.96,105.71 4.99,105.68 5.01,105.64C5.03,105.6 5.06,105.56 5.08,105.52C5.1,105.48 5.12,105.45 5.14,105.41C5.16,105.37 5.19,105.34 5.21,105.3C5.23,105.26 5.25,105.22 5.27,105.18C5.29,105.14 5.32,105.11 5.34,105.07C5.36,105.03 5.38,104.99 5.4,104.95C5.42,104.91 5.45,104.87 5.47,104.83C5.49,104.79 5.51,104.76 5.53,104.72C5.55,104.68 5.58,104.64 5.6,104.6C5.62,104.56 5.64,104.52 5.66,104.48C5.68,104.44 5.71,104.4 5.73,104.36C5.75,104.32 5.77,104.28 5.79,104.24C5.81,104.2 5.84,104.17 5.86,104.13C5.88,104.09 5.9,104.05 5.92,104.01C5.94,103.97 5.97,103.92 5.99,103.88C6.01,103.84 6.03,103.8 6.05,103.76C6.07,103.72 6.1,103.68 6.12,103.64C6.14,103.6 6.16,103.56 6.18,103.52C6.2,103.48 6.23,103.44 6.25,103.4C6.27,103.36 6.29,103.31 6.31,103.27C6.33,103.23 6.36,103.19 6.38,103.15C6.4,103.11 6.42,103.07 6.44,103.03C6.46,102.99 6.49,102.94 6.51,102.9C6.53,102.86 6.55,102.82 6.57,102.78C6.59,102.74 6.62,102.69 6.64,102.65C6.66,102.61 6.68,102.57 6.7,102.53C6.72,102.49 6.75,102.44 6.77,102.4C6.79,102.36 6.81,102.31 6.83,102.27C6.85,102.23 6.88,102.18 6.9,102.14C6.92,102.1 6.94,102.05 6.96,102.01C6.98,101.97 7.01,101.93 7.03,101.89C7.05,101.85 7.07,101.8 7.09,101.76C7.11,101.72 7.14,101.67 7.16,101.63C7.18,101.58 7.2,101.54 7.22,101.49C7.24,101.45 7.27,101.4 7.29,101.36C7.31,101.32 7.33,101.27 7.35,101.23C7.37,101.19 7.4,101.14 7.42,101.1C7.44,101.06 7.46,101.01 7.48,100.97C7.5,100.92 7.53,100.88 7.55,100.83C7.57,100.79 7.59,100.74 7.61,100.7C7.63,100.65 7.66,100.61 7.68,100.56C7.7,100.52 7.72,100.47 7.74,100.43C7.76,100.38 7.79,100.34 7.81,100.29C7.83,100.25 7.85,100.2 7.87,100.16C7.89,100.11 7.92,100.07 7.94,100.02C7.96,99.97 7.98,99.93 8,99.88C8.02,99.83 8.05,99.79 8.07,99.74C8.09,99.69 8.11,99.65 8.13,99.6C8.15,99.55 8.18,99.51 8.2,99.46C8.22,99.41 8.24,99.37 8.26,99.32C8.28,99.27 8.31,99.23 8.33,99.18C8.35,99.13 8.37,99.09 8.39,99.04C8.41,98.99 8.44,98.95 8.46,98.9C8.48,98.85 8.5,98.81 8.52,98.76C8.54,98.71 8.57,98.66 8.59,98.61C8.61,98.56 8.63,98.52 8.65,98.47C8.67,98.42 8.7,98.38 8.72,98.33C8.74,98.28 8.76,98.23 8.78,98.18C8.8,98.13 8.83,98.09 8.85,98.04C8.87,97.99 8.89,97.94 8.91,97.89C8.93,97.84 8.96,97.79 8.98,97.74C9,97.69 9.02,97.65 9.04,97.6C9.06,97.55 9.09,97.5 9.11,97.45C9.13,97.4 9.15,97.35 9.17,97.3C9.19,97.25 9.22,97.2 9.24,97.15C9.26,97.1 9.28,97.05 9.3,97C9.32,96.95 9.35,96.9 9.37,96.85C9.39,96.8 9.41,96.75 9.43,96.7C9.45,96.65 9.48,96.59 9.5,96.54C9.52,96.49 9.54,96.44 9.56,96.39C9.58,96.34 9.61,96.29 9.63,96.24C9.65,96.19 9.67,96.13 9.69,96.08C9.71,96.03 9.74,95.98 9.76,95.93C9.78,95.88 9.8,95.82 9.82,95.77C9.84,95.72 9.87,95.67 9.89,95.62C9.91,95.57 9.93,95.51 9.95,95.46C9.97,95.41 10,95.35 10.02,95.3C10.04,95.25 10.07,95.2 10.09,95.15C10.11,95.1 10.13,95.04 10.15,94.99C10.17,94.94 10.2,94.88 10.22,94.83C10.24,94.78 10.26,94.72 10.28,94.67C10.3,94.62 10.33,94.56 10.35,94.51C10.37,94.46 10.39,94.4 10.41,94.35C10.43,94.29 10.46,94.24 10.48,94.18C10.5,94.13 10.52,94.07 10.54,94.02C10.56,93.97 10.59,93.91 10.61,93.86C10.63,93.8 10.65,93.75 10.67,93.69C10.69,93.64 10.72,93.58 10.74,93.53C10.76,93.47 10.78,93.42 10.8,93.36C10.82,93.3 10.85,93.25 10.87,93.19C10.89,93.14 10.91,93.08 10.93,93.03C10.95,92.97 10.98,92.92 11,92.86C11.02,92.8 11.04,92.75 11.06,92.69C11.08,92.63 11.11,92.58 11.13,92.52C11.15,92.46 11.17,92.41 11.19,92.35C11.21,92.29 11.24,92.24 11.26,92.18C11.28,92.12 11.3,92.07 11.32,92.01C11.34,91.95 11.37,91.9 11.39,91.84C11.41,91.78 11.43,91.72 11.45,91.66C11.47,91.6 11.5,91.55 11.52,91.49C11.54,91.43 11.56,91.38 11.58,91.32C11.6,91.26 11.63,91.2 11.65,91.14C11.67,91.08 11.69,91.02 11.71,90.96C11.73,90.9 11.76,90.85 11.78,90.79C11.8,90.73 11.82,90.67 11.84,90.61C11.86,90.55 11.89,90.49 11.91,90.43C11.93,90.37 11.95,90.31 11.97,90.25C11.99,90.19 12.02,90.13 12.04,90.07C12.06,90.01 12.08,89.95 12.1,89.89C12.12,89.83 12.15,89.77 12.17,89.71C12.19,89.65 12.21,89.59 12.23,89.53C12.25,89.47 12.28,89.4 12.3,89.34C12.32,89.28 12.34,89.22 12.36,89.16C12.38,89.1 12.41,89.04 12.43,88.98C12.45,88.92 12.47,88.85 12.49,88.79C12.51,88.73 12.54,88.66 12.56,88.6C12.58,88.54 12.6,88.48 12.62,88.42C12.64,88.36 12.67,88.29 12.69,88.23C12.71,88.17 12.73,88.1 12.75,88.04C12.77,87.98 12.8,87.91 12.82,87.85C12.84,87.79 12.86,87.72 12.88,87.66C12.9,87.6 12.93,87.53 12.95,87.47C12.97,87.41 12.99,87.34 13.01,87.28C13.03,87.22 13.06,87.15 13.08,87.09C13.1,87.02 13.12,86.96 13.14,86.89C13.16,86.83 13.19,86.76 13.21,86.7C13.23,86.63 13.25,86.57 13.27,86.5C13.29,86.44 13.32,86.37 13.34,86.31C13.36,86.24 13.38,86.18 13.4,86.11C13.42,86.04 13.45,85.98 13.47,85.91C13.49,85.84 13.51,85.78 13.53,85.71C13.55,85.64 13.58,85.58 13.6,85.51C13.62,85.44 13.64,85.38 13.66,85.31C13.68,85.24 13.71,85.18 13.73,85.11C13.75,85.04 13.77,84.98 13.79,84.91C13.81,84.84 13.84,84.78 13.86,84.71C13.88,84.64 13.9,84.57 13.92,84.5C13.94,84.43 13.97,84.37 13.99,84.3C14.01,84.23 14.03,84.16 14.05,84.09C14.07,84.02 14.1,83.96 14.12,83.89C14.14,83.82 14.16,83.75 14.18,83.68C14.2,83.61 14.23,83.54 14.25,83.47C14.27,83.4 14.29,83.33 14.31,83.26C14.33,83.19 14.36,83.12 14.38,83.05C14.4,82.98 14.42,82.91 14.44,82.84C14.46,82.77 14.49,82.7 14.51,82.63C14.53,82.56 14.55,82.48 14.57,82.41C14.59,82.34 14.62,82.27 14.64,82.2C14.66,82.13 14.68,82.06 14.7,81.99C14.72,81.92 14.75,81.84 14.77,81.77C14.79,81.7 14.81,81.62 14.83,81.55C14.85,81.48 14.88,81.41 14.9,81.34C14.92,81.27 14.94,81.19 14.96,81.12C14.98,81.05 15.01,80.97 15.03,80.9C15.05,80.83 15.08,80.75 15.1,80.68C15.12,80.61 15.14,80.53 15.16,80.46C15.18,80.38 15.21,80.31 15.23,80.23C15.25,80.16 15.27,80.08 15.29,80.01C15.31,79.94 15.34,79.86 15.36,79.79C15.38,79.71 15.4,79.64 15.42,79.56C15.44,79.49 15.47,79.41 15.49,79.34C15.51,79.26 15.53,79.19 15.55,79.11C15.57,79.03 15.6,78.96 15.62,78.88C15.64,78.8 15.66,78.73 15.68,78.65C15.7,78.57 15.73,78.5 15.75,78.42C15.77,78.34 15.79,78.27 15.81,78.19C15.83,78.11 15.86,78.04 15.88,77.96C15.9,77.88 15.92,77.8 15.94,77.72C15.96,77.64 15.99,77.57 16.01,77.49C16.03,77.41 16.05,77.34 16.07,77.26C16.09,77.18 16.12,77.1 16.14,77.02C16.16,76.94 16.18,76.86 16.2,76.78C16.22,76.7 16.25,76.62 16.27,76.54C16.29,76.46 16.31,76.39 16.33,76.31C16.35,76.23 16.38,76.15 16.4,76.07C16.42,75.99 16.44,75.9 16.46,75.82C16.48,75.74 16.51,75.66 16.53,75.58C16.55,75.5 16.57,75.42 16.59,75.34C16.61,75.26 16.64,75.17 16.66,75.09C16.68,75.01 16.7,74.93 16.72,74.85C16.74,74.77 16.77,74.68 16.79,74.6C16.81,74.52 16.83,74.43 16.85,74.35C16.87,74.27 16.9,74.19 16.92,74.11C16.94,74.03 16.96,73.94 16.98,73.86C17,73.78 17.03,73.69 17.05,73.61C17.07,73.52 17.09,73.44 17.11,73.35C17.13,73.27 17.16,73.18 17.18,73.1C17.2,73.02 17.22,72.93 17.24,72.85C17.26,72.76 17.29,72.68 17.31,72.59C17.33,72.51 17.35,72.42 17.37,72.34C17.39,72.25 17.42,72.17 17.44,72.08C17.46,71.99 17.48,71.91 17.5,71.82C17.52,71.73 17.55,71.65 17.57,71.56C17.59,71.47 17.61,71.39 17.63,71.3C17.65,71.21 17.68,71.13 17.7,71.04C17.72,70.95 17.74,70.86 17.76,70.77C17.78,70.68 17.81,70.6 17.83,70.51C17.85,70.42 17.87,70.34 17.89,70.25C17.91,70.16 17.94,70.07 17.96,69.98C17.98,69.89 18,69.8 18.02,69.71C18.04,69.62 18.07,69.53 18.09,69.44C18.11,69.35 18.13,69.26 18.15,69.17C18.17,69.08 18.2,68.99 18.22,68.9C18.24,68.81 18.26,68.72 18.28,68.63C18.3,68.54 18.33,68.45 18.35,68.36C18.37,68.27 18.39,68.17 18.41,68.08C18.43,67.99 18.46,67.9 18.48,67.81C18.5,67.72 18.52,67.62 18.54,67.53C18.56,67.44 18.59,67.34 18.61,67.25C18.63,67.16 18.65,67.06 18.67,66.97C18.69,66.88 18.72,66.78 18.74,66.69C18.76,66.6 18.78,66.5 18.8,66.41C18.82,66.32 18.85,66.22 18.87,66.13C18.89,66.03 18.91,65.94 18.93,65.84C18.95,65.75 18.98,65.65 19,65.56C19.02,65.46 19.04,65.37 19.06,65.27C19.08,65.17 19.11,65.08 19.13,64.98C19.15,64.89 19.17,64.79 19.19,64.7C19.21,64.6 19.24,64.5 19.26,64.4C19.28,64.3 19.3,64.21 19.32,64.11C19.34,64.01 19.37,63.92 19.39,63.82C19.41,63.72 19.43,63.63 19.45,63.53C19.47,63.43 19.5,63.33 19.52,63.23C19.54,63.13 19.56,63.03 19.58,62.93C19.6,62.83 19.63,62.74 19.65,62.64C19.67,62.54 19.69,62.44 19.71,62.34C19.73,62.24 19.76,62.14 19.78,62.04C19.8,61.94 19.82,61.84 19.84,61.74C19.86,61.64 19.89,61.53 19.91,61.43C19.93,61.33 19.95,61.23 19.97,61.13C19.99,61.03 20.02,60.92 20.04,60.82C20.06,60.72 20.09,60.62 20.11,60.52C20.13,60.42 20.15,60.31 20.17,60.21C20.19,60.11 20.22,60 20.24,59.9C20.26,59.8 20.28,59.69 20.3,59.59C20.32,59.48 20.35,59.38 20.37,59.27C20.39,59.17 20.41,59.06 20.43,58.96C20.45,58.86 20.48,58.75 20.5,58.65C20.52,58.54 20.54,58.44 20.56,58.33C20.58,58.22 20.61,58.12 20.63,58.01C20.65,57.9 20.67,57.8 20.69,57.69C20.71,57.58 20.74,57.48 20.76,57.37C20.78,57.26 20.8,57.16 20.82,57.05C20.84,56.94 20.87,56.84 20.89,56.73C20.91,56.62 20.93,56.51 20.95,56.4C20.97,56.29 21,56.19 21.02,56.08C21.04,55.97 21.06,55.86 21.08,55.75C21.1,55.64 21.13,55.53 21.15,55.42C21.17,55.31 21.19,55.2 21.21,55.09C21.23,54.98 21.26,54.87 21.28,54.76C21.3,54.65 21.32,54.54 21.34,54.43C21.36,54.32 21.39,54.2 21.41,54.09C21.43,53.98 21.45,53.86 21.47,53.75C21.49,53.64 21.52,53.53 21.54,53.42C21.56,53.31 21.58,53.19 21.6,53.08C21.62,52.97 21.65,52.85 21.67,52.74C21.69,52.63 21.71,52.51 21.73,52.4C21.75,52.28 21.78,52.17 21.8,52.05C21.82,51.94 21.84,51.82 21.86,51.71C21.88,51.59 21.91,51.48 21.93,51.36C21.95,51.24 21.97,51.13 21.99,51.01C22.01,50.9 22.04,50.78 22.06,50.67C22.08,50.55 22.1,50.44 22.12,50.32C22.14,50.2 22.17,50.08 22.19,49.96C22.21,49.84 22.23,49.73 22.25,49.61C22.27,49.49 22.3,49.37 22.32,49.25C22.34,49.13 22.36,49.02 22.38,48.9C22.4,48.78 22.43,48.66 22.45,48.54C22.47,48.42 22.49,48.3 22.51,48.18C22.53,48.06 22.56,47.94 22.58,47.82C22.6,47.7 22.62,47.58 22.64,47.46C22.66,47.34 22.69,47.21 22.71,47.09C22.73,46.97 22.75,46.84 22.77,46.72C22.79,46.6 22.82,46.48 22.84,46.36C22.86,46.24 22.88,46.11 22.9,45.99C22.92,45.87 22.95,45.74 22.97,45.62C22.99,45.49 23.01,45.37 23.03,45.24C23.05,45.12 23.08,44.99 23.1,44.87C23.12,44.75 23.14,44.62 23.16,44.5C23.18,44.37 23.21,44.25 23.23,44.12C23.25,43.99 23.27,43.87 23.29,43.74C23.31,43.61 23.34,43.49 23.36,43.36C23.38,43.23 23.4,43.11 23.42,42.98C23.44,42.85 23.47,42.72 23.49,42.59C23.51,42.46 23.53,42.34 23.55,42.21C23.57,42.08 23.6,41.95 23.62,41.82C23.64,41.69 23.66,41.56 23.68,41.43C23.7,41.3 23.73,41.17 23.75,41.04C23.77,40.91 23.79,40.78 23.81,40.65C23.83,40.52 23.86,40.39 23.88,40.26C23.9,40.13 23.92,39.99 23.94,39.86C23.96,39.73 23.99,39.6 24.01,39.47C24.03,39.34 24.05,39.2 24.07,39.07C24.09,38.94 24.12,38.8 24.14,38.67C24.16,38.53 24.18,38.4 24.2,38.26C24.22,38.13 24.25,37.99 24.27,37.86C24.29,37.73 24.31,37.59 24.33,37.46C24.35,37.32 24.38,37.19 24.4,37.05C24.42,36.91 24.44,36.78 24.46,36.64C24.48,36.5 24.51,36.37 24.53,36.23C24.55,36.09 24.57,35.96 24.59,35.82C24.61,35.68 24.64,35.54 24.66,35.4C24.68,35.26 24.7,35.13 24.72,34.99C24.74,34.85 24.77,34.71 24.79,34.57C24.81,34.43 24.83,34.29 24.85,34.15C24.87,34.01 24.9,33.87 24.92,33.73C24.94,33.59 24.96,33.44 24.98,33.3C25,33.16 25.03,33.02 25.05,32.88C25.07,32.74 25.1,32.59 25.12,32.45C25.14,32.31 25.16,32.16 25.18,32.02C25.2,31.88 25.23,31.73 25.25,31.59C25.27,31.45 25.29,31.3 25.31,31.16C25.33,31.02 25.36,30.87 25.38,30.73C25.4,30.58 25.42,30.44 25.44,30.29C25.46,30.15 25.49,30 25.51,29.86C25.53,29.71 25.55,29.57 25.57,29.42C25.59,29.27 25.62,29.13 25.64,28.98C25.66,28.83 25.68,28.68 25.7,28.53C25.72,28.38 25.75,28.24 25.77,28.09C25.79,27.94 25.81,27.79 25.83,27.64C25.85,27.49 25.88,27.34 25.9,27.19C25.92,27.04 25.94,26.89 25.96,26.74C25.98,26.59 26.01,26.44 26.03,26.29C26.05,26.14 26.07,25.99 26.09,25.84C26.11,25.69 26.14,25.53 26.16,25.38C26.18,25.23 26.2,25.07 26.22,24.92C26.24,24.77 26.27,24.61 26.29,24.46C26.31,24.31 26.33,24.15 26.35,24C26.37,23.85 26.4,23.69 26.42,23.54C26.44,23.38 26.46,23.23 26.48,23.07C26.5,22.91 26.53,22.76 26.55,22.6C26.57,22.44 26.59,22.29 26.61,22.13C26.63,21.97 26.66,21.82 26.68,21.66C26.7,21.5 26.72,21.35 26.74,21.19C26.76,21.03 26.79,20.87 26.81,20.71C26.83,20.55 26.85,20.4 26.87,20.24C26.89,20.08 26.92,19.92 26.94,19.76C26.96,19.6 26.98,19.44 27,19.28C27.02,19.12 27.05,18.96 27.07,18.8C27.09,18.64 27.11,18.47 27.13,18.31C27.15,18.15 27.18,17.99 27.2,17.83C27.22,17.67 27.24,17.5 27.26,17.34C27.28,17.18 27.31,17.01 27.33,16.85C27.35,16.69 27.37,16.52 27.39,16.36C27.41,16.19 27.44,16.03 27.46,15.86C27.48,15.7 27.5,15.53 27.52,15.37C27.54,15.2 27.57,15.04 27.59,14.87C27.61,14.7 27.63,14.54 27.65,14.37C27.67,14.2 27.7,14.04 27.72,13.87C27.74,13.7 27.76,13.54 27.78,13.37C27.8,13.2 27.83,13.04 27.85,12.87C27.87,12.7 27.89,12.53 27.91,12.36C27.93,12.19 27.96,12.02 27.98,11.85C28,11.68 28.02,11.52 28.04,11.35C28.06,11.18 28.09,11.01 28.11,10.84C28.13,10.67 28.15,10.5 28.17,10.33C28.19,10.16 28.22,9.99 28.24,9.82C28.26,9.65 28.28,9.48 28.3,9.31C28.32,9.14 28.35,8.98 28.37,8.81C28.39,8.64 28.41,8.47 28.43,8.3C28.45,8.13 28.48,7.97 28.5,7.8C28.52,7.64 28.54,7.47 28.56,7.31C28.58,7.15 28.61,6.99 28.63,6.83C28.65,6.68 28.67,6.53 28.69,6.39C28.71,6.27 28.73,6.13 28.76,6.05C28.78,6 28.79,5.96 28.82,5.95C28.84,5.94 28.87,5.95 28.89,5.95C28.91,5.95 28.93,5.95 28.95,5.95C28.97,5.95 29,5.95 29.02,5.95C29.04,5.95 29.06,5.95 29.08,5.95C29.1,5.95 29.13,5.95 29.15,5.95C29.17,5.95 29.19,5.95 29.21,5.95C29.23,5.95 29.26,5.95 29.28,5.95C29.3,5.95 29.32,5.95 29.34,5.95C29.36,5.95 29.39,5.95 29.41,5.95C29.43,5.95 29.45,5.95 29.47,5.95C29.49,5.95 29.52,5.95 29.54,5.95C29.56,5.95 29.58,5.95 29.6,5.95C29.62,5.95 29.65,5.95 29.67,5.95C29.69,5.95 29.71,5.95 29.73,5.95C29.75,5.95 29.78,5.95 29.8,5.95C29.82,5.95 29.84,5.95 29.86,5.95C29.88,5.95 29.91,5.95 29.93,5.95C29.95,5.95 29.97,5.95 29.99,5.95C30.01,5.95 30.04,5.95 30.06,5.95C30.08,5.95 30.11,5.95 30.13,5.95C30.15,5.95 30.17,5.95 30.19,5.95C30.21,5.95 30.24,5.95 30.26,5.95C30.28,5.95 30.3,5.95 30.32,5.95C30.34,5.95 30.37,5.95 30.39,5.95C30.41,5.95 30.43,5.95 30.45,5.95C30.47,5.95 30.5,5.95 30.52,5.95C30.54,5.95 30.56,5.95 30.58,5.95C30.6,5.95 30.63,5.95 30.65,5.95C30.67,5.95 30.69,5.95 30.71,5.95C30.73,5.95 30.76,5.95 30.78,5.95C30.8,5.95 30.82,5.95 30.84,5.95C30.86,5.95 30.89,5.95 30.91,5.95C30.93,5.95 30.95,5.95 30.97,5.95C30.99,5.95 31.02,5.95 31.04,5.95C31.06,5.95 31.08,5.95 31.1,5.95C31.12,5.95 31.15,5.95 31.17,5.95C31.19,5.95 31.21,5.95 31.23,5.95C31.25,5.95 31.28,5.95 31.3,5.95C31.32,5.95 31.34,5.95 31.36,5.95C31.38,5.95 31.41,5.95 31.43,5.95C31.45,5.95 31.47,5.95 31.49,5.95C31.51,5.95 31.54,5.95 31.56,5.95C31.58,5.95 31.6,5.95 31.62,5.95C31.64,5.95 31.67,5.95 31.69,5.95C31.71,5.95 31.73,5.95 31.75,5.95C31.77,5.95 31.8,5.95 31.82,5.95C31.84,5.95 31.86,5.95 31.88,5.95C31.9,5.95 31.93,5.95 31.95,5.95C31.97,5.95 31.99,5.95 32.01,5.95C32.03,5.95 32.06,5.95 32.08,5.95C32.1,5.95 32.12,5.95 32.14,5.95C32.16,5.95 32.19,5.95 32.21,5.95C32.23,5.95 32.25,5.95 32.27,5.95C32.29,5.95 32.32,5.95 32.34,5.95C32.36,5.95 32.38,5.95 32.4,5.95C32.42,5.95 32.45,5.95 32.47,5.95C32.49,5.95 32.51,5.95 32.53,5.95C32.55,5.95 32.58,5.95 32.6,5.95C32.62,5.95 32.64,5.95 32.66,5.95C32.68,5.95 32.71,5.95 32.73,5.95C32.75,5.95 32.77,5.95 32.79,5.95C32.81,5.95 32.84,5.95 32.86,5.95C32.88,5.95 32.9,5.95 32.92,5.95C32.94,5.95 32.97,5.95 32.99,5.95C33.01,5.95 33.03,5.95 33.05,5.95C33.07,5.95 33.1,5.95 33.12,5.95C33.14,5.95 33.16,5.95 33.18,5.95C33.2,5.95 33.23,5.95 33.25,5.95C33.27,5.95 33.29,5.95 33.31,5.95C33.33,5.95 33.36,5.95 33.38,5.95C33.4,5.95 33.42,5.95 33.44,5.95C33.46,5.95 33.49,5.95 33.51,5.95C33.53,5.95 33.55,5.95 33.57,5.95C33.59,5.95 33.62,5.95 33.64,5.95C33.66,5.95 33.68,5.95 33.7,5.95C33.72,5.95 33.75,5.95 33.77,5.95C33.79,5.95 33.81,5.95 33.83,5.95C33.85,5.95 33.88,5.95 33.9,5.95C33.92,5.95 33.94,5.95 33.96,5.95C33.98,5.95 34.01,5.95 34.03,5.95C34.05,5.95 34.07,5.95 34.09,5.95C34.11,5.95 34.14,5.95 34.16,5.95C34.18,5.95 34.2,5.95 34.22,5.95C34.24,5.95 34.27,5.95 34.29,5.95C34.31,5.95 34.33,5.95 34.35,5.95C34.37,5.95 34.4,5.95 34.42,5.95C34.44,5.95 34.46,5.95 34.48,5.95C34.5,5.95 34.53,5.95 34.55,5.95C34.57,5.95 34.59,5.95 34.61,5.95C34.63,5.95 34.66,5.95 34.68,5.95C34.7,5.95 34.72,5.95 34.74,5.95C34.76,5.95 34.79,5.95 34.81,5.95C34.83,5.95 34.85,5.95 34.87,5.95C34.89,5.95 34.92,5.95 34.94,5.95C34.96,5.95 34.99,5.95 35.01,5.95C35.03,5.95 35.05,5.95 35.07,5.95C35.09,5.95 35.12,5.95 35.14,5.95C35.16,5.95 35.18,5.95 35.2,5.95C35.22,5.95 35.25,5.95 35.27,5.95C35.29,5.95 35.31,5.95 35.33,5.95C35.35,5.95 35.38,5.95 35.4,5.95C35.42,5.95 35.44,5.95 35.46,5.95C35.48,5.95 35.51,5.95 35.53,5.95C35.55,5.95 35.57,5.95 35.59,5.95C35.61,5.95 35.64,5.95 35.66,5.95C35.68,5.95 35.7,5.95 35.72,5.95C35.74,5.95 35.77,5.95 35.79,5.95C35.81,5.95 35.83,5.95 35.85,5.95C35.87,5.95 35.9,5.95 35.92,5.95C35.94,5.95 35.96,5.95 35.98,5.95C36,5.95 36.03,5.95 36.05,5.95C36.07,5.95 36.09,5.95 36.11,5.95C36.13,5.95 36.16,5.95 36.18,5.95C36.2,5.95 36.22,5.95 36.24,5.95C36.26,5.95 36.29,5.95 36.31,5.95C36.33,5.95 36.35,5.95 36.37,5.95C36.39,5.95 36.42,5.95 36.44,5.95C36.46,5.95 36.48,5.95 36.5,5.95C36.52,5.95 36.55,5.95 36.57,5.95C36.59,5.95 36.61,5.95 36.63,5.95C36.65,5.95 36.68,5.95 36.7,5.95C36.72,5.95 36.74,5.95 36.76,5.95C36.78,5.95 36.81,5.95 36.83,5.95C36.85,5.95 36.87,5.95 36.89,5.95C36.91,5.95 36.94,5.95 36.96,5.95C36.98,5.95 37,5.95 37.02,5.95C37.04,5.95 37.07,5.95 37.09,5.95C37.11,5.95 37.13,5.95 37.15,5.95C37.17,5.95 37.2,5.95 37.22,5.95C37.24,5.95 37.26,5.95 37.28,5.95C37.3,5.95 37.33,5.95 37.35,5.95C37.37,5.95 37.39,5.95 37.41,5.95C37.43,5.95 37.46,5.95 37.48,5.95C37.5,5.95 37.52,5.95 37.54,5.95C37.56,5.95 37.59,5.95 37.61,5.95C37.63,5.95 37.65,5.95 37.67,5.95C37.69,5.95 37.72,5.95 37.74,5.95C37.76,5.95 37.78,5.95 37.8,5.95C37.82,5.95 37.85,5.95 37.87,5.95C37.89,5.95 37.91,5.95 37.93,5.95C37.95,5.95 37.98,5.95 38,5.95C38.02,5.95 38.04,5.95 38.06,5.95C38.08,5.95 38.11,5.95 38.13,5.95C38.15,5.95 38.17,5.95 38.19,5.95C38.21,5.95 38.24,5.95 38.26,5.95C38.28,5.95 38.3,5.95 38.32,5.95C38.34,5.95 38.37,5.95 38.39,5.95C38.41,5.95 38.43,5.95 38.45,5.95C38.47,5.95 38.5,5.95 38.52,5.95C38.54,5.95 38.56,5.95 38.58,5.95C38.6,5.95 38.63,5.95 38.65,5.95C38.67,5.95 38.69,5.95 38.71,5.95C38.73,5.95 38.76,5.95 38.78,5.95C38.8,5.95 38.82,5.95 38.84,5.95C38.86,5.95 38.89,5.95 38.91,5.95C38.93,5.95 38.95,5.95 38.97,5.95C38.99,5.95 39.02,5.95 39.04,5.95C39.06,5.95 39.08,5.95 39.1,5.95C39.12,5.95 39.15,5.95 39.17,5.95C39.19,5.95 39.21,5.95 39.23,5.95C39.25,5.95 39.28,5.95 39.3,5.95C39.32,5.95 39.34,5.95 39.36,5.95C39.38,5.95 39.41,5.95 39.43,5.95C39.45,5.95 39.47,5.95 39.49,5.95C39.51,5.95 39.54,5.95 39.56,5.95C39.58,5.95 39.6,5.95 39.62,5.95C39.64,5.95 39.67,5.95 39.69,5.95C39.71,5.95 39.73,5.95 39.75,5.95C39.77,5.95 39.8,5.95 39.82,5.95C39.84,5.95 39.86,5.95 39.88,5.95C39.9,5.95 39.93,5.95 39.95,5.95C39.97,5.95 40,5.95 40.02,5.95C40.04,5.95 40.06,5.95 40.08,5.95C40.1,5.95 40.13,5.95 40.15,5.95C40.17,5.95 40.19,5.95 40.21,5.95C40.23,5.95 40.26,5.95 40.28,5.95C40.3,5.95 40.32,5.95 40.34,5.95C40.36,5.95 40.39,5.95 40.41,5.95C40.43,5.95 40.45,5.95 40.47,5.95C40.49,5.95 40.52,5.95 40.54,5.95C40.56,5.95 40.58,5.95 40.6,5.95C40.62,5.95 40.65,5.95 40.67,5.95C40.69,5.95 40.71,5.95 40.73,5.95C40.75,5.95 40.78,5.95 40.8,5.95C40.82,5.95 40.84,5.95 40.86,5.95C40.88,5.95 40.91,5.95 40.93,5.95C40.95,5.95 40.97,5.95 40.99,5.95C41.01,5.95 41.04,5.95 41.06,5.95C41.08,5.95 41.1,5.95 41.12,5.95C41.14,5.95 41.17,5.95 41.19,5.95C41.21,5.95 41.23,5.95 41.25,5.95C41.27,5.95 41.3,5.95 41.32,5.95C41.34,5.95 41.36,5.95 41.38,5.95C41.4,5.95 41.43,5.95 41.45,5.95C41.47,5.95 41.49,5.95 41.51,5.95C41.53,5.95 41.56,5.95 41.58,5.95C41.6,5.95 41.62,5.95 41.64,5.95C41.66,5.95 41.69,5.95 41.71,5.95C41.73,5.95 41.75,5.95 41.77,5.95C41.79,5.95 41.82,5.95 41.84,5.95C41.86,5.95 41.88,5.95 41.9,5.95C41.92,5.95 41.95,5.95 41.97,5.95C41.99,5.95 42.01,5.95 42.03,5.95C42.05,5.95 42.08,5.95 42.1,5.95C42.12,5.95 42.14,5.95 42.16,5.95C42.18,5.95 42.21,5.95 42.23,5.95C42.25,5.95 42.27,5.95 42.29,5.95C42.31,5.95 42.34,5.95 42.36,5.95C42.38,5.95 42.4,5.95 42.42,5.95C42.44,5.95 42.47,5.95 42.49,5.95C42.51,5.95 42.53,5.95 42.55,5.95C42.57,5.95 42.6,5.95 42.62,5.95C42.64,5.95 42.66,5.95 42.68,5.95C42.7,5.95 42.73,5.95 42.75,5.95C42.77,5.95 42.79,5.95 42.81,5.95C42.83,5.95 42.86,5.95 42.88,5.95C42.9,5.95 42.92,5.95 42.94,5.95C42.96,5.95 42.99,5.95 43.01,5.95C43.03,5.95 43.05,5.95 43.07,5.95C43.09,5.95 43.12,5.95 43.14,5.95C43.16,5.95 43.18,5.95 43.2,5.95C43.22,5.95 43.25,5.95 43.27,5.95C43.29,5.95 43.31,5.95 43.33,5.95C43.35,5.95 43.38,5.95 43.4,5.95C43.42,5.95 43.44,5.95 43.46,5.95C43.48,5.95 43.51,5.95 43.53,5.95C43.55,5.95 43.57,5.95 43.59,5.95C43.61,5.95 43.64,5.95 43.66,5.95C43.68,5.95 43.7,5.95 43.72,5.95C43.74,5.95 43.77,5.95 43.79,5.95C43.81,5.95 43.83,5.95 43.85,5.95C43.87,5.95 43.9,5.95 43.92,5.95C43.94,5.95 43.96,5.95 43.98,5.95C44,5.95 44.03,5.95 44.05,5.95C44.07,5.95 44.09,5.95 44.11,5.95C44.13,5.95 44.16,5.95 44.18,5.95C44.2,5.95 44.22,5.95 44.24,5.95C44.26,5.95 44.29,5.95 44.31,5.95C44.33,5.95 44.35,5.95 44.37,5.95C44.39,5.95 44.42,5.95 44.44,5.95C44.46,5.95 44.48,5.95 44.5,5.95C44.52,5.95 44.55,5.95 44.57,5.95C44.59,5.95 44.61,5.95 44.63,5.95C44.65,5.95 44.68,5.95 44.7,5.95C44.72,5.95 44.74,5.95 44.76,5.95C44.78,5.95 44.81,5.95 44.83,5.95C44.85,5.95 44.87,5.95 44.89,5.95C44.91,5.95 44.94,5.95 44.96,5.95C44.98,5.95 45.01,5.95 45.03,5.95C45.05,5.95 45.07,5.95 45.09,5.95C45.11,5.95 45.14,5.95 45.16,5.95C45.18,5.95 45.2,5.95 45.22,5.95C45.24,5.95 45.27,5.95 45.29,5.95C45.31,5.95 45.33,5.95 45.35,5.95C45.37,5.95 45.4,5.95 45.42,5.95C45.44,5.95 45.46,5.95 45.48,5.95C45.5,5.95 45.53,5.95 45.55,5.95C45.57,5.95 45.59,5.95 45.61,5.95C45.63,5.95 45.66,5.95 45.68,5.95C45.7,5.95 45.72,5.95 45.74,5.95C45.76,5.95 45.79,5.95 45.81,5.95C45.83,5.95 45.85,5.95 45.87,5.95C45.89,5.95 45.92,5.95 45.94,5.95C45.96,5.95 45.98,5.95 46,5.95C46.02,5.95 46.05,5.95 46.07,5.95C46.09,5.95 46.11,5.95 46.13,5.95C46.15,5.95 46.18,5.95 46.2,5.95C46.22,5.95 46.24,5.95 46.26,5.95C46.28,5.95 46.31,5.95 46.33,5.95C46.35,5.95 46.37,5.95 46.39,5.95C46.41,5.95 46.44,5.95 46.46,5.95C46.48,5.95 46.5,5.95 46.52,5.95C46.54,5.95 46.57,5.95 46.59,5.95C46.61,5.95 46.63,5.95 46.65,5.95C46.67,5.95 46.7,5.95 46.72,5.95C46.74,5.95 46.76,5.95 46.78,5.95C46.8,5.95 46.83,5.95 46.85,5.95C46.87,5.95 46.89,5.95 46.91,5.95C46.93,5.95 46.96,5.95 46.98,5.95C47,5.95 47.02,5.95 47.04,5.95C47.06,5.95 47.09,5.95 47.11,5.95C47.13,5.95 47.15,5.95 47.17,5.95C47.19,5.95 47.22,5.95 47.24,5.95C47.26,5.95 47.28,5.95 47.3,5.95C47.32,5.95 47.35,5.95 47.37,5.95C47.39,5.95 47.41,5.95 47.43,5.95C47.45,5.95 47.48,5.95 47.5,5.95C47.52,5.95 47.54,5.95 47.56,5.95C47.58,5.95 47.61,5.95 47.63,5.95C47.65,5.95 47.67,5.95 47.69,5.95C47.71,5.95 47.74,5.95 47.76,5.95C47.78,5.95 47.8,5.95 47.82,5.95C47.84,5.95 47.87,5.95 47.89,5.95C47.91,5.95 47.93,5.95 47.95,5.95C47.97,5.95 48,5.95 48.02,5.95C48.04,5.95 48.06,5.95 48.08,5.95C48.1,5.95 48.13,5.95 48.15,5.95C48.17,5.95 48.19,5.95 48.21,5.95C48.23,5.95 48.26,5.95 48.28,5.95C48.3,5.95 48.32,5.95 48.34,5.95C48.36,5.95 48.39,5.95 48.41,5.95C48.43,5.95 48.45,5.95 48.47,5.95C48.49,5.95 48.52,5.95 48.54,5.95C48.56,5.95 48.58,5.95 48.6,5.95C48.62,5.95 48.65,5.95 48.67,5.95C48.69,5.95 48.71,5.95 48.73,5.95C48.75,5.95 48.78,5.95 48.8,5.95C48.82,5.95 48.84,5.95 48.86,5.95C48.88,5.95 48.91,5.95 48.93,5.95C48.95,5.95 48.97,5.95 48.99,5.95C49.01,5.95 49.04,5.95 49.06,5.95C49.08,5.95 49.1,5.95 49.12,5.95C49.14,5.95 49.17,5.95 49.19,5.95C49.21,5.95 49.23,5.95 49.25,5.95C49.27,5.95 49.3,5.95 49.32,5.95C49.34,5.95 49.36,5.95 49.38,5.95C49.4,5.95 49.43,5.95 49.45,5.95C49.47,5.95 49.49,5.95 49.51,5.95C49.53,5.95 49.56,5.95 49.58,5.95C49.6,5.95 49.62,5.95 49.64,5.95C49.66,5.95 49.69,5.95 49.71,5.95C49.73,5.95 49.75,5.95 49.77,5.95C49.79,5.95 49.82,5.95 49.84,5.95C49.86,5.95 49.88,5.95 49.9,5.95C49.92,5.95 49.95,5.95 49.97,5.95C49.99,5.95 50.02,5.95 50.04,5.95C50.06,5.95 50.08,5.95 50.1,5.95C50.12,5.95 50.15,5.95 50.17,5.95C50.19,5.95 50.21,5.95 50.23,5.95C50.25,5.95 50.28,5.95 50.3,5.95C50.32,5.95 50.34,5.95 50.36,5.95C50.38,5.95 50.41,5.95 50.43,5.95C50.45,5.95 50.47,5.95 50.49,5.95C50.51,5.95 50.54,5.95 50.56,5.95C50.58,5.95 50.6,5.95 50.62,5.95C50.64,5.95 50.67,5.95 50.69,5.95C50.71,5.95 50.73,5.95 50.75,5.95C50.77,5.95 50.8,5.95 50.82,5.95C50.84,5.95 50.86,5.95 50.88,5.95C50.9,5.95 50.93,5.95 50.95,5.95C50.97,5.95 50.99,5.95 51.01,5.95C51.03,5.95 51.06,5.95 51.08,5.95C51.1,5.95 51.12,5.95 51.14,5.95C51.16,5.95 51.19,5.95 51.21,5.95C51.23,5.95 51.25,5.95 51.27,5.95C51.29,5.95 51.32,5.95 51.34,5.95C51.36,5.95 51.38,5.95 51.4,5.95C51.42,5.95 51.45,5.95 51.47,5.95C51.49,5.95 51.51,5.95 51.53,5.95C51.55,5.95 51.58,5.95 51.6,5.95C51.62,5.95 51.64,5.95 51.66,5.95C51.68,5.95 51.71,5.95 51.73,5.95C51.75,5.95 51.77,5.95 51.79,5.95C51.81,5.95 51.84,5.95 51.86,5.95C51.88,5.95 51.9,5.95 51.92,5.95C51.94,5.95 51.97,5.95 51.99,5.95C52.01,5.95 52.03,5.95 52.05,5.95C52.07,5.95 52.1,5.95 52.12,5.95C52.14,5.95 52.16,5.95 52.18,5.95C52.2,5.95 52.23,5.95 52.25,5.95C52.27,5.95 52.29,5.95 52.31,5.95C52.33,5.95 52.36,5.95 52.38,5.95C52.4,5.95 52.42,5.95 52.44,5.95C52.46,5.95 52.49,5.95 52.51,5.95C52.53,5.95 52.55,5.95 52.57,5.95C52.59,5.95 52.62,5.95 52.64,5.95C52.66,5.95 52.68,5.95 52.7,5.95C52.72,5.95 52.75,5.95 52.77,5.95C52.79,5.95 52.81,5.95 52.83,5.95C52.85,5.95 52.88,5.95 52.9,5.95C52.92,5.95 52.94,5.95 52.96,5.95C52.98,5.95 53.01,5.95 53.03,5.95C53.05,5.95 53.07,5.95 53.09,5.95C53.11,5.95 53.14,5.95 53.16,5.95C53.18,5.95 53.2,5.95 53.22,5.95C53.24,5.95 53.27,5.95 53.29,5.95C53.31,5.95 53.33,5.95 53.35,5.95C53.37,5.95 53.4,5.95 53.42,5.95C53.44,5.95 53.46,5.95 53.48,5.95C53.5,5.95 53.53,5.95 53.55,5.95C53.57,5.95 53.59,5.95 53.61,5.95C53.63,5.95 53.66,5.95 53.68,5.95C53.7,5.95 53.72,5.95 53.74,5.95C53.76,5.95 53.79,5.95 53.81,5.95C53.83,5.95 53.85,5.95 53.87,5.95C53.89,5.95 53.92,5.95 53.94,5.95C53.96,5.95 53.98,5.95 54,5.95C54.02,5.95 54.05,5.95 54.07,5.95C54.09,5.95 54.11,5.95 54.13,5.95C54.15,5.95 54.18,5.95 54.2,5.95C54.22,5.95 54.24,5.95 54.26,5.95C54.28,5.95 54.31,5.95 54.33,5.95C54.35,5.95 54.37,5.95 54.39,5.95C54.41,5.95 54.44,5.95 54.46,5.95C54.48,5.95 54.5,5.95 54.52,5.95C54.54,5.95 54.57,5.95 54.59,5.95C54.61,5.95 54.63,5.95 54.65,5.95C54.67,5.95 54.7,5.95 54.72,5.95C54.74,5.95 54.76,5.95 54.78,5.95C54.8,5.95 54.83,5.95 54.85,5.95C54.87,5.95 54.89,5.95 54.91,5.95C54.93,5.95 54.96,5.95 54.98,5.95C55,5.95 55.03,5.95 55.05,5.95C55.07,5.95 55.09,5.95 55.11,5.95C55.13,5.95 55.16,5.95 55.18,5.95C55.2,5.95 55.22,5.95 55.24,5.95C55.26,5.95 55.29,5.95 55.31,5.95C55.33,5.95 55.35,5.95 55.37,5.95C55.39,5.95 55.42,5.95 55.44,5.95C55.46,5.95 55.48,5.95 55.5,5.95C55.52,5.95 55.55,5.95 55.57,5.95C55.59,5.95 55.61,5.95 55.63,5.95C55.65,5.95 55.68,5.95 55.7,5.95C55.72,5.95 55.74,5.95 55.76,5.95C55.78,5.95 55.81,5.95 55.83,5.95C55.85,5.95 55.87,5.95 55.89,5.95C55.91,5.95 55.94,5.95 55.96,5.95C55.98,5.95 56,5.95 56.02,5.95C56.04,5.95 56.07,5.95 56.09,5.95C56.11,5.95 56.13,5.95 56.15,5.95C56.17,5.95 56.2,5.95 56.22,5.95C56.24,5.95 56.26,5.95 56.28,5.95C56.3,5.95 56.33,5.95 56.35,5.95C56.37,5.95 56.39,5.95 56.41,5.95C56.43,5.95 56.46,5.95 56.48,5.95C56.5,5.95 56.52,5.95 56.54,5.95C56.56,5.95 56.59,5.95 56.61,5.95C56.63,5.95 56.65,5.95 56.67,5.95C56.69,5.95 56.72,5.95 56.74,5.95C56.76,5.95 56.78,5.95 56.8,5.95C56.82,5.95 56.85,5.95 56.87,5.95C56.89,5.95 56.91,5.95 56.93,5.95C56.95,5.95 56.98,5.95 57,5.95C57.02,5.95 57.04,5.95 57.06,5.95C57.08,5.95 57.11,5.95 57.13,5.95C57.15,5.95 57.17,5.95 57.19,5.95C57.21,5.95 57.24,5.95 57.26,5.95C57.28,5.95 57.3,5.95 57.32,5.95C57.34,5.95 57.37,5.95 57.39,5.95C57.41,5.95 57.43,5.95 57.45,5.95C57.47,5.95 57.5,5.95 57.52,5.95C57.54,5.95 57.56,5.95 57.58,5.95C57.6,5.95 57.63,5.95 57.65,5.95C57.67,5.95 57.69,5.95 57.71,5.95C57.73,5.95 57.76,5.95 57.78,5.95C57.8,5.95 57.82,5.95 57.84,5.95C57.86,5.95 57.89,5.95 57.91,5.95C57.93,5.95 57.95,5.95 57.97,5.95C57.99,5.95 58.02,5.95 58.04,5.95C58.06,5.95 58.08,5.95 58.1,5.95C58.12,5.95 58.15,5.95 58.17,5.95C58.19,5.95 58.21,5.95 58.23,5.95C58.25,5.95 58.28,5.95 58.3,5.95C58.32,5.95 58.34,5.95 58.36,5.95C58.38,5.95 58.41,5.95 58.43,5.95C58.45,5.95 58.47,5.95 58.49,5.95C58.51,5.95 58.54,5.95 58.56,5.95C58.58,5.95 58.6,5.95 58.62,5.95C58.64,5.95 58.67,5.95 58.69,5.95C58.71,5.95 58.73,5.95 58.75,5.95C58.77,5.95 58.8,5.95 58.82,5.95C58.84,5.95 58.86,5.95 58.88,5.95C58.9,5.95 58.93,5.95 58.95,5.95C58.97,5.95 58.99,5.95 59.01,5.95C59.03,5.95 59.06,5.95 59.08,5.95C59.1,5.95 59.12,5.95 59.14,5.95C59.16,5.95 59.19,5.95 59.21,5.95C59.23,5.95 59.25,5.95 59.27,5.95C59.29,5.95 59.32,5.95 59.34,5.95C59.36,5.95 59.38,5.95 59.4,5.95C59.42,5.95 59.45,5.95 59.47,5.95C59.49,5.95 59.51,5.95 59.53,5.95C59.55,5.95 59.58,5.95 59.6,5.95C59.62,5.95 59.64,5.95 59.66,5.95C59.68,5.95 59.71,5.95 59.73,5.95C59.75,5.95 59.77,5.95 59.79,5.95C59.81,5.95 59.84,5.95 59.86,5.95C59.88,5.95 59.9,5.95 59.92,5.95C59.94,5.95 59.97,5.95 59.99,5.95C60.01,5.95 60.04,5.95 60.06,5.95C60.08,5.95 60.1,5.95 60.12,5.95C60.14,5.95 60.17,5.95 60.19,5.95C60.21,5.95 60.23,5.95 60.25,5.95C60.27,5.95 60.3,5.95 60.32,5.95C60.34,5.95 60.36,5.95 60.38,5.95C60.4,5.95 60.43,5.95 60.45,5.95C60.47,5.95 60.49,5.95 60.51,5.95C60.53,5.95 60.56,5.95 60.58,5.95C60.6,5.95 60.62,5.95 60.64,5.95C60.66,5.95 60.69,5.95 60.71,5.95C60.73,5.95 60.75,5.95 60.77,5.95C60.79,5.95 60.82,5.95 60.84,5.95C60.86,5.95 60.88,5.95 60.9,5.95C60.92,5.95 60.95,5.95 60.97,5.95C60.99,5.95 61.01,5.95 61.03,5.95C61.05,5.95 61.08,5.95 61.1,5.95C61.12,5.95 61.14,5.95 61.16,5.95C61.18,5.95 61.21,5.95 61.23,5.95C61.25,5.95 61.27,5.95 61.29,5.95C61.31,5.95 61.34,5.95 61.36,5.95C61.38,5.95 61.4,5.95 61.42,5.95C61.44,5.95 61.47,5.95 61.49,5.95C61.51,5.95 61.53,5.95 61.55,5.95C61.57,5.95 61.6,5.95 61.62,5.95C61.64,5.95 61.66,5.95 61.68,5.95C61.7,5.95 61.73,5.95 61.75,5.95C61.77,5.95 61.79,5.95 61.81,5.95C61.83,5.95 61.86,5.95 61.88,5.95C61.9,5.95 61.92,5.95 61.94,5.95C61.96,5.95 61.99,5.95 62.01,5.95C62.03,5.95 62.05,5.95 62.07,5.95C62.09,5.95 62.12,5.95 62.14,5.95C62.16,5.95 62.18,5.95 62.2,5.95C62.22,5.95 62.25,5.95 62.27,5.95C62.29,5.95 62.31,5.95 62.33,5.95C62.35,5.95 62.38,5.95 62.4,5.95C62.42,5.95 62.44,5.95 62.46,5.95C62.48,5.95 62.51,5.95 62.53,5.95C62.55,5.95 62.57,5.95 62.59,5.95C62.61,5.95 62.64,5.95 62.66,5.95C62.68,5.95 62.7,5.95 62.72,5.95C62.74,5.95 62.77,5.95 62.79,5.95C62.81,5.95 62.83,5.95 62.85,5.95C62.87,5.95 62.9,5.95 62.92,5.95C62.94,5.95 62.96,5.95 62.98,5.95C63,5.95 63.03,5.95 63.05,5.95C63.07,5.95 63.09,5.95 63.11,5.95C63.13,5.95 63.16,5.95 63.18,5.95C63.2,5.95 63.22,5.95 63.24,5.95C63.26,5.95 63.29,5.95 63.31,5.95C63.33,5.95 63.35,5.95 63.37,5.95C63.39,5.95 63.42,5.95 63.44,5.95C63.46,5.95 63.48,5.95 63.5,5.95C63.52,5.95 63.55,5.95 63.57,5.95C63.59,5.95 63.61,5.95 63.63,5.95C63.65,5.95 63.68,5.95 63.7,5.95C63.72,5.95 63.74,5.95 63.76,5.95C63.78,5.95 63.81,5.95 63.83,5.95C63.85,5.95 63.87,5.95 63.89,5.95C63.91,5.95 63.94,5.95 63.96,5.95C63.98,5.95 64,5.95 64.02,5.95C64.04,5.95 64.07,5.95 64.09,5.95C64.11,5.95 64.13,5.95 64.15,5.95C64.17,5.95 64.2,5.95 64.22,5.95C64.24,5.95 64.26,5.95 64.28,5.95C64.3,5.95 64.33,5.95 64.35,5.95C64.37,5.95 64.39,5.95 64.41,5.95C64.43,5.95 64.46,5.95 64.48,5.95C64.5,5.95 64.52,5.95 64.54,5.95C64.56,5.95 64.59,5.95 64.61,5.95C64.63,5.95 64.65,5.95 64.67,5.95C64.69,5.95 64.72,5.95 64.74,5.95C64.76,5.95 64.78,5.95 64.8,5.95C64.82,5.95 64.85,5.95 64.87,5.95C64.89,5.95 64.91,5.95 64.93,5.95Q64.95,5.95 65,5.95" style="vector-effect: none; fill: none; stroke: rgb(0, 0, 0); stroke-opacity: 1; stroke-width: 1.5px; opacity: 1;"/></g><g class="points"/><g class="text"/></g></g></g></g><path class="xlines-above crisp" d="M24.5,129.25H90.5M24.5,9.75H90.5" style="fill: none; stroke-width: 0.5px; stroke: rgb(0, 0, 0); stroke-opacity: 1;"/><path class="ylines-above crisp" d="M24.75,10V129M90.25,10V129" style="fill: none; stroke-width: 0.5px; stroke: rgb(0, 0, 0); stroke-opacity: 1;"/><g class="overlines-above"/><g class="xaxislayer-above"><path class="xtick ticks crisp" d="M0,129v-5" transform="translate(38.54,0)" style="stroke: rgb(0, 0, 0); stroke-opacity: 1; stroke-width: 0.5px;"/><path class="xtick ticks crisp" d="M0,129v-5" transform="translate(52.08,0)" style="stroke: rgb(0, 0, 0); stroke-opacity: 1; stroke-width: 0.5px;"/><path class="xtick ticks crisp" d="M0,129v-5" transform="translate(65.63,0)" style="stroke: rgb(0, 0, 0); stroke-opacity: 1; stroke-width: 0.5px;"/><path class="xtick ticks crisp" d="M0,129v-5" transform="translate(79.17,0)" style="stroke: rgb(0, 0, 0); stroke-opacity: 1; stroke-width: 0.5px;"/><g class="xtick"><text text-anchor="start" x="0" y="142.7" transform="translate(25,0) rotate(90,0,137.2)" style="font-family: 'Open Sans', verdana, arial, sans-serif; font-size: 11px; fill: rgb(0, 0, 0); fill-opacity: 1; white-space: pre; opacity: 1;">0</text></g><g class="xtick"><text text-anchor="start" x="0" y="142.7" style="font-family: 'Open Sans', verdana, arial, sans-serif; font-size: 11px; fill: rgb(0, 0, 0); fill-opacity: 1; white-space: pre; opacity: 1;" transform="translate(38.54,0) rotate(90,0,137.2)">5</text></g><g class="xtick"><text text-anchor="start" x="0" y="142.7" style="font-family: 'Open Sans', verdana, arial, sans-serif; font-size: 11px; fill: rgb(0, 0, 0); fill-opacity: 1; white-space: pre; opacity: 1;" transform="translate(52.08,0) rotate(90,0,137.2)">10</text></g><g class="xtick"><text text-anchor="start" x="0" y="142.7" style="font-family: 'Open Sans', verdana, arial, sans-serif; font-size: 11px; fill: rgb(0, 0, 0); fill-opacity: 1; white-space: pre; opacity: 1;" transform="translate(65.63,0) rotate(90,0,137.2)">15</text></g><g class="xtick"><text text-anchor="start" x="0" y="142.7" style="font-family: 'Open Sans', verdana, arial, sans-serif; font-size: 11px; fill: rgb(0, 0, 0); fill-opacity: 1; white-space: pre; opacity: 1;" transform="translate(79.17,0) rotate(90,0,137.2)">20</text></g></g><g class="yaxislayer-above"><path class="ytick ticks crisp" d="M25,0h5" transform="translate(0,123.05)" style="stroke: rgb(0, 0, 0); stroke-opacity: 1; stroke-width: 0.5px;"/><path class="ytick ticks crisp" d="M25,0h5" transform="translate(0,96.61)" style="stroke: rgb(0, 0, 0); stroke-opacity: 1; stroke-width: 0.5px;"/><path class="ytick ticks crisp" d="M25,0h5" transform="translate(0,70.16)" style="stroke: rgb(0, 0, 0); stroke-opacity: 1; stroke-width: 0.5px;"/><path class="ytick ticks crisp" d="M25,0h5" transform="translate(0,43.72)" style="stroke: rgb(0, 0, 0); stroke-opacity: 1; stroke-width: 0.5px;"/><path class="ytick ticks crisp" d="M25,0h5" transform="translate(0,17.27)" style="stroke: rgb(0, 0, 0); stroke-opacity: 1; stroke-width: 0.5px;"/><g class="ytick"><text text-anchor="end" x="22.3" y="3.8499999999999996" transform="translate(0,123.05)" style="font-family: 'Open Sans', verdana, arial, sans-serif; font-size: 11px; fill: rgb(0, 0, 0); fill-opacity: 1; white-space: pre; opacity: 1;">0</text></g><g class="ytick"><text text-anchor="end" x="22.3" y="3.8499999999999996" style="font-family: 'Open Sans', verdana, arial, sans-serif; font-size: 11px; fill: rgb(0, 0, 0); fill-opacity: 1; white-space: pre; opacity: 1;" transform="translate(0,96.61)">0.05</text></g><g class="ytick"><text text-anchor="end" x="22.3" y="3.8499999999999996" style="font-family: 'Open Sans', verdana, arial, sans-serif; font-size: 11px; fill: rgb(0, 0, 0); fill-opacity: 1; white-space: pre; opacity: 1;" transform="translate(0,70.16)">0.1</text></g><g class="ytick"><text text-anchor="end" x="22.3" y="3.8499999999999996" style="font-family: 'Open Sans', verdana, arial, sans-serif; font-size: 11px; fill: rgb(0, 0, 0); fill-opacity: 1; white-space: pre; opacity: 1;" transform="translate(0,43.72)">0.15</text></g><g class="ytick"><text text-anchor="end" x="22.3" y="3.8499999999999996" style="font-family: 'Open Sans', verdana, arial, sans-serif; font-size: 11px; fill: rgb(0, 0, 0); fill-opacity: 1; white-space: pre; opacity: 1;" transform="translate(0,17.27)">0.2</text></g></g><g class="overaxes-above"/></g></g><g class="polarlayer"/><g class="smithlayer"/><g class="ternarylayer"/><g class="geolayer"/><g class="funnelarealayer"/><g class="pielayer"/><g class="iciclelayer"/><g class="treemaplayer"/><g class="sunburstlayer"/><g class="glimages"/><defs id="topdefs-511f14"><g class="clips"/></defs><g class="layer-above"><g class="imagelayer"/><g class="shapelayer"/></g><g class="infolayer"><g class="g-gtitle"/><g class="g-xtitle"/><g class="g-ytitle"/></g></svg>