<svg class="main-svg" xmlns="http://www.w3.org/2000/svg" xmlns:xlink="http://www.w3.org/1999/xlink" width="260" height="180" style="" viewBox="0 0 260 180"><rect x="0" y="0" width="260" height="180" style="fill: rgb(255, 255, 255); fill-opacity: 1;"/><defs id="defs-0ab727"><g class="clips"><clipPath id="clip0ab727xyplot" class="plotclip"><rect width="110.675" height="130"/></clipPath><clipPath id="clip0ab727x2y2plot" class="plotclip"><rect width="110.675" height="130"/></clipPath><clipPath class="axesclip" id="clip0ab727x"><rect x="26" y="0" width="110.675" height="180"/></clipPath><clipPath class="axesclip" id="clip0ab727y"><rect x="0" y="20" width="260" height="130"/></clipPath><clipPath class="axesclip" id="clip0ab727xy"><rect x="26" y="20" width="110.675" height="130"/></clipPath><clipPath class="axesclip" id="clip0ab727y2"><rect x="0" y="20" width="260" height="130"/></clipPath><clipPath class="axesclip" id="clip0ab727xy2"><rect x="26" y="20" width="110.675" height="130"/></clipPath><clipPath class="axesclip" id="clip0ab727x2"><rect x="148.325" y="0" width="110.675" height="180"/></clipPath><clipPath class="axesclip" id="clip0ab727x2y"><rect x="148.325" y="20" width="110.675" height="130"/></clipPath><clipPath class="axesclip" id="clip0ab727x2y2"><rect x="148.325" y="20" width="110.675" height="130"/></clipPath></g><g class="gradients"/><g class="patterns"/></defs><g class="bglayer"/><g class="layer-below"><g class="imagelayer"/><g class="shapelayer"/></g><g class="cartesianlayer"><g class="subplot xy"><g class="layer-subplot"><g class="shapelayer"/><g class="imagelayer"/></g><g class="minor-gridlayer"><g class="x"/><g class="y"/></g><g class="gridlayer"><g class="x"><path class="xgrid crisp" transform="translate(70.27000000000001,0)" d="M0,20v130" style="stroke: rgb(128, 128, 128); stroke-opacity: 1; stroke-width: 0.2px;"/><path class="xgrid crisp" transform="translate(114.54,0)" d="M0,20v130" style="stroke: rgb(128, 128, 128); stroke-opacity: 1; stroke-width: 0.2px;"/></g><g class="y"><path class="ygrid crisp" transform="translate(0,143.5)" d="M26,0h110.675" style="stroke: rgb(128, 128, 128); stroke-opacity: 1; stroke-width: 0.2px;"/><path class="ygrid crisp" transform="translate(0,102.17)" d="M26,0h110.675" style="stroke: rgb(128, 128, 128); stroke-opacity: 1; stroke-width: 0.2px;"/><path class="ygrid crisp" transform="translate(0,60.84)" d="M26,0h110.675" style="stroke: rgb(128, 128, 128); stroke-opacity: 1; stroke-width: 0.2px;"/></g></g><g class="zerolinelayer"/><g class="layer-between"><g class="shapelayer"/><g class="imagelayer"/></g><path class="xlines-below"/><path class="ylines-below"/><g class="overlines-below"/><g class="xaxislayer-below"/><g class="yaxislayer-below"/><g class="overaxes-below"/><g class="overplot"><g class="xy" transform="translate(26,20)" clip-path="url(#clip0ab727xyplot)"><g class="scatterlayer mlayer"><g class="trace scatter trace83e24e" style="stroke-miterlimit: 2; opacity: 1;"><g class="fills"/><g class="errorbars"/><g class="lines"><path class="js-line" d="M0,102.84L1.33,81.39L1.38,80.14L2.99,36.97L3.49,38.89L3.54,39.13L6.42,47.68L6.48,47.79L9.63,52.48L9.69,52.54L14.45,57.01L14.51,57.05L30.28,71.69L30.34,71.75L44.35,88.12L44.4,88.19L58.35,103.64L58.41,103.69L65.33,108.82L65.39,108.85L70.7,111.3L70.76,111.32L77.07,112.89L77.12,112.9L86.15,113.74L86.2,113.74L103.37,114L103.42,114L110.68,114.01" style="vector-effect: none; fill: none; stroke: rgb(117, 112, 179); stroke-opacity: 1; stroke-width: 1.5px; opacity: 1;"/></g><g class="points"/><g class="text"/></g><g class="trace scatter trace6a8d32" style="stroke-miterlimit: 2; opacity: 1;"><g class="fills"/><g class="errorbars"/><g class="lines"><path class="js-line" d="M0,102.84L0.28,103.24L0.78,102.92L0.83,102.87L5.7,98.59L5.76,98.56L15.39,90.46L15.45,90.4L25.3,79.51L25.36,79.44L33,69.27L33.05,69.19L59.13,31.51L59.19,31.45L65.28,25.91L65.33,25.87L71.25,22.58L71.31,22.56L77.46,20.83L77.51,20.82L87.09,19.88L87.14,19.88L104.14,19.63L104.2,19.63L110.68,19.62" style="vector-effect: none; fill: none; stroke: rgb(217, 95, 2); stroke-opacity: 1; stroke-width: 1.5px; opacity: 1;"/></g><g class="points"/><g class="text"/></g></g></g></g><path class="xlines-above crisp" d="M25.5,150.25H137.175M25.5,19.75H137.175" style="fill: none; stroke-width: 0.5px; stroke: rgb(0, 0, 0); stroke-opacity: 1;"/><path class="ylines-above crisp" d="M25.75,20V150M136.925,20V150" style="fill: none; stroke-width: 0.5px; stroke: rgb(0, 0, 0); stroke-opacity: 1;"/><g class="overlines-above"/><g class="xaxislayer-above"><path class="xtick ticks crisp" d="M0,150v-5" transform="translate(70.27000000000001,0)" style="stroke: rgb(0, 0, 0); stroke-opacity: 1; stroke-width: 0.5px;"/><path class="xtick ticks crisp" d="M0,150v-5" transform="translate(114.54,0)" style="stroke: rgb(0, 0, 0); stroke-opacity: 1; stroke-width: 0.5px;"/><g class="xtick"><text text-anchor="middle" x="0" y="163.7" transform="translate(26,0)" style="font-family: 'Open Sans', verdana, arial, sans-serif; font-size: 11px; fill: rgb(0, 0, 0); fill-opacity: 1; white-space: pre; opacity: 1;">0</text></g><g class="xtick"><text text-anchor="middle" x="0" y="163.7" style="font-family: 'Open Sans', verdana, arial, sans-serif; font-size: 11px; fill: rgb(0, 0, 0); fill-opacity: 1; white-space: pre; opacity: 1;" transform="translate(70.27000000000001,0)">100</text></g><g class="xtick"><text text-anchor="middle" x="0" y="163.7" style="font-family: 'Open Sans', verdana, arial, sans-serif; font-size: 11px; fill: rgb(0, 0, 0); fill-opacity: 1; white-space: pre; opacity: 1;" transform="translate(114.54,0)">200</text></g></g><g class="yaxislayer-above"><path class="ytick ticks crisp" d="M26,0h5" transform="translate(0,143.5)" style="stroke: rgb(0, 0, 0); stroke-opacity: 1; stroke-width: 0.5px;"/><path class="ytick ticks crisp" d="M26,0h5" transform="translate(0,102.17)" style="stroke: rgb(0, 0, 0); stroke-opacity: 1; stroke-width: 0.5px;"/><path class="ytick ticks crisp" d="M26,0h5" transform="translate(0,60.84)" style="stroke: rgb(0, 0, 0); stroke-opacity: 1; stroke-width: 0.5px;"/><g class="ytick"><text text-anchor="end" x="23.3" y="3.8499999999999996" transform="translate(0,143.5)" style="font-family: 'Open Sans', verdana, arial, sans-serif; font-size: 11px; fill: rgb(0, 0, 0); fill-opacity: 1; white-space: pre; opacity: 1;">0</text></g><g class="ytick"><text text-anchor="end" x="23.3" y="3.8499999999999996" style="font-family: 'Open Sans', verdana, arial, sans-serif; font-size: 11px; fill: rgb(0, 0, 0); fill-opacity: 1; white-space: pre; opacity: 1;" transform="translate(0,102.17)">0.1</text></g><g class="ytick"><text text-anchor="end" x="23.3" y="3.8499999999999996" style="font-family: 'Open Sans', verdana, arial, sans-serif; font-size: 11px; fill: rgb(0, 0, 0); fill-opacity: 1; white-space: pre; opacity: 1;" transform="translate(0,60.84)">0.2</text></g></g><g class="overaxes-above"/></g><g class="subplot x2y2"><g class="layer-subplot"><g class="shapelayer"/><g class="imagelayer"/></g><g class="minor-gridlayer"><g class="x2"/><g class="y2"/></g><g class="gridlayer"><g class="x2"><path class="x2grid crisp" transform="translate(192.595,0)" d="M0,20v130" style="stroke: rgb(128, 128, 128); stroke-opacity: 1; stroke-width: 0.2px;"/><path class="x2grid crisp" transform="translate(236.865,0)" d="M0,20v130" style="stroke: rgb(128, 128, 128); stroke-opacity: 1; stroke-width: 0.2px;"/></g><g class="y2"><path class="y2grid crisp" transform="translate(0,143.5)" d="M148.325,0h110.675" style="stroke: rgb(128, 128, 128); stroke-opacity: 1; stroke-width: 0.2px;"/><path class="y2grid crisp" transform="translate(0,102.17)" d="M148.325,0h110.675" style="stroke: rgb(128, 128, 128); stroke-opacity: 1; stroke-width: 0.2px;"/><path class="y2grid crisp" transform="translate(0,60.84)" d="M148.325,0h110.675" style="stroke: rgb(128, 128, 128); stroke-opacity: 1; stroke-width: 0.2px;"/></g></g><g class="zerolinelayer"/><g class="layer-between"><g class="shapelayer"/><g class="imagelayer"/></g><path class="xlines-below"/><path class="ylines-below"/><g class="overlines-below"/><g class="xaxislayer-below"/><g class="yaxislayer-below"/><g class="overaxes-below"/><g class="overplot"><g class="x2y2" transform="translate(148.325,20)" clip-path="url(#clip0ab727x2y2plot)"><g class="scatterlayer mlayer"><g class="trace scatter trace0a0483" style="stroke-miterlimit: 2; opacity: 1;"><g class="fills"/><g class="errorbars"/><g class="lines"><path class="js-line" d="M0,102.84L1.55,76.2L1.66,73.4L2.99,38.29L3.43,40.15L3.55,40.65L6.2,49.08L6.31,49.33L10.3,55.73L10.41,55.86L17.61,63.81L17.73,63.93L28.69,77.92L28.8,78.09L34.68,87.17L34.79,87.35L51.07,112.89L51.18,113.02L56.28,117.92L56.39,118L61.49,120.81L61.6,120.86L68.35,122.55L68.47,122.56L79.65,123.34L79.77,123.34L99.49,123.49L99.6,123.49L110.68,123.5" style="vector-effect: none; fill: none; stroke: rgb(117, 112, 179); stroke-opacity: 1; stroke-width: 1.5px; opacity: 1;"/></g><g class="points"/><g class="text"/></g><g class="trace scatter trace57ca31" style="stroke-miterlimit: 2; opacity: 1;"><g class="fills"/><g class="errorbars"/><g class="lines"><path class="js-line" d="M0,102.84L4.76,97.1L4.87,97.01L9.86,92.33L9.97,92.21L15.84,85.29L15.95,85.15L25.04,71.55L25.15,71.36L34.12,54.4L34.23,54.17L51.18,20.04L51.29,19.87L55.95,14.03L56.06,13.92L60.49,10.51L60.6,10.45L65.47,8.41L65.59,8.38L73.12,7.09L73.23,7.08L87.19,6.56L87.3,6.56L110.68,6.5" style="vector-effect: none; fill: none; stroke: rgb(217, 95, 2); stroke-opacity: 1; stroke-width: 1.5px; opacity: 1;"/></g><g class="points"/><g class="text"/></g></g></g></g><path class="xlines-above crisp" d="M147.825,150.25H259.5M147.825,19.75H259.5" style="fill: none; stroke-width: 0.5px; stroke: rgb(0, 0, 0); stroke-opacity: 1;"/><path class="ylines-above crisp" d="M148.075,20V150M259.25,20V150" style="fill: none; stroke-width: 0.5px; stroke: rgb(0, 0, 0); stroke-opacity: 1;"/><g class="overlines-above"/><g class="xaxislayer-above"><g class="x2tick"><text text-anchor="middle" x="0" y="163.7" transform="translate(148.325,0)" style="font-family: 'Open Sans', verdana, arial, sans-serif; font-size: 11px; fill: rgb(0, 0, 0); fill-opacity: 1; white-space: pre; opacity: 1;">0</text></g><g class="x2tick"><text text-anchor="middle" x="0" y="163.7" style="font-family: 'Open Sans', verdana, arial, sans-serif; font-size: 11px; fill: rgb(0, 0, 0); fill-opacity: 1; white-space: pre; opacity: 1;" transform="translate(192.595,0)">100</text></g><g class="x2tick"><text text-anchor="middle" x="0" y="163.7" style="font-family: 'Open Sans', verdana, arial, sans-serif; font-size: 11px; fill: rgb(0, 0, 0); fill-opacity: 1; white-space: pre; opacity: 1;" transform="translate(236.865,0)">200</text></g></g><g class="yaxislayer-above"/><g class="overaxes-above"/></g></g><g class="polarlayer"/><g class="smithlayer"/><g class="ternarylayer"/><g class="geolayer"/><g class="funnelarealayer"/><g class="pielayer"/><g class="iciclelayer"/><g class="treemaplayer"/><g class="sunburstlayer"/><g class="glimages"/><defs id="topdefs-0ab727"><g class="clips"/></defs><g class="layer-above"><g class="imagelayer"/><g class="shapelayer"/></g><g class="infolayer"><g class="g-gtitle"/><g class="g-xtitle" transform="translate(0,2.8468750000000114)"><text class="xtitle" x="81.3375" y="174.153125" text-anchor="middle" style="opacity: 1; font-family: 'Open Sans', verdana, arial, sans-serif; font-size: 11px; fill: rgb(0, 0, 0); fill-opacity: 1; white-space: pre;">Time [h]</text></g><g class="g-x2title"/><g class="g-ytitle" transform="translate(7.818359375,0)"><text class="ytitle" transform="rotate(-90,4.181249999999999,85)" x="4.181249999999999" y="85" text-anchor="middle" style="opacity: 1; font-family: 'Open Sans', verdana, arial, sans-serif; font-size: 11px; fill: rgb(0, 0, 0); fill-opacity: 1; white-space: pre;">OD</text></g><g class="g-y2title"/><g class="annotation" data-index="0" style="opacity: 1;"><g class="annotation-text-g" transform="rotate(0,81.3375,10.499999999999998)"><g class="cursor-pointer" transform="translate(44,1)"><rect class="bg" x="0.5" y="0.5" width="74" height="18" style="stroke-width: 1px; stroke: rgb(0, 0, 0); stroke-opacity: 0; fill: rgb(0, 0, 0); fill-opacity: 0;"/><text class="annotation-text" text-anchor="middle" x="37.25" y="14" style="font-family: 'Open Sans', verdana, arial, sans-serif; font-size: 11px; fill: rgb(0, 0, 0); fill-opacity: 1; white-space: pre;">Cross-feeding</text></g></g></g><g class="annotation" data-index="1" style="opacity: 1;"><g class="annotation-text-g" transform="rotate(0,203.6625,10.499999999999996)"><g class="cursor-pointer" transform="translate(158,1)"><rect class="bg" x="0.5" y="0.5" width="90" height="18" style="stroke-width: 1px; stroke: rgb(0, 0, 0); stroke-opacity: 0; fill: rgb(0, 0, 0); fill-opacity: 0;"/><text class="annotation-text" text-anchor="middle" x="45.296875" y="14" style="font-family: 'Open Sans', verdana, arial, sans-serif; font-size: 11px; fill: rgb(0, 0, 0); fill-opacity: 1; white-space: pre;">No cross-feeding</text></g></g></g></g></svg>