<svg class="main-svg" xmlns="http://www.w3.org/2000/svg" xmlns:xlink="http://www.w3.org/1999/xlink" width="150" height="110" style="" viewBox="0 0 150 110"><rect x="0" y="0" width="150" height="110" style="fill: rgb(255, 255, 255); fill-opacity: 1;"/><defs id="defs-78011c"><g class="clips"><clipPath id="clip78011cxyplot" class="plotclip"><rect width="64" height="74"/></clipPath><clipPath class="axesclip" id="clip78011cx"><rect x="22" y="0" width="64" height="110"/></clipPath><clipPath class="axesclip" id="clip78011cy"><rect x="0" y="11" width="150" height="74"/></clipPath><clipPath class="axesclip" id="clip78011cxy"><rect x="22" y="11" width="64" height="74"/></clipPath><clipPath class="contourclip" id="clip5cb8b2"><path d="M0,0L64,0L64,74L0,74Z"/></clipPath></g><g class="gradients"/><g class="patterns"/></defs><g class="bglayer"/><g class="layer-below"><g class="imagelayer"/><g class="shapelayer"/></g><g class="cartesianlayer"><g class="subplot xy"><g class="layer-subplot"><g class="shapelayer"/><g class="imagelayer"/></g><g class="minor-gridlayer"><g class="x"/><g class="y"/></g><g class="gridlayer"><g class="x"><path class="xgrid crisp" transform="translate(43.33,0)" d="M0,11v74" style="stroke: rgb(0, 0, 0); stroke-opacity: 1; stroke-width: 0.5px;"/><path class="xgrid crisp" transform="translate(64.67,0)" d="M0,11v74" style="stroke: rgb(0, 0, 0); stroke-opacity: 1; stroke-width: 0.5px;"/></g><g class="y"><path class="ygrid crisp" transform="translate(0,76.78)" d="M22,0h64" style="stroke: rgb(0, 0, 0); stroke-opacity: 1; stroke-width: 0.5px;"/><path class="ygrid crisp" transform="translate(0,60.33)" d="M22,0h64" style="stroke: rgb(0, 0, 0); stroke-opacity: 1; stroke-width: 0.5px;"/><path class="ygrid crisp" transform="translate(0,43.89)" d="M22,0h64" style="stroke: rgb(0, 0, 0); stroke-opacity: 1; stroke-width: 0.5px;"/><path class="ygrid crisp" transform="translate(0,27.44)" d="M22,0h64" style="stroke: rgb(0, 0, 0); stroke-opacity: 1; stroke-width: 0.5px;"/></g></g><g class="zerolinelayer"/><g class="layer-between"><g class="shapelayer"/><g class="imagelayer"/></g><path class="xlines-below"/><path class="ylines-below"/><g class="overlines-below"/><g class="xaxislayer-below"/><g class="yaxislayer-below"/><g class="overaxes-below"/><g class="overplot"><g class="xy" transform="translate(22,11)" clip-path="url(#clip78011cxyplot)"><g class="contourlayer mlayer"><g class="contour" clip-path="url(#clip5cb8b2)" style="opacity: 1;"><g class="heatmapcoloring"/><g class="contourbg"><path d="M0,0L64,0L64,74L0,74Z" style="stroke: none; fill: rgb(192, 190, 220);"/></g><g class="contourfill"><path d="M0,68.94Q1.68,68.85 3.05,68.77C5.84,68.61 12.27,68.24 15.81,68.02C18.33,67.87 20.85,67.81 22.29,67.61C23.01,67.51 23.27,67.41 23.91,67.27C24.83,67.07 26.46,66.71 27.26,66.53C27.7,66.43 27.92,66.39 28.29,66.28C28.73,66.15 29.2,65.97 29.72,65.78C30.35,65.55 31.17,65.26 31.799999999999997,64.99000000000001C32.33,64.76 32.78,64.52 33.25,64.28C33.7,64.05 34.13,63.83 34.56,63.585C34.98,63.34 35.45,63.03 35.8,62.79C36.07,62.61 36.32,62.44 36.51,62.3C36.65,62.2 36.71,62.15 36.85,62.04C37.09,61.86 37.55,61.49 37.79,61.29C37.95,61.16 38.04,61.08 38.17,60.97C38.32,60.84 38.47,60.71 38.64,60.55C38.87,60.34 39.26,59.96 39.42,59.8C39.49,59.73 39.51,59.71 39.58,59.64C39.71,59.51 39.95,59.26 40.14,59.05C40.35,58.82 40.59,58.56 40.805,58.305C41.02,58.06 41.24,57.79 41.43,57.56C41.59,57.36 41.78,57.13 41.88,56.99C41.94,56.91 41.95,56.89 42.01,56.81C42.13,56.65 42.41,56.27 42.56,56.06C42.67,55.91 42.75,55.79 42.84,55.66C42.92,55.54 42.99,55.45 43.08,55.31C43.22,55.11 43.45,54.75 43.57,54.57C43.64,54.47 43.66,54.42 43.72,54.33C43.81,54.19 43.93,54.01 44.04,53.82C44.18,53.59 44.35,53.29 44.5,53.035C44.64,52.79 44.77,52.55 44.9,52.32C45.02,52.1 45.18,51.8 45.25,51.68C45.28,51.63 45.28,51.63 45.31,51.58C45.38,51.45 45.58,51.05 45.69,50.83C45.78,50.65 45.86,50.49 45.93,50.35C45.98,50.25 46.01,50.19 46.07,50.08C46.16,49.89 46.33,49.53 46.42,49.33C46.48,49.2 46.52,49.13 46.57,49.02C46.63,48.89 46.7,48.75 46.77,48.59C46.87,48.37 47.03,47.99 47.1,47.84C47.13,47.77 47.13,47.76 47.16,47.69C47.22,47.56 47.33,47.3 47.42,47.09C47.52,46.86 47.62,46.6 47.724999999999994,46.355000000000004C47.83,46.11 47.94,45.83 48.03,45.6C48.11,45.4 48.2,45.18 48.25,45.04C48.28,44.96 48.29,44.93 48.32,44.85C48.38,44.68 48.52,44.31 48.6,44.1C48.66,43.95 48.7,43.84 48.75,43.71C48.8,43.59 48.83,43.49 48.88,43.35C48.95,43.15 49.08,42.79 49.14,42.61C49.17,42.51 49.19,42.47 49.22,42.38C49.27,42.24 49.33,42.05 49.4,41.86C49.48,41.63 49.58,41.34 49.66,41.085C49.74,40.84 49.82,40.59 49.9,40.36C49.97,40.14 50.06,39.85 50.1,39.73C50.12,39.68 50.11,39.67 50.13,39.62C50.17,39.48 50.3,39.09 50.37,38.87C50.42,38.7 50.47,38.54 50.51,38.4C50.54,38.29 50.56,38.24 50.59,38.12C50.64,37.93 50.75,37.56 50.81,37.37C50.85,37.25 50.87,37.18 50.9,37.07C50.94,36.94 50.98,36.8 51.03,36.63C51.09,36.41 51.2,36.03 51.24,35.88C51.26,35.82 51.26,35.81 51.28,35.75C51.32,35.62 51.39,35.35 51.45,35.13C51.51,34.9 51.58,34.65 51.644999999999996,34.400000000000006C51.71,34.15 51.79,33.87 51.85,33.64C51.9,33.44 51.96,33.23 51.99,33.09C52.01,33.01 52.02,32.98 52.04,32.89C52.08,32.72 52.18,32.35 52.23,32.14C52.27,31.99 52.29,31.89 52.32,31.76C52.35,31.64 52.37,31.53 52.41,31.39C52.46,31.19 52.56,30.82 52.6,30.65C52.62,30.56 52.63,30.53 52.65,30.44C52.68,30.3 52.73,30.1 52.78,29.9C52.83,29.67 52.9,29.38 52.955,29.13C53.01,28.88 53.07,28.63 53.12,28.4C53.17,28.18 53.23,27.91 53.26,27.78C53.27,27.72 53.28,27.72 53.29,27.66C53.32,27.52 53.41,27.13 53.46,26.91C53.5,26.74 53.53,26.59 53.56,26.45C53.58,26.34 53.59,26.28 53.62,26.16C53.66,25.97 53.74,25.6 53.78,25.41C53.8,25.29 53.82,25.23 53.84,25.13C53.87,25 53.9,24.84 53.94,24.67C53.99,24.45 54.06,24.06 54.09,23.92C54.1,23.86 54.11,23.86 54.12,23.8C54.15,23.67 54.2,23.39 54.24,23.17C54.29,22.94 54.34,22.69 54.385000000000005,22.445C54.44,22.19 54.49,21.91 54.54,21.68C54.58,21.48 54.61,21.28 54.64,21.14C54.66,21.05 54.67,21.02 54.69,20.93C54.73,20.76 54.79,20.38 54.83,20.18C54.86,20.04 54.88,19.94 54.9,19.82C54.92,19.69 54.94,19.58 54.97,19.43C55.01,19.22 55.08,18.86 55.11,18.69C55.12,18.6 55.13,18.57 55.14,18.49C55.16,18.35 55.2,18.14 55.24,17.94C55.28,17.71 55.33,17.43 55.38,17.175C55.42,16.93 55.47,16.67 55.51,16.44C55.55,16.23 55.6,15.96 55.62,15.83C55.63,15.77 55.63,15.76 55.64,15.7C55.66,15.55 55.73,15.17 55.77,14.95C55.8,14.78 55.83,14.64 55.85,14.51C55.87,14.4 55.88,14.33 55.9,14.2C55.93,14 55.99,13.64 56.02,13.45C56.04,13.34 56.05,13.28 56.07,13.18C56.09,13.04 56.12,12.88 56.15,12.71C56.19,12.49 56.25,12.1 56.27,11.96C56.28,11.91 56.28,11.9 56.29,11.85C56.31,11.73 56.36,11.43 56.39,11.21C56.43,10.98 56.47,10.73 56.504999999999995,10.49C56.55,10.24 56.59,9.95 56.63,9.72C56.66,9.53 56.69,9.34 56.71,9.2C56.72,9.11 56.73,9.07 56.74,8.97C56.77,8.79 56.83,8.42 56.86,8.22C56.88,8.08 56.89,7.99 56.91,7.87C56.93,7.74 56.95,7.62 56.97,7.47C57,7.26 57.05,6.9 57.08,6.73C57.09,6.65 57.1,6.62 57.11,6.54C57.13,6.4 57.16,6.18 57.19,5.98C57.22,5.75 57.26,5.47 57.3,5.220000000000001C57.34,4.97 57.38,4.71 57.41,4.48C57.44,4.27 57.47,4.02 57.49,3.89C57.5,3.82 57.5,3.81 57.51,3.74C57.53,3.59 57.59,3.21 57.62,2.99C57.64,2.83 57.66,2.69 57.68,2.56C57.7,2.45 57.7,2.37 57.72,2.24C57.75,2.04 57.81,1.68 57.83,1.49C57.84,1.38 57.85,1.33 57.86,1.23C57.88,1.09 57.91,0.93 57.93,0.75Q57.96,0.53 58.03,0L64,0L64,74L0,74Z" style="stroke: none; fill: rgb(206, 204, 228);"/><path d="M0,72.26Q7.91,71.93 11.71,71.76C15.33,71.6 20.31,71.46 22.29,71.26C23.07,71.18 23.24,71.12 23.91,71.01C25.02,70.83 27.01,70.55 28.295,70.265C29.33,70.04 30.41,69.71 31.06,69.52C31.42,69.42 31.59,69.37 31.9,69.27C32.3,69.14 32.81,68.94 33.25,68.77C33.67,68.61 34.16,68.41 34.49,68.27C34.71,68.18 34.81,68.13 35.03,68.02C35.4,67.84 36.04,67.53 36.515,67.275C36.96,67.03 37.49,66.72 37.79,66.53C37.96,66.43 38.02,66.38 38.17,66.28C38.37,66.14 38.66,65.95 38.9,65.78C39.13,65.62 39.4,65.43 39.58,65.29C39.71,65.19 39.77,65.14 39.91,65.03C40.14,64.85 40.52,64.54 40.805,64.285C41.09,64.04 41.44,63.72 41.63,63.54C41.74,63.44 41.78,63.4 41.88,63.3C42.02,63.16 42.22,62.96 42.38,62.79C42.54,62.63 42.71,62.44 42.84,62.3C42.93,62.2 42.98,62.15 43.08,62.04C43.24,61.86 43.51,61.55 43.72,61.3C43.93,61.05 44.18,60.73 44.33,60.55C44.41,60.45 44.45,60.41 44.52,60.31C44.63,60.17 44.78,59.97 44.9,59.8C45.02,59.64 45.15,59.45 45.25,59.31C45.32,59.21 45.36,59.16 45.44,59.05C45.57,58.87 45.77,58.56 45.935,58.31C46.1,58.06 46.3,57.74 46.42,57.56C46.48,57.46 46.51,57.42 46.57,57.32C46.66,57.18 46.78,56.98 46.88,56.81C46.98,56.65 47.08,56.47 47.16,56.33C47.22,56.23 47.26,56.17 47.32,56.06C47.43,55.87 47.59,55.57 47.724999999999994,55.32C47.86,55.07 48.04,54.75 48.13,54.57C48.18,54.47 48.2,54.43 48.25,54.34C48.32,54.2 48.43,53.99 48.51,53.82C48.59,53.66 48.68,53.48 48.75,53.34C48.8,53.24 48.83,53.18 48.88,53.07C48.97,52.88 49.11,52.58 49.224999999999994,52.33C49.34,52.08 49.49,51.76 49.57,51.58C49.61,51.48 49.63,51.44 49.67,51.35C49.73,51.21 49.83,51 49.9,50.83C49.97,50.67 50.04,50.49 50.1,50.35C50.14,50.25 50.16,50.19 50.21,50.08C50.29,49.89 50.42,49.59 50.515,49.345C50.62,49.1 50.74,48.77 50.81,48.59C50.85,48.49 50.86,48.45 50.9,48.36C50.95,48.22 51.04,48.01 51.1,47.84C51.16,47.68 51.23,47.51 51.28,47.37C51.32,47.26 51.34,47.21 51.38,47.09C51.45,46.9 51.56,46.6 51.644999999999996,46.355000000000004C51.73,46.11 51.85,45.78 51.91,45.6C51.94,45.5 51.96,45.46 51.99,45.37C52.04,45.23 52.11,45.02 52.17,44.85C52.22,44.69 52.28,44.52 52.32,44.38C52.35,44.27 52.37,44.22 52.41,44.1C52.47,43.91 52.58,43.61 52.655,43.365C52.74,43.12 52.83,42.79 52.89,42.61C52.92,42.51 52.93,42.48 52.96,42.39C53,42.25 53.07,42.03 53.12,41.86C53.17,41.7 53.22,41.53 53.26,41.39C53.29,41.28 53.31,41.23 53.35,41.11C53.41,40.92 53.49,40.63 53.565,40.379999999999995C53.64,40.13 53.73,39.8 53.78,39.62C53.81,39.52 53.82,39.49 53.84,39.4C53.88,39.26 53.94,39.04 53.99,38.87C54.03,38.71 54.08,38.55 54.12,38.41C54.15,38.3 54.16,38.24 54.19,38.12C54.24,37.93 54.32,37.64 54.385000000000005,37.39C54.45,37.14 54.55,36.81 54.59,36.63C54.61,36.53 54.62,36.5 54.64,36.41C54.67,36.27 54.74,36.05 54.78,35.88C54.82,35.72 54.87,35.56 54.9,35.42C54.93,35.31 54.94,35.25 54.97,35.13C55.02,34.94 55.09,34.65 55.144999999999996,34.400000000000006C55.21,34.15 55.29,33.81 55.33,33.64C55.35,33.55 55.36,33.52 55.38,33.43C55.41,33.29 55.47,33.06 55.51,32.89C55.55,32.73 55.59,32.57 55.62,32.43C55.64,32.32 55.65,32.26 55.68,32.14C55.72,31.95 55.8,31.66 55.855000000000004,31.415C55.91,31.16 55.98,30.83 56.02,30.65C56.04,30.56 56.05,30.53 56.07,30.44C56.1,30.3 56.15,30.07 56.19,29.9C56.23,29.74 56.26,29.58 56.29,29.44C56.31,29.33 56.33,29.27 56.35,29.15C56.39,28.96 56.45,28.67 56.504999999999995,28.424999999999997C56.56,28.17 56.62,27.84 56.66,27.66C56.68,27.57 56.69,27.54 56.71,27.45C56.74,27.31 56.79,27.08 56.82,26.91C56.85,26.75 56.88,26.59 56.91,26.46C56.93,26.35 56.95,26.28 56.97,26.16C57.01,25.97 57.07,25.68 57.114999999999995,25.435000000000002C57.16,25.18 57.23,24.84 57.26,24.67C57.28,24.58 57.28,24.55 57.3,24.47C57.33,24.33 57.38,24.09 57.41,23.92C57.44,23.76 57.46,23.6 57.49,23.47C57.51,23.36 57.53,23.29 57.55,23.17C57.59,22.98 57.64,22.69 57.685,22.450000000000003C57.73,22.2 57.8,21.85 57.83,21.68C57.84,21.59 57.85,21.56 57.86,21.48C57.88,21.34 57.93,21.1 57.96,20.93C57.99,20.77 58.01,20.61 58.04,20.48C58.06,20.37 58.08,20.3 58.1,20.18C58.14,19.99 58.18,19.7 58.224999999999994,19.46C58.27,19.21 58.33,18.86 58.36,18.69C58.37,18.6 58.38,18.57 58.39,18.49C58.41,18.35 58.46,18.11 58.49,17.94C58.52,17.79 58.54,17.63 58.56,17.5C58.58,17.39 58.59,17.31 58.61,17.19C58.64,17 58.69,16.71 58.735,16.47C58.78,16.22 58.83,15.87 58.86,15.7C58.87,15.62 58.88,15.59 58.89,15.51C58.91,15.37 58.95,15.13 58.98,14.95C59,14.79 59.03,14.64 59.05,14.51C59.07,14.4 59.08,14.32 59.1,14.2C59.13,14.01 59.18,13.72 59.215,13.48C59.26,13.23 59.31,12.88 59.34,12.71C59.35,12.63 59.36,12.6 59.37,12.52C59.39,12.38 59.42,12.14 59.45,11.96C59.47,11.8 59.5,11.65 59.52,11.52C59.54,11.41 59.55,11.33 59.57,11.21C59.6,11.02 59.64,10.74 59.675,10.495000000000001C59.71,10.24 59.76,9.89 59.79,9.72C59.8,9.64 59.81,9.61 59.82,9.53C59.84,9.39 59.88,9.14 59.9,8.97C59.92,8.82 59.94,8.67 59.96,8.54C59.98,8.43 59.99,8.35 60.01,8.22C60.04,8.03 60.08,7.75 60.114999999999995,7.505C60.15,7.25 60.19,6.9 60.22,6.73C60.23,6.65 60.24,6.62 60.25,6.54C60.27,6.4 60.31,6.15 60.33,5.98C60.35,5.83 60.37,5.68 60.39,5.55C60.41,5.44 60.41,5.36 60.43,5.23C60.45,5.04 60.49,4.76 60.525000000000006,4.515000000000001C60.56,4.26 60.62,3.91 60.64,3.74C60.65,3.66 60.65,3.64 60.66,3.56C60.68,3.42 60.72,3.17 60.74,2.99C60.76,2.84 60.77,2.69 60.79,2.56C60.8,2.45 60.81,2.37 60.83,2.24C60.85,2.05 60.89,1.77 60.925,1.53C60.96,1.28 61.01,0.92 61.03,0.75C61.04,0.67 61.04,0.65 61.05,0.57Q61.07,0.43 61.13,0L64,0L64,74L0,74Z" style="stroke: none; fill: rgb(220, 219, 236);"/><path d="M29.72,74Q31.26,73.73 31.9,73.59C32.41,73.48 32.81,73.36 33.25,73.25C33.67,73.14 34.07,73.04 34.49,72.92C34.92,72.79 35.43,72.63 35.8,72.51C36.07,72.42 36.24,72.36 36.51,72.26C36.88,72.12 37.49,71.88 37.79,71.76C37.95,71.69 38.01,71.67 38.17,71.6C38.47,71.47 39.2,71.12 39.42,71.01C39.5,70.97 39.5,70.97 39.58,70.93C39.8,70.82 40.41,70.49 40.805,70.265C41.18,70.05 41.7,69.71 41.88,69.6C41.94,69.56 41.95,69.56 42.01,69.52C42.17,69.42 42.65,69.08 42.84,68.94C42.94,68.87 42.98,68.84 43.08,68.77C43.24,68.65 43.54,68.42 43.72,68.28C43.85,68.18 43.92,68.12 44.04,68.02C44.18,67.9 44.37,67.74 44.52,67.61C44.65,67.49 44.78,67.38 44.9,67.27C45.02,67.16 45.13,67.06 45.25,66.95C45.39,66.82 45.57,66.65 45.69,66.53C45.78,66.44 45.84,66.39 45.93,66.29C46.07,66.15 46.3,65.9 46.42,65.78C46.48,65.71 46.5,65.69 46.57,65.62C46.7,65.48 46.94,65.21 47.129999999999995,64.995C47.33,64.77 47.53,64.52 47.724999999999994,64.285C47.91,64.06 48.16,63.75 48.25,63.63C48.28,63.59 48.29,63.58 48.32,63.54C48.4,63.43 48.65,63.11 48.75,62.97C48.81,62.89 48.83,62.87 48.88,62.79C48.97,62.67 49.12,62.44 49.22,62.3C49.29,62.2 49.33,62.14 49.4,62.04C49.48,61.92 49.58,61.77 49.67,61.64C49.75,61.52 49.83,61.4 49.9,61.29C49.97,61.18 50.03,61.09 50.1,60.98C50.18,60.85 50.3,60.67 50.37,60.55C50.43,60.46 50.45,60.4 50.51,60.31C50.59,60.17 50.74,59.92 50.81,59.8C50.85,59.74 50.86,59.72 50.9,59.65C50.98,59.51 51.14,59.23 51.260000000000005,59.015C51.39,58.79 51.52,58.54 51.644999999999996,58.31C51.76,58.09 51.93,57.78 51.99,57.66C52.01,57.61 52.02,57.61 52.04,57.56C52.1,57.45 52.25,57.13 52.32,56.99C52.36,56.91 52.37,56.88 52.41,56.81C52.47,56.69 52.58,56.47 52.65,56.33C52.7,56.23 52.73,56.16 52.78,56.06C52.84,55.94 52.9,55.8 52.96,55.67C53.02,55.55 53.07,55.43 53.12,55.31C53.17,55.2 53.21,55.11 53.26,55C53.32,54.87 53.41,54.69 53.46,54.57C53.5,54.48 53.52,54.43 53.56,54.34C53.62,54.2 53.73,53.94 53.78,53.82C53.81,53.76 53.81,53.74 53.84,53.67C53.9,53.53 54.02,53.26 54.105000000000004,53.04C54.2,52.81 54.29,52.57 54.385000000000005,52.335C54.47,52.11 54.59,51.8 54.64,51.68C54.66,51.63 54.67,51.63 54.69,51.58C54.74,51.47 54.85,51.16 54.9,51.02C54.93,50.94 54.94,50.91 54.97,50.83C55.01,50.71 55.09,50.5 55.14,50.36C55.18,50.25 55.2,50.18 55.24,50.08C55.28,49.96 55.33,49.82 55.38,49.69C55.42,49.57 55.47,49.44 55.51,49.33C55.55,49.23 55.58,49.14 55.62,49.03C55.67,48.9 55.73,48.71 55.77,48.59C55.8,48.5 55.82,48.45 55.85,48.36C55.9,48.22 55.98,47.96 56.02,47.84C56.04,47.78 56.05,47.76 56.07,47.7C56.12,47.56 56.21,47.28 56.28,47.065C56.35,46.84 56.43,46.59 56.504999999999995,46.355000000000004C56.57,46.13 56.67,45.84 56.71,45.71C56.73,45.66 56.73,45.65 56.74,45.6C56.77,45.49 56.87,45.19 56.91,45.05C56.94,44.97 56.95,44.93 56.97,44.85C57.01,44.73 57.07,44.52 57.11,44.38C57.14,44.27 57.16,44.2 57.19,44.1C57.22,43.98 57.26,43.85 57.3,43.72C57.34,43.6 57.38,43.47 57.41,43.35C57.44,43.24 57.46,43.16 57.49,43.05C57.53,42.92 57.59,42.73 57.62,42.61C57.64,42.52 57.66,42.48 57.68,42.39C57.72,42.25 57.8,41.98 57.83,41.86C57.84,41.8 57.85,41.79 57.86,41.73C57.89,41.6 57.98,41.3 58.035,41.085C58.1,40.86 58.16,40.61 58.224999999999994,40.379999999999995C58.28,40.16 58.36,39.87 58.39,39.74C58.4,39.68 58.41,39.67 58.42,39.62C58.45,39.5 58.53,39.21 58.56,39.07C58.58,38.99 58.59,38.95 58.61,38.87C58.64,38.75 58.7,38.55 58.73,38.41C58.76,38.3 58.78,38.22 58.8,38.12C58.83,38 58.86,37.87 58.89,37.74C58.92,37.62 58.95,37.49 58.98,37.37C59,37.27 59.02,37.19 59.05,37.08C59.08,36.95 59.13,36.75 59.16,36.63C59.18,36.55 59.19,36.51 59.21,36.42C59.24,36.28 59.31,36 59.34,35.88C59.35,35.82 59.36,35.81 59.37,35.75C59.4,35.62 59.47,35.33 59.515,35.11C59.57,34.88 59.62,34.63 59.675,34.405C59.72,34.19 59.79,33.89 59.82,33.76C59.83,33.7 59.84,33.69 59.85,33.64C59.88,33.52 59.93,33.24 59.96,33.1C59.98,33.01 59.99,32.97 60.01,32.89C60.04,32.77 60.08,32.57 60.11,32.43C60.13,32.32 60.15,32.24 60.17,32.14C60.19,32.02 60.22,31.89 60.25,31.77C60.28,31.64 60.31,31.51 60.33,31.39C60.35,31.29 60.37,31.21 60.39,31.11C60.42,30.98 60.46,30.77 60.48,30.65C60.5,30.57 60.5,30.53 60.52,30.44C60.55,30.3 60.62,30.02 60.64,29.9C60.65,29.85 60.65,29.84 60.66,29.78C60.68,29.65 60.75,29.36 60.79,29.134999999999998C60.84,28.9 60.88,28.65 60.925,28.424999999999997C60.97,28.21 61.02,27.92 61.05,27.79C61.06,27.73 61.07,27.72 61.08,27.66C61.1,27.54 61.15,27.26 61.18,27.12C61.2,27.03 61.2,26.99 61.22,26.91C61.24,26.79 61.29,26.6 61.31,26.46C61.33,26.35 61.34,26.26 61.36,26.16C61.38,26.05 61.41,25.92 61.43,25.8C61.45,25.67 61.48,25.53 61.5,25.41C61.52,25.31 61.53,25.23 61.55,25.13C61.58,25 61.62,24.79 61.64,24.67C61.65,24.59 61.66,24.55 61.67,24.47C61.69,24.33 61.75,24.03 61.77,23.92C61.78,23.87 61.78,23.86 61.79,23.81C61.81,23.68 61.87,23.38 61.91,23.155C61.95,22.92 62,22.68 62.035,22.450000000000003C62.07,22.23 62.11,21.94 62.14,21.81C62.15,21.75 62.16,21.74 62.17,21.68C62.19,21.56 62.24,21.29 62.26,21.15C62.27,21.06 62.28,21.02 62.29,20.93C62.31,20.81 62.35,20.62 62.37,20.49C62.39,20.38 62.4,20.29 62.42,20.18C62.44,20.06 62.46,19.94 62.48,19.82C62.5,19.69 62.52,19.55 62.54,19.43C62.56,19.33 62.57,19.26 62.59,19.16C62.61,19.02 62.65,18.81 62.67,18.69C62.68,18.61 62.69,18.58 62.7,18.5C62.72,18.36 62.78,18.05 62.79,17.94C62.8,17.89 62.79,17.88 62.8,17.83C62.82,17.7 62.87,17.4 62.91,17.18C62.95,16.95 62.98,16.7 63.015,16.47C63.05,16.25 63.1,15.97 63.12,15.84C63.13,15.78 63.13,15.76 63.14,15.7C63.16,15.58 63.2,15.32 63.22,15.18C63.23,15.09 63.24,15.04 63.25,14.95C63.27,14.83 63.3,14.64 63.32,14.51C63.34,14.4 63.35,14.31 63.37,14.2C63.39,14.09 63.4,13.97 63.42,13.85C63.44,13.72 63.46,13.57 63.48,13.45C63.49,13.35 63.51,13.29 63.52,13.19C63.54,13.05 63.57,12.83 63.59,12.71C63.6,12.63 63.61,12.6 63.62,12.52C63.64,12.38 63.68,12.07 63.7,11.96C63.71,11.91 63.71,11.91 63.72,11.86C63.74,11.74 63.78,11.42 63.81,11.2C63.84,10.97 63.88,10.72 63.915,10.495000000000001Q63.95,10.28 64,9.87L64,74Z" style="stroke: none; fill: rgb(234, 233, 243);"/><path d="M46.42,74Q46.5,73.96 46.57,73.92C46.7,73.85 46.97,73.7 47.16,73.59C47.35,73.48 47.54,73.37 47.724999999999994,73.255C47.9,73.15 48.08,73.04 48.25,72.93C48.42,72.82 48.64,72.66 48.75,72.59C48.81,72.55 48.83,72.55 48.88,72.51C48.97,72.45 49.1,72.35 49.22,72.26C49.36,72.16 49.55,72.02 49.67,71.93C49.76,71.86 49.83,71.82 49.9,71.76C49.97,71.71 50.02,71.66 50.1,71.6C50.21,71.51 50.38,71.37 50.51,71.27C50.62,71.18 50.74,71.07 50.81,71.01C50.85,70.98 50.86,70.97 50.9,70.94C50.98,70.87 51.16,70.71 51.28,70.6C51.4,70.49 51.52,70.38 51.64,70.27C51.76,70.16 51.88,70.05 51.99,69.94C52.1,69.83 52.24,69.69 52.32,69.61C52.36,69.57 52.37,69.56 52.41,69.52C52.47,69.46 52.57,69.37 52.65,69.28C52.75,69.18 52.87,69.03 52.96,68.94C53.02,68.87 53.07,68.83 53.12,68.77C53.17,68.72 53.2,68.67 53.26,68.61C53.34,68.52 53.47,68.38 53.56,68.28C53.64,68.19 53.73,68.08 53.78,68.02C53.81,67.99 53.81,67.98 53.84,67.95C53.9,67.88 54.03,67.73 54.12,67.62C54.21,67.51 54.3,67.39 54.385000000000005,67.275C54.47,67.16 54.55,67.06 54.64,66.95C54.73,66.84 54.84,66.7 54.9,66.62C54.93,66.58 54.94,66.57 54.97,66.53C55.01,66.47 55.08,66.38 55.14,66.29C55.21,66.19 55.31,66.05 55.38,65.96C55.43,65.89 55.47,65.84 55.51,65.78C55.55,65.73 55.58,65.69 55.62,65.63C55.68,65.54 55.78,65.4 55.85,65.29C55.91,65.2 55.98,65.09 56.02,65.03C56.04,65 56.05,64.99 56.07,64.96C56.12,64.89 56.22,64.74 56.29,64.63C56.36,64.52 56.43,64.4 56.504999999999995,64.28999999999999C56.57,64.18 56.64,64.08 56.71,63.97C56.78,63.86 56.86,63.71 56.91,63.63C56.94,63.59 56.95,63.58 56.97,63.54C57.01,63.48 57.06,63.39 57.11,63.3C57.17,63.2 57.24,63.06 57.3,62.97C57.34,62.9 57.38,62.85 57.41,62.79C57.44,62.74 57.46,62.7 57.49,62.64C57.54,62.55 57.62,62.41 57.68,62.31C57.73,62.22 57.8,62.1 57.83,62.04C57.84,62.01 57.84,62 57.86,61.97C57.89,61.9 57.98,61.75 58.04,61.64C58.1,61.53 58.17,61.41 58.224999999999994,61.3C58.28,61.19 58.33,61.09 58.39,60.98C58.45,60.87 58.52,60.73 58.56,60.65C58.58,60.61 58.59,60.59 58.61,60.55C58.64,60.49 58.69,60.4 58.73,60.32C58.78,60.22 58.84,60.08 58.89,59.98C58.92,59.91 58.95,59.86 58.98,59.8C59.01,59.75 59.02,59.71 59.05,59.65C59.09,59.56 59.16,59.42 59.21,59.32C59.26,59.23 59.31,59.11 59.34,59.05C59.35,59.02 59.36,59.02 59.37,58.99C59.4,58.92 59.47,58.77 59.52,58.66C59.57,58.55 59.62,58.42 59.675,58.31C59.72,58.2 59.77,58.1 59.82,57.99C59.87,57.88 59.92,57.74 59.96,57.66C59.98,57.62 59.99,57.6 60.01,57.56C60.04,57.5 60.07,57.41 60.11,57.33C60.15,57.23 60.21,57.09 60.25,57C60.28,56.93 60.31,56.87 60.33,56.81C60.35,56.76 60.37,56.72 60.39,56.66C60.43,56.57 60.48,56.43 60.52,56.33C60.56,56.24 60.62,56.12 60.64,56.06C60.65,56.03 60.65,56.03 60.66,56C60.68,55.93 60.75,55.78 60.79,55.67C60.83,55.56 60.88,55.44 60.925,55.325C60.97,55.22 61.01,55.12 61.05,55.01C61.09,54.9 61.15,54.75 61.18,54.67C61.2,54.63 61.2,54.61 61.22,54.57C61.24,54.51 61.28,54.42 61.31,54.34C61.35,54.24 61.4,54.1 61.43,54.01C61.46,53.94 61.48,53.88 61.5,53.82C61.52,53.77 61.53,53.74 61.55,53.68C61.58,53.59 61.63,53.46 61.67,53.35C61.7,53.25 61.75,53.13 61.77,53.07C61.78,53.04 61.78,53.04 61.79,53.01C61.81,52.94 61.87,52.79 61.91,52.68C61.95,52.57 62,52.45 62.035,52.335C62.07,52.23 62.1,52.13 62.14,52.02C62.18,51.91 62.23,51.77 62.26,51.69C62.27,51.64 62.28,51.62 62.29,51.58C62.31,51.52 62.34,51.43 62.37,51.35C62.4,51.25 62.45,51.12 62.48,51.02C62.5,50.95 62.52,50.89 62.54,50.83C62.56,50.78 62.57,50.75 62.59,50.69C62.62,50.6 62.67,50.47 62.7,50.36C62.73,50.26 62.78,50.14 62.79,50.08C62.8,50.06 62.79,50.05 62.8,50.03C62.82,49.97 62.87,49.81 62.91,49.7C62.95,49.58 62.98,49.46 63.015,49.345C63.05,49.24 63.09,49.14 63.12,49.03C63.15,48.92 63.2,48.78 63.22,48.7C63.23,48.65 63.24,48.63 63.25,48.59C63.27,48.53 63.29,48.45 63.32,48.37C63.35,48.27 63.39,48.14 63.42,48.04C63.44,47.97 63.46,47.9 63.48,47.84C63.49,47.79 63.5,47.76 63.52,47.7C63.55,47.61 63.59,47.48 63.62,47.37C63.65,47.27 63.68,47.15 63.7,47.09C63.71,47.07 63.71,47.06 63.72,47.04C63.74,46.98 63.78,46.82 63.81,46.71C63.84,46.59 63.88,46.47 63.915,46.36Q63.95,46.25 64,46.04L64,74Z" style="stroke: none; fill: rgb(248, 248, 251);"/></g><g class="contourlines"/></g></g></g></g><path class="xlines-above crisp" d="M0,0" style="fill: none;"/><path class="ylines-above crisp" d="M0,0" style="fill: none;"/><g class="overlines-above"/><g class="xaxislayer-above"><g class="xtick"><text text-anchor="middle" x="0" y="94" transform="translate(22,0)" style="font-family: 'Open Sans', verdana, arial, sans-serif; font-size: 8px; fill: rgb(0, 0, 0); fill-opacity: 1; white-space: pre; opacity: 1;">0.001</text></g><g class="xtick"><text text-anchor="middle" x="0" y="94" style="font-family: 'Open Sans', verdana, arial, sans-serif; font-size: 8px; fill: rgb(0, 0, 0); fill-opacity: 1; white-space: pre; opacity: 1;" transform="translate(43.33,0)">0.01</text></g><g class="xtick"><text text-anchor="middle" x="0" y="94" style="font-family: 'Open Sans', verdana, arial, sans-serif; font-size: 8px; fill: rgb(0, 0, 0); fill-opacity: 1; white-space: pre; opacity: 1;" transform="translate(64.67,0)">0.1</text></g><g class="xtick"><text text-anchor="middle" x="0" y="94" style="font-family: 'Open Sans', verdana, arial, sans-serif; font-size: 8px; fill: rgb(0, 0, 0); fill-opacity: 1; white-space: pre; opacity: 1;" transform="translate(86,0)">1</text></g></g><g class="yaxislayer-above"><g class="ytick"><text text-anchor="end" x="21" y="2.8" transform="translate(0,76.78)" style="font-family: 'Open Sans', verdana, arial, sans-serif; font-size: 8px; fill: rgb(0, 0, 0); fill-opacity: 1; white-space: pre; opacity: 1;">0.1</text></g><g class="ytick"><text text-anchor="end" x="21" y="2.8" style="font-family: 'Open Sans', verdana, arial, sans-serif; font-size: 8px; fill: rgb(0, 0, 0); fill-opacity: 1; white-space: pre; opacity: 1;" transform="translate(0,60.33)">0.2</text></g><g class="ytick"><text text-anchor="end" x="21" y="2.8" style="font-family: 'Open Sans', verdana, arial, sans-serif; font-size: 8px; fill: rgb(0, 0, 0); fill-opacity: 1; white-space: pre; opacity: 1;" transform="translate(0,43.89)">0.3</text></g><g class="ytick"><text text-anchor="end" x="21" y="2.8" style="font-family: 'Open Sans', verdana, arial, sans-serif; font-size: 8px; fill: rgb(0, 0, 0); fill-opacity: 1; white-space: pre; opacity: 1;" transform="translate(0,27.44)">0.4</text></g><g class="ytick"><text text-anchor="end" x="21" y="2.8" style="font-family: 'Open Sans', verdana, arial, sans-serif; font-size: 8px; fill: rgb(0, 0, 0); fill-opacity: 1; white-space: pre; opacity: 1;" transform="translate(0,11)">0.5</text></g></g><g class="overaxes-above"/></g></g><g class="polarlayer"/><g class="smithlayer"/><g class="ternarylayer"/><g class="geolayer"/><g class="funnelarealayer"/><g class="pielayer"/><g class="iciclelayer"/><g class="treemaplayer"/><g class="sunburstlayer"/><g class="glimages"/><defs id="topdefs-78011c"><g class="clips"/></defs><g class="layer-above"><g class="imagelayer"/><g class="shapelayer"/></g><g class="infolayer"><g class="cb5cb8b2 colorbar" transform="translate(22,11)"><rect class="cbbg" x="65" y="8" width="61.390625" height="59" style="fill: rgb(0, 0, 0); fill-opacity: 0; stroke: rgb(68, 68, 68); stroke-opacity: 1; stroke-width: 0;"/><g class="cbfills" transform="translate(0,17)"><rect class="cbfill" style="" x="75" y="1" width="10" height="38" fill="#c0bedc"/><rect class="cbfill" style="" x="75" y="1" width="10" height="34" fill="#cecce4"/><rect class="cbfill" style="" x="75" y="1" width="10" height="30" fill="#dcdbec"/><rect class="cbfill" style="" x="75" y="1" width="10" height="26" fill="#eae9f3"/><rect class="cbfill" style="" x="75" y="1" width="10" height="22" fill="#f8f8fb"/><rect class="cbfill" style="" x="75" y="1" width="10" height="19" fill="#fdf6f1"/><rect class="cbfill" style="" x="75" y="1" width="10" height="15" fill="#f9e4d5"/><rect class="cbfill" style="" x="75" y="1" width="10" height="11" fill="#f4d3b8"/><rect class="cbfill" style="" x="75" y="1" width="10" height="7" fill="#f0c19c"/><rect class="cbfill" style="" x="75" y="0" width="10" height="4" fill="#ecaf80"/></g><g class="cblines" transform="translate(0,17)"/><g class="cbaxis crisp" transform="translate(0,-11)"><g class="ycb5cb8b2tick"><text text-anchor="start" x="87.1" y="2.8" transform="translate(0,67.5)" style="font-family: 'Open Sans', verdana, arial, sans-serif; font-size: 8px; fill: rgb(0, 0, 0); fill-opacity: 1; white-space: pre; opacity: 1;">0</text></g><g class="ycb5cb8b2tick"><text text-anchor="start" x="87.1" y="2.8" style="font-family: 'Open Sans', verdana, arial, sans-serif; font-size: 8px; fill: rgb(0, 0, 0); fill-opacity: 1; white-space: pre; opacity: 1;" transform="translate(0,57.74999999999999)">0.05</text></g><g class="ycb5cb8b2tick"><text text-anchor="start" x="87.1" y="2.8" style="font-family: 'Open Sans', verdana, arial, sans-serif; font-size: 8px; fill: rgb(0, 0, 0); fill-opacity: 1; white-space: pre; opacity: 1;" transform="translate(0,47.99999999999999)">0.1</text></g><g class="ycb5cb8b2tick"><text text-anchor="start" x="87.1" y="2.8" style="font-family: 'Open Sans', verdana, arial, sans-serif; font-size: 8px; fill: rgb(0, 0, 0); fill-opacity: 1; white-space: pre; opacity: 1;" transform="translate(0,38.24999999999999)">0.15</text></g><g class="ycb5cb8b2tick"><text text-anchor="start" x="87.1" y="2.8" style="font-family: 'Open Sans', verdana, arial, sans-serif; font-size: 8px; fill: rgb(0, 0, 0); fill-opacity: 1; white-space: pre; opacity: 1;" transform="translate(0,28.499999999999993)">0.2</text></g></g><g class="cbtitleunshift" transform="translate(-22,-11)"><g class="cbtitle" transform="translate(11.1103515625,0)"><text class="hycb5cb8b2title" transform="rotate(-90,125.28,48)" x="125.28" y="48" text-anchor="middle" style="opacity: 1; font-family: 'Open Sans', verdana, arial, sans-serif; font-size: 8px; fill: rgb(0, 0, 0); fill-opacity: 1; white-space: pre;">J</text></g></g><rect class="cboutline" x="75" y="18" width="10" height="39" style="stroke: rgb(68, 68, 68); stroke-opacity: 1; fill: none; stroke-width: 0;"/></g><g class="g-gtitle"/><g class="g-xtitle" transform="translate(0,3.9000000000000057)"><text class="xtitle" x="54" y="101.1" text-anchor="middle" style="opacity: 1; font-family: 'Open Sans', verdana, arial, sans-serif; font-size: 8px; fill: rgb(0, 0, 0); fill-opacity: 1; white-space: pre;">K​<tspan style="font-size:70%" dy="0.3em">M</tspan><tspan dy="-0.21em">​</tspan> [mM]</text></g><g class="g-ytitle" transform="translate(1.5810546875,0)"><text class="ytitle" transform="rotate(-90,7.418749999999999,48)" x="7.418749999999999" y="48" text-anchor="middle" style="opacity: 1; font-family: 'Open Sans', verdana, arial, sans-serif; font-size: 8px; fill: rgb(0, 0, 0); fill-opacity: 1; white-space: pre;">μ [1/h]</text></g></g></svg>