<svg class="main-svg" xmlns="http://www.w3.org/2000/svg" xmlns:xlink="http://www.w3.org/1999/xlink" width="170" height="150" style="" viewBox="0 0 170 150"><rect x="0" y="0" width="170" height="150" style="fill: rgb(255, 255, 255); fill-opacity: 1;"/><defs id="defs-6ace3e"><g class="clips"><clipPath id="clip6ace3exyplot" class="plotclip"><rect width="67" height="109"/></clipPath><clipPath class="axesclip" id="clip6ace3ex"><rect x="40" y="0" width="67" height="150"/></clipPath><clipPath class="axesclip" id="clip6ace3ey"><rect x="0" y="8" width="170" height="109"/></clipPath><clipPath class="axesclip" id="clip6ace3exy"><rect x="40" y="8" width="67" height="109"/></clipPath><clipPath class="contourclip" id="clip7f50e6"><path d="M67,0L0,0L0,109L67,109Z"/></clipPath></g><g class="gradients"/><g class="patterns"/></defs><g class="bglayer"/><g class="layer-below"><g class="imagelayer"/><g class="shapelayer"/></g><g class="cartesianlayer"><g class="subplot xy"><g class="layer-subplot"><g class="shapelayer"/><g class="imagelayer"/></g><g class="minor-gridlayer"><g class="x"/><g class="y"/></g><g class="gridlayer"><g class="x"><path class="xgrid crisp" transform="translate(47.44,0)" d="M0,8v109" style="stroke: rgb(128, 128, 128); stroke-opacity: 1; stroke-width: 0.2px;"/><path class="xgrid crisp" transform="translate(62.33,0)" d="M0,8v109" style="stroke: rgb(128, 128, 128); stroke-opacity: 1; stroke-width: 0.2px;"/><path class="xgrid crisp" transform="translate(77.22,0)" d="M0,8v109" style="stroke: rgb(128, 128, 128); stroke-opacity: 1; stroke-width: 0.2px;"/><path class="xgrid crisp" transform="translate(92.11,0)" d="M0,8v109" style="stroke: rgb(128, 128, 128); stroke-opacity: 1; stroke-width: 0.2px;"/></g><g class="y"/></g><g class="zerolinelayer"/><g class="layer-between"><g class="shapelayer"/><g class="imagelayer"/></g><path class="xlines-below"/><path class="ylines-below"/><g class="overlines-below"/><g class="xaxislayer-below"/><g class="yaxislayer-below"/><g class="overaxes-below"/><g class="overplot"><g class="xy" transform="translate(40,8)" clip-path="url(#clip6ace3exyplot)"><g class="contourlayer mlayer"><g class="contour" clip-path="url(#clip7f50e6)" style="opacity: 1;"><g class="heatmapcoloring"/><g class="contourbg"><path d="M67,0L0,0L0,109L67,109Z" style="stroke: none; fill: rgb(59, 76, 192);"/></g><g class="contourfill"><path d="M67,107.5Q59,107.5 55.45,107.5C52.41,107.5 49.63,107.5 47,107.5C44.71,107.5 42.57,107.5 40.55,107.5C38.76,107.5 37.07,107.5 35.47,107.5C34.03,107.5 32.66,107.5 31.36,107.5C30.18,107.5 29.05,107.5 27.97,107.5C26.98,107.5 26.03,107.5 25.12,107.5C24.28,107.5 23.48,107.5 22.7,107.5C21.98,107.5 21.29,107.5 20.62,107.5C19.99,107.5 19.39,107.5 18.8,107.5C18.25,107.5 17.72,107.5 17.2,107.5C16.72,107.5 16.25,107.5 15.79,107.5C15.36,107.5 14.94,107.5 14.53,107.5C14.14,107.5 13.77,107.5 13.4,107.5C13.05,107.5 12.71,107.5 12.38,107.5C12.07,107.5 11.76,107.5 11.46,107.5C11.17,107.5 10.89,107.5 10.61,107.5C10.35,107.5 10.09,107.5 9.84,107.5C9.6,107.5 9.37,107.5 9.14,107.5C8.92,107.5 8.69,107.5 8.48,107.5C8.28,107.5 8.08,107.5 7.88,107.5C7.69,107.5 7.5,107.5 7.32,107.5C7.14,107.5 6.97,107.5 6.8,107.5C6.64,107.5 6.48,107.5 6.32,107.5C6.17,107.5 6.02,107.5 5.87,107.5C5.73,107.5 5.59,107.5 5.45,107.5C5.32,107.5 5.18,107.5 5.05,107.5C4.92,107.5 4.79,107.5 4.67,107.5C4.55,107.5 4.43,107.5 4.32,107.5C4.21,107.5 4.1,107.5 3.99,107.5C3.89,107.5 3.78,107.5 3.68,107.5C3.58,107.5 3.48,107.5 3.38,107.5C3.29,107.5 3.19,107.5 3.1,107.5C3.01,107.5 2.92,107.5 2.83,107.5C2.75,107.5 2.66,107.5 2.58,107.5C2.5,107.5 2.42,107.5 2.34,107.5C2.26,107.5 2.18,107.5 2.1,107.5C2.03,107.5 1.95,107.5 1.88,107.5C1.81,107.5 1.74,107.5 1.67,107.5C1.6,107.5 1.54,107.5 1.47,107.5C1.41,107.5 1.34,107.5 1.28,107.5C1.22,107.5 1.16,107.5 1.1,107.5C1.04,107.5 0.98,107.5 0.92,107.5C0.86,107.5 0.81,107.5 0.75,107.5C0.7,107.5 0.64,107.5 0.59,107.5C0.54,107.5 0.48,107.5 0.43,107.5C0.38,107.5 0.33,107.5 0.28,107.5C0.23,107.5 0.19,107.5 0.14,107.5Q0.09,107.5 0,107.5L0,109L67,109Z" style="stroke: none; fill: rgb(80, 95, 199);"/><path d="M67,108.22Q59,108.22 55.45,108.22C52.41,108.22 49.63,108.22 47,108.22C44.71,108.22 42.57,108.22 40.55,108.22C38.76,108.22 37.07,108.22 35.47,108.22C34.03,108.22 32.66,108.22 31.36,108.22C30.18,108.22 29.05,108.22 27.97,108.22C26.98,108.22 26.03,108.22 25.12,108.22C24.28,108.22 23.48,108.22 22.7,108.22C21.98,108.22 21.29,108.22 20.62,108.22C19.99,108.22 19.39,108.22 18.8,108.22C18.25,108.22 17.72,108.22 17.2,108.22C16.72,108.22 16.25,108.22 15.79,108.22C15.36,108.22 14.94,108.22 14.53,108.22C14.14,108.22 13.77,108.22 13.4,108.22C13.05,108.22 12.71,108.22 12.38,108.22C12.07,108.22 11.76,108.22 11.46,108.22C11.17,108.22 10.89,108.22 10.61,108.22C10.35,108.22 10.09,108.22 9.84,108.22C9.6,108.22 9.37,108.22 9.14,108.22C8.92,108.22 8.69,108.22 8.48,108.22C8.28,108.22 8.08,108.22 7.88,108.22C7.69,108.22 7.5,108.22 7.32,108.22C7.14,108.22 6.97,108.22 6.8,108.22C6.64,108.22 6.48,108.22 6.32,108.22C6.17,108.22 6.02,108.22 5.87,108.22C5.73,108.22 5.59,108.22 5.45,108.22C5.32,108.22 5.18,108.22 5.05,108.22C4.92,108.22 4.79,108.22 4.67,108.22C4.55,108.22 4.43,108.22 4.32,108.22C4.21,108.22 4.1,108.22 3.99,108.22C3.89,108.22 3.78,108.22 3.68,108.22C3.58,108.22 3.48,108.22 3.38,108.22C3.29,108.22 3.19,108.22 3.1,108.22C3.01,108.22 2.92,108.22 2.83,108.22C2.75,108.22 2.66,108.22 2.58,108.22C2.5,108.22 2.42,108.22 2.34,108.22C2.26,108.22 2.18,108.22 2.1,108.22C2.03,108.22 1.95,108.22 1.88,108.22C1.81,108.22 1.74,108.22 1.67,108.22C1.6,108.22 1.54,108.22 1.47,108.22C1.41,108.22 1.34,108.22 1.28,108.22C1.22,108.22 1.16,108.22 1.1,108.22C1.04,108.22 0.98,108.22 0.92,108.22C0.86,108.22 0.81,108.22 0.75,108.22C0.7,108.22 0.64,108.22 0.59,108.22C0.54,108.22 0.48,108.22 0.43,108.22C0.38,108.22 0.33,108.22 0.28,108.22C0.23,108.22 0.19,108.22 0.14,108.22Q0.09,108.22 0,108.22L0,109L67,109Z" style="stroke: none; fill: rgb(100, 114, 205);"/><path d="M67,108.94Q59,108.94 55.45,108.94C52.41,108.94 49.63,108.94 47,108.94C44.71,108.94 42.57,108.94 40.55,108.94C38.76,108.94 37.07,108.94 35.47,108.94C34.03,108.94 32.66,108.94 31.36,108.94C30.18,108.94 29.05,108.94 27.97,108.94C26.98,108.94 26.03,108.94 25.12,108.94C24.28,108.94 23.48,108.94 22.7,108.94C21.98,108.94 21.29,108.94 20.62,108.94C19.99,108.94 19.39,108.94 18.8,108.94C18.25,108.94 17.72,108.94 17.2,108.94C16.72,108.94 16.25,108.94 15.79,108.94C15.36,108.94 14.94,108.94 14.53,108.94C14.14,108.94 13.77,108.94 13.4,108.94C13.05,108.94 12.71,108.94 12.38,108.94C12.07,108.94 11.76,108.94 11.46,108.94C11.17,108.94 10.89,108.94 10.61,108.94C10.35,108.94 10.09,108.94 9.84,108.94C9.6,108.94 9.37,108.94 9.14,108.94C8.92,108.94 8.69,108.94 8.48,108.94C8.28,108.94 8.08,108.94 7.88,108.94C7.69,108.94 7.5,108.94 7.32,108.94C7.14,108.94 6.97,108.94 6.8,108.94C6.64,108.94 6.48,108.94 6.32,108.94C6.17,108.94 6.02,108.94 5.87,108.94C5.73,108.94 5.59,108.94 5.45,108.94C5.32,108.94 5.18,108.94 5.05,108.94C4.92,108.94 4.79,108.94 4.67,108.94C4.55,108.94 4.43,108.94 4.32,108.94C4.21,108.94 4.1,108.94 3.99,108.94C3.89,108.94 3.78,108.94 3.68,108.94C3.58,108.94 3.48,108.94 3.38,108.94C3.29,108.94 3.19,108.94 3.1,108.94C3.01,108.94 2.92,108.94 2.83,108.94C2.75,108.94 2.66,108.94 2.58,108.94C2.5,108.94 2.42,108.94 2.34,108.94C2.26,108.94 2.18,108.94 2.1,108.94C2.03,108.94 1.95,108.94 1.88,108.94C1.81,108.94 1.74,108.94 1.67,108.94C1.6,108.94 1.54,108.94 1.47,108.94C1.41,108.94 1.34,108.94 1.28,108.94C1.22,108.94 1.16,108.94 1.1,108.94C1.04,108.94 0.98,108.94 0.92,108.94C0.86,108.94 0.81,108.94 0.75,108.94C0.7,108.94 0.64,108.94 0.59,108.94C0.54,108.94 0.48,108.94 0.43,108.94C0.38,108.94 0.33,108.94 0.28,108.94C0.23,108.94 0.19,108.94 0.14,108.94Q0.09,108.94 0,108.94L0,109L67,109Z" style="stroke: none; fill: rgb(121, 133, 212);"/></g><g class="contourlines"/></g></g></g></g><path class="xlines-above crisp" d="M0,0" style="fill: none;"/><path class="ylines-above crisp" d="M0,0" style="fill: none;"/><g class="overlines-above"/><g class="xaxislayer-above"><g class="xtick"><text text-anchor="start" x="0" y="129" transform="translate(47.44,0) rotate(90,0,123.5)" style="font-family: 'Open Sans', verdana, arial, sans-serif; font-size: 11px; fill: rgb(0, 0, 0); fill-opacity: 1; white-space: pre; opacity: 1;">100</text></g><g class="xtick"><text text-anchor="start" x="0" y="129" style="font-family: 'Open Sans', verdana, arial, sans-serif; font-size: 11px; fill: rgb(0, 0, 0); fill-opacity: 1; white-space: pre; opacity: 1;" transform="translate(62.33,0) rotate(90,0,123.5)">200</text></g><g class="xtick"><text text-anchor="start" x="0" y="129" style="font-family: 'Open Sans', verdana, arial, sans-serif; font-size: 11px; fill: rgb(0, 0, 0); fill-opacity: 1; white-space: pre; opacity: 1;" transform="translate(77.22,0) rotate(90,0,123.5)">300</text></g><g class="xtick"><text text-anchor="start" x="0" y="129" style="font-family: 'Open Sans', verdana, arial, sans-serif; font-size: 11px; fill: rgb(0, 0, 0); fill-opacity: 1; white-space: pre; opacity: 1;" transform="translate(92.11,0) rotate(90,0,123.5)">400</text></g><g class="xtick"><text text-anchor="start" x="0" y="129" style="font-family: 'Open Sans', verdana, arial, sans-serif; font-size: 11px; fill: rgb(0, 0, 0); fill-opacity: 1; white-space: pre; opacity: 1;" transform="translate(107,0) rotate(90,0,123.5)">500</text></g></g><g class="yaxislayer-above"><g class="ytick"><text text-anchor="end" x="39" y="3.8499999999999996" transform="translate(0,117)" style="font-family: 'Open Sans', verdana, arial, sans-serif; font-size: 11px; fill: rgb(0, 0, 0); fill-opacity: 1; white-space: pre; opacity: 1;">0</text></g><g class="ytick"><text text-anchor="end" x="39" y="3.8499999999999996" style="font-family: 'Open Sans', verdana, arial, sans-serif; font-size: 11px; fill: rgb(0, 0, 0); fill-opacity: 1; white-space: pre; opacity: 1;" transform="translate(0,89.75)">0.05</text></g><g class="ytick"><text text-anchor="end" x="39" y="3.8499999999999996" style="font-family: 'Open Sans', verdana, arial, sans-serif; font-size: 11px; fill: rgb(0, 0, 0); fill-opacity: 1; white-space: pre; opacity: 1;" transform="translate(0,62.5)">0.1</text></g><g class="ytick"><text text-anchor="end" x="39" y="3.8499999999999996" style="font-family: 'Open Sans', verdana, arial, sans-serif; font-size: 11px; fill: rgb(0, 0, 0); fill-opacity: 1; white-space: pre; opacity: 1;" transform="translate(0,35.25)">0.15</text></g><g class="ytick"><text text-anchor="end" x="39" y="3.8499999999999996" style="font-family: 'Open Sans', verdana, arial, sans-serif; font-size: 11px; fill: rgb(0, 0, 0); fill-opacity: 1; white-space: pre; opacity: 0;" transform="translate(0,8)">0.2</text></g></g><g class="overaxes-above"/></g></g><g class="polarlayer"/><g class="smithlayer"/><g class="ternarylayer"/><g class="geolayer"/><g class="funnelarealayer"/><g class="pielayer"/><g class="iciclelayer"/><g class="treemaplayer"/><g class="sunburstlayer"/><g class="glimages"/><defs id="topdefs-6ace3e"><g class="clips"/></defs><g class="layer-above"><g class="imagelayer"/><g class="shapelayer"/></g><g class="infolayer"><g class="cb7f50e6 colorbar" transform="translate(40,8)"><rect class="cbbg" x="68" y="11" width="61.21875" height="87" style="fill: rgb(0, 0, 0); fill-opacity: 0; stroke: rgb(68, 68, 68); stroke-opacity: 1; stroke-width: 0;"/><g class="cbfills" transform="translate(0,21)"><rect class="cbfill" style="" x="78" y="1" width="10" height="66" fill="#3b4cc0"/><rect class="cbfill" style="" x="78" y="1" width="10" height="63" fill="#505fc7"/><rect class="cbfill" style="" x="78" y="1" width="10" height="59" fill="#6472cd"/><rect class="cbfill" style="" x="78" y="1" width="10" height="56" fill="#7985d4"/><rect class="cbfill" style="" x="78" y="1" width="10" height="53" fill="#8e97db"/><rect class="cbfill" style="" x="78" y="1" width="10" height="49" fill="#a2aae1"/><rect class="cbfill" style="" x="78" y="1" width="10" height="46" fill="#b7bde8"/><rect class="cbfill" style="" x="78" y="1" width="10" height="43" fill="#cbd0ee"/><rect class="cbfill" style="" x="78" y="1" width="10" height="39" fill="#e0e3f5"/><rect class="cbfill" style="" x="78" y="1" width="10" height="36" fill="#f5f6fc"/><rect class="cbfill" style="" x="78" y="1" width="10" height="33" fill="#fbf2f4"/><rect class="cbfill" style="" x="78" y="1" width="10" height="29" fill="#f3d7dd"/><rect class="cbfill" style="" x="78" y="1" width="10" height="26" fill="#ebbdc6"/><rect class="cbfill" style="" x="78" y="1" width="10" height="22" fill="#e3a3af"/><rect class="cbfill" style="" x="78" y="1" width="10" height="19" fill="#db8898"/><rect class="cbfill" style="" x="78" y="1" width="10" height="16" fill="#d46e81"/><rect class="cbfill" style="" x="78" y="1" width="10" height="12" fill="#cc536b"/><rect class="cbfill" style="" x="78" y="1" width="10" height="9" fill="#c43954"/><rect class="cbfill" style="" x="78" y="1" width="10" height="6" fill="#bc1e3d"/><rect class="cbfill" style="" x="78" y="0" width="10" height="3" fill="#b40426"/></g><g class="cblines" transform="translate(0,21)"/><g class="cbaxis crisp" transform="translate(0,-8)"><g class="ycb7f50e6tick"><text text-anchor="start" x="90.7" y="3.8499999999999996" transform="translate(0,96)" style="font-family: 'Open Sans', verdana, arial, sans-serif; font-size: 11px; fill: rgb(0, 0, 0); fill-opacity: 1; white-space: pre; opacity: 1;">0</text></g><g class="ycb7f50e6tick"><text text-anchor="start" x="90.7" y="3.8499999999999996" style="font-family: 'Open Sans', verdana, arial, sans-serif; font-size: 11px; fill: rgb(0, 0, 0); fill-opacity: 1; white-space: pre; opacity: 1;" transform="translate(0,62.50000000000001)">0.5</text></g><g class="ycb7f50e6tick"><text text-anchor="start" x="90.7" y="3.8499999999999996" style="font-family: 'Open Sans', verdana, arial, sans-serif; font-size: 11px; fill: rgb(0, 0, 0); fill-opacity: 1; white-space: pre; opacity: 1;" transform="translate(0,29.000000000000007)">1</text></g></g><g class="cbtitleunshift" transform="translate(-40,-8)"><g class="cbtitle" transform="translate(10.87890625,0)"><text class="hycb7f50e6title" transform="rotate(-90,146.34,62.5)" x="146.34" y="62.5" text-anchor="middle" style="opacity: 1; font-family: 'Open Sans', verdana, arial, sans-serif; font-size: 8px; fill: rgb(0, 0, 0); fill-opacity: 1; white-space: pre;"><tspan style="font-style:italic">Oa</tspan> fraction</text></g></g><rect class="cboutline" x="78" y="21" width="10" height="67" style="stroke: rgb(68, 68, 68); stroke-opacity: 1; fill: none; stroke-width: 0;"/></g><g class="g-gtitle"/><g class="g-xtitle" transform="translate(0,-3.8874999999999886)"><text class="xtitle" x="73.5" y="149.575" text-anchor="middle" style="opacity: 1; font-family: 'Open Sans', verdana, arial, sans-serif; font-size: 11px; fill: rgb(0, 0, 0); fill-opacity: 1; white-space: pre;">1 / Q​<tspan style="font-size:70%" dy="0.3em">Ct,R</tspan><tspan dy="-0.21em">​</tspan> nM/OD</text></g><g class="g-ytitle"><text class="ytitle" transform="rotate(-90,13.853124999999999,62.5)" x="13.853124999999999" y="62.5" text-anchor="middle" style="opacity: 1; font-family: 'Open Sans', verdana, arial, sans-serif; font-size: 11px; fill: rgb(0, 0, 0); fill-opacity: 1; white-space: pre;">Dilution rate [1/h]</text></g></g></svg>