<svg class="main-svg" xmlns="http://www.w3.org/2000/svg" xmlns:xlink="http://www.w3.org/1999/xlink" width="170" height="150" style="" viewBox="0 0 170 150"><rect x="0" y="0" width="170" height="150" style="fill: rgb(255, 255, 255); fill-opacity: 1;"/><defs id="defs-e292ae"><g class="clips"><clipPath id="clipe292aexyplot" class="plotclip"><rect width="67" height="117"/></clipPath><clipPath class="axesclip" id="clipe292aex"><rect x="40" y="0" width="67" height="150"/></clipPath><clipPath class="axesclip" id="clipe292aey"><rect x="0" y="8" width="170" height="117"/></clipPath><clipPath class="axesclip" id="clipe292aexy"><rect x="40" y="8" width="67" height="117"/></clipPath><clipPath class="contourclip" id="clip6acf87"><path d="M0,0L67,0L67,117L0,117Z"/></clipPath></g><g class="gradients"/><g class="patterns"/></defs><g class="bglayer"/><g class="layer-below"><g class="imagelayer"/><g class="shapelayer"/></g><g class="cartesianlayer"><g class="subplot xy"><g class="layer-subplot"><g class="shapelayer"/><g class="imagelayer"/></g><g class="minor-gridlayer"><g class="x"/><g class="y"/></g><g class="gridlayer"><g class="x"><path class="xgrid crisp" transform="translate(73.5,0)" d="M0,8v117" style="stroke: rgb(0, 0, 0); stroke-opacity: 1; stroke-width: 0.5px;"/></g><g class="y"><path class="ygrid crisp" transform="translate(0,95.75)" d="M40,0h67" style="stroke: rgb(0, 0, 0); stroke-opacity: 1; stroke-width: 0.5px;"/><path class="ygrid crisp" transform="translate(0,66.5)" d="M40,0h67" style="stroke: rgb(0, 0, 0); stroke-opacity: 1; stroke-width: 0.5px;"/><path class="ygrid crisp" transform="translate(0,37.25)" d="M40,0h67" style="stroke: rgb(0, 0, 0); stroke-opacity: 1; stroke-width: 0.5px;"/></g></g><g class="zerolinelayer"/><g class="layer-between"><g class="shapelayer"/><g class="imagelayer"/></g><path class="xlines-below"/><path class="ylines-below"/><g class="overlines-below"/><g class="xaxislayer-below"/><g class="yaxislayer-below"/><g class="overaxes-below"/><g class="overplot"><g class="xy" transform="translate(40,8)" clip-path="url(#clipe292aexyplot)"><g class="contourlayer mlayer"><g class="contour" clip-path="url(#clip6acf87)" style="opacity: 1;"><g class="heatmapcoloring"/><g class="contourbg"><path d="M0,0L67,0L67,117L0,117Z" style="stroke: none; fill: rgb(192, 190, 220);"/></g><g class="contourfill"><path d="M0,115.39Q0.08,114.94 0.1,114.61C0.14,114.03 0.11,113.02 0.11,112.22C0.11,111.43 0.11,110.63 0.11,109.84C0.11,109.04 0.11,108.25 0.11,107.45C0.11,106.65 0.11,105.86 0.11,105.06C0.11,104.26 0.11,103.47 0.11,102.67C0.11,101.88 0.12,101.08 0.12,100.29C0.12,99.49 0.12,98.7 0.12,97.9C0.12,97.1 0.12,96.31 0.12,95.51C0.12,94.71 0.12,93.92 0.12,93.12C0.12,92.32 0.13,91.53 0.13,90.73C0.13,89.94 0.13,89.14 0.13,88.35C0.13,87.55 0.14,86.76 0.14,85.96C0.14,85.16 0.14,84.37 0.14,83.57C0.14,82.77 0.15,81.98 0.15,81.18C0.15,80.39 0.16,79.59 0.16,78.8C0.16,78 0.17,77.21 0.17,76.41C0.17,75.61 0.18,74.82 0.18,74.02C0.18,73.22 0.19,72.43 0.19,71.63C0.2,70.83 0.2,70.04 0.21,69.24C0.22,68.45 0.23,67.65 0.24,66.86C0.25,66.06 0.26,65.27 0.28,64.47C0.3,63.67 0.32,62.88 0.36,62.08C0.4,61.28 0.41,60.48 0.5,59.69C0.59,58.89 0.73,57.88 0.93,57.31C1.05,56.96 1.27,56.83 1.37,56.51C1.5,56.08 1.48,55.5 1.51,54.92C1.55,54.2 1.53,53.33 1.54,52.53C1.55,51.73 1.55,50.94 1.56,50.14C1.57,49.35 1.58,48.55 1.6,47.76C1.62,46.96 1.63,46.17 1.68,45.37C1.73,44.57 1.7,43.69 1.9,42.98C2.08,42.36 2.57,41.77 2.73,41.32C2.83,41.04 2.84,40.91 2.88,40.59C2.95,40.02 2.94,38.99 3.01,38.2C3.08,37.4 3.09,36.49 3.31,35.82C3.49,35.27 3.91,34.86 4.1,34.42C4.25,34.07 4.26,33.82 4.41,33.43C4.65,32.81 5.09,31.87 5.5,31.1C5.92,30.31 6.44,29.49 6.91,28.755C7.34,28.08 7.77,27.27 8.2,26.84C8.49,26.55 8.85,26.51 9.08,26.27C9.3,26.03 9.32,25.68 9.57,25.41C9.89,25.06 10.46,24.64 10.94,24.45C11.38,24.27 11.86,24.34 12.31,24.24C12.76,24.14 13.23,24.11 13.65,23.845C14.16,23.53 14.53,22.62 15.04,22.32C15.46,22.08 15.95,22.09 16.41,22.02C16.86,21.95 17.32,21.93 17.78,21.9C18.23,21.87 18.69,21.85 19.14,21.83C19.6,21.81 20.05,21.8 20.51,21.78C20.97,21.76 21.42,21.75 21.88,21.72C22.33,21.7 22.79,21.68 23.24,21.63C23.68,21.58 24.13,21.62 24.560000000000002,21.439999999999998C25.05,21.24 25.49,20.62 25.98,20.37C26.42,20.14 26.89,20.06 27.35,19.95C27.8,19.85 28.25,19.8 28.71,19.74C29.16,19.69 29.62,19.65 30.08,19.62C30.54,19.59 30.99,19.57 31.45,19.55C31.91,19.53 32.36,19.51 32.82,19.49C33.27,19.48 33.73,19.47 34.18,19.46C34.64,19.45 35.09,19.44 35.55,19.43C36.01,19.42 36.46,19.42 36.92,19.41C37.38,19.4 37.83,19.4 38.29,19.39C38.74,19.38 39.2,19.37 39.65,19.37C40.11,19.36 40.56,19.36 41.02,19.36C41.48,19.36 41.93,19.35 42.39,19.35C42.85,19.35 43.3,19.34 43.76,19.34C44.21,19.34 44.67,19.33 45.12,19.33C45.58,19.33 46.03,19.33 46.49,19.33C46.95,19.33 47.4,19.32 47.86,19.32C48.31,19.32 48.77,19.31 49.22,19.31C49.68,19.31 50.13,19.31 50.59,19.31C51.05,19.31 51.5,19.3 51.96,19.3C52.42,19.3 52.87,19.3 53.33,19.3C53.78,19.3 54.24,19.3 54.69,19.3C55.15,19.3 55.6,19.29 56.06,19.29C56.52,19.29 56.97,19.29 57.43,19.29C57.89,19.29 58.34,19.28 58.8,19.28C59.25,19.28 59.71,19.28 60.16,19.28C60.62,19.28 61.07,19.28 61.53,19.28C61.99,19.28 62.44,19.27 62.9,19.27C63.36,19.27 63.81,19.27 64.27,19.27C64.72,19.27 65.18,19.27 65.63,19.27Q66.09,19.27 67,19.26L67,117L0,117Z" style="stroke: none; fill: rgb(199, 197, 224);"/><path d="M0,116.16Q0.17,115.18 0.21,114.61C0.26,113.9 0.21,113.02 0.21,112.22C0.21,111.43 0.22,110.63 0.22,109.84C0.22,109.04 0.22,108.25 0.22,107.45C0.22,106.65 0.22,105.86 0.22,105.06C0.22,104.26 0.23,103.47 0.23,102.67C0.23,101.88 0.23,101.08 0.23,100.29C0.23,99.49 0.24,98.7 0.24,97.9C0.24,97.1 0.24,96.31 0.24,95.51C0.24,94.71 0.25,93.92 0.25,93.12C0.25,92.32 0.26,91.53 0.26,90.73C0.26,89.94 0.26,89.14 0.26,88.35C0.26,87.55 0.27,86.76 0.27,85.96C0.27,85.16 0.28,84.37 0.28,83.57C0.29,82.77 0.29,81.98 0.3,81.18C0.3,80.39 0.31,79.59 0.31,78.8C0.32,78 0.32,77.21 0.33,76.41C0.34,75.61 0.35,74.82 0.36,74.02C0.37,73.22 0.38,72.43 0.39,71.63C0.4,70.83 0.41,70.04 0.43,69.24C0.44,68.45 0.46,67.65 0.48,66.86C0.5,66.06 0.53,65.27 0.57,64.47C0.61,63.67 0.64,62.88 0.71,62.08C0.78,61.28 0.87,60.37 1,59.69C1.1,59.17 1.29,58.75 1.37,58.32C1.43,57.96 1.42,57.72 1.46,57.31C1.51,56.68 1.62,55.72 1.66,54.92C1.7,54.12 1.69,53.33 1.7,52.53C1.72,51.73 1.73,50.94 1.75,50.14C1.77,49.35 1.79,48.55 1.83,47.76C1.87,46.96 1.89,46.16 1.99,45.37C2.09,44.57 2.26,43.51 2.43,42.98C2.52,42.7 2.64,42.63 2.73,42.37C2.88,41.94 3,41.23 3.09,40.59C3.19,39.85 3.16,38.99 3.29,38.2C3.42,37.4 3.7,36.27 3.88,35.82C3.96,35.62 4.02,35.61 4.1,35.42C4.27,35.01 4.48,34.05 4.72,33.43C4.94,32.86 5.26,32.26 5.47,31.82C5.62,31.51 5.69,31.34 5.86,31.04C6.11,30.59 6.56,29.85 6.84,29.41C7.04,29.1 7.17,28.93 7.37,28.65C7.62,28.29 7.85,27.78 8.2,27.42C8.57,27.04 9.31,26.67 9.57,26.47C9.68,26.38 9.7,26.37 9.8,26.27C10.04,26.04 10.5,25.3 10.94,25.03C11.35,24.78 11.85,24.77 12.31,24.64C12.76,24.51 13.29,24.38 13.67,24.23C13.95,24.12 14.17,24.05 14.39,23.88C14.63,23.7 14.76,23.36 15.04,23.15C15.39,22.89 15.94,22.69 16.41,22.55C16.86,22.41 17.32,22.36 17.78,22.3C18.23,22.24 18.69,22.21 19.14,22.17C19.6,22.13 20.05,22.11 20.51,22.08C20.97,22.05 21.42,22.03 21.88,22C22.33,21.97 22.79,21.94 23.24,21.9C23.7,21.86 24.15,21.8 24.61,21.74C25.09,21.67 25.61,21.66 26.07,21.505C26.53,21.35 26.91,20.99 27.35,20.8C27.79,20.61 28.25,20.49 28.71,20.38C29.16,20.27 29.62,20.21 30.08,20.14C30.54,20.08 30.99,20.03 31.45,19.99C31.91,19.95 32.36,19.92 32.82,19.89C33.27,19.86 33.73,19.83 34.18,19.81C34.64,19.79 35.09,19.77 35.55,19.75C36.01,19.73 36.46,19.72 36.92,19.71C37.38,19.7 37.83,19.68 38.29,19.67C38.74,19.66 39.2,19.65 39.65,19.64C40.11,19.63 40.56,19.63 41.02,19.62C41.48,19.61 41.93,19.61 42.39,19.6C42.85,19.59 43.3,19.59 43.76,19.58C44.21,19.58 44.67,19.57 45.12,19.57C45.58,19.56 46.03,19.56 46.49,19.55C46.95,19.55 47.4,19.54 47.86,19.54C48.31,19.54 48.77,19.53 49.22,19.53C49.68,19.53 50.13,19.52 50.59,19.52C51.05,19.52 51.5,19.51 51.96,19.51C52.42,19.51 52.87,19.5 53.33,19.5C53.78,19.5 54.24,19.49 54.69,19.49C55.15,19.49 55.6,19.49 56.06,19.49C56.52,19.49 56.97,19.48 57.43,19.48C57.89,19.48 58.34,19.47 58.8,19.47C59.25,19.47 59.71,19.47 60.16,19.47C60.62,19.47 61.07,19.46 61.53,19.46C61.99,19.46 62.44,19.45 62.9,19.45C63.36,19.45 63.81,19.45 64.27,19.45C64.72,19.45 65.18,19.44 65.63,19.44Q66.09,19.44 67,19.44L67,117L0,117Z" style="stroke: none; fill: rgb(205, 204, 227);"/><path d="M0,116.94Q0.26,115.39 0.31,114.61C0.36,113.82 0.32,113.02 0.32,112.22C0.32,111.43 0.32,110.63 0.32,109.84C0.32,109.04 0.33,108.25 0.33,107.45C0.33,106.65 0.33,105.86 0.33,105.06C0.33,104.26 0.34,103.47 0.34,102.67C0.34,101.88 0.35,101.08 0.35,100.29C0.35,99.49 0.35,98.7 0.35,97.9C0.35,97.1 0.36,96.31 0.36,95.51C0.36,94.71 0.37,93.92 0.37,93.12C0.37,92.32 0.37,91.53 0.38,90.73C0.38,89.94 0.4,89.14 0.4,88.35C0.41,87.55 0.41,86.76 0.41,85.96C0.42,85.16 0.42,84.37 0.43,83.57C0.44,82.77 0.44,81.98 0.45,81.18C0.46,80.39 0.46,79.59 0.47,78.8C0.48,78 0.49,77.21 0.5,76.41C0.51,75.61 0.52,74.82 0.53,74.02C0.54,73.22 0.56,72.43 0.58,71.63C0.6,70.83 0.61,70.04 0.64,69.24C0.66,68.45 0.7,67.65 0.73,66.86C0.77,66.06 0.79,65.27 0.85,64.47C0.91,63.67 0.97,62.82 1.07,62.08C1.15,61.43 1.32,60.71 1.37,60.27C1.4,60.02 1.4,59.95 1.42,59.69C1.46,59.17 1.55,58.1 1.62,57.31C1.69,56.51 1.78,55.72 1.82,54.92C1.86,54.12 1.85,53.33 1.87,52.53C1.89,51.73 1.92,50.94 1.95,50.14C1.98,49.35 2,48.55 2.06,47.76C2.12,46.96 2.18,46.11 2.3,45.37C2.41,44.71 2.64,43.95 2.73,43.52C2.78,43.29 2.79,43.22 2.84,42.98C2.94,42.47 3.18,41.39 3.3,40.59C3.42,39.8 3.42,38.94 3.57,38.2C3.7,37.55 3.96,36.82 4.1,36.39C4.18,36.15 4.21,36.08 4.29,35.82C4.46,35.3 4.78,34.04 5.02,33.43C5.17,33.03 5.3,32.83 5.47,32.48C5.68,32.05 5.95,31.48 6.19,31.04C6.4,30.65 6.6,30.33 6.84,29.96C7.11,29.54 7.51,29.01 7.76,28.65C7.93,28.4 7.99,28.22 8.2,28C8.51,27.67 9.19,27.27 9.57,26.95C9.87,26.7 10.1,26.5 10.33,26.27C10.55,26.05 10.67,25.79 10.94,25.6C11.29,25.36 11.85,25.2 12.31,25.03C12.76,24.86 13.22,24.77 13.67,24.59C14.14,24.4 14.63,24.15 15.09,23.9C15.55,23.65 15.95,23.27 16.41,23.07C16.85,22.88 17.32,22.8 17.78,22.71C18.23,22.62 18.69,22.56 19.14,22.51C19.6,22.45 20.05,22.42 20.51,22.38C20.97,22.34 21.42,22.31 21.88,22.27C22.33,22.23 22.79,22.2 23.24,22.16C23.7,22.11 24.15,22.06 24.61,22C25.07,21.94 25.52,21.87 25.98,21.79C26.44,21.71 27.07,21.59 27.35,21.54C27.47,21.52 27.5,21.53 27.62,21.49C27.86,21.41 28.32,21.14 28.71,21.01C29.13,20.86 29.62,20.76 30.08,20.66C30.53,20.56 30.99,20.49 31.45,20.43C31.91,20.37 32.36,20.32 32.82,20.28C33.27,20.24 33.73,20.2 34.18,20.17C34.64,20.14 35.09,20.11 35.55,20.08C36.01,20.05 36.46,20.03 36.92,20.01C37.38,19.99 37.83,19.98 38.29,19.96C38.74,19.95 39.2,19.93 39.65,19.92C40.11,19.91 40.56,19.89 41.02,19.88C41.48,19.87 41.93,19.86 42.39,19.85C42.85,19.84 43.3,19.83 43.76,19.82C44.21,19.81 44.67,19.81 45.12,19.8C45.58,19.79 46.03,19.79 46.49,19.78C46.95,19.77 47.4,19.77 47.86,19.76C48.31,19.75 48.77,19.74 49.22,19.74C49.68,19.73 50.13,19.73 50.59,19.73C51.05,19.72 51.5,19.72 51.96,19.71C52.42,19.71 52.87,19.7 53.33,19.7C53.78,19.7 54.24,19.69 54.69,19.69C55.15,19.69 55.6,19.68 56.06,19.68C56.52,19.68 56.97,19.67 57.43,19.67C57.89,19.67 58.34,19.66 58.8,19.66C59.25,19.66 59.71,19.65 60.16,19.65C60.62,19.65 61.07,19.64 61.53,19.64C61.99,19.64 62.44,19.64 62.9,19.64C63.36,19.64 63.81,19.63 64.27,19.63C64.72,19.63 65.18,19.62 65.63,19.62Q66.09,19.62 67,19.61L67,117L0,117Z" style="stroke: none; fill: rgb(212, 211, 231);"/><path d="M1.23,117Q0.55,115.42 0.42,114.61C0.29,113.82 0.43,113.02 0.43,112.22C0.43,111.43 0.43,110.63 0.43,109.84C0.43,109.04 0.44,108.25 0.44,107.45C0.44,106.65 0.45,105.86 0.45,105.06C0.45,104.26 0.45,103.47 0.45,102.67C0.45,101.88 0.46,101.08 0.46,100.29C0.46,99.49 0.47,98.7 0.47,97.9C0.47,97.1 0.48,96.31 0.48,95.51C0.49,94.71 0.49,93.92 0.5,93.12C0.5,92.32 0.5,91.53 0.51,90.73C0.51,89.94 0.52,89.14 0.53,88.35C0.54,87.55 0.54,86.76 0.55,85.96C0.56,85.16 0.56,84.37 0.57,83.57C0.58,82.77 0.58,81.98 0.59,81.18C0.6,80.39 0.61,79.59 0.62,78.8C0.63,78 0.65,77.21 0.66,76.41C0.68,75.61 0.69,74.82 0.71,74.02C0.73,73.22 0.75,72.43 0.77,71.63C0.79,70.83 0.82,70.04 0.85,69.24C0.88,68.45 0.92,67.65 0.97,66.86C1.02,66.06 1.07,65.25 1.14,64.47C1.21,63.72 1.31,63.05 1.385,62.285C1.46,61.46 1.52,60.54 1.59,59.69C1.66,58.88 1.73,58.1 1.79,57.31C1.85,56.51 1.93,55.72 1.97,54.92C2.01,54.12 2.01,53.33 2.04,52.53C2.07,51.73 2.1,50.94 2.14,50.14C2.18,49.35 2.22,48.55 2.3,47.76C2.38,46.96 2.52,45.88 2.61,45.37C2.65,45.12 2.68,45.06 2.73,44.83C2.82,44.4 2.96,43.64 3.08,42.98C3.22,42.23 3.38,41.39 3.51,40.59C3.64,39.79 3.72,38.79 3.85,38.2C3.93,37.84 4,37.67 4.1,37.34C4.23,36.9 4.41,36.39 4.59,35.82C4.83,35.08 5.07,34.09 5.4,33.28C5.72,32.5 6.25,31.52 6.52,31.04C6.65,30.8 6.69,30.74 6.84,30.52C7.13,30.08 7.69,29.15 8.175,28.61C8.61,28.13 9.11,27.82 9.57,27.42C10.02,27.02 10.43,26.56 10.899999999999999,26.225C11.35,25.9 11.83,25.65 12.31,25.43C12.76,25.23 13.22,25.13 13.67,24.95C14.13,24.76 14.63,24.51 15.04,24.32C15.38,24.16 15.72,24.02 15.97,23.88C16.15,23.78 16.22,23.7 16.41,23.6C16.73,23.44 17.32,23.24 17.78,23.11C18.23,22.99 18.68,22.92 19.14,22.85C19.59,22.78 20.05,22.73 20.51,22.68C20.97,22.63 21.42,22.59 21.88,22.55C22.33,22.51 22.79,22.47 23.24,22.42C23.7,22.37 24.15,22.32 24.61,22.26C25.07,22.2 25.52,22.13 25.98,22.06C26.44,21.99 26.89,21.9 27.35,21.82C27.8,21.74 28.39,21.63 28.71,21.57C28.89,21.54 28.96,21.53 29.12,21.49C29.37,21.42 29.73,21.28 30.08,21.18C30.49,21.07 30.99,20.96 31.45,20.87C31.91,20.79 32.36,20.73 32.82,20.67C33.27,20.61 33.73,20.56 34.18,20.52C34.64,20.48 35.09,20.44 35.55,20.41C36.01,20.38 36.46,20.35 36.92,20.32C37.38,20.29 37.83,20.27 38.29,20.25C38.74,20.23 39.2,20.21 39.65,20.19C40.11,20.17 40.56,20.16 41.02,20.14C41.48,20.13 41.93,20.11 42.39,20.1C42.85,20.09 43.3,20.07 43.76,20.06C44.21,20.05 44.67,20.04 45.12,20.03C45.58,20.02 46.03,20.01 46.49,20C46.95,19.99 47.4,19.99 47.86,19.98C48.31,19.97 48.77,19.96 49.22,19.95C49.68,19.94 50.13,19.94 50.59,19.93C51.05,19.93 51.5,19.92 51.96,19.92C52.42,19.91 52.87,19.91 53.33,19.9C53.78,19.9 54.24,19.89 54.69,19.89C55.15,19.88 55.6,19.88 56.06,19.87C56.52,19.87 56.97,19.86 57.43,19.86C57.89,19.86 58.34,19.85 58.8,19.85C59.25,19.85 59.71,19.84 60.16,19.84C60.62,19.84 61.07,19.83 61.53,19.83C61.99,19.83 62.44,19.82 62.9,19.82C63.36,19.82 63.81,19.81 64.27,19.81C64.72,19.81 65.18,19.8 65.63,19.8Q66.09,19.8 67,19.79L67,117Z" style="stroke: none; fill: rgb(219, 217, 235);"/><path d="M5.9,117Q5.65,116.99 5.47,116.99C5.14,116.98 4.56,116.97 4.1,116.96C3.64,116.94 3.19,116.93 2.73,116.9C2.28,116.87 1.72,117.03 1.37,116.76C0.91,116.41 0.66,115.36 0.52,114.61C0.38,113.85 0.53,113.02 0.53,112.22C0.53,111.43 0.54,110.63 0.54,109.84C0.54,109.04 0.55,108.25 0.55,107.45C0.55,106.65 0.56,105.86 0.56,105.06C0.56,104.26 0.57,103.47 0.57,102.67C0.57,101.88 0.58,101.08 0.58,100.29C0.58,99.49 0.59,98.7 0.59,97.9C0.6,97.1 0.6,96.31 0.61,95.51C0.61,94.71 0.62,93.92 0.62,93.12C0.63,92.32 0.63,91.53 0.64,90.73C0.65,89.94 0.65,89.14 0.66,88.35C0.67,87.55 0.67,86.76 0.68,85.96C0.69,85.16 0.7,84.37 0.71,83.57C0.72,82.77 0.73,81.98 0.74,81.18C0.75,80.39 0.77,79.59 0.78,78.8C0.8,78 0.81,77.21 0.83,76.41C0.85,75.61 0.87,74.82 0.89,74.02C0.91,73.22 0.93,72.43 0.96,71.63C0.99,70.83 1.03,70.04 1.07,69.24C1.11,68.45 1.16,67.6 1.21,66.86C1.26,66.21 1.34,65.46 1.37,65.03C1.39,64.79 1.39,64.72 1.41,64.47C1.45,63.95 1.53,62.88 1.59,62.08C1.65,61.28 1.71,60.49 1.77,59.69C1.83,58.9 1.89,58.1 1.95,57.31C2.01,56.51 2.08,55.72 2.12,54.92C2.16,54.12 2.18,53.33 2.21,52.53C2.25,51.73 2.28,50.94 2.33,50.14C2.38,49.35 2.45,48.45 2.53,47.76C2.59,47.22 2.66,46.76 2.73,46.33C2.79,45.98 2.83,45.76 2.9,45.37C3.01,44.75 3.18,43.78 3.32,42.98C3.46,42.18 3.59,41.38 3.72,40.59C3.85,39.81 3.93,39.04 4.115,38.260000000000005C4.31,37.45 4.65,36.58 4.89,35.82C5.1,35.16 5.31,34.39 5.47,33.96C5.56,33.73 5.59,33.67 5.7,33.43C5.93,32.92 6.42,31.78 6.855,31.064999999999998C7.26,30.4 7.86,29.69 8.2,29.25C8.4,28.99 8.48,28.85 8.68,28.65C8.92,28.4 9.24,28.17 9.57,27.89C9.98,27.55 10.58,27.04 10.94,26.74C11.18,26.55 11.31,26.42 11.53,26.27C11.77,26.11 12.01,25.96 12.31,25.82C12.69,25.64 13.22,25.49 13.67,25.31C14.13,25.13 14.58,24.92 15.04,24.72C15.5,24.52 16.07,24.24 16.41,24.09C16.61,24 16.7,23.96 16.89,23.88C17.14,23.77 17.45,23.63 17.78,23.52C18.18,23.39 18.68,23.28 19.14,23.19C19.59,23.1 20.05,23.04 20.51,22.98C20.97,22.92 21.42,22.88 21.88,22.83C22.33,22.78 22.79,22.73 23.24,22.68C23.7,22.63 24.15,22.58 24.61,22.52C25.07,22.46 25.52,22.4 25.98,22.33C26.44,22.26 26.89,22.19 27.35,22.11C27.8,22.03 28.26,21.95 28.71,21.87C29.17,21.79 29.7,21.68 30.08,21.61C30.35,21.56 30.54,21.54 30.77,21.49C31,21.44 31.18,21.38 31.45,21.32C31.83,21.24 32.36,21.14 32.82,21.06C33.27,20.99 33.73,20.92 34.18,20.87C34.64,20.81 35.09,20.77 35.55,20.73C36.01,20.69 36.46,20.65 36.92,20.62C37.38,20.59 37.83,20.56 38.29,20.53C38.74,20.5 39.2,20.48 39.65,20.46C40.11,20.44 40.56,20.42 41.02,20.4C41.48,20.38 41.93,20.36 42.39,20.34C42.85,20.32 43.3,20.31 43.76,20.3C44.21,20.29 44.67,20.27 45.12,20.26C45.58,20.25 46.03,20.24 46.49,20.23C46.95,20.22 47.4,20.21 47.86,20.2C48.31,20.19 48.77,20.18 49.22,20.17C49.68,20.16 50.13,20.15 50.59,20.14C51.05,20.13 51.5,20.13 51.96,20.12C52.42,20.11 52.87,20.11 53.33,20.1C53.78,20.09 54.24,20.08 54.69,20.08C55.15,20.07 55.6,20.07 56.06,20.07C56.52,20.06 56.97,20.06 57.43,20.05C57.89,20.05 58.34,20.05 58.8,20.04C59.25,20.04 59.71,20.02 60.16,20.02C60.62,20.01 61.07,20.01 61.53,20.01C61.99,20.01 62.44,20 62.9,20C63.36,20 63.81,20 64.27,19.99C64.72,19.99 65.18,19.97 65.63,19.97Q66.09,19.96 67,19.96L67,117Z" style="stroke: none; fill: rgb(225, 224, 238);"/><path d="M67,117Q66.09,117 65.63,117C65.18,117 64.72,117 64.27,117C63.81,117 63.36,117 62.9,117C62.44,117 61.99,116.99 61.53,116.99C61.07,116.99 60.62,116.99 60.16,116.99C59.71,116.99 59.25,116.99 58.8,116.99C58.34,116.99 57.89,116.99 57.43,116.99C56.97,116.99 56.52,116.99 56.06,116.99C55.6,116.99 55.15,116.99 54.69,116.99C54.24,116.99 53.78,116.99 53.33,116.99C52.87,116.99 52.42,116.99 51.96,116.99C51.5,116.99 51.05,116.99 50.59,116.99C50.13,116.99 49.68,116.99 49.22,116.99C48.77,116.99 48.31,116.98 47.86,116.98C47.4,116.98 46.95,116.98 46.49,116.98C46.03,116.98 45.58,116.98 45.12,116.98C44.67,116.98 44.21,116.98 43.76,116.98C43.3,116.98 42.85,116.98 42.39,116.98C41.93,116.98 41.48,116.98 41.02,116.98C40.56,116.98 40.11,116.98 39.65,116.98C39.2,116.98 38.74,116.97 38.29,116.97C37.83,116.97 37.38,116.97 36.92,116.97C36.46,116.97 36.01,116.97 35.55,116.97C35.09,116.97 34.64,116.97 34.18,116.97C33.73,116.97 33.27,116.97 32.82,116.97C32.36,116.97 31.91,116.96 31.45,116.96C30.99,116.96 30.54,116.96 30.08,116.96C29.62,116.96 29.17,116.96 28.71,116.96C28.26,116.96 27.8,116.95 27.35,116.95C26.89,116.95 26.44,116.95 25.98,116.95C25.52,116.95 25.07,116.95 24.61,116.95C24.15,116.95 23.7,116.94 23.24,116.94C22.79,116.94 22.33,116.94 21.88,116.94C21.42,116.94 20.97,116.94 20.51,116.94C20.05,116.94 19.6,116.93 19.14,116.93C18.69,116.93 18.23,116.93 17.78,116.93C17.32,116.93 16.87,116.92 16.41,116.92C15.95,116.92 15.5,116.91 15.04,116.91C14.58,116.91 14.13,116.9 13.67,116.9C13.22,116.9 12.76,116.89 12.31,116.89C11.85,116.89 11.4,116.88 10.94,116.88C10.48,116.88 10.03,116.87 9.57,116.87C9.11,116.86 8.66,116.86 8.2,116.85C7.75,116.84 7.29,116.84 6.84,116.83C6.38,116.82 5.93,116.82 5.47,116.81C5.01,116.8 4.56,116.78 4.1,116.76C3.64,116.74 3.18,116.73 2.73,116.69C2.27,116.64 1.71,116.76 1.37,116.49C0.96,116.16 0.76,115.29 0.63,114.61C0.49,113.87 0.64,113.02 0.64,112.22C0.64,111.43 0.65,110.63 0.65,109.84C0.65,109.04 0.66,108.25 0.66,107.45C0.66,106.65 0.67,105.86 0.67,105.06C0.67,104.26 0.68,103.47 0.68,102.67C0.68,101.88 0.69,101.08 0.69,100.29C0.7,99.49 0.7,98.7 0.71,97.9C0.72,97.1 0.72,96.31 0.73,95.51C0.74,94.71 0.74,93.92 0.75,93.12C0.76,92.32 0.76,91.53 0.77,90.73C0.78,89.94 0.78,89.14 0.79,88.35C0.8,87.55 0.81,86.76 0.82,85.96C0.83,85.16 0.84,84.37 0.85,83.57C0.86,82.77 0.87,81.98 0.89,81.18C0.9,80.39 0.92,79.59 0.94,78.8C0.96,78 0.97,77.21 0.99,76.41C1.01,75.61 1.04,74.82 1.07,74.02C1.1,73.22 1.13,72.43 1.16,71.63C1.2,70.83 1.24,69.91 1.28,69.24C1.31,68.75 1.34,68.37 1.37,67.96C1.4,67.58 1.41,67.3 1.44,66.86C1.48,66.22 1.55,65.27 1.61,64.47C1.67,63.67 1.72,62.88 1.78,62.08C1.84,61.28 1.89,60.49 1.95,59.69C2.01,58.9 2.07,58.1 2.12,57.31C2.18,56.51 2.24,55.72 2.28,54.92C2.32,54.12 2.34,53.33 2.38,52.53C2.42,51.73 2.46,50.93 2.52,50.14C2.58,49.37 2.65,48.65 2.75,47.875C2.86,47.06 3.03,46.2 3.17,45.37C3.3,44.56 3.43,43.78 3.56,42.98C3.69,42.18 3.83,41.22 3.93,40.59C4,40.18 4.02,39.94 4.1,39.58C4.2,39.15 4.34,38.72 4.49,38.2C4.69,37.51 5.01,36.42 5.19,35.82C5.3,35.45 5.35,35.25 5.47,34.92C5.63,34.48 5.89,33.92 6.12,33.43C6.35,32.93 6.61,32.38 6.84,31.95C7.03,31.61 7.17,31.35 7.38,31.04C7.62,30.68 7.91,30.31 8.2,29.93C8.52,29.52 8.97,28.92 9.23,28.65C9.37,28.51 9.42,28.48 9.57,28.36C9.87,28.11 10.49,27.65 10.94,27.3C11.39,26.95 11.8,26.52 12.265,26.244999999999997C12.71,25.98 13.2,25.86 13.67,25.67C14.13,25.48 14.58,25.31 15.04,25.12C15.5,24.93 15.95,24.73 16.41,24.53C16.88,24.33 17.38,24.08 17.85,23.91C18.29,23.75 18.7,23.63 19.14,23.53C19.59,23.42 20.05,23.35 20.51,23.28C20.97,23.21 21.42,23.16 21.88,23.1C22.33,23.05 22.79,23 23.24,22.95C23.7,22.9 24.15,22.84 24.61,22.78C25.07,22.72 25.52,22.66 25.98,22.6C26.44,22.53 26.89,22.46 27.35,22.39C27.8,22.32 28.26,22.25 28.71,22.17C29.17,22.09 29.62,22.01 30.08,21.93C30.54,21.85 31,21.78 31.45,21.7C31.88,21.62 32.29,21.55 32.725,21.47C33.19,21.39 33.7,21.3 34.18,21.23C34.64,21.16 35.09,21.11 35.55,21.06C36.01,21.01 36.46,20.97 36.92,20.93C37.38,20.89 37.83,20.85 38.29,20.82C38.74,20.79 39.2,20.76 39.65,20.73C40.11,20.7 40.56,20.68 41.02,20.66C41.48,20.64 41.93,20.61 42.39,20.59C42.85,20.57 43.3,20.56 43.76,20.54C44.21,20.52 44.67,20.5 45.12,20.49C45.58,20.47 46.03,20.46 46.49,20.45C46.95,20.44 47.4,20.42 47.86,20.41C48.31,20.4 48.77,20.39 49.22,20.38C49.68,20.37 50.13,20.36 50.59,20.35C51.05,20.34 51.5,20.34 51.96,20.33C52.42,20.32 52.87,20.31 53.33,20.3C53.78,20.29 54.24,20.29 54.69,20.28C55.15,20.27 55.6,20.27 56.06,20.26C56.52,20.25 56.97,20.25 57.43,20.24C57.89,20.23 58.34,20.23 58.8,20.22C59.25,20.22 59.71,20.21 60.16,20.21C60.62,20.2 61.07,20.2 61.53,20.19C61.99,20.19 62.44,20.18 62.9,20.18C63.36,20.17 63.81,20.17 64.27,20.16C64.72,20.16 65.18,20.15 65.63,20.15Q66.09,20.15 67,20.14Z" style="stroke: none; fill: rgb(232, 231, 242);"/><path d="M67,116.83Q66.09,116.82 65.63,116.82C65.18,116.82 64.72,116.82 64.27,116.82C63.81,116.82 63.36,116.82 62.9,116.82C62.44,116.82 61.99,116.82 61.53,116.82C61.07,116.82 60.62,116.82 60.16,116.82C59.71,116.82 59.25,116.82 58.8,116.82C58.34,116.82 57.89,116.82 57.43,116.82C56.97,116.82 56.52,116.82 56.06,116.82C55.6,116.82 55.15,116.82 54.69,116.82C54.24,116.82 53.78,116.82 53.33,116.82C52.87,116.82 52.42,116.81 51.96,116.81C51.5,116.81 51.05,116.81 50.59,116.81C50.13,116.81 49.68,116.81 49.22,116.81C48.77,116.81 48.31,116.81 47.86,116.81C47.4,116.81 46.95,116.81 46.49,116.81C46.03,116.81 45.58,116.81 45.12,116.81C44.67,116.81 44.21,116.81 43.76,116.81C43.3,116.81 42.85,116.81 42.39,116.81C41.93,116.81 41.48,116.8 41.02,116.8C40.56,116.8 40.11,116.8 39.65,116.8C39.2,116.8 38.74,116.8 38.29,116.8C37.83,116.8 37.38,116.8 36.92,116.8C36.46,116.8 36.01,116.8 35.55,116.8C35.09,116.8 34.64,116.79 34.18,116.79C33.73,116.79 33.27,116.79 32.82,116.79C32.36,116.79 31.91,116.79 31.45,116.79C30.99,116.79 30.54,116.79 30.08,116.79C29.62,116.79 29.17,116.78 28.71,116.78C28.26,116.78 27.8,116.78 27.35,116.78C26.89,116.78 26.44,116.78 25.98,116.78C25.52,116.78 25.07,116.77 24.61,116.77C24.15,116.77 23.7,116.77 23.24,116.77C22.79,116.77 22.33,116.77 21.88,116.77C21.42,116.77 20.97,116.76 20.51,116.76C20.05,116.76 19.6,116.76 19.14,116.76C18.69,116.76 18.23,116.75 17.78,116.75C17.32,116.75 16.87,116.74 16.41,116.74C15.95,116.74 15.5,116.74 15.04,116.74C14.58,116.74 14.13,116.73 13.67,116.73C13.22,116.73 12.76,116.72 12.31,116.72C11.85,116.72 11.4,116.71 10.94,116.71C10.48,116.7 10.03,116.7 9.57,116.69C9.11,116.68 8.66,116.68 8.2,116.67C7.75,116.66 7.29,116.66 6.84,116.65C6.38,116.64 5.93,116.63 5.47,116.62C5.01,116.61 4.56,116.59 4.1,116.57C3.64,116.55 3.18,116.54 2.73,116.48C2.27,116.42 1.7,116.49 1.37,116.22C1,115.92 0.84,115.21 0.73,114.61C0.6,113.9 0.73,113.02 0.74,112.22C0.74,111.43 0.76,110.63 0.76,109.84C0.77,109.04 0.77,108.25 0.77,107.45C0.77,106.65 0.78,105.86 0.78,105.06C0.78,104.26 0.78,103.47 0.79,102.67C0.79,101.88 0.8,101.08 0.81,100.29C0.82,99.49 0.82,98.7 0.83,97.9C0.84,97.1 0.84,96.31 0.85,95.51C0.86,94.71 0.86,93.92 0.87,93.12C0.88,92.32 0.88,91.53 0.89,90.73C0.9,89.94 0.91,89.14 0.92,88.35C0.93,87.55 0.95,86.76 0.96,85.96C0.97,85.16 0.98,84.37 0.99,83.57C1,82.77 1.02,81.98 1.04,81.18C1.06,80.39 1.07,79.59 1.09,78.8C1.11,78 1.14,77.21 1.16,76.41C1.19,75.61 1.21,74.83 1.24,74.02C1.27,73.19 1.31,72.3 1.36,71.47999999999999C1.4,70.71 1.46,70 1.51,69.24C1.56,68.46 1.61,67.65 1.66,66.86C1.71,66.06 1.77,65.27 1.82,64.47C1.87,63.67 1.93,62.88 1.98,62.08C2.03,61.28 2.08,60.49 2.13,59.69C2.18,58.9 2.23,58.1 2.28,57.31C2.33,56.51 2.38,55.72 2.43,54.92C2.47,54.12 2.5,53.33 2.55,52.53C2.6,51.71 2.63,50.86 2.725,50.05C2.81,49.27 2.96,48.53 3.08,47.76C3.2,46.97 3.32,46.17 3.44,45.37C3.56,44.57 3.68,43.76 3.8,42.98C3.92,42.23 3.98,41.52 4.145,40.760000000000005C4.32,39.93 4.62,39.03 4.85,38.2C5.07,37.4 5.21,36.64 5.484999999999999,35.864999999999995C5.77,35.05 6.29,33.97 6.54,33.43C6.67,33.16 6.7,33.07 6.84,32.82C7.08,32.38 7.64,31.42 7.89,31.04C8.02,30.85 8.06,30.8 8.2,30.62C8.49,30.25 9.28,29.32 9.57,28.98C9.7,28.83 9.73,28.78 9.87,28.65C10.11,28.43 10.56,28.14 10.94,27.86C11.37,27.54 11.92,27.13 12.31,26.84C12.61,26.62 12.84,26.41 13.09,26.27C13.29,26.16 13.43,26.12 13.67,26.03C14.03,25.89 14.58,25.69 15.04,25.52C15.5,25.34 15.95,25.16 16.41,24.98C16.87,24.8 17.33,24.61 17.78,24.43C18.23,24.25 18.67,24.02 19.130000000000003,23.875C19.58,23.74 20.05,23.66 20.51,23.58C20.97,23.5 21.42,23.44 21.88,23.38C22.33,23.32 22.79,23.26 23.24,23.21C23.7,23.15 24.15,23.11 24.61,23.05C25.07,22.99 25.52,22.93 25.98,22.87C26.44,22.81 26.89,22.74 27.35,22.67C27.8,22.6 28.26,22.54 28.71,22.47C29.17,22.4 29.62,22.32 30.08,22.25C30.54,22.18 30.99,22.1 31.45,22.03C31.91,21.96 32.36,21.88 32.82,21.81C33.27,21.74 33.81,21.65 34.18,21.59C34.43,21.55 34.58,21.52 34.8,21.49C35.04,21.45 35.26,21.43 35.55,21.39C35.94,21.34 36.46,21.28 36.92,21.23C37.38,21.18 37.83,21.14 38.29,21.1C38.74,21.06 39.2,21.03 39.65,21C40.11,20.97 40.56,20.95 41.02,20.92C41.48,20.89 41.93,20.86 42.39,20.84C42.85,20.82 43.3,20.8 43.76,20.78C44.21,20.76 44.67,20.74 45.12,20.72C45.58,20.7 46.03,20.69 46.49,20.68C46.95,20.66 47.4,20.65 47.86,20.63C48.31,20.62 48.77,20.6 49.22,20.59C49.68,20.58 50.13,20.57 50.59,20.56C51.05,20.55 51.5,20.54 51.96,20.53C52.42,20.52 52.87,20.51 53.33,20.5C53.78,20.49 54.24,20.49 54.69,20.48C55.15,20.47 55.6,20.46 56.06,20.45C56.52,20.44 56.97,20.44 57.43,20.43C57.89,20.42 58.34,20.42 58.8,20.41C59.25,20.4 59.71,20.4 60.16,20.39C60.62,20.38 61.07,20.38 61.53,20.37C61.99,20.37 62.44,20.36 62.9,20.36C63.36,20.35 63.81,20.35 64.27,20.34C64.72,20.34 65.18,20.33 65.63,20.33Q66.09,20.32 67,20.31Z" style="stroke: none; fill: rgb(238, 238, 246);"/><path d="M67,116.65Q66.09,116.65 65.63,116.65C65.18,116.65 64.72,116.65 64.27,116.65C63.81,116.65 63.36,116.65 62.9,116.65C62.44,116.65 61.99,116.65 61.53,116.65C61.07,116.65 60.62,116.65 60.16,116.65C59.71,116.65 59.25,116.65 58.8,116.65C58.34,116.65 57.89,116.65 57.43,116.65C56.97,116.65 56.52,116.65 56.06,116.65C55.6,116.65 55.15,116.64 54.69,116.64C54.24,116.64 53.78,116.64 53.33,116.64C52.87,116.64 52.42,116.64 51.96,116.64C51.5,116.64 51.05,116.64 50.59,116.64C50.13,116.64 49.68,116.64 49.22,116.64C48.77,116.64 48.31,116.64 47.86,116.64C47.4,116.64 46.95,116.64 46.49,116.64C46.03,116.64 45.58,116.64 45.12,116.64C44.67,116.64 44.21,116.63 43.76,116.63C43.3,116.63 42.85,116.63 42.39,116.63C41.93,116.63 41.48,116.63 41.02,116.63C40.56,116.63 40.11,116.63 39.65,116.63C39.2,116.63 38.74,116.63 38.29,116.63C37.83,116.63 37.38,116.63 36.92,116.63C36.46,116.63 36.01,116.62 35.55,116.62C35.09,116.62 34.64,116.62 34.18,116.62C33.73,116.62 33.27,116.62 32.82,116.62C32.36,116.62 31.91,116.62 31.45,116.62C30.99,116.62 30.54,116.61 30.08,116.61C29.62,116.61 29.17,116.61 28.71,116.61C28.26,116.61 27.8,116.61 27.35,116.61C26.89,116.61 26.44,116.6 25.98,116.6C25.52,116.6 25.07,116.6 24.61,116.6C24.15,116.6 23.7,116.6 23.24,116.6C22.79,116.6 22.33,116.59 21.88,116.59C21.42,116.59 20.97,116.59 20.51,116.59C20.05,116.59 19.6,116.58 19.14,116.58C18.69,116.58 18.23,116.58 17.78,116.58C17.32,116.58 16.87,116.57 16.41,116.57C15.95,116.57 15.5,116.56 15.04,116.56C14.58,116.56 14.13,116.55 13.67,116.55C13.22,116.55 12.76,116.54 12.31,116.54C11.85,116.54 11.4,116.53 10.94,116.53C10.48,116.52 10.03,116.52 9.57,116.51C9.11,116.5 8.66,116.5 8.2,116.49C7.75,116.48 7.29,116.48 6.84,116.47C6.38,116.46 5.93,116.44 5.47,116.43C5.01,116.41 4.56,116.41 4.1,116.38C3.64,116.35 3.18,116.34 2.73,116.27C2.27,116.2 1.68,116.23 1.37,115.96C1.05,115.68 0.94,115.13 0.84,114.61C0.71,113.94 0.85,113.02 0.85,112.22C0.85,111.43 0.86,110.63 0.86,109.84C0.87,109.04 0.87,108.25 0.88,107.45C0.88,106.65 0.89,105.86 0.89,105.06C0.9,104.26 0.9,103.47 0.91,102.67C0.92,101.88 0.92,101.08 0.93,100.29C0.94,99.49 0.94,98.7 0.95,97.9C0.96,97.1 0.96,96.31 0.97,95.51C0.98,94.71 0.98,93.92 0.99,93.12C1,92.32 1.01,91.53 1.02,90.73C1.03,89.94 1.04,89.14 1.05,88.35C1.06,87.55 1.08,86.76 1.09,85.96C1.11,85.16 1.12,84.37 1.14,83.57C1.16,82.77 1.17,81.98 1.19,81.18C1.21,80.39 1.23,79.59 1.25,78.8C1.27,78 1.31,77.05 1.33,76.41C1.35,75.98 1.35,75.71 1.37,75.33C1.39,74.91 1.42,74.52 1.45,74.02C1.49,73.34 1.54,72.43 1.59,71.63C1.64,70.83 1.69,70.04 1.74,69.24C1.79,68.45 1.83,67.65 1.88,66.86C1.93,66.06 1.98,65.27 2.03,64.47C2.08,63.67 2.12,62.88 2.17,62.08C2.22,61.28 2.26,60.49 2.31,59.69C2.36,58.9 2.41,58.1 2.45,57.31C2.5,56.51 2.53,55.73 2.58,54.92C2.63,54.09 2.64,53.22 2.725,52.400000000000006C2.8,51.62 2.93,50.9 3.04,50.14C3.15,49.36 3.27,48.55 3.38,47.76C3.49,46.96 3.61,46.18 3.72,45.37C3.84,44.52 3.91,43.6 4.07,42.775C4.21,42.01 4.41,41.33 4.6,40.59C4.79,39.81 5.05,38.82 5.21,38.2C5.31,37.81 5.36,37.59 5.47,37.24C5.61,36.81 5.81,36.33 6.01,35.82C6.25,35.2 6.66,34.19 6.84,33.79C6.92,33.62 6.93,33.6 7.02,33.43C7.24,33.03 7.94,31.86 8.2,31.45C8.32,31.26 8.35,31.21 8.48,31.04C8.72,30.73 9.21,30.21 9.57,29.81C9.92,29.42 10.36,28.88 10.62,28.65C10.75,28.53 10.8,28.52 10.94,28.42C11.24,28.21 11.86,27.81 12.31,27.49C12.77,27.17 13.35,26.74 13.67,26.52C13.84,26.41 13.89,26.35 14.06,26.27C14.31,26.15 14.69,26.05 15.04,25.92C15.46,25.77 15.95,25.6 16.41,25.43C16.87,25.26 17.32,25.09 17.78,24.92C18.23,24.75 18.69,24.58 19.14,24.41C19.6,24.24 20.06,24.01 20.520000000000003,23.88C20.97,23.76 21.43,23.72 21.88,23.65C22.33,23.58 22.79,23.53 23.24,23.47C23.7,23.41 24.15,23.36 24.61,23.31C25.07,23.25 25.52,23.2 25.98,23.14C26.44,23.08 26.89,23.02 27.35,22.96C27.8,22.9 28.26,22.83 28.71,22.77C29.17,22.7 29.62,22.64 30.08,22.57C30.54,22.5 30.99,22.44 31.45,22.37C31.91,22.3 32.36,22.24 32.82,22.17C33.27,22.1 33.73,22.03 34.18,21.96C34.64,21.89 35.09,21.83 35.55,21.76C36.01,21.69 36.6,21.6 36.92,21.55C37.09,21.52 37.16,21.51 37.32,21.49C37.57,21.46 37.94,21.42 38.29,21.39C38.7,21.35 39.2,21.31 39.65,21.27C40.11,21.23 40.56,21.2 41.02,21.17C41.48,21.14 41.93,21.12 42.39,21.09C42.85,21.07 43.3,21.04 43.76,21.02C44.21,21 44.67,20.98 45.12,20.96C45.58,20.94 46.03,20.92 46.49,20.9C46.95,20.88 47.4,20.87 47.86,20.85C48.31,20.84 48.77,20.82 49.22,20.81C49.68,20.8 50.13,20.78 50.59,20.77C51.05,20.76 51.5,20.74 51.96,20.73C52.42,20.72 52.87,20.71 53.33,20.7C53.78,20.69 54.24,20.68 54.69,20.67C55.15,20.66 55.6,20.66 56.06,20.65C56.52,20.64 56.97,20.63 57.43,20.62C57.89,20.61 58.34,20.61 58.8,20.6C59.25,20.59 59.71,20.59 60.16,20.58C60.62,20.57 61.07,20.57 61.53,20.56C61.99,20.55 62.44,20.55 62.9,20.54C63.36,20.53 63.81,20.53 64.27,20.52C64.72,20.52 65.18,20.51 65.63,20.51Q66.09,20.5 67,20.49Z" style="stroke: none; fill: rgb(245, 245, 249);"/><path d="M67,116.48Q66.09,116.48 65.63,116.48C65.18,116.48 64.72,116.48 64.27,116.48C63.81,116.48 63.36,116.48 62.9,116.48C62.44,116.48 61.99,116.48 61.53,116.48C61.07,116.48 60.62,116.48 60.16,116.48C59.71,116.48 59.25,116.47 58.8,116.47C58.34,116.47 57.89,116.47 57.43,116.47C56.97,116.47 56.52,116.47 56.06,116.47C55.6,116.47 55.15,116.47 54.69,116.47C54.24,116.47 53.78,116.47 53.33,116.47C52.87,116.47 52.42,116.47 51.96,116.47C51.5,116.47 51.05,116.47 50.59,116.47C50.13,116.47 49.68,116.47 49.22,116.47C48.77,116.47 48.31,116.47 47.86,116.47C47.4,116.47 46.95,116.46 46.49,116.46C46.03,116.46 45.58,116.46 45.12,116.46C44.67,116.46 44.21,116.46 43.76,116.46C43.3,116.46 42.85,116.46 42.39,116.46C41.93,116.46 41.48,116.46 41.02,116.46C40.56,116.46 40.11,116.46 39.65,116.46C39.2,116.46 38.74,116.45 38.29,116.45C37.83,116.45 37.38,116.45 36.92,116.45C36.46,116.45 36.01,116.45 35.55,116.45C35.09,116.45 34.64,116.45 34.18,116.45C33.73,116.45 33.27,116.45 32.82,116.45C32.36,116.45 31.91,116.44 31.45,116.44C30.99,116.44 30.54,116.44 30.08,116.44C29.62,116.44 29.17,116.44 28.71,116.44C28.26,116.44 27.8,116.43 27.35,116.43C26.89,116.43 26.44,116.43 25.98,116.43C25.52,116.43 25.07,116.43 24.61,116.43C24.15,116.43 23.7,116.42 23.24,116.42C22.79,116.42 22.33,116.42 21.88,116.42C21.42,116.42 20.97,116.41 20.51,116.41C20.05,116.41 19.6,116.41 19.14,116.41C18.69,116.41 18.23,116.4 17.78,116.4C17.32,116.4 16.87,116.39 16.41,116.39C15.95,116.39 15.5,116.39 15.04,116.39C14.58,116.39 14.13,116.38 13.67,116.38C13.22,116.38 12.76,116.37 12.31,116.37C11.85,116.36 11.4,116.36 10.94,116.35C10.48,116.35 10.03,116.35 9.57,116.34C9.11,116.33 8.66,116.32 8.2,116.31C7.75,116.3 7.29,116.3 6.84,116.29C6.38,116.28 5.93,116.27 5.47,116.25C5.01,116.23 4.56,116.21 4.1,116.18C3.64,116.15 3.18,116.14 2.73,116.06C2.27,115.98 1.67,115.96 1.37,115.69C1.1,115.45 1.02,115.05 0.94,114.61C0.82,113.98 0.95,113.02 0.96,112.22C0.96,111.43 0.97,110.63 0.97,109.84C0.98,109.04 0.98,108.25 0.99,107.45C0.99,106.65 1,105.86 1,105.06C1.01,104.26 1.01,103.47 1.02,102.67C1.03,101.88 1.03,101.08 1.04,100.29C1.05,99.49 1.05,98.7 1.06,97.9C1.07,97.1 1.08,96.31 1.09,95.51C1.1,94.71 1.11,93.92 1.12,93.12C1.13,92.32 1.14,91.53 1.15,90.73C1.16,89.94 1.18,89.14 1.19,88.35C1.2,87.55 1.22,86.76 1.23,85.96C1.25,85.16 1.26,84.37 1.28,83.57C1.3,82.77 1.32,81.82 1.34,81.18C1.35,80.75 1.35,80.47 1.37,80.09C1.39,79.68 1.41,79.3 1.44,78.8C1.48,78.13 1.53,77.21 1.57,76.41C1.62,75.61 1.66,74.82 1.71,74.02C1.75,73.22 1.8,72.43 1.84,71.63C1.88,70.83 1.93,70.04 1.97,69.24C2.01,68.45 2.06,67.65 2.1,66.86C2.14,66.06 2.19,65.27 2.23,64.47C2.27,63.67 2.32,62.88 2.36,62.08C2.4,61.28 2.45,60.49 2.49,59.69C2.53,58.9 2.58,58.1 2.62,57.31C2.66,56.52 2.67,55.75 2.74,54.96C2.81,54.16 2.95,53.34 3.06,52.53C3.17,51.73 3.27,50.94 3.38,50.14C3.48,49.35 3.59,48.55 3.69,47.76C3.79,46.96 3.91,45.97 3.99,45.37C4.04,45.01 4.04,44.84 4.1,44.51C4.18,44.07 4.33,43.55 4.46,42.98C4.63,42.27 4.84,41.34 5.02,40.59C5.18,39.92 5.35,39.11 5.47,38.69C5.53,38.47 5.56,38.42 5.64,38.2C5.82,37.7 6.29,36.39 6.52,35.82C6.65,35.49 6.7,35.35 6.84,35.05C7.05,34.61 7.42,33.89 7.67,33.43C7.86,33.08 7.99,32.86 8.2,32.53C8.48,32.09 8.96,31.37 9.22,31.04C9.36,30.86 9.41,30.81 9.57,30.64C9.87,30.31 10.58,29.59 10.94,29.22C11.17,28.99 11.3,28.82 11.52,28.65C11.75,28.46 12.01,28.33 12.31,28.14C12.7,27.89 13.21,27.56 13.67,27.26C14.15,26.95 14.64,26.56 15.125,26.32C15.55,26.11 15.97,26.02 16.41,25.87C16.86,25.72 17.32,25.57 17.78,25.42C18.23,25.27 18.69,25.11 19.14,24.95C19.6,24.79 20.05,24.63 20.51,24.47C20.97,24.31 21.58,24.09 21.88,23.99C22.03,23.94 22.07,23.91 22.21,23.88C22.46,23.82 22.87,23.78 23.24,23.73C23.66,23.67 24.15,23.62 24.61,23.57C25.07,23.52 25.52,23.46 25.98,23.41C26.44,23.35 26.89,23.3 27.35,23.24C27.8,23.18 28.26,23.13 28.71,23.07C29.17,23.01 29.62,22.95 30.08,22.89C30.54,22.83 30.99,22.77 31.45,22.71C31.91,22.65 32.36,22.58 32.82,22.52C33.27,22.46 33.73,22.4 34.18,22.34C34.64,22.28 35.09,22.21 35.55,22.15C36.01,22.09 36.46,22.02 36.92,21.96C37.38,21.9 37.83,21.83 38.29,21.77C38.74,21.71 39.28,21.63 39.65,21.58C39.91,21.54 40.09,21.51 40.31,21.49C40.54,21.46 40.74,21.45 41.02,21.43C41.4,21.4 41.93,21.37 42.39,21.34C42.85,21.31 43.3,21.29 43.76,21.26C44.21,21.24 44.67,21.21 45.12,21.19C45.58,21.17 46.03,21.14 46.49,21.12C46.95,21.1 47.4,21.09 47.86,21.07C48.31,21.05 48.77,21.03 49.22,21.02C49.68,21 50.13,20.99 50.59,20.98C51.05,20.97 51.5,20.95 51.96,20.94C52.42,20.93 52.87,20.91 53.33,20.9C53.78,20.89 54.24,20.88 54.69,20.87C55.15,20.86 55.6,20.85 56.06,20.84C56.52,20.83 56.97,20.82 57.43,20.81C57.89,20.8 58.34,20.8 58.8,20.79C59.25,20.78 59.71,20.77 60.16,20.76C60.62,20.75 61.07,20.75 61.53,20.74C61.99,20.73 62.44,20.73 62.9,20.72C63.36,20.71 63.81,20.71 64.27,20.7C64.72,20.69 65.18,20.68 65.63,20.68Q66.09,20.67 67,20.67Z" style="stroke: none; fill: rgb(252, 252, 253);"/><path d="M67,116.31Q66.09,116.31 65.63,116.31C65.18,116.31 64.72,116.3 64.27,116.3C63.81,116.3 63.36,116.3 62.9,116.3C62.44,116.3 61.99,116.3 61.53,116.3C61.07,116.3 60.62,116.3 60.16,116.3C59.71,116.3 59.25,116.3 58.8,116.3C58.34,116.3 57.89,116.3 57.43,116.3C56.97,116.3 56.52,116.3 56.06,116.3C55.6,116.3 55.15,116.3 54.69,116.3C54.24,116.3 53.78,116.3 53.33,116.3C52.87,116.3 52.42,116.3 51.96,116.3C51.5,116.3 51.05,116.3 50.59,116.3C50.13,116.3 49.68,116.29 49.22,116.29C48.77,116.29 48.31,116.29 47.86,116.29C47.4,116.29 46.95,116.29 46.49,116.29C46.03,116.29 45.58,116.29 45.12,116.29C44.67,116.29 44.21,116.29 43.76,116.29C43.3,116.29 42.85,116.29 42.39,116.29C41.93,116.29 41.48,116.29 41.02,116.29C40.56,116.29 40.11,116.28 39.65,116.28C39.2,116.28 38.74,116.28 38.29,116.28C37.83,116.28 37.38,116.28 36.92,116.28C36.46,116.28 36.01,116.28 35.55,116.28C35.09,116.28 34.64,116.28 34.18,116.28C33.73,116.28 33.27,116.27 32.82,116.27C32.36,116.27 31.91,116.27 31.45,116.27C30.99,116.27 30.54,116.27 30.08,116.27C29.62,116.27 29.17,116.26 28.71,116.26C28.26,116.26 27.8,116.26 27.35,116.26C26.89,116.26 26.44,116.26 25.98,116.26C25.52,116.26 25.07,116.25 24.61,116.25C24.15,116.25 23.7,116.25 23.24,116.25C22.79,116.25 22.33,116.24 21.88,116.24C21.42,116.24 20.97,116.24 20.51,116.24C20.05,116.24 19.6,116.23 19.14,116.23C18.69,116.23 18.23,116.23 17.78,116.23C17.32,116.23 16.87,116.22 16.41,116.22C15.95,116.22 15.5,116.21 15.04,116.21C14.58,116.21 14.13,116.2 13.67,116.2C13.22,116.2 12.76,116.19 12.31,116.19C11.85,116.19 11.4,116.18 10.94,116.18C10.48,116.17 10.03,116.17 9.57,116.16C9.11,116.15 8.66,116.14 8.2,116.13C7.75,116.12 7.29,116.11 6.84,116.1C6.38,116.09 5.93,116.08 5.47,116.06C5.01,116.04 4.56,116.02 4.1,115.99C3.64,115.95 3.18,115.94 2.73,115.85C2.27,115.76 1.65,115.68 1.37,115.42C1.15,115.22 1.12,114.96 1.05,114.61C0.94,114.03 1.05,113.02 1.06,112.22C1.06,111.43 1.07,110.63 1.08,109.84C1.09,109.04 1.09,108.25 1.1,107.45C1.1,106.65 1.1,105.86 1.11,105.06C1.12,104.26 1.13,103.47 1.14,102.67C1.15,101.88 1.15,101.08 1.16,100.29C1.17,99.49 1.17,98.7 1.18,97.9C1.19,97.1 1.2,96.31 1.21,95.51C1.22,94.71 1.23,93.92 1.24,93.12C1.25,92.32 1.27,91.53 1.28,90.73C1.29,89.94 1.31,89.15 1.32,88.35C1.34,87.54 1.34,86.71 1.37,85.91C1.4,85.12 1.44,84.35 1.48,83.57C1.52,82.78 1.56,81.98 1.6,81.18C1.64,80.39 1.68,79.59 1.72,78.8C1.76,78 1.8,77.21 1.84,76.41C1.88,75.61 1.92,74.82 1.96,74.02C2,73.22 2.04,72.43 2.08,71.63C2.12,70.83 2.16,70.04 2.2,69.24C2.24,68.45 2.28,67.65 2.32,66.86C2.36,66.06 2.4,65.27 2.44,64.47C2.48,63.67 2.52,62.88 2.56,62.08C2.6,61.28 2.64,60.37 2.67,59.69C2.69,59.18 2.69,58.77 2.73,58.35C2.76,57.98 2.81,57.73 2.86,57.31C2.94,56.68 3.05,55.72 3.15,54.92C3.24,54.12 3.34,53.33 3.43,52.53C3.52,51.73 3.62,50.94 3.71,50.14C3.8,49.35 3.92,48.37 3.99,47.76C4.03,47.38 4.04,47.18 4.1,46.84C4.17,46.41 4.29,45.92 4.41,45.37C4.56,44.67 4.76,43.78 4.93,42.98C5.11,42.17 5.23,41.33 5.455,40.525000000000006C5.67,39.73 5.99,38.91 6.24,38.2C6.45,37.59 6.67,36.93 6.84,36.49C6.95,36.21 7,36.11 7.14,35.82C7.39,35.29 7.86,34.26 8.274999999999999,33.555C8.67,32.89 9.23,32.16 9.57,31.7C9.77,31.42 9.88,31.27 10.08,31.04C10.32,30.77 10.62,30.51 10.94,30.2C11.34,29.81 12.04,29.14 12.31,28.88C12.43,28.77 12.44,28.74 12.56,28.65C12.79,28.48 13.28,28.23 13.67,28C14.1,27.75 14.58,27.47 15.04,27.2C15.52,26.92 16.02,26.54 16.505000000000003,26.32C16.93,26.13 17.35,26.05 17.78,25.91C18.23,25.77 18.69,25.63 19.14,25.49C19.6,25.35 20.05,25.2 20.51,25.06C20.97,24.92 21.42,24.78 21.88,24.63C22.33,24.49 22.82,24.32 23.24,24.19C23.59,24.08 23.97,23.94 24.22,23.88C24.38,23.85 24.44,23.85 24.61,23.83C24.93,23.79 25.52,23.73 25.98,23.68C26.44,23.63 26.89,23.57 27.35,23.52C27.8,23.47 28.26,23.42 28.71,23.37C29.17,23.32 29.62,23.26 30.08,23.21C30.54,23.15 30.99,23.1 31.45,23.04C31.91,22.99 32.36,22.94 32.82,22.88C33.27,22.83 33.73,22.77 34.18,22.71C34.64,22.65 35.09,22.6 35.55,22.54C36.01,22.48 36.46,22.43 36.92,22.37C37.38,22.31 37.83,22.26 38.29,22.2C38.74,22.14 39.2,22.09 39.65,22.03C40.11,21.97 40.56,21.91 41.02,21.85C41.48,21.79 41.93,21.74 42.39,21.68C42.86,21.62 43.35,21.54 43.82,21.5C44.26,21.46 44.68,21.44 45.12,21.42C45.57,21.39 46.03,21.37 46.49,21.35C46.95,21.33 47.4,21.31 47.86,21.29C48.31,21.27 48.77,21.25 49.22,21.23C49.68,21.21 50.13,21.2 50.59,21.19C51.05,21.17 51.5,21.16 51.96,21.14C52.42,21.13 52.87,21.11 53.33,21.1C53.78,21.09 54.24,21.08 54.69,21.07C55.15,21.06 55.6,21.04 56.06,21.03C56.52,21.02 56.97,21.01 57.43,21C57.89,20.99 58.34,20.98 58.8,20.97C59.25,20.96 59.71,20.96 60.16,20.95C60.62,20.94 61.07,20.93 61.53,20.92C61.99,20.91 62.44,20.91 62.9,20.9C63.36,20.89 63.81,20.89 64.27,20.88C64.72,20.87 65.18,20.87 65.63,20.86Q66.09,20.85 67,20.84Z" style="stroke: none; fill: rgb(254, 251, 248);"/><path d="M67,116.13Q66.09,116.13 65.63,116.13C65.18,116.13 64.72,116.13 64.27,116.13C63.81,116.13 63.36,116.13 62.9,116.13C62.44,116.13 61.99,116.13 61.53,116.13C61.07,116.13 60.62,116.13 60.16,116.13C59.71,116.13 59.25,116.13 58.8,116.13C58.34,116.13 57.89,116.13 57.43,116.13C56.97,116.13 56.52,116.13 56.06,116.13C55.6,116.13 55.15,116.13 54.69,116.13C54.24,116.13 53.78,116.12 53.33,116.12C52.87,116.12 52.42,116.12 51.96,116.12C51.5,116.12 51.05,116.12 50.59,116.12C50.13,116.12 49.68,116.12 49.22,116.12C48.77,116.12 48.31,116.12 47.86,116.12C47.4,116.12 46.95,116.12 46.49,116.12C46.03,116.12 45.58,116.12 45.12,116.12C44.67,116.12 44.21,116.12 43.76,116.12C43.3,116.12 42.85,116.11 42.39,116.11C41.93,116.11 41.48,116.11 41.02,116.11C40.56,116.11 40.11,116.11 39.65,116.11C39.2,116.11 38.74,116.11 38.29,116.11C37.83,116.11 37.38,116.11 36.92,116.11C36.46,116.11 36.01,116.1 35.55,116.1C35.09,116.1 34.64,116.1 34.18,116.1C33.73,116.1 33.27,116.1 32.82,116.1C32.36,116.1 31.91,116.1 31.45,116.1C30.99,116.1 30.54,116.09 30.08,116.09C29.62,116.09 29.17,116.09 28.71,116.09C28.26,116.09 27.8,116.09 27.35,116.09C26.89,116.09 26.44,116.08 25.98,116.08C25.52,116.08 25.07,116.08 24.61,116.08C24.15,116.08 23.7,116.08 23.24,116.08C22.79,116.08 22.33,116.07 21.88,116.07C21.42,116.07 20.97,116.07 20.51,116.07C20.05,116.07 19.6,116.06 19.14,116.06C18.69,116.06 18.23,116.05 17.78,116.05C17.32,116.05 16.87,116.05 16.41,116.05C15.95,116.05 15.5,116.04 15.04,116.04C14.58,116.04 14.13,116.04 13.67,116.03C13.22,116.03 12.76,116.01 12.31,116.01C11.85,116 11.4,116 10.94,116C10.48,115.99 10.03,115.99 9.57,115.98C9.11,115.97 8.66,115.96 8.2,115.95C7.75,115.94 7.29,115.93 6.84,115.92C6.38,115.91 5.93,115.89 5.47,115.87C5.01,115.85 4.56,115.83 4.1,115.79C3.64,115.75 3.18,115.74 2.73,115.64C2.27,115.53 1.62,115.39 1.37,115.15C1.21,115 1.2,114.86 1.15,114.61C1.05,114.1 1.16,113.02 1.17,112.22C1.18,111.43 1.18,110.63 1.19,109.84C1.2,109.04 1.2,108.25 1.21,107.45C1.22,106.65 1.22,105.86 1.23,105.06C1.24,104.26 1.24,103.47 1.25,102.67C1.26,101.88 1.26,101.08 1.27,100.29C1.28,99.49 1.29,98.7 1.3,97.9C1.31,97.1 1.32,96.31 1.33,95.51C1.34,94.7 1.35,93.88 1.37,93.08000000000001C1.39,92.29 1.44,91.52 1.47,90.73C1.51,89.94 1.54,89.14 1.58,88.35C1.62,87.55 1.65,86.76 1.69,85.96C1.72,85.16 1.76,84.37 1.79,83.57C1.83,82.77 1.86,81.98 1.9,81.18C1.94,80.39 1.97,79.59 2.01,78.8C2.05,78 2.08,77.21 2.12,76.41C2.15,75.61 2.19,74.82 2.22,74.02C2.26,73.22 2.29,72.43 2.33,71.63C2.37,70.83 2.4,70.04 2.44,69.24C2.47,68.45 2.51,67.65 2.54,66.86C2.58,66.06 2.61,65.25 2.65,64.47C2.68,63.72 2.69,63.01 2.75,62.245C2.81,61.42 2.94,60.53 3.03,59.69C3.12,58.88 3.2,58.1 3.29,57.31C3.38,56.51 3.46,55.72 3.55,54.92C3.63,54.12 3.72,53.33 3.8,52.53C3.88,51.73 4,50.63 4.05,50.14C4.07,49.93 4.07,49.88 4.1,49.68C4.16,49.26 4.35,48.44 4.48,47.76C4.63,47.01 4.78,46.18 4.94,45.37C5.1,44.53 5.23,43.64 5.4350000000000005,42.825C5.63,42.05 5.88,41.35 6.11,40.59C6.35,39.81 6.55,39 6.84,38.21C7.14,37.4 7.66,36.35 7.91,35.82C8.03,35.56 8.07,35.48 8.2,35.23C8.44,34.79 9.01,33.82 9.26,33.43C9.39,33.23 9.43,33.18 9.57,32.99C9.87,32.58 10.53,31.66 11.024999999999999,31.14C11.45,30.69 11.87,30.39 12.31,30C12.78,29.59 13.28,29.07 13.765,28.729999999999997C14.19,28.43 14.61,28.27 15.04,28.03C15.49,27.79 15.95,27.54 16.41,27.29C16.87,27.04 17.43,26.74 17.78,26.55C18,26.43 18.11,26.35 18.31,26.27C18.55,26.17 18.83,26.12 19.14,26.03C19.54,25.92 20.05,25.78 20.51,25.65C20.97,25.52 21.42,25.4 21.88,25.27C22.33,25.14 22.79,25 23.24,24.87C23.7,24.74 24.15,24.61 24.61,24.48C25.07,24.35 25.6,24.18 25.98,24.07C26.25,23.99 26.43,23.92 26.66,23.88C26.89,23.84 27.08,23.84 27.35,23.81C27.73,23.77 28.26,23.72 28.71,23.67C29.17,23.62 29.62,23.57 30.08,23.52C30.54,23.47 30.99,23.43 31.45,23.38C31.91,23.33 32.36,23.28 32.82,23.23C33.27,23.18 33.73,23.13 34.18,23.08C34.64,23.03 35.09,22.98 35.55,22.93C36.01,22.88 36.46,22.83 36.92,22.78C37.38,22.73 37.83,22.68 38.29,22.63C38.74,22.58 39.2,22.53 39.65,22.48C40.11,22.43 40.56,22.37 41.02,22.32C41.48,22.27 41.93,22.22 42.39,22.17C42.85,22.12 43.3,22.06 43.76,22.01C44.21,21.96 44.67,21.9 45.12,21.85C45.58,21.8 46.03,21.74 46.49,21.69C46.95,21.64 47.54,21.58 47.86,21.54C48.03,21.52 48.1,21.5 48.26,21.49C48.51,21.47 48.87,21.46 49.22,21.45C49.64,21.43 50.13,21.41 50.59,21.39C51.05,21.37 51.5,21.36 51.96,21.35C52.42,21.33 52.87,21.32 53.33,21.3C53.78,21.29 54.24,21.27 54.69,21.26C55.15,21.25 55.6,21.24 56.06,21.23C56.52,21.22 56.97,21.2 57.43,21.19C57.89,21.18 58.34,21.17 58.8,21.16C59.25,21.15 59.71,21.14 60.16,21.13C60.62,21.12 61.07,21.12 61.53,21.11C61.99,21.1 62.44,21.09 62.9,21.08C63.36,21.07 63.81,21.07 64.27,21.06C64.72,21.05 65.18,21.05 65.63,21.04Q66.09,21.03 67,21.02Z" style="stroke: none; fill: rgb(252, 242, 235);"/><path d="M67,115.96Q66.09,115.96 65.63,115.96C65.18,115.96 64.72,115.96 64.27,115.96C63.81,115.96 63.36,115.96 62.9,115.96C62.44,115.96 61.99,115.96 61.53,115.96C61.07,115.96 60.62,115.96 60.16,115.96C59.71,115.96 59.25,115.96 58.8,115.96C58.34,115.96 57.89,115.95 57.43,115.95C56.97,115.95 56.52,115.95 56.06,115.95C55.6,115.95 55.15,115.95 54.69,115.95C54.24,115.95 53.78,115.95 53.33,115.95C52.87,115.95 52.42,115.95 51.96,115.95C51.5,115.95 51.05,115.95 50.59,115.95C50.13,115.95 49.68,115.95 49.22,115.95C48.77,115.95 48.31,115.95 47.86,115.95C47.4,115.95 46.95,115.95 46.49,115.95C46.03,115.95 45.58,115.94 45.12,115.94C44.67,115.94 44.21,115.94 43.76,115.94C43.3,115.94 42.85,115.94 42.39,115.94C41.93,115.94 41.48,115.94 41.02,115.94C40.56,115.94 40.11,115.94 39.65,115.94C39.2,115.94 38.74,115.94 38.29,115.94C37.83,115.94 37.38,115.93 36.92,115.93C36.46,115.93 36.01,115.93 35.55,115.93C35.09,115.93 34.64,115.93 34.18,115.93C33.73,115.93 33.27,115.93 32.82,115.93C32.36,115.93 31.91,115.92 31.45,115.92C30.99,115.92 30.54,115.92 30.08,115.92C29.62,115.92 29.17,115.92 28.71,115.92C28.26,115.92 27.8,115.91 27.35,115.91C26.89,115.91 26.44,115.91 25.98,115.91C25.52,115.91 25.07,115.91 24.61,115.91C24.15,115.91 23.7,115.9 23.24,115.9C22.79,115.9 22.33,115.9 21.88,115.9C21.42,115.9 20.97,115.89 20.51,115.89C20.05,115.89 19.6,115.89 19.14,115.89C18.69,115.89 18.23,115.88 17.78,115.88C17.32,115.88 16.87,115.87 16.41,115.87C15.95,115.87 15.5,115.86 15.04,115.86C14.58,115.86 14.13,115.85 13.67,115.85C13.22,115.85 12.76,115.84 12.31,115.84C11.85,115.83 11.4,115.83 10.94,115.82C10.48,115.81 10.03,115.81 9.57,115.8C9.11,115.79 8.66,115.78 8.2,115.77C7.75,115.76 7.29,115.75 6.84,115.74C6.38,115.73 5.93,115.71 5.47,115.69C5.01,115.67 4.56,115.64 4.1,115.6C3.64,115.56 3.18,115.56 2.73,115.43C2.25,115.29 1.58,115.17 1.315,114.75C0.97,114.22 1.28,113.05 1.28,112.22C1.28,111.41 1.29,110.63 1.3,109.84C1.31,109.04 1.31,108.25 1.32,107.45C1.33,106.65 1.33,105.86 1.34,105.06C1.35,104.26 1.35,103.16 1.36,102.67C1.36,102.45 1.36,102.41 1.37,102.2C1.38,101.78 1.41,100.96 1.44,100.29C1.47,99.54 1.51,98.7 1.54,97.9C1.57,97.1 1.6,96.31 1.63,95.51C1.66,94.71 1.7,93.92 1.73,93.12C1.76,92.32 1.79,91.53 1.82,90.73C1.85,89.94 1.89,89.14 1.92,88.35C1.95,87.55 1.98,86.76 2.01,85.96C2.04,85.16 2.08,84.37 2.11,83.57C2.14,82.77 2.17,81.98 2.2,81.18C2.23,80.39 2.27,79.59 2.3,78.8C2.33,78 2.36,77.21 2.39,76.41C2.42,75.61 2.45,74.82 2.48,74.02C2.51,73.22 2.55,72.43 2.58,71.63C2.61,70.83 2.64,69.96 2.67,69.24C2.69,68.64 2.7,68.02 2.73,67.58C2.75,67.29 2.77,67.17 2.8,66.86C2.85,66.3 2.95,65.27 3.03,64.47C3.11,63.67 3.18,62.88 3.26,62.08C3.34,61.28 3.41,60.49 3.49,59.69C3.57,58.9 3.64,58.1 3.72,57.31C3.8,56.51 3.88,55.64 3.95,54.92C4.01,54.32 4.04,53.72 4.1,53.28C4.14,52.98 4.17,52.85 4.23,52.53C4.33,51.96 4.51,50.94 4.65,50.14C4.79,49.35 4.92,48.55 5.06,47.76C5.2,46.97 5.3,46.18 5.475,45.39C5.66,44.59 5.92,43.79 6.14,42.98C6.37,42.17 6.55,41.33 6.82,40.53C7.09,39.74 7.48,38.83 7.74,38.2C7.92,37.77 8.02,37.5 8.2,37.13C8.4,36.71 8.65,36.24 8.88,35.82C9.1,35.42 9.33,35.04 9.57,34.65C9.82,34.24 10.13,33.77 10.38,33.43C10.58,33.16 10.71,33.02 10.94,32.75C11.3,32.32 11.88,31.57 12.370000000000001,31.105C12.8,30.7 13.23,30.42 13.67,30.07C14.12,29.72 14.7,29.26 15.04,29C15.23,28.85 15.31,28.76 15.5,28.65C15.75,28.5 16.08,28.37 16.41,28.21C16.82,28.01 17.32,27.78 17.78,27.56C18.23,27.34 18.69,27.11 19.14,26.89C19.58,26.67 20.01,26.42 20.465000000000003,26.255C20.92,26.09 21.41,26.02 21.88,25.9C22.34,25.79 22.79,25.67 23.24,25.56C23.7,25.44 24.15,25.33 24.61,25.21C25.07,25.09 25.52,24.98 25.98,24.86C26.44,24.74 26.89,24.62 27.35,24.5C27.8,24.38 28.29,24.25 28.71,24.14C29.07,24.05 29.47,23.93 29.72,23.88C29.87,23.85 29.92,23.86 30.08,23.84C30.39,23.81 30.99,23.76 31.45,23.72C31.91,23.68 32.36,23.63 32.82,23.59C33.27,23.55 33.73,23.5 34.18,23.46C34.64,23.42 35.09,23.37 35.55,23.33C36.01,23.28 36.46,23.24 36.92,23.19C37.38,23.15 37.83,23.1 38.29,23.06C38.74,23.02 39.2,22.97 39.65,22.93C40.11,22.88 40.56,22.84 41.02,22.79C41.48,22.74 41.93,22.7 42.39,22.65C42.85,22.6 43.3,22.56 43.76,22.51C44.21,22.47 44.67,22.42 45.12,22.38C45.58,22.33 46.03,22.29 46.49,22.24C46.95,22.19 47.4,22.15 47.86,22.1C48.31,22.05 48.77,22.01 49.22,21.96C49.68,21.91 50.13,21.86 50.59,21.81C51.05,21.76 51.5,21.72 51.96,21.67C52.42,21.62 53.01,21.56 53.33,21.53C53.5,21.51 53.57,21.5 53.73,21.49C53.98,21.47 54.34,21.47 54.69,21.46C55.11,21.45 55.6,21.43 56.06,21.42C56.52,21.41 56.97,21.39 57.43,21.38C57.89,21.37 58.34,21.36 58.8,21.35C59.25,21.34 59.71,21.33 60.16,21.32C60.62,21.31 61.07,21.3 61.53,21.29C61.99,21.28 62.44,21.27 62.9,21.26C63.36,21.25 63.81,21.25 64.27,21.24C64.72,21.23 65.18,21.22 65.63,21.21Q66.09,21.2 67,21.19Z" style="stroke: none; fill: rgb(250, 234, 222);"/><path d="M67,115.79Q66.09,115.79 65.63,115.79C65.18,115.79 64.72,115.79 64.27,115.79C63.81,115.79 63.36,115.79 62.9,115.79C62.44,115.79 61.99,115.78 61.53,115.78C61.07,115.78 60.62,115.78 60.16,115.78C59.71,115.78 59.25,115.78 58.8,115.78C58.34,115.78 57.89,115.78 57.43,115.78C56.97,115.78 56.52,115.78 56.06,115.78C55.6,115.78 55.15,115.78 54.69,115.78C54.24,115.78 53.78,115.78 53.33,115.78C52.87,115.78 52.42,115.78 51.96,115.78C51.5,115.78 51.05,115.78 50.59,115.78C50.13,115.78 49.68,115.78 49.22,115.78C48.77,115.78 48.31,115.77 47.86,115.77C47.4,115.77 46.95,115.77 46.49,115.77C46.03,115.77 45.58,115.77 45.12,115.77C44.67,115.77 44.21,115.77 43.76,115.77C43.3,115.77 42.85,115.77 42.39,115.77C41.93,115.77 41.48,115.77 41.02,115.77C40.56,115.77 40.11,115.76 39.65,115.76C39.2,115.76 38.74,115.76 38.29,115.76C37.83,115.76 37.38,115.76 36.92,115.76C36.46,115.76 36.01,115.76 35.55,115.76C35.09,115.76 34.64,115.76 34.18,115.76C33.73,115.76 33.27,115.75 32.82,115.75C32.36,115.75 31.91,115.75 31.45,115.75C30.99,115.75 30.54,115.75 30.08,115.75C29.62,115.75 29.17,115.74 28.71,115.74C28.26,115.74 27.8,115.74 27.35,115.74C26.89,115.74 26.44,115.74 25.98,115.74C25.52,115.74 25.07,115.73 24.61,115.73C24.15,115.73 23.7,115.73 23.24,115.73C22.79,115.73 22.33,115.72 21.88,115.72C21.42,115.72 20.97,115.72 20.51,115.72C20.05,115.72 19.6,115.71 19.14,115.71C18.69,115.71 18.23,115.7 17.78,115.7C17.32,115.7 16.87,115.7 16.41,115.7C15.95,115.7 15.5,115.69 15.04,115.69C14.58,115.68 14.13,115.68 13.67,115.67C13.22,115.67 12.76,115.66 12.31,115.66C11.85,115.65 11.4,115.65 10.94,115.64C10.48,115.63 10.03,115.63 9.57,115.62C9.11,115.61 8.66,115.6 8.2,115.59C7.75,115.58 7.29,115.57 6.84,115.56C6.38,115.54 5.93,115.52 5.47,115.5C5.01,115.47 4.56,115.46 4.1,115.41C3.64,115.36 3.18,115.35 2.73,115.22C2.26,115.09 1.61,115 1.36,114.61C1.05,114.11 1.41,113.02 1.44,112.22C1.47,111.43 1.49,110.63 1.52,109.84C1.55,109.04 1.57,108.25 1.6,107.45C1.63,106.65 1.65,105.86 1.68,105.06C1.71,104.26 1.73,103.47 1.76,102.67C1.79,101.88 1.81,101.08 1.84,100.29C1.87,99.49 1.9,98.7 1.93,97.9C1.96,97.1 1.98,96.31 2.01,95.51C2.04,94.71 2.06,93.92 2.09,93.12C2.12,92.32 2.14,91.53 2.17,90.73C2.2,89.94 2.22,89.14 2.25,88.35C2.28,87.55 2.31,86.76 2.34,85.96C2.37,85.16 2.39,84.37 2.42,83.57C2.45,82.77 2.47,81.98 2.5,81.18C2.53,80.39 2.55,79.59 2.58,78.8C2.61,78 2.63,77.2 2.66,76.41C2.69,75.65 2.7,74.93 2.745,74.155C2.8,73.34 2.89,72.46 2.96,71.63C3.03,70.82 3.09,70.04 3.16,69.24C3.23,68.45 3.29,67.65 3.36,66.86C3.43,66.06 3.49,65.27 3.56,64.47C3.63,63.67 3.69,62.88 3.76,62.08C3.83,61.28 3.9,60.42 3.96,59.69C4.01,59.06 4.05,58.38 4.1,57.94C4.13,57.68 4.16,57.59 4.2,57.31C4.28,56.77 4.44,55.72 4.56,54.92C4.68,54.12 4.81,53.33 4.93,52.53C5.05,51.73 5.19,50.79 5.29,50.14C5.36,49.7 5.39,49.41 5.47,49.03C5.55,48.62 5.65,48.25 5.77,47.76C5.93,47.09 6.16,46.13 6.35,45.37C6.52,44.68 6.72,43.8 6.84,43.39C6.89,43.2 6.91,43.17 6.97,42.98C7.13,42.51 7.59,41.22 7.82,40.59C7.97,40.17 8.05,39.92 8.2,39.56C8.38,39.13 8.61,38.66 8.83,38.2C9.06,37.72 9.34,37.17 9.57,36.74C9.76,36.39 9.9,36.14 10.11,35.82C10.35,35.44 10.66,35 10.94,34.6C11.22,34.2 11.55,33.74 11.81,33.43C11.99,33.21 12.1,33.11 12.31,32.89C12.65,32.53 13.33,31.84 13.67,31.5C13.87,31.3 13.96,31.2 14.15,31.04C14.4,30.84 14.71,30.64 15.04,30.41C15.45,30.13 15.96,29.78 16.41,29.47C16.84,29.18 17.23,28.86 17.68,28.61C18.14,28.36 18.66,28.19 19.14,27.99C19.6,27.79 20.05,27.6 20.51,27.41C20.97,27.21 21.43,27.01 21.88,26.82C22.32,26.63 22.74,26.4 23.195,26.255C23.65,26.11 24.14,26.04 24.61,25.94C25.07,25.84 25.52,25.74 25.98,25.64C26.44,25.54 26.89,25.43 27.35,25.33C27.8,25.23 28.26,25.12 28.71,25.02C29.17,24.91 29.62,24.81 30.08,24.7C30.54,24.6 30.99,24.49 31.45,24.39C31.91,24.28 32.42,24.16 32.82,24.07C33.13,24 33.4,23.92 33.65,23.88C33.85,23.85 33.96,23.85 34.18,23.83C34.53,23.8 35.09,23.76 35.55,23.72C36.01,23.68 36.46,23.65 36.92,23.61C37.38,23.57 37.83,23.53 38.29,23.49C38.74,23.45 39.2,23.41 39.65,23.37C40.11,23.33 40.56,23.3 41.02,23.26C41.48,23.22 41.93,23.18 42.39,23.14C42.85,23.1 43.3,23.06 43.76,23.02C44.21,22.98 44.67,22.94 45.12,22.9C45.58,22.86 46.03,22.82 46.49,22.78C46.95,22.74 47.4,22.7 47.86,22.66C48.31,22.62 48.77,22.57 49.22,22.53C49.68,22.49 50.13,22.45 50.59,22.41C51.05,22.37 51.5,22.33 51.96,22.29C52.42,22.25 52.87,22.21 53.33,22.17C53.78,22.13 54.24,22.08 54.69,22.04C55.15,22 55.6,21.96 56.06,21.92C56.52,21.88 56.97,21.83 57.43,21.79C57.89,21.75 58.34,21.71 58.8,21.67C59.25,21.63 59.8,21.57 60.16,21.54C60.4,21.52 60.55,21.5 60.76,21.49C61,21.48 61.24,21.48 61.53,21.47C61.92,21.46 62.44,21.45 62.9,21.44C63.36,21.43 63.81,21.43 64.27,21.42C64.72,21.41 65.18,21.4 65.63,21.39Q66.09,21.38 67,21.37Z" style="stroke: none; fill: rgb(248, 226, 208);"/><path d="M67,115.61Q66.09,115.61 65.63,115.61C65.18,115.61 64.72,115.61 64.27,115.61C63.81,115.61 63.36,115.61 62.9,115.61C62.44,115.61 61.99,115.61 61.53,115.61C61.07,115.61 60.62,115.61 60.16,115.61C59.71,115.61 59.25,115.61 58.8,115.61C58.34,115.61 57.89,115.61 57.43,115.61C56.97,115.61 56.52,115.61 56.06,115.61C55.6,115.61 55.15,115.61 54.69,115.61C54.24,115.61 53.78,115.61 53.33,115.61C52.87,115.61 52.42,115.6 51.96,115.6C51.5,115.6 51.05,115.6 50.59,115.6C50.13,115.6 49.68,115.6 49.22,115.6C48.77,115.6 48.31,115.6 47.86,115.6C47.4,115.6 46.95,115.6 46.49,115.6C46.03,115.6 45.58,115.6 45.12,115.6C44.67,115.6 44.21,115.6 43.76,115.6C43.3,115.6 42.85,115.6 42.39,115.6C41.93,115.6 41.48,115.59 41.02,115.59C40.56,115.59 40.11,115.59 39.65,115.59C39.2,115.59 38.74,115.59 38.29,115.59C37.83,115.59 37.38,115.59 36.92,115.59C36.46,115.59 36.01,115.59 35.55,115.59C35.09,115.59 34.64,115.58 34.18,115.58C33.73,115.58 33.27,115.58 32.82,115.58C32.36,115.58 31.91,115.58 31.45,115.58C30.99,115.58 30.54,115.57 30.08,115.57C29.62,115.57 29.17,115.57 28.71,115.57C28.26,115.57 27.8,115.57 27.35,115.57C26.89,115.57 26.44,115.56 25.98,115.56C25.52,115.56 25.07,115.56 24.61,115.56C24.15,115.56 23.7,115.56 23.24,115.56C22.79,115.56 22.33,115.55 21.88,115.55C21.42,115.55 20.97,115.54 20.51,115.54C20.05,115.54 19.6,115.54 19.14,115.54C18.69,115.54 18.23,115.53 17.78,115.53C17.32,115.53 16.87,115.52 16.41,115.52C15.95,115.52 15.5,115.51 15.04,115.51C14.58,115.51 14.13,115.51 13.67,115.5C13.22,115.5 12.76,115.48 12.31,115.48C11.85,115.47 11.4,115.48 10.94,115.47C10.48,115.46 10.03,115.45 9.57,115.44C9.11,115.43 8.66,115.42 8.2,115.41C7.75,115.4 7.29,115.39 6.84,115.37C6.38,115.35 5.93,115.34 5.47,115.31C5.01,115.28 4.56,115.26 4.1,115.21C3.64,115.16 3.13,115.13 2.73,115.01C2.39,114.91 2.01,114.89 1.83,114.61C1.55,114.17 1.88,113.02 1.9,112.22C1.92,111.43 1.95,110.63 1.97,109.84C1.99,109.04 2.02,108.25 2.04,107.45C2.06,106.65 2.09,105.86 2.11,105.06C2.13,104.26 2.15,103.47 2.17,102.67C2.19,101.88 2.22,101.08 2.24,100.29C2.26,99.49 2.29,98.7 2.31,97.9C2.33,97.1 2.36,96.31 2.38,95.51C2.4,94.71 2.43,93.92 2.45,93.12C2.47,92.32 2.5,91.53 2.52,90.73C2.54,89.94 2.57,89.14 2.59,88.35C2.61,87.55 2.64,86.76 2.66,85.96C2.68,85.14 2.69,84.3 2.73,83.495C2.77,82.71 2.84,81.96 2.89,81.18C2.95,80.39 3,79.59 3.06,78.8C3.12,78 3.17,77.21 3.23,76.41C3.29,75.61 3.34,74.82 3.4,74.02C3.46,73.22 3.52,72.43 3.58,71.63C3.64,70.83 3.69,70.04 3.75,69.24C3.8,68.45 3.85,67.66 3.91,66.86C3.97,66.03 4.01,65.16 4.09,64.345C4.17,63.57 4.28,62.84 4.38,62.08C4.48,61.29 4.59,60.49 4.7,59.69C4.8,58.9 4.91,58.1 5.01,57.31C5.11,56.51 5.23,55.56 5.32,54.92C5.38,54.49 5.41,54.22 5.47,53.84C5.54,53.42 5.64,53.03 5.74,52.53C5.88,51.85 6.07,50.94 6.24,50.14C6.4,49.35 6.62,48.25 6.73,47.76C6.78,47.54 6.78,47.5 6.84,47.29C6.95,46.87 7.2,46.05 7.41,45.37C7.64,44.59 7.88,43.69 8.17,42.879999999999995C8.45,42.09 8.85,41.2 9.11,40.59C9.29,40.18 9.39,39.92 9.57,39.56C9.78,39.14 10.04,38.63 10.28,38.2C10.5,37.8 10.7,37.45 10.94,37.07C11.19,36.66 11.51,36.18 11.76,35.82C11.96,35.54 12.08,35.39 12.31,35.1C12.66,34.66 13.19,33.92 13.67,33.43C14.11,32.98 14.58,32.63 15.04,32.23C15.49,31.83 15.93,31.38 16.4,31.035C16.84,30.71 17.32,30.49 17.78,30.22C18.24,29.95 18.69,29.66 19.14,29.39C19.58,29.13 19.99,28.84 20.44,28.625C20.9,28.41 21.41,28.27 21.88,28.1C22.34,27.93 22.79,27.76 23.24,27.59C23.7,27.42 24.15,27.25 24.61,27.08C25.07,26.91 25.58,26.72 25.98,26.57C26.29,26.46 26.55,26.34 26.8,26.27C27,26.21 27.13,26.2 27.35,26.16C27.7,26.09 28.26,25.98 28.71,25.89C29.17,25.8 29.62,25.72 30.08,25.63C30.54,25.54 30.99,25.45 31.45,25.36C31.91,25.27 32.36,25.18 32.82,25.09C33.27,25 33.73,24.91 34.18,24.82C34.64,24.73 35.09,24.64 35.55,24.55C36.01,24.46 36.46,24.36 36.92,24.27C37.38,24.18 37.93,24.07 38.29,24C38.53,23.95 38.68,23.91 38.89,23.88C39.13,23.85 39.36,23.84 39.65,23.82C40.04,23.79 40.56,23.75 41.02,23.72C41.48,23.69 41.93,23.65 42.39,23.62C42.85,23.59 43.3,23.55 43.76,23.52C44.21,23.49 44.67,23.45 45.12,23.42C45.58,23.39 46.03,23.35 46.49,23.32C46.95,23.29 47.4,23.26 47.86,23.22C48.31,23.19 48.77,23.14 49.22,23.11C49.68,23.07 50.13,23.04 50.59,23.01C51.05,22.98 51.5,22.94 51.96,22.91C52.42,22.87 52.87,22.84 53.33,22.8C53.78,22.77 54.24,22.73 54.69,22.7C55.15,22.66 55.6,22.63 56.06,22.59C56.52,22.55 56.97,22.52 57.43,22.48C57.89,22.45 58.34,22.42 58.8,22.38C59.25,22.35 59.71,22.3 60.16,22.27C60.62,22.23 61.07,22.2 61.53,22.17C61.99,22.13 62.44,22.1 62.9,22.06C63.36,22.02 63.81,21.99 64.27,21.95C64.72,21.91 65.18,21.87 65.63,21.84Q66.09,21.8 67,21.74Z" style="stroke: none; fill: rgb(246, 217, 195);"/><path d="M67,115.44Q66.09,115.44 65.63,115.44C65.18,115.44 64.72,115.44 64.27,115.44C63.81,115.44 63.36,115.44 62.9,115.44C62.44,115.44 61.99,115.44 61.53,115.44C61.07,115.44 60.62,115.44 60.16,115.44C59.71,115.44 59.25,115.44 58.8,115.44C58.34,115.44 57.89,115.44 57.43,115.44C56.97,115.44 56.52,115.44 56.06,115.44C55.6,115.44 55.15,115.43 54.69,115.43C54.24,115.43 53.78,115.43 53.33,115.43C52.87,115.43 52.42,115.43 51.96,115.43C51.5,115.43 51.05,115.43 50.59,115.43C50.13,115.43 49.68,115.43 49.22,115.43C48.77,115.43 48.31,115.43 47.86,115.43C47.4,115.43 46.95,115.43 46.49,115.43C46.03,115.43 45.58,115.43 45.12,115.43C44.67,115.43 44.21,115.42 43.76,115.42C43.3,115.42 42.85,115.42 42.39,115.42C41.93,115.42 41.48,115.42 41.02,115.42C40.56,115.42 40.11,115.42 39.65,115.42C39.2,115.42 38.74,115.42 38.29,115.42C37.83,115.42 37.38,115.41 36.92,115.41C36.46,115.41 36.01,115.41 35.55,115.41C35.09,115.41 34.64,115.41 34.18,115.41C33.73,115.41 33.27,115.41 32.82,115.41C32.36,115.41 31.91,115.4 31.45,115.4C30.99,115.4 30.54,115.4 30.08,115.4C29.62,115.4 29.17,115.4 28.71,115.4C28.26,115.4 27.8,115.39 27.35,115.39C26.89,115.39 26.44,115.39 25.98,115.39C25.52,115.39 25.07,115.39 24.61,115.39C24.15,115.39 23.7,115.38 23.24,115.38C22.79,115.38 22.33,115.38 21.88,115.38C21.42,115.38 20.97,115.37 20.51,115.37C20.05,115.37 19.6,115.36 19.14,115.36C18.69,115.36 18.23,115.36 17.78,115.36C17.32,115.36 16.87,115.35 16.41,115.35C15.95,115.35 15.5,115.34 15.04,115.34C14.58,115.33 14.13,115.33 13.67,115.32C13.22,115.32 12.76,115.31 12.31,115.31C11.85,115.3 11.4,115.3 10.94,115.29C10.48,115.28 10.03,115.28 9.57,115.27C9.11,115.26 8.66,115.24 8.2,115.23C7.75,115.22 7.29,115.21 6.84,115.19C6.38,115.17 5.93,115.16 5.47,115.13C5.01,115.1 4.56,115.07 4.1,115.02C3.64,114.96 3.05,114.9 2.73,114.8C2.54,114.74 2.4,114.76 2.3,114.61C2.08,114.27 2.34,113.02 2.36,112.22C2.38,111.43 2.4,110.63 2.42,109.84C2.44,109.04 2.45,108.25 2.47,107.45C2.49,106.65 2.51,105.86 2.53,105.06C2.55,104.26 2.57,103.47 2.59,102.67C2.61,101.88 2.63,101.08 2.65,100.29C2.67,99.49 2.69,98.58 2.7,97.9C2.71,97.39 2.71,96.97 2.73,96.55C2.74,96.18 2.77,95.93 2.79,95.51C2.83,94.88 2.88,93.92 2.93,93.12C2.98,92.32 3.02,91.53 3.07,90.73C3.12,89.94 3.16,89.14 3.21,88.35C3.26,87.55 3.3,86.76 3.35,85.96C3.4,85.16 3.44,84.37 3.49,83.57C3.54,82.77 3.58,81.98 3.63,81.18C3.68,80.39 3.72,79.59 3.77,78.8C3.82,78 3.86,77.21 3.91,76.41C3.96,75.61 4.01,74.61 4.05,74.02C4.07,73.68 4.07,73.52 4.1,73.21C4.14,72.77 4.21,72.21 4.27,71.63C4.35,70.92 4.44,70.04 4.53,69.24C4.62,68.45 4.7,67.65 4.79,66.86C4.88,66.06 4.96,65.27 5.05,64.47C5.14,63.67 5.23,62.77 5.31,62.08C5.37,61.55 5.41,61.09 5.47,60.66C5.52,60.31 5.56,60.08 5.63,59.69C5.74,59.07 5.91,58.1 6.05,57.31C6.19,56.51 6.32,55.71 6.46,54.92C6.59,54.15 6.7,53.43 6.87,52.655C7.05,51.84 7.3,50.98 7.51,50.14C7.72,49.29 7.91,48.4 8.155,47.584999999999994C8.38,46.82 8.66,46.08 8.91,45.37C9.14,44.72 9.4,43.94 9.57,43.51C9.66,43.28 9.69,43.22 9.8,42.98C10.03,42.46 10.5,41.34 10.915,40.545C11.33,39.74 11.81,38.91 12.29,38.175C12.73,37.5 13.35,36.72 13.67,36.3C13.83,36.09 13.89,36.01 14.05,35.82C14.3,35.53 14.68,35.15 15.04,34.78C15.45,34.35 15.92,33.82 16.384999999999998,33.41C16.83,33.02 17.32,32.72 17.78,32.38C18.24,32.04 18.81,31.59 19.14,31.35C19.33,31.21 19.4,31.15 19.58,31.04C19.83,30.89 20.17,30.74 20.51,30.57C20.92,30.36 21.42,30.11 21.88,29.88C22.33,29.65 22.82,29.4 23.24,29.18C23.61,28.99 24.04,28.75 24.29,28.65C24.42,28.6 24.47,28.59 24.61,28.55C24.91,28.46 25.52,28.27 25.98,28.13C26.44,27.99 26.89,27.84 27.35,27.7C27.8,27.56 28.26,27.41 28.71,27.27C29.17,27.13 29.62,26.98 30.08,26.84C30.54,26.69 31.12,26.5 31.45,26.4C31.64,26.34 31.72,26.31 31.9,26.27C32.15,26.21 32.48,26.17 32.82,26.11C33.23,26.04 33.73,25.96 34.18,25.89C34.64,25.82 35.09,25.74 35.55,25.67C36.01,25.59 36.46,25.52 36.92,25.44C37.38,25.36 37.83,25.29 38.29,25.21C38.74,25.14 39.2,25.06 39.65,24.99C40.11,24.91 40.56,24.84 41.02,24.76C41.48,24.68 41.93,24.61 42.39,24.53C42.85,24.45 43.3,24.38 43.76,24.3C44.21,24.22 44.69,24.13 45.12,24.06C45.51,23.99 45.99,23.91 46.23,23.88C46.35,23.87 46.37,23.87 46.49,23.86C46.77,23.84 47.4,23.81 47.86,23.78C48.31,23.75 48.77,23.72 49.22,23.69C49.68,23.66 50.13,23.64 50.59,23.61C51.05,23.58 51.5,23.55 51.96,23.52C52.42,23.49 52.87,23.47 53.33,23.44C53.78,23.41 54.24,23.38 54.69,23.35C55.15,23.32 55.6,23.29 56.06,23.26C56.52,23.23 56.97,23.21 57.43,23.18C57.89,23.15 58.34,23.12 58.8,23.09C59.25,23.06 59.71,23.03 60.16,23C60.62,22.97 61.07,22.94 61.53,22.91C61.99,22.88 62.44,22.86 62.9,22.83C63.36,22.8 63.81,22.77 64.27,22.74C64.72,22.71 65.18,22.68 65.63,22.65Q66.09,22.62 67,22.56Z" style="stroke: none; fill: rgb(244, 209, 181);"/><path d="M67,115.27Q66.09,115.27 65.63,115.27C65.18,115.27 64.72,115.27 64.27,115.27C63.81,115.27 63.36,115.27 62.9,115.27C62.44,115.27 61.99,115.27 61.53,115.27C61.07,115.27 60.62,115.27 60.16,115.27C59.71,115.27 59.25,115.26 58.8,115.26C58.34,115.26 57.89,115.26 57.43,115.26C56.97,115.26 56.52,115.26 56.06,115.26C55.6,115.26 55.15,115.26 54.69,115.26C54.24,115.26 53.78,115.26 53.33,115.26C52.87,115.26 52.42,115.26 51.96,115.26C51.5,115.26 51.05,115.26 50.59,115.26C50.13,115.26 49.68,115.26 49.22,115.26C48.77,115.26 48.31,115.26 47.86,115.26C47.4,115.26 46.95,115.25 46.49,115.25C46.03,115.25 45.58,115.25 45.12,115.25C44.67,115.25 44.21,115.25 43.76,115.25C43.3,115.25 42.85,115.25 42.39,115.25C41.93,115.25 41.48,115.25 41.02,115.25C40.56,115.25 40.11,115.25 39.65,115.25C39.2,115.25 38.74,115.24 38.29,115.24C37.83,115.24 37.38,115.24 36.92,115.24C36.46,115.24 36.01,115.24 35.55,115.24C35.09,115.24 34.64,115.24 34.18,115.24C33.73,115.24 33.27,115.23 32.82,115.23C32.36,115.23 31.91,115.23 31.45,115.23C30.99,115.23 30.54,115.23 30.08,115.23C29.62,115.23 29.17,115.23 28.71,115.23C28.26,115.23 27.8,115.22 27.35,115.22C26.89,115.22 26.44,115.22 25.98,115.22C25.52,115.22 25.07,115.21 24.61,115.21C24.15,115.21 23.7,115.21 23.24,115.21C22.79,115.21 22.33,115.2 21.88,115.2C21.42,115.2 20.97,115.2 20.51,115.2C20.05,115.2 19.6,115.19 19.14,115.19C18.69,115.19 18.23,115.18 17.78,115.18C17.32,115.18 16.87,115.17 16.41,115.17C15.95,115.17 15.5,115.16 15.04,115.16C14.58,115.16 14.13,115.16 13.67,115.15C13.22,115.15 12.76,115.14 12.31,115.13C11.85,115.12 11.4,115.12 10.94,115.11C10.48,115.1 10.03,115.1 9.57,115.09C9.11,115.08 8.66,115.06 8.2,115.05C7.75,115.04 7.29,115.03 6.84,115.01C6.38,114.99 5.93,114.97 5.47,114.94C5.01,114.91 4.55,114.89 4.1,114.83C3.67,114.78 3.07,114.9 2.84,114.61C2.52,114.22 2.91,113.02 2.95,112.22C2.99,111.43 3.02,110.63 3.06,109.84C3.1,109.04 3.13,108.25 3.17,107.45C3.2,106.65 3.24,105.86 3.27,105.06C3.31,104.26 3.34,103.47 3.38,102.67C3.42,101.88 3.45,101.08 3.49,100.29C3.53,99.49 3.56,98.7 3.6,97.9C3.64,97.1 3.67,96.31 3.71,95.51C3.75,94.71 3.78,93.92 3.82,93.12C3.86,92.32 3.89,91.53 3.93,90.73C3.97,89.94 4.01,89.03 4.04,88.35C4.06,87.84 4.07,87.44 4.1,87.02C4.12,86.65 4.15,86.38 4.19,85.96C4.24,85.32 4.32,84.37 4.39,83.57C4.46,82.77 4.53,81.98 4.6,81.18C4.67,80.39 4.73,79.59 4.8,78.8C4.87,78 4.94,77.21 5.01,76.41C5.08,75.61 5.14,74.82 5.21,74.02C5.28,73.22 5.37,72.15 5.42,71.63C5.44,71.38 5.44,71.32 5.47,71.08C5.52,70.65 5.63,69.89 5.72,69.24C5.82,68.5 5.94,67.65 6.05,66.86C6.16,66.06 6.27,65.27 6.38,64.47C6.49,63.67 6.62,62.68 6.71,62.08C6.76,61.71 6.78,61.52 6.84,61.19C6.91,60.75 7.02,60.25 7.13,59.69C7.27,58.99 7.46,58.1 7.62,57.31C7.78,56.51 8,55.42 8.1,54.92C8.15,54.7 8.15,54.65 8.2,54.43C8.3,54 8.54,53.2 8.73,52.53C8.94,51.78 9.24,50.67 9.39,50.14C9.47,49.87 9.49,49.79 9.57,49.54C9.71,49.1 9.99,48.37 10.21,47.76C10.44,47.12 10.77,46.23 10.94,45.81C11.02,45.61 11.04,45.58 11.13,45.37C11.35,44.88 11.86,43.72 12.280000000000001,42.92C12.7,42.11 13.17,41.29 13.645,40.55C14.09,39.85 14.74,38.99 15.04,38.59C15.17,38.41 15.21,38.36 15.34,38.2C15.58,37.91 16.05,37.41 16.41,37.01C16.77,36.61 17.26,36.06 17.51,35.82C17.63,35.71 17.65,35.69 17.78,35.58C18.06,35.34 18.69,34.82 19.14,34.45C19.58,34.09 19.98,33.71 20.44,33.385000000000005C20.9,33.06 21.41,32.81 21.88,32.52C22.34,32.24 22.81,31.95 23.24,31.69C23.62,31.46 24.08,31.17 24.33,31.04C24.45,30.98 24.48,30.97 24.61,30.92C24.89,30.8 25.52,30.55 25.98,30.37C26.44,30.18 26.89,30 27.35,29.81C27.8,29.62 28.25,29.43 28.71,29.24C29.17,29.05 29.65,28.82 30.115,28.665C30.56,28.52 31,28.44 31.45,28.33C31.9,28.22 32.36,28.1 32.82,27.98C33.27,27.86 33.73,27.74 34.18,27.63C34.64,27.51 35.09,27.4 35.55,27.29C36.01,27.17 36.46,27.06 36.92,26.94C37.38,26.82 37.84,26.7 38.29,26.59C38.73,26.48 39.15,26.35 39.595,26.259999999999998C40.06,26.17 40.55,26.13 41.02,26.07C41.48,26.01 41.93,25.95 42.39,25.89C42.85,25.83 43.3,25.76 43.76,25.7C44.21,25.64 44.67,25.58 45.12,25.52C45.58,25.46 46.03,25.4 46.49,25.34C46.95,25.28 47.4,25.21 47.86,25.15C48.31,25.09 48.77,25.03 49.22,24.97C49.68,24.91 50.13,24.84 50.59,24.78C51.05,24.72 51.5,24.66 51.96,24.6C52.42,24.54 52.87,24.47 53.33,24.41C53.78,24.35 54.24,24.28 54.69,24.22C55.15,24.16 55.61,24.1 56.06,24.04C56.49,23.98 56.89,23.91 57.33,23.875C57.8,23.83 58.32,23.82 58.8,23.8C59.26,23.78 59.71,23.75 60.16,23.73C60.62,23.71 61.07,23.68 61.53,23.66C61.99,23.64 62.44,23.61 62.9,23.59C63.36,23.57 63.81,23.54 64.27,23.52C64.72,23.5 65.18,23.47 65.63,23.45Q66.09,23.43 67,23.38Z" style="stroke: none; fill: rgb(242, 200, 168);"/><path d="M67,115.1Q66.09,115.1 65.63,115.1C65.18,115.1 64.72,115.09 64.27,115.09C63.81,115.09 63.36,115.09 62.9,115.09C62.44,115.09 61.99,115.09 61.53,115.09C61.07,115.09 60.62,115.09 60.16,115.09C59.71,115.09 59.25,115.09 58.8,115.09C58.34,115.09 57.89,115.09 57.43,115.09C56.97,115.09 56.52,115.09 56.06,115.09C55.6,115.09 55.15,115.09 54.69,115.09C54.24,115.09 53.78,115.09 53.33,115.09C52.87,115.09 52.42,115.09 51.96,115.09C51.5,115.09 51.05,115.09 50.59,115.09C50.13,115.09 49.68,115.08 49.22,115.08C48.77,115.08 48.31,115.08 47.86,115.08C47.4,115.08 46.95,115.08 46.49,115.08C46.03,115.08 45.58,115.08 45.12,115.08C44.67,115.08 44.21,115.08 43.76,115.08C43.3,115.08 42.85,115.08 42.39,115.08C41.93,115.08 41.48,115.07 41.02,115.07C40.56,115.07 40.11,115.07 39.65,115.07C39.2,115.07 38.74,115.07 38.29,115.07C37.83,115.07 37.38,115.07 36.92,115.07C36.46,115.07 36.01,115.07 35.55,115.07C35.09,115.07 34.64,115.06 34.18,115.06C33.73,115.06 33.27,115.06 32.82,115.06C32.36,115.06 31.91,115.06 31.45,115.06C30.99,115.06 30.54,115.06 30.08,115.06C29.62,115.06 29.17,115.05 28.71,115.05C28.26,115.05 27.8,115.05 27.35,115.05C26.89,115.05 26.44,115.04 25.98,115.04C25.52,115.04 25.07,115.04 24.61,115.04C24.15,115.04 23.7,115.03 23.24,115.03C22.79,115.03 22.33,115.03 21.88,115.03C21.42,115.03 20.97,115.02 20.51,115.02C20.05,115.02 19.6,115.01 19.14,115.01C18.69,115.01 18.23,115.01 17.78,115.01C17.32,115.01 16.87,115 16.41,115C15.95,115 15.5,114.99 15.04,114.99C14.58,114.98 14.13,114.98 13.67,114.97C13.22,114.97 12.76,114.96 12.31,114.96C11.85,114.95 11.4,114.95 10.94,114.94C10.48,114.93 10.03,114.92 9.57,114.91C9.11,114.9 8.66,114.88 8.2,114.87C7.75,114.86 7.29,114.85 6.84,114.83C6.38,114.81 5.93,114.78 5.47,114.75C5,114.71 4.31,114.91 4.045,114.62C3.7,114.24 4.05,112.87 4.06,112.22C4.07,111.78 4.08,111.49 4.1,111.11C4.12,110.7 4.15,110.33 4.18,109.84C4.22,109.17 4.27,108.25 4.32,107.45C4.37,106.65 4.42,105.86 4.47,105.06C4.52,104.26 4.57,103.47 4.62,102.67C4.67,101.88 4.72,101.08 4.77,100.29C4.82,99.49 4.86,98.7 4.91,97.9C4.96,97.1 5.01,96.31 5.06,95.51C5.11,94.71 5.16,93.92 5.21,93.12C5.26,92.32 5.31,91.46 5.36,90.73C5.4,90.12 5.43,89.49 5.47,89.05C5.49,88.77 5.51,88.65 5.54,88.35C5.6,87.79 5.7,86.76 5.78,85.96C5.86,85.16 5.94,84.37 6.02,83.57C6.1,82.77 6.18,81.98 6.26,81.18C6.34,80.39 6.42,79.59 6.5,78.8C6.58,78 6.68,77.01 6.74,76.41C6.78,76.04 6.8,75.85 6.84,75.52C6.9,75.08 6.98,74.58 7.06,74.02C7.16,73.32 7.29,72.43 7.41,71.63C7.53,70.83 7.65,70.04 7.77,69.24C7.89,68.45 8.06,67.36 8.13,66.86C8.16,66.63 8.16,66.58 8.2,66.36C8.27,65.93 8.45,65.14 8.59,64.47C8.74,63.72 8.92,62.87 9.08,62.08C9.24,61.29 9.38,60.5 9.575,59.709999999999994C9.77,58.91 10.01,58.12 10.23,57.31C10.46,56.49 10.67,55.64 10.915,54.83C11.16,54.05 11.45,53.24 11.7,52.53C11.91,51.92 12.14,51.28 12.31,50.84C12.42,50.55 12.46,50.44 12.59,50.14C12.83,49.57 13.26,48.52 13.65,47.709999999999994C14.05,46.88 14.5,46.03 14.96,45.230000000000004C15.41,44.44 15.9,43.66 16.384999999999998,42.94499999999999C16.84,42.29 17.45,41.52 17.78,41.1C17.95,40.88 18.01,40.79 18.18,40.59C18.43,40.3 18.79,39.92 19.14,39.55C19.54,39.12 20,38.59 20.46,38.155C20.91,37.73 21.41,37.37 21.88,36.98C22.34,36.59 22.79,36.17 23.255,35.825C23.7,35.5 24.16,35.26 24.61,34.97C25.07,34.68 25.55,34.37 25.98,34.1C26.36,33.86 26.8,33.57 27.05,33.43C27.18,33.36 27.21,33.35 27.35,33.29C27.64,33.16 28.26,32.88 28.71,32.67C29.17,32.46 29.62,32.25 30.08,32.04C30.54,31.83 31.05,31.59 31.45,31.41C31.76,31.27 32.02,31.13 32.27,31.04C32.47,30.96 32.6,30.94 32.82,30.87C33.17,30.76 33.73,30.58 34.18,30.44C34.64,30.3 35.09,30.16 35.55,30.02C36.01,29.88 36.46,29.73 36.92,29.59C37.38,29.45 37.83,29.31 38.29,29.17C38.74,29.03 39.37,28.83 39.65,28.74C39.78,28.7 39.8,28.68 39.93,28.65C40.17,28.59 40.64,28.51 41.02,28.44C41.45,28.36 41.93,28.27 42.39,28.18C42.85,28.09 43.3,28.01 43.76,27.92C44.21,27.83 44.67,27.74 45.12,27.65C45.58,27.56 46.03,27.48 46.49,27.39C46.95,27.3 47.4,27.22 47.86,27.13C48.31,27.04 48.77,26.95 49.22,26.86C49.68,26.77 50.13,26.69 50.59,26.6C51.05,26.51 51.66,26.39 51.96,26.33C52.11,26.3 52.15,26.29 52.29,26.27C52.54,26.23 52.96,26.2 53.33,26.16C53.75,26.12 54.24,26.07 54.69,26.02C55.15,25.97 55.6,25.93 56.06,25.88C56.52,25.83 56.97,25.79 57.43,25.74C57.89,25.7 58.34,25.66 58.8,25.61C59.25,25.57 59.71,25.52 60.16,25.47C60.62,25.42 61.07,25.38 61.53,25.33C61.99,25.28 62.44,25.24 62.9,25.19C63.36,25.14 63.81,25.1 64.27,25.05C64.72,25 65.18,24.96 65.63,24.91Q66.09,24.86 67,24.76Z" style="stroke: none; fill: rgb(240, 192, 155);"/><path d="M67,114.92Q66.09,114.92 65.63,114.92C65.18,114.92 64.72,114.92 64.27,114.92C63.81,114.92 63.36,114.92 62.9,114.92C62.44,114.92 61.99,114.92 61.53,114.92C61.07,114.92 60.62,114.92 60.16,114.92C59.71,114.92 59.25,114.92 58.8,114.92C58.34,114.92 57.89,114.92 57.43,114.92C56.97,114.92 56.52,114.92 56.06,114.92C55.6,114.92 55.15,114.92 54.69,114.92C54.24,114.92 53.78,114.91 53.33,114.91C52.87,114.91 52.42,114.91 51.96,114.91C51.5,114.91 51.05,114.91 50.59,114.91C50.13,114.91 49.68,114.91 49.22,114.91C48.77,114.91 48.31,114.91 47.86,114.91C47.4,114.91 46.95,114.91 46.49,114.91C46.03,114.91 45.58,114.91 45.12,114.91C44.67,114.91 44.21,114.91 43.76,114.91C43.3,114.91 42.85,114.9 42.39,114.9C41.93,114.9 41.48,114.9 41.02,114.9C40.56,114.9 40.11,114.9 39.65,114.9C39.2,114.9 38.74,114.9 38.29,114.9C37.83,114.9 37.38,114.9 36.92,114.9C36.46,114.9 36.01,114.89 35.55,114.89C35.09,114.89 34.64,114.89 34.18,114.89C33.73,114.89 33.27,114.89 32.82,114.89C32.36,114.89 31.91,114.89 31.45,114.89C30.99,114.89 30.54,114.88 30.08,114.88C29.62,114.88 29.17,114.88 28.71,114.88C28.26,114.88 27.8,114.87 27.35,114.87C26.89,114.87 26.44,114.87 25.98,114.87C25.52,114.87 25.07,114.87 24.61,114.87C24.15,114.87 23.7,114.86 23.24,114.86C22.79,114.86 22.33,114.85 21.88,114.85C21.42,114.85 20.97,114.85 20.51,114.85C20.05,114.85 19.6,114.84 19.14,114.84C18.69,114.84 18.23,114.83 17.78,114.83C17.32,114.83 16.87,114.82 16.41,114.82C15.95,114.82 15.5,114.81 15.04,114.81C14.58,114.81 14.13,114.81 13.67,114.8C13.22,114.8 12.76,114.79 12.31,114.78C11.85,114.77 11.4,114.77 10.94,114.76C10.48,114.75 10.03,114.74 9.57,114.73C9.11,114.72 8.66,114.71 8.2,114.69C7.75,114.68 7.2,114.66 6.84,114.64C6.61,114.63 6.39,114.74 6.27,114.61C6.02,114.33 6.37,113.02 6.42,112.22C6.47,111.43 6.52,110.63 6.57,109.84C6.62,109.04 6.68,108.18 6.73,107.45C6.77,106.83 6.81,106.17 6.84,105.73C6.86,105.45 6.87,105.35 6.9,105.06C6.95,104.51 7.04,103.47 7.12,102.67C7.19,101.88 7.28,101.08 7.35,100.29C7.43,99.49 7.5,98.7 7.57,97.9C7.65,97.1 7.72,96.31 7.8,95.51C7.87,94.71 7.95,93.87 8.02,93.12C8.08,92.46 8.15,91.69 8.2,91.26C8.23,91.03 8.24,90.97 8.27,90.73C8.34,90.22 8.49,89.14 8.59,88.35C8.7,87.55 8.8,86.76 8.9,85.96C9.01,85.16 9.11,84.38 9.22,83.57C9.33,82.74 9.43,81.87 9.555,81.05000000000001C9.67,80.28 9.81,79.56 9.94,78.8C10.08,78.02 10.22,77.21 10.36,76.41C10.5,75.61 10.68,74.61 10.79,74.02C10.85,73.67 10.88,73.51 10.94,73.19C11.03,72.75 11.16,72.21 11.29,71.63C11.45,70.92 11.65,70.02 11.83,69.24C12,68.48 12.15,67.77 12.345,67.005C12.56,66.18 12.83,65.29 13.06,64.47C13.28,63.69 13.47,62.97 13.71,62.2C13.97,61.38 14.33,60.39 14.58,59.69C14.76,59.19 14.88,58.8 15.04,58.39C15.18,58.01 15.3,57.74 15.48,57.31C15.74,56.68 16.09,55.78 16.445,54.995000000000005C16.83,54.15 17.27,53.25 17.715,52.41C18.15,51.59 18.59,50.79 19.064999999999998,50.015C19.53,49.25 20.03,48.47 20.525,47.78C20.97,47.15 21.53,46.46 21.88,46.02C22.09,45.75 22.2,45.6 22.4,45.37C22.64,45.08 22.93,44.78 23.24,44.43C23.64,43.99 24.13,43.42 24.595,42.965C25.04,42.52 25.52,42.14 25.98,41.73C26.43,41.33 26.85,40.92 27.305,40.55500000000001C27.76,40.19 28.24,39.87 28.71,39.54C29.17,39.21 29.73,38.81 30.08,38.56C30.29,38.41 30.39,38.32 30.59,38.2C30.84,38.04 31.13,37.89 31.45,37.71C31.85,37.48 32.36,37.2 32.82,36.94C33.27,36.68 33.81,36.38 34.18,36.17C34.44,36.03 34.61,35.93 34.83,35.82C35.06,35.71 35.27,35.62 35.55,35.5C35.93,35.33 36.46,35.11 36.92,34.92C37.38,34.73 37.83,34.54 38.29,34.34C38.74,34.15 39.26,33.92 39.65,33.75C39.94,33.63 40.18,33.52 40.42,33.43C40.63,33.35 40.78,33.32 41.02,33.24C41.38,33.13 41.93,32.96 42.39,32.82C42.85,32.68 43.3,32.54 43.76,32.4C44.21,32.26 44.67,32.11 45.12,31.97C45.58,31.83 46.03,31.69 46.49,31.55C46.95,31.41 47.58,31.22 47.86,31.13C47.99,31.09 48.02,31.07 48.14,31.04C48.38,30.98 48.84,30.89 49.22,30.81C49.65,30.72 50.13,30.62 50.59,30.53C51.05,30.43 51.5,30.34 51.96,30.24C52.42,30.14 52.87,30.05 53.33,29.95C53.78,29.85 54.24,29.76 54.69,29.66C55.15,29.56 55.6,29.47 56.06,29.37C56.52,29.28 56.97,29.18 57.43,29.09C57.89,28.99 58.42,28.88 58.8,28.8C59.07,28.74 59.26,28.69 59.49,28.65C59.71,28.61 59.9,28.59 60.16,28.56C60.54,28.51 61.07,28.45 61.53,28.39C61.99,28.33 62.44,28.27 62.9,28.21C63.36,28.15 63.81,28.09 64.27,28.03C64.72,27.97 65.18,27.91 65.63,27.85Q66.09,27.79 67,27.68Z" style="stroke: none; fill: rgb(238, 183, 141);"/><path d="M67,114.75Q66.09,114.75 65.63,114.75C65.18,114.75 64.72,114.75 64.27,114.75C63.81,114.75 63.36,114.75 62.9,114.75C62.44,114.75 61.99,114.75 61.53,114.75C61.07,114.75 60.62,114.75 60.16,114.75C59.71,114.75 59.25,114.75 58.8,114.75C58.34,114.75 57.89,114.74 57.43,114.74C56.97,114.74 56.52,114.74 56.06,114.74C55.6,114.74 55.15,114.74 54.69,114.74C54.24,114.74 53.78,114.74 53.33,114.74C52.87,114.74 52.42,114.74 51.96,114.74C51.5,114.74 51.05,114.74 50.59,114.74C50.13,114.74 49.68,114.74 49.22,114.74C48.77,114.74 48.31,114.74 47.86,114.74C47.4,114.74 46.95,114.74 46.49,114.74C46.03,114.74 45.58,114.73 45.12,114.73C44.67,114.73 44.21,114.73 43.76,114.73C43.3,114.73 42.85,114.73 42.39,114.73C41.93,114.73 41.48,114.73 41.02,114.73C40.56,114.73 40.11,114.73 39.65,114.73C39.2,114.73 38.74,114.72 38.29,114.72C37.83,114.72 37.38,114.72 36.92,114.72C36.46,114.72 36.01,114.72 35.55,114.72C35.09,114.72 34.64,114.72 34.18,114.72C33.73,114.72 33.27,114.72 32.82,114.72C32.36,114.72 31.91,114.71 31.45,114.71C30.99,114.71 30.54,114.71 30.08,114.71C29.62,114.71 29.17,114.71 28.71,114.71C28.26,114.71 27.8,114.7 27.35,114.7C26.89,114.7 26.44,114.7 25.98,114.7C25.52,114.7 25.07,114.69 24.61,114.69C24.15,114.69 23.7,114.69 23.24,114.69C22.79,114.69 22.33,114.68 21.88,114.68C21.42,114.68 20.97,114.67 20.51,114.67C20.05,114.67 19.6,114.67 19.14,114.67C18.69,114.67 18.23,114.66 17.78,114.66C17.32,114.66 16.87,114.65 16.41,114.65C15.95,114.65 15.5,114.64 15.04,114.64C14.58,114.63 14.04,114.63 13.67,114.62C13.41,114.62 13.14,114.75 13.02,114.61C12.78,114.33 13.22,113.03 13.32,112.22C13.43,111.38 13.53,110.48 13.65,109.66C13.76,108.9 13.87,108.2 13.99,107.45C14.11,106.67 14.24,105.86 14.37,105.06C14.49,104.26 14.62,103.42 14.74,102.67C14.84,102.01 14.96,101.25 15.04,100.82C15.08,100.59 15.09,100.53 15.14,100.29C15.24,99.78 15.45,98.7 15.6,97.9C15.75,97.1 15.91,96.25 16.05,95.51C16.18,94.86 16.32,94.11 16.41,93.68C16.46,93.44 16.47,93.37 16.53,93.12C16.64,92.6 16.89,91.53 17.07,90.73C17.25,89.94 17.49,88.9 17.62,88.35C17.69,88.06 17.71,87.95 17.78,87.68C17.89,87.24 18.07,86.58 18.23,85.96C18.42,85.23 18.7,84.19 18.87,83.57C18.98,83.17 19.04,82.94 19.14,82.58C19.26,82.15 19.41,81.71 19.57,81.18C19.78,80.49 20.14,79.34 20.31,78.8C20.4,78.53 20.42,78.44 20.51,78.18C20.66,77.74 20.91,77.03 21.13,76.41C21.38,75.71 21.65,74.95 21.939999999999998,74.18C22.26,73.36 22.74,72.2 22.97,71.63C23.09,71.34 23.12,71.25 23.24,70.98C23.43,70.54 23.79,69.77 24.03,69.24C24.24,68.79 24.41,68.41 24.61,68.01C24.8,67.62 24.98,67.27 25.19,66.86C25.43,66.39 25.75,65.78 25.98,65.35C26.16,65.02 26.28,64.8 26.47,64.47C26.72,64.03 27.09,63.39 27.35,62.96C27.55,62.63 27.69,62.4 27.89,62.08C28.13,61.69 28.44,61.22 28.71,60.81C28.97,60.42 29.23,60.03 29.47,59.69C29.68,59.39 29.84,59.18 30.08,58.86C30.41,58.42 31.02,57.61 31.25,57.31C31.34,57.19 31.35,57.18 31.45,57.06C31.7,56.75 32.49,55.83 32.82,55.44C33.01,55.22 33.09,55.12 33.27,54.92C33.52,54.64 33.84,54.3 34.18,53.95C34.59,53.52 35.09,52.98 35.555,52.53C36,52.1 36.47,51.71 36.92,51.3C37.37,50.9 37.79,50.49 38.25,50.11C38.7,49.73 39.19,49.38 39.65,49.02C40.11,48.66 40.74,48.17 41.02,47.96C41.14,47.87 41.17,47.85 41.29,47.76C41.53,47.59 42,47.29 42.39,47.03C42.82,46.75 43.31,46.42 43.76,46.13C44.19,45.85 44.58,45.57 45.019999999999996,45.31C45.49,45.03 46.01,44.76 46.49,44.5C46.95,44.24 47.4,44 47.86,43.75C48.32,43.5 48.78,43.22 49.239999999999995,42.989999999999995C49.69,42.77 50.14,42.58 50.59,42.38C51.05,42.17 51.5,41.97 51.96,41.76C52.42,41.55 52.88,41.34 53.33,41.14C53.77,40.94 54.17,40.74 54.614999999999995,40.56C55.08,40.37 55.58,40.21 56.06,40.04C56.52,39.87 56.97,39.71 57.43,39.54C57.89,39.37 58.34,39.21 58.8,39.04C59.25,38.87 59.75,38.69 60.16,38.54C60.5,38.42 60.85,38.28 61.1,38.2C61.27,38.15 61.35,38.13 61.53,38.08C61.86,37.99 62.44,37.82 62.9,37.69C63.36,37.56 63.81,37.43 64.27,37.3C64.72,37.17 65.18,37.04 65.63,36.91Q66.09,36.78 67,36.52Z" style="stroke: none; fill: rgb(236, 175, 128);"/></g><g class="contourlines"/></g></g></g></g><path class="xlines-above crisp" d="M0,0" style="fill: none;"/><path class="ylines-above crisp" d="M0,0" style="fill: none;"/><g class="overlines-above"/><g class="xaxislayer-above"><g class="xtick"><text text-anchor="middle" x="0" y="137" transform="translate(40,0)" style="font-family: 'Open Sans', verdana, arial, sans-serif; font-size: 11px; fill: rgb(0, 0, 0); fill-opacity: 1; white-space: pre; opacity: 1;">0</text></g><g class="xtick"><text text-anchor="middle" x="0" y="137" style="font-family: 'Open Sans', verdana, arial, sans-serif; font-size: 11px; fill: rgb(0, 0, 0); fill-opacity: 1; white-space: pre; opacity: 1;" transform="translate(73.5,0)">0.5</text></g><g class="xtick"><text text-anchor="middle" x="0" y="137" style="font-family: 'Open Sans', verdana, arial, sans-serif; font-size: 11px; fill: rgb(0, 0, 0); fill-opacity: 1; white-space: pre; opacity: 1;" transform="translate(107,0)">1</text></g></g><g class="yaxislayer-above"><g class="ytick"><text text-anchor="end" x="39" y="3.8499999999999996" transform="translate(0,125)" style="font-family: 'Open Sans', verdana, arial, sans-serif; font-size: 11px; fill: rgb(0, 0, 0); fill-opacity: 1; white-space: pre; opacity: 1;">0</text></g><g class="ytick"><text text-anchor="end" x="39" y="3.8499999999999996" style="font-family: 'Open Sans', verdana, arial, sans-serif; font-size: 11px; fill: rgb(0, 0, 0); fill-opacity: 1; white-space: pre; opacity: 1;" transform="translate(0,95.75)">0.05</text></g><g class="ytick"><text text-anchor="end" x="39" y="3.8499999999999996" style="font-family: 'Open Sans', verdana, arial, sans-serif; font-size: 11px; fill: rgb(0, 0, 0); fill-opacity: 1; white-space: pre; opacity: 1;" transform="translate(0,66.5)">0.1</text></g><g class="ytick"><text text-anchor="end" x="39" y="3.8499999999999996" style="font-family: 'Open Sans', verdana, arial, sans-serif; font-size: 11px; fill: rgb(0, 0, 0); fill-opacity: 1; white-space: pre; opacity: 1;" transform="translate(0,37.25)">0.15</text></g><g class="ytick"><text text-anchor="end" x="39" y="3.8499999999999996" style="font-family: 'Open Sans', verdana, arial, sans-serif; font-size: 11px; fill: rgb(0, 0, 0); fill-opacity: 1; white-space: pre; opacity: 0;" transform="translate(0,8)">0.2</text></g></g><g class="overaxes-above"/></g></g><g class="polarlayer"/><g class="smithlayer"/><g class="ternarylayer"/><g class="geolayer"/><g class="funnelarealayer"/><g class="pielayer"/><g class="iciclelayer"/><g class="treemaplayer"/><g class="sunburstlayer"/><g class="glimages"/><defs id="topdefs-e292ae"><g class="clips"/></defs><g class="layer-above"><g class="imagelayer"/><g class="shapelayer"/></g><g class="infolayer"><g class="cb6acf87 colorbar" transform="translate(40,8)"><rect class="cbbg" x="68" y="12" width="61.21875" height="94" style="fill: rgb(0, 0, 0); fill-opacity: 0; stroke: rgb(68, 68, 68); stroke-opacity: 1; stroke-width: 0;"/><g class="cbfills" transform="translate(0,22)"><rect class="cbfill" style="" x="78" y="1" width="10" height="73" fill="#c0bedc"/><rect class="cbfill" style="" x="78" y="1" width="10" height="69" fill="#c7c5e0"/><rect class="cbfill" style="" x="78" y="1" width="10" height="66" fill="#cdcce3"/><rect class="cbfill" style="" x="78" y="1" width="10" height="62" fill="#d4d3e7"/><rect class="cbfill" style="" x="78" y="1" width="10" height="58" fill="#dbd9eb"/><rect class="cbfill" style="" x="78" y="1" width="10" height="55" fill="#e1e0ee"/><rect class="cbfill" style="" x="78" y="1" width="10" height="51" fill="#e8e7f2"/><rect class="cbfill" style="" x="78" y="1" width="10" height="47" fill="#eeeef6"/><rect class="cbfill" style="" x="78" y="1" width="10" height="43" fill="#f5f5f9"/><rect class="cbfill" style="" x="78" y="1" width="10" height="40" fill="#fcfcfd"/><rect class="cbfill" style="" x="78" y="1" width="10" height="36" fill="#fefbf8"/><rect class="cbfill" style="" x="78" y="1" width="10" height="32" fill="#fcf2eb"/><rect class="cbfill" style="" x="78" y="1" width="10" height="29" fill="#faeade"/><rect class="cbfill" style="" x="78" y="1" width="10" height="25" fill="#f8e2d0"/><rect class="cbfill" style="" x="78" y="1" width="10" height="21" fill="#f6d9c3"/><rect class="cbfill" style="" x="78" y="1" width="10" height="18" fill="#f4d1b5"/><rect class="cbfill" style="" x="78" y="1" width="10" height="14" fill="#f2c8a8"/><rect class="cbfill" style="" x="78" y="1" width="10" height="10" fill="#f0c09b"/><rect class="cbfill" style="" x="78" y="1" width="10" height="6" fill="#eeb78d"/><rect class="cbfill" style="" x="78" y="0" width="10" height="4" fill="#ecaf80"/></g><g class="cblines" transform="translate(0,22)"/><g class="cbaxis crisp" transform="translate(0,-8)"><g class="ycb6acf87tick"><text text-anchor="start" x="90.7" y="3.8499999999999996" transform="translate(0,103.5)" style="font-family: 'Open Sans', verdana, arial, sans-serif; font-size: 11px; fill: rgb(0, 0, 0); fill-opacity: 1; white-space: pre; opacity: 1;">0</text></g><g class="ycb6acf87tick"><text text-anchor="start" x="90.7" y="3.8499999999999996" style="font-family: 'Open Sans', verdana, arial, sans-serif; font-size: 11px; fill: rgb(0, 0, 0); fill-opacity: 1; white-space: pre; opacity: 1;" transform="translate(0,66.5)">0.5</text></g><g class="ycb6acf87tick"><text text-anchor="start" x="90.7" y="3.8499999999999996" style="font-family: 'Open Sans', verdana, arial, sans-serif; font-size: 11px; fill: rgb(0, 0, 0); fill-opacity: 1; white-space: pre; opacity: 1;" transform="translate(0,29.5)">1</text></g></g><g class="cbtitleunshift" transform="translate(-40,-8)"><g class="cbtitle" transform="translate(10.87890625,0)"><text class="hycb6acf87title" transform="rotate(-90,146.34,66.5)" x="146.34" y="66.5" text-anchor="middle" style="opacity: 1; font-family: 'Open Sans', verdana, arial, sans-serif; font-size: 8px; fill: rgb(0, 0, 0); fill-opacity: 1; white-space: pre;"><tspan style="font-style:italic">Oa</tspan> fraction</text></g></g><rect class="cboutline" x="78" y="22" width="10" height="74" style="stroke: rgb(68, 68, 68); stroke-opacity: 1; fill: none; stroke-width: 0;"/></g><g class="g-gtitle"/><g class="g-xtitle" transform="translate(0,-0.19999999999998863)"><text class="xtitle" x="73.5" y="147.2" text-anchor="middle" style="opacity: 1; font-family: 'Open Sans', verdana, arial, sans-serif; font-size: 11px; fill: rgb(0, 0, 0); fill-opacity: 1; white-space: pre;">Thiamine leakage</text></g><g class="g-ytitle"><text class="ytitle" transform="rotate(-90,13.853124999999999,66.5)" x="13.853124999999999" y="66.5" text-anchor="middle" style="opacity: 1; font-family: 'Open Sans', verdana, arial, sans-serif; font-size: 11px; fill: rgb(0, 0, 0); fill-opacity: 1; white-space: pre;">Dilution rate [1/h]</text></g></g></svg>