<svg class="main-svg" xmlns="http://www.w3.org/2000/svg" xmlns:xlink="http://www.w3.org/1999/xlink" width="300" height="250" style="" viewBox="0 0 300 250"><rect x="0" y="0" width="300" height="250" style="fill: rgb(255, 255, 255); fill-opacity: 1;"/><defs id="defs-4ca622"><g class="clips"><clipPath id="clip4ca622xyplot" class="plotclip"><rect width="173" height="201"/></clipPath><clipPath class="axesclip" id="clip4ca622x"><rect x="34" y="0" width="173" height="250"/></clipPath><clipPath class="axesclip" id="clip4ca622y"><rect x="0" y="16" width="300" height="201"/></clipPath><clipPath class="axesclip" id="clip4ca622xy"><rect x="34" y="16" width="173" height="201"/></clipPath><clipPath class="contourclip" id="clip9e02ea"><path d="M0,0L173,0L173,201L0,201Z"/></clipPath></g><g class="gradients"/><g class="patterns"/></defs><g class="bglayer"/><g class="layer-below"><g class="imagelayer"/><g class="shapelayer"/></g><g class="cartesianlayer"><g class="subplot xy"><g class="layer-subplot"><g class="shapelayer"/><g class="imagelayer"/></g><g class="minor-gridlayer"><g class="x"/><g class="y"/></g><g class="gridlayer"><g class="x"/><g class="y"/></g><g class="zerolinelayer"><path class="xzl zl crisp" transform="translate(34,0)" d="M0,16v201" style="stroke: rgb(0, 0, 0); stroke-opacity: 1; stroke-width: 1px;"/><path class="yzl zl crisp" transform="translate(0,217)" d="M34,0h173" style="stroke: rgb(0, 0, 0); stroke-opacity: 1; stroke-width: 1px;"/></g><g class="layer-between"><g class="shapelayer"/><g class="imagelayer"/></g><path class="xlines-below"/><path class="ylines-below"/><g class="overlines-below"/><g class="xaxislayer-below"/><g class="yaxislayer-below"/><g class="overaxes-below"/><g class="overplot"><g class="xy" transform="translate(34,16)" clip-path="url(#clip4ca622xyplot)"><g class="contourlayer mlayer"><g class="contour" clip-path="url(#clip9e02ea)" style="opacity: 1;"><g class="heatmapcoloring"/><g class="contourbg"><path d="M0,0L173,0L173,201L0,201Z" style="stroke: none; fill: rgb(173, 216, 230);"/></g><g class="contourfill"><path d="M173,199.38Q160.19,199.39 153.78,199.39C147.37,199.4 140.97,199.4 134.56,199.41C128.15,199.42 121.74,199.42 115.33,199.43C108.92,199.43 102.52,199.44 96.11,199.44C89.7,199.44 83.3,199.45 76.89,199.45C70.48,199.46 64.08,199.47 57.67,199.47C51.26,199.48 44.85,199.48 38.44,199.48C32.03,199.48 25.63,199.49 19.22,199.49Q12.81,199.49 0,199.5L0,0L173,0Z" style="stroke: none; fill: rgb(182, 220, 233);"/><path d="M173,197.75Q160.19,197.78 153.78,197.79C147.37,197.8 140.97,197.81 134.56,197.82C128.15,197.83 121.74,197.84 115.33,197.85C108.92,197.86 102.52,197.87 96.11,197.88C89.7,197.89 83.3,197.9 76.89,197.91C70.48,197.92 64.08,197.93 57.67,197.94C51.26,197.95 44.85,197.95 38.44,197.96C32.03,197.97 25.63,197.97 19.22,197.98Q12.81,197.99 0,198.01L0,0L173,0Z" style="stroke: none; fill: rgb(190, 224, 235);"/><path d="M173,196.13Q160.19,196.16 153.78,196.18C147.37,196.2 140.97,196.21 134.56,196.23C128.15,196.25 121.74,196.26 115.33,196.28C108.92,196.29 102.52,196.31 96.11,196.32C89.7,196.33 83.3,196.35 76.89,196.36C70.48,196.37 64.08,196.39 57.67,196.4C51.26,196.41 44.85,196.43 38.44,196.44C32.03,196.45 25.63,196.47 19.22,196.48Q12.81,196.49 0,196.51L0,0L173,0Z" style="stroke: none; fill: rgb(199, 228, 238);"/><path d="M173,194.51Q160.19,194.55 153.78,194.57C147.37,194.59 140.97,194.62 134.56,194.64C128.15,194.66 121.74,194.68 115.33,194.7C108.92,194.72 102.52,194.74 96.11,194.76C89.7,194.78 83.3,194.8 76.89,194.82C70.48,194.84 64.08,194.85 57.67,194.87C51.26,194.89 44.85,194.9 38.44,194.92C32.03,194.94 25.63,194.95 19.22,194.97Q12.81,194.98 0,195.01L0,0L173,0Z" style="stroke: none; fill: rgb(208, 232, 241);"/><path d="M173,192.88Q160.19,192.94 153.78,192.97C147.37,193 140.97,193.02 134.56,193.05C128.15,193.08 121.74,193.1 115.33,193.13C108.92,193.15 102.52,193.18 96.11,193.2C89.7,193.22 83.3,193.25 76.89,193.27C70.48,193.29 64.08,193.32 57.67,193.34C51.26,193.36 44.85,193.38 38.44,193.4C32.03,193.42 25.63,193.44 19.22,193.46Q12.81,193.48 0,193.51L0,0L173,0Z" style="stroke: none; fill: rgb(216, 237, 243);"/><path d="M173,191.26Q160.19,191.33 153.78,191.36C147.37,191.39 140.97,191.43 134.56,191.46C128.15,191.49 121.74,191.52 115.33,191.55C108.92,191.58 102.52,191.61 96.11,191.64C89.7,191.67 83.3,191.7 76.89,191.73C70.48,191.76 64.08,191.79 57.67,191.81C51.26,191.84 44.85,191.86 38.44,191.88C32.03,191.9 25.63,191.93 19.22,191.95Q12.81,191.97 0,192.02L0,0L173,0Z" style="stroke: none; fill: rgb(225, 241, 246);"/><path d="M173,189.63Q160.19,189.71 153.78,189.75C147.37,189.79 140.97,189.83 134.56,189.87C128.15,189.91 121.74,189.94 115.33,189.98C108.92,190.02 102.52,190.06 96.11,190.09C89.7,190.12 83.3,190.15 76.89,190.18C70.48,190.21 64.08,190.25 57.67,190.28C51.26,190.31 44.85,190.33 38.44,190.36C32.03,190.39 25.63,190.42 19.22,190.45Q12.81,190.48 0,190.52L0,0L173,0Z" style="stroke: none; fill: rgb(233, 245, 248);"/><path d="M173,188.01Q160.19,188.1 153.78,188.15C147.37,188.19 140.97,188.24 134.56,188.28C128.15,188.32 121.74,188.37 115.33,188.41C108.92,188.45 102.52,188.49 96.11,188.53C89.7,188.57 83.3,188.6 76.89,188.64C70.48,188.68 64.08,188.72 57.67,188.75C51.26,188.79 44.85,188.82 38.44,188.85C32.03,188.88 25.63,188.91 19.22,188.94Q12.81,188.97 0,189.02L0,0L173,0Z" style="stroke: none; fill: rgb(242, 249, 251);"/><path d="M173,186.39Q160.19,186.49 153.78,186.54C147.37,186.59 140.97,186.64 134.56,186.69C128.15,186.74 121.74,186.78 115.33,186.83C108.92,186.88 102.52,186.93 96.11,186.97C89.7,187.01 83.3,187.05 76.89,187.09C70.48,187.13 64.08,187.17 57.67,187.21C51.26,187.25 44.85,187.29 38.44,187.33C32.03,187.37 25.63,187.4 19.22,187.43Q12.81,187.46 0,187.53L0,0L173,0Z" style="stroke: none; fill: rgb(251, 253, 254);"/><path d="M173,184.76Q160.19,184.87 153.78,184.93C147.37,184.99 140.97,185.05 134.56,185.1C128.15,185.16 121.74,185.21 115.33,185.26C108.92,185.31 102.52,185.36 96.11,185.41C89.7,185.46 83.3,185.5 76.89,185.55C70.48,185.59 64.08,185.64 57.67,185.68C51.26,185.72 44.85,185.77 38.44,185.81C32.03,185.85 25.63,185.88 19.22,185.92Q12.81,185.96 0,186.03L0,0L173,0Z" style="stroke: none; fill: rgb(255, 250, 248);"/><path d="M173,183.14Q160.19,183.27 153.78,183.33C147.37,183.39 140.97,183.45 134.56,183.51C128.15,183.57 121.74,183.62 115.33,183.68C108.92,183.74 102.52,183.8 96.11,183.85C89.7,183.9 83.3,183.95 76.89,184C70.48,184.05 64.08,184.1 57.67,184.15C51.26,184.2 44.85,184.24 38.44,184.29C32.03,184.33 25.63,184.38 19.22,184.42Q12.81,184.46 0,184.53L0,0L173,0Z" style="stroke: none; fill: rgb(255, 240, 234);"/><path d="M173,181.52Q160.19,181.65 153.78,181.72C147.37,181.79 140.97,181.86 134.56,181.92C128.15,181.99 121.74,182.05 115.33,182.11C108.92,182.17 102.52,182.23 96.11,182.29C89.7,182.35 83.3,182.4 76.89,182.46C70.48,182.51 64.08,182.57 57.67,182.62C51.26,182.67 44.85,182.72 38.44,182.77C32.03,182.82 25.63,182.86 19.22,182.91Q12.81,182.95 0,183.04L0,0L173,0Z" style="stroke: none; fill: rgb(255, 230, 220);"/><path d="M173,179.89Q160.19,180.05 153.78,180.12C147.37,180.19 140.97,180.26 134.56,180.33C128.15,180.4 121.74,180.46 115.33,180.53C108.92,180.6 102.52,180.67 96.11,180.73C89.7,180.79 83.3,180.85 76.89,180.91C70.48,180.97 64.08,181.03 57.67,181.09C51.26,181.15 44.85,181.2 38.44,181.25C32.03,181.3 25.63,181.35 19.22,181.4Q12.81,181.45 0,181.54L0,0L173,0Z" style="stroke: none; fill: rgb(255, 220, 206);"/><path d="M173,175.78Q159.58,177.04 153.78,177.55C149,177.97 144.23,178.5 140.68,178.67C138.26,178.79 137.17,178.71 134.56,178.74C129.94,178.79 121.74,178.89 115.33,178.96C108.92,179.03 102.52,179.1 96.11,179.17C89.7,179.24 83.3,179.3 76.89,179.37C70.48,179.43 64.08,179.5 57.67,179.56C51.26,179.62 44.85,179.67 38.44,179.73C32.03,179.78 25.63,179.84 19.22,179.89Q12.81,179.94 0,180.04L0,0L173,0Z" style="stroke: none; fill: rgb(255, 210, 192);"/><path d="M173,163.98Q160.19,165.51 153.78,166.23C147.38,166.95 140.97,167.63 134.56,168.29C128.15,168.94 121.74,169.57 115.33,170.16C108.92,170.75 102.52,171.32 96.11,171.85C89.7,172.38 83.3,172.88 76.89,173.36C70.48,173.84 64.08,174.29 57.67,174.71C51.26,175.14 44.85,175.53 38.44,175.91C32.03,176.29 25.63,176.65 19.22,176.99Q12.81,177.33 0,177.95L0,0L173,0Z" style="stroke: none; fill: rgb(255, 200, 178);"/><path d="M173,142.02Q159.28,148.9 153.78,151.49C149.7,153.41 146.48,155.36 143.04,156.33C140.11,157.16 137.96,157 134.56,157.42C129.45,158.05 121.74,158.98 115.33,159.71C108.92,160.44 102.52,161.12 96.11,161.78C89.71,162.43 83.3,163.05 76.89,163.64C70.48,164.22 64.08,164.77 57.67,165.29C51.26,165.81 44.85,166.29 38.44,166.75C32.03,167.2 25.63,167.62 19.22,168.02Q12.81,168.42 0,169.13L0,0L173,0Z" style="stroke: none; fill: rgb(255, 190, 164);"/><path d="M162.07,0Q160.58,14.89 159.64,22.33C158.7,29.78 157.53,38.21 156.42,44.67C155.56,49.66 154.58,53.88 153.78,57.88C153.12,61.2 152.87,63.32 151.97,67C150.54,72.83 148.25,82 145.42,89.33C142.49,96.9 139.41,104.65 134.565,111.68C129.3,119.32 121.49,128.01 114.41499999999999,133.1C108.56,137.31 102.33,138.93 96.11,141.53C89.83,144.16 83.32,146.53 76.89,148.77C70.51,150.99 62.02,153.63 57.67,154.93C55.46,155.59 54.76,155.94 52.63,156.33C49.12,156.97 43.53,157.17 38.44,157.59C32.52,158.08 25.63,158.6 19.22,159.06Q12.81,159.51 0,160.32L0,0Z" style="stroke: none; fill: rgb(255, 180, 150);"/><path d="M99.89,0Q97.81,17.34 97.07,22.33C96.7,24.86 96.52,25.63 96.11,28.02C95.42,32.12 94.49,38.74 93.27,44.67C91.84,51.59 90.11,59.62 87.86,67C85.57,74.51 81.76,84.79 79.58,89.33C78.56,91.46 78.14,91.83 76.89,93.8C74.36,97.79 68.8,107.49 65.01,111.67C62.49,114.44 60.75,115.33 57.67,117.64C52.83,121.26 42.98,128.01 38.44,130.84C36.05,132.33 35.18,133.04 32.83,134C29.35,135.42 24.16,136.47 19.22,137.68Q13.38,139.11 0,141.91L0,0Z" style="stroke: none; fill: rgb(255, 170, 136);"/><path d="M38.71,0Q35.65,14.92 33.68,22.33C31.69,29.81 29.37,37.73 26.81,44.67C24.5,50.95 21.24,58.28 19.22,62.25C18.14,64.38 17.85,64.95 16.41,67Q13.3,71.41 0,86.65L0,0Z" style="stroke: none; fill: rgb(255, 160, 122);"/></g><g class="contourlines"/></g></g></g></g><path class="xlines-above crisp" d="" style="fill: none; stroke-width: 1px; stroke: rgb(0, 0, 0); stroke-opacity: 0;"/><path class="ylines-above crisp" d="" style="fill: none; stroke-width: 1px; stroke: rgb(0, 0, 0); stroke-opacity: 0;"/><g class="overlines-above"/><g class="xaxislayer-above"><path class="xtick ticks crisp" d="M0,218v5" transform="translate(34,0)" style="stroke: rgb(68, 68, 68); stroke-opacity: 1; stroke-width: 1px;"/><path class="xtick ticks crisp" d="M0,218v5" transform="translate(120.5,0)" style="stroke: rgb(68, 68, 68); stroke-opacity: 1; stroke-width: 1px;"/><path class="xtick ticks crisp" d="M0,218v5" transform="translate(207,0)" style="stroke: rgb(68, 68, 68); stroke-opacity: 1; stroke-width: 1px;"/><g class="xtick"><text text-anchor="middle" x="0" y="232.6" transform="translate(34,0)" style="font-family: 'Open Sans', verdana, arial, sans-serif; font-size: 8px; fill: rgb(0, 0, 0); fill-opacity: 1; white-space: pre; opacity: 1;">0</text></g><g class="xtick"><text text-anchor="middle" x="0" y="232.6" style="font-family: 'Open Sans', verdana, arial, sans-serif; font-size: 8px; fill: rgb(0, 0, 0); fill-opacity: 1; white-space: pre; opacity: 1;" transform="translate(120.5,0)">0.5</text></g><g class="xtick"><text text-anchor="middle" x="0" y="232.6" style="font-family: 'Open Sans', verdana, arial, sans-serif; font-size: 8px; fill: rgb(0, 0, 0); fill-opacity: 1; white-space: pre; opacity: 1;" transform="translate(207,0)">1</text></g></g><g class="yaxislayer-above"><path class="ytick ticks crisp" d="M33,0h-5" transform="translate(0,217)" style="stroke: rgb(68, 68, 68); stroke-opacity: 1; stroke-width: 1px;"/><path class="ytick ticks crisp" d="M33,0h-5" transform="translate(0,176.8)" style="stroke: rgb(68, 68, 68); stroke-opacity: 1; stroke-width: 1px;"/><path class="ytick ticks crisp" d="M33,0h-5" transform="translate(0,136.6)" style="stroke: rgb(68, 68, 68); stroke-opacity: 1; stroke-width: 1px;"/><path class="ytick ticks crisp" d="M33,0h-5" transform="translate(0,96.4)" style="stroke: rgb(68, 68, 68); stroke-opacity: 1; stroke-width: 1px;"/><path class="ytick ticks crisp" d="M33,0h-5" transform="translate(0,56.2)" style="stroke: rgb(68, 68, 68); stroke-opacity: 1; stroke-width: 1px;"/><path class="ytick ticks crisp" d="M33,0h-5" transform="translate(0,16)" style="stroke: rgb(68, 68, 68); stroke-opacity: 1; stroke-width: 1px;"/><g class="ytick"><text text-anchor="end" x="26.4" y="2.8" transform="translate(0,217)" style="font-family: 'Open Sans', verdana, arial, sans-serif; font-size: 8px; fill: rgb(0, 0, 0); fill-opacity: 1; white-space: pre; opacity: 1;">0</text></g><g class="ytick"><text text-anchor="end" x="26.4" y="2.8" style="font-family: 'Open Sans', verdana, arial, sans-serif; font-size: 8px; fill: rgb(0, 0, 0); fill-opacity: 1; white-space: pre; opacity: 1;" transform="translate(0,176.8)">0.2</text></g><g class="ytick"><text text-anchor="end" x="26.4" y="2.8" style="font-family: 'Open Sans', verdana, arial, sans-serif; font-size: 8px; fill: rgb(0, 0, 0); fill-opacity: 1; white-space: pre; opacity: 1;" transform="translate(0,136.6)">0.4</text></g><g class="ytick"><text text-anchor="end" x="26.4" y="2.8" style="font-family: 'Open Sans', verdana, arial, sans-serif; font-size: 8px; fill: rgb(0, 0, 0); fill-opacity: 1; white-space: pre; opacity: 1;" transform="translate(0,96.4)">0.6</text></g><g class="ytick"><text text-anchor="end" x="26.4" y="2.8" style="font-family: 'Open Sans', verdana, arial, sans-serif; font-size: 8px; fill: rgb(0, 0, 0); fill-opacity: 1; white-space: pre; opacity: 1;" transform="translate(0,56.2)">0.8</text></g><g class="ytick"><text text-anchor="end" x="26.4" y="2.8" style="font-family: 'Open Sans', verdana, arial, sans-serif; font-size: 8px; fill: rgb(0, 0, 0); fill-opacity: 1; white-space: pre; opacity: 1;" transform="translate(0,16)">1</text></g></g><g class="overaxes-above"/></g></g><g class="polarlayer"/><g class="smithlayer"/><g class="ternarylayer"/><g class="geolayer"/><g class="funnelarealayer"/><g class="pielayer"/><g class="iciclelayer"/><g class="treemaplayer"/><g class="sunburstlayer"/><g class="glimages"/><defs id="topdefs-4ca622"><g class="clips"/></defs><g class="layer-above"><g class="imagelayer"/><g class="shapelayer"/></g><g class="infolayer"><g class="cb9e02ea colorbar" transform="translate(34,16)"><rect class="cbbg" x="176" y="50" width="79.8125" height="101" style="fill: rgb(0, 0, 0); fill-opacity: 0; stroke: rgb(68, 68, 68); stroke-opacity: 1; stroke-width: 0;"/><g class="cbfills" transform="translate(0,60)"><rect class="cbfill" style="" x="186" y="1" width="30" height="80" fill="#add8e6"/><rect class="cbfill" style="" x="186" y="1" width="30" height="76" fill="#b6dce9"/><rect class="cbfill" style="" x="186" y="1" width="30" height="72" fill="#bee0eb"/><rect class="cbfill" style="" x="186" y="1" width="30" height="68" fill="#c7e4ee"/><rect class="cbfill" style="" x="186" y="1" width="30" height="64" fill="#d0e8f1"/><rect class="cbfill" style="" x="186" y="1" width="30" height="60" fill="#d8edf3"/><rect class="cbfill" style="" x="186" y="1" width="30" height="56" fill="#e1f1f6"/><rect class="cbfill" style="" x="186" y="1" width="30" height="52" fill="#e9f5f8"/><rect class="cbfill" style="" x="186" y="1" width="30" height="48" fill="#f2f9fb"/><rect class="cbfill" style="" x="186" y="1" width="30" height="44" fill="#fbfdfe"/><rect class="cbfill" style="" x="186" y="1" width="30" height="40" fill="#fffaf8"/><rect class="cbfill" style="" x="186" y="1" width="30" height="35" fill="#fff0ea"/><rect class="cbfill" style="" x="186" y="1" width="30" height="31" fill="#ffe6dc"/><rect class="cbfill" style="" x="186" y="1" width="30" height="27" fill="#ffdcce"/><rect class="cbfill" style="" x="186" y="1" width="30" height="23" fill="#ffd2c0"/><rect class="cbfill" style="" x="186" y="1" width="30" height="19" fill="#ffc8b2"/><rect class="cbfill" style="" x="186" y="1" width="30" height="15" fill="#ffbea4"/><rect class="cbfill" style="" x="186" y="1" width="30" height="11" fill="#ffb496"/><rect class="cbfill" style="" x="186" y="1" width="30" height="7" fill="#ffaa88"/><rect class="cbfill" style="" x="186" y="0" width="30" height="4" fill="#ffa07a"/></g><g class="cblines" transform="translate(0,60)"/><g class="cbaxis crisp" transform="translate(0,-16)"><g class="ycb9e02eatick"><text text-anchor="start" x="218.1" y="2.8" transform="translate(0,157)" style="font-family: 'Open Sans', verdana, arial, sans-serif; font-size: 8px; fill: rgb(0, 0, 0); fill-opacity: 1; white-space: pre; opacity: 1;">0</text></g><g class="ycb9e02eatick"><text text-anchor="start" x="218.1" y="2.8" style="font-family: 'Open Sans', verdana, arial, sans-serif; font-size: 8px; fill: rgb(0, 0, 0); fill-opacity: 1; white-space: pre; opacity: 1;" transform="translate(0,116.5)">0.5</text></g><g class="ycb9e02eatick"><text text-anchor="start" x="218.1" y="2.8" style="font-family: 'Open Sans', verdana, arial, sans-serif; font-size: 8px; fill: rgb(0, 0, 0); fill-opacity: 1; white-space: pre; opacity: 1;" transform="translate(0,76)">1</text></g></g><g class="cbtitleunshift" transform="translate(-34,-16)"><g class="cbtitle" transform="translate(6.3525390625,0)"><text class="hycb9e02eatitle" transform="rotate(-90,270.46000000000004,116.5)" x="270.46000000000004" y="116.5" text-anchor="middle" style="opacity: 1; font-family: 'Open Sans', verdana, arial, sans-serif; font-size: 10px; fill: rgb(0, 0, 0); fill-opacity: 1; white-space: pre;"><tspan style="font-style:italic">Oa</tspan> fraction</text></g></g><rect class="cboutline" x="186" y="60" width="30" height="81" style="stroke: rgb(68, 68, 68); stroke-opacity: 1; fill: none; stroke-width: 0;"/></g><g class="g-gtitle"/><g class="g-xtitle" transform="translate(0,3.9000000000000057)"><text class="xtitle" x="120.5" y="239.709375" text-anchor="middle" style="opacity: 1; font-family: 'Open Sans', verdana, arial, sans-serif; font-size: 8px; fill: rgb(0, 0, 0); fill-opacity: 1; white-space: pre;">Metabolite leakage rate [1/h]</text></g><g class="g-ytitle"><text class="ytitle" transform="rotate(-90,12.809375,116.5)" x="12.809375" y="116.5" text-anchor="middle" style="opacity: 1; font-family: 'Open Sans', verdana, arial, sans-serif; font-size: 8px; fill: rgb(0, 0, 0); fill-opacity: 1; white-space: pre;">Thiamine leakage rate [1/h]</text></g></g></svg>