<svg class="main-svg" xmlns="http://www.w3.org/2000/svg" xmlns:xlink="http://www.w3.org/1999/xlink" width="700" height="500" style="" viewBox="0 0 700 500"><rect x="0" y="0" width="700" height="500" style="fill: rgb(255, 255, 255); fill-opacity: 1;"/><defs id="defs-eb80af"><g class="clips"><clipPath id="clipeb80afxyplot" class="plotclip"><rect width="475" height="434"/></clipPath><clipPath class="axesclip" id="clipeb80afx"><rect x="38" y="0" width="475" height="500"/></clipPath><clipPath class="axesclip" id="clipeb80afy"><rect x="0" y="30" width="700" height="434"/></clipPath><clipPath class="axesclip" id="clipeb80afxy"><rect x="38" y="30" width="475" height="434"/></clipPath></g><g class="gradients"/><g class="patterns"/></defs><g class="bglayer"/><g class="layer-below"><g class="imagelayer"/><g class="shapelayer"/></g><g class="cartesianlayer"><g class="subplot xy"><g class="layer-subplot"><g class="shapelayer"/><g class="imagelayer"/></g><g class="minor-gridlayer"><g class="x"/><g class="y"/></g><g class="gridlayer"><g class="x"><path class="xgrid crisp" transform="translate(135.65,0)" d="M0,30v434" style="stroke: rgb(128, 128, 128); stroke-opacity: 1; stroke-width: 0.2px;"/><path class="xgrid crisp" transform="translate(234.95,0)" d="M0,30v434" style="stroke: rgb(128, 128, 128); stroke-opacity: 1; stroke-width: 0.2px;"/><path class="xgrid crisp" transform="translate(334.25,0)" d="M0,30v434" style="stroke: rgb(128, 128, 128); stroke-opacity: 1; stroke-width: 0.2px;"/><path class="xgrid crisp" transform="translate(433.56,0)" d="M0,30v434" style="stroke: rgb(128, 128, 128); stroke-opacity: 1; stroke-width: 0.2px;"/></g><g class="y"><path class="ygrid crisp" transform="translate(0,403.06)" d="M38,0h475" style="stroke: rgb(128, 128, 128); stroke-opacity: 1; stroke-width: 0.2px;"/><path class="ygrid crisp" transform="translate(0,329.43)" d="M38,0h475" style="stroke: rgb(128, 128, 128); stroke-opacity: 1; stroke-width: 0.2px;"/><path class="ygrid crisp" transform="translate(0,255.8)" d="M38,0h475" style="stroke: rgb(128, 128, 128); stroke-opacity: 1; stroke-width: 0.2px;"/><path class="ygrid crisp" transform="translate(0,182.17)" d="M38,0h475" style="stroke: rgb(128, 128, 128); stroke-opacity: 1; stroke-width: 0.2px;"/><path class="ygrid crisp" transform="translate(0,108.54)" d="M38,0h475" style="stroke: rgb(128, 128, 128); stroke-opacity: 1; stroke-width: 0.2px;"/><path class="ygrid crisp" transform="translate(0,34.91)" d="M38,0h475" style="stroke: rgb(128, 128, 128); stroke-opacity: 1; stroke-width: 0.2px;"/></g></g><g class="zerolinelayer"/><g class="layer-between"><g class="shapelayer"/><g class="imagelayer"/></g><path class="xlines-below"/><path class="ylines-below"/><g class="overlines-below"/><g class="xaxislayer-below"/><g class="yaxislayer-below"/><g class="overaxes-below"/><g class="overplot"><g class="xy" transform="translate(38,30)" clip-path="url(#clipeb80afxyplot)"><g class="scatterlayer mlayer"><g class="trace scatter trace961200" style="stroke-miterlimit: 2; opacity: 1;"><g class="fills"/><g class="errorbars"/><g class="lines"><path class="js-line" d="M0,386.01L0,411.12L1.66,383.44L1.66,411.27L3.31,411.34L3.31,385.79L4.97,411.27L4.97,386.68L6.62,385.72L6.62,411.42L8.28,411.34L8.28,385.87L9.93,386.01L9.93,411.34L11.59,411.05L11.59,386.01L13.24,411.2L13.24,384.91L14.9,411.27L14.9,384.76L16.55,384.39L16.55,411.34L18.21,384.1L18.21,411.56L19.86,384.03L19.86,411.27L21.52,384.03L21.52,411.49L23.17,384.39L23.17,411.27L24.83,411.27L24.83,384.25L26.48,411.27L26.48,384.03L28.14,411.34L28.14,383.88L29.79,411.42L29.79,383.81L31.45,411.34L31.45,383.58L33.1,383.95L33.1,411.34L34.76,411.27L34.76,384.1L36.41,383.66L36.41,411.42L38.07,411.2L38.07,383.51L39.72,383.66L39.72,411.49L41.38,411.27L41.38,383.51L43.03,411.42L43.03,383.14L44.69,383L44.69,411.34L46.34,383.29L46.34,411.34L48,383L48,411.49L49.65,411.2L49.65,383.14L51.31,411.34L51.31,383.14L52.96,383.36L52.96,411.42L54.62,411.34L54.62,383.14L56.27,411.49L56.27,383.07L57.93,411.42L57.93,383.44L59.58,379.46L59.58,411.34L61.24,382.55L61.24,411.2L62.89,382.92L62.89,411.12L64.55,411.42L64.55,382.77L66.2,411.34L66.2,383.29L67.86,411.49L67.86,382.41L69.51,411.56L69.51,382.77L71.17,411.34L71.17,383.22L72.82,379.98L72.82,411.34L74.48,411.42L74.48,382.92L76.13,382.92L76.13,411.12L77.79,411.27L77.79,382.63L79.44,382.63L79.44,411.34L81.1,411.34L81.1,380.12L82.75,382.55L82.75,411.34L84.41,382.92L84.41,411.2L86.06,381.45L86.06,411.2L87.72,381.3L87.72,411.2L89.37,411.34L89.37,380.2L91.03,382.63L91.03,411.12L92.68,411.27L92.68,382.7L94.34,382.77L94.34,411.34L95.99,382.85L95.99,411.27L97.65,382.11L97.65,411.49L99.3,382.48L99.3,411.42L100.96,411.42L100.96,382.41L102.61,411.42L102.61,382.33L104.27,411.2L104.27,380.79L105.92,382.26L105.92,411.2L107.58,382.41L107.58,411.27L109.23,411.27L109.23,382.19L110.89,411.42L110.89,382.04L112.54,411.2L112.54,382.33L114.2,411.34L114.2,382.11L115.85,411.27L115.85,380.42L117.51,382.11L117.51,411.27L119.16,379.17L120.82,382.04L122.47,382.48L124.13,379.61L125.78,382.26L129.09,381.89L130.75,381.82L134.06,379.17L135.71,381.3L142.33,382.04L143.99,381.08L145.64,380.27L147.3,381.82L148.95,382.11L150.61,378.5L152.26,381.6L153.92,379.31L155.57,381.23L157.23,381.52L158.89,380.05L160.54,381.01L163.85,381.38L165.51,380.64L168.82,381.08L170.47,379.46L172.13,380.71L173.78,377.92L175.44,380.42L177.09,378.36L178.75,381.01L180.4,377.69L183.71,380.35L185.37,379.31L187.02,377.69L188.68,380.35L190.33,378.36L191.99,380.12L193.64,378.43L195.3,380.71L196.95,379.17L198.61,379.68L203.57,380.2L205.23,379.76L208.54,379.46L210.19,379.83L211.85,376.74L213.5,379.24L223.43,378.5L225.09,377.84L230.05,377.84L231.71,377.18L235.02,377.33L236.67,376.37L238.33,376.81L239.98,376.22L246.6,375.63L248.26,375.19L254.88,373.42L256.53,371.88L259.84,369.37L261.5,367.9L264.81,364.07L266.46,363.78L269.77,361.35L271.43,359.95L273.08,360.02L274.74,358.62L276.39,357L278.05,358.7L279.7,357.96L281.36,356.34L286.32,351.19L287.98,348.76L296.25,336.32L297.91,333.52L304.53,320.19L306.18,316.14L309.49,305.32L311.15,301.19L322.74,275.28L324.39,270.2L329.36,257.09L331.01,256.5L334.32,256.87L335.98,256.94L339.29,257.39L340.94,257.61L344.25,257.53L345.91,257.75L349.22,257.16L350.87,254.73L352.53,255.32L354.18,253.04L359.15,254.51L360.8,254.59L362.46,254.96L364.11,253.92L365.77,254.29L367.42,253.7L370.73,253.92L372.39,255.4L374.04,255.69L375.7,254.29L377.35,254.15L379.01,253.04L383.97,252.75L385.63,252.08L387.28,251.35L388.94,252.89L392.25,252.08L393.9,251.94L395.56,249.29L397.21,251.05L402.18,248.03L403.83,247.96L405.49,247L407.14,247.15L412.11,246.71L413.76,245.83L415.42,245.31L417.07,246.49L418.73,244.87L420.38,244.35L422.04,243.32L423.69,243.54L427,242.66L428.66,241.11L433.62,240.97L435.28,239.94L438.59,240.52L440.24,241.48L443.55,239.86L445.21,238.17L446.86,239.64L448.52,237.65L451.83,237.51L453.48,237.21L455.14,235.89L456.79,235.96L463.41,233.97L465.07,232.94L466.72,232.94L468.38,232.06L470.03,231.1L471.69,231.17L475,229.41" style="vector-effect: none; fill: none; stroke: rgb(68, 1, 84); stroke-opacity: 1; stroke-width: 1.5px; opacity: 1;"/></g><g class="points"/><g class="text"/></g><g class="trace scatter trace630e7e" style="stroke-miterlimit: 2; opacity: 1;"><g class="fills"/><g class="errorbars"/><g class="lines"><path class="js-line" d="M0,385.2L0,411.56L1.66,385.2L1.66,411.71L3.31,411.86L3.31,384.98L4.97,411.86L4.97,383.22L6.62,383.81L6.62,411.56L8.28,411.42L8.28,384.54L9.93,384.17L9.93,411.86L11.59,411.71L11.59,383.81L13.24,411.78L13.24,383.36L14.9,411.86L14.9,382.55L16.55,382.26L16.55,411.78L18.21,382.19L18.21,411.71L19.86,382.63L19.86,411.86L21.52,382.19L21.52,411.71L23.17,382.26L23.17,411.78L24.83,411.64L24.83,382.19L26.48,411.56L26.48,382.11L28.14,411.93L28.14,381.82L29.79,411.93L29.79,381.74L31.45,411.93L31.45,381.74L33.1,381.45L33.1,411.93L34.76,411.86L34.76,382.41L36.41,381.74L36.41,411.78L38.07,412.01L38.07,381.45L39.72,381.52L39.72,411.71L41.38,411.86L41.38,380.86L43.03,411.71L43.03,380.49L44.69,380.71L44.69,411.71L46.34,381.01L46.34,411.64L48,381.16L48,411.64L49.65,411.78L49.65,380.79L51.31,411.78L51.31,381.16L52.96,380.86L52.96,411.86L54.62,411.71L54.62,380.79L56.27,411.71L56.27,380.2L57.93,411.64L57.93,381.23L59.58,376.44L59.58,411.86L61.24,381.01L61.24,411.78L62.89,380.71L62.89,411.86L64.55,411.78L64.55,381.01L66.2,411.78L66.2,380.93L67.86,411.78L67.86,380.35L69.51,411.71L69.51,380.57L71.17,411.78L71.17,380.86L72.82,380.93L72.82,411.78L74.48,411.71L74.48,380.27L76.13,380.49L76.13,411.78L77.79,411.78L77.79,380.2L79.44,380.57L79.44,411.78L81.1,411.78L81.1,380.86L82.75,380.79L82.75,411.93L84.41,380.57L84.41,411.93L86.06,381.01L86.06,411.78L87.72,379.98L87.72,411.78L89.37,411.56L89.37,379.9L91.03,380.05L91.03,412.01L92.68,411.93L92.68,380.27L94.34,379.98L94.34,411.56L95.99,380.57L95.99,411.78L97.65,379.9L97.65,411.78L99.3,379.9L99.3,411.78L100.96,411.93L100.96,380.2L102.61,411.56L102.61,379.83L104.27,411.56L104.27,380.35L105.92,379.76L105.92,411.64L107.58,380.05L107.58,411.42L109.23,411.56L109.23,379.68L110.89,411.86L110.89,380.05L112.54,411.71L112.54,379.83L114.2,411.78L114.2,379.46L115.85,411.64L115.85,379.54L117.51,379.61L117.51,411.64L119.16,379.68L120.82,379.02L122.47,379.46L129.09,379.83L130.75,379.24L134.06,380.12L135.71,378.87L137.37,379.61L139.02,379.39L145.64,379.76L147.3,379.76L160.54,379.46L162.2,379.17L167.16,378.5L168.82,379.09L173.78,378.5L175.44,378.73L178.75,378.43L180.4,378.28L200.26,377.99L201.92,377.33L205.23,377.33L206.88,377.11L210.19,377.4L211.85,377.25L221.78,376L223.43,376.52L228.4,375.34L230.05,375.93L231.71,374.9L233.36,374.9L248.26,372.25L249.91,370.99L251.57,371.14L253.22,370.18L258.19,367.17L259.84,366.06L263.15,362.97L264.81,363.04L268.12,359.95L269.77,360.32L279.7,353.69L281.36,351.11L283.01,349.79L284.67,346.92L292.94,335.58L294.6,332.27L301.22,320.12L302.87,314.23L304.53,308.26L306.18,305.46L309.49,299.57L311.15,295.52L312.8,293.54L314.46,289.56L317.77,281.98L319.43,277.34L322.74,269.39L324.39,264.53L326.05,262.39L327.7,262.69L331.01,262.1L332.67,262.47L334.32,261.21L335.98,261.95L337.63,261.36L339.29,261.8L342.6,262.02L344.25,260.85L349.22,261.36L350.87,257.9L357.49,257.24L359.15,257.9L362.46,258.93L364.11,258.2L369.08,258.34L370.73,258.64L372.39,258.42L374.04,259.01L375.7,258.71L377.35,257.16L380.66,257.09L382.32,257.46L383.97,257.31L385.63,256.06L387.28,256.13L388.94,257.16L393.9,255.69L395.56,254.66L398.87,255.62L400.52,254.44L405.49,252.45L407.14,253.34L408.8,253.34L410.45,252.08L413.76,250.98L415.42,250.17L417.07,251.42L418.73,250.83L428.66,247.67L430.31,247.59L433.62,247.15L435.28,245.75L438.59,246.05L440.24,249.95L441.9,250.32L443.55,247.96L445.21,246.86L446.86,246.78L448.52,244.65L450.17,244.87L455.14,242.37L456.79,242.66L460.1,241.33L461.76,241.33L463.41,240.52L465.07,240.75L470.03,239.27L471.69,239.35L473.34,239.49L475,237.14" style="vector-effect: none; fill: none; stroke: rgb(68, 1, 84); stroke-opacity: 1; stroke-width: 1.5px; opacity: 1;"/></g><g class="points"/><g class="text"/></g><g class="trace scatter trace13c9f9" style="stroke-miterlimit: 2; opacity: 1;"><g class="fills"/><g class="errorbars"/><g class="lines"><path class="js-line" d="M0,385.65L0,411.42L1.66,386.01L1.66,411.34L3.31,411.64L3.31,386.09L4.97,411.64L4.97,385.5L6.62,384.98L6.62,411.71L8.28,411.42L8.28,384.69L9.93,384.98L9.93,411.64L11.59,411.34L11.59,384.47L13.24,411.56L13.24,383.73L14.9,411.42L14.9,383.58L16.55,383.22L16.55,411.56L18.21,383.14L18.21,411.49L19.86,382.77L19.86,411.56L21.52,383.14L21.52,411.56L23.17,383.14L23.17,411.49L24.83,411.56L24.83,383.07L26.48,411.56L26.48,382.41L28.14,411.49L28.14,382.55L29.79,411.49L29.79,382.33L31.45,411.56L31.45,382.33L33.1,382.26L33.1,411.49L34.76,411.56L34.76,382.04L36.41,381.74L36.41,411.34L38.07,411.42L38.07,382.55L39.72,381.67L39.72,411.56L41.38,411.56L41.38,382.04L43.03,411.64L43.03,382.11L44.69,381.67L44.69,411.78L46.34,381.67L46.34,411.56L48,381.82L48,411.71L49.65,411.64L49.65,381.89L51.31,411.64L51.31,381.67L52.96,381.6L52.96,411.64L54.62,411.42L54.62,382.04L56.27,411.64L56.27,381.82L57.93,411.56L57.93,381.74L59.58,377.84L59.58,411.71L61.24,381.74L61.24,411.64L62.89,381.3L62.89,411.71L64.55,411.64L64.55,382.04L66.2,411.71L66.2,381.08L67.86,411.56L67.86,381.45L69.51,411.56L69.51,381.82L71.17,411.71L71.17,381.52L72.82,381.45L72.82,411.64L74.48,411.56L74.48,381.6L76.13,382.11L76.13,411.49L77.79,411.49L77.79,381.38L79.44,380.86L79.44,411.49L81.1,411.34L81.1,381.96L82.75,381.6L82.75,411.56L84.41,381.23L84.41,411.64L86.06,381.82L86.06,411.42L87.72,381.16L87.72,411.49L89.37,411.56L89.37,381.08L91.03,381.74L91.03,411.49L92.68,411.56L92.68,381.67L94.34,381.3L94.34,411.34L95.99,381.16L95.99,411.64L97.65,381.01L97.65,411.56L99.3,381.16L99.3,411.71L100.96,411.64L100.96,381.23L102.61,411.56L102.61,380.93L104.27,411.64L104.27,381.01L105.92,381.16L105.92,411.42L107.58,381.52L107.58,411.2L109.23,411.42L109.23,381.08L110.89,411.64L110.89,381.6L112.54,411.64L112.54,381.01L114.2,411.56L114.2,381.6L115.85,411.42L115.85,381.38L117.51,381.45L117.51,411.64L119.16,380.86L122.47,380.57L124.13,380.86L129.09,381.08L130.75,381.08L134.06,381.01L135.71,379.98L139.02,381.23L140.68,380.42L148.95,380.71L150.61,381.3L152.26,380.64L153.92,381.23L158.89,381.3L160.54,381.08L172.13,380.57L173.78,380.71L175.44,380.64L177.09,379.24L180.4,380.12L182.06,379.83L183.71,380.42L185.37,379.98L191.99,379.54L193.64,380.42L195.3,379.17L196.95,379.9L208.54,378.73L210.19,379.24L211.85,378.58L213.5,379.09L216.81,378.28L218.47,378.43L220.12,377.99L221.78,378.43L233.36,376.59L235.02,376.96L239.98,375.63L241.64,375.12L248.26,374.23L249.91,372.84L254.88,370.92L256.53,369.96L263.15,365.32L264.81,363.71L268.12,361.42L269.77,361.64L271.43,359.88L273.08,359.51L278.05,354.94L279.7,353.1L286.32,344.49L287.98,341.17L294.6,329.54L296.25,326.45L301.22,314.37L302.87,310.03L306.18,302.59L307.84,298.47L311.15,292.29L312.8,290.67L316.11,283.01L317.77,278.3L324.39,259.45L326.05,258.64L332.67,258.56L334.32,257.16L335.98,258.42L337.63,256.87L340.94,256.94L342.6,257.97L344.25,256.43L345.91,256.94L349.22,257.24L350.87,256.13L352.53,254.66L354.18,254.81L355.84,254.07L357.49,254.51L359.15,253.85L360.8,254.59L364.11,253.92L365.77,254.73L367.42,254.22L369.08,252.82L372.39,255.77L374.04,255.4L375.7,255.4L377.35,253.85L379.01,252.97L380.66,253.34L383.97,251.79L385.63,251.72L390.59,248.92L392.25,248.92L393.9,249.43L395.56,248.92L398.87,247.74L400.52,247.15L402.18,246.86L403.83,247.37L405.49,246.05L407.14,246.56L410.45,245.83L412.11,244.65L413.76,242.88L415.42,243.32L417.07,242.14L418.73,242.66L423.69,240.89L425.35,241.33L427,240.23L428.66,237.43L431.97,236.55L433.62,236.4L435.28,234.85L436.93,234.63L440.24,233.24L441.9,233.24L443.55,231.17L445.21,230.44L450.17,228.6L451.83,228.08L455.14,228.08L456.79,226.76L458.45,227.34L460.1,226.39L461.76,225.21L463.41,225.58L466.72,225.06L468.38,224.55L471.69,221.6L473.34,220.57L475,219.91" style="vector-effect: none; fill: none; stroke: rgb(68, 1, 84); stroke-opacity: 1; stroke-width: 1.5px; opacity: 1;"/></g><g class="points"/><g class="text"/></g><g class="trace scatter trace63efba" style="stroke-miterlimit: 2; opacity: 1;"><g class="fills"/><g class="errorbars"/><g class="lines"><path class="js-line" d="M0,386.75L0,408.99L1.66,386.68L1.66,409.35L3.31,409.8L3.31,386.01L4.97,409.8L4.97,387.12L6.62,386.24L6.62,409.72L8.28,409.65L8.28,385.79L9.93,386.09L9.93,409.58L11.59,409.5L11.59,385.5L13.24,409.65L13.24,385.28L14.9,409.72L14.9,384.62L16.55,384.54L16.55,409.5L18.21,384.54L18.21,409.72L19.86,384.47L19.86,409.58L21.52,384.39L21.52,409.8L23.17,384.03L23.17,409.58L24.83,409.35L24.83,384.25L26.48,409.65L26.48,384.17L28.14,409.72L28.14,384.03L29.79,409.58L29.79,384.47L31.45,409.72L31.45,383.51L33.1,383.81L33.1,409.58L34.76,409.58L34.76,384.03L36.41,383.51L36.41,409.72L38.07,409.58L38.07,383.73L39.72,383.22L39.72,409.58L41.38,409.72L41.38,383.44L43.03,409.43L43.03,383.81L44.69,383L44.69,409.65L46.34,383.07L46.34,409.8L48,383.44L48,409.65L49.65,409.5L49.65,382.92L51.31,409.65L51.31,383.44L52.96,383.51L52.96,409.5L54.62,409.58L54.62,383.22L56.27,409.65L56.27,382.92L57.93,409.5L57.93,383.51L59.58,379.83L59.58,409.65L61.24,383.51L61.24,409.58L62.89,382.63L62.89,409.72L64.55,409.72L64.55,383.07L66.2,409.35L66.2,383.07L67.86,409.65L67.86,382.41L69.51,409.72L69.51,382.11L71.17,409.8L71.17,382.85L72.82,382.41L72.82,409.58L74.48,409.65L74.48,382.19L76.13,382.7L76.13,409.5L77.79,409.72L77.79,383L79.44,382.63L79.44,409.65L81.1,409.58L81.1,382.48L82.75,382.48L82.75,409.8L84.41,382.92L84.41,409.5L86.06,383.07L86.06,409.72L87.72,382.33L87.72,409.72L89.37,409.87L89.37,382.19L91.03,382.19L91.03,409.5L92.68,409.87L92.68,381.96L94.34,382.04L94.34,409.87L95.99,382.55L95.99,409.8L97.65,382.33L97.65,409.72L99.3,382.26L99.3,409.87L100.96,409.72L100.96,382.33L102.61,409.65L102.61,382.26L104.27,409.72L104.27,382.63L105.92,381.89L105.92,409.65L107.58,381.82L107.58,409.58L109.23,409.28L109.23,382.33L110.89,409.72L110.89,382.04L112.54,409.5L112.54,381.82L114.2,409.8L114.2,382.19L115.85,409.43L115.85,382.55L117.51,381.96L117.51,409.65L119.16,381.6L122.47,382.19L124.13,381.45L127.44,381.82L129.09,381.74L130.75,381.96L132.4,381.38L134.06,381.74L135.71,380.71L137.37,381.08L139.02,380.57L143.99,380.64L145.64,381.08L150.61,379.98L152.26,380.2L158.89,379.46L160.54,379.61L162.2,379.54L163.85,378.28L165.51,378.87L167.16,378.28L170.47,377.77L172.13,376.66L178.75,376L180.4,374.53L182.06,374.6L183.71,373.57L190.33,372.1L191.99,371.07L193.64,371.22L195.3,370.48L201.92,367.02L203.57,365.99L206.88,363.34L208.54,362.45L211.85,359.73L213.5,357.37L215.16,355.46L216.81,352.07L218.47,350.3L220.12,346.7L223.43,339.33L225.09,335.51L228.4,327.04L230.05,323.28L233.36,312.46L235.02,305.76L236.67,298.1L238.33,296.26L239.98,294.13L241.64,286.98L243.29,274.91L244.95,271.74L249.91,247.81L251.57,241.11L258.19,211.88L259.84,197.38L261.5,188.54L263.15,184.27L264.81,182.43L266.46,176.76L268.12,173.3L269.77,171.68L273.08,167.85L274.74,166.6L279.7,160.27L281.36,157.25L284.67,151.43L286.32,150.7L287.98,147.97L289.63,140.09L291.29,140.83L292.94,137.74L294.6,133.84L296.25,133.32L297.91,130.74L299.56,130.16L302.87,126.62L304.53,122.79L306.18,122.5L307.84,119.92L309.49,118.96L311.15,116.46L312.8,115.87L314.46,113.88L316.11,110.5L317.77,109.61L324.39,103.72L326.05,103.8L329.36,98.86L331.01,96.21L332.67,94.45L334.32,91.43L335.98,88.19L337.63,87.82L340.94,85.02L342.6,83.7L347.56,78.54L349.22,79.35L350.87,70.81L352.53,73.61L355.84,74.64L357.49,75.6L360.8,74.05L362.46,73.17L364.11,72.21L365.77,73.17L370.73,70.74L372.39,60.65L374.04,63.52L375.7,64.63L379.01,65.44L380.66,66.54L383.97,65.8L385.63,66.91L387.28,64.92L388.94,65.58L395.56,60.87L397.21,61.9L402.18,58.15L403.83,59.62L405.49,58.96L407.14,55.5L408.8,56.38L410.45,56.01L412.11,54.98L413.76,52.48L415.42,54.91L417.07,55.42L418.73,52.84L420.38,53.73L422.04,54.24L423.69,53.65L425.35,54.32L427,53.29L431.97,54.02L433.62,53.14L435.28,53.36L436.93,55.13L438.59,54.54L440.24,47.32L445.21,52.04L446.86,52.11L451.83,54.61L453.48,52.99L456.79,52.33L458.45,50.86L460.1,51.74L461.76,50.78L465.07,52.04L466.72,49.83L468.38,51.74L470.03,50.78L471.69,48.57L473.34,48.28L475,47.91" style="vector-effect: none; fill: none; stroke: rgb(49, 104, 142); stroke-opacity: 1; stroke-width: 1.5px; opacity: 1;"/></g><g class="points"/><g class="text"/></g><g class="trace scatter tracebf3714" style="stroke-miterlimit: 2; opacity: 1;"><g class="fills"/><g class="errorbars"/><g class="lines"><path class="js-line" d="M0,385.79L0,409.87L1.66,383.88L1.66,409.94L3.31,410.02L3.31,383.81L4.97,410.02L4.97,384.62L6.62,384.62L6.62,410.02L8.28,410.02L8.28,384.69L9.93,384.32L9.93,410.09L11.59,410.16L11.59,383.07L13.24,410.31L13.24,382.55L14.9,409.87L14.9,382.77L16.55,381.89L16.55,410.02L18.21,381.82L18.21,410.02L19.86,381.67L19.86,410.02L21.52,381.96L21.52,410.24L23.17,381.96L23.17,410.09L24.83,410.02L24.83,381.67L26.48,410.09L26.48,381.23L28.14,410.09L28.14,381.3L29.79,410.31L29.79,380.93L31.45,410.16L31.45,380.64L33.1,380.79L33.1,410.09L34.76,410.09L34.76,381.08L36.41,381.23L36.41,410.16L38.07,410.16L38.07,381.45L39.72,381.16L39.72,410.16L41.38,410.39L41.38,380.64L43.03,409.94L43.03,381.45L44.69,380.86L44.69,410.02L46.34,380.49L46.34,410.09L48,380.79L48,410.09L49.65,410.02L49.65,380.57L51.31,410.31L51.31,380.93L52.96,381.08L52.96,410.16L54.62,410.02L54.62,380.49L56.27,410.02L56.27,381.38L57.93,410.02L57.93,380.12L59.58,377.69L59.58,410.16L61.24,380.93L61.24,410.02L62.89,381.01L62.89,410.09L64.55,410.09L64.55,381.3L66.2,410.09L66.2,380.42L67.86,410.02L67.86,380.49L69.51,410.16L69.51,380.64L71.17,410.16L71.17,380.86L72.82,381.23L72.82,410.16L74.48,410.09L74.48,380.05L76.13,380.79L76.13,409.94L77.79,410.09L77.79,380.12L79.44,380.93L79.44,409.87L81.1,409.94L81.1,379.9L82.75,381.3L82.75,410.24L84.41,380.49L84.41,410.09L86.06,380.79L86.06,410.16L87.72,379.98L87.72,410.09L89.37,410.09L89.37,380.71L91.03,379.61L91.03,410.16L92.68,410.09L92.68,380.49L94.34,380.12L94.34,410.31L95.99,380.05L95.99,409.94L97.65,379.39L97.65,409.94L99.3,379.83L99.3,410.31L100.96,410.16L100.96,379.68L102.61,410.09L102.61,379.17L104.27,410.24L104.27,379.39L105.92,379.54L105.92,409.94L107.58,379.68L107.58,410.09L109.23,410.24L109.23,379.76L110.89,410.16L110.89,379.83L112.54,410.16L112.54,379.76L114.2,410.24L114.2,380.05L115.85,410.02L115.85,380.05L117.51,379.54L117.51,410.24L119.16,379.09L127.44,379.39L129.09,379.09L130.75,379.39L132.4,378.73L135.71,379.24L137.37,378.65L143.99,378.8L145.64,378.5L150.61,379.46L152.26,377.92L153.92,379.02L155.57,377.77L162.2,377.77L163.85,377.47L168.82,376.81L170.47,376.37L175.44,375.41L177.09,374.6L178.75,374.97L180.4,373.35L182.06,373.72L183.71,372.84L195.3,368.34L196.95,367.09L203.57,363.26L205.23,361.79L211.85,356.19L213.5,354.21L216.81,347.58L218.47,346.33L221.78,338.82L223.43,334.18L225.09,331.9L226.74,326.67L235.02,295.01L236.67,298.91L239.98,288.01L241.64,272.63L249.91,230.36L251.57,228.89L253.22,224.92L254.88,218.29L256.53,214.98L258.19,200.62L261.5,178.82L263.15,174.11L264.81,171.53L266.46,165.5L269.77,159.9L271.43,157.03L273.08,154.38L274.74,153.27L281.36,145.84L283.01,143.26L287.98,136.63L289.63,128.83L291.29,130.08L292.94,128.76L294.6,123.97L296.25,123.45L297.91,122.64L299.56,122.94L304.53,116.61L306.18,115.43L307.84,112.85L309.49,112.41L312.8,107.55L314.46,107.33L317.77,102.77L319.43,101L321.08,100.19L322.74,98.2L324.39,96.73L326.05,97.83L327.7,95.92L329.36,95.7L331.01,92.6L332.67,91.13L335.98,87.23L337.63,86.57L339.29,84.43L340.94,84.58L347.56,76.55L349.22,77.81L350.87,69.85L352.53,72.5L355.84,72.8L357.49,74.05L359.15,73.02L360.8,73.31L364.11,71.84L365.77,71.33L369.08,71.62L370.73,71.47L372.39,60.65L374.04,63.3L375.7,64.99L377.35,65.44L379.01,66.17L380.66,68.23L382.32,66.91L383.97,66.98L385.63,69.63L387.28,68.45L388.94,68.53L390.59,67.06L393.9,63.96L395.56,63.59L397.21,65.36L398.87,63.74L400.52,62.56L402.18,62.34L403.83,64.11L405.49,63.59L407.14,61.16L408.8,61.24L410.45,60.06L412.11,59.84L413.76,57.78L415.42,59.91L428.66,61.24L430.31,60.36L431.97,61.09L433.62,60.87L435.28,60.21L436.93,61.75L438.59,61.39L440.24,51.3L443.55,56.23L445.21,58.15L448.52,60.21L450.17,59.69L451.83,61.39L453.48,60.72L456.79,61.53L458.45,60.5L460.1,61.24L461.76,60.28L465.07,62.34L466.72,60.87L468.38,62.34L470.03,60.65L471.69,59.4L473.34,59.84L475,59.99" style="vector-effect: none; fill: none; stroke: rgb(49, 104, 142); stroke-opacity: 1; stroke-width: 1.5px; opacity: 1;"/></g><g class="points"/><g class="text"/></g><g class="trace scatter trace6a2a8f" style="stroke-miterlimit: 2; opacity: 1;"><g class="fills"/><g class="errorbars"/><g class="lines"><path class="js-line" d="M0,386.6L0,410.31L1.66,386.6L1.66,410.39L3.31,410.46L3.31,386.9L4.97,410.46L4.97,386.82L6.62,386.9L6.62,410.24L8.28,410.31L8.28,386.38L9.93,386.46L9.93,410.24L11.59,410.61L11.59,386.16L13.24,410.53L13.24,385.65L14.9,410.53L14.9,385.2L16.55,384.84L16.55,410.46L18.21,384.91L18.21,410.46L19.86,384.98L19.86,410.46L21.52,384.91L21.52,410.39L23.17,384.62L23.17,410.61L24.83,410.39L24.83,384.47L26.48,410.53L26.48,384.03L28.14,410.53L28.14,384.1L29.79,410.46L29.79,384.47L31.45,410.53L31.45,384.17L33.1,384.03L33.1,410.46L34.76,410.53L34.76,384.17L36.41,384.25L36.41,410.68L38.07,410.53L38.07,384.17L39.72,384.25L39.72,410.61L41.38,410.46L41.38,383.95L43.03,410.53L43.03,383.81L44.69,383.88L44.69,410.46L46.34,383.88L46.34,410.53L48,383.88L48,410.53L49.65,410.39L49.65,384.03L51.31,410.53L51.31,383.81L52.96,383.36L52.96,410.31L54.62,410.46L54.62,383.22L56.27,410.24L56.27,383.29L57.93,410.61L57.93,383.51L59.58,379.46L59.58,410.46L61.24,378.14L61.24,410.46L62.89,382.63L62.89,410.39L64.55,410.39L64.55,383.07L66.2,410.24L66.2,383.29L67.86,410.46L67.86,382.55L69.51,410.46L69.51,383.29L71.17,410.46L71.17,383.29L72.82,383.14L72.82,410.53L74.48,410.53L74.48,382.85L76.13,383.14L76.13,410.46L77.79,410.39L77.79,383.22L79.44,383L79.44,410.46L81.1,410.39L81.1,383.14L82.75,383.22L82.75,410.46L84.41,382.85L84.41,410.46L86.06,382.77L86.06,410.46L87.72,382.48L87.72,410.46L89.37,410.39L89.37,382.55L91.03,383.14L91.03,410.39L92.68,410.53L92.68,383L94.34,382.63L94.34,410.46L95.99,382.48L95.99,410.46L97.65,381.96L97.65,410.46L99.3,381.96L99.3,410.61L100.96,410.61L100.96,382.26L102.61,410.53L102.61,381.52L104.27,410.46L104.27,382.41L105.92,382.26L105.92,410.61L107.58,382.33L107.58,410.39L109.23,410.61L109.23,381.74L110.89,410.39L110.89,382.11L112.54,410.46L112.54,381.74L114.2,410.46L114.2,381.89L115.85,410.46L115.85,382.19L117.51,382.19L117.51,410.53L119.16,382.26L120.82,381.52L122.47,381.82L127.44,381.82L129.09,382.04L130.75,380.93L132.4,381.16L134.06,380.49L135.71,380.64L140.68,381.01L142.33,380.86L145.64,380.79L147.3,380.57L148.95,380.35L150.61,381.08L152.26,380.27L153.92,381.01L157.23,380.27L158.89,380.05L167.16,378.14L168.82,378.65L172.13,377.25L173.78,376.81L175.44,376.66L177.09,375.19L178.75,375.41L180.4,374.23L182.06,373.94L183.71,372.84L185.37,373.2L187.02,372.39L191.99,369.67L193.64,370.04L195.3,367.46L196.95,366.43L203.57,363.26L205.23,360.98L208.54,358.4L210.19,357.3L218.47,345.3L220.12,341.03L226.74,324.46L228.4,315.48L233.36,295.89L235.02,300.61L236.67,298.32L238.33,291.11L239.98,285.66L241.64,269.53L248.26,232.87L249.91,228.08L251.57,227.27L253.22,222.19L256.53,206.8L258.19,188.1L261.5,171.09L263.15,167.63L264.81,165.2L266.46,158.87L269.77,152.54L271.43,151.43L276.39,146.43L278.05,144.37L279.7,142.01L281.36,141.49L287.98,132.66L289.63,125.96L292.94,127.73L294.6,124.93L296.25,124.78L297.91,122.64L301.22,120.36L302.87,119.41L307.84,112.41L309.49,111.9L312.8,110.13L314.46,108.36L321.08,104.09L322.74,101.37L324.39,100.11L326.05,100.34L329.36,97.98L331.01,94.81L339.29,86.64L340.94,86.49L347.56,80.6L349.22,81.04L350.87,71.69L352.53,74.93L355.84,74.93L357.49,76.11L360.8,75.96L362.46,76.33L369.08,74.86L370.73,75.23L372.39,65.66L374.04,68.01L379.01,70.81L380.66,73.09L382.32,72.06L383.97,72.95L385.63,74.27L387.28,73.53L388.94,73.53L390.59,71.4L395.56,68.6L397.21,70.29L400.52,69.19L402.18,69.26L403.83,70.44L405.49,69.63L407.14,66.25L408.8,67.5L410.45,67.79L412.11,67.13L413.76,66.76L415.42,68.53L418.73,70.29L420.38,69.63L422.04,70.22L423.69,68.9L425.35,69.63L427,69.48L428.66,69.71L430.31,68.9L431.97,69.71L433.62,68.38L435.28,68.01L436.93,69.19L438.59,69.04L440.24,58.15L443.55,63.67L445.21,65.36L446.86,67.2L448.52,67.57L450.17,67.06L451.83,69.26L453.48,68.53L455.14,69.12L456.79,69.19L458.45,68.23L460.1,69.19L461.76,68.68L465.07,71.18L466.72,69.85L468.38,71.33L470.03,70L471.69,68.53L473.34,68.97L475,69.04" style="vector-effect: none; fill: none; stroke: rgb(49, 104, 142); stroke-opacity: 1; stroke-width: 1.5px; opacity: 1;"/></g><g class="points"/><g class="text"/></g><g class="trace scatter trace2c7d34" style="stroke-miterlimit: 2; opacity: 1;"><g class="fills"/><g class="errorbars"/><g class="lines"><path class="js-line" d="M0,350.3L0,410.16L1.66,366.87L1.66,409.94L3.31,410.31L3.31,369.15L4.97,410.24L4.97,372.54L6.62,356.56L6.62,410.24L8.28,410.16L8.28,357.3L9.93,354.21L9.93,410.02L11.59,409.94L11.59,367.39L13.24,410.16L13.24,369.96L14.9,410.16L14.9,364.59L16.55,359.66L16.55,410.31L18.21,368.42L18.21,410.09L19.86,353.99L19.86,410.09L21.52,367.61L21.52,409.94L23.17,366.13L23.17,410.16L24.83,410.24L24.83,366.72L26.48,410.02L26.48,366.43L28.14,410.02L28.14,360.02L29.79,410.16L29.79,358.55L31.45,410.02L31.45,365.47L33.1,364.74L33.1,410.31L34.76,410.02L34.76,364.37L36.41,363.04L36.41,410.09L38.07,409.87L38.07,363.48L39.72,362.23L39.72,409.94L41.38,410.24L41.38,361.57L43.03,410.39L43.03,360.76L44.69,360.54L44.69,410.24L46.34,358.7L46.34,410.02L48,357.59L48,410.24L49.65,409.87L49.65,353.62L51.31,410.16L51.31,351.85L52.96,343.68L52.96,410.09L54.62,410.09L54.62,344.34L56.27,410.24L56.27,343.53L57.93,410.09L57.93,329.03L59.58,329.03L59.58,410.16L61.24,324.39L61.24,410.31L62.89,321.59L62.89,410.24L64.55,410.09L64.55,314.67L66.2,410.02L66.2,326.89L67.86,410.31L67.86,304.36L69.51,410.24L69.51,317.25L71.17,410.09L71.17,310.4L72.82,302.67L72.82,410.02L74.48,410.02L74.48,297.29L76.13,292.95L76.13,409.87L77.79,410.02L77.79,289.27L79.44,282.71L79.44,410.16L81.1,410.16L81.1,272.48L82.75,263.5L82.75,410.02L84.41,253.78L84.41,410.24L86.06,245.46L86.06,410.16L87.72,235.74L87.72,409.87L89.37,410.16L89.37,229.19L91.03,221.16L91.03,410.16L92.68,409.8L92.68,219.32L94.34,208.42L94.34,409.87L95.99,200.76L95.99,409.87L97.65,189.65L97.65,410.16L99.3,166.82L99.3,410.16L100.96,410.31L100.96,152.98L102.61,410.24L102.61,151.36L104.27,410.09L104.27,149.37L105.92,145.32L105.92,410.16L107.58,142.23L107.58,410.02L109.23,409.72L109.23,138.33L110.89,409.65L110.89,134.57L112.54,409.58L112.54,130.6L114.2,410.09L114.2,128.02L115.85,410.09L115.85,125.96L117.51,122.13L117.51,410.24L119.16,118.45L125.78,108.36L127.44,107.11L130.75,104.09L132.4,102.1L135.71,99.75L137.37,99.45L140.68,97.54L142.33,96.29L148.95,91.13L150.61,87.01L152.26,86.49L153.92,87.3L155.57,86.13L157.23,87.38L158.89,85.02L160.54,85.09L162.2,83.4L163.85,76.33L167.16,79.06L168.82,79.06L172.13,76.26L173.78,75.67L175.44,73.17L177.09,74.42L178.75,71.25L180.4,72.28L182.06,68.6L183.71,70.52L185.37,68.01L187.02,69.41L188.68,67.72L190.33,69.85L191.99,67.06L193.64,66.39L195.3,65.36L196.95,66.83L198.61,65.8L200.26,66.1L203.57,63.01L205.23,58.88L208.54,62.71L210.19,63.15L211.85,61.61L213.5,62.49L215.16,58.29L216.81,60.65L218.47,59.18L220.12,61.02L221.78,57.7L223.43,49.61L225.09,53.36L226.74,54.46L228.4,54.69L230.05,58.07L233.36,58.44L235.02,57.63L238.33,55.13L239.98,55.72L241.64,45.92L243.29,46.37L244.95,46.14L246.6,47.25L248.26,42.76L249.91,44.16L251.57,45.7L253.22,45.85L256.53,47.32L258.19,46.07L259.84,42.61L261.5,44.6L263.15,35.98L264.81,40.4L266.46,40.33L268.12,41.29L271.43,45.19L273.08,46.44L274.74,48.8L276.39,47.76L281.36,47.47L283.01,49.9L287.98,46.73L289.63,41.58L292.94,45.33L294.6,44.82L296.25,46.29L297.91,44.6L299.56,47.4L301.22,46.95L302.87,46.29L304.53,44.67L306.18,46.14L307.84,45.63L309.49,45.19L311.15,45.63L312.8,46.51L314.46,45.48L316.11,44.01L317.77,44.16L321.08,45.26L322.74,45.04L324.39,44.6L326.05,45.11L329.36,43.35L331.01,43.49L332.67,43.2L334.32,41.65L339.29,39.44L340.94,39.08L344.25,37.9L345.91,39.89L347.56,37.01L349.22,37.09L350.87,30.31L352.53,31.27L355.84,33.92L357.49,36.35L359.15,35.62L360.8,36.13L362.46,37.09L364.11,36.5L365.77,37.9L367.42,37.53L369.08,38.41L370.73,38.05L372.39,23.91L374.04,26.78L377.35,32.16L379.01,33.78L380.66,36.06L382.32,34.44L385.63,38.78L387.28,37.9L388.94,34.59L390.59,36.06L392.25,33.78L393.9,33.55L395.56,32.89L397.21,34.81L400.52,31.27L402.18,31.57L403.83,33.26L405.49,33.55L407.14,31.12L408.8,33.63L412.11,31.49L413.76,30.02L415.42,32.3L417.07,31.35L418.73,31.71L420.38,33.11L423.69,34L425.35,32.97L427,35.69L428.66,34.14L430.31,31.2L431.97,34.07L433.62,34.36L435.28,32.67L436.93,33.63L438.59,35.47L440.24,26.63L441.9,27.59L443.55,30.02L445.21,30.46L446.86,30.39L448.52,31.93L450.17,31.12L451.83,32.74L456.79,31.42L458.45,31.12L460.1,32.01L461.76,30.54L463.41,32.97L465.07,33.7L466.72,32.97L468.38,34.22L471.69,32.3L473.34,32.38L475,32.97" style="vector-effect: none; fill: none; stroke: rgb(53, 183, 121); stroke-opacity: 1; stroke-width: 1.5px; opacity: 1;"/></g><g class="points"/><g class="text"/></g><g class="trace scatter trace842b44" style="stroke-miterlimit: 2; opacity: 1;"><g class="fills"/><g class="errorbars"/><g class="lines"><path class="js-line" d="M0,355.97L0,411.42L1.66,371.29L1.66,411.64L3.31,411.86L3.31,372.25L4.97,411.71L4.97,372.47L6.62,372.1L6.62,411.56L8.28,411.49L8.28,372.39L9.93,371.95L9.93,411.56L11.59,411.49L11.59,371.07L13.24,411.49L13.24,370.33L14.9,411.49L14.9,369.01L16.55,368.93L16.55,411.64L18.21,367.98L18.21,411.34L19.86,367.9L19.86,411.42L21.52,368.05L21.52,411.34L23.17,367.75L23.17,411.42L24.83,411.49L24.83,367.68L26.48,411.42L26.48,366.8L28.14,411.42L28.14,366.8L29.79,411.34L29.79,366.21L31.45,411.42L31.45,365.84L33.1,365.62L33.1,411.34L34.76,411.78L34.76,365.47L36.41,365.18L36.41,411.56L38.07,411.42L38.07,364.74L39.72,363.26L39.72,411.42L41.38,411.49L41.38,362.38L43.03,411.49L43.03,361.64L44.69,360.69L44.69,411.56L46.34,359.14L46.34,411.27L48,357.3L48,411.64L49.65,411.42L49.65,356.49L51.31,411.12L51.31,354.5L52.96,352.66L52.96,410.97L54.62,410.83L54.62,350.53L56.27,411.05L56.27,348.02L57.93,411.42L57.93,345.37L59.58,339.11L59.58,411.27L61.24,338.52L61.24,411.27L62.89,333.81L62.89,411.12L64.55,411.12L64.55,329.03L66.2,411.27L66.2,325.05L67.86,411.27L67.86,318.13L69.51,411.12L69.51,312.97L71.17,411.12L71.17,306.86L72.82,299.94L72.82,411.2L74.48,411.05L74.48,294.94L76.13,290.15L76.13,411.49L77.79,411.71L77.79,287.28L79.44,281.09L79.44,411.34L81.1,411.56L81.1,273.22L82.75,263.35L82.75,411.64L84.41,252.89L84.41,411.42L86.06,245.97L86.06,411.56L87.72,235.15L87.72,411.56L89.37,411.56L89.37,230.22L91.03,218.44L91.03,411.56L92.68,411.56L92.68,215.79L94.34,208.72L94.34,411.49L95.99,195.1L95.99,411.64L97.65,176.47L97.65,411.49L99.3,167.56L99.3,411.42L100.96,411.49L100.96,159.61L102.61,411.49L102.61,153.27L104.27,411.71L104.27,148.56L105.92,144.81L105.92,411.49L107.58,141.49L107.58,411.49L109.23,411.42L109.23,136.93L110.89,411.71L110.89,133.25L112.54,411.64L112.54,130.52L114.2,411.49L114.2,128.17L115.85,411.34L115.85,126.18L117.51,125.44L117.51,411.49L119.16,122.5L120.82,121.03L122.47,117.93L127.44,113.37L129.09,110.28L130.75,108.43L132.4,105.05L135.71,102.77L137.37,102.69L140.68,101.22L142.33,99.53L143.99,97.1L145.64,96.8L148.95,92.75L150.61,88.78L152.26,87.89L153.92,89.88L155.57,88.41L157.23,89.44L158.89,85.68L160.54,85.24L162.2,83.7L163.85,79.06L165.51,81.49L167.16,81.56L168.82,81.93L170.47,79.94L172.13,79.72L173.78,78.25L175.44,76.92L177.09,77.81L178.75,75.74L180.4,75.52L182.06,72.87L183.71,74.05L185.37,71.62L187.02,73.9L188.68,70.66L190.33,73.76L193.64,70.29L195.3,70.44L196.95,71.55L198.61,69.04L200.26,70.74L201.92,71.03L205.23,66.25L206.88,69.34L210.19,69.63L211.85,69.04L213.5,70.37L215.16,66.83L216.81,68.01L218.47,66.39L220.12,68.75L221.78,65.88L223.43,54.32L225.09,58.07L226.74,61.16L228.4,61.68L230.05,63.82L231.71,64.4L233.36,65.36L235.02,65.07L238.33,62.93L239.98,62.78L241.64,52.04L243.29,53.51L244.95,53.29L246.6,55.79L248.26,48.21L249.91,52.33L253.22,55.27L254.88,55.79L256.53,56.75L258.19,55.5L259.84,53.8L261.5,54.83L263.15,53.58L264.81,54.61L266.46,46.66L268.12,49.97L271.43,55.27L273.08,56.23L274.74,58.74L276.39,58.22L278.05,59.03L279.7,58.59L281.36,58.74L283.01,61.97L284.67,60.58L286.32,60.5L287.98,59.55L289.63,53.36L292.94,57.04L294.6,56.16L297.91,59.1L299.56,60.8L304.53,59.18L306.18,60.5L311.15,61.24L312.8,61.39L314.46,62.2L316.11,61.16L317.77,61.46L319.43,60.65L322.74,62.34L324.39,61.83L327.7,62.05L329.36,61.31L331.01,62.05L332.67,61.9L335.98,59.84L337.63,59.77L339.29,58.81L340.94,59.32L344.25,57.56L345.91,58.51L347.56,56.38L349.22,57.12L350.87,45.19L352.53,48.28L354.18,50.27L355.84,53.65L357.49,55.64L359.15,55.27L364.11,59.62L365.77,60.06L369.08,59.4L370.73,60.72L372.39,47.99L374.04,49.02L375.7,51.89L377.35,52.04L380.66,57.41L382.32,56.16L383.97,56.89L385.63,60.06L387.28,61.16L388.94,57.93L390.59,57.7L392.25,56.16L393.9,57.12L395.56,57.04L397.21,57.26L398.87,56.08L405.49,56.82L407.14,56.45L408.8,58.07L410.45,57.04L413.76,55.79L415.42,57.63L417.07,57.34L418.73,58.44L423.69,61.09L425.35,60.28L427,60.13L428.66,60.94L430.31,59.84L431.97,60.8L435.28,59.77L436.93,62.05L438.59,61.02L440.24,48.43L443.55,52.77L445.21,56.31L446.86,56.89L448.52,56.31L450.17,56.67L451.83,58.15L453.48,59.4L455.14,58.51L458.45,57.12L460.1,60.72L461.76,59.91L463.41,60.43L466.72,61.61L468.38,63.82L471.69,60.5L473.34,60.65L475,61.53" style="vector-effect: none; fill: none; stroke: rgb(53, 183, 121); stroke-opacity: 1; stroke-width: 1.5px; opacity: 1;"/></g><g class="points"/><g class="text"/></g><g class="trace scatter tracefba8cb" style="stroke-miterlimit: 2; opacity: 1;"><g class="fills"/><g class="errorbars"/><g class="lines"><path class="js-line" d="M0,371.36L0,411.78L1.66,370.63L1.66,411.93L3.31,412.08L3.31,369.89L4.97,411.27L4.97,370.48L6.62,370.77L6.62,411.86L8.28,411.86L8.28,370.55L9.93,370.11L9.93,411.93L11.59,411.71L11.59,369.15L13.24,411.86L13.24,368.2L14.9,411.64L14.9,368.86L16.55,367.83L16.55,411.78L18.21,367.61L18.21,412.01L19.86,367.02L19.86,412.01L21.52,367.46L21.52,412.08L23.17,366.94L23.17,411.93L24.83,411.93L24.83,366.94L26.48,411.86L26.48,366.43L28.14,412.15L28.14,365.91L29.79,412.08L29.79,365.69L31.45,411.93L31.45,365.18L33.1,365.18L33.1,411.86L34.76,412.01L34.76,364.59L36.41,364.66L36.41,411.93L38.07,411.93L38.07,364.15L39.72,362.82L39.72,411.93L41.38,411.93L41.38,361.94L43.03,412.01L43.03,360.24L44.69,358.99L44.69,411.93L46.34,358.11L46.34,411.86L48,356.42L48,412.08L49.65,411.78L49.65,354.8L51.31,412.15L51.31,352.44L52.96,349.64L52.96,412.01L54.62,411.71L54.62,347.58L56.27,412.01L56.27,345.22L57.93,411.86L57.93,341.03L59.58,334.25L59.58,412.01L61.24,330.06L61.24,412.15L62.89,329.47L62.89,412.01L64.55,412.15L64.55,324.31L66.2,411.93L66.2,318.94L67.86,412.01L67.86,314.3L69.51,411.93L69.51,309L71.17,412.3L71.17,302.08L72.82,299.13L72.82,412.08L74.48,411.78L74.48,295.3L76.13,290.44L76.13,411.86L77.79,412.01L77.79,283.6L79.44,274.47L79.44,412.01L81.1,411.93L81.1,264.38L82.75,256.13L82.75,411.93L84.41,243.54L84.41,411.71L86.06,235.44L86.06,411.86L87.72,223.96L87.72,411.93L89.37,411.93L89.37,218.29L91.03,209.6L91.03,411.93L92.68,412.01L92.68,200.62L94.34,184.57L94.34,411.86L95.99,178.23L95.99,411.86L97.65,171.17L97.65,412.08L99.3,166.97L99.3,412.08L100.96,412.01L100.96,161.67L102.61,411.78L102.61,158.28L104.27,411.86L104.27,155.19L105.92,151.95L105.92,411.78L107.58,148.12L107.58,411.64L109.23,411.93L109.23,145.69L110.89,412.01L110.89,143.78L112.54,411.93L112.54,140.68L114.2,411.86L114.2,140.02L115.85,411.93L115.85,137.44L117.51,136.12L117.51,411.93L119.16,132.36L120.82,130.74L122.47,126.77L125.78,122.35L127.44,121.76L132.4,111.9L134.06,111.16L135.71,107.92L137.37,107.99L139.02,105.64L140.68,105.19L142.33,102.84L143.99,102.03L147.3,101.51L148.95,99.53L152.26,97.91L153.92,99.53L155.57,97.39L157.23,98.79L158.89,94.67L160.54,94.3L162.2,92.24L163.85,92.31L168.82,90.62L170.47,89.29L173.78,86.71L175.44,84.36L177.09,85.09L178.75,82L180.4,82.37L182.06,79.94L183.71,80.53L185.37,78.03L187.02,79.28L188.68,77L190.33,78.54L191.99,76.19L195.3,74.71L196.95,76.33L198.61,73.39L200.26,74.57L201.92,75.01L203.57,72.58L205.23,69.78L206.88,72.14L210.19,72.8L211.85,71.47L213.5,72.8L215.16,68.6L216.81,70.44L218.47,68.23L220.12,69.93L221.78,66.61L223.43,54.32L225.09,58.66L228.4,63.08L230.05,64.77L231.71,64.33L233.36,64.77L235.02,64.11L236.67,62.27L238.33,60.58L239.98,60.65L241.64,52.4L243.29,53.36L244.95,53.58L246.6,56.08L248.26,48.43L249.91,51.3L251.57,54.54L253.22,55.35L256.53,56.38L258.19,54.61L259.84,52.92L261.5,53.29L263.15,48.13L264.81,50.71L266.46,46.29L268.12,50.71L273.08,57.41L274.74,58.59L276.39,57.78L278.05,58L279.7,57.48L281.36,57.93L283.01,59.91L284.67,59.18L286.32,59.18L287.98,58.37L289.63,50.86L291.29,53.73L292.94,57.19L294.6,57.78L296.25,59.77L297.91,58.51L299.56,59.55L301.22,59.69L304.53,58.22L306.18,58.88L311.15,57.85L312.8,59.62L319.43,57.56L321.08,57.7L322.74,59.32L324.39,59.25L327.7,57.85L329.36,58.07L331.01,58.44L332.67,57.19L335.98,55.64L337.63,55.86L339.29,53.73L340.94,54.46L342.6,53.21L344.25,53.43L345.91,53.29L347.56,52.18L349.22,52.26L350.87,40.18L354.18,47.25L355.84,50.64L357.49,53.07L359.15,52.48L362.46,55.64L364.11,55.42L367.42,54.91L369.08,55.86L370.73,55.5L372.39,40.48L374.04,43.13L375.7,47.25L380.66,52.99L382.32,52.77L385.63,56.82L387.28,56.01L388.94,54.83L390.59,55.13L392.25,52.62L393.9,52.7L395.56,52.11L397.21,53.21L398.87,51.37L400.52,52.62L403.83,51.96L405.49,52.62L407.14,50.78L408.8,52.04L412.11,52.7L413.76,50.12L415.42,52.7L417.07,52.48L418.73,53.65L420.38,53.51L422.04,55.13L423.69,54.54L428.66,56.08L430.31,53.29L433.62,54.91L435.28,53.73L436.93,55.27L438.59,54.24L440.24,40.33L441.9,44.45L445.21,49.46L446.86,50.12L448.52,52.04L450.17,51.81L451.83,53.51L453.48,53.36L455.14,53.88L456.79,52.92L458.45,52.4L460.1,54.91L461.76,52.92L463.41,55.2L465.07,56.6L466.72,55.13L468.38,57.19L470.03,56.16L471.69,54.02L473.34,54.32L475,54.54" style="vector-effect: none; fill: none; stroke: rgb(53, 183, 121); stroke-opacity: 1; stroke-width: 1.5px; opacity: 1;"/></g><g class="points"/><g class="text"/></g><g class="trace scatter tracec92cd2" style="stroke-miterlimit: 2; opacity: 1;"><g class="fills"/><g class="errorbars"/><g class="lines"><path class="js-line" d="M0,369.37L0,409.87L1.66,362.31L1.66,409.87L3.31,410.31L3.31,368.49L4.97,410.09L4.97,367.98L6.62,369.08L6.62,410.09L8.28,410.24L8.28,369.15L9.93,368.79L9.93,409.94L11.59,410.09L11.59,367.68L13.24,410.02L13.24,365.03L14.9,410.16L14.9,361.28L16.55,358.26L16.55,410.16L18.21,358.11L18.21,410.24L19.86,359.51L19.86,410.31L21.52,363.85L21.52,410.31L23.17,363.41L23.17,410.24L24.83,410.16L24.83,362.6L26.48,410.16L26.48,361.86L28.14,410.31L28.14,360.69L29.79,410.16L29.79,360.17L31.45,410.16L31.45,360.17L33.1,359.43L33.1,410.46L34.76,410.39L34.76,355.09L36.41,355.09L36.41,410.31L38.07,410.16L38.07,354.94L39.72,354.35L39.72,410.16L41.38,410.39L41.38,353.54L43.03,410.24L43.03,353.03L44.69,352.15L44.69,410.02L46.34,351.19L46.34,410.24L48,350.3L48,410.09L49.65,410.02L49.65,348.61L51.31,410.16L51.31,346.55L52.96,344.27L52.96,410.39L54.62,410.31L54.62,342.28L56.27,410.24L56.27,340.07L57.93,410.24L57.93,337.35L59.58,327.77L59.58,410.16L61.24,330.87L61.24,409.87L62.89,327.63L62.89,410.16L64.55,410.46L64.55,323.8L66.2,410.02L66.2,319.01L67.86,410.16L67.86,312.68L69.51,410.24L69.51,307.75L71.17,410.09L71.17,301.42L72.82,294.42L72.82,410.24L74.48,410.09L74.48,289.56L76.13,286.25L76.13,410.24L77.79,410.16L77.79,282.2L79.44,273.73L79.44,410.09L81.1,410.16L81.1,266.59L82.75,258.34L82.75,410.16L84.41,250.1L84.41,410.16L86.06,243.47L86.06,410.09L87.72,236.55L87.72,410.31L89.37,410.02L89.37,227.93L91.03,222.56L91.03,410.39L92.68,410.16L92.68,212.84L94.34,200.47L94.34,410.09L95.99,175.44L95.99,410.16L97.65,164.76L97.65,410.39L99.3,155.78L99.3,410.24L100.96,410.16L100.96,146.43L102.61,410.24L102.61,141.64L104.27,410.16L104.27,139.28L105.92,133.03L105.92,410.09L107.58,129.42L107.58,410.16L109.23,410.16L109.23,125.07L110.89,410.24L110.89,121.39L112.54,410.16L112.54,117.2L114.2,410.09L114.2,114.4L115.85,410.31L115.85,111.82L117.51,111.16L117.51,410.31L119.16,107.7L122.47,104.61L124.13,100.78L125.78,99.75L127.44,100.56L129.09,97.46L130.75,96.29L134.06,93.41L135.71,91.79L137.37,91.72L139.02,89.59L140.68,89.81L142.33,87.97L147.3,85.98L148.95,84.06L150.61,80.9L152.26,81.93L157.23,84.87L158.89,81.85L160.54,81.93L162.2,79.94L163.85,65.66L165.51,71.91L167.16,74.64L168.82,75.74L170.47,74.93L172.13,75.3L175.44,72.72L177.09,72.95L178.75,70.66L180.4,71.4L182.06,69.34L183.71,69.41L185.37,67.35L187.02,68.16L188.68,66.76L190.33,68.23L191.99,66.91L193.64,67.5L196.95,68.09L198.61,66.17L201.92,66.83L203.57,64.7L205.23,61.68L206.88,63.89L208.54,65.36L210.19,65.58L211.85,64.04L213.5,65.14L215.16,61.31L216.81,62.78L218.47,61.53L220.12,62.86L221.78,60.13L223.43,44.08L226.74,54.61L228.4,57.63L230.05,59.55L231.71,59.18L233.36,58.74L235.02,59.1L238.33,56.75L239.98,56.67L241.64,39L243.29,43.64L246.6,50.05L248.26,37.68L253.22,51.67L254.88,49.53L256.53,50.93L258.19,49.09L259.84,47.76L261.5,48.06L263.15,43.13L264.81,45.33L266.46,34.73L268.12,39.89L269.77,42.61L271.43,46.88L274.74,49.75L276.39,47.91L278.05,48.72L279.7,47.91L281.36,48.5L283.01,52.33L287.98,47.4L289.63,39.74L292.94,42.98L294.6,44.01L296.25,46.37L297.91,44.38L299.56,46.14L301.22,46.44L302.87,45.85L304.53,44.23L307.84,45.11L309.49,43.57L312.8,45.26L314.46,45.11L316.11,43.64L317.77,43.71L319.43,43.57L321.08,45.26L322.74,44.89L324.39,43.71L329.36,42.76L331.01,43.27L334.32,40.48L335.98,41.43L337.63,40.62L339.29,37.75L340.94,37.82L342.6,37.09L345.91,37.97L347.56,34.81L349.22,35.69L350.87,22.29L354.18,30.9L355.84,34.44L357.49,36.35L359.15,36.2L362.46,37.6L364.11,37.09L365.77,37.9L367.42,37.24L370.73,37.82L372.39,25.09L374.04,27.07L375.7,32.6L377.35,33.04L379.01,34.51L380.66,38.56L382.32,36.2L383.97,37.09L385.63,40.7L387.28,39.52L388.94,35.62L390.59,36.87L392.25,35.25L393.9,34.36L395.56,35.03L397.21,35.91L398.87,32.89L400.52,33.78L402.18,32.08L403.83,32.67L405.49,34.59L407.14,33.55L408.8,33.92L410.45,34.73L412.11,33.7L413.76,30.9L415.42,32.82L418.73,33.41L420.38,34.29L422.04,33.48L423.69,35.47L427,35.76L428.66,35.25L430.31,34.59L431.97,34.88L433.62,35.25L435.28,34.51L436.93,35.76L438.59,35.39L440.24,21.7L441.9,25.9L443.55,29.73L445.21,31.27L448.52,32.67L450.17,32.45L451.83,34.36L453.48,32.23L455.14,33.55L456.79,33.55L458.45,30.31L460.1,33.55L461.76,31.49L463.41,33.04L465.07,34.88L466.72,34L468.38,34.44L470.03,33.78L471.69,34L473.34,32.23L475,32.6" style="vector-effect: none; fill: none; stroke: rgb(253, 231, 37); stroke-opacity: 1; stroke-width: 1.5px; opacity: 1;"/></g><g class="points"/><g class="text"/></g><g class="trace scatter tracec840fd" style="stroke-miterlimit: 2; opacity: 1;"><g class="fills"/><g class="errorbars"/><g class="lines"><path class="js-line" d="M0,367.46L0,410.53L1.66,354.43L1.66,410.75L3.31,410.39L3.31,371.73L4.97,410.46L4.97,368.71L6.62,370.99L6.62,410.83L8.28,410.53L8.28,371.14L9.93,371.22L9.93,410.46L11.59,410.53L11.59,369.45L13.24,410.46L13.24,365.47L14.9,410.31L14.9,362.45L16.55,362.38L16.55,410.46L18.21,364.59L18.21,410.53L19.86,360.76L19.86,410.61L21.52,364.59L21.52,410.61L23.17,363.63L23.17,410.68L24.83,410.68L24.83,364.66L26.48,410.61L26.48,364.22L28.14,410.39L28.14,363.34L29.79,410.61L29.79,363.04L31.45,410.61L31.45,362.75L33.1,362.01L33.1,410.53L34.76,410.61L34.76,358.18L36.41,358.26L36.41,410.75L38.07,410.75L38.07,356.27L39.72,356.86L39.72,410.46L41.38,410.46L41.38,355.31L43.03,410.53L43.03,354.58L44.69,353.1L44.69,410.53L46.34,352.22L46.34,410.31L48,350.6L48,410.39L49.65,410.39L49.65,349.13L51.31,410.46L51.31,346.48L52.96,345.08L52.96,410.09L54.62,410.39L54.62,342.65L56.27,410.53L56.27,340.07L57.93,410.53L57.93,337.64L59.58,328.29L59.58,410.31L61.24,331.31L61.24,410.39L62.89,326.6L62.89,410.46L64.55,410.68L64.55,323.14L66.2,410.39L66.2,318.42L67.86,410.53L67.86,311.36L69.51,410.61L69.51,306.42L71.17,410.39L71.17,299.35L72.82,293.83L72.82,410.46L74.48,410.53L74.48,290.74L76.13,287.79L76.13,410.31L77.79,410.53L77.79,280.87L79.44,273.73L79.44,410.46L81.1,410.31L81.1,265.85L82.75,259.3L82.75,410.24L84.41,250.39L84.41,410.61L86.06,244.65L86.06,410.39L87.72,237.51L87.72,410.39L89.37,410.46L89.37,226.17L91.03,218.14L91.03,410.53L92.68,410.61L92.68,204.37L94.34,182.95L94.34,410.53L95.99,166.9L95.99,410.46L97.65,160.78L97.65,410.46L99.3,154.31L99.3,410.46L100.96,410.53L100.96,150.26L102.61,410.61L102.61,146.65L104.27,410.31L104.27,144.37L105.92,139.21L105.92,410.39L107.58,136.63L107.58,410.53L109.23,410.31L109.23,131.41L110.89,410.39L110.89,128.46L112.54,410.31L112.54,124.26L114.2,410.39L114.2,121.98L115.85,410.39L115.85,118.6L117.51,118.15L117.51,410.31L119.16,115.13L125.78,106.67L127.44,106.23L129.09,103.43L130.75,102.91L135.71,96.58L137.37,98.27L139.02,95.48L140.68,95.77L142.33,92.75L143.99,92.31L147.3,91.65L148.95,90.25L150.61,82.08L152.26,83.33L153.92,86.57L155.57,87.23L157.23,89.66L158.89,88.19L162.2,86.27L163.85,70.74L165.51,77.95L167.16,80.38L172.13,81.41L173.78,79.87L175.44,78.69L177.09,79.65L178.75,78.32L180.4,78.84L182.06,75.89L183.71,76.63L185.37,74.2L187.02,75.67L188.68,73.98L190.33,76.26L193.64,73.46L195.3,73.61L196.95,75.23L198.61,73.68L201.92,73.83L203.57,71.55L205.23,68.97L206.88,71.03L210.19,72.5L211.85,71.55L213.5,72.43L215.16,68.97L216.81,71.69L218.47,69.56L220.12,71.1L221.78,68.97L223.43,53.8L225.09,59.25L226.74,62.78L228.4,64.11L230.05,66.61L231.71,66.25L235.02,66.69L236.67,64.92L238.33,63.74L239.98,64.55L241.64,49.16L243.29,52.4L246.6,56.01L248.26,40.99L251.57,52.62L253.22,55.79L254.88,55.5L256.53,57.26L259.84,53.58L261.5,54.83L263.15,49.02L264.81,51.81L266.46,45.04L268.12,50.64L273.08,57.19L274.74,58.29L276.39,57.12L278.05,58.22L279.7,56.82L281.36,58.37L283.01,60.5L284.67,59.32L287.98,58.29L289.63,50.27L292.94,56.08L294.6,54.91L296.25,57.7L297.91,56.82L299.56,58.96L301.22,58.96L302.87,58.81L304.53,57.34L306.18,58.44L307.84,58.29L309.49,57.48L311.15,58.37L312.8,58.66L314.46,57.78L317.77,58.66L319.43,58.22L322.74,59.84L324.39,59.84L326.05,58.74L327.7,58.74L331.01,59.32L332.67,58.22L334.32,56.97L335.98,57.04L337.63,57.34L339.29,55.2L340.94,55.42L342.6,54.54L345.91,55.35L347.56,53.36L349.22,53.58L350.87,38.56L354.18,46.88L355.84,50.19L357.49,52.33L359.15,52.84L360.8,53.36L362.46,55.2L364.11,54.91L365.77,56.89L367.42,55.5L369.08,55.94L370.73,57.12L372.39,45.78L374.04,46.66L375.7,49.16L379.01,51.23L380.66,53.95L382.32,52.99L383.97,54.61L385.63,56.75L387.28,56.67L388.94,53.14L390.59,54.76L392.25,52.84L393.9,52.62L397.21,54.76L398.87,52.84L402.18,52.33L403.83,53.36L405.49,54.24L407.14,53.43L408.8,55.05L410.45,54.76L412.11,54.98L413.76,52.77L415.42,54.39L417.07,54.17L420.38,55.86L422.04,55.94L427,57.12L428.66,56.97L430.31,55.27L431.97,57.04L435.28,56.01L436.93,57.63L438.59,57.19L440.24,41.87L443.55,49.38L445.21,50.42L448.52,52.62L450.17,52.18L451.83,54.54L453.48,54.02L456.79,55.13L458.45,53.43L460.1,55.27L461.76,55.2L465.07,57.41L466.72,56.97L468.38,58.88L470.03,57.26L471.69,56.53L473.34,56.75L475,56.6" style="vector-effect: none; fill: none; stroke: rgb(253, 231, 37); stroke-opacity: 1; stroke-width: 1.5px; opacity: 1;"/></g><g class="points"/><g class="text"/></g><g class="trace scatter trace9434f9" style="stroke-miterlimit: 2; opacity: 1;"><g class="fills"/><g class="errorbars"/><g class="lines"><path class="js-line" d="M0,367.75L0,411.12L1.66,360.69L1.66,411.42L3.31,411.42L3.31,367.53L4.97,411.34L4.97,367.31L6.62,367.46L6.62,411.42L8.28,411.27L8.28,367.61L9.93,367.61L9.93,411.42L11.59,411.2L11.59,367.31L13.24,411.34L13.24,364.96L14.9,411.27L14.9,362.16L16.55,357.67L16.55,411.42L18.21,356.86L18.21,411.27L19.86,358.85L19.86,411.42L21.52,361.64L21.52,411.27L23.17,360.91L23.17,411.05L24.83,411.42L24.83,359.43L26.48,411.42L26.48,359.51L28.14,411.34L28.14,359.29L29.79,411.34L29.79,359.07L31.45,411.34L31.45,358.4L33.1,358.48L33.1,411.2L34.76,411.42L34.76,357.45L36.41,356.86L36.41,411.49L38.07,411.42L38.07,356.86L39.72,356.05L39.72,411.27L41.38,411.56L41.38,354.8L43.03,411.56L43.03,354.35L44.69,352.88L44.69,411.49L46.34,351.92L46.34,411.05L48,349.94L48,411.64L49.65,411.27L49.65,349.27L51.31,411.42L51.31,346.77L52.96,343.9L52.96,411.34L54.62,411.49L54.62,341.91L56.27,411.2L56.27,339.33L57.93,411.34L57.93,336.9L59.58,330.79L59.58,411.2L61.24,325.42L61.24,411.34L62.89,326.82L62.89,411.56L64.55,411.42L64.55,322.1L66.2,411.27L66.2,318.57L67.86,411.27L67.86,310.69L69.51,411.42L69.51,304.73L71.17,411.42L71.17,295.52L72.82,290.22L72.82,411.42L74.48,411.49L74.48,285L76.13,281.24L76.13,411.34L77.79,411.27L77.79,277.41L79.44,272.18L79.44,411.34L81.1,411.2L81.1,263.28L82.75,255.1L82.75,411.27L84.41,244.94L84.41,411.34L86.06,236.4L86.06,411.34L87.72,228.23L87.72,411.2L89.37,411.49L89.37,214.02L91.03,207.98L91.03,411.34L92.68,411.49L92.68,193.03L94.34,176.25L94.34,411.42L95.99,159.09L95.99,411.34L97.65,154.01L97.65,411.34L99.3,150.03L99.3,411.42L100.96,411.34L100.96,145.47L102.61,411.42L102.61,141.42L104.27,411.49L104.27,139.58L105.92,136.49L105.92,411.34L107.58,132.81L107.58,411.34L109.23,411.27L109.23,128.98L110.89,411.49L110.89,126.55L112.54,411.34L112.54,121.91L114.2,411.56L114.2,120.88L115.85,411.34L115.85,116.9L117.51,115.21L117.51,411.42L119.16,112.48L125.78,105.71L127.44,105.34L129.09,103.43L130.75,103.35L132.4,101.22L134.06,100.78L135.71,99.08L137.37,100.04L139.02,97.91L140.68,97.76L142.33,95.84L143.99,95.4L148.95,92.02L150.61,86.57L152.26,87.67L153.92,89.73L155.57,89.07L157.23,91.5L158.89,88.55L160.54,88.26L162.2,86.05L163.85,78.84L167.16,82.44L168.82,82.81L172.13,83.25L173.78,82L175.44,80.53L177.09,81.19L178.75,78.17L180.4,78.98L182.06,76.33L183.71,77.22L185.37,75.01L187.02,77.22L188.68,74.49L190.33,77.14L191.99,74.49L193.64,74.34L195.3,73.61L196.95,76.11L198.61,73.61L200.26,74.2L201.92,73.9L203.57,71.77L205.23,68.9L206.88,70.52L210.19,72.95L211.85,72.43L213.5,73.68L215.16,69.93L216.81,73.39L218.47,71.91L220.12,72.95L221.78,69.48L223.43,52.4L225.09,58.29L226.74,61.53L228.4,62.2L230.05,64.11L231.71,63.74L233.36,65.29L235.02,64.04L236.67,63.96L238.33,62.56L239.98,63.52L241.64,48.13L243.29,51.96L244.95,53.88L246.6,54.24L248.26,45.41L251.57,54.02L253.22,55.35L256.53,56.82L258.19,55.57L259.84,54.02L261.5,56.23L263.15,53.14L264.81,53.73L266.46,43.42L268.12,48.28L271.43,54.61L273.08,57.12L274.74,59.84L276.39,58.37L278.05,59.32L279.7,58.37L281.36,59.55L283.01,62.86L286.32,61.75L287.98,61.09L289.63,52.77L291.29,56.23L292.94,58.07L294.6,57.56L297.91,59.99L299.56,62.34L304.53,59.55L306.18,61.39L312.8,61.75L314.46,63.15L319.43,61.31L321.08,62.42L322.74,63.74L324.39,63.15L326.05,62.12L327.7,62.42L331.01,63.15L332.67,62.64L334.32,61.16L335.98,61.31L337.63,62.42L339.29,59.99L342.6,59.62L344.25,58.59L345.91,59.69L347.56,57.78L349.22,58.44L350.87,44.82L352.53,49.38L354.18,51.59L357.49,58.07L359.15,58.44L364.11,59.91L365.77,62.2L367.42,61.09L369.08,61.46L370.73,61.61L372.39,51.52L374.04,52.62L375.7,54.98L377.35,55.5L379.01,57.19L380.66,59.62L382.32,58.37L383.97,58.96L385.63,62.05L387.28,63.37L388.94,60.36L390.59,60.5L392.25,58.96L393.9,59.84L395.56,59.32L397.21,59.69L398.87,58.37L400.52,59.25L402.18,59.25L407.14,60.28L408.8,61.61L412.11,60.8L413.76,60.72L415.42,61.61L417.07,61.24L418.73,62.78L420.38,62.78L423.69,64.55L425.35,64.4L428.66,64.92L430.31,63.15L431.97,64.11L433.62,64.11L435.28,63.82L436.93,65.58L438.59,63.52L440.24,51.08L441.9,54.39L443.55,55.72L445.21,58.44L446.86,59.18L450.17,58.81L451.83,61.02L453.48,61.31L455.14,62.49L458.45,60.72L460.1,62.27L463.41,63.59L465.07,65.58L466.72,65.07L468.38,65.95L470.03,66.54L471.69,64.85L475,64.26" style="vector-effect: none; fill: none; stroke: rgb(253, 231, 37); stroke-opacity: 1; stroke-width: 1.5px; opacity: 1;"/></g><g class="points"/><g class="text"/></g></g></g></g><path class="xlines-above crisp" d="M37.5,464.25H513.5M37.5,29.75H513.5" style="fill: none; stroke-width: 0.5px; stroke: rgb(0, 0, 0); stroke-opacity: 1;"/><path class="ylines-above crisp" d="M37.75,30V464M513.25,30V464" style="fill: none; stroke-width: 0.5px; stroke: rgb(0, 0, 0); stroke-opacity: 1;"/><g class="overlines-above"/><g class="xaxislayer-above"><path class="xtick ticks crisp" d="M0,464v-5" transform="translate(135.65,0)" style="stroke: rgb(0, 0, 0); stroke-opacity: 1; stroke-width: 0.5px;"/><path class="xtick ticks crisp" d="M0,464v-5" transform="translate(234.95,0)" style="stroke: rgb(0, 0, 0); stroke-opacity: 1; stroke-width: 0.5px;"/><path class="xtick ticks crisp" d="M0,464v-5" transform="translate(334.25,0)" style="stroke: rgb(0, 0, 0); stroke-opacity: 1; stroke-width: 0.5px;"/><path class="xtick ticks crisp" d="M0,464v-5" transform="translate(433.56,0)" style="stroke: rgb(0, 0, 0); stroke-opacity: 1; stroke-width: 0.5px;"/><g class="xtick"><text text-anchor="middle" x="0" y="477.7" transform="translate(135.65,0)" style="font-family: 'Open Sans', verdana, arial, sans-serif; font-size: 11px; fill: rgb(0, 0, 0); fill-opacity: 1; white-space: pre; opacity: 1;">10</text></g><g class="xtick"><text text-anchor="middle" x="0" y="477.7" style="font-family: 'Open Sans', verdana, arial, sans-serif; font-size: 11px; fill: rgb(0, 0, 0); fill-opacity: 1; white-space: pre; opacity: 1;" transform="translate(234.95,0)">20</text></g><g class="xtick"><text text-anchor="middle" x="0" y="477.7" style="font-family: 'Open Sans', verdana, arial, sans-serif; font-size: 11px; fill: rgb(0, 0, 0); fill-opacity: 1; white-space: pre; opacity: 1;" transform="translate(334.25,0)">30</text></g><g class="xtick"><text text-anchor="middle" x="0" y="477.7" style="font-family: 'Open Sans', verdana, arial, sans-serif; font-size: 11px; fill: rgb(0, 0, 0); fill-opacity: 1; white-space: pre; opacity: 1;" transform="translate(433.56,0)">40</text></g></g><g class="yaxislayer-above"><path class="ytick ticks crisp" d="M38,0h5" transform="translate(0,403.06)" style="stroke: rgb(0, 0, 0); stroke-opacity: 1; stroke-width: 0.5px;"/><path class="ytick ticks crisp" d="M38,0h5" transform="translate(0,329.43)" style="stroke: rgb(0, 0, 0); stroke-opacity: 1; stroke-width: 0.5px;"/><path class="ytick ticks crisp" d="M38,0h5" transform="translate(0,255.8)" style="stroke: rgb(0, 0, 0); stroke-opacity: 1; stroke-width: 0.5px;"/><path class="ytick ticks crisp" d="M38,0h5" transform="translate(0,182.17)" style="stroke: rgb(0, 0, 0); stroke-opacity: 1; stroke-width: 0.5px;"/><path class="ytick ticks crisp" d="M38,0h5" transform="translate(0,108.54)" style="stroke: rgb(0, 0, 0); stroke-opacity: 1; stroke-width: 0.5px;"/><path class="ytick ticks crisp" d="M38,0h5" transform="translate(0,34.91)" style="stroke: rgb(0, 0, 0); stroke-opacity: 1; stroke-width: 0.5px;"/><g class="ytick"><text text-anchor="end" x="35.3" y="3.8499999999999996" transform="translate(0,403.06)" style="font-family: 'Open Sans', verdana, arial, sans-serif; font-size: 11px; fill: rgb(0, 0, 0); fill-opacity: 1; white-space: pre; opacity: 1;">0.1</text></g><g class="ytick"><text text-anchor="end" x="35.3" y="3.8499999999999996" style="font-family: 'Open Sans', verdana, arial, sans-serif; font-size: 11px; fill: rgb(0, 0, 0); fill-opacity: 1; white-space: pre; opacity: 1;" transform="translate(0,329.43)">0.2</text></g><g class="ytick"><text text-anchor="end" x="35.3" y="3.8499999999999996" style="font-family: 'Open Sans', verdana, arial, sans-serif; font-size: 11px; fill: rgb(0, 0, 0); fill-opacity: 1; white-space: pre; opacity: 1;" transform="translate(0,255.8)">0.3</text></g><g class="ytick"><text text-anchor="end" x="35.3" y="3.8499999999999996" style="font-family: 'Open Sans', verdana, arial, sans-serif; font-size: 11px; fill: rgb(0, 0, 0); fill-opacity: 1; white-space: pre; opacity: 1;" transform="translate(0,182.17)">0.4</text></g><g class="ytick"><text text-anchor="end" x="35.3" y="3.8499999999999996" style="font-family: 'Open Sans', verdana, arial, sans-serif; font-size: 11px; fill: rgb(0, 0, 0); fill-opacity: 1; white-space: pre; opacity: 1;" transform="translate(0,108.54)">0.5</text></g><g class="ytick"><text text-anchor="end" x="35.3" y="3.8499999999999996" style="font-family: 'Open Sans', verdana, arial, sans-serif; font-size: 11px; fill: rgb(0, 0, 0); fill-opacity: 1; white-space: pre; opacity: 1;" transform="translate(0,34.91)">0.6</text></g></g><g class="overaxes-above"/></g></g><g class="polarlayer"/><g class="smithlayer"/><g class="ternarylayer"/><g class="geolayer"/><g class="funnelarealayer"/><g class="pielayer"/><g class="iciclelayer"/><g class="treemaplayer"/><g class="sunburstlayer"/><g class="glimages"/><defs id="topdefs-eb80af"><g class="clips"/><clipPath id="legendeb80af"><rect width="165" height="116" x="0" y="0"/></clipPath></defs><g class="layer-above"><g class="imagelayer"/><g class="shapelayer"/></g><g class="infolayer"><g class="legend" pointer-events="all" transform="translate(522.5,30)"><rect class="bg" shape-rendering="crispEdges" width="165" height="116" x="0" y="0" style="stroke: rgb(68, 68, 68); stroke-opacity: 1; fill: rgb(255, 255, 255); fill-opacity: 1; stroke-width: 0px;"/><g class="scrollbox" transform="" clip-path="url(#legendeb80af)"><g class="groups" transform=""><g class="traces" transform="translate(0,14.5)" style="opacity: 1;"><text class="legendtext" text-anchor="start" x="40" y="4.29" style="font-family: 'Open Sans', verdana, arial, sans-serif; font-size: 11px; fill: rgb(0, 0, 0); fill-opacity: 1; white-space: pre;">Ct Oa no CS</text><g class="layers" style="opacity: 1;"><g class="legendfill"/><g class="legendlines"><path class="js-line" d="M5,0h30" style="fill: none; stroke: rgb(68, 1, 84); stroke-opacity: 1; stroke-width: 1.5px;"/></g><g class="legendsymbols"><g class="legendpoints"/></g></g><rect class="legendtoggle" x="0" y="-9.5" width="159.546875" height="19" style="fill: rgb(0, 0, 0); fill-opacity: 0;"/></g></g><g class="groups" transform="translate(0,10)"><g class="traces" transform="translate(0,33.5)" style="opacity: 1;"><text class="legendtext" text-anchor="start" x="40" y="4.29" style="font-family: 'Open Sans', verdana, arial, sans-serif; font-size: 11px; fill: rgb(0, 0, 0); fill-opacity: 1; white-space: pre;">Community no CS</text><g class="layers" style="opacity: 1;"><g class="legendfill"/><g class="legendlines"><path class="js-line" d="M5,0h30" style="fill: none; stroke: rgb(49, 104, 142); stroke-opacity: 1; stroke-width: 1.5px;"/></g><g class="legendsymbols"><g class="legendpoints"/></g></g><rect class="legendtoggle" x="0" y="-9.5" width="159.546875" height="19" style="fill: rgb(0, 0, 0); fill-opacity: 0;"/></g></g><g class="groups" transform="translate(0,20)"><g class="traces" transform="translate(0,52.5)" style="opacity: 1;"><text class="legendtext" text-anchor="start" x="40" y="4.29" style="font-family: 'Open Sans', verdana, arial, sans-serif; font-size: 11px; fill: rgb(0, 0, 0); fill-opacity: 1; white-space: pre;">Community Glucose C1</text><g class="layers" style="opacity: 1;"><g class="legendfill"/><g class="legendlines"><path class="js-line" d="M5,0h30" style="fill: none; stroke: rgb(53, 183, 121); stroke-opacity: 1; stroke-width: 1.5px;"/></g><g class="legendsymbols"><g class="legendpoints"/></g></g><rect class="legendtoggle" x="0" y="-9.5" width="159.546875" height="19" style="fill: rgb(0, 0, 0); fill-opacity: 0;"/></g></g><g class="groups" transform="translate(0,30)"><g class="traces" transform="translate(0,71.5)" style="opacity: 1;"><text class="legendtext" text-anchor="start" x="40" y="4.29" style="font-family: 'Open Sans', verdana, arial, sans-serif; font-size: 11px; fill: rgb(0, 0, 0); fill-opacity: 1; white-space: pre;">Community Glucose C2</text><g class="layers" style="opacity: 1;"><g class="legendfill"/><g class="legendlines"><path class="js-line" d="M5,0h30" style="fill: none; stroke: rgb(253, 231, 37); stroke-opacity: 1; stroke-width: 1.5px;"/></g><g class="legendsymbols"><g class="legendpoints"/></g></g><rect class="legendtoggle" x="0" y="-9.5" width="159.546875" height="19" style="fill: rgb(0, 0, 0); fill-opacity: 0;"/></g></g></g><rect class="scrollbar" rx="20" ry="3" width="0" height="0" x="0" y="0" style="fill: rgb(128, 139, 164); fill-opacity: 1;"/></g><g class="g-gtitle"/><g class="g-xtitle"><text class="xtitle" x="275.5" y="488.153125" text-anchor="middle" style="opacity: 1; font-family: 'Open Sans', verdana, arial, sans-serif; font-size: 11px; fill: rgb(0, 0, 0); fill-opacity: 1; white-space: pre;">Time [h]</text></g><g class="g-ytitle"><text class="ytitle" transform="rotate(-90,16.18125,247)" x="16.18125" y="247" text-anchor="middle" style="opacity: 1; font-family: 'Open Sans', verdana, arial, sans-serif; font-size: 11px; fill: rgb(0, 0, 0); fill-opacity: 1; white-space: pre;">OD600</text></g></g></svg>