<svg class="main-svg" xmlns="http://www.w3.org/2000/svg" xmlns:xlink="http://www.w3.org/1999/xlink" width="500" height="350" style="" viewBox="0 0 500 350"><rect x="0" y="0" width="500" height="350" style="fill: rgb(255, 255, 255); fill-opacity: 1;"/><defs id="defs-8e7e49"><g class="clips"><clipPath id="clip8e7e49xyplot" class="plotclip"><rect width="366" height="284"/></clipPath><clipPath class="axesclip" id="clip8e7e49x"><rect x="54" y="0" width="366" height="350"/></clipPath><clipPath class="axesclip" id="clip8e7e49y"><rect x="0" y="30" width="500" height="284"/></clipPath><clipPath class="axesclip" id="clip8e7e49xy"><rect x="54" y="30" width="366" height="284"/></clipPath></g><g class="gradients"/><g class="patterns"/></defs><g class="bglayer"/><g class="layer-below"><g class="imagelayer"/><g class="shapelayer"/></g><g class="cartesianlayer"><g class="subplot xy"><g class="layer-subplot"><g class="shapelayer"/><g class="imagelayer"/></g><g class="minor-gridlayer"><g class="x"/><g class="y"/></g><g class="gridlayer"><g class="x"><path class="xgrid crisp" transform="translate(78.55,0)" d="M0,30v284" style="stroke: rgb(128, 128, 128); stroke-opacity: 1; stroke-width: 0.2px;"/><path class="xgrid crisp" transform="translate(167.44,0)" d="M0,30v284" style="stroke: rgb(128, 128, 128); stroke-opacity: 1; stroke-width: 0.2px;"/><path class="xgrid crisp" transform="translate(256.33000000000004,0)" d="M0,30v284" style="stroke: rgb(128, 128, 128); stroke-opacity: 1; stroke-width: 0.2px;"/><path class="xgrid crisp" transform="translate(345.23,0)" d="M0,30v284" style="stroke: rgb(128, 128, 128); stroke-opacity: 1; stroke-width: 0.2px;"/></g><g class="y"><path class="ygrid crisp" transform="translate(0,282.44)" d="M54,0h366" style="stroke: rgb(128, 128, 128); stroke-opacity: 1; stroke-width: 0.2px;"/><path class="ygrid crisp" transform="translate(0,250.89)" d="M54,0h366" style="stroke: rgb(128, 128, 128); stroke-opacity: 1; stroke-width: 0.2px;"/><path class="ygrid crisp" transform="translate(0,219.33)" d="M54,0h366" style="stroke: rgb(128, 128, 128); stroke-opacity: 1; stroke-width: 0.2px;"/><path class="ygrid crisp" transform="translate(0,187.78)" d="M54,0h366" style="stroke: rgb(128, 128, 128); stroke-opacity: 1; stroke-width: 0.2px;"/><path class="ygrid crisp" transform="translate(0,156.22)" d="M54,0h366" style="stroke: rgb(128, 128, 128); stroke-opacity: 1; stroke-width: 0.2px;"/><path class="ygrid crisp" transform="translate(0,124.67)" d="M54,0h366" style="stroke: rgb(128, 128, 128); stroke-opacity: 1; stroke-width: 0.2px;"/><path class="ygrid crisp" transform="translate(0,93.11)" d="M54,0h366" style="stroke: rgb(128, 128, 128); stroke-opacity: 1; stroke-width: 0.2px;"/><path class="ygrid crisp" transform="translate(0,61.56)" d="M54,0h366" style="stroke: rgb(128, 128, 128); stroke-opacity: 1; stroke-width: 0.2px;"/></g></g><g class="zerolinelayer"/><g class="layer-between"><g class="shapelayer"/><g class="imagelayer"/></g><path class="xlines-below"/><path class="ylines-below"/><g class="overlines-below"/><g class="xaxislayer-below"/><g class="yaxislayer-below"/><g class="overaxes-below"/><g class="overplot"><g class="xy" transform="translate(54,30)" clip-path="url(#clip8e7e49xyplot)"><g class="scatterlayer mlayer"><g class="trace scatter trace99794f" style="stroke-miterlimit: 2; opacity: 1;"><g class="fills"/><g class="errorbars"><g class="errorbar" style="opacity: 1;"><path class="yerror" d="M20.55,135.45h8m-4,0V140.87m-4,0h8" style="vector-effect: none; stroke-width: 1px; stroke: rgb(225, 129, 44); stroke-opacity: 1;"/></g><g class="errorbar" style="opacity: 1;"><path class="yerror" d="M104.11,140.85h8m-4,0V143.53m-4,0h8" style="vector-effect: none; stroke-width: 1px; stroke: rgb(225, 129, 44); stroke-opacity: 1;"/></g><g class="errorbar" style="opacity: 1;"><path class="yerror" d="M129,144.68h8m-4,0V146.97m-4,0h8" style="vector-effect: none; stroke-width: 1px; stroke: rgb(225, 129, 44); stroke-opacity: 1;"/></g><g class="errorbar" style="opacity: 1;"><path class="yerror" d="M213.45,158.02h8m-4,0V161.7m-4,0h8" style="vector-effect: none; stroke-width: 1px; stroke: rgb(225, 129, 44); stroke-opacity: 1;"/></g><g class="errorbar" style="opacity: 1;"><path class="yerror" d="M236.11,143.83h8m-4,0V156.46m-4,0h8" style="vector-effect: none; stroke-width: 1px; stroke: rgb(225, 129, 44); stroke-opacity: 1;"/></g><g class="errorbar" style="opacity: 1;"><path class="yerror" d="M320.56,150.92h8m-4,0V152.99m-4,0h8" style="vector-effect: none; stroke-width: 1px; stroke: rgb(225, 129, 44); stroke-opacity: 1;"/></g><g class="errorbar" style="opacity: 1;"><path class="yerror" d="M337.45,144.68h8m-4,0V146.97m-4,0h8" style="vector-effect: none; stroke-width: 1px; stroke: rgb(225, 129, 44); stroke-opacity: 1;"/></g></g><g class="lines"><path class="js-line" d="M24.55,137.89L108.11,142.13L133,145.78L217.45,159.74L240.11,148.74L324.56,151.92L341.45,145.78" style="vector-effect: none; fill: none; stroke: rgb(225, 129, 44); stroke-opacity: 1; stroke-width: 2px; opacity: 1;"/></g><g class="points"><path class="point" transform="translate(24.55,137.89)" d="M5,0A5,5 0 1,1 0,-5A5,5 0 0,1 5,0Z" style="opacity: 1; stroke-width: 0px; fill: rgb(225, 129, 44); fill-opacity: 1;"/><path class="point" transform="translate(108.11,142.13)" d="M5,0A5,5 0 1,1 0,-5A5,5 0 0,1 5,0Z" style="opacity: 1; stroke-width: 0px; fill: rgb(225, 129, 44); fill-opacity: 1;"/><path class="point" transform="translate(133,145.78)" d="M5,0A5,5 0 1,1 0,-5A5,5 0 0,1 5,0Z" style="opacity: 1; stroke-width: 0px; fill: rgb(225, 129, 44); fill-opacity: 1;"/><path class="point" transform="translate(217.45,159.74)" d="M5,0A5,5 0 1,1 0,-5A5,5 0 0,1 5,0Z" style="opacity: 1; stroke-width: 0px; fill: rgb(225, 129, 44); fill-opacity: 1;"/><path class="point" transform="translate(240.11,148.74)" d="M5,0A5,5 0 1,1 0,-5A5,5 0 0,1 5,0Z" style="opacity: 1; stroke-width: 0px; fill: rgb(225, 129, 44); fill-opacity: 1;"/><path class="point" transform="translate(324.56,151.92)" d="M5,0A5,5 0 1,1 0,-5A5,5 0 0,1 5,0Z" style="opacity: 1; stroke-width: 0px; fill: rgb(225, 129, 44); fill-opacity: 1;"/><path class="point" transform="translate(341.45,145.78)" d="M5,0A5,5 0 1,1 0,-5A5,5 0 0,1 5,0Z" style="opacity: 1; stroke-width: 0px; fill: rgb(225, 129, 44); fill-opacity: 1;"/></g><g class="text"/></g><g class="trace scatter trace467d0d" style="stroke-miterlimit: 2; opacity: 1;"><g class="fills"/><g class="errorbars"><g class="errorbar" style="opacity: 1;"><path class="yerror" d="M20.55,117.1h8m-4,0V123.12m-4,0h8" style="vector-effect: none; stroke-width: 1px; stroke: rgb(59, 146, 59); stroke-opacity: 1;"/></g><g class="errorbar" style="opacity: 1;"><path class="yerror" d="M104.11,118.56h8m-4,0V127.41m-4,0h8" style="vector-effect: none; stroke-width: 1px; stroke: rgb(59, 146, 59); stroke-opacity: 1;"/></g><g class="errorbar" style="opacity: 1;"><path class="yerror" d="M129,121.61h8m-4,0V133.22m-4,0h8" style="vector-effect: none; stroke-width: 1px; stroke: rgb(59, 146, 59); stroke-opacity: 1;"/></g><g class="errorbar" style="opacity: 1;"><path class="yerror" d="M213.45,131.16h8m-4,0V146.03m-4,0h8" style="vector-effect: none; stroke-width: 1px; stroke: rgb(59, 146, 59); stroke-opacity: 1;"/></g><g class="errorbar" style="opacity: 1;"><path class="yerror" d="M236.11,139.77h8m-4,0V146.49m-4,0h8" style="vector-effect: none; stroke-width: 1px; stroke: rgb(59, 146, 59); stroke-opacity: 1;"/></g><g class="errorbar" style="opacity: 1;"><path class="yerror" d="M320.56,124.35h8m-4,0V137.06m-4,0h8" style="vector-effect: none; stroke-width: 1px; stroke: rgb(59, 146, 59); stroke-opacity: 1;"/></g><g class="errorbar" style="opacity: 1;"><path class="yerror" d="M337.45,129.77h8m-4,0V151.24m-4,0h8" style="vector-effect: none; stroke-width: 1px; stroke: rgb(59, 146, 59); stroke-opacity: 1;"/></g></g><g class="lines"><path class="js-line" d="M24.55,119.78L108.11,122.28L133,126.22L217.45,136.67L240.11,142.72L324.56,129.28L341.45,136.67" style="vector-effect: none; fill: none; stroke: rgb(59, 146, 59); stroke-opacity: 1; stroke-width: 2px; opacity: 1;"/></g><g class="points"><path class="point" transform="translate(24.55,119.78)" d="M5,0A5,5 0 1,1 0,-5A5,5 0 0,1 5,0Z" style="opacity: 1; stroke-width: 0px; fill: rgb(59, 146, 59); fill-opacity: 1;"/><path class="point" transform="translate(108.11,122.28)" d="M5,0A5,5 0 1,1 0,-5A5,5 0 0,1 5,0Z" style="opacity: 1; stroke-width: 0px; fill: rgb(59, 146, 59); fill-opacity: 1;"/><path class="point" transform="translate(133,126.22)" d="M5,0A5,5 0 1,1 0,-5A5,5 0 0,1 5,0Z" style="opacity: 1; stroke-width: 0px; fill: rgb(59, 146, 59); fill-opacity: 1;"/><path class="point" transform="translate(217.45,136.67)" d="M5,0A5,5 0 1,1 0,-5A5,5 0 0,1 5,0Z" style="opacity: 1; stroke-width: 0px; fill: rgb(59, 146, 59); fill-opacity: 1;"/><path class="point" transform="translate(240.11,142.72)" d="M5,0A5,5 0 1,1 0,-5A5,5 0 0,1 5,0Z" style="opacity: 1; stroke-width: 0px; fill: rgb(59, 146, 59); fill-opacity: 1;"/><path class="point" transform="translate(324.56,129.28)" d="M5,0A5,5 0 1,1 0,-5A5,5 0 0,1 5,0Z" style="opacity: 1; stroke-width: 0px; fill: rgb(59, 146, 59); fill-opacity: 1;"/><path class="point" transform="translate(341.45,136.67)" d="M5,0A5,5 0 1,1 0,-5A5,5 0 0,1 5,0Z" style="opacity: 1; stroke-width: 0px; fill: rgb(59, 146, 59); fill-opacity: 1;"/></g><g class="text"/></g><g class="trace scatter traced5b61d" style="stroke-miterlimit: 2; opacity: 1;"><g class="fills"/><g class="errorbars"><g class="errorbar" style="opacity: 1;"><path class="yerror" d="M20.55,116.72h8m-4,0V116.72m-4,0h8" style="vector-effect: none; stroke-width: 1px; stroke: rgb(192, 61, 62); stroke-opacity: 1;"/></g><g class="errorbar" style="opacity: 1;"><path class="yerror" d="M104.11,117.27h8m-4,0V136.31m-4,0h8" style="vector-effect: none; stroke-width: 1px; stroke: rgb(192, 61, 62); stroke-opacity: 1;"/></g><g class="errorbar" style="opacity: 1;"><path class="yerror" d="M129,139.41h8m-4,0V152.11m-4,0h8" style="vector-effect: none; stroke-width: 1px; stroke: rgb(192, 61, 62); stroke-opacity: 1;"/></g><g class="errorbar" style="opacity: 1;"><path class="yerror" d="M213.45,128.63h8m-4,0V146.49m-4,0h8" style="vector-effect: none; stroke-width: 1px; stroke: rgb(192, 61, 62); stroke-opacity: 1;"/></g><g class="errorbar" style="opacity: 1;"><path class="yerror" d="M236.11,137.2h8m-4,0V147.11m-4,0h8" style="vector-effect: none; stroke-width: 1px; stroke: rgb(192, 61, 62); stroke-opacity: 1;"/></g><g class="errorbar" style="opacity: 1;"><path class="yerror" d="M320.56,126.98h8m-4,0V145.03m-4,0h8" style="vector-effect: none; stroke-width: 1px; stroke: rgb(192, 61, 62); stroke-opacity: 1;"/></g><g class="errorbar" style="opacity: 1;"><path class="yerror" d="M337.45,131.16h8m-4,0V146.03m-4,0h8" style="vector-effect: none; stroke-width: 1px; stroke: rgb(192, 61, 62); stroke-opacity: 1;"/></g></g><g class="lines"><path class="js-line" d="M24.55,116.72L108.11,123.72L133,144.34L217.45,134.84L240.11,141.28L324.56,133.22L341.45,136.67" style="vector-effect: none; fill: none; stroke: rgb(192, 61, 62); stroke-opacity: 1; stroke-width: 2px; opacity: 1;"/></g><g class="points"><path class="point" transform="translate(24.55,116.72)" d="M5,0A5,5 0 1,1 0,-5A5,5 0 0,1 5,0Z" style="opacity: 1; stroke-width: 0px; fill: rgb(192, 61, 62); fill-opacity: 1;"/><path class="point" transform="translate(108.11,123.72)" d="M5,0A5,5 0 1,1 0,-5A5,5 0 0,1 5,0Z" style="opacity: 1; stroke-width: 0px; fill: rgb(192, 61, 62); fill-opacity: 1;"/><path class="point" transform="translate(133,144.34)" d="M5,0A5,5 0 1,1 0,-5A5,5 0 0,1 5,0Z" style="opacity: 1; stroke-width: 0px; fill: rgb(192, 61, 62); fill-opacity: 1;"/><path class="point" transform="translate(217.45,134.84)" d="M5,0A5,5 0 1,1 0,-5A5,5 0 0,1 5,0Z" style="opacity: 1; stroke-width: 0px; fill: rgb(192, 61, 62); fill-opacity: 1;"/><path class="point" transform="translate(240.11,141.28)" d="M5,0A5,5 0 1,1 0,-5A5,5 0 0,1 5,0Z" style="opacity: 1; stroke-width: 0px; fill: rgb(192, 61, 62); fill-opacity: 1;"/><path class="point" transform="translate(324.56,133.22)" d="M5,0A5,5 0 1,1 0,-5A5,5 0 0,1 5,0Z" style="opacity: 1; stroke-width: 0px; fill: rgb(192, 61, 62); fill-opacity: 1;"/><path class="point" transform="translate(341.45,136.67)" d="M5,0A5,5 0 1,1 0,-5A5,5 0 0,1 5,0Z" style="opacity: 1; stroke-width: 0px; fill: rgb(192, 61, 62); fill-opacity: 1;"/></g><g class="text"/></g><g class="trace scatter trace9c11f9" style="stroke-miterlimit: 2; opacity: 1;"><g class="fills"/><g class="errorbars"><g class="errorbar" style="opacity: 1;"><path class="yerror" d="M20.55,105.65h8m-4,0V115.55m-4,0h8" style="vector-effect: none; stroke-width: 1px; stroke: rgb(50, 116, 161); stroke-opacity: 1;"/></g><g class="errorbar" style="opacity: 1;"><path class="yerror" d="M104.11,133.22h8m-4,0V148.28m-4,0h8" style="vector-effect: none; stroke-width: 1px; stroke: rgb(50, 116, 161); stroke-opacity: 1;"/></g><g class="errorbar" style="opacity: 1;"><path class="yerror" d="M129,148.28h8m-4,0V148.28m-4,0h8" style="vector-effect: none; stroke-width: 1px; stroke: rgb(50, 116, 161); stroke-opacity: 1;"/></g><g class="errorbar" style="opacity: 1;"><path class="yerror" d="M213.45,163.71h8m-4,0V169.74m-4,0h8" style="vector-effect: none; stroke-width: 1px; stroke: rgb(50, 116, 161); stroke-opacity: 1;"/></g><g class="errorbar" style="opacity: 1;"><path class="yerror" d="M236.11,165.62h8m-4,0V189.01m-4,0h8" style="vector-effect: none; stroke-width: 1px; stroke: rgb(50, 116, 161); stroke-opacity: 1;"/></g><g class="errorbar" style="opacity: 1;"><path class="yerror" d="M320.56,160.84h8m-4,0V170.33m-4,0h8" style="vector-effect: none; stroke-width: 1px; stroke: rgb(50, 116, 161); stroke-opacity: 1;"/></g><g class="errorbar" style="opacity: 1;"><path class="yerror" d="M337.45,165.19h8m-4,0V172.12m-4,0h8" style="vector-effect: none; stroke-width: 1px; stroke: rgb(50, 116, 161); stroke-opacity: 1;"/></g></g><g class="lines"><path class="js-line" d="M24.55,109.72L108.11,138.78L133,148.28L217.45,166.39L240.11,172.83L324.56,164.78L341.45,168.22" style="vector-effect: none; fill: none; stroke: rgb(50, 116, 161); stroke-opacity: 1; stroke-width: 2px; opacity: 1;"/></g><g class="points"><path class="point" transform="translate(24.55,109.72)" d="M5,0A5,5 0 1,1 0,-5A5,5 0 0,1 5,0Z" style="opacity: 1; stroke-width: 0px; fill: rgb(50, 116, 161); fill-opacity: 1;"/><path class="point" transform="translate(108.11,138.78)" d="M5,0A5,5 0 1,1 0,-5A5,5 0 0,1 5,0Z" style="opacity: 1; stroke-width: 0px; fill: rgb(50, 116, 161); fill-opacity: 1;"/><path class="point" transform="translate(133,148.28)" d="M5,0A5,5 0 1,1 0,-5A5,5 0 0,1 5,0Z" style="opacity: 1; stroke-width: 0px; fill: rgb(50, 116, 161); fill-opacity: 1;"/><path class="point" transform="translate(217.45,166.39)" d="M5,0A5,5 0 1,1 0,-5A5,5 0 0,1 5,0Z" style="opacity: 1; stroke-width: 0px; fill: rgb(50, 116, 161); fill-opacity: 1;"/><path class="point" transform="translate(240.11,172.83)" d="M5,0A5,5 0 1,1 0,-5A5,5 0 0,1 5,0Z" style="opacity: 1; stroke-width: 0px; fill: rgb(50, 116, 161); fill-opacity: 1;"/><path class="point" transform="translate(324.56,164.78)" d="M5,0A5,5 0 1,1 0,-5A5,5 0 0,1 5,0Z" style="opacity: 1; stroke-width: 0px; fill: rgb(50, 116, 161); fill-opacity: 1;"/><path class="point" transform="translate(341.45,168.22)" d="M5,0A5,5 0 1,1 0,-5A5,5 0 0,1 5,0Z" style="opacity: 1; stroke-width: 0px; fill: rgb(50, 116, 161); fill-opacity: 1;"/></g><g class="text"/></g></g></g></g><path class="xlines-above crisp" d="M53.5,314.25H420.5M53.5,29.75H420.5" style="fill: none; stroke-width: 0.5px; stroke: rgb(0, 0, 0); stroke-opacity: 1;"/><path class="ylines-above crisp" d="M53.75,30V314M420.25,30V314" style="fill: none; stroke-width: 0.5px; stroke: rgb(0, 0, 0); stroke-opacity: 1;"/><g class="overlines-above"/><g class="xaxislayer-above"><path class="xtick ticks crisp" d="M0,314v-5" transform="translate(78.55,0)" style="stroke: rgb(0, 0, 0); stroke-opacity: 1; stroke-width: 0.5px;"/><path class="xtick ticks crisp" d="M0,314v-5" transform="translate(167.44,0)" style="stroke: rgb(0, 0, 0); stroke-opacity: 1; stroke-width: 0.5px;"/><path class="xtick ticks crisp" d="M0,314v-5" transform="translate(256.33000000000004,0)" style="stroke: rgb(0, 0, 0); stroke-opacity: 1; stroke-width: 0.5px;"/><path class="xtick ticks crisp" d="M0,314v-5" transform="translate(345.23,0)" style="stroke: rgb(0, 0, 0); stroke-opacity: 1; stroke-width: 0.5px;"/><g class="xtick"><text text-anchor="middle" x="0" y="327.7" transform="translate(78.55,0)" style="font-family: 'Open Sans', verdana, arial, sans-serif; font-size: 11px; fill: rgb(0, 0, 0); fill-opacity: 1; white-space: pre; opacity: 1;">0</text></g><g class="xtick"><text text-anchor="middle" x="0" y="327.7" style="font-family: 'Open Sans', verdana, arial, sans-serif; font-size: 11px; fill: rgb(0, 0, 0); fill-opacity: 1; white-space: pre; opacity: 1;" transform="translate(167.44,0)">20</text></g><g class="xtick"><text text-anchor="middle" x="0" y="327.7" style="font-family: 'Open Sans', verdana, arial, sans-serif; font-size: 11px; fill: rgb(0, 0, 0); fill-opacity: 1; white-space: pre; opacity: 1;" transform="translate(256.33000000000004,0)">40</text></g><g class="xtick"><text text-anchor="middle" x="0" y="327.7" style="font-family: 'Open Sans', verdana, arial, sans-serif; font-size: 11px; fill: rgb(0, 0, 0); fill-opacity: 1; white-space: pre; opacity: 1;" transform="translate(345.23,0)">60</text></g></g><g class="yaxislayer-above"><path class="ytick ticks crisp" d="M54,0h5" transform="translate(0,282.44)" style="stroke: rgb(0, 0, 0); stroke-opacity: 1; stroke-width: 0.5px;"/><path class="ytick ticks crisp" d="M54,0h5" transform="translate(0,250.89)" style="stroke: rgb(0, 0, 0); stroke-opacity: 1; stroke-width: 0.5px;"/><path class="ytick ticks crisp" d="M54,0h5" transform="translate(0,219.33)" style="stroke: rgb(0, 0, 0); stroke-opacity: 1; stroke-width: 0.5px;"/><path class="ytick ticks crisp" d="M54,0h5" transform="translate(0,187.78)" style="stroke: rgb(0, 0, 0); stroke-opacity: 1; stroke-width: 0.5px;"/><path class="ytick ticks crisp" d="M54,0h5" transform="translate(0,156.22)" style="stroke: rgb(0, 0, 0); stroke-opacity: 1; stroke-width: 0.5px;"/><path class="ytick ticks crisp" d="M54,0h5" transform="translate(0,124.67)" style="stroke: rgb(0, 0, 0); stroke-opacity: 1; stroke-width: 0.5px;"/><path class="ytick ticks crisp" d="M54,0h5" transform="translate(0,93.11)" style="stroke: rgb(0, 0, 0); stroke-opacity: 1; stroke-width: 0.5px;"/><path class="ytick ticks crisp" d="M54,0h5" transform="translate(0,61.56)" style="stroke: rgb(0, 0, 0); stroke-opacity: 1; stroke-width: 0.5px;"/><g class="ytick"><text text-anchor="end" x="51.3" y="3.8499999999999996" transform="translate(0,314)" style="font-family: 'Open Sans', verdana, arial, sans-serif; font-size: 11px; fill: rgb(0, 0, 0); fill-opacity: 1; white-space: pre; opacity: 1;">1e+2</text></g><g class="ytick"><text text-anchor="end" x="51.3" y="3.8499999999999996" style="font-family: 'Open Sans', verdana, arial, sans-serif; font-size: 11px; fill: rgb(0, 0, 0); fill-opacity: 1; white-space: pre; opacity: 1;" transform="translate(0,282.44)">1e+3</text></g><g class="ytick"><text text-anchor="end" x="51.3" y="3.8499999999999996" style="font-family: 'Open Sans', verdana, arial, sans-serif; font-size: 11px; fill: rgb(0, 0, 0); fill-opacity: 1; white-space: pre; opacity: 1;" transform="translate(0,250.89)">1e+4</text></g><g class="ytick"><text text-anchor="end" x="51.3" y="3.8499999999999996" style="font-family: 'Open Sans', verdana, arial, sans-serif; font-size: 11px; fill: rgb(0, 0, 0); fill-opacity: 1; white-space: pre; opacity: 1;" transform="translate(0,219.33)">1e+5</text></g><g class="ytick"><text text-anchor="end" x="51.3" y="3.8499999999999996" style="font-family: 'Open Sans', verdana, arial, sans-serif; font-size: 11px; fill: rgb(0, 0, 0); fill-opacity: 1; white-space: pre; opacity: 1;" transform="translate(0,187.78)">1e+6</text></g><g class="ytick"><text text-anchor="end" x="51.3" y="3.8499999999999996" style="font-family: 'Open Sans', verdana, arial, sans-serif; font-size: 11px; fill: rgb(0, 0, 0); fill-opacity: 1; white-space: pre; opacity: 1;" transform="translate(0,156.22)">1e+7</text></g><g class="ytick"><text text-anchor="end" x="51.3" y="3.8499999999999996" style="font-family: 'Open Sans', verdana, arial, sans-serif; font-size: 11px; fill: rgb(0, 0, 0); fill-opacity: 1; white-space: pre; opacity: 1;" transform="translate(0,124.67)">1e+8</text></g><g class="ytick"><text text-anchor="end" x="51.3" y="3.8499999999999996" style="font-family: 'Open Sans', verdana, arial, sans-serif; font-size: 11px; fill: rgb(0, 0, 0); fill-opacity: 1; white-space: pre; opacity: 1;" transform="translate(0,93.11)">1e+9</text></g><g class="ytick"><text text-anchor="end" x="51.3" y="3.8499999999999996" style="font-family: 'Open Sans', verdana, arial, sans-serif; font-size: 11px; fill: rgb(0, 0, 0); fill-opacity: 1; white-space: pre; opacity: 1;" transform="translate(0,61.56)">1e+10</text></g><g class="ytick"><text text-anchor="end" x="51.3" y="3.8499999999999996" style="font-family: 'Open Sans', verdana, arial, sans-serif; font-size: 11px; fill: rgb(0, 0, 0); fill-opacity: 1; white-space: pre; opacity: 1;" transform="translate(0,30)">1e+11</text></g></g><g class="overaxes-above"/></g></g><g class="polarlayer"/><g class="smithlayer"/><g class="ternarylayer"/><g class="geolayer"/><g class="funnelarealayer"/><g class="pielayer"/><g class="iciclelayer"/><g class="treemaplayer"/><g class="sunburstlayer"/><g class="glimages"/><defs id="topdefs-8e7e49"><g class="clips"/><clipPath id="legend8e7e49"><rect width="61" height="116" x="0" y="0"/></clipPath></defs><g class="layer-above"><g class="imagelayer"/><g class="shapelayer"/></g><g class="infolayer"><g class="legend" pointer-events="all" transform="translate(427.32,30)"><rect class="bg" shape-rendering="crispEdges" width="61" height="116" x="0" y="0" style="stroke: rgb(68, 68, 68); stroke-opacity: 1; fill: rgb(255, 255, 255); fill-opacity: 1; stroke-width: 0px;"/><g class="scrollbox" transform="" clip-path="url(#legend8e7e49)"><g class="groups" transform=""><g class="traces" transform="translate(0,14.5)" style="opacity: 1;"><text class="legendtext" text-anchor="start" x="40" y="4.29" style="font-family: 'Open Sans', verdana, arial, sans-serif; font-size: 11px; fill: rgb(0, 0, 0); fill-opacity: 1; white-space: pre;">Ct</text><g class="layers" style="opacity: 1;"><g class="legendfill"/><g class="legendlines"><path class="js-line" d="M5,0h30" style="fill: none; stroke: rgb(225, 129, 44); stroke-opacity: 1; stroke-width: 2px;"/></g><g class="legendsymbols"><g class="legendpoints"><path class="scatterpts" transform="translate(20,0)" d="M5,0A5,5 0 1,1 0,-5A5,5 0 0,1 5,0Z" style="opacity: 1; stroke-width: 0px; fill: rgb(225, 129, 44); fill-opacity: 1;"/></g></g></g><rect class="legendtoggle" x="0" y="-9.5" width="55.1875" height="19" style="fill: rgb(0, 0, 0); fill-opacity: 0;"/></g></g><g class="groups" transform="translate(0,10)"><g class="traces" transform="translate(0,33.5)" style="opacity: 1;"><text class="legendtext" text-anchor="start" x="40" y="4.29" style="font-family: 'Open Sans', verdana, arial, sans-serif; font-size: 11px; fill: rgb(0, 0, 0); fill-opacity: 1; white-space: pre;">At</text><g class="layers" style="opacity: 1;"><g class="legendfill"/><g class="legendlines"><path class="js-line" d="M5,0h30" style="fill: none; stroke: rgb(59, 146, 59); stroke-opacity: 1; stroke-width: 2px;"/></g><g class="legendsymbols"><g class="legendpoints"><path class="scatterpts" transform="translate(20,0)" d="M5,0A5,5 0 1,1 0,-5A5,5 0 0,1 5,0Z" style="opacity: 1; stroke-width: 0px; fill: rgb(59, 146, 59); fill-opacity: 1;"/></g></g></g><rect class="legendtoggle" x="0" y="-9.5" width="55.1875" height="19" style="fill: rgb(0, 0, 0); fill-opacity: 0;"/></g></g><g class="groups" transform="translate(0,20)"><g class="traces" transform="translate(0,52.5)" style="opacity: 1;"><text class="legendtext" text-anchor="start" x="40" y="4.29" style="font-family: 'Open Sans', verdana, arial, sans-serif; font-size: 11px; fill: rgb(0, 0, 0); fill-opacity: 1; white-space: pre;">Oa</text><g class="layers" style="opacity: 1;"><g class="legendfill"/><g class="legendlines"><path class="js-line" d="M5,0h30" style="fill: none; stroke: rgb(192, 61, 62); stroke-opacity: 1; stroke-width: 2px;"/></g><g class="legendsymbols"><g class="legendpoints"><path class="scatterpts" transform="translate(20,0)" d="M5,0A5,5 0 1,1 0,-5A5,5 0 0,1 5,0Z" style="opacity: 1; stroke-width: 0px; fill: rgb(192, 61, 62); fill-opacity: 1;"/></g></g></g><rect class="legendtoggle" x="0" y="-9.5" width="55.1875" height="19" style="fill: rgb(0, 0, 0); fill-opacity: 0;"/></g></g><g class="groups" transform="translate(0,30)"><g class="traces" transform="translate(0,71.5)" style="opacity: 1;"><text class="legendtext" text-anchor="start" x="40" y="4.29" style="font-family: 'Open Sans', verdana, arial, sans-serif; font-size: 11px; fill: rgb(0, 0, 0); fill-opacity: 1; white-space: pre;">Ms</text><g class="layers" style="opacity: 1;"><g class="legendfill"/><g class="legendlines"><path class="js-line" d="M5,0h30" style="fill: none; stroke: rgb(50, 116, 161); stroke-opacity: 1; stroke-width: 2px;"/></g><g class="legendsymbols"><g class="legendpoints"><path class="scatterpts" transform="translate(20,0)" d="M5,0A5,5 0 1,1 0,-5A5,5 0 0,1 5,0Z" style="opacity: 1; stroke-width: 0px; fill: rgb(50, 116, 161); fill-opacity: 1;"/></g></g></g><rect class="legendtoggle" x="0" y="-9.5" width="55.1875" height="19" style="fill: rgb(0, 0, 0); fill-opacity: 0;"/></g></g></g><rect class="scrollbar" rx="20" ry="3" width="0" height="0" x="0" y="0" style="fill: rgb(128, 139, 164); fill-opacity: 1;"/></g><g class="g-gtitle"><text class="gtitle" x="25" y="15" text-anchor="start" dy="0em" style="opacity: 1; font-family: 'Open Sans', verdana, arial, sans-serif; font-size: 11px; fill: rgb(0, 0, 0); fill-opacity: 1; white-space: pre;">No carbon source</text></g><g class="g-xtitle" transform="translate(0,4.550000000000011)"><text class="xtitle" x="237" y="338.153125" text-anchor="middle" style="opacity: 1; font-family: 'Open Sans', verdana, arial, sans-serif; font-size: 11px; fill: rgb(0, 0, 0); fill-opacity: 1; white-space: pre;">Time [h]</text></g><g class="g-ytitle"><text class="ytitle" transform="rotate(-90,16.36875,172)" x="16.36875" y="172" text-anchor="middle" style="opacity: 1; font-family: 'Open Sans', verdana, arial, sans-serif; font-size: 11px; fill: rgb(0, 0, 0); fill-opacity: 1; white-space: pre;">CFUs/mL</text></g></g></svg>