<svg class="main-svg" xmlns="http://www.w3.org/2000/svg" xmlns:xlink="http://www.w3.org/1999/xlink" width="357.14285714285717" height="228.57142857142858" style="" viewBox="0 0 357.14285714285717 228.57142857142858"><rect x="0" y="0" width="357.14285714285717" height="228.57142857142858" style="fill: rgb(153, 153, 153); fill-opacity: 1;"/><defs id="defs-2ed942"><g class="clips"><clipPath id="clip2ed942xyplot" class="plotclip"><rect width="228" height="159"/></clipPath><clipPath class="axesclip" id="clip2ed942x"><rect x="40" y="0" width="228" height="228.57142857142858"/></clipPath><clipPath class="axesclip" id="clip2ed942y"><rect x="0" y="20" width="357.14285714285717" height="159"/></clipPath><clipPath class="axesclip" id="clip2ed942xy"><rect x="40" y="20" width="228" height="159"/></clipPath></g><g class="gradients"/><g class="patterns"/></defs><g class="bglayer"/><g class="layer-below"><g class="imagelayer"/><g class="shapelayer"/></g><g class="cartesianlayer"><g class="subplot xy"><g class="layer-subplot"><g class="shapelayer"/><g class="imagelayer"/></g><g class="minor-gridlayer"><g class="x"/><g class="y"/></g><g class="gridlayer"><g class="x"><path class="xgrid crisp" transform="translate(154,0)" d="M0,20v159" style="stroke: rgb(0, 0, 0); stroke-opacity: 1; stroke-width: 1px;"/></g><g class="y"><path class="ygrid crisp" transform="translate(0,164.02)" d="M40,0h228" style="stroke: rgb(0, 0, 0); stroke-opacity: 1; stroke-width: 1px;"/><path class="ygrid crisp" transform="translate(0,117.82)" d="M40,0h228" style="stroke: rgb(0, 0, 0); stroke-opacity: 1; stroke-width: 1px;"/><path class="ygrid crisp" transform="translate(0,71.62)" d="M40,0h228" style="stroke: rgb(0, 0, 0); stroke-opacity: 1; stroke-width: 1px;"/><path class="ygrid crisp" transform="translate(0,25.42)" d="M40,0h228" style="stroke: rgb(0, 0, 0); stroke-opacity: 1; stroke-width: 1px;"/></g></g><g class="zerolinelayer"><path class="xzl zl crisp" transform="translate(40,0)" d="M0,20v159" style="stroke: rgb(0, 0, 0); stroke-opacity: 1; stroke-width: 1px;"/></g><g class="layer-between"><g class="shapelayer"/><g class="imagelayer"/></g><path class="xlines-below"/><path class="ylines-below"/><g class="overlines-below"/><g class="xaxislayer-below"/><g class="yaxislayer-below"/><g class="overaxes-below"/><g class="overplot"><g class="xy" transform="translate(40,20)" clip-path="url(#clip2ed942xyplot)"><g class="scatterlayer mlayer"><g class="trace scatter trace6ba5d1" style="stroke-miterlimit: 2; opacity: 1;"><g class="fills"/><g class="errorbars"/><g class="lines"><path class="js-line" d="M22.82,139.75L26.63,137.93L30.43,132.95L34.24,131.03L38.04,125.74L41.84,127.68L45.65,126.34L49.45,125.65L53.25,123.53L57.06,120.56L60.86,113.2L68.47,114.22L72.27,113.38L76.08,103.61L79.88,110.05L83.69,104.01L87.49,101.95L91.29,101.69L95.1,97.95L98.9,93.66L102.7,91.94L106.51,90.45L110.31,85.32L114.12,80.14L117.92,81.14L125.53,76.07L129.33,72.14L140.74,64.15L144.55,65.7L148.35,68.77L152.16,73.92L159.76,79.93L163.57,81.61L167.37,84.45L171.17,88.78L174.98,98.4L178.78,91.11L182.59,98.16L186.39,102.69L190.19,104.26L194,105.01L197.8,110.31L201.6,109.79L205.41,111.51L209.21,118.17L213.02,116.49L216.82,117.03L224.43,118.68" style="vector-effect: none; fill: none; stroke: rgb(79, 79, 79); stroke-opacity: 1; stroke-width: 1.5px; opacity: 1;"/></g><g class="points"/><g class="text"/></g><g class="trace scatter trace85248b" style="stroke-miterlimit: 2; opacity: 1;"><g class="fills"/><g class="errorbars"/><g class="lines"><path class="js-line" d="M22.82,151.01L26.63,151.05L30.43,149.16L34.24,148.91L38.04,147.37L41.84,148.67L45.65,145.75L53.25,135.93L57.06,129.48L60.86,121.66L64.67,118.73L72.27,110.16L76.08,112.81L79.88,105.14L83.69,99.83L91.29,90.97L95.1,91.01L102.7,83.96L106.51,78.74L114.12,65.87L117.92,62.46L121.72,56.27L125.53,52.57L133.13,59.34L136.94,60.55L140.74,64.82L144.55,66.71L148.35,69.02L152.15,7.95L155.96,67.55L159.76,75.73L163.57,82.11L167.37,84.79L174.98,97.43L178.78,97.28L182.59,95.43L186.39,101.19L197.8,124.38L201.6,124.01L209.21,126.61L213.02,133.36L216.82,134.78L220.62,142.64L224.43,144.49" style="vector-effect: none; fill: none; stroke: rgb(79, 79, 79); stroke-opacity: 1; stroke-width: 1.5px; opacity: 1;"/></g><g class="points"/><g class="text"/></g><g class="trace scatter trace4e1b36" style="stroke-miterlimit: 2; opacity: 1;"><g class="fills"/><g class="errorbars"/><g class="lines"><path class="js-line" d="M22.82,128.78L26.63,123.01L30.43,119.56L38.04,111.4L41.84,108.42L45.65,109.5L49.45,105.81L53.26,101.27L57.06,99.34L60.86,96.67L64.67,93.07L68.47,89.34L72.27,87.17L76.08,85.53L79.88,82.06L83.69,79.7L87.49,76.2L91.29,73.03L95.1,70.83L98.9,69.45L102.71,66.91L106.51,65.87L110.31,63.94L114.12,61.37L117.92,60.86L125.53,56.27L129.33,54.97L133.14,50.96L136.94,52.36L140.74,53.12L144.55,45.26L148.35,42.37L152.16,40.83L159.76,51.56L163.57,49.75L167.37,53.21L171.17,54.73L174.98,55.91L178.78,59.2L190.19,62.75L194,61.69L197.8,62.33L201.61,64.99L209.21,65.03L213.02,66.18L220.63,68.33L224.43,68.45" style="vector-effect: none; fill: none; stroke: rgb(79, 79, 79); stroke-opacity: 1; stroke-width: 1.5px; opacity: 1;"/></g><g class="points"/><g class="text"/></g><g class="trace scatter trace10599e" style="stroke-miterlimit: 2; opacity: 1;"><g class="fills"/><g class="errorbars"/><g class="lines"><path class="js-line" d="M0,144.02L13.96,133.91L18.61,130.1L32.57,117.19L37.22,112.35L51.18,96.19L55.84,90.26L83.76,53.34L88.41,49.33L93.06,47.19L97.71,46.64L111.67,47.92L116.33,48.49L172.16,54.59L176.82,55.04L228,59.38" style="vector-effect: none; fill: none; stroke: rgb(79, 79, 79); stroke-opacity: 1; stroke-dasharray: 9px, 9px; stroke-width: 1.5px; opacity: 1;"/></g><g class="points"/><g class="text"/></g></g></g></g><path class="xlines-above crisp" d="M0,0" style="fill: none;"/><path class="ylines-above crisp" d="M0,0" style="fill: none;"/><g class="overlines-above"/><g class="xaxislayer-above"><g class="xtick"><text text-anchor="middle" x="0" y="194" transform="translate(40,0)" style="font-family: 'Open Sans', verdana, arial, sans-serif; font-size: 14px; fill: rgb(0, 0, 0); fill-opacity: 1; white-space: pre; opacity: 1;">0</text></g><g class="xtick"><text text-anchor="middle" x="0" y="194" style="font-family: 'Open Sans', verdana, arial, sans-serif; font-size: 14px; fill: rgb(0, 0, 0); fill-opacity: 1; white-space: pre; opacity: 1;" transform="translate(154,0)">5</text></g><g class="xtick"><text text-anchor="middle" x="0" y="194" style="font-family: 'Open Sans', verdana, arial, sans-serif; font-size: 14px; fill: rgb(0, 0, 0); fill-opacity: 1; white-space: pre; opacity: 1;" transform="translate(268,0)">10</text></g></g><g class="yaxislayer-above"><g class="ytick"><text text-anchor="end" x="39" y="4.8999999999999995" transform="translate(0,164.02)" style="font-family: 'Open Sans', verdana, arial, sans-serif; font-size: 14px; fill: rgb(0, 0, 0); fill-opacity: 1; white-space: pre; opacity: 1;">0.1</text></g><g class="ytick"><text text-anchor="end" x="39" y="4.8999999999999995" style="font-family: 'Open Sans', verdana, arial, sans-serif; font-size: 14px; fill: rgb(0, 0, 0); fill-opacity: 1; white-space: pre; opacity: 1;" transform="translate(0,117.82)">0.2</text></g><g class="ytick"><text text-anchor="end" x="39" y="4.8999999999999995" style="font-family: 'Open Sans', verdana, arial, sans-serif; font-size: 14px; fill: rgb(0, 0, 0); fill-opacity: 1; white-space: pre; opacity: 1;" transform="translate(0,71.62)">0.3</text></g><g class="ytick"><text text-anchor="end" x="39" y="4.8999999999999995" style="font-family: 'Open Sans', verdana, arial, sans-serif; font-size: 14px; fill: rgb(0, 0, 0); fill-opacity: 1; white-space: pre; opacity: 1;" transform="translate(0,25.42)">0.4</text></g></g><g class="overaxes-above"/></g></g><g class="polarlayer"/><g class="smithlayer"/><g class="ternarylayer"/><g class="geolayer"/><g class="funnelarealayer"/><g class="pielayer"/><g class="iciclelayer"/><g class="treemaplayer"/><g class="sunburstlayer"/><g class="glimages"/><defs id="topdefs-2ed942"><g class="clips"/><clipPath id="legend2ed942"><rect width="84" height="53" x="0" y="0"/></clipPath></defs><g class="layer-above"><g class="imagelayer"/><g class="shapelayer"/></g><g class="infolayer"><g class="legend" pointer-events="all" transform="translate(272.56,20)"><rect class="bg" shape-rendering="crispEdges" width="84" height="53" x="0" y="0" style="stroke: rgb(68, 68, 68); stroke-opacity: 1; fill: rgb(153, 153, 153); fill-opacity: 1; stroke-width: 0px;"/><g class="scrollbox" transform="" clip-path="url(#legend2ed942)"><g class="groups"><g class="traces" transform="translate(0,15.6)" style="opacity: 1;"><text class="legendtext" text-anchor="start" x="40" y="5.46" style="font-family: 'Open Sans', verdana, arial, sans-serif; font-size: 14px; fill: rgb(0, 0, 0); fill-opacity: 1; white-space: pre;">OD</text><g class="layers" style="opacity: 1;"><g class="legendfill"/><g class="legendlines"><path class="js-line" d="M5,0h30" style="fill: none; stroke: rgb(79, 79, 79); stroke-opacity: 1; stroke-width: 1.5px;"/></g><g class="legendsymbols"><g class="legendpoints"/></g></g><rect class="legendtoggle" x="0" y="-10.6" width="78.140625" height="21.2" style="fill: rgb(0, 0, 0); fill-opacity: 0;"/></g><g class="traces" transform="translate(0,36.8)" style="opacity: 1;"><text class="legendtext" text-anchor="start" x="40" y="5.46" style="font-family: 'Open Sans', verdana, arial, sans-serif; font-size: 14px; fill: rgb(0, 0, 0); fill-opacity: 1; white-space: pre;">Model</text><g class="layers" style="opacity: 1;"><g class="legendfill"/><g class="legendlines"><path class="js-line" d="M5,0h30" style="fill: none; stroke: rgb(79, 79, 79); stroke-opacity: 1; stroke-dasharray: 9px, 9px; stroke-width: 1.5px;"/></g><g class="legendsymbols"><g class="legendpoints"/></g></g><rect class="legendtoggle" x="0" y="-10.6" width="78.140625" height="21.2" style="fill: rgb(0, 0, 0); fill-opacity: 0;"/></g></g></g><rect class="scrollbar" rx="20" ry="3" width="0" height="0" x="0" y="0" style="fill: rgb(128, 139, 164); fill-opacity: 1;"/></g><g class="g-gtitle"><text class="gtitle" x="17.857142857142858" y="10" text-anchor="start" dy="0em" style="opacity: 1; font-family: 'Open Sans', verdana, arial, sans-serif; font-size: 14px; fill: rgb(0, 0, 0); fill-opacity: 1; white-space: pre;">D = 0.1 [1/h]</text></g><g class="g-xtitle" transform="translate(0,3.6999999999999886)"><text class="xtitle" x="154" y="206.3" text-anchor="middle" style="opacity: 1; font-family: 'Open Sans', verdana, arial, sans-serif; font-size: 14px; fill: rgb(0, 0, 0); fill-opacity: 1; white-space: pre;">Time [h]</text></g><g class="g-ytitle"><text class="ytitle" transform="rotate(-90,15.131250000000001,99.5)" x="15.131250000000001" y="99.5" text-anchor="middle" style="opacity: 1; font-family: 'Open Sans', verdana, arial, sans-serif; font-size: 14px; fill: rgb(0, 0, 0); fill-opacity: 1; white-space: pre;">OD</text></g><g class="annotation" data-index="0" style="opacity: 1;"><g class="annotation-text-g" transform="rotate(0,154,10)"><g class="cursor-pointer" transform="translate(142,0)"><rect class="bg" x="0.5" y="0.5" width="24" height="19" style="stroke-width: 1px; stroke: rgb(0, 0, 0); stroke-opacity: 0; fill: rgb(0, 0, 0); fill-opacity: 0;"/><text class="annotation-text" text-anchor="middle" x="12.5" y="15" style="font-family: 'Open Sans', verdana, arial, sans-serif; font-size: 14px; fill: rgb(0, 0, 0); fill-opacity: 1; white-space: pre;">OD</text></g></g></g></g></svg>