<svg class="main-svg" xmlns="http://www.w3.org/2000/svg" xmlns:xlink="http://www.w3.org/1999/xlink" width="300" height="250" style="" viewBox="0 0 300 250"><rect x="0" y="0" width="300" height="250" style="fill: rgb(255, 255, 255); fill-opacity: 1;"/><defs id="defs-c1dac1"><g class="clips"><clipPath id="clipc1dac1xyplot" class="plotclip"><rect width="202" height="180"/></clipPath><clipPath class="axesclip" id="clipc1dac1x"><rect x="40" y="0" width="202" height="250"/></clipPath><clipPath class="axesclip" id="clipc1dac1y"><rect x="0" y="20" width="300" height="180"/></clipPath><clipPath class="axesclip" id="clipc1dac1xy"><rect x="40" y="20" width="202" height="180"/></clipPath></g><g class="gradients"/><g class="patterns"/></defs><g class="bglayer"/><g class="layer-below"><g class="imagelayer"/><g class="shapelayer"/></g><g class="cartesianlayer"><g class="subplot xy"><g class="layer-subplot"><g class="shapelayer"/><g class="imagelayer"/></g><g class="minor-gridlayer"><g class="x"/><g class="y"/></g><g class="gridlayer"><g class="x"><path class="xgrid crisp" transform="translate(61.41,0)" d="M0,20v180" style="stroke: rgb(0, 0, 0); stroke-opacity: 1; stroke-width: 0.5px;"/><path class="xgrid crisp" transform="translate(82.82,0)" d="M0,20v180" style="stroke: rgb(0, 0, 0); stroke-opacity: 1; stroke-width: 0.5px;"/><path class="xgrid crisp" transform="translate(104.22,0)" d="M0,20v180" style="stroke: rgb(0, 0, 0); stroke-opacity: 1; stroke-width: 0.5px;"/><path class="xgrid crisp" transform="translate(125.63,0)" d="M0,20v180" style="stroke: rgb(0, 0, 0); stroke-opacity: 1; stroke-width: 0.5px;"/><path class="xgrid crisp" transform="translate(147.04000000000002,0)" d="M0,20v180" style="stroke: rgb(0, 0, 0); stroke-opacity: 1; stroke-width: 0.5px;"/><path class="xgrid crisp" transform="translate(168.45,0)" d="M0,20v180" style="stroke: rgb(0, 0, 0); stroke-opacity: 1; stroke-width: 0.5px;"/><path class="xgrid crisp" transform="translate(189.86,0)" d="M0,20v180" style="stroke: rgb(0, 0, 0); stroke-opacity: 1; stroke-width: 0.5px;"/><path class="xgrid crisp" transform="translate(211.26,0)" d="M0,20v180" style="stroke: rgb(0, 0, 0); stroke-opacity: 1; stroke-width: 0.5px;"/><path class="xgrid crisp" transform="translate(232.67,0)" d="M0,20v180" style="stroke: rgb(0, 0, 0); stroke-opacity: 1; stroke-width: 0.5px;"/></g><g class="y"><path class="ygrid crisp" transform="translate(0,172.31)" d="M40,0h202" style="stroke: rgb(0, 0, 0); stroke-opacity: 1; stroke-width: 0.5px;"/><path class="ygrid crisp" transform="translate(0,144.62)" d="M40,0h202" style="stroke: rgb(0, 0, 0); stroke-opacity: 1; stroke-width: 0.5px;"/><path class="ygrid crisp" transform="translate(0,116.92)" d="M40,0h202" style="stroke: rgb(0, 0, 0); stroke-opacity: 1; stroke-width: 0.5px;"/><path class="ygrid crisp" transform="translate(0,89.23)" d="M40,0h202" style="stroke: rgb(0, 0, 0); stroke-opacity: 1; stroke-width: 0.5px;"/><path class="ygrid crisp" transform="translate(0,61.54)" d="M40,0h202" style="stroke: rgb(0, 0, 0); stroke-opacity: 1; stroke-width: 0.5px;"/><path class="ygrid crisp" transform="translate(0,33.85)" d="M40,0h202" style="stroke: rgb(0, 0, 0); stroke-opacity: 1; stroke-width: 0.5px;"/></g></g><g class="zerolinelayer"><path class="xzl zl crisp" transform="translate(40,0)" d="M0,20v180" style="stroke: rgb(0, 0, 0); stroke-opacity: 1; stroke-width: 0.5px;"/><path class="yzl zl crisp" transform="translate(0,200)" d="M40,0h202" style="stroke: rgb(0, 0, 0); stroke-opacity: 1; stroke-width: 0.5px;"/></g><g class="layer-between"><g class="shapelayer"/><g class="imagelayer"/></g><path class="xlines-below"/><path class="ylines-below"/><g class="overlines-below"/><g class="xaxislayer-below"/><g class="yaxislayer-below"/><g class="overaxes-below"/><g class="overplot"><g class="xy" transform="translate(40,20)" clip-path="url(#clipc1dac1xyplot)"><g class="scatterlayer mlayer"><g class="trace scatter trace41afad" style="stroke-miterlimit: 2; opacity: 1;"><g class="fills"/><g class="errorbars"/><g class="lines"><path class="js-line" d="M1.3,180.69L13.34,179.68L14.68,179.54L18.69,178.52L20.03,177.23L22.71,174.74L24.05,172.25L28.06,155.72L29.4,153.65L32.07,148.11L33.41,144.09L37.43,130.38L38.76,121.8L40.1,119.68L41.44,114.69L42.78,111.92L44.12,106.89L46.79,87.83L48.13,83.58L49.47,78.28L50.81,69.83L53.48,61.98L54.82,56.17L56.16,57.18L57.5,54.78L58.83,44.45L60.17,41.4L61.51,43.48L62.85,36.88L64.19,30.37L65.52,33L66.86,29.4L68.2,31.43L69.54,18.92L70.88,15.46L72.21,14.49L73.55,14.54L77.57,19.11L78.9,20.08L80.24,19.38L81.58,25.11L84.26,21.42L85.59,24.92L86.93,24.46L88.27,26.72L89.61,30.51L90.95,27.69L92.28,28.25L93.62,27.09L94.96,29.91L96.3,28.57L97.64,29.4L98.97,26.4L100.31,31.66L101.65,31.43L102.99,28.15L104.33,28.29L107,28.89L108.34,32.49L109.68,27.97L111.02,28.15L113.69,28.2L115.03,30.97L116.37,30.55L117.71,29.17L119.04,30.69L120.38,24.51L123.06,30.32L124.4,29.91L127.07,36.6L128.41,32.31L129.75,35.95L131.09,34.66L133.76,33.14L135.1,38.4L136.44,43.25L137.78,43.29L139.11,43.94L140.45,46.66L141.79,43.89L143.13,45.05L144.47,46.98L145.8,45.83L147.14,47.26L148.48,47.4L149.82,47.68L151.16,52.02L152.49,49.8L153.83,52.89L155.17,54.83L156.51,54.28L157.85,56.35L159.18,54.97L160.52,55.52L161.86,57.51L163.2,60L164.54,59.72L165.87,61.11L167.21,59.86L168.55,58.8L169.89,61.15L171.23,64.2L172.56,62.26L173.9,64.66L175.24,64.98L176.58,63.97L177.92,64.15L179.25,65.91L180.59,66L184.61,68.54L185.94,67.94L187.28,69.23L188.62,72.97L189.96,69.55L191.3,70.94L192.63,71.91L193.97,75.6L195.31,74.49L196.65,75.74L197.99,77.49L199.32,76.66L202,77.35" style="vector-effect: none; fill: none; stroke: rgb(117, 112, 179); stroke-opacity: 1; stroke-width: 1.7px; opacity: 1;"/></g><g class="points"/><g class="text"/></g><g class="trace scatter tracea90cef" style="stroke-miterlimit: 2; opacity: 1;"><g class="fills"/><g class="errorbars"/><g class="lines"><path class="js-line" d="M1.3,180.14L14.68,178.98L16.02,178.57L18.69,178.11L20.03,176.95L24.05,172.25L25.38,168.37L28.06,155.31L29.4,150.32L33.41,142.29L34.75,134.26L37.43,122.63L38.76,107.68L40.1,108.46L41.44,103.62L42.78,102.51L44.12,99.28L46.79,83.12L48.13,78.88L49.47,74.82L50.81,67.48L53.48,62.26L54.82,56.58L56.16,56.63L57.5,54.23L60.17,42.09L61.51,43.06L64.19,32.72L65.52,33.97L66.86,29.95L68.2,29.77L69.54,21L70.88,19.2L72.21,18.51L73.55,18.69L74.89,22.43L76.23,23.26L77.57,25.06L78.9,23.82L80.24,22.15L81.58,28.85L84.26,23.35L85.59,27.55L86.93,27.37L88.27,29.22L89.61,34.52L90.95,30.88L92.28,30.6L93.62,28.75L94.96,32.82L96.3,31.06L97.64,31.48L98.97,27.37L100.31,33.88L101.65,34.06L102.99,29.26L104.33,29.26L105.66,29.26L107,30.14L108.34,34.02L109.68,27.42L111.02,27.88L112.35,27.51L113.69,28.06L115.03,31.94L117.71,29.03L119.04,30.69L120.38,19.66L121.72,26.58L127.07,32.86L128.41,28.57L129.75,32.91L131.09,29.54L132.42,26.91L133.76,20.68L135.1,32.45L136.44,36.88L137.78,39L139.11,30.09L140.45,36L141.79,26.17L143.13,35.22L144.47,35.63L145.8,34.34L147.14,35.22L149.82,39.23L151.16,46.75L152.49,36.23L153.83,43.62L155.17,44.72L156.51,42.65L157.85,47.49L159.18,46.94L160.52,44.17L161.86,46.02L163.2,50.17L164.54,50.17L167.21,54.18L168.55,51.74L171.23,58.8L172.56,56.17L175.24,58.48L176.58,57.46L177.92,57.78L179.25,60.78L180.59,60.88L181.93,61.85L183.27,62.82L184.61,65.49L185.94,64.2L187.28,66.05L188.62,70.2L189.96,66.51L191.3,67.48L192.63,69.69L193.97,73.94L195.31,72.42L197.99,75.97L199.32,74.72L202,74.72" style="vector-effect: none; fill: none; stroke: rgb(117, 112, 179); stroke-opacity: 1; stroke-width: 1.7px; opacity: 1;"/></g><g class="points"/><g class="text"/></g><g class="trace scatter trace2bbcdc" style="stroke-miterlimit: 2; opacity: 1;"><g class="fills"/><g class="errorbars"/><g class="lines"><path class="js-line" d="M1.3,180.83L14.68,179.82L16.02,179.26L20.03,177.92L21.37,176.58L22.71,175.85L24.05,173.63L25.38,171.55L26.72,165.28L29.4,153.65L30.74,149.35L32.07,147.69L33.41,144.23L36.09,130.38L37.43,126.23L38.76,114.18L40.1,113.17L42.78,105.28L44.12,102.32L46.79,86.03L48.13,82.06L52.14,67.94L53.48,64.75L54.82,59.08L56.16,58.85L57.5,57.14L58.83,48.32L60.17,45.42L61.51,45.97L64.19,36.05L65.52,36.88L66.86,32.45L68.2,33.09L70.88,21.97L72.21,21.28L77.57,26.03L78.9,27.83L80.24,23.12L81.58,29.82L84.26,24.05L85.59,28.38L86.93,28.48L88.27,30.32L89.61,35.22L90.95,31.71L92.28,31.43L93.62,30.14L94.96,34.2L96.3,32.31L97.64,33.14L98.97,29.17L100.31,36.23L101.65,36.55L102.99,31.2L104.33,31.48L105.66,30.92L107,31.94L108.34,37.2L109.68,29.91L112.35,29.45L113.69,30.28L115.03,34.43L116.37,33.05L117.71,32.22L119.04,33.18L120.38,23.12L121.72,28.25L123.06,30.6L124.4,30.88L127.07,35.63L128.41,29.4L129.75,35.4L131.09,31.06L132.42,30.37L133.76,26.35L135.1,34.8L136.44,38.4L137.78,41.63L139.11,32.72L140.45,39.05L141.79,28.25L143.13,37.57L144.47,36.6L145.8,33.37L147.14,37.98L148.48,37.02L149.82,37.02L151.16,43.15L152.49,36.92L153.83,44.45L155.17,46.25L156.51,43.2L157.85,47.08L160.52,42.23L161.86,42.97L163.2,47.95L164.54,46.98L165.87,49.75L167.21,50.58L168.55,47.45L169.89,47.72L171.23,55.2L172.56,56.17L175.24,59.03L176.58,55.25L179.25,59.26L180.59,58.8L183.27,60.74L184.61,63.42L185.94,61.71L187.28,62.86L188.62,67.43L189.96,62.91L191.3,63.88L192.63,66.09L193.97,70.06L195.31,68.95L196.65,69.92L197.99,72.51L199.32,71.4L200.66,71.68L202,72.65" style="vector-effect: none; fill: none; stroke: rgb(117, 112, 179); stroke-opacity: 1; stroke-width: 1.7px; opacity: 1;"/></g><g class="points"/><g class="text"/></g><g class="trace scatter trace145f80" style="stroke-miterlimit: 2; opacity: 1;"><g class="fills"/><g class="errorbars"/><g class="lines"><path class="js-line" d="M13.34,179.71L18.69,178.41L20.03,177.57L22.71,174.32L24.05,171.33L26.72,159.76" style="vector-effect: none; fill: none; stroke: rgb(0, 0, 0); stroke-opacity: 1; stroke-dasharray: 3px, 3px; stroke-width: 1.7px; opacity: 1;"/></g><g class="points"/><g class="text"/></g></g></g></g><path class="xlines-above crisp" d="M0,0" style="fill: none;"/><path class="ylines-above crisp" d="M0,0" style="fill: none;"/><g class="overlines-above"/><g class="xaxislayer-above"><g class="xtick"><text text-anchor="middle" x="0" y="209" transform="translate(40,0)" style="font-family: 'Open Sans', verdana, arial, sans-serif; font-size: 8px; fill: rgb(0, 0, 0); fill-opacity: 1; white-space: pre; opacity: 1;">0</text></g><g class="xtick"><text text-anchor="middle" x="0" y="209" style="font-family: 'Open Sans', verdana, arial, sans-serif; font-size: 8px; fill: rgb(0, 0, 0); fill-opacity: 1; white-space: pre; opacity: 1;" transform="translate(61.41,0)">8</text></g><g class="xtick"><text text-anchor="middle" x="0" y="209" style="font-family: 'Open Sans', verdana, arial, sans-serif; font-size: 8px; fill: rgb(0, 0, 0); fill-opacity: 1; white-space: pre; opacity: 1;" transform="translate(82.82,0)">16</text></g><g class="xtick"><text text-anchor="middle" x="0" y="209" style="font-family: 'Open Sans', verdana, arial, sans-serif; font-size: 8px; fill: rgb(0, 0, 0); fill-opacity: 1; white-space: pre; opacity: 1;" transform="translate(104.22,0)">24</text></g><g class="xtick"><text text-anchor="middle" x="0" y="209" style="font-family: 'Open Sans', verdana, arial, sans-serif; font-size: 8px; fill: rgb(0, 0, 0); fill-opacity: 1; white-space: pre; opacity: 1;" transform="translate(125.63,0)">32</text></g><g class="xtick"><text text-anchor="middle" x="0" y="209" style="font-family: 'Open Sans', verdana, arial, sans-serif; font-size: 8px; fill: rgb(0, 0, 0); fill-opacity: 1; white-space: pre; opacity: 1;" transform="translate(147.04000000000002,0)">40</text></g><g class="xtick"><text text-anchor="middle" x="0" y="209" style="font-family: 'Open Sans', verdana, arial, sans-serif; font-size: 8px; fill: rgb(0, 0, 0); fill-opacity: 1; white-space: pre; opacity: 1;" transform="translate(168.45,0)">48</text></g><g class="xtick"><text text-anchor="middle" x="0" y="209" style="font-family: 'Open Sans', verdana, arial, sans-serif; font-size: 8px; fill: rgb(0, 0, 0); fill-opacity: 1; white-space: pre; opacity: 1;" transform="translate(189.86,0)">56</text></g><g class="xtick"><text text-anchor="middle" x="0" y="209" style="font-family: 'Open Sans', verdana, arial, sans-serif; font-size: 8px; fill: rgb(0, 0, 0); fill-opacity: 1; white-space: pre; opacity: 1;" transform="translate(211.26,0)">64</text></g><g class="xtick"><text text-anchor="middle" x="0" y="209" style="font-family: 'Open Sans', verdana, arial, sans-serif; font-size: 8px; fill: rgb(0, 0, 0); fill-opacity: 1; white-space: pre; opacity: 1;" transform="translate(232.67,0)">72</text></g></g><g class="yaxislayer-above"><g class="ytick"><text text-anchor="end" x="39" y="2.8" transform="translate(0,200)" style="font-family: 'Open Sans', verdana, arial, sans-serif; font-size: 8px; fill: rgb(0, 0, 0); fill-opacity: 1; white-space: pre; opacity: 1;">0</text></g><g class="ytick"><text text-anchor="end" x="39" y="2.8" style="font-family: 'Open Sans', verdana, arial, sans-serif; font-size: 8px; fill: rgb(0, 0, 0); fill-opacity: 1; white-space: pre; opacity: 1;" transform="translate(0,172.31)">0.2</text></g><g class="ytick"><text text-anchor="end" x="39" y="2.8" style="font-family: 'Open Sans', verdana, arial, sans-serif; font-size: 8px; fill: rgb(0, 0, 0); fill-opacity: 1; white-space: pre; opacity: 1;" transform="translate(0,144.62)">0.4</text></g><g class="ytick"><text text-anchor="end" x="39" y="2.8" style="font-family: 'Open Sans', verdana, arial, sans-serif; font-size: 8px; fill: rgb(0, 0, 0); fill-opacity: 1; white-space: pre; opacity: 1;" transform="translate(0,116.92)">0.6</text></g><g class="ytick"><text text-anchor="end" x="39" y="2.8" style="font-family: 'Open Sans', verdana, arial, sans-serif; font-size: 8px; fill: rgb(0, 0, 0); fill-opacity: 1; white-space: pre; opacity: 1;" transform="translate(0,89.23)">0.8</text></g><g class="ytick"><text text-anchor="end" x="39" y="2.8" style="font-family: 'Open Sans', verdana, arial, sans-serif; font-size: 8px; fill: rgb(0, 0, 0); fill-opacity: 1; white-space: pre; opacity: 1;" transform="translate(0,61.54)">1</text></g><g class="ytick"><text text-anchor="end" x="39" y="2.8" style="font-family: 'Open Sans', verdana, arial, sans-serif; font-size: 8px; fill: rgb(0, 0, 0); fill-opacity: 1; white-space: pre; opacity: 1;" transform="translate(0,33.85)">1.2</text></g></g><g class="overaxes-above"/></g></g><g class="polarlayer"/><g class="smithlayer"/><g class="ternarylayer"/><g class="geolayer"/><g class="funnelarealayer"/><g class="pielayer"/><g class="iciclelayer"/><g class="treemaplayer"/><g class="sunburstlayer"/><g class="glimages"/><defs id="topdefs-c1dac1"><g class="clips"/><clipPath id="legendc1dac1"><rect width="54" height="48" x="0" y="0"/></clipPath></defs><g class="layer-above"><g class="imagelayer"/><g class="shapelayer"/></g><g class="infolayer"><g class="legend" pointer-events="all" transform="translate(246,20)"><rect class="bg" shape-rendering="crispEdges" style="stroke: rgb(68, 68, 68); stroke-opacity: 1; fill: rgb(255, 255, 255); fill-opacity: 1; stroke-width: 0px;" width="54" height="48" x="0" y="0"/><g class="scrollbox" transform="" clip-path="url(#legendc1dac1)"><g class="groups"><g class="traces" transform="translate(0,14.5)" style="opacity: 1;"><text class="legendtext" text-anchor="start" x="40" y="3.12" style="font-family: 'Open Sans', verdana, arial, sans-serif; font-size: 8px; fill: rgb(0, 0, 0); fill-opacity: 1; white-space: pre;">Ct</text><g class="layers" style="opacity: 1;"><g class="legendfill"/><g class="legendlines"><path class="js-line" d="M5,0h30" style="fill: none; stroke: rgb(117, 112, 179); stroke-opacity: 1; stroke-width: 1.7px;"/></g><g class="legendsymbols"><g class="legendpoints"/></g></g><rect class="legendtoggle" x="0" y="-9.5" width="48.046875" height="19" style="fill: rgb(0, 0, 0); fill-opacity: 0;"/></g><g class="traces" transform="translate(0,33.5)" style="opacity: 1;"><text class="legendtext" text-anchor="start" x="40" y="3.12" style="font-family: 'Open Sans', verdana, arial, sans-serif; font-size: 8px; fill: rgb(0, 0, 0); fill-opacity: 1; white-space: pre;">fit</text><g class="layers" style="opacity: 1;"><g class="legendfill"/><g class="legendlines"><path class="js-line" d="M5,0h30" style="fill: none; stroke: rgb(0, 0, 0); stroke-opacity: 1; stroke-dasharray: 3px, 3px; stroke-width: 1.7px;"/></g><g class="legendsymbols"><g class="legendpoints"/></g></g><rect class="legendtoggle" x="0" y="-9.5" width="48.046875" height="19" style="fill: rgb(0, 0, 0); fill-opacity: 0;"/></g></g></g><rect class="scrollbar" rx="20" ry="3" width="0" height="0" style="fill: rgb(128, 139, 164); fill-opacity: 1;" x="0" y="0"/></g><g class="g-gtitle"/><g class="g-xtitle" transform="translate(0,3.9000000000000057)"><text class="xtitle" x="141" y="216.1" text-anchor="middle" style="opacity: 1; font-family: 'Open Sans', verdana, arial, sans-serif; font-size: 8px; fill: rgb(0, 0, 0); fill-opacity: 1; white-space: pre;">Time [h]</text></g><g class="g-ytitle"><text class="ytitle" transform="rotate(-90,25.41875,110)" x="25.41875" y="110" text-anchor="middle" style="opacity: 1; font-family: 'Open Sans', verdana, arial, sans-serif; font-size: 8px; fill: rgb(0, 0, 0); fill-opacity: 1; white-space: pre;">OD</text></g></g></svg>