<svg class="main-svg" xmlns="http://www.w3.org/2000/svg" xmlns:xlink="http://www.w3.org/1999/xlink" width="110" height="110" style="" viewBox="0 0 110 110"><rect x="0" y="0" width="110" height="110" style="fill: rgb(255, 255, 255); fill-opacity: 1;"/><defs id="defs-f83565"><g class="clips"><clipPath id="clipf83565xyplot" class="plotclip"><rect width="64" height="70"/></clipPath><clipPath class="axesclip" id="clipf83565x"><rect x="15" y="0" width="64" height="110"/></clipPath><clipPath class="axesclip" id="clipf83565y"><rect x="0" y="10" width="110" height="70"/></clipPath><clipPath class="axesclip" id="clipf83565xy"><rect x="15" y="10" width="64" height="70"/></clipPath></g><g class="gradients"/><g class="patterns"/></defs><g class="bglayer"/><g class="layer-below"><g class="imagelayer"/><g class="shapelayer"/></g><g class="cartesianlayer"><g class="subplot xy"><g class="layer-subplot"><g class="shapelayer"/><g class="imagelayer"/></g><g class="minor-gridlayer"><g class="x"/><g class="y"/></g><g class="gridlayer"><g class="x"><path class="xgrid crisp" transform="translate(21.78,0)" d="M0,10v70" style="stroke: rgb(0, 0, 0); stroke-opacity: 1; stroke-width: 0.5px;"/><path class="xgrid crisp" transform="translate(28.57,0)" d="M0,10v70" style="stroke: rgb(0, 0, 0); stroke-opacity: 1; stroke-width: 0.5px;"/><path class="xgrid crisp" transform="translate(35.35,0)" d="M0,10v70" style="stroke: rgb(0, 0, 0); stroke-opacity: 1; stroke-width: 0.5px;"/><path class="xgrid crisp" transform="translate(42.129999999999995,0)" d="M0,10v70" style="stroke: rgb(0, 0, 0); stroke-opacity: 1; stroke-width: 0.5px;"/><path class="xgrid crisp" transform="translate(48.91,0)" d="M0,10v70" style="stroke: rgb(0, 0, 0); stroke-opacity: 1; stroke-width: 0.5px;"/><path class="xgrid crisp" transform="translate(55.7,0)" d="M0,10v70" style="stroke: rgb(0, 0, 0); stroke-opacity: 1; stroke-width: 0.5px;"/><path class="xgrid crisp" transform="translate(62.48,0)" d="M0,10v70" style="stroke: rgb(0, 0, 0); stroke-opacity: 1; stroke-width: 0.5px;"/><path class="xgrid crisp" transform="translate(69.25999999999999,0)" d="M0,10v70" style="stroke: rgb(0, 0, 0); stroke-opacity: 1; stroke-width: 0.5px;"/><path class="xgrid crisp" transform="translate(76.03999999999999,0)" d="M0,10v70" style="stroke: rgb(0, 0, 0); stroke-opacity: 1; stroke-width: 0.5px;"/></g><g class="y"><path class="ygrid crisp" transform="translate(0,69.22999999999999)" d="M15,0h64" style="stroke: rgb(0, 0, 0); stroke-opacity: 1; stroke-width: 0.5px;"/><path class="ygrid crisp" transform="translate(0,58.46)" d="M15,0h64" style="stroke: rgb(0, 0, 0); stroke-opacity: 1; stroke-width: 0.5px;"/><path class="ygrid crisp" transform="translate(0,47.69)" d="M15,0h64" style="stroke: rgb(0, 0, 0); stroke-opacity: 1; stroke-width: 0.5px;"/><path class="ygrid crisp" transform="translate(0,36.92)" d="M15,0h64" style="stroke: rgb(0, 0, 0); stroke-opacity: 1; stroke-width: 0.5px;"/><path class="ygrid crisp" transform="translate(0,26.15)" d="M15,0h64" style="stroke: rgb(0, 0, 0); stroke-opacity: 1; stroke-width: 0.5px;"/><path class="ygrid crisp" transform="translate(0,15.379999999999999)" d="M15,0h64" style="stroke: rgb(0, 0, 0); stroke-opacity: 1; stroke-width: 0.5px;"/></g></g><g class="zerolinelayer"><path class="xzl zl crisp" transform="translate(15,0)" d="M0,10v70" style="stroke: rgb(0, 0, 0); stroke-opacity: 1; stroke-width: 0.5px;"/><path class="yzl zl crisp" transform="translate(0,80)" d="M15,0h64" style="stroke: rgb(0, 0, 0); stroke-opacity: 1; stroke-width: 0.5px;"/></g><g class="layer-between"><g class="shapelayer"/><g class="imagelayer"/></g><path class="xlines-below"/><path class="ylines-below"/><g class="overlines-below"/><g class="xaxislayer-below"/><g class="yaxislayer-below"/><g class="overaxes-below"/><g class="overplot"><g class="xy" transform="translate(15,10)" clip-path="url(#clipf83565xyplot)"><g class="scatterlayer mlayer"><g class="trace scatter traceb4c5f0" style="stroke-miterlimit: 2; opacity: 1;"><g class="fills"/><g class="errorbars"/><g class="lines"><path class="js-line" d="M0.41,70.27L5.92,69.43L6.35,68.92L7.62,66.98L8.04,64.45L9.31,59.75L9.74,58.84L11.86,50.71L12.28,47.37L13.55,43.53L13.98,41.57L16.1,27.16L16.52,25.72L19.06,16.1L19.49,16.91L20.34,11.81L20.76,12.83L21.18,11.43L21.61,12.22L22.03,7.36L23.3,5.65L23.73,6.35L25,7.81L25.42,7.54L25.85,9.76L26.27,9.01L26.7,8.33L28.39,11.86L28.81,10.77L29.66,10.54L30.09,11.63L31.36,10.27L31.78,12.31L32.21,12.22L32.63,10.95L33.9,11.24L34.33,12.64L35.17,10.95L35.6,10.86L36.02,10.97L36.45,12.04L37.72,11.94L38.14,9.53L38.99,11.79L39.41,11.63L39.84,12.73L40.26,14.23L40.68,12.56L41.11,13.98L41.53,13.48L41.96,13.05L42.38,12.89L42.8,14.93L43.65,16.84L44.08,17.09L44.5,18.15L44.92,17.07L46.62,18.38L47.04,18.43L47.47,18.54L47.89,20.23L48.31,19.37L48.74,20.57L50.01,21.92L50.43,21.38L51.28,22.36L51.71,23.33L53.4,22.87L53.83,23.78L55.1,25.15L55.52,25.27L56.37,24.95L56.79,25.63L58.07,26.15L58.49,26.65L59.34,26.92L59.76,28.38L60.18,27.05L60.61,27.59L61.03,27.96L61.46,29.4L61.88,28.97L62.3,29.45L62.73,30.14L63.15,29.81L63.58,30.03L64,30.08" style="vector-effect: none; fill: none; stroke: rgb(117, 112, 179); stroke-opacity: 1; stroke-width: 1.7px; opacity: 1;"/></g><g class="points"/><g class="text"/></g><g class="trace scatter trace371bc9" style="stroke-miterlimit: 2; opacity: 1;"><g class="fills"/><g class="errorbars"/><g class="lines"><path class="js-line" d="M0.41,70.05L5.92,69.26L6.35,68.82L7.62,66.98L8.04,65.48L9.74,57.38L10.16,56.84L11.43,49.79L11.86,47.69L13.13,40.29L13.55,39.86L14.4,35.29L14.83,32.33L17.79,22.02L18.22,21.09L19.06,16.37L19.49,16.75L19.91,14.93L21.18,11.65L21.61,11.58L22.88,7.2L23.3,7.27L24.58,9.75L25,9.26L25.42,8.62L25.85,11.22L26.7,9.08L27.12,10.72L27.54,10.64L27.97,11.36L28.39,13.43L28.81,12.01L29.24,11.9L29.66,11.18L30.09,12.76L31.36,10.64L31.78,13.17L32.21,13.25L32.63,11.38L33.9,11.72L34.33,13.23L34.75,10.66L35.17,10.84L35.6,10.7L36.02,10.91L36.45,12.42L37.29,11.29L37.72,11.94L38.14,7.65L38.56,10.34L38.99,10.93L40.26,12.78L40.68,11.11L41.11,12.8L41.53,11.49L41.96,10.46L42.38,8.04L42.8,12.62L43.65,15.17L44.08,11.7L44.5,14L44.92,10.18L45.77,13.86L46.2,13.35L47.47,15.26L47.89,18.18L48.31,14.09L48.74,16.96L49.16,17.39L49.59,16.58L50.01,18.47L50.86,17.18L51.28,17.89L52.55,20.1L52.98,21.07L53.4,20.12L53.83,21.25L54.25,22.87L54.67,21.84L55.1,22.24L55.52,22.74L55.95,22.35L56.37,22.47L57.64,24.05L58.07,24.43L59.76,27.3L60.18,25.86L61.03,27.1L61.46,28.75L61.88,28.16L62.3,28.7L62.73,29.54L64,29.06" style="vector-effect: none; fill: none; stroke: rgb(117, 112, 179); stroke-opacity: 1; stroke-width: 1.7px; opacity: 1;"/></g><g class="points"/><g class="text"/></g><g class="trace scatter trace144c90" style="stroke-miterlimit: 2; opacity: 1;"><g class="fills"/><g class="errorbars"/><g class="lines"><path class="js-line" d="M0.41,70.32L5.92,69.59L6.35,69.19L8.04,66.72L8.47,64.27L10.16,57.44L10.59,56.09L13.13,42.02L13.55,40.94L13.98,39.79L14.4,36.42L16.52,26.42L16.94,25.18L19.06,17.66L19.49,17.88L21.18,12.62L21.61,12.87L22.88,8.27L23.3,8.72L24.15,9.58L24.58,10.12L25,10.82L25.42,8.99L25.85,11.59L26.27,10.25L26.7,9.35L28.39,13.69L28.81,12.33L29.66,11.72L30.09,13.3L31.36,11.34L31.78,14.09L32.21,14.22L32.63,12.13L33.9,12.42L34.33,14.47L35.17,11.49L35.6,11.45L36.02,11.77L36.45,13.39L37.29,12.53L37.72,12.91L38.14,8.99L39.41,12.01L39.84,12.83L40.26,13.86L40.68,11.43L41.11,13.77L41.53,12.08L41.96,11.81L42.38,10.25L42.8,13.53L43.65,16.19L44.08,12.73L44.5,15.18L44.92,10.98L45.35,14.61L45.77,14.23L46.2,12.98L46.62,14.77L47.04,14.39L47.47,14.39L47.89,16.78L48.31,14.36L49.16,17.98L49.59,16.8L50.01,18.31L50.43,17.18L50.86,16.42L51.28,16.71L51.71,18.65L52.13,18.27L52.55,19.35L52.98,19.67L53.4,18.45L53.83,18.56L54.25,21.47L55.52,22.96L55.95,21.48L58.49,24.66L58.91,24L59.34,24.45L59.76,26.22L60.18,24.46L60.61,24.84L61.03,25.7L61.46,27.25L61.88,26.82L62.3,27.19L62.73,28.2L63.15,27.77L63.58,27.87L64,28.25" style="vector-effect: none; fill: none; stroke: rgb(117, 112, 179); stroke-opacity: 1; stroke-width: 1.7px; opacity: 1;"/></g><g class="points"/><g class="text"/></g><g class="trace scatter trace0d8af3" style="stroke-miterlimit: 2; opacity: 1;"><g class="fills"/><g class="errorbars"/><g class="lines"><path class="js-line" d="M4.23,69.89L6.35,69.05L6.77,68.55L8.04,64.85L8.47,62.13" style="vector-effect: none; fill: none; stroke: rgb(0, 0, 0); stroke-opacity: 1; stroke-dasharray: 3px, 3px; stroke-width: 1.7px; opacity: 1;"/></g><g class="points"/><g class="text"/></g></g></g></g><path class="xlines-above crisp" d="M0,0" style="fill: none;"/><path class="ylines-above crisp" d="M0,0" style="fill: none;"/><g class="overlines-above"/><g class="xaxislayer-above"><g class="xtick"><text text-anchor="start" x="0" y="89" transform="translate(15,0) rotate(90,0,85)" style="font-family: 'Open Sans', verdana, arial, sans-serif; font-size: 8px; fill: rgb(0, 0, 0); fill-opacity: 1; white-space: pre; opacity: 1;">0</text></g><g class="xtick"><text text-anchor="start" x="0" y="89" style="font-family: 'Open Sans', verdana, arial, sans-serif; font-size: 8px; fill: rgb(0, 0, 0); fill-opacity: 1; white-space: pre; opacity: 1;" transform="translate(21.78,0) rotate(90,0,85)">8</text></g><g class="xtick"><text text-anchor="start" x="0" y="89" style="font-family: 'Open Sans', verdana, arial, sans-serif; font-size: 8px; fill: rgb(0, 0, 0); fill-opacity: 1; white-space: pre; opacity: 1;" transform="translate(28.57,0) rotate(90,0,85)">16</text></g><g class="xtick"><text text-anchor="start" x="0" y="89" style="font-family: 'Open Sans', verdana, arial, sans-serif; font-size: 8px; fill: rgb(0, 0, 0); fill-opacity: 1; white-space: pre; opacity: 1;" transform="translate(35.35,0) rotate(90,0,85)">24</text></g><g class="xtick"><text text-anchor="start" x="0" y="89" style="font-family: 'Open Sans', verdana, arial, sans-serif; font-size: 8px; fill: rgb(0, 0, 0); fill-opacity: 1; white-space: pre; opacity: 1;" transform="translate(42.129999999999995,0) rotate(90,0,85)">32</text></g><g class="xtick"><text text-anchor="start" x="0" y="89" style="font-family: 'Open Sans', verdana, arial, sans-serif; font-size: 8px; fill: rgb(0, 0, 0); fill-opacity: 1; white-space: pre; opacity: 1;" transform="translate(48.91,0) rotate(90,0,85)">40</text></g><g class="xtick"><text text-anchor="start" x="0" y="89" style="font-family: 'Open Sans', verdana, arial, sans-serif; font-size: 8px; fill: rgb(0, 0, 0); fill-opacity: 1; white-space: pre; opacity: 1;" transform="translate(55.7,0) rotate(90,0,85)">48</text></g><g class="xtick"><text text-anchor="start" x="0" y="89" style="font-family: 'Open Sans', verdana, arial, sans-serif; font-size: 8px; fill: rgb(0, 0, 0); fill-opacity: 1; white-space: pre; opacity: 1;" transform="translate(62.48,0) rotate(90,0,85)">56</text></g><g class="xtick"><text text-anchor="start" x="0" y="89" style="font-family: 'Open Sans', verdana, arial, sans-serif; font-size: 8px; fill: rgb(0, 0, 0); fill-opacity: 1; white-space: pre; opacity: 1;" transform="translate(69.25999999999999,0) rotate(90,0,85)">64</text></g><g class="xtick"><text text-anchor="start" x="0" y="89" style="font-family: 'Open Sans', verdana, arial, sans-serif; font-size: 8px; fill: rgb(0, 0, 0); fill-opacity: 1; white-space: pre; opacity: 1;" transform="translate(76.03999999999999,0) rotate(90,0,85)">72</text></g></g><g class="yaxislayer-above"><g class="ytick"><text text-anchor="end" x="14" y="2.8" transform="translate(0,80)" style="font-family: 'Open Sans', verdana, arial, sans-serif; font-size: 8px; fill: rgb(0, 0, 0); fill-opacity: 1; white-space: pre; opacity: 1;">0</text></g><g class="ytick"><text text-anchor="end" x="14" y="2.8" style="font-family: 'Open Sans', verdana, arial, sans-serif; font-size: 8px; fill: rgb(0, 0, 0); fill-opacity: 1; white-space: pre; opacity: 1;" transform="translate(0,69.22999999999999)">0.2</text></g><g class="ytick"><text text-anchor="end" x="14" y="2.8" style="font-family: 'Open Sans', verdana, arial, sans-serif; font-size: 8px; fill: rgb(0, 0, 0); fill-opacity: 1; white-space: pre; opacity: 1;" transform="translate(0,58.46)">0.4</text></g><g class="ytick"><text text-anchor="end" x="14" y="2.8" style="font-family: 'Open Sans', verdana, arial, sans-serif; font-size: 8px; fill: rgb(0, 0, 0); fill-opacity: 1; white-space: pre; opacity: 1;" transform="translate(0,47.69)">0.6</text></g><g class="ytick"><text text-anchor="end" x="14" y="2.8" style="font-family: 'Open Sans', verdana, arial, sans-serif; font-size: 8px; fill: rgb(0, 0, 0); fill-opacity: 1; white-space: pre; opacity: 1;" transform="translate(0,36.92)">0.8</text></g><g class="ytick"><text text-anchor="end" x="14" y="2.8" style="font-family: 'Open Sans', verdana, arial, sans-serif; font-size: 8px; fill: rgb(0, 0, 0); fill-opacity: 1; white-space: pre; opacity: 1;" transform="translate(0,26.15)">1</text></g><g class="ytick"><text text-anchor="end" x="14" y="2.8" style="font-family: 'Open Sans', verdana, arial, sans-serif; font-size: 8px; fill: rgb(0, 0, 0); fill-opacity: 1; white-space: pre; opacity: 1;" transform="translate(0,15.379999999999999)">1.2</text></g></g><g class="overaxes-above"/></g></g><g class="polarlayer"/><g class="smithlayer"/><g class="ternarylayer"/><g class="geolayer"/><g class="funnelarealayer"/><g class="pielayer"/><g class="iciclelayer"/><g class="treemaplayer"/><g class="sunburstlayer"/><g class="glimages"/><defs id="topdefs-f83565"><g class="clips"/><clipPath id="legendf83565"><rect width="54" height="48" x="0" y="0"/></clipPath></defs><g class="layer-above"><g class="imagelayer"/><g class="shapelayer"/></g><g class="infolayer"><g class="legend" pointer-events="all" transform="translate(56,10)"><rect class="bg" shape-rendering="crispEdges" width="54" height="48" x="0" y="0" style="stroke: rgb(68, 68, 68); stroke-opacity: 1; fill: rgb(255, 255, 255); fill-opacity: 1; stroke-width: 0px;"/><g class="scrollbox" transform="" clip-path="url(#legendf83565)"><g class="groups"><g class="traces" transform="translate(0,14.5)" style="opacity: 1;"><text class="legendtext" text-anchor="start" x="40" y="3.12" style="font-family: 'Open Sans', verdana, arial, sans-serif; font-size: 8px; fill: rgb(0, 0, 0); fill-opacity: 1; white-space: pre;">Ct</text><g class="layers" style="opacity: 1;"><g class="legendfill"/><g class="legendlines"><path class="js-line" d="M5,0h30" style="fill: none; stroke: rgb(117, 112, 179); stroke-opacity: 1; stroke-width: 1.7px;"/></g><g class="legendsymbols"><g class="legendpoints"/></g></g><rect class="legendtoggle" x="0" y="-9.5" width="48.046875" height="19" style="fill: rgb(0, 0, 0); fill-opacity: 0;"/></g><g class="traces" transform="translate(0,33.5)" style="opacity: 1;"><text class="legendtext" text-anchor="start" x="40" y="3.12" style="font-family: 'Open Sans', verdana, arial, sans-serif; font-size: 8px; fill: rgb(0, 0, 0); fill-opacity: 1; white-space: pre;">fit</text><g class="layers" style="opacity: 1;"><g class="legendfill"/><g class="legendlines"><path class="js-line" d="M5,0h30" style="fill: none; stroke: rgb(0, 0, 0); stroke-opacity: 1; stroke-dasharray: 3px, 3px; stroke-width: 1.7px;"/></g><g class="legendsymbols"><g class="legendpoints"/></g></g><rect class="legendtoggle" x="0" y="-9.5" width="48.046875" height="19" style="fill: rgb(0, 0, 0); fill-opacity: 0;"/></g></g></g><rect class="scrollbar" rx="20" ry="3" width="0" height="0" x="0" y="0" style="fill: rgb(128, 139, 164); fill-opacity: 1;"/></g><g class="g-gtitle"/><g class="g-xtitle" transform="translate(0,3.9000000000000057)"><text class="xtitle" x="47" y="99.678125" text-anchor="middle" style="opacity: 1; font-family: 'Open Sans', verdana, arial, sans-serif; font-size: 8px; fill: rgb(0, 0, 0); fill-opacity: 1; white-space: pre;">Time [h]</text></g><g class="g-ytitle" transform="translate(8.5810546875,0)"><text class="ytitle" transform="rotate(-90,0.4187499999999993,45)" x="0.4187499999999993" y="45" text-anchor="middle" style="opacity: 1; font-family: 'Open Sans', verdana, arial, sans-serif; font-size: 8px; fill: rgb(0, 0, 0); fill-opacity: 1; white-space: pre;">OD</text></g></g></svg>