<svg class="main-svg" xmlns="http://www.w3.org/2000/svg" xmlns:xlink="http://www.w3.org/1999/xlink" width="300" height="250" style="" viewBox="0 0 300 250"><rect x="0" y="0" width="300" height="250" style="fill: rgb(255, 255, 255); fill-opacity: 1;"/><defs id="defs-7d131d"><g class="clips"><clipPath id="clip7d131dxyplot" class="plotclip"><rect width="202" height="210"/></clipPath><clipPath class="axesclip" id="clip7d131dx"><rect x="25" y="0" width="202" height="250"/></clipPath><clipPath class="axesclip" id="clip7d131dy"><rect x="0" y="20" width="300" height="210"/></clipPath><clipPath class="axesclip" id="clip7d131dxy"><rect x="25" y="20" width="202" height="210"/></clipPath></g><g class="gradients"/><g class="patterns"/></defs><g class="bglayer"/><g class="layer-below"><g class="imagelayer"/><g class="shapelayer"/></g><g class="cartesianlayer"><g class="subplot xy"><g class="layer-subplot"><g class="shapelayer"/><g class="imagelayer"/></g><g class="minor-gridlayer"><g class="x"/><g class="y"/></g><g class="gridlayer"><g class="x"><path class="xgrid crisp" transform="translate(68.37,0)" d="M0,20v210" style="stroke: rgb(0, 0, 0); stroke-opacity: 1; stroke-width: 0.5px;"/><path class="xgrid crisp" transform="translate(111.74,0)" d="M0,20v210" style="stroke: rgb(0, 0, 0); stroke-opacity: 1; stroke-width: 0.5px;"/><path class="xgrid crisp" transform="translate(155.11,0)" d="M0,20v210" style="stroke: rgb(0, 0, 0); stroke-opacity: 1; stroke-width: 0.5px;"/><path class="xgrid crisp" transform="translate(198.48,0)" d="M0,20v210" style="stroke: rgb(0, 0, 0); stroke-opacity: 1; stroke-width: 0.5px;"/></g><g class="y"><path class="ygrid crisp" transform="translate(0,177.5)" d="M25,0h202" style="stroke: rgb(0, 0, 0); stroke-opacity: 1; stroke-width: 0.5px;"/><path class="ygrid crisp" transform="translate(0,125)" d="M25,0h202" style="stroke: rgb(0, 0, 0); stroke-opacity: 1; stroke-width: 0.5px;"/><path class="ygrid crisp" transform="translate(0,72.5)" d="M25,0h202" style="stroke: rgb(0, 0, 0); stroke-opacity: 1; stroke-width: 0.5px;"/></g></g><g class="zerolinelayer"><path class="xzl zl crisp" transform="translate(25,0)" d="M0,20v210" style="stroke: rgb(0, 0, 0); stroke-opacity: 1; stroke-width: 0.5px;"/><path class="yzl zl crisp" transform="translate(0,230)" d="M25,0h202" style="stroke: rgb(0, 0, 0); stroke-opacity: 1; stroke-width: 0.5px;"/></g><g class="layer-between"><g class="shapelayer"/><g class="imagelayer"/></g><path class="xlines-below"/><path class="ylines-below"/><g class="overlines-below"/><g class="xaxislayer-below"/><g class="yaxislayer-below"/><g class="overaxes-below"/><g class="overplot"><g class="xy" transform="translate(25,20)" clip-path="url(#clip7d131dxyplot)"><g class="scatterlayer mlayer"><g class="trace scatter trace6cda6e" style="stroke-miterlimit: 2; opacity: 1;"><g class="fills"/><g class="errorbars"/><g class="lines"><path class="js-line" d="M0.48,168.94L0.96,182.73L1.33,179.54L1.45,178.74L1.81,176.33L1.93,174.94L2.05,174.7L2.17,175.19L2.41,174.91L2.53,175.43L4.34,170.54L4.58,171.61L4.7,172.17L5.55,174.6L5.79,173.6L5.91,173.06L6.99,169.92L7.12,169.13L8.08,166.18L8.2,166.42L8.32,166.76L8.68,166.11L8.8,165.83L8.92,166.68L9.41,165.29L9.53,165.17L10.85,167.23L10.97,166.79L11.82,161.9L11.94,160.39L12.54,154.81L13.02,155.5L13.14,155.77L13.75,157.62L13.87,156.65L13.99,155.61L15.19,154.44L15.32,155.11L15.44,155.25L15.56,154.59L15.68,154.18L16.64,150.21L16.88,150.48L17,150.95L17.49,152.12L17.85,151.22L17.97,150.3L19.66,131.63L19.78,129.06L21.47,99.8L21.71,100.27L21.83,100.56L22.43,101.7L22.79,101.25L22.91,100.78L24.84,96.56L24.96,95.92L26.41,94.37L26.53,94.38L26.65,94.57L26.89,93.79L27.01,93.53L28.1,91.53L28.22,91.3L28.58,90.48L28.7,89.63L30.39,84.12L30.51,84.36L30.63,84.4L31.6,83L31.72,82.3L33.89,76.45L34.01,76.4L34.61,74.79L34.73,74.3L37.51,63.51L37.63,62.72L37.99,61.31L38.11,60.31L39.31,61.76L39.43,61.38L42.45,51.98L42.57,52.25L44.14,48.59L44.26,48L46.91,36.31L47.03,35.96L50.65,21.73L50.77,21.76L51.62,23.33L51.74,23.25L53.67,21.35L53.79,21.9L54.75,23.25L54.99,22.89L55.11,22.69L55.96,21.86L56.08,22.4L57.77,24.21L57.89,24.84L59.09,24.66L59.21,25.38L60.06,26.96L60.18,26.61L60.3,26.43L61.02,24.63L61.26,25.12L61.38,25.56L62.23,26.38L62.35,26.17L62.47,25.61L62.71,24.76L63.19,25.37L63.31,25.59L63.92,27.02L64.04,27.47L64.88,28.31L65.12,28.04L65.24,27.58L66.45,28.09L66.57,28.5L68.14,30.73L68.26,30.65L69.58,32.68L69.83,32.5L69.95,32.01L71.51,30.27L71.63,30.34L72.84,31.02L72.96,31.39L73.8,32.87L74.05,32.39L74.17,31.97L75.01,29.86L75.25,30.1L75.37,30.24L76.34,31.64L76.58,31.23L76.7,31.15L77.66,31.74L77.78,32.36L78.15,33.04L78.51,32.67L78.63,32.27L80.08,31.92L80.2,31.82L80.68,30.4L80.8,30.05L81.52,29.92L81.64,30.17L82.61,30.93L82.73,31.28L84.3,32.98L84.66,32.71L84.78,32.44L86.23,30.74L86.35,31.01L87.55,34.41L87.91,33.78L88.03,33.81L89.36,33.21L89.48,33.46L90.57,33.96L90.69,33.84L90.81,33.75L92.26,32.47L92.38,32.63L92.5,32.75L92.74,32.61L92.86,33.07L92.98,33.56L93.94,35.92L94.18,35.5L94.31,35.36L95.39,32.36L95.63,33.11L95.75,33.62L96.72,36.28L97.2,36.04L97.32,35.89L97.92,35.23L98.04,35.16L99.61,32.62L99.97,33.18L100.09,33.44L101.42,37.43L101.66,36.91L101.78,37L103.71,35.12L103.83,35.24L105.16,38.18L105.52,37.56L105.64,37.04L106.36,34.59L106.73,35.35L106.85,36.19L107.81,39.48L108.05,39.03L108.17,38.77L109.86,37.88L109.98,38.02L111.43,40.6L111.67,40.26L111.79,40.16L113.84,37.4L113.96,37.7L114.57,39.14L114.69,39.56L115.53,42.27L115.65,42.14L115.77,41.56L117.22,40L117.34,40.2L117.46,40.39L120.23,44.48L120.35,44.5L120.72,43.77L120.96,44.27L121.08,44.56L121.8,46.56L121.92,46.98L123.01,48.49L123.13,48.46L123.61,48.5L123.73,48.74L123.85,48.93L124.94,49.49L125.06,49.22L125.54,48.59L125.78,49.29L125.9,49.49L126.14,49.37L126.38,49.81L126.5,49.68L126.63,49.85L126.75,50.06L127.11,49.49L127.35,49.7L127.47,49.7L130.24,53.3L130.36,53.04L130.61,53.33L130.85,52.87L130.97,52.53L132.17,50.53L132.29,50.77L132.41,51.31L133.38,53.69L133.62,53.39L133.74,53.04L136.03,44.64L136.39,44.88L136.51,44.96L139.89,54.88L140.01,55.07L140.73,54.44L140.98,54.75L141.1,54.99L141.22,54.8L141.7,55.32L141.82,55.53L142.91,55.52L143.03,55.32L143.75,55.23L143.87,54.64L144.83,52.74L145.08,52.89L145.2,52.92L145.92,52.59L146.04,52.18L148.21,48.91L148.33,49.04L148.45,49.18L149.18,49.73L149.3,49.85L150.62,51.11L150.86,50.52L150.99,50.26L152.19,47.54L152.31,47.64L152.43,47.62L153.04,47.66L153.16,47.95L153.28,48.41L154.96,52.29L155.09,52.24L155.21,52.22L155.45,52.34L155.69,51.79L155.81,51.58L156.05,51.01L156.41,51.54L156.53,51.76L157.38,50.26L157.5,50.29L157.62,50.44L157.74,49.86L158.34,50.28L158.46,50.44L158.82,50.22L159.06,50.87L159.19,50.94L159.55,51.53L160.63,50.13L160.75,49.64L161.72,48.45L161.84,47.75L163.29,48.86L163.41,48.56L163.89,48.71L164.13,48.32L164.25,48.36L165.46,47.35L165.7,47.67L165.82,47.68L165.94,47.57L166.18,48.22L166.3,48.91L167.02,50.17L167.26,49.95L167.39,49.93L167.99,48.88L168.35,49.5L168.47,49.46L169.8,47.67L169.92,47.86L170.04,47.94L170.76,50.39L170.88,50.69L171.24,51.01L171.49,50.44L171.61,49.89L171.85,48.97L172.45,49.39L172.57,49.34L173.17,50.87L173.54,50.31L173.66,49.92L174.86,51.9L174.98,51.49L176.19,48.54L176.31,48.76L177.52,53.38L177.76,52.72L177.88,52.41L179.44,49.35L179.57,49.48L181.25,50.35L181.37,50.77L181.98,50.88L182.1,50.43L182.58,48.64L183.06,49.26L183.18,49.37L184.51,53.17L184.63,53.22L185.72,53.11L185.84,53.17L186.56,53.49L186.8,53.14L186.92,53.08L188.25,52.83L188.37,52.5L188.97,51.94L189.33,52.31L189.45,52.51L190.78,53.06L190.9,52.95L191.99,52.25L192.11,52.33L193.31,53.05L193.43,52.74L196.09,53.02L196.21,52.85L197.17,51.87L197.29,52.06L197.41,52.1L198.02,53.29L198.14,54.11L199.1,56.01L199.46,55.59L199.58,55.61L200.31,55.2L200.43,55.33L200.55,55.4L200.79,55.09" style="vector-effect: none; fill: none; stroke: rgb(99, 110, 250); stroke-opacity: 1; stroke-width: 1.8px; opacity: 1;"/></g><g class="points"/><g class="text"/></g><g class="trace scatter tracef4f451" style="stroke-miterlimit: 2; opacity: 1;"><g class="fills"/><g class="errorbars"/><g class="lines"><path class="js-line" d="M0.48,169.43L0.6,185.41L1.33,183.91L1.45,185.16L2.05,183.48L2.41,183.59L2.53,183.62L2.89,183.73L3.74,180.98L3.86,181.03L3.98,180.93L4.1,179.81L4.7,181.05L4.82,180.59L4.94,179.25L5.79,177.25L6.03,178.1L6.15,178.51L7.48,176.05L7.6,177.36L7.72,178.25L7.96,177.24L8.32,177.79L8.44,177.08L8.68,177.74L10.73,172.91L10.85,174.11L12.06,170.84L12.3,171.42L12.42,171.34L12.54,172.1L13.02,171L13.14,170.69L13.99,167.48L14.11,166.26L14.35,165.31L14.59,166.69L14.71,166.43L14.83,166.51L15.68,164.3L15.8,162.38L16.16,160.83L16.28,160.23L17.25,159.05L17.37,159.25L17.97,160.07L18.09,159.33L18.21,159.56L18.45,158.58L18.57,157.8L19.9,153.68L20.02,153.37L21.95,149.69L22.07,150.01L22.79,148.12L22.91,147.79L23.88,145.99L24,146.04L24.12,146.55L24.24,146.96L24.6,146.09L24.72,145.63L25.2,145.83L25.57,144.83L25.69,145.27L26.65,142.15L27.13,142.48L27.25,142.79L27.86,141.19L27.98,140.85L28.58,139.96L28.82,140.45L28.94,140.74L29.91,141.98L30.03,141.95L30.63,140.77L30.75,140.11L31.6,124.88L31.72,120.95L33.4,83.83L33.53,83.8L34.01,82.52L34.37,83.17L34.49,83.2L34.97,83.08L35.09,83.43L35.21,83.71L35.82,81.44L35.94,80.75L36.78,76.19L37.14,76.97L37.26,77.36L39.07,71.26L39.19,71.28L39.31,70.49L39.8,71.51L39.92,71.67L40.28,70.82L40.76,71.15L40.88,71.71L41.73,69.05L41.85,68.42L42.93,65.7L43.05,65.79L44.02,63.17L44.14,62.77L44.74,61.71L45.1,61.82L45.22,62.14L46.91,58.27L47.03,56.69L48.12,53.4L48.24,54.06L48.36,53.98L48.48,54.42L48.84,53.83L49.08,53.78L49.2,53.23L51.37,46.49L51.49,46.33L56.44,30.6L56.56,30.01L56.8,30.61L57.04,30.03L57.16,29.81L59.09,18.68L59.21,18.95L59.45,19.33L59.69,18.25L59.82,17.35L63.19,3.61L63.31,4.23L64.4,6.51L64.52,6.08L64.64,5.58L65,5.25L65.6,6L65.72,5.75L68.98,13.45L69.1,12.9L69.22,12.56L70.19,10.92L70.31,10.88L71.87,15.03L71.99,14.77L72.12,14.01L72.72,13.39L72.96,13.64L73.08,13.93L73.92,14.92L74.17,14.5L74.29,14.08L74.89,13.81L75.13,13.96L75.25,14.57L75.97,15.88L76.09,15.73L76.22,15.39L76.34,15.83L76.7,14.54L76.82,15.22L76.94,15.09L78.51,18.56L78.63,18.31L80.68,22.3L80.8,22.22L80.92,21.97L82.25,24.06L82.37,23.51L82.49,23.39L83.69,22.57L83.81,22.73L84.05,23.46L84.42,22.65L84.54,22.26L85.62,23.27L85.74,23.48L86.95,23.86L87.07,23.46L88.28,20.79L88.52,21.33L88.64,21.61L88.76,21.2L89.12,22.45L89.24,22.27L90.33,23.7L90.45,23.56L90.81,24.15L91.05,23.67L91.17,23.28L91.65,23.01L92.01,23.45L92.13,23.53L92.25,23.37L92.38,23.82L92.5,24.37L92.86,24.64L93.1,24.1L93.22,24.98L93.46,25.48L93.82,24.61L93.94,24.68L94.3,25.31L94.43,24.44L94.55,23.69L95.51,21.1L95.75,21.95L95.87,22.63L97.2,25.49L97.32,25.44L98.28,27.19L98.41,26.58L98.65,25.76L99.13,26.26L99.25,26.51L99.37,26.7L99.49,26.02L99.85,26.07L99.97,26.09L100.09,26.45L100.58,25.69L100.7,25.75L102.02,28.24L102.14,28.15L102.75,30.3L103.23,29.49L103.35,29.66L103.71,28.48L103.95,29.13L104.07,29.76L104.68,31.22L104.8,31.75L105.04,31.5L105.64,32.87L105.76,32.49L105.88,31.66L106,31.51L106.12,32.04L106.24,32.86L106.97,30.09L107.21,30.91L107.33,30.61L107.93,28.81L108.05,29.77L108.17,31.51L108.54,31.3L108.78,31.77L108.9,32.12L109.14,32.04L109.26,31.11L109.38,29.83L109.86,31.3L109.98,31.75L111.19,36.17L111.31,35.22L112.39,32.28L112.64,32.96L112.76,34.17L113.84,36.02L113.96,35.73L114.08,35L114.69,35.78L114.81,35.23L115.05,34.71L115.29,35.97L115.53,35.28L115.65,35.43L116.74,31.77L116.98,32.66L117.1,32.97L117.7,35.1L117.82,35.88L117.94,36.18L118.18,35.11L118.3,35.04L119.15,36.54L119.27,37.37L119.39,38.5L119.87,36.45L119.99,36.22L120.84,38.39L120.96,39.65L121.32,40.74L121.56,39.61L121.68,39.55L122.77,36.77L123.01,37.26L123.13,37.7L123.49,38.22L123.61,38.6L124.69,36.56L124.82,35.91L125.3,38.32L125.42,39.16L126.14,42.31L126.38,41.87L126.5,41.88L126.74,41.3L127.35,41.68L127.47,41.64L128.19,43.34L128.43,42.93L128.55,43.09L128.92,41.17L129.04,40.3L129.4,39.39L129.76,40.01L129.88,40.26L130.36,41.83L130.6,41.22L130.72,40.54L130.97,39.28L131.57,39.85L131.69,40.36L132.05,41.52L132.17,42.47L132.9,41.15L133.02,41.37L133.14,41.46L133.38,40.91L133.5,41.71L133.62,41.7L133.74,41.84L133.86,41.65L134.22,42.3L134.34,42.42L134.7,41.9L134.82,42.46L134.95,42.89L135.91,48.07L136.15,47.25L136.27,46.61L136.51,47.65L136.75,46.34L136.87,45.34L137.84,44.27L137.96,44.39L139.89,47.44L140.01,46.95L141.1,45.13L141.22,45.28L141.34,45.41L141.82,44.58L141.94,43.47L142.3,41.08L142.66,42.69L142.78,43.45L143.15,44.56L143.27,45.03L143.51,45.64L143.75,44.35L143.87,43.55L143.99,43.31L144.35,43.68L144.47,44.39L144.96,47.51L145.32,46.18L145.44,46.05L146.04,43.97L146.4,45.01L146.52,45.39L147.37,42.79L147.49,42.37L147.61,42.24L147.73,42.66L147.85,43.61L148.69,50.91L149.06,49.16L149.18,48.79L149.9,43.67L150.26,44.6L150.38,44.96L150.74,46.36L150.86,46.85L151.11,47.02L151.35,46.3L151.47,46.02L151.95,45.23L152.07,44.99L152.55,48.95L152.67,49.76L153.4,50.44L153.52,49.92L153.64,49.3L154.12,45.78L154.6,46.62L154.72,46.65L155.69,47.87L155.81,47.52L155.93,46.7L156.29,47.52L156.41,48.32L157.13,50.89L157.38,50.43L157.5,49.92L158.94,43.95L159.06,43.69L159.31,42.89L159.67,43.86L159.79,45.51L160.63,51.91L160.99,51.53L161.11,51.59L161.72,50.49L161.96,50.72L162.08,51.5L162.56,49.83L162.8,50.22L162.92,51.01L163.16,51.48L163.29,50.47L163.41,50.42L163.53,50.57L164.73,52.15L164.85,52.49L165.46,52.4L165.58,52.08L166.66,49.59L166.9,50.26L167.02,50.9L168.59,53.39L168.71,53.37L169.92,51.56L170.28,51.96L170.4,52.15L171.12,50.87L171.24,50.41L171.85,50.04L172.09,50.33L172.21,50.48L174.86,54.8L174.98,54.68L175.59,55.12L175.83,54.75L175.95,54.72L176.43,54.03L176.55,53.51L177.52,52.23L177.64,52.34L178.84,55.02L178.96,54.5L180.05,52.78L180.29,53.02L180.41,52.88L181.25,52.98L181.37,53.27L182.1,56.93L182.22,57.72L182.82,59.45L183.18,58.84L183.3,58.7L186.2,54.05L186.32,53.52L187.04,52.21L187.16,52.28L187.28,52.73L188.01,55.4L188.13,56.05L189.21,57.74L189.33,57.54L190.3,57.26L190.42,57.07L191.75,58.59L191.87,59.11L192.47,58.95L192.59,58.72L193.07,57.04L193.19,56.69L193.8,55.19L194.16,55.92L194.28,56.4L195.36,59.77L195.48,59.45L195.61,59.22L196.45,59.18L196.57,59.41L196.69,59.7L197.17,59.26L197.29,58.83L198.26,58L198.38,58.12L198.5,58.28L199.71,57.26L199.95,57.62L200.07,57.96L200.79,59.24" style="vector-effect: none; fill: none; stroke: rgb(239, 85, 59); stroke-opacity: 1; stroke-width: 1.8px; opacity: 1;"/></g><g class="points"/><g class="text"/></g><g class="trace scatter tracef392fb" style="stroke-miterlimit: 2; opacity: 1;"><g class="fills"/><g class="errorbars"/><g class="lines"><path class="js-line" d="M0.48,170.71L0.6,183.73L1.21,181.43L1.33,180L2.77,164.35L2.89,162.98L4.7,150.85L4.82,150.53L5.31,149.31L5.43,148.34L5.55,148.43L5.79,147.74L5.91,147.33L9.04,139.31L9.17,139.07L11.22,133.95L11.34,134.37L12.06,132.96L12.18,132.52L14.59,124.47L14.71,124.33L15.32,124.14L15.56,124.34L15.68,124.16L16.64,123.03L16.76,122.75L17.97,118.66L18.09,118.92L18.21,118.98L18.57,119.35L18.93,118.66L19.05,118.9L19.17,119.07L20.14,118.96L20.26,119.19L20.62,119.74L21.1,119.19L21.22,119.22L21.95,118.89L22.07,118.64L24,113.76L24.12,114.15L24.24,114.43L25.45,115.42L25.57,115.28L25.69,115L25.93,115.58L26.05,116.08L26.41,115.49L26.53,114.9L27.5,110.31L27.62,109.71L28.1,108.01L28.46,108.78L28.58,108.98L29.3,109.8L29.55,109.31L29.67,108.97L29.91,109.3L30.15,108.84L30.27,107.91L32.44,102.82L32.56,102.76L33.4,103.18L33.53,103.51L33.89,102.27L34.01,101.95L34.85,99.14L34.97,98.69L35.21,99.19L35.45,98.89L35.58,98.28L39.19,88.25L39.43,88.39L39.56,88.55L39.92,88.74L40.16,88.24L40.28,87.97L40.4,88.07L40.52,87.63L40.64,87.56L40.76,87.34L43.17,79.47L43.29,78.52L44.38,74.41L44.5,74.43L44.62,74.29L44.98,74.78L45.22,74.2L45.34,73.82L46.19,69.98L46.31,68.9L47.64,61.79L47.88,62.33L48,62.5L48.48,62.81L48.6,62.21L48.72,61.85L50.29,57.43L50.41,57.46L55.47,41.62L55.6,41.71L58.37,31.18L58.61,31.85L58.73,32.37L59.21,31.85L59.58,32.26L59.7,32.29L60.18,30.99L60.66,31.32L60.78,31.42L60.9,31.07L61.5,31.28L61.63,31.43L62.95,32.88L63.07,33L64.16,33.1L64.28,33.27L65.48,34.38L65.61,34.24L65.85,33.9L66.21,34.39L66.33,34.63L68.86,39.39L69.1,39.09L69.22,39.03L71.03,39.48L71.15,39.26L71.27,39.07L71.64,39.83L71.76,39.94L72.36,40.8L72.48,41.08L73.44,41.41L73.56,41.51L73.69,41.41L74.05,42.06L74.17,42.07L75.37,43.38L75.49,43.23L75.86,43.8L76.22,43.41L76.34,43.32L77.42,43.92L77.54,43.99L78.63,42.95L78.75,42.64L79.59,43.11L79.72,43.36L80.92,45.09L81.04,45.66L82.37,48.01L82.61,47.49L82.73,47.38L83.7,46.46L83.82,46.87L83.94,47.13L84.66,48.2L84.78,48.8L85.75,49.55L85.87,49.56L87.8,49.87L87.92,50L89.73,50.04L89.85,50.43L90.57,51.23L90.93,50.8L91.05,50.44L92.5,51.04L92.62,51.21L93.71,51.91L93.83,51.8L96.96,52.4L97.08,52.3L98.41,51.58L98.53,51.76L98.65,51.58L98.89,52.1L99.13,52L99.25,52.12L99.49,52.09L99.74,52.42L99.86,52.69L100.82,52.83L100.94,52.65L102.03,51.22L102.15,51.2L103.35,52.26L103.47,52.31L104.2,53.33L104.44,53.18L104.56,53.05L106.37,54.59L106.49,54.58L109.62,58.63L109.74,58.73L110.59,58.41L110.71,58.75L110.83,58.93L111.79,59.76L111.92,59.63L112.28,59.1L112.76,59.45L112.88,59.55L113.97,59.3L114.09,59.52L116.14,62.79L116.26,62.89L116.38,63.28L116.86,62.7L116.98,62.43L117.95,60.74L118.07,60.97L118.19,61.17L119.51,63.24L119.63,63.12L119.75,62.94L121.32,62.66L121.44,62.35L122.17,62.06L122.29,61.82L123.85,60.62L123.97,60.76L125.66,59.9L125.78,60.08L127.59,61.55L127.71,61.29L128.92,62.58L129.04,62.47L129.16,62.51L129.64,62.12L130,62.44L130.13,62.52L131.45,63.46L131.57,63.24L133.38,62.8L133.5,63.06L134.95,62.4L135.07,62.76L135.91,62.21L136.03,61.75L136.64,61.04L136.88,61.47L137,61.69L139.29,61.35L139.41,61.92L139.89,62.81L140.26,62.42L140.38,62.19L142.06,60.05L142.18,60.2L142.31,60.39L143.75,61.72L143.87,61.63L143.99,61.56L144.48,61.52L144.72,61.89L144.84,61.8L146.16,62.62L146.29,62.44L146.89,62.83L147.25,62.34L147.37,61.99L148.7,62.86L148.82,62.27L149.9,61.63L150.02,62.07L152.31,64.2L152.44,64.1L153.16,64.56L153.28,64.19L153.4,64.02L153.76,63.89L153.88,63.46L154,63.19L155.57,61.12L155.93,61.52L156.05,61.6L156.54,62.46L156.9,61.96L157.02,61.68L158.34,60.65L158.47,60.96L158.59,61.03L158.71,60.89L159.07,61.28L159.19,61.72L159.55,62.49L159.91,61.64L160.03,61.84L160.88,62.41L161,62.74L161.36,64.07L161.6,63.15L161.72,62.4L162.57,59.57L162.69,60.26L162.81,61.15L163.89,65.41L164.01,65.36L164.13,64.87L164.74,63.35L164.86,62.54L165.22,61.45L165.7,61.81L165.82,62.25L167.27,65.72L167.63,65.42L167.75,65.19L168.11,65.36L168.35,64.81L168.47,64.51L169.8,65.8L169.92,65.46L171.25,63.38L171.37,63.52L171.49,63.61L172.09,63.55L172.21,63.16L172.33,63.14L172.7,63.39L173.06,62.98L173.18,62.92L174.99,64.06L175.11,63.88L175.23,63.6L177.04,65L177.16,64.73L177.28,64.57L178.48,66.17L178.6,65.99L179.57,67.18L179.69,66.82L179.81,66.56L180.53,64.82L180.9,64.94L181.02,64.96L182.95,62.94L183.07,63.01L183.79,63.71L184.03,63.34L184.15,63.4L184.75,61.5L184.88,60.85L186.32,59.17L186.44,59.04L186.93,59.38L187.05,58.98L187.17,58.75L187.29,58.91L187.65,58.52L187.77,58.17L188.98,56.29L189.1,56.4L189.82,56.22L189.94,55.86L191.27,56.8L191.39,56.86L194.4,56.33L194.52,56.92L195.61,59.33L195.85,58.74L195.97,58.33L196.93,59.02L197.06,59.34L197.3,59.75L197.66,59.29L197.78,59.1L198.14,58.42L198.26,58.16L200.43,53.96L200.67,54.13L200.79,54.19" style="vector-effect: none; fill: none; stroke: rgb(0, 204, 150); stroke-opacity: 1; stroke-width: 1.8px; opacity: 1;"/></g><g class="points"/><g class="text"/></g><g class="trace scatter tracee71836" style="stroke-miterlimit: 2; opacity: 1;"><g class="fills"/><g class="errorbars"/><g class="lines"><path class="js-line" d="M0,183.75L6.03,175.58L6.15,175.4L13.75,162.03L13.87,161.79L22.07,143.05L22.19,142.75L31.11,117.63L31.23,117.26L50.41,61.16L50.53,60.87L56.8,48.08L56.92,47.87L62.47,40.05L62.59,39.91L68.26,34.84L68.38,34.75L74.05,31.84L74.17,31.8L80.56,30.18L80.68,30.16L91.9,29.48L92.02,29.48L110.95,30.23L111.07,30.24L183.43,32.67L183.55,32.67L202,32.91" style="vector-effect: none; fill: none; stroke: rgb(0, 0, 0); stroke-opacity: 1; stroke-dasharray: 3px, 3px; stroke-width: 1.8px; opacity: 1;"/></g><g class="points"/><g class="text"/></g></g></g></g><path class="xlines-above crisp" d="M0,0" style="fill: none;"/><path class="ylines-above crisp" d="M0,0" style="fill: none;"/><g class="overlines-above"/><g class="xaxislayer-above"><g class="xtick"><text text-anchor="middle" x="0" y="239" transform="translate(25,0)" style="font-family: 'Open Sans', verdana, arial, sans-serif; font-size: 8px; fill: rgb(0, 0, 0); fill-opacity: 1; white-space: pre; opacity: 1;">0</text></g><g class="xtick"><text text-anchor="middle" x="0" y="239" style="font-family: 'Open Sans', verdana, arial, sans-serif; font-size: 8px; fill: rgb(0, 0, 0); fill-opacity: 1; white-space: pre; opacity: 1;" transform="translate(68.37,0)">6</text></g><g class="xtick"><text text-anchor="middle" x="0" y="239" style="font-family: 'Open Sans', verdana, arial, sans-serif; font-size: 8px; fill: rgb(0, 0, 0); fill-opacity: 1; white-space: pre; opacity: 1;" transform="translate(111.74,0)">12</text></g><g class="xtick"><text text-anchor="middle" x="0" y="239" style="font-family: 'Open Sans', verdana, arial, sans-serif; font-size: 8px; fill: rgb(0, 0, 0); fill-opacity: 1; white-space: pre; opacity: 1;" transform="translate(155.11,0)">18</text></g><g class="xtick"><text text-anchor="middle" x="0" y="239" style="font-family: 'Open Sans', verdana, arial, sans-serif; font-size: 8px; fill: rgb(0, 0, 0); fill-opacity: 1; white-space: pre; opacity: 1;" transform="translate(198.48,0)">24</text></g></g><g class="yaxislayer-above"><g class="ytick"><text text-anchor="end" x="24" y="2.8" transform="translate(0,230)" style="font-family: 'Open Sans', verdana, arial, sans-serif; font-size: 8px; fill: rgb(0, 0, 0); fill-opacity: 1; white-space: pre; opacity: 1;">0</text></g><g class="ytick"><text text-anchor="end" x="24" y="2.8" style="font-family: 'Open Sans', verdana, arial, sans-serif; font-size: 8px; fill: rgb(0, 0, 0); fill-opacity: 1; white-space: pre; opacity: 1;" transform="translate(0,177.5)">0.1</text></g><g class="ytick"><text text-anchor="end" x="24" y="2.8" style="font-family: 'Open Sans', verdana, arial, sans-serif; font-size: 8px; fill: rgb(0, 0, 0); fill-opacity: 1; white-space: pre; opacity: 1;" transform="translate(0,125)">0.2</text></g><g class="ytick"><text text-anchor="end" x="24" y="2.8" style="font-family: 'Open Sans', verdana, arial, sans-serif; font-size: 8px; fill: rgb(0, 0, 0); fill-opacity: 1; white-space: pre; opacity: 1;" transform="translate(0,72.5)">0.3</text></g><g class="ytick"><text text-anchor="end" x="24" y="2.8" style="font-family: 'Open Sans', verdana, arial, sans-serif; font-size: 8px; fill: rgb(0, 0, 0); fill-opacity: 1; white-space: pre; opacity: 1;" transform="translate(0,20)">0.4</text></g></g><g class="overaxes-above"/></g></g><g class="polarlayer"/><g class="smithlayer"/><g class="ternarylayer"/><g class="geolayer"/><g class="funnelarealayer"/><g class="pielayer"/><g class="iciclelayer"/><g class="treemaplayer"/><g class="sunburstlayer"/><g class="glimages"/><defs id="topdefs-7d131d"><g class="clips"/><clipPath id="legend7d131d"><rect width="69" height="86" x="0" y="0"/></clipPath></defs><g class="layer-above"><g class="imagelayer"/><g class="shapelayer"/></g><g class="infolayer"><g class="legend" pointer-events="all" transform="translate(231,20)"><rect class="bg" shape-rendering="crispEdges" width="69" height="86" x="0" y="0" style="stroke: rgb(68, 68, 68); stroke-opacity: 1; fill: rgb(255, 255, 255); fill-opacity: 1; stroke-width: 0px;"/><g class="scrollbox" transform="" clip-path="url(#legend7d131d)"><g class="groups"><g class="traces" transform="translate(0,14.5)" style="opacity: 1;"><text class="legendtext" text-anchor="start" x="40" y="3.12" style="font-family: 'Open Sans', verdana, arial, sans-serif; font-size: 8px; fill: rgb(0, 0, 0); fill-opacity: 1; white-space: pre;">M0</text><g class="layers" style="opacity: 1;"><g class="legendfill"/><g class="legendlines"><path class="js-line" d="M5,0h30" style="fill: none; stroke: rgb(99, 110, 250); stroke-opacity: 1; stroke-width: 1.8px;"/></g><g class="legendsymbols"><g class="legendpoints"/></g></g><rect class="legendtoggle" x="0" y="-9.5" width="63.46875" height="19" style="fill: rgb(0, 0, 0); fill-opacity: 0;"/></g><g class="traces" transform="translate(0,33.5)" style="opacity: 1;"><text class="legendtext" text-anchor="start" x="40" y="3.12" style="font-family: 'Open Sans', verdana, arial, sans-serif; font-size: 8px; fill: rgb(0, 0, 0); fill-opacity: 1; white-space: pre;">M1</text><g class="layers" style="opacity: 1;"><g class="legendfill"/><g class="legendlines"><path class="js-line" d="M5,0h30" style="fill: none; stroke: rgb(239, 85, 59); stroke-opacity: 1; stroke-width: 1.8px;"/></g><g class="legendsymbols"><g class="legendpoints"/></g></g><rect class="legendtoggle" x="0" y="-9.5" width="63.46875" height="19" style="fill: rgb(0, 0, 0); fill-opacity: 0;"/></g><g class="traces" transform="translate(0,52.5)" style="opacity: 1;"><text class="legendtext" text-anchor="start" x="40" y="3.12" style="font-family: 'Open Sans', verdana, arial, sans-serif; font-size: 8px; fill: rgb(0, 0, 0); fill-opacity: 1; white-space: pre;">M2</text><g class="layers" style="opacity: 1;"><g class="legendfill"/><g class="legendlines"><path class="js-line" d="M5,0h30" style="fill: none; stroke: rgb(0, 204, 150); stroke-opacity: 1; stroke-width: 1.8px;"/></g><g class="legendsymbols"><g class="legendpoints"/></g></g><rect class="legendtoggle" x="0" y="-9.5" width="63.46875" height="19" style="fill: rgb(0, 0, 0); fill-opacity: 0;"/></g><g class="traces" transform="translate(0,71.5)" style="opacity: 1;"><text class="legendtext" text-anchor="start" x="40" y="3.12" style="font-family: 'Open Sans', verdana, arial, sans-serif; font-size: 8px; fill: rgb(0, 0, 0); fill-opacity: 1; white-space: pre;">Model</text><g class="layers" style="opacity: 1;"><g class="legendfill"/><g class="legendlines"><path class="js-line" d="M5,0h30" style="fill: none; stroke: rgb(0, 0, 0); stroke-opacity: 1; stroke-dasharray: 3px, 3px; stroke-width: 1.8px;"/></g><g class="legendsymbols"><g class="legendpoints"/></g></g><rect class="legendtoggle" x="0" y="-9.5" width="63.46875" height="19" style="fill: rgb(0, 0, 0); fill-opacity: 0;"/></g></g></g><rect class="scrollbar" rx="20" ry="3" width="0" height="0" x="0" y="0" style="fill: rgb(128, 139, 164); fill-opacity: 1;"/></g><g class="g-gtitle"><text class="gtitle" x="15" y="10" text-anchor="start" dy="0em" style="opacity: 1; font-family: 'Open Sans', verdana, arial, sans-serif; font-size: 8px; fill: rgb(0, 0, 0); fill-opacity: 1; white-space: pre;"><tspan style="font-style:italic">C. testosteroni</tspan></text></g><g class="g-xtitle" transform="translate(0,1.9000000000000057)"><text class="xtitle" x="126" y="246.1" text-anchor="middle" style="opacity: 1; font-family: 'Open Sans', verdana, arial, sans-serif; font-size: 8px; fill: rgb(0, 0, 0); fill-opacity: 1; white-space: pre;">Time [h]</text></g><g class="g-ytitle"><text class="ytitle" transform="rotate(-90,10.41875,125)" x="10.41875" y="125" text-anchor="middle" style="opacity: 1; font-family: 'Open Sans', verdana, arial, sans-serif; font-size: 8px; fill: rgb(0, 0, 0); fill-opacity: 1; white-space: pre;">OD</text></g></g></svg>