<svg class="main-svg" xmlns="http://www.w3.org/2000/svg" xmlns:xlink="http://www.w3.org/1999/xlink" width="700" height="500" style="" viewBox="0 0 700 500"><rect x="0" y="0" width="700" height="500" style="fill: rgb(255, 255, 255); fill-opacity: 1;"/><defs id="defs-a7f8cd"><g class="clips"><clipPath id="clipa7f8cdxyplot" class="plotclip"><rect width="561" height="449"/></clipPath><clipPath class="axesclip" id="clipa7f8cdx"><rect x="40" y="0" width="561" height="500"/></clipPath><clipPath class="axesclip" id="clipa7f8cdy"><rect x="0" y="18" width="700" height="449"/></clipPath><clipPath class="axesclip" id="clipa7f8cdxy"><rect x="40" y="18" width="561" height="449"/></clipPath></g><g class="gradients"/><g class="patterns"/></defs><g class="bglayer"/><g class="layer-below"><g class="imagelayer"/><g class="shapelayer"/></g><g class="cartesianlayer"><g class="subplot xy"><g class="layer-subplot"><g class="shapelayer"/><g class="imagelayer"/></g><g class="minor-gridlayer"><g class="x"/><g class="y"/></g><g class="gridlayer"><g class="x"><path class="xgrid crisp" transform="translate(180.3,0)" d="M0,18v449" style="stroke: rgb(0, 0, 0); stroke-opacity: 1; stroke-width: 0.5px;"/><path class="xgrid crisp" transform="translate(320.59,0)" d="M0,18v449" style="stroke: rgb(0, 0, 0); stroke-opacity: 1; stroke-width: 0.5px;"/><path class="xgrid crisp" transform="translate(460.89,0)" d="M0,18v449" style="stroke: rgb(0, 0, 0); stroke-opacity: 1; stroke-width: 0.5px;"/></g><g class="y"><path class="ygrid crisp" transform="translate(0,422.1)" d="M40,0h561" style="stroke: rgb(0, 0, 0); stroke-opacity: 1; stroke-width: 0.5px;"/><path class="ygrid crisp" transform="translate(0,377.2)" d="M40,0h561" style="stroke: rgb(0, 0, 0); stroke-opacity: 1; stroke-width: 0.5px;"/><path class="ygrid crisp" transform="translate(0,332.3)" d="M40,0h561" style="stroke: rgb(0, 0, 0); stroke-opacity: 1; stroke-width: 0.5px;"/><path class="ygrid crisp" transform="translate(0,287.4)" d="M40,0h561" style="stroke: rgb(0, 0, 0); stroke-opacity: 1; stroke-width: 0.5px;"/><path class="ygrid crisp" transform="translate(0,242.5)" d="M40,0h561" style="stroke: rgb(0, 0, 0); stroke-opacity: 1; stroke-width: 0.5px;"/><path class="ygrid crisp" transform="translate(0,197.6)" d="M40,0h561" style="stroke: rgb(0, 0, 0); stroke-opacity: 1; stroke-width: 0.5px;"/><path class="ygrid crisp" transform="translate(0,152.7)" d="M40,0h561" style="stroke: rgb(0, 0, 0); stroke-opacity: 1; stroke-width: 0.5px;"/><path class="ygrid crisp" transform="translate(0,107.8)" d="M40,0h561" style="stroke: rgb(0, 0, 0); stroke-opacity: 1; stroke-width: 0.5px;"/><path class="ygrid crisp" transform="translate(0,62.9)" d="M40,0h561" style="stroke: rgb(0, 0, 0); stroke-opacity: 1; stroke-width: 0.5px;"/></g></g><g class="zerolinelayer"><path class="xzl zl crisp" transform="translate(40,0)" d="M0,18v449" style="stroke: rgb(0, 0, 0); stroke-opacity: 1; stroke-width: 0.5px;"/><path class="yzl zl crisp" transform="translate(0,467)" d="M40,0h561" style="stroke: rgb(0, 0, 0); stroke-opacity: 1; stroke-width: 0.5px;"/></g><g class="layer-between"><g class="shapelayer"/><g class="imagelayer"/></g><path class="xlines-below"/><path class="ylines-below"/><g class="overlines-below"/><g class="xaxislayer-below"/><g class="yaxislayer-below"/><g class="overaxes-below"/><g class="overplot"><g class="xy" transform="translate(40,18)" clip-path="url(#clipa7f8cdxyplot)"><g class="scatterlayer mlayer"><g class="trace scatter trace822c5d" style="stroke-miterlimit: 2; opacity: 1;"><g class="fills"/><g class="errorbars"/><g class="lines"><path class="js-line" d="M0,310.76L1.95,421.12L2.34,421.53L3.51,422.74L3.9,422.36L5.07,421.95L5.46,421.05L7.41,416.86L7.8,417.03L9.36,417.65L9.75,418.52L10.92,419.12L11.31,419.75L13.66,418.21L14.05,418.09L14.44,418.58L14.83,418.24L15.22,417.62L16,417.8L16.39,417.59L16.78,417.96L17.17,417.47L17.56,417.44L18.34,417.24L18.73,416.24L19.12,416.88L19.51,416.22L19.9,416.38L22.24,418.07L22.63,419.01L24.97,419.07L25.36,418.29L27.31,416.5L27.7,415.93L31.6,411.15L31.99,411.21L34.33,411.19L34.72,410.8L35.89,409.94L36.28,409.18L37.84,408.49L38.23,408.71L39.4,409.31L39.79,409.39L42.13,409.76L42.52,409.53L44.86,407.94L45.25,407.55L47.59,404.98L47.99,404.15L52.28,396.25L52.67,395.53L54.23,394.34L54.62,394.47L56.96,391.78L57.35,391.96L58.52,391.39L58.91,391.68L60.47,392.87L60.86,392.64L62.42,392.68L62.81,392.34L66.32,386.85L66.71,385.91L67.49,384.81L67.88,385.17L68.27,385.21L68.66,385.64L69.05,385.18L69.44,385.17L69.83,384.68L70.22,385L70.61,385.57L71.78,384.57L72.17,384L73.34,383.66L73.73,383.71L76.85,381.23L77.24,380.14L78.41,378.41L78.8,377.22L81.92,371.97L82.31,371.45L84.26,369.23L84.65,369.17L87.39,364.58L87.78,364.1L90.51,359.71L90.9,358.97L93.63,355.35L94.02,355.55L96.75,353.21L97.14,352.58L99.09,352.03L99.48,352.61L101.43,354.47L101.82,354.68L104.94,351.45L105.33,350.91L108.84,346.82L109.23,346.1L112.35,341.58L112.74,341.49L113.52,340.8L113.91,339.87L118.2,332.88L118.59,331.53L123.28,328.14L123.67,326.94L125.62,323.34L126.01,323.19L129.91,317.52L130.3,316.92L133.03,310.74L133.42,310.83L134.98,307.99L135.37,307.85L139.66,303.83L140.05,303.35L142.78,300.88L143.17,300.44L143.95,300.17L144.34,299.61L145.9,295.9L146.29,295.36L148.24,291.69L148.63,291.98L152.14,292.33L152.53,292.03L153.7,290.41L154.09,290.59L155.66,290.99L156.05,291.28L157.61,294.76L158,295.6L161.12,300.54L161.51,300.71L163.07,302.52L163.46,302.69L166.58,303.7L166.97,304.02L168.53,307.48L168.92,308.17L170.48,310.1L170.87,310.65L172.82,311.62L173.21,311.28L174.38,312.07L174.77,312.41L176.33,312.51L176.72,312.94L178.28,314.48L178.67,314.53L183.74,323.49L184.13,323.51L185.3,323.85L185.7,323.4L187.26,324.2L187.65,325.03L191.16,329.03L191.55,328.27L194.28,327.73L194.67,328.01L195.06,327.68L195.45,328.2L195.84,328.38L200.52,328.98L200.91,329.49L202.86,329.43L203.25,329.97L205.59,331.37L205.98,331.64L206.76,332.36L207.15,332.01L207.54,332.17L208.71,332.09L209.1,332.04L210.27,331.56L210.66,331.58L212.61,333.11L213,333.17L214.95,334.81L215.34,335.03L221.97,341.14L222.36,340.79L223.92,340.58L224.31,340.4L225.1,340.16L225.49,339.36L229,336.34L229.39,336.37L230.95,337.18L231.34,336.99L232.12,336.88L232.51,337.17L233.68,337.56L234.07,337.36L235.24,336.78L235.63,337.04L241.87,341.89L242.26,342.41L244.6,343.99L244.99,343.87L245.77,343.46L246.16,343.04L248.89,342.93L249.28,343.17L251.62,345.66L252.01,345.97L253.57,346.52L253.96,345.83L255.13,345.56L255.52,345.9L257.48,346.16L257.87,347.13L259.43,347.78L259.82,347.47L262.55,345.25L262.94,344.51L264.89,342.58L265.28,342.69L266.45,343.04L266.84,343.57L269.57,345.52L269.96,345.41L271.52,345.71L271.91,345.56L273.08,345.63L273.47,345.16L274.25,345.16L274.64,344.95L276.59,344.76L276.98,345.23L278.15,344.96L278.54,345.07L280.49,343.6L280.88,343.06L282.05,342.99L282.44,342.91L284,343.91L284.39,344.17L286.34,344.96L286.73,345.06L287.91,344.96L288.3,344.93L289.47,345.13L289.86,344.62L292.59,345.05L292.98,344.88L296.1,342.49L296.49,342.91L297.66,343.72L298.05,344.32L300,345.36L300.39,345.66L303.12,347.12L303.51,347.32L304.68,346.94L305.07,346.73L310.14,345.44L310.53,345.62L313.26,343.21L313.65,342.67L315.22,341.48L315.61,341.54L316.78,342.12L317.17,341.9L317.95,341.53L318.34,341.72L319.9,340.09L320.29,340.13L321.46,339.55L321.85,339.36L324.19,337.53L324.58,337.5L326.14,335.69L326.53,335.07L328.87,332.09L329.26,332.1L330.43,332.81L330.82,332.59L335.5,329.14L335.89,329.5L337.84,330.23L338.23,330.42L339.79,330.9L340.18,330.24L342.91,330.26L343.3,329.51L345.64,328.22L346.03,328.57L349.15,328.43L349.54,328.71L350.71,328.49L351.1,329.01L351.88,330.36L352.27,329.76L352.66,330.46L354.23,330.5L354.62,330.7L356.57,328.12L356.96,327.7L358.52,325.58L358.91,325.35L360.47,326.32L360.86,326.65L361.25,327.23L361.64,326.92L362.03,326.96L364.76,327.44L365.15,327.84L366.71,328.61L367.1,328.86L368.66,329.19L369.05,328.67L370.61,329.12L371,329.14L372.56,328.33L372.95,328.96L373.34,329.1L373.73,328.43L376.07,326.99L376.46,327.42L377.24,327.42L377.63,328.06L378.8,329.2L379.19,329.52L379.97,330.3L380.36,329.85L380.75,329.97L384.65,330.05L385.04,329.7L388.94,329.92L389.33,330.23L391.29,330.51L391.68,330.4L397.14,330.66L397.53,331.08L398.7,331.2L399.09,331.58L401.04,333.33L401.43,333.34L401.82,333.9L402.21,333.59L402.6,333.33L403.77,331.96L404.16,332.05L405.72,331.28L406.11,331.47L408.06,331.98L408.45,331.81L411.96,333.03L412.35,332.93L414.3,331.03L414.69,330.13L416.25,329.59L416.64,329.28L417.42,328.71L417.81,328.77L420.54,329.42L420.93,330.34L422.1,331.57L422.49,332.58L424.05,335.37L424.44,335.43L428.34,332.43L428.74,332.76L430.3,333.82L430.69,334.18L433.81,333.76L434.2,333.47L436.93,333.34L437.32,332.95L438.49,331.39L438.88,331.37L441.22,330.15L441.61,330.92L446.29,333.54L446.68,333.34L448.63,333.55L449.02,333.47L450.19,333.77L450.58,334.06L455.26,332.84L455.65,332.31L456.43,332.03L456.82,332.12L458,332.42L458.39,332.68L460.73,334.79L461.12,334.83L462.29,334.76L462.68,334.43L466.19,331.63L466.58,331.53L468.92,333.83L469.31,333.94L471.65,334.92L472.04,334.31L473.21,333.11L473.6,333.36L475.94,332.26L476.33,332.55L479.06,331.9L479.45,332.62L481.4,333.17L481.79,332.66L483.35,330.28L483.74,330.07L485.3,327.39L485.69,327.64L486.08,327.66L486.86,327.94L487.25,328.64L488.42,330.14L488.81,331.15L489.99,332.59L490.38,332.69L491.55,331.67L491.94,330.7L492.72,330.29L493.11,329.49L494.28,329.56L494.67,329.75L495.45,329.73L495.84,330.17L501.3,329.65L501.69,329.31L503.25,329.95L503.64,329.9L504.42,330.36L504.81,329.63L505.98,329.53L506.37,328.85L509.1,329.45L509.49,329.93L510.66,331.07L511.05,331.21L513,330.33L513.39,329.84L514.95,328.15L515.34,328.7L516.51,328.83L516.9,328.55L518.07,329.23L518.46,329.59L520.02,328.98L520.41,328.92L521.59,329.37L521.98,329.36L525.49,326.74L525.88,326.86L528.61,326.66L529,327.11L531.34,326.39L531.73,325.73L535.24,320.58L535.63,320.56L536.41,320.3L536.8,319.58L537.97,319.32L538.36,319.36L540.7,317.54L541.09,317.52L542.26,318.7L542.65,319.65L545.77,324.99L546.16,324.28L548.5,321.71L548.89,321.19L551.23,319.88L551.62,320.1L554.75,326.02L555.14,325.66L556.31,324.22L556.7,324.22L557.09,324.14L557.48,323.17L559.04,321.71L559.43,322.27L560.21,321.04L560.6,320.11L560.99,319.69" style="vector-effect: none; fill: none; stroke: rgb(106, 90, 205); stroke-opacity: 1; stroke-width: 1.8px; opacity: 1;"/></g><g class="points"/><g class="text"/></g><g class="trace scatter trace243a01" style="stroke-miterlimit: 2; opacity: 1;"><g class="fills"/><g class="errorbars"/><g class="lines"><path class="js-line" d="M0,318.67L1.95,419.31L2.34,419.48L4.68,418.22L5.07,418.12L10.53,418.3L10.92,418.51L15.22,419.1L15.61,419.27L17.95,418.48L18.34,418.11L20.29,416.21L20.68,416.02L22.24,415.26L22.63,415.42L25.36,415.9L25.75,415.64L32.77,412.42L33.16,412.04L36.28,409.35L36.67,409.31L37.84,408.92L38.23,408.37L39.4,407.76L39.79,407.78L42.13,407.73L42.52,408.01L43.3,407.7L43.69,407.37L47.59,403.12L47.98,403.39L49.94,403.95L50.33,404.41L51.11,404.73L51.5,405.49L52.28,405.66L52.67,404.92L53.45,404.57L53.84,404.15L55.01,403.94L55.4,402.94L57.74,399.33L58.13,398.3L59.3,396.79L59.69,397.15L63.98,409.17L64.37,409.21L66.71,407.84L67.1,405.33L71.39,382.04L71.78,381.33L74.12,379.81L74.51,379.85L75.68,379.55L76.07,378.85L78.02,375.03L78.41,374.06L80.36,372.1L80.75,372.47L82.71,371.7L83.1,371.84L84.66,368.94L85.05,368.35L87,366.21L87.39,365.89L88.95,365.87L89.34,366.04L90.12,366.58L90.51,366.17L93.24,362.98L93.63,362.16L95.19,359.09L95.58,358.85L97.53,358.01L97.92,358.16L98.7,357.9L99.09,357.09L100.26,355.58L100.65,355.47L102.6,352.65L102.99,352.1L104.16,349.08L104.55,347.89L106.89,341.99L107.28,341.28L108.45,339.92L108.84,339.36L110.8,336.65L111.19,336.43L113.14,338.15L113.53,338.79L114.7,338.87L115.09,338.85L118.21,334.96L118.6,334.98L119.77,332.77L120.16,332.12L121.33,330.7L121.72,330.06L124.84,325.87L125.23,325.5L127.57,324.16L127.96,323.84L129.52,321.19L129.91,320.33L131.47,318.88L131.86,318.73L132.64,318.29L133.03,319.17L134.98,318.96L135.37,318.31L137.32,317.85L137.71,318.54L138.49,319.13L138.88,318.28L140.05,318.27L140.44,317.55L141.22,317.35L141.61,316.8L143.18,315.9L143.57,314.75L147.47,311.13L147.86,311.16L151.76,305.03L152.15,305.35L153.71,304.3L154.1,304.16L155.66,303.85L156.05,303.17L157.61,301.53L158,300.56L161.51,297.09L161.9,297.25L163.07,297.77L163.46,297.74L164.63,298L165.02,297.46L169.31,301.81L169.7,301.68L170.87,301.86L171.26,301.93L172.05,301.52L172.44,301.98L172.83,301.87L173.22,303L176.73,306.5L177.12,305.97L177.51,305.89L177.9,306.69L179.46,308.72L179.85,309.25L181.02,310.96L181.41,312.09L182.97,311.97L183.36,312.12L184.14,312.25L184.53,312.68L186.09,316.09L186.48,317.35L187.26,318.07L187.65,318.97L189.21,319.97L189.6,319.78L192.72,321.11L193.11,321.86L197.4,326.89L197.79,327.2L199.74,328.8L200.13,328.6L201.3,328.24L201.69,328.27L203.64,329.47L204.04,329.69L205.99,330.96L206.38,330.94L211.45,330.28L211.84,330.63L213.01,330.1L213.4,330.31L214.18,330.63L214.57,330.62L215.35,331.16L215.74,330.66L217.3,330.28L217.69,330L218.47,330.08L218.86,329.31L224.32,326.85L224.71,326.87L228.22,326.15L228.61,325.88L230.56,324.14L230.95,324.57L232.52,323.85L232.91,324.34L234.08,325.14L234.47,325.73L234.86,325.23L235.25,325.73L235.64,326.88L237.98,331.11L238.37,331.53L240.71,336.32L241.1,336.98L243.44,341.51L243.83,341.74L246.17,344.23L246.56,344.74L248.12,345.74L248.51,345.76L250.07,346.33L250.46,345.96L252.8,346.11L253.19,345.76L256.7,343.35L257.09,343.45L258.65,342.67L259.04,343.39L259.82,342.32L260.21,342.82L260.6,343.22L261.38,342.99L261.77,343.48L264.9,343.68L265.29,344.24L266.85,347.44L267.24,348.76L269.58,350.8L269.97,350.2L270.75,349.45L271.14,348.6L272.7,347.27L273.09,346.93L276.99,340.68L277.38,340.59L281.67,335.66L282.06,334.74L285.18,333.37L285.57,333.55L286.35,333.86L286.74,333.42L288.3,334.1L288.69,333.5L290.25,333.36L290.64,334.08L291.81,334.28L292.2,335.23L298.06,348.88L298.45,349.15L301.18,352.8L301.57,352.83L301.96,351.94L302.35,352.43L302.74,352.42L303.13,352.71L303.52,351.86L305.08,350.45L305.47,350.59L305.86,351.27L306.25,350.96L306.64,350.92L307.03,350.6L307.42,351.22L307.81,351.45L308.98,351.17L309.37,351.43L309.76,351.35L310.15,350.46L311.71,350.17L312.1,350.31L314.44,348.86L314.83,349.14L317.56,348.01L317.95,347.94L319.51,346.53L319.9,346.11L321.46,343.84L321.85,342.96L322.24,343.02L322.63,341.53L324.19,337.48L324.58,337.07L326.54,335.18L326.93,335.75L329.66,338.57L330.05,338.6L331.22,339.06L331.61,339.08L332.78,338.39L333.17,338.68L337.46,342.68L337.85,342.76L339.8,344.69L340.19,344.66L341.75,346.4L342.14,346.15L342.92,346.66L343.31,346.99L344.48,346.37L344.87,346.09L346.04,345.54L346.43,345.35L348.38,345.58L348.77,345.24L350.72,344.06L351.11,343.45L354.24,343.31L354.63,342.87L356.19,343.66L356.58,343.72L357.75,343.86L358.14,343.49L358.92,343.31L359.31,342.89L361.26,341.16L361.65,341.43L363.6,341.45L363.99,340.94L365.16,340.72L365.55,340.04L367.89,338.03L368.28,337.55L373.35,336.77L373.74,336.66L374.91,336.42L375.3,336.21L376.86,336.74L377.25,336.69L379.2,335.33L379.59,335.58L383.5,339.01L383.89,339.35L386.62,340.9L387.01,340.68L388.96,339.98L389.35,339.24L390.52,339.13L390.91,339.41L394.81,339.38L395.2,339.25L396.76,339.26L397.15,339.09L399.1,339.1L399.49,338.7L401.44,338.44L401.83,338.02L405.73,332.95L406.12,332.84L407.29,332.98L407.68,333.73L408.46,333.85L408.85,333.87L410.8,335.4L411.19,335.19L418.22,330.93L418.61,330.89L423.29,323.45L423.68,323.25L427.58,320.09L427.97,320.06L431.09,317.86L431.48,316.82L432.65,315.24L433.04,315.41L434.21,315.01L434.6,315.01L435.38,315.51L435.77,316.05L439.28,319.36L439.67,319.27L440.84,319.66L441.23,319.77L446.69,319.75L447.08,320.02L450.99,327.92L451.38,327.95L453.33,327.42L453.72,328.54L454.89,330.76L455.28,330.68L456.84,333.15L457.23,333.08L458.4,333.47L458.79,333.78L461.13,337.9L461.52,337.62L461.91,337.78L463.08,340.01L463.47,339.72L463.86,339.71L464.25,339.41L464.64,340.23L465.42,340.66L465.81,341.5L468.15,340.14L468.54,339.27L470.1,338.62L470.49,338.71L470.88,338.34L471.27,338.9L471.66,338.71L472.05,338.72L472.44,339.61L473.22,340.09L473.61,339.56L474.39,338.92L474.78,339.87L476.34,340.94L476.73,340.58L478.68,342.81L479.07,343.21L479.85,343.74L480.24,344L481.81,344.85L482.2,344.27L483.76,343.31L484.15,342.41L484.54,342.32L484.93,341.45L487.27,340.3L487.66,340.36L488.44,340.05L488.83,339.79L490.78,338.47L491.17,337.89L492.34,336.67L492.73,336.49L493.51,335.45L493.9,334.8L497.8,330.38L498.19,330.17L500.14,328.06L500.53,328.06L505.99,323.94L506.38,324.35L507.94,322.37L508.33,322.47L511.06,321.37L511.45,321.7L513.02,321.26L513.41,320.71L514.58,321.43L514.97,321.03L515.36,320.2L515.75,320.5L516.14,320.62L517.31,321.1L517.7,320.95L519.26,321.24L519.65,320.99L521.21,320.54L521.6,319.54L523.16,318.84L523.55,318.81L525.11,317.4L525.5,317.56L526.67,317.06L527.06,316.6L527.84,316.51L528.23,316.51L529.79,318.57L530.18,318.42L532.13,318.3L532.52,317.26L533.69,315.77L534.08,316.02L537.59,318.05L537.98,317.92L539.93,318.66L540.32,318.57L541.49,318.72L541.88,319.35L542.27,319.1L542.66,322.14L546.18,340.1L546.57,338.58L547.74,336.01L548.13,336.6L548.52,336.55L548.91,334.59L551.25,292.21L551.64,289.22L552.81,277.88L553.2,285.16L554.37,306L554.76,302.78L555.15,304.84L555.54,307.12L555.93,304.44L556.32,304.45L556.71,302.79L558.66,291.05L559.05,284.37L560.22,271.07L560.61,270.71L561,271.18" style="vector-effect: none; fill: none; stroke: rgb(117, 112, 179); stroke-opacity: 1; stroke-width: 1.8px; opacity: 1;"/></g><g class="points"/><g class="text"/></g><g class="trace scatter trace19f829" style="stroke-miterlimit: 2; opacity: 1;"><g class="fills"/><g class="errorbars"/><g class="lines"><path class="js-line" d="M0,422.06L24.58,414.36L24.97,414.22L46.03,405.89L46.42,405.72L64.37,397.08L64.76,396.88L84.27,385.55L84.66,385.3L101.43,373.66L101.82,373.37L116.65,361.43L117.04,361.1L134.2,345.17L134.59,344.79L152.93,325.42L153.32,324.99L175.17,301.91L175.56,301.58L181.8,297.42L182.19,297.24L187.26,295.76L187.65,295.7L195.45,295.42L195.84,295.43L243.05,297.39L243.44,297.41L406.9,301.17L407.29,301.17L458.4,301.74L458.79,301.74L501.31,302.09L501.7,302.09L540.32,302.34L540.71,302.34L561,302.44" style="vector-effect: none; fill: none; stroke: rgb(0, 0, 0); stroke-opacity: 1; stroke-dasharray: 3px, 3px; stroke-width: 1.8px; opacity: 1;"/></g><g class="points"/><g class="text"/></g></g></g></g><path class="xlines-above crisp" d="M0,0" style="fill: none;"/><path class="ylines-above crisp" d="M0,0" style="fill: none;"/><g class="overlines-above"/><g class="xaxislayer-above"><g class="xtick"><text text-anchor="middle" x="0" y="479" transform="translate(40,0)" style="font-family: 'Open Sans', verdana, arial, sans-serif; font-size: 11px; fill: rgb(0, 0, 0); fill-opacity: 1; white-space: pre; opacity: 1;">0</text></g><g class="xtick"><text text-anchor="middle" x="0" y="479" style="font-family: 'Open Sans', verdana, arial, sans-serif; font-size: 11px; fill: rgb(0, 0, 0); fill-opacity: 1; white-space: pre; opacity: 1;" transform="translate(180.3,0)">6</text></g><g class="xtick"><text text-anchor="middle" x="0" y="479" style="font-family: 'Open Sans', verdana, arial, sans-serif; font-size: 11px; fill: rgb(0, 0, 0); fill-opacity: 1; white-space: pre; opacity: 1;" transform="translate(320.59,0)">12</text></g><g class="xtick"><text text-anchor="middle" x="0" y="479" style="font-family: 'Open Sans', verdana, arial, sans-serif; font-size: 11px; fill: rgb(0, 0, 0); fill-opacity: 1; white-space: pre; opacity: 1;" transform="translate(460.89,0)">18</text></g></g><g class="yaxislayer-above"><g class="ytick"><text text-anchor="end" x="39" y="3.8499999999999996" transform="translate(0,467)" style="font-family: 'Open Sans', verdana, arial, sans-serif; font-size: 11px; fill: rgb(0, 0, 0); fill-opacity: 1; white-space: pre; opacity: 1;">0</text></g><g class="ytick"><text text-anchor="end" x="39" y="3.8499999999999996" style="font-family: 'Open Sans', verdana, arial, sans-serif; font-size: 11px; fill: rgb(0, 0, 0); fill-opacity: 1; white-space: pre; opacity: 1;" transform="translate(0,422.1)">0.05</text></g><g class="ytick"><text text-anchor="end" x="39" y="3.8499999999999996" style="font-family: 'Open Sans', verdana, arial, sans-serif; font-size: 11px; fill: rgb(0, 0, 0); fill-opacity: 1; white-space: pre; opacity: 1;" transform="translate(0,377.2)">0.1</text></g><g class="ytick"><text text-anchor="end" x="39" y="3.8499999999999996" style="font-family: 'Open Sans', verdana, arial, sans-serif; font-size: 11px; fill: rgb(0, 0, 0); fill-opacity: 1; white-space: pre; opacity: 1;" transform="translate(0,332.3)">0.15</text></g><g class="ytick"><text text-anchor="end" x="39" y="3.8499999999999996" style="font-family: 'Open Sans', verdana, arial, sans-serif; font-size: 11px; fill: rgb(0, 0, 0); fill-opacity: 1; white-space: pre; opacity: 1;" transform="translate(0,287.4)">0.2</text></g><g class="ytick"><text text-anchor="end" x="39" y="3.8499999999999996" style="font-family: 'Open Sans', verdana, arial, sans-serif; font-size: 11px; fill: rgb(0, 0, 0); fill-opacity: 1; white-space: pre; opacity: 1;" transform="translate(0,242.5)">0.25</text></g><g class="ytick"><text text-anchor="end" x="39" y="3.8499999999999996" style="font-family: 'Open Sans', verdana, arial, sans-serif; font-size: 11px; fill: rgb(0, 0, 0); fill-opacity: 1; white-space: pre; opacity: 1;" transform="translate(0,197.6)">0.3</text></g><g class="ytick"><text text-anchor="end" x="39" y="3.8499999999999996" style="font-family: 'Open Sans', verdana, arial, sans-serif; font-size: 11px; fill: rgb(0, 0, 0); fill-opacity: 1; white-space: pre; opacity: 1;" transform="translate(0,152.7)">0.35</text></g><g class="ytick"><text text-anchor="end" x="39" y="3.8499999999999996" style="font-family: 'Open Sans', verdana, arial, sans-serif; font-size: 11px; fill: rgb(0, 0, 0); fill-opacity: 1; white-space: pre; opacity: 1;" transform="translate(0,107.8)">0.4</text></g><g class="ytick"><text text-anchor="end" x="39" y="3.8499999999999996" style="font-family: 'Open Sans', verdana, arial, sans-serif; font-size: 11px; fill: rgb(0, 0, 0); fill-opacity: 1; white-space: pre; opacity: 1;" transform="translate(0,62.9)">0.45</text></g><g class="ytick"><text text-anchor="end" x="39" y="3.8499999999999996" style="font-family: 'Open Sans', verdana, arial, sans-serif; font-size: 11px; fill: rgb(0, 0, 0); fill-opacity: 1; white-space: pre; opacity: 1;" transform="translate(0,18)">0.5</text></g></g><g class="overaxes-above"/></g></g><g class="polarlayer"/><g class="smithlayer"/><g class="ternarylayer"/><g class="geolayer"/><g class="funnelarealayer"/><g class="pielayer"/><g class="iciclelayer"/><g class="treemaplayer"/><g class="sunburstlayer"/><g class="glimages"/><defs id="topdefs-a7f8cd"><g class="clips"/><clipPath id="legenda7f8cd"><rect width="78" height="67" x="0" y="0"/></clipPath></defs><g class="layer-above"><g class="imagelayer"/><g class="shapelayer"/></g><g class="infolayer"><g class="legend" pointer-events="all" transform="translate(612.22,18)"><rect class="bg" shape-rendering="crispEdges" width="78" height="67" x="0" y="0" style="stroke: rgb(68, 68, 68); stroke-opacity: 1; fill: rgb(255, 255, 255); fill-opacity: 1; stroke-width: 0px;"/><g class="scrollbox" transform="" clip-path="url(#legenda7f8cd)"><g class="groups"><g class="traces" transform="translate(0,14.5)" style="opacity: 1;"><text class="legendtext" text-anchor="start" x="40" y="4.29" style="font-family: 'Open Sans', verdana, arial, sans-serif; font-size: 11px; fill: rgb(0, 0, 0); fill-opacity: 1; white-space: pre;">M1</text><g class="layers" style="opacity: 1;"><g class="legendfill"/><g class="legendlines"><path class="js-line" d="M5,0h30" style="fill: none; stroke: rgb(106, 90, 205); stroke-opacity: 1; stroke-width: 1.8px;"/></g><g class="legendsymbols"><g class="legendpoints"/></g></g><rect class="legendtoggle" x="0" y="-9.5" width="72.28125" height="19" style="fill: rgb(0, 0, 0); fill-opacity: 0;"/></g><g class="traces" transform="translate(0,33.5)" style="opacity: 1;"><text class="legendtext" text-anchor="start" x="40" y="4.29" style="font-family: 'Open Sans', verdana, arial, sans-serif; font-size: 11px; fill: rgb(0, 0, 0); fill-opacity: 1; white-space: pre;">M2</text><g class="layers" style="opacity: 1;"><g class="legendfill"/><g class="legendlines"><path class="js-line" d="M5,0h30" style="fill: none; stroke: rgb(117, 112, 179); stroke-opacity: 1; stroke-width: 1.8px;"/></g><g class="legendsymbols"><g class="legendpoints"/></g></g><rect class="legendtoggle" x="0" y="-9.5" width="72.28125" height="19" style="fill: rgb(0, 0, 0); fill-opacity: 0;"/></g><g class="traces" transform="translate(0,52.5)" style="opacity: 1;"><text class="legendtext" text-anchor="start" x="40" y="4.29" style="font-family: 'Open Sans', verdana, arial, sans-serif; font-size: 11px; fill: rgb(0, 0, 0); fill-opacity: 1; white-space: pre;">Model</text><g class="layers" style="opacity: 1;"><g class="legendfill"/><g class="legendlines"><path class="js-line" d="M5,0h30" style="fill: none; stroke: rgb(0, 0, 0); stroke-opacity: 1; stroke-dasharray: 3px, 3px; stroke-width: 1.8px;"/></g><g class="legendsymbols"><g class="legendpoints"/></g></g><rect class="legendtoggle" x="0" y="-9.5" width="72.28125" height="19" style="fill: rgb(0, 0, 0); fill-opacity: 0;"/></g></g></g><rect class="scrollbar" rx="20" ry="3" width="0" height="0" x="0" y="0" style="fill: rgb(128, 139, 164); fill-opacity: 1;"/></g><g class="g-gtitle"><text class="gtitle" x="35" y="9" text-anchor="start" dy="0em" style="opacity: 1; font-family: 'Open Sans', verdana, arial, sans-serif; font-size: 11px; fill: rgb(0, 0, 0); fill-opacity: 1; white-space: pre;"><tspan style="font-style:italic">O. anthropi</tspan></text></g><g class="g-xtitle" transform="translate(0,4.800000000000011)"><text class="xtitle" x="320.5" y="489.2" text-anchor="middle" style="opacity: 1; font-family: 'Open Sans', verdana, arial, sans-serif; font-size: 11px; fill: rgb(0, 0, 0); fill-opacity: 1; white-space: pre;">Time [h]</text></g><g class="g-ytitle"><text class="ytitle" transform="rotate(-90,13.853124999999999,242.5)" x="13.853124999999999" y="242.5" text-anchor="middle" style="opacity: 1; font-family: 'Open Sans', verdana, arial, sans-serif; font-size: 11px; fill: rgb(0, 0, 0); fill-opacity: 1; white-space: pre;">log(OD)</text></g></g></svg>