<svg class="main-svg" xmlns="http://www.w3.org/2000/svg" xmlns:xlink="http://www.w3.org/1999/xlink" width="300" height="250" style="" viewBox="0 0 300 250"><rect x="0" y="0" width="300" height="250" style="fill: rgb(255, 255, 255); fill-opacity: 1;"/><defs id="defs-0a1beb"><g class="clips"><clipPath id="clip0a1bebxyplot" class="plotclip"><rect width="205" height="210"/></clipPath><clipPath class="axesclip" id="clip0a1bebx"><rect x="22" y="0" width="205" height="250"/></clipPath><clipPath class="axesclip" id="clip0a1beby"><rect x="0" y="20" width="300" height="210"/></clipPath><clipPath class="axesclip" id="clip0a1bebxy"><rect x="22" y="20" width="205" height="210"/></clipPath></g><g class="gradients"/><g class="patterns"/></defs><g class="bglayer"/><g class="layer-below"><g class="imagelayer"/><g class="shapelayer"/></g><g class="cartesianlayer"><g class="subplot xy"><g class="layer-subplot"><g class="shapelayer"/><g class="imagelayer"/></g><g class="minor-gridlayer"><g class="x"/><g class="y"/></g><g class="gridlayer"><g class="x"><path class="xgrid crisp" transform="translate(44.519999999999996,0)" d="M0,20v210" style="stroke: rgb(0, 0, 0); stroke-opacity: 1; stroke-width: 0.5px;"/><path class="xgrid crisp" transform="translate(67.03,0)" d="M0,20v210" style="stroke: rgb(0, 0, 0); stroke-opacity: 1; stroke-width: 0.5px;"/><path class="xgrid crisp" transform="translate(89.55,0)" d="M0,20v210" style="stroke: rgb(0, 0, 0); stroke-opacity: 1; stroke-width: 0.5px;"/><path class="xgrid crisp" transform="translate(112.07,0)" d="M0,20v210" style="stroke: rgb(0, 0, 0); stroke-opacity: 1; stroke-width: 0.5px;"/><path class="xgrid crisp" transform="translate(134.59,0)" d="M0,20v210" style="stroke: rgb(0, 0, 0); stroke-opacity: 1; stroke-width: 0.5px;"/><path class="xgrid crisp" transform="translate(157.1,0)" d="M0,20v210" style="stroke: rgb(0, 0, 0); stroke-opacity: 1; stroke-width: 0.5px;"/><path class="xgrid crisp" transform="translate(179.62,0)" d="M0,20v210" style="stroke: rgb(0, 0, 0); stroke-opacity: 1; stroke-width: 0.5px;"/><path class="xgrid crisp" transform="translate(202.14,0)" d="M0,20v210" style="stroke: rgb(0, 0, 0); stroke-opacity: 1; stroke-width: 0.5px;"/><path class="xgrid crisp" transform="translate(224.65,0)" d="M0,20v210" style="stroke: rgb(0, 0, 0); stroke-opacity: 1; stroke-width: 0.5px;"/></g><g class="y"><path class="ygrid crisp" transform="translate(0,209)" d="M22,0h205" style="stroke: rgb(0, 0, 0); stroke-opacity: 1; stroke-width: 0.5px;"/><path class="ygrid crisp" transform="translate(0,188)" d="M22,0h205" style="stroke: rgb(0, 0, 0); stroke-opacity: 1; stroke-width: 0.5px;"/><path class="ygrid crisp" transform="translate(0,167)" d="M22,0h205" style="stroke: rgb(0, 0, 0); stroke-opacity: 1; stroke-width: 0.5px;"/><path class="ygrid crisp" transform="translate(0,146)" d="M22,0h205" style="stroke: rgb(0, 0, 0); stroke-opacity: 1; stroke-width: 0.5px;"/><path class="ygrid crisp" transform="translate(0,125)" d="M22,0h205" style="stroke: rgb(0, 0, 0); stroke-opacity: 1; stroke-width: 0.5px;"/><path class="ygrid crisp" transform="translate(0,104)" d="M22,0h205" style="stroke: rgb(0, 0, 0); stroke-opacity: 1; stroke-width: 0.5px;"/><path class="ygrid crisp" transform="translate(0,83)" d="M22,0h205" style="stroke: rgb(0, 0, 0); stroke-opacity: 1; stroke-width: 0.5px;"/><path class="ygrid crisp" transform="translate(0,62)" d="M22,0h205" style="stroke: rgb(0, 0, 0); stroke-opacity: 1; stroke-width: 0.5px;"/><path class="ygrid crisp" transform="translate(0,41)" d="M22,0h205" style="stroke: rgb(0, 0, 0); stroke-opacity: 1; stroke-width: 0.5px;"/></g></g><g class="zerolinelayer"><path class="xzl zl crisp" transform="translate(22,0)" d="M0,20v210" style="stroke: rgb(0, 0, 0); stroke-opacity: 1; stroke-width: 0.5px;"/><path class="yzl zl crisp" transform="translate(0,230)" d="M22,0h205" style="stroke: rgb(0, 0, 0); stroke-opacity: 1; stroke-width: 0.5px;"/></g><g class="layer-between"><g class="shapelayer"/><g class="imagelayer"/></g><path class="xlines-below"/><path class="ylines-below"/><g class="overlines-below"/><g class="xaxislayer-below"/><g class="yaxislayer-below"/><g class="overaxes-below"/><g class="overplot"><g class="xy" transform="translate(22,20)" clip-path="url(#clip0a1bebxyplot)"><g class="scatterlayer mlayer"><g class="trace scatter trace6cda58" style="stroke-miterlimit: 2; opacity: 1;"><g class="fills"/><g class="errorbars"/><g class="lines"><path class="js-line" d="M0,145.35L0.56,197.72L0.94,196.43L1,196.04L1.19,194.97L1.69,195.62L1.75,196.03L1.82,196.32L2.25,195.55L2.38,195.61L2.44,195.32L2.69,195.48L2.94,195.15L3.01,194.68L3.76,196.3L4.01,196L4.07,195.64L6.07,191.05L6.14,191.16L6.2,191.44L7.14,191.12L7.2,190.79L8.52,184.76L8.58,184.36L8.77,184.5L8.89,184.17L8.95,183.69L9.39,183.06L9.64,183.63L9.71,183.75L9.89,183.91L10.14,183.26L10.21,183.2L10.27,182.83L11.65,179.4L11.71,179.51L11.77,179.44L12.33,178.3L12.4,177.8L13.15,173.97L13.21,173.73L15.4,165.71L15.47,165.55L15.72,164.5L16.15,165.61L16.22,165.67L16.34,165.88L16.65,165.14L16.72,164.78L18.97,155.69L19.03,155.06L20.41,150.26L20.47,149.98L21.29,145.7L21.35,145.33L24.11,136.44L24.23,136.52L24.29,136.65L24.42,136.73L24.61,136.08L24.67,135.83L25.42,138.61L25.48,138.98L27.49,145.48L27.55,145.39L27.61,145.5L30.55,153.72L30.62,153.66L30.68,153.89L31.12,153.24L31.24,153.41L31.31,153.26L32.25,154.1L32.31,154.04L32.5,153.86L32.75,154.51L32.87,154.39L32.93,154.61L33.37,155.44L33.75,155.07L33.81,155.08L35.56,159.5L35.63,159.55L35.81,159.62L36.82,157.32L37.19,157.48L37.25,157.56L39.38,160.87L39.45,160.64L39.51,160.44L40.13,161.02L40.2,161.22L40.7,162.07L41.2,161.88L41.26,161.95L41.57,162.74L42.01,161.97L42.08,161.8L42.51,160.23L42.95,161.1L43.01,161.17L43.77,161.86L43.89,161.43L43.95,161.54L45.33,160.38L45.39,160.42L45.46,160.62L46.46,161.42L46.58,161.23L46.65,161.27L46.9,161.56L47.27,160.85L47.33,160.78L47.52,160.19L47.9,161.08L47.96,161.08L48.02,161.29L48.78,162.47L49.15,161.96L49.21,161.87L49.28,162.02L49.59,161.54L49.84,161.65L49.9,161.53L50.34,160.27L50.4,159.96L51.47,158.83L51.53,158.89L52.41,156.71L52.47,156.38L53.78,153.9L54.03,154.25L54.1,154.42L55.04,154.47L55.1,154.11L55.98,153.47L56.04,153.61L56.1,153.74L56.23,153.58L56.41,154.25L56.48,154.51L56.91,154.67L57.6,152.17L57.73,152.21L57.79,152.23L58.73,153.69L58.79,153.76L59.54,153.94L59.61,153.85L59.67,153.63L59.92,153.92L60.3,152.9L60.55,153.14L60.61,153.44L61.61,154.62L61.67,154.53L61.74,154.37L62.17,154.12L62.49,154.45L62.55,154.53L64.05,155.08L64.11,155.36L64.49,156.17L64.74,155.37L64.8,155.26L65.55,155.19L65.68,155.35L65.74,155.53L66.18,155.71L66.37,155.31L66.43,155.18L66.93,153.68L67.37,153.99L67.43,153.9L68.12,156.88L68.43,156.16L68.5,155.74L68.75,155.48L69.06,156.13L69.12,156.3L70.81,154.41L71.06,155.03L71.13,155.15L72,156L72.07,155.96L72.13,155.93L72.44,156.3L72.94,155.87L73.01,155.7L73.44,155.18L73.69,155.84L73.76,156.19L74.13,156.72L74.38,156L74.45,155.86L74.76,155.02L75.13,155.69L75.2,155.99L75.7,156.64L75.89,155.89L75.95,155.8L76.89,155.23L77.01,155.63L77.08,155.65L77.26,155.82L77.39,155.1L77.45,155.13L77.51,154.93L77.89,153.12L78.33,154.29L78.39,154.41L78.7,155.6L79.08,154.48L79.14,154.1L80.46,154.18L80.52,154.02L80.96,154.51L81.21,154.13L81.27,153.8L82.08,154.88L82.34,154.5L82.4,154.27L82.65,153.48L83.15,153.98L83.21,154.15L84.34,152.82L84.4,152.87L84.46,152.86L85.59,151.38L85.65,151.07L86.72,148.59L86.78,148.52L87.09,149.5L87.16,149.79L87.59,152L87.97,150.84L88.03,150.46L88.47,149.61L88.66,150.54L88.72,150.81L89.03,152.48L89.41,151.6L89.47,151.15L90.29,149.43L90.54,149.76L90.6,150.02L92.29,158.5L92.35,158.45L92.42,157.92L92.79,149.3L92.85,147.59L93.79,140.53L93.86,140.55L96.05,138.32L96.11,138.32L96.55,139.04L96.8,138.49L96.86,138.18L97.24,136.98L97.61,137.87L97.68,137.93L98.24,137.26L98.3,137.1L99.8,133.64L100.05,134.25L100.12,134.31L100.49,135.24L101.06,134.92L101.12,134.7L101.81,134.05L101.87,133.79L103.44,132.73L103.56,133.17L103.62,133.39L104.25,136.35L104.31,137.13L104.75,143.4L104.81,144.47L105.81,148.61L105.88,148.64L106.07,148.98L106.38,148.11L106.44,148.02L106.69,147.32L107.07,148.26L107.13,148.38L107.32,148.68L107.76,148.21L107.82,148.04L109.26,147.17L109.32,147.27L110.39,148.12L110.45,148.29L110.57,148.66L111.07,147.75L111.14,147.22L112.51,144.35L112.58,144.28L116.65,142.94L116.71,143.1L119.78,143.09L119.84,142.93L121.03,142.34L121.15,142.59L121.22,142.76L124.1,140.93L124.16,141.11L124.97,141.74L125.04,141.78L125.73,142.4L126.1,142.1L126.16,142.01L127.1,141.57L127.17,141.51L127.92,140.86L127.98,140.74L129.36,139.15L129.42,139.22L131.05,139.69L131.17,139.43L131.23,139.38L133.43,138.27L133.49,138.18L133.55,138.03L134.05,138.61L134.11,138.83L134.87,139.59L134.93,139.78L135.3,140.06L135.68,139.52L135.74,139.47L136.93,139.64L136.99,139.48L139.12,135.93L139.19,135.89L141.38,133.46L141.44,133.51L142.07,132.21L142.38,132.61L142.44,132.63L142.88,133.03L143.19,132.52L143.26,132.45L144.2,131.91L144.26,132.08L145.64,132.26L145.7,132.36L147.58,131.24L147.64,131.12L151.02,129.13L151.08,129.01L154.34,127.5L154.4,127.57L155.22,126.74L155.4,126.89L155.47,126.97L157.03,126.11L157.09,125.88L158.03,125.91L158.1,126.06L159.6,125.02L159.66,124.79L160.6,124.51L160.66,124.47L161.48,124.68L161.54,124.57L161.6,124.59L162.92,124.76L162.98,124.43L163.04,124.2L163.54,122.51L164.04,122.89L164.11,122.98L164.98,122.87L165.05,122.8L167.36,122.5L167.42,122.25L168.49,122.34L168.55,122.26L168.61,122.21L170.05,122.25L170.12,122.2L172.18,120.56L172.25,120.57L174,118.82L174.06,118.89L174.31,118.62L174.75,119.16L174.81,119.24L175.19,119.39L175.5,118.97L175.56,118.84L177.25,118.25L177.32,118.31L177.94,118.1L178.01,117.9L178.07,117.71L179.01,117.86L179.07,117.98L181.32,117.94L181.39,117.77L181.89,118.2L182.26,117.71L182.33,117.57L183.7,116.61L183.95,116.93L184.02,117.01L184.83,116.79L184.89,116.69L186.21,116.39L186.27,116.47L186.83,116.85L187.09,116.47L187.15,116.42L188.21,115.42L188.27,115.36L188.4,115.03L189.03,115.36L189.09,115.4L189.78,114.62L189.97,115.1L190.03,115.23L192.53,115.32L192.6,115.16L193.47,115.06L193.53,115.19L193.6,115.32L194.41,115.74L194.66,115.33L194.72,115.16L196.04,114.18L196.1,114.25L196.73,115.07L196.98,114.48L197.04,114.28L197.6,113.49L197.92,113.75L197.98,113.77L199.29,114.15L199.36,114.18L200.99,111.91L201.05,111.81L202.05,111.37L202.11,111.25L202.24,110.86L202.74,111.67L202.8,111.79L204.18,110.74L204.24,110.62L204.74,110.49L204.8,102.79L204.99,72.93" style="vector-effect: none; fill: none; stroke: rgb(106, 90, 205); stroke-opacity: 1; stroke-width: 1.8px; opacity: 1;"/></g><g class="points"/><g class="text"/></g><g class="trace scatter trace4c9739" style="stroke-miterlimit: 2; opacity: 1;"><g class="fills"/><g class="errorbars"/><g class="lines"><path class="js-line" d="M0,149.04L0.38,196.19L0.94,195.6L1,195.64L1.94,195.72L2,195.78L2.63,196.06L2.82,195.81L2.88,195.72L3.51,194.19L4.01,194.5L4.07,194.52L7.95,188.67L8.01,188.93L8.08,189.14L8.39,189.73L8.64,189.03L8.7,188.95L9.45,185.52L9.64,186.33L9.71,186.95L10.33,191.39L10.71,190.75L10.77,189.57L12.02,177.61L12.08,177.66L12.15,177.52L13.96,171.28L14.03,171.13L14.46,171.45L15.03,169.38L15.09,168.84L17.84,157.35L18.22,158.45L18.28,158.63L18.85,156.97L18.91,156.8L19.28,155.34L19.35,155.2L21.29,148.87L21.41,149.27L21.48,149.28L23.17,146.9L23.23,146.57L25.92,138.95L26.3,139.33L26.36,139.48L26.49,139.12L26.86,140.03L26.92,140.39L30.05,148.76L30.12,149.18L32,153.76L32.06,153.78L32.37,153.53L32.68,154.09L32.75,154.2L33.44,154.75L33.62,154.57L33.69,154.5L34.56,154.89L34.81,154.54L34.88,154.47L35.38,153.51L35.44,153.34L37.32,151.47L37.57,152.07L37.63,152.35L37.69,152.11L37.94,153.74L38.01,154.11L38.88,158.97L38.95,159.34L40.45,162.16L40.57,161.88L40.64,161.71L41.7,160.11L41.95,160.42L42.01,160.65L42.64,161.27L42.7,161.91L43.14,164.18L43.58,162.96L43.64,162.64L44.27,160.49L44.33,159.98L45.58,155.81L45.65,155.88L45.71,155.94L46.65,156.25L46.71,156.18L46.77,156.13L47.34,160.16L47.4,160.72L48.4,165.02L48.65,164.97L48.71,164.57L49.28,163.98L49.53,164.05L49.59,164.24L49.84,163.82L50.09,163.84L50.15,163.73L50.22,163.6L51.22,162.22L51.28,162.08L52.35,156.66L52.72,157.7L52.78,157.9L53.72,159.39L53.79,159.32L53.85,159.4L55.16,162.28L55.23,162.21L56.42,160.63L56.48,160.77L57.73,160.09L57.79,159.97L59.23,157.79L59.3,157.91L60.86,156.84L60.92,156.95L60.99,157.16L61.61,158.72L61.67,158.89L61.99,159.54L62.43,159.01L62.49,158.66L63.24,158.87L63.3,158.96L64.12,158.41L64.18,158.43L64.24,158.45L64.68,157.1L64.74,157.01L65.31,155.65L65.56,156.14L65.62,156.15L65.93,156.87L66.31,156.35L66.37,155.96L67.25,154.42L67.31,154.15L69,149.21L69.06,149.12L69.63,147.23L70,148.02L70.07,148.27L71.19,149.54L71.25,149.32L71.32,149.38L71.63,149.32L71.76,149.68L71.82,150.07L73.13,155.07L73.2,155.53L74.76,159.72L74.95,159.46L75.01,159.29L75.58,158.24L75.83,158.84L75.89,159.04L76.14,158.51L76.33,159.55L76.39,159.49L76.51,159.29L76.76,160.28L76.83,160.33L77.27,161.31L77.64,160.57L77.7,160.15L80.46,153.28L80.52,153.11L81.9,150.32L81.96,150.31L82.59,150.33L82.65,150.15L82.71,149.76L83.34,150.25L83.59,149.91L83.65,149.92L84.65,147.88L84.72,148.04L85.28,149.07L85.47,148.38L85.53,148.04L85.66,147.69L86.09,148.6L86.16,148.79L86.91,149.07L86.97,149.36L87.66,159.07L88.1,156.49L88.16,152.37L88.72,129.97L89.04,141.61L89.1,142.57L89.16,143.64L89.54,138.54L89.6,137.37L89.98,126.61L90.41,130.51L90.48,132.21L90.6,134.8L90.98,128.44L91.04,126.03L91.23,118.8L91.92,119.34L91.98,119.31L92.23,119.81L92.36,119.02L92.42,123.72L93.73,159.31L93.8,159.17L94.92,160.26L94.99,160.44L96.93,162.32L96.99,162.36L98.12,163.92L98.18,164.14L99.81,168.19L99.99,168.05L100.06,168.03L101.37,168.81L101.43,168.76L101.5,168.57L102.56,169.49L102.62,169.43L103.38,168.9L103.56,169.19L103.63,169.28L105.32,170.67L105.38,170.53L105.44,170.34L106.63,170.76L106.69,170.66L106.76,170.57L112.96,171.39L113.02,171.36L114.58,171.94L114.65,171.95L116.84,173.74L117.03,173.53L117.09,173.53L119.91,172.53L119.97,172.38L121.6,171.03L121.66,170.93L123.6,170.27L123.66,170.41L124.23,170.67L124.42,170.25L124.48,170.08L124.79,170.05L125.04,170.53L125.1,170.52L125.73,170.8L125.92,170.66L125.98,170.64L128.48,169.37L128.55,169.44L129.42,169.11L129.49,169.06L129.61,169.2L129.92,168.59L130.11,168.58L130.18,168.39L130.68,168.12L130.93,168.54L130.99,168.64L132.24,169.96L132.3,169.89L132.99,170.67L133.37,170.29L133.43,170.26L134.37,171.03L134.43,171.13L135.12,168.37L135.18,168.13L135.94,168.56L136,168.75L136.75,169.86L136.94,169.38L137,169.03L138.13,167.83L138.19,167.88L138.25,167.88L139.69,167.47L139.76,167.55L140.19,168.28L140.51,167.74L140.57,167.47L141.26,166.75L141.57,166.89L141.63,167.02L142.57,167.67L142.64,167.48L142.7,167.22L143.7,166.23L143.76,166.3L144.83,166.37L144.89,166.44L145.58,166.46L145.64,166.59L145.7,166.75L146.89,166.96L146.96,166.93L148.08,166.99L148.15,166.85L149.59,165.17L149.65,164.96L150.71,164.43L150.84,164.54L150.9,164.61L152.03,164.97L152.09,164.7L153.34,164.03L153.41,164.07L154.85,162.37L154.97,162.53L155.03,162.59L155.85,162.34L155.91,162.22L156.72,162.3L156.79,162.28L157.73,161.61L157.79,161.64L157.85,161.69L159.17,161.46L159.23,161.57L159.29,161.66L160.36,161.38L160.48,161.58L160.54,161.8L161.67,161.81L161.73,161.94L162.3,161.97L162.42,161.77L162.48,161.75L163.49,161.67L163.55,161.55L165.05,161.34L165.11,161.23L167.31,160.14L167.37,160.21L171.81,159.19L171.88,159.24L173.63,158.9L173.69,159.04L175.88,157.85L175.95,157.78L178.76,157.21L178.83,156.97L179.7,157.37L179.77,157.49L180.83,157.19L180.89,157.22L183.52,156.65L183.59,156.59L184.46,157.02L184.53,157.1L185.59,156.89L185.65,156.78L187.28,157.19L187.34,157.11L188.34,156.59L188.41,156.59L189.41,156.6L189.47,156.54L191.04,155.95L191.16,156.16L191.22,156.4L192.79,156.26L192.85,156.15L195.11,156.04L195.17,155.83L196.67,155.42L196.73,155.58L196.8,155.63L197.74,155.25L197.8,155.26L199.74,155.12L199.8,154.99L201.18,154.97L201.24,154.89L202.93,154.32L203,154.43L204.06,154.37L204.12,154.43L204.56,153.72L204.62,152.81L204.75,157.27L204.81,150.45L204.87,142.87L205,124.37" style="vector-effect: none; fill: none; stroke: rgb(117, 112, 179); stroke-opacity: 1; stroke-width: 1.8px; opacity: 1;"/></g><g class="points"/><g class="text"/></g><g class="trace scatter trace99aab9" style="stroke-miterlimit: 2; opacity: 1;"><g class="fills"/><g class="errorbars"/><g class="lines"><path class="js-line" d="M0,197.4L4.45,191.52L4.51,191.43L10.27,180.44L10.33,180.3L18.16,158.92L18.22,158.73L25.98,135.45L26.05,135.28L30.62,125.22L30.68,125.11L35.13,119.28L35.19,119.23L38.57,116.89L38.63,116.86L43.45,115.39L43.52,115.38L50.4,114.99L50.47,114.99L70.13,115.74L70.19,115.75L109.14,116.5L109.2,116.51L205,116.71" style="vector-effect: none; fill: none; stroke: rgb(0, 0, 0); stroke-opacity: 1; stroke-dasharray: 3px, 3px; stroke-width: 1.8px; opacity: 1;"/></g><g class="points"/><g class="text"/></g></g></g></g><path class="xlines-above crisp" d="M0,0" style="fill: none;"/><path class="ylines-above crisp" d="M0,0" style="fill: none;"/><g class="overlines-above"/><g class="xaxislayer-above"><g class="xtick"><text text-anchor="middle" x="0" y="239" transform="translate(22,0)" style="font-family: 'Open Sans', verdana, arial, sans-serif; font-size: 8px; fill: rgb(0, 0, 0); fill-opacity: 1; white-space: pre; opacity: 1;">0</text></g><g class="xtick"><text text-anchor="middle" x="0" y="239" style="font-family: 'Open Sans', verdana, arial, sans-serif; font-size: 8px; fill: rgb(0, 0, 0); fill-opacity: 1; white-space: pre; opacity: 1;" transform="translate(44.519999999999996,0)">6</text></g><g class="xtick"><text text-anchor="middle" x="0" y="239" style="font-family: 'Open Sans', verdana, arial, sans-serif; font-size: 8px; fill: rgb(0, 0, 0); fill-opacity: 1; white-space: pre; opacity: 1;" transform="translate(67.03,0)">12</text></g><g class="xtick"><text text-anchor="middle" x="0" y="239" style="font-family: 'Open Sans', verdana, arial, sans-serif; font-size: 8px; fill: rgb(0, 0, 0); fill-opacity: 1; white-space: pre; opacity: 1;" transform="translate(89.55,0)">18</text></g><g class="xtick"><text text-anchor="middle" x="0" y="239" style="font-family: 'Open Sans', verdana, arial, sans-serif; font-size: 8px; fill: rgb(0, 0, 0); fill-opacity: 1; white-space: pre; opacity: 1;" transform="translate(112.07,0)">24</text></g><g class="xtick"><text text-anchor="middle" x="0" y="239" style="font-family: 'Open Sans', verdana, arial, sans-serif; font-size: 8px; fill: rgb(0, 0, 0); fill-opacity: 1; white-space: pre; opacity: 1;" transform="translate(134.59,0)">30</text></g><g class="xtick"><text text-anchor="middle" x="0" y="239" style="font-family: 'Open Sans', verdana, arial, sans-serif; font-size: 8px; fill: rgb(0, 0, 0); fill-opacity: 1; white-space: pre; opacity: 1;" transform="translate(157.1,0)">36</text></g><g class="xtick"><text text-anchor="middle" x="0" y="239" style="font-family: 'Open Sans', verdana, arial, sans-serif; font-size: 8px; fill: rgb(0, 0, 0); fill-opacity: 1; white-space: pre; opacity: 1;" transform="translate(179.62,0)">42</text></g><g class="xtick"><text text-anchor="middle" x="0" y="239" style="font-family: 'Open Sans', verdana, arial, sans-serif; font-size: 8px; fill: rgb(0, 0, 0); fill-opacity: 1; white-space: pre; opacity: 1;" transform="translate(202.14,0)">48</text></g><g class="xtick"><text text-anchor="middle" x="0" y="239" style="font-family: 'Open Sans', verdana, arial, sans-serif; font-size: 8px; fill: rgb(0, 0, 0); fill-opacity: 1; white-space: pre; opacity: 1;" transform="translate(224.65,0)">54</text></g></g><g class="yaxislayer-above"><g class="ytick"><text text-anchor="end" x="21" y="2.8" transform="translate(0,230)" style="font-family: 'Open Sans', verdana, arial, sans-serif; font-size: 8px; fill: rgb(0, 0, 0); fill-opacity: 1; white-space: pre; opacity: 1;">0</text></g><g class="ytick"><text text-anchor="end" x="21" y="2.8" style="font-family: 'Open Sans', verdana, arial, sans-serif; font-size: 8px; fill: rgb(0, 0, 0); fill-opacity: 1; white-space: pre; opacity: 1;" transform="translate(0,209)">0.05</text></g><g class="ytick"><text text-anchor="end" x="21" y="2.8" style="font-family: 'Open Sans', verdana, arial, sans-serif; font-size: 8px; fill: rgb(0, 0, 0); fill-opacity: 1; white-space: pre; opacity: 1;" transform="translate(0,188)">0.1</text></g><g class="ytick"><text text-anchor="end" x="21" y="2.8" style="font-family: 'Open Sans', verdana, arial, sans-serif; font-size: 8px; fill: rgb(0, 0, 0); fill-opacity: 1; white-space: pre; opacity: 1;" transform="translate(0,167)">0.15</text></g><g class="ytick"><text text-anchor="end" x="21" y="2.8" style="font-family: 'Open Sans', verdana, arial, sans-serif; font-size: 8px; fill: rgb(0, 0, 0); fill-opacity: 1; white-space: pre; opacity: 1;" transform="translate(0,146)">0.2</text></g><g class="ytick"><text text-anchor="end" x="21" y="2.8" style="font-family: 'Open Sans', verdana, arial, sans-serif; font-size: 8px; fill: rgb(0, 0, 0); fill-opacity: 1; white-space: pre; opacity: 1;" transform="translate(0,125)">0.25</text></g><g class="ytick"><text text-anchor="end" x="21" y="2.8" style="font-family: 'Open Sans', verdana, arial, sans-serif; font-size: 8px; fill: rgb(0, 0, 0); fill-opacity: 1; white-space: pre; opacity: 1;" transform="translate(0,104)">0.3</text></g><g class="ytick"><text text-anchor="end" x="21" y="2.8" style="font-family: 'Open Sans', verdana, arial, sans-serif; font-size: 8px; fill: rgb(0, 0, 0); fill-opacity: 1; white-space: pre; opacity: 1;" transform="translate(0,83)">0.35</text></g><g class="ytick"><text text-anchor="end" x="21" y="2.8" style="font-family: 'Open Sans', verdana, arial, sans-serif; font-size: 8px; fill: rgb(0, 0, 0); fill-opacity: 1; white-space: pre; opacity: 1;" transform="translate(0,62)">0.4</text></g><g class="ytick"><text text-anchor="end" x="21" y="2.8" style="font-family: 'Open Sans', verdana, arial, sans-serif; font-size: 8px; fill: rgb(0, 0, 0); fill-opacity: 1; white-space: pre; opacity: 1;" transform="translate(0,41)">0.45</text></g><g class="ytick"><text text-anchor="end" x="21" y="2.8" style="font-family: 'Open Sans', verdana, arial, sans-serif; font-size: 8px; fill: rgb(0, 0, 0); fill-opacity: 1; white-space: pre; opacity: 1;" transform="translate(0,20)">0.5</text></g></g><g class="overaxes-above"/></g></g><g class="polarlayer"/><g class="smithlayer"/><g class="ternarylayer"/><g class="geolayer"/><g class="funnelarealayer"/><g class="pielayer"/><g class="iciclelayer"/><g class="treemaplayer"/><g class="sunburstlayer"/><g class="glimages"/><defs id="topdefs-0a1beb"><g class="clips"/><clipPath id="legend0a1beb"><rect width="69" height="67" x="0" y="0"/></clipPath></defs><g class="layer-above"><g class="imagelayer"/><g class="shapelayer"/></g><g class="infolayer"><g class="legend" pointer-events="all" transform="translate(231,20)"><rect class="bg" shape-rendering="crispEdges" width="69" height="67" x="0" y="0" style="stroke: rgb(68, 68, 68); stroke-opacity: 1; fill: rgb(255, 255, 255); fill-opacity: 1; stroke-width: 0px;"/><g class="scrollbox" transform="" clip-path="url(#legend0a1beb)"><g class="groups"><g class="traces" transform="translate(0,14.5)" style="opacity: 1;"><text class="legendtext" text-anchor="start" x="40" y="3.12" style="font-family: 'Open Sans', verdana, arial, sans-serif; font-size: 8px; fill: rgb(0, 0, 0); fill-opacity: 1; white-space: pre;">M1</text><g class="layers" style="opacity: 1;"><g class="legendfill"/><g class="legendlines"><path class="js-line" d="M5,0h30" style="fill: none; stroke: rgb(106, 90, 205); stroke-opacity: 1; stroke-width: 1.8px;"/></g><g class="legendsymbols"><g class="legendpoints"/></g></g><rect class="legendtoggle" x="0" y="-9.5" width="63.46875" height="19" style="fill: rgb(0, 0, 0); fill-opacity: 0;"/></g><g class="traces" transform="translate(0,33.5)" style="opacity: 1;"><text class="legendtext" text-anchor="start" x="40" y="3.12" style="font-family: 'Open Sans', verdana, arial, sans-serif; font-size: 8px; fill: rgb(0, 0, 0); fill-opacity: 1; white-space: pre;">M2</text><g class="layers" style="opacity: 1;"><g class="legendfill"/><g class="legendlines"><path class="js-line" d="M5,0h30" style="fill: none; stroke: rgb(117, 112, 179); stroke-opacity: 1; stroke-width: 1.8px;"/></g><g class="legendsymbols"><g class="legendpoints"/></g></g><rect class="legendtoggle" x="0" y="-9.5" width="63.46875" height="19" style="fill: rgb(0, 0, 0); fill-opacity: 0;"/></g><g class="traces" transform="translate(0,52.5)" style="opacity: 1;"><text class="legendtext" text-anchor="start" x="40" y="3.12" style="font-family: 'Open Sans', verdana, arial, sans-serif; font-size: 8px; fill: rgb(0, 0, 0); fill-opacity: 1; white-space: pre;">Model</text><g class="layers" style="opacity: 1;"><g class="legendfill"/><g class="legendlines"><path class="js-line" d="M5,0h30" style="fill: none; stroke: rgb(0, 0, 0); stroke-opacity: 1; stroke-dasharray: 3px, 3px; stroke-width: 1.8px;"/></g><g class="legendsymbols"><g class="legendpoints"/></g></g><rect class="legendtoggle" x="0" y="-9.5" width="63.46875" height="19" style="fill: rgb(0, 0, 0); fill-opacity: 0;"/></g></g></g><rect class="scrollbar" rx="20" ry="3" width="0" height="0" x="0" y="0" style="fill: rgb(128, 139, 164); fill-opacity: 1;"/></g><g class="g-gtitle"><text class="gtitle" x="15" y="10" text-anchor="start" dy="0em" style="opacity: 1; font-family: 'Open Sans', verdana, arial, sans-serif; font-size: 8px; fill: rgb(0, 0, 0); fill-opacity: 1; white-space: pre;"><tspan style="font-style:italic">O. anthropi</tspan></text></g><g class="g-xtitle" transform="translate(0,1.9000000000000057)"><text class="xtitle" x="124.5" y="246.1" text-anchor="middle" style="opacity: 1; font-family: 'Open Sans', verdana, arial, sans-serif; font-size: 8px; fill: rgb(0, 0, 0); fill-opacity: 1; white-space: pre;">Time [h]</text></g><g class="g-ytitle" transform="translate(6.1591796875,0)"><text class="ytitle" transform="rotate(-90,2.8406249999999993,125)" x="2.8406249999999993" y="125" text-anchor="middle" style="opacity: 1; font-family: 'Open Sans', verdana, arial, sans-serif; font-size: 8px; fill: rgb(0, 0, 0); fill-opacity: 1; white-space: pre;">log(OD)</text></g></g></svg>