<svg class="main-svg" xmlns="http://www.w3.org/2000/svg" xmlns:xlink="http://www.w3.org/1999/xlink" width="700" height="500" style="" viewBox="0 0 700 500"><rect x="0" y="0" width="700" height="500" style="fill: rgb(255, 255, 255); fill-opacity: 1;"/><defs id="defs-491917"><g class="clips"><clipPath id="clip491917xyplot" class="plotclip"><rect width="497" height="441"/></clipPath><clipPath class="axesclip" id="clip491917x"><rect x="49" y="0" width="497" height="500"/></clipPath><clipPath class="axesclip" id="clip491917y"><rect x="0" y="20" width="700" height="441"/></clipPath><clipPath class="axesclip" id="clip491917xy"><rect x="49" y="20" width="497" height="441"/></clipPath></g><g class="gradients"/><g class="patterns"/></defs><g class="bglayer"/><g class="layer-below"><g class="imagelayer"/><g class="shapelayer"/></g><g class="cartesianlayer"><g class="subplot xy"><g class="layer-subplot"><g class="shapelayer"/><g class="imagelayer"/></g><g class="minor-gridlayer"><g class="x"/><g class="y"/></g><g class="gridlayer"><g class="x"><path class="xgrid crisp" transform="translate(90.22999999999999,0)" d="M0,20v441" style="stroke: rgb(0, 0, 0); stroke-opacity: 1; stroke-width: 0.5px;"/><path class="xgrid crisp" transform="translate(131.47,0)" d="M0,20v441" style="stroke: rgb(0, 0, 0); stroke-opacity: 1; stroke-width: 0.5px;"/><path class="xgrid crisp" transform="translate(172.7,0)" d="M0,20v441" style="stroke: rgb(0, 0, 0); stroke-opacity: 1; stroke-width: 0.5px;"/><path class="xgrid crisp" transform="translate(213.94,0)" d="M0,20v441" style="stroke: rgb(0, 0, 0); stroke-opacity: 1; stroke-width: 0.5px;"/><path class="xgrid crisp" transform="translate(255.17,0)" d="M0,20v441" style="stroke: rgb(0, 0, 0); stroke-opacity: 1; stroke-width: 0.5px;"/><path class="xgrid crisp" transform="translate(296.40999999999997,0)" d="M0,20v441" style="stroke: rgb(0, 0, 0); stroke-opacity: 1; stroke-width: 0.5px;"/><path class="xgrid crisp" transform="translate(337.64,0)" d="M0,20v441" style="stroke: rgb(0, 0, 0); stroke-opacity: 1; stroke-width: 0.5px;"/><path class="xgrid crisp" transform="translate(378.88,0)" d="M0,20v441" style="stroke: rgb(0, 0, 0); stroke-opacity: 1; stroke-width: 0.5px;"/><path class="xgrid crisp" transform="translate(420.11,0)" d="M0,20v441" style="stroke: rgb(0, 0, 0); stroke-opacity: 1; stroke-width: 0.5px;"/><path class="xgrid crisp" transform="translate(461.35,0)" d="M0,20v441" style="stroke: rgb(0, 0, 0); stroke-opacity: 1; stroke-width: 0.5px;"/><path class="xgrid crisp" transform="translate(502.58,0)" d="M0,20v441" style="stroke: rgb(0, 0, 0); stroke-opacity: 1; stroke-width: 0.5px;"/><path class="xgrid crisp" transform="translate(543.8199999999999,0)" d="M0,20v441" style="stroke: rgb(0, 0, 0); stroke-opacity: 1; stroke-width: 0.5px;"/></g><g class="y"><path class="ygrid crisp" transform="translate(0,405.88)" d="M49,0h497" style="stroke: rgb(0, 0, 0); stroke-opacity: 1; stroke-width: 0.5px;"/><path class="ygrid crisp" transform="translate(0,350.75)" d="M49,0h497" style="stroke: rgb(0, 0, 0); stroke-opacity: 1; stroke-width: 0.5px;"/><path class="ygrid crisp" transform="translate(0,295.63)" d="M49,0h497" style="stroke: rgb(0, 0, 0); stroke-opacity: 1; stroke-width: 0.5px;"/><path class="ygrid crisp" transform="translate(0,240.5)" d="M49,0h497" style="stroke: rgb(0, 0, 0); stroke-opacity: 1; stroke-width: 0.5px;"/><path class="ygrid crisp" transform="translate(0,185.38)" d="M49,0h497" style="stroke: rgb(0, 0, 0); stroke-opacity: 1; stroke-width: 0.5px;"/><path class="ygrid crisp" transform="translate(0,130.25)" d="M49,0h497" style="stroke: rgb(0, 0, 0); stroke-opacity: 1; stroke-width: 0.5px;"/><path class="ygrid crisp" transform="translate(0,75.13)" d="M49,0h497" style="stroke: rgb(0, 0, 0); stroke-opacity: 1; stroke-width: 0.5px;"/></g></g><g class="zerolinelayer"><path class="xzl zl crisp" transform="translate(49,0)" d="M0,20v441" style="stroke: rgb(0, 0, 0); stroke-opacity: 1; stroke-width: 0.5px;"/><path class="yzl zl crisp" transform="translate(0,20)" d="M49,0h497" style="stroke: rgb(0, 0, 0); stroke-opacity: 1; stroke-width: 0.5px;"/></g><g class="layer-between"><g class="shapelayer"/><g class="imagelayer"/></g><path class="xlines-below"/><path class="ylines-below"/><g class="overlines-below"/><g class="xaxislayer-below"/><g class="yaxislayer-below"/><g class="overaxes-below"/><g class="overplot"><g class="xy" transform="translate(49,20)" clip-path="url(#clip491917xyplot)"><g class="scatterlayer mlayer"><g class="trace scatter trace7fe321" style="stroke-miterlimit: 2; opacity: 1;"><g class="fills"/><g class="errorbars"/><g class="lines"><path class="js-line" d="M1.03,425.92L2.18,425.92L3.33,420.79L5.62,420.79L6.76,406.7L10.2,344.37L11.34,337.1L12.49,334.78L13.63,330.28L26.23,240.39L27.38,234.68L28.52,226.64L29.67,224.09L33.11,209.89L34.25,205.54L36.54,200.67L37.69,202.73L44.56,215.98L45.71,214.43L50.29,199.99L51.43,197.98L52.58,196.01L53.72,192.16L56.01,166.93L57.16,163.97L59.45,162.99L60.6,164.45L62.89,166.43L64.03,165.93L67.47,167.94L68.61,165.93L75.49,160.6L76.63,160.13L78.92,160.6L80.07,158.73L82.36,158.26L83.5,157.8L84.65,157.8L85.8,156.88L88.09,155.07L89.23,155.52L90.38,155.07L91.52,153.28L97.25,151.52L98.4,151.96L99.54,151.09L100.69,151.96L102.98,149.79L104.12,150.22L106.41,149.79L107.56,146.83L108.7,148.51L109.85,147.25L110.99,146.83L112.14,145.59L113.29,146L114.43,145.17L115.58,146L116.72,145.17L117.87,145.17L119.01,144.35L120.16,144.76L121.3,143.54L123.59,143.54L124.74,142.73L128.18,142.33L129.32,141.93L130.47,141.93L131.61,143.14L132.76,141.13L133.9,140.74L135.05,140.74L136.19,141.93L139.63,140.34L140.78,141.13L143.07,139.95L144.21,140.74L148.79,138.39L149.94,138.01L152.23,138.01L153.38,139.56L154.52,138.39L155.67,138.78L157.96,138.39L159.1,139.17L160.25,137.62L161.39,138.01L163.68,137.62L164.83,135.72L167.12,136.86L168.27,136.48L170.56,136.86L171.7,136.48L173.99,136.48L175.14,137.24L178.57,136.1L179.72,137.24L180.87,136.48L182.01,138.39L183.16,136.1L184.3,136.1L186.59,134.59L187.74,136.86L188.88,136.1L190.03,136.48L191.17,134.97L192.32,136.1L195.76,135.34L196.9,135.72L201.48,135.34L202.63,134.22L204.92,134.59L206.06,133.85L207.21,133.48L208.36,135.34L209.5,134.59L210.65,134.97L212.94,134.22L214.08,135.34L215.23,134.97L216.37,133.48L217.52,134.59L218.66,134.22L219.81,135.34L220.95,133.85L222.1,134.22L223.25,132.01L224.39,133.11L225.54,132.74L226.68,133.48L227.83,132.01L230.12,132.74L231.26,133.11L233.55,132.37L234.7,131.64L235.85,132.74L236.99,131.28L239.28,132.74L240.43,129.84L241.57,132.01L242.72,130.92L247.3,132.37L248.44,130.92L249.59,132.01L250.74,131.28L251.88,130.55L253.03,132.01L255.32,132.01L256.46,132.01L257.61,130.92L258.75,130.92L262.19,133.48L263.34,133.11L264.48,132.74L265.63,131.28L266.77,132.01L267.92,131.28L269.06,133.48L270.21,130.92L272.5,130.92L273.64,130.55L274.79,132.37L275.93,132.01L277.08,130.2L278.23,130.2L279.37,129.12L280.52,130.92L281.66,129.48L282.81,131.28L283.95,129.48L285.1,131.64L287.39,132.37L288.53,130.92L289.68,129.84L290.83,130.92L291.97,133.85L293.12,132.37L294.26,133.48L295.41,133.11L298.84,128.06L299.99,130.2L301.13,129.12L302.28,130.92L304.57,129.12L305.72,131.28L306.86,129.84L308.01,131.28L309.15,133.85L310.3,134.59L312.59,132.74L313.73,131.64L314.88,130.2L316.02,131.28L317.17,133.85L318.32,133.48L320.61,133.11L321.75,133.85L322.9,134.22L324.04,133.11L325.19,132.74L326.33,128.77L327.48,127.71L328.62,127.71L329.77,128.77L330.91,127.71L333.21,130.2L334.35,130.55L335.5,129.84L336.64,132.01L337.79,129.12L338.93,129.48L340.08,130.2L341.22,127.36L342.37,130.2L343.51,128.77L346.95,132.01L348.1,132.74L349.24,129.48L350.39,129.12L351.53,129.84L352.68,128.77L353.82,127.71L354.97,128.41L356.11,130.55L357.26,129.12L358.4,129.84L359.55,129.12L361.84,127.71L362.99,128.41L364.13,129.12L365.28,127.71L366.42,129.12L367.57,124.59L368.71,126.66L369.86,126.66L371,128.41L372.15,126.66L373.3,126.66L374.44,124.59L375.59,126.31L376.73,126.31L379.02,126.31L380.17,125.97L381.31,127.01L382.46,126.66L383.6,127.01L384.75,123.57L385.89,126.31L387.04,125.28L388.19,124.25L389.33,127.01L390.48,128.41L391.62,125.62L393.91,126.31L395.06,123.24L396.2,122.23L397.35,119.92L398.49,118.29L399.64,117.97L400.79,117.33L401.93,118.61L404.22,117.65L405.37,119.26L407.66,120.57L408.8,119.26L409.95,118.29L411.09,119.59L412.24,119.92L413.38,121.56L415.68,119.92L416.82,120.24L419.11,118.61L420.26,118.94L422.55,119.92L423.69,121.9L427.13,122.56L428.28,120.57L429.42,122.23L430.57,120.24L434,122.56L435.15,119.26L437.44,121.56L438.58,122.23L439.73,121.9L440.87,120.24L443.17,120.57L444.31,118.94L446.6,120.9L447.75,119.92L452.33,120.57L453.47,119.59L460.35,119.59L461.49,120.24L462.64,119.59L463.78,120.9L466.07,119.59L467.22,117.01L468.36,117.65L469.51,119.59L471.8,117.65L472.95,118.94L474.09,121.56L475.24,120.57L477.53,120.57L478.67,121.56L480.96,123.24L482.11,122.23L484.4,122.23L485.55,120.9L487.84,121.23L488.98,122.9L490.13,122.56L491.27,120.9L492.42,119.92L493.56,121.56L494.71,120.9L495.85,123.57L497,122.56" style="vector-effect: none; fill: none; stroke: rgb(117, 112, 179); stroke-opacity: 1; stroke-width: 1.7px; opacity: 1;"/></g><g class="points"/><g class="text"/></g><g class="trace scatter trace10172d" style="stroke-miterlimit: 2; opacity: 1;"><g class="fills"/><g class="errorbars"/><g class="lines"><path class="js-line" d="M1.03,406.7L2.18,411.2L3.33,406.7L4.47,394.2L5.62,398.21L6.76,386.6L7.91,363.48L10.2,337.1L11.34,330.28L18.22,290.08L19.36,282.68L21.65,266.71L22.8,260.68L25.09,245.38L26.23,239.41L29.67,223.25L30.82,219.15L35.4,202.73L36.54,199.32L41.12,192.79L42.27,192.79L43.42,194.07L44.56,190.91L45.71,189.06L46.85,184.85L49.14,177.99L50.29,178.55L51.43,176.89L52.58,168.96L53.72,169.47L54.87,167.94L56.01,163.97L57.16,162.99L58.31,165.44L59.45,165.93L60.6,167.43L61.74,167.43L65.18,166.43L66.32,167.43L67.47,166.93L68.61,165.44L69.76,164.95L70.91,163.48L72.05,163.97L73.2,162.99L74.34,162.99L75.49,162.03L77.78,160.6L78.92,161.55L80.07,159.19L81.21,159.66L83.5,158.73L84.65,158.73L89.23,156.88L90.38,155.52L91.52,153.72L92.67,153.72L97.25,152.4L98.4,152.4L99.54,151.96L100.69,152.4L102.98,150.22L104.12,150.22L106.41,149.79L107.56,146.83L108.7,148.09L109.85,146.83L110.99,146.83L112.14,145.59L115.58,145.59L116.72,144.76L122.45,142.33L123.59,142.73L125.89,141.53L127.03,141.53L128.18,141.53L129.32,140.74L130.47,140.74L131.61,141.53L132.76,139.17L133.9,139.17L135.05,139.17L136.19,140.34L139.63,139.17L140.78,139.56L151.08,135.72L152.23,136.1L153.38,136.86L154.52,135.72L157.96,136.1L159.1,136.1L160.25,134.59L161.39,134.59L163.68,134.97L164.83,133.11L169.41,133.85L170.56,133.48L173.99,133.85L175.14,134.59L178.57,133.11L179.72,134.97L180.87,134.22L182.01,135.72L183.16,133.85L184.3,133.85L186.59,132.37L187.74,134.22L188.88,133.48L190.03,134.59L191.17,133.11L192.32,133.85L193.46,133.85L194.61,132.74L198.05,133.11L199.19,133.85L201.48,131.64L202.63,132.37L204.92,132.01L206.06,131.28L210.65,131.28L211.79,132.01L212.94,130.55L214.08,131.28L215.23,132.01L216.37,128.77L218.66,130.92L219.81,131.28L220.95,130.2L222.1,131.28L223.25,129.84L224.39,130.92L225.54,129.84L226.68,131.64L227.83,130.2L228.97,130.92L230.12,129.84L231.26,130.2L235.85,130.2L236.99,129.12L238.14,129.48L239.28,130.92L240.43,129.12L241.57,130.55L242.72,129.48L243.86,130.2L245.01,129.12L246.15,129.48L248.44,129.48L249.59,131.28L251.88,128.77L253.03,130.92L254.17,130.92L255.32,129.12L256.46,130.2L257.61,128.06L258.75,127.71L259.9,128.41L264.48,128.77L265.63,128.06L266.77,128.77L267.92,128.41L269.06,129.12L270.21,127.36L272.5,127.71L273.64,125.97L275.93,129.48L277.08,128.06L278.23,129.12L279.37,128.77L281.66,126.66L282.81,128.06L283.95,125.97L285.1,127.01L287.39,127.71L288.53,126.66L289.68,125.62L290.83,127.01L291.97,128.77L293.12,128.06L296.55,128.77L297.7,127.36L299.99,124.25L301.13,124.25L302.28,127.01L303.42,125.28L304.57,125.62L305.72,127.01L306.86,124.94L308.01,124.94L313.73,124.59L314.88,121.9L316.02,122.56L317.17,125.97L318.32,127.01L319.46,126.31L321.75,127.36L322.9,125.28L324.04,127.01L325.19,127.01L327.48,125.62L328.62,125.62L329.77,124.94L330.91,125.28L332.06,124.94L333.21,126.31L334.35,122.56L335.5,125.28L336.64,127.36L337.79,125.97L338.93,125.62L340.08,123.57L341.22,121.23L342.37,123.91L343.51,122.9L344.66,124.25L348.1,127.01L349.24,125.62L350.39,127.01L351.53,125.97L353.82,126.66L354.97,126.31L356.11,127.71L357.26,125.97L358.4,124.59L359.55,124.94L360.7,125.97L361.84,124.94L362.99,123.91L364.13,124.25L366.42,127.01L367.57,123.24L368.71,124.59L369.86,124.25L371,125.97L372.15,125.62L373.3,127.36L374.44,124.94L376.73,126.31L377.88,125.28L380.17,123.24L381.31,125.28L384.75,124.25L385.89,125.28L387.04,121.9L388.19,122.56L389.33,125.28L390.48,124.59L391.62,123.91L392.77,124.94L393.91,125.62L395.06,124.59L396.2,125.62L397.35,124.94L399.64,123.57L400.79,124.25L401.93,125.28L403.08,124.59L406.51,123.91L407.66,124.94L408.8,125.28L409.95,122.9L413.38,126.66L414.53,125.62L415.68,124.59L416.82,126.31L417.97,124.25L419.11,123.91L420.26,122.23L421.4,122.56L422.55,123.57L423.69,122.9L425.98,124.25L427.13,123.91L428.28,122.9L429.42,124.59L432.86,125.28L434,123.57L435.15,118.94L436.29,119.92L437.44,120.57L438.58,123.57L439.73,122.56L440.87,124.25L442.02,123.91L443.17,124.59L444.31,127.71L445.46,125.28L446.6,127.01L447.75,124.25L448.89,125.28L450.04,124.94L451.18,125.62L452.33,125.28L455.77,125.28L456.91,124.94L458.06,125.62L459.2,124.25L460.35,126.31L461.49,124.25L462.64,124.59L463.78,122.9L466.07,122.56L467.22,123.57L468.36,122.23L469.51,123.24L470.66,126.31L471.8,124.59L472.95,123.91L474.09,124.94L476.38,123.91L477.53,122.23L479.82,123.91L480.96,123.91L482.11,124.94L483.26,122.23L485.55,126.66L486.69,124.94L487.84,122.56L488.98,124.94L490.13,126.66L491.27,123.57L492.42,123.24L493.56,124.25L494.71,120.9L495.85,122.23L497,124.59" style="vector-effect: none; fill: none; stroke: rgb(117, 112, 179); stroke-opacity: 1; stroke-width: 1.7px; opacity: 1;"/></g><g class="points"/><g class="text"/></g><g class="trace scatter traced923d2" style="stroke-miterlimit: 2; opacity: 1;"><g class="fills"/><g class="errorbars"/><g class="lines"><path class="js-line" d="M1.03,406.7L2.18,406.7L3.33,402.37L5.62,390.34L6.76,376.09L7.91,346.91L9.05,341.9L10.2,344.37L11.34,339.47L12.49,339.47L13.63,334.78L14.78,319.77L15.93,317.78L19.36,285.58L20.51,274.4L22.8,259.52L23.94,250.6L26.23,237.5L27.38,229.26L29.67,217.55L30.82,215.98L35.4,199.32L36.54,197.98L38.83,194.71L39.98,191.53L44.56,184.26L45.71,181.37L48,177.44L49.14,174.72L50.29,169.47L51.43,168.45L52.58,167.43L53.72,162.03L54.87,159.19L56.01,159.19L57.16,159.66L58.31,162.03L62.89,164.95L64.03,165.44L66.32,166.93L67.47,166.43L70.91,162.99L72.05,163.48L73.2,162.03L74.34,162.51L76.63,160.6L77.78,159.66L78.92,160.13L80.07,158.26L81.21,158.26L82.36,156.88L85.8,155.52L86.94,154.62L89.23,154.17L90.38,151.96L93.81,150.22L94.96,150.22L98.4,149.37L99.54,147.67L100.69,149.37L101.83,146.83L102.98,146.83L104.12,147.67L107.56,143.54L108.7,144.35L110.99,143.14L112.14,141.53L113.29,142.33L114.43,141.13L115.58,141.93L116.72,141.13L117.87,141.53L119.01,140.34L120.16,140.34L121.3,139.17L122.45,139.56L123.59,138.78L124.74,138.01L125.89,138.39L127.03,138.78L128.18,137.62L130.47,137.24L131.61,138.01L132.76,136.48L133.9,136.48L135.05,136.1L136.19,137.24L138.48,135.34L139.63,135.34L141.92,135.72L143.07,135.34L146.5,133.85L147.65,134.59L148.79,133.11L149.94,133.11L151.08,132.37L152.23,133.11L153.38,134.22L154.52,132.74L155.67,133.11L156.81,132.37L159.1,132.74L160.25,131.64L161.39,132.37L162.54,132.01L163.68,131.64L164.83,129.84L167.12,131.28L168.27,130.92L170.56,130.92L171.7,130.2L176.28,131.28L177.43,129.84L178.57,130.55L179.72,130.2L180.87,130.2L182.01,131.28L183.16,129.48L184.3,130.55L185.45,130.2L186.59,128.41L187.74,130.92L188.88,130.2L190.03,130.55L191.17,129.12L201.48,129.48L202.63,128.06L203.77,129.48L204.92,128.77L206.06,127.71L207.21,127.71L208.36,129.12L209.5,128.41L210.65,129.48L211.79,128.41L212.94,128.06L214.08,129.12L216.37,127.36L217.52,128.77L223.25,126.66L224.39,128.06L226.68,128.41L227.83,126.66L228.97,128.06L230.12,128.06L233.55,126.66L234.7,126.66L235.85,128.41L236.99,125.28L239.28,126.66L240.43,124.94L241.57,125.97L242.72,125.97L246.15,124.59L247.3,125.62L248.44,124.25L249.59,125.28L251.88,123.91L253.03,124.59L255.32,124.25L256.46,123.57L257.61,121.23L258.75,122.56L259.9,124.25L261.04,122.9L262.19,125.28L263.34,123.57L266.77,122.9L267.92,121.23L269.06,123.91L270.21,121.23L271.35,122.56L272.5,122.56L274.79,123.24L275.93,121.56L277.08,120.24L278.23,121.23L279.37,119.92L280.52,121.23L281.66,120.57L282.81,120.9L283.95,118.29L285.1,119.92L286.24,120.24L287.39,119.26L288.53,117.33L289.68,117.33L291.97,120.24L293.12,119.26L294.26,119.92L295.41,118.61L297.7,117.97L298.84,117.33L299.99,114.8L301.13,115.43L302.28,117.33L303.42,115.43L305.72,117.65L306.86,114.49L308.01,114.8L309.15,116.06L310.3,115.74L311.44,117.01L313.73,115.43L314.88,115.11L316.02,113.87L317.17,116.37L319.46,115.11L320.61,115.43L321.75,116.06L322.9,114.8L325.19,114.8L326.33,112.33L328.62,112.33L329.77,113.87L330.91,112.94L332.06,113.56L333.21,115.43L334.35,113.87L335.5,112.64L336.64,114.49L337.79,111.72L338.93,111.42L340.08,112.03L341.22,109.02L342.37,112.03L343.51,110.21L345.81,112.03L346.95,115.11L348.1,113.25L349.24,109.91L350.39,112.33L351.53,111.72L352.68,113.25L353.82,111.72L354.97,111.42L356.11,112.94L359.55,112.64L360.7,111.42L362.99,110.81L364.13,112.94L365.28,112.64L366.42,113.25L367.57,109.62L368.71,110.51L369.86,111.42L371,114.18L372.15,110.81L373.3,112.03L374.44,110.21L375.59,112.64L376.73,112.03L377.88,110.51L380.17,106.39L381.31,109.91L382.46,111.72L383.6,110.81L384.75,109.02L385.89,111.72L387.04,110.81L388.19,108.73L390.48,110.21L391.62,107.84L392.77,105.81L393.91,111.12L395.06,108.73L396.2,111.42L397.35,105.81L398.49,106.68L400.79,105.23L401.93,106.1L403.08,105.52L404.22,107.26L405.37,105.81L406.51,106.68L407.66,108.14L408.8,106.39L409.95,107.84L411.09,107.84L413.38,110.21L414.53,106.97L415.68,109.62L416.82,106.39L417.97,105.23L419.11,102.41L421.4,104.38L422.55,106.97L424.84,108.73L425.98,107.55L427.13,106.68L428.28,104.66L429.42,105.81L430.57,104.1L431.71,106.97L432.86,106.68L434,108.14L435.15,105.52L437.44,107.26L438.58,106.68L442.02,102.97L443.17,104.38L445.46,102.41L446.6,105.81L447.75,103.81L448.89,103.53L450.04,105.23L451.18,104.1L452.33,104.38L453.47,106.1L455.77,104.38L456.91,104.95L459.2,103.25L460.35,101.85L462.64,102.13L463.78,103.25L464.93,101.85L466.07,102.41L467.22,99.65L468.36,100.47L469.51,103.81L470.66,103.81L471.8,100.75L472.95,102.97L474.09,106.1L475.24,101.3L476.38,101.3L477.53,102.69L478.67,100.47L479.82,100.47L480.96,101.85L482.11,100.75L484.4,102.41L485.55,100.75L486.69,101.02L487.84,99.92L488.98,102.13L490.13,101.02L492.42,99.38L493.56,102.97L494.71,100.47L495.85,102.97L497,101.3" style="vector-effect: none; fill: none; stroke: rgb(117, 112, 179); stroke-opacity: 1; stroke-width: 1.7px; opacity: 1;"/></g><g class="points"/><g class="text"/></g><g class="trace scatter trace44d9b5" style="stroke-miterlimit: 2; opacity: 1;"><g class="fills"/><g class="errorbars"/><g class="lines"><path class="js-line" d="M1.03,419.99L27.38,227.48" style="vector-effect: none; fill: none; stroke: rgb(0, 0, 0); stroke-opacity: 1; stroke-dasharray: 9px, 9px; stroke-width: 1.7px; opacity: 1;"/></g><g class="points"/><g class="text"/></g><g class="trace scatter tracef7bfee" style="stroke-miterlimit: 2; opacity: 1;"><g class="fills"/><g class="errorbars"/><g class="lines"><path class="js-line" d="M1.03,379.48L5.62,344.37L6.76,339.47L9.05,313.92L10.2,296.38L15.93,261.86L17.07,256.09L19.36,248.48L20.51,243.35L22.8,240.39L23.94,235.61L25.09,228.38L26.23,227.51L28.52,213.66L29.67,213.66L30.82,212.9L31.96,210.64L34.25,202.73L35.4,204.13L36.54,199.99L37.69,200.67L38.83,199.32L39.98,201.36L41.12,202.04L42.27,199.99L44.56,197.98L45.71,198.65L46.85,196.66L48,196.66L50.29,192.79L51.43,194.07L52.58,193.43L53.72,194.71L56.01,187.23L57.16,186.63L58.31,185.44L59.45,185.44L61.74,175.26L62.89,174.18L65.18,165.44L66.32,165.93L67.47,169.47L68.61,161.08L70.91,155.97L72.05,156.42L73.2,153.28L74.34,152.4L77.78,146.41L78.92,146.83L81.21,141.53L82.36,143.95L83.5,137.24L84.65,137.24L85.8,138.39L86.94,135.34L89.23,140.34L90.38,139.17L91.52,136.86L92.67,136.48L93.81,133.11L94.96,133.48L96.1,132.74L97.25,130.2L99.54,136.86L100.69,139.95L101.83,132.74L102.98,132.37L104.12,133.85L105.27,132.01L107.56,126.31L108.7,127.01L110.99,125.28L112.14,121.9L113.29,123.57L114.43,121.56L116.72,120.24L117.87,121.9L119.01,121.23L120.16,122.23L121.3,121.56L122.45,124.25L124.74,119.92L125.89,120.57L127.03,121.23L128.18,119.59L130.47,120.24L131.61,121.9L132.76,118.94L133.9,118.29L135.05,118.94L136.19,121.56L137.34,120.9L138.48,121.23L139.63,120.9L140.78,121.56L141.92,120.57L143.07,121.23L145.36,121.23L146.5,118.29L147.65,119.59L148.79,117.97L149.94,119.26L151.08,117.97L153.38,121.56L154.52,120.57L155.67,121.56L156.81,120.24L160.25,119.59L161.39,121.56L162.54,120.57L163.68,121.23L164.83,118.94L165.97,120.24L170.56,121.23L171.7,120.24L172.85,119.92L173.99,121.56L176.28,123.24L177.43,120.57L178.57,122.56L179.72,121.9L180.87,122.23L182.01,124.25L183.16,121.56L184.3,123.24L185.45,122.9L186.59,119.92L187.74,123.24L188.88,123.57L194.61,121.23L195.76,122.56L196.9,121.9L198.05,123.24L199.19,123.24L200.34,122.23L201.48,123.91L202.63,121.56L203.77,122.9L204.92,122.9L207.21,121.23L208.36,123.24L210.65,123.91L211.79,121.56L212.94,120.57L214.08,122.56L216.37,120.24L217.52,122.9L218.66,123.24L219.81,122.56L220.95,122.9L222.1,122.23L223.25,120.9L224.39,122.23L226.68,122.56L227.83,120.24L230.12,122.9L231.26,123.24L232.41,121.56L233.55,121.56L234.7,120.9L235.85,123.24L236.99,120.24L238.14,121.9L240.43,119.92L241.57,121.56L245.01,121.9L246.15,120.9L247.3,122.23L248.44,119.59L249.59,121.23L250.74,120.57L254.17,121.23L255.32,120.57L256.46,120.57L257.61,117.33L259.9,121.56L261.04,120.57L262.19,122.56L263.34,121.23L264.48,119.26L265.63,119.92L266.77,120.24L267.92,118.61L269.06,121.56L270.21,118.29L271.35,119.59L272.5,118.94L273.64,118.61L274.79,120.57L275.93,119.92L277.08,117.97L278.23,118.29L279.37,117.65L280.52,118.29L281.66,117.65L282.81,119.59L283.95,117.97L285.1,120.24L286.24,118.94L287.39,119.26L288.53,117.65L289.68,118.29L290.83,120.24L291.97,121.56L293.12,120.57L294.26,121.56L295.41,119.26L296.55,120.57L297.7,119.26L298.84,118.61L299.99,115.74L302.28,119.26L303.42,117.01L305.72,119.59L306.86,117.01L309.15,117.65L310.3,119.59L311.44,119.59L312.59,117.33L314.88,116.69L316.02,113.56L317.17,117.97L318.32,117.97L320.61,116.69L321.75,117.01L322.9,116.37L324.04,117.01L325.19,118.29L326.33,116.06L328.62,112.64L329.77,114.49L330.91,112.33L332.06,112.94L333.21,115.11L334.35,113.87L335.5,114.8L336.64,117.33L337.79,113.56L338.93,115.74L340.08,115.43L341.22,112.94L342.37,116.06L343.51,113.87L345.81,116.06L346.95,119.59L348.1,117.65L349.24,113.56L350.39,116.69L351.53,116.06L352.68,117.65L353.82,116.37L354.97,115.74L356.11,117.33L357.26,117.01L358.4,114.8L359.55,115.43L360.7,114.18L361.84,114.8L362.99,114.49L364.13,117.33L365.28,116.37L366.42,116.69L367.57,111.72L369.86,114.49L371,118.29L372.15,116.06L373.3,117.33L374.44,115.74L375.59,116.69L376.73,116.06L377.88,116.69L380.17,109.62L381.31,113.56L382.46,116.37L383.6,114.8L384.75,113.87L385.89,116.37L388.19,113.25L389.33,115.43L390.48,116.37L391.62,113.56L392.77,109.91L393.91,115.11L395.06,112.03L396.2,115.74L397.35,111.12L398.49,111.12L399.64,113.56L400.79,112.94L401.93,111.72L403.08,113.87L404.22,113.56L405.37,111.42L406.51,113.25L407.66,112.94L408.8,111.72L409.95,112.64L411.09,112.94L412.24,116.06L413.38,116.06L414.53,113.25L415.68,114.49L416.82,110.81L417.97,112.33L419.11,111.42L420.26,109.91L421.4,112.64L424.84,118.29L425.98,116.06L427.13,115.74L428.28,111.42L429.42,112.94L430.57,109.91L431.71,114.49L432.86,112.64L434,116.37L435.15,111.72L437.44,114.8L438.58,113.56L439.73,112.94L440.87,111.42L442.02,112.33L443.17,111.42L444.31,107.84L445.46,110.21L446.6,114.18L447.75,111.42L448.89,110.81L450.04,113.56L451.18,112.03L452.33,112.33L454.62,112.94L455.77,110.81L456.91,113.25L458.06,112.94L460.35,107.84L461.49,109.62L462.64,109.62L463.78,110.81L464.93,109.02L466.07,110.51L467.22,107.55L468.36,110.21L469.51,114.18L470.66,112.03L471.8,108.43L472.95,111.42L474.09,113.25L475.24,109.62L478.67,111.42L479.82,111.12L480.96,112.33L482.11,111.12L483.26,112.64L484.4,111.42L485.55,108.43L486.69,109.91L487.84,109.91L488.98,112.03L490.13,109.02L491.27,109.32L492.42,109.02L493.56,111.72L494.71,109.62L495.85,112.33L497,109.02" style="vector-effect: none; fill: none; stroke: rgb(217, 95, 2); stroke-opacity: 1; stroke-width: 1.7px; opacity: 1;"/></g><g class="points"/><g class="text"/></g><g class="trace scatter trace914ce7" style="stroke-miterlimit: 2; opacity: 1;"><g class="fills"/><g class="errorbars"/><g class="lines"><path class="js-line" d="M1.03,382.98L4.47,357.67L5.62,354.88L10.2,304.8L11.34,296.38L13.63,284.12L14.78,278.46L15.93,277.09L17.07,274.4L20.51,261.86L21.65,260.68L23.94,256.09L25.09,252.76L26.23,250.6L27.38,245.38L28.52,241.37L29.67,240.39L30.82,239.41L31.96,236.55L34.25,228.38L35.4,229.26L37.69,225.79L38.83,222.42L39.98,219.96L41.12,221.59L43.42,217.55L44.56,213.66L45.71,212.9L46.85,208.42L49.14,206.97L50.29,203.43L51.43,204.13L52.58,202.73L53.72,199.32L54.87,199.32L57.16,195.36L58.31,195.36L59.45,197.32L60.6,196.01L61.74,192.79L62.89,193.43L65.18,187.23L66.32,184.85L67.47,182.52L68.61,175.26L69.76,174.72L70.91,172.59L73.2,162.99L74.34,161.55L75.49,160.13L76.63,154.62L78.92,153.28L80.07,149.79L82.36,150.66L83.5,148.94L85.8,146.83L86.94,144.35L88.09,143.95L89.23,145.59L90.38,146L91.52,140.34L92.67,141.13L93.81,138.78L96.1,137.62L97.25,136.48L98.4,136.48L99.54,128.77L100.69,145.17L101.83,144.35L104.12,140.34L105.27,139.56L106.41,138.78L107.56,135.34L108.7,135.72L109.85,134.97L110.99,133.85L112.14,131.64L115.58,130.2L116.72,129.12L121.3,128.06L122.45,129.12L124.74,127.71L125.89,127.01L127.03,127.71L128.18,127.01L129.32,126.66L130.47,127.36L131.61,128.06L132.76,126.66L135.05,126.31L136.19,127.36L139.63,127.01L140.78,128.06L146.5,127.01L147.65,127.01L149.94,125.62L151.08,125.28L153.38,126.66L154.52,125.97L157.96,126.31L159.1,126.31L160.25,124.94L161.39,125.28L163.68,125.97L164.83,124.25L170.56,125.62L171.7,124.94L176.28,125.97L177.43,125.28L180.87,125.97L182.01,127.71L183.16,126.31L184.3,126.31L185.45,125.97L186.59,124.59L187.74,126.66L188.88,126.31L190.03,127.36L191.17,126.31L193.46,127.01L194.61,126.31L204.92,126.31L206.06,125.97L207.21,124.94L208.36,126.31L210.65,127.01L211.79,125.97L212.94,125.97L214.08,127.01L215.23,127.01L216.37,125.28L218.66,127.36L219.81,127.71L220.95,126.31L222.1,127.01L224.39,127.01L225.54,127.01L226.68,128.06L227.83,126.66L232.41,127.36L233.55,127.01L234.7,126.66L235.85,128.06L236.99,127.01L238.14,127.01L239.28,127.71L240.43,126.66L241.57,128.06L242.72,127.36L247.3,128.06L248.44,127.36L249.59,128.41L250.74,127.36L251.88,127.36L253.03,128.41L256.46,128.41L257.61,127.36L258.75,127.01L259.9,128.06L262.19,129.12L263.34,128.41L264.48,127.71L265.63,128.06L266.77,128.41L267.92,126.66L269.06,128.77L270.21,127.36L271.35,128.41L272.5,127.71L273.64,127.36L274.79,128.41L275.93,128.41L277.08,127.01L278.23,127.36L279.37,126.66L280.52,127.71L281.66,126.66L282.81,128.41L283.95,127.01L285.1,128.41L286.24,128.41L287.39,129.12L288.53,128.06L289.68,127.36L290.83,128.41L291.97,130.2L293.12,129.48L295.41,129.48L296.55,129.48L299.99,126.66L301.13,127.01L302.28,129.12L303.42,127.71L305.72,129.12L306.86,127.36L308.01,128.41L309.15,128.41L311.44,129.12L312.59,128.06L313.73,128.06L314.88,127.01L316.02,127.01L317.17,129.12L318.32,129.48L319.46,128.77L322.9,127.71L324.04,128.77L325.19,129.12L326.33,127.36L328.62,126.31L329.77,127.71L332.06,127.71L333.21,127.71L334.35,126.66L335.5,127.71L336.64,129.48L337.79,126.66L340.08,128.06L341.22,125.62L342.37,128.41L343.51,127.01L348.1,129.84L349.24,127.71L350.39,129.12L351.53,128.06L354.97,128.41L356.11,129.84L358.4,127.71L359.55,128.41L362.99,126.66L364.13,128.77L366.42,129.48L367.57,125.97L368.71,127.36L369.86,127.36L371,129.84L372.15,128.41L373.3,129.48L374.44,128.06L375.59,128.77L376.73,128.41L377.88,128.77L379.02,127.01L380.17,125.97L381.31,128.41L382.46,129.48L383.6,128.77L384.75,128.06L385.89,129.12L388.19,127.71L389.33,129.12L390.48,129.12L391.62,127.71L392.77,126.31L393.91,129.84L395.06,127.71L396.2,129.48L397.35,127.36L398.49,127.01L399.64,128.06L400.79,127.36L401.93,126.31L403.08,128.06L404.22,128.06L405.37,125.62L407.66,128.41L408.8,128.06L409.95,127.36L411.09,128.06L413.38,130.2L414.53,127.71L415.68,128.41L416.82,127.01L419.11,126.31L420.26,125.62L422.55,129.12L423.69,129.12L424.84,130.55L425.98,129.84L427.13,130.2L428.28,127.71L429.42,128.77L430.57,126.66L431.71,128.77L432.86,128.77L434,130.92L435.15,128.06L437.44,129.48L438.58,129.48L440.87,127.36L442.02,128.41L444.31,125.97L445.46,127.36L446.6,129.48L447.75,127.71L448.89,127.71L450.04,128.77L452.33,128.06L453.47,127.71L454.62,128.77L455.77,127.71L456.91,128.77L458.06,128.77L459.2,128.06L460.35,126.31L461.49,127.36L462.64,126.31L463.78,127.36L464.93,125.97L466.07,127.01L467.22,125.62L468.36,127.01L469.51,129.84L470.66,129.12L471.8,126.31L474.09,130.2L475.24,127.71L479.82,128.06L480.96,129.12L482.11,128.06L483.26,128.77L484.4,128.77L485.55,126.31L486.69,127.71L487.84,127.71L488.98,128.77L490.13,127.36L492.42,126.66L493.56,128.41L494.71,127.01L495.85,129.12L497,127.01" style="vector-effect: none; fill: none; stroke: rgb(217, 95, 2); stroke-opacity: 1; stroke-width: 1.7px; opacity: 1;"/></g><g class="points"/><g class="text"/></g><g class="trace scatter trace6adb0d" style="stroke-miterlimit: 2; opacity: 1;"><g class="fills"/><g class="errorbars"/><g class="lines"><path class="js-line" d="M1.03,382.98L6.76,334.78L7.91,315.83L10.2,288.56L11.34,281.25L15.93,259.52L17.07,256.09L19.36,250.6L20.51,245.38L21.65,245.38L22.8,244.36L23.94,243.35L25.09,239.41L26.23,238.45L27.38,235.61L29.67,229.26L30.82,229.26L31.96,228.38L33.11,225.79L36.54,221.59L37.69,220.77L38.83,216.76L39.98,217.55L41.12,215.2L42.27,215.2L45.71,208.42L46.85,208.42L50.29,201.36L51.43,201.36L54.87,196.01L56.01,196.01L57.16,193.43L58.31,197.98L59.45,194.07L60.6,194.07L62.89,192.16L64.03,186.04L67.47,181.37L68.61,174.18L70.91,169.47L72.05,163.97L73.2,160.13L74.34,159.66L75.49,157.8L76.63,153.72L77.78,152.4L78.92,152.84L80.07,149.37L81.21,150.22L82.36,151.52L83.5,149.79L84.65,149.37L85.8,148.09L86.94,145.59L88.09,146.41L89.23,147.67L90.38,147.25L91.52,142.33L92.67,143.14L94.96,140.34L96.1,139.56L98.4,138.78L99.54,130.92L100.69,132.74L101.83,141.13L102.98,146.41L104.12,143.95L106.41,140.74L107.56,136.48L108.7,136.48L109.85,134.59L110.99,133.48L112.14,130.92L113.29,130.55L114.43,129.12L116.72,127.01L117.87,127.01L119.01,126.31L120.16,126.66L121.3,125.62L122.45,126.31L125.89,123.24L127.03,123.57L129.32,122.23L130.47,122.56L131.61,123.91L132.76,121.9L135.05,122.56L136.19,123.91L139.63,124.25L140.78,124.94L143.07,124.25L144.21,124.94L146.5,123.57L147.65,124.25L151.08,122.9L152.23,123.91L153.38,125.28L154.52,124.59L156.81,125.28L157.96,124.94L159.1,125.28L160.25,123.91L162.54,124.94L163.68,124.94L164.83,123.24L165.97,123.91L167.12,124.94L168.27,124.94L170.56,125.28L171.7,124.94L173.99,124.94L175.14,125.97L176.28,125.97L177.43,124.59L182.01,127.71L183.16,125.97L185.45,125.97L186.59,124.59L187.74,127.01L188.88,126.66L190.03,127.36L191.17,126.31L193.46,126.66L194.61,125.62L199.19,126.66L200.34,126.31L203.77,125.97L204.92,126.31L207.21,124.94L208.36,126.31L210.65,126.66L211.79,125.62L212.94,125.28L214.08,126.31L215.23,126.31L216.37,124.59L218.66,126.31L219.81,126.66L220.95,125.62L222.1,126.31L223.25,125.62L224.39,126.31L225.54,125.97L226.68,127.01L227.83,125.97L228.97,126.31L234.7,125.97L235.85,127.01L236.99,125.97L238.14,125.97L239.28,126.66L240.43,125.62L241.57,126.66L242.72,126.31L245.01,126.31L246.15,126.31L247.3,127.01L248.44,125.97L249.59,127.01L250.74,126.31L251.88,125.97L253.03,127.01L256.46,126.66L257.61,125.62L258.75,125.28L259.9,126.66L263.34,126.66L264.48,125.97L266.77,126.66L267.92,124.94L269.06,127.01L270.21,125.62L271.35,126.66L272.5,125.62L273.64,125.62L274.79,126.66L275.93,126.66L277.08,125.28L280.52,125.62L281.66,124.59L282.81,126.31L283.95,124.94L285.1,126.31L286.24,126.31L287.39,127.36L288.53,125.97L289.68,125.28L290.83,126.31L291.97,128.41L293.12,127.36L295.41,127.36L296.55,127.36L299.99,124.94L301.13,125.28L302.28,127.01L303.42,125.97L304.57,125.97L305.72,127.01L306.86,125.62L308.01,126.31L311.44,127.01L312.59,125.97L313.73,125.97L314.88,124.94L316.02,124.59L317.17,126.66L318.32,127.36L319.46,126.66L322.9,125.62L324.04,126.66L325.19,127.01L326.33,125.28L328.62,123.91L329.77,125.28L332.06,124.94L333.21,125.28L334.35,124.25L335.5,125.28L336.64,126.66L337.79,124.25L340.08,125.62L341.22,123.24L342.37,125.97L343.51,124.59L348.1,127.36L349.24,125.28L350.39,126.66L351.53,125.62L352.68,126.31L353.82,125.97L354.97,126.31L356.11,127.71L358.4,125.28L359.55,125.97L362.99,124.59L364.13,126.66L366.42,127.01L367.57,123.91L369.86,125.28L371,127.71L372.15,126.31L373.3,127.36L374.44,125.97L375.59,126.66L377.88,126.66L379.02,124.59L380.17,123.57L381.31,125.62L382.46,127.01L383.6,126.66L384.75,125.62L385.89,127.01L388.19,125.28L389.33,126.66L390.48,127.01L391.62,125.28L392.77,123.91L393.91,127.36L395.06,125.62L396.2,127.36L397.35,124.94L398.49,124.59L399.64,125.97L400.79,125.28L401.93,123.91L403.08,125.62L404.22,125.97L405.37,123.57L407.66,126.31L408.8,125.62L409.95,125.28L411.09,125.97L413.38,128.06L414.53,125.62L415.68,126.31L416.82,124.59L417.97,124.94L419.11,124.25L420.26,123.24L421.4,125.97L424.84,128.77L425.98,128.06L427.13,128.06L428.28,125.62L429.42,126.66L430.57,124.59L431.71,126.66L432.86,126.66L434,128.77L435.15,125.97L437.44,127.71L438.58,127.36L440.87,125.62L442.02,126.31L443.17,125.62L444.31,123.57L446.6,127.71L447.75,125.62L448.89,125.62L450.04,127.01L451.18,125.97L452.33,126.31L453.47,125.97L454.62,126.66L455.77,125.62L456.91,127.01L458.06,127.01L459.2,125.97L460.35,124.25L461.49,124.94L462.64,124.25L463.78,124.94L464.93,123.91L466.07,125.28L467.22,123.57L468.36,124.59L469.51,127.71L470.66,127.36L471.8,124.59L472.95,126.31L474.09,128.06L475.24,125.62L476.38,125.62L477.53,126.66L479.82,126.31L480.96,127.36L482.11,126.31L483.26,127.01L484.4,126.66L485.55,124.25L486.69,125.62L487.84,125.62L488.98,126.66L490.13,125.28L492.42,124.59L493.56,126.66L494.71,125.28L495.85,127.36L497,125.28" style="vector-effect: none; fill: none; stroke: rgb(217, 95, 2); stroke-opacity: 1; stroke-width: 1.7px; opacity: 1;"/></g><g class="points"/><g class="text"/></g><g class="trace scatter trace86f03f" style="stroke-miterlimit: 2; opacity: 1;"><g class="fills"/><g class="errorbars"/><g class="lines"><path class="js-line" d="M1.03,327.29L27.38,251.22" style="vector-effect: none; fill: none; stroke: rgb(0, 0, 0); stroke-opacity: 1; stroke-dasharray: 9px, 9px; stroke-width: 1.7px; opacity: 1;"/></g><g class="points"/><g class="text"/></g></g></g></g><path class="xlines-above crisp" d="M0,0" style="fill: none;"/><path class="ylines-above crisp" d="M0,0" style="fill: none;"/><g class="overlines-above"/><g class="xaxislayer-above"><g class="xtick"><text text-anchor="middle" x="0" y="476" transform="translate(49,0)" style="font-family: 'Open Sans', verdana, arial, sans-serif; font-size: 14px; fill: rgb(0, 0, 0); fill-opacity: 1; white-space: pre; opacity: 1;">0</text></g><g class="xtick"><text text-anchor="middle" x="0" y="476" style="font-family: 'Open Sans', verdana, arial, sans-serif; font-size: 14px; fill: rgb(0, 0, 0); fill-opacity: 1; white-space: pre; opacity: 1;" transform="translate(90.22999999999999,0)">6</text></g><g class="xtick"><text text-anchor="middle" x="0" y="476" style="font-family: 'Open Sans', verdana, arial, sans-serif; font-size: 14px; fill: rgb(0, 0, 0); fill-opacity: 1; white-space: pre; opacity: 1;" transform="translate(131.47,0)">12</text></g><g class="xtick"><text text-anchor="middle" x="0" y="476" style="font-family: 'Open Sans', verdana, arial, sans-serif; font-size: 14px; fill: rgb(0, 0, 0); fill-opacity: 1; white-space: pre; opacity: 1;" transform="translate(172.7,0)">18</text></g><g class="xtick"><text text-anchor="middle" x="0" y="476" style="font-family: 'Open Sans', verdana, arial, sans-serif; font-size: 14px; fill: rgb(0, 0, 0); fill-opacity: 1; white-space: pre; opacity: 1;" transform="translate(213.94,0)">24</text></g><g class="xtick"><text text-anchor="middle" x="0" y="476" style="font-family: 'Open Sans', verdana, arial, sans-serif; font-size: 14px; fill: rgb(0, 0, 0); fill-opacity: 1; white-space: pre; opacity: 1;" transform="translate(255.17,0)">30</text></g><g class="xtick"><text text-anchor="middle" x="0" y="476" style="font-family: 'Open Sans', verdana, arial, sans-serif; font-size: 14px; fill: rgb(0, 0, 0); fill-opacity: 1; white-space: pre; opacity: 1;" transform="translate(296.40999999999997,0)">36</text></g><g class="xtick"><text text-anchor="middle" x="0" y="476" style="font-family: 'Open Sans', verdana, arial, sans-serif; font-size: 14px; fill: rgb(0, 0, 0); fill-opacity: 1; white-space: pre; opacity: 1;" transform="translate(337.64,0)">42</text></g><g class="xtick"><text text-anchor="middle" x="0" y="476" style="font-family: 'Open Sans', verdana, arial, sans-serif; font-size: 14px; fill: rgb(0, 0, 0); fill-opacity: 1; white-space: pre; opacity: 1;" transform="translate(378.88,0)">48</text></g><g class="xtick"><text text-anchor="middle" x="0" y="476" style="font-family: 'Open Sans', verdana, arial, sans-serif; font-size: 14px; fill: rgb(0, 0, 0); fill-opacity: 1; white-space: pre; opacity: 1;" transform="translate(420.11,0)">54</text></g><g class="xtick"><text text-anchor="middle" x="0" y="476" style="font-family: 'Open Sans', verdana, arial, sans-serif; font-size: 14px; fill: rgb(0, 0, 0); fill-opacity: 1; white-space: pre; opacity: 1;" transform="translate(461.35,0)">60</text></g><g class="xtick"><text text-anchor="middle" x="0" y="476" style="font-family: 'Open Sans', verdana, arial, sans-serif; font-size: 14px; fill: rgb(0, 0, 0); fill-opacity: 1; white-space: pre; opacity: 1;" transform="translate(502.58,0)">66</text></g><g class="xtick"><text text-anchor="middle" x="0" y="476" style="font-family: 'Open Sans', verdana, arial, sans-serif; font-size: 14px; fill: rgb(0, 0, 0); fill-opacity: 1; white-space: pre; opacity: 1;" transform="translate(543.8199999999999,0)">72</text></g></g><g class="yaxislayer-above"><g class="ytick"><text text-anchor="end" x="48" y="4.8999999999999995" transform="translate(0,461)" style="font-family: 'Open Sans', verdana, arial, sans-serif; font-size: 14px; fill: rgb(0, 0, 0); fill-opacity: 1; white-space: pre; opacity: 1;">−4</text></g><g class="ytick"><text text-anchor="end" x="48" y="4.8999999999999995" style="font-family: 'Open Sans', verdana, arial, sans-serif; font-size: 14px; fill: rgb(0, 0, 0); fill-opacity: 1; white-space: pre; opacity: 1;" transform="translate(0,405.88)">−3.5</text></g><g class="ytick"><text text-anchor="end" x="48" y="4.8999999999999995" style="font-family: 'Open Sans', verdana, arial, sans-serif; font-size: 14px; fill: rgb(0, 0, 0); fill-opacity: 1; white-space: pre; opacity: 1;" transform="translate(0,350.75)">−3</text></g><g class="ytick"><text text-anchor="end" x="48" y="4.8999999999999995" style="font-family: 'Open Sans', verdana, arial, sans-serif; font-size: 14px; fill: rgb(0, 0, 0); fill-opacity: 1; white-space: pre; opacity: 1;" transform="translate(0,295.63)">−2.5</text></g><g class="ytick"><text text-anchor="end" x="48" y="4.8999999999999995" style="font-family: 'Open Sans', verdana, arial, sans-serif; font-size: 14px; fill: rgb(0, 0, 0); fill-opacity: 1; white-space: pre; opacity: 1;" transform="translate(0,240.5)">−2</text></g><g class="ytick"><text text-anchor="end" x="48" y="4.8999999999999995" style="font-family: 'Open Sans', verdana, arial, sans-serif; font-size: 14px; fill: rgb(0, 0, 0); fill-opacity: 1; white-space: pre; opacity: 1;" transform="translate(0,185.38)">−1.5</text></g><g class="ytick"><text text-anchor="end" x="48" y="4.8999999999999995" style="font-family: 'Open Sans', verdana, arial, sans-serif; font-size: 14px; fill: rgb(0, 0, 0); fill-opacity: 1; white-space: pre; opacity: 1;" transform="translate(0,130.25)">−1</text></g><g class="ytick"><text text-anchor="end" x="48" y="4.8999999999999995" style="font-family: 'Open Sans', verdana, arial, sans-serif; font-size: 14px; fill: rgb(0, 0, 0); fill-opacity: 1; white-space: pre; opacity: 1;" transform="translate(0,75.13)">−0.5</text></g><g class="ytick"><text text-anchor="end" x="48" y="4.8999999999999995" style="font-family: 'Open Sans', verdana, arial, sans-serif; font-size: 14px; fill: rgb(0, 0, 0); fill-opacity: 1; white-space: pre; opacity: 1;" transform="translate(0,20)">0</text></g></g><g class="overaxes-above"/></g></g><g class="polarlayer"/><g class="smithlayer"/><g class="ternarylayer"/><g class="geolayer"/><g class="funnelarealayer"/><g class="pielayer"/><g class="iciclelayer"/><g class="treemaplayer"/><g class="sunburstlayer"/><g class="glimages"/><defs id="topdefs-491917"><g class="clips"/><clipPath id="legend491917"><rect width="134" height="94" x="0" y="0"/></clipPath></defs><g class="layer-above"><g class="imagelayer"/><g class="shapelayer"/></g><g class="infolayer"><g class="legend" pointer-events="all" transform="translate(555.94,20)"><rect class="bg" shape-rendering="crispEdges" width="134" height="94" x="0" y="0" style="stroke: rgb(68, 68, 68); stroke-opacity: 1; fill: rgb(255, 255, 255); fill-opacity: 1; stroke-width: 0px;"/><g class="scrollbox" transform="" clip-path="url(#legend491917)"><g class="groups" transform=""><g class="traces" transform="translate(0,15.6)" style="opacity: 1;"><text class="legendtext" text-anchor="start" x="40" y="5.46" style="font-family: 'Open Sans', verdana, arial, sans-serif; font-size: 14px; fill: rgb(0, 0, 0); fill-opacity: 1; white-space: pre;"><tspan style="font-style:italic">C. testosteroni</tspan></text><g class="layers" style="opacity: 1;"><g class="legendfill"/><g class="legendlines"><path class="js-line" d="M5,0h30" style="fill: none; stroke: rgb(117, 112, 179); stroke-opacity: 1; stroke-width: 1.7px;"/></g><g class="legendsymbols"><g class="legendpoints"/></g></g><rect class="legendtoggle" x="0" y="-10.6" width="128.125" height="21.2" style="fill: rgb(0, 0, 0); fill-opacity: 0;"/></g></g><g class="groups" transform="translate(0,10)"><g class="traces" transform="translate(0,36.8)" style="opacity: 1;"><text class="legendtext" text-anchor="start" x="40" y="5.46" style="font-family: 'Open Sans', verdana, arial, sans-serif; font-size: 14px; fill: rgb(0, 0, 0); fill-opacity: 1; white-space: pre;">fit</text><g class="layers" style="opacity: 1;"><g class="legendfill"/><g class="legendlines"><path class="js-line" d="M5,0h30" style="fill: none; stroke: rgb(0, 0, 0); stroke-opacity: 1; stroke-dasharray: 9px, 9px; stroke-width: 1.7px;"/></g><g class="legendsymbols"><g class="legendpoints"/></g></g><rect class="legendtoggle" x="0" y="-10.6" width="128.125" height="21.2" style="fill: rgb(0, 0, 0); fill-opacity: 0;"/></g></g><g class="groups" transform="translate(0,20)"><g class="traces" transform="translate(0,58)" style="opacity: 1;"><text class="legendtext" text-anchor="start" x="40" y="5.46" style="font-family: 'Open Sans', verdana, arial, sans-serif; font-size: 14px; fill: rgb(0, 0, 0); fill-opacity: 1; white-space: pre;"><tspan style="font-style:italic">O. anthropi</tspan></text><g class="layers" style="opacity: 1;"><g class="legendfill"/><g class="legendlines"><path class="js-line" d="M5,0h30" style="fill: none; stroke: rgb(217, 95, 2); stroke-opacity: 1; stroke-width: 1.7px;"/></g><g class="legendsymbols"><g class="legendpoints"/></g></g><rect class="legendtoggle" x="0" y="-10.6" width="128.125" height="21.2" style="fill: rgb(0, 0, 0); fill-opacity: 0;"/></g></g></g><rect class="scrollbar" rx="20" ry="3" width="0" height="0" x="0" y="0" style="fill: rgb(128, 139, 164); fill-opacity: 1;"/></g><g class="g-gtitle"/><g class="g-xtitle" transform="translate(0,5.699999999999989)"><text class="xtitle" x="297.5" y="489.3" text-anchor="middle" style="opacity: 1; font-family: 'Open Sans', verdana, arial, sans-serif; font-size: 14px; fill: rgb(0, 0, 0); fill-opacity: 1; white-space: pre;">Time [h]</text></g><g class="g-ytitle"><text class="ytitle" transform="rotate(-90,15.850000000000001,240.5)" x="15.850000000000001" y="240.5" text-anchor="middle" style="opacity: 1; font-family: 'Open Sans', verdana, arial, sans-serif; font-size: 14px; fill: rgb(0, 0, 0); fill-opacity: 1; white-space: pre;">log(OD)</text></g></g></svg>