<svg class="main-svg" xmlns="http://www.w3.org/2000/svg" xmlns:xlink="http://www.w3.org/1999/xlink" width="150" height="150" style="" viewBox="0 0 150 150"><rect x="0" y="0" width="150" height="150" style="fill: rgb(255, 255, 255); fill-opacity: 1;"/><defs id="defs-6196d9"><g class="clips"><clipPath id="clip6196d9xyplot" class="plotclip"><rect width="106" height="99"/></clipPath><clipPath class="axesclip" id="clip6196d9x"><rect x="34" y="0" width="106" height="150"/></clipPath><clipPath class="axesclip" id="clip6196d9y"><rect x="0" y="18" width="150" height="99"/></clipPath><clipPath class="axesclip" id="clip6196d9xy"><rect x="34" y="18" width="106" height="99"/></clipPath></g><g class="gradients"/><g class="patterns"/></defs><g class="bglayer"/><g class="layer-below"><g class="imagelayer"/><g class="shapelayer"/></g><g class="cartesianlayer"><g class="subplot xy"><g class="layer-subplot"><g class="shapelayer"/><g class="imagelayer"/></g><g class="minor-gridlayer"><g class="x"/><g class="y"/></g><g class="gridlayer"><g class="x"><path class="xgrid crisp" transform="translate(56.65,0)" d="M0,18v99" style="stroke: rgb(0, 0, 0); stroke-opacity: 1; stroke-width: 0.5px;"/><path class="xgrid crisp" transform="translate(79.3,0)" d="M0,18v99" style="stroke: rgb(0, 0, 0); stroke-opacity: 1; stroke-width: 0.5px;"/><path class="xgrid crisp" transform="translate(101.95,0)" d="M0,18v99" style="stroke: rgb(0, 0, 0); stroke-opacity: 1; stroke-width: 0.5px;"/><path class="xgrid crisp" transform="translate(124.6,0)" d="M0,18v99" style="stroke: rgb(0, 0, 0); stroke-opacity: 1; stroke-width: 0.5px;"/></g><g class="y"><path class="ygrid crisp" transform="translate(0,97.2)" d="M34,0h106" style="stroke: rgb(0, 0, 0); stroke-opacity: 1; stroke-width: 0.5px;"/><path class="ygrid crisp" transform="translate(0,77.4)" d="M34,0h106" style="stroke: rgb(0, 0, 0); stroke-opacity: 1; stroke-width: 0.5px;"/><path class="ygrid crisp" transform="translate(0,57.6)" d="M34,0h106" style="stroke: rgb(0, 0, 0); stroke-opacity: 1; stroke-width: 0.5px;"/><path class="ygrid crisp" transform="translate(0,37.8)" d="M34,0h106" style="stroke: rgb(0, 0, 0); stroke-opacity: 1; stroke-width: 0.5px;"/></g></g><g class="zerolinelayer"><path class="xzl zl crisp" transform="translate(34,0)" d="M0,18v99" style="stroke: rgb(0, 0, 0); stroke-opacity: 1; stroke-width: 0.5px;"/><path class="yzl zl crisp" transform="translate(0,117)" d="M34,0h106" style="stroke: rgb(0, 0, 0); stroke-opacity: 1; stroke-width: 0.5px;"/></g><g class="layer-between"><g class="shapelayer"/><g class="imagelayer"/></g><path class="xlines-below"/><path class="ylines-below"/><g class="overlines-below"/><g class="xaxislayer-below"/><g class="yaxislayer-below"/><g class="overaxes-below"/><g class="overplot"><g class="xy" transform="translate(34,18)" clip-path="url(#clip6196d9xyplot)"><g class="scatterlayer mlayer"><g class="trace scatter traced18a65" style="stroke-miterlimit: 2; opacity: 1;"><g class="fills"/><g class="errorbars"/><g class="lines"><path class="js-line" d="M0.25,83.51L0.5,88.71L1.01,85.78L1.07,85.69L1.32,85.96L1.57,85.47L1.7,85.71L1.76,85.17L2.27,84.12L2.58,84.96L2.65,85.1L2.9,85.65L3.27,84.87L3.34,84.79L4.22,82.47L4.41,82.67L4.47,82.68L4.98,82.09L5.16,82.51L5.23,82.76L5.61,82.86L6.55,78.18L6.93,78.55L6.99,78.8L7.18,79.25L7.43,78.33L7.62,78.43L7.68,78.2L8.57,77.12L8.63,76.84L9.13,77.17L10.58,64.23L10.64,63.18L11.21,57.44L11.65,58.16L11.71,58.15L13.23,55.68L13.29,55.52L14.93,53.92L14.99,53.6L16.38,51.23L16.44,51.17L19.9,42.54L20.15,42.86L20.22,43.07L21.04,42.15L21.1,42.04L21.73,40.45L21.79,40.3L22.86,38.83L22.93,38.61L26.45,27.99L26.52,28.01L26.58,28.33L27.4,28.23L27.46,28.05L28.41,28.5L28.47,28.53L29.79,28.35L29.85,28.55L31.37,29.97L31.68,29.38L31.74,29.23L31.93,29.14L32.31,29.58L32.37,29.67L36.78,31.61L36.84,31.53L38.04,31.5L38.1,31.64L38.55,32.2L38.8,31.65L38.86,31.54L39.24,31.08L39.62,31.4L39.68,31.51L40.94,32.19L41,32.12L42.2,31.13L42.26,31.11L43.08,31.46L43.14,31.46L44.02,32.24L44.21,32.14L44.28,32.03L45.03,31.39L45.22,31.77L45.28,31.9L45.72,32.78L46.17,32.43L46.23,32.27L47.3,32.61L47.36,32.56L47.43,32.53L48.43,32.1L48.56,32.46L48.62,32.6L49.06,33.35L49.38,32.79L49.44,32.62L49.82,32.01L50.13,32.78L50.2,33L50.95,33.34L51.08,33.12L51.14,33.09L52.21,32.32L52.34,32.52L52.4,32.82L52.97,33.92L53.28,33.65L53.35,33.45L54.42,33.26L54.48,33.43L54.54,33.51L54.92,34.2L55.24,33.58L55.3,33.32L55.55,32.85L55.86,33.68L55.93,33.92L56.31,34.69L56.81,34.26L56.87,34.18L57.5,34.22L57.63,34.49L57.69,34.59L58.2,35.11L58.64,34.67L58.7,34.69L59.71,34.05L59.77,34.25L59.83,34.56L60.34,35.74L60.78,35.11L60.84,35.04L61.6,35.21L61.66,35.43L62.86,36.58L62.92,36.53L62.98,36.4L63.67,37.52L63.74,37.68L65.25,38.46L65.31,38.36L66.13,38.6L66.19,38.68L66.82,38.7L66.89,38.82L66.95,38.94L68.52,39.44L68.59,39.42L69.03,38.86L69.34,39.51L69.41,39.54L69.66,40.05L70.1,39.32L70.16,39L71.17,36.67L71.42,37.07L71.48,37.2L73.12,40.57L73.19,40.51L73.25,40.46L74.32,40.61L74.38,40.73L75.33,40.13L75.39,40.03L76.84,38.64L76.9,38.63L77.66,38.33L77.78,38.47L77.85,38.54L78.85,38.76L78.92,38.57L78.98,38.42L79.92,37.78L80.05,38.06L80.11,38.22L81.18,39.54L81.31,39.33L81.37,39.25L82.38,38.6L82.57,38.72L82.63,38.78L83.89,38.71L83.95,38.52L86.16,37.85L86.22,37.63L86.91,38.41L86.98,38.59L88.36,38.37L88.43,38.17L88.68,37.78L89.06,38.6L89.12,38.69L89.43,39.04L89.69,38.41L89.75,38.27L91.32,39.37L91.45,38.98L91.51,38.81L92.02,38.1L92.27,38.75L92.33,38.91L92.71,39.93L93.09,39.13L93.15,38.93L93.84,38.46L94.09,38.57L94.16,38.51L95.23,38.5L95.29,38.3L95.48,38.18L95.79,38.83L95.86,38.94L96.8,39.86L96.87,39.86L101.84,39.85L101.9,39.93L103.42,39.9L103.48,40.21L104.55,40.75L104.61,40.62L105.37,40.48" style="vector-effect: none; fill: none; stroke: rgb(117, 112, 179); stroke-opacity: 1; stroke-width: 1px; opacity: 1;"/></g><g class="points"/><g class="text"/></g><g class="trace scatter trace1571b5" style="stroke-miterlimit: 2; opacity: 1;"><g class="fills"/><g class="errorbars"/><g class="lines"><path class="js-line" d="M0.25,83.7L0.32,89.73L1.01,89.28L1.07,89L1.51,89.09L1.64,88.67L1.7,88.51L3.02,86.65L3.09,86.87L3.15,86.97L3.28,87.13L3.4,86.61L3.65,86.54L3.72,86.26L3.91,86.19L3.97,86.69L4.03,87.03L4.98,85.84L5.04,85.67L6.3,84.23L6.36,84.3L6.42,84.45L6.74,84.63L6.93,84.06L6.99,83.87L9.01,79.78L9.07,79.86L9.13,79.91L9.26,80.24L9.7,79.31L9.76,79.05L10.83,76.99L10.9,76.86L12.16,74.9L12.28,74.97L12.34,75.1L14.05,73.48L14.11,73.52L14.36,73.59L14.55,73.05L14.61,72.92L14.93,72.59L15.3,72.99L15.37,73.16L15.75,73.36L16,72.89L16.06,72.64L16.69,62.03L16.75,60.46L17.76,50.92L17.82,51.04L17.89,51.11L18.58,51.11L18.64,50.79L18.71,50.52L20.22,47.03L20.28,47.02L20.53,46.39L21.1,46.53L21.16,46.71L21.79,45.84L21.85,45.61L23.18,43.11L23.24,43.12L24.12,42.54L24.19,42.4L28.4,34.03L28.47,33.87L29.48,31.34L29.54,31.12L29.66,31.35L29.92,30.63L29.98,30.64L30.04,30.35L30.67,27.42L30.74,27.09L33,21.16L33.19,21.4L33.25,21.44L34.39,22.08L34.45,22.08L35.65,24.35L35.71,24.45L36.03,24.87L36.4,24.3L36.47,24.21L36.72,23.9L37.03,24.7L37.1,24.73L37.54,25.47L37.91,25.01L37.98,24.85L39.87,25.77L39.93,25.63L39.99,25.41L42.95,28.88L43.21,28.55L43.27,28.44L45.85,28.25L45.91,28.03L46.42,27.85L46.54,28.27L46.61,28.2L47.42,28.91L47.55,28.73L47.61,28.58L49.25,29.35L49.31,29.02L49.38,28.73L49.88,27.76L50.2,28.62L50.26,28.67L51.33,30.06L51.46,29.67L51.52,29.52L53.41,30.57L53.47,30.71L53.66,31.23L54.23,30.75L54.29,30.79L55.17,32.19L55.3,31.74L55.36,31.68L55.49,32.19L55.86,31.15L55.99,31.46L56.05,31.35L56.37,30.66L56.49,31.68L56.68,31.6L56.75,31.7L57.12,31.05L58.07,33.44L58.19,32.94L58.26,32.62L58.89,32.69L58.95,32.89L60.65,32.67L60.71,32.59L60.97,31.78L61.41,32.79L61.47,33.04L62.35,34.32L62.41,34.12L62.48,33.94L62.67,33.46L63.11,34.28L63.17,34.75L63.36,35.17L63.74,34.32L63.8,34.04L64.12,33.67L64.49,34.21L64.56,34.36L65.19,33.34L65.37,33.88L65.44,34.25L65.88,35.76L66.38,35.53L66.45,35.58L67.14,36.05L67.26,35.68L67.33,35.33L67.58,34.65L68.02,35.51L68.08,35.57L68.4,34.61L68.9,35.13L68.96,35.46L69.03,35.82L69.66,35.23L69.72,35.53L69.78,35.53L70.73,36.71L70.79,37.08L70.98,37.93L71.48,36.9L71.55,36.65L73.44,37.17L73.5,37.17L74.32,35.29L74.57,36.19L74.63,36.23L75.7,37.72L75.83,37.43L75.89,37.22L77.09,35.73L77.22,36.25L77.28,36.58L77.66,39L78.03,37.44L78.1,36.89L78.29,36.27L78.73,37.28L78.79,37.47L79.48,36.91L79.55,37.22L79.61,37.72L80.11,38.82L80.3,37.87L80.36,37.47L80.49,37.06L81.06,37.69L81.12,37.75L82,38.68L82.06,38.99L82.88,36.7L82.95,36.55L83.2,35.97L83.45,36.97L83.51,37.47L83.89,39.38L84.4,38.91L84.46,38.84L85.66,39.12L85.72,39.08L86.6,39.18L86.66,39.03L87.04,38.5L87.36,39.24L87.42,39.45L88.11,39.93L88.3,39.77L88.36,39.57L90.13,39.1L90.19,39.18L91.7,40.59L91.76,40.49L92.77,39.54L92.96,40.1L93.02,40.23L93.4,40.55L93.78,39.93L93.84,39.83L94.54,39.54L94.72,39.89L94.79,40.02L95.48,42.22L95.98,41.69L96.05,41.56L97.68,39.49L97.75,39.52L99.13,41.53L99.2,41.45L99.26,41.48L100.08,41.77L100.14,41.9L100.39,42.13L100.77,41.54L100.83,41.31L101.27,40.63L101.53,41.31L101.59,41.51L102.03,42.34L102.47,42.11L102.53,42.05L102.91,42.22L103.16,41.91L103.23,41.76L104.3,41.4L104.42,41.53L104.49,41.66L105.31,42.32L105.37,42.22" style="vector-effect: none; fill: none; stroke: rgb(117, 112, 179); stroke-opacity: 1; stroke-width: 1px; opacity: 1;"/></g><g class="points"/><g class="text"/></g><g class="trace scatter traced07dc9" style="stroke-miterlimit: 2; opacity: 1;"><g class="fills"/><g class="errorbars"/><g class="lines"><path class="js-line" d="M0.25,84.18L0.32,89.09L1.01,85.18L1.07,84.44L2.83,75.75L2.9,75.78L2.96,75.62L8,66.62L8.12,66.69L8.19,66.63L8.75,66.09L8.82,65.81L10.14,64.55L10.2,64.64L10.27,64.61L11.46,64.64L11.53,64.55L12.97,62.84L13.04,62.98L13.73,63.55L13.86,63.13L13.92,63L14.67,60.53L15.12,61L15.18,61.23L15.93,60.27L16,60.09L17.32,58.59L17.38,58.65L17.45,58.71L17.95,57.93L18.01,57.77L20.47,53.08L20.72,53.23L20.78,53.26L22.04,51.51L22.11,51.34L26.26,41.46L26.33,41.47L30.48,31.56L30.86,31.81L30.92,31.81L31.74,31.65L31.81,31.52L34.33,32.69L34.39,32.59L35.84,34.69L35.9,34.65L35.96,34.66L37.03,34.69L37.1,34.69L37.22,34.53L37.73,35.09L37.79,35.19L40.75,36.37L40.81,36.28L41.69,36.13L41.76,36.25L41.82,36.28L42.51,37.29L42.58,37.43L43.02,37.9L43.4,37.54L43.46,37.52L43.71,37.32L44.15,37.86L44.21,37.98L45.16,38.55L45.22,38.54L46.92,38.82L46.99,38.88L48.62,39.26L48.69,39.23L50.7,39.52L50.76,39.46L52.09,39.57L52.15,39.67L53.03,39.38L53.1,39.22L54.04,39.53L54.1,39.67L55.8,40.62L55.87,40.59L58.45,42.29L58.51,42.23L59.52,42.16L59.58,42.25L60.78,43.67L61.03,43.45L61.09,43.35L61.6,42.71L61.98,43.18L62.04,43.26L62.42,43.65L62.86,43.37L62.92,43.35L64.18,42.76L64.24,42.71L65.69,42.46L65.75,42.51L67.46,43.38L67.52,43.31L68.53,43.68L68.59,43.74L70.48,43.33L70.54,43.47L71.11,42.96L71.17,42.86L72.81,43.15L72.87,43.29L73.12,43.46L73.5,42.92L73.56,42.78L74.19,42.45L74.45,42.71L74.51,42.8L76.71,43.49L76.78,43.4L78.29,43.04L78.35,43.21L80.24,43.97L80.3,43.89L81.25,42.85L81.44,43L81.5,43.03L81.88,43.3L82.19,42.89L82.26,42.77L84.08,43.46L84.15,43.89L84.71,42.63L84.78,42.44L84.9,42.27L85.15,43.34L85.22,43.63L85.66,44.45L85.97,43.97L86.03,43.69L86.35,42.99L86.79,43.73L86.85,43.73L87.8,44.45L87.92,44.24L87.99,44.13L88.68,44.62L88.87,44.26L88.93,44.25L90.44,43.53L90.51,43.57L91.64,43.85L91.7,43.95L92.58,44.15L92.65,44.32L93.78,45.14L93.84,45L95.36,43.53L95.42,43.57L96.43,43.15L96.49,42.99L97.43,42.05L97.5,42.12L99.95,41.24L100.02,41.27L101.53,41.04L101.59,41.27L101.65,41.4L102.66,41.97L102.72,42.02L103.42,42.09L103.48,41.83L103.54,41.74L105.37,39.3" style="vector-effect: none; fill: none; stroke: rgb(117, 112, 179); stroke-opacity: 1; stroke-width: 1px; opacity: 1;"/></g><g class="points"/><g class="text"/></g><g class="trace scatter trace8cd86f" style="stroke-miterlimit: 2; opacity: 1;"><g class="fills"/><g class="errorbars"/><g class="lines"><path class="js-line" d="M0,89.1L5.98,84.54L6.05,84.48L12.91,76.63L12.97,76.54L17.13,69.9L17.19,69.78L21.92,59.92L21.98,59.77L28.41,41.79L28.47,41.59L33,29.02L33.07,28.93L34.7,27.9L34.77,27.89L40.81,28.32L40.88,28.32L55.68,29.21L55.74,29.21L84.15,29.96L84.21,29.96L101.84,30.14L101.91,30.14L106,30.17" style="vector-effect: none; fill: none; stroke: rgb(0, 0, 0); stroke-opacity: 1; stroke-dasharray: 3px, 3px; stroke-width: 1px; opacity: 1;"/></g><g class="points"/><g class="text"/></g></g></g></g><path class="xlines-above crisp" d="M0,0" style="fill: none;"/><path class="ylines-above crisp" d="M0,0" style="fill: none;"/><g class="overlines-above"/><g class="xaxislayer-above"><g class="xtick"><text text-anchor="middle" x="0" y="129" transform="translate(34,0)" style="font-family: 'Open Sans', verdana, arial, sans-serif; font-size: 11px; fill: rgb(0, 0, 0); fill-opacity: 1; white-space: pre; opacity: 1;">0</text></g><g class="xtick"><text text-anchor="middle" x="0" y="129" style="font-family: 'Open Sans', verdana, arial, sans-serif; font-size: 11px; fill: rgb(0, 0, 0); fill-opacity: 1; white-space: pre; opacity: 1;" transform="translate(56.65,0)">6</text></g><g class="xtick"><text text-anchor="middle" x="0" y="129" style="font-family: 'Open Sans', verdana, arial, sans-serif; font-size: 11px; fill: rgb(0, 0, 0); fill-opacity: 1; white-space: pre; opacity: 1;" transform="translate(79.3,0)">12</text></g><g class="xtick"><text text-anchor="middle" x="0" y="129" style="font-family: 'Open Sans', verdana, arial, sans-serif; font-size: 11px; fill: rgb(0, 0, 0); fill-opacity: 1; white-space: pre; opacity: 1;" transform="translate(101.95,0)">18</text></g><g class="xtick"><text text-anchor="middle" x="0" y="129" style="font-family: 'Open Sans', verdana, arial, sans-serif; font-size: 11px; fill: rgb(0, 0, 0); fill-opacity: 1; white-space: pre; opacity: 1;" transform="translate(124.6,0)">24</text></g></g><g class="yaxislayer-above"><g class="ytick"><text text-anchor="end" x="33" y="3.8499999999999996" transform="translate(0,117)" style="font-family: 'Open Sans', verdana, arial, sans-serif; font-size: 11px; fill: rgb(0, 0, 0); fill-opacity: 1; white-space: pre; opacity: 1;">0</text></g><g class="ytick"><text text-anchor="end" x="33" y="3.8499999999999996" style="font-family: 'Open Sans', verdana, arial, sans-serif; font-size: 11px; fill: rgb(0, 0, 0); fill-opacity: 1; white-space: pre; opacity: 1;" transform="translate(0,97.2)">0.1</text></g><g class="ytick"><text text-anchor="end" x="33" y="3.8499999999999996" style="font-family: 'Open Sans', verdana, arial, sans-serif; font-size: 11px; fill: rgb(0, 0, 0); fill-opacity: 1; white-space: pre; opacity: 1;" transform="translate(0,77.4)">0.2</text></g><g class="ytick"><text text-anchor="end" x="33" y="3.8499999999999996" style="font-family: 'Open Sans', verdana, arial, sans-serif; font-size: 11px; fill: rgb(0, 0, 0); fill-opacity: 1; white-space: pre; opacity: 1;" transform="translate(0,57.6)">0.3</text></g><g class="ytick"><text text-anchor="end" x="33" y="3.8499999999999996" style="font-family: 'Open Sans', verdana, arial, sans-serif; font-size: 11px; fill: rgb(0, 0, 0); fill-opacity: 1; white-space: pre; opacity: 1;" transform="translate(0,37.8)">0.4</text></g><g class="ytick"><text text-anchor="end" x="33" y="3.8499999999999996" style="font-family: 'Open Sans', verdana, arial, sans-serif; font-size: 11px; fill: rgb(0, 0, 0); fill-opacity: 1; white-space: pre; opacity: 1;" transform="translate(0,18)">0.5</text></g></g><g class="overaxes-above"/></g></g><g class="polarlayer"/><g class="smithlayer"/><g class="ternarylayer"/><g class="geolayer"/><g class="funnelarealayer"/><g class="pielayer"/><g class="iciclelayer"/><g class="treemaplayer"/><g class="sunburstlayer"/><g class="glimages"/><defs id="topdefs-6196d9"><g class="clips"/></defs><g class="layer-above"><g class="imagelayer"/><g class="shapelayer"/></g><g class="infolayer"><g class="g-gtitle"><text class="gtitle" x="7.5" y="9" text-anchor="start" dy="0em" style="opacity: 1; font-family: 'Open Sans', verdana, arial, sans-serif; font-size: 11px; fill: rgb(0, 0, 0); fill-opacity: 1; white-space: pre;"><tspan style="font-style:italic">C. testosteroni</tspan></text></g><g class="g-xtitle" transform="translate(0,4.800000000000011)"><text class="xtitle" x="87" y="139.2" text-anchor="middle" style="opacity: 1; font-family: 'Open Sans', verdana, arial, sans-serif; font-size: 11px; fill: rgb(0, 0, 0); fill-opacity: 1; white-space: pre;">Time [h]</text></g><g class="g-ytitle"><text class="ytitle" transform="rotate(-90,14.134374999999999,67.5)" x="14.134374999999999" y="67.5" text-anchor="middle" style="opacity: 1; font-family: 'Open Sans', verdana, arial, sans-serif; font-size: 11px; fill: rgb(0, 0, 0); fill-opacity: 1; white-space: pre;">OD</text></g></g></svg>