<svg class="main-svg" xmlns="http://www.w3.org/2000/svg" xmlns:xlink="http://www.w3.org/1999/xlink" width="700" height="500" style="" viewBox="0 0 700 500"><rect x="0" y="0" width="700" height="500" style="fill: rgb(255, 255, 255); fill-opacity: 1;"/><defs id="defs-33b6ad"><g class="clips"><clipPath id="clip33b6adxyplot" class="plotclip"><rect width="559" height="448"/></clipPath><clipPath class="axesclip" id="clip33b6adx"><rect x="42" y="0" width="559" height="500"/></clipPath><clipPath class="axesclip" id="clip33b6ady"><rect x="0" y="18" width="700" height="448"/></clipPath><clipPath class="axesclip" id="clip33b6adxy"><rect x="42" y="18" width="559" height="448"/></clipPath></g><g class="gradients"/><g class="patterns"/></defs><g class="bglayer"/><g class="layer-below"><g class="imagelayer"/><g class="shapelayer"/></g><g class="cartesianlayer"><g class="subplot xy"><g class="layer-subplot"><g class="shapelayer"/><g class="imagelayer"/></g><g class="minor-gridlayer"><g class="x"/><g class="y"/></g><g class="gridlayer"><g class="x"><path class="xgrid crisp" transform="translate(181.8,0)" d="M0,18v448" style="stroke: rgb(128, 128, 128); stroke-opacity: 1; stroke-width: 0.2px;"/><path class="xgrid crisp" transform="translate(321.59,0)" d="M0,18v448" style="stroke: rgb(128, 128, 128); stroke-opacity: 1; stroke-width: 0.2px;"/><path class="xgrid crisp" transform="translate(461.39,0)" d="M0,18v448" style="stroke: rgb(128, 128, 128); stroke-opacity: 1; stroke-width: 0.2px;"/></g><g class="y"><path class="ygrid crisp" transform="translate(0,421.2)" d="M42,0h559" style="stroke: rgb(128, 128, 128); stroke-opacity: 1; stroke-width: 0.2px;"/><path class="ygrid crisp" transform="translate(0,376.4)" d="M42,0h559" style="stroke: rgb(128, 128, 128); stroke-opacity: 1; stroke-width: 0.2px;"/><path class="ygrid crisp" transform="translate(0,331.6)" d="M42,0h559" style="stroke: rgb(128, 128, 128); stroke-opacity: 1; stroke-width: 0.2px;"/><path class="ygrid crisp" transform="translate(0,286.8)" d="M42,0h559" style="stroke: rgb(128, 128, 128); stroke-opacity: 1; stroke-width: 0.2px;"/><path class="ygrid crisp" transform="translate(0,242)" d="M42,0h559" style="stroke: rgb(128, 128, 128); stroke-opacity: 1; stroke-width: 0.2px;"/><path class="ygrid crisp" transform="translate(0,197.2)" d="M42,0h559" style="stroke: rgb(128, 128, 128); stroke-opacity: 1; stroke-width: 0.2px;"/><path class="ygrid crisp" transform="translate(0,152.4)" d="M42,0h559" style="stroke: rgb(128, 128, 128); stroke-opacity: 1; stroke-width: 0.2px;"/><path class="ygrid crisp" transform="translate(0,107.6)" d="M42,0h559" style="stroke: rgb(128, 128, 128); stroke-opacity: 1; stroke-width: 0.2px;"/><path class="ygrid crisp" transform="translate(0,62.8)" d="M42,0h559" style="stroke: rgb(128, 128, 128); stroke-opacity: 1; stroke-width: 0.2px;"/></g></g><g class="zerolinelayer"/><g class="layer-between"><g class="shapelayer"/><g class="imagelayer"/></g><path class="xlines-below"/><path class="ylines-below"/><g class="overlines-below"/><g class="xaxislayer-below"/><g class="yaxislayer-below"/><g class="overaxes-below"/><g class="overplot"><g class="xy" transform="translate(42,18)" clip-path="url(#clip33b6adxyplot)"><g class="scatterlayer mlayer"><g class="trace scatter trace6bc9a4" style="stroke-miterlimit: 2; opacity: 1;"><g class="fills"/><g class="errorbars"/><g class="lines"><path class="js-line" d="M0,310.07L1.94,420.18L2.33,420.59L3.5,421.8L3.89,421.42L5.05,421.01L5.44,420.11L7.39,415.93L7.78,416.1L9.33,416.72L9.72,417.59L10.88,418.19L11.27,418.81L14,417.16L14.38,417.65L16.33,416.66L16.72,417.03L17.88,416.5L18.27,416.31L19.44,415.29L19.83,415.45L22.16,417.14L22.55,418.08L24.88,418.14L25.27,417.36L27.21,415.57L27.6,415L31.49,410.23L31.88,410.29L34.21,410.28L34.6,409.89L35.76,409.03L36.15,408.26L37.71,407.58L38.1,407.8L39.26,408.4L39.65,408.48L41.98,408.85L42.37,408.62L44.7,407.03L45.09,406.64L47.04,404.89L47.43,404.08L52.09,395.37L52.48,394.64L54.03,393.46L54.42,393.59L56.75,390.9L57.14,391.09L58.31,390.52L58.7,390.8L60.25,391.99L60.64,391.77L62.2,391.81L62.59,391.47L66.08,385.99L66.47,385.05L67.25,383.96L67.64,384.31L68.03,384.35L68.42,384.78L68.81,384.32L69.19,384.31L69.58,383.82L69.97,384.14L70.36,384.71L71.53,383.71L71.91,383.14L73.08,382.81L73.47,382.85L76.58,380.38L76.97,379.3L78.13,377.56L78.52,376.38L81.63,371.14L82.02,370.62L83.96,368.4L84.35,368.35L87.07,363.77L87.46,363.29L90.18,358.91L90.57,358.17L93.29,354.56L93.68,354.76L96.4,352.42L96.79,351.8L98.74,351.25L99.12,351.82L101.07,353.68L101.46,353.89L104.57,350.67L104.95,350.13L108.45,346.05L108.84,345.33L111.95,340.82L112.34,340.73L113.12,340.04L113.51,339.11L117.78,332.14L118.17,330.8L122.84,327.41L123.23,326.21L125.17,322.62L125.56,322.47L129.45,316.82L129.83,316.21L132.55,310.05L132.94,310.14L134.5,307.3L134.89,307.17L139.16,303.15L139.55,302.68L142.27,300.21L142.66,299.77L143.44,299.5L143.83,298.94L145.38,295.24L145.77,294.7L147.71,291.04L148.1,291.33L151.6,291.68L151.99,291.38L153.16,289.77L153.55,289.94L155.1,290.35L155.49,290.63L157.04,294.1L157.43,294.94L160.54,299.87L160.93,300.04L162.49,301.85L162.88,302.02L165.98,303.02L166.37,303.34L167.93,306.8L168.32,307.48L170.26,309.95L170.65,310.35L171.43,310.41L171.82,310.87L173.76,311.37L174.15,311.72L175.7,311.82L176.09,312.25L177.65,313.78L178.04,313.83L183.09,322.77L183.48,322.79L184.64,323.13L185.03,322.68L186.59,323.47L186.98,324.3L190.47,328.3L190.86,327.54L193.58,327L193.97,327.28L194.36,326.95L194.75,327.47L195.14,327.65L199.8,328.24L200.19,328.75L202.14,328.7L202.52,329.24L204.86,330.63L205.25,330.9L206.02,331.62L206.41,331.27L206.8,331.43L207.97,331.35L208.36,331.3L209.13,330.87L209.52,330.82L210.3,331.38L210.69,331.64L213.02,332.96L213.41,333.27L218.07,338.22L218.46,338.37L220.4,339.64L220.79,340.28L222.74,340.18L223.13,339.82L224.29,339.4L224.68,338.6L228.18,335.59L228.57,335.62L230.12,336.43L230.51,336.24L231.29,336.13L231.68,336.42L232.84,336.81L233.23,336.61L234.4,336.03L234.79,336.29L241.01,341.13L241.4,341.65L243.73,343.22L244.12,343.1L244.89,342.7L245.28,342.28L248,342.17L248.39,342.41L250.73,344.89L251.11,345.2L252.67,345.75L253.06,345.06L254.22,344.79L254.61,345.13L256.56,345.39L256.95,346.36L258.5,347L258.89,346.7L261.61,344.48L262,343.74L264.33,341.92L264.72,341.92L266.28,343.14L266.66,343.68L271.72,345.31L272.11,344.86L273.27,344.39L273.66,344.18L275.61,343.99L275.99,344.46L277.16,344.19L277.55,344.3L279.49,342.83L279.88,342.3L281.05,342.22L281.44,342.14L282.99,343.15L283.38,343.41L285.32,344.19L285.71,344.29L286.88,344.19L287.27,344.17L288.43,344.36L288.82,343.85L291.54,344.28L291.93,344.11L295.04,341.73L295.43,342.15L297.76,343.63L298.15,344.09L299.32,344.89L299.71,345.24L300.1,345.08L300.49,345.8L302.82,346.61L303.21,346.43L305.54,345.32L305.93,345.64L308.26,344.62L308.65,344.81L310.98,343.65L311.37,343.14L312.54,341.91L312.92,341.26L314.09,340.72L314.48,340.78L315.65,341.36L316.03,341.14L316.81,340.76L317.2,340.96L318.76,339.33L319.14,339.37L320.31,338.79L320.7,338.6L323.03,336.78L323.42,336.75L324.97,334.94L325.36,334.32L327.7,331.35L328.08,331.36L329.25,332.06L329.64,331.85L334.3,328.41L334.69,328.77L337.02,329.69L337.41,329.88L339.36,329.6L339.75,329.37L341.3,329.56L341.69,329.53L343.24,327.86L343.63,327.91L344.41,327.49L344.8,327.84L347.91,327.7L348.3,327.98L349.46,327.76L349.85,328.28L351.41,329.73L351.8,329.61L352.96,329.77L353.35,329.96L354.91,328.31L355.29,327.39L358.01,324.71L358.4,324.73L358.79,324.76L359.18,325.59L360.74,326.23L361.13,326.22L362.68,326.65L363.07,326.54L367.34,328.45L367.73,327.94L370.45,327.75L370.84,327.34L372.01,328.37L372.4,327.7L374.73,326.26L375.12,326.69L375.9,326.69L376.29,327.33L377.84,328.78L378.23,329.31L379.39,329.24L379.78,329.29L380.95,329.34L381.34,329.31L383.28,329.32L383.67,328.96L387.56,329.19L387.95,329.5L389.89,329.77L390.28,329.66L396.5,330.27L396.89,330.56L397.66,330.84L398.05,331.44L400.77,332.85L401.16,332.58L402.33,331.22L402.72,331.31L404.27,330.54L404.66,330.73L406.6,331.24L406.99,331.07L410.49,332.29L410.88,332.19L412.82,330.29L413.21,329.39L415.54,327.85L415.93,327.97L419.04,328.68L419.43,329.6L420.6,330.83L420.99,331.83L422.54,334.63L422.93,334.68L426.82,331.69L427.21,332.01L428.76,333.08L429.15,333.44L432.26,333.01L432.65,332.72L435.37,332.6L435.76,332.21L437.31,330.63L437.7,330.42L438.87,329.59L439.26,329.53L439.65,329.42L440.04,330.18L444.7,332.8L445.09,332.6L447.03,332.8L447.42,332.72L448.59,333.03L448.98,333.32L453.64,332.1L454.03,331.57L454.81,331.29L455.2,331.38L456.36,331.68L456.75,331.94L459.08,334.05L459.47,334.08L460.64,334.02L461.03,333.68L464.53,330.89L464.91,330.79L467.25,333.08L467.64,333.19L469.58,334.11L469.97,334.17L471.52,332.37L471.91,332.62L474.24,331.52L474.63,331.81L477.35,331.16L477.74,331.88L479.69,332.43L480.08,331.92L481.63,329.55L482.02,329.33L483.57,326.66L483.96,326.91L484.35,326.93L485.13,327.21L485.52,327.91L486.68,329.4L487.07,330.42L488.24,331.85L488.63,331.95L489.79,330.93L490.18,329.96L490.96,329.55L491.35,328.76L492.51,328.82L492.9,329.02L493.68,328.99L494.07,329.43L499.12,329.24L499.51,328.91L500.29,328.91L500.68,329.31L503.79,329.38L504.18,328.8L504.95,328.13L505.34,328.31L506.51,328.14L506.9,328.69L507.68,329.19L508.06,330.02L509.23,330.47L509.62,330.41L513.12,327.42L513.51,327.97L514.67,328.1L515.06,327.82L516.23,328.49L516.62,328.85L518.17,328.25L518.56,328.18L519.73,328.64L520.11,328.62L523.61,326.02L524,326.13L526.72,325.93L527.11,326.39L529.44,325.66L529.83,325L533.33,319.87L533.72,319.85L534.5,319.59L534.89,318.86L536.05,318.61L536.44,318.65L538.77,316.83L539.16,316.82L540.33,317.99L540.72,318.94L543.83,324.27L544.22,323.56L546.55,320.99L546.94,320.48L549.27,319.16L549.66,319.38L552.77,325.3L553.16,324.93L554.32,323.5L554.71,323.5L555.1,323.41L555.49,322.45L557.04,320.99L557.43,321.56L558.21,320.32L558.6,319.39L558.99,318.98" style="vector-effect: none; fill: none; stroke: rgb(106, 90, 205); stroke-opacity: 1; stroke-width: 1.8px; opacity: 1;"/></g><g class="points"/><g class="text"/></g><g class="trace scatter tracee564c2" style="stroke-miterlimit: 2; opacity: 1;"><g class="fills"/><g class="errorbars"/><g class="lines"><path class="js-line" d="M0,317.96L1.94,418.38L2.33,418.54L4.67,417.29L5.05,417.19L10.5,417.37L10.89,417.58L15.16,418.17L15.55,418.33L17.88,417.55L18.27,417.18L20.22,415.29L20.6,415.09L22.16,414.33L22.55,414.49L25.27,414.97L25.66,414.71L32.65,411.5L33.04,411.12L36.15,408.44L36.54,408.4L37.71,408.01L38.1,407.47L39.26,406.85L39.65,406.87L41.98,406.82L42.37,407.11L43.15,406.79L43.54,406.46L47.42,402.22L47.81,402.49L49.76,403.05L50.15,403.51L50.92,403.83L51.31,404.59L52.09,404.76L52.48,404.02L53.26,403.67L53.65,403.25L54.81,403.04L55.2,402.04L57.53,398.44L57.92,397.41L59.09,395.9L59.48,396.26L63.75,408.26L64.14,408.3L66.47,406.93L66.86,404.42L71.14,381.19L71.53,380.48L73.86,378.97L74.25,379.01L75.41,378.71L75.8,378.01L77.75,374.19L78.13,373.22L80.08,371.27L80.47,371.64L82.41,370.87L82.8,371.01L84.35,368.11L84.74,367.53L86.69,365.39L87.08,365.07L88.63,365.06L89.02,365.23L89.8,365.77L90.19,365.35L92.91,362.18L93.3,361.35L94.85,358.29L95.24,358.05L97.18,357.21L97.57,357.37L98.35,357.1L98.74,356.3L99.91,354.79L100.29,354.68L102.24,351.86L102.63,351.32L103.79,348.31L104.18,347.12L106.51,341.23L106.9,340.51L108.07,339.16L108.46,338.6L110.4,335.9L110.79,335.68L112.73,337.4L113.12,338.03L113.9,338.41L114.29,338.12L115.07,337.45L115.45,337.29L119.34,332.03L119.73,331.38L120.9,329.96L121.28,329.33L124.39,325.14L124.78,324.78L128.67,321.12L129.06,320.48L130.61,318.29L131,318.17L132.17,317.58L132.56,318.46L134.5,318.25L134.89,317.6L136.83,317.14L137.22,317.83L138,318.41L138.39,317.57L139.56,317.56L139.94,316.84L140.72,316.64L141.11,316.09L142.67,315.2L143.05,314.05L146.94,310.44L147.33,310.46L151.22,304.35L151.61,304.67L153.16,303.62L153.55,303.48L155.1,303.17L155.49,302.5L157.05,300.86L157.44,299.89L160.94,296.42L161.32,296.59L162.49,297.1L162.88,297.08L164.05,297.33L164.43,296.79L168.71,301.14L169.1,301.01L170.27,301.19L170.65,301.26L171.43,300.85L171.82,301.31L172.21,301.2L172.6,302.33L176.1,305.82L176.48,305.29L176.87,305.21L177.26,306.01L178.82,308.03L179.21,308.56L180.37,310.27L180.76,311.4L182.32,311.28L182.71,311.43L183.48,311.56L183.87,311.99L185.43,315.38L185.82,316.64L186.59,317.36L186.98,318.26L188.54,319.26L188.92,319.07L192.03,320.39L192.42,321.14L196.7,326.16L197.09,326.47L199.03,328.07L199.42,327.87L200.59,327.51L200.98,327.54L202.92,328.73L203.31,328.95L205.25,330.22L205.64,330.21L210.69,329.54L211.08,329.89L212.25,329.36L212.64,329.57L213.41,329.9L213.8,329.88L214.58,330.43L214.97,329.93L216.52,329.54L216.91,329.26L217.69,329.35L218.08,328.58L223.52,326.12L223.91,326.14L227.41,325.43L227.8,325.16L229.74,323.42L230.13,323.84L231.69,323.13L232.08,323.62L233.24,324.42L233.63,325.01L234.02,324.51L234.41,325.01L234.8,326.15L237.13,330.37L237.52,330.79L240.24,336.23L240.63,337.26L242.57,340.75L242.96,340.98L245.29,343.46L245.68,343.97L247.24,344.97L247.62,344.99L249.18,345.55L249.57,345.19L251.9,345.34L252.29,344.99L255.79,342.59L256.18,342.68L257.73,341.91L258.12,342.62L258.9,341.56L259.29,342.06L259.68,342.46L260.45,342.23L260.84,342.72L263.95,342.91L264.34,343.47L265.9,346.67L266.28,347.98L268.62,350.01L269,349.42L269.78,348.67L270.17,347.82L272.11,346.16L272.5,345.44L276,339.92L276.39,339.83L280.67,334.91L281.05,334L284.17,332.63L284.55,332.81L285.33,333.12L285.72,332.68L287.28,333.35L287.66,332.76L289.22,332.62L289.61,333.34L290.77,333.53L291.16,334.49L296.99,348.1L297.38,348.38L300.1,352.02L300.49,352.05L300.88,351.16L301.27,351.65L301.66,351.63L302.05,351.93L302.44,351.08L303.99,349.67L304.38,349.81L304.77,350.48L305.16,350.18L305.55,350.14L305.94,349.82L306.32,350.44L306.71,350.67L307.88,350.38L308.27,350.65L308.66,350.57L309.04,349.68L310.6,349.39L310.99,349.53L313.32,348.08L313.71,348.36L316.43,347.24L316.82,347.16L318.37,345.76L318.76,345.34L320.32,343.08L320.71,342.2L321.09,342.26L321.48,340.77L323.04,336.73L323.43,336.31L325.37,334.43L325.76,335L328.48,337.82L328.87,337.85L330.04,338.31L330.42,338.32L331.59,337.64L331.98,337.92L336.26,341.92L336.64,342L338.59,343.92L338.98,343.89L340.53,345.63L340.92,345.38L341.7,345.88L342.09,346.22L343.25,345.6L343.64,345.32L344.81,344.77L345.2,344.58L347.14,344.81L347.53,344.47L349.47,343.3L349.86,342.69L352.97,342.55L353.36,342.1L354.92,342.9L355.31,342.95L356.47,343.1L356.86,342.72L357.64,342.54L358.03,342.13L359.97,340.4L360.36,340.67L362.3,340.69L362.69,340.18L363.86,339.96L364.25,339.28L366.58,337.28L366.97,336.8L372.02,336.02L372.41,335.91L373.58,335.67L373.97,335.46L375.52,335.99L375.91,335.94L377.85,334.58L378.24,334.83L382.13,338.26L382.52,338.6L385.24,340.14L385.63,339.92L387.57,339.22L387.96,338.48L389.13,338.38L389.51,338.65L393.4,338.62L393.79,338.5L395.35,338.5L395.73,338.33L397.68,338.35L398.07,337.94L400.01,337.69L400.4,337.26L404.29,332.21L404.67,332.09L405.84,332.24L406.23,332.99L407.01,333.1L407.4,333.12L409.34,334.66L409.73,334.45L416.73,330.19L417.11,330.15L421.78,322.73L422.17,322.53L426.06,319.37L426.44,319.35L429.55,317.15L429.94,316.12L431.11,314.54L431.5,314.71L432.66,314.31L433.05,314.31L434.22,315.34L434.61,315.79L437.33,318.6L437.72,318.65L438.49,318.98L438.88,319.19L440.44,319L440.83,319.17L442.77,318.67L443.16,318.8L445.1,319.04L445.49,319.31L449.38,327.19L449.77,327.22L451.71,326.69L452.1,327.81L453.27,330.02L453.65,329.95L455.21,332.41L455.6,332.34L456.76,332.72L457.15,333.03L459.48,337.15L459.87,336.87L460.26,337.02L461.43,339.25L461.82,338.97L462.21,338.95L462.59,338.65L462.98,339.47L463.76,339.91L464.15,340.74L466.48,339.38L466.87,338.51L468.43,337.87L468.81,337.96L469.2,337.59L469.59,338.15L469.98,337.96L470.37,337.97L470.76,338.86L471.54,339.33L471.92,338.81L472.7,338.17L473.09,339.11L474.65,340.18L475.03,339.82L476.98,342.05L477.37,342.45L478.14,342.97L478.53,343.23L480.09,344.08L480.48,343.51L482.03,342.55L482.42,341.65L482.81,341.56L483.2,340.69L485.53,339.54L485.92,339.6L486.7,339.3L487.08,339.03L489.03,337.72L489.42,337.14L490.58,335.92L490.97,335.74L491.75,334.71L492.14,334.05L496.03,329.64L496.41,329.44L498.36,327.33L498.75,327.33L504.19,323.22L504.58,323.63L506.13,321.65L506.52,321.75L509.24,320.66L509.63,320.98L511.19,320.55L511.58,319.99L512.74,320.71L513.13,320.31L513.52,319.49L513.91,319.79L514.3,319.9L515.46,320.39L515.85,320.24L517.41,320.53L517.79,320.28L519.35,319.82L519.74,318.83L521.29,318.13L521.68,318.1L523.24,316.69L523.63,316.85L525.18,315.9L525.57,315.48L528.68,317.82L529.07,317.75L529.84,317.62L530.23,317.6L531.79,315.07L532.18,315.32L535.68,317.34L536.06,317.21L538.01,317.95L538.4,317.86L539.56,318.01L539.95,318.64L540.34,318.39L540.73,321.42L544.23,339.34L544.62,337.83L545.78,335.26L546.17,335.85L546.56,335.8L546.95,333.85L549.28,291.56L549.67,288.57L550.84,277.26L551.23,284.52L552.39,305.32L552.78,302.1L553.17,304.16L553.56,306.44L553.95,303.76L554.34,303.77L554.72,302.11L556.67,290.4L557.06,283.74L558.22,270.47L558.61,270.11L559,270.58" style="vector-effect: none; fill: none; stroke: rgb(117, 112, 179); stroke-opacity: 1; stroke-width: 1.8px; opacity: 1;"/></g><g class="points"/><g class="text"/></g><g class="trace scatter tracec5843e" style="stroke-miterlimit: 2; opacity: 1;"><g class="fills"/><g class="errorbars"/><g class="lines"><path class="js-line" d="M0,421.12L24.1,413.57L24.49,413.44L45.87,404.99L46.26,404.82L63.75,396.4L64.14,396.2L83.97,384.69L84.35,384.44L100.68,373.12L101.07,372.83L116.23,360.63L116.62,360.29L130.23,347.84L130.61,347.46L148.11,329.39L148.5,328.97L175.71,300.27L176.1,299.97L181.54,296.58L181.93,296.41L186.98,295.04L187.37,294.99L196.31,294.81L196.7,294.82L262.4,297.44L262.79,297.45L400.79,300.44L401.18,300.44L453.65,301.04L454.04,301.04L497.19,301.4L497.58,301.4L536.45,301.65L536.84,301.65L559,301.77" style="vector-effect: none; fill: none; stroke: rgb(0, 0, 0); stroke-opacity: 1; stroke-dasharray: 3px, 3px; stroke-width: 1.8px; opacity: 1;"/></g><g class="points"/><g class="text"/></g></g></g></g><path class="xlines-above crisp" d="M41.5,466.25H601.5M41.5,17.75H601.5" style="fill: none; stroke-width: 0.5px; stroke: rgb(0, 0, 0); stroke-opacity: 1;"/><path class="ylines-above crisp" d="M41.75,18V466M601.25,18V466" style="fill: none; stroke-width: 0.5px; stroke: rgb(0, 0, 0); stroke-opacity: 1;"/><g class="overlines-above"/><g class="xaxislayer-above"><g class="xtick"><text text-anchor="middle" x="0" y="479.7" transform="translate(42,0)" style="font-family: 'Open Sans', verdana, arial, sans-serif; font-size: 11px; fill: rgb(0, 0, 0); fill-opacity: 1; white-space: pre; opacity: 1;">0</text></g><g class="xtick"><text text-anchor="middle" x="0" y="479.7" style="font-family: 'Open Sans', verdana, arial, sans-serif; font-size: 11px; fill: rgb(0, 0, 0); fill-opacity: 1; white-space: pre; opacity: 1;" transform="translate(181.8,0)">6</text></g><g class="xtick"><text text-anchor="middle" x="0" y="479.7" style="font-family: 'Open Sans', verdana, arial, sans-serif; font-size: 11px; fill: rgb(0, 0, 0); fill-opacity: 1; white-space: pre; opacity: 1;" transform="translate(321.59,0)">12</text></g><g class="xtick"><text text-anchor="middle" x="0" y="479.7" style="font-family: 'Open Sans', verdana, arial, sans-serif; font-size: 11px; fill: rgb(0, 0, 0); fill-opacity: 1; white-space: pre; opacity: 1;" transform="translate(461.39,0)">18</text></g></g><g class="yaxislayer-above"><g class="ytick"><text text-anchor="end" x="39.3" y="3.8499999999999996" transform="translate(0,466)" style="font-family: 'Open Sans', verdana, arial, sans-serif; font-size: 11px; fill: rgb(0, 0, 0); fill-opacity: 1; white-space: pre; opacity: 1;">0</text></g><g class="ytick"><text text-anchor="end" x="39.3" y="3.8499999999999996" style="font-family: 'Open Sans', verdana, arial, sans-serif; font-size: 11px; fill: rgb(0, 0, 0); fill-opacity: 1; white-space: pre; opacity: 1;" transform="translate(0,421.2)">0.05</text></g><g class="ytick"><text text-anchor="end" x="39.3" y="3.8499999999999996" style="font-family: 'Open Sans', verdana, arial, sans-serif; font-size: 11px; fill: rgb(0, 0, 0); fill-opacity: 1; white-space: pre; opacity: 1;" transform="translate(0,376.4)">0.1</text></g><g class="ytick"><text text-anchor="end" x="39.3" y="3.8499999999999996" style="font-family: 'Open Sans', verdana, arial, sans-serif; font-size: 11px; fill: rgb(0, 0, 0); fill-opacity: 1; white-space: pre; opacity: 1;" transform="translate(0,331.6)">0.15</text></g><g class="ytick"><text text-anchor="end" x="39.3" y="3.8499999999999996" style="font-family: 'Open Sans', verdana, arial, sans-serif; font-size: 11px; fill: rgb(0, 0, 0); fill-opacity: 1; white-space: pre; opacity: 1;" transform="translate(0,286.8)">0.2</text></g><g class="ytick"><text text-anchor="end" x="39.3" y="3.8499999999999996" style="font-family: 'Open Sans', verdana, arial, sans-serif; font-size: 11px; fill: rgb(0, 0, 0); fill-opacity: 1; white-space: pre; opacity: 1;" transform="translate(0,242)">0.25</text></g><g class="ytick"><text text-anchor="end" x="39.3" y="3.8499999999999996" style="font-family: 'Open Sans', verdana, arial, sans-serif; font-size: 11px; fill: rgb(0, 0, 0); fill-opacity: 1; white-space: pre; opacity: 1;" transform="translate(0,197.2)">0.3</text></g><g class="ytick"><text text-anchor="end" x="39.3" y="3.8499999999999996" style="font-family: 'Open Sans', verdana, arial, sans-serif; font-size: 11px; fill: rgb(0, 0, 0); fill-opacity: 1; white-space: pre; opacity: 1;" transform="translate(0,152.4)">0.35</text></g><g class="ytick"><text text-anchor="end" x="39.3" y="3.8499999999999996" style="font-family: 'Open Sans', verdana, arial, sans-serif; font-size: 11px; fill: rgb(0, 0, 0); fill-opacity: 1; white-space: pre; opacity: 1;" transform="translate(0,107.6)">0.4</text></g><g class="ytick"><text text-anchor="end" x="39.3" y="3.8499999999999996" style="font-family: 'Open Sans', verdana, arial, sans-serif; font-size: 11px; fill: rgb(0, 0, 0); fill-opacity: 1; white-space: pre; opacity: 1;" transform="translate(0,62.8)">0.45</text></g><g class="ytick"><text text-anchor="end" x="39.3" y="3.8499999999999996" style="font-family: 'Open Sans', verdana, arial, sans-serif; font-size: 11px; fill: rgb(0, 0, 0); fill-opacity: 1; white-space: pre; opacity: 1;" transform="translate(0,18)">0.5</text></g></g><g class="overaxes-above"/></g></g><g class="polarlayer"/><g class="smithlayer"/><g class="ternarylayer"/><g class="geolayer"/><g class="funnelarealayer"/><g class="pielayer"/><g class="iciclelayer"/><g class="treemaplayer"/><g class="sunburstlayer"/><g class="glimages"/><defs id="topdefs-33b6ad"><g class="clips"/><clipPath id="legend33b6ad"><rect width="78" height="67" x="0" y="0"/></clipPath></defs><g class="layer-above"><g class="imagelayer"/><g class="shapelayer"/></g><g class="infolayer"><g class="legend" pointer-events="all" transform="translate(612.1800000000001,18)"><rect class="bg" shape-rendering="crispEdges" style="stroke: rgb(68, 68, 68); stroke-opacity: 1; fill: rgb(255, 255, 255); fill-opacity: 1; stroke-width: 0px;" width="78" height="67" x="0" y="0"/><g class="scrollbox" transform="" clip-path="url(#legend33b6ad)"><g class="groups"><g class="traces" transform="translate(0,14.5)" style="opacity: 1;"><text class="legendtext" text-anchor="start" x="40" y="4.29" style="font-family: 'Open Sans', verdana, arial, sans-serif; font-size: 11px; fill: rgb(0, 0, 0); fill-opacity: 1; white-space: pre;">M1</text><g class="layers" style="opacity: 1;"><g class="legendfill"/><g class="legendlines"><path class="js-line" d="M5,0h30" style="fill: none; stroke: rgb(106, 90, 205); stroke-opacity: 1; stroke-width: 1.8px;"/></g><g class="legendsymbols"><g class="legendpoints"/></g></g><rect class="legendtoggle" x="0" y="-9.5" width="72.28125" height="19" style="fill: rgb(0, 0, 0); fill-opacity: 0;"/></g><g class="traces" transform="translate(0,33.5)" style="opacity: 1;"><text class="legendtext" text-anchor="start" x="40" y="4.29" style="font-family: 'Open Sans', verdana, arial, sans-serif; font-size: 11px; fill: rgb(0, 0, 0); fill-opacity: 1; white-space: pre;">M2</text><g class="layers" style="opacity: 1;"><g class="legendfill"/><g class="legendlines"><path class="js-line" d="M5,0h30" style="fill: none; stroke: rgb(117, 112, 179); stroke-opacity: 1; stroke-width: 1.8px;"/></g><g class="legendsymbols"><g class="legendpoints"/></g></g><rect class="legendtoggle" x="0" y="-9.5" width="72.28125" height="19" style="fill: rgb(0, 0, 0); fill-opacity: 0;"/></g><g class="traces" transform="translate(0,52.5)" style="opacity: 1;"><text class="legendtext" text-anchor="start" x="40" y="4.29" style="font-family: 'Open Sans', verdana, arial, sans-serif; font-size: 11px; fill: rgb(0, 0, 0); fill-opacity: 1; white-space: pre;">Model</text><g class="layers" style="opacity: 1;"><g class="legendfill"/><g class="legendlines"><path class="js-line" d="M5,0h30" style="fill: none; stroke: rgb(0, 0, 0); stroke-opacity: 1; stroke-dasharray: 3px, 3px; stroke-width: 1.8px;"/></g><g class="legendsymbols"><g class="legendpoints"/></g></g><rect class="legendtoggle" x="0" y="-9.5" width="72.28125" height="19" style="fill: rgb(0, 0, 0); fill-opacity: 0;"/></g></g></g><rect class="scrollbar" rx="20" ry="3" width="0" height="0" style="fill: rgb(128, 139, 164); fill-opacity: 1;" x="0" y="0"/></g><g class="g-gtitle"><text class="gtitle" x="35" y="9" text-anchor="start" dy="0em" style="opacity: 1; font-family: 'Open Sans', verdana, arial, sans-serif; font-size: 11px; fill: rgb(0, 0, 0); fill-opacity: 1; white-space: pre;"><tspan style="font-style:italic">O. anthropi</tspan></text></g><g class="g-xtitle" transform="translate(0,4.550000000000011)"><text class="xtitle" x="321.5" y="490.153125" text-anchor="middle" style="opacity: 1; font-family: 'Open Sans', verdana, arial, sans-serif; font-size: 11px; fill: rgb(0, 0, 0); fill-opacity: 1; white-space: pre;">Time [h]</text></g><g class="g-ytitle"><text class="ytitle" transform="rotate(-90,13.899999999999999,242)" x="13.899999999999999" y="242" text-anchor="middle" style="opacity: 1; font-family: 'Open Sans', verdana, arial, sans-serif; font-size: 11px; fill: rgb(0, 0, 0); fill-opacity: 1; white-space: pre;">log(OD)</text></g></g></svg>