<svg class="main-svg" xmlns="http://www.w3.org/2000/svg" xmlns:xlink="http://www.w3.org/1999/xlink" width="700" height="500" style="" viewBox="0 0 700 500"><rect x="0" y="0" width="700" height="500" style="fill: rgb(255, 255, 255); fill-opacity: 1;"/><defs id="defs-7f01aa"><g class="clips"><clipPath id="clip7f01aaxyplot" class="plotclip"><rect width="516" height="430"/></clipPath><clipPath class="axesclip" id="clip7f01aax"><rect x="40" y="0" width="516" height="500"/></clipPath><clipPath class="axesclip" id="clip7f01aay"><rect x="0" y="20" width="700" height="430"/></clipPath><clipPath class="axesclip" id="clip7f01aaxy"><rect x="40" y="20" width="516" height="430"/></clipPath></g><g class="gradients"/><g class="patterns"/></defs><g class="bglayer"/><g class="layer-below"><g class="imagelayer"/><g class="shapelayer"/></g><g class="cartesianlayer"><g class="subplot xy"><g class="layer-subplot"><g class="shapelayer"/><g class="imagelayer"/></g><g class="minor-gridlayer"><g class="x"/><g class="y"/></g><g class="gridlayer"><g class="x"><path class="xgrid crisp" transform="translate(82.81,0)" d="M0,20v430" style="stroke: rgb(0, 0, 0); stroke-opacity: 1; stroke-width: 1px;"/><path class="xgrid crisp" transform="translate(125.62,0)" d="M0,20v430" style="stroke: rgb(0, 0, 0); stroke-opacity: 1; stroke-width: 1px;"/><path class="xgrid crisp" transform="translate(168.43,0)" d="M0,20v430" style="stroke: rgb(0, 0, 0); stroke-opacity: 1; stroke-width: 1px;"/><path class="xgrid crisp" transform="translate(211.25,0)" d="M0,20v430" style="stroke: rgb(0, 0, 0); stroke-opacity: 1; stroke-width: 1px;"/><path class="xgrid crisp" transform="translate(254.06,0)" d="M0,20v430" style="stroke: rgb(0, 0, 0); stroke-opacity: 1; stroke-width: 1px;"/><path class="xgrid crisp" transform="translate(296.87,0)" d="M0,20v430" style="stroke: rgb(0, 0, 0); stroke-opacity: 1; stroke-width: 1px;"/><path class="xgrid crisp" transform="translate(339.68,0)" d="M0,20v430" style="stroke: rgb(0, 0, 0); stroke-opacity: 1; stroke-width: 1px;"/><path class="xgrid crisp" transform="translate(382.49,0)" d="M0,20v430" style="stroke: rgb(0, 0, 0); stroke-opacity: 1; stroke-width: 1px;"/><path class="xgrid crisp" transform="translate(425.3,0)" d="M0,20v430" style="stroke: rgb(0, 0, 0); stroke-opacity: 1; stroke-width: 1px;"/><path class="xgrid crisp" transform="translate(468.11,0)" d="M0,20v430" style="stroke: rgb(0, 0, 0); stroke-opacity: 1; stroke-width: 1px;"/><path class="xgrid crisp" transform="translate(510.93,0)" d="M0,20v430" style="stroke: rgb(0, 0, 0); stroke-opacity: 1; stroke-width: 1px;"/><path class="xgrid crisp" transform="translate(553.74,0)" d="M0,20v430" style="stroke: rgb(0, 0, 0); stroke-opacity: 1; stroke-width: 1px;"/></g><g class="y"><path class="ygrid crisp" transform="translate(0,396.25)" d="M40,0h516" style="stroke: rgb(0, 0, 0); stroke-opacity: 1; stroke-width: 1px;"/><path class="ygrid crisp" transform="translate(0,342.5)" d="M40,0h516" style="stroke: rgb(0, 0, 0); stroke-opacity: 1; stroke-width: 1px;"/><path class="ygrid crisp" transform="translate(0,288.75)" d="M40,0h516" style="stroke: rgb(0, 0, 0); stroke-opacity: 1; stroke-width: 1px;"/><path class="ygrid crisp" transform="translate(0,235)" d="M40,0h516" style="stroke: rgb(0, 0, 0); stroke-opacity: 1; stroke-width: 1px;"/><path class="ygrid crisp" transform="translate(0,181.25)" d="M40,0h516" style="stroke: rgb(0, 0, 0); stroke-opacity: 1; stroke-width: 1px;"/><path class="ygrid crisp" transform="translate(0,127.5)" d="M40,0h516" style="stroke: rgb(0, 0, 0); stroke-opacity: 1; stroke-width: 1px;"/><path class="ygrid crisp" transform="translate(0,73.75)" d="M40,0h516" style="stroke: rgb(0, 0, 0); stroke-opacity: 1; stroke-width: 1px;"/></g></g><g class="zerolinelayer"><path class="xzl zl crisp" transform="translate(40,0)" d="M0,20v430" style="stroke: rgb(0, 0, 0); stroke-opacity: 1; stroke-width: 1px;"/><path class="yzl zl crisp" transform="translate(0,20)" d="M40,0h516" style="stroke: rgb(0, 0, 0); stroke-opacity: 1; stroke-width: 1px;"/></g><g class="layer-between"><g class="shapelayer"/><g class="imagelayer"/></g><path class="xlines-below"/><path class="ylines-below"/><g class="overlines-below"/><g class="xaxislayer-below"/><g class="yaxislayer-below"/><g class="overaxes-below"/><g class="overplot"><g class="xy" transform="translate(40,20)" clip-path="url(#clip7f01aaxyplot)"><g class="scatterlayer mlayer"><g class="trace scatter trace0ac616" style="stroke-miterlimit: 2; opacity: 1;"><g class="fills"/><g class="errorbars"/><g class="lines"><path class="js-line" d="M1.07,415.3L2.26,415.3L3.45,410.3L5.83,410.3L7.02,396.55L10.59,335.78L11.78,328.69L12.97,326.43L14.16,322.04L23.67,258.85L24.86,251.92L27.24,234.39L28.43,228.83L29.62,220.99L30.8,218.5L34.37,204.66L35.56,200.42L37.94,195.67L39.13,197.68L46.26,210.59L47.45,209.08L49.83,203.23L51.02,197L54.59,191.12L55.78,187.37L58.16,162.77L59.35,159.88L61.72,158.93L62.91,160.35L65.29,162.28L66.48,161.8L70.05,163.75L71.24,161.8L73.62,159.88L74.8,159.88L75.99,157.99L77.18,157.99L79.56,156.14L80.75,156.14L81.94,156.6L83.13,154.77L85.51,154.31L86.7,153.86L87.89,153.86L89.08,152.97L91.45,151.2L92.64,151.64L93.83,151.2L95.02,149.46L100.97,147.74L102.16,148.17L103.35,147.32L104.54,148.17L106.91,146.06L108.1,146.48L110.48,146.06L111.67,143.17L112.86,144.81L114.05,143.58L115.24,143.17L116.43,141.95L117.62,142.36L118.81,141.55L119.99,142.36L121.18,141.55L122.37,141.55L123.56,140.75L124.75,141.15L125.94,139.96L128.32,139.96L129.51,139.17L133.08,138.78L134.27,138.39L135.45,138.39L136.64,139.57L137.83,137.61L139.02,137.23L140.21,137.23L141.4,138.39L144.97,136.84L146.16,137.61L148.54,136.46L149.72,137.23L154.48,134.94L155.67,134.56L158.05,134.56L159.24,136.08L160.43,134.94L161.62,135.32L164,134.94L165.18,135.7L166.37,134.19L167.56,134.56L169.94,134.19L171.13,132.33L173.51,133.44L174.7,133.07L177.08,133.44L178.27,133.07L180.64,133.07L181.83,133.82L185.4,132.7L186.59,133.82L187.78,133.07L188.97,134.94L190.16,132.7L191.35,132.7L193.73,131.23L194.91,133.44L196.1,132.7L197.29,133.07L198.48,131.6L199.67,132.7L203.24,131.97L204.43,132.33L209.19,131.97L210.37,130.87L212.75,131.23L213.94,130.51L215.13,130.15L216.32,131.97L217.51,131.23L218.7,131.6L221.08,130.87L222.27,131.97L223.46,131.6L224.64,130.15L225.83,131.23L227.02,130.87L228.21,131.97L229.4,130.51L230.59,130.87L231.78,128.71L232.97,129.79L234.16,129.43L235.35,130.15L236.54,128.71L238.92,129.43L240.1,129.79L242.48,129.07L243.67,128.36L244.86,129.43L246.05,128L248.43,129.43L249.62,126.6L250.81,128.71L252,127.65L256.75,129.07L257.94,127.65L259.13,128.71L260.32,128L261.51,127.3L262.7,128.71L265.08,128.71L266.27,128.71L267.46,127.65L268.65,127.65L272.21,130.15L273.4,129.79L274.59,129.43L275.78,128L276.97,128.71L278.16,128L279.35,130.15L280.54,127.65L282.92,127.65L284.11,127.3L285.29,129.07L286.48,128.71L287.67,126.95L288.86,126.95L290.05,125.9L291.24,127.65L292.43,126.25L293.62,128L294.81,126.25L296,128.36L298.38,129.07L299.56,127.65L300.75,126.6L301.94,127.65L303.13,130.51L304.32,129.07L305.51,130.15L306.7,129.79L310.27,124.87L311.46,126.95L312.65,125.9L313.84,127.65L316.21,125.9L317.4,128L318.59,126.6L319.78,128L320.97,130.51L322.16,131.23L324.54,129.43L325.73,128.36L326.92,126.95L328.11,128L329.29,130.51L330.48,130.15L332.86,129.79L334.05,130.51L335.24,130.87L336.43,129.79L337.62,129.43L338.81,125.56L340,124.52L341.19,124.52L342.38,125.56L343.57,124.52L345.94,126.95L347.13,127.3L348.32,126.6L349.51,128.71L350.7,125.9L351.89,126.25L353.08,126.95L354.27,124.18L355.46,126.95L356.65,125.56L360.21,128.71L361.4,129.43L362.59,126.25L363.78,125.9L364.97,126.6L366.16,125.56L367.35,124.52L368.54,125.21L369.73,127.3L370.92,125.9L372.11,126.6L373.3,125.9L375.67,124.52L376.86,125.21L378.05,125.9L379.24,124.52L380.43,125.9L381.62,121.49L382.81,123.5L384,123.5L385.19,125.21L386.38,123.5L387.57,123.5L388.76,121.49L389.94,123.16L391.13,123.16L393.51,123.16L394.7,122.83L395.89,123.84L397.08,123.5L398.27,123.84L399.46,120.49L400.65,123.16L401.84,122.15L403.03,121.15L404.21,123.84L405.4,125.21L406.59,122.49L408.97,123.16L410.16,120.16L411.35,119.18L412.54,116.92L413.73,115.34L414.92,115.03L416.11,114.4L417.3,115.66L419.67,114.71L420.86,116.29L423.24,117.56L424.43,116.29L425.62,115.34L426.81,116.61L428,116.92L429.19,118.53L431.57,116.92L432.76,117.24L435.13,115.66L436.32,115.97L438.7,116.92L439.89,118.86L443.46,119.51L444.65,117.56L445.84,119.18L447.03,117.24L450.59,119.51L451.78,116.29L454.16,118.53L455.35,119.18L456.54,118.86L457.73,117.24L460.11,117.56L461.3,115.97L463.67,117.89L464.86,116.92L469.62,117.56L470.81,116.61L477.95,116.61L479.13,117.24L480.32,116.61L481.51,117.89L483.89,116.61L485.08,114.09L486.27,114.71L487.46,116.61L489.84,114.71L491.03,115.97L492.22,118.53L493.41,117.56L495.78,117.56L496.97,118.53L499.35,120.16L500.54,119.18L502.92,119.18L504.11,117.89L506.49,118.21L507.68,119.83L508.86,119.51L510.05,117.89L511.24,116.92L512.43,118.53L513.62,117.89L514.81,120.49L516,119.51" style="vector-effect: none; fill: none; stroke: rgb(117, 112, 179); stroke-opacity: 1; stroke-width: 1.7px; opacity: 1;"/></g><g class="points"/><g class="text"/></g><g class="trace scatter traced62575" style="stroke-miterlimit: 2; opacity: 1;"><g class="fills"/><g class="errorbars"/><g class="lines"><path class="js-line" d="M1.07,396.55L2.26,400.94L3.45,396.55L4.64,384.37L5.83,388.28L7.02,376.95L8.21,354.41L10.59,328.69L11.78,322.04L18.91,282.84L20.1,275.62L22.48,260.06L23.67,254.18L24.86,248.61L26.05,239.25L30.8,217.68L31.99,213.69L36.75,197.68L37.94,194.35L41.51,189.23L42.7,187.99L43.89,187.99L45.07,189.23L51.02,173.55L52.21,174.09L53.4,172.48L54.59,164.74L55.78,165.24L56.97,163.75L58.16,159.88L59.35,158.93L60.53,161.31L61.72,161.8L62.91,163.26L64.1,163.26L67.67,162.28L68.86,163.26L70.05,162.77L71.24,161.31L72.43,160.83L73.62,159.4L74.8,159.88L75.99,158.93L77.18,158.93L78.37,157.99L80.75,156.6L81.94,157.52L83.13,155.22L84.32,155.68L86.7,154.77L87.89,154.77L92.64,152.97L93.83,151.64L95.02,149.89L96.21,149.89L100.97,148.6L102.16,148.6L103.35,148.17L104.54,148.6L106.91,146.48L108.1,146.48L110.48,146.06L111.67,143.17L112.86,144.4L114.05,143.17L115.24,143.17L116.43,141.95L119.99,141.95L121.18,141.15L127.13,138.78L128.32,139.17L130.7,138L131.89,138L133.08,138L134.27,137.23L135.45,137.23L136.64,138L137.83,135.7L139.02,135.7L140.21,135.7L141.4,136.84L144.97,135.7L146.16,136.08L156.86,132.33L158.05,132.7L159.24,133.44L160.43,132.33L164,132.7L165.18,132.7L166.37,131.23L167.56,131.23L169.94,131.6L171.13,129.79L175.89,130.51L177.08,130.15L180.64,130.51L181.83,131.23L185.4,129.79L186.59,131.6L187.78,130.87L188.97,132.33L190.16,130.51L191.35,130.51L193.73,129.07L194.91,130.87L196.1,130.15L197.29,131.23L198.48,129.79L199.67,130.51L200.86,130.51L202.05,129.43L205.62,129.79L206.81,130.51L209.19,128.36L210.37,129.07L212.75,128.71L213.94,128L218.7,128L219.89,128.71L221.08,127.3L222.27,128L223.46,128.71L224.64,125.56L227.02,127.65L228.21,128L229.4,126.95L230.59,128L231.78,126.6L232.97,127.65L234.16,126.6L235.35,128.36L236.54,126.95L237.73,127.65L238.92,126.6L240.1,126.95L244.86,126.95L246.05,125.9L247.24,126.25L248.43,127.65L249.62,125.9L250.81,127.3L252,126.25L253.19,126.95L254.37,125.9L255.56,126.25L257.94,126.25L259.13,128L261.51,125.56L262.7,127.65L263.89,127.65L265.08,125.9L266.27,126.95L267.46,124.87L268.65,124.52L269.83,125.21L274.59,125.56L275.78,124.87L276.97,125.56L278.16,125.21L279.35,125.9L280.54,124.18L282.92,124.52L284.11,122.83L286.48,126.25L287.67,124.87L288.86,125.9L290.05,125.56L292.43,123.5L293.62,124.87L294.81,122.83L296,123.84L298.38,124.52L299.56,123.5L300.75,122.49L301.94,123.84L303.13,125.56L304.32,124.87L307.89,125.56L309.08,124.18L311.46,121.15L312.65,121.15L313.84,123.84L315.02,122.15L316.21,122.49L317.4,123.84L318.59,121.82L319.78,121.82L325.73,121.49L326.92,118.86L328.11,119.51L329.29,122.83L330.48,123.84L331.67,123.16L334.05,124.18L335.24,122.15L336.43,123.84L337.62,123.84L340,122.49L341.19,122.49L342.38,121.82L343.57,122.15L344.75,121.82L345.94,123.16L347.13,119.51L348.32,122.15L349.51,124.18L350.7,122.83L351.89,122.49L353.08,120.49L354.27,118.21L355.46,120.82L356.65,119.83L357.84,121.15L361.4,123.84L362.59,122.49L363.78,123.84L364.97,122.83L367.35,123.5L368.54,123.16L369.73,124.52L370.92,122.83L372.11,121.49L373.3,121.82L374.48,122.83L375.67,121.82L376.86,120.82L378.05,121.15L380.43,123.84L381.62,120.16L382.81,121.49L384,121.15L385.19,122.83L386.38,122.49L387.57,124.18L388.76,121.82L391.13,123.16L392.32,122.15L394.7,120.16L395.89,122.15L399.46,121.15L400.65,122.15L401.84,118.86L403.03,119.51L404.21,122.15L405.4,121.49L406.59,120.82L407.78,121.82L408.97,122.49L410.16,121.49L411.35,122.49L412.54,121.82L414.92,120.49L416.11,121.15L417.3,122.15L418.49,121.49L422.05,120.82L423.24,121.82L424.43,122.15L425.62,119.83L428,122.15L429.19,123.5L431.57,121.49L432.76,123.16L433.94,121.15L435.13,120.82L436.32,119.18L437.51,119.51L438.7,120.49L439.89,119.83L442.27,121.15L443.46,120.82L444.65,119.83L445.84,121.49L449.4,122.15L450.59,120.49L451.78,115.97L452.97,116.92L454.16,117.56L455.35,120.49L456.54,119.51L457.73,121.15L458.92,120.82L460.11,121.49L461.3,124.52L462.49,122.15L463.67,123.84L464.86,121.15L466.05,122.15L467.24,121.82L468.43,122.49L469.62,122.15L473.19,122.15L474.38,121.82L475.57,122.49L476.76,121.15L477.95,123.16L479.13,121.15L480.32,121.49L481.51,119.83L483.89,119.51L485.08,120.49L486.27,119.18L487.46,120.16L488.65,123.16L489.84,121.49L491.03,120.82L492.22,121.82L494.59,120.82L495.78,119.18L498.16,120.82L499.35,120.82L500.54,121.82L501.73,119.18L504.11,123.5L505.3,121.82L506.49,119.51L507.68,121.82L508.86,123.5L510.05,120.49L511.24,120.16L512.43,121.15L513.62,117.89L514.81,119.18L516,121.49" style="vector-effect: none; fill: none; stroke: rgb(117, 112, 179); stroke-opacity: 1; stroke-width: 1.7px; opacity: 1;"/></g><g class="points"/><g class="text"/></g><g class="trace scatter tracef44f8b" style="stroke-miterlimit: 2; opacity: 1;"><g class="fills"/><g class="errorbars"/><g class="lines"><path class="js-line" d="M1.07,396.55L2.26,396.55L3.45,392.34L5.83,380.6L7.02,366.71L8.21,338.25L9.4,333.37L10.59,335.78L11.78,331L12.97,331L14.16,326.43L15.34,311.8L16.53,309.86L20.1,278.45L21.29,267.56L23.67,253.04L24.86,244.35L27.24,231.57L28.43,223.54L30.8,212.13L31.99,210.59L36.75,194.35L37.94,193.05L40.32,189.85L41.51,186.76L46.26,179.67L47.45,176.84L49.83,173.01L51.02,170.36L52.21,165.24L53.4,164.24L54.59,163.26L55.78,157.99L56.97,155.22L58.16,155.22L59.35,155.68L60.53,157.99L65.29,160.83L66.48,161.31L68.86,162.77L70.05,162.28L73.62,158.93L74.8,159.4L75.99,157.99L77.18,158.46L79.56,156.6L80.75,155.68L81.94,156.14L83.13,154.31L84.32,154.31L85.51,152.97L89.08,151.64L90.26,150.76L92.64,150.32L93.83,148.17L97.4,146.48L98.59,146.48L102.16,145.64L103.35,143.99L104.54,145.64L105.72,143.17L106.91,143.17L108.1,143.99L111.67,139.96L112.86,140.75L115.24,139.57L116.43,138L117.62,138.78L118.81,137.61L119.99,138.39L121.18,137.61L122.37,138L123.56,136.84L124.75,136.84L125.94,135.7L127.13,136.08L128.32,135.32L129.51,134.56L130.7,134.94L131.89,135.32L133.08,134.19L135.45,133.82L136.64,134.56L137.83,133.07L139.02,133.07L140.21,132.7L141.4,133.82L143.78,131.97L144.97,131.97L147.35,132.33L148.54,131.97L152.1,130.51L153.29,131.23L154.48,129.79L155.67,129.79L156.86,129.07L158.05,129.79L159.24,130.87L160.43,129.43L161.62,129.79L162.81,129.07L165.18,129.43L166.37,128.36L167.56,129.07L168.75,128.71L169.94,128.36L171.13,126.6L173.51,128L174.7,127.65L177.08,127.65L178.27,126.95L183.02,128L184.21,126.6L185.4,127.3L186.59,126.95L187.78,126.95L188.97,128L190.16,126.25L191.35,127.3L192.54,126.95L193.73,125.21L194.91,127.65L196.1,126.95L197.29,127.3L198.48,125.9L209.19,126.25L210.37,124.87L211.56,126.25L212.75,125.56L213.94,124.52L215.13,124.52L216.32,125.9L217.51,125.21L218.7,126.25L219.89,125.21L221.08,124.87L222.27,125.9L224.64,124.18L225.83,125.56L231.78,123.5L232.97,124.87L235.35,125.21L236.54,123.5L237.73,124.87L238.92,124.87L242.48,123.5L243.67,123.5L244.86,125.21L246.05,122.15L248.43,123.5L249.62,121.82L250.81,122.83L252,122.83L255.56,121.49L256.75,122.49L257.94,121.15L259.13,122.15L261.51,120.82L262.7,121.49L265.08,121.15L266.27,120.49L267.46,118.21L268.65,119.51L269.83,121.15L271.02,119.83L272.21,122.15L273.4,120.49L276.97,119.83L278.16,118.21L279.35,120.82L280.54,118.21L281.73,119.51L282.92,119.51L285.29,120.16L286.48,118.53L287.67,117.24L288.86,118.21L290.05,116.92L291.24,118.21L292.43,117.56L293.62,117.89L294.81,115.34L296,116.92L297.19,117.24L298.38,116.29L299.56,114.4L300.75,114.4L303.13,117.24L304.32,116.29L305.51,116.92L306.7,115.66L309.08,115.03L310.27,114.4L311.46,111.94L312.65,112.55L313.84,114.4L315.02,112.55L317.4,114.71L318.59,111.63L319.78,111.94L320.97,113.16L322.16,112.86L323.35,114.09L325.73,112.55L326.92,112.24L328.11,111.03L329.29,113.47L331.67,112.24L332.86,112.55L334.05,113.16L335.24,111.94L337.62,111.94L338.81,109.53L341.19,109.53L342.38,111.03L343.57,110.13L344.75,110.73L345.94,112.55L347.13,111.03L348.32,109.83L349.51,111.63L350.7,108.94L351.89,108.64L353.08,109.23L354.27,106.3L355.46,109.23L356.65,107.46L359.02,109.23L360.21,112.24L361.4,110.43L362.59,107.17L363.78,109.53L364.97,108.94L366.16,110.43L367.35,108.94L368.54,108.64L369.73,110.13L373.3,109.83L374.48,108.64L376.86,108.05L378.05,110.13L379.24,109.83L380.43,110.43L381.62,106.88L382.81,107.76L384,108.64L385.19,111.33L386.38,108.05L387.57,109.23L388.76,107.46L389.94,109.83L391.13,109.23L392.32,107.76L394.7,103.73L395.89,107.17L397.08,108.94L398.27,108.05L399.46,106.3L400.65,108.94L401.84,108.05L403.03,106.01L405.4,107.46L406.59,105.15L407.78,103.17L408.97,108.34L410.16,106.01L411.35,108.64L412.54,103.17L413.73,104.02L416.11,102.61L417.3,103.45L418.49,102.89L419.67,104.58L420.86,103.17L422.05,104.02L423.24,105.44L424.43,103.73L425.62,105.15L426.81,105.15L429.19,107.46L430.38,104.3L431.57,106.88L432.76,103.73L433.94,102.61L435.13,99.85L437.51,101.78L438.7,104.3L441.08,106.01L442.27,104.87L443.46,104.02L444.65,102.05L445.84,103.17L447.03,101.5L448.22,104.3L449.4,104.02L450.59,105.44L451.78,102.89L454.16,104.58L455.35,104.02L458.92,100.4L460.11,101.78L462.49,99.85L463.67,103.17L464.86,101.22L466.05,100.95L467.24,102.61L468.43,101.5L469.62,101.78L470.81,103.45L473.19,101.78L474.38,102.33L476.76,100.67L477.95,99.31L480.32,99.58L481.51,100.67L482.7,99.31L483.89,99.85L485.08,97.17L486.27,97.97L487.46,101.22L488.65,101.22L489.84,98.23L491.03,100.4L492.22,103.45L493.41,98.77L494.59,98.77L495.78,100.13L496.97,97.97L498.16,97.97L499.35,99.31L500.54,98.23L502.92,99.85L504.11,98.23L505.3,98.5L506.49,97.43L507.68,99.58L508.86,98.5L511.24,96.9L512.43,100.4L513.62,97.97L514.81,100.4L516,98.77" style="vector-effect: none; fill: none; stroke: rgb(117, 112, 179); stroke-opacity: 1; stroke-width: 1.7px; opacity: 1;"/></g><g class="points"/><g class="text"/></g><g class="trace scatter traceb338c9" style="stroke-miterlimit: 2; opacity: 1;"><g class="fills"/><g class="errorbars"/><g class="lines"><path class="js-line" d="M1.07,409.52L28.43,221.81" style="vector-effect: none; fill: none; stroke: rgb(0, 0, 0); stroke-opacity: 1; stroke-dasharray: 9px, 9px; stroke-width: 1.7px; opacity: 1;"/></g><g class="points"/><g class="text"/></g><g class="trace scatter trace85a4d5" style="stroke-miterlimit: 2; opacity: 1;"><g class="fills"/><g class="errorbars"/><g class="lines"><path class="js-line" d="M1.07,370.02L5.83,335.78L7.02,331L9.4,306.09L10.59,288.99L16.53,255.33L17.72,249.7L20.1,242.28L21.29,237.28L23.67,234.39L24.86,229.74L26.05,222.68L27.24,221.83L29.62,208.33L30.8,208.33L31.99,207.58L33.18,205.38L35.56,197.68L36.75,199.04L37.94,195.01L39.13,195.67L40.32,194.35L41.51,196.33L42.7,197L43.89,195.01L46.26,193.05L47.45,193.69L48.64,191.76L49.83,191.76L52.21,187.99L53.4,189.23L54.59,188.6L55.78,189.85L58.16,182.56L59.35,181.98L60.53,180.82L61.72,180.82L64.1,170.89L65.29,169.84L67.67,161.31L68.86,161.8L70.05,165.24L71.24,157.06L73.62,152.08L74.8,152.52L75.99,149.46L77.18,148.6L80.75,142.76L81.94,143.17L84.32,138L85.51,140.36L86.7,133.82L87.89,133.82L89.08,134.94L90.26,131.97L92.64,136.84L93.83,135.7L95.02,133.44L96.21,133.07L97.4,129.79L98.59,130.15L99.78,129.43L100.97,126.95L103.35,133.44L104.54,136.46L105.72,129.43L106.91,129.07L108.1,130.51L109.29,128.71L111.67,123.16L112.86,123.84L115.24,122.15L116.43,118.86L117.62,120.49L118.81,118.53L121.18,117.24L122.37,118.86L123.56,118.21L124.75,119.18L125.94,118.53L127.13,121.15L129.51,116.92L130.7,117.56L131.89,118.21L133.08,116.61L135.45,117.24L136.64,118.86L137.83,115.97L139.02,115.34L140.21,115.97L141.4,118.53L142.59,117.89L143.78,118.21L144.97,117.89L146.16,118.53L147.35,117.56L148.54,118.21L150.91,118.21L152.1,115.34L153.29,116.61L154.48,115.03L155.67,116.29L156.86,115.03L159.24,118.53L160.43,117.56L161.62,118.53L162.81,117.24L166.37,116.61L167.56,118.53L168.75,117.56L169.94,118.21L171.13,115.97L172.32,117.24L177.08,118.21L178.27,117.24L179.45,116.92L180.64,118.53L183.02,120.16L184.21,117.56L185.4,119.51L186.59,118.86L187.78,119.18L188.97,121.15L190.16,118.53L191.35,120.16L192.54,119.83L193.73,116.92L194.91,120.16L196.1,120.49L202.05,118.21L203.24,119.51L204.43,118.86L205.62,120.16L206.81,120.16L208,119.18L209.19,120.82L210.37,118.53L211.56,119.83L212.75,119.83L215.13,118.21L216.32,120.16L218.7,120.82L219.89,118.53L221.08,117.56L222.27,119.51L224.64,117.24L225.83,119.83L227.02,120.16L228.21,119.51L229.4,119.83L230.59,119.18L231.78,117.89L232.97,119.18L235.35,119.51L236.54,117.24L238.92,119.83L240.1,120.16L241.29,118.53L242.48,118.53L243.67,117.89L244.86,120.16L246.05,117.24L247.24,118.86L249.62,116.92L250.81,118.53L254.37,118.86L255.56,117.89L256.75,119.18L257.94,116.61L259.13,118.21L260.32,117.56L263.89,118.21L265.08,117.56L266.27,117.56L267.46,114.4L269.83,118.53L271.02,117.56L272.21,119.51L273.4,118.21L274.59,116.29L275.78,116.92L276.97,117.24L278.16,115.66L279.35,118.53L280.54,115.34L281.73,116.61L282.92,115.97L284.11,115.66L285.29,117.56L286.48,116.92L287.67,115.03L288.86,115.34L290.05,114.71L291.24,115.34L292.43,114.71L293.62,116.61L294.81,115.03L296,117.24L297.19,115.97L298.38,116.29L299.56,114.71L300.75,115.34L301.94,117.24L303.13,118.53L304.32,117.56L305.51,118.53L306.7,116.29L307.89,117.56L309.08,116.29L310.27,115.66L311.46,112.86L313.84,116.29L315.02,114.09L317.4,116.61L318.59,114.09L320.97,114.71L322.16,116.61L323.35,116.61L324.54,114.4L326.92,113.78L328.11,110.73L329.29,115.03L330.48,115.03L332.86,113.78L334.05,114.09L335.24,113.47L336.43,114.09L337.62,115.34L338.81,113.16L341.19,109.83L342.38,111.63L343.57,109.53L344.75,110.13L345.94,112.24L347.13,111.03L348.32,111.94L349.51,114.4L350.7,110.73L351.89,112.86L353.08,112.55L354.27,110.13L355.46,113.16L356.65,111.03L359.02,113.16L360.21,116.61L361.4,114.71L362.59,110.73L363.78,113.78L364.97,113.16L366.16,114.71L367.35,113.47L368.54,112.86L369.73,114.4L370.92,114.09L372.11,111.94L373.3,112.55L374.48,111.33L375.67,111.94L376.86,111.63L378.05,114.4L379.24,113.47L380.43,113.78L381.62,108.94L384,111.63L385.19,115.34L386.38,113.16L387.57,114.4L388.76,112.86L389.94,113.78L391.13,113.16L392.32,113.78L394.7,106.88L395.89,110.73L397.08,113.47L398.27,111.94L399.46,111.03L400.65,113.47L403.03,110.43L404.21,112.55L405.4,113.47L406.59,110.73L407.78,107.17L408.97,112.24L410.16,109.23L411.35,112.86L412.54,108.34L413.73,108.34L414.92,110.73L416.11,110.13L417.3,108.94L418.49,111.03L419.67,110.73L420.86,108.64L422.05,110.43L423.24,110.13L424.43,108.94L425.62,109.83L426.81,110.13L428,113.16L429.19,113.16L430.38,110.43L431.57,111.63L432.76,108.05L433.94,109.53L435.13,108.64L436.32,107.17L437.51,109.83L441.08,115.34L442.27,113.16L443.46,112.86L444.65,108.64L445.84,110.13L447.03,107.17L448.22,111.63L449.4,109.83L450.59,113.47L451.78,108.94L454.16,111.94L455.35,110.73L456.54,110.13L457.73,108.64L458.92,109.53L460.11,108.64L461.3,105.15L462.49,107.46L463.67,111.33L464.86,108.64L466.05,108.05L467.24,110.73L468.43,109.23L469.62,109.53L472,110.13L473.19,108.05L474.38,110.43L475.57,110.13L477.95,105.15L479.13,106.88L480.32,106.88L481.51,108.05L482.7,106.3L483.89,107.76L485.08,104.87L486.27,107.46L487.46,111.33L488.65,109.23L489.84,105.73L491.03,108.64L492.22,110.43L493.41,106.88L496.97,108.64L498.16,108.34L499.35,109.53L500.54,108.34L501.73,109.83L502.92,108.64L504.11,105.73L505.3,107.17L506.49,107.17L507.68,109.23L508.86,106.3L510.05,106.59L511.24,106.3L512.43,108.94L513.62,106.88L514.81,109.53L516,106.3" style="vector-effect: none; fill: none; stroke: rgb(217, 95, 2); stroke-opacity: 1; stroke-width: 1.7px; opacity: 1;"/></g><g class="points"/><g class="text"/></g><g class="trace scatter tracedadc99" style="stroke-miterlimit: 2; opacity: 1;"><g class="fills"/><g class="errorbars"/><g class="lines"><path class="js-line" d="M1.07,373.43L4.64,348.75L5.83,346.03L10.59,297.2L11.78,288.99L14.16,277.03L15.34,271.52L16.53,270.18L17.72,267.56L21.29,255.33L22.48,254.18L23.67,250.8L24.86,249.7L28.43,239.25L29.62,235.35L31.99,233.44L33.18,230.65L35.56,222.68L36.75,223.54L39.13,220.15L40.32,216.87L41.51,214.47L42.7,216.07L45.07,212.13L46.26,208.33L47.45,207.58L48.64,203.23L51.02,201.81L52.21,198.35L53.4,199.04L54.59,197.68L55.78,194.35L56.97,194.35L59.35,190.49L60.53,190.49L61.72,192.4L62.91,191.12L64.1,187.99L65.29,188.6L67.67,182.56L68.86,180.24L70.05,177.96L71.24,170.89L72.43,170.36L73.62,168.28L75.99,158.93L77.18,157.52L78.37,156.14L79.56,150.76L81.94,149.46L83.13,146.06L85.51,146.9L86.7,145.22L89.08,143.17L90.26,140.75L91.45,140.36L92.64,141.95L93.83,142.36L95.02,136.84L96.21,137.61L97.4,135.32L99.78,134.19L100.97,133.07L102.16,133.07L103.35,125.56L104.54,141.55L105.72,140.75L108.1,136.84L109.29,136.08L110.48,135.32L111.67,131.97L112.86,132.33L114.05,131.6L115.24,130.51L116.43,128.36L119.99,126.95L121.18,125.9L125.94,124.87L127.13,125.9L129.51,124.52L130.7,123.84L131.89,124.52L133.08,123.84L134.27,123.5L135.45,124.18L136.64,124.87L137.83,123.5L140.21,123.16L141.4,124.18L144.97,123.84L146.16,124.87L152.1,123.84L153.29,123.84L155.67,122.49L156.86,122.15L159.24,123.5L160.43,122.83L164,123.16L165.18,123.16L166.37,121.82L167.56,122.15L169.94,122.83L171.13,121.15L177.08,122.49L178.27,121.82L183.02,122.83L184.21,122.15L187.78,122.83L188.97,124.52L190.16,123.16L191.35,123.16L192.54,122.83L193.73,121.49L194.91,123.5L196.1,123.16L197.29,124.18L198.48,123.16L200.86,123.84L202.05,123.16L212.75,123.16L213.94,122.83L215.13,121.82L216.32,123.16L218.7,123.84L219.89,122.83L221.08,122.83L222.27,123.84L223.46,123.84L224.64,122.15L227.02,124.18L228.21,124.52L229.4,123.16L230.59,123.84L232.97,123.84L234.16,123.84L235.35,124.87L236.54,123.5L241.29,124.18L242.48,123.84L243.67,123.5L244.86,124.87L246.05,123.84L247.24,123.84L248.43,124.52L249.62,123.5L250.81,124.87L252,124.18L256.75,124.87L257.94,124.18L259.13,125.21L260.32,124.18L261.51,124.18L262.7,125.21L266.27,125.21L267.46,124.18L268.65,123.84L269.83,124.87L272.21,125.9L273.4,125.21L274.59,124.52L275.78,124.87L276.97,125.21L278.16,123.5L279.35,125.56L280.54,124.18L281.73,125.21L282.92,124.52L284.11,124.18L285.29,125.21L286.48,125.21L287.67,123.84L288.86,124.18L290.05,123.5L291.24,124.52L292.43,123.5L293.62,125.21L294.81,123.84L296,125.21L297.19,125.21L298.38,125.9L299.56,124.87L300.75,124.18L301.94,125.21L303.13,126.95L304.32,126.25L306.7,126.25L307.89,126.25L311.46,123.5L312.65,123.84L313.84,125.9L315.02,124.52L317.4,125.9L318.59,124.18L319.78,125.21L320.97,125.21L323.35,125.9L324.54,124.87L325.73,124.87L326.92,123.84L328.11,123.84L329.29,125.9L330.48,126.25L331.67,125.56L335.24,124.52L336.43,125.56L337.62,125.9L338.81,124.18L341.19,123.16L342.38,124.52L344.75,124.52L345.94,124.52L347.13,123.5L348.32,124.52L349.51,126.25L350.7,123.5L353.08,124.87L354.27,122.49L355.46,125.21L356.65,123.84L361.4,126.6L362.59,124.52L363.78,125.9L364.97,124.87L368.54,125.21L369.73,126.6L372.11,124.52L373.3,125.21L376.86,123.5L378.05,125.56L380.43,126.25L381.62,122.83L382.81,124.18L384,124.18L385.19,126.6L386.38,125.21L387.57,126.25L388.76,124.87L389.94,125.56L391.13,125.21L392.32,125.56L393.51,123.84L394.7,122.83L395.89,125.21L397.08,126.25L398.27,125.56L399.46,124.87L400.65,125.9L403.03,124.52L404.21,125.9L405.4,125.9L406.59,124.52L407.78,123.16L408.97,126.6L410.16,124.52L411.35,126.25L412.54,124.18L413.73,123.84L414.92,124.87L416.11,124.18L417.3,123.16L418.49,124.87L419.67,124.87L420.86,122.49L423.24,125.21L424.43,124.87L425.62,124.18L426.81,124.87L429.19,126.95L430.38,124.52L431.57,125.21L432.76,123.84L435.13,123.16L436.32,122.49L438.7,125.9L439.89,125.9L441.08,127.3L442.27,126.6L443.46,126.95L444.65,124.52L445.84,125.56L447.03,123.5L448.22,125.56L449.4,125.56L450.59,127.65L451.78,124.87L454.16,126.25L455.35,126.25L457.73,124.18L458.92,125.21L461.3,122.83L462.49,124.18L463.67,126.25L464.86,124.52L466.05,124.52L467.24,125.56L469.62,124.87L470.81,124.52L472,125.56L473.19,124.52L474.38,125.56L475.57,125.56L476.76,124.87L477.95,123.16L479.13,124.18L480.32,123.16L481.51,124.18L482.7,122.83L483.89,123.84L485.08,122.49L486.27,123.84L487.46,126.6L488.65,125.9L489.84,123.16L492.22,126.95L493.41,124.52L498.16,124.87L499.35,125.9L500.54,124.87L501.73,125.56L502.92,125.56L504.11,123.16L505.3,124.52L506.49,124.52L507.68,125.56L508.86,124.18L511.24,123.5L512.43,125.21L513.62,123.84L514.81,125.9L516,123.84" style="vector-effect: none; fill: none; stroke: rgb(217, 95, 2); stroke-opacity: 1; stroke-width: 1.7px; opacity: 1;"/></g><g class="points"/><g class="text"/></g><g class="trace scatter trace1e9d9a" style="stroke-miterlimit: 2; opacity: 1;"><g class="fills"/><g class="errorbars"/><g class="lines"><path class="js-line" d="M1.07,373.43L7.02,326.43L8.21,307.96L10.59,281.36L11.78,274.24L16.53,253.04L17.72,249.7L20.1,244.35L21.29,239.25L22.48,239.25L23.67,238.26L24.86,237.28L26.05,233.44L27.24,232.5L28.43,229.74L30.8,223.54L31.99,223.54L33.18,222.68L34.37,220.15L37.94,216.07L39.13,215.27L40.32,211.36L41.51,212.13L42.7,209.83L43.89,209.83L47.45,203.23L48.64,203.23L52.21,196.33L53.4,196.33L56.97,191.12L58.16,191.12L59.35,188.6L60.53,193.05L61.72,189.23L62.91,189.23L65.29,187.37L66.48,181.4L70.05,176.84L71.24,169.84L73.62,165.24L74.8,159.88L75.99,156.14L77.18,155.68L78.37,153.86L79.56,149.89L80.75,148.6L81.94,149.03L83.13,145.64L84.32,146.48L85.51,147.74L86.7,146.06L87.89,145.64L89.08,144.4L90.26,141.95L91.45,142.76L92.64,143.99L93.83,143.58L95.02,138.78L96.21,139.57L98.59,136.84L99.78,136.08L102.16,135.32L103.35,127.65L104.54,129.43L105.72,137.61L106.91,142.76L108.1,140.36L110.48,137.23L111.67,133.07L112.86,133.07L114.05,131.23L115.24,130.15L116.43,127.65L117.62,127.3L118.81,125.9L121.18,123.84L122.37,123.84L123.56,123.16L124.75,123.5L125.94,122.49L127.13,123.16L130.7,120.16L131.89,120.49L134.27,119.18L135.45,119.51L136.64,120.82L137.83,118.86L140.21,119.51L141.4,120.82L144.97,121.15L146.16,121.82L148.54,121.15L149.72,121.82L152.1,120.49L153.29,121.15L156.86,119.83L158.05,120.82L159.24,122.15L160.43,121.49L162.81,122.15L164,121.82L165.18,122.15L166.37,120.82L168.75,121.82L169.94,121.82L171.13,120.16L172.32,120.82L173.51,121.82L174.7,121.82L177.08,122.15L178.27,121.82L180.64,121.82L181.83,122.83L183.02,122.83L184.21,121.49L188.97,124.52L190.16,122.83L192.54,122.83L193.73,121.49L194.91,123.84L196.1,123.5L197.29,124.18L198.48,123.16L200.86,123.5L202.05,122.49L206.81,123.5L208,123.16L211.56,122.83L212.75,123.16L215.13,121.82L216.32,123.16L218.7,123.5L219.89,122.49L221.08,122.15L222.27,123.16L223.46,123.16L224.64,121.49L227.02,123.16L228.21,123.5L229.4,122.49L230.59,123.16L231.78,122.49L232.97,123.16L234.16,122.83L235.35,123.84L236.54,122.83L237.73,123.16L243.67,122.83L244.86,123.84L246.05,122.83L247.24,122.83L248.43,123.5L249.62,122.49L250.81,123.5L252,123.16L254.37,123.16L255.56,123.16L256.75,123.84L257.94,122.83L259.13,123.84L260.32,123.16L261.51,122.83L262.7,123.84L266.27,123.5L267.46,122.49L268.65,122.15L269.83,123.5L273.4,123.5L274.59,122.83L276.97,123.5L278.16,121.82L279.35,123.84L280.54,122.49L281.73,123.5L282.92,122.49L284.11,122.49L285.29,123.5L286.48,123.5L287.67,122.15L291.24,122.49L292.43,121.49L293.62,123.16L294.81,121.82L296,123.16L297.19,123.16L298.38,124.18L299.56,122.83L300.75,122.15L301.94,123.16L303.13,125.21L304.32,124.18L306.7,124.18L307.89,124.18L311.46,121.82L312.65,122.15L313.84,123.84L315.02,122.83L316.21,122.83L317.4,123.84L318.59,122.49L319.78,123.16L323.35,123.84L324.54,122.83L325.73,122.83L326.92,121.82L328.11,121.49L329.29,123.5L330.48,124.18L331.67,123.5L335.24,122.49L336.43,123.5L337.62,123.84L338.81,122.15L341.19,120.82L342.38,122.15L344.75,121.82L345.94,122.15L347.13,121.15L348.32,122.15L349.51,123.5L350.7,121.15L353.08,122.49L354.27,120.16L355.46,122.83L356.65,121.49L361.4,124.18L362.59,122.15L363.78,123.5L364.97,122.49L366.16,123.16L367.35,122.83L368.54,123.16L369.73,124.52L372.11,122.15L373.3,122.83L376.86,121.49L378.05,123.5L380.43,123.84L381.62,120.82L384,122.15L385.19,124.52L386.38,123.16L387.57,124.18L388.76,122.83L389.94,123.5L392.32,123.5L393.51,121.49L394.7,120.49L395.89,122.49L397.08,123.84L398.27,123.5L399.46,122.49L400.65,123.84L403.03,122.15L404.21,123.5L405.4,123.84L406.59,122.15L407.78,120.82L408.97,124.18L410.16,122.49L411.35,124.18L412.54,121.82L413.73,121.49L414.92,122.83L416.11,122.15L417.3,120.82L418.49,122.49L419.67,122.83L420.86,120.49L423.24,123.16L424.43,122.49L425.62,122.15L426.81,122.83L429.19,124.87L430.38,122.49L431.57,123.16L432.76,121.49L433.94,121.82L435.13,121.15L436.32,120.16L437.51,122.83L441.08,125.56L442.27,124.87L443.46,124.87L444.65,122.49L445.84,123.5L447.03,121.49L448.22,123.5L449.4,123.5L450.59,125.56L451.78,122.83L454.16,124.52L455.35,124.18L457.73,122.49L458.92,123.16L460.11,122.49L461.3,120.49L463.67,124.52L464.86,122.49L466.05,122.49L467.24,123.84L468.43,122.83L469.62,123.16L470.81,122.83L472,123.5L473.19,122.49L474.38,123.84L475.57,123.84L476.76,122.83L477.95,121.15L479.13,121.82L480.32,121.15L481.51,121.82L482.7,120.82L483.89,122.15L485.08,120.49L486.27,121.49L487.46,124.52L488.65,124.18L489.84,121.49L491.03,123.16L492.22,124.87L493.41,122.49L494.59,122.49L495.78,123.5L498.16,123.16L499.35,124.18L500.54,123.16L501.73,123.84L502.92,123.5L504.11,121.15L505.3,122.49L506.49,122.49L507.68,123.5L508.86,122.15L511.24,121.49L512.43,123.5L513.62,122.15L514.81,124.18L516,122.15" style="vector-effect: none; fill: none; stroke: rgb(217, 95, 2); stroke-opacity: 1; stroke-width: 1.7px; opacity: 1;"/></g><g class="points"/><g class="text"/></g><g class="trace scatter trace79989c" style="stroke-miterlimit: 2; opacity: 1;"><g class="fills"/><g class="errorbars"/><g class="lines"><path class="js-line" d="M1.07,343.12L516,-1053.31" style="vector-effect: none; fill: none; stroke: rgb(0, 0, 0); stroke-opacity: 1; stroke-dasharray: 9px, 9px; stroke-width: 1.7px; opacity: 1;"/></g><g class="points"/><g class="text"/></g></g></g></g><path class="xlines-above crisp" d="M0,0" style="fill: none;"/><path class="ylines-above crisp" d="M0,0" style="fill: none;"/><g class="overlines-above"/><g class="xaxislayer-above"><g class="xtick"><text text-anchor="middle" x="0" y="465" transform="translate(40,0)" style="font-family: 'Open Sans', verdana, arial, sans-serif; font-size: 14px; fill: rgb(0, 0, 0); fill-opacity: 1; white-space: pre; opacity: 1;">0</text></g><g class="xtick"><text text-anchor="middle" x="0" y="465" style="font-family: 'Open Sans', verdana, arial, sans-serif; font-size: 14px; fill: rgb(0, 0, 0); fill-opacity: 1; white-space: pre; opacity: 1;" transform="translate(82.81,0)">6</text></g><g class="xtick"><text text-anchor="middle" x="0" y="465" style="font-family: 'Open Sans', verdana, arial, sans-serif; font-size: 14px; fill: rgb(0, 0, 0); fill-opacity: 1; white-space: pre; opacity: 1;" transform="translate(125.62,0)">12</text></g><g class="xtick"><text text-anchor="middle" x="0" y="465" style="font-family: 'Open Sans', verdana, arial, sans-serif; font-size: 14px; fill: rgb(0, 0, 0); fill-opacity: 1; white-space: pre; opacity: 1;" transform="translate(168.43,0)">18</text></g><g class="xtick"><text text-anchor="middle" x="0" y="465" style="font-family: 'Open Sans', verdana, arial, sans-serif; font-size: 14px; fill: rgb(0, 0, 0); fill-opacity: 1; white-space: pre; opacity: 1;" transform="translate(211.25,0)">24</text></g><g class="xtick"><text text-anchor="middle" x="0" y="465" style="font-family: 'Open Sans', verdana, arial, sans-serif; font-size: 14px; fill: rgb(0, 0, 0); fill-opacity: 1; white-space: pre; opacity: 1;" transform="translate(254.06,0)">30</text></g><g class="xtick"><text text-anchor="middle" x="0" y="465" style="font-family: 'Open Sans', verdana, arial, sans-serif; font-size: 14px; fill: rgb(0, 0, 0); fill-opacity: 1; white-space: pre; opacity: 1;" transform="translate(296.87,0)">36</text></g><g class="xtick"><text text-anchor="middle" x="0" y="465" style="font-family: 'Open Sans', verdana, arial, sans-serif; font-size: 14px; fill: rgb(0, 0, 0); fill-opacity: 1; white-space: pre; opacity: 1;" transform="translate(339.68,0)">42</text></g><g class="xtick"><text text-anchor="middle" x="0" y="465" style="font-family: 'Open Sans', verdana, arial, sans-serif; font-size: 14px; fill: rgb(0, 0, 0); fill-opacity: 1; white-space: pre; opacity: 1;" transform="translate(382.49,0)">48</text></g><g class="xtick"><text text-anchor="middle" x="0" y="465" style="font-family: 'Open Sans', verdana, arial, sans-serif; font-size: 14px; fill: rgb(0, 0, 0); fill-opacity: 1; white-space: pre; opacity: 1;" transform="translate(425.3,0)">54</text></g><g class="xtick"><text text-anchor="middle" x="0" y="465" style="font-family: 'Open Sans', verdana, arial, sans-serif; font-size: 14px; fill: rgb(0, 0, 0); fill-opacity: 1; white-space: pre; opacity: 1;" transform="translate(468.11,0)">60</text></g><g class="xtick"><text text-anchor="middle" x="0" y="465" style="font-family: 'Open Sans', verdana, arial, sans-serif; font-size: 14px; fill: rgb(0, 0, 0); fill-opacity: 1; white-space: pre; opacity: 1;" transform="translate(510.93,0)">66</text></g><g class="xtick"><text text-anchor="middle" x="0" y="465" style="font-family: 'Open Sans', verdana, arial, sans-serif; font-size: 14px; fill: rgb(0, 0, 0); fill-opacity: 1; white-space: pre; opacity: 1;" transform="translate(553.74,0)">72</text></g></g><g class="yaxislayer-above"><g class="ytick"><text text-anchor="end" x="39" y="4.8999999999999995" transform="translate(0,450)" style="font-family: 'Open Sans', verdana, arial, sans-serif; font-size: 14px; fill: rgb(0, 0, 0); fill-opacity: 1; white-space: pre; opacity: 1;">−4</text></g><g class="ytick"><text text-anchor="end" x="39" y="4.8999999999999995" style="font-family: 'Open Sans', verdana, arial, sans-serif; font-size: 14px; fill: rgb(0, 0, 0); fill-opacity: 1; white-space: pre; opacity: 1;" transform="translate(0,396.25)">−3.5</text></g><g class="ytick"><text text-anchor="end" x="39" y="4.8999999999999995" style="font-family: 'Open Sans', verdana, arial, sans-serif; font-size: 14px; fill: rgb(0, 0, 0); fill-opacity: 1; white-space: pre; opacity: 1;" transform="translate(0,342.5)">−3</text></g><g class="ytick"><text text-anchor="end" x="39" y="4.8999999999999995" style="font-family: 'Open Sans', verdana, arial, sans-serif; font-size: 14px; fill: rgb(0, 0, 0); fill-opacity: 1; white-space: pre; opacity: 1;" transform="translate(0,288.75)">−2.5</text></g><g class="ytick"><text text-anchor="end" x="39" y="4.8999999999999995" style="font-family: 'Open Sans', verdana, arial, sans-serif; font-size: 14px; fill: rgb(0, 0, 0); fill-opacity: 1; white-space: pre; opacity: 1;" transform="translate(0,235)">−2</text></g><g class="ytick"><text text-anchor="end" x="39" y="4.8999999999999995" style="font-family: 'Open Sans', verdana, arial, sans-serif; font-size: 14px; fill: rgb(0, 0, 0); fill-opacity: 1; white-space: pre; opacity: 1;" transform="translate(0,181.25)">−1.5</text></g><g class="ytick"><text text-anchor="end" x="39" y="4.8999999999999995" style="font-family: 'Open Sans', verdana, arial, sans-serif; font-size: 14px; fill: rgb(0, 0, 0); fill-opacity: 1; white-space: pre; opacity: 1;" transform="translate(0,127.5)">−1</text></g><g class="ytick"><text text-anchor="end" x="39" y="4.8999999999999995" style="font-family: 'Open Sans', verdana, arial, sans-serif; font-size: 14px; fill: rgb(0, 0, 0); fill-opacity: 1; white-space: pre; opacity: 1;" transform="translate(0,73.75)">−0.5</text></g><g class="ytick"><text text-anchor="end" x="39" y="4.8999999999999995" style="font-family: 'Open Sans', verdana, arial, sans-serif; font-size: 14px; fill: rgb(0, 0, 0); fill-opacity: 1; white-space: pre; opacity: 1;" transform="translate(0,20)">0</text></g></g><g class="overaxes-above"/></g></g><g class="polarlayer"/><g class="smithlayer"/><g class="ternarylayer"/><g class="geolayer"/><g class="funnelarealayer"/><g class="pielayer"/><g class="iciclelayer"/><g class="treemaplayer"/><g class="sunburstlayer"/><g class="glimages"/><defs id="topdefs-7f01aa"><g class="clips"/><clipPath id="legend7f01aa"><rect width="134" height="94" x="0" y="0"/></clipPath></defs><g class="layer-above"><g class="imagelayer"/><g class="shapelayer"/></g><g class="infolayer"><g class="legend" pointer-events="all" transform="translate(566,20)"><rect class="bg" shape-rendering="crispEdges" width="134" height="94" x="0" y="0" style="stroke: rgb(68, 68, 68); stroke-opacity: 1; fill: rgb(255, 255, 255); fill-opacity: 1; stroke-width: 0px;"/><g class="scrollbox" transform="" clip-path="url(#legend7f01aa)"><g class="groups" transform=""><g class="traces" transform="translate(0,15.6)" style="opacity: 1;"><text class="legendtext" text-anchor="start" x="40" y="5.46" style="font-family: 'Open Sans', verdana, arial, sans-serif; font-size: 14px; fill: rgb(0, 0, 0); fill-opacity: 1; white-space: pre;"><tspan style="font-style:italic">C. testosteroni</tspan></text><g class="layers" style="opacity: 1;"><g class="legendfill"/><g class="legendlines"><path class="js-line" d="M5,0h30" style="fill: none; stroke: rgb(117, 112, 179); stroke-opacity: 1; stroke-width: 1.7px;"/></g><g class="legendsymbols"><g class="legendpoints"/></g></g><rect class="legendtoggle" x="0" y="-10.6" width="128.125" height="21.2" style="fill: rgb(0, 0, 0); fill-opacity: 0;"/></g></g><g class="groups" transform="translate(0,10)"><g class="traces" transform="translate(0,36.8)" style="opacity: 1;"><text class="legendtext" text-anchor="start" x="40" y="5.46" style="font-family: 'Open Sans', verdana, arial, sans-serif; font-size: 14px; fill: rgb(0, 0, 0); fill-opacity: 1; white-space: pre;">fit</text><g class="layers" style="opacity: 1;"><g class="legendfill"/><g class="legendlines"><path class="js-line" d="M5,0h30" style="fill: none; stroke: rgb(0, 0, 0); stroke-opacity: 1; stroke-dasharray: 9px, 9px; stroke-width: 1.7px;"/></g><g class="legendsymbols"><g class="legendpoints"/></g></g><rect class="legendtoggle" x="0" y="-10.6" width="128.125" height="21.2" style="fill: rgb(0, 0, 0); fill-opacity: 0;"/></g></g><g class="groups" transform="translate(0,20)"><g class="traces" transform="translate(0,58)" style="opacity: 1;"><text class="legendtext" text-anchor="start" x="40" y="5.46" style="font-family: 'Open Sans', verdana, arial, sans-serif; font-size: 14px; fill: rgb(0, 0, 0); fill-opacity: 1; white-space: pre;"><tspan style="font-style:italic">O. anthropi</tspan></text><g class="layers" style="opacity: 1;"><g class="legendfill"/><g class="legendlines"><path class="js-line" d="M5,0h30" style="fill: none; stroke: rgb(217, 95, 2); stroke-opacity: 1; stroke-width: 1.7px;"/></g><g class="legendsymbols"><g class="legendpoints"/></g></g><rect class="legendtoggle" x="0" y="-10.6" width="128.125" height="21.2" style="fill: rgb(0, 0, 0); fill-opacity: 0;"/></g></g></g><rect class="scrollbar" rx="20" ry="3" width="0" height="0" x="0" y="0" style="fill: rgb(128, 139, 164); fill-opacity: 1;"/></g><g class="g-gtitle"/><g class="g-xtitle" transform="translate(0,5.699999999999989)"><text class="xtitle" x="298" y="478.3" text-anchor="middle" style="opacity: 1; font-family: 'Open Sans', verdana, arial, sans-serif; font-size: 14px; fill: rgb(0, 0, 0); fill-opacity: 1; white-space: pre;">Time [h]</text></g><g class="g-ytitle" transform="translate(8.150390625,0)"><text class="ytitle" transform="rotate(-90,6.850000000000001,235)" x="6.850000000000001" y="235" text-anchor="middle" style="opacity: 1; font-family: 'Open Sans', verdana, arial, sans-serif; font-size: 14px; fill: rgb(0, 0, 0); fill-opacity: 1; white-space: pre;">log(OD)</text></g></g></svg>