<svg class="main-svg" xmlns="http://www.w3.org/2000/svg" xmlns:xlink="http://www.w3.org/1999/xlink" width="150" height="150" style="" viewBox="0 0 150 150"><rect x="0" y="0" width="150" height="150" style="fill: rgb(255, 255, 255); fill-opacity: 1;"/><defs id="defs-a54a71"><g class="clips"><clipPath id="clipa54a71xyplot" class="plotclip"><rect width="106" height="107"/></clipPath><clipPath class="axesclip" id="clipa54a71x"><rect x="34" y="0" width="106" height="150"/></clipPath><clipPath class="axesclip" id="clipa54a71y"><rect x="0" y="10" width="150" height="107"/></clipPath><clipPath class="axesclip" id="clipa54a71xy"><rect x="34" y="10" width="106" height="107"/></clipPath></g><g class="gradients"/><g class="patterns"/></defs><g class="bglayer"/><g class="layer-below"><g class="imagelayer"/><g class="shapelayer"/></g><g class="cartesianlayer"><g class="subplot xy"><g class="layer-subplot"><g class="shapelayer"/><g class="imagelayer"/></g><g class="minor-gridlayer"><g class="x"/><g class="y"/></g><g class="gridlayer"><g class="x"><path class="xgrid crisp" transform="translate(69.35,0)" d="M0,10v107" style="stroke: rgb(0, 0, 0); stroke-opacity: 1; stroke-width: 0.5px;"/><path class="xgrid crisp" transform="translate(104.7,0)" d="M0,10v107" style="stroke: rgb(0, 0, 0); stroke-opacity: 1; stroke-width: 0.5px;"/></g><g class="y"><path class="ygrid crisp" transform="translate(0,86.43)" d="M34,0h106" style="stroke: rgb(0, 0, 0); stroke-opacity: 1; stroke-width: 0.5px;"/><path class="ygrid crisp" transform="translate(0,55.86)" d="M34,0h106" style="stroke: rgb(0, 0, 0); stroke-opacity: 1; stroke-width: 0.5px;"/><path class="ygrid crisp" transform="translate(0,25.29)" d="M34,0h106" style="stroke: rgb(0, 0, 0); stroke-opacity: 1; stroke-width: 0.5px;"/></g></g><g class="zerolinelayer"><path class="xzl zl crisp" transform="translate(34,0)" d="M0,10v107" style="stroke: rgb(0, 0, 0); stroke-opacity: 1; stroke-width: 0.5px;"/><path class="yzl zl crisp" transform="translate(0,117)" d="M34,0h106" style="stroke: rgb(0, 0, 0); stroke-opacity: 1; stroke-width: 0.5px;"/></g><g class="layer-between"><g class="shapelayer"/><g class="imagelayer"/></g><path class="xlines-below"/><path class="ylines-below"/><g class="overlines-below"/><g class="xaxislayer-below"/><g class="yaxislayer-below"/><g class="overaxes-below"/><g class="overplot"><g class="xy" transform="translate(34,10)" clip-path="url(#clipa54a71xyplot)"><g class="scatterlayer mlayer"><g class="trace scatter tracee7cdb8" style="stroke-miterlimit: 2; opacity: 1;"><g class="fills"/><g class="errorbars"/><g class="lines"><path class="js-line" d="M0.44,100.58L2.41,100.27L2.9,99.36L5.35,92.33L5.84,91.71L8.79,82.54L9.28,81.01L10.75,74.59L11.24,72.45L15.66,57.47L16.15,58.39L19.1,63.89L19.59,63.28L23.03,53.5L23.52,45.55L24.5,37.91L24.99,37.6L25.48,37.3L25.97,38.21L27.94,39.74L28.43,40.05L28.92,40.35L29.41,39.13L32.85,35.46L33.34,35.46L33.83,35.77L34.32,34.55L36.28,33.93L36.77,33.32L37.76,32.1L38.25,32.41L38.74,32.1L39.23,30.88L41.68,29.65L42.18,29.96L42.67,29.35L43.16,29.96L44.14,28.43L44.63,28.74L45.61,28.43L46.1,26.29L46.59,27.51L47.08,26.6L49.05,25.07L49.54,25.68L51.01,24.46L51.5,24.76L52.49,23.85L52.98,23.85L53.96,23.23L54.45,23.23L55.92,22.62L56.41,23.54L57.39,21.71L57.89,21.71L58.38,22.62L58.87,22.32L59.36,22.01L59.85,21.4L60.34,22.01L61.32,21.09L61.81,21.71L64.27,19.57L64.76,19.26L65.25,19.57L65.74,20.79L66.23,19.87L66.72,20.18L67.21,20.18L67.71,19.87L68.2,20.48L68.69,19.26L69.18,19.57L69.67,19.57L70.16,19.26L70.65,17.73L71.63,18.65L72.12,18.34L73.11,18.65L73.6,18.34L74.58,18.34L75.07,18.95L76.54,18.04L77.03,18.95L77.52,18.34L78.02,19.87L79,18.04L79.49,17.43L79.98,16.81L80.47,18.65L81.94,17.12L82.43,18.04L83.91,17.43L84.4,17.73L86.36,17.43L86.85,16.51L87.83,16.81L88.33,16.2L88.82,15.9L89.31,17.43L90.78,16.51L91.27,16.51L91.76,17.43L92.25,17.12L92.74,15.9L94.22,17.43L94.71,16.2L95.2,16.51L95.69,14.67L97.16,15.9L97.65,14.67L99.13,15.59L99.62,15.59L100.6,14.37L101.09,15.29L101.58,14.06L102.07,14.67L102.56,15.29L103.05,12.84L103.55,14.67L104.04,13.76L104.53,14.06L105.02,14.37L106,14.98" style="vector-effect: none; fill: none; stroke: rgb(117, 112, 179); stroke-opacity: 1; stroke-width: 1px; opacity: 1;"/></g><g class="points"/><g class="text"/></g><g class="trace scatter traceae27f3" style="stroke-miterlimit: 2; opacity: 1;"><g class="fills"/><g class="errorbars"/><g class="lines"><path class="js-line" d="M0.44,99.36L1.43,99.36L1.92,98.44L2.41,98.75L2.9,97.83L4.86,91.71L5.35,90.8L6.34,88.96L6.83,87.74L9.28,79.79L9.77,78.26L11.74,70.31L12.23,67.87L14.68,59.92L15.17,58.39L17.14,54.42L17.63,53.81L18.61,54.42L19.1,52.89L20.08,49.83L20.57,48L21.06,46.16L21.55,46.47L22.05,45.55L22.54,40.97L23.03,41.27L23.52,40.35L24.5,37.3L24.99,38.83L26.46,40.05L26.96,39.74L27.94,39.44L28.43,40.05L29.9,38.52L30.39,37.6L30.88,37.91L31.37,37.3L32.36,36.69L32.85,36.07L33.34,35.77L33.83,36.38L34.32,34.85L34.81,35.16L35.3,34.55L36.77,34.24L37.27,33.63L38.74,32.41L39.23,31.18L40.7,30.57L41.19,30.27L43.16,30.27L43.65,29.04L45.61,28.43L46.1,26.29L46.59,27.21L47.08,26.29L47.58,26.29L48.07,25.37L50.03,24.76L50.52,24.46L54.45,22.32L54.94,22.32L55.92,21.71L56.41,22.32L57.39,20.48L57.89,20.48L58.38,21.4L58.87,21.09L59.36,20.48L60.83,20.48L61.32,19.87L62.8,19.26L63.29,18.95L64.76,17.73L65.25,18.04L65.74,18.65L66.23,17.73L67.71,18.04L68.2,18.04L69.18,16.81L69.67,17.12L70.16,17.12L70.65,15.59L72.61,16.2L73.11,15.9L74.58,16.2L75.07,16.81L76.54,15.59L77.03,17.12L77.52,16.51L78.02,17.73L79,16.2L79.49,15.9L79.98,14.98L80.47,16.51L80.96,15.9L81.45,16.81L81.94,15.59L82.43,16.2L82.92,16.2L83.91,15.29L84.4,15.59L85.87,15.59L86.36,14.37L87.34,14.98L87.83,14.67L88.82,14.06L89.31,14.37L90.29,14.06L90.78,14.67L91.27,13.45L91.76,14.06L92.25,14.67L92.74,11.92L93.24,13.15L93.73,13.76L94.22,14.06L94.71,13.15L95.2,14.06L95.69,12.84L96.18,13.76L96.67,12.84L97.16,14.37L97.65,13.15L98.14,13.76L98.64,12.84L99.62,13.15L100.11,12.53L101.09,13.15L101.58,12.23L102.07,12.53L102.56,13.76L103.05,12.23L103.55,13.45L105.02,12.23L105.51,12.53L106,12.84" style="vector-effect: none; fill: none; stroke: rgb(117, 112, 179); stroke-opacity: 1; stroke-width: 1px; opacity: 1;"/></g><g class="points"/><g class="text"/></g><g class="trace scatter trace8dae1a" style="stroke-miterlimit: 2; opacity: 1;"><g class="fills"/><g class="errorbars"/><g class="lines"><path class="js-line" d="M0.44,99.36L1.43,99.05L1.92,98.44L2.41,98.13L2.9,96.91L3.88,93.24L4.37,93.55L5.84,92.33L6.34,90.19L6.83,89.88L7.32,87.74L11.74,68.79L12.23,66.34L15.66,56.25L16.15,55.64L20.08,47.08L20.57,45.86L24.01,34.85L24.5,35.16L25.97,37.91L26.46,38.52L27.94,39.13L28.43,39.74L29.9,38.52L30.39,37.3L30.88,37.6L31.37,36.69L31.86,36.99L32.36,36.07L33.83,35.46L34.32,34.24L34.81,34.24L35.3,33.32L38.25,31.49L38.74,29.96L40.21,28.74L40.7,28.74L42.18,28.13L42.67,26.9L43.16,28.13L43.65,26.29L44.63,26.9L45.12,25.68L45.61,25.37L46.1,23.85L47.08,24.15L47.58,23.54L48.07,22.32L48.56,22.93L49.05,22.01L49.54,22.62L50.03,22.01L50.52,22.32L51.01,21.4L51.5,21.4L51.99,20.48L52.49,20.79L52.98,20.18L53.96,19.87L54.45,20.18L55.92,18.95L56.41,19.57L57.39,18.34L57.89,18.04L58.38,18.95L58.87,17.73L59.85,17.43L60.34,17.73L61.81,17.12L62.3,16.81L62.8,16.2L63.29,16.81L64.76,14.98L65.25,15.59L65.74,16.51L66.23,15.29L66.72,15.59L67.21,14.98L68.2,15.29L68.69,14.37L69.67,14.67L70.16,14.37L70.65,12.84L71.14,13.76L71.63,14.06L73.6,13.15L74.09,13.45L75.56,14.06L76.05,12.84L77.03,13.15L77.52,13.15L78.02,14.06L78.51,12.53L79,13.45L79.49,13.15L79.98,11.62L80.47,13.76L80.96,13.15L81.45,13.45L82.43,12.23L82.92,12.53L83.91,12.23L84.4,11.92L85.38,12.53L85.87,11.92L86.36,12.53L86.85,11.31L87.34,12.53L87.83,11.92L88.33,11.01L88.82,11.01L89.31,12.23L89.8,11.62L90.29,12.53L91.27,11.31L91.76,12.23L92.74,10.7L93.24,11.92L95.69,10.09L96.18,11.31L97.16,11.62L97.65,10.09L98.64,11.31L99.13,10.7L100.11,10.09L100.6,10.09L101.09,11.62L101.58,8.87L102.56,10.09L103.05,8.56L104.04,9.48L104.53,9.17L105.51,8.25L106,9.17" style="vector-effect: none; fill: none; stroke: rgb(117, 112, 179); stroke-opacity: 1; stroke-width: 1px; opacity: 1;"/></g><g class="points"/><g class="text"/></g><g class="trace scatter trace7adf6c" style="stroke-miterlimit: 2; opacity: 1;"><g class="fills"/><g class="errorbars"/><g class="lines"><path class="js-line" d="M0.44,97.22L3.39,91.41L3.88,89.27L5.35,83.46L5.84,81.93L7.81,76.12L8.3,74.9L12.72,62.98L13.21,62.67L15.66,57.17L16.15,57.47L16.65,56.86L17.14,57.78L17.63,58.09L18.12,57.17L20.57,55.64L21.06,54.42L21.55,53.81L22.05,54.42L22.54,54.11L23.03,54.72L24.5,50.75L24.99,50.14L25.48,50.14L25.97,46.47L27.94,38.83L28.43,39.13L28.92,41.27L30.39,32.71L30.88,33.02L32.85,26.9L33.34,25.99L33.83,26.29L34.32,24.46L34.81,22.32L35.3,24.15L36.28,18.95L36.77,19.87L37.27,17.43L37.76,19.26L38.25,21.4L38.74,20.48L39.23,18.65L39.72,18.34L40.21,15.59L40.7,15.9L41.19,15.29L41.68,13.15L42.18,16.81L43.16,21.09L43.65,15.29L44.14,14.98L44.63,16.2L46.1,9.78L46.59,10.39L47.08,9.48L47.58,8.87L48.07,5.81L48.56,7.34L49.05,5.5L50.03,4.28L50.52,5.81L51.01,5.2L51.5,6.11L51.99,5.5L52.49,7.95L53.47,3.97L53.96,4.59L54.45,5.2L54.94,3.67L55.43,3.97L55.92,4.28L56.41,5.81L56.9,3.06L57.39,2.45L57.89,3.06L58.38,5.5L58.87,4.89L59.36,5.2L59.85,4.89L60.34,5.5L60.83,4.59L61.32,5.2L61.81,5.5L62.3,5.2L62.8,2.45L63.29,3.67L63.78,2.14L64.27,3.36L64.76,2.14L65.74,5.5L66.23,4.59L66.72,5.5L67.71,3.97L68.2,3.97L68.69,3.67L69.18,5.5L70.65,3.06L71.14,4.28L73.11,5.2L73.6,4.28L74.09,3.97L74.58,5.5L75.56,7.03L76.05,4.59L76.54,6.42L77.03,5.81L77.52,6.11L78.02,7.95L78.51,5.5L79,7.03L79.49,6.73L79.98,3.97L80.96,7.34L81.45,7.03L83.42,5.2L83.91,6.42L84.4,5.81L84.89,7.03L85.38,7.03L85.87,6.11L86.36,7.64L86.85,5.5L87.83,6.73L88.33,5.81L88.82,5.2L89.31,7.03L90.29,7.64L90.78,5.5L91.27,4.59L91.76,6.42L92.74,4.28L93.24,6.73L93.73,7.03L94.22,6.42L94.71,6.73L95.2,6.11L95.69,4.89L96.18,6.11L97.16,6.42L97.65,4.28L99.13,7.03L99.62,5.5L100.6,4.89L101.09,7.03L101.58,4.28L102.07,5.81L103.05,3.97L103.55,5.5L105.02,5.81L105.51,4.89L106,6.11" style="vector-effect: none; fill: none; stroke: rgb(217, 95, 2); stroke-opacity: 1; stroke-width: 1px; opacity: 1;"/></g><g class="points"/><g class="text"/></g><g class="trace scatter trace25e33a" style="stroke-miterlimit: 2; opacity: 1;"><g class="fills"/><g class="errorbars"/><g class="lines"><path class="js-line" d="M0.44,97.52L2.9,93.24L3.39,91.1L5.35,84.68L5.84,83.77L7.81,80.4L8.3,79.79L9.77,77.35L10.26,77.04L14.68,68.48L15.17,68.79L15.66,68.17L17.14,65.42L17.63,66.03L18.61,64.51L19.1,62.98L19.59,62.67L20.08,60.84L21.06,60.23L21.55,58.7L22.05,59L22.54,58.39L24.01,55.64L24.5,55.03L24.99,55.03L25.48,55.95L26.96,54.11L27.45,52.28L28.92,48.61L29.41,44.63L29.9,44.33L30.39,43.11L32.85,31.79L33.34,31.18L33.83,30.88L34.32,28.43L35.3,29.04L35.79,27.82L36.77,26.29L37.27,24.46L37.76,24.15L38.25,25.37L38.74,25.68L39.23,21.4L39.72,22.01L40.21,20.18L41.19,19.26L41.68,18.34L42.18,18.34L42.67,11.92L43.16,25.07L43.65,24.46L44.14,22.32L45.61,20.18L46.1,17.43L46.59,17.73L47.08,17.12L50.03,12.23L50.52,11.92L51.99,11.31L52.49,12.23L53.96,10.39L54.45,11.01L55.43,10.09L55.92,10.7L56.41,11.31L56.9,10.09L57.89,9.78L58.38,10.7L59.85,10.39L60.34,11.31L62.8,10.39L63.29,10.39L64.76,8.87L65.25,9.48L65.74,10.09L66.23,9.48L67.71,9.78L68.2,9.78L68.69,8.56L69.18,8.87L69.67,9.48L70.16,9.48L70.65,7.95L73.11,9.17L73.6,8.56L75.56,9.48L76.05,8.87L77.52,9.48L78.02,11.01L79,9.78L79.49,9.48L79.98,8.25L80.47,10.09L80.96,9.78L81.45,10.7L81.94,9.78L82.43,10.39L82.92,10.39L83.91,9.78L84.4,9.78L85.38,10.39L85.87,10.09L88.33,9.48L88.82,8.56L90.29,10.39L90.78,9.48L91.27,9.48L91.76,10.39L92.25,10.39L92.74,8.87L94.22,11.01L94.71,9.78L95.69,10.09L96.18,10.39L96.67,10.39L97.16,11.31L97.65,10.09L98.14,10.39L98.64,10.39L99.62,10.7L100.11,10.39L100.6,10.09L101.09,11.31L102.07,10.39L102.56,11.01L103.05,10.09L103.55,11.31L104.53,11.01L105.02,10.7L106,11.31" style="vector-effect: none; fill: none; stroke: rgb(217, 95, 2); stroke-opacity: 1; stroke-width: 1px; opacity: 1;"/></g><g class="points"/><g class="text"/></g><g class="trace scatter traced949e0" style="stroke-miterlimit: 2; opacity: 1;"><g class="fills"/><g class="errorbars"/><g class="lines"><path class="js-line" d="M0.44,97.52L2.9,92.33L3.39,89.57L5.35,81.93L5.84,80.71L7.32,77.04L7.81,76.43L9.77,73.68L10.26,73.37L12.72,68.79L13.21,68.79L14.19,67.56L14.68,66.95L16.15,65.73L16.65,64.2L17.14,64.51L17.63,63.59L18.12,63.59L18.61,62.67L20.57,59.61L21.06,58.7L23.52,55.33L24.01,55.33L24.5,54.11L24.99,56.25L25.97,54.42L26.46,53.81L26.96,53.5L27.45,50.44L28.92,48L29.41,44.02L30.39,41.27L30.88,37.91L32.85,31.18L33.34,30.27L33.83,30.57L34.32,28.13L35.3,29.65L35.79,28.43L36.77,27.21L37.27,25.37L38.74,26.6L39.23,22.93L39.72,23.54L40.21,22.01L42.18,20.18L42.67,13.76L43.16,15.29L43.65,22.01L44.14,25.99L44.63,24.15L45.12,23.23L48.07,13.76L48.56,13.45L50.52,10.39L51.01,9.78L51.5,10.09L51.99,9.17L52.49,9.78L52.98,8.87L53.96,7.03L54.45,7.34L55.92,6.42L56.41,7.64L57.39,5.81L57.89,6.42L58.87,7.64L59.36,7.95L62.3,7.95L62.8,7.34L63.29,7.95L63.78,7.34L64.76,6.73L65.25,7.64L65.74,8.87L66.23,8.25L66.72,8.87L68.2,8.87L68.69,7.64L70.16,8.56L70.65,7.03L72.61,8.87L73.11,8.87L74.58,8.56L75.07,9.48L75.56,9.48L76.05,8.25L78.02,11.01L78.51,9.48L79.49,9.48L79.98,8.25L80.47,10.39L80.96,10.09L81.45,10.7L82.43,9.78L82.92,10.09L83.42,9.17L83.91,9.48L84.4,9.78L85.38,10.09L85.87,9.78L87.34,9.48L87.83,9.78L88.82,8.56L89.31,9.78L90.29,10.09L90.78,9.17L91.27,8.87L91.76,9.78L92.25,9.78L92.74,8.25L94.22,10.09L94.71,9.17L95.2,9.78L95.69,9.17L97.16,10.39L97.65,9.48L99.62,10.09L100.11,9.48L100.6,9.48L101.09,10.39L102.07,9.48L102.56,10.09L103.05,9.17L103.55,10.09L105.02,9.78L105.51,9.78L106,10.39" style="vector-effect: none; fill: none; stroke: rgb(217, 95, 2); stroke-opacity: 1; stroke-width: 1px; opacity: 1;"/></g><g class="points"/><g class="text"/></g><g class="trace scatter trace2c2310" style="stroke-miterlimit: 2; opacity: 1;"><g class="fills"/><g class="errorbars"/><g class="lines"><path class="js-line" d="M0.44,101.8L2.41,101.19L2.9,101.19L20.08,101.5L20.57,101.8L31.86,102.11L32.36,102.41L34.32,101.8L34.81,102.11L36.28,102.41L36.77,102.41L53.47,103.03L53.96,103.33L54.94,103.33L55.43,103.33L75.07,103.64L75.56,103.94L76.54,103.94L77.03,103.94L78.02,103.64L78.51,103.94L106,103.64" style="vector-effect: none; fill: none; stroke: rgb(217, 95, 2); stroke-opacity: 1; stroke-dasharray: 9px, 9px; stroke-width: 1px; opacity: 1;"/></g><g class="points"/><g class="text"/></g><g class="trace scatter traced88e5d" style="stroke-miterlimit: 2; opacity: 1;"><g class="fills"/><g class="errorbars"/><g class="lines"><path class="js-line" d="M0.44,102.11L41.68,102.11L42.18,102.41L58.38,103.03L58.87,103.33L79.98,103.94L80.47,104.25L80.96,103.33L81.45,103.94L81.94,103.94L106,104.25" style="vector-effect: none; fill: none; stroke: rgb(217, 95, 2); stroke-opacity: 1; stroke-dasharray: 9px, 9px; stroke-width: 1px; opacity: 1;"/></g><g class="points"/><g class="text"/></g><g class="trace scatter trace334755" style="stroke-miterlimit: 2; opacity: 1;"><g class="fills"/><g class="errorbars"/><g class="lines"><path class="js-line" d="M0.44,102.41L2.41,101.8L2.9,101.8L27.94,102.11L28.43,102.41L42.18,103.03L42.67,103.33L59.36,103.94L59.85,104.25L87.83,103.94L88.33,103.64L97.65,103.33L98.14,103.03L99.62,103.33L100.11,103.33L106,103.03" style="vector-effect: none; fill: none; stroke: rgb(217, 95, 2); stroke-opacity: 1; stroke-dasharray: 9px, 9px; stroke-width: 1px; opacity: 1;"/></g><g class="points"/><g class="text"/></g><g class="trace scatter trace94338d" style="stroke-miterlimit: 2; opacity: 1;"><g class="fills"/><g class="errorbars"/><g class="lines"><path class="js-line" d="M0.44,99.36L0.93,99.66L1.43,98.13L2.9,95.08L3.39,94.77L4.37,94.47L4.86,93.85L5.35,93.55L5.84,92.33L7.32,90.49L7.81,89.88L8.3,89.88L8.79,88.96L11.24,86.82L11.74,86.21L16.65,83.77L17.14,82.54L18.61,80.4L19.1,80.71L19.59,77.96L20.08,79.49L22.05,74.59L22.54,75.21L28.92,53.19L29.41,48.3L31.37,42.49L31.86,37.91L33.34,32.41L33.83,29.96L34.81,26.29L35.3,26.29L35.79,21.09L36.28,21.4L36.77,20.79L37.76,18.04L38.25,19.26L39.23,14.98L39.72,15.29L40.21,15.59L40.7,15.29L41.19,11.92L41.68,13.15L42.18,12.23L42.67,11.92L43.16,10.7L44.63,7.03L45.12,15.9L45.61,21.4L46.1,19.57L46.59,17.12L47.08,18.04L47.58,16.81L49.54,11.01L50.03,12.23L50.52,11.92L51.01,10.39L51.99,10.09L52.49,11.01L52.98,8.56L53.47,8.87L53.96,8.87L54.94,7.03L55.43,8.25L55.92,6.73L56.41,7.03L56.9,9.17L58.38,5.81L58.87,6.73L60.34,6.42L60.83,7.34L61.32,6.11L61.81,6.73L62.3,6.42L62.8,7.03L63.29,6.11L63.78,6.11L64.27,7.03L65.25,6.11L65.74,7.03L66.23,6.73L66.72,7.64L68.69,6.73L69.18,7.95L73.11,7.64L73.6,8.25L74.58,7.64L75.07,7.95L76.05,8.25L76.54,8.56L77.52,6.73L78.02,8.56L79,7.34L79.49,8.25L79.98,7.03L80.47,7.95L80.96,8.25L81.45,7.64L81.94,7.03L82.43,8.25L83.91,7.64L84.4,8.25L86.36,7.34L86.85,7.95L87.34,8.25L87.83,7.34L89.31,7.03L89.8,8.25L90.78,7.64L91.27,7.64L95.69,7.95L96.18,8.87L98.14,6.73L98.64,6.42L100.11,8.56L100.6,7.95L101.09,7.34L101.58,7.95L102.56,7.64L103.05,8.25L103.55,7.34L104.04,7.64L104.53,7.64L106,7.34" style="vector-effect: none; fill: none; stroke: rgb(217, 95, 2); stroke-opacity: 1; stroke-dasharray: 3px, 3px; stroke-width: 1px; opacity: 1;"/></g><g class="points"/><g class="text"/></g><g class="trace scatter tracec3d118" style="stroke-miterlimit: 2; opacity: 1;"><g class="fills"/><g class="errorbars"/><g class="lines"><path class="js-line" d="M0.44,98.44L5.35,95.38L5.84,94.47L7.32,92.33L7.81,91.71L11.24,89.27L11.74,88.35L13.7,86.82L14.19,85.91L17.14,83.77L17.63,82.54L19.1,81.63L19.59,80.4L20.08,81.01L20.57,80.4L22.54,77.96L23.03,76.43L23.52,75.82L24.01,72.76L25.97,66.03L26.46,65.12L28.43,55.64L28.92,54.72L33.83,32.1L34.32,29.96L35.3,29.65L35.79,24.46L36.28,24.76L36.77,24.15L38.74,21.09L39.23,18.95L39.72,18.65L40.21,19.26L40.7,18.65L41.19,15.9L42.18,16.2L42.67,15.9L44.14,12.53L44.63,11.31L45.12,9.48L45.61,21.71L46.1,22.62L46.59,21.09L47.58,20.79L48.07,19.26L49.54,16.51L50.03,16.81L50.52,16.51L51.01,14.37L51.5,14.98L51.99,14.67L52.49,14.37L52.98,13.15L53.96,12.53L54.45,11.31L55.43,11.62L55.92,10.7L56.41,10.09L56.9,11.62L58.38,9.48L58.87,10.39L59.36,10.7L59.85,9.78L60.83,10.09L61.32,8.87L62.8,10.39L63.29,9.78L63.78,9.17L64.27,10.09L66.23,10.39L66.72,10.7L68.69,10.39L69.18,11.31L70.16,11.31L70.65,11.01L71.63,10.7L72.12,11.31L73.11,11.31L73.6,11.62L77.03,11.62L77.52,10.7L78.51,12.23L79,11.31L79.49,11.92L79.98,11.31L82.43,12.23L82.92,12.23L91.76,12.84L92.25,13.15L98.64,12.53L99.13,13.45L99.62,13.15L100.11,13.76L101.09,12.84L101.58,13.45L105.51,13.15L106,12.53" style="vector-effect: none; fill: none; stroke: rgb(217, 95, 2); stroke-opacity: 1; stroke-dasharray: 3px, 3px; stroke-width: 1px; opacity: 1;"/></g><g class="points"/><g class="text"/></g><g class="trace scatter trace645df1" style="stroke-miterlimit: 2; opacity: 1;"><g class="fills"/><g class="errorbars"/><g class="lines"><path class="js-line" d="M0.44,100.27L3.39,97.22L3.88,96.91L5.35,95.38L5.84,94.47L6.83,92.63L7.32,92.02L10.26,88.05L10.75,87.74L13.21,84.68L13.7,84.38L15.66,82.24L16.15,81.63L20.57,76.12L21.06,73.98L25.48,66.03L25.97,63.89L27.94,53.81L28.43,50.44L29.9,44.33L30.39,36.69L30.88,37.91L31.37,35.16L32.85,28.43L33.34,27.82L34.81,22.93L35.3,23.23L35.79,18.65L36.28,18.95L36.77,18.04L37.27,17.73L37.76,16.2L38.25,16.51L38.74,15.29L39.72,13.45L40.21,13.76L40.7,13.15L41.19,10.7L42.67,11.01L43.16,9.17L44.63,6.42L45.12,3.97L45.61,6.73L46.1,17.43L47.08,18.65L47.58,18.04L50.03,14.37L50.52,14.37L51.5,12.53L51.99,12.23L52.49,12.53L52.98,10.7L53.96,10.7L54.45,8.87L55.43,9.48L55.92,8.25L56.41,7.95L56.9,8.87L58.38,7.34L58.87,7.64L59.36,8.25L59.85,7.64L60.83,7.95L61.32,6.42L61.81,6.73L62.3,7.95L62.8,8.25L63.29,7.64L63.78,7.34L64.27,8.25L65.25,7.64L65.74,8.25L67.71,8.87L68.2,8.56L68.69,8.56L69.18,9.78L71.63,8.87L72.12,9.48L73.11,9.17L73.6,9.78L74.58,9.17L75.07,9.78L76.54,10.39L77.03,10.09L77.52,8.87L78.02,10.09L79.49,10.39L79.98,10.09L81.94,10.7L82.43,10.7L83.42,10.7L83.91,10.7L84.89,10.7L85.38,10.7L89.31,11.01L89.8,11.62L90.78,11.31L91.27,11.62L97.16,11.62L97.65,11.31L98.64,11.31L99.13,12.53L101.09,11.92L101.58,12.53L102.56,11.92L103.05,12.53L104.53,12.23L105.02,12.23L106,11.31" style="vector-effect: none; fill: none; stroke: rgb(217, 95, 2); stroke-opacity: 1; stroke-dasharray: 3px, 3px; stroke-width: 1px; opacity: 1;"/></g><g class="points"/><g class="text"/></g></g></g></g><path class="xlines-above crisp" d="M0,0" style="fill: none;"/><path class="ylines-above crisp" d="M0,0" style="fill: none;"/><g class="overlines-above"/><g class="xaxislayer-above"><g class="xtick"><text text-anchor="middle" x="0" y="129" transform="translate(34,0)" style="font-family: 'Open Sans', verdana, arial, sans-serif; font-size: 11px; fill: rgb(0, 0, 0); fill-opacity: 1; white-space: pre; opacity: 1;">0</text></g><g class="xtick"><text text-anchor="middle" x="0" y="129" style="font-family: 'Open Sans', verdana, arial, sans-serif; font-size: 11px; fill: rgb(0, 0, 0); fill-opacity: 1; white-space: pre; opacity: 1;" transform="translate(69.35,0)">12</text></g><g class="xtick"><text text-anchor="middle" x="0" y="129" style="font-family: 'Open Sans', verdana, arial, sans-serif; font-size: 11px; fill: rgb(0, 0, 0); fill-opacity: 1; white-space: pre; opacity: 1;" transform="translate(104.7,0)">24</text></g></g><g class="yaxislayer-above"><g class="ytick"><text text-anchor="end" x="33" y="3.8499999999999996" transform="translate(0,117)" style="font-family: 'Open Sans', verdana, arial, sans-serif; font-size: 11px; fill: rgb(0, 0, 0); fill-opacity: 1; white-space: pre; opacity: 1;">0</text></g><g class="ytick"><text text-anchor="end" x="33" y="3.8499999999999996" style="font-family: 'Open Sans', verdana, arial, sans-serif; font-size: 11px; fill: rgb(0, 0, 0); fill-opacity: 1; white-space: pre; opacity: 1;" transform="translate(0,86.43)">0.1</text></g><g class="ytick"><text text-anchor="end" x="33" y="3.8499999999999996" style="font-family: 'Open Sans', verdana, arial, sans-serif; font-size: 11px; fill: rgb(0, 0, 0); fill-opacity: 1; white-space: pre; opacity: 1;" transform="translate(0,55.86)">0.2</text></g><g class="ytick"><text text-anchor="end" x="33" y="3.8499999999999996" style="font-family: 'Open Sans', verdana, arial, sans-serif; font-size: 11px; fill: rgb(0, 0, 0); fill-opacity: 1; white-space: pre; opacity: 1;" transform="translate(0,25.29)">0.3</text></g></g><g class="overaxes-above"/></g></g><g class="polarlayer"/><g class="smithlayer"/><g class="ternarylayer"/><g class="geolayer"/><g class="funnelarealayer"/><g class="pielayer"/><g class="iciclelayer"/><g class="treemaplayer"/><g class="sunburstlayer"/><g class="glimages"/><defs id="topdefs-a54a71"><g class="clips"/></defs><g class="layer-above"><g class="imagelayer"/><g class="shapelayer"/></g><g class="infolayer"><g class="g-gtitle"/><g class="g-xtitle" transform="translate(0,4.800000000000011)"><text class="xtitle" x="87" y="139.2" text-anchor="middle" style="opacity: 1; font-family: 'Open Sans', verdana, arial, sans-serif; font-size: 11px; fill: rgb(0, 0, 0); fill-opacity: 1; white-space: pre;">Time [h]</text></g><g class="g-ytitle"><text class="ytitle" transform="rotate(-90,14.134374999999999,63.5)" x="14.134374999999999" y="63.5" text-anchor="middle" style="opacity: 1; font-family: 'Open Sans', verdana, arial, sans-serif; font-size: 11px; fill: rgb(0, 0, 0); fill-opacity: 1; white-space: pre;">OD</text></g></g></svg>