<svg class="main-svg" xmlns="http://www.w3.org/2000/svg" xmlns:xlink="http://www.w3.org/1999/xlink" width="110" height="110" style="" viewBox="0 0 110 110"><rect x="0" y="0" width="110" height="110" style="fill: rgb(255, 255, 255); fill-opacity: 1;"/><defs id="defs-a702bc"><g class="clips"><clipPath id="clipa702bcxyplot" class="plotclip"><rect width="72" height="73"/></clipPath><clipPath class="axesclip" id="clipa702bcx"><rect x="28" y="0" width="72" height="110"/></clipPath><clipPath class="axesclip" id="clipa702bcy"><rect x="0" y="10" width="110" height="73"/></clipPath><clipPath class="axesclip" id="clipa702bcxy"><rect x="28" y="10" width="72" height="73"/></clipPath></g><g class="gradients"/><g class="patterns"/></defs><g class="bglayer"/><g class="layer-below"><g class="imagelayer"/><g class="shapelayer"/></g><g class="cartesianlayer"><g class="subplot xy"><g class="layer-subplot"><g class="shapelayer"/><g class="imagelayer"/></g><g class="minor-gridlayer"><g class="x"/><g class="y"/></g><g class="gridlayer"><g class="x"/><g class="y"/></g><g class="zerolinelayer"><path class="xzl zl crisp" transform="translate(28,0)" d="M0,10v73" style="stroke: rgb(0, 0, 0); stroke-opacity: 1; stroke-width: 0.5px;"/><path class="yzl zl crisp" transform="translate(0,83)" d="M28,0h72" style="stroke: rgb(0, 0, 0); stroke-opacity: 1; stroke-width: 0.5px;"/></g><g class="layer-between"><g class="shapelayer"/><g class="imagelayer"/></g><path class="xlines-below"/><path class="ylines-below"/><g class="overlines-below"/><g class="xaxislayer-below"/><g class="yaxislayer-below"/><g class="overaxes-below"/><g class="overplot"><g class="xy" transform="translate(28,10)" clip-path="url(#clipa702bcxyplot)"><g class="scatterlayer mlayer"><g class="trace scatter trace42ec49" style="stroke-miterlimit: 2; opacity: 1;"><g class="fills"/><g class="errorbars"/><g class="lines"><path class="js-line" d="M0.3,68.62L1.64,68.41L1.97,67.79L4.97,59.86L5.3,59.03L7.64,49.43L7.97,48.18L9.97,40.67L10.31,40.05L10.64,39.21L10.97,39.84L11.31,40.46L12.97,43.59L13.31,43.17L15.64,36.5L15.97,31.08L16.98,25.65L17.31,25.45L18.98,27.11L19.31,27.32L19.64,27.53L19.98,26.7L22.64,24.19L22.98,24.4L23.98,23.36L24.31,23.15L24.98,22.73L25.31,22.11L28.98,20.02L29.31,20.44L29.98,19.4L30.31,19.61L30.65,19.61L30.98,19.4L31.32,17.94L31.65,18.77L31.98,18.15L32.32,17.94L33.32,17.1L33.65,17.52L35.32,16.27L35.65,16.27L37.32,15.64L37.65,15.43L38.32,16.06L38.65,15.02L39.32,14.81L39.65,15.43L41.65,14.39L41.99,14.81L43.99,13.14L44.32,13.35L44.65,14.18L44.99,13.56L45.32,13.77L46.32,13.97L46.66,13.14L47.66,13.14L47.99,12.1L49.32,12.72L49.66,12.72L50.66,12.51L50.99,12.93L51.99,12.31L52.32,12.93L52.66,12.51L52.99,13.56L53.99,11.89L54.33,11.47L54.66,12.72L55.33,12.51L55.66,11.68L55.99,12.31L56.33,12.1L56.66,11.89L58.66,11.89L58.99,11.26L59.99,11.05L60.33,10.85L61.33,11.68L61.66,11.26L62.66,11.68L63,10.85L64,11.89L64.33,11.05L64.66,11.26L65,10.01L66,10.85L66.33,10.01L67.66,10.64L68,10.22L69,9.59L69.33,10.01L69.67,10.43L70,8.76L70.33,10.01L70.67,9.39L71,9.59L72,10.22" style="vector-effect: none; fill: none; stroke: rgb(117, 112, 179); stroke-opacity: 1; stroke-width: 0.8px; opacity: 1;"/></g><g class="points"/><g class="text"/></g><g class="trace scatter tracea314e4" style="stroke-miterlimit: 2; opacity: 1;"><g class="fills"/><g class="errorbars"/><g class="lines"><path class="js-line" d="M0.3,67.79L0.97,67.79L1.3,67.16L1.64,67.37L1.97,66.74L2.3,65.28L3.64,61.95L3.97,61.53L6.97,52.35L7.3,50.47L11.31,37.75L11.64,37.13L12.31,36.71L12.64,37.13L16.64,25.45L16.98,26.49L18.31,27.11L18.64,26.91L19.64,27.11L19.98,26.49L26.31,22.11L26.65,21.27L28.65,20.65L28.98,20.44L29.31,20.65L29.65,19.81L30.98,19.4L31.32,17.94L31.65,18.56L31.98,17.94L32.32,17.94L33.32,17.1L33.65,17.31L35.65,15.64L35.98,15.85L37.65,14.81L37.98,14.81L38.32,15.23L38.65,13.97L41.32,13.97L41.65,13.56L42.99,12.93L43.32,12.51L44.32,12.31L44.65,12.72L45.65,12.1L45.99,12.31L46.32,12.31L46.66,11.47L47.66,11.68L47.99,10.64L49.66,10.85L49.99,10.85L51.32,11.26L51.66,10.64L51.99,10.64L52.32,11.68L52.66,11.26L52.99,12.1L54.33,10.22L54.66,11.26L55.66,10.64L55.99,11.05L58.33,10.64L58.66,9.8L59.66,10.01L59.99,9.59L61.66,10.01L62,9.18L62.66,10.01L63,8.13L64,9.59L64.33,8.97L65.33,9.39L65.66,8.76L66,9.8L66.33,8.97L66.66,9.39L67.66,8.97L68,8.55L69.67,9.39L70,8.34L71,8.97L71.33,8.34L72,8.76" style="vector-effect: none; fill: none; stroke: rgb(117, 112, 179); stroke-opacity: 1; stroke-width: 0.8px; opacity: 1;"/></g><g class="points"/><g class="text"/></g><g class="trace scatter trace4d8208" style="stroke-miterlimit: 2; opacity: 1;"><g class="fills"/><g class="errorbars"/><g class="lines"><path class="js-line" d="M0.3,67.79L1.3,67.16L1.64,66.95L3.3,63.41L3.64,63.41L4.64,61.32L4.97,59.86L10.97,37.96L11.31,37.33L14.97,27.74L15.31,27.32L16.31,23.78L16.64,23.99L17.98,26.28L18.31,26.28L19.64,26.91L19.98,26.49L22.98,24.19L23.31,23.36L23.98,22.73L24.31,22.53L24.98,22.11L25.31,21.69L26.31,20.44L26.65,20.02L27.98,19.4L28.31,19.19L28.65,19.19L28.98,18.35L29.31,19.19L29.65,17.94L30.31,18.35L30.65,17.52L32.32,16.06L32.65,15.23L33.65,15.43L33.98,15.02L34.32,15.23L34.65,14.6L34.98,14.6L36.32,13.35L36.65,13.56L36.98,13.77L37.32,13.14L37.65,12.93L38.32,13.35L38.65,12.51L39.65,12.93L39.99,12.1L42.65,11.05L42.99,11.47L43.99,10.22L44.32,10.64L44.65,11.26L44.99,10.43L45.32,10.64L46.66,9.8L46.99,10.22L47.99,8.76L48.32,9.39L48.66,9.59L50.66,9.18L50.99,9.59L51.32,9.59L51.66,8.76L52.99,9.59L53.32,8.55L53.66,9.18L53.99,8.97L54.33,7.93L54.66,9.39L55.33,9.18L55.66,8.34L58.66,8.55L58.99,7.72L59.33,8.55L59.66,8.13L59.99,7.51L60.33,7.51L60.66,8.34L62,7.72L62.33,8.34L63,7.3L63.33,8.13L65,6.88L65.33,7.72L66,7.93L66.33,6.88L67,7.72L67.33,7.3L68.33,6.88L68.67,7.93L69,6.05L69.33,6.67L69.67,6.88L70,5.84L70.33,6.47L70.67,6.47L71.67,5.63L72,6.26" style="vector-effect: none; fill: none; stroke: rgb(117, 112, 179); stroke-opacity: 1; stroke-width: 0.8px; opacity: 1;"/></g><g class="points"/><g class="text"/></g><g class="trace scatter trace3cb1c6" style="stroke-miterlimit: 2; opacity: 1;"><g class="fills"/><g class="errorbars"/><g class="lines"><path class="js-line" d="M0.3,66.33L2.64,60.9L2.97,58.82L7.3,46.72L7.64,46.51L8.97,42.76L9.31,42.13L10.64,39L10.97,39.21L11.31,38.79L11.64,39.42L11.97,39.63L13.64,37.96L13.97,37.96L14.64,36.71L14.97,37.13L15.31,36.92L15.64,37.33L15.97,35.87L16.98,34.21L17.31,34.21L18.98,26.49L19.31,26.7L19.64,28.16L19.98,24.61L21.64,20.65L21.98,19.81L23.65,15.23L23.98,16.48L24.65,12.93L24.98,13.56L25.31,11.89L25.98,14.6L26.31,13.97L26.65,12.72L26.98,12.51L27.31,10.64L27.98,10.43L28.31,8.97L29.31,14.39L29.65,10.43L29.98,10.22L30.31,11.05L31.98,6.47L32.32,6.05L33.32,3.75L33.65,3.55L33.98,2.92L34.32,3.96L35.32,3.75L35.65,5.42L36.32,2.71L36.65,3.13L36.98,3.55L37.32,2.5L37.65,2.71L37.98,2.92L38.32,3.96L38.65,2.09L38.99,1.67L39.32,2.09L39.65,3.75L40.65,3.34L40.99,3.75L41.32,3.13L41.65,3.55L41.99,3.75L42.32,3.55L42.65,1.67L43.65,2.29L43.99,1.46L45.32,3.75L45.65,2.92L46.66,2.5L46.99,3.75L47.99,2.09L48.32,2.92L49.66,3.55L49.99,2.92L50.32,2.71L50.66,3.75L51.32,4.8L51.66,3.13L52.99,5.42L53.32,3.75L53.66,4.8L53.99,4.59L54.33,2.71L54.99,5.01L55.33,4.8L55.66,4.38L56.33,4.17L56.66,3.55L57.66,4.8L57.99,4.8L58.33,4.17L58.66,5.21L58.99,3.75L59.33,4.59L59.66,4.59L60.33,3.55L60.66,4.8L61.33,5.21L61.66,3.75L62,3.13L62.33,4.38L63,2.92L63.33,4.59L64.33,4.59L64.66,4.17L65,3.34L65.33,4.17L65.66,4.38L66,4.38L66.33,2.92L67.33,4.8L67.66,3.75L68.33,3.34L68.67,4.8L69,2.92L69.33,3.96L69.67,3.55L70,2.71L70.33,3.75L70.67,3.96L71.67,3.34L72,4.17" style="vector-effect: none; fill: none; stroke: rgb(217, 95, 2); stroke-opacity: 1; stroke-width: 0.8px; opacity: 1;"/></g><g class="points"/><g class="text"/></g><g class="trace scatter tracedffb9d" style="stroke-miterlimit: 2; opacity: 1;"><g class="fills"/><g class="errorbars"/><g class="lines"><path class="js-line" d="M0.3,66.53L2.3,62.15L2.64,60.69L5.97,53.6L6.3,53.39L11.64,44.63L11.97,45.05L13.31,42.76L13.64,41.51L15.31,39.84L15.64,38.79L15.97,38.79L16.31,37.96L16.98,37.54L17.31,38.17L18.64,35.67L18.98,34.83L20.64,29.41L20.98,27.53L22.64,21.27L22.98,21.07L23.31,19.4L23.98,19.81L24.31,18.98L25.65,16.48L25.98,17.31L26.31,17.52L26.65,14.6L26.98,15.02L27.31,13.77L28.65,12.51L28.98,8.13L29.31,17.1L29.98,15.23L30.31,14.6L30.98,13.77L31.32,11.89L31.98,11.68L32.32,11.05L33.32,8.97L33.65,8.97L34.98,7.72L35.32,7.72L35.65,8.34L35.98,7.72L36.32,7.51L37.65,6.88L37.98,7.3L38.32,7.72L38.65,6.88L39.32,6.67L39.65,7.3L40.65,7.09L40.99,7.72L44.32,6.47L44.65,6.88L45.65,6.67L45.99,6.67L46.32,6.67L46.66,5.84L47.66,6.47L47.99,5.42L49.66,6.26L49.99,5.84L52.32,6.67L52.66,6.47L52.99,7.51L53.32,6.67L53.66,6.67L54.33,5.63L54.66,6.88L55.66,6.67L55.99,7.09L59.99,6.47L60.33,5.84L61.33,7.09L61.66,6.47L62.66,7.09L63,6.05L64,7.51L64.33,6.67L65.33,7.09L65.66,7.09L66,7.72L66.33,6.88L66.66,7.09L68.33,6.88L68.67,7.72L69.33,7.09L69.67,7.51L70,6.88L70.33,7.72L70.67,7.3L72,7.72" style="vector-effect: none; fill: none; stroke: rgb(217, 95, 2); stroke-opacity: 1; stroke-width: 0.8px; opacity: 1;"/></g><g class="points"/><g class="text"/></g><g class="trace scatter trace179550" style="stroke-miterlimit: 2; opacity: 1;"><g class="fills"/><g class="errorbars"/><g class="lines"><path class="js-line" d="M0.3,66.53L1.97,62.99L2.3,61.11L4.3,53.81L4.64,53.19L7.3,49.22L7.64,49.01L9.97,45.68L10.31,45.47L16.64,36.92L16.98,38.38L17.98,36.71L18.31,36.5L19.98,30.03L20.31,29.2L23.31,19.19L23.65,19.61L23.98,20.23L24.31,19.4L24.65,19.19L25.31,17.31L25.65,17.73L25.98,18.35L26.31,18.15L26.65,15.64L26.98,16.06L27.31,15.02L28.65,13.77L28.98,9.39L29.31,10.43L29.65,15.02L29.98,17.73L30.31,16.48L30.65,15.85L33.32,8.34L33.65,7.72L34.65,6.67L34.98,6.88L36.65,4.8L36.98,5.01L37.98,4.38L38.32,5.21L38.99,3.96L39.32,4.38L40.32,5.42L40.65,5.42L41.32,5.63L41.65,5.42L41.99,5.84L42.32,5.42L42.65,5.01L42.99,5.42L43.32,5.01L43.65,4.8L43.99,4.59L44.32,5.21L44.65,6.05L44.99,5.63L45.32,6.05L45.65,6.05L46.99,5.63L47.32,5.84L47.66,5.84L47.99,4.8L49.66,6.05L49.99,5.84L51.32,6.47L51.66,5.63L52.99,7.51L53.32,6.47L53.99,6.47L54.33,5.63L55.33,7.3L55.66,6.67L59.99,6.26L60.33,5.84L61.33,6.88L61.66,6.26L62,6.05L62.33,6.67L62.66,6.67L63,5.63L63.33,6.47L63.66,6.67L64.66,6.67L65,6.26L66,7.09L66.33,6.47L67.66,6.88L68,6.47L69.67,6.88L70,6.26L71,6.88L71.33,6.67L72,7.09" style="vector-effect: none; fill: none; stroke: rgb(217, 95, 2); stroke-opacity: 1; stroke-width: 0.8px; opacity: 1;"/></g><g class="points"/><g class="text"/></g><g class="trace scatter trace7480ad" style="stroke-miterlimit: 2; opacity: 1;"><g class="fills"/><g class="errorbars"/><g class="lines"><path class="js-line" d="M0.3,69.45L2.3,69.04L2.64,69.04L17.31,69.45L17.64,69.66L18.64,69.45L18.98,69.66L26.31,69.87L26.65,70.08L40.99,70.5L41.32,70.71L72,70.71" style="vector-effect: none; fill: none; stroke: rgb(217, 95, 2); stroke-opacity: 1; stroke-dasharray: 9px, 9px; stroke-width: 0.8px; opacity: 1;"/></g><g class="points"/><g class="text"/></g><g class="trace scatter trace0b8566" style="stroke-miterlimit: 2; opacity: 1;"><g class="fills"/><g class="errorbars"/><g class="lines"><path class="js-line" d="M0.3,69.66L32.98,69.87L33.32,70.08L48.99,70.71L49.32,70.91L50.66,70.91L50.99,70.91L72,71.12" style="vector-effect: none; fill: none; stroke: rgb(217, 95, 2); stroke-opacity: 1; stroke-dasharray: 9px, 9px; stroke-width: 0.8px; opacity: 1;"/></g><g class="points"/><g class="text"/></g><g class="trace scatter tracee8deb3" style="stroke-miterlimit: 2; opacity: 1;"><g class="fills"/><g class="errorbars"/><g class="lines"><path class="js-line" d="M0.3,69.87L2.3,69.45L2.64,69.45L21.98,69.87L22.31,70.08L36.65,70.71L36.98,70.91L62.66,70.71L63,70.5L64.66,70.71L65,70.71L72,70.29" style="vector-effect: none; fill: none; stroke: rgb(217, 95, 2); stroke-opacity: 1; stroke-dasharray: 9px, 9px; stroke-width: 0.8px; opacity: 1;"/></g><g class="points"/><g class="text"/></g><g class="trace scatter trace9dcb0b" style="stroke-miterlimit: 2; opacity: 1;"><g class="fills"/><g class="errorbars"/><g class="lines"><path class="js-line" d="M0.3,67.79L0.63,67.99L0.97,66.95L2.3,64.66L2.64,64.66L3.97,62.99L4.3,62.15L4.97,61.74L5.3,61.32L5.97,60.69L6.3,60.49L8.97,58.19L9.31,58.19L10.64,57.57L10.97,57.36L11.64,56.31L11.97,55.48L12.97,55.06L13.31,53.19L13.64,54.23L13.97,53.19L14.31,51.73L14.64,51.93L14.97,50.89L15.31,51.31L15.64,50.06L19.64,36.29L19.98,32.95L21.31,28.99L21.64,25.86L23.31,18.56L23.65,17.94L23.98,17.94L24.31,14.39L24.98,14.18L25.31,13.56L26.65,10.22L26.98,10.43L27.65,10.43L27.98,8.13L28.31,8.97L28.65,8.34L28.98,8.13L30.31,4.8L30.65,10.85L30.98,14.6L31.32,13.35L31.65,11.68L31.98,12.31L32.32,11.47L32.65,10.43L33.65,7.51L33.98,8.34L35.32,6.88L35.65,7.51L35.98,5.84L36.65,6.05L36.98,5.42L37.98,4.59L38.32,4.8L38.65,6.26L38.99,5.21L39.32,5.63L39.65,3.96L39.99,4.59L40.32,4.59L40.99,4.38L41.32,5.01L42.32,4.38L42.65,4.8L43.32,4.17L43.65,4.8L44.32,4.17L44.65,4.8L45.65,5.01L45.99,5.21L46.66,4.59L46.99,5.42L50.99,5.42L51.32,5.84L52.66,4.59L52.99,5.84L54.33,4.8L54.66,5.42L55.33,5.21L55.66,4.8L55.99,5.63L56.33,5.42L56.66,5.01L57.99,5.21L58.33,5.01L60.33,5.21L60.66,4.8L61,5.63L61.33,5.21L61.66,5.21L65,5.42L65.33,6.05L67,4.38L67.33,5.21L68.33,5.42L68.67,5.01L70,5.63L70.33,5.01L71.67,5.21L72,5.01" style="vector-effect: none; fill: none; stroke: rgb(217, 95, 2); stroke-opacity: 1; stroke-dasharray: 3px, 3px; stroke-width: 0.8px; opacity: 1;"/></g><g class="points"/><g class="text"/></g><g class="trace scatter tracea19f95" style="stroke-miterlimit: 2; opacity: 1;"><g class="fills"/><g class="errorbars"/><g class="lines"><path class="js-line" d="M0.3,67.16L3.97,64.45L4.3,63.41L4.97,62.99L5.3,62.57L9.31,59.23L9.64,58.61L12.97,55.69L13.31,54.85L13.64,55.27L13.97,54.85L14.31,54.44L15.31,53.19L15.64,52.14L15.97,51.73L16.31,49.64L19.31,37.96L19.64,37.33L23.65,20.02L23.98,20.23L24.98,16.48L25.31,16.06L26.98,12.72L27.31,13.14L27.65,12.72L27.98,10.85L28.65,11.05L28.98,10.85L30.65,6.47L30.98,14.81L31.32,15.43L31.65,14.39L32.32,14.18L32.65,13.14L34.65,9.8L34.98,10.22L36.65,8.55L36.98,7.72L37.98,7.3L38.32,6.88L38.65,7.93L38.99,7.3L39.32,7.51L39.65,6.47L39.99,7.09L40.32,7.3L41.65,6.05L41.99,6.47L42.65,7.09L42.99,6.67L43.32,6.26L43.99,6.88L44.32,6.67L44.65,7.09L46.99,7.72L47.32,7.93L49.32,7.51L49.66,7.72L51.66,8.13L51.99,8.13L52.66,7.3L52.99,7.93L53.32,8.34L54.33,7.72L54.66,7.93L56.66,8.34L56.99,8.34L58.66,8.55L58.99,8.34L60.33,8.34L60.66,8.34L61.33,8.55L61.66,8.34L64,8.97L64.33,8.76L67.66,8.97L68,9.39L69.33,9.18L69.67,9.18L71,9.18L71.33,8.97L72,8.55" style="vector-effect: none; fill: none; stroke: rgb(217, 95, 2); stroke-opacity: 1; stroke-dasharray: 3px, 3px; stroke-width: 0.8px; opacity: 1;"/></g><g class="points"/><g class="text"/></g><g class="trace scatter trace3b0a72" style="stroke-miterlimit: 2; opacity: 1;"><g class="fills"/><g class="errorbars"/><g class="lines"><path class="js-line" d="M0.3,68.41L13.31,52.56L13.64,52.56L17.64,43.59L17.98,42.34L21.98,19.81L22.31,19.4L22.64,18.98L22.98,17.1L24.98,12.31L25.31,12.1L26.98,9.18L27.31,9.39L27.65,8.97L27.98,7.3L28.98,7.51L29.31,6.26L30.65,2.71L30.98,4.59L31.98,12.72L32.32,12.31L33.98,9.8L34.32,9.8L35.32,8.34L35.65,8.55L36.98,6.05L37.32,6.05L37.65,6.47L37.98,5.63L38.99,5.42L39.32,5.84L39.65,5.01L39.99,5.21L40.32,5.63L41.99,4.59L42.32,5.42L42.99,5.21L43.32,5.01L43.65,5.63L43.99,5.42L44.32,5.21L45.65,5.84L45.99,6.05L46.66,5.84L46.99,6.67L48.66,6.05L48.99,6.47L49.66,6.26L49.99,6.67L50.99,6.67L51.32,6.88L52.32,6.88L52.66,6.05L53.32,7.09L53.66,6.88L53.99,7.09L55.33,7.09L55.66,7.3L62.33,7.93L62.66,8.13L67,7.72L67.33,8.55L68.67,8.13L69,8.55L69.67,8.13L70,8.55L72,7.72" style="vector-effect: none; fill: none; stroke: rgb(217, 95, 2); stroke-opacity: 1; stroke-dasharray: 3px, 3px; stroke-width: 0.8px; opacity: 1;"/></g><g class="points"/><g class="text"/></g></g></g></g><path class="xlines-above crisp" d="M0,0" style="fill: none;"/><path class="ylines-above crisp" d="M0,0" style="fill: none;"/><g class="overlines-above"/><g class="xaxislayer-above"><g class="xtick"><text text-anchor="middle" x="0" y="92" transform="translate(28,0)" style="font-family: 'Open Sans', verdana, arial, sans-serif; font-size: 8px; fill: rgb(0, 0, 0); fill-opacity: 1; white-space: pre; opacity: 1;">0</text></g><g class="xtick"><text text-anchor="middle" x="0" y="92" style="font-family: 'Open Sans', verdana, arial, sans-serif; font-size: 8px; fill: rgb(0, 0, 0); fill-opacity: 1; white-space: pre; opacity: 1;" transform="translate(40.01,0)">6</text></g><g class="xtick"><text text-anchor="middle" x="0" y="92" style="font-family: 'Open Sans', verdana, arial, sans-serif; font-size: 8px; fill: rgb(0, 0, 0); fill-opacity: 1; white-space: pre; opacity: 1;" transform="translate(52.010000000000005,0)">12</text></g><g class="xtick"><text text-anchor="middle" x="0" y="92" style="font-family: 'Open Sans', verdana, arial, sans-serif; font-size: 8px; fill: rgb(0, 0, 0); fill-opacity: 1; white-space: pre; opacity: 1;" transform="translate(64.02000000000001,0)">18</text></g><g class="xtick"><text text-anchor="middle" x="0" y="92" style="font-family: 'Open Sans', verdana, arial, sans-serif; font-size: 8px; fill: rgb(0, 0, 0); fill-opacity: 1; white-space: pre; opacity: 1;" transform="translate(76.02000000000001,0)">24</text></g><g class="xtick"><text text-anchor="middle" x="0" y="92" style="font-family: 'Open Sans', verdana, arial, sans-serif; font-size: 8px; fill: rgb(0, 0, 0); fill-opacity: 1; white-space: pre; opacity: 1;" transform="translate(88.03,0)">30</text></g></g><g class="yaxislayer-above"><g class="ytick"><text text-anchor="end" x="27" y="2.8" transform="translate(0,83)" style="font-family: 'Open Sans', verdana, arial, sans-serif; font-size: 8px; fill: rgb(0, 0, 0); fill-opacity: 1; white-space: pre; opacity: 1;">0</text></g><g class="ytick"><text text-anchor="end" x="27" y="2.8" style="font-family: 'Open Sans', verdana, arial, sans-serif; font-size: 8px; fill: rgb(0, 0, 0); fill-opacity: 1; white-space: pre; opacity: 1;" transform="translate(0,62.14)">0.1</text></g><g class="ytick"><text text-anchor="end" x="27" y="2.8" style="font-family: 'Open Sans', verdana, arial, sans-serif; font-size: 8px; fill: rgb(0, 0, 0); fill-opacity: 1; white-space: pre; opacity: 1;" transform="translate(0,41.29)">0.2</text></g><g class="ytick"><text text-anchor="end" x="27" y="2.8" style="font-family: 'Open Sans', verdana, arial, sans-serif; font-size: 8px; fill: rgb(0, 0, 0); fill-opacity: 1; white-space: pre; opacity: 1;" transform="translate(0,20.43)">0.3</text></g></g><g class="overaxes-above"/></g></g><g class="polarlayer"/><g class="smithlayer"/><g class="ternarylayer"/><g class="geolayer"/><g class="funnelarealayer"/><g class="pielayer"/><g class="iciclelayer"/><g class="treemaplayer"/><g class="sunburstlayer"/><g class="glimages"/><defs id="topdefs-a702bc"><g class="clips"/></defs><g class="layer-above"><g class="imagelayer"/><g class="shapelayer"/></g><g class="infolayer"><g class="g-gtitle"><text class="gtitle" x="5.5" y="5" text-anchor="start" dy="0em" style="opacity: 1; font-family: 'Open Sans', verdana, arial, sans-serif; font-size: 8px; fill: rgb(0, 0, 0); fill-opacity: 1; white-space: pre;">Batch growth curves</text></g><g class="g-xtitle" transform="translate(0,3.9000000000000057)"><text class="xtitle" x="64" y="99.1" text-anchor="middle" style="opacity: 1; font-family: 'Open Sans', verdana, arial, sans-serif; font-size: 8px; fill: rgb(0, 0, 0); fill-opacity: 1; white-space: pre;">Time [h]</text></g><g class="g-ytitle" transform="translate(-1.3876953125,0)"><text class="ytitle" transform="rotate(-90,13.41875,46.5)" x="13.41875" y="46.5" text-anchor="middle" style="opacity: 1; font-family: 'Open Sans', verdana, arial, sans-serif; font-size: 8px; fill: rgb(0, 0, 0); fill-opacity: 1; white-space: pre;">OD​<tspan style="font-size:70%" dy="0.3em">600</tspan><tspan dy="-0.21em">​</tspan></text></g></g></svg>