<svg class="main-svg" xmlns="http://www.w3.org/2000/svg" xmlns:xlink="http://www.w3.org/1999/xlink" width="150" height="150" style="" viewBox="0 0 150 150"><rect x="0" y="0" width="150" height="150" style="fill: rgb(255, 255, 255); fill-opacity: 1;"/><defs id="defs-10664a"><g class="clips"><clipPath id="clip10664axyplot" class="plotclip"><rect width="105" height="100"/></clipPath><clipPath class="axesclip" id="clip10664ax"><rect x="45" y="0" width="105" height="150"/></clipPath><clipPath class="axesclip" id="clip10664ay"><rect x="0" y="20" width="150" height="100"/></clipPath><clipPath class="axesclip" id="clip10664axy"><rect x="45" y="20" width="105" height="100"/></clipPath></g><g class="gradients"/><g class="patterns"/></defs><g class="bglayer"/><g class="layer-below"><g class="imagelayer"/><g class="shapelayer"/></g><g class="cartesianlayer"><g class="subplot xy"><g class="layer-subplot"><g class="shapelayer"/><g class="imagelayer"/></g><g class="minor-gridlayer"><g class="x"/><g class="y"/></g><g class="gridlayer"><g class="x"><path class="xgrid crisp" transform="translate(53.25,0)" d="M0,20v100" style="stroke: rgb(128, 128, 128); stroke-opacity: 1; stroke-width: 0.2px;"/><path class="xgrid crisp" transform="translate(89.9,0)" d="M0,20v100" style="stroke: rgb(128, 128, 128); stroke-opacity: 1; stroke-width: 0.2px;"/><path class="xgrid crisp" transform="translate(126.54,0)" d="M0,20v100" style="stroke: rgb(128, 128, 128); stroke-opacity: 1; stroke-width: 0.2px;"/></g><g class="y"><path class="ygrid crisp" transform="translate(0,104.95)" d="M45,0h105" style="stroke: rgb(128, 128, 128); stroke-opacity: 1; stroke-width: 0.2px;"/><path class="ygrid crisp" transform="translate(0,85.05)" d="M45,0h105" style="stroke: rgb(128, 128, 128); stroke-opacity: 1; stroke-width: 0.2px;"/><path class="ygrid crisp" transform="translate(0,70)" d="M45,0h105" style="stroke: rgb(128, 128, 128); stroke-opacity: 1; stroke-width: 0.2px;"/><path class="ygrid crisp" transform="translate(0,54.95)" d="M45,0h105" style="stroke: rgb(128, 128, 128); stroke-opacity: 1; stroke-width: 0.2px;"/><path class="ygrid crisp" transform="translate(0,35.05)" d="M45,0h105" style="stroke: rgb(128, 128, 128); stroke-opacity: 1; stroke-width: 0.2px;"/></g></g><g class="zerolinelayer"/><g class="layer-between"><g class="shapelayer"/><g class="imagelayer"/></g><path class="xlines-below"/><path class="ylines-below"/><g class="overlines-below"/><g class="xaxislayer-below"/><g class="yaxislayer-below"/><g class="overaxes-below"/><g class="overplot"><g class="xy" transform="translate(45,20)" clip-path="url(#clip10664axyplot)"><g class="scatterlayer mlayer"><g class="trace scatter trace7b20a4" style="stroke-miterlimit: 2; opacity: 1;"><g class="fills"/><g class="errorbars"><g class="errorbar"><path class="yerror" d="M4.25,42.97h8m-4,0V46.94m-4,0h8" style="vector-effect: none; stroke-width: 0.75px; stroke: rgb(117, 112, 179); stroke-opacity: 1;"/></g><g class="errorbar"><path class="yerror" d="M20.74,22.55h8m-4,0V40.81m-4,0h8" style="vector-effect: none; stroke-width: 0.75px; stroke: rgb(117, 112, 179); stroke-opacity: 1;"/></g><g class="errorbar"><path class="yerror" d="M48.96,40.56h8m-4,0V74.59m-4,0h8" style="vector-effect: none; stroke-width: 0.75px; stroke: rgb(117, 112, 179); stroke-opacity: 1;"/></g><g class="errorbar"><path class="yerror" d="M60.68000000000001,40.53h8m-4,0V53.44m-4,0h8" style="vector-effect: none; stroke-width: 0.75px; stroke: rgb(117, 112, 179); stroke-opacity: 1;"/></g><g class="errorbar"><path class="yerror" d="M92.75,21.63h8m-4,0V31.85m-4,0h8" style="vector-effect: none; stroke-width: 0.75px; stroke: rgb(117, 112, 179); stroke-opacity: 1;"/></g></g><g class="lines"><path class="js-line" d="M8.25,44.87L24.74,29.82L52.96,51.5L64.68,46.04L96.75,26.14" style="vector-effect: none; fill: none; stroke: rgb(117, 112, 179); stroke-opacity: 1; stroke-width: 1.5px; opacity: 1;"/></g><g class="points"><path class="point" transform="translate(8.25,44.87)" d="M1.5,0A1.5,1.5 0 1,1 0,-1.5A1.5,1.5 0 0,1 1.5,0Z" style="opacity: 1; stroke-width: 0px; fill: rgb(117, 112, 179); fill-opacity: 1;"/><path class="point" transform="translate(24.74,29.82)" d="M1.5,0A1.5,1.5 0 1,1 0,-1.5A1.5,1.5 0 0,1 1.5,0Z" style="opacity: 1; stroke-width: 0px; fill: rgb(117, 112, 179); fill-opacity: 1;"/><path class="point" transform="translate(52.96,51.5)" d="M1.5,0A1.5,1.5 0 1,1 0,-1.5A1.5,1.5 0 0,1 1.5,0Z" style="opacity: 1; stroke-width: 0px; fill: rgb(117, 112, 179); fill-opacity: 1;"/><path class="point" transform="translate(64.68,46.04)" d="M1.5,0A1.5,1.5 0 1,1 0,-1.5A1.5,1.5 0 0,1 1.5,0Z" style="opacity: 1; stroke-width: 0px; fill: rgb(117, 112, 179); fill-opacity: 1;"/><path class="point" transform="translate(96.75,26.14)" d="M1.5,0A1.5,1.5 0 1,1 0,-1.5A1.5,1.5 0 0,1 1.5,0Z" style="opacity: 1; stroke-width: 0px; fill: rgb(117, 112, 179); fill-opacity: 1;"/></g><g class="text"/></g><g class="trace scatter trace46d8b2" style="stroke-miterlimit: 2; opacity: 1;"><g class="fills"/><g class="errorbars"><g class="errorbar"><path class="yerror" d="M4.25,42.97h8m-4,0V46.94m-4,0h8" style="vector-effect: none; stroke-width: 0.75px; stroke: rgb(117, 112, 179); stroke-opacity: 1;"/></g><g class="errorbar"><path class="yerror" d="M20.74,21.72h8m-4,0V30.49m-4,0h8" style="vector-effect: none; stroke-width: 0.75px; stroke: rgb(117, 112, 179); stroke-opacity: 1;"/></g><g class="errorbar"><path class="yerror" d="M48.96,33.41h8m-4,0V41.88m-4,0h8" style="vector-effect: none; stroke-width: 0.75px; stroke: rgb(117, 112, 179); stroke-opacity: 1;"/></g><g class="errorbar"><path class="yerror" d="M60.68000000000001,38.11h8m-4,0V58.67m-4,0h8" style="vector-effect: none; stroke-width: 0.75px; stroke: rgb(117, 112, 179); stroke-opacity: 1;"/></g><g class="errorbar"><path class="yerror" d="M92.75,33.18h8m-4,0V46.71m-4,0h8" style="vector-effect: none; stroke-width: 0.75px; stroke: rgb(117, 112, 179); stroke-opacity: 1;"/></g></g><g class="lines"><path class="js-line" d="M8.25,44.87L24.74,25.67L52.96,37.24L64.68,46.04L96.75,38.91" style="vector-effect: none; fill: none; stroke: rgb(117, 112, 179); stroke-opacity: 1; stroke-width: 1.5px; opacity: 1;"/></g><g class="points"><path class="point" transform="translate(8.25,44.87)" d="M1.5,0A1.5,1.5 0 1,1 0,-1.5A1.5,1.5 0 0,1 1.5,0Z" style="opacity: 1; stroke-width: 0px; fill: rgb(117, 112, 179); fill-opacity: 1;"/><path class="point" transform="translate(24.74,25.67)" d="M1.5,0A1.5,1.5 0 1,1 0,-1.5A1.5,1.5 0 0,1 1.5,0Z" style="opacity: 1; stroke-width: 0px; fill: rgb(117, 112, 179); fill-opacity: 1;"/><path class="point" transform="translate(52.96,37.24)" d="M1.5,0A1.5,1.5 0 1,1 0,-1.5A1.5,1.5 0 0,1 1.5,0Z" style="opacity: 1; stroke-width: 0px; fill: rgb(117, 112, 179); fill-opacity: 1;"/><path class="point" transform="translate(64.68,46.04)" d="M1.5,0A1.5,1.5 0 1,1 0,-1.5A1.5,1.5 0 0,1 1.5,0Z" style="opacity: 1; stroke-width: 0px; fill: rgb(117, 112, 179); fill-opacity: 1;"/><path class="point" transform="translate(96.75,38.91)" d="M1.5,0A1.5,1.5 0 1,1 0,-1.5A1.5,1.5 0 0,1 1.5,0Z" style="opacity: 1; stroke-width: 0px; fill: rgb(117, 112, 179); fill-opacity: 1;"/></g><g class="text"/></g><g class="trace scatter trace862e15" style="stroke-miterlimit: 2; opacity: 1;"><g class="fills"/><g class="errorbars"><g class="errorbar"><path class="yerror" d="M4.25,42.97h8m-4,0V46.94m-4,0h8" style="vector-effect: none; stroke-width: 0.75px; stroke: rgb(117, 112, 179); stroke-opacity: 1;"/></g><g class="errorbar"><path class="yerror" d="M20.74,24.95h8m-4,0V33.24m-4,0h8" style="vector-effect: none; stroke-width: 0.75px; stroke: rgb(117, 112, 179); stroke-opacity: 1;"/></g><g class="errorbar"><path class="yerror" d="M48.96,26.66h8m-4,0V36.4m-4,0h8" style="vector-effect: none; stroke-width: 0.75px; stroke: rgb(117, 112, 179); stroke-opacity: 1;"/></g><g class="errorbar"><path class="yerror" d="M60.68000000000001,20.22h8m-4,0V31.68m-4,0h8" style="vector-effect: none; stroke-width: 0.75px; stroke: rgb(117, 112, 179); stroke-opacity: 1;"/></g><g class="errorbar"><path class="yerror" d="M92.75,31.45h8m-4,0V40.95m-4,0h8" style="vector-effect: none; stroke-width: 0.75px; stroke: rgb(117, 112, 179); stroke-opacity: 1;"/></g></g><g class="lines"><path class="js-line" d="M8.25,44.87L24.74,28.7L52.96,30.99L64.68,25.2L96.75,35.68" style="vector-effect: none; fill: none; stroke: rgb(117, 112, 179); stroke-opacity: 1; stroke-width: 1.5px; opacity: 1;"/></g><g class="points"><path class="point" transform="translate(8.25,44.87)" d="M1.5,0A1.5,1.5 0 1,1 0,-1.5A1.5,1.5 0 0,1 1.5,0Z" style="opacity: 1; stroke-width: 0px; fill: rgb(117, 112, 179); fill-opacity: 1;"/><path class="point" transform="translate(24.74,28.7)" d="M1.5,0A1.5,1.5 0 1,1 0,-1.5A1.5,1.5 0 0,1 1.5,0Z" style="opacity: 1; stroke-width: 0px; fill: rgb(117, 112, 179); fill-opacity: 1;"/><path class="point" transform="translate(52.96,30.99)" d="M1.5,0A1.5,1.5 0 1,1 0,-1.5A1.5,1.5 0 0,1 1.5,0Z" style="opacity: 1; stroke-width: 0px; fill: rgb(117, 112, 179); fill-opacity: 1;"/><path class="point" transform="translate(64.68,25.2)" d="M1.5,0A1.5,1.5 0 1,1 0,-1.5A1.5,1.5 0 0,1 1.5,0Z" style="opacity: 1; stroke-width: 0px; fill: rgb(117, 112, 179); fill-opacity: 1;"/><path class="point" transform="translate(96.75,35.68)" d="M1.5,0A1.5,1.5 0 1,1 0,-1.5A1.5,1.5 0 0,1 1.5,0Z" style="opacity: 1; stroke-width: 0px; fill: rgb(117, 112, 179); fill-opacity: 1;"/></g><g class="text"/></g><g class="trace scatter traced2814f" style="stroke-miterlimit: 2; opacity: 1;"><g class="fills"/><g class="errorbars"><g class="errorbar"><path class="yerror" d="M4.25,42.97h8m-4,0V46.94m-4,0h8" style="vector-effect: none; stroke-width: 0.75px; stroke: rgb(217, 95, 2); stroke-opacity: 1;"/></g><g class="errorbar"><path class="yerror" d="M20.74,30.99h8m-4,0V39.79m-4,0h8" style="vector-effect: none; stroke-width: 0.75px; stroke: rgb(217, 95, 2); stroke-opacity: 1;"/></g><g class="errorbar"><path class="yerror" d="M48.96,22.67h8m-4,0V40.53m-4,0h8" style="vector-effect: none; stroke-width: 0.75px; stroke: rgb(217, 95, 2); stroke-opacity: 1;"/></g><g class="errorbar"><path class="yerror" d="M60.68000000000001,31.64h8m-4,0V44.8m-4,0h8" style="vector-effect: none; stroke-width: 0.75px; stroke: rgb(217, 95, 2); stroke-opacity: 1;"/></g><g class="errorbar"><path class="yerror" d="M92.75,35.73h8m-4,0V53m-4,0h8" style="vector-effect: none; stroke-width: 0.75px; stroke: rgb(217, 95, 2); stroke-opacity: 1;"/></g></g><g class="lines"><path class="js-line" d="M8.25,44.87L24.74,34.95L52.96,29.82L64.68,37.24L96.75,42.69" style="vector-effect: none; fill: none; stroke: rgb(217, 95, 2); stroke-opacity: 1; stroke-width: 1.5px; opacity: 1;"/></g><g class="points"><path class="point" transform="translate(8.25,44.87)" d="M1.5,0A1.5,1.5 0 1,1 0,-1.5A1.5,1.5 0 0,1 1.5,0Z" style="opacity: 1; stroke-width: 0px; fill: rgb(217, 95, 2); fill-opacity: 1;"/><path class="point" transform="translate(24.74,34.95)" d="M1.5,0A1.5,1.5 0 1,1 0,-1.5A1.5,1.5 0 0,1 1.5,0Z" style="opacity: 1; stroke-width: 0px; fill: rgb(217, 95, 2); fill-opacity: 1;"/><path class="point" transform="translate(52.96,29.82)" d="M1.5,0A1.5,1.5 0 1,1 0,-1.5A1.5,1.5 0 0,1 1.5,0Z" style="opacity: 1; stroke-width: 0px; fill: rgb(217, 95, 2); fill-opacity: 1;"/><path class="point" transform="translate(64.68,37.24)" d="M1.5,0A1.5,1.5 0 1,1 0,-1.5A1.5,1.5 0 0,1 1.5,0Z" style="opacity: 1; stroke-width: 0px; fill: rgb(217, 95, 2); fill-opacity: 1;"/><path class="point" transform="translate(96.75,42.69)" d="M1.5,0A1.5,1.5 0 1,1 0,-1.5A1.5,1.5 0 0,1 1.5,0Z" style="opacity: 1; stroke-width: 0px; fill: rgb(217, 95, 2); fill-opacity: 1;"/></g><g class="text"/></g><g class="trace scatter trace0bcfb6" style="stroke-miterlimit: 2; opacity: 1;"><g class="fills"/><g class="errorbars"><g class="errorbar"><path class="yerror" d="M4.25,42.97h8m-4,0V46.94m-4,0h8" style="vector-effect: none; stroke-width: 0.75px; stroke: rgb(217, 95, 2); stroke-opacity: 1;"/></g><g class="errorbar"><path class="yerror" d="M20.74,26.55h8m-4,0V38.19m-4,0h8" style="vector-effect: none; stroke-width: 0.75px; stroke: rgb(217, 95, 2); stroke-opacity: 1;"/></g><g class="errorbar"><path class="yerror" d="M48.96,28.57h8m-4,0V36.64m-4,0h8" style="vector-effect: none; stroke-width: 0.75px; stroke: rgb(217, 95, 2); stroke-opacity: 1;"/></g><g class="errorbar"><path class="yerror" d="M60.68000000000001,32.93h8m-4,0V44.78m-4,0h8" style="vector-effect: none; stroke-width: 0.75px; stroke: rgb(217, 95, 2); stroke-opacity: 1;"/></g><g class="errorbar"><path class="yerror" d="M92.75,25.14h8m-4,0V40.84m-4,0h8" style="vector-effect: none; stroke-width: 0.75px; stroke: rgb(217, 95, 2); stroke-opacity: 1;"/></g></g><g class="lines"><path class="js-line" d="M8.25,44.87L24.74,31.6L52.96,32.23L64.68,38.06L96.75,31.6" style="vector-effect: none; fill: none; stroke: rgb(217, 95, 2); stroke-opacity: 1; stroke-width: 1.5px; opacity: 1;"/></g><g class="points"><path class="point" transform="translate(8.25,44.87)" d="M1.5,0A1.5,1.5 0 1,1 0,-1.5A1.5,1.5 0 0,1 1.5,0Z" style="opacity: 1; stroke-width: 0px; fill: rgb(217, 95, 2); fill-opacity: 1;"/><path class="point" transform="translate(24.74,31.6)" d="M1.5,0A1.5,1.5 0 1,1 0,-1.5A1.5,1.5 0 0,1 1.5,0Z" style="opacity: 1; stroke-width: 0px; fill: rgb(217, 95, 2); fill-opacity: 1;"/><path class="point" transform="translate(52.96,32.23)" d="M1.5,0A1.5,1.5 0 1,1 0,-1.5A1.5,1.5 0 0,1 1.5,0Z" style="opacity: 1; stroke-width: 0px; fill: rgb(217, 95, 2); fill-opacity: 1;"/><path class="point" transform="translate(64.68,38.06)" d="M1.5,0A1.5,1.5 0 1,1 0,-1.5A1.5,1.5 0 0,1 1.5,0Z" style="opacity: 1; stroke-width: 0px; fill: rgb(217, 95, 2); fill-opacity: 1;"/><path class="point" transform="translate(96.75,31.6)" d="M1.5,0A1.5,1.5 0 1,1 0,-1.5A1.5,1.5 0 0,1 1.5,0Z" style="opacity: 1; stroke-width: 0px; fill: rgb(217, 95, 2); fill-opacity: 1;"/></g><g class="text"/></g><g class="trace scatter tracec910c6" style="stroke-miterlimit: 2; opacity: 1;"><g class="fills"/><g class="errorbars"><g class="errorbar"><path class="yerror" d="M4.25,42.97h8m-4,0V46.94m-4,0h8" style="vector-effect: none; stroke-width: 0.75px; stroke: rgb(217, 95, 2); stroke-opacity: 1;"/></g><g class="errorbar"><path class="yerror" d="M20.74,27.07h8m-4,0V45.01m-4,0h8" style="vector-effect: none; stroke-width: 0.75px; stroke: rgb(217, 95, 2); stroke-opacity: 1;"/></g><g class="errorbar"><path class="yerror" d="M48.96,26.95h8m-4,0V43.07m-4,0h8" style="vector-effect: none; stroke-width: 0.75px; stroke: rgb(217, 95, 2); stroke-opacity: 1;"/></g><g class="errorbar"><path class="yerror" d="M60.68000000000001,22.62h8m-4,0V30.36m-4,0h8" style="vector-effect: none; stroke-width: 0.75px; stroke: rgb(217, 95, 2); stroke-opacity: 1;"/></g><g class="errorbar"><path class="yerror" d="M92.75,45.35h8m-4,0V60.11m-4,0h8" style="vector-effect: none; stroke-width: 0.75px; stroke: rgb(217, 95, 2); stroke-opacity: 1;"/></g></g><g class="lines"><path class="js-line" d="M8.25,44.87L24.74,34.24L52.96,33.55L64.68,26.14L96.75,51.5" style="vector-effect: none; fill: none; stroke: rgb(217, 95, 2); stroke-opacity: 1; stroke-width: 1.5px; opacity: 1;"/></g><g class="points"><path class="point" transform="translate(8.25,44.87)" d="M1.5,0A1.5,1.5 0 1,1 0,-1.5A1.5,1.5 0 0,1 1.5,0Z" style="opacity: 1; stroke-width: 0px; fill: rgb(217, 95, 2); fill-opacity: 1;"/><path class="point" transform="translate(24.74,34.24)" d="M1.5,0A1.5,1.5 0 1,1 0,-1.5A1.5,1.5 0 0,1 1.5,0Z" style="opacity: 1; stroke-width: 0px; fill: rgb(217, 95, 2); fill-opacity: 1;"/><path class="point" transform="translate(52.96,33.55)" d="M1.5,0A1.5,1.5 0 1,1 0,-1.5A1.5,1.5 0 0,1 1.5,0Z" style="opacity: 1; stroke-width: 0px; fill: rgb(217, 95, 2); fill-opacity: 1;"/><path class="point" transform="translate(64.68,26.14)" d="M1.5,0A1.5,1.5 0 1,1 0,-1.5A1.5,1.5 0 0,1 1.5,0Z" style="opacity: 1; stroke-width: 0px; fill: rgb(217, 95, 2); fill-opacity: 1;"/><path class="point" transform="translate(96.75,51.5)" d="M1.5,0A1.5,1.5 0 1,1 0,-1.5A1.5,1.5 0 0,1 1.5,0Z" style="opacity: 1; stroke-width: 0px; fill: rgb(217, 95, 2); fill-opacity: 1;"/></g><g class="text"/></g></g></g></g><path class="xlines-above crisp" d="M44.5,120.25H150.5M44.5,19.75H150.5" style="fill: none; stroke-width: 0.5px; stroke: rgb(0, 0, 0); stroke-opacity: 1;"/><path class="ylines-above crisp" d="M44.75,20V120M150.25,20V120" style="fill: none; stroke-width: 0.5px; stroke: rgb(0, 0, 0); stroke-opacity: 1;"/><g class="overlines-above"/><g class="xaxislayer-above"><path class="xtick ticks crisp" d="M0,120v-5" transform="translate(53.25,0)" style="stroke: rgb(0, 0, 0); stroke-opacity: 1; stroke-width: 0.5px;"/><path class="xtick ticks crisp" d="M0,120v-5" transform="translate(89.9,0)" style="stroke: rgb(0, 0, 0); stroke-opacity: 1; stroke-width: 0.5px;"/><path class="xtick ticks crisp" d="M0,120v-5" transform="translate(126.54,0)" style="stroke: rgb(0, 0, 0); stroke-opacity: 1; stroke-width: 0.5px;"/><g class="xtick"><text text-anchor="middle" x="0" y="133.7" transform="translate(53.25,0)" style="font-family: 'Open Sans', verdana, arial, sans-serif; font-size: 11px; fill: rgb(0, 0, 0); fill-opacity: 1; white-space: pre; opacity: 1;">0</text></g><g class="xtick"><text text-anchor="middle" x="0" y="133.7" style="font-family: 'Open Sans', verdana, arial, sans-serif; font-size: 11px; fill: rgb(0, 0, 0); fill-opacity: 1; white-space: pre; opacity: 1;" transform="translate(89.9,0)">20</text></g><g class="xtick"><text text-anchor="middle" x="0" y="133.7" style="font-family: 'Open Sans', verdana, arial, sans-serif; font-size: 11px; fill: rgb(0, 0, 0); fill-opacity: 1; white-space: pre; opacity: 1;" transform="translate(126.54,0)">40</text></g></g><g class="yaxislayer-above"><path class="ytick ticks crisp" d="M45,0h5" transform="translate(0,104.95)" style="stroke: rgb(0, 0, 0); stroke-opacity: 1; stroke-width: 0.5px;"/><path class="ytick ticks crisp" d="M45,0h5" transform="translate(0,85.05)" style="stroke: rgb(0, 0, 0); stroke-opacity: 1; stroke-width: 0.5px;"/><path class="ytick ticks crisp" d="M45,0h5" transform="translate(0,70)" style="stroke: rgb(0, 0, 0); stroke-opacity: 1; stroke-width: 0.5px;"/><path class="ytick ticks crisp" d="M45,0h5" transform="translate(0,54.95)" style="stroke: rgb(0, 0, 0); stroke-opacity: 1; stroke-width: 0.5px;"/><path class="ytick ticks crisp" d="M45,0h5" transform="translate(0,35.05)" style="stroke: rgb(0, 0, 0); stroke-opacity: 1; stroke-width: 0.5px;"/><g class="ytick"><text text-anchor="end" x="42.3" y="3.8499999999999996" transform="translate(0,120)" style="font-family: 'Open Sans', verdana, arial, sans-serif; font-size: 11px; fill: rgb(0, 0, 0); fill-opacity: 1; white-space: pre; opacity: 1;">10M</text></g><g class="ytick"><text text-anchor="end" x="42.3" y="2.8874999999999997" style="font-family: 'Open Sans', verdana, arial, sans-serif; font-size: 8.25px; fill: rgb(0, 0, 0); fill-opacity: 1; white-space: pre; opacity: 1;" transform="translate(0,104.95)">2</text></g><g class="ytick"><text text-anchor="end" x="42.3" y="2.8874999999999997" style="font-family: 'Open Sans', verdana, arial, sans-serif; font-size: 8.25px; fill: rgb(0, 0, 0); fill-opacity: 1; white-space: pre; opacity: 1;" transform="translate(0,85.05)">5</text></g><g class="ytick"><text text-anchor="end" x="42.3" y="3.8499999999999996" style="font-family: 'Open Sans', verdana, arial, sans-serif; font-size: 11px; fill: rgb(0, 0, 0); fill-opacity: 1; white-space: pre; opacity: 1;" transform="translate(0,70)">100M</text></g><g class="ytick"><text text-anchor="end" x="42.3" y="2.8874999999999997" style="font-family: 'Open Sans', verdana, arial, sans-serif; font-size: 8.25px; fill: rgb(0, 0, 0); fill-opacity: 1; white-space: pre; opacity: 1;" transform="translate(0,54.95)">2</text></g><g class="ytick"><text text-anchor="end" x="42.3" y="2.8874999999999997" style="font-family: 'Open Sans', verdana, arial, sans-serif; font-size: 8.25px; fill: rgb(0, 0, 0); fill-opacity: 1; white-space: pre; opacity: 1;" transform="translate(0,35.05)">5</text></g><g class="ytick"><text text-anchor="end" x="42.3" y="3.8499999999999996" style="font-family: 'Open Sans', verdana, arial, sans-serif; font-size: 11px; fill: rgb(0, 0, 0); fill-opacity: 1; white-space: pre; opacity: 1;" transform="translate(0,20)">1B</text></g></g><g class="overaxes-above"/></g></g><g class="polarlayer"/><g class="smithlayer"/><g class="ternarylayer"/><g class="geolayer"/><g class="funnelarealayer"/><g class="pielayer"/><g class="iciclelayer"/><g class="treemaplayer"/><g class="sunburstlayer"/><g class="glimages"/><defs id="topdefs-10664a"><g class="clips"/></defs><g class="layer-above"><g class="imagelayer"/><g class="shapelayer"/></g><g class="infolayer"><g class="g-gtitle"><text class="gtitle" x="7.5" y="10" text-anchor="start" dy="0em" style="opacity: 1; font-family: 'Open Sans', verdana, arial, sans-serif; font-size: 11px; fill: rgb(0, 0, 0); fill-opacity: 1; white-space: pre;">Thiamine supplied</text></g><g class="g-xtitle" transform="translate(0,2.8468750000000114)"><text class="xtitle" x="97.5" y="144.153125" text-anchor="middle" style="opacity: 1; font-family: 'Open Sans', verdana, arial, sans-serif; font-size: 11px; fill: rgb(0, 0, 0); fill-opacity: 1; white-space: pre;">Time [h]</text></g><g class="g-ytitle" transform="translate(2.099609375,0)"><text class="ytitle" transform="rotate(-90,9.899999999999999,70)" x="9.899999999999999" y="70" text-anchor="middle" style="opacity: 1; font-family: 'Open Sans', verdana, arial, sans-serif; font-size: 11px; fill: rgb(0, 0, 0); fill-opacity: 1; white-space: pre;">CFUs/mL</text></g></g></svg>