<svg class="main-svg" xmlns="http://www.w3.org/2000/svg" xmlns:xlink="http://www.w3.org/1999/xlink" width="150" height="150" style="" viewBox="0 0 150 150"><rect x="0" y="0" width="150" height="150" style="fill: rgb(255, 255, 255); fill-opacity: 1;"/><defs id="defs-6099cc"><g class="clips"><clipPath id="clip6099ccxyplot" class="plotclip"><rect width="92" height="94"/></clipPath><clipPath class="axesclip" id="clip6099ccx"><rect x="38" y="0" width="92" height="150"/></clipPath><clipPath class="axesclip" id="clip6099ccy"><rect x="0" y="20" width="150" height="94"/></clipPath><clipPath class="axesclip" id="clip6099ccxy"><rect x="38" y="20" width="92" height="94"/></clipPath></g><g class="gradients"/><g class="patterns"/></defs><g class="bglayer"/><g class="layer-below"><g class="imagelayer"/><g class="shapelayer"/></g><g class="cartesianlayer"><g class="subplot xy"><g class="layer-subplot"><g class="shapelayer"/><g class="imagelayer"/></g><g class="minor-gridlayer"><g class="x"/><g class="y"/></g><g class="gridlayer"><g class="x"><path class="xgrid crisp" transform="translate(63.57,0)" d="M0,20v94" style="stroke: rgb(128, 128, 128); stroke-opacity: 1; stroke-width: 0.2px;"/><path class="xgrid crisp" transform="translate(89.13,0)" d="M0,20v94" style="stroke: rgb(128, 128, 128); stroke-opacity: 1; stroke-width: 0.2px;"/><path class="xgrid crisp" transform="translate(114.7,0)" d="M0,20v94" style="stroke: rgb(128, 128, 128); stroke-opacity: 1; stroke-width: 0.2px;"/></g><g class="y"><path class="ygrid crisp" transform="translate(0,111.32)" d="M38,0h92" style="stroke: rgb(128, 128, 128); stroke-opacity: 1; stroke-width: 0.2px;"/><path class="ygrid crisp" transform="translate(0,86.07)" d="M38,0h92" style="stroke: rgb(128, 128, 128); stroke-opacity: 1; stroke-width: 0.2px;"/><path class="ygrid crisp" transform="translate(0,60.81)" d="M38,0h92" style="stroke: rgb(128, 128, 128); stroke-opacity: 1; stroke-width: 0.2px;"/><path class="ygrid crisp" transform="translate(0,35.56)" d="M38,0h92" style="stroke: rgb(128, 128, 128); stroke-opacity: 1; stroke-width: 0.2px;"/></g></g><g class="zerolinelayer"/><g class="layer-between"><g class="shapelayer"/><g class="imagelayer"/></g><path class="xlines-below"/><path class="ylines-below"/><g class="overlines-below"/><g class="xaxislayer-below"/><g class="yaxislayer-below"/><g class="overaxes-below"/><g class="overplot"><g class="xy" transform="translate(38,20)" clip-path="url(#clip6099ccxyplot)"><g class="scatterlayer mlayer"><g class="trace scatter trace680bfc" style="stroke-miterlimit: 2; opacity: 1;"><g class="fills"/><g class="errorbars"/><g class="lines"><path class="js-line" d="M0.38,86.02L2.09,85.76L2.52,85.01L5.07,78.69L5.5,77.68L9.33,64.55L9.76,62.78L13.59,50.41L14.02,51.17L16.58,55.71L17,55.21L17.43,53.94L17.86,53.19L18.28,50.91L19.99,47.13L20.41,40.56L21.69,33.99L22.12,33.74L23.4,35.51L23.82,35.26L25.1,36.27L25.53,35.26L28.93,32.23L29.36,32.48L30.64,31.22L31.07,30.96L31.92,30.46L32.34,29.7L37.03,27.18L37.46,27.68L38.31,26.42L38.74,26.67L39.59,26.42L40.01,24.65L40.44,25.66L40.87,24.9L41.29,24.65L42.57,23.64L43,24.15L44.27,23.14L44.7,23.39L45.98,22.63L46.41,22.13L48.54,21.62L48.96,22.38L50.24,20.86L50.67,21.62L53.22,20.36L53.65,20.86L56.21,18.84L56.63,19.09L57.06,20.1L57.48,19.35L57.91,19.6L59.19,19.85L59.62,18.84L60.89,18.84L61.32,17.58L62.6,18.08L63.02,18.34L64.73,18.08L65.15,18.59L66.43,17.83L66.86,18.59L67.29,18.08L67.71,19.35L68.99,17.33L69.42,16.82L69.84,18.34L70.27,17.83L70.69,18.08L71.12,17.07L71.55,17.83L71.97,17.58L73.25,17.58L73.68,17.58L74.96,17.33L75.38,16.57L76.23,16.82L76.66,16.32L77.09,16.06L77.51,17.33L78.79,16.57L79.22,16.57L79.64,17.33L80.07,17.07L80.49,16.06L81.77,17.33L82.2,16.32L82.63,16.57L83.05,15.05L84.33,16.06L84.76,15.05L86.03,15.81L86.46,15.81L87.31,14.8L87.74,15.56L88.16,14.55L88.59,15.05L89.02,15.56L89.44,13.54L89.87,15.05L90.3,14.3L92,15.31" style="vector-effect: none; fill: none; stroke: rgb(117, 112, 179); stroke-opacity: 1; stroke-width: 1.5px; opacity: 1;"/></g><g class="points"/><g class="text"/></g><g class="trace scatter tracec5d274" style="stroke-miterlimit: 2; opacity: 1;"><g class="fills"/><g class="errorbars"/><g class="lines"><path class="js-line" d="M0.38,85.01L1.24,85.01L1.66,84.25L2.09,84.5L2.52,83.74L4.65,77.94L5.07,77.43L8.48,67.58L8.91,66.32L11.04,57.99L11.46,56.72L14.45,48.64L14.87,47.88L15.73,47.38L16.15,47.88L19.13,40.56L19.56,36.77L19.99,37.02L20.41,36.27L21.26,33.74L21.69,35L23.4,35.76L23.82,35.51L25.1,35.76L25.53,35L29.36,32.98L29.79,31.72L30.64,31.47L31.07,31.47L31.92,31.22L32.34,30.71L33.62,29.7L34.05,28.69L35.33,28.19L35.75,27.93L37.46,27.93L37.88,26.92L39.59,26.42L40.01,24.65L40.44,25.41L40.87,24.65L41.29,24.65L42.57,23.64L43,23.89L45.55,21.87L45.98,22.13L47.26,21.37L47.68,21.37L48.54,20.86L48.96,21.37L49.81,19.85L50.24,19.85L50.67,20.61L51.09,20.36L51.52,19.85L53.65,19.35L54.08,18.84L54.93,18.59L55.35,18.08L56.21,17.58L56.63,17.83L57.06,18.34L57.48,17.58L59.19,17.83L59.62,16.82L60.89,17.07L61.32,15.81L63.02,16.32L63.45,16.06L64.73,16.32L65.15,16.82L66.43,15.81L66.86,17.07L67.29,16.57L67.71,17.58L68.99,16.06L69.42,15.31L70.69,16.82L71.12,15.81L71.97,16.32L72.4,15.56L73.68,15.81L74.1,16.32L74.96,14.8L75.38,15.31L75.81,15.31L77.94,14.3L78.36,14.55L78.79,15.05L79.22,14.04L80.07,15.05L80.49,12.78L81.77,14.55L82.2,13.79L82.63,14.55L83.05,13.54L84.33,14.8L84.76,13.79L85.18,14.3L85.61,13.54L86.46,13.79L86.89,13.29L87.74,13.79L88.16,13.03L89.02,14.3L89.44,13.03L89.87,14.04L90.3,13.29L90.72,13.79L91.15,13.03L91.57,13.29L92,13.54" style="vector-effect: none; fill: none; stroke: rgb(117, 112, 179); stroke-opacity: 1; stroke-width: 1.5px; opacity: 1;"/></g><g class="points"/><g class="text"/></g><g class="trace scatter trace252cea" style="stroke-miterlimit: 2; opacity: 1;"><g class="fills"/><g class="errorbars"/><g class="lines"><path class="js-line" d="M0.38,85.01L1.24,84.75L1.66,84.25L2.52,82.99L2.94,80.46L4.22,79.7L4.65,79.7L5.07,79.2L5.5,77.43L5.92,77.18L6.35,75.41L13.59,49.4L14.02,48.89L17.86,40.81L18.28,39.55L19.99,33.24L20.41,31.72L21.26,31.97L21.69,33.24L24.67,35.76L25.1,35.51L27.23,33.24L27.66,33.49L28.93,31.97L29.36,32.23L30.64,30.46L31.07,30.21L31.92,29.7L32.34,29.2L33.2,28.94L33.62,27.68L35.33,26.67L35.75,26.42L37.03,25.16L37.46,26.17L38.31,24.65L38.74,25.16L40.01,22.63L40.44,23.14L41.29,22.38L41.72,21.37L42.14,21.87L42.57,21.11L43,21.62L43.42,21.11L43.85,21.37L45.13,19.85L45.55,20.1L46.83,19.35L47.26,19.6L48.54,18.59L48.96,19.09L50.24,17.83L50.67,18.59L51.95,17.33L52.37,17.58L53.65,17.07L54.08,16.82L56.21,15.31L56.63,15.81L57.06,16.57L57.48,15.56L58.76,15.56L59.19,15.56L59.62,14.8L60.04,15.31L60.47,15.05L60.89,14.8L61.32,13.54L62.17,14.55L62.6,14.3L63.02,14.55L64.73,14.04L65.15,14.55L65.58,14.55L66.01,13.54L66.86,13.79L67.29,13.79L67.71,14.55L68.14,13.29L68.56,14.04L68.99,13.79L69.42,12.53L69.84,14.3L70.27,13.79L70.69,14.04L71.55,13.03L71.97,13.29L73.25,12.78L73.68,13.29L74.96,13.29L75.38,12.28L75.81,13.29L76.23,12.78L76.66,12.02L77.09,12.02L77.51,13.03L77.94,12.53L78.36,13.29L79.22,12.28L79.64,13.03L80.49,11.77L80.92,12.78L83.05,11.27L83.48,12.28L84.33,12.53L84.76,11.27L85.61,12.28L86.03,11.77L87.31,11.27L87.74,12.53L88.16,10.26L88.59,11.01L89.02,11.27L89.44,10L89.87,10.76L90.3,10.76L91.57,9.75L92,10.51" style="vector-effect: none; fill: none; stroke: rgb(117, 112, 179); stroke-opacity: 1; stroke-width: 1.5px; opacity: 1;"/></g><g class="points"/><g class="text"/></g><g class="trace scatter traceaca21f" style="stroke-miterlimit: 2; opacity: 1;"><g class="fills"/><g class="errorbars"/><g class="lines"><path class="js-line" d="M0.38,83.24L2.94,78.44L3.37,76.67L5.07,70.61L5.5,68.84L10.19,56.98L10.61,54.95L11.46,54.7L11.89,53.94L13.59,50.16L14.02,50.41L14.45,49.9L14.87,50.66L15.3,50.91L15.73,50.16L17.86,48.89L18.28,47.88L18.71,47.38L19.13,47.88L19.56,47.63L19.99,48.14L20.41,46.37L21.69,44.35L22.12,44.35L23.82,36.52L24.25,35L24.67,35.26L25.1,37.02L26.38,29.95L26.8,30.21L28.93,24.4L29.36,24.65L30.21,21.37L30.64,22.88L31.49,18.59L31.92,19.35L32.34,17.33L32.77,18.84L33.2,20.61L34.47,18.08L34.9,15.81L35.75,15.56L36.18,13.79L37.46,20.36L37.88,15.56L38.31,15.31L38.74,16.32L40.87,10.76L41.29,10.26L41.72,7.73L42.14,8.99L42.57,7.48L43.42,6.47L43.85,7.73L44.27,7.23L44.7,7.98L45.13,7.48L45.55,9.5L46.41,6.22L46.83,6.72L47.26,7.23L47.68,5.96L48.11,6.22L48.54,6.47L48.96,7.73L49.39,5.46L49.81,4.95L50.24,5.46L50.67,7.48L51.95,6.97L52.37,7.48L52.8,6.72L53.22,7.23L53.65,7.48L54.08,7.23L54.5,4.95L54.93,5.96L55.35,4.7L55.78,5.71L56.21,4.7L57.06,7.48L57.48,6.72L57.91,7.48L59.19,6.22L59.62,5.96L60.04,7.48L60.47,6.72L60.89,7.23L61.32,5.46L61.75,6.47L62.17,6.72L63.45,7.23L63.88,6.47L64.3,6.22L64.73,7.48L65.58,8.74L66.01,6.72L66.43,8.24L66.86,7.73L67.29,7.98L67.71,9.5L68.14,7.48L68.56,8.74L68.99,8.49L69.42,6.22L70.27,8.99L70.69,8.74L72.4,7.23L72.82,8.24L73.25,7.73L73.68,8.74L74.1,8.74L74.53,7.98L74.96,9.25L75.38,7.48L76.23,8.49L76.66,7.73L77.09,7.23L77.51,8.74L78.36,9.25L78.79,7.48L79.22,6.72L79.64,8.24L80.49,6.47L80.92,8.49L82.2,8.49L82.63,7.98L83.05,6.97L83.48,7.98L84.33,8.24L84.76,6.47L86.03,8.74L86.46,7.48L87.31,6.97L87.74,8.74L88.16,6.47L88.59,7.73L89.02,7.23L89.44,6.22L89.87,7.48L91.15,7.73L91.57,6.97L92,7.98" style="vector-effect: none; fill: none; stroke: rgb(217, 95, 2); stroke-opacity: 1; stroke-width: 1.5px; opacity: 1;"/></g><g class="points"/><g class="text"/></g><g class="trace scatter tracedfaa72" style="stroke-miterlimit: 2; opacity: 1;"><g class="fills"/><g class="errorbars"/><g class="lines"><path class="js-line" d="M0.38,83.49L2.52,79.96L2.94,78.19L5.07,72.13L5.5,71.12L6.35,70.36L6.78,69.35L10.19,64.05L10.61,63.04L11.89,61.77L12.32,60.51L13.59,59.25L14.02,58.74L14.87,56.98L15.3,57.48L15.73,56.98L18.71,51.42L19.13,51.67L21.69,48.39L22.12,49.15L23.82,46.12L24.25,45.11L25.1,43.09L25.53,39.8L26.38,38.54L26.8,36.27L28.51,29.2L28.93,28.69L29.36,28.44L29.79,26.42L30.64,26.92L31.07,25.91L31.92,24.65L32.34,23.14L32.77,22.88L33.2,23.89L33.62,24.15L34.05,20.61L34.47,21.11L34.9,19.6L36.6,18.08L37.03,12.78L37.46,23.64L37.88,23.14L38.31,21.37L39.59,19.6L40.01,17.33L40.87,17.07L41.29,16.32L42.57,13.79L43,13.79L44.27,12.78L44.7,12.28L45.98,12.28L46.41,12.02L47.68,11.52L48.11,11.27L48.96,12.28L49.39,11.27L50.24,11.01L50.67,11.77L51.95,11.52L52.37,12.28L56.21,10.26L56.63,10.76L57.06,11.27L57.48,10.76L57.91,11.01L59.19,11.01L59.62,10L60.89,10.76L61.32,9.5L63.45,10.51L63.88,10L65.58,10.76L66.01,10.26L67.29,10.76L67.71,12.02L69.42,9.75L69.84,11.27L70.27,11.01L70.69,11.77L71.12,11.01L71.55,11.52L71.97,11.52L73.25,11.01L73.68,11.52L76.23,11.01L76.66,10.76L77.09,10L77.51,11.01L78.36,11.52L78.79,10.76L79.22,10.76L79.64,11.52L80.07,11.52L80.49,10.26L81.77,12.02L82.2,11.01L83.48,11.52L83.9,11.52L84.33,12.28L84.76,11.27L86.46,11.77L86.89,11.52L87.31,11.27L87.74,12.28L88.59,11.52L89.02,12.02L89.44,11.27L89.87,12.28L91.15,11.77L91.57,12.02L92,12.28" style="vector-effect: none; fill: none; stroke: rgb(217, 95, 2); stroke-opacity: 1; stroke-width: 1.5px; opacity: 1;"/></g><g class="points"/><g class="text"/></g><g class="trace scatter trace7bd53e" style="stroke-miterlimit: 2; opacity: 1;"><g class="fills"/><g class="errorbars"/><g class="lines"><path class="js-line" d="M0.38,83.49L2.52,79.2L2.94,76.93L5.07,69.6L5.5,68.09L8.48,63.79L8.91,63.54L11.04,59.75L11.46,59.75L13.17,57.99L13.59,57.48L14.02,57.23L14.45,55.97L14.87,56.22L15.3,55.46L15.73,55.46L16.15,54.7L18.28,51.42L18.71,50.66L19.13,50.66L19.56,49.9L21.26,47.63L21.69,49.4L22.97,47.38L23.4,47.13L24.67,43.34L25.1,42.58L26.8,34.25L27.23,32.23L28.08,30.96L28.51,28.69L29.79,26.17L30.21,26.67L30.64,27.43L32.34,23.89L32.77,24.4L33.2,25.16L33.62,24.9L34.05,21.87L34.47,22.38L34.9,21.11L36.6,19.6L37.03,14.3L37.46,15.56L37.88,21.11L38.31,24.4L38.74,22.88L39.16,22.13L42.14,14.04L42.57,13.03L44.27,11.01L44.7,11.27L46.83,8.74L47.26,8.99L48.54,8.24L48.96,9.25L49.81,7.73L50.24,8.24L51.52,9.5L51.95,9.5L52.8,9.75L53.22,9.5L53.65,10L54.08,9.5L54.5,8.99L54.93,9.5L55.35,8.99L55.78,8.74L56.21,8.49L56.63,9.25L57.06,10.26L57.48,9.75L57.91,10.26L59.19,10.26L59.62,9.25L60.89,10L61.32,8.74L63.02,10.26L63.45,10.26L64.73,10L65.15,10.76L65.58,10.76L66.01,9.75L67.71,12.02L68.14,10.76L68.99,10.76L69.42,9.75L69.84,11.52L70.27,11.27L70.69,11.77L71.55,11.01L71.97,11.27L72.4,10.51L72.82,10.76L73.25,11.01L74.53,11.01L74.96,10.76L75.81,10.76L76.23,11.01L77.09,10L77.51,11.01L78.36,11.27L78.79,10.51L79.22,10.26L79.64,11.01L80.07,11.01L80.49,9.75L81.77,11.27L82.2,10.51L83.48,11.01L83.9,10.76L84.33,11.52L84.76,10.76L85.18,11.01L87.31,10.76L87.74,11.52L88.59,10.76L89.02,11.27L89.44,10.51L89.87,11.27L90.3,11.01L92,11.52" style="vector-effect: none; fill: none; stroke: rgb(217, 95, 2); stroke-opacity: 1; stroke-width: 1.5px; opacity: 1;"/></g><g class="points"/><g class="text"/></g><g class="trace scatter trace0ca05f" style="stroke-miterlimit: 2; opacity: 1;"><g class="fills"/><g class="errorbars"/><g class="lines"><path class="js-line" d="M0.38,87.03L2.52,86.52L2.94,86.52L17.43,86.77L17.86,87.03L27.66,87.28L28.08,87.53L29.79,87.03L30.21,87.28L31.92,87.53L32.34,87.53L46.41,88.04L46.83,88.29L48.11,88.29L48.54,88.29L50.24,88.04L50.67,88.29L51.95,88.29L52.37,88.29L53.65,88.54L54.08,88.29L55.78,88.54L56.21,88.54L92,88.54" style="vector-effect: none; fill: none; stroke: rgb(217, 95, 2); stroke-opacity: 1; stroke-dasharray: 3px; stroke-width: 1.5px; opacity: 1;"/></g><g class="points"/><g class="text"/></g><g class="trace scatter tracee4e9ed" style="stroke-miterlimit: 2; opacity: 1;"><g class="fills"/><g class="errorbars"/><g class="lines"><path class="js-line" d="M0.38,87.28L36.18,87.28L36.6,87.53L50.67,88.04L51.09,88.29L69.42,88.79L69.84,89.05L70.27,88.29L70.69,88.79L71.12,88.79L92,89.05" style="vector-effect: none; fill: none; stroke: rgb(217, 95, 2); stroke-opacity: 1; stroke-dasharray: 3px; stroke-width: 1.5px; opacity: 1;"/></g><g class="points"/><g class="text"/></g><g class="trace scatter tracefa917f" style="stroke-miterlimit: 2; opacity: 1;"><g class="fills"/><g class="errorbars"/><g class="lines"><path class="js-line" d="M0.38,87.53L2.52,87.03L2.94,87.03L24.25,87.28L24.67,87.53L36.6,88.04L37.03,88.29L51.52,88.79L51.95,89.05L76.23,88.79L76.66,88.54L92,88.04" style="vector-effect: none; fill: none; stroke: rgb(217, 95, 2); stroke-opacity: 1; stroke-dasharray: 3px; stroke-width: 1.5px; opacity: 1;"/></g><g class="points"/><g class="text"/></g><g class="trace scatter trace7d9271" style="stroke-miterlimit: 2; opacity: 1;"><g class="fills"/><g class="errorbars"/><g class="lines"><path class="js-line" d="M0.38,85.01L0.81,85.26L1.24,84L2.52,81.47L2.94,81.22L3.79,80.97L4.22,80.46L5.07,79.2L5.5,78.19L6.35,77.68L6.78,77.18L7.2,77.18L7.63,76.42L14.45,72.13L14.87,71.12L16.15,69.35L16.58,69.6L17,67.33L17.43,68.59L17.86,67.33L19.13,64.55L19.56,65.06L25.1,46.87L25.53,42.83L27.23,38.03L27.66,34.25L29.36,27.68L29.79,25.41L30.64,24.65L31.07,20.36L31.92,20.1L32.34,19.35L34.05,15.31L34.47,15.56L35.33,15.56L35.75,12.78L36.18,13.79L36.6,13.03L37.03,12.78L38.74,8.74L39.16,16.06L39.59,20.61L40.01,19.09L40.44,17.07L40.87,17.83L41.29,16.82L43,12.02L43.42,13.03L43.85,12.78L44.27,11.52L45.55,12.02L45.98,10L46.83,10.26L47.26,9.5L47.68,8.74L48.11,9.75L48.54,8.49L48.96,8.74L49.39,10.51L50.67,7.73L51.09,8.49L52.37,8.24L52.8,8.99L53.22,7.98L53.65,8.49L54.08,8.24L54.5,8.74L54.93,7.98L55.35,7.98L55.78,8.74L56.63,7.98L57.06,8.74L57.48,8.49L57.91,9.25L59.62,8.49L60.04,9.5L63.45,9.25L63.88,9.75L64.73,9.25L65.15,9.5L66.43,10L66.86,9.25L67.29,8.49L67.71,10L68.56,8.99L68.99,9.75L69.42,8.74L69.84,9.5L70.27,9.75L71.12,8.74L71.55,9.75L72.82,9.25L73.25,9.75L74.96,8.99L75.38,9.5L75.81,9.75L76.23,8.99L77.51,8.74L77.94,9.75L79.22,9.25L79.64,9.25L80.49,9.75L80.92,9.5L82.2,9.5L82.63,9.5L83.05,9.5L83.48,10.26L85.18,8.49L85.61,8.24L86.89,10L87.31,9.5L88.59,8.99L89.02,9.25L89.44,9.75L89.87,8.99L91.57,9.25L92,8.99" style="vector-effect: none; fill: none; stroke: rgb(217, 95, 2); stroke-opacity: 1; stroke-dasharray: 1px; stroke-width: 1.5px; opacity: 1;"/></g><g class="points"/><g class="text"/></g><g class="trace scatter trace148483" style="stroke-miterlimit: 2; opacity: 1;"><g class="fills"/><g class="errorbars"/><g class="lines"><path class="js-line" d="M0.38,84.25L5.07,80.97L5.5,79.7L6.35,79.2L6.78,78.69L11.46,75.16L11.89,74.65L13.59,73.14L14.02,72.89L15.73,70.86L16.15,70.86L18.28,68.84L18.71,68.59L20.41,65.56L20.84,63.04L22.54,57.48L22.97,56.72L25.53,46.12L25.95,44.6L27.66,34.75L28.08,33.49L30.21,27.18L30.64,27.43L31.07,23.14L31.92,22.88L32.34,22.38L34.47,18.34L34.9,18.84L35.33,18.34L35.75,16.06L37.03,16.06L37.46,14.3L38.74,12.28L39.16,10.76L40.01,21.62L40.44,20.36L41.29,20.1L41.72,18.84L43,16.57L43.42,16.82L43.85,16.57L44.27,14.8L44.7,15.31L45.13,15.05L46.83,13.29L47.26,12.28L48.11,12.53L48.54,11.77L48.96,11.27L49.39,12.53L50.67,10.76L51.09,11.52L51.52,11.77L51.95,11.01L52.8,11.27L53.22,10.26L54.5,11.52L54.93,11.01L55.35,10.51L55.78,11.27L57.48,11.52L57.91,11.77L59.62,11.52L60.04,12.28L60.89,12.28L61.32,12.02L62.17,11.77L62.6,12.28L63.45,12.28L63.88,12.53L66.86,12.53L67.29,11.77L68.14,13.03L68.56,12.28L68.99,12.78L69.42,12.28L69.84,12.53L71.97,13.03L72.4,13.03L79.64,13.54L80.07,13.79L86.46,13.79L86.89,14.3L88.16,14.04L88.59,14.04L91.57,13.79L92,13.29" style="vector-effect: none; fill: none; stroke: rgb(217, 95, 2); stroke-opacity: 1; stroke-dasharray: 1px; stroke-width: 1.5px; opacity: 1;"/></g><g class="points"/><g class="text"/></g><g class="trace scatter trace03b58f" style="stroke-miterlimit: 2; opacity: 1;"><g class="fills"/><g class="errorbars"/><g class="lines"><path class="js-line" d="M0.38,85.76L3.37,82.99L3.79,82.73L5.07,80.97L5.5,79.45L6.35,78.95L6.78,78.19L13.59,70.86L14.02,70.36L17.86,65.81L18.28,64.05L22.12,57.48L22.54,55.71L24.25,47.38L24.67,44.6L25.95,39.55L26.38,33.24L26.8,34.25L27.23,31.97L28.51,26.42L28.93,25.91L30.21,21.87L30.64,22.13L31.07,18.34L31.49,18.59L31.92,17.83L32.34,17.58L32.77,16.32L33.2,16.57L33.62,15.56L34.47,14.04L34.9,14.3L35.33,13.79L35.75,11.77L37.03,12.02L37.46,10.51L39.16,6.22L39.59,8.49L40.44,18.08L40.87,18.34L42.14,16.32L42.57,15.05L43.85,14.8L44.27,13.29L45.55,13.29L45.98,11.77L46.83,11.77L47.26,10.26L48.11,10.76L48.54,9.75L48.96,9.5L49.39,10.26L50.67,8.99L51.09,9.25L51.52,9.75L51.95,9.25L52.37,9.25L52.8,9.5L53.22,8.24L54.93,9.25L55.35,8.99L55.78,9.75L56.21,9.5L56.63,9.25L57.91,10.26L58.34,10L60.47,10.76L60.89,10.51L62.17,10.26L62.6,10.76L63.45,10.51L63.88,11.01L65.15,11.01L65.58,11.27L66.86,11.27L67.29,10.26L68.14,11.52L68.56,11.27L70.27,11.77L70.69,11.52L72.4,11.77L72.82,11.77L74.1,11.77L74.53,11.77L76.23,12.02L76.66,11.77L79.22,12.53L79.64,12.53L80.92,12.53L81.35,12.53L81.77,13.03L82.2,12.53L82.63,12.53L85.61,12.28L86.03,13.29L87.74,12.78L88.16,13.29L89.02,12.78L89.44,13.29L92,12.28" style="vector-effect: none; fill: none; stroke: rgb(217, 95, 2); stroke-opacity: 1; stroke-dasharray: 1px; stroke-width: 1.5px; opacity: 1;"/></g><g class="points"/><g class="text"/></g></g></g></g><path class="xlines-above crisp" d="M37.5,114.25H130.5M37.5,19.75H130.5" style="fill: none; stroke-width: 0.5px; stroke: rgb(0, 0, 0); stroke-opacity: 1;"/><path class="ylines-above crisp" d="M37.75,20V114M130.25,20V114" style="fill: none; stroke-width: 0.5px; stroke: rgb(0, 0, 0); stroke-opacity: 1;"/><g class="overlines-above"/><g class="xaxislayer-above"><path class="xtick ticks crisp" d="M0,114v-5" transform="translate(63.57,0)" style="stroke: rgb(68, 68, 68); stroke-opacity: 1; stroke-width: 1px;"/><path class="xtick ticks crisp" d="M0,114v-5" transform="translate(89.13,0)" style="stroke: rgb(68, 68, 68); stroke-opacity: 1; stroke-width: 1px;"/><path class="xtick ticks crisp" d="M0,114v-5" transform="translate(114.7,0)" style="stroke: rgb(68, 68, 68); stroke-opacity: 1; stroke-width: 1px;"/><g class="xtick"><text text-anchor="middle" x="0" y="127.7" transform="translate(38,0)" style="font-family: 'Open Sans', verdana, arial, sans-serif; font-size: 11px; fill: rgb(0, 0, 0); fill-opacity: 1; white-space: pre; opacity: 1;">0</text></g><g class="xtick"><text text-anchor="middle" x="0" y="127.7" style="font-family: 'Open Sans', verdana, arial, sans-serif; font-size: 11px; fill: rgb(0, 0, 0); fill-opacity: 1; white-space: pre; opacity: 1;" transform="translate(63.57,0)">10</text></g><g class="xtick"><text text-anchor="middle" x="0" y="127.7" style="font-family: 'Open Sans', verdana, arial, sans-serif; font-size: 11px; fill: rgb(0, 0, 0); fill-opacity: 1; white-space: pre; opacity: 1;" transform="translate(89.13,0)">20</text></g><g class="xtick"><text text-anchor="middle" x="0" y="127.7" style="font-family: 'Open Sans', verdana, arial, sans-serif; font-size: 11px; fill: rgb(0, 0, 0); fill-opacity: 1; white-space: pre; opacity: 1;" transform="translate(114.7,0)">30</text></g></g><g class="yaxislayer-above"><path class="ytick ticks crisp" d="M38,0h5" transform="translate(0,111.32)" style="stroke: rgb(68, 68, 68); stroke-opacity: 1; stroke-width: 1px;"/><path class="ytick ticks crisp" d="M38,0h5" transform="translate(0,86.07)" style="stroke: rgb(68, 68, 68); stroke-opacity: 1; stroke-width: 1px;"/><path class="ytick ticks crisp" d="M38,0h5" transform="translate(0,60.81)" style="stroke: rgb(68, 68, 68); stroke-opacity: 1; stroke-width: 1px;"/><path class="ytick ticks crisp" d="M38,0h5" transform="translate(0,35.56)" style="stroke: rgb(68, 68, 68); stroke-opacity: 1; stroke-width: 1px;"/><g class="ytick"><text text-anchor="end" x="35.3" y="3.8499999999999996" transform="translate(0,111.32)" style="font-family: 'Open Sans', verdana, arial, sans-serif; font-size: 11px; fill: rgb(0, 0, 0); fill-opacity: 1; white-space: pre; opacity: 1;">0</text></g><g class="ytick"><text text-anchor="end" x="35.3" y="3.8499999999999996" style="font-family: 'Open Sans', verdana, arial, sans-serif; font-size: 11px; fill: rgb(0, 0, 0); fill-opacity: 1; white-space: pre; opacity: 1;" transform="translate(0,86.07)">0.1</text></g><g class="ytick"><text text-anchor="end" x="35.3" y="3.8499999999999996" style="font-family: 'Open Sans', verdana, arial, sans-serif; font-size: 11px; fill: rgb(0, 0, 0); fill-opacity: 1; white-space: pre; opacity: 1;" transform="translate(0,60.81)">0.2</text></g><g class="ytick"><text text-anchor="end" x="35.3" y="3.8499999999999996" style="font-family: 'Open Sans', verdana, arial, sans-serif; font-size: 11px; fill: rgb(0, 0, 0); fill-opacity: 1; white-space: pre; opacity: 1;" transform="translate(0,35.56)">0.3</text></g></g><g class="overaxes-above"/></g></g><g class="polarlayer"/><g class="smithlayer"/><g class="ternarylayer"/><g class="geolayer"/><g class="funnelarealayer"/><g class="pielayer"/><g class="iciclelayer"/><g class="treemaplayer"/><g class="sunburstlayer"/><g class="glimages"/><defs id="topdefs-6099cc"><g class="clips"/></defs><g class="layer-above"><g class="imagelayer"/><g class="shapelayer"/></g><g class="infolayer"><g class="g-gtitle"><text class="gtitle" x="7.5" y="10" text-anchor="start" dy="0em" style="opacity: 1; font-family: 'Open Sans', verdana, arial, sans-serif; font-size: 11px; fill: rgb(0, 0, 0); fill-opacity: 1; white-space: pre;">Batch cultures in minimal media</text></g><g class="g-xtitle" transform="translate(0,4.550000000000011)"><text class="xtitle" x="84" y="138.153125" text-anchor="middle" style="opacity: 1; font-family: 'Open Sans', verdana, arial, sans-serif; font-size: 11px; fill: rgb(0, 0, 0); fill-opacity: 1; white-space: pre;">Time [h]</text></g><g class="g-ytitle"><text class="ytitle" transform="rotate(-90,16.18125,67)" x="16.18125" y="67" text-anchor="middle" style="opacity: 1; font-family: 'Open Sans', verdana, arial, sans-serif; font-size: 11px; fill: rgb(0, 0, 0); fill-opacity: 1; white-space: pre;">OD</text></g></g></svg>