<svg class="main-svg" xmlns="http://www.w3.org/2000/svg" xmlns:xlink="http://www.w3.org/1999/xlink" width="150" height="150" style="" viewBox="0 0 150 150"><rect x="0" y="0" width="150" height="150" style="fill: rgb(255, 255, 255); fill-opacity: 1;"/><defs id="defs-523f3a"><g class="clips"><clipPath id="clip523f3axyplot" class="plotclip"><rect width="105" height="100"/></clipPath><clipPath class="axesclip" id="clip523f3ax"><rect x="45" y="0" width="105" height="150"/></clipPath><clipPath class="axesclip" id="clip523f3ay"><rect x="0" y="20" width="150" height="100"/></clipPath><clipPath class="axesclip" id="clip523f3axy"><rect x="45" y="20" width="105" height="100"/></clipPath></g><g class="gradients"/><g class="patterns"/></defs><g class="bglayer"/><g class="layer-below"><g class="imagelayer"/><g class="shapelayer"/></g><g class="cartesianlayer"><g class="subplot xy"><g class="layer-subplot"><g class="shapelayer"/><g class="imagelayer"/></g><g class="minor-gridlayer"><g class="x"/><g class="y"/></g><g class="gridlayer"><g class="x"><path class="xgrid crisp" transform="translate(53.25,0)" d="M0,20v100" style="stroke: rgb(128, 128, 128); stroke-opacity: 1; stroke-width: 0.2px;"/><path class="xgrid crisp" transform="translate(75.94,0)" d="M0,20v100" style="stroke: rgb(128, 128, 128); stroke-opacity: 1; stroke-width: 0.2px;"/><path class="xgrid crisp" transform="translate(98.63,0)" d="M0,20v100" style="stroke: rgb(128, 128, 128); stroke-opacity: 1; stroke-width: 0.2px;"/><path class="xgrid crisp" transform="translate(121.33,0)" d="M0,20v100" style="stroke: rgb(128, 128, 128); stroke-opacity: 1; stroke-width: 0.2px;"/><path class="xgrid crisp" transform="translate(144.01999999999998,0)" d="M0,20v100" style="stroke: rgb(128, 128, 128); stroke-opacity: 1; stroke-width: 0.2px;"/></g><g class="y"><path class="ygrid crisp" transform="translate(0,104.95)" d="M45,0h105" style="stroke: rgb(128, 128, 128); stroke-opacity: 1; stroke-width: 0.2px;"/><path class="ygrid crisp" transform="translate(0,85.05)" d="M45,0h105" style="stroke: rgb(128, 128, 128); stroke-opacity: 1; stroke-width: 0.2px;"/><path class="ygrid crisp" transform="translate(0,70)" d="M45,0h105" style="stroke: rgb(128, 128, 128); stroke-opacity: 1; stroke-width: 0.2px;"/><path class="ygrid crisp" transform="translate(0,54.95)" d="M45,0h105" style="stroke: rgb(128, 128, 128); stroke-opacity: 1; stroke-width: 0.2px;"/><path class="ygrid crisp" transform="translate(0,35.05)" d="M45,0h105" style="stroke: rgb(128, 128, 128); stroke-opacity: 1; stroke-width: 0.2px;"/></g></g><g class="zerolinelayer"/><g class="layer-between"><g class="shapelayer"/><g class="imagelayer"/></g><path class="xlines-below"/><path class="ylines-below"/><g class="overlines-below"/><g class="xaxislayer-below"/><g class="yaxislayer-below"/><g class="overaxes-below"/><g class="overplot"><g class="xy" transform="translate(45,20)" clip-path="url(#clip523f3axyplot)"><g class="scatterlayer mlayer"><g class="trace scatter tracee085ed" style="stroke-miterlimit: 2; opacity: 1;"><g class="fills"/><g class="errorbars"><g class="errorbar"><path class="yerror" d="M4.25,66.68h8m-4,0V69.75m-4,0h8" style="vector-effect: none; stroke-width: 0.75px; stroke: rgb(117, 112, 179); stroke-opacity: 1;"/></g><g class="errorbar"><path class="yerror" d="M21.95,28.26h8m-4,0V44.66m-4,0h8" style="vector-effect: none; stroke-width: 0.75px; stroke: rgb(117, 112, 179); stroke-opacity: 1;"/></g><g class="errorbar"><path class="yerror" d="M38.29,67.34h8m-4,0V77.38m-4,0h8" style="vector-effect: none; stroke-width: 0.75px; stroke: rgb(117, 112, 179); stroke-opacity: 1;"/></g><g class="errorbar"><path class="yerror" d="M60.980000000000004,37.57h8m-4,0V46.76m-4,0h8" style="vector-effect: none; stroke-width: 0.75px; stroke: rgb(117, 112, 179); stroke-opacity: 1;"/></g><g class="errorbar"><path class="yerror" d="M92.75,54.85h8m-4,0V69.9m-4,0h8" style="vector-effect: none; stroke-width: 0.75px; stroke: rgb(117, 112, 179); stroke-opacity: 1;"/></g></g><g class="lines"><path class="js-line" d="M8.25,68.16L25.95,34.95L42.29,71.79L64.98,41.68L96.75,61.09" style="vector-effect: none; fill: none; stroke: rgb(117, 112, 179); stroke-opacity: 1; stroke-width: 1.5px; opacity: 1;"/></g><g class="points"><path class="point" transform="translate(8.25,68.16)" d="M1.5,0A1.5,1.5 0 1,1 0,-1.5A1.5,1.5 0 0,1 1.5,0Z" style="opacity: 1; stroke-width: 0px; fill: rgb(117, 112, 179); fill-opacity: 1;"/><path class="point" transform="translate(25.95,34.95)" d="M1.5,0A1.5,1.5 0 1,1 0,-1.5A1.5,1.5 0 0,1 1.5,0Z" style="opacity: 1; stroke-width: 0px; fill: rgb(117, 112, 179); fill-opacity: 1;"/><path class="point" transform="translate(42.29,71.79)" d="M1.5,0A1.5,1.5 0 1,1 0,-1.5A1.5,1.5 0 0,1 1.5,0Z" style="opacity: 1; stroke-width: 0px; fill: rgb(117, 112, 179); fill-opacity: 1;"/><path class="point" transform="translate(64.98,41.68)" d="M1.5,0A1.5,1.5 0 1,1 0,-1.5A1.5,1.5 0 0,1 1.5,0Z" style="opacity: 1; stroke-width: 0px; fill: rgb(117, 112, 179); fill-opacity: 1;"/><path class="point" transform="translate(96.75,61.09)" d="M1.5,0A1.5,1.5 0 1,1 0,-1.5A1.5,1.5 0 0,1 1.5,0Z" style="opacity: 1; stroke-width: 0px; fill: rgb(117, 112, 179); fill-opacity: 1;"/></g><g class="text"/></g><g class="trace scatter trace84fdff" style="stroke-miterlimit: 2; opacity: 1;"><g class="fills"/><g class="errorbars"><g class="errorbar"><path class="yerror" d="M4.25,66.68h8m-4,0V69.75m-4,0h8" style="vector-effect: none; stroke-width: 0.75px; stroke: rgb(117, 112, 179); stroke-opacity: 1;"/></g><g class="errorbar"><path class="yerror" d="M21.95,37.57h8m-4,0V46.76m-4,0h8" style="vector-effect: none; stroke-width: 0.75px; stroke: rgb(117, 112, 179); stroke-opacity: 1;"/></g><g class="errorbar"><path class="yerror" d="M38.29,46.04h8m-4,0V54.85m-4,0h8" style="vector-effect: none; stroke-width: 0.75px; stroke: rgb(117, 112, 179); stroke-opacity: 1;"/></g><g class="errorbar"><path class="yerror" d="M60.980000000000004,37.89h8m-4,0V48.87m-4,0h8" style="vector-effect: none; stroke-width: 0.75px; stroke: rgb(117, 112, 179); stroke-opacity: 1;"/></g><g class="errorbar"><path class="yerror" d="M92.75,46.7h8m-4,0V57.67m-4,0h8" style="vector-effect: none; stroke-width: 0.75px; stroke: rgb(117, 112, 179); stroke-opacity: 1;"/></g></g><g class="lines"><path class="js-line" d="M8.25,68.16L25.95,41.68L42.29,50L64.98,42.69L96.75,51.5" style="vector-effect: none; fill: none; stroke: rgb(117, 112, 179); stroke-opacity: 1; stroke-width: 1.5px; opacity: 1;"/></g><g class="points"><path class="point" transform="translate(8.25,68.16)" d="M1.5,0A1.5,1.5 0 1,1 0,-1.5A1.5,1.5 0 0,1 1.5,0Z" style="opacity: 1; stroke-width: 0px; fill: rgb(117, 112, 179); fill-opacity: 1;"/><path class="point" transform="translate(25.95,41.68)" d="M1.5,0A1.5,1.5 0 1,1 0,-1.5A1.5,1.5 0 0,1 1.5,0Z" style="opacity: 1; stroke-width: 0px; fill: rgb(117, 112, 179); fill-opacity: 1;"/><path class="point" transform="translate(42.29,50)" d="M1.5,0A1.5,1.5 0 1,1 0,-1.5A1.5,1.5 0 0,1 1.5,0Z" style="opacity: 1; stroke-width: 0px; fill: rgb(117, 112, 179); fill-opacity: 1;"/><path class="point" transform="translate(64.98,42.69)" d="M1.5,0A1.5,1.5 0 1,1 0,-1.5A1.5,1.5 0 0,1 1.5,0Z" style="opacity: 1; stroke-width: 0px; fill: rgb(117, 112, 179); fill-opacity: 1;"/><path class="point" transform="translate(96.75,51.5)" d="M1.5,0A1.5,1.5 0 1,1 0,-1.5A1.5,1.5 0 0,1 1.5,0Z" style="opacity: 1; stroke-width: 0px; fill: rgb(117, 112, 179); fill-opacity: 1;"/></g><g class="text"/></g><g class="trace scatter trace0de7ef" style="stroke-miterlimit: 2; opacity: 1;"><g class="fills"/><g class="errorbars"><g class="errorbar"><path class="yerror" d="M4.25,66.68h8m-4,0V69.75m-4,0h8" style="vector-effect: none; stroke-width: 0.75px; stroke: rgb(117, 112, 179); stroke-opacity: 1;"/></g><g class="errorbar"><path class="yerror" d="M21.95,29.25h8m-4,0V37.24m-4,0h8" style="vector-effect: none; stroke-width: 0.75px; stroke: rgb(117, 112, 179); stroke-opacity: 1;"/></g><g class="errorbar"><path class="yerror" d="M38.29,36.14h8m-4,0V64.74m-4,0h8" style="vector-effect: none; stroke-width: 0.75px; stroke: rgb(117, 112, 179); stroke-opacity: 1;"/></g><g class="errorbar"><path class="yerror" d="M60.980000000000004,40.28h8m-4,0V47.88m-4,0h8" style="vector-effect: none; stroke-width: 0.75px; stroke: rgb(117, 112, 179); stroke-opacity: 1;"/></g><g class="errorbar"><path class="yerror" d="M92.75,37.57h8m-4,0V46.76m-4,0h8" style="vector-effect: none; stroke-width: 0.75px; stroke: rgb(117, 112, 179); stroke-opacity: 1;"/></g></g><g class="lines"><path class="js-line" d="M8.25,68.16L25.95,32.88L42.29,46.04L64.98,43.75L96.75,41.68" style="vector-effect: none; fill: none; stroke: rgb(117, 112, 179); stroke-opacity: 1; stroke-width: 1.5px; opacity: 1;"/></g><g class="points"><path class="point" transform="translate(8.25,68.16)" d="M1.5,0A1.5,1.5 0 1,1 0,-1.5A1.5,1.5 0 0,1 1.5,0Z" style="opacity: 1; stroke-width: 0px; fill: rgb(117, 112, 179); fill-opacity: 1;"/><path class="point" transform="translate(25.95,32.88)" d="M1.5,0A1.5,1.5 0 1,1 0,-1.5A1.5,1.5 0 0,1 1.5,0Z" style="opacity: 1; stroke-width: 0px; fill: rgb(117, 112, 179); fill-opacity: 1;"/><path class="point" transform="translate(42.29,46.04)" d="M1.5,0A1.5,1.5 0 1,1 0,-1.5A1.5,1.5 0 0,1 1.5,0Z" style="opacity: 1; stroke-width: 0px; fill: rgb(117, 112, 179); fill-opacity: 1;"/><path class="point" transform="translate(64.98,43.75)" d="M1.5,0A1.5,1.5 0 1,1 0,-1.5A1.5,1.5 0 0,1 1.5,0Z" style="opacity: 1; stroke-width: 0px; fill: rgb(117, 112, 179); fill-opacity: 1;"/><path class="point" transform="translate(96.75,41.68)" d="M1.5,0A1.5,1.5 0 1,1 0,-1.5A1.5,1.5 0 0,1 1.5,0Z" style="opacity: 1; stroke-width: 0px; fill: rgb(117, 112, 179); fill-opacity: 1;"/></g><g class="text"/></g><g class="trace scatter traced0ed8e" style="stroke-miterlimit: 2; opacity: 1;"><g class="fills"/><g class="errorbars"><g class="errorbar"><path class="yerror" d="M4.25,96.04h8m-4,0V104.85m-4,0h8" style="vector-effect: none; stroke-width: 0.75px; stroke: rgb(217, 95, 2); stroke-opacity: 1;"/></g><g class="errorbar"><path class="yerror" d="M21.95,29.49h8m-4,0V35.37m-4,0h8" style="vector-effect: none; stroke-width: 0.75px; stroke: rgb(217, 95, 2); stroke-opacity: 1;"/></g><g class="errorbar"><path class="yerror" d="M38.29,40.18h8m-4,0V50.86m-4,0h8" style="vector-effect: none; stroke-width: 0.75px; stroke: rgb(217, 95, 2); stroke-opacity: 1;"/></g><g class="errorbar"><path class="yerror" d="M60.980000000000004,24.51h8m-4,0V49.32m-4,0h8" style="vector-effect: none; stroke-width: 0.75px; stroke: rgb(217, 95, 2); stroke-opacity: 1;"/></g><g class="errorbar"><path class="yerror" d="M92.75,24.04h8m-4,0V50.85m-4,0h8" style="vector-effect: none; stroke-width: 0.75px; stroke: rgb(217, 95, 2); stroke-opacity: 1;"/></g></g><g class="lines"><path class="js-line" d="M8.25,100L25.95,32.23L42.29,44.87L64.98,33.55L96.75,33.55" style="vector-effect: none; fill: none; stroke: rgb(217, 95, 2); stroke-opacity: 1; stroke-width: 1.5px; opacity: 1;"/></g><g class="points"><path class="point" transform="translate(8.25,100)" d="M1.5,0A1.5,1.5 0 1,1 0,-1.5A1.5,1.5 0 0,1 1.5,0Z" style="opacity: 1; stroke-width: 0px; fill: rgb(217, 95, 2); fill-opacity: 1;"/><path class="point" transform="translate(25.95,32.23)" d="M1.5,0A1.5,1.5 0 1,1 0,-1.5A1.5,1.5 0 0,1 1.5,0Z" style="opacity: 1; stroke-width: 0px; fill: rgb(217, 95, 2); fill-opacity: 1;"/><path class="point" transform="translate(42.29,44.87)" d="M1.5,0A1.5,1.5 0 1,1 0,-1.5A1.5,1.5 0 0,1 1.5,0Z" style="opacity: 1; stroke-width: 0px; fill: rgb(217, 95, 2); fill-opacity: 1;"/><path class="point" transform="translate(64.98,33.55)" d="M1.5,0A1.5,1.5 0 1,1 0,-1.5A1.5,1.5 0 0,1 1.5,0Z" style="opacity: 1; stroke-width: 0px; fill: rgb(217, 95, 2); fill-opacity: 1;"/><path class="point" transform="translate(96.75,33.55)" d="M1.5,0A1.5,1.5 0 1,1 0,-1.5A1.5,1.5 0 0,1 1.5,0Z" style="opacity: 1; stroke-width: 0px; fill: rgb(217, 95, 2); fill-opacity: 1;"/></g><g class="text"/></g><g class="trace scatter trace47279c" style="stroke-miterlimit: 2; opacity: 1;"><g class="fills"/><g class="errorbars"><g class="errorbar"><path class="yerror" d="M4.25,96.04h8m-4,0V104.85m-4,0h8" style="vector-effect: none; stroke-width: 0.75px; stroke: rgb(217, 95, 2); stroke-opacity: 1;"/></g><g class="errorbar"><path class="yerror" d="M21.95,26.72h8m-4,0V41.5m-4,0h8" style="vector-effect: none; stroke-width: 0.75px; stroke: rgb(217, 95, 2); stroke-opacity: 1;"/></g><g class="errorbar"><path class="yerror" d="M38.29,21.19h8m-4,0V40.27m-4,0h8" style="vector-effect: none; stroke-width: 0.75px; stroke: rgb(217, 95, 2); stroke-opacity: 1;"/></g><g class="errorbar"><path class="yerror" d="M60.980000000000004,28.06h8m-4,0V34.37m-4,0h8" style="vector-effect: none; stroke-width: 0.75px; stroke: rgb(217, 95, 2); stroke-opacity: 1;"/></g><g class="errorbar"><path class="yerror" d="M92.75,31.64h8m-4,0V44.8m-4,0h8" style="vector-effect: none; stroke-width: 0.75px; stroke: rgb(217, 95, 2); stroke-opacity: 1;"/></g></g><g class="lines"><path class="js-line" d="M8.25,100L25.95,32.88L42.29,28.7L64.98,30.99L96.75,37.24" style="vector-effect: none; fill: none; stroke: rgb(217, 95, 2); stroke-opacity: 1; stroke-width: 1.5px; opacity: 1;"/></g><g class="points"><path class="point" transform="translate(8.25,100)" d="M1.5,0A1.5,1.5 0 1,1 0,-1.5A1.5,1.5 0 0,1 1.5,0Z" style="opacity: 1; stroke-width: 0px; fill: rgb(217, 95, 2); fill-opacity: 1;"/><path class="point" transform="translate(25.95,32.88)" d="M1.5,0A1.5,1.5 0 1,1 0,-1.5A1.5,1.5 0 0,1 1.5,0Z" style="opacity: 1; stroke-width: 0px; fill: rgb(217, 95, 2); fill-opacity: 1;"/><path class="point" transform="translate(42.29,28.7)" d="M1.5,0A1.5,1.5 0 1,1 0,-1.5A1.5,1.5 0 0,1 1.5,0Z" style="opacity: 1; stroke-width: 0px; fill: rgb(217, 95, 2); fill-opacity: 1;"/><path class="point" transform="translate(64.98,30.99)" d="M1.5,0A1.5,1.5 0 1,1 0,-1.5A1.5,1.5 0 0,1 1.5,0Z" style="opacity: 1; stroke-width: 0px; fill: rgb(217, 95, 2); fill-opacity: 1;"/><path class="point" transform="translate(96.75,37.24)" d="M1.5,0A1.5,1.5 0 1,1 0,-1.5A1.5,1.5 0 0,1 1.5,0Z" style="opacity: 1; stroke-width: 0px; fill: rgb(217, 95, 2); fill-opacity: 1;"/></g><g class="text"/></g><g class="trace scatter tracee6075f" style="stroke-miterlimit: 2; opacity: 1;"><g class="fills"/><g class="errorbars"><g class="errorbar"><path class="yerror" d="M4.25,96.04h8m-4,0V104.85m-4,0h8" style="vector-effect: none; stroke-width: 0.75px; stroke: rgb(217, 95, 2); stroke-opacity: 1;"/></g><g class="errorbar"><path class="yerror" d="M21.95,31.64h8m-4,0V44.8m-4,0h8" style="vector-effect: none; stroke-width: 0.75px; stroke: rgb(217, 95, 2); stroke-opacity: 1;"/></g><g class="errorbar"><path class="yerror" d="M38.29,39.14h8m-4,0V42.42m-4,0h8" style="vector-effect: none; stroke-width: 0.75px; stroke: rgb(217, 95, 2); stroke-opacity: 1;"/></g><g class="errorbar"><path class="yerror" d="M60.980000000000004,29.25h8m-4,0V50m-4,0h8" style="vector-effect: none; stroke-width: 0.75px; stroke: rgb(217, 95, 2); stroke-opacity: 1;"/></g><g class="errorbar"><path class="yerror" d="M92.75,34.07h8m-4,0V45.15m-4,0h8" style="vector-effect: none; stroke-width: 0.75px; stroke: rgb(217, 95, 2); stroke-opacity: 1;"/></g></g><g class="lines"><path class="js-line" d="M8.25,100L25.95,37.24L42.29,40.72L64.98,37.24L96.75,38.91" style="vector-effect: none; fill: none; stroke: rgb(217, 95, 2); stroke-opacity: 1; stroke-width: 1.5px; opacity: 1;"/></g><g class="points"><path class="point" transform="translate(8.25,100)" d="M1.5,0A1.5,1.5 0 1,1 0,-1.5A1.5,1.5 0 0,1 1.5,0Z" style="opacity: 1; stroke-width: 0px; fill: rgb(217, 95, 2); fill-opacity: 1;"/><path class="point" transform="translate(25.95,37.24)" d="M1.5,0A1.5,1.5 0 1,1 0,-1.5A1.5,1.5 0 0,1 1.5,0Z" style="opacity: 1; stroke-width: 0px; fill: rgb(217, 95, 2); fill-opacity: 1;"/><path class="point" transform="translate(42.29,40.72)" d="M1.5,0A1.5,1.5 0 1,1 0,-1.5A1.5,1.5 0 0,1 1.5,0Z" style="opacity: 1; stroke-width: 0px; fill: rgb(217, 95, 2); fill-opacity: 1;"/><path class="point" transform="translate(64.98,37.24)" d="M1.5,0A1.5,1.5 0 1,1 0,-1.5A1.5,1.5 0 0,1 1.5,0Z" style="opacity: 1; stroke-width: 0px; fill: rgb(217, 95, 2); fill-opacity: 1;"/><path class="point" transform="translate(96.75,38.91)" d="M1.5,0A1.5,1.5 0 1,1 0,-1.5A1.5,1.5 0 0,1 1.5,0Z" style="opacity: 1; stroke-width: 0px; fill: rgb(217, 95, 2); fill-opacity: 1;"/></g><g class="text"/></g></g></g></g><path class="xlines-above crisp" d="M44.5,120.25H150.5M44.5,19.75H150.5" style="fill: none; stroke-width: 0.5px; stroke: rgb(0, 0, 0); stroke-opacity: 1;"/><path class="ylines-above crisp" d="M44.75,20V120M150.25,20V120" style="fill: none; stroke-width: 0.5px; stroke: rgb(0, 0, 0); stroke-opacity: 1;"/><g class="overlines-above"/><g class="xaxislayer-above"><path class="xtick ticks crisp" d="M0,120v-5" transform="translate(53.25,0)" style="stroke: rgb(0, 0, 0); stroke-opacity: 1; stroke-width: 0.5px;"/><path class="xtick ticks crisp" d="M0,120v-5" transform="translate(75.94,0)" style="stroke: rgb(0, 0, 0); stroke-opacity: 1; stroke-width: 0.5px;"/><path class="xtick ticks crisp" d="M0,120v-5" transform="translate(98.63,0)" style="stroke: rgb(0, 0, 0); stroke-opacity: 1; stroke-width: 0.5px;"/><path class="xtick ticks crisp" d="M0,120v-5" transform="translate(121.33,0)" style="stroke: rgb(0, 0, 0); stroke-opacity: 1; stroke-width: 0.5px;"/><path class="xtick ticks crisp" d="M0,120v-5" transform="translate(144.01999999999998,0)" style="stroke: rgb(0, 0, 0); stroke-opacity: 1; stroke-width: 0.5px;"/><g class="xtick"><text text-anchor="middle" x="0" y="133.7" transform="translate(53.25,0)" style="font-family: 'Open Sans', verdana, arial, sans-serif; font-size: 11px; fill: rgb(0, 0, 0); fill-opacity: 1; white-space: pre; opacity: 1;">0</text></g><g class="xtick"><text text-anchor="middle" x="0" y="133.7" style="font-family: 'Open Sans', verdana, arial, sans-serif; font-size: 11px; fill: rgb(0, 0, 0); fill-opacity: 1; white-space: pre; opacity: 1;" transform="translate(75.94,0)">10</text></g><g class="xtick"><text text-anchor="middle" x="0" y="133.7" style="font-family: 'Open Sans', verdana, arial, sans-serif; font-size: 11px; fill: rgb(0, 0, 0); fill-opacity: 1; white-space: pre; opacity: 1;" transform="translate(98.63,0)">20</text></g><g class="xtick"><text text-anchor="middle" x="0" y="133.7" style="font-family: 'Open Sans', verdana, arial, sans-serif; font-size: 11px; fill: rgb(0, 0, 0); fill-opacity: 1; white-space: pre; opacity: 1;" transform="translate(121.33,0)">30</text></g><g class="xtick"><text text-anchor="middle" x="0" y="133.7" style="font-family: 'Open Sans', verdana, arial, sans-serif; font-size: 11px; fill: rgb(0, 0, 0); fill-opacity: 1; white-space: pre; opacity: 0;" transform="translate(144.01999999999998,0)">40</text></g></g><g class="yaxislayer-above"><path class="ytick ticks crisp" d="M45,0h5" transform="translate(0,104.95)" style="stroke: rgb(0, 0, 0); stroke-opacity: 1; stroke-width: 0.5px;"/><path class="ytick ticks crisp" d="M45,0h5" transform="translate(0,85.05)" style="stroke: rgb(0, 0, 0); stroke-opacity: 1; stroke-width: 0.5px;"/><path class="ytick ticks crisp" d="M45,0h5" transform="translate(0,70)" style="stroke: rgb(0, 0, 0); stroke-opacity: 1; stroke-width: 0.5px;"/><path class="ytick ticks crisp" d="M45,0h5" transform="translate(0,54.95)" style="stroke: rgb(0, 0, 0); stroke-opacity: 1; stroke-width: 0.5px;"/><path class="ytick ticks crisp" d="M45,0h5" transform="translate(0,35.05)" style="stroke: rgb(0, 0, 0); stroke-opacity: 1; stroke-width: 0.5px;"/><g class="ytick"><text text-anchor="end" x="42.3" y="3.8499999999999996" transform="translate(0,120)" style="font-family: 'Open Sans', verdana, arial, sans-serif; font-size: 11px; fill: rgb(0, 0, 0); fill-opacity: 1; white-space: pre; opacity: 1;">10M</text></g><g class="ytick"><text text-anchor="end" x="42.3" y="2.8874999999999997" style="font-family: 'Open Sans', verdana, arial, sans-serif; font-size: 8.25px; fill: rgb(0, 0, 0); fill-opacity: 1; white-space: pre; opacity: 1;" transform="translate(0,104.95)">2</text></g><g class="ytick"><text text-anchor="end" x="42.3" y="2.8874999999999997" style="font-family: 'Open Sans', verdana, arial, sans-serif; font-size: 8.25px; fill: rgb(0, 0, 0); fill-opacity: 1; white-space: pre; opacity: 1;" transform="translate(0,85.05)">5</text></g><g class="ytick"><text text-anchor="end" x="42.3" y="3.8499999999999996" style="font-family: 'Open Sans', verdana, arial, sans-serif; font-size: 11px; fill: rgb(0, 0, 0); fill-opacity: 1; white-space: pre; opacity: 1;" transform="translate(0,70)">100M</text></g><g class="ytick"><text text-anchor="end" x="42.3" y="2.8874999999999997" style="font-family: 'Open Sans', verdana, arial, sans-serif; font-size: 8.25px; fill: rgb(0, 0, 0); fill-opacity: 1; white-space: pre; opacity: 1;" transform="translate(0,54.95)">2</text></g><g class="ytick"><text text-anchor="end" x="42.3" y="2.8874999999999997" style="font-family: 'Open Sans', verdana, arial, sans-serif; font-size: 8.25px; fill: rgb(0, 0, 0); fill-opacity: 1; white-space: pre; opacity: 1;" transform="translate(0,35.05)">5</text></g><g class="ytick"><text text-anchor="end" x="42.3" y="3.8499999999999996" style="font-family: 'Open Sans', verdana, arial, sans-serif; font-size: 11px; fill: rgb(0, 0, 0); fill-opacity: 1; white-space: pre; opacity: 1;" transform="translate(0,20)">1B</text></g></g><g class="overaxes-above"/></g></g><g class="polarlayer"/><g class="smithlayer"/><g class="ternarylayer"/><g class="geolayer"/><g class="funnelarealayer"/><g class="pielayer"/><g class="iciclelayer"/><g class="treemaplayer"/><g class="sunburstlayer"/><g class="glimages"/><defs id="topdefs-523f3a"><g class="clips"/></defs><g class="layer-above"><g class="imagelayer"/><g class="shapelayer"/></g><g class="infolayer"><g class="g-gtitle"><text class="gtitle" x="7.5" y="10" text-anchor="start" dy="0em" style="opacity: 1; font-family: 'Open Sans', verdana, arial, sans-serif; font-size: 11px; fill: rgb(0, 0, 0); fill-opacity: 1; white-space: pre;">Cross-feeding</text></g><g class="g-xtitle" transform="translate(0,2.8468750000000114)"><text class="xtitle" x="97.5" y="144.153125" text-anchor="middle" style="opacity: 1; font-family: 'Open Sans', verdana, arial, sans-serif; font-size: 11px; fill: rgb(0, 0, 0); fill-opacity: 1; white-space: pre;">Time [h]</text></g><g class="g-ytitle" transform="translate(2.099609375,0)"><text class="ytitle" transform="rotate(-90,9.899999999999999,70)" x="9.899999999999999" y="70" text-anchor="middle" style="opacity: 1; font-family: 'Open Sans', verdana, arial, sans-serif; font-size: 11px; fill: rgb(0, 0, 0); fill-opacity: 1; white-space: pre;">CFUs/mL</text></g></g></svg>