<svg class="main-svg" xmlns="http://www.w3.org/2000/svg" xmlns:xlink="http://www.w3.org/1999/xlink" width="175" height="160" style="" viewBox="0 0 175 160"><rect x="0" y="0" width="175" height="160" style="fill: rgb(255, 255, 255); fill-opacity: 1;"/><defs id="defs-4a2069"><g class="clips"><clipPath id="clip4a2069xyplot" class="plotclip"><rect width="122" height="96"/></clipPath><clipPath class="axesclip" id="clip4a2069x"><rect x="42" y="0" width="122" height="160"/></clipPath><clipPath class="axesclip" id="clip4a2069y"><rect x="0" y="30" width="175" height="96"/></clipPath><clipPath class="axesclip" id="clip4a2069xy"><rect x="42" y="30" width="122" height="96"/></clipPath></g><g class="gradients"/><g class="patterns"/></defs><g class="bglayer"/><g class="layer-below"><g class="imagelayer"/><g class="shapelayer"/></g><g class="cartesianlayer"><g class="subplot xy"><g class="layer-subplot"><g class="shapelayer"/><g class="imagelayer"/></g><g class="minor-gridlayer"><g class="x"/><g class="y"/></g><g class="gridlayer"><g class="x"><path class="xgrid crisp" transform="translate(75.55,0)" d="M0,30v96" style="stroke: rgb(128, 128, 128); stroke-opacity: 1; stroke-width: 0.2px;"/><path class="xgrid crisp" transform="translate(109.36,0)" d="M0,30v96" style="stroke: rgb(128, 128, 128); stroke-opacity: 1; stroke-width: 0.2px;"/><path class="xgrid crisp" transform="translate(143.17000000000002,0)" d="M0,30v96" style="stroke: rgb(128, 128, 128); stroke-opacity: 1; stroke-width: 0.2px;"/></g><g class="y"><path class="ygrid crisp" transform="translate(0,100.71)" d="M42,0h122" style="stroke: rgb(128, 128, 128); stroke-opacity: 1; stroke-width: 0.2px;"/><path class="ygrid crisp" transform="translate(0,77.42)" d="M42,0h122" style="stroke: rgb(128, 128, 128); stroke-opacity: 1; stroke-width: 0.2px;"/><path class="ygrid crisp" transform="translate(0,60.89)" d="M42,0h122" style="stroke: rgb(128, 128, 128); stroke-opacity: 1; stroke-width: 0.2px;"/><path class="ygrid crisp" transform="translate(0,48.08)" d="M42,0h122" style="stroke: rgb(128, 128, 128); stroke-opacity: 1; stroke-width: 0.2px;"/><path class="ygrid crisp" transform="translate(0,37.6)" d="M42,0h122" style="stroke: rgb(128, 128, 128); stroke-opacity: 1; stroke-width: 0.2px;"/></g></g><g class="zerolinelayer"/><g class="layer-between"><g class="shapelayer"/><g class="imagelayer"/></g><path class="xlines-below"/><path class="ylines-below"/><g class="overlines-below"/><g class="xaxislayer-below"/><g class="yaxislayer-below"/><g class="overaxes-below"/><g class="overplot"><g class="xy" transform="translate(42,30)" clip-path="url(#clip4a2069xyplot)"><g class="scatterlayer mlayer"><g class="trace scatter tracebf2e4a" style="stroke-miterlimit: 2; opacity: 1;"><g class="fills"/><g class="errorbars"/><g class="lines"><path class="js-line" d="M0,91.2L1.69,67.91L1.97,76.76L2.82,65.24L3.1,70.71L3.94,62.68L4.23,65.24L4.51,62.68L4.79,65.24L5.07,67.91L5.35,67.91L5.64,70.71L6.2,67.91L6.48,70.71L6.76,65.24L7.33,67.91L7.61,67.91L7.89,65.24L8.17,70.71L8.73,67.91L9.02,70.71L9.3,70.71L9.58,73.66L10.71,67.91L10.99,70.71L11.55,67.91L11.83,73.66L12.4,67.91L12.68,70.71L12.96,70.71L13.81,70.71L14.09,73.66L14.65,73.66L14.93,70.71L15.78,76.76L16.06,73.66L16.34,76.76L16.62,73.66L16.91,70.71L17.75,76.76L18.03,73.66L18.6,73.66L18.88,76.76L19.16,80.05L19.44,73.66L20.29,80.05L20.57,76.76L21.13,80.05L21.41,73.66L22.26,80.05L22.54,73.66L23.1,80.05L23.39,76.76L23.67,76.76L23.95,73.66L24.23,76.76L24.51,76.76L24.79,76.76L25.08,73.66L25.36,76.76L25.64,73.66L25.92,73.66L26.2,76.76L26.48,73.66L26.77,73.66L27.89,73.66L28.18,76.76L29.3,70.71L29.58,70.71L31.84,70.71L32.12,67.91L32.4,67.91L32.68,70.71L32.97,70.71L33.25,67.91L34.09,70.71L34.37,67.91L35.22,65.24L35.5,67.91L36.35,65.24L36.63,67.91L37.47,65.24L37.76,65.24L38.6,65.24L38.88,67.91L39.73,62.68L40.01,62.68L40.29,60.24L40.57,65.24L40.85,62.68L41.14,65.24L41.42,65.24L42.26,65.24L42.55,62.68L43.67,57.89L43.95,57.89L44.52,55.64L44.8,57.89L45.64,55.64L45.93,57.89L46.49,55.64L46.77,57.89L47.05,60.24L47.33,55.64L48.18,57.89L48.46,55.64L48.74,55.64L49.03,57.89L49.31,57.89L49.59,55.64L49.87,57.89L50.15,53.47L50.43,57.89L51,55.64L51.28,55.64L51.84,57.89L52.12,53.47L52.41,53.47L52.69,55.64L52.97,53.47L53.25,55.64L53.53,57.89L54.94,47.42L55.22,47.42L55.51,49.37L55.79,47.42L56.07,47.42L56.35,51.38L56.63,49.37L56.91,47.42L57.2,49.37L57.48,47.42L57.76,45.54L58.61,47.42L58.89,47.42L59.45,43.71L59.73,47.42L60.86,43.71L61.14,43.71L61.42,45.54L61.7,41.94L61.99,43.71L62.27,41.94L62.55,41.94L62.83,41.94L63.11,38.56L63.68,41.94L63.96,40.23L64.24,38.56L64.8,41.94L65.09,40.23L65.37,36.95L65.93,40.23L66.21,38.56L66.49,38.56L67.06,36.95L67.34,38.56L69.03,32.35L69.31,33.84L70.16,29.48L70.44,32.35L70.72,35.37L71,32.35L71.28,32.35L71.57,32.35L71.85,33.84L72.69,30.89L72.97,32.35L73.26,32.35L73.54,30.89L74.1,30.89L74.38,29.48L75.23,29.48L75.51,30.89L76.36,33.84L76.64,33.84L77.2,35.37L77.48,33.84L78.61,28.09L78.89,29.48L79.45,28.09L79.74,29.48L80.3,30.89L80.58,29.48L80.86,29.48L81.15,28.09L81.71,28.09L81.99,26.74L82.27,26.74L82.55,28.09L83.4,26.74L83.68,28.09L83.96,25.42L84.53,26.74L84.81,28.09L85.65,29.48L85.94,29.48L86.22,29.48L86.5,30.89L86.78,29.48L87.06,30.89L87.34,30.89L87.63,32.35L87.91,29.48L88.19,29.48L88.47,28.09L88.75,28.09L89.03,29.48L89.88,25.42L90.16,28.09L90.44,28.09L90.73,29.48L91.57,26.74L91.85,22.87L92.98,16.94L93.26,20.42L94.11,19.24L94.39,19.24L95.23,21.63L95.52,16.94L96.64,22.87L96.92,21.63L97.21,21.63L98.05,22.87L98.33,20.42L99.18,24.13L99.46,24.13L99.74,24.13L100.02,22.87L100.3,26.74L100.59,25.42L100.87,24.13L101.15,25.42L101.43,22.87L102,22.87L102.28,20.42L102.56,20.42L102.84,21.63L103.12,22.87L103.4,20.42L103.69,18.08L103.97,20.42L104.25,20.42L104.53,19.24L104.81,21.63L105.09,19.24L105.38,20.42L105.66,21.63L106.22,21.63L106.5,22.87L107.07,22.87L107.35,20.42L107.63,21.63L107.91,15.82L109.32,21.63L109.6,19.24L111.01,22.87L111.29,21.63L111.58,22.87L111.86,20.42L112.14,21.63L112.42,19.24L113.55,26.74L113.83,26.74L114.67,22.87L114.96,24.13L115.24,24.13L115.52,25.42L115.8,24.13L116.08,22.87L117.21,18.08L117.49,19.24L117.77,20.42L118.06,19.24L118.34,18.08L118.9,15.82L119.18,18.08L119.75,18.08L120.03,15.82L120.87,20.42L121.15,18.08L121.44,20.42L121.72,19.24L122,16.94" style="vector-effect: none; fill: none; stroke: rgb(117, 112, 179); stroke-opacity: 1; stroke-width: 1.5px; opacity: 1;"/></g><g class="points"/><g class="text"/></g><g class="trace scatter trace1dde24" style="stroke-miterlimit: 2; opacity: 1;"><g class="fills"/><g class="errorbars"/><g class="lines"><path class="js-line" d="M0,80.05L0.85,67.91L1.13,73.66L1.41,73.66L1.69,70.71L2.54,73.66L2.82,70.71L3.1,73.66L3.38,70.71L3.66,70.71L4.79,65.24L5.07,67.91L5.35,65.24L5.64,70.71L5.92,67.91L6.2,70.71L6.48,70.71L7.04,67.91L7.33,70.71L7.89,67.91L8.17,70.71L9.86,70.71L10.14,73.66L10.42,70.71L10.71,73.66L10.99,73.66L11.83,70.71L12.12,70.71L13.24,76.76L13.52,73.66L14.37,73.66L14.65,76.76L15.5,73.66L15.78,73.66L16.62,73.66L16.91,76.76L17.19,73.66L17.47,76.76L17.75,76.76L18.6,76.76L18.88,80.05L19.72,76.76L20,76.76L26.2,76.76L26.48,73.66L26.77,76.76L27.05,73.66L27.33,73.66L29.87,73.66L30.15,70.71L30.71,73.66L30.99,70.71L32.4,70.71L32.68,67.91L33.25,67.91L33.53,65.24L34.09,67.91L34.37,65.24L34.94,65.24L35.22,67.91L35.5,67.91L35.78,65.24L36.06,65.24L36.35,62.68L36.91,65.24L37.19,62.68L37.47,65.24L37.76,62.68L38.04,62.68L38.32,62.68L38.6,60.24L38.88,62.68L39.16,60.24L39.45,60.24L39.73,57.89L40.01,62.68L41.14,57.89L41.42,57.89L41.7,57.89L41.98,60.24L42.83,55.64L43.11,57.89L43.39,55.64L43.67,57.89L43.95,57.89L44.8,55.64L45.08,55.64L45.93,55.64L46.21,57.89L47.05,53.47L47.33,55.64L48.18,49.37L48.46,53.47L49.31,49.37L49.59,49.37L49.87,49.37L50.15,51.38L51,51.38L51.28,53.47L51.56,53.47L51.84,55.64L52.12,55.64L52.41,51.38L52.69,51.38L52.97,55.64L53.82,57.89L54.1,57.89L54.66,57.89L54.94,55.64L55.22,57.89L55.51,55.64L55.79,53.47L56.07,53.47L56.35,51.38L56.63,51.38L56.91,49.37L57.76,49.37L58.04,47.42L58.32,49.37L58.61,45.54L59.17,45.54L59.45,47.42L59.73,45.54L60.01,49.37L60.3,51.38L60.58,49.37L60.86,49.37L61.42,49.37L61.7,47.42L61.99,51.38L62.55,49.37L62.83,49.37L63.96,49.37L64.24,47.42L64.52,49.37L64.8,47.42L65.09,47.42L65.65,49.37L65.93,47.42L66.21,49.37L66.49,47.42L66.78,45.54L67.34,45.54L67.62,47.42L68.47,45.54L68.75,45.54L69.31,45.54L69.59,41.94L70.16,45.54L70.44,41.94L71,41.94L71.28,38.56L71.57,45.54L72.13,41.94L72.41,43.71L72.69,45.54L72.97,41.94L73.26,41.94L73.54,40.23L74.38,40.23L74.67,41.94L74.95,41.94L75.23,36.95L75.79,40.23L76.07,38.56L76.36,35.37L77.48,40.23L77.76,40.23L78.05,40.23L78.33,36.95L78.61,35.37L78.89,41.94L79.45,38.56L79.74,40.23L80.02,40.23L80.3,40.23L80.58,38.56L80.86,32.35L81.15,36.95L81.43,38.56L81.99,38.56L82.27,32.35L82.55,40.23L83.12,36.95L83.4,36.95L83.68,33.84L83.96,40.23L84.24,36.95L84.81,38.56L85.09,40.23L85.37,40.23L85.65,38.56L85.94,38.56L86.22,35.37L87.06,35.37L87.34,33.84L88.75,25.42L89.03,25.42L89.32,18.08L89.6,21.63L89.88,24.13L90.16,22.87L90.44,25.42L92.7,13.66L92.98,18.08L93.54,16.94L93.82,18.08L94.11,19.24L94.39,16.94L94.67,15.82L94.95,18.08L95.23,19.24L95.52,16.94L95.8,16.94L96.08,18.08L96.36,19.24L96.64,18.08L96.92,16.94L97.49,16.94L97.77,15.82L98.9,18.08L99.18,18.08L99.46,16.94L99.74,18.08L100.02,19.24L100.3,19.24L100.59,20.42L100.87,21.63L101.15,20.42L101.43,20.42L101.71,20.42L102,21.63L102.28,21.63L102.56,32.35L102.84,32.35L103.12,30.89L103.4,32.35L103.69,30.89L103.97,26.74L104.81,20.42L105.09,21.63L105.38,21.63L105.94,21.63L106.22,20.42L106.79,19.24L107.07,20.42L107.91,18.08L108.19,18.08L108.48,19.24L108.76,16.94L109.88,19.24L110.17,14.73L110.73,15.82L111.01,14.73L111.86,18.08L112.14,16.94L112.98,13.66L113.27,15.82L113.55,15.82L113.83,16.94L114.11,16.94L114.39,18.08L114.67,18.08L114.96,19.24L116.08,15.82L116.36,16.94L116.65,16.94L116.93,15.82L118.9,21.63L119.18,28.09L120.03,16.94L120.31,18.08L121.44,11.57L121.72,8.57L122,9.55" style="vector-effect: none; fill: none; stroke: rgb(117, 112, 179); stroke-opacity: 1; stroke-width: 1.5px; opacity: 1;"/></g><g class="points"/><g class="text"/></g><g class="trace scatter trace2de5ca" style="stroke-miterlimit: 2; opacity: 1;"><g class="fills"/><g class="errorbars"/><g class="lines"><path class="js-line" d="M0,65.24L0.28,65.24L0.56,62.68L1.41,67.91L1.69,65.24L2.25,65.24L2.54,62.68L3.38,67.91L3.66,62.68L3.94,60.24L4.23,62.68L4.51,65.24L5.35,62.68L5.64,65.24L6.48,67.91L6.76,65.24L7.33,67.91L7.61,65.24L8.45,67.91L8.73,67.91L9.02,67.91L9.3,70.71L9.86,70.71L10.14,67.91L10.71,67.91L10.99,70.71L11.55,70.71L11.83,67.91L12.68,73.66L12.96,73.66L13.24,73.66L13.52,70.71L14.37,73.66L14.65,73.66L15.78,73.66L16.06,70.71L16.34,70.71L16.62,73.66L17.47,76.76L17.75,76.76L18.03,76.76L18.31,73.66L18.6,73.66L18.88,76.76L19.16,76.76L19.44,73.66L20,73.66L20.29,76.76L20.57,76.76L20.85,73.66L21.7,76.76L21.98,76.76L26.77,76.76L27.05,73.66L28.18,80.05L28.46,80.05L29.3,76.76L29.58,76.76L32.4,76.76L32.68,73.66L32.97,73.66L33.25,76.76L34.09,73.66L34.37,76.76L34.94,76.76L35.22,70.71L35.5,76.76L36.06,73.66L36.35,76.76L37.19,70.71L37.47,73.66L38.32,73.66L38.6,70.71L40.57,70.71L40.85,67.91L41.14,70.71L41.42,67.91L41.7,67.91L42.55,67.91L42.83,65.24L44.24,65.24L44.52,62.68L44.8,65.24L45.08,62.68L45.36,62.68L46.49,62.68L46.77,60.24L47.05,60.24L47.33,62.68L47.62,62.68L47.9,60.24L48.46,60.24L48.74,57.89L49.59,60.24L49.87,57.89L50.43,57.89L50.72,55.64L51.56,55.64L51.84,53.47L52.12,53.47L52.41,55.64L53.82,49.37L54.1,51.38L54.38,51.38L54.66,49.37L55.51,51.38L55.79,49.37L56.07,49.37L56.35,47.42L58.32,47.42L58.61,45.54L58.89,45.54L59.17,43.71L60.01,45.54L60.3,43.71L61.14,43.71L61.42,41.94L61.7,41.94L61.99,40.23L62.55,41.94L62.83,40.23L63.11,40.23L63.39,41.94L63.68,41.94L63.96,40.23L64.24,36.95L64.8,38.56L65.09,38.56L65.65,36.95L65.93,38.56L66.21,36.95L66.49,40.23L66.78,40.23L67.06,43.71L67.62,43.71L67.9,45.54L71.28,28.09L71.57,26.74L72.13,25.42L72.41,26.74L73.54,24.13L73.82,24.13L75.51,19.24L75.79,19.24L77.2,15.82L77.48,16.94L78.05,16.94L78.33,15.82L78.61,15.82L78.89,16.94L79.45,16.94L79.74,18.08L80.02,19.24L80.3,18.08L80.58,18.08L80.86,18.08L81.15,16.94L81.99,16.94L82.27,18.08L83.4,18.08L83.68,16.94L84.53,20.42L84.81,18.08L85.65,20.42L85.94,18.08L87.63,33.84L87.91,30.89L89.32,15.82L89.6,13.66L89.88,13.66L90.16,12.6L90.44,13.66L90.73,12.6L91.01,11.57L91.29,11.57L91.57,10.55L91.85,10.55L92.13,9.55L92.7,9.55L92.98,7.6L93.54,7.6L93.82,8.57L94.11,9.55L94.39,8.57L94.67,7.6L94.95,7.6L95.23,8.57L95.8,6.65L96.08,7.6L96.36,7.6L96.64,7.6L96.92,6.65L97.49,7.6L97.77,6.65L98.33,5.72L98.61,7.6L98.9,4.8L99.46,6.65L99.74,7.6L100.02,6.65L100.3,7.6L100.59,7.6L100.87,7.6L101.15,6.65L101.71,5.72L102,6.65L102.56,7.6L102.84,11.57L103.12,15.82L103.4,11.57L103.69,11.57L104.25,11.57L104.53,10.55L104.81,10.55L105.09,11.57L105.66,9.55L105.94,13.66L106.79,8.57L107.07,12.6L108.48,18.08L108.76,19.24L109.6,19.24L109.88,21.63L110.73,19.24L111.01,19.24L111.29,19.24L111.58,18.08L112.14,18.08L112.42,19.24L113.55,16.94L113.83,19.24L114.67,18.08L114.96,18.08L115.52,18.08L115.8,16.94L116.93,16.94L117.21,15.82L117.49,15.82L117.77,16.94L118.9,14.73L119.18,15.82L120.31,12.6L120.59,13.66L121.44,14.73L121.72,14.73L122,14.73" style="vector-effect: none; fill: none; stroke: rgb(117, 112, 179); stroke-opacity: 1; stroke-width: 1.5px; opacity: 1;"/></g><g class="points"/><g class="text"/></g><g class="trace scatter trace58a6bc" style="stroke-miterlimit: 2; opacity: 1;"><g class="fills"/><g class="errorbars"/><g class="lines"><path class="js-line" d="M30.15,74.92L67.34,37.26" style="vector-effect: none; fill: none; stroke: rgb(0, 0, 0); stroke-opacity: 1; stroke-dasharray: 3px, 3px; stroke-width: 1.5px; opacity: 1;"/></g><g class="points"/><g class="text"/></g></g></g></g><path class="xlines-above crisp" d="M41.5,126.25H164.5M41.5,29.75H164.5" style="fill: none; stroke-width: 0.5px; stroke: rgb(0, 0, 0); stroke-opacity: 1;"/><path class="ylines-above crisp" d="M41.75,30V126M164.25,30V126" style="fill: none; stroke-width: 0.5px; stroke: rgb(0, 0, 0); stroke-opacity: 1;"/><g class="overlines-above"/><g class="xaxislayer-above"><path class="xtick ticks crisp" d="M0,126v-5" transform="translate(75.55,0)" style="stroke: rgb(0, 0, 0); stroke-opacity: 1; stroke-width: 0.5px;"/><path class="xtick ticks crisp" d="M0,126v-5" transform="translate(109.36,0)" style="stroke: rgb(0, 0, 0); stroke-opacity: 1; stroke-width: 0.5px;"/><path class="xtick ticks crisp" d="M0,126v-5" transform="translate(143.17000000000002,0)" style="stroke: rgb(0, 0, 0); stroke-opacity: 1; stroke-width: 0.5px;"/><g class="xtick"><text text-anchor="middle" x="0" y="139.7" transform="translate(75.55,0)" style="font-family: 'Open Sans', verdana, arial, sans-serif; font-size: 11px; fill: rgb(0, 0, 0); fill-opacity: 1; white-space: pre; opacity: 1;">20</text></g><g class="xtick"><text text-anchor="middle" x="0" y="139.7" style="font-family: 'Open Sans', verdana, arial, sans-serif; font-size: 11px; fill: rgb(0, 0, 0); fill-opacity: 1; white-space: pre; opacity: 1;" transform="translate(109.36,0)">40</text></g><g class="xtick"><text text-anchor="middle" x="0" y="139.7" style="font-family: 'Open Sans', verdana, arial, sans-serif; font-size: 11px; fill: rgb(0, 0, 0); fill-opacity: 1; white-space: pre; opacity: 1;" transform="translate(143.17000000000002,0)">60</text></g></g><g class="yaxislayer-above"><path class="ytick ticks crisp" d="M42,0h5" transform="translate(0,100.71)" style="stroke: rgb(0, 0, 0); stroke-opacity: 1; stroke-width: 0.5px;"/><path class="ytick ticks crisp" d="M42,0h5" transform="translate(0,77.42)" style="stroke: rgb(0, 0, 0); stroke-opacity: 1; stroke-width: 0.5px;"/><path class="ytick ticks crisp" d="M42,0h5" transform="translate(0,60.89)" style="stroke: rgb(0, 0, 0); stroke-opacity: 1; stroke-width: 0.5px;"/><path class="ytick ticks crisp" d="M42,0h5" transform="translate(0,48.08)" style="stroke: rgb(0, 0, 0); stroke-opacity: 1; stroke-width: 0.5px;"/><path class="ytick ticks crisp" d="M42,0h5" transform="translate(0,37.6)" style="stroke: rgb(0, 0, 0); stroke-opacity: 1; stroke-width: 0.5px;"/><g class="ytick"><text text-anchor="end" x="39.3" y="3.8499999999999996" transform="translate(0,100.71)" style="font-family: 'Open Sans', verdana, arial, sans-serif; font-size: 11px; fill: rgb(0, 0, 0); fill-opacity: 1; white-space: pre; opacity: 1;">0.02</text></g><g class="ytick"><text text-anchor="end" x="39.3" y="3.8499999999999996" style="font-family: 'Open Sans', verdana, arial, sans-serif; font-size: 11px; fill: rgb(0, 0, 0); fill-opacity: 1; white-space: pre; opacity: 1;" transform="translate(0,77.42)">0.03</text></g><g class="ytick"><text text-anchor="end" x="39.3" y="3.8499999999999996" style="font-family: 'Open Sans', verdana, arial, sans-serif; font-size: 11px; fill: rgb(0, 0, 0); fill-opacity: 1; white-space: pre; opacity: 1;" transform="translate(0,60.89)">0.04</text></g><g class="ytick"><text text-anchor="end" x="39.3" y="3.8499999999999996" style="font-family: 'Open Sans', verdana, arial, sans-serif; font-size: 11px; fill: rgb(0, 0, 0); fill-opacity: 1; white-space: pre; opacity: 1;" transform="translate(0,48.08)">0.05</text></g><g class="ytick"><text text-anchor="end" x="39.3" y="3.8499999999999996" style="font-family: 'Open Sans', verdana, arial, sans-serif; font-size: 11px; fill: rgb(0, 0, 0); fill-opacity: 1; white-space: pre; opacity: 1;" transform="translate(0,37.6)">0.06</text></g></g><g class="overaxes-above"/></g></g><g class="polarlayer"/><g class="smithlayer"/><g class="ternarylayer"/><g class="geolayer"/><g class="funnelarealayer"/><g class="pielayer"/><g class="iciclelayer"/><g class="treemaplayer"/><g class="sunburstlayer"/><g class="glimages"/><defs id="topdefs-4a2069"><g class="clips"/></defs><g class="layer-above"><g class="imagelayer"/><g class="shapelayer"/></g><g class="infolayer"><g class="g-gtitle"><text class="gtitle" x="8.75" y="15" text-anchor="start" dy="0em" style="opacity: 1; font-family: 'Open Sans', verdana, arial, sans-serif; font-size: 11px; fill: rgb(0, 0, 0); fill-opacity: 1; white-space: pre;"><tspan class="line" dy="0em" x="8.75" y="15">Ct in spent chemo-</tspan><tspan class="line" dy="1.3em" x="8.75" y="15">stat media of Oa</tspan></text></g><g class="g-xtitle" transform="translate(0,4.550000000000011)"><text class="xtitle" x="103" y="150.153125" text-anchor="middle" style="opacity: 1; font-family: 'Open Sans', verdana, arial, sans-serif; font-size: 11px; fill: rgb(0, 0, 0); fill-opacity: 1; white-space: pre;">Time [h]</text></g><g class="g-ytitle"><text class="ytitle" transform="rotate(-90,13.899999999999999,78)" x="13.899999999999999" y="78" text-anchor="middle" style="opacity: 1; font-family: 'Open Sans', verdana, arial, sans-serif; font-size: 11px; fill: rgb(0, 0, 0); fill-opacity: 1; white-space: pre;">OD</text></g></g></svg>