<svg class="main-svg" xmlns="http://www.w3.org/2000/svg" xmlns:xlink="http://www.w3.org/1999/xlink" width="150" height="195" style="" viewBox="0 0 150 195"><rect x="0" y="0" width="150" height="195" style="fill: rgb(255, 255, 255); fill-opacity: 1;"/><defs id="defs-3e2cc5"><g class="clips"><clipPath id="clip3e2cc5xyplot" class="plotclip"><rect width="109" height="135"/></clipPath><clipPath class="axesclip" id="clip3e2cc5x"><rect x="35" y="0" width="109" height="195"/></clipPath><clipPath class="axesclip" id="clip3e2cc5y"><rect x="0" y="35" width="150" height="135"/></clipPath><clipPath class="axesclip" id="clip3e2cc5xy"><rect x="35" y="35" width="109" height="135"/></clipPath></g><g class="gradients"/><g class="patterns"/></defs><g class="bglayer"/><g class="layer-below"><g class="imagelayer"/><g class="shapelayer"/></g><g class="cartesianlayer"><g class="subplot xy"><g class="layer-subplot"><g class="shapelayer"/><g class="imagelayer"/></g><g class="minor-gridlayer"><g class="x"/><g class="y"/></g><g class="gridlayer"><g class="x"><path class="xgrid crisp" transform="translate(53.17,0)" d="M0,35v135" style="stroke: rgb(128, 128, 128); stroke-opacity: 1; stroke-width: 0.2px;"/><path class="xgrid crisp" transform="translate(71.33,0)" d="M0,35v135" style="stroke: rgb(128, 128, 128); stroke-opacity: 1; stroke-width: 0.2px;"/><path class="xgrid crisp" transform="translate(89.5,0)" d="M0,35v135" style="stroke: rgb(128, 128, 128); stroke-opacity: 1; stroke-width: 0.2px;"/><path class="xgrid crisp" transform="translate(107.67,0)" d="M0,35v135" style="stroke: rgb(128, 128, 128); stroke-opacity: 1; stroke-width: 0.2px;"/><path class="xgrid crisp" transform="translate(125.83,0)" d="M0,35v135" style="stroke: rgb(128, 128, 128); stroke-opacity: 1; stroke-width: 0.2px;"/></g><g class="y"><path class="ygrid crisp" transform="translate(0,136.25)" d="M35,0h109" style="stroke: rgb(128, 128, 128); stroke-opacity: 1; stroke-width: 0.2px;"/><path class="ygrid crisp" transform="translate(0,102.5)" d="M35,0h109" style="stroke: rgb(128, 128, 128); stroke-opacity: 1; stroke-width: 0.2px;"/><path class="ygrid crisp" transform="translate(0,68.75)" d="M35,0h109" style="stroke: rgb(128, 128, 128); stroke-opacity: 1; stroke-width: 0.2px;"/></g></g><g class="zerolinelayer"/><g class="layer-between"><g class="shapelayer"/><g class="imagelayer"/></g><path class="xlines-below"/><path class="ylines-below"/><g class="overlines-below"/><g class="xaxislayer-below"/><g class="yaxislayer-below"/><g class="overaxes-below"/><g class="overplot"><g class="xy" transform="translate(35,35)" clip-path="url(#clip3e2cc5xyplot)"><g class="scatterlayer mlayer"><g class="trace scatter trace1dd5e9" style="stroke-miterlimit: 2; opacity: 1;"><g class="fills"/><g class="errorbars"/><g class="lines"><path class="js-line" d="M0.23,111.38L1.75,99.56L2,104.63L2.75,97.88L3.01,101.25L3.76,96.19L4.02,97.88L4.27,96.19L4.52,97.88L4.77,99.56L5.03,99.56L5.28,101.25L6.29,97.88L6.54,99.56L7.04,99.56L7.3,97.88L7.55,101.25L8.05,99.56L8.31,101.25L8.56,101.25L8.81,102.94L9.82,99.56L10.07,101.25L10.58,99.56L10.83,102.94L11.33,99.56L11.59,101.25L11.84,101.25L12.59,101.25L12.85,102.94L13.35,102.94L13.6,101.25L14.87,104.63L15.12,102.94L15.37,101.25L15.62,102.94L15.87,104.63L16.13,104.63L16.38,102.94L16.88,102.94L17.14,104.63L17.39,106.31L17.64,102.94L17.89,104.63L18.15,104.63L19.15,106.31L19.41,102.94L20.16,106.31L20.42,102.94L20.92,106.31L21.17,104.63L21.43,104.63L21.68,102.94L22.18,104.63L22.43,104.63L23.44,102.94L23.7,104.63L24.45,102.94L24.71,102.94L25.21,102.94L25.46,104.63L26.72,101.25L26.98,101.25L28.74,101.25L29,99.56L29.25,99.56L29.5,101.25L29.75,101.25L30,99.56L30.76,101.25L31.01,99.56L31.77,97.88L32.02,99.56L32.78,97.88L33.03,99.56L33.79,97.88L34.04,97.88L34.8,97.88L35.05,99.56L35.81,96.19L36.06,96.19L36.31,94.5L36.56,97.88L36.82,96.19L37.57,97.88L37.83,97.88L38.08,97.88L38.33,96.19L39.34,92.81L39.59,92.81L40.1,91.13L40.35,92.81L41.11,91.13L41.36,92.81L41.86,91.13L42.12,92.81L42.37,94.5L42.62,91.13L42.87,92.81L43.12,91.13L43.38,92.81L43.63,91.13L43.88,91.13L44.39,92.81L44.64,91.13L45.14,89.44L45.4,92.81L45.65,91.13L46.15,91.13L46.4,92.81L46.66,92.81L46.91,89.44L47.16,89.44L47.41,91.13L47.67,89.44L47.92,91.13L48.17,92.81L49.68,84.38L49.94,86.06L50.44,84.38L50.69,87.75L51.96,82.69L52.21,84.38L52.46,82.69L52.71,84.38L52.97,84.38L53.47,81L53.97,82.69L54.23,81L54.98,81L55.24,82.69L55.99,79.31L56.25,79.31L56.5,79.31L56.75,75.94L57.25,79.31L57.51,77.63L57.76,75.94L58.26,79.31L58.52,77.63L58.77,74.25L59.27,77.63L59.53,75.94L59.78,75.94L60.28,74.25L60.53,75.94L60.79,74.25L61.04,74.25L61.29,72.56L62.05,69.19L62.3,70.88L63.06,65.81L63.31,69.19L63.56,72.56L63.81,69.19L64.07,69.19L64.32,69.19L64.57,70.88L65.33,67.5L65.58,69.19L65.83,69.19L66.09,67.5L66.59,67.5L66.84,65.81L67.6,65.81L67.85,67.5L68.61,70.88L68.86,70.88L69.37,72.56L69.62,70.88L70.63,64.13L70.88,65.81L71.38,64.13L71.64,65.81L72.14,67.5L72.39,65.81L72.65,65.81L73.65,62.44L73.91,62.44L74.16,64.13L74.66,62.44L74.92,62.44L75.17,64.13L75.42,60.75L75.67,62.44L75.93,62.44L76.93,65.81L77.19,65.81L77.44,65.81L77.69,67.5L77.94,65.81L78.2,67.5L78.45,67.5L78.7,69.19L78.95,65.81L79.21,65.81L80.22,62.44L80.47,62.44L80.72,60.75L80.97,64.13L81.22,64.13L81.98,65.81L82.23,62.44L83.5,48.94L83.75,54L84.5,52.31L84.76,52.31L85.51,55.69L85.77,48.94L86.78,57.38L87.03,55.69L87.28,55.69L88.04,57.38L88.29,54L89.05,59.06L89.3,59.06L89.55,59.06L89.8,57.38L90.06,62.44L90.56,59.06L90.81,60.75L91.82,54L92.07,54L92.58,57.38L92.83,54L93.08,50.63L93.34,54L93.59,54L94.09,55.69L94.34,52.31L94.6,54L95.61,57.38L95.86,57.38L96.11,57.38L96.36,54L96.62,55.69L96.87,47.25L98.13,55.69L98.38,52.31L99.64,57.38L99.9,55.69L100.15,57.38L100.4,54L100.65,55.69L100.9,52.31L101.91,62.44L102.17,62.44L102.92,57.38L103.18,59.06L103.43,59.06L103.68,60.75L103.93,59.06L104.18,57.38L105.19,50.63L105.45,52.31L105.7,54L105.95,52.31L106.2,50.63L106.71,47.25L106.96,50.63L107.47,50.63L107.72,47.25L108.47,54L108.73,50.63L108.98,54L109.23,52.31L109.48,48.94" style="vector-effect: none; fill: none; stroke: rgb(117, 112, 179); stroke-opacity: 1; stroke-width: 1px; opacity: 1;"/></g><g class="points"/><g class="text"/></g><g class="trace scatter trace016c77" style="stroke-miterlimit: 2; opacity: 1;"><g class="fills"/><g class="errorbars"/><g class="lines"><path class="js-line" d="M0.23,106.31L0.99,99.56L1.24,102.94L1.49,102.94L1.75,101.25L2,102.94L2.25,102.94L2.5,102.94L2.75,101.25L3.01,102.94L3.26,101.25L3.51,101.25L4.52,97.88L4.77,99.56L5.03,97.88L5.28,101.25L5.53,99.56L6.03,101.25L6.29,99.56L6.54,99.56L6.79,101.25L7.3,99.56L7.55,101.25L9.06,101.25L9.31,102.94L9.57,101.25L9.82,102.94L10.07,102.94L10.83,101.25L11.08,101.25L12.09,104.63L12.34,102.94L13.1,102.94L13.35,104.63L14.11,102.94L14.36,102.94L15.12,102.94L15.37,104.63L15.62,102.94L15.87,104.63L16.13,104.63L16.88,104.63L17.14,106.31L17.89,104.63L18.15,104.63L23.7,104.63L23.95,102.94L24.2,104.63L24.45,102.94L24.71,102.94L26.98,102.94L27.23,101.25L27.73,102.94L27.99,101.25L29.25,101.25L29.5,99.56L30,99.56L30.26,97.88L30.76,99.56L31.01,97.88L31.27,97.88L31.52,97.88L31.77,99.56L32.02,99.56L32.28,97.88L32.53,97.88L32.78,96.19L33.28,97.88L33.54,96.19L33.79,97.88L34.29,96.19L34.55,96.19L35.3,94.5L35.56,94.5L35.81,92.81L36.06,96.19L36.31,94.5L36.56,94.5L37.57,92.81L37.83,94.5L38.58,91.13L38.84,92.81L39.84,91.13L40.1,91.13L41.36,91.13L41.61,92.81L42.37,89.44L42.62,91.13L43.38,86.06L43.63,89.44L44.39,86.06L44.64,86.06L44.89,86.06L45.14,87.75L45.9,87.75L46.15,89.44L46.4,89.44L46.66,91.13L46.91,91.13L47.16,87.75L47.41,87.75L47.67,91.13L48.42,92.81L48.68,92.81L49.18,92.81L49.43,91.13L49.68,92.81L49.94,91.13L50.19,89.44L50.44,89.44L50.69,87.75L50.95,87.75L51.2,86.06L51.96,86.06L52.21,84.38L52.46,86.06L52.71,82.69L52.97,82.69L53.22,82.69L53.47,84.38L53.72,82.69L53.97,86.06L54.23,87.75L54.98,86.06L55.24,86.06L55.49,84.38L55.74,87.75L55.99,86.06L56.25,86.06L57.51,86.06L57.76,84.38L58.01,86.06L58.26,84.38L58.52,84.38L59.02,86.06L59.27,84.38L59.53,86.06L60.53,82.69L60.79,84.38L61.54,82.69L61.8,82.69L62.3,82.69L62.55,79.31L63.06,82.69L63.31,79.31L63.81,79.31L64.07,75.94L64.32,82.69L64.82,79.31L65.08,81L65.33,82.69L65.58,79.31L65.83,79.31L66.84,77.63L67.09,79.31L67.35,79.31L67.6,74.25L68.1,77.63L68.36,75.94L68.61,72.56L69.62,77.63L69.87,77.63L70.12,77.63L70.37,74.25L70.63,72.56L70.88,79.31L71.38,75.94L71.64,77.63L71.89,77.63L72.14,77.63L72.39,75.94L72.65,69.19L72.9,74.25L73.15,75.94L73.65,75.94L73.91,69.19L74.16,77.63L74.66,74.25L74.92,74.25L75.17,70.88L75.42,77.63L75.67,74.25L75.93,77.63L76.93,75.94L77.19,75.94L77.94,72.56L78.2,72.56L79.96,60.75L80.22,50.63L81.22,60.75L81.48,59.06L82.74,50.63L82.99,50.63L83.24,43.88L83.75,48.94L84,48.94L84.5,52.31L84.76,48.94L85.01,47.25L85.26,50.63L85.51,52.31L86.02,48.94L86.27,50.63L86.52,52.31L87.78,47.25L88.04,48.94L88.29,47.25L88.54,48.94L88.79,50.63L89.05,50.63L89.3,48.94L90.56,55.69L90.81,54L91.32,54L91.57,55.69L91.82,55.69L92.07,69.19L92.33,69.19L92.58,67.5L92.83,69.19L93.08,67.5L93.34,62.44L94.09,54L94.34,55.69L94.6,55.69L95.1,55.69L95.35,54L95.86,52.31L96.11,54L96.87,50.63L97.12,50.63L97.37,52.31L97.62,48.94L97.88,50.63L98.38,50.63L98.63,52.31L99.64,45.56L99.9,48.94L100.4,50.63L100.65,48.94L100.9,45.56L101.16,48.94L101.41,43.88L101.66,47.25L101.91,47.25L103.18,52.31L103.43,50.63L103.68,50.63L103.93,48.94L104.18,47.25L104.44,48.94L104.69,48.94L105.45,47.25L105.7,52.31L105.95,52.31L106.2,54L106.46,54L106.71,55.69L106.96,64.13L107.21,54L107.47,52.31L108.47,45.56L108.73,45.56L109.23,35.44L109.48,37.13" style="vector-effect: none; fill: none; stroke: rgb(117, 112, 179); stroke-opacity: 1; stroke-width: 1px; opacity: 1;"/></g><g class="points"/><g class="text"/></g><g class="trace scatter trace536872" style="stroke-miterlimit: 2; opacity: 1;"><g class="fills"/><g class="errorbars"/><g class="lines"><path class="js-line" d="M0.23,97.88L0.48,97.88L0.74,96.19L1.49,99.56L1.75,97.88L2.25,97.88L2.5,96.19L3.26,99.56L3.51,96.19L3.76,94.5L4.02,96.19L4.27,97.88L5.03,96.19L5.28,97.88L6.03,99.56L6.29,97.88L6.79,99.56L7.04,97.88L7.3,99.56L8.31,99.56L8.56,101.25L9.06,101.25L9.31,99.56L9.82,99.56L10.07,101.25L10.58,101.25L10.83,99.56L11.59,102.94L11.84,102.94L12.09,102.94L12.34,101.25L13.1,102.94L13.35,102.94L14.36,102.94L14.61,101.25L14.87,101.25L15.12,102.94L15.87,104.63L16.13,104.63L16.38,104.63L16.63,102.94L16.88,102.94L17.14,104.63L17.39,104.63L17.64,102.94L18.15,102.94L18.4,104.63L18.65,104.63L18.9,102.94L19.66,104.63L19.91,104.63L24.2,104.63L24.45,102.94L25.72,106.31L25.97,104.63L29.25,104.63L29.5,102.94L29.75,102.94L30,104.63L30.76,102.94L31.01,104.63L31.52,104.63L31.77,101.25L32.02,104.63L32.53,102.94L32.78,104.63L33.54,101.25L33.79,102.94L34.55,102.94L34.8,101.25L36.56,101.25L36.82,99.56L37.07,101.25L37.57,99.56L37.83,99.56L38.33,99.56L38.58,97.88L39.84,97.88L40.1,96.19L40.35,97.88L40.85,96.19L41.11,96.19L41.86,96.19L42.12,94.5L42.37,94.5L42.62,96.19L42.87,96.19L43.12,94.5L43.63,94.5L43.88,92.81L44.64,94.5L44.89,92.81L45.4,92.81L45.65,91.13L46.4,91.13L46.66,89.44L46.91,89.44L47.16,91.13L48.42,86.06L48.68,87.75L48.93,87.75L49.18,86.06L49.94,87.75L50.19,86.06L50.44,86.06L50.69,84.38L52.46,84.38L52.71,82.69L52.97,82.69L53.22,81L53.97,82.69L54.23,81L54.98,81L55.24,79.31L55.49,79.31L55.74,77.63L56.25,79.31L56.5,77.63L56.75,77.63L57,79.31L57.25,79.31L57.51,77.63L57.76,74.25L58.26,75.94L58.52,75.94L59.02,74.25L59.27,75.94L59.53,74.25L60.53,81L60.79,81L61.04,82.69L61.29,81L61.54,79.31L61.8,79.31L62.05,75.94L62.3,75.94L62.55,74.25L64.82,60.75L65.08,62.44L66.09,59.06L66.34,59.06L67.85,52.31L68.1,52.31L69.37,47.25L69.62,48.94L70.12,48.94L70.37,47.25L70.63,47.25L70.88,48.94L71.38,48.94L71.64,50.63L71.89,52.31L72.39,50.63L72.65,50.63L73.65,48.94L73.91,50.63L74.92,50.63L75.17,48.94L75.93,54L76.18,50.63L76.93,54L77.19,50.63L78.7,70.88L78.95,67.5L80.47,43.88L80.72,43.88L81.73,40.5L81.98,40.5L82.99,37.13L83.24,37.13L84,33.75L84.25,35.44L84.5,37.13L84.76,35.44L85.01,33.75L85.26,33.75L85.51,35.44L86.02,32.06L86.27,33.75L86.52,33.75L86.78,33.75L87.03,32.06L87.53,33.75L87.78,32.06L88.04,30.38L88.29,30.38L88.54,33.75L88.79,28.69L89.3,32.06L89.55,33.75L89.8,32.06L90.06,33.75L90.31,33.75L90.56,33.75L90.81,32.06L91.32,30.38L91.57,32.06L92.33,40.5L92.58,47.25L93.34,40.5L93.59,40.5L94.09,38.81L94.34,40.5L94.6,38.81L94.85,37.13L95.1,43.88L95.86,35.44L96.11,42.19L97.37,50.63L97.62,52.31L98.38,52.31L98.63,55.69L99.64,52.31L99.9,52.31L100.65,50.63L100.9,52.31L101.91,48.94L102.17,52.31L102.92,50.63L103.18,50.63L103.68,50.63L103.93,48.94L104.94,48.94L105.19,47.25L105.45,47.25L105.7,48.94L106.71,45.56L106.96,47.25L107.97,42.19L108.22,43.88L109.23,45.56L109.48,45.56" style="vector-effect: none; fill: none; stroke: rgb(117, 112, 179); stroke-opacity: 1; stroke-width: 1px; opacity: 1;"/></g><g class="points"/><g class="text"/></g></g></g></g><path class="xlines-above crisp" d="M34.5,170.25H144.5M34.5,34.75H144.5" style="fill: none; stroke-width: 0.5px; stroke: rgb(0, 0, 0); stroke-opacity: 1;"/><path class="ylines-above crisp" d="M34.75,35V170M144.25,35V170" style="fill: none; stroke-width: 0.5px; stroke: rgb(0, 0, 0); stroke-opacity: 1;"/><g class="overlines-above"/><g class="xaxislayer-above"><g class="xtick"><text text-anchor="middle" x="0" y="183.7" transform="translate(35,0)" style="font-family: 'Open Sans', verdana, arial, sans-serif; font-size: 11px; fill: rgb(0, 0, 0); fill-opacity: 1; white-space: pre; opacity: 1;">0</text></g><g class="xtick"><text text-anchor="middle" x="0" y="183.7" style="font-family: 'Open Sans', verdana, arial, sans-serif; font-size: 11px; fill: rgb(0, 0, 0); fill-opacity: 1; white-space: pre; opacity: 1;" transform="translate(53.17,0)">12</text></g><g class="xtick"><text text-anchor="middle" x="0" y="183.7" style="font-family: 'Open Sans', verdana, arial, sans-serif; font-size: 11px; fill: rgb(0, 0, 0); fill-opacity: 1; white-space: pre; opacity: 1;" transform="translate(71.33,0)">24</text></g><g class="xtick"><text text-anchor="middle" x="0" y="183.7" style="font-family: 'Open Sans', verdana, arial, sans-serif; font-size: 11px; fill: rgb(0, 0, 0); fill-opacity: 1; white-space: pre; opacity: 1;" transform="translate(89.5,0)">36</text></g><g class="xtick"><text text-anchor="middle" x="0" y="183.7" style="font-family: 'Open Sans', verdana, arial, sans-serif; font-size: 11px; fill: rgb(0, 0, 0); fill-opacity: 1; white-space: pre; opacity: 1;" transform="translate(107.67,0)">48</text></g><g class="xtick"><text text-anchor="middle" x="0" y="183.7" style="font-family: 'Open Sans', verdana, arial, sans-serif; font-size: 11px; fill: rgb(0, 0, 0); fill-opacity: 1; white-space: pre; opacity: 1;" transform="translate(125.83,0)">60</text></g><g class="xtick"><text text-anchor="middle" x="0" y="183.7" style="font-family: 'Open Sans', verdana, arial, sans-serif; font-size: 11px; fill: rgb(0, 0, 0); fill-opacity: 1; white-space: pre; opacity: 0;" transform="translate(144,0)">72</text></g></g><g class="yaxislayer-above"><g class="ytick"><text text-anchor="end" x="32.3" y="3.8499999999999996" transform="translate(0,170)" style="font-family: 'Open Sans', verdana, arial, sans-serif; font-size: 11px; fill: rgb(0, 0, 0); fill-opacity: 1; white-space: pre; opacity: 1;">0</text></g><g class="ytick"><text text-anchor="end" x="32.3" y="3.8499999999999996" style="font-family: 'Open Sans', verdana, arial, sans-serif; font-size: 11px; fill: rgb(0, 0, 0); fill-opacity: 1; white-space: pre; opacity: 1;" transform="translate(0,136.25)">0.02</text></g><g class="ytick"><text text-anchor="end" x="32.3" y="3.8499999999999996" style="font-family: 'Open Sans', verdana, arial, sans-serif; font-size: 11px; fill: rgb(0, 0, 0); fill-opacity: 1; white-space: pre; opacity: 1;" transform="translate(0,102.5)">0.04</text></g><g class="ytick"><text text-anchor="end" x="32.3" y="3.8499999999999996" style="font-family: 'Open Sans', verdana, arial, sans-serif; font-size: 11px; fill: rgb(0, 0, 0); fill-opacity: 1; white-space: pre; opacity: 1;" transform="translate(0,68.75)">0.06</text></g><g class="ytick"><text text-anchor="end" x="32.3" y="3.8499999999999996" style="font-family: 'Open Sans', verdana, arial, sans-serif; font-size: 11px; fill: rgb(0, 0, 0); fill-opacity: 1; white-space: pre; opacity: 1;" transform="translate(0,35)">0.08</text></g></g><g class="overaxes-above"/></g></g><g class="polarlayer"/><g class="smithlayer"/><g class="ternarylayer"/><g class="geolayer"/><g class="funnelarealayer"/><g class="pielayer"/><g class="iciclelayer"/><g class="treemaplayer"/><g class="sunburstlayer"/><g class="glimages"/><defs id="topdefs-3e2cc5"><g class="clips"/></defs><g class="layer-above"><g class="imagelayer"/><g class="shapelayer"/></g><g class="infolayer"><g class="g-gtitle"><text class="gtitle" x="7.5" y="17.5" text-anchor="start" dy="0em" style="opacity: 1; font-family: 'Open Sans', verdana, arial, sans-serif; font-size: 11px; fill: rgb(0, 0, 0); fill-opacity: 1; white-space: pre;"><tspan class="line" dy="0em" x="7.5" y="17.5">Ct in spent chemostat</tspan><tspan class="line" dy="1.3em" x="7.5" y="17.5">media of Oa</tspan></text></g><g class="g-xtitle" transform="translate(0,-2.1531249999999886)"><text class="xtitle" x="89.5" y="194.153125" text-anchor="middle" style="opacity: 1; font-family: 'Open Sans', verdana, arial, sans-serif; font-size: 11px; fill: rgb(0, 0, 0); fill-opacity: 1; white-space: pre;">Time [h]</text></g><g class="g-ytitle" transform="translate(5.099609375,0)"><text class="ytitle" transform="rotate(-90,6.899999999999999,102.5)" x="6.899999999999999" y="102.5" text-anchor="middle" style="opacity: 1; font-family: 'Open Sans', verdana, arial, sans-serif; font-size: 11px; fill: rgb(0, 0, 0); fill-opacity: 1; white-space: pre;">OD</text></g></g></svg>