<svg class="main-svg" xmlns="http://www.w3.org/2000/svg" xmlns:xlink="http://www.w3.org/1999/xlink" width="150" height="150" style="" viewBox="0 0 150 150"><rect x="0" y="0" width="150" height="150" style="fill: rgb(255, 255, 255); fill-opacity: 1;"/><defs id="defs-4e5965"><g class="clips"><clipPath id="clip4e5965xyplot" class="plotclip"><rect width="120" height="110"/></clipPath><clipPath class="axesclip" id="clip4e5965x"><rect x="25" y="0" width="120" height="150"/></clipPath><clipPath class="axesclip" id="clip4e5965y"><rect x="0" y="20" width="150" height="110"/></clipPath><clipPath class="axesclip" id="clip4e5965xy"><rect x="25" y="20" width="120" height="110"/></clipPath></g><g class="gradients"/><g class="patterns"/></defs><g class="bglayer"/><g class="layer-below"><g class="imagelayer"/><g class="shapelayer"/></g><g class="cartesianlayer"><g class="subplot xy"><g class="layer-subplot"><g class="shapelayer"/><g class="imagelayer"/></g><g class="minor-gridlayer"><g class="x"/><g class="y"/></g><g class="gridlayer"><g class="x"><path class="xgrid crisp" transform="translate(45,0)" d="M0,20v110" style="stroke: rgb(128, 128, 128); stroke-opacity: 1; stroke-width: 0.2px;"/><path class="xgrid crisp" transform="translate(65,0)" d="M0,20v110" style="stroke: rgb(128, 128, 128); stroke-opacity: 1; stroke-width: 0.2px;"/><path class="xgrid crisp" transform="translate(85,0)" d="M0,20v110" style="stroke: rgb(128, 128, 128); stroke-opacity: 1; stroke-width: 0.2px;"/><path class="xgrid crisp" transform="translate(105,0)" d="M0,20v110" style="stroke: rgb(128, 128, 128); stroke-opacity: 1; stroke-width: 0.2px;"/><path class="xgrid crisp" transform="translate(125,0)" d="M0,20v110" style="stroke: rgb(128, 128, 128); stroke-opacity: 1; stroke-width: 0.2px;"/></g><g class="y"><path class="ygrid crisp" transform="translate(0,93.33)" d="M25,0h120" style="stroke: rgb(128, 128, 128); stroke-opacity: 1; stroke-width: 0.2px;"/><path class="ygrid crisp" transform="translate(0,56.67)" d="M25,0h120" style="stroke: rgb(128, 128, 128); stroke-opacity: 1; stroke-width: 0.2px;"/></g></g><g class="zerolinelayer"/><g class="layer-between"><g class="shapelayer"/><g class="imagelayer"/></g><path class="xlines-below"/><path class="ylines-below"/><g class="overlines-below"/><g class="xaxislayer-below"/><g class="yaxislayer-below"/><g class="overaxes-below"/><g class="overplot"><g class="xy" transform="translate(25,20)" clip-path="url(#clip4e5965xyplot)"><g class="scatterlayer mlayer"><g class="trace scatter tracec8e066" style="stroke-miterlimit: 2; opacity: 0.5;"><g class="fills"/><g class="errorbars"/><g class="lines"><path class="js-line" d="M1.64,40.33L2.2,47.67L2.48,44L2.75,44L3.03,44L3.31,47.67L3.59,40.33L3.87,44L4.14,47.67L4.42,47.67L4.7,36.67L5.25,44L5.53,40.33L5.81,44L6.37,36.67L6.64,44L6.92,40.33L7.2,44L7.48,44L7.75,44L8.03,40.33L8.87,47.67L9.14,47.67L10.25,55L10.53,51.33L11.37,47.67L11.64,51.33L11.92,58.67L12.2,51.33L12.48,51.33L13.31,55L13.59,55L13.87,51.33L14.14,55L14.42,58.67L14.98,55L15.25,58.67L15.53,58.67L15.81,62.33L16.92,55L17.2,58.67L17.75,62.33L18.03,58.67L18.31,62.33L18.59,58.67L18.87,58.67L19.14,62.33L19.42,55L20.25,66L20.53,55L21.09,66L21.37,55L22.2,66L22.48,62.33L23.03,66L23.31,62.33L23.87,62.33L24.14,66L24.7,66L24.98,62.33L25.53,55L25.81,62.33L26.09,62.33L26.37,58.67L26.64,62.33L26.92,58.67L27.2,58.67L28.31,66L28.59,62.33L31.09,62.33L31.37,58.67L31.64,58.67L31.92,62.33L32.48,62.33L32.75,66L33.03,62.33L33.31,66L33.59,69.67L34.7,58.67L34.98,62.33L36.09,62.33L36.37,66L37.2,62.33L37.48,62.33L38.31,62.33L38.59,66L39.42,62.33L39.7,62.33L39.98,62.33L40.25,66L40.53,62.33L40.81,66L41.09,66L42.2,66L42.48,58.67L42.75,66L43.31,62.33L43.59,66L44.7,58.67L44.98,66L45.81,58.67L46.09,62.33L46.37,62.33L46.64,66L47.48,62.33L47.75,66L48.59,62.33L48.87,62.33L49.7,58.67L49.98,62.33L51.37,62.33L51.64,58.67L51.92,58.67L52.2,62.33L53.31,62.33L53.59,58.67L53.87,58.67L54.14,62.33L54.98,58.67L55.25,62.33L55.53,58.67L55.81,62.33L56.09,62.33L56.37,62.33L56.64,58.67L57.48,62.33L57.75,58.67L58.03,58.67L58.31,62.33L58.59,62.33L58.87,58.67L59.42,62.33L59.7,58.67L59.98,62.33L60.25,58.67L60.53,55L61.37,62.33L61.64,58.67L62.2,62.33L62.48,58.67L62.75,62.33L63.03,58.67L63.31,58.67L63.59,58.67L63.87,62.33L64.42,62.33L64.7,58.67L65.25,62.33L65.53,58.67L66.37,58.67L66.64,62.33L67.48,58.67L67.75,58.67L68.31,58.67L68.59,62.33L69.42,58.67L69.7,58.67L70.25,62.33L70.53,58.67L71.37,62.33L71.64,62.33L71.92,58.67L72.2,62.33L72.48,62.33L73.31,58.67L73.59,58.67L73.87,62.33L74.14,58.67L74.42,58.67L74.7,58.67L74.98,62.33L76.64,62.33L76.92,58.67L77.48,62.33L77.75,58.67L78.59,62.33L78.87,62.33L79.98,62.33L80.25,58.67L81.37,58.67L81.64,62.33L81.92,58.67L82.2,62.33L82.48,62.33L82.75,62.33L83.03,58.67L83.87,62.33L84.14,62.33L87.2,62.33L87.48,58.67L87.75,58.67L88.03,62.33L88.87,58.67L89.14,62.33L90.53,62.33L90.81,58.67L91.09,62.33L91.37,58.67L91.64,58.67L91.92,58.67L92.2,62.33L93.03,58.67L93.31,58.67L94.14,62.33L94.42,58.67L95.25,62.33L95.53,62.33L95.81,62.33L96.09,58.67L96.92,62.33L97.2,58.67L98.03,62.33L98.31,62.33L98.59,62.33L98.87,58.67L99.7,62.33L99.98,62.33L100.81,62.33L101.09,58.67L101.37,58.67L101.64,62.33L102.2,62.33L102.48,58.67L103.03,62.33L103.31,58.67L103.87,66L104.14,62.33L104.42,62.33L104.7,58.67L104.98,62.33L105.25,62.33L106.64,62.33L106.92,58.67L108.03,66L108.31,58.67L109.14,62.33L109.42,62.33L109.7,62.33L109.98,58.67L110.81,66L111.09,58.67L111.92,66L112.2,66L113.03,58.67L113.31,62.33L113.59,66L113.87,58.67L114.98,66L115.25,66L115.81,62.33L116.09,66L117.2,66L117.48,62.33L118.31,66L118.59,62.33L119.42,66L119.7,58.67L120.53,66" style="vector-effect: none; fill: none; stroke: rgb(217, 95, 2); stroke-opacity: 1; stroke-width: 0.8px; opacity: 1;"/></g><g class="points"/><g class="text"/></g><g class="trace scatter trace2319d7" style="stroke-miterlimit: 2; opacity: 0.5;"><g class="fills"/><g class="errorbars"/><g class="lines"><path class="js-line" d="M1.64,36.67L2.48,36.67L2.75,40.33L3.03,44L3.31,36.67L4.42,47.67L4.7,36.67L5.25,29.33L5.53,33L5.81,33L6.64,36.67L6.92,33L7.48,40.33L7.75,36.67L8.03,36.67L8.59,36.67L8.87,40.33L9.14,40.33L9.42,44L9.7,44L9.98,47.67L10.81,44L11.09,47.67L11.37,44L11.64,47.67L11.92,47.67L12.75,51.33L13.03,51.33L13.31,51.33L13.59,47.67L14.42,55L14.7,55L15.81,55L16.09,51.33L16.37,51.33L16.64,55L17.48,58.67L17.75,40.33L18.03,58.67L18.59,55L18.87,47.67L19.14,51.33L19.42,40.33L19.7,40.33L19.98,47.67L20.25,58.67L20.53,47.67L20.81,44L21.09,44L21.37,33L21.64,55L22.2,51.33L22.48,40.33L22.75,40.33L23.03,36.67L24.14,51.33L24.42,29.33L24.98,40.33L25.25,25.67L25.53,55L26.09,40.33L26.37,36.67L26.64,36.67L26.92,44L27.2,58.67L27.48,55L27.75,40.33L28.31,58.67L28.59,51.33L28.87,36.67L29.98,55L30.25,36.67L30.81,51.33L31.09,47.67L31.37,40.33L31.64,44L31.92,58.67L32.48,47.67L32.75,36.67L33.59,66L33.87,55L34.42,58.67L34.7,36.67L35.25,62.33L35.53,58.67L35.81,55L36.37,40.33L36.64,62.33L37.2,55L37.48,62.33L37.75,62.33L38.03,55L38.87,62.33L39.14,62.33L44.7,62.33L44.98,58.67L45.81,62.33L46.09,62.33L46.37,62.33L46.64,58.67L47.48,62.33L47.75,58.67L48.03,62.33L48.31,58.67L48.59,58.67L49.42,62.33L49.7,58.67L49.98,62.33L50.25,58.67L50.53,58.67L55.53,58.67L55.81,55L56.64,58.67L56.92,58.67L78.03,58.67L78.31,62.33L79.14,58.67L79.42,58.67L83.03,58.67L83.31,62.33L84.14,58.67L84.42,58.67L87.48,58.67L87.75,62.33L88.03,62.33L88.31,58.67L90.25,58.67L90.53,66L91.09,58.67L91.37,62.33L91.64,58.67L95.81,58.67L96.09,62.33L96.64,62.33L96.92,58.67L97.2,62.33L97.48,58.67L97.75,58.67L98.03,58.67L98.31,62.33L99.14,58.67L99.42,62.33L99.98,62.33L100.25,58.67L100.81,62.33L101.09,58.67L101.64,58.67L101.92,66L102.75,62.33L103.03,62.33L104.42,62.33L104.7,58.67L104.98,58.67L105.25,62.33L106.09,62.33L106.37,66L107.2,62.33L107.48,62.33L108.31,62.33L108.59,66L109.42,62.33L109.7,66L110.53,62.33L110.81,62.33L112.2,62.33L112.48,66L113.03,62.33L113.31,66L114.14,62.33L114.42,62.33L114.7,58.67L114.98,62.33L115.25,62.33L120.53,62.33" style="vector-effect: none; fill: none; stroke: rgb(217, 95, 2); stroke-opacity: 1; stroke-width: 0.8px; opacity: 1;"/></g><g class="points"/><g class="text"/></g><g class="trace scatter trace514d68" style="stroke-miterlimit: 2; opacity: 0.5;"><g class="fills"/><g class="errorbars"/><g class="lines"><path class="js-line" d="M1.64,40.33L2.2,40.33L2.48,36.67L2.75,36.67L3.03,44L3.31,40.33L3.59,44L3.87,51.33L4.98,29.33L5.25,33L5.53,36.67L5.81,40.33L6.09,33L6.64,40.33L6.92,36.67L7.2,36.67L7.48,44L8.03,40.33L8.31,40.33L8.87,40.33L9.14,44L9.98,44L10.25,47.67L10.53,47.67L10.81,51.33L11.09,51.33L11.37,47.67L11.64,51.33L11.92,47.67L12.2,47.67L13.31,55L13.59,51.33L14.42,51.33L14.7,55L14.98,55L15.25,58.67L16.09,55L16.37,55L16.64,55L16.92,58.67L17.75,55L18.03,55L18.59,55L18.87,58.67L19.42,55L19.7,58.67L19.98,58.67L20.25,55L21.09,58.67L21.37,58.67L24.98,58.67L25.25,62.33L26.09,58.67L26.37,58.67L26.64,62.33L26.92,58.67L27.2,58.67L27.48,58.67L27.75,62.33L28.03,62.33L28.31,58.67L28.87,58.67L29.14,62.33L29.7,58.67L29.98,62.33L30.53,66L30.81,62.33L31.37,58.67L31.64,62.33L32.2,62.33L32.48,58.67L32.75,62.33L33.03,58.67L33.31,55L34.14,62.33L34.42,58.67L34.7,58.67L34.98,62.33L36.64,62.33L36.92,58.67L37.75,66L38.03,62.33L38.87,58.67L39.14,58.67L39.42,55L39.7,62.33L40.25,66L40.53,58.67L41.37,58.67L41.64,66L42.48,58.67L42.75,62.33L43.03,58.67L43.31,62.33L43.59,62.33L44.42,58.67L44.7,62.33L45.53,58.67L45.81,62.33L46.37,62.33L46.64,58.67L47.48,66L47.75,58.67L48.03,62.33L48.31,58.67L48.59,58.67L51.09,58.67L51.37,62.33L51.64,62.33L51.92,58.67L52.2,58.67L52.48,62.33L52.75,62.33L53.03,58.67L54.42,58.67L54.7,62.33L54.98,62.33L55.25,58.67L55.53,55L55.81,58.67L56.09,58.67L56.37,58.67L56.64,55L56.92,55L57.2,58.67L57.48,58.67L57.75,62.33L58.59,58.67L58.87,58.67L59.42,58.67L59.7,62.33L60.53,58.67L60.81,58.67L61.09,58.67L61.37,62.33L62.2,58.67L62.48,58.67L63.59,58.67L63.87,62.33L64.14,58.67L64.42,62.33L64.7,62.33L64.98,66L65.25,62.33L65.53,62.33L65.81,58.67L66.09,62.33L66.37,62.33L66.64,62.33L66.92,66L67.75,62.33L68.03,62.33L68.87,58.67L69.14,58.67L70.25,66L70.53,62.33L71.64,62.33L71.92,66L73.03,66L73.31,69.67L74.14,62.33L74.42,66L74.98,66L75.25,62.33L75.81,66L76.09,62.33L76.64,69.67L76.92,66L77.2,62.33L78.31,69.67L78.59,66L78.87,62.33L79.14,66L79.42,66L79.7,66L79.98,62.33L80.81,66L81.09,66L81.92,66L82.2,62.33L83.31,69.67L83.59,69.67L84.42,62.33L84.7,69.67L85.25,62.33L85.53,66L85.81,69.67L86.64,66L86.92,69.67L87.48,62.33L87.75,69.67L88.59,62.33L88.87,66L89.14,62.33L89.42,69.67L89.7,66L89.98,69.67L90.25,69.67L90.81,69.67L91.09,66L91.37,69.67L91.64,62.33L92.2,69.67L92.48,62.33L93.03,66L93.31,62.33L94.42,69.67L94.7,62.33L94.98,62.33L95.25,69.67L95.81,66L96.09,69.67L96.37,66L96.64,69.67L96.92,69.67L97.48,62.33L97.75,69.67L98.59,62.33L98.87,69.67L99.14,66L99.42,69.67L99.7,69.67L100.53,62.33L100.81,66L101.09,62.33L101.37,66L101.64,69.67L102.2,58.67L102.48,66L103.03,66L103.31,69.67L103.59,62.33L103.87,69.67L104.14,69.67L105.25,62.33L105.53,66L106.09,66L106.37,69.67L106.92,66L107.2,69.67L107.75,62.33L108.03,69.67L108.31,66L108.59,69.67L108.87,69.67L109.42,62.33L109.7,66L109.98,66L110.25,66L110.53,69.67L111.37,66L111.64,69.67L112.48,62.33L112.75,66L113.03,66L113.31,62.33L114.42,69.67L114.7,66L114.98,66L115.25,69.67L116.09,62.33L116.37,66L116.64,66L116.92,69.67L117.2,62.33L117.75,66L118.03,66L118.31,69.67L118.59,66L118.87,62.33L119.7,66L119.98,66L120.25,66L120.53,62.33" style="vector-effect: none; fill: none; stroke: rgb(217, 95, 2); stroke-opacity: 1; stroke-width: 0.8px; opacity: 1;"/></g><g class="points"/><g class="text"/></g><g class="trace scatter trace5f6ad8" style="stroke-miterlimit: 2; opacity: 1;"><g class="fills"/><g class="errorbars"/><g class="lines"><path class="js-line" d="M1.64,33L2.2,36.67L2.48,33L3.59,33L3.87,36.67L4.7,25.67L4.98,33L5.81,36.67L6.09,33L6.37,33L6.64,36.67L7.2,33L7.48,36.67L7.75,36.67L8.03,33L8.87,40.33L9.14,40.33L10.25,47.67L10.53,44L11.37,40.33L11.64,40.33L11.92,47.67L12.2,44L12.48,40.33L13.59,47.67L13.87,44L14.7,47.67L14.98,47.67L15.53,47.67L15.81,55L16.92,47.67L17.2,51.33L17.75,55L18.03,51.33L18.87,51.33L19.14,55L19.42,47.67L19.98,51.33L20.25,55L20.53,51.33L20.81,58.67L21.37,51.33L21.64,58.67L22.48,51.33L22.75,58.67L23.31,58.67L23.59,55L23.87,55L24.14,58.67L24.42,58.67L24.7,55L25.25,47.67L25.53,51.33L25.81,55L26.09,58.67L26.37,55L26.64,55L26.92,55L27.2,51.33L27.75,51.33L28.03,55L28.87,47.67L29.14,47.67L29.42,55L29.7,51.33L29.98,47.67L31.09,55L31.37,51.33L31.92,55L32.2,51.33L33.03,55L33.31,55L33.59,55L33.87,62.33L34.7,51.33L34.98,55L35.25,58.67L35.53,55L35.81,55L36.64,51.33L36.92,55L37.2,51.33L37.48,58.67L38.03,51.33L38.31,55L38.59,58.67L39.42,55L39.7,55L39.98,51.33L40.25,55L40.53,55L40.81,51.33L41.09,58.67L41.64,51.33L41.92,58.67L42.2,58.67L42.48,47.67L42.75,62.33L43.31,55L43.59,55L43.87,55L44.14,47.67L44.98,58.67L45.25,55L45.53,55L45.81,51.33L46.37,55L46.64,51.33L46.92,51.33L47.2,58.67L47.48,51.33L47.75,55L48.03,58.67L49.14,51.33L49.42,55L49.7,55L49.98,58.67L50.25,51.33L50.53,55L50.81,58.67L51.37,58.67L51.64,55L51.92,47.67L52.2,58.67L52.48,58.67L52.75,55L53.03,58.67L53.31,58.67L53.59,51.33L54.14,55L54.42,55L55.25,55L55.53,51.33L56.37,55L56.64,55L56.92,55L57.2,51.33L58.03,55L58.31,55L58.59,55L58.87,51.33L59.14,58.67L59.42,55L59.7,51.33L60.53,55L60.81,55L61.64,51.33L61.92,55L62.2,55L62.48,51.33L62.75,55L63.03,51.33L63.31,51.33L64.14,51.33L64.42,55L64.98,51.33L65.25,55L66.09,51.33L66.37,51.33L67.2,55L67.48,47.67L68.59,55L68.87,51.33L69.98,51.33L70.25,55L70.53,51.33L70.81,55L71.09,55L71.92,51.33L72.2,51.33L72.48,51.33L72.75,47.67L73.59,51.33L73.87,51.33L74.7,47.67L74.98,51.33L76.37,51.33L76.64,47.67L76.92,47.67L77.2,55L78.31,47.67L78.59,51.33L79.98,51.33L80.25,47.67L81.37,47.67L81.64,51.33L81.92,47.67L82.2,51.33L82.48,51.33L82.75,51.33L83.03,47.67L83.87,51.33L84.14,51.33L87.2,51.33L87.48,47.67L87.75,47.67L88.03,51.33L88.87,47.67L89.14,51.33L90.53,51.33L90.81,47.67L91.64,51.33L91.92,47.67L92.2,55L92.75,51.33L93.03,47.67L93.31,47.67L93.59,51.33L94.14,51.33L94.42,47.67L95.25,51.33L95.53,51.33L95.81,51.33L96.09,47.67L96.92,55L97.2,47.67L97.48,55L98.03,51.33L98.31,51.33L99.7,51.33L99.98,55L101.09,47.67L101.37,47.67L102.2,51.33L102.48,47.67L103.03,51.33L103.31,47.67L103.87,55L104.14,51.33L104.42,55L104.98,51.33L105.25,55L106.37,55L106.64,51.33L107.2,47.67L107.48,51.33L108.31,51.33L108.59,55L108.87,51.33L109.14,55L109.42,55L109.7,55L109.98,51.33L110.81,55L111.09,47.67L111.92,55L112.2,55L112.48,55L112.75,51.33L113.03,51.33L113.31,55L113.87,51.33L114.14,55L114.7,55L114.98,51.33L115.81,55L116.09,51.33L116.92,55L117.2,51.33L117.48,51.33L117.75,55L119.42,55L119.7,51.33L120.53,55" style="vector-effect: none; fill: none; stroke: rgb(217, 95, 2); stroke-opacity: 1; stroke-width: 0.8px; opacity: 1;"/></g><g class="points"/><g class="text"/></g><g class="trace scatter tracea73234" style="stroke-miterlimit: 2; opacity: 1;"><g class="fills"/><g class="errorbars"/><g class="lines"><path class="js-line" d="M1.64,40.33L1.92,40.33L2.2,44L2.48,40.33L2.75,44L3.03,44L3.87,47.67L4.14,44L4.98,33L5.25,36.67L5.53,36.67L5.81,36.67L6.09,40.33L6.37,36.67L6.64,40.33L6.92,40.33L7.48,44L7.75,40.33L8.59,40.33L8.87,44L9.14,44L9.42,47.67L9.98,47.67L10.25,44L10.53,44L10.81,47.67L11.92,47.67L12.2,51.33L12.48,47.67L12.75,51.33L13.03,51.33L13.31,51.33L13.59,47.67L14.42,55L14.7,55L15.81,55L16.09,51.33L16.37,51.33L16.64,55L17.48,58.67L17.75,58.67L18.03,58.67L18.31,55L18.59,55L18.87,58.67L19.14,58.67L19.42,55L19.98,55L20.25,58.67L20.53,58.67L20.81,55L21.64,58.67L21.92,58.67L22.75,62.33L23.03,62.33L26.64,62.33L26.92,58.67L27.75,62.33L28.03,62.33L29.42,62.33L29.7,66L31.09,66L31.37,62.33L31.64,62.33L31.92,66L32.2,66L32.48,58.67L32.75,58.67L33.03,66L33.87,62.33L34.14,66L34.7,66L34.98,62.33L35.81,66L36.09,66L36.64,66L36.92,58.67L37.75,66L38.03,66L41.09,66L41.37,62.33L41.64,62.33L41.92,66L42.2,66L42.48,62.33L43.03,66L43.31,62.33L43.59,55L43.87,66L44.14,66L44.42,62.33L44.7,66L44.98,66L47.2,66L47.48,62.33L48.31,66L48.59,66L49.98,66L50.25,62.33L50.53,62.33L50.81,66L53.31,66L53.59,62.33L54.42,66L54.7,66L55.81,58.67L56.09,62.33L56.64,66L56.92,62.33L57.2,62.33L57.48,66L58.31,66L58.59,62.33L58.87,66L59.14,62.33L59.42,62.33L60.25,66L60.53,66L61.09,62.33L61.37,66L62.2,62.33L62.48,62.33L63.87,62.33L64.14,66L64.98,62.33L65.25,62.33L65.81,66L66.09,62.33L76.64,62.33L76.92,58.67L77.75,62.33L78.03,62.33L78.31,66L78.59,62.33L78.87,62.33L89.14,62.33L89.42,58.67L90.53,66L90.81,62.33L91.09,62.33L91.37,66L92.2,62.33L92.48,62.33L95.81,62.33L96.09,66L96.92,62.33L97.2,62.33L97.48,66L97.75,62.33L98.03,62.33L99.14,62.33L99.42,66L99.7,58.67L100.25,62.33L100.53,62.33L101.64,62.33L101.92,66L102.75,62.33L103.03,66L105.81,66L106.09,62.33L106.37,69.67L106.64,62.33L106.92,62.33L107.75,66L108.03,66L108.31,66L108.59,69.67L109.42,66L109.7,69.67L110.53,58.67L110.81,62.33L111.09,66L112.2,66L112.48,69.67L113.03,62.33L113.31,69.67L113.59,62.33L114.14,66L114.42,66L114.7,66L114.98,62.33L115.25,62.33L115.53,66L116.09,66L116.37,62.33L117.2,66L117.48,62.33L118.31,66L118.59,62.33L119.42,66L119.7,66L120.53,66" style="vector-effect: none; fill: none; stroke: rgb(217, 95, 2); stroke-opacity: 1; stroke-width: 0.8px; opacity: 1;"/></g><g class="points"/><g class="text"/></g><g class="trace scatter tracec23406" style="stroke-miterlimit: 2; opacity: 1;"><g class="fills"/><g class="errorbars"/><g class="lines"><path class="js-line" d="M1.64,33L2.48,33L2.75,36.67L3.87,51.33L4.14,44L5.53,33L5.81,40.33L6.09,36.67L6.37,40.33L6.64,40.33L7.2,36.67L7.48,44L8.31,40.33L8.59,40.33L9.42,40.33L9.7,44L9.98,44L10.25,47.67L10.53,44L10.81,47.67L11.09,47.67L11.37,44L11.64,47.67L11.92,47.67L12.75,47.67L13.03,51.33L13.31,51.33L13.59,47.67L13.87,47.67L14.14,51.33L14.42,51.33L14.7,55L15.53,51.33L15.81,51.33L16.64,51.33L16.92,58.67L17.75,55L18.03,55L18.59,55L18.87,58.67L19.7,55L19.98,55L23.03,55L23.31,58.67L26.37,58.67L26.64,62.33L27.48,58.67L27.75,58.67L29.98,58.67L30.25,62.33L30.53,62.33L30.81,58.67L31.37,58.67L31.64,62.33L32.2,62.33L32.48,51.33L33.03,58.67L33.31,55L33.59,58.67L34.7,58.67L34.98,62.33L35.25,62.33L35.53,58.67L36.09,58.67L36.37,62.33L36.64,62.33L36.92,58.67L37.75,62.33L38.03,58.67L38.31,58.67L38.59,62.33L39.42,55L39.7,62.33L40.25,62.33L40.53,58.67L40.81,58.67L41.09,62.33L41.92,58.67L42.2,62.33L43.03,58.67L43.31,62.33L43.59,62.33L43.87,58.67L44.7,62.33L44.98,58.67L45.53,58.67L45.81,62.33L46.64,58.67L46.92,62.33L47.48,62.33L47.75,58.67L48.03,62.33L48.31,58.67L48.59,58.67L51.09,58.67L51.37,62.33L51.64,62.33L51.92,58.67L52.2,58.67L52.48,62.33L52.75,62.33L53.03,58.67L54.42,58.67L54.7,62.33L54.98,62.33L55.25,58.67L56.92,58.67L57.2,62.33L58.03,58.67L58.31,58.67L59.42,58.67L59.7,62.33L60.25,55L60.53,58.67L60.81,58.67L61.09,58.67L61.37,62.33L62.2,58.67L62.48,58.67L63.03,58.67L63.31,55L64.14,58.67L64.42,58.67L64.7,58.67L64.98,62.33L65.81,55L66.09,58.67L66.64,58.67L66.92,62.33L68.03,55L68.31,55L69.14,55L69.42,58.67L69.98,55L70.25,58.67L70.53,55L70.81,58.67L71.09,58.67L71.64,55L71.92,58.67L72.2,58.67L72.48,55L72.75,55L73.03,58.67L73.31,58.67L73.59,55L73.87,62.33L74.42,58.67L74.7,58.67L74.98,58.67L75.25,55L76.09,55L76.37,58.67L76.92,58.67L77.2,55L78.03,58.67L78.31,58.67L79.14,55L79.42,58.67L79.7,58.67L79.98,55L80.81,58.67L81.09,55L81.37,55L81.64,58.67L81.92,58.67L82.2,51.33L83.03,58.67L83.31,58.67L84.14,58.67L84.42,55L84.98,58.67L85.25,55L86.09,58.67L86.37,58.67L86.64,55L86.92,58.67L87.2,58.67L87.48,55L87.75,58.67L88.03,58.67L88.31,58.67L88.59,55L89.42,58.67L89.7,58.67L91.37,58.67L91.64,55L92.2,58.67L92.48,55L93.03,58.67L93.31,55L93.59,55L93.87,58.67L94.42,58.67L94.7,55L94.98,55L95.25,58.67L95.53,62.33L95.81,55L96.64,58.67L96.92,58.67L97.48,58.67L97.75,62.33L98.03,62.33L98.31,55L98.87,62.33L99.14,55L99.98,62.33L100.25,55L101.37,62.33L101.64,62.33L101.92,62.33L102.2,58.67L102.48,62.33L102.75,58.67L103.03,58.67L103.87,62.33L104.14,62.33L104.98,58.67L105.25,58.67L105.53,58.67L105.81,62.33L106.64,58.67L106.92,62.33L107.2,62.33L107.48,58.67L107.75,58.67L108.03,62.33L108.87,62.33L109.14,58.67L109.42,58.67L109.7,55L110.81,62.33L111.09,58.67L111.64,62.33L111.92,55L112.75,58.67L113.03,58.67L113.87,62.33L114.14,62.33L114.42,62.33L114.7,58.67L115.25,62.33L115.53,58.67L116.37,62.33L116.64,58.67L117.48,62.33L117.75,58.67L118.31,66L118.59,62.33L118.87,58.67L119.7,62.33L119.98,58.67L120.53,62.33" style="vector-effect: none; fill: none; stroke: rgb(217, 95, 2); stroke-opacity: 1; stroke-width: 0.8px; opacity: 1;"/></g><g class="points"/><g class="text"/></g></g></g></g><path class="xlines-above crisp" d="M24.5,130.25H145.5M24.5,19.75H145.5" style="fill: none; stroke-width: 0.5px; stroke: rgb(0, 0, 0); stroke-opacity: 1;"/><path class="ylines-above crisp" d="M24.75,20V130M145.25,20V130" style="fill: none; stroke-width: 0.5px; stroke: rgb(0, 0, 0); stroke-opacity: 1;"/><g class="overlines-above"/><g class="xaxislayer-above"><g class="xtick"><text text-anchor="middle" x="0" y="140.1" transform="translate(25,0)" style="font-family: 'Open Sans', verdana, arial, sans-serif; font-size: 8px; fill: rgb(0, 0, 0); fill-opacity: 1; white-space: pre; opacity: 1;">0</text></g><g class="xtick"><text text-anchor="middle" x="0" y="140.1" style="font-family: 'Open Sans', verdana, arial, sans-serif; font-size: 8px; fill: rgb(0, 0, 0); fill-opacity: 1; white-space: pre; opacity: 1;" transform="translate(45,0)">12</text></g><g class="xtick"><text text-anchor="middle" x="0" y="140.1" style="font-family: 'Open Sans', verdana, arial, sans-serif; font-size: 8px; fill: rgb(0, 0, 0); fill-opacity: 1; white-space: pre; opacity: 1;" transform="translate(65,0)">24</text></g><g class="xtick"><text text-anchor="middle" x="0" y="140.1" style="font-family: 'Open Sans', verdana, arial, sans-serif; font-size: 8px; fill: rgb(0, 0, 0); fill-opacity: 1; white-space: pre; opacity: 1;" transform="translate(85,0)">36</text></g><g class="xtick"><text text-anchor="middle" x="0" y="140.1" style="font-family: 'Open Sans', verdana, arial, sans-serif; font-size: 8px; fill: rgb(0, 0, 0); fill-opacity: 1; white-space: pre; opacity: 1;" transform="translate(105,0)">48</text></g><g class="xtick"><text text-anchor="middle" x="0" y="140.1" style="font-family: 'Open Sans', verdana, arial, sans-serif; font-size: 8px; fill: rgb(0, 0, 0); fill-opacity: 1; white-space: pre; opacity: 1;" transform="translate(125,0)">60</text></g><g class="xtick"><text text-anchor="middle" x="0" y="140.1" style="font-family: 'Open Sans', verdana, arial, sans-serif; font-size: 8px; fill: rgb(0, 0, 0); fill-opacity: 1; white-space: pre; opacity: 1;" transform="translate(145,0)">72</text></g></g><g class="yaxislayer-above"><g class="ytick"><text text-anchor="end" x="22.9" y="2.8" transform="translate(0,130)" style="font-family: 'Open Sans', verdana, arial, sans-serif; font-size: 8px; fill: rgb(0, 0, 0); fill-opacity: 1; white-space: pre; opacity: 1;">0</text></g><g class="ytick"><text text-anchor="end" x="22.9" y="2.8" style="font-family: 'Open Sans', verdana, arial, sans-serif; font-size: 8px; fill: rgb(0, 0, 0); fill-opacity: 1; white-space: pre; opacity: 1;" transform="translate(0,93.33)">0.01</text></g><g class="ytick"><text text-anchor="end" x="22.9" y="2.8" style="font-family: 'Open Sans', verdana, arial, sans-serif; font-size: 8px; fill: rgb(0, 0, 0); fill-opacity: 1; white-space: pre; opacity: 1;" transform="translate(0,56.67)">0.02</text></g><g class="ytick"><text text-anchor="end" x="22.9" y="2.8" style="font-family: 'Open Sans', verdana, arial, sans-serif; font-size: 8px; fill: rgb(0, 0, 0); fill-opacity: 1; white-space: pre; opacity: 1;" transform="translate(0,20)">0.03</text></g></g><g class="overaxes-above"/></g></g><g class="polarlayer"/><g class="smithlayer"/><g class="ternarylayer"/><g class="geolayer"/><g class="funnelarealayer"/><g class="pielayer"/><g class="iciclelayer"/><g class="treemaplayer"/><g class="sunburstlayer"/><g class="glimages"/><defs id="topdefs-4e5965"><g class="clips"/></defs><g class="layer-above"><g class="imagelayer"/><g class="shapelayer"/></g><g class="infolayer"><g class="g-gtitle"><text class="gtitle" x="7.5" y="10" text-anchor="start" dy="0em" style="opacity: 1; font-family: 'Open Sans', verdana, arial, sans-serif; font-size: 8px; fill: rgb(0, 0, 0); fill-opacity: 1; white-space: pre;"><tspan style="font-style:italic">O. anthropi</tspan></text></g><g class="g-xtitle" transform="translate(0,0.5406250000000057)"><text class="xtitle" x="85" y="147.459375" text-anchor="middle" style="opacity: 1; font-family: 'Open Sans', verdana, arial, sans-serif; font-size: 8px; fill: rgb(0, 0, 0); fill-opacity: 1; white-space: pre;">Time [h]</text></g><g class="g-ytitle" transform="translate(4.5029296875,0)"><text class="ytitle" transform="rotate(-90,4.496874999999999,75)" x="4.496874999999999" y="75" text-anchor="middle" style="opacity: 1; font-family: 'Open Sans', verdana, arial, sans-serif; font-size: 8px; fill: rgb(0, 0, 0); fill-opacity: 1; white-space: pre;">OD</text></g></g></svg>