<svg class="main-svg" xmlns="http://www.w3.org/2000/svg" xmlns:xlink="http://www.w3.org/1999/xlink" width="100" height="150" style="" viewBox="0 0 100 150"><rect x="0" y="0" width="100" height="150" style="fill: rgb(255, 255, 255); fill-opacity: 1;"/><defs id="defs-4b42dc"><g class="clips"><clipPath id="clip4b42dcxyplot" class="plotclip"><rect width="55" height="97"/></clipPath><clipPath class="axesclip" id="clip4b42dcx"><rect x="29" y="0" width="55" height="150"/></clipPath><clipPath class="axesclip" id="clip4b42dcy"><rect x="0" y="20" width="100" height="97"/></clipPath><clipPath class="axesclip" id="clip4b42dcxy"><rect x="29" y="20" width="55" height="97"/></clipPath></g><g class="gradients"/><g class="patterns"/></defs><g class="bglayer"/><g class="layer-below"><g class="imagelayer"/><g class="shapelayer"/></g><g class="cartesianlayer"><g class="subplot xy"><g class="layer-subplot"><g class="shapelayer"/><g class="imagelayer"/></g><g class="minor-gridlayer"><g class="x"/><g class="y"/></g><g class="gridlayer"><g class="x"><path class="xgrid crisp" transform="translate(38.17,0)" d="M0,20v97" style="stroke: rgb(128, 128, 128); stroke-opacity: 1; stroke-width: 0.2px;"/><path class="xgrid crisp" transform="translate(47.33,0)" d="M0,20v97" style="stroke: rgb(128, 128, 128); stroke-opacity: 1; stroke-width: 0.2px;"/><path class="xgrid crisp" transform="translate(56.5,0)" d="M0,20v97" style="stroke: rgb(128, 128, 128); stroke-opacity: 1; stroke-width: 0.2px;"/><path class="xgrid crisp" transform="translate(65.67,0)" d="M0,20v97" style="stroke: rgb(128, 128, 128); stroke-opacity: 1; stroke-width: 0.2px;"/><path class="xgrid crisp" transform="translate(74.83,0)" d="M0,20v97" style="stroke: rgb(128, 128, 128); stroke-opacity: 1; stroke-width: 0.2px;"/></g><g class="y"><path class="ygrid crisp" transform="translate(0,84.67)" d="M29,0h55" style="stroke: rgb(128, 128, 128); stroke-opacity: 1; stroke-width: 0.2px;"/><path class="ygrid crisp" transform="translate(0,52.33)" d="M29,0h55" style="stroke: rgb(128, 128, 128); stroke-opacity: 1; stroke-width: 0.2px;"/></g></g><g class="zerolinelayer"/><g class="layer-between"><g class="shapelayer"/><g class="imagelayer"/></g><path class="xlines-below"/><path class="ylines-below"/><g class="overlines-below"/><g class="xaxislayer-below"/><g class="yaxislayer-below"/><g class="overaxes-below"/><g class="overplot"><g class="xy" transform="translate(29,20)" clip-path="url(#clip4b42dcxyplot)"><g class="scatterlayer mlayer"><g class="trace scatter tracea43103" style="stroke-miterlimit: 2; opacity: 0.5;"><g class="fills"/><g class="errorbars"/><g class="lines"><path class="js-line" d="M0.75,35.57L1.52,42.03L1.64,35.57L2.03,42.03L2.15,32.33L2.41,38.8L2.54,35.57L2.79,32.33L3.3,38.8L3.43,38.8L3.68,35.57L3.81,42.03L3.94,42.03L4.19,42.03L4.32,45.27L4.57,45.27L4.7,48.5L5.21,42.03L5.34,45.27L5.46,51.73L5.72,45.27L6.23,48.5L6.36,45.27L7.25,54.97L7.37,51.73L7.76,48.5L8.14,54.97L8.26,51.73L8.77,54.97L8.9,48.5L9.67,58.2L9.79,48.5L10.56,58.2L10.68,54.97L10.94,54.97L11.07,58.2L11.32,58.2L11.45,54.97L11.7,48.5L12.08,51.73L12.21,54.97L12.47,51.73L12.85,54.97L12.98,58.2L13.74,54.97L13.87,54.97L14.25,54.97L14.38,51.73L15.39,61.43L15.52,58.2L15.65,54.97L15.9,51.73L16.29,54.97L16.41,54.97L16.92,58.2L17.05,54.97L17.18,54.97L17.56,54.97L17.69,58.2L18.32,54.97L18.45,58.2L18.58,54.97L19.09,58.2L19.21,58.2L19.47,51.73L19.85,54.97L19.98,58.2L20.87,51.73L21,51.73L21.89,58.2L22.01,54.97L22.4,54.97L22.52,51.73L23.29,54.97L23.42,54.97L23.8,51.73L24.05,54.97L24.18,54.97L24.43,54.97L24.56,51.73L25.33,54.97L25.45,51.73L26.09,54.97L26.22,51.73L26.85,54.97L26.98,51.73L27.49,54.97L27.62,51.73L27.74,48.5L28.51,54.97L28.64,51.73L29.4,54.97L29.53,54.97L30.29,51.73L30.42,51.73L30.8,54.97L31.05,51.73L31.18,51.73L31.69,54.97L31.82,51.73L31.95,51.73L32.71,54.97L32.84,54.97L33.6,51.73L33.73,51.73L34.49,54.97L34.62,54.97L35.13,54.97L35.26,51.73L36.02,54.97L36.15,54.97L36.66,54.97L36.78,51.73L37.29,51.73L37.42,54.97L38.06,51.73L38.18,54.97L38.31,51.73L38.82,54.97L38.95,54.97L39.97,54.97L40.09,51.73L40.98,54.97L41.11,54.97L41.49,54.97L41.62,51.73L42.26,54.97L42.39,51.73L43.15,54.97L43.28,51.73L43.91,54.97L44.04,51.73L44.8,54.97L44.93,54.97L45.19,54.97L45.31,51.73L46.08,54.97L46.2,54.97L46.97,51.73L47.1,54.97L47.35,51.73L47.48,54.97L47.61,58.2L47.99,51.73L48.37,54.97L48.5,54.97L48.88,54.97L49.01,51.73L49.51,58.2L49.77,54.97L49.9,54.97L50.28,54.97L50.41,51.73L51.17,58.2L51.3,58.2L51.81,51.73L51.93,54.97L52.06,58.2L52.19,51.73L52.7,58.2L52.83,58.2L53.08,54.97L53.46,58.2L53.59,58.2L54.35,54.97L54.48,58.2L54.73,58.2L54.86,51.73L55.24,58.2" style="vector-effect: none; fill: none; stroke: rgb(217, 95, 2); stroke-opacity: 1; stroke-width: 0.8px; opacity: 1;"/></g><g class="points"/><g class="text"/></g><g class="trace scatter trace2ab02f" style="stroke-miterlimit: 2; opacity: 0.5;"><g class="fills"/><g class="errorbars"/><g class="lines"><path class="js-line" d="M0.75,32.33L1.14,32.33L1.26,35.57L1.52,32.33L2.03,42.03L2.15,32.33L2.41,25.87L2.92,29.1L3.04,32.33L3.17,29.1L3.43,35.57L3.68,32.33L3.81,32.33L5.08,42.03L5.21,38.8L6.1,45.27L6.23,42.03L6.99,48.5L7.12,48.5L7.5,45.27L7.63,48.5L7.76,51.73L8.14,35.57L8.39,48.5L8.52,48.5L9.03,35.57L9.16,42.03L9.28,51.73L9.79,29.1L10.05,35.57L10.17,45.27L10.56,32.33L10.94,42.03L11.07,45.27L11.58,22.63L11.7,48.5L11.83,38.8L11.96,35.57L12.21,32.33L12.34,38.8L12.47,51.73L12.72,35.57L12.85,48.5L12.98,51.73L13.23,32.33L13.61,48.5L13.74,48.5L13.87,32.33L14.5,38.8L14.63,51.73L15.01,32.33L15.14,51.73L15.39,58.2L15.52,48.5L15.78,51.73L15.9,32.33L16.79,54.97L16.92,51.73L17.18,54.97L17.43,48.5L17.56,54.97L20.49,54.97L20.61,51.73L21.25,54.97L21.38,51.73L22.01,54.97L22.14,51.73L22.91,54.97L23.03,51.73L25.45,51.73L25.58,48.5L26.34,51.73L26.47,51.73L35.76,51.73L35.89,54.97L36.66,51.73L36.78,51.73L38.06,51.73L38.18,54.97L38.95,51.73L39.08,51.73L40.09,51.73L40.22,54.97L41.11,51.73L41.24,51.73L41.49,58.2L41.88,54.97L42,51.73L43.91,51.73L44.04,54.97L44.29,54.97L44.42,51.73L45.06,54.97L45.19,51.73L45.82,54.97L45.95,51.73L46.71,58.2L46.84,54.97L47.86,54.97L47.99,51.73L48.75,58.2L48.88,54.97L49.01,54.97L49.64,54.97L49.77,58.2L50.53,54.97L50.66,54.97L51.42,54.97L51.55,58.2L52.32,54.97L52.44,54.97L52.57,51.73L53.08,54.97L53.21,54.97L55.24,54.97" style="vector-effect: none; fill: none; stroke: rgb(217, 95, 2); stroke-opacity: 1; stroke-width: 0.8px; opacity: 1;"/></g><g class="points"/><g class="text"/></g><g class="trace scatter traceeb051e" style="stroke-miterlimit: 2; opacity: 0.5;"><g class="fills"/><g class="errorbars"/><g class="lines"><path class="js-line" d="M0.75,35.57L1.01,35.57L1.14,32.33L1.77,45.27L2.03,38.8L2.15,35.57L2.28,25.87L2.79,29.1L2.92,35.57L3.3,32.33L3.43,38.8L4.06,35.57L4.19,38.8L4.57,38.8L4.7,42.03L5.34,45.27L5.46,42.03L6.1,48.5L6.36,45.27L6.48,45.27L6.99,51.73L7.37,48.5L7.5,48.5L7.76,51.73L8.14,48.5L8.26,48.5L8.52,48.5L8.65,51.73L9.28,48.5L9.41,51.73L11.45,51.73L11.58,54.97L12.34,51.73L12.47,51.73L12.85,54.97L13.1,51.73L13.23,51.73L13.99,58.2L14.12,54.97L14.89,51.73L15.01,54.97L15.27,48.5L15.78,51.73L15.9,51.73L16.67,54.97L16.79,54.97L17.05,58.2L17.56,51.73L17.69,54.97L18.07,48.5L18.32,58.2L18.45,58.2L19.21,51.73L19.34,54.97L20.11,51.73L20.23,54.97L20.87,51.73L21,54.97L21.25,54.97L21.38,51.73L21.76,58.2L22.01,54.97L22.14,51.73L23.42,51.73L23.54,54.97L24.43,51.73L24.56,51.73L24.94,51.73L25.07,54.97L26.09,48.5L26.22,51.73L26.47,54.97L26.85,51.73L26.98,51.73L27.23,51.73L27.36,54.97L28,51.73L28.13,54.97L28.89,51.73L29.02,51.73L29.78,58.2L29.91,54.97L30.04,54.97L30.16,51.73L30.67,58.2L30.8,54.97L30.93,58.2L31.31,51.73L31.44,51.73L31.69,51.73L31.82,54.97L32.07,54.97L32.2,58.2L32.84,54.97L32.96,58.2L33.47,58.2L33.6,61.43L33.98,54.97L34.36,58.2L34.49,54.97L35.13,61.43L35.26,58.2L35.38,54.97L35.89,61.43L36.02,58.2L36.15,54.97L36.78,58.2L36.91,54.97L37.55,58.2L37.67,54.97L38.57,61.43L38.69,54.97L39.33,61.43L39.46,58.2L39.58,58.2L39.84,61.43L39.97,58.2L40.09,54.97L40.22,61.43L40.73,58.2L40.86,54.97L41.62,61.43L41.75,58.2L42,54.97L42.26,61.43L42.39,54.97L43.28,61.43L43.4,54.97L44.29,61.43L44.42,61.43L45.19,54.97L45.31,61.43L46.08,54.97L46.2,58.2L46.59,61.43L46.84,51.73L46.97,58.2L47.22,58.2L47.35,61.43L48.11,54.97L48.24,54.97L49.13,61.43L49.26,58.2L49.39,54.97L49.51,61.43L49.77,61.43L49.9,61.43L50.15,54.97L50.53,58.2L50.66,61.43L51.55,54.97L51.68,58.2L51.93,54.97L52.19,58.2L52.32,61.43L53.21,54.97L53.33,58.2L53.72,54.97L53.84,61.43L53.97,58.2L54.1,58.2L54.23,61.43L54.48,54.97L54.73,58.2L54.86,58.2L55.12,58.2L55.24,54.97" style="vector-effect: none; fill: none; stroke: rgb(217, 95, 2); stroke-opacity: 1; stroke-width: 0.8px; opacity: 1;"/></g><g class="points"/><g class="text"/></g><g class="trace scatter tracec87197" style="stroke-miterlimit: 2; opacity: 1;"><g class="fills"/><g class="errorbars"/><g class="lines"><path class="js-line" d="M0.75,29.1L1.01,32.33L1.39,29.1L1.52,29.1L1.77,32.33L1.9,29.1L2.03,25.87L2.15,22.63L2.41,32.33L2.54,29.1L2.66,32.33L3.3,29.1L3.43,32.33L3.68,29.1L3.81,35.57L3.94,35.57L4.19,35.57L4.32,38.8L4.57,38.8L4.7,42.03L5.34,35.57L5.46,42.03L5.72,35.57L6.1,42.03L6.23,42.03L6.36,38.8L6.86,42.03L6.99,42.03L7.5,48.5L7.63,45.27L7.76,42.03L8.14,48.5L8.52,45.27L8.65,45.27L8.9,42.03L9.28,48.5L9.41,45.27L10.17,51.73L10.3,45.27L11.07,51.73L11.19,51.73L11.58,42.03L11.83,48.5L11.96,51.73L12.72,45.27L12.85,48.5L13.36,42.03L13.61,45.27L13.74,42.03L14.63,48.5L14.76,45.27L15.52,54.97L15.65,45.27L16.16,51.73L16.41,48.5L16.54,45.27L16.79,45.27L16.92,48.5L17.18,51.73L17.43,45.27L17.56,48.5L17.69,51.73L18.32,45.27L18.45,48.5L18.58,48.5L18.83,51.73L19.09,45.27L19.21,51.73L19.34,51.73L19.47,42.03L19.6,54.97L20.11,48.5L20.23,42.03L20.61,51.73L21,45.27L21.12,48.5L21.51,45.27L21.63,51.73L21.76,45.27L22.4,48.5L22.52,45.27L23.42,51.73L23.54,51.73L23.8,42.03L24.18,48.5L24.31,51.73L24.56,45.27L25.07,48.5L25.2,48.5L25.45,45.27L25.83,48.5L25.96,48.5L26.22,45.27L26.6,48.5L26.73,48.5L27.11,51.73L27.36,45.27L27.49,48.5L28.25,45.27L28.38,48.5L29.27,45.27L29.4,45.27L29.91,48.5L30.04,45.27L30.16,45.27L30.42,45.27L30.54,48.5L30.93,42.03L31.31,45.27L31.44,48.5L32.07,45.27L32.2,48.5L32.96,45.27L33.09,45.27L33.35,42.03L33.73,45.27L33.86,45.27L34.24,42.03L34.49,45.27L34.62,45.27L35,45.27L35.13,42.03L35.38,48.5L35.76,45.27L35.89,42.03L36.66,45.27L36.78,42.03L37.29,42.03L37.42,45.27L38.06,42.03L38.18,45.27L38.31,42.03L38.82,45.27L38.95,45.27L39.97,45.27L40.09,42.03L40.98,45.27L41.11,45.27L41.49,45.27L41.62,42.03L42.26,48.5L42.39,42.03L43.15,45.27L43.28,42.03L43.91,45.27L44.04,42.03L44.68,48.5L44.8,45.27L44.93,45.27L45.7,45.27L45.82,48.5L46.46,42.03L46.59,45.27L46.71,45.27L47.35,42.03L47.48,48.5L48.11,45.27L48.24,48.5L48.75,48.5L48.88,45.27L49.13,42.03L49.51,45.27L49.64,45.27L50.28,48.5L50.41,45.27L50.92,42.03L51.17,48.5L51.3,48.5L51.55,48.5L51.68,45.27L52.57,48.5L52.7,45.27L53.46,48.5L53.59,48.5L53.84,45.27L54.23,48.5L54.35,48.5L54.73,48.5L54.86,45.27L55.24,48.5" style="vector-effect: none; fill: none; stroke: rgb(217, 95, 2); stroke-opacity: 1; stroke-width: 0.8px; opacity: 1;"/></g><g class="points"/><g class="text"/></g><g class="trace scatter traceb52ebd" style="stroke-miterlimit: 2; opacity: 1;"><g class="fills"/><g class="errorbars"/><g class="lines"><path class="js-line" d="M0.75,35.57L1.77,42.03L1.9,38.8L2.28,29.1L2.66,32.33L2.79,35.57L2.92,32.33L3.3,38.8L3.43,38.8L3.94,35.57L4.06,38.8L4.19,38.8L4.95,42.03L5.08,42.03L5.46,42.03L5.59,45.27L6.23,42.03L6.36,48.5L7.25,48.5L7.37,45.27L8.26,51.73L8.39,48.5L8.77,51.73L9.03,48.5L9.16,48.5L9.92,51.73L10.05,51.73L10.81,54.97L10.94,54.97L12.21,54.97L12.34,51.73L13.1,54.97L13.23,54.97L13.48,54.97L13.61,58.2L14.25,58.2L14.38,54.97L14.76,58.2L14.89,51.73L15.78,58.2L15.9,58.2L16.03,54.97L16.54,58.2L16.67,58.2L16.92,51.73L17.3,58.2L17.43,58.2L18.83,58.2L18.96,54.97L19.72,58.2L19.85,54.97L19.98,48.5L20.11,58.2L20.49,58.2L20.61,58.2L21.63,58.2L21.76,54.97L22.52,58.2L22.65,58.2L22.91,58.2L23.03,54.97L23.92,58.2L24.05,58.2L24.43,58.2L24.56,54.97L25.33,58.2L25.45,54.97L25.58,51.73L25.83,58.2L26.09,54.97L26.22,54.97L26.98,58.2L27.11,54.97L27.74,58.2L27.87,54.97L28.13,58.2L28.51,54.97L28.64,54.97L29.27,54.97L29.4,58.2L29.91,54.97L30.04,58.2L30.16,58.2L30.93,54.97L31.05,54.97L35.13,54.97L35.26,51.73L35.89,58.2L36.02,54.97L36.15,54.97L40.86,54.97L40.98,51.73L41.88,58.2L42,54.97L43.91,54.97L44.04,58.2L44.8,54.97L44.93,54.97L45.44,54.97L45.57,58.2L45.7,51.73L46.33,54.97L46.46,54.97L47.35,58.2L47.48,58.2L48.5,58.2L48.62,54.97L48.75,61.43L49.39,58.2L49.51,58.2L50.28,61.43L50.41,58.2L50.66,51.73L51.04,58.2L51.17,58.2L51.42,58.2L51.55,61.43L52.06,54.97L52.32,58.2L52.44,58.2L52.83,54.97L53.08,58.2L53.21,58.2L53.84,54.97L53.97,58.2L54.23,58.2L54.35,54.97L55.24,58.2" style="vector-effect: none; fill: none; stroke: rgb(217, 95, 2); stroke-opacity: 1; stroke-width: 0.8px; opacity: 1;"/></g><g class="points"/><g class="text"/></g><g class="trace scatter trace458ced" style="stroke-miterlimit: 2; opacity: 1;"><g class="fills"/><g class="errorbars"/><g class="lines"><path class="js-line" d="M0.75,29.1L1.14,29.1L1.26,32.33L1.77,45.27L2.03,35.57L2.15,32.33L2.54,29.1L2.66,35.57L2.79,32.33L2.92,35.57L3.3,32.33L3.43,38.8L4.19,35.57L4.32,35.57L5.08,42.03L5.21,38.8L6.1,45.27L6.23,42.03L6.99,48.5L7.12,45.27L7.25,45.27L7.63,45.27L7.76,51.73L8.52,48.5L8.65,51.73L9.41,48.5L9.54,48.5L10.56,48.5L10.68,51.73L12.08,51.73L12.21,54.97L12.98,51.73L13.1,51.73L13.74,51.73L13.87,54.97L14.38,51.73L14.5,54.97L14.63,54.97L14.89,45.27L15.39,51.73L15.52,51.73L15.9,51.73L16.03,54.97L16.54,51.73L16.67,54.97L16.79,54.97L17.56,51.73L17.69,54.97L18.07,48.5L18.32,54.97L18.45,54.97L19.21,51.73L19.34,54.97L20.11,51.73L20.23,54.97L20.87,51.73L21,54.97L21.38,51.73L21.63,54.97L21.76,54.97L22.52,51.73L22.65,51.73L23.42,51.73L23.54,54.97L24.43,51.73L24.56,51.73L24.94,51.73L25.07,54.97L25.96,51.73L26.09,51.73L26.47,54.97L26.73,51.73L26.85,51.73L27.23,51.73L27.36,54.97L27.62,48.5L28,51.73L28.13,54.97L29.02,48.5L29.14,51.73L29.65,51.73L29.78,54.97L30.16,48.5L30.54,51.73L30.67,54.97L31.56,48.5L31.69,48.5L32.45,51.73L32.58,51.73L33.35,48.5L33.47,51.73L33.73,48.5L33.86,54.97L34.11,51.73L34.24,51.73L34.87,48.5L35,51.73L35.26,51.73L35.38,48.5L35.89,51.73L36.02,48.5L36.15,48.5L36.78,51.73L36.91,48.5L37.55,51.73L37.67,45.27L38.44,51.73L38.57,51.73L39.08,48.5L39.2,51.73L39.33,51.73L39.58,51.73L39.71,48.5L40.48,51.73L40.6,48.5L41.37,51.73L41.49,51.73L41.88,51.73L42,48.5L42.64,51.73L42.77,48.5L43.28,51.73L43.4,48.5L43.53,48.5L43.79,54.97L44.29,51.73L44.42,51.73L44.68,51.73L44.8,54.97L45.44,48.5L45.57,54.97L45.82,54.97L45.95,48.5L46.71,54.97L46.84,51.73L47.61,54.97L47.73,54.97L48.37,51.73L48.5,54.97L49.26,51.73L49.39,51.73L49.9,54.97L50.02,51.73L50.15,51.73L50.28,48.5L50.53,54.97L50.66,54.97L50.79,54.97L51.3,48.5L51.55,51.73L51.68,51.73L52.44,54.97L52.57,51.73L53.33,54.97L53.46,51.73L54.23,58.2L54.35,54.97L54.99,51.73L55.12,54.97" style="vector-effect: none; fill: none; stroke: rgb(217, 95, 2); stroke-opacity: 1; stroke-width: 0.8px; opacity: 1;"/></g><g class="points"/><g class="text"/></g></g></g></g><path class="xlines-above crisp" d="M28.5,117.25H84.5M28.5,19.75H84.5" style="fill: none; stroke-width: 0.5px; stroke: rgb(0, 0, 0); stroke-opacity: 1;"/><path class="ylines-above crisp" d="M28.75,20V117M84.25,20V117" style="fill: none; stroke-width: 0.5px; stroke: rgb(0, 0, 0); stroke-opacity: 1;"/><g class="overlines-above"/><g class="xaxislayer-above"><g class="xtick"><text text-anchor="start" x="0" y="127.1" transform="translate(29,0) rotate(90,0,123.1)" style="font-family: 'Open Sans', verdana, arial, sans-serif; font-size: 8px; fill: rgb(0, 0, 0); fill-opacity: 1; white-space: pre; opacity: 1;">0</text></g><g class="xtick"><text text-anchor="start" x="0" y="127.1" style="font-family: 'Open Sans', verdana, arial, sans-serif; font-size: 8px; fill: rgb(0, 0, 0); fill-opacity: 1; white-space: pre; opacity: 1;" transform="translate(38.17,0) rotate(90,0,123.1)">12</text></g><g class="xtick"><text text-anchor="start" x="0" y="127.1" style="font-family: 'Open Sans', verdana, arial, sans-serif; font-size: 8px; fill: rgb(0, 0, 0); fill-opacity: 1; white-space: pre; opacity: 1;" transform="translate(47.33,0) rotate(90,0,123.1)">24</text></g><g class="xtick"><text text-anchor="start" x="0" y="127.1" style="font-family: 'Open Sans', verdana, arial, sans-serif; font-size: 8px; fill: rgb(0, 0, 0); fill-opacity: 1; white-space: pre; opacity: 1;" transform="translate(56.5,0) rotate(90,0,123.1)">36</text></g><g class="xtick"><text text-anchor="start" x="0" y="127.1" style="font-family: 'Open Sans', verdana, arial, sans-serif; font-size: 8px; fill: rgb(0, 0, 0); fill-opacity: 1; white-space: pre; opacity: 1;" transform="translate(65.67,0) rotate(90,0,123.1)">48</text></g><g class="xtick"><text text-anchor="start" x="0" y="127.1" style="font-family: 'Open Sans', verdana, arial, sans-serif; font-size: 8px; fill: rgb(0, 0, 0); fill-opacity: 1; white-space: pre; opacity: 1;" transform="translate(74.83,0) rotate(90,0,123.1)">60</text></g><g class="xtick"><text text-anchor="start" x="0" y="127.1" style="font-family: 'Open Sans', verdana, arial, sans-serif; font-size: 8px; fill: rgb(0, 0, 0); fill-opacity: 1; white-space: pre; opacity: 1;" transform="translate(84,0) rotate(90,0,123.1)">72</text></g></g><g class="yaxislayer-above"><g class="ytick"><text text-anchor="end" x="26.9" y="2.8" transform="translate(0,117)" style="font-family: 'Open Sans', verdana, arial, sans-serif; font-size: 8px; fill: rgb(0, 0, 0); fill-opacity: 1; white-space: pre; opacity: 1;">0</text></g><g class="ytick"><text text-anchor="end" x="26.9" y="2.8" style="font-family: 'Open Sans', verdana, arial, sans-serif; font-size: 8px; fill: rgb(0, 0, 0); fill-opacity: 1; white-space: pre; opacity: 1;" transform="translate(0,84.67)">0.01</text></g><g class="ytick"><text text-anchor="end" x="26.9" y="2.8" style="font-family: 'Open Sans', verdana, arial, sans-serif; font-size: 8px; fill: rgb(0, 0, 0); fill-opacity: 1; white-space: pre; opacity: 1;" transform="translate(0,52.33)">0.02</text></g><g class="ytick"><text text-anchor="end" x="26.9" y="2.8" style="font-family: 'Open Sans', verdana, arial, sans-serif; font-size: 8px; fill: rgb(0, 0, 0); fill-opacity: 1; white-space: pre; opacity: 1;" transform="translate(0,20)">0.03</text></g></g><g class="overaxes-above"/></g></g><g class="polarlayer"/><g class="smithlayer"/><g class="ternarylayer"/><g class="geolayer"/><g class="funnelarealayer"/><g class="pielayer"/><g class="iciclelayer"/><g class="treemaplayer"/><g class="sunburstlayer"/><g class="glimages"/><defs id="topdefs-4b42dc"><g class="clips"/></defs><g class="layer-above"><g class="imagelayer"/><g class="shapelayer"/></g><g class="infolayer"><g class="g-gtitle"><text class="gtitle" x="5" y="10" text-anchor="start" dy="0em" style="opacity: 1; font-family: 'Open Sans', verdana, arial, sans-serif; font-size: 8px; fill: rgb(0, 0, 0); fill-opacity: 1; white-space: pre;"><tspan style="font-style:italic">O. anthropi</tspan></text></g><g class="g-xtitle" transform="translate(0,3.6500000000000057)"><text class="xtitle" x="56.5" y="138.027734375" text-anchor="middle" style="opacity: 1; font-family: 'Open Sans', verdana, arial, sans-serif; font-size: 8px; fill: rgb(0, 0, 0); fill-opacity: 1; white-space: pre;">Time [h]</text></g><g class="g-ytitle" transform="translate(0.5029296875,0)"><text class="ytitle" transform="rotate(-90,8.496875,68.5)" x="8.496875" y="68.5" text-anchor="middle" style="opacity: 1; font-family: 'Open Sans', verdana, arial, sans-serif; font-size: 8px; fill: rgb(0, 0, 0); fill-opacity: 1; white-space: pre;">OD</text></g></g></svg>