<svg class="main-svg" xmlns="http://www.w3.org/2000/svg" xmlns:xlink="http://www.w3.org/1999/xlink" width="175" height="195" style="" viewBox="0 0 175 195"><rect x="0" y="0" width="175" height="195" style="fill: rgb(255, 255, 255); fill-opacity: 1;"/><defs id="defs-3d889b"><g class="clips"><clipPath id="clip3d889bxyplot" class="plotclip"><rect width="122" height="131"/></clipPath><clipPath class="axesclip" id="clip3d889bx"><rect x="42" y="0" width="122" height="195"/></clipPath><clipPath class="axesclip" id="clip3d889by"><rect x="0" y="30" width="175" height="131"/></clipPath><clipPath class="axesclip" id="clip3d889bxy"><rect x="42" y="30" width="122" height="131"/></clipPath></g><g class="gradients"/><g class="patterns"/></defs><g class="bglayer"/><g class="layer-below"><g class="imagelayer"/><g class="shapelayer"/></g><g class="cartesianlayer"><g class="subplot xy"><g class="layer-subplot"><g class="shapelayer"/><g class="imagelayer"/></g><g class="minor-gridlayer"><g class="x"/><g class="y"/></g><g class="gridlayer"><g class="x"><path class="xgrid crisp" transform="translate(75.55,0)" d="M0,30v131" style="stroke: rgb(128, 128, 128); stroke-opacity: 1; stroke-width: 0.2px;"/><path class="xgrid crisp" transform="translate(109.36,0)" d="M0,30v131" style="stroke: rgb(128, 128, 128); stroke-opacity: 1; stroke-width: 0.2px;"/><path class="xgrid crisp" transform="translate(143.17000000000002,0)" d="M0,30v131" style="stroke: rgb(128, 128, 128); stroke-opacity: 1; stroke-width: 0.2px;"/></g><g class="y"><path class="ygrid crisp" transform="translate(0,140.01)" d="M42,0h122" style="stroke: rgb(128, 128, 128); stroke-opacity: 1; stroke-width: 0.2px;"/><path class="ygrid crisp" transform="translate(0,91.89)" d="M42,0h122" style="stroke: rgb(128, 128, 128); stroke-opacity: 1; stroke-width: 0.2px;"/><path class="ygrid crisp" transform="translate(0,43.769999999999996)" d="M42,0h122" style="stroke: rgb(128, 128, 128); stroke-opacity: 1; stroke-width: 0.2px;"/></g></g><g class="zerolinelayer"/><g class="layer-between"><g class="shapelayer"/><g class="imagelayer"/></g><path class="xlines-below"/><path class="ylines-below"/><g class="overlines-below"/><g class="xaxislayer-below"/><g class="yaxislayer-below"/><g class="overaxes-below"/><g class="overplot"><g class="xy" transform="translate(42,30)" clip-path="url(#clip3d889bxyplot)"><g class="scatterlayer mlayer"><g class="trace scatter trace2d0b24" style="stroke-miterlimit: 2; opacity: 1;"><g class="fills"/><g class="errorbars"/><g class="lines"><path class="js-line" d="M0,124.45L0.28,122.04L0.56,112.42L1.69,107.61L1.97,114.83L2.82,105.2L3.1,110.01L3.94,102.79L4.23,105.2L4.51,102.79L4.79,105.2L5.07,107.61L5.35,107.61L5.64,110.01L6.2,107.61L6.48,110.01L6.76,105.2L7.33,107.61L7.61,107.61L7.89,105.2L8.17,110.01L8.73,107.61L9.02,110.01L9.3,110.01L9.58,112.42L10.71,107.61L10.99,110.01L11.55,107.61L11.83,112.42L12.4,107.61L12.68,110.01L12.96,110.01L13.81,110.01L14.09,112.42L14.65,112.42L14.93,110.01L15.78,114.83L16.06,112.42L16.34,114.83L16.62,112.42L16.91,110.01L17.75,114.83L18.03,112.42L18.6,112.42L18.88,114.83L19.16,117.23L19.44,112.42L20.29,117.23L20.57,114.83L21.13,117.23L21.41,112.42L22.26,117.23L22.54,112.42L23.1,117.23L23.39,114.83L23.67,114.83L23.95,112.42L24.23,114.83L24.51,114.83L24.79,114.83L25.08,112.42L25.36,114.83L25.64,112.42L25.92,112.42L26.2,114.83L26.48,112.42L26.77,112.42L27.89,112.42L28.18,114.83L29.3,110.01L29.58,110.01L31.84,110.01L32.12,107.61L32.4,107.61L32.68,110.01L32.97,110.01L33.25,107.61L34.09,110.01L34.37,107.61L35.22,105.2L35.5,107.61L36.35,105.2L36.63,107.61L37.47,105.2L37.76,105.2L38.6,105.2L38.88,107.61L39.73,102.79L40.01,102.79L40.29,100.39L40.57,105.2L40.85,102.79L41.14,105.2L41.42,105.2L42.26,105.2L42.55,102.79L43.67,97.98L43.95,97.98L44.52,95.58L44.8,97.98L45.64,95.58L45.93,97.98L46.49,95.58L46.77,97.98L47.05,100.39L47.33,95.58L48.18,97.98L48.46,95.58L48.74,95.58L49.03,97.98L49.31,97.98L49.59,95.58L49.87,97.98L50.15,93.17L50.43,97.98L51,95.58L51.28,95.58L51.84,97.98L52.12,93.17L52.41,93.17L52.69,95.58L52.97,93.17L53.25,95.58L53.53,97.98L54.94,85.95L55.22,85.95L55.51,88.36L55.79,85.95L56.07,85.95L56.35,90.76L56.63,88.36L56.91,85.95L57.2,88.36L57.48,85.95L57.76,83.55L58.61,85.95L58.89,85.95L59.45,81.14L59.73,85.95L60.86,81.14L61.14,81.14L61.42,83.55L61.7,78.73L61.99,81.14L62.27,78.73L62.55,78.73L62.83,78.73L63.11,73.92L63.68,78.73L63.96,76.33L64.24,73.92L64.8,78.73L65.09,76.33L65.37,71.52L65.93,76.33L66.21,73.92L66.49,73.92L67.06,71.52L67.34,73.92L69.03,64.3L69.31,66.7L70.16,59.48L70.44,64.3L70.72,69.11L71,64.3L71.28,64.3L71.57,64.3L71.85,66.7L72.69,61.89L72.97,64.3L73.26,64.3L73.54,61.89L74.1,61.89L74.38,59.48L75.23,59.48L75.51,61.89L76.36,66.7L76.64,66.7L77.2,69.11L77.48,66.7L78.61,57.08L78.89,59.48L79.45,57.08L79.74,59.48L80.3,61.89L80.58,59.48L80.86,59.48L81.15,57.08L81.71,57.08L81.99,54.67L82.27,54.67L82.55,57.08L83.4,54.67L83.68,57.08L83.96,52.27L84.53,54.67L84.81,57.08L85.65,59.48L85.94,59.48L86.22,59.48L86.5,61.89L86.78,59.48L87.06,61.89L87.34,61.89L87.63,64.3L87.91,59.48L88.19,59.48L88.47,57.08L88.75,57.08L89.03,59.48L89.88,52.27L90.16,57.08L90.44,57.08L90.73,59.48L91.57,54.67L91.85,47.45L92.98,35.42L93.26,42.64L94.11,40.24L94.39,40.24L95.23,45.05L95.52,35.42L96.64,47.45L96.92,45.05L97.21,45.05L98.05,47.45L98.33,42.64L99.18,49.86L99.46,49.86L99.74,49.86L100.02,47.45L100.3,54.67L100.59,52.27L100.87,49.86L101.15,52.27L101.43,47.45L102,47.45L102.28,42.64L102.56,42.64L102.84,45.05L103.12,47.45L103.4,42.64L103.69,37.83L103.97,42.64L104.25,42.64L104.53,40.24L104.81,45.05L105.09,40.24L105.38,42.64L105.66,45.05L106.22,45.05L106.5,47.45L107.07,47.45L107.35,42.64L107.63,45.05L107.91,33.02L109.32,45.05L109.6,40.24L111.01,47.45L111.29,45.05L111.58,47.45L111.86,42.64L112.14,45.05L112.42,40.24L113.55,54.67L113.83,54.67L114.67,47.45L114.96,49.86L115.24,49.86L115.52,52.27L115.8,49.86L116.08,47.45L117.21,37.83L117.49,40.24L117.77,42.64L118.06,40.24L118.34,37.83L118.9,33.02L119.18,37.83L119.75,37.83L120.03,33.02L120.87,42.64L121.15,37.83L121.44,42.64L121.72,40.24L122,35.42" style="vector-effect: none; fill: none; stroke: rgb(117, 112, 179); stroke-opacity: 1; stroke-width: 1.5px; opacity: 1;"/></g><g class="points"/><g class="text"/></g><g class="trace scatter traceac05fe" style="stroke-miterlimit: 2; opacity: 1;"><g class="fills"/><g class="errorbars"/><g class="lines"><path class="js-line" d="M0,117.23L0.85,107.61L1.13,112.42L1.41,112.42L1.69,110.01L2.54,112.42L2.82,110.01L3.1,112.42L3.38,110.01L3.66,110.01L4.79,105.2L5.07,107.61L5.35,105.2L5.64,110.01L5.92,107.61L6.2,110.01L6.48,110.01L7.04,107.61L7.33,110.01L7.89,107.61L8.17,110.01L9.86,110.01L10.14,112.42L10.42,110.01L10.71,112.42L10.99,112.42L11.83,110.01L12.12,110.01L13.24,114.83L13.52,112.42L14.37,112.42L14.65,114.83L15.5,112.42L15.78,112.42L16.62,112.42L16.91,114.83L17.19,112.42L17.47,114.83L17.75,114.83L18.6,114.83L18.88,117.23L19.72,114.83L20,114.83L26.2,114.83L26.48,112.42L26.77,114.83L27.05,112.42L27.33,112.42L29.87,112.42L30.15,110.01L30.71,112.42L30.99,110.01L32.4,110.01L32.68,107.61L33.25,107.61L33.53,105.2L34.09,107.61L34.37,105.2L34.94,105.2L35.22,107.61L35.5,107.61L35.78,105.2L36.06,105.2L36.35,102.79L36.91,105.2L37.19,102.79L37.47,105.2L37.76,102.79L38.04,102.79L38.32,102.79L38.6,100.39L38.88,102.79L39.16,100.39L39.45,100.39L39.73,97.98L40.01,102.79L41.14,97.98L41.42,97.98L41.7,97.98L41.98,100.39L42.83,95.58L43.11,97.98L43.39,95.58L43.67,97.98L43.95,97.98L44.8,95.58L45.08,95.58L45.93,95.58L46.21,97.98L47.05,93.17L47.33,95.58L48.18,88.36L48.46,93.17L49.31,88.36L49.59,88.36L49.87,88.36L50.15,90.76L51,90.76L51.28,93.17L51.56,93.17L51.84,95.58L52.12,95.58L52.41,90.76L52.69,90.76L52.97,95.58L53.82,97.98L54.1,97.98L54.66,97.98L54.94,95.58L55.22,97.98L55.51,95.58L55.79,93.17L56.07,93.17L56.35,90.76L56.63,90.76L56.91,88.36L57.76,88.36L58.04,85.95L58.32,88.36L58.61,83.55L59.17,83.55L59.45,85.95L59.73,83.55L60.01,88.36L60.3,90.76L60.58,88.36L60.86,88.36L61.42,88.36L61.7,85.95L61.99,90.76L62.55,88.36L62.83,88.36L63.96,88.36L64.24,85.95L64.52,88.36L64.8,85.95L65.09,85.95L65.65,88.36L65.93,85.95L66.21,88.36L66.49,85.95L66.78,83.55L67.34,83.55L67.62,85.95L68.47,83.55L68.75,83.55L69.31,83.55L69.59,78.73L70.16,83.55L70.44,78.73L71,78.73L71.28,73.92L71.57,83.55L72.13,78.73L72.41,81.14L72.69,83.55L72.97,78.73L73.26,78.73L73.54,76.33L74.38,76.33L74.67,78.73L74.95,78.73L75.23,71.52L75.79,76.33L76.07,73.92L76.36,69.11L77.48,76.33L77.76,76.33L78.05,76.33L78.33,71.52L78.61,69.11L78.89,78.73L79.45,73.92L79.74,76.33L80.02,76.33L80.3,76.33L80.58,73.92L80.86,64.3L81.15,71.52L81.43,73.92L81.99,73.92L82.27,64.3L82.55,76.33L83.12,71.52L83.4,71.52L83.68,66.7L83.96,76.33L84.24,71.52L84.81,73.92L85.09,76.33L85.37,76.33L85.65,73.92L85.94,73.92L86.22,69.11L87.06,69.11L87.34,66.7L88.75,52.27L89.03,52.27L89.32,37.83L89.6,45.05L89.88,49.86L90.16,47.45L90.44,52.27L92.42,37.83L92.7,28.21L92.98,37.83L93.54,35.42L93.82,37.83L94.11,40.24L94.39,35.42L94.67,33.02L94.95,37.83L95.23,40.24L95.52,35.42L95.8,35.42L96.08,37.83L96.36,40.24L96.64,37.83L96.92,35.42L97.49,35.42L97.77,33.02L98.9,37.83L99.18,37.83L99.46,35.42L99.74,37.83L100.02,40.24L100.3,40.24L100.59,42.64L100.87,45.05L101.15,42.64L101.43,42.64L101.71,42.64L102,45.05L102.28,45.05L102.56,64.3L102.84,64.3L103.12,61.89L103.4,64.3L103.69,61.89L103.97,54.67L104.81,42.64L105.09,45.05L105.38,45.05L105.94,45.05L106.22,42.64L106.79,40.24L107.07,42.64L107.91,37.83L108.19,37.83L108.48,40.24L108.76,35.42L109.88,40.24L110.17,30.61L110.73,33.02L111.01,30.61L111.86,37.83L112.14,35.42L112.98,28.21L113.27,33.02L113.55,33.02L113.83,35.42L114.11,35.42L114.39,37.83L114.67,37.83L114.96,40.24L116.08,33.02L116.36,35.42L116.65,35.42L116.93,33.02L118.9,45.05L119.18,57.08L120.03,35.42L120.31,37.83L121.44,23.39L121.72,16.17L122,18.58" style="vector-effect: none; fill: none; stroke: rgb(117, 112, 179); stroke-opacity: 1; stroke-width: 1.5px; opacity: 1;"/></g><g class="points"/><g class="text"/></g><g class="trace scatter trace5c0df1" style="stroke-miterlimit: 2; opacity: 1;"><g class="fills"/><g class="errorbars"/><g class="lines"><path class="js-line" d="M0,105.2L0.28,105.2L0.56,102.79L1.41,107.61L1.69,105.2L2.25,105.2L2.54,102.79L3.38,107.61L3.66,102.79L3.94,100.39L4.23,102.79L4.51,105.2L5.35,102.79L5.64,105.2L6.48,107.61L6.76,105.2L7.33,107.61L7.61,105.2L8.45,107.61L8.73,107.61L9.02,107.61L9.3,110.01L9.86,110.01L10.14,107.61L10.71,107.61L10.99,110.01L11.55,110.01L11.83,107.61L12.68,112.42L12.96,112.42L13.24,112.42L13.52,110.01L14.37,112.42L14.65,112.42L15.78,112.42L16.06,110.01L16.34,110.01L16.62,112.42L17.47,114.83L17.75,114.83L18.03,114.83L18.31,112.42L18.6,112.42L18.88,114.83L19.16,114.83L19.44,112.42L20,112.42L20.29,114.83L20.57,114.83L20.85,112.42L21.7,114.83L21.98,114.83L26.77,114.83L27.05,112.42L28.18,117.23L28.46,117.23L29.3,114.83L29.58,114.83L32.4,114.83L32.68,112.42L32.97,112.42L33.25,114.83L34.09,112.42L34.37,114.83L34.94,114.83L35.22,110.01L35.5,114.83L36.06,112.42L36.35,114.83L37.19,110.01L37.47,112.42L38.32,112.42L38.6,110.01L40.57,110.01L40.85,107.61L41.14,110.01L41.42,107.61L41.7,107.61L42.55,107.61L42.83,105.2L44.24,105.2L44.52,102.79L44.8,105.2L45.08,102.79L45.36,102.79L46.49,102.79L46.77,100.39L47.05,100.39L47.33,102.79L47.62,102.79L47.9,100.39L48.46,100.39L48.74,97.98L49.59,100.39L49.87,97.98L50.43,97.98L50.72,95.58L51.56,95.58L51.84,93.17L52.12,93.17L52.41,95.58L53.82,88.36L54.1,90.76L54.38,90.76L54.66,88.36L55.51,90.76L55.79,88.36L56.07,88.36L56.35,85.95L58.32,85.95L58.61,83.55L58.89,83.55L59.17,81.14L60.01,83.55L60.3,81.14L61.14,81.14L61.42,78.73L61.7,78.73L61.99,76.33L62.55,78.73L62.83,76.33L63.11,76.33L63.39,78.73L63.68,78.73L63.96,76.33L64.24,71.52L64.8,73.92L65.09,73.92L65.65,71.52L65.93,73.92L66.21,71.52L66.49,76.33L66.78,76.33L67.06,81.14L67.62,81.14L67.9,83.55L72.13,52.27L72.41,54.67L73.54,49.86L73.82,49.86L75.51,40.24L75.79,40.24L77.2,33.02L77.48,35.42L78.05,35.42L78.33,33.02L78.61,33.02L78.89,35.42L79.45,35.42L79.74,37.83L80.02,40.24L80.3,37.83L80.58,37.83L80.86,37.83L81.15,35.42L81.99,35.42L82.27,37.83L83.4,37.83L83.68,35.42L84.53,42.64L84.81,37.83L85.65,42.64L85.94,37.83L87.63,66.7L87.91,61.89L89.6,28.21L89.88,28.21L91.01,23.39L91.29,23.39L92.42,18.58L92.7,18.58L93.54,13.77L93.82,16.17L94.11,18.58L94.39,16.17L94.67,13.77L94.95,13.77L95.23,16.17L95.8,11.36L96.08,13.77L96.36,13.77L96.64,13.77L96.92,11.36L97.49,13.77L97.77,11.36L98.33,8.96L98.61,13.77L98.9,6.55L99.18,11.36L99.46,11.36L100.3,13.77L100.59,13.77L100.87,13.77L101.15,11.36L101.71,8.96L102,11.36L102.56,13.77L102.84,23.39L103.12,33.02L103.4,23.39L103.69,23.39L104.25,23.39L104.53,20.99L104.81,20.99L105.09,23.39L105.66,18.58L105.94,28.21L106.79,16.17L107.07,25.8L108.48,37.83L108.76,40.24L109.6,40.24L109.88,45.05L110.73,40.24L111.01,40.24L111.29,40.24L111.58,37.83L112.14,37.83L112.42,40.24L113.55,35.42L113.83,40.24L114.67,37.83L114.96,37.83L115.52,37.83L115.8,35.42L116.93,35.42L117.21,33.02L117.49,33.02L117.77,35.42L118.9,30.61L119.18,33.02L120.31,25.8L120.59,28.21L121.44,30.61L121.72,30.61L122,30.61" style="vector-effect: none; fill: none; stroke: rgb(117, 112, 179); stroke-opacity: 1; stroke-width: 1.5px; opacity: 1;"/></g><g class="points"/><g class="text"/></g></g></g></g><path class="xlines-above crisp" d="M41.5,161.25H164.5M41.5,29.75H164.5" style="fill: none; stroke-width: 0.5px; stroke: rgb(0, 0, 0); stroke-opacity: 1;"/><path class="ylines-above crisp" d="M41.75,30V161M164.25,30V161" style="fill: none; stroke-width: 0.5px; stroke: rgb(0, 0, 0); stroke-opacity: 1;"/><g class="overlines-above"/><g class="xaxislayer-above"><g class="xtick"><text text-anchor="middle" x="0" y="174.7" transform="translate(75.55,0)" style="font-family: 'Open Sans', verdana, arial, sans-serif; font-size: 11px; fill: rgb(0, 0, 0); fill-opacity: 1; white-space: pre; opacity: 1;">20</text></g><g class="xtick"><text text-anchor="middle" x="0" y="174.7" style="font-family: 'Open Sans', verdana, arial, sans-serif; font-size: 11px; fill: rgb(0, 0, 0); fill-opacity: 1; white-space: pre; opacity: 1;" transform="translate(109.36,0)">40</text></g><g class="xtick"><text text-anchor="middle" x="0" y="174.7" style="font-family: 'Open Sans', verdana, arial, sans-serif; font-size: 11px; fill: rgb(0, 0, 0); fill-opacity: 1; white-space: pre; opacity: 1;" transform="translate(143.17000000000002,0)">60</text></g></g><g class="yaxislayer-above"><g class="ytick"><text text-anchor="end" x="39.3" y="3.8499999999999996" transform="translate(0,140.01)" style="font-family: 'Open Sans', verdana, arial, sans-serif; font-size: 11px; fill: rgb(0, 0, 0); fill-opacity: 1; white-space: pre; opacity: 1;">0.02</text></g><g class="ytick"><text text-anchor="end" x="39.3" y="3.8499999999999996" style="font-family: 'Open Sans', verdana, arial, sans-serif; font-size: 11px; fill: rgb(0, 0, 0); fill-opacity: 1; white-space: pre; opacity: 1;" transform="translate(0,91.89)">0.04</text></g><g class="ytick"><text text-anchor="end" x="39.3" y="3.8499999999999996" style="font-family: 'Open Sans', verdana, arial, sans-serif; font-size: 11px; fill: rgb(0, 0, 0); fill-opacity: 1; white-space: pre; opacity: 1;" transform="translate(0,43.769999999999996)">0.06</text></g></g><g class="overaxes-above"/></g></g><g class="polarlayer"/><g class="smithlayer"/><g class="ternarylayer"/><g class="geolayer"/><g class="funnelarealayer"/><g class="pielayer"/><g class="iciclelayer"/><g class="treemaplayer"/><g class="sunburstlayer"/><g class="glimages"/><defs id="topdefs-3d889b"><g class="clips"/></defs><g class="layer-above"><g class="imagelayer"/><g class="shapelayer"/></g><g class="infolayer"><g class="g-gtitle"><text class="gtitle" x="8.75" y="15" text-anchor="start" dy="0em" style="opacity: 1; font-family: 'Open Sans', verdana, arial, sans-serif; font-size: 11px; fill: rgb(0, 0, 0); fill-opacity: 1; white-space: pre;"><tspan class="line" dy="0em" x="8.75" y="15">Ct in spent chemo-</tspan><tspan class="line" dy="1.3em" x="8.75" y="15">stat media of Oa</tspan></text></g><g class="g-xtitle" transform="translate(0,4.550000000000011)"><text class="xtitle" x="103" y="185.153125" text-anchor="middle" style="opacity: 1; font-family: 'Open Sans', verdana, arial, sans-serif; font-size: 11px; fill: rgb(0, 0, 0); fill-opacity: 1; white-space: pre;">Time [h]</text></g><g class="g-ytitle"><text class="ytitle" transform="rotate(-90,13.899999999999999,95.5)" x="13.899999999999999" y="95.5" text-anchor="middle" style="opacity: 1; font-family: 'Open Sans', verdana, arial, sans-serif; font-size: 11px; fill: rgb(0, 0, 0); fill-opacity: 1; white-space: pre;">OD</text></g></g></svg>