<svg class="main-svg" xmlns="http://www.w3.org/2000/svg" xmlns:xlink="http://www.w3.org/1999/xlink" width="175" height="160" style="" viewBox="0 0 175 160"><rect x="0" y="0" width="175" height="160" style="fill: rgb(255, 255, 255); fill-opacity: 1;"/><defs id="defs-82840a"><g class="clips"><clipPath id="clip82840axyplot" class="plotclip"><rect width="122" height="96"/></clipPath><clipPath class="axesclip" id="clip82840ax"><rect x="42" y="0" width="122" height="160"/></clipPath><clipPath class="axesclip" id="clip82840ay"><rect x="0" y="30" width="175" height="96"/></clipPath><clipPath class="axesclip" id="clip82840axy"><rect x="42" y="30" width="122" height="96"/></clipPath></g><g class="gradients"/><g class="patterns"/></defs><g class="bglayer"/><g class="layer-below"><g class="imagelayer"/><g class="shapelayer"/></g><g class="cartesianlayer"><g class="subplot xy"><g class="layer-subplot"><g class="shapelayer"/><g class="imagelayer"/></g><g class="minor-gridlayer"><g class="x"/><g class="y"/></g><g class="gridlayer"><g class="x"><path class="xgrid crisp" transform="translate(75.55,0)" d="M0,30v96" style="stroke: rgb(128, 128, 128); stroke-opacity: 1; stroke-width: 0.2px;"/><path class="xgrid crisp" transform="translate(109.36,0)" d="M0,30v96" style="stroke: rgb(128, 128, 128); stroke-opacity: 1; stroke-width: 0.2px;"/><path class="xgrid crisp" transform="translate(143.17000000000002,0)" d="M0,30v96" style="stroke: rgb(128, 128, 128); stroke-opacity: 1; stroke-width: 0.2px;"/></g><g class="y"><path class="ygrid crisp" transform="translate(0,110.62)" d="M42,0h122" style="stroke: rgb(128, 128, 128); stroke-opacity: 1; stroke-width: 0.2px;"/><path class="ygrid crisp" transform="translate(0,75.36)" d="M42,0h122" style="stroke: rgb(128, 128, 128); stroke-opacity: 1; stroke-width: 0.2px;"/><path class="ygrid crisp" transform="translate(0,40.09)" d="M42,0h122" style="stroke: rgb(128, 128, 128); stroke-opacity: 1; stroke-width: 0.2px;"/></g></g><g class="zerolinelayer"/><g class="layer-between"><g class="shapelayer"/><g class="imagelayer"/></g><path class="xlines-below"/><path class="ylines-below"/><g class="overlines-below"/><g class="xaxislayer-below"/><g class="yaxislayer-below"/><g class="overaxes-below"/><g class="overplot"><g class="xy" transform="translate(42,30)" clip-path="url(#clip82840axyplot)"><g class="scatterlayer mlayer"><g class="trace scatter trace88a715" style="stroke-miterlimit: 2; opacity: 1;"><g class="fills"/><g class="errorbars"/><g class="lines"><path class="js-line" d="M0,91.2L0.28,89.44L0.56,82.38L1.69,78.86L1.97,84.15L2.82,77.09L3.1,80.62L3.94,75.33L4.23,77.09L4.51,75.33L4.79,77.09L5.07,78.86L5.35,78.86L5.64,80.62L6.2,78.86L6.48,80.62L6.76,77.09L7.33,78.86L7.61,78.86L7.89,77.09L8.17,80.62L8.73,78.86L9.02,80.62L9.3,80.62L9.58,82.38L10.71,78.86L10.99,80.62L11.55,78.86L11.83,82.38L12.4,78.86L12.68,80.62L12.96,80.62L13.81,80.62L14.09,82.38L14.65,82.38L14.93,80.62L15.78,84.15L16.06,82.38L16.34,84.15L16.62,82.38L16.91,80.62L17.75,84.15L18.03,82.38L18.6,82.38L18.88,84.15L19.16,85.91L19.44,82.38L20.29,85.91L20.57,84.15L21.13,85.91L21.41,82.38L22.26,85.91L22.54,82.38L23.1,85.91L23.39,84.15L23.67,84.15L23.95,82.38L24.23,84.15L24.51,84.15L24.79,84.15L25.08,82.38L25.36,84.15L25.64,82.38L25.92,82.38L26.2,84.15L26.48,82.38L26.77,82.38L27.89,82.38L28.18,84.15L29.3,80.62L29.58,80.62L31.84,80.62L32.12,78.86L32.4,78.86L32.68,80.62L32.97,80.62L33.25,78.86L34.09,80.62L34.37,78.86L35.22,77.09L35.5,78.86L36.35,77.09L36.63,78.86L37.47,77.09L37.76,77.09L38.6,77.09L38.88,78.86L39.73,75.33L40.01,75.33L40.29,73.57L40.57,77.09L40.85,75.33L41.14,77.09L41.42,77.09L42.26,77.09L42.55,75.33L43.67,71.8L43.95,71.8L44.52,70.04L44.8,71.8L45.64,70.04L45.93,71.8L46.49,70.04L46.77,71.8L47.05,73.57L47.33,70.04L48.18,71.8L48.46,70.04L48.74,70.04L49.03,71.8L49.31,71.8L49.59,70.04L49.87,71.8L50.15,68.28L50.43,71.8L51,70.04L51.28,70.04L51.84,71.8L52.12,68.28L52.41,68.28L52.69,70.04L52.97,68.28L53.25,70.04L53.53,71.8L54.94,62.99L55.22,62.99L55.51,64.75L55.79,62.99L56.07,62.99L56.35,66.51L56.63,64.75L56.91,62.99L57.2,64.75L57.48,62.99L57.76,61.22L58.61,62.99L58.89,62.99L59.45,59.46L59.73,62.99L60.86,59.46L61.14,59.46L61.42,61.22L61.7,57.7L61.99,59.46L62.27,57.7L62.55,57.7L62.83,57.7L63.11,54.17L63.68,57.7L63.96,55.93L64.24,54.17L64.8,57.7L65.09,55.93L65.37,52.41L65.93,55.93L66.21,54.17L66.49,54.17L67.06,52.41L67.34,54.17L69.03,47.12L69.31,48.88L70.16,43.59L70.44,47.12L70.72,50.64L71,47.12L71.28,47.12L71.57,47.12L71.85,48.88L72.69,45.36L72.97,47.12L73.26,47.12L73.54,45.36L74.1,45.36L74.38,43.59L75.23,43.59L75.51,45.36L76.36,48.88L76.64,48.88L77.2,50.64L77.48,48.88L78.61,41.83L78.89,43.59L79.45,41.83L79.74,43.59L80.3,45.36L80.58,43.59L80.86,43.59L81.15,41.83L81.71,41.83L81.99,40.07L82.27,40.07L82.55,41.83L83.4,40.07L83.68,41.83L83.96,38.3L84.53,40.07L84.81,41.83L85.65,43.59L85.94,43.59L86.22,43.59L86.5,45.36L86.78,43.59L87.06,45.36L87.34,45.36L87.63,47.12L87.91,43.59L88.19,43.59L88.47,41.83L88.75,41.83L89.03,43.59L89.88,38.3L90.16,41.83L90.44,41.83L90.73,43.59L91.57,40.07L91.85,34.78L92.98,25.96L93.26,31.25L94.11,29.49L94.39,29.49L95.23,33.01L95.52,25.96L96.64,34.78L96.92,33.01L97.21,33.01L98.05,34.78L98.33,31.25L99.18,36.54L99.46,36.54L99.74,36.54L100.02,34.78L100.3,40.07L100.59,38.3L100.87,36.54L101.15,38.3L101.43,34.78L102,34.78L102.28,31.25L102.56,31.25L102.84,33.01L103.12,34.78L103.4,31.25L103.69,27.72L103.97,31.25L104.25,31.25L104.53,29.49L104.81,33.01L105.09,29.49L105.38,31.25L105.66,33.01L106.22,33.01L106.5,34.78L107.07,34.78L107.35,31.25L107.63,33.01L107.91,24.2L109.32,33.01L109.6,29.49L111.01,34.78L111.29,33.01L111.58,34.78L111.86,31.25L112.14,33.01L112.42,29.49L113.55,40.07L113.83,40.07L114.67,34.78L114.96,36.54L115.24,36.54L115.52,38.3L115.8,36.54L116.08,34.78L117.21,27.72L117.49,29.49L117.77,31.25L118.06,29.49L118.34,27.72L118.9,24.2L119.18,27.72L119.75,27.72L120.03,24.2L120.87,31.25L121.15,27.72L121.44,31.25L121.72,29.49L122,25.96" style="vector-effect: none; fill: none; stroke: rgb(117, 112, 179); stroke-opacity: 1; stroke-width: 1.5px; opacity: 1;"/></g><g class="points"/><g class="text"/></g><g class="trace scatter tracee0122c" style="stroke-miterlimit: 2; opacity: 1;"><g class="fills"/><g class="errorbars"/><g class="lines"><path class="js-line" d="M0,85.91L0.85,78.86L1.13,82.38L1.41,82.38L1.69,80.62L2.54,82.38L2.82,80.62L3.1,82.38L3.38,80.62L3.66,80.62L4.79,77.09L5.07,78.86L5.35,77.09L5.64,80.62L5.92,78.86L6.2,80.62L6.48,80.62L7.04,78.86L7.33,80.62L7.89,78.86L8.17,80.62L9.86,80.62L10.14,82.38L10.42,80.62L10.71,82.38L10.99,82.38L11.83,80.62L12.12,80.62L13.24,84.15L13.52,82.38L14.37,82.38L14.65,84.15L15.5,82.38L15.78,82.38L16.62,82.38L16.91,84.15L17.19,82.38L17.47,84.15L17.75,84.15L18.6,84.15L18.88,85.91L19.72,84.15L20,84.15L26.2,84.15L26.48,82.38L26.77,84.15L27.05,82.38L27.33,82.38L29.87,82.38L30.15,80.62L30.71,82.38L30.99,80.62L32.4,80.62L32.68,78.86L33.25,78.86L33.53,77.09L34.09,78.86L34.37,77.09L34.94,77.09L35.22,78.86L35.5,78.86L35.78,77.09L36.06,77.09L36.35,75.33L36.91,77.09L37.19,75.33L37.47,77.09L37.76,75.33L38.04,75.33L38.32,75.33L38.6,73.57L38.88,75.33L39.16,73.57L39.45,73.57L39.73,71.8L40.01,75.33L41.14,71.8L41.42,71.8L41.7,71.8L41.98,73.57L42.83,70.04L43.11,71.8L43.39,70.04L43.67,71.8L43.95,71.8L44.8,70.04L45.08,70.04L45.93,70.04L46.21,71.8L47.05,68.28L47.33,70.04L48.18,64.75L48.46,68.28L49.31,64.75L49.59,64.75L49.87,64.75L50.15,66.51L51,66.51L51.28,68.28L51.56,68.28L51.84,70.04L52.12,70.04L52.41,66.51L52.69,66.51L52.97,70.04L53.82,71.8L54.1,71.8L54.66,71.8L54.94,70.04L55.22,71.8L55.51,70.04L55.79,68.28L56.07,68.28L56.35,66.51L56.63,66.51L56.91,64.75L57.76,64.75L58.04,62.99L58.32,64.75L58.61,61.22L59.17,61.22L59.45,62.99L59.73,61.22L60.01,64.75L60.3,66.51L60.58,64.75L60.86,64.75L61.42,64.75L61.7,62.99L61.99,66.51L62.55,64.75L62.83,64.75L63.96,64.75L64.24,62.99L64.52,64.75L64.8,62.99L65.09,62.99L65.65,64.75L65.93,62.99L66.21,64.75L66.49,62.99L66.78,61.22L67.34,61.22L67.62,62.99L68.47,61.22L68.75,61.22L69.31,61.22L69.59,57.7L70.16,61.22L70.44,57.7L71,57.7L71.28,54.17L71.57,61.22L72.13,57.7L72.41,59.46L72.69,61.22L72.97,57.7L73.26,57.7L73.54,55.93L74.38,55.93L74.67,57.7L74.95,57.7L75.23,52.41L75.79,55.93L76.07,54.17L76.36,50.64L77.48,55.93L77.76,55.93L78.05,55.93L78.33,52.41L78.61,50.64L78.89,57.7L79.45,54.17L79.74,55.93L80.02,55.93L80.3,55.93L80.58,54.17L80.86,47.12L81.15,52.41L81.43,54.17L81.99,54.17L82.27,47.12L82.55,55.93L83.12,52.41L83.4,52.41L83.68,48.88L83.96,55.93L84.24,52.41L84.81,54.17L85.09,55.93L85.37,55.93L85.65,54.17L85.94,54.17L86.22,50.64L87.06,50.64L87.34,48.88L88.75,38.3L89.03,38.3L89.32,27.72L89.6,33.01L89.88,36.54L90.16,34.78L90.44,38.3L92.42,27.72L92.7,20.67L92.98,27.72L93.54,25.96L93.82,27.72L94.11,29.49L94.39,25.96L94.67,24.2L94.95,27.72L95.23,29.49L95.52,25.96L95.8,25.96L96.08,27.72L96.36,29.49L96.64,27.72L96.92,25.96L97.49,25.96L97.77,24.2L98.9,27.72L99.18,27.72L99.46,25.96L99.74,27.72L100.02,29.49L100.3,29.49L100.59,31.25L100.87,33.01L101.15,31.25L101.43,31.25L101.71,31.25L102,33.01L102.28,33.01L102.56,47.12L102.84,47.12L103.12,45.36L103.4,47.12L103.69,45.36L103.97,40.07L104.81,31.25L105.09,33.01L105.38,33.01L105.94,33.01L106.22,31.25L106.79,29.49L107.07,31.25L107.91,27.72L108.19,27.72L108.48,29.49L108.76,25.96L109.88,29.49L110.17,22.43L110.73,24.2L111.01,22.43L111.86,27.72L112.14,25.96L112.98,20.67L113.27,24.2L113.55,24.2L113.83,25.96L114.11,25.96L114.39,27.72L114.67,27.72L114.96,29.49L116.08,24.2L116.36,25.96L116.65,25.96L116.93,24.2L118.9,33.01L119.18,41.83L120.03,25.96L120.31,27.72L121.44,17.14L121.72,11.85L122,13.62" style="vector-effect: none; fill: none; stroke: rgb(117, 112, 179); stroke-opacity: 1; stroke-width: 1.5px; opacity: 1;"/></g><g class="points"/><g class="text"/></g><g class="trace scatter trace3d581a" style="stroke-miterlimit: 2; opacity: 1;"><g class="fills"/><g class="errorbars"/><g class="lines"><path class="js-line" d="M0,77.09L0.28,77.09L0.56,75.33L1.41,78.86L1.69,77.09L2.25,77.09L2.54,75.33L3.38,78.86L3.66,75.33L3.94,73.57L4.23,75.33L4.51,77.09L5.35,75.33L5.64,77.09L6.48,78.86L6.76,77.09L7.33,78.86L7.61,77.09L8.45,78.86L8.73,78.86L9.02,78.86L9.3,80.62L9.86,80.62L10.14,78.86L10.71,78.86L10.99,80.62L11.55,80.62L11.83,78.86L12.68,82.38L12.96,82.38L13.24,82.38L13.52,80.62L14.37,82.38L14.65,82.38L15.78,82.38L16.06,80.62L16.34,80.62L16.62,82.38L17.47,84.15L17.75,84.15L18.03,84.15L18.31,82.38L18.6,82.38L18.88,84.15L19.16,84.15L19.44,82.38L20,82.38L20.29,84.15L20.57,84.15L20.85,82.38L21.7,84.15L21.98,84.15L26.77,84.15L27.05,82.38L28.18,85.91L28.46,85.91L29.3,84.15L29.58,84.15L32.4,84.15L32.68,82.38L32.97,82.38L33.25,84.15L34.09,82.38L34.37,84.15L34.94,84.15L35.22,80.62L35.5,84.15L36.06,82.38L36.35,84.15L37.19,80.62L37.47,82.38L38.32,82.38L38.6,80.62L40.57,80.62L40.85,78.86L41.14,80.62L41.42,78.86L41.7,78.86L42.55,78.86L42.83,77.09L44.24,77.09L44.52,75.33L44.8,77.09L45.08,75.33L45.36,75.33L46.49,75.33L46.77,73.57L47.05,73.57L47.33,75.33L47.62,75.33L47.9,73.57L48.46,73.57L48.74,71.8L49.59,73.57L49.87,71.8L50.43,71.8L50.72,70.04L51.56,70.04L51.84,68.28L52.12,68.28L52.41,70.04L53.82,64.75L54.1,66.51L54.38,66.51L54.66,64.75L55.51,66.51L55.79,64.75L56.07,64.75L56.35,62.99L58.32,62.99L58.61,61.22L58.89,61.22L59.17,59.46L60.01,61.22L60.3,59.46L61.14,59.46L61.42,57.7L61.7,57.7L61.99,55.93L62.55,57.7L62.83,55.93L63.11,55.93L63.39,57.7L63.68,57.7L63.96,55.93L64.24,52.41L64.8,54.17L65.09,54.17L65.65,52.41L65.93,54.17L66.21,52.41L66.49,55.93L66.78,55.93L67.06,59.46L67.62,59.46L67.9,61.22L72.13,38.3L72.41,40.07L73.54,36.54L73.82,36.54L75.51,29.49L75.79,29.49L77.2,24.2L77.48,25.96L78.05,25.96L78.33,24.2L78.61,24.2L78.89,25.96L79.45,25.96L79.74,27.72L80.02,29.49L80.3,27.72L80.58,27.72L80.86,27.72L81.15,25.96L81.99,25.96L82.27,27.72L83.4,27.72L83.68,25.96L84.53,31.25L84.81,27.72L85.65,31.25L85.94,27.72L87.63,48.88L87.91,45.36L89.6,20.67L89.88,20.67L91.01,17.14L91.29,17.14L92.42,13.62L92.7,13.62L93.54,10.09L93.82,11.85L94.11,13.62L94.39,11.85L94.67,10.09L94.95,10.09L95.23,11.85L95.8,8.33L96.08,10.09L96.36,10.09L96.64,10.09L96.92,8.33L97.49,10.09L97.77,8.33L98.33,6.56L98.61,10.09L98.9,4.8L99.18,8.33L99.46,8.33L100.3,10.09L100.59,10.09L100.87,10.09L101.15,8.33L101.71,6.56L102,8.33L102.56,10.09L102.84,17.14L103.12,24.2L103.4,17.14L103.69,17.14L104.25,17.14L104.53,15.38L104.81,15.38L105.09,17.14L105.66,13.62L105.94,20.67L106.79,11.85L107.07,18.91L108.48,27.72L108.76,29.49L109.6,29.49L109.88,33.01L110.73,29.49L111.01,29.49L111.29,29.49L111.58,27.72L112.14,27.72L112.42,29.49L113.55,25.96L113.83,29.49L114.67,27.72L114.96,27.72L115.52,27.72L115.8,25.96L116.93,25.96L117.21,24.2L117.49,24.2L117.77,25.96L118.9,22.43L119.18,24.2L120.31,18.91L120.59,20.67L121.44,22.43L121.72,22.43L122,22.43" style="vector-effect: none; fill: none; stroke: rgb(117, 112, 179); stroke-opacity: 1; stroke-width: 1.5px; opacity: 1;"/></g><g class="points"/><g class="text"/></g><g class="trace scatter trace0747c9" style="stroke-miterlimit: 2; opacity: 1;"><g class="fills"/><g class="errorbars"/><g class="lines"><path class="js-line" d="M30.43,82.67L47.05,69.9L47.05,69.9L47.33,69.67L87.06,38.49L87.06,38.49L87.34,38.3L102,29.57L102,29.57L102.28,29.43L114.11,23.93L114.11,23.93L114.39,23.82L122,20.98L122,20.98" style="vector-effect: none; fill: none; stroke: rgb(0, 0, 0); stroke-opacity: 1; stroke-dasharray: 1px, 1px; stroke-width: 1.5px; opacity: 1;"/></g><g class="points"/><g class="text"/></g></g></g></g><g class="zerolinelayer-above"/><path class="xlines-above crisp" d="M41.5,126.25H164.5M41.5,29.75H164.5" style="fill: none; stroke-width: 0.5px; stroke: rgb(0, 0, 0); stroke-opacity: 1;"/><path class="ylines-above crisp" d="M41.75,30V126M164.25,30V126" style="fill: none; stroke-width: 0.5px; stroke: rgb(0, 0, 0); stroke-opacity: 1;"/><g class="overlines-above"/><g class="xaxislayer-above"><path class="xtick ticks crisp" d="M0,126v-5" transform="translate(75.55,0)" style="stroke: rgb(0, 0, 0); stroke-opacity: 1; stroke-width: 0.5px;"/><path class="xtick ticks crisp" d="M0,126v-5" transform="translate(109.36,0)" style="stroke: rgb(0, 0, 0); stroke-opacity: 1; stroke-width: 0.5px;"/><path class="xtick ticks crisp" d="M0,126v-5" transform="translate(143.17000000000002,0)" style="stroke: rgb(0, 0, 0); stroke-opacity: 1; stroke-width: 0.5px;"/><g class="xtick"><text text-anchor="middle" x="0" y="139.7" transform="translate(75.55,0)" style="font-family: 'Open Sans', verdana, arial, sans-serif; font-size: 11px; fill: rgb(0, 0, 0); fill-opacity: 1; white-space: pre;">20</text></g><g class="xtick"><text text-anchor="middle" x="0" y="139.7" style="font-family: 'Open Sans', verdana, arial, sans-serif; font-size: 11px; fill: rgb(0, 0, 0); fill-opacity: 1; white-space: pre;" transform="translate(109.36,0)">40</text></g><g class="xtick"><text text-anchor="middle" x="0" y="139.7" style="font-family: 'Open Sans', verdana, arial, sans-serif; font-size: 11px; fill: rgb(0, 0, 0); fill-opacity: 1; white-space: pre;" transform="translate(143.17000000000002,0)">60</text></g></g><g class="yaxislayer-above"><path class="ytick ticks crisp" d="M42,0h5" transform="translate(0,110.62)" style="stroke: rgb(0, 0, 0); stroke-opacity: 1; stroke-width: 0.5px;"/><path class="ytick ticks crisp" d="M42,0h5" transform="translate(0,75.36)" style="stroke: rgb(0, 0, 0); stroke-opacity: 1; stroke-width: 0.5px;"/><path class="ytick ticks crisp" d="M42,0h5" transform="translate(0,40.09)" style="stroke: rgb(0, 0, 0); stroke-opacity: 1; stroke-width: 0.5px;"/><g class="ytick"><text text-anchor="end" x="39.3" y="3.8499999999999996" transform="translate(0,110.62)" style="font-family: 'Open Sans', verdana, arial, sans-serif; font-size: 11px; fill: rgb(0, 0, 0); fill-opacity: 1; white-space: pre;">0.02</text></g><g class="ytick"><text text-anchor="end" x="39.3" y="3.8499999999999996" style="font-family: 'Open Sans', verdana, arial, sans-serif; font-size: 11px; fill: rgb(0, 0, 0); fill-opacity: 1; white-space: pre;" transform="translate(0,75.36)">0.04</text></g><g class="ytick"><text text-anchor="end" x="39.3" y="3.8499999999999996" style="font-family: 'Open Sans', verdana, arial, sans-serif; font-size: 11px; fill: rgb(0, 0, 0); fill-opacity: 1; white-space: pre;" transform="translate(0,40.09)">0.06</text></g></g><g class="overaxes-above"/></g></g><g class="polarlayer"/><g class="smithlayer"/><g class="ternarylayer"/><g class="geolayer"/><g class="funnelarealayer"/><g class="pielayer"/><g class="iciclelayer"/><g class="treemaplayer"/><g class="sunburstlayer"/><g class="glimages"/><defs id="topdefs-82840a"><g class="clips"/></defs><g class="layer-above"><g class="imagelayer"/><g class="shapelayer"/></g><g class="infolayer"><g class="g-gtitle"><text class="gtitle" x="8.75" y="15" text-anchor="start" dy="0em" style="opacity: 1; font-family: 'Open Sans', verdana, arial, sans-serif; font-size: 11px; fill: rgb(0, 0, 0); fill-opacity: 1; white-space: pre;"><tspan class="line" dy="0em" x="8.75" y="15">Ct in spent chemo-</tspan><tspan class="line" dy="1.3em" x="8.75" y="15">stat media of Oa r: 0.05</tspan></text></g><g class="g-xtitle" transform="translate(0,4.550000000000011)"><text class="xtitle" x="103" y="150.1501953125" text-anchor="middle" style="opacity: 1; font-family: 'Open Sans', verdana, arial, sans-serif; font-size: 11px; fill: rgb(0, 0, 0); fill-opacity: 1; white-space: pre;">Time [h]</text></g><g class="g-ytitle"><text class="ytitle" transform="rotate(-90,13.902929687499999,78)" x="13.902929687499999" y="78" text-anchor="middle" style="opacity: 1; font-family: 'Open Sans', verdana, arial, sans-serif; font-size: 11px; fill: rgb(0, 0, 0); fill-opacity: 1; white-space: pre;">OD</text></g></g></svg>