<svg class="main-svg" xmlns="http://www.w3.org/2000/svg" xmlns:xlink="http://www.w3.org/1999/xlink" width="175" height="220" style="" viewBox="0 0 175 220"><rect x="0" y="0" width="175" height="220" style="fill: rgb(255, 255, 255); fill-opacity: 1;"/><defs id="defs-a94d6c"><g class="clips"><clipPath id="clipa94d6cxyplot" class="plotclip"><rect width="122" height="156"/></clipPath><clipPath class="axesclip" id="clipa94d6cx"><rect x="42" y="0" width="122" height="220"/></clipPath><clipPath class="axesclip" id="clipa94d6cy"><rect x="0" y="30" width="175" height="156"/></clipPath><clipPath class="axesclip" id="clipa94d6cxy"><rect x="42" y="30" width="122" height="156"/></clipPath></g><g class="gradients"/><g class="patterns"/></defs><g class="bglayer"/><g class="layer-below"><g class="imagelayer"/><g class="shapelayer"/></g><g class="cartesianlayer"><g class="subplot xy"><g class="layer-subplot"><g class="shapelayer"/><g class="imagelayer"/></g><g class="minor-gridlayer"><g class="x"/><g class="y"/></g><g class="gridlayer"><g class="x"><path class="xgrid crisp" transform="translate(75.55,0)" d="M0,30v156" style="stroke: rgb(128, 128, 128); stroke-opacity: 1; stroke-width: 0.2px;"/><path class="xgrid crisp" transform="translate(109.36,0)" d="M0,30v156" style="stroke: rgb(128, 128, 128); stroke-opacity: 1; stroke-width: 0.2px;"/><path class="xgrid crisp" transform="translate(143.17000000000002,0)" d="M0,30v156" style="stroke: rgb(128, 128, 128); stroke-opacity: 1; stroke-width: 0.2px;"/></g><g class="y"><path class="ygrid crisp" transform="translate(0,150.94)" d="M42,0h122" style="stroke: rgb(128, 128, 128); stroke-opacity: 1; stroke-width: 0.2px;"/><path class="ygrid crisp" transform="translate(0,112.52)" d="M42,0h122" style="stroke: rgb(128, 128, 128); stroke-opacity: 1; stroke-width: 0.2px;"/><path class="ygrid crisp" transform="translate(0,85.25)" d="M42,0h122" style="stroke: rgb(128, 128, 128); stroke-opacity: 1; stroke-width: 0.2px;"/><path class="ygrid crisp" transform="translate(0,64.11)" d="M42,0h122" style="stroke: rgb(128, 128, 128); stroke-opacity: 1; stroke-width: 0.2px;"/><path class="ygrid crisp" transform="translate(0,46.83)" d="M42,0h122" style="stroke: rgb(128, 128, 128); stroke-opacity: 1; stroke-width: 0.2px;"/><path class="ygrid crisp" transform="translate(0,32.22)" d="M42,0h122" style="stroke: rgb(128, 128, 128); stroke-opacity: 1; stroke-width: 0.2px;"/></g></g><g class="zerolinelayer"/><g class="layer-between"><g class="shapelayer"/><g class="imagelayer"/></g><path class="xlines-below"/><path class="ylines-below"/><g class="overlines-below"/><g class="xaxislayer-below"/><g class="yaxislayer-below"/><g class="overaxes-below"/><g class="overplot"><g class="xy" transform="translate(42,30)" clip-path="url(#clipa94d6cxyplot)"><g class="scatterlayer mlayer"><g class="trace scatter trace2a2149" style="stroke-miterlimit: 2; opacity: 1;"><g class="fills"/><g class="errorbars"/><g class="lines"><path class="js-line" d="M0,130.92L0.56,111.91L1.13,116.32L1.41,116.32L2.25,116.32L2.54,111.91L3.1,120.94L3.38,111.91L3.66,111.91L3.94,107.69L5.07,116.32L5.35,111.91L6.2,120.94L6.48,116.32L7.04,116.32L7.33,120.94L8.17,116.32L8.45,116.32L9.86,116.32L10.14,120.94L10.42,120.94L10.71,125.8L10.99,125.8L11.27,120.94L11.55,125.8L11.83,120.94L12.12,120.94L12.68,120.94L12.96,125.8L13.24,125.8L13.52,120.94L14.37,120.94L14.65,125.8L14.93,125.8L15.21,130.92L16.06,125.8L16.34,125.8L16.62,125.8L16.91,130.92L17.75,125.8L18.03,125.8L18.6,125.8L18.88,130.92L19.72,125.8L20,125.8L26.48,125.8L26.77,130.92L27.61,125.8L27.89,125.8L28.18,125.8L28.46,120.94L30.15,120.94L30.43,125.8L30.71,125.8L30.99,120.94L31.84,116.32L32.12,120.94L32.4,120.94L32.68,116.32L33.53,107.69L33.81,111.91L34.09,116.32L34.37,111.91L34.66,111.91L34.94,111.91L35.22,116.32L35.5,116.32L35.78,111.91L36.35,107.69L36.63,111.91L36.91,111.91L37.19,107.69L38.04,111.91L38.32,107.69L39.16,103.66L39.45,103.66L39.73,99.79L40.01,103.66L40.29,107.69L40.57,107.69L40.85,99.79L41.7,99.79L41.98,103.66L42.83,96.08L43.11,99.79L43.67,96.08L43.95,99.79L44.8,92.5L45.08,96.08L45.93,92.5L46.21,92.5L47.33,85.73L47.62,89.05L47.9,89.05L48.18,82.52L48.46,85.73L48.74,82.52L49.03,82.52L49.31,82.52L49.59,79.41L49.87,79.41L50.15,76.4L50.43,76.4L50.72,73.48L51,73.48L51.28,70.66L52.41,70.66L52.69,67.91L53.25,70.66L53.53,67.91L54.66,62.64L54.94,62.64L55.51,65.24L55.79,62.64L56.35,62.64L56.63,60.12L56.91,60.12L57.2,62.64L57.76,62.64L58.04,60.12L58.32,62.64L58.61,60.12L58.89,60.12L59.17,57.65L59.45,60.12L59.73,60.12L60.01,60.12L60.3,62.64L61.99,52.91L62.27,52.91L62.83,60.12L63.11,50.63L63.96,60.12L64.24,55.25L65.09,65.24L65.37,57.65L65.65,60.12L65.93,57.65L66.21,57.65L66.49,52.91L66.78,55.25L67.06,57.65L67.34,60.12L67.62,52.91L68.18,52.91L68.47,48.4L68.75,50.63L69.03,44.09L69.31,52.91L69.59,44.09L69.88,44.09L70.16,55.25L70.44,42.01L70.72,50.63L71,44.09L71.57,52.91L71.85,42.01L72.13,42.01L72.41,44.09L72.69,48.4L72.97,42.01L73.26,44.09L73.54,44.09L73.82,46.22L74.38,39.97L74.67,42.01L74.95,42.01L75.23,36.02L75.51,42.01L75.79,42.01L76.92,32.23L77.2,28.59L77.48,39.97L78.05,36.02L78.33,36.02L79.17,44.09L79.45,39.97L80.3,44.09L80.58,44.09L81.71,30.39L81.99,36.02L82.55,39.97L82.84,37.98L83.12,36.02L83.4,36.02L83.68,37.98L83.96,37.98L84.24,39.97L84.81,37.98L85.09,39.97L85.37,28.59L85.65,36.02L85.94,36.02L86.5,30.39L86.78,34.11L87.06,26.82L87.34,32.23L87.63,32.23L88.19,34.11L88.47,23.37L88.75,32.23L89.03,34.11L89.32,32.23L89.6,30.39L90.44,34.11L90.73,34.11L91.57,30.39L91.85,32.23L92.13,23.37L92.42,32.23L92.7,30.39L92.98,28.59L93.26,16.83L93.82,26.82L94.11,21.69L94.39,26.82L94.67,26.82L94.95,28.59L95.23,21.69L95.52,28.59L95.8,28.59L96.08,26.82L96.36,30.39L96.64,30.39L96.92,26.82L97.77,28.59L98.05,28.59L98.33,20.04L98.61,25.08L98.9,26.82L99.18,18.42L99.46,23.37L99.74,26.82L100.02,26.82L100.3,18.42L100.87,26.82L101.15,25.08L101.43,25.08L102.56,16.83L102.84,18.42L103.12,18.42L103.4,16.83L104.25,20.04L104.53,16.83L105.66,9.25L105.94,12.21L106.22,12.21L106.5,15.27L107.35,12.21L107.63,16.83L107.91,13.72L108.19,20.04L108.76,13.72L109.04,15.27L109.32,18.42L109.6,18.42L109.88,15.27L110.17,15.27L110.45,18.42L110.73,15.27L111.29,16.83L111.58,18.42L111.86,20.04L112.14,18.42L112.42,15.27L112.98,21.69L113.27,16.83L114.39,26.82L114.67,25.08L114.96,23.37L116.08,16.83L116.36,16.83L116.65,15.27L116.93,18.42L117.21,18.42L117.49,13.72L117.77,15.27L118.06,12.21L118.34,16.83L118.9,13.72L119.18,12.21L119.46,10.72L119.75,15.27L120.03,10.72L120.31,15.27L120.59,16.83L121.44,12.21L121.72,15.27L122,12.21" style="vector-effect: none; fill: none; stroke: rgb(117, 112, 179); stroke-opacity: 1; stroke-width: 1.5px; opacity: 1;"/></g><g class="points"/><g class="text"/></g><g class="trace scatter trace9b9570" style="stroke-miterlimit: 2; opacity: 1;"><g class="fills"/><g class="errorbars"/><g class="lines"><path class="js-line" d="M0,130.92L1.13,116.32L1.41,120.94L1.97,120.94L2.25,111.91L2.54,107.69L2.82,111.91L3.1,111.91L4.23,103.66L4.51,107.69L5.35,103.66L5.64,107.69L6.48,111.91L6.76,107.69L7.33,111.91L7.61,107.69L8.45,111.91L8.73,111.91L9.02,111.91L9.3,116.32L9.86,116.32L10.14,111.91L10.99,111.91L11.27,116.32L11.83,116.32L12.12,120.94L12.4,116.32L12.68,120.94L12.96,120.94L13.24,120.94L13.52,116.32L14.37,120.94L14.65,120.94L15.5,125.8L15.78,125.8L16.62,120.94L16.91,125.8L17.19,120.94L17.47,125.8L17.75,125.8L18.03,125.8L18.31,120.94L18.6,120.94L18.88,125.8L19.16,125.8L19.44,120.94L20,120.94L20.29,125.8L20.57,125.8L20.85,120.94L21.7,125.8L21.98,125.8L26.77,125.8L27.05,120.94L27.89,125.8L28.18,125.8L32.12,125.8L32.4,120.94L32.68,116.32L32.97,120.94L33.25,125.8L34.09,116.32L34.37,120.94L34.66,120.94L34.94,125.8L35.22,116.32L35.78,120.94L36.06,120.94L36.91,120.94L37.19,116.32L38.32,125.8L38.6,125.8L39.45,125.8L39.73,130.92L40.01,125.8L40.29,130.92L40.57,130.92L41.42,125.8L41.7,125.8L42.55,125.8L42.83,130.92L43.67,125.8L43.95,125.8L44.8,130.92L45.08,130.92L45.93,125.8L46.21,125.8L47.33,116.32L47.62,116.32L47.9,116.32L48.18,111.91L49.59,111.91L49.87,107.69L50.43,111.91L50.72,107.69L51,107.69L51.28,111.91L51.56,107.69L51.84,111.91L52.12,111.91L52.41,111.91L52.69,107.69L52.97,107.69L53.25,103.66L53.53,103.66L53.82,99.79L55.51,99.79L55.79,96.08L56.07,96.08L56.35,99.79L57.48,107.69L57.76,103.66L58.32,103.66L58.61,107.69L60.3,85.73L60.58,89.05L63.68,55.25L63.96,55.25L64.52,50.63L64.8,52.91L65.09,50.63L65.37,50.63L65.65,48.4L66.49,50.63L66.78,48.4L67.06,48.4L67.34,50.63L67.62,50.63L67.9,48.4L68.47,50.63L68.75,48.4L69.59,55.25L69.88,55.25L70.72,55.25L71,60.12L71.28,57.65L71.57,60.12L71.85,62.64L73.54,76.4L73.82,70.66L74.38,67.91L74.67,70.66L75.79,65.24L76.07,67.91L76.36,67.91L76.64,70.66L78.05,79.41L78.33,76.4L78.61,79.41L78.89,73.48L79.17,62.64L79.45,65.24L79.74,70.66L80.02,70.66L80.3,67.91L81.43,79.41L81.71,79.41L81.99,79.41L82.27,76.4L82.84,76.4L83.12,73.48L83.4,73.48L83.68,76.4L83.96,73.48L84.24,85.73L84.81,79.41L85.09,82.52L85.37,82.52L87.06,70.66L87.34,70.66L88.47,57.65L88.75,50.63L89.6,34.11L89.88,36.02L90.73,23.37L91.01,30.39L91.85,20.04L92.13,23.37L92.98,30.39L93.26,26.82L93.54,26.82L93.82,34.11L94.39,37.98L94.67,30.39L95.23,34.11L95.52,32.23L95.8,34.11L96.08,34.11L96.36,26.82L96.64,26.82L96.92,23.37L97.21,23.37L97.49,21.69L98.9,21.69L99.18,7.8L99.46,7.8L99.74,12.21L100.02,10.72L100.3,15.27L100.59,13.72L100.87,16.83L102,25.08L102.28,21.69L102.84,21.69L103.12,25.08L103.4,26.82L103.69,25.08L103.97,25.08L104.25,25.08L104.53,23.37L104.81,23.37L105.09,25.08L105.94,20.04L106.22,21.69L106.5,15.27L107.07,16.83L107.35,20.04L107.63,15.27L108.19,16.83L108.48,16.83L108.76,28.59L109.04,16.83L109.32,18.42L109.88,30.39L110.17,28.59L110.45,25.08L111.01,18.42L111.29,21.69L112.14,30.39L112.42,30.39L112.7,25.08L112.98,28.59L113.27,32.23L113.55,20.04L114.11,26.82L114.39,28.59L114.67,26.82L114.96,30.39L115.52,21.69L115.8,28.59L116.08,32.23L116.36,28.59L116.65,28.59L118.06,23.37L118.34,25.08L119.18,32.23L119.46,28.59L119.75,28.59L120.03,30.39L120.59,28.59L120.87,21.69L121.72,25.08L122,23.37" style="vector-effect: none; fill: none; stroke: rgb(117, 112, 179); stroke-opacity: 1; stroke-width: 1.5px; opacity: 1;"/></g><g class="points"/><g class="text"/></g><g class="trace scatter trace968ddb" style="stroke-miterlimit: 2; opacity: 1;"><g class="fills"/><g class="errorbars"/><g class="lines"><path class="js-line" d="M0,148.2L0.85,120.94L1.13,125.8L1.69,120.94L1.97,130.92L2.54,116.32L2.82,120.94L3.1,125.8L4.23,111.91L4.51,111.91L5.64,125.8L5.92,116.32L6.2,116.32L6.48,120.94L6.76,116.32L7.04,120.94L7.33,125.8L7.89,120.94L8.17,130.92L9.02,125.8L9.3,130.92L9.58,130.92L9.86,125.8L10.14,130.92L10.42,125.8L10.71,120.94L11.83,136.34L12.12,125.8L12.4,125.8L12.68,130.92L13.52,130.92L13.81,125.8L14.65,130.92L14.93,125.8L15.78,136.34L16.06,130.92L16.34,142.08L16.62,136.34L16.91,125.8L17.75,142.08L18.03,136.34L18.88,136.34L19.16,142.08L19.44,130.92L20,136.34L20.29,142.08L20.57,136.34L20.85,142.08L21.13,142.08L21.41,130.92L21.98,136.34L22.26,142.08L22.54,136.34L22.82,142.08L23.1,142.08L23.67,142.08L23.95,136.34L24.79,142.08L25.08,136.34L25.36,142.08L25.64,136.34L25.92,136.34L26.2,142.08L26.48,136.34L26.77,136.34L27.89,136.34L28.18,142.08L29.02,130.92L29.3,130.92L30.99,130.92L31.27,125.8L32.12,125.8L32.4,120.94L32.68,120.94L32.97,125.8L33.53,120.94L33.81,125.8L34.94,111.91L35.22,116.32L35.5,120.94L35.78,116.32L36.06,116.32L36.35,116.32L36.63,125.8L36.91,116.32L37.47,120.94L37.76,120.94L38.6,120.94L38.88,125.8L39.73,120.94L40.01,120.94L40.29,116.32L40.57,125.8L40.85,116.32L41.42,120.94L41.7,125.8L42.26,120.94L42.55,125.8L43.67,116.32L43.95,120.94L44.52,111.91L44.8,116.32L45.08,111.91L45.36,116.32L45.64,111.91L45.93,111.91L47.9,92.5L48.18,92.5L49.03,85.73L49.31,89.05L50.15,82.52L50.43,85.73L51.56,79.41L51.84,79.41L52.69,76.4L52.97,79.41L53.25,76.4L53.53,82.52L53.82,76.4L54.1,79.41L54.38,82.52L54.66,82.52L54.94,85.73L55.22,82.52L55.51,85.73L55.79,89.05L56.63,85.73L56.91,89.05L57.76,82.52L58.04,89.05L58.32,85.73L58.61,89.05L58.89,89.05L59.17,89.05L59.45,85.73L60.01,96.08L60.3,85.73L61.42,96.08L61.7,89.05L62.27,89.05L62.55,92.5L62.83,92.5L63.11,85.73L63.39,89.05L63.68,85.73L63.96,82.52L64.24,79.41L64.52,82.52L64.8,85.73L66.21,76.4L66.49,82.52L67.06,79.41L67.34,85.73L68.75,67.91L69.03,67.91L69.88,73.48L70.16,73.48L71,70.66L71.28,70.66L71.57,70.66L71.85,73.48L72.13,76.4L72.41,73.48L72.69,73.48L73.82,67.91L74.1,73.48L75.23,62.64L75.51,65.24L76.36,70.66L76.64,67.91L77.2,62.64L77.48,70.66L77.76,60.12L78.05,70.66L78.33,67.91L78.61,65.24L78.89,70.66L79.74,65.24L80.02,70.66L82.27,50.63L82.55,52.91L83.12,55.25L83.4,52.91L83.68,52.91L83.96,50.63L85.09,57.65L85.37,55.25L86.22,55.25L86.5,62.64L86.78,62.64L87.06,65.24L87.91,55.25L88.19,57.65L88.75,48.4L89.03,52.91L89.32,44.09L89.6,57.65L89.88,62.64L90.16,60.12L90.44,73.48L91.01,55.25L91.29,65.24L91.57,57.65L92.98,50.63L93.26,52.91L94.39,48.4L94.67,34.11L95.23,55.25L95.52,46.22L95.8,46.22L96.08,46.22L96.36,48.4L96.64,52.91L96.92,46.22L97.21,44.09L98.61,55.25L98.9,48.4L100.02,37.98L100.3,42.01L100.59,37.98L100.87,42.01L101.15,42.01L102.56,30.39L102.84,34.11L103.12,36.02L103.4,32.23L103.97,30.39L104.25,32.23L105.09,26.82L105.38,26.82L105.66,28.59L105.94,26.82L106.22,26.82L106.5,25.08L106.79,26.82L107.07,28.59L108.19,16.83L108.48,20.04L108.76,18.42L109.32,20.04L109.6,15.27L109.88,16.83L110.17,13.72L110.73,15.27L111.01,13.72L111.29,13.72L111.58,15.27L112.42,10.72L112.7,13.72L114.39,20.04L114.67,20.04L115.52,23.37L115.8,21.69L116.08,23.37L116.36,21.69L116.65,20.04L116.93,18.42L117.21,20.04L117.49,21.69L118.62,25.08L118.9,21.69L119.75,26.82L120.03,21.69L120.59,18.42L120.87,25.08L121.44,18.42L121.72,21.69L122,25.08" style="vector-effect: none; fill: none; stroke: rgb(117, 112, 179); stroke-opacity: 1; stroke-width: 1.5px; opacity: 1;"/></g><g class="points"/><g class="text"/></g></g></g></g><path class="xlines-above crisp" d="M41.5,186.25H164.5M41.5,29.75H164.5" style="fill: none; stroke-width: 0.5px; stroke: rgb(0, 0, 0); stroke-opacity: 1;"/><path class="ylines-above crisp" d="M41.75,30V186M164.25,30V186" style="fill: none; stroke-width: 0.5px; stroke: rgb(0, 0, 0); stroke-opacity: 1;"/><g class="overlines-above"/><g class="xaxislayer-above"><path class="xtick ticks crisp" d="M0,186v-5" transform="translate(75.55,0)" style="stroke: rgb(0, 0, 0); stroke-opacity: 1; stroke-width: 0.5px;"/><path class="xtick ticks crisp" d="M0,186v-5" transform="translate(109.36,0)" style="stroke: rgb(0, 0, 0); stroke-opacity: 1; stroke-width: 0.5px;"/><path class="xtick ticks crisp" d="M0,186v-5" transform="translate(143.17000000000002,0)" style="stroke: rgb(0, 0, 0); stroke-opacity: 1; stroke-width: 0.5px;"/><g class="xtick"><text text-anchor="middle" x="0" y="199.7" transform="translate(75.55,0)" style="font-family: 'Open Sans', verdana, arial, sans-serif; font-size: 11px; fill: rgb(0, 0, 0); fill-opacity: 1; white-space: pre; opacity: 1;">20</text></g><g class="xtick"><text text-anchor="middle" x="0" y="199.7" style="font-family: 'Open Sans', verdana, arial, sans-serif; font-size: 11px; fill: rgb(0, 0, 0); fill-opacity: 1; white-space: pre; opacity: 1;" transform="translate(109.36,0)">40</text></g><g class="xtick"><text text-anchor="middle" x="0" y="199.7" style="font-family: 'Open Sans', verdana, arial, sans-serif; font-size: 11px; fill: rgb(0, 0, 0); fill-opacity: 1; white-space: pre; opacity: 1;" transform="translate(143.17000000000002,0)">60</text></g></g><g class="yaxislayer-above"><path class="ytick ticks crisp" d="M42,0h5" transform="translate(0,150.94)" style="stroke: rgb(0, 0, 0); stroke-opacity: 1; stroke-width: 0.5px;"/><path class="ytick ticks crisp" d="M42,0h5" transform="translate(0,112.52)" style="stroke: rgb(0, 0, 0); stroke-opacity: 1; stroke-width: 0.5px;"/><path class="ytick ticks crisp" d="M42,0h5" transform="translate(0,85.25)" style="stroke: rgb(0, 0, 0); stroke-opacity: 1; stroke-width: 0.5px;"/><path class="ytick ticks crisp" d="M42,0h5" transform="translate(0,64.11)" style="stroke: rgb(0, 0, 0); stroke-opacity: 1; stroke-width: 0.5px;"/><path class="ytick ticks crisp" d="M42,0h5" transform="translate(0,46.83)" style="stroke: rgb(0, 0, 0); stroke-opacity: 1; stroke-width: 0.5px;"/><path class="ytick ticks crisp" d="M42,0h5" transform="translate(0,32.22)" style="stroke: rgb(0, 0, 0); stroke-opacity: 1; stroke-width: 0.5px;"/><g class="ytick"><text text-anchor="end" x="39.3" y="3.8499999999999996" transform="translate(0,150.94)" style="font-family: 'Open Sans', verdana, arial, sans-serif; font-size: 11px; fill: rgb(0, 0, 0); fill-opacity: 1; white-space: pre; opacity: 1;">0.02</text></g><g class="ytick"><text text-anchor="end" x="39.3" y="3.8499999999999996" style="font-family: 'Open Sans', verdana, arial, sans-serif; font-size: 11px; fill: rgb(0, 0, 0); fill-opacity: 1; white-space: pre; opacity: 1;" transform="translate(0,112.52)">0.03</text></g><g class="ytick"><text text-anchor="end" x="39.3" y="3.8499999999999996" style="font-family: 'Open Sans', verdana, arial, sans-serif; font-size: 11px; fill: rgb(0, 0, 0); fill-opacity: 1; white-space: pre; opacity: 1;" transform="translate(0,85.25)">0.04</text></g><g class="ytick"><text text-anchor="end" x="39.3" y="3.8499999999999996" style="font-family: 'Open Sans', verdana, arial, sans-serif; font-size: 11px; fill: rgb(0, 0, 0); fill-opacity: 1; white-space: pre; opacity: 1;" transform="translate(0,64.11)">0.05</text></g><g class="ytick"><text text-anchor="end" x="39.3" y="3.8499999999999996" style="font-family: 'Open Sans', verdana, arial, sans-serif; font-size: 11px; fill: rgb(0, 0, 0); fill-opacity: 1; white-space: pre; opacity: 1;" transform="translate(0,46.83)">0.06</text></g><g class="ytick"><text text-anchor="end" x="39.3" y="3.8499999999999996" style="font-family: 'Open Sans', verdana, arial, sans-serif; font-size: 11px; fill: rgb(0, 0, 0); fill-opacity: 1; white-space: pre; opacity: 1;" transform="translate(0,32.22)">0.07</text></g></g><g class="overaxes-above"/></g></g><g class="polarlayer"/><g class="smithlayer"/><g class="ternarylayer"/><g class="geolayer"/><g class="funnelarealayer"/><g class="pielayer"/><g class="iciclelayer"/><g class="treemaplayer"/><g class="sunburstlayer"/><g class="glimages"/><defs id="topdefs-a94d6c"><g class="clips"/></defs><g class="layer-above"><g class="imagelayer"/><g class="shapelayer"/></g><g class="infolayer"><g class="g-gtitle"><text class="gtitle" x="8.75" y="15" text-anchor="start" dy="0em" style="opacity: 1; font-family: 'Open Sans', verdana, arial, sans-serif; font-size: 11px; fill: rgb(0, 0, 0); fill-opacity: 1; white-space: pre;"><tspan class="line" dy="0em" x="8.75" y="15">Ct in spent chemo-</tspan><tspan class="line" dy="1.3em" x="8.75" y="15">stat media of Ct</tspan></text></g><g class="g-xtitle" transform="translate(0,4.550000000000011)"><text class="xtitle" x="103" y="210.153125" text-anchor="middle" style="opacity: 1; font-family: 'Open Sans', verdana, arial, sans-serif; font-size: 11px; fill: rgb(0, 0, 0); fill-opacity: 1; white-space: pre;">Time [h]</text></g><g class="g-ytitle"><text class="ytitle" transform="rotate(-90,13.899999999999999,108)" x="13.899999999999999" y="108" text-anchor="middle" style="opacity: 1; font-family: 'Open Sans', verdana, arial, sans-serif; font-size: 11px; fill: rgb(0, 0, 0); fill-opacity: 1; white-space: pre;">OD</text></g></g></svg>