<svg class="main-svg" xmlns="http://www.w3.org/2000/svg" xmlns:xlink="http://www.w3.org/1999/xlink" width="175" height="160" style="" viewBox="0 0 175 160"><rect x="0" y="0" width="175" height="160" style="fill: rgb(255, 255, 255); fill-opacity: 1;"/><defs id="defs-d13d8e"><g class="clips"><clipPath id="clipd13d8exyplot" class="plotclip"><rect width="122" height="96"/></clipPath><clipPath class="axesclip" id="clipd13d8ex"><rect x="42" y="0" width="122" height="160"/></clipPath><clipPath class="axesclip" id="clipd13d8ey"><rect x="0" y="30" width="175" height="96"/></clipPath><clipPath class="axesclip" id="clipd13d8exy"><rect x="42" y="30" width="122" height="96"/></clipPath></g><g class="gradients"/><g class="patterns"/></defs><g class="bglayer"/><g class="layer-below"><g class="imagelayer"/><g class="shapelayer"/></g><g class="cartesianlayer"><g class="subplot xy"><g class="layer-subplot"><g class="shapelayer"/><g class="imagelayer"/></g><g class="minor-gridlayer"><g class="x"/><g class="y"/></g><g class="gridlayer"><g class="x"><path class="xgrid crisp" transform="translate(75.55,0)" d="M0,30v96" style="stroke: rgb(128, 128, 128); stroke-opacity: 1; stroke-width: 0.2px;"/><path class="xgrid crisp" transform="translate(109.36,0)" d="M0,30v96" style="stroke: rgb(128, 128, 128); stroke-opacity: 1; stroke-width: 0.2px;"/><path class="xgrid crisp" transform="translate(143.17000000000002,0)" d="M0,30v96" style="stroke: rgb(128, 128, 128); stroke-opacity: 1; stroke-width: 0.2px;"/></g><g class="y"><path class="ygrid crisp" transform="translate(0,112.73)" d="M42,0h122" style="stroke: rgb(128, 128, 128); stroke-opacity: 1; stroke-width: 0.2px;"/><path class="ygrid crisp" transform="translate(0,78.85)" d="M42,0h122" style="stroke: rgb(128, 128, 128); stroke-opacity: 1; stroke-width: 0.2px;"/><path class="ygrid crisp" transform="translate(0,44.96)" d="M42,0h122" style="stroke: rgb(128, 128, 128); stroke-opacity: 1; stroke-width: 0.2px;"/></g></g><g class="zerolinelayer"/><g class="layer-between"><g class="shapelayer"/><g class="imagelayer"/></g><path class="xlines-below"/><path class="ylines-below"/><g class="overlines-below"/><g class="xaxislayer-below"/><g class="yaxislayer-below"/><g class="overaxes-below"/><g class="overplot"><g class="xy" transform="translate(42,30)" clip-path="url(#clipd13d8exyplot)"><g class="scatterlayer mlayer"><g class="trace scatter traceffd015" style="stroke-miterlimit: 2; opacity: 1;"><g class="fills"/><g class="errorbars"/><g class="lines"><path class="js-line" d="M0,86.12L0.56,79.34L1.13,81.04L1.41,81.04L2.25,81.04L2.54,79.34L3.1,82.73L3.38,79.34L3.66,79.34L3.94,77.65L5.07,81.04L5.35,79.34L6.2,82.73L6.48,81.04L7.04,81.04L7.33,82.73L8.17,81.04L8.45,81.04L9.86,81.04L10.14,82.73L10.42,82.73L10.71,84.42L10.99,84.42L11.27,82.73L11.55,84.42L11.83,82.73L12.12,82.73L12.68,82.73L12.96,84.42L13.24,84.42L13.52,82.73L14.37,82.73L14.65,84.42L14.93,84.42L15.21,86.12L16.06,84.42L16.34,84.42L16.62,84.42L16.91,86.12L17.75,84.42L18.03,84.42L18.6,84.42L18.88,86.12L19.72,84.42L20,84.42L26.48,84.42L26.77,86.12L27.61,84.42L27.89,84.42L28.18,84.42L28.46,82.73L30.15,82.73L30.43,84.42L30.71,84.42L30.99,82.73L31.84,81.04L32.12,82.73L32.4,82.73L32.68,81.04L33.53,77.65L33.81,79.34L34.09,81.04L34.37,79.34L34.66,79.34L34.94,79.34L35.22,81.04L35.5,81.04L35.78,79.34L36.35,77.65L36.63,79.34L36.91,79.34L37.19,77.65L38.04,79.34L38.32,77.65L39.16,75.95L39.45,75.95L39.73,74.26L40.01,75.95L40.29,77.65L40.57,77.65L40.85,74.26L41.7,74.26L41.98,75.95L42.83,72.56L43.11,74.26L43.67,72.56L43.95,74.26L44.8,70.87L45.08,72.56L45.93,70.87L46.21,70.87L47.33,67.48L47.62,69.18L47.9,69.18L48.18,65.79L48.46,67.48L48.74,65.79L49.03,65.79L49.31,65.79L49.59,64.09L49.87,64.09L50.15,62.4L50.43,62.4L50.72,60.71L51,60.71L51.28,59.01L52.41,59.01L52.69,57.32L53.25,59.01L53.53,57.32L54.66,53.93L54.94,53.93L55.51,55.62L55.79,53.93L56.35,53.93L56.63,52.24L56.91,52.24L57.2,53.93L57.76,53.93L58.04,52.24L58.32,53.93L58.61,52.24L58.89,52.24L59.17,50.54L59.45,52.24L59.73,52.24L60.01,52.24L60.3,53.93L61.99,47.15L62.27,47.15L62.83,52.24L63.11,45.46L63.96,52.24L64.24,48.85L65.09,55.62L65.37,50.54L65.65,52.24L65.93,50.54L66.21,50.54L66.49,47.15L66.78,48.85L67.06,50.54L67.34,52.24L67.62,47.15L68.18,47.15L68.47,43.76L68.75,45.46L69.03,40.38L69.31,47.15L69.59,40.38L69.88,40.38L70.16,48.85L70.44,38.68L70.72,45.46L71,40.38L71.57,47.15L71.85,38.68L72.13,38.68L72.41,40.38L72.69,43.76L72.97,38.68L73.26,40.38L73.54,40.38L73.82,42.07L74.38,36.99L74.67,38.68L74.95,38.68L75.23,33.6L75.51,38.68L75.79,38.68L76.92,30.21L77.2,26.82L77.48,36.99L78.05,33.6L78.33,33.6L79.17,40.38L79.45,36.99L80.3,40.38L80.58,40.38L81.71,28.52L81.99,33.6L82.55,36.99L82.84,35.29L83.12,33.6L83.4,33.6L83.68,35.29L83.96,35.29L84.24,36.99L84.81,35.29L85.09,36.99L85.37,26.82L85.65,33.6L85.94,33.6L86.5,28.52L86.78,31.91L87.06,25.13L87.34,30.21L87.63,30.21L88.19,31.91L88.47,21.74L88.75,30.21L89.03,31.91L89.32,30.21L89.6,28.52L90.44,31.91L90.73,31.91L91.57,28.52L91.85,30.21L92.13,21.74L92.42,30.21L92.7,28.52L92.98,26.82L93.26,14.96L93.82,25.13L94.11,20.05L94.39,25.13L94.67,25.13L94.95,26.82L95.23,20.05L95.52,26.82L95.8,26.82L96.08,25.13L96.36,28.52L96.64,28.52L96.92,25.13L97.77,26.82L98.05,26.82L98.33,18.35L98.61,23.44L98.9,25.13L99.18,16.66L99.46,21.74L99.74,25.13L100.02,25.13L100.3,16.66L100.87,25.13L101.15,23.44L101.43,23.44L102.56,14.96L102.84,16.66L103.12,16.66L103.4,14.96L104.25,18.35L104.53,14.96L105.66,6.49L105.94,9.88L106.22,9.88L106.5,13.27L107.35,9.88L107.63,14.96L107.91,11.58L108.19,18.35L108.76,11.58L109.04,13.27L109.32,16.66L109.6,16.66L109.88,13.27L110.17,13.27L110.45,16.66L110.73,13.27L111.29,14.96L111.58,16.66L111.86,18.35L112.14,16.66L112.42,13.27L112.98,20.05L113.27,14.96L114.39,25.13L114.67,23.44L114.96,21.74L116.08,14.96L116.36,14.96L116.65,13.27L116.93,16.66L117.21,16.66L117.49,11.58L117.77,13.27L118.06,9.88L118.34,14.96L118.9,11.58L119.18,9.88L119.46,8.19L119.75,13.27L120.03,8.19L120.31,13.27L120.59,14.96L121.44,9.88L121.72,13.27L122,9.88" style="vector-effect: none; fill: none; stroke: rgb(117, 112, 179); stroke-opacity: 1; stroke-width: 1.5px; opacity: 1;"/></g><g class="points"/><g class="text"/></g><g class="trace scatter tracee95283" style="stroke-miterlimit: 2; opacity: 1;"><g class="fills"/><g class="errorbars"/><g class="lines"><path class="js-line" d="M0,86.12L1.13,81.04L1.41,82.73L1.97,82.73L2.25,79.34L2.54,77.65L2.82,79.34L3.1,79.34L4.23,75.95L4.51,77.65L5.35,75.95L5.64,77.65L6.48,79.34L6.76,77.65L7.33,79.34L7.61,77.65L8.45,79.34L8.73,79.34L9.02,79.34L9.3,81.04L9.86,81.04L10.14,79.34L10.99,79.34L11.27,81.04L11.83,81.04L12.12,82.73L12.4,81.04L12.68,82.73L12.96,82.73L13.24,82.73L13.52,81.04L14.37,82.73L14.65,82.73L15.5,84.42L15.78,84.42L16.62,82.73L16.91,84.42L17.19,82.73L17.47,84.42L17.75,84.42L18.03,84.42L18.31,82.73L18.6,82.73L18.88,84.42L19.16,84.42L19.44,82.73L20,82.73L20.29,84.42L20.57,84.42L20.85,82.73L21.7,84.42L21.98,84.42L26.77,84.42L27.05,82.73L27.89,84.42L28.18,84.42L32.12,84.42L32.4,82.73L32.68,81.04L32.97,82.73L33.25,84.42L34.09,81.04L34.37,82.73L34.66,82.73L34.94,84.42L35.22,81.04L35.78,82.73L36.06,82.73L36.91,82.73L37.19,81.04L38.32,84.42L38.6,84.42L39.45,84.42L39.73,86.12L40.01,84.42L40.29,86.12L40.57,86.12L41.42,84.42L41.7,84.42L42.55,84.42L42.83,86.12L43.67,84.42L43.95,84.42L44.8,86.12L45.08,86.12L45.93,84.42L46.21,84.42L47.33,81.04L47.62,81.04L47.9,81.04L48.18,79.34L49.59,79.34L49.87,77.65L50.43,79.34L50.72,77.65L51,77.65L51.28,79.34L51.56,77.65L51.84,79.34L52.12,79.34L52.41,79.34L52.69,77.65L52.97,77.65L53.25,75.95L53.53,75.95L53.82,74.26L55.51,74.26L55.79,72.56L56.07,72.56L56.35,74.26L57.48,77.65L57.76,75.95L58.32,75.95L58.61,77.65L59.45,72.56L59.73,69.18L60.01,69.18L60.3,67.48L60.58,69.18L60.86,67.48L61.14,64.09L64.52,45.46L64.8,47.15L65.65,43.76L65.93,45.46L66.78,43.76L67.06,43.76L67.62,45.46L67.9,43.76L68.47,45.46L68.75,43.76L69.59,48.85L69.88,48.85L70.72,48.85L71,52.24L71.28,50.54L71.57,52.24L71.85,53.93L73.54,62.4L73.82,59.01L74.38,57.32L74.67,59.01L75.79,55.62L76.07,57.32L76.36,57.32L76.64,59.01L78.05,64.09L78.33,62.4L78.61,64.09L78.89,60.71L79.17,53.93L79.45,55.62L79.74,59.01L80.02,59.01L80.3,57.32L81.43,64.09L81.71,64.09L81.99,64.09L82.27,62.4L82.84,62.4L83.12,60.71L83.4,60.71L83.68,62.4L83.96,60.71L84.24,67.48L84.81,64.09L85.09,65.79L85.37,65.79L87.06,59.01L87.34,59.01L88.47,50.54L88.75,45.46L89.6,31.91L89.88,33.6L90.73,21.74L91.01,28.52L91.85,18.35L92.13,21.74L92.98,28.52L93.26,25.13L93.54,25.13L93.82,31.91L94.39,35.29L94.67,28.52L95.23,31.91L95.52,30.21L95.8,31.91L96.08,31.91L96.36,25.13L96.64,25.13L96.92,21.74L97.21,21.74L97.49,20.05L98.9,20.05L99.18,4.8L99.46,4.8L99.74,9.88L100.02,8.19L100.3,13.27L100.59,11.58L100.87,14.96L102,23.44L102.28,20.05L102.84,20.05L103.12,23.44L103.4,25.13L103.69,23.44L103.97,23.44L104.25,23.44L104.53,21.74L104.81,21.74L105.09,23.44L105.94,18.35L106.22,20.05L106.5,13.27L107.07,14.96L107.35,18.35L107.63,13.27L108.19,14.96L108.48,14.96L108.76,26.82L109.04,14.96L109.32,16.66L109.88,28.52L110.17,26.82L110.45,23.44L111.01,16.66L111.29,20.05L112.14,28.52L112.42,28.52L112.7,23.44L112.98,26.82L113.27,30.21L113.55,18.35L114.11,25.13L114.39,26.82L114.67,25.13L114.96,28.52L115.52,20.05L115.8,26.82L116.08,30.21L116.36,26.82L116.65,26.82L118.06,21.74L118.34,23.44L119.18,30.21L119.46,26.82L119.75,26.82L120.03,28.52L120.59,26.82L120.87,20.05L121.72,23.44L122,21.74" style="vector-effect: none; fill: none; stroke: rgb(117, 112, 179); stroke-opacity: 1; stroke-width: 1.5px; opacity: 1;"/></g><g class="points"/><g class="text"/></g><g class="trace scatter tracefafbee" style="stroke-miterlimit: 2; opacity: 1;"><g class="fills"/><g class="errorbars"/><g class="lines"><path class="js-line" d="M0,91.2L0.85,82.73L1.13,84.42L1.69,82.73L1.97,86.12L2.54,81.04L2.82,82.73L3.1,84.42L4.23,79.34L4.51,79.34L5.64,84.42L5.92,81.04L6.2,81.04L6.48,82.73L6.76,81.04L7.04,82.73L7.33,84.42L7.89,82.73L8.17,86.12L9.02,84.42L9.3,86.12L9.58,86.12L9.86,84.42L10.14,86.12L10.42,84.42L10.71,82.73L11.83,87.81L12.12,84.42L12.4,84.42L12.68,86.12L13.52,86.12L13.81,84.42L14.65,86.12L14.93,84.42L15.78,87.81L16.06,86.12L16.34,89.51L16.62,87.81L16.91,84.42L17.75,89.51L18.03,87.81L18.88,87.81L19.16,89.51L19.44,86.12L20,87.81L20.29,89.51L20.57,87.81L20.85,89.51L21.13,89.51L21.41,86.12L21.98,87.81L22.26,89.51L22.54,87.81L22.82,89.51L23.1,89.51L23.67,89.51L23.95,87.81L24.79,89.51L25.08,87.81L25.36,89.51L25.64,87.81L25.92,87.81L26.2,89.51L26.48,87.81L26.77,87.81L27.89,87.81L28.18,89.51L29.02,86.12L29.3,86.12L30.99,86.12L31.27,84.42L32.12,84.42L32.4,82.73L32.68,82.73L32.97,84.42L33.53,82.73L33.81,84.42L34.94,79.34L35.22,81.04L35.5,82.73L35.78,81.04L36.06,81.04L36.35,81.04L36.63,84.42L36.91,81.04L37.47,82.73L37.76,82.73L38.6,82.73L38.88,84.42L39.73,82.73L40.01,82.73L40.29,81.04L40.57,84.42L40.85,81.04L41.42,82.73L41.7,84.42L42.26,82.73L42.55,84.42L43.67,81.04L43.95,82.73L44.52,79.34L44.8,81.04L45.08,79.34L45.36,81.04L45.64,79.34L45.93,79.34L47.9,70.87L48.18,70.87L49.03,67.48L49.31,69.18L50.15,65.79L50.43,67.48L51.56,64.09L51.84,64.09L52.69,62.4L52.97,64.09L53.25,62.4L53.53,65.79L53.82,62.4L54.1,64.09L54.38,65.79L54.66,65.79L54.94,67.48L55.22,65.79L55.51,67.48L55.79,69.18L56.63,67.48L56.91,69.18L57.76,65.79L58.04,69.18L58.32,67.48L58.61,69.18L58.89,69.18L59.17,69.18L59.45,67.48L60.01,72.56L60.3,67.48L61.42,72.56L61.7,69.18L62.27,69.18L62.55,70.87L62.83,70.87L63.11,67.48L63.39,69.18L63.68,67.48L63.96,65.79L64.24,64.09L64.52,65.79L64.8,67.48L66.21,62.4L66.49,65.79L67.06,64.09L67.34,67.48L68.75,57.32L69.03,57.32L69.88,60.71L70.16,60.71L71,59.01L71.28,59.01L71.57,59.01L71.85,60.71L72.13,62.4L72.41,60.71L72.69,60.71L73.82,57.32L74.1,60.71L75.23,53.93L75.51,55.62L76.36,59.01L76.64,57.32L77.2,53.93L77.48,59.01L77.76,52.24L78.05,59.01L78.33,57.32L78.61,55.62L78.89,59.01L79.74,55.62L80.02,59.01L82.27,45.46L82.55,47.15L83.12,48.85L83.4,47.15L83.68,47.15L83.96,45.46L85.09,50.54L85.37,48.85L86.22,48.85L86.5,53.93L86.78,53.93L87.06,55.62L87.91,48.85L88.19,50.54L88.75,43.76L89.03,47.15L89.32,40.38L89.6,50.54L89.88,53.93L90.16,52.24L90.44,60.71L91.01,48.85L91.29,55.62L91.57,50.54L92.98,45.46L93.26,47.15L94.39,43.76L94.67,31.91L95.23,48.85L95.52,42.07L95.8,42.07L96.08,42.07L96.36,43.76L96.64,47.15L96.92,42.07L97.21,40.38L98.61,48.85L98.9,43.76L100.02,35.29L100.3,38.68L100.59,35.29L100.87,38.68L101.15,38.68L102.56,28.52L102.84,31.91L103.12,33.6L103.4,30.21L103.97,28.52L104.25,30.21L105.09,25.13L105.38,25.13L105.66,26.82L105.94,25.13L106.22,25.13L106.5,23.44L106.79,25.13L107.07,26.82L108.19,14.96L108.48,18.35L108.76,16.66L109.32,18.35L109.6,13.27L109.88,14.96L110.17,11.58L110.73,13.27L111.01,11.58L111.29,11.58L111.58,13.27L112.42,8.19L112.7,11.58L114.39,18.35L114.67,18.35L115.52,21.74L115.8,20.05L116.08,21.74L116.36,20.05L116.65,18.35L116.93,16.66L117.21,18.35L117.49,20.05L118.62,23.44L118.9,20.05L119.75,25.13L120.03,20.05L120.59,16.66L120.87,23.44L121.44,16.66L121.72,20.05L122,23.44" style="vector-effect: none; fill: none; stroke: rgb(117, 112, 179); stroke-opacity: 1; stroke-width: 1.5px; opacity: 1;"/></g><g class="points"/><g class="text"/></g><g class="trace scatter tracef99f17" style="stroke-miterlimit: 2; opacity: 1;"><g class="fills"/><g class="errorbars"/><g class="lines"><path class="js-line" d="M30.43,85.83L43.67,76.46L43.67,76.46L43.95,76.24L54.94,67.39L54.94,67.39L55.22,67.15L67.9,56.16L67.9,56.16L68.18,55.91L102.84,26.7L102.84,26.7L103.12,26.49L116.65,17.28L116.65,17.28L116.93,17.11L122,14.11L122,14.11" style="vector-effect: none; fill: none; stroke: rgb(0, 0, 0); stroke-opacity: 1; stroke-dasharray: 1px, 1px; stroke-width: 1.5px; opacity: 1;"/></g><g class="points"/><g class="text"/></g></g></g></g><g class="zerolinelayer-above"/><path class="xlines-above crisp" d="M41.5,126.25H164.5M41.5,29.75H164.5" style="fill: none; stroke-width: 0.5px; stroke: rgb(0, 0, 0); stroke-opacity: 1;"/><path class="ylines-above crisp" d="M41.75,30V126M164.25,30V126" style="fill: none; stroke-width: 0.5px; stroke: rgb(0, 0, 0); stroke-opacity: 1;"/><g class="overlines-above"/><g class="xaxislayer-above"><path class="xtick ticks crisp" d="M0,126v-5" transform="translate(75.55,0)" style="stroke: rgb(0, 0, 0); stroke-opacity: 1; stroke-width: 0.5px;"/><path class="xtick ticks crisp" d="M0,126v-5" transform="translate(109.36,0)" style="stroke: rgb(0, 0, 0); stroke-opacity: 1; stroke-width: 0.5px;"/><path class="xtick ticks crisp" d="M0,126v-5" transform="translate(143.17000000000002,0)" style="stroke: rgb(0, 0, 0); stroke-opacity: 1; stroke-width: 0.5px;"/><g class="xtick"><text text-anchor="middle" x="0" y="139.7" transform="translate(75.55,0)" style="font-family: 'Open Sans', verdana, arial, sans-serif; font-size: 11px; fill: rgb(0, 0, 0); fill-opacity: 1; white-space: pre;">20</text></g><g class="xtick"><text text-anchor="middle" x="0" y="139.7" style="font-family: 'Open Sans', verdana, arial, sans-serif; font-size: 11px; fill: rgb(0, 0, 0); fill-opacity: 1; white-space: pre;" transform="translate(109.36,0)">40</text></g><g class="xtick"><text text-anchor="middle" x="0" y="139.7" style="font-family: 'Open Sans', verdana, arial, sans-serif; font-size: 11px; fill: rgb(0, 0, 0); fill-opacity: 1; white-space: pre;" transform="translate(143.17000000000002,0)">60</text></g></g><g class="yaxislayer-above"><path class="ytick ticks crisp" d="M42,0h5" transform="translate(0,112.73)" style="stroke: rgb(0, 0, 0); stroke-opacity: 1; stroke-width: 0.5px;"/><path class="ytick ticks crisp" d="M42,0h5" transform="translate(0,78.85)" style="stroke: rgb(0, 0, 0); stroke-opacity: 1; stroke-width: 0.5px;"/><path class="ytick ticks crisp" d="M42,0h5" transform="translate(0,44.96)" style="stroke: rgb(0, 0, 0); stroke-opacity: 1; stroke-width: 0.5px;"/><g class="ytick"><text text-anchor="end" x="39.3" y="3.8499999999999996" transform="translate(0,112.73)" style="font-family: 'Open Sans', verdana, arial, sans-serif; font-size: 11px; fill: rgb(0, 0, 0); fill-opacity: 1; white-space: pre;">0.02</text></g><g class="ytick"><text text-anchor="end" x="39.3" y="3.8499999999999996" style="font-family: 'Open Sans', verdana, arial, sans-serif; font-size: 11px; fill: rgb(0, 0, 0); fill-opacity: 1; white-space: pre;" transform="translate(0,78.85)">0.04</text></g><g class="ytick"><text text-anchor="end" x="39.3" y="3.8499999999999996" style="font-family: 'Open Sans', verdana, arial, sans-serif; font-size: 11px; fill: rgb(0, 0, 0); fill-opacity: 1; white-space: pre;" transform="translate(0,44.96)">0.06</text></g></g><g class="overaxes-above"/></g></g><g class="polarlayer"/><g class="smithlayer"/><g class="ternarylayer"/><g class="geolayer"/><g class="funnelarealayer"/><g class="pielayer"/><g class="iciclelayer"/><g class="treemaplayer"/><g class="sunburstlayer"/><g class="glimages"/><defs id="topdefs-d13d8e"><g class="clips"/></defs><g class="layer-above"><g class="imagelayer"/><g class="shapelayer"/></g><g class="infolayer"><g class="g-gtitle"><text class="gtitle" x="8.75" y="15" text-anchor="start" dy="0em" style="opacity: 1; font-family: 'Open Sans', verdana, arial, sans-serif; font-size: 11px; fill: rgb(0, 0, 0); fill-opacity: 1; white-space: pre;"><tspan class="line" dy="0em" x="8.75" y="15">Ct in spent chemo-</tspan><tspan class="line" dy="1.3em" x="8.75" y="15">stat media of Ct r: 0.05</tspan></text></g><g class="g-xtitle" transform="translate(0,4.550000000000011)"><text class="xtitle" x="103" y="150.1501953125" text-anchor="middle" style="opacity: 1; font-family: 'Open Sans', verdana, arial, sans-serif; font-size: 11px; fill: rgb(0, 0, 0); fill-opacity: 1; white-space: pre;">Time [h]</text></g><g class="g-ytitle"><text class="ytitle" transform="rotate(-90,13.902929687499999,78)" x="13.902929687499999" y="78" text-anchor="middle" style="opacity: 1; font-family: 'Open Sans', verdana, arial, sans-serif; font-size: 11px; fill: rgb(0, 0, 0); fill-opacity: 1; white-space: pre;">OD</text></g></g></svg>