<svg class="main-svg" xmlns="http://www.w3.org/2000/svg" xmlns:xlink="http://www.w3.org/1999/xlink" width="100" height="160" style="" viewBox="0 0 100 160"><rect x="0" y="0" width="100" height="160" style="fill: rgb(255, 255, 255); fill-opacity: 1;"/><defs id="defs-fcd357"><g class="clips"><clipPath id="clipfcd357xyplot" class="plotclip"><rect width="55" height="107"/></clipPath><clipPath class="axesclip" id="clipfcd357x"><rect x="29" y="0" width="55" height="160"/></clipPath><clipPath class="axesclip" id="clipfcd357y"><rect x="0" y="20" width="100" height="107"/></clipPath><clipPath class="axesclip" id="clipfcd357xy"><rect x="29" y="20" width="55" height="107"/></clipPath></g><g class="gradients"/><g class="patterns"/></defs><g class="bglayer"/><g class="layer-below"><g class="imagelayer"/><g class="shapelayer"/></g><g class="cartesianlayer"><g class="subplot xy"><g class="layer-subplot"><g class="shapelayer"/><g class="imagelayer"/></g><g class="minor-gridlayer"><g class="x"/><g class="y"/></g><g class="gridlayer"><g class="x"><path class="xgrid crisp" transform="translate(38.17,0)" d="M0,20v107" style="stroke: rgb(128, 128, 128); stroke-opacity: 1; stroke-width: 0.2px;"/><path class="xgrid crisp" transform="translate(47.33,0)" d="M0,20v107" style="stroke: rgb(128, 128, 128); stroke-opacity: 1; stroke-width: 0.2px;"/><path class="xgrid crisp" transform="translate(56.5,0)" d="M0,20v107" style="stroke: rgb(128, 128, 128); stroke-opacity: 1; stroke-width: 0.2px;"/><path class="xgrid crisp" transform="translate(65.67,0)" d="M0,20v107" style="stroke: rgb(128, 128, 128); stroke-opacity: 1; stroke-width: 0.2px;"/><path class="xgrid crisp" transform="translate(74.83,0)" d="M0,20v107" style="stroke: rgb(128, 128, 128); stroke-opacity: 1; stroke-width: 0.2px;"/></g><g class="y"><path class="ygrid crisp" transform="translate(0,91.33)" d="M29,0h55" style="stroke: rgb(128, 128, 128); stroke-opacity: 1; stroke-width: 0.2px;"/><path class="ygrid crisp" transform="translate(0,55.67)" d="M29,0h55" style="stroke: rgb(128, 128, 128); stroke-opacity: 1; stroke-width: 0.2px;"/></g></g><g class="zerolinelayer"/><g class="layer-between"><g class="shapelayer"/><g class="imagelayer"/></g><path class="xlines-below"/><path class="ylines-below"/><g class="overlines-below"/><g class="xaxislayer-below"/><g class="yaxislayer-below"/><g class="overaxes-below"/><g class="overplot"><g class="xy" transform="translate(29,20)" clip-path="url(#clipfcd357xyplot)"><g class="scatterlayer mlayer"><g class="trace scatter trace6f6f23" style="stroke-miterlimit: 2; opacity: 0.5;"><g class="fills"/><g class="errorbars"/><g class="lines"><path class="js-line" d="M0.75,39.23L1.52,46.37L1.64,39.23L2.03,46.37L2.15,35.67L2.41,42.8L2.54,39.23L2.79,35.67L3.3,42.8L3.43,42.8L3.68,39.23L3.81,46.37L3.94,46.37L4.19,46.37L4.32,49.93L4.57,49.93L4.7,53.5L5.21,46.37L5.34,49.93L5.46,57.07L5.72,49.93L6.23,53.5L6.36,49.93L7.25,60.63L7.37,57.07L7.76,53.5L8.14,60.63L8.26,57.07L8.77,60.63L8.9,53.5L9.67,64.2L9.79,53.5L10.56,64.2L10.68,60.63L10.94,60.63L11.07,64.2L11.32,64.2L11.45,60.63L11.7,53.5L12.08,57.07L12.21,60.63L12.47,57.07L12.85,60.63L12.98,64.2L13.74,60.63L13.87,60.63L14.25,60.63L14.38,57.07L15.39,67.77L15.52,64.2L15.65,60.63L15.9,57.07L16.29,60.63L16.41,60.63L16.92,64.2L17.05,60.63L17.18,60.63L17.56,60.63L17.69,64.2L18.32,60.63L18.45,64.2L18.58,60.63L19.09,64.2L19.21,64.2L19.47,57.07L19.85,60.63L19.98,64.2L20.87,57.07L21,57.07L21.89,64.2L22.01,60.63L22.4,60.63L22.52,57.07L23.29,60.63L23.42,60.63L23.8,57.07L24.05,60.63L24.18,60.63L24.43,60.63L24.56,57.07L25.33,60.63L25.45,57.07L26.09,60.63L26.22,57.07L26.85,60.63L26.98,57.07L27.49,60.63L27.62,57.07L27.74,53.5L28.51,60.63L28.64,57.07L29.4,60.63L29.53,60.63L30.29,57.07L30.42,57.07L30.8,60.63L31.05,57.07L31.18,57.07L31.69,60.63L31.82,57.07L31.95,57.07L32.71,60.63L32.84,60.63L33.6,57.07L33.73,57.07L34.49,60.63L34.62,60.63L35.13,60.63L35.26,57.07L36.02,60.63L36.15,60.63L36.66,60.63L36.78,57.07L37.29,57.07L37.42,60.63L38.06,57.07L38.18,60.63L38.31,57.07L38.82,60.63L38.95,60.63L39.97,60.63L40.09,57.07L40.98,60.63L41.11,60.63L41.49,60.63L41.62,57.07L42.26,60.63L42.39,57.07L43.15,60.63L43.28,57.07L43.91,60.63L44.04,57.07L44.8,60.63L44.93,60.63L45.19,60.63L45.31,57.07L46.08,60.63L46.2,60.63L46.97,57.07L47.1,60.63L47.35,57.07L47.48,60.63L47.61,64.2L47.99,57.07L48.37,60.63L48.5,60.63L48.88,60.63L49.01,57.07L49.51,64.2L49.77,60.63L49.9,60.63L50.28,60.63L50.41,57.07L51.17,64.2L51.3,64.2L51.81,57.07L51.93,60.63L52.06,64.2L52.19,57.07L52.7,64.2L52.83,64.2L53.08,60.63L53.46,64.2L53.59,64.2L54.35,60.63L54.48,64.2L54.73,64.2L54.86,57.07L55.24,64.2" style="vector-effect: none; fill: none; stroke: rgb(217, 95, 2); stroke-opacity: 1; stroke-width: 0.8px; opacity: 1;"/></g><g class="points"/><g class="text"/></g><g class="trace scatter tracee000f0" style="stroke-miterlimit: 2; opacity: 0.5;"><g class="fills"/><g class="errorbars"/><g class="lines"><path class="js-line" d="M0.75,35.67L1.14,35.67L1.26,39.23L1.52,35.67L2.03,46.37L2.15,35.67L2.41,28.53L2.92,32.1L3.04,35.67L3.17,32.1L3.43,39.23L3.68,35.67L3.81,35.67L5.08,46.37L5.21,42.8L6.1,49.93L6.23,46.37L6.99,53.5L7.12,53.5L7.5,49.93L7.63,53.5L7.76,57.07L8.14,39.23L8.39,53.5L8.52,53.5L9.03,39.23L9.16,46.37L9.28,57.07L9.79,32.1L10.05,39.23L10.17,49.93L10.56,35.67L10.94,46.37L11.07,49.93L11.58,24.97L11.7,53.5L11.83,42.8L11.96,39.23L12.21,35.67L12.34,42.8L12.47,57.07L12.72,39.23L12.85,53.5L12.98,57.07L13.23,35.67L13.61,53.5L13.74,53.5L13.87,35.67L14.5,42.8L14.63,57.07L15.01,35.67L15.14,57.07L15.39,64.2L15.52,53.5L15.78,57.07L15.9,35.67L16.79,60.63L16.92,57.07L17.18,60.63L17.43,53.5L17.56,60.63L20.49,60.63L20.61,57.07L21.25,60.63L21.38,57.07L22.01,60.63L22.14,57.07L22.91,60.63L23.03,57.07L25.45,57.07L25.58,53.5L26.34,57.07L26.47,57.07L35.76,57.07L35.89,60.63L36.66,57.07L36.78,57.07L38.06,57.07L38.18,60.63L38.95,57.07L39.08,57.07L40.09,57.07L40.22,60.63L41.11,57.07L41.24,57.07L41.49,64.2L41.88,60.63L42,57.07L43.91,57.07L44.04,60.63L44.29,60.63L44.42,57.07L45.06,60.63L45.19,57.07L45.82,60.63L45.95,57.07L46.71,64.2L46.84,60.63L47.86,60.63L47.99,57.07L48.75,64.2L48.88,60.63L49.01,60.63L49.64,60.63L49.77,64.2L50.53,60.63L50.66,60.63L51.42,60.63L51.55,64.2L52.32,60.63L52.44,60.63L52.57,57.07L53.08,60.63L53.21,60.63L55.24,60.63" style="vector-effect: none; fill: none; stroke: rgb(217, 95, 2); stroke-opacity: 1; stroke-width: 0.8px; opacity: 1;"/></g><g class="points"/><g class="text"/></g><g class="trace scatter trace9cddd8" style="stroke-miterlimit: 2; opacity: 0.5;"><g class="fills"/><g class="errorbars"/><g class="lines"><path class="js-line" d="M0.75,39.23L1.01,39.23L1.14,35.67L1.77,49.93L2.03,42.8L2.15,39.23L2.28,28.53L2.79,32.1L2.92,39.23L3.3,35.67L3.43,42.8L4.06,39.23L4.19,42.8L4.57,42.8L4.7,46.37L5.34,49.93L5.46,46.37L6.1,53.5L6.36,49.93L6.48,49.93L6.99,57.07L7.37,53.5L7.5,53.5L7.76,57.07L8.14,53.5L8.26,53.5L8.52,53.5L8.65,57.07L9.28,53.5L9.41,57.07L11.45,57.07L11.58,60.63L12.34,57.07L12.47,57.07L12.85,60.63L13.1,57.07L13.23,57.07L13.99,64.2L14.12,60.63L14.89,57.07L15.01,60.63L15.27,53.5L15.78,57.07L15.9,57.07L16.67,60.63L16.79,60.63L17.05,64.2L17.56,57.07L17.69,60.63L18.07,53.5L18.32,64.2L18.45,64.2L19.21,57.07L19.34,60.63L20.11,57.07L20.23,60.63L20.87,57.07L21,60.63L21.25,60.63L21.38,57.07L21.76,64.2L22.01,60.63L22.14,57.07L23.42,57.07L23.54,60.63L24.43,57.07L24.56,57.07L24.94,57.07L25.07,60.63L26.09,53.5L26.22,57.07L26.47,60.63L26.85,57.07L26.98,57.07L27.23,57.07L27.36,60.63L28,57.07L28.13,60.63L28.89,57.07L29.02,57.07L29.78,64.2L29.91,60.63L30.04,60.63L30.16,57.07L30.67,64.2L30.8,60.63L30.93,64.2L31.31,57.07L31.44,57.07L31.69,57.07L31.82,60.63L32.07,60.63L32.2,64.2L32.84,60.63L32.96,64.2L33.47,64.2L33.6,67.77L33.98,60.63L34.36,64.2L34.49,60.63L35.13,67.77L35.26,64.2L35.38,60.63L35.89,67.77L36.02,64.2L36.15,60.63L36.78,64.2L36.91,60.63L37.55,64.2L37.67,60.63L38.57,67.77L38.69,60.63L39.33,67.77L39.46,64.2L39.58,64.2L39.84,67.77L39.97,64.2L40.09,60.63L40.22,67.77L40.73,64.2L40.86,60.63L41.62,67.77L41.75,64.2L42,60.63L42.26,67.77L42.39,60.63L43.28,67.77L43.4,60.63L44.29,67.77L44.42,67.77L45.19,60.63L45.31,67.77L46.08,60.63L46.2,64.2L46.59,67.77L46.84,57.07L46.97,64.2L47.22,64.2L47.35,67.77L48.11,60.63L48.24,60.63L49.13,67.77L49.26,64.2L49.39,60.63L49.51,67.77L49.77,67.77L49.9,67.77L50.15,60.63L50.53,64.2L50.66,67.77L51.55,60.63L51.68,64.2L51.93,60.63L52.19,64.2L52.32,67.77L53.21,60.63L53.33,64.2L53.72,60.63L53.84,67.77L53.97,64.2L54.1,64.2L54.23,67.77L54.48,60.63L54.73,64.2L54.86,64.2L55.12,64.2L55.24,60.63" style="vector-effect: none; fill: none; stroke: rgb(217, 95, 2); stroke-opacity: 1; stroke-width: 0.8px; opacity: 1;"/></g><g class="points"/><g class="text"/></g><g class="trace scatter tracea42feb" style="stroke-miterlimit: 2; opacity: 1;"><g class="fills"/><g class="errorbars"/><g class="lines"><path class="js-line" d="M0.75,32.1L1.01,35.67L1.39,32.1L1.52,32.1L1.77,35.67L1.9,32.1L2.03,28.53L2.15,24.97L2.41,35.67L2.54,32.1L2.66,35.67L3.3,32.1L3.43,35.67L3.68,32.1L3.81,39.23L3.94,39.23L4.19,39.23L4.32,42.8L4.57,42.8L4.7,46.37L5.34,39.23L5.46,46.37L5.72,39.23L6.1,46.37L6.23,46.37L6.36,42.8L6.86,46.37L6.99,46.37L7.5,53.5L7.63,49.93L7.76,46.37L8.14,53.5L8.52,49.93L8.65,49.93L8.9,46.37L9.28,53.5L9.41,49.93L10.17,57.07L10.3,49.93L11.07,57.07L11.19,57.07L11.58,46.37L11.83,53.5L11.96,57.07L12.72,49.93L12.85,53.5L13.36,46.37L13.61,49.93L13.74,46.37L14.63,53.5L14.76,49.93L15.52,60.63L15.65,49.93L16.16,57.07L16.41,53.5L16.54,49.93L16.79,49.93L16.92,53.5L17.18,57.07L17.43,49.93L17.56,53.5L17.69,57.07L18.32,49.93L18.45,53.5L18.58,53.5L18.83,57.07L19.09,49.93L19.21,57.07L19.34,57.07L19.47,46.37L19.6,60.63L20.11,53.5L20.23,46.37L20.61,57.07L21,49.93L21.12,53.5L21.51,49.93L21.63,57.07L21.76,49.93L22.4,53.5L22.52,49.93L23.42,57.07L23.54,57.07L23.8,46.37L24.18,53.5L24.31,57.07L24.56,49.93L25.07,53.5L25.2,53.5L25.45,49.93L25.83,53.5L25.96,53.5L26.22,49.93L26.6,53.5L26.73,53.5L27.11,57.07L27.36,49.93L27.49,53.5L28.25,49.93L28.38,53.5L29.27,49.93L29.4,49.93L29.91,53.5L30.04,49.93L30.16,49.93L30.42,49.93L30.54,53.5L30.93,46.37L31.31,49.93L31.44,53.5L32.07,49.93L32.2,53.5L32.96,49.93L33.09,49.93L33.35,46.37L33.73,49.93L33.86,49.93L34.24,46.37L34.49,49.93L34.62,49.93L35,49.93L35.13,46.37L35.38,53.5L35.76,49.93L35.89,46.37L36.66,49.93L36.78,46.37L37.29,46.37L37.42,49.93L38.06,46.37L38.18,49.93L38.31,46.37L38.82,49.93L38.95,49.93L39.97,49.93L40.09,46.37L40.98,49.93L41.11,49.93L41.49,49.93L41.62,46.37L42.26,53.5L42.39,46.37L43.15,49.93L43.28,46.37L43.91,49.93L44.04,46.37L44.68,53.5L44.8,49.93L44.93,49.93L45.7,49.93L45.82,53.5L46.46,46.37L46.59,49.93L46.71,49.93L47.35,46.37L47.48,53.5L48.11,49.93L48.24,53.5L48.75,53.5L48.88,49.93L49.13,46.37L49.51,49.93L49.64,49.93L50.28,53.5L50.41,49.93L50.92,46.37L51.17,53.5L51.3,53.5L51.55,53.5L51.68,49.93L52.57,53.5L52.7,49.93L53.46,53.5L53.59,53.5L53.84,49.93L54.23,53.5L54.35,53.5L54.73,53.5L54.86,49.93L55.24,53.5" style="vector-effect: none; fill: none; stroke: rgb(217, 95, 2); stroke-opacity: 1; stroke-width: 0.8px; opacity: 1;"/></g><g class="points"/><g class="text"/></g><g class="trace scatter trace1813ff" style="stroke-miterlimit: 2; opacity: 1;"><g class="fills"/><g class="errorbars"/><g class="lines"><path class="js-line" d="M0.75,39.23L1.77,46.37L1.9,42.8L2.28,32.1L2.66,35.67L2.79,39.23L2.92,35.67L3.3,42.8L3.43,42.8L3.94,39.23L4.06,42.8L4.19,42.8L4.95,46.37L5.08,46.37L5.46,46.37L5.59,49.93L6.23,46.37L6.36,53.5L7.25,53.5L7.37,49.93L8.26,57.07L8.39,53.5L8.77,57.07L9.03,53.5L9.16,53.5L9.92,57.07L10.05,57.07L10.81,60.63L10.94,60.63L12.21,60.63L12.34,57.07L13.1,60.63L13.23,60.63L13.48,60.63L13.61,64.2L14.25,64.2L14.38,60.63L14.76,64.2L14.89,57.07L15.78,64.2L15.9,64.2L16.03,60.63L16.54,64.2L16.67,64.2L16.92,57.07L17.3,64.2L17.43,64.2L18.83,64.2L18.96,60.63L19.72,64.2L19.85,60.63L19.98,53.5L20.11,64.2L20.49,64.2L20.61,64.2L21.63,64.2L21.76,60.63L22.52,64.2L22.65,64.2L22.91,64.2L23.03,60.63L23.92,64.2L24.05,64.2L24.43,64.2L24.56,60.63L25.33,64.2L25.45,60.63L25.58,57.07L25.83,64.2L26.09,60.63L26.22,60.63L26.98,64.2L27.11,60.63L27.74,64.2L27.87,60.63L28.13,64.2L28.51,60.63L28.64,60.63L29.27,60.63L29.4,64.2L29.91,60.63L30.04,64.2L30.16,64.2L30.93,60.63L31.05,60.63L35.13,60.63L35.26,57.07L35.89,64.2L36.02,60.63L36.15,60.63L40.86,60.63L40.98,57.07L41.88,64.2L42,60.63L43.91,60.63L44.04,64.2L44.8,60.63L44.93,60.63L45.44,60.63L45.57,64.2L45.7,57.07L46.33,60.63L46.46,60.63L47.35,64.2L47.48,64.2L48.5,64.2L48.62,60.63L48.75,67.77L49.39,64.2L49.51,64.2L50.28,67.77L50.41,64.2L50.66,57.07L51.04,64.2L51.17,64.2L51.42,64.2L51.55,67.77L52.06,60.63L52.32,64.2L52.44,64.2L52.83,60.63L53.08,64.2L53.21,64.2L53.84,60.63L53.97,64.2L54.23,64.2L54.35,60.63L55.24,64.2" style="vector-effect: none; fill: none; stroke: rgb(217, 95, 2); stroke-opacity: 1; stroke-width: 0.8px; opacity: 1;"/></g><g class="points"/><g class="text"/></g><g class="trace scatter tracedb6c9b" style="stroke-miterlimit: 2; opacity: 1;"><g class="fills"/><g class="errorbars"/><g class="lines"><path class="js-line" d="M0.75,32.1L1.14,32.1L1.26,35.67L1.77,49.93L2.03,39.23L2.15,35.67L2.54,32.1L2.66,39.23L2.79,35.67L2.92,39.23L3.3,35.67L3.43,42.8L4.19,39.23L4.32,39.23L5.08,46.37L5.21,42.8L6.1,49.93L6.23,46.37L6.99,53.5L7.12,49.93L7.25,49.93L7.63,49.93L7.76,57.07L8.52,53.5L8.65,57.07L9.41,53.5L9.54,53.5L10.56,53.5L10.68,57.07L12.08,57.07L12.21,60.63L12.98,57.07L13.1,57.07L13.74,57.07L13.87,60.63L14.38,57.07L14.5,60.63L14.63,60.63L14.89,49.93L15.39,57.07L15.52,57.07L15.9,57.07L16.03,60.63L16.54,57.07L16.67,60.63L16.79,60.63L17.56,57.07L17.69,60.63L18.07,53.5L18.32,60.63L18.45,60.63L19.21,57.07L19.34,60.63L20.11,57.07L20.23,60.63L20.87,57.07L21,60.63L21.38,57.07L21.63,60.63L21.76,60.63L22.52,57.07L22.65,57.07L23.42,57.07L23.54,60.63L24.43,57.07L24.56,57.07L24.94,57.07L25.07,60.63L25.96,57.07L26.09,57.07L26.47,60.63L26.73,57.07L26.85,57.07L27.23,57.07L27.36,60.63L27.62,53.5L28,57.07L28.13,60.63L29.02,53.5L29.14,57.07L29.65,57.07L29.78,60.63L30.16,53.5L30.54,57.07L30.67,60.63L31.56,53.5L31.69,53.5L32.45,57.07L32.58,57.07L33.35,53.5L33.47,57.07L33.73,53.5L33.86,60.63L34.11,57.07L34.24,57.07L34.87,53.5L35,57.07L35.26,57.07L35.38,53.5L35.89,57.07L36.02,53.5L36.15,53.5L36.78,57.07L36.91,53.5L37.55,57.07L37.67,49.93L38.44,57.07L38.57,57.07L39.08,53.5L39.2,57.07L39.33,57.07L39.58,57.07L39.71,53.5L40.48,57.07L40.6,53.5L41.37,57.07L41.49,57.07L41.88,57.07L42,53.5L42.64,57.07L42.77,53.5L43.28,57.07L43.4,53.5L43.53,53.5L43.79,60.63L44.29,57.07L44.42,57.07L44.68,57.07L44.8,60.63L45.44,53.5L45.57,60.63L45.82,60.63L45.95,53.5L46.71,60.63L46.84,57.07L47.61,60.63L47.73,60.63L48.37,57.07L48.5,60.63L49.26,57.07L49.39,57.07L49.9,60.63L50.02,57.07L50.15,57.07L50.28,53.5L50.53,60.63L50.66,60.63L50.79,60.63L51.3,53.5L51.55,57.07L51.68,57.07L52.44,60.63L52.57,57.07L53.33,60.63L53.46,57.07L54.23,64.2L54.35,60.63L54.99,57.07L55.12,60.63" style="vector-effect: none; fill: none; stroke: rgb(217, 95, 2); stroke-opacity: 1; stroke-width: 0.8px; opacity: 1;"/></g><g class="points"/><g class="text"/></g></g></g></g><path class="xlines-above crisp" d="M28.5,127.25H84.5M28.5,19.75H84.5" style="fill: none; stroke-width: 0.5px; stroke: rgb(0, 0, 0); stroke-opacity: 1;"/><path class="ylines-above crisp" d="M28.75,20V127M84.25,20V127" style="fill: none; stroke-width: 0.5px; stroke: rgb(0, 0, 0); stroke-opacity: 1;"/><g class="overlines-above"/><g class="xaxislayer-above"><g class="xtick"><text text-anchor="start" x="0" y="137.1" transform="translate(29,0) rotate(90,0,133.1)" style="font-family: 'Open Sans', verdana, arial, sans-serif; font-size: 8px; fill: rgb(0, 0, 0); fill-opacity: 1; white-space: pre; opacity: 1;">0</text></g><g class="xtick"><text text-anchor="start" x="0" y="137.1" style="font-family: 'Open Sans', verdana, arial, sans-serif; font-size: 8px; fill: rgb(0, 0, 0); fill-opacity: 1; white-space: pre; opacity: 1;" transform="translate(38.17,0) rotate(90,0,133.1)">12</text></g><g class="xtick"><text text-anchor="start" x="0" y="137.1" style="font-family: 'Open Sans', verdana, arial, sans-serif; font-size: 8px; fill: rgb(0, 0, 0); fill-opacity: 1; white-space: pre; opacity: 1;" transform="translate(47.33,0) rotate(90,0,133.1)">24</text></g><g class="xtick"><text text-anchor="start" x="0" y="137.1" style="font-family: 'Open Sans', verdana, arial, sans-serif; font-size: 8px; fill: rgb(0, 0, 0); fill-opacity: 1; white-space: pre; opacity: 1;" transform="translate(56.5,0) rotate(90,0,133.1)">36</text></g><g class="xtick"><text text-anchor="start" x="0" y="137.1" style="font-family: 'Open Sans', verdana, arial, sans-serif; font-size: 8px; fill: rgb(0, 0, 0); fill-opacity: 1; white-space: pre; opacity: 1;" transform="translate(65.67,0) rotate(90,0,133.1)">48</text></g><g class="xtick"><text text-anchor="start" x="0" y="137.1" style="font-family: 'Open Sans', verdana, arial, sans-serif; font-size: 8px; fill: rgb(0, 0, 0); fill-opacity: 1; white-space: pre; opacity: 1;" transform="translate(74.83,0) rotate(90,0,133.1)">60</text></g><g class="xtick"><text text-anchor="start" x="0" y="137.1" style="font-family: 'Open Sans', verdana, arial, sans-serif; font-size: 8px; fill: rgb(0, 0, 0); fill-opacity: 1; white-space: pre; opacity: 1;" transform="translate(84,0) rotate(90,0,133.1)">72</text></g></g><g class="yaxislayer-above"><g class="ytick"><text text-anchor="end" x="26.9" y="2.8" transform="translate(0,127)" style="font-family: 'Open Sans', verdana, arial, sans-serif; font-size: 8px; fill: rgb(0, 0, 0); fill-opacity: 1; white-space: pre; opacity: 1;">0</text></g><g class="ytick"><text text-anchor="end" x="26.9" y="2.8" style="font-family: 'Open Sans', verdana, arial, sans-serif; font-size: 8px; fill: rgb(0, 0, 0); fill-opacity: 1; white-space: pre; opacity: 1;" transform="translate(0,91.33)">0.01</text></g><g class="ytick"><text text-anchor="end" x="26.9" y="2.8" style="font-family: 'Open Sans', verdana, arial, sans-serif; font-size: 8px; fill: rgb(0, 0, 0); fill-opacity: 1; white-space: pre; opacity: 1;" transform="translate(0,55.67)">0.02</text></g><g class="ytick"><text text-anchor="end" x="26.9" y="2.8" style="font-family: 'Open Sans', verdana, arial, sans-serif; font-size: 8px; fill: rgb(0, 0, 0); fill-opacity: 1; white-space: pre; opacity: 1;" transform="translate(0,20)">0.03</text></g></g><g class="overaxes-above"/></g></g><g class="polarlayer"/><g class="smithlayer"/><g class="ternarylayer"/><g class="geolayer"/><g class="funnelarealayer"/><g class="pielayer"/><g class="iciclelayer"/><g class="treemaplayer"/><g class="sunburstlayer"/><g class="glimages"/><defs id="topdefs-fcd357"><g class="clips"/></defs><g class="layer-above"><g class="imagelayer"/><g class="shapelayer"/></g><g class="infolayer"><g class="g-gtitle"><text class="gtitle" x="5" y="10" text-anchor="start" dy="0em" style="opacity: 1; font-family: 'Open Sans', verdana, arial, sans-serif; font-size: 8px; fill: rgb(0, 0, 0); fill-opacity: 1; white-space: pre;"><tspan style="font-style:italic">O. anthropi</tspan></text></g><g class="g-xtitle" transform="translate(0,3.6500000000000057)"><text class="xtitle" x="56.5" y="148.027734375" text-anchor="middle" style="opacity: 1; font-family: 'Open Sans', verdana, arial, sans-serif; font-size: 8px; fill: rgb(0, 0, 0); fill-opacity: 1; white-space: pre;">Time [h]</text></g><g class="g-ytitle" transform="translate(0.5029296875,0)"><text class="ytitle" transform="rotate(-90,8.496875,73.5)" x="8.496875" y="73.5" text-anchor="middle" style="opacity: 1; font-family: 'Open Sans', verdana, arial, sans-serif; font-size: 8px; fill: rgb(0, 0, 0); fill-opacity: 1; white-space: pre;">OD</text></g></g></svg>