<svg class="main-svg" xmlns="http://www.w3.org/2000/svg" xmlns:xlink="http://www.w3.org/1999/xlink" width="300" height="250" style="" viewBox="0 0 300 250"><rect x="0" y="0" width="300" height="250" style="fill: rgb(255, 255, 255); fill-opacity: 1;"/><defs id="defs-7ce677"><g class="clips"><clipPath id="clip7ce677xyplot" class="plotclip"><rect width="220" height="210"/></clipPath><clipPath class="axesclip" id="clip7ce677x"><rect x="20" y="0" width="220" height="250"/></clipPath><clipPath class="axesclip" id="clip7ce677y"><rect x="0" y="20" width="300" height="210"/></clipPath><clipPath class="axesclip" id="clip7ce677xy"><rect x="20" y="20" width="220" height="210"/></clipPath></g><g class="gradients"/><g class="patterns"/></defs><g class="bglayer"/><g class="layer-below"><g class="imagelayer"/><g class="shapelayer"/></g><g class="cartesianlayer"><g class="subplot xy"><g class="layer-subplot"><g class="shapelayer"/><g class="imagelayer"/></g><g class="minor-gridlayer"><g class="x"/><g class="y"/></g><g class="gridlayer"><g class="x"><path class="xgrid crisp" transform="translate(43.32,0)" d="M0,20v210" style="stroke: rgb(0, 0, 0); stroke-opacity: 1; stroke-width: 0.5px;"/><path class="xgrid crisp" transform="translate(66.63,0)" d="M0,20v210" style="stroke: rgb(0, 0, 0); stroke-opacity: 1; stroke-width: 0.5px;"/><path class="xgrid crisp" transform="translate(89.95,0)" d="M0,20v210" style="stroke: rgb(0, 0, 0); stroke-opacity: 1; stroke-width: 0.5px;"/><path class="xgrid crisp" transform="translate(113.26,0)" d="M0,20v210" style="stroke: rgb(0, 0, 0); stroke-opacity: 1; stroke-width: 0.5px;"/><path class="xgrid crisp" transform="translate(136.57999999999998,0)" d="M0,20v210" style="stroke: rgb(0, 0, 0); stroke-opacity: 1; stroke-width: 0.5px;"/><path class="xgrid crisp" transform="translate(159.89,0)" d="M0,20v210" style="stroke: rgb(0, 0, 0); stroke-opacity: 1; stroke-width: 0.5px;"/><path class="xgrid crisp" transform="translate(183.21,0)" d="M0,20v210" style="stroke: rgb(0, 0, 0); stroke-opacity: 1; stroke-width: 0.5px;"/><path class="xgrid crisp" transform="translate(206.52,0)" d="M0,20v210" style="stroke: rgb(0, 0, 0); stroke-opacity: 1; stroke-width: 0.5px;"/><path class="xgrid crisp" transform="translate(229.84,0)" d="M0,20v210" style="stroke: rgb(0, 0, 0); stroke-opacity: 1; stroke-width: 0.5px;"/></g><g class="y"><path class="ygrid crisp" transform="translate(0,197.69)" d="M20,0h220" style="stroke: rgb(0, 0, 0); stroke-opacity: 1; stroke-width: 0.5px;"/><path class="ygrid crisp" transform="translate(0,165.38)" d="M20,0h220" style="stroke: rgb(0, 0, 0); stroke-opacity: 1; stroke-width: 0.5px;"/><path class="ygrid crisp" transform="translate(0,133.07999999999998)" d="M20,0h220" style="stroke: rgb(0, 0, 0); stroke-opacity: 1; stroke-width: 0.5px;"/><path class="ygrid crisp" transform="translate(0,100.77)" d="M20,0h220" style="stroke: rgb(0, 0, 0); stroke-opacity: 1; stroke-width: 0.5px;"/><path class="ygrid crisp" transform="translate(0,68.46000000000001)" d="M20,0h220" style="stroke: rgb(0, 0, 0); stroke-opacity: 1; stroke-width: 0.5px;"/><path class="ygrid crisp" transform="translate(0,36.15)" d="M20,0h220" style="stroke: rgb(0, 0, 0); stroke-opacity: 1; stroke-width: 0.5px;"/></g></g><g class="zerolinelayer"><path class="xzl zl crisp" transform="translate(20,0)" d="M0,20v210" style="stroke: rgb(0, 0, 0); stroke-opacity: 1; stroke-width: 0.5px;"/><path class="yzl zl crisp" transform="translate(0,230)" d="M20,0h220" style="stroke: rgb(0, 0, 0); stroke-opacity: 1; stroke-width: 0.5px;"/></g><g class="layer-between"><g class="shapelayer"/><g class="imagelayer"/></g><path class="xlines-below"/><path class="ylines-below"/><g class="overlines-below"/><g class="xaxislayer-below"/><g class="yaxislayer-below"/><g class="overaxes-below"/><g class="overplot"><g class="xy" transform="translate(20,20)" clip-path="url(#clip7ce677xyplot)"><g class="scatterlayer mlayer"><g class="trace scatter traceb11153" style="stroke-miterlimit: 2; opacity: 1;"><g class="fills"/><g class="errorbars"/><g class="lines"><path class="js-line" d="M1.42,208.87L7.25,208.65L8.7,208.87L14.53,208.82L15.99,208.49L33.48,204.94L34.93,205.21L40.76,201.82L42.22,200.63L53.88,189.92L55.33,187.82L61.16,175.54L62.62,170.53L66.99,150.98L68.45,139.19L71.36,116.9L72.82,112.27L75.74,107.53L77.19,104.46L78.65,102.58L80.11,99.45L84.48,93.85L85.94,89.17L87.39,87.98L88.85,85.35L91.76,81.09L93.22,78.35L97.59,70.32L99.05,68.82L100.51,66.93L101.97,66.39L104.88,63.43L106.34,62.25L113.62,54.33L115.08,53.2L117.99,50.94L119.45,48.35L120.91,44.48L122.37,43.99L123.82,41.46L125.28,41.08L129.65,41.41L131.11,39.79L132.57,40.28L134.02,37.69L139.85,46.9L141.31,49.97L142.77,47.38L144.22,48.84L145.68,55.78L147.14,53.36L148.6,56.75L150.05,52.23L152.97,54.55L154.43,53.74L155.88,58.58L157.34,57.72L158.8,60.52L160.25,58.21L161.71,60.95L163.17,60.47L164.63,62.62L166.08,62.78L167.54,64.02L169,62.3L170.45,65.64L171.91,65.21L173.37,66.28L174.83,65.96L177.74,62.14L179.2,66.82L180.66,67.31L182.11,64.56L183.57,69.41L185.03,65.85L186.48,67.79L187.94,68.44L190.86,64.4L192.31,67.95L193.77,65.21L195.23,67.31L196.68,67.15L198.14,68.76L201.06,66.5L202.51,68.44L203.97,68.12L205.43,69.35L208.34,66.82L209.8,68.71L215.63,70.7L217.09,70.54L218.54,69.89L220,71.67" style="vector-effect: none; fill: none; stroke: rgb(217, 95, 2); stroke-opacity: 1; stroke-width: 1.7px; opacity: 1;"/></g><g class="points"/><g class="text"/></g><g class="trace scatter tracebc808a" style="stroke-miterlimit: 2; opacity: 1;"><g class="fills"/><g class="errorbars"/><g class="lines"><path class="js-line" d="M1.42,209.03L17.45,208.49L18.9,207.85L27.65,206.39L29.1,205.75L32.02,206.5L33.48,205.75L42.22,200.79L43.68,199.66L49.51,193.15L50.96,191.05L53.88,186.52L55.33,186.68L56.79,185.72L58.25,183.62L61.16,176.18L62.62,169.56L65.53,158.09L66.99,152.44L69.91,125.78L71.36,117.55L72.82,113.08L74.28,111.41L78.65,105.16L80.11,102.04L84.48,96.44L85.94,91.43L87.39,89.92L88.85,87.12L93.22,79.48L94.68,76.19L100.51,66.77L101.97,66.07L104.88,62.46L106.34,61.12L112.17,53.85L113.62,51.91L115.08,51.1L116.54,49.22L117.99,47.38L119.45,40.92L120.91,37.37L122.37,36.4L123.82,28.05L125.28,27.52L126.74,28.81L128.2,28.97L129.65,31.23L131.11,28L132.57,30.26L134.02,28.97L136.94,38.02L138.4,41.41L141.31,46.9L142.77,39.31L144.22,40.44L145.68,51.42L147.14,48.35L148.6,55.14L150.05,48.52L151.51,50.94L152.97,52.28L154.43,51.15L155.88,58.1L157.34,56.11L158.8,59.72L160.25,55.62L161.71,58.69L163.17,57.24L164.63,60.68L166.08,60.85L167.54,62.89L169,59.55L170.45,65.32L171.91,64.72L173.37,66.61L174.83,66.28L176.28,62.3L177.74,60.52L179.2,67.47L180.66,68.28L182.11,64.08L183.57,70.7L185.03,66.18L186.48,69.08L187.94,70.38L189.4,67.63L190.86,65.37L192.31,70.86L193.77,66.98L195.23,68.6L196.68,68.44L198.14,70.38L201.06,66.66L202.51,69.25L203.97,69.25L205.43,71.13L206.89,68.92L208.34,68.92L211.26,71.83L212.71,72.48L214.17,72.48L215.63,73.93L217.09,73.77L218.54,72.64L220,75.38" style="vector-effect: none; fill: none; stroke: rgb(217, 95, 2); stroke-opacity: 1; stroke-width: 1.7px; opacity: 1;"/></g><g class="points"/><g class="text"/></g><g class="trace scatter trace0b86e4" style="stroke-miterlimit: 2; opacity: 1;"><g class="fills"/><g class="errorbars"/><g class="lines"><path class="js-line" d="M1.42,209.84L17.45,209.14L18.9,208.82L23.28,208.01L24.73,208.01L33.48,206.39L34.93,205.53L39.3,203.59L40.76,202.62L45.13,199.18L46.59,197.51L49.51,193.79L50.96,191.53L53.88,187.01L55.33,187.98L58.25,183.29L59.71,179.9L61.16,175.38L62.62,168.11L64.08,161L65.53,158.09L66.99,151.79L68.45,135.48L71.36,114.8L72.82,110.65L75.74,107.21L77.19,104.3L78.65,102.74L80.11,99.45L84.48,94.18L85.94,89.17L88.85,85.18L90.31,83.19L93.22,77.7L94.68,73.93L100.51,64.99L101.97,64.45L104.88,60.85L106.34,59.5L113.62,50.13L115.08,49.48L116.54,47.44L117.99,43.18L119.45,35.43L120.91,34.3L122.37,34.3L123.82,24.5L125.28,24.28L126.74,26.22L128.2,26.38L129.65,29.45L131.11,26.22L132.57,30.58L134.02,29.78L135.48,35.75L139.85,45.45L141.31,46.74L142.77,37.53L144.22,38.98L145.68,51.1L147.14,47.71L148.6,54.82L150.05,47.71L152.97,51.48L154.43,49.86L155.88,56.65L157.34,53.85L158.8,58.26L160.25,53.36L161.71,56.75L163.17,55.14L164.63,58.75L166.08,58.91L167.54,61.6L169,57.94L170.45,64.02L171.91,63.27L173.37,65.32L174.83,65.15L176.28,60.68L177.74,58.75L179.2,66.66L180.66,67.63L182.11,62.3L183.57,70.05L185.03,64.88L186.48,67.95L187.94,69.89L189.4,66.5L190.86,63.92L192.31,69.89L193.77,65.21L195.23,66.98L196.68,67.15L198.14,69.73L201.06,65.69L202.51,69.08L203.97,68.44L205.43,70.32L208.34,66.82L209.8,70L211.26,71.99L212.71,72.48L215.63,73.93L217.09,73.61L218.54,73.12L220,76.19" style="vector-effect: none; fill: none; stroke: rgb(217, 95, 2); stroke-opacity: 1; stroke-width: 1.7px; opacity: 1;"/></g><g class="points"/><g class="text"/></g><g class="trace scatter trace26d4b1" style="stroke-miterlimit: 2; opacity: 1;"><g class="fills"/><g class="errorbars"/><g class="lines"><path class="js-line" d="M14.53,208.47L27.65,206.37L29.1,206.01L37.85,202.91L39.3,202.2L46.59,197.41L48.05,196.14L53.88,189.67L55.33,187.63L59.71,180.18" style="vector-effect: none; fill: none; stroke: rgb(0, 0, 0); stroke-opacity: 1; stroke-dasharray: 3px, 3px; stroke-width: 1.7px; opacity: 1;"/></g><g class="points"/><g class="text"/></g></g></g></g><path class="xlines-above crisp" d="M0,0" style="fill: none;"/><path class="ylines-above crisp" d="M0,0" style="fill: none;"/><g class="overlines-above"/><g class="xaxislayer-above"><g class="xtick"><text text-anchor="middle" x="0" y="239" transform="translate(20,0)" style="font-family: 'Open Sans', verdana, arial, sans-serif; font-size: 8px; fill: rgb(0, 0, 0); fill-opacity: 1; white-space: pre; opacity: 1;">0</text></g><g class="xtick"><text text-anchor="middle" x="0" y="239" style="font-family: 'Open Sans', verdana, arial, sans-serif; font-size: 8px; fill: rgb(0, 0, 0); fill-opacity: 1; white-space: pre; opacity: 1;" transform="translate(43.32,0)">8</text></g><g class="xtick"><text text-anchor="middle" x="0" y="239" style="font-family: 'Open Sans', verdana, arial, sans-serif; font-size: 8px; fill: rgb(0, 0, 0); fill-opacity: 1; white-space: pre; opacity: 1;" transform="translate(66.63,0)">16</text></g><g class="xtick"><text text-anchor="middle" x="0" y="239" style="font-family: 'Open Sans', verdana, arial, sans-serif; font-size: 8px; fill: rgb(0, 0, 0); fill-opacity: 1; white-space: pre; opacity: 1;" transform="translate(89.95,0)">24</text></g><g class="xtick"><text text-anchor="middle" x="0" y="239" style="font-family: 'Open Sans', verdana, arial, sans-serif; font-size: 8px; fill: rgb(0, 0, 0); fill-opacity: 1; white-space: pre; opacity: 1;" transform="translate(113.26,0)">32</text></g><g class="xtick"><text text-anchor="middle" x="0" y="239" style="font-family: 'Open Sans', verdana, arial, sans-serif; font-size: 8px; fill: rgb(0, 0, 0); fill-opacity: 1; white-space: pre; opacity: 1;" transform="translate(136.57999999999998,0)">40</text></g><g class="xtick"><text text-anchor="middle" x="0" y="239" style="font-family: 'Open Sans', verdana, arial, sans-serif; font-size: 8px; fill: rgb(0, 0, 0); fill-opacity: 1; white-space: pre; opacity: 1;" transform="translate(159.89,0)">48</text></g><g class="xtick"><text text-anchor="middle" x="0" y="239" style="font-family: 'Open Sans', verdana, arial, sans-serif; font-size: 8px; fill: rgb(0, 0, 0); fill-opacity: 1; white-space: pre; opacity: 1;" transform="translate(183.21,0)">56</text></g><g class="xtick"><text text-anchor="middle" x="0" y="239" style="font-family: 'Open Sans', verdana, arial, sans-serif; font-size: 8px; fill: rgb(0, 0, 0); fill-opacity: 1; white-space: pre; opacity: 1;" transform="translate(206.52,0)">64</text></g><g class="xtick"><text text-anchor="middle" x="0" y="239" style="font-family: 'Open Sans', verdana, arial, sans-serif; font-size: 8px; fill: rgb(0, 0, 0); fill-opacity: 1; white-space: pre; opacity: 1;" transform="translate(229.84,0)">72</text></g></g><g class="yaxislayer-above"><g class="ytick"><text text-anchor="end" x="19" y="2.8" transform="translate(0,230)" style="font-family: 'Open Sans', verdana, arial, sans-serif; font-size: 8px; fill: rgb(0, 0, 0); fill-opacity: 1; white-space: pre; opacity: 1;">0</text></g><g class="ytick"><text text-anchor="end" x="19" y="2.8" style="font-family: 'Open Sans', verdana, arial, sans-serif; font-size: 8px; fill: rgb(0, 0, 0); fill-opacity: 1; white-space: pre; opacity: 1;" transform="translate(0,197.69)">0.2</text></g><g class="ytick"><text text-anchor="end" x="19" y="2.8" style="font-family: 'Open Sans', verdana, arial, sans-serif; font-size: 8px; fill: rgb(0, 0, 0); fill-opacity: 1; white-space: pre; opacity: 1;" transform="translate(0,165.38)">0.4</text></g><g class="ytick"><text text-anchor="end" x="19" y="2.8" style="font-family: 'Open Sans', verdana, arial, sans-serif; font-size: 8px; fill: rgb(0, 0, 0); fill-opacity: 1; white-space: pre; opacity: 1;" transform="translate(0,133.07999999999998)">0.6</text></g><g class="ytick"><text text-anchor="end" x="19" y="2.8" style="font-family: 'Open Sans', verdana, arial, sans-serif; font-size: 8px; fill: rgb(0, 0, 0); fill-opacity: 1; white-space: pre; opacity: 1;" transform="translate(0,100.77)">0.8</text></g><g class="ytick"><text text-anchor="end" x="19" y="2.8" style="font-family: 'Open Sans', verdana, arial, sans-serif; font-size: 8px; fill: rgb(0, 0, 0); fill-opacity: 1; white-space: pre; opacity: 1;" transform="translate(0,68.46000000000001)">1</text></g><g class="ytick"><text text-anchor="end" x="19" y="2.8" style="font-family: 'Open Sans', verdana, arial, sans-serif; font-size: 8px; fill: rgb(0, 0, 0); fill-opacity: 1; white-space: pre; opacity: 1;" transform="translate(0,36.15)">1.2</text></g></g><g class="overaxes-above"/></g></g><g class="polarlayer"/><g class="smithlayer"/><g class="ternarylayer"/><g class="geolayer"/><g class="funnelarealayer"/><g class="pielayer"/><g class="iciclelayer"/><g class="treemaplayer"/><g class="sunburstlayer"/><g class="glimages"/><defs id="topdefs-7ce677"><g class="clips"/><clipPath id="legend7ce677"><rect width="56" height="48" x="0" y="0"/></clipPath></defs><g class="layer-above"><g class="imagelayer"/><g class="shapelayer"/></g><g class="infolayer"><g class="legend" pointer-events="all" transform="translate(244,20)"><rect class="bg" shape-rendering="crispEdges" style="stroke: rgb(68, 68, 68); stroke-opacity: 1; fill: rgb(255, 255, 255); fill-opacity: 1; stroke-width: 0px;" width="56" height="48" x="0" y="0"/><g class="scrollbox" transform="" clip-path="url(#legend7ce677)"><g class="groups"><g class="traces" transform="translate(0,14.5)" style="opacity: 1;"><text class="legendtext" text-anchor="start" x="40" y="3.12" style="font-family: 'Open Sans', verdana, arial, sans-serif; font-size: 8px; fill: rgb(0, 0, 0); fill-opacity: 1; white-space: pre;">Oa</text><g class="layers" style="opacity: 1;"><g class="legendfill"/><g class="legendlines"><path class="js-line" d="M5,0h30" style="fill: none; stroke: rgb(217, 95, 2); stroke-opacity: 1; stroke-width: 1.7px;"/></g><g class="legendsymbols"><g class="legendpoints"/></g></g><rect class="legendtoggle" x="0" y="-9.5" width="50.6875" height="19" style="fill: rgb(0, 0, 0); fill-opacity: 0;"/></g><g class="traces" transform="translate(0,33.5)" style="opacity: 1;"><text class="legendtext" text-anchor="start" x="40" y="3.12" style="font-family: 'Open Sans', verdana, arial, sans-serif; font-size: 8px; fill: rgb(0, 0, 0); fill-opacity: 1; white-space: pre;">fit</text><g class="layers" style="opacity: 1;"><g class="legendfill"/><g class="legendlines"><path class="js-line" d="M5,0h30" style="fill: none; stroke: rgb(0, 0, 0); stroke-opacity: 1; stroke-dasharray: 3px, 3px; stroke-width: 1.7px;"/></g><g class="legendsymbols"><g class="legendpoints"/></g></g><rect class="legendtoggle" x="0" y="-9.5" width="50.6875" height="19" style="fill: rgb(0, 0, 0); fill-opacity: 0;"/></g></g></g><rect class="scrollbar" rx="20" ry="3" width="0" height="0" style="fill: rgb(128, 139, 164); fill-opacity: 1;" x="0" y="0"/></g><g class="g-gtitle"/><g class="g-xtitle" transform="translate(0,1.9000000000000057)"><text class="xtitle" x="130" y="246.1" text-anchor="middle" style="opacity: 1; font-family: 'Open Sans', verdana, arial, sans-serif; font-size: 8px; fill: rgb(0, 0, 0); fill-opacity: 1; white-space: pre;">Time [h]</text></g><g class="g-ytitle" transform="translate(3.5810546875,0)"><text class="ytitle" transform="rotate(-90,5.418749999999999,125)" x="5.418749999999999" y="125" text-anchor="middle" style="opacity: 1; font-family: 'Open Sans', verdana, arial, sans-serif; font-size: 8px; fill: rgb(0, 0, 0); fill-opacity: 1; white-space: pre;">OD</text></g></g></svg>