<svg class="main-svg" xmlns="http://www.w3.org/2000/svg" xmlns:xlink="http://www.w3.org/1999/xlink" width="110" height="110" style="" viewBox="0 0 110 110"><rect x="0" y="0" width="110" height="110" style="fill: rgb(255, 255, 255); fill-opacity: 1;"/><defs id="defs-e1da76"><g class="clips"><clipPath id="clipe1da76xyplot" class="plotclip"><rect width="64" height="64"/></clipPath><clipPath class="axesclip" id="clipe1da76x"><rect x="15" y="0" width="64" height="110"/></clipPath><clipPath class="axesclip" id="clipe1da76y"><rect x="0" y="18" width="110" height="64"/></clipPath><clipPath class="axesclip" id="clipe1da76xy"><rect x="15" y="18" width="64" height="64"/></clipPath></g><g class="gradients"/><g class="patterns"/></defs><g class="bglayer"/><g class="layer-below"><g class="imagelayer"/><g class="shapelayer"/></g><g class="cartesianlayer"><g class="subplot xy"><g class="layer-subplot"><g class="shapelayer"/><g class="imagelayer"/></g><g class="minor-gridlayer"><g class="x"/><g class="y"/></g><g class="gridlayer"><g class="x"><path class="xgrid crisp" transform="translate(21.78,0)" d="M0,18v64" style="stroke: rgb(0, 0, 0); stroke-opacity: 1; stroke-width: 0.5px;"/><path class="xgrid crisp" transform="translate(28.57,0)" d="M0,18v64" style="stroke: rgb(0, 0, 0); stroke-opacity: 1; stroke-width: 0.5px;"/><path class="xgrid crisp" transform="translate(35.35,0)" d="M0,18v64" style="stroke: rgb(0, 0, 0); stroke-opacity: 1; stroke-width: 0.5px;"/><path class="xgrid crisp" transform="translate(42.129999999999995,0)" d="M0,18v64" style="stroke: rgb(0, 0, 0); stroke-opacity: 1; stroke-width: 0.5px;"/><path class="xgrid crisp" transform="translate(48.91,0)" d="M0,18v64" style="stroke: rgb(0, 0, 0); stroke-opacity: 1; stroke-width: 0.5px;"/><path class="xgrid crisp" transform="translate(55.7,0)" d="M0,18v64" style="stroke: rgb(0, 0, 0); stroke-opacity: 1; stroke-width: 0.5px;"/><path class="xgrid crisp" transform="translate(62.48,0)" d="M0,18v64" style="stroke: rgb(0, 0, 0); stroke-opacity: 1; stroke-width: 0.5px;"/><path class="xgrid crisp" transform="translate(69.25999999999999,0)" d="M0,18v64" style="stroke: rgb(0, 0, 0); stroke-opacity: 1; stroke-width: 0.5px;"/><path class="xgrid crisp" transform="translate(76.03999999999999,0)" d="M0,18v64" style="stroke: rgb(0, 0, 0); stroke-opacity: 1; stroke-width: 0.5px;"/></g><g class="y"><path class="ygrid crisp" transform="translate(0,72.15)" d="M15,0h64" style="stroke: rgb(0, 0, 0); stroke-opacity: 1; stroke-width: 0.5px;"/><path class="ygrid crisp" transform="translate(0,62.31)" d="M15,0h64" style="stroke: rgb(0, 0, 0); stroke-opacity: 1; stroke-width: 0.5px;"/><path class="ygrid crisp" transform="translate(0,52.46)" d="M15,0h64" style="stroke: rgb(0, 0, 0); stroke-opacity: 1; stroke-width: 0.5px;"/><path class="ygrid crisp" transform="translate(0,42.620000000000005)" d="M15,0h64" style="stroke: rgb(0, 0, 0); stroke-opacity: 1; stroke-width: 0.5px;"/><path class="ygrid crisp" transform="translate(0,32.769999999999996)" d="M15,0h64" style="stroke: rgb(0, 0, 0); stroke-opacity: 1; stroke-width: 0.5px;"/><path class="ygrid crisp" transform="translate(0,22.92)" d="M15,0h64" style="stroke: rgb(0, 0, 0); stroke-opacity: 1; stroke-width: 0.5px;"/></g></g><g class="zerolinelayer"><path class="xzl zl crisp" transform="translate(15,0)" d="M0,18v64" style="stroke: rgb(0, 0, 0); stroke-opacity: 1; stroke-width: 0.5px;"/><path class="yzl zl crisp" transform="translate(0,82)" d="M15,0h64" style="stroke: rgb(0, 0, 0); stroke-opacity: 1; stroke-width: 0.5px;"/></g><g class="layer-between"><g class="shapelayer"/><g class="imagelayer"/></g><path class="xlines-below"/><path class="ylines-below"/><g class="overlines-below"/><g class="xaxislayer-below"/><g class="yaxislayer-below"/><g class="overaxes-below"/><g class="overplot"><g class="xy" transform="translate(15,18)" clip-path="url(#clipe1da76xyplot)"><g class="scatterlayer mlayer"><g class="trace scatter trace5cdc96" style="stroke-miterlimit: 2; opacity: 1;"><g class="fills"/><g class="errorbars"/><g class="lines"><path class="js-line" d="M0.41,63.66L11.01,62.1L11.43,61.85L16.1,57.24L16.52,56.4L18.22,51.97L18.64,50L21.61,33.56L22.03,32.77L25.85,26.01L26.27,25.45L30.09,19.68L30.51,19.33L34.75,14.74L35.17,13.55L38.56,12.27L38.99,11.49L41.11,15.23L41.53,14.44L41.96,14.88L42.38,17L42.8,16.26L43.23,17.3L43.65,15.92L44.08,16.36L44.5,16.62L44.92,16.38L45.35,17.85L45.77,17.59L46.2,18.45L46.62,17.74L47.04,18.58L47.47,18.43L47.89,19.09L49.16,18.99L49.59,20L51.28,19.38L51.71,18.94L52.55,20.51L52.98,19.68L53.4,21.15L53.83,20.07L54.25,20.66L54.67,20.86L55.1,20.22L55.52,19.63L55.95,20.71L56.37,19.87L56.79,20.51L57.22,20.46L58.07,20.61L58.49,20.27L59.76,21.14L60.18,20.81L60.61,20.37L61.03,20.94L61.46,21.1L64,21.84" style="vector-effect: none; fill: none; stroke: rgb(217, 95, 2); stroke-opacity: 1; stroke-width: 1.7px; opacity: 1;"/></g><g class="points"/><g class="text"/></g><g class="trace scatter trace30076f" style="stroke-miterlimit: 2; opacity: 1;"><g class="fills"/><g class="errorbars"/><g class="lines"><path class="js-line" d="M0.41,63.7L6.77,63.15L7.19,62.95L11.01,62.05L11.43,61.8L13.98,59.47L14.4,58.86L17.79,53.69L18.22,51.68L21.61,33.95L22.03,33.36L28.81,21.02L29.24,20.35L30.51,19.04L30.93,18.63L34.33,14.44L34.75,12.47L36.45,8.39L36.87,8.78L37.72,9.52L38.14,8.53L39.84,11.59L40.26,12.62L41.11,14.29L41.53,11.98L41.96,12.32L42.38,15.67L42.8,14.74L43.23,16.8L43.65,14.79L44.08,15.52L44.5,15.93L44.92,15.59L45.35,17.71L45.77,17.1L46.2,18.2L46.62,16.95L47.04,17.89L47.47,17.44L48.74,19.17L49.16,18.15L50.43,20.3L50.86,20.2L51.71,18.45L52.13,20.56L52.55,20.81L52.98,19.53L53.4,21.55L53.83,20.17L54.25,21.05L54.67,21.45L55.1,20.61L55.52,19.92L55.95,21.6L56.37,20.41L56.79,20.91L57.22,20.86L57.64,21.45L58.07,20.71L58.49,20.32L58.91,21.1L61.03,21.48L61.46,21.89L64,22.97" style="vector-effect: none; fill: none; stroke: rgb(217, 95, 2); stroke-opacity: 1; stroke-width: 1.7px; opacity: 1;"/></g><g class="points"/><g class="text"/></g><g class="trace scatter tracecc267b" style="stroke-miterlimit: 2; opacity: 1;"><g class="fills"/><g class="errorbars"/><g class="lines"><path class="js-line" d="M0.41,63.95L8.04,63.34L8.47,63.15L11.86,61.75L12.28,61.44L14.4,59.06L14.83,58.37L17.79,53.45L18.22,51.23L19.91,41.29L20.34,37.55L21.61,33.26L22.03,32.67L28.81,20.43L29.24,19.81L30.51,18.54L30.93,18.13L34.33,13.16L34.75,10.8L35.6,10.45L36.02,7.47L36.87,7.99L37.29,8.04L37.72,8.98L38.14,7.99L40.68,13.85L41.11,14.24L41.53,11.44L41.96,11.88L42.38,15.57L42.8,14.54L43.23,16.71L43.65,14.54L44.08,15.28L44.5,15.69L44.92,15.2L45.35,17.26L45.77,16.41L46.2,17.76L46.62,16.26L47.04,17.3L47.47,16.8L48.74,18.77L49.16,17.66L50.43,19.91L50.86,19.86L51.71,17.9L52.13,20.32L52.55,20.61L52.98,18.99L53.4,21.35L53.83,19.77L54.25,20.71L54.67,21.3L55.1,20.27L55.52,19.48L55.95,21.3L56.37,19.87L56.79,20.41L57.22,20.46L57.64,21.25L58.07,20.51L58.49,20.02L59.76,21.43L60.18,20.81L60.61,20.37L61.03,21.33L62.73,22.53L63.15,22.43L63.58,22.29L64,23.22" style="vector-effect: none; fill: none; stroke: rgb(217, 95, 2); stroke-opacity: 1; stroke-width: 1.7px; opacity: 1;"/></g><g class="points"/><g class="text"/></g><g class="trace scatter traced2741a" style="stroke-miterlimit: 2; opacity: 1;"><g class="fills"/><g class="errorbars"/><g class="lines"><path class="js-line" d="M4.23,63.53L10.16,62.22L10.59,62.04L13.98,59.78L14.4,59.35L16.94,55.74L17.37,54.91" style="vector-effect: none; fill: none; stroke: rgb(0, 0, 0); stroke-opacity: 1; stroke-dasharray: 3px, 3px; stroke-width: 1.7px; opacity: 1;"/></g><g class="points"/><g class="text"/></g></g></g></g><path class="xlines-above crisp" d="M0,0" style="fill: none;"/><path class="ylines-above crisp" d="M0,0" style="fill: none;"/><g class="overlines-above"/><g class="xaxislayer-above"><g class="xtick"><text text-anchor="start" x="0" y="91" transform="translate(15,0) rotate(90,0,87)" style="font-family: 'Open Sans', verdana, arial, sans-serif; font-size: 8px; fill: rgb(0, 0, 0); fill-opacity: 1; white-space: pre; opacity: 1;">0</text></g><g class="xtick"><text text-anchor="start" x="0" y="91" style="font-family: 'Open Sans', verdana, arial, sans-serif; font-size: 8px; fill: rgb(0, 0, 0); fill-opacity: 1; white-space: pre; opacity: 1;" transform="translate(21.78,0) rotate(90,0,87)">8</text></g><g class="xtick"><text text-anchor="start" x="0" y="91" style="font-family: 'Open Sans', verdana, arial, sans-serif; font-size: 8px; fill: rgb(0, 0, 0); fill-opacity: 1; white-space: pre; opacity: 1;" transform="translate(28.57,0) rotate(90,0,87)">16</text></g><g class="xtick"><text text-anchor="start" x="0" y="91" style="font-family: 'Open Sans', verdana, arial, sans-serif; font-size: 8px; fill: rgb(0, 0, 0); fill-opacity: 1; white-space: pre; opacity: 1;" transform="translate(35.35,0) rotate(90,0,87)">24</text></g><g class="xtick"><text text-anchor="start" x="0" y="91" style="font-family: 'Open Sans', verdana, arial, sans-serif; font-size: 8px; fill: rgb(0, 0, 0); fill-opacity: 1; white-space: pre; opacity: 1;" transform="translate(42.129999999999995,0) rotate(90,0,87)">32</text></g><g class="xtick"><text text-anchor="start" x="0" y="91" style="font-family: 'Open Sans', verdana, arial, sans-serif; font-size: 8px; fill: rgb(0, 0, 0); fill-opacity: 1; white-space: pre; opacity: 1;" transform="translate(48.91,0) rotate(90,0,87)">40</text></g><g class="xtick"><text text-anchor="start" x="0" y="91" style="font-family: 'Open Sans', verdana, arial, sans-serif; font-size: 8px; fill: rgb(0, 0, 0); fill-opacity: 1; white-space: pre; opacity: 1;" transform="translate(55.7,0) rotate(90,0,87)">48</text></g><g class="xtick"><text text-anchor="start" x="0" y="91" style="font-family: 'Open Sans', verdana, arial, sans-serif; font-size: 8px; fill: rgb(0, 0, 0); fill-opacity: 1; white-space: pre; opacity: 1;" transform="translate(62.48,0) rotate(90,0,87)">56</text></g><g class="xtick"><text text-anchor="start" x="0" y="91" style="font-family: 'Open Sans', verdana, arial, sans-serif; font-size: 8px; fill: rgb(0, 0, 0); fill-opacity: 1; white-space: pre; opacity: 1;" transform="translate(69.25999999999999,0) rotate(90,0,87)">64</text></g><g class="xtick"><text text-anchor="start" x="0" y="91" style="font-family: 'Open Sans', verdana, arial, sans-serif; font-size: 8px; fill: rgb(0, 0, 0); fill-opacity: 1; white-space: pre; opacity: 1;" transform="translate(76.03999999999999,0) rotate(90,0,87)">72</text></g></g><g class="yaxislayer-above"><g class="ytick"><text text-anchor="end" x="14" y="2.8" transform="translate(0,82)" style="font-family: 'Open Sans', verdana, arial, sans-serif; font-size: 8px; fill: rgb(0, 0, 0); fill-opacity: 1; white-space: pre; opacity: 1;">0</text></g><g class="ytick"><text text-anchor="end" x="14" y="2.8" style="font-family: 'Open Sans', verdana, arial, sans-serif; font-size: 8px; fill: rgb(0, 0, 0); fill-opacity: 1; white-space: pre; opacity: 1;" transform="translate(0,72.15)">0.2</text></g><g class="ytick"><text text-anchor="end" x="14" y="2.8" style="font-family: 'Open Sans', verdana, arial, sans-serif; font-size: 8px; fill: rgb(0, 0, 0); fill-opacity: 1; white-space: pre; opacity: 1;" transform="translate(0,62.31)">0.4</text></g><g class="ytick"><text text-anchor="end" x="14" y="2.8" style="font-family: 'Open Sans', verdana, arial, sans-serif; font-size: 8px; fill: rgb(0, 0, 0); fill-opacity: 1; white-space: pre; opacity: 1;" transform="translate(0,52.46)">0.6</text></g><g class="ytick"><text text-anchor="end" x="14" y="2.8" style="font-family: 'Open Sans', verdana, arial, sans-serif; font-size: 8px; fill: rgb(0, 0, 0); fill-opacity: 1; white-space: pre; opacity: 1;" transform="translate(0,42.620000000000005)">0.8</text></g><g class="ytick"><text text-anchor="end" x="14" y="2.8" style="font-family: 'Open Sans', verdana, arial, sans-serif; font-size: 8px; fill: rgb(0, 0, 0); fill-opacity: 1; white-space: pre; opacity: 1;" transform="translate(0,32.769999999999996)">1</text></g><g class="ytick"><text text-anchor="end" x="14" y="2.8" style="font-family: 'Open Sans', verdana, arial, sans-serif; font-size: 8px; fill: rgb(0, 0, 0); fill-opacity: 1; white-space: pre; opacity: 1;" transform="translate(0,22.92)">1.2</text></g></g><g class="overaxes-above"/></g></g><g class="polarlayer"/><g class="smithlayer"/><g class="ternarylayer"/><g class="geolayer"/><g class="funnelarealayer"/><g class="pielayer"/><g class="iciclelayer"/><g class="treemaplayer"/><g class="sunburstlayer"/><g class="glimages"/><defs id="topdefs-e1da76"><g class="clips"/><clipPath id="legende1da76"><rect width="56" height="48" x="0" y="0"/></clipPath></defs><g class="layer-above"><g class="imagelayer"/><g class="shapelayer"/></g><g class="infolayer"><g class="legend" pointer-events="all" transform="translate(54,18)"><rect class="bg" shape-rendering="crispEdges" width="56" height="48" x="0" y="0" style="stroke: rgb(68, 68, 68); stroke-opacity: 1; fill: rgb(255, 255, 255); fill-opacity: 1; stroke-width: 0px;"/><g class="scrollbox" transform="" clip-path="url(#legende1da76)"><g class="groups"><g class="traces" transform="translate(0,14.5)" style="opacity: 1;"><text class="legendtext" text-anchor="start" x="40" y="3.12" style="font-family: 'Open Sans', verdana, arial, sans-serif; font-size: 8px; fill: rgb(0, 0, 0); fill-opacity: 1; white-space: pre;">Oa</text><g class="layers" style="opacity: 1;"><g class="legendfill"/><g class="legendlines"><path class="js-line" d="M5,0h30" style="fill: none; stroke: rgb(217, 95, 2); stroke-opacity: 1; stroke-width: 1.7px;"/></g><g class="legendsymbols"><g class="legendpoints"/></g></g><rect class="legendtoggle" x="0" y="-9.5" width="50.6875" height="19" style="fill: rgb(0, 0, 0); fill-opacity: 0;"/></g><g class="traces" transform="translate(0,33.5)" style="opacity: 1;"><text class="legendtext" text-anchor="start" x="40" y="3.12" style="font-family: 'Open Sans', verdana, arial, sans-serif; font-size: 8px; fill: rgb(0, 0, 0); fill-opacity: 1; white-space: pre;">fit</text><g class="layers" style="opacity: 1;"><g class="legendfill"/><g class="legendlines"><path class="js-line" d="M5,0h30" style="fill: none; stroke: rgb(0, 0, 0); stroke-opacity: 1; stroke-dasharray: 3px, 3px; stroke-width: 1.7px;"/></g><g class="legendsymbols"><g class="legendpoints"/></g></g><rect class="legendtoggle" x="0" y="-9.5" width="50.6875" height="19" style="fill: rgb(0, 0, 0); fill-opacity: 0;"/></g></g></g><rect class="scrollbar" rx="20" ry="3" width="0" height="0" x="0" y="0" style="fill: rgb(128, 139, 164); fill-opacity: 1;"/></g><g class="g-gtitle"/><g class="g-xtitle" transform="translate(0,3.9000000000000057)"><text class="xtitle" x="47" y="101.678125" text-anchor="middle" style="opacity: 1; font-family: 'Open Sans', verdana, arial, sans-serif; font-size: 8px; fill: rgb(0, 0, 0); fill-opacity: 1; white-space: pre;">Time [h]</text></g><g class="g-ytitle" transform="translate(8.5810546875,0)"><text class="ytitle" transform="rotate(-90,0.4187499999999993,50)" x="0.4187499999999993" y="50" text-anchor="middle" style="opacity: 1; font-family: 'Open Sans', verdana, arial, sans-serif; font-size: 8px; fill: rgb(0, 0, 0); fill-opacity: 1; white-space: pre;">OD</text></g></g></svg>