<svg class="main-svg" xmlns="http://www.w3.org/2000/svg" xmlns:xlink="http://www.w3.org/1999/xlink" width="300" height="250" style="" viewBox="0 0 300 250"><rect x="0" y="0" width="300" height="250" style="fill: rgb(255, 255, 255); fill-opacity: 1;"/><defs id="defs-e185a4"><g class="clips"><clipPath id="clipe185a4xyplot" class="plotclip"><rect width="207" height="210"/></clipPath><clipPath class="axesclip" id="clipe185a4x"><rect x="20" y="0" width="207" height="250"/></clipPath><clipPath class="axesclip" id="clipe185a4y"><rect x="0" y="20" width="300" height="210"/></clipPath><clipPath class="axesclip" id="clipe185a4xy"><rect x="20" y="20" width="207" height="210"/></clipPath></g><g class="gradients"/><g class="patterns"/></defs><g class="bglayer"/><g class="layer-below"><g class="imagelayer"/><g class="shapelayer"/></g><g class="cartesianlayer"><g class="subplot xy"><g class="layer-subplot"><g class="shapelayer"/><g class="imagelayer"/></g><g class="minor-gridlayer"><g class="x"/><g class="y"/></g><g class="gridlayer"><g class="x"><path class="xgrid crisp" transform="translate(37.96,0)" d="M0,20v210" style="stroke: rgb(0, 0, 0); stroke-opacity: 1; stroke-width: 0.5px;"/><path class="xgrid crisp" transform="translate(55.93,0)" d="M0,20v210" style="stroke: rgb(0, 0, 0); stroke-opacity: 1; stroke-width: 0.5px;"/><path class="xgrid crisp" transform="translate(73.89,0)" d="M0,20v210" style="stroke: rgb(0, 0, 0); stroke-opacity: 1; stroke-width: 0.5px;"/><path class="xgrid crisp" transform="translate(91.85,0)" d="M0,20v210" style="stroke: rgb(0, 0, 0); stroke-opacity: 1; stroke-width: 0.5px;"/><path class="xgrid crisp" transform="translate(109.82,0)" d="M0,20v210" style="stroke: rgb(0, 0, 0); stroke-opacity: 1; stroke-width: 0.5px;"/><path class="xgrid crisp" transform="translate(127.78,0)" d="M0,20v210" style="stroke: rgb(0, 0, 0); stroke-opacity: 1; stroke-width: 0.5px;"/><path class="xgrid crisp" transform="translate(145.74,0)" d="M0,20v210" style="stroke: rgb(0, 0, 0); stroke-opacity: 1; stroke-width: 0.5px;"/><path class="xgrid crisp" transform="translate(163.71,0)" d="M0,20v210" style="stroke: rgb(0, 0, 0); stroke-opacity: 1; stroke-width: 0.5px;"/><path class="xgrid crisp" transform="translate(181.67,0)" d="M0,20v210" style="stroke: rgb(0, 0, 0); stroke-opacity: 1; stroke-width: 0.5px;"/><path class="xgrid crisp" transform="translate(199.64,0)" d="M0,20v210" style="stroke: rgb(0, 0, 0); stroke-opacity: 1; stroke-width: 0.5px;"/><path class="xgrid crisp" transform="translate(217.6,0)" d="M0,20v210" style="stroke: rgb(0, 0, 0); stroke-opacity: 1; stroke-width: 0.5px;"/></g><g class="y"><path class="ygrid crisp" transform="translate(0,190.07)" d="M20,0h207" style="stroke: rgb(0, 0, 0); stroke-opacity: 1; stroke-width: 0.5px;"/><path class="ygrid crisp" transform="translate(0,139.75)" d="M20,0h207" style="stroke: rgb(0, 0, 0); stroke-opacity: 1; stroke-width: 0.5px;"/><path class="ygrid crisp" transform="translate(0,89.44)" d="M20,0h207" style="stroke: rgb(0, 0, 0); stroke-opacity: 1; stroke-width: 0.5px;"/><path class="ygrid crisp" transform="translate(0,39.120000000000005)" d="M20,0h207" style="stroke: rgb(0, 0, 0); stroke-opacity: 1; stroke-width: 0.5px;"/></g></g><g class="zerolinelayer"><path class="xzl zl crisp" transform="translate(20,0)" d="M0,20v210" style="stroke: rgb(0, 0, 0); stroke-opacity: 1; stroke-width: 0.5px;"/></g><g class="layer-between"><g class="shapelayer"/><g class="imagelayer"/></g><path class="xlines-below"/><path class="ylines-below"/><g class="overlines-below"/><g class="xaxislayer-below"/><g class="yaxislayer-below"/><g class="overaxes-below"/><g class="overplot"><g class="xy" transform="translate(20,20)" clip-path="url(#clipe185a4xyplot)"><g class="scatterlayer mlayer"><g class="trace scatter trace419882" style="stroke-miterlimit: 2; opacity: 1;"><g class="fills"/><g class="errorbars"/><g class="lines"><path class="js-line" d="M0.2,187.77L0.4,198.36L0.9,188.61L0.95,186.89L1.25,181.47L1.75,185.02L1.8,185.11L2.05,184.11L2.1,183.51L3.4,172.36L3.45,172.49L3.5,172.42L3.85,174.15L4.1,172.57L4.15,171.69L5.14,169.02L5.19,169.18L5.24,169.12L5.34,168.36L5.64,169.68L5.69,169.56L5.74,170.04L6.84,167.24L6.94,167.81L6.99,168.64L7.49,170.56L7.69,169.37L7.74,168.54L8.09,167.14L8.39,168.93L8.44,168.97L9.09,169.91L9.24,169.34L9.29,169.29L9.49,169.55L9.64,168.88L9.69,167.93L10.09,161.98L10.34,166.3L10.39,166.87L10.79,166.53L11.29,169.36L11.34,168.47L11.44,169.12L11.94,167.55L12.04,167.86L12.09,167.53L12.34,166.13L12.79,167.38L12.84,167.72L14.19,163.98L14.24,164.09L14.29,164.22L15.29,165.87L15.34,165.78L15.39,165.54L16.08,163.91L16.13,163.46L16.68,161.01L16.93,162.61L16.98,163.02L17.23,164.53L17.78,163.91L17.83,163.71L18.28,162.41L18.58,163.68L18.63,163.88L19.08,161.25L19.58,162.27L19.63,162.31L19.98,162.5L20.23,161.37L20.33,162.04L20.38,162.54L20.73,163.91L20.78,163.49L20.83,162.56L21.88,159.81L22.03,160.42L22.08,160.63L22.33,161.67L22.38,162.09L22.43,162.27L22.58,161.18L22.83,161.38L22.88,160.57L23.28,158.5L23.63,160.4L23.68,160.56L23.78,160.98L24.08,158.95L24.13,158.58L24.88,156.96L25.08,157.4L25.13,157.26L25.38,158.43L25.63,157.19L25.67,157.06L26.22,154.92L26.42,156.17L26.47,156.36L26.97,155.76L27.32,156.56L27.37,156.25L27.77,154.85L28.12,155.67L28.17,155.97L29.07,156.36L29.22,155.97L29.27,155.77L30.32,155.18L30.37,155.4L30.82,156.01L31.22,155.77L31.27,155.79L31.77,155.16L31.97,155.85L32.02,156.06L32.77,152.99L33.02,153.93L33.07,154.06L33.17,153.61L33.57,154.75L33.62,155.11L33.77,155.53L34.12,153.58L34.17,153.19L34.52,154.04L34.77,152.99L34.82,152.32L35.37,149.95L35.77,150.57L35.82,151.06L35.97,150.84L36.21,151.83L36.56,151.65L36.61,151.39L36.76,151.03L37.16,151.99L37.21,152.5L37.51,153.13L37.76,151.75L37.81,151.18L38.71,148.99L38.76,149.05L38.81,149.51L39.01,150.33L39.41,149.01L39.46,148.74L39.56,148.56L39.81,149.31L39.91,149.15L39.96,149.41L40.16,149.77L40.46,148.85L40.51,148.56L41.41,146.53L41.81,146.92L41.86,147.05L42.06,147.62L42.61,144.99L42.76,146.09L42.81,146.51L43.11,147.93L43.41,146.06L43.46,145.88L44.01,145.19L44.16,145.92L44.21,146.44L44.36,147.74L44.66,146.15L44.71,145.27L45.01,141.75L45.36,145.43L45.41,145.97L45.51,146.77L45.91,143.88L45.96,143.57L46.35,141.96L46.8,142.53L46.85,142.5L47.8,139.56L47.9,139.89L47.95,140.12L48.15,139.62L48.3,140.43L48.35,140.61L48.9,141.79L49.1,140.99L49.15,140.92L49.4,139.38L49.6,141.2L49.65,141.94L50.1,145.93L50.4,142.62L50.45,141.83L51.15,138.6L51.3,140.06L51.35,140.6L52.45,147.02L52.55,146.89L52.6,146.74L53.3,142.92L53.35,142.24L54.3,138.85L54.35,139.11L54.4,139.28L55.05,137.07L55.1,136.8L55.5,137.91L55.9,135.36L55.95,135.92L56,136.16L56.34,137.57L56.54,134.61L56.59,133.95L58.04,130.68L58.09,130.73L58.14,130.86L58.79,130.63L59.09,131.62L59.14,131.75L59.34,131.81L60.19,129.68L60.39,129.81L60.44,130.06L60.69,130.52L60.94,129.93L60.99,129.67L61.14,129.55L61.84,129.84L61.89,129.81L61.94,129.77L62.79,128.29L62.89,128.35L62.94,128.52L63.34,127.93L63.39,127.6L64.89,125.71L65.09,125.98L65.14,126.11L65.44,126.49L66.14,125.28L66.19,125.43L66.73,126.58L67.03,125.79L67.08,125.7L67.23,125L67.63,126.03L67.68,126.17L68.68,126.89L68.73,126.76L68.78,126.76L69.33,125.49L69.78,126.09L69.83,126.13L70.58,125.89L70.63,125.72L71.48,125.27L71.53,125.38L71.58,125.48L72.83,126.11L72.88,126.04L72.93,126.01L73.53,124.71L73.78,125.14L73.83,125.85L74.58,132.6L74.83,130.09L74.88,129.65L75.83,120.18L76.18,122.92L76.23,123.75L76.28,124.05L76.58,121.58L76.63,121.16L77.27,123.39L77.32,123.82L77.72,125.69L77.92,124.67L77.97,123.95L78.82,118.97L78.97,120.59L79.02,121.03L79.17,121.7L79.47,119.33L79.52,118.85L80.97,116.25L81.02,116.58L81.07,116.69L81.47,117.24L81.62,116.28L81.67,115.88L83.17,110.82L83.22,110.9L83.62,106.68L83.67,106.12L83.77,104.79L84.32,106.82L84.37,106.46L84.42,106.3L84.47,105.75L84.87,108.68L84.92,109.41L85.57,114.41L85.87,111.93L85.92,111.41L87.61,106.25L87.66,106.71L87.71,106.53L87.86,107.9L87.91,108.65L88.61,110.45L88.71,109.94L88.76,109.43L88.91,107.84L89.11,109.35L89.16,109.8L89.41,112.24L89.91,110.12L89.96,110.24L90.21,108.67L90.26,108.15L91.16,104.24L91.26,104.69L91.31,104.82L91.86,108.94L92.21,107.27L92.26,106.89L92.61,103.46L92.66,102.66L92.96,99.13L93.46,101.28L93.51,100.89L94.36,98.66L94.41,98.73L94.46,99.11L94.56,99.81L95.06,97.93L95.11,98.05L95.21,98.28L95.41,97.47L95.51,97.57L95.56,97.16L95.81,99.01L96.41,98.45L96.46,97.98L96.51,98.37L96.81,95.68L96.96,96.75L97.01,96.17L97.5,97.61L97.8,97.11L97.85,96.32L97.95,96.66L98.25,95.08L98.65,95.74L98.7,96.09L99.05,94.06L99.5,95.41L99.55,95.5L100.65,91.52L100.7,91.57L100.75,91.87L101.2,91.54L101.25,91L101.75,91.18L101.85,90.75L101.9,90.47L102.8,88.57L102.85,88.1L103.35,88.43L103.6,87.98L103.65,87.99L104.75,86.03L104.8,85.97L105.2,86.57L105.4,85.63L105.45,85.51L106.35,84.08L106.45,84.74L106.5,85.29L107.64,81.4L107.84,82.33L107.89,82.71L108.09,84.53L108.54,82.12L108.59,82.14L108.79,82.98L109.19,81.22L109.24,81.05L110.34,78.76L110.39,78.68L110.89,77.22L111.29,77.98L111.34,78.53L111.54,77.87L112.09,78.54L112.14,78.3L113.14,74.28L113.59,74.61L113.64,74.86L114.14,72.5L114.39,74.37L114.44,74.92L114.84,76.93L115.19,75.82L115.24,75.25L115.64,73.46L116.19,74.05L116.24,74.12L116.54,74.9L116.94,74.36L116.99,74.13L117.29,73.6L117.34,73.22L117.49,71.64L117.98,74.38L118.03,74.41L118.83,67.6L119.18,69.03L119.23,69.19L119.83,74.11L120.08,71.67L120.13,71.24L120.23,70.46L120.63,73.08L120.68,72.91L120.73,72.6L121.23,64.34L121.53,68.78L121.58,69.32L121.78,70.9L122.18,67.63L122.23,68.08L122.28,68.33L122.68,71.4L123.08,69.26L123.13,69.18L123.53,67.89L123.88,68.91L123.93,69.03L124.28,69.31L124.43,68.6L124.48,68.73L124.53,68.44L125.53,62.48L125.73,64.61L125.78,65.06L126.03,65.57L126.68,62.79L126.98,63.12L127.03,63.24L127.57,64.27L127.62,64.64L127.72,64.89L128.02,63.36L128.07,62.98L128.57,60.21L128.97,60.69L129.02,60.81L129.37,61.05L130.57,55.86L130.82,56.49L130.87,56.67L131.42,55.57L131.47,55.4L132.77,52.96L132.82,52.51L133.07,52.27L133.22,53.43L133.27,53.84L133.57,56.01L133.87,52.63L133.92,51.85L135.52,37.55L135.57,37.28L135.72,36.83L136.07,38.79L136.12,38.86L136.82,38.8L136.87,38.67L136.92,38.5L137.47,37.9L137.52,37.51L138.01,36.27L138.26,37.16L138.31,37.45L139.16,42.08L139.46,41.16L139.51,41.01L141.81,30.5L141.86,30.24L142.41,28.33L142.81,29.26L142.86,29.5L144.16,31.73L144.61,31.36L144.66,31.2L144.81,31.49L145.21,30.55L145.26,30.4L145.51,30.42L145.71,29.88L145.76,29.74L146.66,28.25L146.71,28.28L146.76,28.28L147.26,27.87L147.31,29.65L147.86,46.18L148.4,44.55L148.45,44.43L148.85,43.81L149.25,44.42L149.3,44.41L149.55,44.93L150,44.35L150.05,44.03L151.25,43.65L151.3,43.81L151.35,44.01L151.8,45.17L152.25,44.91L152.3,44.68L153.2,46.59L153.25,46.89L153.7,46.26L153.95,46.92L154,47.28L155.1,50.28L155.4,50.07L155.45,49.98L156.5,53.24L156.7,52.84L156.75,52.86L158.05,49.77L158.1,49.4L158.35,48.68L158.69,49.95L158.74,50.42L159.69,46.89L159.99,47.13L160.04,47.22L160.84,47.74L160.89,47.53L160.94,47.35L161.34,45.81L161.84,46.57L161.89,46.67L162.39,48.94L162.79,48.29L162.84,48.14L163.39,48.28L163.49,48.63L163.54,48.9L163.79,49.03L164.04,48.42L164.29,48.92L164.34,48.98L164.99,49.07L165.04,48.9L165.09,48.7L165.79,51.1L165.84,51.47L166.59,53.56L166.64,53.84L167.34,55.19L167.89,54.73L167.94,54.67L169.28,54.43L169.33,54.64L169.38,54.64L169.83,54.98L169.88,55.1L169.93,55.22L170.13,55.47L170.33,54.65L170.38,54.49L171.08,53.11L171.38,53.31L171.43,53.47L171.83,54.17L172.08,53.08L172.13,52.83L173.53,50.7L173.73,51.2L173.78,51.16L174.43,53.06L174.83,52.3L174.88,52.27L175.58,49.86L175.83,50.83L175.88,51.01L176.08,51.18L176.73,49.45L176.78,49.23L177.53,48.38L177.68,48.61L177.73,48.57L178.53,48.26L178.58,48.15L178.97,48.39L179.17,47.87L179.22,47.67L179.67,47.1L179.97,47.62L180.02,47.79L181.87,48.8L181.92,48.64L183.02,46.34L183.32,47.05L183.37,47.27L184.22,47.84L184.27,47.6L184.57,47.97L184.87,47.08L184.92,47.08L186.17,45.81L186.22,45.91L186.27,46.1L186.87,45.42L186.92,45.31L187.92,45.21L187.97,44.97L188.17,44.73L188.52,45.47L188.57,45.41L188.62,45.6L189.61,46.27L189.66,46.28L189.86,45.99L190.26,46.74L190.31,46.71L191.26,45.3L191.46,45.58L191.51,45.8L192.26,46.63L192.46,46.15L192.51,46.09L193.31,43.29L193.61,43.71L193.66,43.92L194.66,46.53L194.71,46.12L194.76,44.8L194.91,44.25L195.21,47.12L195.26,49.05L196.36,57.87L196.46,57.35L196.51,56.93L197.51,44.72L197.91,47.5L197.96,47.76L198.36,47.92L198.46,47.19L198.56,47.88L198.61,48.46L198.95,49.51L199.35,49.2L199.4,48.46L200.35,54.3L200.7,53.37L200.75,53.35L201.15,54.16L201.45,53.16L201.5,53.16L201.65,53.04L201.85,53.82L201.9,53.79L201.95,53.9L202.2,54.24L202.4,53.77L202.45,53.36L203.05,48.34L203.55,48.45L203.6,48.33L204.5,47.34L204.55,47.11L204.65,48.74L205.15,45.95L205.25,46.23L205.3,46.56L205.9,48.45L206.05,46.72L206.1,45.98L206.4,42.83L206.55,43.36" style="vector-effect: none; fill: none; stroke: rgb(99, 110, 250); stroke-opacity: 1; stroke-width: 1.8px; opacity: 1;"/></g><g class="points"/><g class="text"/></g><g class="trace scatter trace932d36" style="stroke-miterlimit: 2; opacity: 1;"><g class="fills"/><g class="errorbars"/><g class="lines"><path class="js-line" d="M0.2,188.14L0.25,199.5L0.9,184.33L0.95,184.1L1.25,180.08L1.55,187.34L1.6,186.92L1.65,186.4L2,181.34L2.05,180.29L3.3,173.43L3.35,173.15L4.65,169.11L4.7,169.28L6.19,164.73L6.34,165.01L6.39,165.22L6.89,167.1L7.24,166.29L7.29,166.01L7.69,166.38L8.44,162.91L8.74,163.69L8.79,163.97L9.09,163.97L9.14,164.48L9.99,163.82L10.04,163.26L10.94,158.86L11.24,159.25L11.29,159.5L11.39,159.06L11.84,160.18L11.89,160.4L12.14,160.68L12.74,159.27L12.79,159.47L14.34,151.86L14.54,153.47L14.59,153.57L15.24,156.86L15.53,155.93L15.58,155.62L16.28,152.75L16.48,153.95L16.53,154.48L16.78,154.92L17.13,153.46L17.18,153.3L17.43,154.07L18.78,148.76L18.83,149.08L19.28,151.08L19.58,149.85L19.63,149.45L19.93,148.96L20.18,150.08L20.23,150.04L20.28,150.07L20.33,150.25L20.68,149.48L20.78,149.62L20.83,149.22L21.38,150.91L21.73,149.79L21.78,149.36L21.98,148.59L22.28,150.23L22.33,150.9L22.53,152.09L22.93,150.26L22.98,150.12L23.98,148.93L24.03,148.74L24.83,149.5L24.88,149.3L24.93,149.53L25.18,149.84L25.43,148.55L25.48,148.14L26.27,146.57L26.47,147.06L26.52,147.13L26.57,146.83L27.07,147.87L27.12,148.16L27.27,148.38L27.47,147.43L27.52,147.1L28.77,144.5L28.82,144.71L29.37,145.86L29.57,145.1L29.62,144.78L30.12,145.11L31.17,140.49L31.22,140.53L31.27,140.82L31.42,141.24L31.82,140.5L32.02,140.99L32.07,140.73L32.42,139.89L32.67,140.98L32.72,141.18L33.22,142.88L33.52,141.72L33.57,141.73L33.72,141.56L33.87,142.6L34.22,142.11L34.27,142.04L35.12,139.28L35.27,139.76L35.32,139.8L35.52,140.95L35.92,139.27L36.21,140.62L36.26,140.51L36.41,140.94L36.71,139.81L37.01,140.58L37.06,140.54L37.81,141.13L37.86,140.87L37.91,140.58L38.41,138.44L38.66,139.73L38.71,139.9L38.91,140.33L39.51,138.92L39.56,139.29L39.76,139.73L40.16,138.82L40.21,138.87L40.26,138.98L41.56,134.47L41.81,135.94L41.86,136.15L42.21,137.71L42.26,137.39L42.31,137.87L42.51,139.09L42.96,137.44L43.01,136.86L44.36,133.09L44.46,133.88L44.51,134L44.66,134.23L44.91,133.57L44.96,133.02L45.16,132.12L45.61,133.2L45.66,133.76L46.06,135.6L46.35,134.12L46.4,133.72L46.8,132.59L46.85,132.41L47.95,130.92L48,131.02L48.6,131.95L48.75,131.36L48.8,130.94L49.5,127.95L49.8,128.69L49.85,128.76L51.1,131.17L51.15,131.02L51.2,130.7L51.25,130.91L51.65,129.48L51.7,129.39L52.05,129.06L52.25,129.65L52.35,129.5L52.4,129.73L52.6,130.41L53.15,129.97L53.2,130.06L53.9,131.46L53.95,131.8L54.35,132.31L54.55,131.46L54.6,131.33L55.15,129.83L55.2,129.34L55.35,128.81L55.6,130.7L55.65,131.1L55.9,132.32L56.3,130.35L56.35,129.99L56.74,129.23L56.79,128.81L57.39,123.98L57.84,124.15L57.89,124.25L57.94,124.42L58.09,122.58L58.14,122.04L58.79,118.9L59.04,119.93L59.09,120.15L59.49,116.63L59.74,117.93L59.79,118.51L60.49,121.78L60.84,120.86L60.89,120.34L61.19,119.27L61.44,120.99L61.49,121.42L61.89,122.65L62.29,121.87L62.34,121.68L62.59,123.22L62.64,123.59L63.04,122.31L63.09,122.11L63.49,120.92L63.54,120.7L63.74,119.37L64.24,121.02L64.29,121.16L64.74,122.15L65.04,121.39L65.09,120.95L67.13,114.62L67.28,115.02L67.33,115.08L67.48,115.45L67.78,114.17L67.83,113.87L68.73,111.91L68.83,112.2L68.88,112.39L69.18,112.66L69.28,111.97L69.33,111.23L71.23,105.66L71.33,105.9L71.38,106.08L71.93,103.93L72.33,104.8L72.38,105.06L72.78,105.47L72.83,105.17L72.88,104.66L73.18,102.34L73.63,103.93L73.68,103.92L74.58,101.48L74.63,102.27L74.68,103.08L75.08,110.08L75.73,109.02L75.78,109.05L76.43,104.63L76.77,105.35L76.82,105.78L76.87,106.06L77.22,103.83L77.27,103.94L78.12,96.98L78.37,98.19L78.42,100.12L78.52,98.44L78.72,99.96L78.77,100.85L79.02,101.17L79.17,99.43L79.22,97.51L79.37,97.7L79.47,96.6L79.52,95L80.17,103.14L80.82,102.82L80.87,102.72L81.12,101.7L81.52,103.06L81.57,103.23L82.32,98.93L82.82,99.95L82.87,99.82L83.02,99.1L83.42,100.72L83.47,101.13L83.82,102.3L84.12,100.55L84.17,100.12L85.07,94.9L85.32,95.75L85.37,96.15L85.62,97.83L86.17,96.59L86.22,96.6L86.52,98.1L86.77,96.45L86.82,95.96L88.66,91.5L88.76,91.64L88.81,91.7L89.16,93.02L89.56,91.83L89.61,91.83L89.81,91.44L89.86,90.91L90.21,89.5L90.56,91.23L90.61,91.75L90.86,92.95L91.21,90.79L91.26,89.97L91.51,87.95L91.86,91.03L91.91,91.49L92.21,92.19L92.41,90.31L92.46,90.18L93.01,89.27L93.06,88.93L93.61,85.8L94.06,86.63L94.11,86.8L94.76,86.73L94.81,86.57L95.16,85.12L95.56,86.19L95.61,86.6L95.66,86.75L95.96,85.72L96.01,85.3L96.81,81.95L97.06,82.93L97.11,83.02L97.35,83.57L97.65,82.63L97.7,82.23L98.25,84.43L98.55,83.07L98.6,82.58L100,76.94L100.05,76.81L100.3,77.14L100.5,76.12L100.55,75.85L100.7,75.77L100.95,76.46L101,76.56L101.6,74.14L101.75,74.99L101.8,75.51L102.6,78.4L102.95,77.92L103,77.76L103.6,78.15L104.65,73.49L104.7,73.27L104.9,72.39L105.35,73.72L105.4,73.7L105.6,74.07L105.9,72.95L105.95,72.41L106.55,69.51L106.8,70.51L106.85,71.04L107.29,72.45L107.64,71.81L107.69,71.52L108.19,68.1L108.69,69.2L108.74,69.06L109.39,66.18L109.64,67.1L109.69,67.23L110.04,68.91L110.39,67.76L110.44,67.61L111.94,56.33L111.99,55.68L112.59,51.78L112.99,52.86L113.04,53.02L114.34,58.11L114.39,57.88L114.59,57.3L114.99,58.31L115.04,58.17L115.09,58.23L115.59,55.79L115.89,57.71L115.94,58.22L116.14,59.19L116.59,57.84L116.64,57.58L117.28,55.68L117.68,56.48L117.73,56.62L117.83,56.99L118.23,55.63L118.28,55.34L119.88,48.25L119.93,48.15L120.38,45.86L120.73,47.42L120.78,47.62L121.43,48.82L121.63,48.33L121.68,48.11L122.28,46.54L122.63,46.83L122.68,47.2L123.58,48.09L123.63,47.92L123.68,47.49L124.48,39.12L124.78,41.8L124.83,42.26L125.13,43.68L125.53,42.41L125.58,42.14L125.88,41.64L126.28,42.27L126.33,42.28L127.18,43.05L127.23,43L127.28,42.88L128.87,36.57L128.92,35.8L129.37,33.82L129.72,34.49L129.77,34.77L129.92,34.93L130.12,34.15L130.17,33.96L131.32,31.91L131.52,32.11L131.57,32.28L132.12,33.32L132.27,32.55L132.32,32.41L132.72,33.37L132.77,33.77L133.32,31.76L133.37,31.87L133.42,31.2L133.87,28.13L134.17,31.08L134.22,31.33L134.52,32.19L134.87,31.02L134.92,31.17L134.97,31.02L136.47,26.6L136.82,26.7L136.87,26.89L137.27,27.87L137.52,27.01L137.57,26.6L138.31,23.27L138.56,24.1L138.61,24.39L139.56,26.41L139.61,26.04L140.51,27.58L140.66,27.05L140.71,26.79L140.81,27.1L141.16,25.82L141.21,25.38L142.36,20.28L142.46,20.65L142.51,20.87L143.56,22.15L143.61,21.98L143.91,23.24L144.31,21.98L144.36,21.64L145.16,20.86L145.21,21.03L145.56,21.84L145.86,20.84L145.91,20.89L145.96,20.9L147.26,17.8L147.36,18.63L147.41,18.99L148.7,25.87L148.8,25.62L148.85,25.39L150.05,22.53L150.1,22.46L151.1,21.41L151.15,20.9L151.6,15.99L152,19.37L152.05,19.79L152.65,23.5L152.95,22.4L153,22.23L153.4,20.74L153.75,22.22L153.8,22.41L154.95,24.29L155,24.27L155.05,24.04L157.05,13.81L157.1,13.71L157.5,15.8L157.55,16.47L158.54,20.56L158.59,20.3L158.64,20.19L158.94,16.38L158.99,15.62L159.69,10.5L159.79,14.02L159.84,15.77L160.44,30.29L160.89,28.31L160.94,28.31L161.69,31.65L161.94,30.47L161.99,30.16L162.74,26.55L162.99,27.43L163.04,28.04L163.49,30.74L163.94,30.06L163.99,29.65L164.74,26.86L165.04,27.71L165.09,28L165.94,29.53L165.99,29.51L166.04,29.29L166.49,27.52L166.79,28.49L166.84,28.95L167.34,27.69L167.64,28.33L167.69,28.79L167.94,29.27L168.54,27.67L168.73,27.9L168.78,28.03L168.88,27.89L169.13,28.43L169.18,28.45L169.23,28.94L169.68,30.73L169.98,29.24L170.03,28.97L170.53,28.38L170.58,28.11L170.63,27.88L170.93,29.57L170.98,29.93L171.28,31.93L171.73,30.6L171.78,30.15L172.83,26.57L172.88,26.59L172.93,26.65L173.73,34.74L174.03,32.53L174.08,32.13L174.58,28.47L174.93,30.25L174.98,30.98L175.43,32.3L175.73,31.16L175.78,31.09L176.63,26.22L176.88,28.24L176.93,28.95L177.58,32.71L177.88,31.91L177.93,31.55L178.18,30.19L178.73,31.12L178.77,31.15L179.17,32.12L179.47,31.22L179.52,31.14L180.07,28.14L180.57,29.07L180.62,29.15L181.57,35.11L181.97,33.55L182.02,33.43L182.67,33.28L182.82,33.63L182.87,33.8L183.37,36.49L183.67,34.71L183.72,34.28L183.82,33.98L184.07,35.33L184.12,35.9L184.87,43.6L185.12,40.4L185.17,39.58L186.42,33.9L186.47,33.84L186.87,33.82L186.97,33.46L187.02,33.17L187.62,28.11L188.22,28.47L188.27,28.04L188.47,27.13L188.71,29.29L188.76,29.99L189.61,33.6L189.76,33.46L189.81,33.37L190.56,32.42L190.61,31.88L191.41,22.61L191.76,24.57L191.81,25.35L192.81,33.96L193.11,33.89L193.16,33.68L195.26,20.74L195.51,21.4L195.56,21.39L195.81,20.48L196.21,21.83L196.26,22.32L196.36,22.68L196.91,21.95L196.96,21.92L197.46,27.9L197.86,24.94L197.91,24.63L198.01,24.77L199.65,20.05L199.8,20.37L199.85,20.74L200.1,21.27L200.15,21.75L200.5,22.37L200.7,21.23L200.75,20.79L201.05,19.72L201.35,20.58L201.4,20.68L202,20.36L202.3,21.01L202.35,20.99L202.55,21.54L202.65,21.06L202.7,19.88L202.75,18.53L203.3,23.02L203.35,22.98L204.5,19.91L204.55,19.96L204.6,21L204.65,20.82L204.85,22.47L204.9,22.78L206,29.19L206.05,29.76L206.4,31.81L206.55,31.74" style="vector-effect: none; fill: none; stroke: rgb(239, 85, 59); stroke-opacity: 1; stroke-width: 1.8px; opacity: 1;"/></g><g class="points"/><g class="text"/></g><g class="trace scatter tracea726ed" style="stroke-miterlimit: 2; opacity: 1;"><g class="fills"/><g class="errorbars"/><g class="lines"><path class="js-line" d="M0.2,182.13L0.25,191.62L0.95,187.24L1,186.43L3.25,167L3.3,167.02L3.45,167.47L4,166.55L4.05,166.76L4.1,166.9L4.5,166.99L4.55,166.37L4.6,166.13L4.7,166.6L5,165.14L5.24,165.9L5.29,165.42L5.49,166.2L6.04,165.78L6.09,165.82L6.74,166.89L6.94,166.6L6.99,166.15L7.14,166.43L7.29,165.33L7.34,165.18L7.54,165.81L7.94,164.76L8.09,165.61L8.14,165.46L8.19,165.7L8.59,164.45L8.74,164.83L8.79,164.78L9.69,163.27L9.74,163.13L10.39,161.2L10.59,162.22L10.64,162.37L10.94,163.46L11.44,161.73L11.49,161.9L11.54,162.42L12.54,159.7L12.89,159.82L12.94,160.32L13.29,161.76L13.69,160.34L13.74,160.16L13.79,159.79L14.04,160.41L14.49,160.03L14.54,159.87L14.89,160.74L15.23,159.68L15.28,159.81L15.33,159.82L15.98,159.3L16.08,159.5L16.13,159.81L16.53,158.54L16.93,159.5L16.98,159.68L18.13,156.58L18.18,156.83L18.33,156.71L18.63,157.26L18.88,157.05L18.93,156.75L19.08,156.86L19.18,156.23L19.23,156.51L19.28,156.06L19.38,155.75L19.78,156.7L20.03,155.98L20.08,155.92L20.88,154.52L20.98,155.08L21.03,155L21.08,155.2L21.48,154L21.53,153.85L22.28,152.51L22.53,152.64L22.58,152.86L22.68,152.7L23.18,154.39L23.38,153.16L23.43,152.7L24.23,150.2L24.43,151.1L24.48,151.24L24.73,151.64L25.32,149.76L25.37,150.35L25.47,150.9L25.77,149.86L25.82,149.45L26.62,148.53L26.67,148.63L26.72,148.96L27.22,147.62L27.52,148.38L27.57,148.63L27.72,149.32L28.02,147.67L28.07,147.25L28.42,146.01L28.82,147.01L28.87,147.19L29.97,145.19L30.02,145.48L30.07,144.97L30.47,146.13L30.67,145.93L30.72,146.08L31.27,144.57L31.67,144.79L31.72,144.83L32.02,143.77L32.37,145.1L32.47,144.71L32.52,144.94L32.57,145.12L33.02,144.03L33.07,144.15L33.12,144.08L33.27,144.48L33.52,143.44L33.57,142.96L33.82,141.87L34.22,142.33L34.27,142.73L34.72,143.49L34.92,142.1L34.97,142.3L35.02,142.03L35.32,141.87L35.76,143.22L35.91,142.4L35.96,142.23L36.56,140.93L36.61,141.2L36.66,140.52L36.96,139.29L37.36,141.06L37.41,140.59L37.46,140.33L38.71,137.56L38.86,137.8L38.91,138.07L39.46,137.86L39.76,139.24L39.81,139.04L41.06,135.28L41.11,134.99L41.36,134.38L41.56,135.19L41.61,135.47L41.71,135.29L41.81,136.39L41.86,136.84L41.91,136.99L42.16,135.69L42.21,135.16L42.71,135.24L42.86,134.15L43.06,134.5L43.11,134.54L43.16,134.24L43.56,134.83L43.81,134.7L43.86,135.32L43.96,135.64L44.36,134.44L44.41,134.27L44.51,134.42L44.71,133.56L44.76,133.29L45.26,133.66L45.36,132.75L45.41,132.26L45.7,131.51L45.75,130.9L46.25,132.55L46.85,132.39L46.9,132.26L46.95,132.44L47.35,131.33L47.4,131.03L47.7,131.14L47.75,130.98L47.8,130.36L48.15,129.03L48.45,130.14L48.5,130.32L48.65,131.03L49,129.62L49.05,129.36L49.25,129.51L49.75,127.88L49.95,128.4L50,128.58L50.55,127.3L50.85,128.08L50.9,128.19L52.05,123.76L52.1,124.02L52.15,123.99L53,121.19L53.15,121.57L53.2,121.67L53.55,122.27L53.75,121.58L53.8,120.98L55.05,117.37L55.1,117.31L55.6,118.56L55.94,117.78L55.99,117.78L56.04,118L56.54,116.82L56.59,116.86L56.74,117.01L57.44,115.34L57.49,115.35L57.54,115.66L58.54,112.5L58.74,113.25L58.79,113.59L59.04,114.09L59.34,113.2L59.44,113.29L59.49,113L59.54,112.7L59.94,114.17L59.99,114.13L60.04,114.47L60.34,114.68L60.64,113.86L60.69,113.62L61.34,110.09L61.74,111.38L61.79,111.34L61.84,111.59L62.24,110.39L62.29,110.48L62.34,110.23L62.89,111.63L63.19,111.15L63.24,110.65L64.19,108.76L64.24,108.85L65.04,107L65.14,107.22L65.19,107.58L65.59,108.32L66.08,107.02L66.13,106.95L66.28,107L67.03,106.25L67.08,106.43L67.53,105.28L67.58,104.69L67.98,103.13L68.38,104.13L68.43,104.41L69.63,100.63L69.83,100.69L69.88,100.49L70.03,100.66L70.28,99.95L70.38,99.97L70.43,99.79L71.68,98.62L71.83,98.81L71.88,98.78L72.63,96.94L72.83,97.15L72.88,96.92L74.38,94.21L74.58,94.71L74.63,94.98L75.98,91.3L76.08,92.12L76.12,92.14L77.12,95.16L77.17,94.98L77.27,95.34L77.62,94.01L77.67,93.64L79.02,88.47L79.07,88.42L79.12,88.01L79.62,89.7L79.67,89.88L80.02,91.39L80.42,90.21L80.47,89.9L81.27,88.34L81.47,88.58L81.52,88.73L82.22,85.86L82.57,86.86L82.62,87.15L83.22,85.15L83.27,84.37L83.92,78.37L84.27,79.52L84.32,79.72L85.02,80.81L85.22,80.34L85.27,80.18L85.72,79.13L85.92,79.73L85.97,80.11L86.21,82.77L86.76,80.98L86.81,81.2L87.11,80.8L87.21,81.39L87.26,81.7L87.71,81.09L87.76,80.91L88.21,78L88.26,77.11L88.66,73.98L89.16,74.83L89.21,75.06L90.11,77.28L90.16,77.26L90.21,77.35L91.66,71.16L91.71,70.87L92.36,66.07L92.71,67.43L92.76,67.77L93.66,69.86L93.76,69.19L93.81,68.87L94.31,69.22L94.66,68.31L94.71,68.25L96.8,59.34L96.95,59.97L97,60.04L97.1,60.3L97.4,59.05L97.45,58.81L99.15,53.49L99.2,53.21L99.6,52.25L99.9,53.36L99.95,53.45L100.85,55.34L101.05,54.86L101.1,54.87L101.15,55.02L101.5,53.84L101.55,53.7L101.7,53.15L102.1,54.35L102.15,54.54L102.4,55.27L102.9,54.55L102.95,54.58L105.95,45.62L106,45.64L106.05,45.58L107.59,40.66L107.64,39.96L110.19,31.21L110.24,31.21L110.64,30.22L110.84,31.44L110.89,31.81L112.34,38.37L112.39,38.25L113.39,42.53L113.44,42.4L113.49,42.28L113.89,42L114.04,42.56L114.09,42.67L115.04,44.11L115.24,43.87L115.29,43.74L115.39,43.95L115.64,42.89L115.69,42.66L116.83,38.15L116.88,38.05L117.03,37.74L117.18,38.28L117.43,38.34L117.48,38.77L117.73,39.78L118.03,38.83L118.08,38.24L118.13,38.07L118.43,39.4L118.48,39.86L119.58,42.7L119.63,42.5L120.03,44.19L120.28,42.56L120.33,42.58L121.33,40.45L121.38,40.53L121.78,40.25L122.28,40.89L122.33,40.75L122.53,40.94L122.68,40.2L122.73,40.04L123.58,39.13L123.83,39.36L123.88,39.59L124.63,39.25L124.68,39.05L125.03,36.54L125.48,37.82L125.53,37.79L125.88,37.35L126.18,38.18L126.23,38.14L126.58,39.24L126.97,38.24L127.02,38L127.32,37.57L127.37,37.21L128.12,36.79L128.17,37.07L129.12,37.66L129.17,37.5L129.22,37.36L130.27,36.74L130.32,37L130.37,37.16L131.52,35.09L131.57,34.83L131.72,35.01L131.87,34.1L131.92,33.95L133.67,32.44L133.82,32.82L133.87,33.15L135.27,39.93L135.32,40.83L135.37,42.02L135.77,35.23L135.82,33.93L136.02,31.48L136.47,34.53L136.52,35.6L137.06,41.84L137.41,39.18L137.46,37.63L137.56,36.22L137.96,41.89L138.01,42.85L138.46,42.39L138.96,44.29L139.11,43.36L139.16,43.3L139.46,42.69L139.61,43.55L139.86,43.27L139.91,43.67L141.01,38.76L141.21,40.22L141.26,40.71L142.26,42L142.41,41.59L142.46,41.42L143.01,38.72L143.06,38.23L143.31,37.15L143.51,39.69L143.56,40.19L143.81,42.02L144.16,38.99L144.21,38.43L144.46,37.08L144.71,40.56L144.76,41.49L145.06,44.95L145.46,41.23L145.51,41L146.06,39.72L146.26,40.29L146.31,40.76L147.15,46.73L147.45,44.56L147.5,44.18L148.15,40.45L148.5,41.59L148.55,41.94L149.05,45.04L149.4,43.1L149.45,42.51L149.6,41.66L150,44.03L150.05,44.61L150.45,50.04L150.85,47.07L150.9,46.27L151.4,45.15L151.45,44.65L151.85,41.46L152.25,43.32L152.3,43.74L152.95,45.06L153.1,44.58L153.15,44.37L154.8,40.46L154.95,40.59L155,40.67L155.35,40.47L155.6,40.91L155.65,41.07L156.7,49.15L157.14,47.82L157.19,47.78L157.24,47.55L157.64,48.28L157.84,48.12L157.89,48.14L158.69,47.67L158.89,48.04L158.94,48.06L160.54,43.53L160.69,43.7L160.74,43.85L161.19,44.64L161.39,43.9L161.44,43.58L161.79,43.01L162.19,43.66L162.24,43.85L162.64,44.9L162.94,43.79L162.99,43.47L163.34,42.49L163.79,42.91L163.84,43.1L163.99,43L164.09,43.55L164.14,44.62L165.49,49.83L165.54,49.79L166.49,50.33L166.54,50.19L166.59,49.98L167.48,50.86L167.53,50.53L167.73,50.67L169.08,46.74L169.23,46.88L169.28,47L170.68,51.03L170.73,50.98L170.78,50.92L171.63,49.09L171.73,49.75L171.78,49.88L172.63,52.48L172.83,52.13L172.88,52.16L172.98,52.49L173.48,51.63L173.53,51.71L174.53,52.3L174.58,52.41L175.43,52.92L175.48,53.17L176.03,53.2L176.18,53.49L176.23,53.7L177.13,51.14L177.18,50.54L178.17,47.24L178.22,47.44L178.27,47.46L179.92,41.98L179.97,42.16L180.02,41.96L181.47,45.59L181.77,45.21L181.82,45.2L181.97,44.65L182.22,45.79L182.37,45.46L182.42,45.6L182.62,46.24L183.02,44.61L183.07,44.47L183.27,45.55L183.52,44.39L183.57,44.24L184.07,41.71L184.37,43.19L184.42,43.99L185.32,46.06L185.37,46.01L185.42,46.05L185.92,45.8L186.12,46.32L186.22,45.95L186.27,46.05L186.87,46.64L187.07,46.05L187.11,45.54L187.56,42.62L188.01,43.57L188.06,43.9L188.21,44.2L188.51,43.18L188.56,42.85L188.76,42.3L189.16,43.17L189.21,43.06L189.26,43.08L189.81,41.81L190.01,42.75L190.06,43.04L191.16,46.33L191.21,46.22L191.86,45.2L192.16,45.8L192.21,45.79L192.51,46.16L192.76,45.37L192.81,45.23L193.01,45.21L193.11,45.83L193.16,46.22L193.51,48.38L193.66,44.38L193.71,43.01L194.76,33.86L194.81,33.68L194.86,33.86L195.31,32.92L195.36,32.55L195.66,32.47L195.81,33.08L195.86,33.28L196.31,35.75L196.36,36.33L197.6,42.18" style="vector-effect: none; fill: none; stroke: rgb(0, 204, 150); stroke-opacity: 1; stroke-width: 1.8px; opacity: 1;"/></g><g class="points"/><g class="text"/></g><g class="trace scatter trace75ecea" style="stroke-miterlimit: 2; opacity: 1;"><g class="fills"/><g class="errorbars"/><g class="lines"><path class="js-line" d="M0.2,181.24L0.3,188.19L0.9,181.76L0.95,181.11L2,173.72L2.15,173.82L2.2,173.91L2.45,173.97L2.65,173.45L2.7,173.14L2.9,172.56L3.3,173.54L3.35,173.54L3.4,173.64L4.1,172.04L4.3,172.61L4.35,172.83L5.3,171.35L5.4,171.54L5.44,171.82L6.34,171.17L6.39,171.14L6.69,170.6L7.04,171.29L7.09,171.44L7.19,171.83L7.69,170.92L7.74,171.19L7.79,170.96L8.14,169.92L8.59,170.47L8.64,170.58L9.19,171.75L9.39,168.86L9.54,169.58L9.59,169.72L9.69,169.38L9.84,171.52L9.89,172.5L10.54,174.56L10.69,173.27L10.74,172.97L11.99,167.81L12.09,168.41L12.14,168.53L12.49,168.88L12.74,166.91L13.04,167.47L13.09,167.97L13.49,171.38L13.79,168.36L13.84,167.67L14.44,163.08L14.84,164.43L14.89,164.77L15.98,168.91L16.03,169.84L16.18,170.68L16.68,169.42L16.73,169.82L16.78,169.51L16.88,169.34L17.13,169.93L17.33,169.94L17.38,170.16L17.53,170.29L18.03,169.34L18.23,169.81L18.28,170.09L18.68,170.76L19.13,170.39L19.18,170.3L20.33,173.68L20.53,173.56L20.58,173.41L20.98,173.97L21.43,173.64L21.48,173.48L21.58,173.71L21.83,172.64L21.88,172.17L22.43,168.33L22.83,169.24L22.88,169.51L23.28,170.42L23.58,169.68L23.63,169.21L25.23,159.27L25.38,159.72L25.43,160.09L26.18,163.45L26.77,162.86L26.82,162.9L27.92,160.66L27.97,160.59L28.27,159.85L28.72,160.59L28.77,160.62L29.07,161.31L29.52,160.67L29.57,160.47L30.32,160.99L30.37,160.78L30.67,161.5L31.02,160.69L31.07,160.5L31.17,160.37L31.32,161.3L31.37,161.33L31.42,161.46L31.67,162.48L31.97,160.85L32.02,161.11L32.07,160.62L32.92,159.33L32.97,159.67L33.02,161.6L33.52,141.2L33.97,149.99L34.02,155.55L34.12,160.04L34.42,149.02L34.52,149.68L34.57,148.29L34.62,145.42L34.97,167.19L35.02,166.22L35.22,160.51L35.27,157.98L35.52,143.72L35.57,139.37L35.67,132.51L36.12,153.7L36.17,155.94L36.37,159.86L36.52,158.42L36.57,155.89L36.87,143.38L37.27,156.41L37.31,156.19L37.36,156.28L37.66,155.97L37.91,157.09L37.96,157.11L38.46,158.38L38.66,156.68L38.71,156.89L39.11,155.75L39.26,157.59L39.31,158.66L39.61,161.35L39.76,157.81L39.81,155.98L40.11,152.86L40.41,158.71L40.46,159.5L40.66,161.78L41.01,157.67L41.06,156.62L41.41,155.61L41.76,156.69L41.81,157.02L42.11,157.8L42.16,158.05L42.86,158.53L43.01,158.19L43.06,157.74L43.36,156L43.81,157.57L43.86,157.63L44.31,155.95L44.56,157.8L44.61,158.23L44.81,158.96L45.01,157.46L45.06,156.86L45.36,153.22L45.76,156.82L45.81,157.63L47.31,146.48L47.51,146.92L47.56,147.15L47.75,149L47.85,144.24L47.9,141.67L48.1,128.45L48.5,148.13L48.55,150.04L48.6,152.14L48.8,144.54L49.3,150.91L49.35,150.34L49.5,148.49L50,151.51L50.05,151.91L50.6,153.67L50.65,154.68L51.95,165.02L52,164.93L52.25,165.11L52.95,163.9L53.05,164.05L53.1,164.1L53.65,160.63L53.7,159L54.15,152.99L54.6,154.46L54.65,154.62L55.5,155.24L55.55,155.02L56.05,152.79L56.3,154.5L56.35,154.74L56.4,154.51L56.5,157.21L56.55,158.92L56.95,147.41L57,145.67L57.35,153.7L57.8,143.43L57.85,143.07L57.95,142.27L58.29,145.36L58.34,146.48L58.84,152.62L59.14,150.15L59.19,147.18L60.29,120.85L60.34,120.44L60.44,120.18L60.54,121.83L60.59,126.45L61.59,148.43L61.64,148.92L63.14,142.56L63.19,142.37L63.24,142.55L63.64,141.73L63.79,141.94L63.84,141.73L64.54,140.31L64.74,140.85L64.79,140.87L65.19,140.53L65.24,139.97L65.74,140.3L66.04,138.61L66.09,138.93L66.14,139.69L66.64,154.28L66.84,143.56L66.89,139.41L67.14,123.84L67.54,140.59L67.59,139.78L67.64,138.83L67.69,138.54L67.84,139.12L68.34,138.72L68.39,138.93L68.98,138.72L69.03,138.42L69.68,137.82L69.83,137.96L69.88,138.25L70.93,137.13L70.98,137.38L71.03,137.82L71.73,139.67L71.98,138.9L72.03,138.28L72.23,137.8L72.73,141.16L73.13,139.97L73.18,139.62L73.23,139.32L73.63,140.61L73.88,139.67L73.93,139.95L74.23,138.54L74.53,139.77L74.58,140.43L75.78,146.62L75.93,145.25L75.98,144.65L76.73,141.22L76.78,142.29L76.83,143.15L76.98,143.63L77.43,139.67L77.48,139.19L77.78,138.46L78.03,140.01L78.13,139.6L78.18,139.64L78.68,143.7L79.07,142.11L79.12,141.65L79.42,143.31L79.92,139.96L80.02,140.7L80.07,141.03L80.27,140.81L81.27,145.35L81.42,144.52L81.47,144.06L81.82,142.34L82.22,143.24L82.27,143.61L82.37,144.51L82.87,143.52L83.02,143.65L83.07,144.07L83.17,143.53L83.62,145.52L83.67,145.72L84.47,145L84.52,145.26L84.57,145.74L84.82,146.1L85.32,142.87L85.52,143.9L85.57,143.86L85.82,142.93L85.97,144.2L86.27,143.87L86.32,143.96L86.47,142.28L87.12,142.77L87.17,142.94L88.12,145.15L88.17,145.18L88.57,146.15L88.77,145.67L88.82,145.22L89.66,142.9L89.76,143.31L89.81,143.44L90.81,146.67L90.86,146.52L91.06,146.79L91.16,146.19L91.61,146.42L91.66,146.85L92.76,144.02L92.81,144.16L92.86,144.16L92.96,144.02L93.16,144.58L93.26,144.57L93.31,144.95L93.61,145.38L93.86,144.63L94.06,145.09L94.11,144.96L94.61,146.3L95.06,145.92L95.11,145.77L95.21,146.15L95.66,145.34L95.86,145.76L95.91,146.02L95.96,145.84L96.46,146.71L96.51,146.84L96.71,146.39L97.16,146.86L97.21,147.01L97.41,147.23L97.91,146.76L97.96,147L98.01,147.39L99.11,148.68L99.16,148.34L100.05,149.78L100.1,149.73L100.15,149.26L100.3,148.89L100.75,149.45L100.8,149.85L101.1,150.3L101.35,149.53L101.4,149.36L101.6,149.06L101.85,149.89L101.9,150.15L102.8,151.63L102.9,151.23L102.95,151.3L103.05,151.42L103.85,150.42L103.9,150.45L103.95,150.55L104.8,152.08L104.95,151.84L105,151.89L106.6,153.71L106.85,153.14L106.9,152.95L107.05,152.67L107.25,153.68L107.3,153.65L107.35,154.1L107.45,153.87L107.6,154.43L107.9,154.47L107.95,154.67L108.1,154.61L108.2,155.26L108.25,155.5L109.1,155.48L109.15,155.84L109.34,155.62L110.09,156.83L110.19,156.22L110.24,156.03L110.49,156.37L110.79,155.65L110.84,155.64L110.99,155.37L111.24,156.41L111.39,156.42L111.44,156.5L112.49,158.21L112.54,157.93L113.39,158.7L113.54,158.6L113.59,158.52L113.64,158.23L113.89,160.16L113.94,161.3L114.99,169.92L115.04,169.8L116.09,167.53L116.14,167.53L116.94,169.54L117.19,168.84L117.24,168.58L117.39,167.95L117.79,169.13L117.94,168.9L117.99,168.71L118.84,169.57L118.99,169.07L119.04,168.82L119.34,168.02L119.83,169.25L119.88,169.15L119.93,169.13L121.08,170.72L121.13,170.7L121.18,170.51L121.58,171.83L121.63,172.24L122.18,171.22L122.43,172.63L122.48,172.62L122.93,170.32L123.23,171.97L123.28,172.31L123.48,172.76L123.88,171.38L123.93,171.01L124.53,170.65L124.68,171.03L124.73,170.75L124.98,171.29L125.43,170.66L125.48,170.61L126.03,167.67L126.08,167.18L126.53,165.63L126.88,166.23L126.93,166.36L127.58,167.22L127.63,167.3L128.78,170.89L128.83,170.76L129.63,175.8L129.68,176.38L129.88,178.18L130.32,175.24L130.37,174.92L130.42,174.67L130.67,176.53L130.72,177.15L131.57,178.4L131.62,178.56L132.17,182.86L132.62,181.09L132.67,180.97L133.07,181.5L133.12,180.96L133.17,180.34L134.62,163.78L134.77,165.18L134.82,165.63L135.42,169.56L135.77,168.18L135.82,168.16L136.42,166.49L136.67,167.42L136.72,167.93L137.42,169.22L137.62,168.52L137.67,168.53L137.87,169.19L138.22,168.44L138.27,168.31L138.37,167.91L138.67,169.04L138.82,168.98L138.87,169.12L139.22,169.87L139.27,170.04L141.01,174.21L141.21,173.95L141.26,173.69L141.76,174.92L142.06,174.04L142.11,173.87L142.46,174.15L143.36,170.84L143.46,172.36L143.51,172.82L144.36,177.74L144.46,177.33L144.51,177.5L144.56,177.74L144.96,176.43L145.01,176.47L145.06,175.71L145.16,176.31L145.46,175.07L145.51,174.46L145.56,174.67L145.81,172.58L145.86,172.64L146.81,178L147.01,176.97L147.06,176.46L147.46,175.32L147.66,176.85L147.71,176.81L148.01,177.49L148.16,176.09L148.21,175.36L148.61,173.27L149.01,174.92L149.06,175.26L149.26,175.12L149.31,175.54L149.36,176L149.46,176.26L149.81,175.28L149.86,174.95L150.01,175.92L150.06,176.77L150.96,180.08L151.25,178.93L151.3,178.61L152.1,174.25L152.3,175.75L152.35,176.27L152.45,176.91L152.8,174.58L153,175.42L153.05,175.61L153.15,175.55L153.7,178.61L154.05,177.59L154.1,177.18L155.05,178.74L155.1,178.64L155.4,178.84L156,175.76L156.1,176.28L156.15,176.57L157.4,179.71L157.45,179.29L157.5,178.86L157.55,179.2L157.95,176.86L158,176.87L158.2,176.04L158.45,177.06L158.65,176.47L158.7,176.33L159.6,173.8L159.65,174.19L160.1,177.01L160.4,175.83L160.45,175.36L160.6,174.13L160.9,176.67L161,176.08L161.05,177.29L161.49,178.72L161.79,177.79L161.84,177.63L162.19,175.93L162.49,178.08L162.54,178.51L162.64,178.7L162.74,178.04L162.79,177.24L162.94,177.93L163.14,175.83L163.24,177.43L163.29,178.33L163.54,178.81L164.24,174.89L164.54,176.29L164.59,176.42L164.89,178.06L165.34,176.4L165.39,175.77L165.44,176.56L166.04,174.84L166.09,174.98L166.14,174.79L166.39,174.09L166.59,175.74L166.64,176.52L166.89,178.65L167.34,176.59L167.39,176.05L167.54,176.65L167.89,175.34L167.94,174.75L168.14,174.35L168.44,175.63L168.79,175.07L168.84,174.64L169.09,174.95L169.24,173.55L169.39,173.98L169.44,174.03L169.54,173.97L170.19,179.83L170.44,178.16L170.49,177.96L170.74,178.64L170.99,176.23L171.29,177.31L171.34,177.74L171.54,178.78L171.83,176.11L171.88,176.26L171.93,175.59L172.18,176.58L172.68,174.29L172.83,174.34L172.88,175.12L172.93,174.67L173.28,177.62L173.33,178.02L173.58,176.23L173.93,178.94L173.98,179.77L174.93,180.38L174.98,180.04L175.68,178.28L175.93,178.38L175.98,178.57L176.23,179.47L176.48,177.64L176.53,177.45L177.38,172.53L177.43,169.94L177.68,170.37L177.88,170.24L177.93,172.52L178.33,173.08L178.38,173.28L179.63,174.25L179.68,174.05L180.03,173.9L180.23,174.72L180.28,174.8L181.23,177.06L181.33,176.82L181.38,176.69L182.22,176.36L182.27,176.44L182.32,177.15L183.62,182.14L183.67,182.26L184.52,184.2L184.67,184.06L184.72,183.69L185.62,182.25L185.72,182.41L185.77,182.37L186.62,184.03L186.97,183.45L187.02,183.05L187.37,181.65L187.77,182.58L187.82,182.88L190.27,176.63L190.57,177.26L190.62,177.57L191.12,175.77L191.17,175.43L191.37,175.81L191.62,175.64L191.67,174.71L192.16,175.63L192.51,175.19L192.56,175.05L193.26,176.15L193.51,175.66L193.56,175.16L193.96,173.68L194.46,174.07L194.51,174.01L194.71,174.95L194.76,175.43L195.16,176.08L195.31,175.11L195.51,175.36L195.56,175.18L196.36,173.4L196.61,174.13L196.66,174.38L197.71,175.93L197.76,175.93L198.46,174.78L198.51,174.71L199.26,175.07L199.31,175.1L200.06,175.87L200.11,175.96L201.21,175.68L201.26,175.76L201.66,175.72L201.85,175.38L201.9,175.3L202.95,174.63L203.1,174.75L203.15,174.79L204.3,174.76L204.35,174.73L205.4,174.97L205.45,175.05L206.5,176.89" style="vector-effect: none; fill: none; stroke: rgb(171, 99, 250); stroke-opacity: 1; stroke-width: 1.8px; opacity: 1;"/></g><g class="points"/><g class="text"/></g><g class="trace scatter trace303c42" style="stroke-miterlimit: 2; opacity: 1;"><g class="fills"/><g class="errorbars"/><g class="lines"><path class="js-line" d="M0,170.07L25.13,155.97L25.18,155.93L37.46,147.69L37.51,147.65L48.4,139.49L48.45,139.45L65.29,125.03L65.34,124.98L80.92,109.42L80.97,109.36L95.01,93.3L95.06,93.24L117.59,63.02L117.64,62.95L142.71,26.48L142.76,26.43L146.41,23.84L146.46,23.82L150.21,23.12L150.26,23.11L162.69,23.03L162.74,23.03L207,23.04" style="vector-effect: none; fill: none; stroke: rgb(0, 0, 0); stroke-opacity: 1; stroke-dasharray: 3px, 3px; stroke-width: 1.8px; opacity: 1;"/></g><g class="points"/><g class="text"/></g></g></g></g><path class="xlines-above crisp" d="M0,0" style="fill: none;"/><path class="ylines-above crisp" d="M0,0" style="fill: none;"/><g class="overlines-above"/><g class="xaxislayer-above"><g class="xtick"><text text-anchor="middle" x="0" y="239" transform="translate(20,0)" style="font-family: 'Open Sans', verdana, arial, sans-serif; font-size: 8px; fill: rgb(0, 0, 0); fill-opacity: 1; white-space: pre; opacity: 1;">0</text></g><g class="xtick"><text text-anchor="middle" x="0" y="239" style="font-family: 'Open Sans', verdana, arial, sans-serif; font-size: 8px; fill: rgb(0, 0, 0); fill-opacity: 1; white-space: pre; opacity: 1;" transform="translate(37.96,0)">6</text></g><g class="xtick"><text text-anchor="middle" x="0" y="239" style="font-family: 'Open Sans', verdana, arial, sans-serif; font-size: 8px; fill: rgb(0, 0, 0); fill-opacity: 1; white-space: pre; opacity: 1;" transform="translate(55.93,0)">12</text></g><g class="xtick"><text text-anchor="middle" x="0" y="239" style="font-family: 'Open Sans', verdana, arial, sans-serif; font-size: 8px; fill: rgb(0, 0, 0); fill-opacity: 1; white-space: pre; opacity: 1;" transform="translate(73.89,0)">18</text></g><g class="xtick"><text text-anchor="middle" x="0" y="239" style="font-family: 'Open Sans', verdana, arial, sans-serif; font-size: 8px; fill: rgb(0, 0, 0); fill-opacity: 1; white-space: pre; opacity: 1;" transform="translate(91.85,0)">24</text></g><g class="xtick"><text text-anchor="middle" x="0" y="239" style="font-family: 'Open Sans', verdana, arial, sans-serif; font-size: 8px; fill: rgb(0, 0, 0); fill-opacity: 1; white-space: pre; opacity: 1;" transform="translate(109.82,0)">30</text></g><g class="xtick"><text text-anchor="middle" x="0" y="239" style="font-family: 'Open Sans', verdana, arial, sans-serif; font-size: 8px; fill: rgb(0, 0, 0); fill-opacity: 1; white-space: pre; opacity: 1;" transform="translate(127.78,0)">36</text></g><g class="xtick"><text text-anchor="middle" x="0" y="239" style="font-family: 'Open Sans', verdana, arial, sans-serif; font-size: 8px; fill: rgb(0, 0, 0); fill-opacity: 1; white-space: pre; opacity: 1;" transform="translate(145.74,0)">42</text></g><g class="xtick"><text text-anchor="middle" x="0" y="239" style="font-family: 'Open Sans', verdana, arial, sans-serif; font-size: 8px; fill: rgb(0, 0, 0); fill-opacity: 1; white-space: pre; opacity: 1;" transform="translate(163.71,0)">48</text></g><g class="xtick"><text text-anchor="middle" x="0" y="239" style="font-family: 'Open Sans', verdana, arial, sans-serif; font-size: 8px; fill: rgb(0, 0, 0); fill-opacity: 1; white-space: pre; opacity: 1;" transform="translate(181.67,0)">54</text></g><g class="xtick"><text text-anchor="middle" x="0" y="239" style="font-family: 'Open Sans', verdana, arial, sans-serif; font-size: 8px; fill: rgb(0, 0, 0); fill-opacity: 1; white-space: pre; opacity: 1;" transform="translate(199.64,0)">60</text></g><g class="xtick"><text text-anchor="middle" x="0" y="239" style="font-family: 'Open Sans', verdana, arial, sans-serif; font-size: 8px; fill: rgb(0, 0, 0); fill-opacity: 1; white-space: pre; opacity: 1;" transform="translate(217.6,0)">66</text></g></g><g class="yaxislayer-above"><g class="ytick"><text text-anchor="end" x="19" y="2.8" transform="translate(0,190.07)" style="font-family: 'Open Sans', verdana, arial, sans-serif; font-size: 8px; fill: rgb(0, 0, 0); fill-opacity: 1; white-space: pre; opacity: 1;">0.1</text></g><g class="ytick"><text text-anchor="end" x="19" y="2.8" style="font-family: 'Open Sans', verdana, arial, sans-serif; font-size: 8px; fill: rgb(0, 0, 0); fill-opacity: 1; white-space: pre; opacity: 1;" transform="translate(0,139.75)">0.2</text></g><g class="ytick"><text text-anchor="end" x="19" y="2.8" style="font-family: 'Open Sans', verdana, arial, sans-serif; font-size: 8px; fill: rgb(0, 0, 0); fill-opacity: 1; white-space: pre; opacity: 1;" transform="translate(0,89.44)">0.3</text></g><g class="ytick"><text text-anchor="end" x="19" y="2.8" style="font-family: 'Open Sans', verdana, arial, sans-serif; font-size: 8px; fill: rgb(0, 0, 0); fill-opacity: 1; white-space: pre; opacity: 1;" transform="translate(0,39.120000000000005)">0.4</text></g></g><g class="overaxes-above"/></g></g><g class="polarlayer"/><g class="smithlayer"/><g class="ternarylayer"/><g class="geolayer"/><g class="funnelarealayer"/><g class="pielayer"/><g class="iciclelayer"/><g class="treemaplayer"/><g class="sunburstlayer"/><g class="glimages"/><defs id="topdefs-e185a4"><g class="clips"/><clipPath id="legende185a4"><rect width="69" height="105" x="0" y="0"/></clipPath></defs><g class="layer-above"><g class="imagelayer"/><g class="shapelayer"/></g><g class="infolayer"><g class="legend" pointer-events="all" transform="translate(231,20)"><rect class="bg" shape-rendering="crispEdges" style="stroke: rgb(68, 68, 68); stroke-opacity: 1; fill: rgb(255, 255, 255); fill-opacity: 1; stroke-width: 0px;" width="69" height="105" x="0" y="0"/><g class="scrollbox" transform="" clip-path="url(#legende185a4)"><g class="groups"><g class="traces" transform="translate(0,14.5)" style="opacity: 1;"><text class="legendtext" text-anchor="start" x="40" y="3.12" style="font-family: 'Open Sans', verdana, arial, sans-serif; font-size: 8px; fill: rgb(0, 0, 0); fill-opacity: 1; white-space: pre;">M0</text><g class="layers" style="opacity: 1;"><g class="legendfill"/><g class="legendlines"><path class="js-line" d="M5,0h30" style="fill: none; stroke: rgb(99, 110, 250); stroke-opacity: 1; stroke-width: 1.8px;"/></g><g class="legendsymbols"><g class="legendpoints"/></g></g><rect class="legendtoggle" x="0" y="-9.5" width="63.46875" height="19" style="fill: rgb(0, 0, 0); fill-opacity: 0;"/></g><g class="traces" transform="translate(0,33.5)" style="opacity: 1;"><text class="legendtext" text-anchor="start" x="40" y="3.12" style="font-family: 'Open Sans', verdana, arial, sans-serif; font-size: 8px; fill: rgb(0, 0, 0); fill-opacity: 1; white-space: pre;">M1</text><g class="layers" style="opacity: 1;"><g class="legendfill"/><g class="legendlines"><path class="js-line" d="M5,0h30" style="fill: none; stroke: rgb(239, 85, 59); stroke-opacity: 1; stroke-width: 1.8px;"/></g><g class="legendsymbols"><g class="legendpoints"/></g></g><rect class="legendtoggle" x="0" y="-9.5" width="63.46875" height="19" style="fill: rgb(0, 0, 0); fill-opacity: 0;"/></g><g class="traces" transform="translate(0,52.5)" style="opacity: 1;"><text class="legendtext" text-anchor="start" x="40" y="3.12" style="font-family: 'Open Sans', verdana, arial, sans-serif; font-size: 8px; fill: rgb(0, 0, 0); fill-opacity: 1; white-space: pre;">M2</text><g class="layers" style="opacity: 1;"><g class="legendfill"/><g class="legendlines"><path class="js-line" d="M5,0h30" style="fill: none; stroke: rgb(0, 204, 150); stroke-opacity: 1; stroke-width: 1.8px;"/></g><g class="legendsymbols"><g class="legendpoints"/></g></g><rect class="legendtoggle" x="0" y="-9.5" width="63.46875" height="19" style="fill: rgb(0, 0, 0); fill-opacity: 0;"/></g><g class="traces" transform="translate(0,71.5)" style="opacity: 1;"><text class="legendtext" text-anchor="start" x="40" y="3.12" style="font-family: 'Open Sans', verdana, arial, sans-serif; font-size: 8px; fill: rgb(0, 0, 0); fill-opacity: 1; white-space: pre;">M3</text><g class="layers" style="opacity: 1;"><g class="legendfill"/><g class="legendlines"><path class="js-line" d="M5,0h30" style="fill: none; stroke: rgb(171, 99, 250); stroke-opacity: 1; stroke-width: 1.8px;"/></g><g class="legendsymbols"><g class="legendpoints"/></g></g><rect class="legendtoggle" x="0" y="-9.5" width="63.46875" height="19" style="fill: rgb(0, 0, 0); fill-opacity: 0;"/></g><g class="traces" transform="translate(0,90.5)" style="opacity: 1;"><text class="legendtext" text-anchor="start" x="40" y="3.12" style="font-family: 'Open Sans', verdana, arial, sans-serif; font-size: 8px; fill: rgb(0, 0, 0); fill-opacity: 1; white-space: pre;">Model</text><g class="layers" style="opacity: 1;"><g class="legendfill"/><g class="legendlines"><path class="js-line" d="M5,0h30" style="fill: none; stroke: rgb(0, 0, 0); stroke-opacity: 1; stroke-dasharray: 3px, 3px; stroke-width: 1.8px;"/></g><g class="legendsymbols"><g class="legendpoints"/></g></g><rect class="legendtoggle" x="0" y="-9.5" width="63.46875" height="19" style="fill: rgb(0, 0, 0); fill-opacity: 0;"/></g></g></g><rect class="scrollbar" rx="20" ry="3" width="0" height="0" style="fill: rgb(128, 139, 164); fill-opacity: 1;" x="0" y="0"/></g><g class="g-gtitle"><text class="gtitle" x="15" y="10" text-anchor="start" dy="0em" style="opacity: 1; font-family: 'Open Sans', verdana, arial, sans-serif; font-size: 8px; fill: rgb(0, 0, 0); fill-opacity: 1; white-space: pre;"><tspan style="font-style:italic">O. anthropi</tspan></text></g><g class="g-xtitle" transform="translate(0,1.9000000000000057)"><text class="xtitle" x="123.5" y="246.1" text-anchor="middle" style="opacity: 1; font-family: 'Open Sans', verdana, arial, sans-serif; font-size: 8px; fill: rgb(0, 0, 0); fill-opacity: 1; white-space: pre;">Time [h]</text></g><g class="g-ytitle"/></g></svg>