<svg class="main-svg" xmlns="http://www.w3.org/2000/svg" xmlns:xlink="http://www.w3.org/1999/xlink" width="150" height="150" style="" viewBox="0 0 150 150"><rect x="0" y="0" width="150" height="150" style="fill: rgb(255, 255, 255); fill-opacity: 1;"/><defs id="defs-91b9e2"><g class="clips"><clipPath id="clip91b9e2xyplot" class="plotclip"><rect width="97" height="103"/></clipPath><clipPath class="axesclip" id="clip91b9e2x"><rect x="42" y="0" width="97" height="150"/></clipPath><clipPath class="axesclip" id="clip91b9e2y"><rect x="0" y="13" width="150" height="103"/></clipPath><clipPath class="axesclip" id="clip91b9e2xy"><rect x="42" y="13" width="97" height="103"/></clipPath></g><g class="gradients"/><g class="patterns"/></defs><g class="bglayer"/><g class="layer-below"><g class="imagelayer"/><g class="shapelayer"/></g><g class="cartesianlayer"><g class="subplot xy"><g class="layer-subplot"><g class="shapelayer"/><g class="imagelayer"/></g><g class="minor-gridlayer"><g class="x"/><g class="y"/></g><g class="gridlayer"><g class="x"><path class="xgrid crisp" transform="translate(70.06,0)" d="M0,13v103" style="stroke: rgb(128, 128, 128); stroke-opacity: 1; stroke-width: 0.2px;"/><path class="xgrid crisp" transform="translate(98.21000000000001,0)" d="M0,13v103" style="stroke: rgb(128, 128, 128); stroke-opacity: 1; stroke-width: 0.2px;"/><path class="xgrid crisp" transform="translate(126.37,0)" d="M0,13v103" style="stroke: rgb(128, 128, 128); stroke-opacity: 1; stroke-width: 0.2px;"/></g><g class="y"><path class="ygrid crisp" transform="translate(0,86.14)" d="M42,0h97" style="stroke: rgb(128, 128, 128); stroke-opacity: 1; stroke-width: 0.2px;"/><path class="ygrid crisp" transform="translate(0,51.86)" d="M42,0h97" style="stroke: rgb(128, 128, 128); stroke-opacity: 1; stroke-width: 0.2px;"/><path class="ygrid crisp" transform="translate(0,17.57)" d="M42,0h97" style="stroke: rgb(128, 128, 128); stroke-opacity: 1; stroke-width: 0.2px;"/></g></g><g class="zerolinelayer"/><g class="layer-between"><g class="shapelayer"/><g class="imagelayer"/></g><path class="xlines-below"/><path class="ylines-below"/><g class="overlines-below"/><g class="xaxislayer-below"/><g class="yaxislayer-below"/><g class="overaxes-below"/><g class="overplot"><g class="xy" transform="translate(42,13)" clip-path="url(#clip91b9e2xyplot)"><g class="scatterlayer mlayer"><g class="trace scatter trace353ddb" style="stroke-miterlimit: 2; opacity: 1;"><g class="fills"/><g class="errorbars"/><g class="lines"><path class="js-line" d="M0,88.37L0.05,97.85L0.7,78.56L0.73,78.42L1.03,78.56L1.74,75.74L1.93,76.61L1.95,76.91L2.91,74.61L2.94,74.43L3.29,75.55L3.73,72.94L3.83,73.59L3.85,73.8L4.11,72.85L4.18,74.36L4.2,75.28L4.23,75.44L4.3,72.07L4.32,71.5L4.86,79.27L5.05,75.54L5.07,74.48L5.9,68.84L5.97,69.97L5.99,69.92L6.25,74.93L6.69,63.63L6.86,65.1L6.88,65.46L7.52,73.98L8.1,73.11L8.13,72.97L8.38,72.15L8.69,74.09L8.9,73.59L8.93,73.46L9.77,78.46L9.93,78.09L9.96,78.05L10.05,78.11L10.38,72.47L10.4,71.85L10.45,70.78L10.85,73.62L10.97,72.5L10.99,72.61L11.77,58.43L12.14,62.77L12.17,63.17L12.21,64.12L12.85,61.88L12.87,61.91L12.89,61.65L13.2,59.23L13.72,60.5L13.74,60.3L13.81,60.07L14.33,61.47L14.49,60.37L14.52,60.11L14.56,59.92L14.75,62.56L14.77,62.43L14.8,62.8L15.53,47.37L15.6,49.44L15.62,45.66L15.67,33.8L15.95,59.48L16.28,58.34L16.3,60.32L16.35,69.23L16.68,21.96L17.03,58.99L17.05,58.04L17.24,36.78L17.38,50.83L17.4,53.14L17.99,57.22L18.16,54.43L18.18,54.07L18.77,49.69L19.02,61.85L19.07,61.14L19.1,60.52L19.38,53.44L19.89,57.12L19.92,57.17L20.06,57.42L20.29,53.98L20.53,56.2L20.55,55.48L20.97,58.01L21.23,50.18L21.37,53.55L21.4,54.5L21.47,56.31L21.77,45.5L21.84,46.35L21.87,46.33L21.91,46.79L22.15,41L22.38,41.48L22.41,37.95L22.52,16.43L22.76,48.71L23.09,47.04L23.11,46.26L23.18,43.74L23.72,52.18L23.75,53.45L23.82,52.87L24,59.02L24.03,60.3L24.47,66.4L24.83,64.84L24.85,64.94L25.08,62.45L25.11,60.78L25.37,49.87L25.95,52.76L25.98,52.85L26.26,49.6L26.42,51.94L26.45,52.92L26.52,58.14L27.08,36.84L27.1,36.35L27.15,35.26L27.48,44.33L27.5,46.07L27.57,49.37L27.86,21.98L27.88,19.22L28.33,5.15L28.51,31.81L28.54,34.42L28.89,44.32L29.29,36.27L29.31,36.15L29.5,36.28L30.96,30.27L31,31.75L31.03,34.32L31.24,51.63L31.36,31.36L31.38,25.2L31.47,10.15L31.66,32.97L32.11,30.61L32.13,30.8L32.2,31.02L32.67,29.2L32.79,29.96L32.81,29.64L33.21,28.16L33.4,29.74L33.42,29.95L33.87,29.17L34.1,33.74L34.24,32.79L34.27,32.58L34.53,33L34.81,30.18L35,32.94L35.02,33.46L35.54,41.19L35.79,34.95L35.82,35.21L36.1,37.11L36.48,30.06L36.69,32.58L36.71,33.04L36.9,37.21L37.46,33.27L37.49,32.11L38.12,39.45L38.4,35.99L38.42,35.94L39.25,39.97L39.27,39.85L39.29,40.06L39.79,40.48L40.02,36.08L40.16,37.19L40.19,37.16L40.33,37.89L40.56,35.27L40.89,36.18L40.91,36.94L40.94,36.76L41.13,39.16L41.31,38.77L41.34,39.19L41.55,40.55L41.69,38.73L41.74,38.78L41.76,37.99L42.07,36.12L42.46,39.55L42.49,38.97L43,41.5L43.22,39.41L43.24,39.27L43.62,37.64L43.92,39.5L43.97,39.12L43.99,39.31L44.04,38.48L44.39,40.76L44.67,40.55L44.7,40.45L44.88,39.44L45.28,41.5L45.38,40.87L45.4,41.12L46.08,42.89L46.22,42.24L46.25,42.17L47.44,46.2L47.47,45.77L47.68,44.51L48.24,48.02L48.41,47.26L48.43,46.69L48.48,46.26L49.02,48.43L49.06,47.81L49.09,48.19L49.98,50.92L50.19,49.86L50.21,49.47L51.65,55.15L51.72,54.27L51.74,54.02L52.09,53.12L53.22,57.66L53.31,57.41L53.34,57.02L53.97,72.94L54.44,70.16L54.47,69.81L54.89,72.43L55.03,71.11L55.05,70.7L55.1,70.26L55.29,71.86L55.57,71.83L55.59,72.08L55.78,72.47L55.97,71.23L55.99,70.75L56.02,70.35L56.53,73.52L56.56,73.58L56.63,73.38L56.98,74.38L57,74.82L57.47,76.64L57.64,74.66L57.66,73.8L57.71,73.49L57.92,76.83L58.39,74.08L58.41,74.05L58.67,74.81L58.98,73.46L59,73.11L59.4,67.1L59.89,69.27L59.91,69.38L60.97,84.2L61.18,80.19L61.21,79.76L61.23,79.42L61.49,84.19L61.72,83.69L61.75,83.76L62.05,90.58L62.55,86.45L62.57,85.62L63.2,64.58L63.48,72.2L63.51,72.38L63.58,72.45L64.05,68.27L64.21,70.47L64.24,70.68L64.52,71.99L64.94,70.48L64.96,70.2L66.21,78.79L66.23,78.59L66.56,79.76L66.8,77.84L67.01,78.48L67.03,78.66L67.31,74.2L67.45,79.6L67.48,79.98L67.88,83.6L68.23,80.78L68.25,80.2L68.46,76.57L68.63,80.44L68.65,81.07L68.93,83.95L69.17,80.29L69.19,80.35L69.38,82.41L69.4,82.84L69.45,83.29L69.69,78.68L69.71,78.93L69.73,78.65L69.78,77.51L70.18,81.58L70.39,79.86L70.41,79.98L70.88,86.79L71.21,83.29L71.24,82.82L71.42,78.85L71.92,80.61L71.94,80.94L72.81,84.97L72.83,84.83L72.86,84.32L73.26,80.91L73.63,85.77L73.65,85.22L73.68,85.17L73.91,86.29L74.27,82.19L74.29,81.28L74.41,82.67L74.62,79.98L74.85,80.78L74.88,79.64L74.95,78.23L75.18,82.6L75.49,79.28L75.51,80.72L75.84,84.94L76.38,84.91L76.4,84.34L76.8,85.06L77.13,79.71L77.27,81.62L77.3,81.8L77.44,84.04L77.98,79.66L78,79.84L78.02,79.58L78.14,78.63L78.33,83.29L78.35,83.89L78.38,84.84L78.94,79.3L78.96,78.99L79.48,77.89L79.93,86.46L80.09,83.87L80.11,83.08L80.56,85.01L80.77,80.16L80.79,79.97L81.1,78.9L81.41,83.98L81.62,82.64L81.64,83.05L81.83,87.33L82.42,85.49L82.44,85.44L82.77,85.96L83.33,72.97L83.54,73.38L83.57,76.49L83.68,76.2L83.8,77.53L83.82,77.74L84.72,80.47L84.74,80.41L85.49,82.66L85.59,81.72L85.61,81.83L86.55,91.6L86.57,91.3L86.67,92.41L87.18,89.75L87.23,89.96L87.25,89.91L87.65,92.18L87.93,89.54L87.96,89.44L88.22,90.61L88.78,85.89L88.9,86.69L88.92,86.68L90.24,79.41L90.26,80.73L90.75,81.45L91.1,78.07L91.13,78.25L91.67,81.35L91.93,79.46L91.95,79.19L92.23,77.68L92.58,81L92.61,81.02L93.1,80.24L93.12,80.09L93.36,79.33L93.83,80.23L93.85,80.39L94.04,81.27L94.28,79.95L94.7,80.94L94.72,80.85L95.22,79.22L95.64,80.01L95.66,80.03L96.3,79.26L96.48,79.83L96.51,79.94L97,82.44" style="vector-effect: none; fill: none; stroke: rgb(217, 95, 2); stroke-opacity: 1; stroke-width: 1.5px; opacity: 1;"/></g><g class="points"/><g class="text"/></g></g></g></g><g class="zerolinelayer-above"/><path class="xlines-above crisp" d="M41.5,116.25H139.5M41.5,12.75H139.5" style="fill: none; stroke-width: 0.5px; stroke: rgb(0, 0, 0); stroke-opacity: 1;"/><path class="ylines-above crisp" d="M41.75,13V116M139.25,13V116" style="fill: none; stroke-width: 0.5px; stroke: rgb(0, 0, 0); stroke-opacity: 1;"/><g class="overlines-above"/><g class="xaxislayer-above"><path class="xtick ticks crisp" d="M0,116v-5" transform="translate(70.06,0)" style="stroke: rgb(0, 0, 0); stroke-opacity: 1; stroke-width: 0.5px;"/><path class="xtick ticks crisp" d="M0,116v-5" transform="translate(98.21000000000001,0)" style="stroke: rgb(0, 0, 0); stroke-opacity: 1; stroke-width: 0.5px;"/><path class="xtick ticks crisp" d="M0,116v-5" transform="translate(126.37,0)" style="stroke: rgb(0, 0, 0); stroke-opacity: 1; stroke-width: 0.5px;"/><g class="xtick"><text text-anchor="middle" x="0" y="129.7" transform="translate(70.06,0)" style="font-family: 'Open Sans', verdana, arial, sans-serif; font-size: 11px; fill: rgb(0, 0, 0); fill-opacity: 1; white-space: pre;">20</text></g><g class="xtick"><text text-anchor="middle" x="0" y="129.7" style="font-family: 'Open Sans', verdana, arial, sans-serif; font-size: 11px; fill: rgb(0, 0, 0); fill-opacity: 1; white-space: pre;" transform="translate(98.21000000000001,0)">40</text></g><g class="xtick"><text text-anchor="middle" x="0" y="129.7" style="font-family: 'Open Sans', verdana, arial, sans-serif; font-size: 11px; fill: rgb(0, 0, 0); fill-opacity: 1; white-space: pre;" transform="translate(126.37,0)">60</text></g></g><g class="yaxislayer-above"><path class="ytick ticks crisp" d="M42,0h5" transform="translate(0,86.14)" style="stroke: rgb(0, 0, 0); stroke-opacity: 1; stroke-width: 0.5px;"/><path class="ytick ticks crisp" d="M42,0h5" transform="translate(0,51.86)" style="stroke: rgb(0, 0, 0); stroke-opacity: 1; stroke-width: 0.5px;"/><path class="ytick ticks crisp" d="M42,0h5" transform="translate(0,17.57)" style="stroke: rgb(0, 0, 0); stroke-opacity: 1; stroke-width: 0.5px;"/><g class="ytick"><text text-anchor="end" x="39.3" y="3.8499999999999996" transform="translate(0,86.14)" style="font-family: 'Open Sans', verdana, arial, sans-serif; font-size: 11px; fill: rgb(0, 0, 0); fill-opacity: 1; white-space: pre;">0.1</text></g><g class="ytick"><text text-anchor="end" x="39.3" y="3.8499999999999996" style="font-family: 'Open Sans', verdana, arial, sans-serif; font-size: 11px; fill: rgb(0, 0, 0); fill-opacity: 1; white-space: pre;" transform="translate(0,51.86)">0.15</text></g><g class="ytick"><text text-anchor="end" x="39.3" y="3.8499999999999996" style="font-family: 'Open Sans', verdana, arial, sans-serif; font-size: 11px; fill: rgb(0, 0, 0); fill-opacity: 1; white-space: pre;" transform="translate(0,17.57)">0.2</text></g></g><g class="overaxes-above"/></g></g><g class="polarlayer"/><g class="smithlayer"/><g class="ternarylayer"/><g class="geolayer"/><g class="funnelarealayer"/><g class="pielayer"/><g class="iciclelayer"/><g class="treemaplayer"/><g class="sunburstlayer"/><g class="glimages"/><defs id="topdefs-91b9e2"><g class="clips"/></defs><g class="layer-above"><g class="imagelayer"/><g class="shapelayer"/></g><g class="infolayer"><g class="g-gtitle"><text class="gtitle" x="7.5" y="6.5" text-anchor="start" dy="0em" style="opacity: 1; font-family: 'Open Sans', verdana, arial, sans-serif; font-size: 11px; fill: rgb(0, 0, 0); fill-opacity: 1; white-space: pre;">Oa in chemostat without thiamine</text></g><g class="g-xtitle" transform="translate(0,4.550000000000011)"><text class="xtitle" x="90.5" y="140.1501953125" text-anchor="middle" style="opacity: 1; font-family: 'Open Sans', verdana, arial, sans-serif; font-size: 11px; fill: rgb(0, 0, 0); fill-opacity: 1; white-space: pre;">Time [h]</text></g><g class="g-ytitle"><text class="ytitle" transform="rotate(-90,13.902929687499999,64.5)" x="13.902929687499999" y="64.5" text-anchor="middle" style="opacity: 1; font-family: 'Open Sans', verdana, arial, sans-serif; font-size: 11px; fill: rgb(0, 0, 0); fill-opacity: 1; white-space: pre;">OD600</text></g></g></svg>