<svg class="main-svg" xmlns="http://www.w3.org/2000/svg" xmlns:xlink="http://www.w3.org/1999/xlink" width="150" height="150" style="" viewBox="0 0 150 150"><rect x="0" y="0" width="150" height="150" style="fill: rgb(255, 255, 255); fill-opacity: 1;"/><defs id="defs-c6564d"><g class="clips"><clipPath id="clipc6564dxyplot" class="plotclip"><rect width="113" height="99"/></clipPath><clipPath class="axesclip" id="clipc6564dx"><rect x="27" y="0" width="113" height="150"/></clipPath><clipPath class="axesclip" id="clipc6564dy"><rect x="0" y="18" width="150" height="99"/></clipPath><clipPath class="axesclip" id="clipc6564dxy"><rect x="27" y="18" width="113" height="99"/></clipPath></g><g class="gradients"/><g class="patterns"/></defs><g class="bglayer"/><g class="layer-below"><g class="imagelayer"/><g class="shapelayer"/></g><g class="cartesianlayer"><g class="subplot xy"><g class="layer-subplot"><g class="shapelayer"/><g class="imagelayer"/></g><g class="minor-gridlayer"><g class="x"/><g class="y"/></g><g class="gridlayer"><g class="x"><path class="xgrid crisp" transform="translate(45.97,0)" d="M0,18v99" style="stroke: rgb(0, 0, 0); stroke-opacity: 1; stroke-width: 0.5px;"/><path class="xgrid crisp" transform="translate(64.93,0)" d="M0,18v99" style="stroke: rgb(0, 0, 0); stroke-opacity: 1; stroke-width: 0.5px;"/><path class="xgrid crisp" transform="translate(83.9,0)" d="M0,18v99" style="stroke: rgb(0, 0, 0); stroke-opacity: 1; stroke-width: 0.5px;"/><path class="xgrid crisp" transform="translate(102.87,0)" d="M0,18v99" style="stroke: rgb(0, 0, 0); stroke-opacity: 1; stroke-width: 0.5px;"/><path class="xgrid crisp" transform="translate(121.84,0)" d="M0,18v99" style="stroke: rgb(0, 0, 0); stroke-opacity: 1; stroke-width: 0.5px;"/></g><g class="y"><path class="ygrid crisp" transform="translate(0,97.2)" d="M27,0h113" style="stroke: rgb(0, 0, 0); stroke-opacity: 1; stroke-width: 0.5px;"/><path class="ygrid crisp" transform="translate(0,77.4)" d="M27,0h113" style="stroke: rgb(0, 0, 0); stroke-opacity: 1; stroke-width: 0.5px;"/><path class="ygrid crisp" transform="translate(0,57.6)" d="M27,0h113" style="stroke: rgb(0, 0, 0); stroke-opacity: 1; stroke-width: 0.5px;"/><path class="ygrid crisp" transform="translate(0,37.8)" d="M27,0h113" style="stroke: rgb(0, 0, 0); stroke-opacity: 1; stroke-width: 0.5px;"/></g></g><g class="zerolinelayer"><path class="xzl zl crisp" transform="translate(27,0)" d="M0,18v99" style="stroke: rgb(0, 0, 0); stroke-opacity: 1; stroke-width: 0.5px;"/><path class="yzl zl crisp" transform="translate(0,117)" d="M27,0h113" style="stroke: rgb(0, 0, 0); stroke-opacity: 1; stroke-width: 0.5px;"/></g><g class="layer-between"><g class="shapelayer"/><g class="imagelayer"/></g><path class="xlines-below"/><path class="ylines-below"/><g class="overlines-below"/><g class="xaxislayer-below"/><g class="yaxislayer-below"/><g class="overaxes-below"/><g class="overplot"><g class="xy" transform="translate(27,18)" clip-path="url(#clipc6564dxyplot)"><g class="scatterlayer mlayer"><g class="trace scatter trace90f6ee" style="stroke-miterlimit: 2; opacity: 1;"><g class="fills"/><g class="errorbars"/><g class="lines"><path class="js-line" d="M0.11,86.17L0.21,90.33L0.66,83.69L0.84,84.7L0.87,84.77L1,85.13L1.24,82.71L1.27,82.38L2.19,79.84L2.22,79.68L2.82,78.53L3.06,79.16L3.09,79.2L3.61,78.09L3.82,79.22L3.85,79.23L3.96,79.4L4.27,78.05L4.56,79.05L4.59,79.01L4.8,79.14L5.22,77.08L5.25,76.7L5.33,76.02L5.59,78.55L5.85,78.28L5.88,78.49L5.96,78.92L6.46,77.84L6.49,77.7L6.78,78.28L7.12,77.56L7.15,77.41L7.49,76.81L7.91,77.46L7.94,77.44L8.31,77.46L8.47,76.96L8.49,76.78L8.81,75.64L9.1,77.02L9.2,76.83L9.23,76.85L10.07,75.73L10.15,75.94L10.18,76.19L10.68,75.78L10.84,76.43L10.87,76.44L10.89,76.61L10.94,76.78L11.18,75.61L11.42,75.78L11.45,75.66L11.84,76.13L12.29,74.65L12.32,74.66L12.34,74.83L12.55,75.63L12.84,74.3L12.87,74.35L12.9,74.32L13.63,73.82L13.66,73.61L13.85,73.24L14.06,73.93L14.35,73.84L14.37,73.9L14.66,73.21L15.16,73.67L15.19,73.76L16.64,73.43L16.67,73.37L17.04,73.36L17.06,73.21L17.09,72.96L17.3,72.48L17.75,73.31L17.77,73.45L18.67,71.28L19.09,71.97L19.12,72.02L19.54,71.75L19.73,72.5L19.75,72.45L19.78,72.4L20.89,70.74L20.99,70.92L21.02,71.03L21.2,71.21L21.49,70.48L21.52,70.46L21.86,69.94L22.23,70.37L22.26,70.33L22.28,70.28L22.49,69.33L22.76,70.49L23.18,69.56L23.21,69.56L23.42,70.41L23.76,68.06L23.95,69.51L23.97,69.72L24.02,70.03L24.45,68.23L24.47,68.14L24.53,68.43L25.13,67.57L25.16,67.48L25.42,67.22L25.69,67.89L25.79,67.9L25.82,68.07L26.08,67.12L26.24,68.31L26.27,68.51L26.45,69.7L26.87,67.42L26.9,67.39L27,66.82L27.22,68.5L27.48,68.48L27.51,68.72L27.69,70.13L28.19,68.01L28.22,67.79L29.11,66.01L29.14,66.16L29.17,66.35L29.48,65.55L29.75,66.41L29.77,66.22L29.8,65.68L30.64,63.7L30.67,63.72L30.7,63.77L31.33,64.15L31.54,63.68L31.57,63.6L32.52,63.2L32.54,63.22L32.57,63.35L35.13,61.84L35.15,61.87L35.18,62.03L35.57,61.51L35.81,62.02L35.84,62.16L38.42,61.79L38.45,61.9L38.82,61.35L39.03,62.2L39.06,62.5L39.37,64.46L39.77,62.32L39.79,62.12L40.03,59.57L40.66,60.55L40.69,60.7L41.03,61.74L41.19,60.87L41.22,60.59L42.09,58.87L42.12,58.9L44.15,54.26L44.17,54.04L44.22,53.51L44.81,55.04L44.83,55.33L45.17,57.3L45.54,55.62L45.57,55.43L46.26,54.09L46.39,54.74L46.41,55.03L46.94,54.71L47.2,56.44L47.31,56.15L47.34,56.03L48.13,53.3L48.34,54.03L48.37,54.24L48.5,55.14L48.92,52.67L48.95,52.31L49.53,51.1L49.76,51.24L49.79,51.14L49.92,51.55L50.18,50.81L50.26,50.95L50.29,50.66L50.58,51.24L51.11,49.93L51.45,50.42L51.48,50.69L52.29,49.29L52.4,49.53L52.43,49.53L52.51,49.94L53.01,48.71L53.03,48.55L53.96,47.7L53.98,47.71L54.01,47.76L56.01,45.31L56.07,45.41L56.09,45.58L56.22,45.84L56.83,44.31L56.96,44.82L56.99,45.01L57.07,45.54L57.62,44.3L57.65,44.24L58.54,42.66L58.76,42.96L58.78,43.18L60.26,40.81L60.29,40.9L60.63,42.55L60.97,41.32L61,41.31L61.81,41.49L61.92,41.24L61.95,41.09L62.32,41.56L62.76,38.88L62.84,39.17L62.87,39.28L63.27,41.44L63.74,40.84L63.77,40.62L64,37.59L64.58,39.37L64.61,39.65L64.77,40.37L65.22,38.99L65.27,39.13L65.3,39.15L65.61,39.55L65.88,38.79L65.93,38.8L65.95,38.68L66.27,36.86L66.9,37.06L66.93,37.09L67.54,37.58L67.59,37.21L67.62,37.06L68.46,35.62L68.49,35.47L69.75,33.61L69.78,33.7L69.81,33.7L70.25,32.85L70.36,33.46L70.39,33.7L70.52,34.32L70.78,31.97L70.89,31.96L70.91,31.8L71.44,28.21L71.47,27.92L71.65,26.77L72.23,27.54L72.26,27.49L72.89,26.56L73.05,27.18L73.08,27.35L73.47,28.83L73.92,27.93L73.95,27.91L75.18,23.42L75.47,23.96L75.5,23.98L76.77,24.27L76.79,24.26L77.72,23.23L77.74,23.24L77.77,23.94L78.06,30.45L78.72,29.74L78.75,29.78L79.17,29.81L79.43,29.4L79.46,29.37L82.36,32.76L82.38,32.9L82.62,33.23L83.04,32.6L83.07,32.48L85.34,30.36L85.47,30.64L85.5,30.8L86.34,31.52L86.37,31.45L88.32,33.91L88.34,33.99L89.58,33.83L89.61,33.96L89.85,34.06L90.06,33.43L90.08,33.36L91.77,32.39L91.93,32.84L91.96,32.86L92.12,33.14L92.54,32.42L92.56,32.3L92.96,32.41L93.49,31.31L93.51,31.36L95.75,31.58L95.78,31.62L96.62,30.51L96.89,31.03L96.91,31.03L99.97,30.38L100,30.42L101.71,30.19L101.74,30.05L102.06,29.31L102.4,30.3L102.43,30.34L102.9,29.69L103.06,30.82L103.09,31.58L103.67,35.05L103.9,33.14L103.93,32.7L104.25,30.05L104.27,29.87L105.35,32.12L105.46,31.81L105.49,31.69L106.2,33.59L106.41,33.19L106.43,33.14L106.75,33.62L106.94,32.93L106.96,32.32L107.96,30.9L107.99,30.81L108.04,31.46L108.31,30.36L108.73,31.14L108.76,30.89L108.97,29.13L109.05,29.34" style="vector-effect: none; fill: none; stroke: rgb(217, 95, 2); stroke-opacity: 1; stroke-width: 1px; opacity: 1;"/></g><g class="points"/><g class="text"/></g><g class="trace scatter trace742c34" style="stroke-miterlimit: 2; opacity: 1;"><g class="fills"/><g class="errorbars"/><g class="lines"><path class="js-line" d="M0.11,86.31L0.13,90.78L0.66,83.14L0.84,85.83L0.87,85.63L2.16,79.17L2.19,79.24L2.22,79.15L3.27,77.1L3.45,77.67L3.48,77.74L3.8,77.52L4.06,77.75L4.17,77.48L4.19,77.37L4.46,76.38L5.06,76.75L5.09,76.74L5.49,76.23L5.51,76.07L5.54,75.86L6.14,74.9L6.3,75.23L6.33,75.38L6.46,75.5L6.8,74.85L6.86,74.83L6.88,74.67L7.04,74.88L7.28,73.87L7.3,73.54L7.57,72.04L7.89,73.81L7.99,73.72L8.02,73.97L9.12,72.48L9.15,72.7L9.18,72.85L10.52,70.89L10.55,71.07L10.58,71.13L11.29,71.66L11.45,71.4L11.47,71.22L11.6,70.75L11.89,72.13L12.21,71.21L12.24,71.24L13.05,70.87L13.26,71.14L13.29,71.24L13.87,69.95L14.21,70.29L14.24,70.4L14.43,70.65L14.66,69.63L14.69,69.5L14.87,69.91L15.19,69.14L15.45,69.55L15.48,69.6L17.12,67.32L17.19,67.46L17.22,67.62L17.54,68.5L18.09,68.17L18.12,68.01L18.96,67.08L18.99,67.25L19.96,67.81L19.99,67.71L20.02,67.6L20.25,66.75L20.86,66.94L20.89,67.09L20.99,67.26L21.31,66.83L21.55,66.78L21.57,66.67L21.94,65.19L22.34,66.53L22.36,66.67L22.44,67.01L22.89,65.52L22.92,65.48L23.08,65.7L23.42,64.65L23.58,65.1L23.6,64.99L23.84,64.27L24.16,65.07L24.18,65.17L24.31,65.64L24.76,64.31L24.79,64.14L25.03,64.29L25.32,63.79L25.63,64.12L25.66,64.2L26.13,62.63L26.53,63.5L26.56,63.43L26.98,63.89L27.48,63.06L27.51,63.09L28.59,64.37L28.61,64.16L28.69,64.34L29.09,63.49L29.11,63.37L29.22,62.97L29.51,64.35L29.85,63.43L29.88,63.47L31.04,59.07L31.14,59.53L31.17,59.47L31.41,58.17L31.72,59.58L31.75,59.71L32.31,59.21L32.57,60.4L32.6,60.4L32.83,60.03L33.1,60.95L33.36,60.37L33.39,60.28L33.65,59.25L34.15,60.23L34.18,60.34L36.29,56.31L36.42,56.56L36.45,56.56L37.97,53.17L38.32,53.68L38.34,53.72L38.37,53.9L38.63,52.55L38.95,53.01L38.98,52.99L39.37,52.21L39.45,53.14L39.48,53.65L39.64,55.6L40.24,53.91L40.27,53.73L40.59,54.01L41.24,50.44L41.38,50.91L41.4,51.67L41.72,52.09L41.98,49.66L42.17,51.07L42.19,51.51L42.33,52.86L43.01,52.76L43.04,52.83L43.83,51.27L44.01,51.69L44.04,51.91L44.25,52.53L44.59,50.89L44.62,50.66L44.91,49.62L45.46,50.15L45.49,50.28L45.68,50.88L45.94,49.78L46.1,49.96L46.12,49.92L46.7,48.7L46.73,48.52L47.07,48.88L47.63,47.5L47.73,47.88L47.76,47.95L48.02,48.85L48.26,47.04L48.29,46.9L48.68,48.56L48.97,47.53L49,47.5L49.42,46.04L49.92,46.62L49.95,46.61L51.11,44.52L51.29,45.02L51.32,45.07L51.64,44.68L51.82,45.22L51.85,45.47L53.64,41.45L53.72,41.79L53.74,41.99L54.69,43.03L54.75,42.94L54.77,42.86L56.28,39.64L56.38,40.02L56.41,40.23L56.65,40.78L57.04,39.28L57.07,39.16L57.57,38.71L57.6,38.58L57.75,38.32L58.1,39.39L58.28,38.94L58.31,38.88L58.83,36.64L58.86,36.53L59.44,32.65L59.86,34.25L59.89,34.29L60.71,35.22L60.76,35.19L60.79,35.05L61.02,34.23L61.31,35.57L61.47,35.29L61.5,35.26L62.53,33.82L62.58,33.84L62.61,33.88L63.55,30.32L63.87,31.31L63.9,31.39L64.19,31.36L64.35,30.87L64.37,30.75L65.03,30.93L65.11,31.07L65.14,31.13L65.4,29.81L65.43,29.43L65.72,27.67L66.19,29.2L66.22,29.02L66.46,28.66L66.98,29.02L67.01,29.11L67.17,29.2L67.35,28.53L67.38,28.42L68.04,26.67L68.06,26.36L68.88,25.24L68.93,25.41L68.96,25.4L70.07,25.41L70.09,25.56L70.46,24.26L70.49,23.96L70.68,23.34L71.02,24.94L71.18,24.52L71.2,24.48L71.81,23.57L71.84,23.45L72.73,22.25L72.76,22.26L73.02,21.43L73.42,22.55L73.44,22.63L73.79,22.6L74,23.04L74.02,23.15L74.53,22.43L74.55,22.26L75.16,20.26L75.55,20.77L75.58,20.71L76.03,21.41L76.29,20.68L76.32,20.68L77.27,20.11L77.29,19.97L77.74,19.28L77.9,20.38L77.93,20.55L78.51,22.46L78.82,21.81L78.85,21.87L78.98,22.02L79.19,21.27L79.22,21.14L79.88,19.66L79.91,19.42L80.04,18.57L80.51,21.37L80.54,21.47L81.04,20.45L81.28,21.24L81.3,21.34L81.96,21.11L81.99,20.83L82.94,17.67L82.99,17.75L83.02,17.94L83.7,20.37L83.89,19.02L83.91,18.72L84.31,16.41L84.44,19.98L84.47,20.74L85.29,24.66L85.31,24.62L85.34,24.67L85.97,22.74L86.13,23.83L86.16,23.94L86.31,24.37L86.81,23.23L86.84,23.19L86.97,22.85L87.26,23.62L87.5,23.6L87.53,23.6L87.61,23.9L87.9,23.1L88.24,23.48L88.27,23.31L88.63,23.78L88.98,23.16L89.11,23.3L89.14,23.34L89.58,24.37L89.82,23.71L89.85,23.67L90.08,23.25L90.3,24.24L90.32,24.43L90.43,24.84L90.82,23.17L90.85,23.04L91.25,22.73L91.4,23.76L91.43,24.01L91.72,25.95L92.12,23.63L92.14,23.53L92.62,24.99L92.88,24.14L92.91,24.06L93.25,22.59L93.49,24.4L93.51,24.7L93.75,25.15L94.07,24.16L94.22,24.46L94.25,24.47L94.81,24.48L94.86,24.24L94.88,24.11L95.12,23.36L95.52,24.52L95.54,24.65L95.86,26.09L96.41,25.37L96.44,25.37L97.28,27.33L97.31,27.67L97.6,29.43L97.92,26.94L97.97,27.15L98,27.15L98.37,25.84L98.39,25.75L99.5,22.95L99.63,23.8L99.66,24.08L100.11,25.5L100.5,25.26L100.53,25.3L101.06,21.17L101.32,22.7L101.35,22.89L101.79,25.64L102.27,24.55L102.29,24.47L103.35,20.33L103.56,20.7L103.59,20.87L104.25,23.25L104.46,22.09L104.48,21.97L105.22,20.59L105.25,20.45L105.41,20.17L105.72,20.94L105.75,20.99L106.88,20.52L106.91,20.68L107.04,19.57L107.33,21.33L107.6,20.67L107.62,20.64L107.96,20.11L108.15,21.12L108.18,21.24L108.97,24.79L109.05,24.77" style="vector-effect: none; fill: none; stroke: rgb(217, 95, 2); stroke-opacity: 1; stroke-width: 1px; opacity: 1;"/></g><g class="points"/><g class="text"/></g><g class="trace scatter trace21081a" style="stroke-miterlimit: 2; opacity: 1;"><g class="fills"/><g class="errorbars"/><g class="lines"><path class="js-line" d="M0.11,84.85L0.13,89.51L0.84,83.57L0.87,83.25L2.29,77.12L2.35,77.28L2.37,77.43L2.64,76.52L3.16,76.79L3.19,76.84L3.56,77.38L3.85,76.62L3.88,76.54L3.93,76.86L4.54,76.19L4.61,76.37L4.64,76.35L5.49,74.59L5.54,74.85L5.56,74.99L5.78,75.7L6.22,74.91L6.25,74.71L6.62,73.86L6.96,74.64L6.99,74.67L7.01,74.86L7.28,73.9L7.65,74.01L7.67,73.94L7.86,74.37L8.12,73.64L8.41,73.92L8.44,73.66L8.52,73.91L8.7,73.29L9.12,73.36L9.15,73.24L10.23,71.92L10.36,72.12L10.39,72.32L10.44,72.39L11.31,71.07L11.34,71.06L11.84,70.35L12.13,71L12.16,71L12.24,71.25L12.53,69.82L12.55,69.54L12.68,69.73L14.06,68.38L14.11,68.59L14.13,68.62L15.01,67.14L15.22,67.63L15.24,67.72L15.88,66.63L16.06,66.94L16.09,67.2L16.9,66.05L16.96,66.13L16.98,66.21L17.19,66.71L17.67,65.93L17.7,65.88L17.85,65.11L18.49,65.19L18.51,65.27L18.88,65.78L20.15,63.06L20.17,63.08L20.2,62.96L20.99,63.82L21.1,63.52L21.12,63.46L21.84,61.44L22.05,62.13L22.07,62.42L22.13,62.72L22.47,61.34L22.68,61.38L22.71,61.52L23.21,62.06L23.79,60.68L23.84,60.79L23.87,60.89L23.89,61.08L24.16,59.73L24.58,60.49L24.6,60.47L25.42,58.82L25.53,59.06L25.55,59.2L25.69,59.8L26.16,58.67L26.19,58.74L26.21,58.53L26.4,58.59L27.22,56.54L27.29,56.74L27.32,56.92L28.74,53.78L28.77,53.87L28.8,53.83L30.83,50.89L30.85,50.77L31.86,51.78L31.99,51.44L32.01,51.38L32.91,49.6L33.02,49.93L33.04,49.97L33.2,50.29L33.54,49.34L33.57,49.25L33.7,49.38L34.34,48.01L34.49,48.28L34.52,48.22L34.63,48.66L35.15,47.75L35.18,47.78L35.5,47.68L35.63,47.26L35.65,47.17L36.55,45.31L36.58,45.32L36.6,45.35L37.61,43.87L37.71,44.14L37.74,44.12L38.63,42.8L38.66,42.74L39.87,40.38L39.9,40.4L40.32,41.62L40.35,41.76L40.8,42.29L41.03,41.25L41.06,41.04L41.77,38.7L42.14,39.83L42.17,39.95L42.25,40.36L42.67,39.05L42.8,39.17L42.83,39.1L44.09,35.18L44.12,34.61L44.3,33.97L44.7,35.06L44.8,35.07L44.83,35.04L45.33,34.47L45.41,35.08L45.44,35.38L45.52,36.13L45.96,35.17L46.2,35.63L46.23,35.6L46.81,31.82L47.23,33.18L47.26,33.38L48,31.47L48.02,31.26L48.58,29L48.6,28.71L48.71,27.94L49.23,29.54L49.26,29.61L49.34,29.83L49.6,29.11L49.92,29.15L49.95,29.1L50.69,26.39L50.71,26.18L51.58,24.07L51.77,24.18L51.79,24.16L52.58,21.17L52.9,22.04L52.93,22.11L53.24,22.68L53.61,21.88L53.64,21.77L53.69,21.61L54.06,22.65L54.27,22.25L54.3,22.27L55.46,18.61L55.48,18.46L58.41,10.36L58.57,11.36L58.6,11.58L59.68,16.23L59.7,16.25L60.92,17.1L61.05,16.58L61.08,16.46L61.79,14.05L61.97,14.31L62,14.34L62.37,14.21L62.92,16.28L62.95,16.34L63.42,17.11L63.48,16.72L63.5,16.41L64.42,15.27L64.5,15.51L64.53,15.54L64.69,15.62L64.93,15L64.95,14.91L65.9,14.42L65.93,13.68L66.01,13.46L66.19,14.29L66.56,14.03L66.59,14.15L66.82,14.78L67.22,13.97L67.25,13.79L67.64,13.58L67.8,13.96L67.96,13.91L67.98,14.02L69.36,13L69.38,12.96L70.57,11.45L70.6,11.55L71.47,16.15L71.6,13.93L71.62,13.41L71.81,10.98L72.1,13.42L72.13,13.99L72.63,13.31L72.94,16.68L72.97,16.54L73.36,17.26L73.63,16.48L73.68,16.77L73.71,16.9L74.31,14.91L74.34,14.76L74.45,14.55L74.63,15.61L74.71,15.63L74.74,15.62L75.16,16.07L75.37,15.48L75.4,15.39L75.92,16.15L76.27,13.73L76.29,13.97L76.58,17.59L77.08,15.08L77.11,15.02L77.69,18.46L77.98,16.38L78.01,16.18L78.22,15.38L78.61,17.3L78.64,17.48L78.98,15.97L79.43,20.08L79.61,18.84L79.64,18.62L80.17,15.87L80.48,17.26L80.51,17.31L80.75,17.64L81.12,16.07L81.14,15.98L82.12,15.5L82.23,15.92L82.25,16.18L82.73,19.64L83.36,19.15L83.39,19.1L85.42,16.64L85.63,16.96L85.65,17.05L85.86,17.56L86.13,16.51L86.15,16.45L86.63,16.9L86.66,17.42L87.68,20.37L87.71,20.24L87.74,20.17L88.74,20.21L88.79,19.84L88.82,19.8L89.27,18.47L89.64,19.38L89.66,19.54L90.11,20.57L90.48,20.14L90.51,20.11L90.61,19.62L91.06,21L91.09,21.06L91.32,21.29L91.75,20.8L91.82,20.94L91.85,20.87L93.38,21.59L93.43,21.28L93.46,21.13L94.54,17.62L94.57,17.67L94.59,17.67L94.65,17.95L95.04,16.12L95.17,16.38L95.2,16.41L96.2,18L96.25,17.9L96.28,17.84L96.41,18.22L96.91,17.24L96.94,16.95L97.18,16L97.55,17.9L97.6,17.73L97.63,17.67L98.65,18.42L98.68,18.35L99.66,16.29L99.74,16.48L99.76,16.61L100.37,16.85L100.39,16.99L100.92,18.26L101.27,17.76L101.29,17.71L102.16,19.27L102.21,17.92L102.24,17.3L103.22,11.46L103.24,11.42L103.69,13.58L103.72,13.89L104.8,18.36L104.9,16.69L104.93,16.26L105.25,20.43L105.54,14.97L105.72,15.4L105.75,15.59L107.25,21.86L107.28,22.03L107.41,22.36L107.65,21.37L107.67,21.14L107.83,19.23L107.86,18.76L108.2,14.49L108.73,15.78L108.75,15.86L109.23,18.36L109.36,16.47L109.39,15.93L109.52,13.54L109.86,16.58L110.13,16L110.15,15.84L110.71,18.05L110.73,18.11L111.13,18.01L111.66,19.43L111.73,19.38L111.76,19.51L111.95,19.14L112.16,20.23L112.18,31.67L112.74,81.05" style="vector-effect: none; fill: none; stroke: rgb(217, 95, 2); stroke-opacity: 1; stroke-width: 1px; opacity: 1;"/></g><g class="points"/><g class="text"/></g><g class="trace scatter trace39c62a" style="stroke-miterlimit: 2; opacity: 1;"><g class="fills"/><g class="errorbars"/><g class="lines"><path class="js-line" d="M0,79.2L14.74,72.88L14.77,72.86L23.44,68.25L23.47,68.23L38.92,57.92L38.95,57.89L50.26,48.26L50.29,48.23L60.05,38.21L60.07,38.18L66.46,30.73L66.48,30.69L75.5,20.91L75.53,20.91L80.09,20.81L80.12,20.81L113,20.82" style="vector-effect: none; fill: none; stroke: rgb(0, 0, 0); stroke-opacity: 1; stroke-dasharray: 3px, 3px; stroke-width: 1px; opacity: 1;"/></g><g class="points"/><g class="text"/></g></g></g></g><path class="xlines-above crisp" d="M0,0" style="fill: none;"/><path class="ylines-above crisp" d="M0,0" style="fill: none;"/><g class="overlines-above"/><g class="xaxislayer-above"><g class="xtick"><text text-anchor="middle" x="0" y="129" transform="translate(27,0)" style="font-family: 'Open Sans', verdana, arial, sans-serif; font-size: 11px; fill: rgb(0, 0, 0); fill-opacity: 1; white-space: pre; opacity: 1;">0</text></g><g class="xtick"><text text-anchor="middle" x="0" y="129" style="font-family: 'Open Sans', verdana, arial, sans-serif; font-size: 11px; fill: rgb(0, 0, 0); fill-opacity: 1; white-space: pre; opacity: 1;" transform="translate(45.97,0)">12</text></g><g class="xtick"><text text-anchor="middle" x="0" y="129" style="font-family: 'Open Sans', verdana, arial, sans-serif; font-size: 11px; fill: rgb(0, 0, 0); fill-opacity: 1; white-space: pre; opacity: 1;" transform="translate(64.93,0)">24</text></g><g class="xtick"><text text-anchor="middle" x="0" y="129" style="font-family: 'Open Sans', verdana, arial, sans-serif; font-size: 11px; fill: rgb(0, 0, 0); fill-opacity: 1; white-space: pre; opacity: 1;" transform="translate(83.9,0)">36</text></g><g class="xtick"><text text-anchor="middle" x="0" y="129" style="font-family: 'Open Sans', verdana, arial, sans-serif; font-size: 11px; fill: rgb(0, 0, 0); fill-opacity: 1; white-space: pre; opacity: 1;" transform="translate(102.87,0)">48</text></g><g class="xtick"><text text-anchor="middle" x="0" y="129" style="font-family: 'Open Sans', verdana, arial, sans-serif; font-size: 11px; fill: rgb(0, 0, 0); fill-opacity: 1; white-space: pre; opacity: 1;" transform="translate(121.84,0)">60</text></g></g><g class="yaxislayer-above"><g class="ytick"><text text-anchor="end" x="26" y="3.8499999999999996" transform="translate(0,117)" style="font-family: 'Open Sans', verdana, arial, sans-serif; font-size: 11px; fill: rgb(0, 0, 0); fill-opacity: 1; white-space: pre; opacity: 1;">0</text></g><g class="ytick"><text text-anchor="end" x="26" y="3.8499999999999996" style="font-family: 'Open Sans', verdana, arial, sans-serif; font-size: 11px; fill: rgb(0, 0, 0); fill-opacity: 1; white-space: pre; opacity: 1;" transform="translate(0,97.2)">0.1</text></g><g class="ytick"><text text-anchor="end" x="26" y="3.8499999999999996" style="font-family: 'Open Sans', verdana, arial, sans-serif; font-size: 11px; fill: rgb(0, 0, 0); fill-opacity: 1; white-space: pre; opacity: 1;" transform="translate(0,77.4)">0.2</text></g><g class="ytick"><text text-anchor="end" x="26" y="3.8499999999999996" style="font-family: 'Open Sans', verdana, arial, sans-serif; font-size: 11px; fill: rgb(0, 0, 0); fill-opacity: 1; white-space: pre; opacity: 1;" transform="translate(0,57.6)">0.3</text></g><g class="ytick"><text text-anchor="end" x="26" y="3.8499999999999996" style="font-family: 'Open Sans', verdana, arial, sans-serif; font-size: 11px; fill: rgb(0, 0, 0); fill-opacity: 1; white-space: pre; opacity: 1;" transform="translate(0,37.8)">0.4</text></g><g class="ytick"><text text-anchor="end" x="26" y="3.8499999999999996" style="font-family: 'Open Sans', verdana, arial, sans-serif; font-size: 11px; fill: rgb(0, 0, 0); fill-opacity: 1; white-space: pre; opacity: 1;" transform="translate(0,18)">0.5</text></g></g><g class="overaxes-above"/></g></g><g class="polarlayer"/><g class="smithlayer"/><g class="ternarylayer"/><g class="geolayer"/><g class="funnelarealayer"/><g class="pielayer"/><g class="iciclelayer"/><g class="treemaplayer"/><g class="sunburstlayer"/><g class="glimages"/><defs id="topdefs-c6564d"><g class="clips"/></defs><g class="layer-above"><g class="imagelayer"/><g class="shapelayer"/></g><g class="infolayer"><g class="g-gtitle"><text class="gtitle" x="7.5" y="9" text-anchor="start" dy="0em" style="opacity: 1; font-family: 'Open Sans', verdana, arial, sans-serif; font-size: 11px; fill: rgb(0, 0, 0); fill-opacity: 1; white-space: pre;"><tspan style="font-style:italic">O. anthropi</tspan></text></g><g class="g-xtitle" transform="translate(0,4.800000000000011)"><text class="xtitle" x="83.5" y="139.2" text-anchor="middle" style="opacity: 1; font-family: 'Open Sans', verdana, arial, sans-serif; font-size: 11px; fill: rgb(0, 0, 0); fill-opacity: 1; white-space: pre;">Time [h]</text></g><g class="g-ytitle"/></g></svg>