<svg class="main-svg" xmlns="http://www.w3.org/2000/svg" xmlns:xlink="http://www.w3.org/1999/xlink" width="150" height="150" style="" viewBox="0 0 150 150"><rect x="0" y="0" width="150" height="150" style="fill: rgb(255, 255, 255); fill-opacity: 1;"/><defs id="defs-e914c2"><g class="clips"><clipPath id="clipe914c2xyplot" class="plotclip"><rect width="113" height="99"/></clipPath><clipPath class="axesclip" id="clipe914c2x"><rect x="27" y="0" width="113" height="150"/></clipPath><clipPath class="axesclip" id="clipe914c2y"><rect x="0" y="18" width="150" height="99"/></clipPath><clipPath class="axesclip" id="clipe914c2xy"><rect x="27" y="18" width="113" height="99"/></clipPath></g><g class="gradients"/><g class="patterns"/></defs><g class="bglayer"/><g class="layer-below"><g class="imagelayer"/><g class="shapelayer"/></g><g class="cartesianlayer"><g class="subplot xy"><g class="layer-subplot"><g class="shapelayer"/><g class="imagelayer"/></g><g class="minor-gridlayer"><g class="x"/><g class="y"/></g><g class="gridlayer"><g class="x"><path class="xgrid crisp" transform="translate(46.61,0)" d="M0,18v99" style="stroke: rgb(0, 0, 0); stroke-opacity: 1; stroke-width: 0.5px;"/><path class="xgrid crisp" transform="translate(66.22,0)" d="M0,18v99" style="stroke: rgb(0, 0, 0); stroke-opacity: 1; stroke-width: 0.5px;"/><path class="xgrid crisp" transform="translate(85.84,0)" d="M0,18v99" style="stroke: rgb(0, 0, 0); stroke-opacity: 1; stroke-width: 0.5px;"/><path class="xgrid crisp" transform="translate(105.45,0)" d="M0,18v99" style="stroke: rgb(0, 0, 0); stroke-opacity: 1; stroke-width: 0.5px;"/><path class="xgrid crisp" transform="translate(125.06,0)" d="M0,18v99" style="stroke: rgb(0, 0, 0); stroke-opacity: 1; stroke-width: 0.5px;"/></g><g class="y"><path class="ygrid crisp" transform="translate(0,97.2)" d="M27,0h113" style="stroke: rgb(0, 0, 0); stroke-opacity: 1; stroke-width: 0.5px;"/><path class="ygrid crisp" transform="translate(0,77.4)" d="M27,0h113" style="stroke: rgb(0, 0, 0); stroke-opacity: 1; stroke-width: 0.5px;"/><path class="ygrid crisp" transform="translate(0,57.6)" d="M27,0h113" style="stroke: rgb(0, 0, 0); stroke-opacity: 1; stroke-width: 0.5px;"/><path class="ygrid crisp" transform="translate(0,37.8)" d="M27,0h113" style="stroke: rgb(0, 0, 0); stroke-opacity: 1; stroke-width: 0.5px;"/></g></g><g class="zerolinelayer"><path class="xzl zl crisp" transform="translate(27,0)" d="M0,18v99" style="stroke: rgb(0, 0, 0); stroke-opacity: 1; stroke-width: 0.5px;"/><path class="yzl zl crisp" transform="translate(0,117)" d="M27,0h113" style="stroke: rgb(0, 0, 0); stroke-opacity: 1; stroke-width: 0.5px;"/></g><g class="layer-between"><g class="shapelayer"/><g class="imagelayer"/></g><path class="xlines-below"/><path class="ylines-below"/><g class="overlines-below"/><g class="xaxislayer-below"/><g class="yaxislayer-below"/><g class="overaxes-below"/><g class="overplot"><g class="xy" transform="translate(27,18)" clip-path="url(#clipe914c2xyplot)"><g class="scatterlayer mlayer"><g class="trace scatter trace9c04aa" style="stroke-miterlimit: 2; opacity: 1;"><g class="fills"/><g class="errorbars"/><g class="lines"><path class="js-line" d="M0.11,83.6L0.16,86.33L0.82,81.14L0.85,80.96L1.58,80.18L1.8,80.57L1.83,80.57L3.03,79.76L3.11,79.83L3.14,79.85L4.88,79.12L4.96,79.55L4.99,79.82L5.13,78.73L5.43,80.39L5.51,80.17L5.54,80.23L5.75,80.97L6.14,78.83L6.16,78.67L6.38,79.33L6.54,78.31L6.84,78.65L6.87,78.4L7.36,79.72L7.88,76.45L7.94,76.59L7.96,76.6L8.92,79.43L9.08,79.14L9.11,78.95L9.22,78.92L9.57,79.29L9.87,79.05L9.9,79.02L11.4,80.66L11.43,80.72L12.24,78.52L12.68,79.19L12.71,79.34L13.77,74.95L14.15,76.03L14.18,76.13L14.29,76.6L14.94,76.15L14.97,76.11L15.43,75.18L15.93,75.64L15.95,75.66L16.44,75.45L16.72,75.81L16.74,75.83L17.29,76.21L17.62,75.19L17.7,75.43L17.72,75.48L18.02,75.87L18.27,70.08L18.3,67.84L19.09,78.07L19.17,77.38L19.2,76.58L19.47,64.42L20.07,69.26L20.1,68.86L20.12,68.7L20.29,72.76L20.32,73.42L21,74.6L21.08,74.15L21.11,73.93L21.35,73.56L21.46,74.71L21.49,74.91L21.9,72.43L22.17,75.92L22.2,75.94L22.61,73.51L23.01,74.47L23.04,74.48L23.48,74.53L23.59,74.09L23.61,73.94L23.94,74.31L24.19,73.64L24.3,74.17L24.32,74.37L24.46,74.83L24.76,72.57L24.79,72.61L25.03,74.34L25.25,71.77L25.28,71.34L25.55,71.59L25.77,70.41L25.8,70.1L26.07,70.91L26.26,62.82L26.4,67.54L26.42,68.77L26.53,72.15L27.24,71.71L27.27,71.83L28.52,77.25L28.88,76.83L28.91,76.77L29.21,76.59L29.23,76.11L29.26,75.63L29.56,72.48L30.16,73.31L30.19,73.27L30.65,72.45L30.73,73.07L30.76,73.17L30.9,74.87L30.95,73.43L30.98,72.18L31.3,72.76L31.63,68.26L31.77,69.08L31.8,69.17L32.12,72.34L32.37,67.47L32.4,66.34L33,59.57L33.16,65.63L33.19,66.5L33.65,70.88L34,68.85L34.03,68.78L34.88,67.94L34.9,68.04L35.8,66.93L35.83,67L35.86,67.14L36.05,66.82L36.38,72.99L36.51,67.13L36.54,65.36L36.65,61.01L36.87,67.6L37.25,66.97L37.28,66.97L38.31,66.65L38.34,66.45L38.67,66.21L39.16,67.24L39.27,66.96L39.29,66.94L39.43,66.5L39.7,67.82L40,67.26L40.03,67.26L40.52,66.79L40.9,68.54L40.93,68.5L40.96,68.95L41.37,69.97L41.75,68.15L41.78,68.58L42.02,68.8L42.46,66.76L42.73,67.62L42.76,67.82L42.95,68.82L43.52,68.03L43.55,67.91L43.63,67.35L44.09,68.6L44.12,68.59L44.37,69.47L44.67,68.29L44.99,69.12L45.02,68.79L45.24,68.75L45.73,69.65L45.84,69.59L45.87,69.63L46.52,68.73L46.55,68.5L47.12,68.93L47.17,68.54L47.2,68.26L48.35,69.79L48.43,69.64L48.46,69.6L48.95,68.51L49.25,69.23L49.27,69.18L50.04,70.06L50.2,69.64L50.23,69.56L50.75,68.95L51.16,69.38L51.18,69.43L51.24,69.19L51.54,69.83L51.86,69.69L51.89,69.7L52.82,69.95L52.85,70.03L54.51,70.94L54.54,71.1L55.46,70.93L55.57,71.17L55.6,71.26L56.12,71.94L56.5,71.66L56.53,71.49L58,72.68L58.03,72.57L59.28,73.54L59.31,73.42L59.34,73.33L60.32,73.81L60.56,73.47L60.59,73.42L61.9,74.73L61.98,74.69L62.01,74.66L62.31,77.29L62.34,77.57L62.77,79.14L63.15,78.5L63.18,78.5L63.4,78.2L63.84,78.99L63.86,78.95L64.08,78.37L64.65,78.89L64.68,78.89L66.34,79.76L66.37,79.9L66.7,79.65L66.86,80.21L67.03,79.64L67.05,79.39L67.41,80.26L67.65,79.57L67.68,79.44L68.66,78.93L68.69,78.84L69.07,77.46L69.56,77.98L69.59,77.96L70.79,81.68L70.82,81.89L71.2,81.01L71.5,82.39L71.61,82.17L71.63,82.19L71.69,82.05L71.96,83.15L71.99,83.34L72.15,84.23L72.7,83.24L72.73,83.04L73.49,76.73L73.79,78.76L73.82,78.93L74.22,78.24L74.25,78.14L74.47,77.79L74.77,78.62L74.8,78.81L75.97,79.01L76,79.12L77.39,81.11L77.47,80.79L77.5,80.71L78.23,79.63L78.26,79.51L78.92,82.22L79.16,81.72L79.19,81.42L79.6,80.19L80.14,82.32L80.17,82.24L81.12,80.46L81.15,80.7L81.18,81.07L82.41,83.14L82.57,82.69L82.6,82.56L83.03,80.85L83.5,81.14L83.52,81.31L84.64,82.61L84.67,82.57L84.7,82.43L84.83,82.65L85.1,81.75L85.13,81.62L85.16,81.44L85.6,82.85L85.7,82.73L85.73,82.64L85.92,82.99L86.2,82.03L86.22,81.87L87.12,80.67L87.29,81.08L87.31,81.5L87.67,80.8L88.16,82.6L88.19,82.32L88.21,82.16L88.54,81.51L88.79,82.6L88.95,82.3L88.98,81.91L89.28,82.64L89.66,81.1L89.74,81.23L89.77,81.48L90.01,82.34L90.5,81.6L90.53,81.52L90.83,80.78L91.1,82.58L91.13,82.46L91.79,80.89L92.06,81.06L92.09,81.14L92.39,80.57L92.63,81.36L92.66,81.81L92.9,83.04L93.29,81.63L93.31,81.88L93.34,81.63L93.64,82.63L93.91,81.17L94.08,81.63L94.1,81.3L94.27,80.86L95.11,83.29L95.14,83.15L95.3,83.23L96.04,82.47L96.12,82.73L96.15,82.76L96.83,80.17L96.86,79.15L99.15,81.85L99.18,81.81L99.67,82.8L99.69,82.92L100.7,84.7L100.73,84.76L101.33,83.99L101.66,84.4L101.68,84.44L102.01,84.6L102.15,84L102.17,83.98L102.53,84.24L103.87,81.78L104.03,82.03L104.06,82.15L105.15,81.11L105.17,81.13L105.2,81.2L105.5,81.6L105.77,80.73L105.8,80.65L106.54,81.57L106.86,80.95L106.89,80.86L107.19,80.51L107.49,81.36L107.52,81.41L108.42,81L108.45,80.99L110.35,81.12L110.38,81.09L111.85,80.95L111.88,80.96L112.73,81.88" style="vector-effect: none; fill: none; stroke: rgb(217, 95, 2); stroke-opacity: 1; stroke-width: 1px; opacity: 1;"/></g><g class="points"/><g class="text"/></g></g></g></g><path class="xlines-above crisp" d="M0,0" style="fill: none;"/><path class="ylines-above crisp" d="M0,0" style="fill: none;"/><g class="overlines-above"/><g class="xaxislayer-above"><g class="xtick"><text text-anchor="middle" x="0" y="129" transform="translate(27,0)" style="font-family: 'Open Sans', verdana, arial, sans-serif; font-size: 11px; fill: rgb(0, 0, 0); fill-opacity: 1; white-space: pre; opacity: 1;">0</text></g><g class="xtick"><text text-anchor="middle" x="0" y="129" style="font-family: 'Open Sans', verdana, arial, sans-serif; font-size: 11px; fill: rgb(0, 0, 0); fill-opacity: 1; white-space: pre; opacity: 1;" transform="translate(46.61,0)">12</text></g><g class="xtick"><text text-anchor="middle" x="0" y="129" style="font-family: 'Open Sans', verdana, arial, sans-serif; font-size: 11px; fill: rgb(0, 0, 0); fill-opacity: 1; white-space: pre; opacity: 1;" transform="translate(66.22,0)">24</text></g><g class="xtick"><text text-anchor="middle" x="0" y="129" style="font-family: 'Open Sans', verdana, arial, sans-serif; font-size: 11px; fill: rgb(0, 0, 0); fill-opacity: 1; white-space: pre; opacity: 1;" transform="translate(85.84,0)">36</text></g><g class="xtick"><text text-anchor="middle" x="0" y="129" style="font-family: 'Open Sans', verdana, arial, sans-serif; font-size: 11px; fill: rgb(0, 0, 0); fill-opacity: 1; white-space: pre; opacity: 1;" transform="translate(105.45,0)">48</text></g><g class="xtick"><text text-anchor="middle" x="0" y="129" style="font-family: 'Open Sans', verdana, arial, sans-serif; font-size: 11px; fill: rgb(0, 0, 0); fill-opacity: 1; white-space: pre; opacity: 1;" transform="translate(125.06,0)">60</text></g></g><g class="yaxislayer-above"><g class="ytick"><text text-anchor="end" x="26" y="3.8499999999999996" transform="translate(0,117)" style="font-family: 'Open Sans', verdana, arial, sans-serif; font-size: 11px; fill: rgb(0, 0, 0); fill-opacity: 1; white-space: pre; opacity: 1;">0</text></g><g class="ytick"><text text-anchor="end" x="26" y="3.8499999999999996" style="font-family: 'Open Sans', verdana, arial, sans-serif; font-size: 11px; fill: rgb(0, 0, 0); fill-opacity: 1; white-space: pre; opacity: 1;" transform="translate(0,97.2)">0.1</text></g><g class="ytick"><text text-anchor="end" x="26" y="3.8499999999999996" style="font-family: 'Open Sans', verdana, arial, sans-serif; font-size: 11px; fill: rgb(0, 0, 0); fill-opacity: 1; white-space: pre; opacity: 1;" transform="translate(0,77.4)">0.2</text></g><g class="ytick"><text text-anchor="end" x="26" y="3.8499999999999996" style="font-family: 'Open Sans', verdana, arial, sans-serif; font-size: 11px; fill: rgb(0, 0, 0); fill-opacity: 1; white-space: pre; opacity: 1;" transform="translate(0,57.6)">0.3</text></g><g class="ytick"><text text-anchor="end" x="26" y="3.8499999999999996" style="font-family: 'Open Sans', verdana, arial, sans-serif; font-size: 11px; fill: rgb(0, 0, 0); fill-opacity: 1; white-space: pre; opacity: 1;" transform="translate(0,37.8)">0.4</text></g><g class="ytick"><text text-anchor="end" x="26" y="3.8499999999999996" style="font-family: 'Open Sans', verdana, arial, sans-serif; font-size: 11px; fill: rgb(0, 0, 0); fill-opacity: 1; white-space: pre; opacity: 1;" transform="translate(0,18)">0.5</text></g></g><g class="overaxes-above"/></g></g><g class="polarlayer"/><g class="smithlayer"/><g class="ternarylayer"/><g class="geolayer"/><g class="funnelarealayer"/><g class="pielayer"/><g class="iciclelayer"/><g class="treemaplayer"/><g class="sunburstlayer"/><g class="glimages"/><defs id="topdefs-e914c2"><g class="clips"/></defs><g class="layer-above"><g class="imagelayer"/><g class="shapelayer"/></g><g class="infolayer"><g class="g-gtitle"><text class="gtitle" x="7.5" y="9" text-anchor="start" dy="0em" style="opacity: 1; font-family: 'Open Sans', verdana, arial, sans-serif; font-size: 11px; fill: rgb(0, 0, 0); fill-opacity: 1; white-space: pre;"><tspan style="font-style:italic">O. anthropi</tspan></text></g><g class="g-xtitle" transform="translate(0,4.800000000000011)"><text class="xtitle" x="83.5" y="139.2" text-anchor="middle" style="opacity: 1; font-family: 'Open Sans', verdana, arial, sans-serif; font-size: 11px; fill: rgb(0, 0, 0); fill-opacity: 1; white-space: pre;">Time [h]</text></g><g class="g-ytitle"/></g></svg>