<svg class="main-svg" xmlns="http://www.w3.org/2000/svg" xmlns:xlink="http://www.w3.org/1999/xlink" width="300" height="250" style="" viewBox="0 0 300 250"><rect x="0" y="0" width="300" height="250" style="fill: rgb(255, 255, 255); fill-opacity: 1;"/><defs id="defs-341888"><g class="clips"><clipPath id="clip341888xyplot" class="plotclip"><rect width="207" height="210"/></clipPath><clipPath class="axesclip" id="clip341888x"><rect x="20" y="0" width="207" height="250"/></clipPath><clipPath class="axesclip" id="clip341888y"><rect x="0" y="20" width="300" height="210"/></clipPath><clipPath class="axesclip" id="clip341888xy"><rect x="20" y="20" width="207" height="210"/></clipPath></g><g class="gradients"/><g class="patterns"/></defs><g class="bglayer"/><g class="layer-below"><g class="imagelayer"/><g class="shapelayer"/></g><g class="cartesianlayer"><g class="subplot xy"><g class="layer-subplot"><g class="shapelayer"/><g class="imagelayer"/></g><g class="minor-gridlayer"><g class="x"/><g class="y"/></g><g class="gridlayer"><g class="x"><path class="xgrid crisp" transform="translate(37.96,0)" d="M0,20v210" style="stroke: rgb(0, 0, 0); stroke-opacity: 1; stroke-width: 0.5px;"/><path class="xgrid crisp" transform="translate(55.93,0)" d="M0,20v210" style="stroke: rgb(0, 0, 0); stroke-opacity: 1; stroke-width: 0.5px;"/><path class="xgrid crisp" transform="translate(73.89,0)" d="M0,20v210" style="stroke: rgb(0, 0, 0); stroke-opacity: 1; stroke-width: 0.5px;"/><path class="xgrid crisp" transform="translate(91.85,0)" d="M0,20v210" style="stroke: rgb(0, 0, 0); stroke-opacity: 1; stroke-width: 0.5px;"/><path class="xgrid crisp" transform="translate(109.82,0)" d="M0,20v210" style="stroke: rgb(0, 0, 0); stroke-opacity: 1; stroke-width: 0.5px;"/><path class="xgrid crisp" transform="translate(127.78,0)" d="M0,20v210" style="stroke: rgb(0, 0, 0); stroke-opacity: 1; stroke-width: 0.5px;"/><path class="xgrid crisp" transform="translate(145.74,0)" d="M0,20v210" style="stroke: rgb(0, 0, 0); stroke-opacity: 1; stroke-width: 0.5px;"/><path class="xgrid crisp" transform="translate(163.71,0)" d="M0,20v210" style="stroke: rgb(0, 0, 0); stroke-opacity: 1; stroke-width: 0.5px;"/><path class="xgrid crisp" transform="translate(181.67,0)" d="M0,20v210" style="stroke: rgb(0, 0, 0); stroke-opacity: 1; stroke-width: 0.5px;"/><path class="xgrid crisp" transform="translate(199.64,0)" d="M0,20v210" style="stroke: rgb(0, 0, 0); stroke-opacity: 1; stroke-width: 0.5px;"/><path class="xgrid crisp" transform="translate(217.6,0)" d="M0,20v210" style="stroke: rgb(0, 0, 0); stroke-opacity: 1; stroke-width: 0.5px;"/></g><g class="y"><path class="ygrid crisp" transform="translate(0,192.28)" d="M20,0h207" style="stroke: rgb(0, 0, 0); stroke-opacity: 1; stroke-width: 0.5px;"/><path class="ygrid crisp" transform="translate(0,145.75)" d="M20,0h207" style="stroke: rgb(0, 0, 0); stroke-opacity: 1; stroke-width: 0.5px;"/><path class="ygrid crisp" transform="translate(0,99.22)" d="M20,0h207" style="stroke: rgb(0, 0, 0); stroke-opacity: 1; stroke-width: 0.5px;"/><path class="ygrid crisp" transform="translate(0,52.68)" d="M20,0h207" style="stroke: rgb(0, 0, 0); stroke-opacity: 1; stroke-width: 0.5px;"/></g></g><g class="zerolinelayer"><path class="xzl zl crisp" transform="translate(20,0)" d="M0,20v210" style="stroke: rgb(0, 0, 0); stroke-opacity: 1; stroke-width: 0.5px;"/></g><g class="layer-between"><g class="shapelayer"/><g class="imagelayer"/></g><path class="xlines-below"/><path class="ylines-below"/><g class="overlines-below"/><g class="xaxislayer-below"/><g class="yaxislayer-below"/><g class="overaxes-below"/><g class="overplot"><g class="xy" transform="translate(20,20)" clip-path="url(#clip341888xyplot)"><g class="scatterlayer mlayer"><g class="trace scatter trace20402f" style="stroke-miterlimit: 2; opacity: 1;"><g class="fills"/><g class="errorbars"/><g class="lines"><path class="js-line" d="M0.2,188.65L0.4,198.44L0.9,189.42L0.95,187.84L1.25,182.82L1.75,186.11L1.8,186.19L2.05,185.26L2.1,184.72L3.4,174.4L3.45,174.52L3.5,174.45L3.85,176.06L4.1,174.6L4.15,173.78L5.14,171.31L5.19,171.46L5.24,171.4L5.34,170.7L5.64,171.92L5.69,171.81L5.74,172.25L6.84,169.66L6.94,170.19L6.99,170.96L7.49,172.74L7.69,171.64L7.74,170.86L8.09,169.57L8.39,171.23L8.44,171.26L9.09,172.13L9.24,171.61L9.29,171.56L9.49,171.8L9.64,171.18L9.69,170.31L10.09,164.8L10.34,168.8L10.39,169.32L10.79,169.01L11.29,171.62L11.34,170.8L11.44,171.41L11.94,169.96L12.04,170.23L12.09,169.93L12.34,168.64L12.79,169.79L12.84,170.11L14.19,166.65L14.24,166.75L14.29,166.88L15.29,168.4L15.44,168.22L15.49,168.1L15.73,168.2L16.68,163.9L16.88,164.74L16.93,165.39L17.23,167.16L17.78,166.59L17.83,166.4L18.28,165.2L18.58,166.38L18.63,166.56L19.08,164.13L19.63,165.1L19.68,164.93L19.98,165.28L20.23,164.24L20.33,164.85L20.38,165.32L20.73,166.59L20.78,166.19L20.83,165.34L21.88,162.8L22.03,163.36L22.08,163.55L22.33,164.52L22.38,164.9L22.43,165.07L22.58,164.06L22.83,164.24L22.88,163.5L23.28,161.58L23.63,163.34L23.68,163.49L23.78,163.88L24.08,162L24.13,161.66L24.88,160.16L25.08,160.56L25.13,160.44L25.38,161.51L25.63,160.37L25.67,160.26L26.22,158.27L26.42,159.42L26.47,159.6L26.97,159.05L27.32,159.79L27.37,159.5L27.77,158.2L28.12,158.96L28.17,159.24L29.22,159.24L29.27,159.06L30.32,158.51L30.37,158.72L30.82,159.28L31.22,159.06L31.27,159.07L31.77,158.49L31.97,159.13L32.02,159.33L32.77,156.48L33.02,157.36L33.07,157.47L33.17,157.06L33.57,158.11L33.62,158.44L33.77,158.83L34.12,157.04L34.17,156.68L34.52,157.45L34.77,156.49L34.82,155.86L35.37,153.68L35.77,154.25L35.82,154.7L35.97,154.5L36.21,155.41L36.56,155.24L36.61,155.01L36.76,154.68L37.16,155.56L37.21,156.03L37.51,156.62L37.76,155.34L37.81,154.81L38.71,152.79L38.76,152.85L38.81,153.26L39.01,154.03L39.41,152.81L39.46,152.56L39.56,152.39L39.96,153.18L40.01,153.25L40.16,153.51L40.46,152.66L40.51,152.39L41.41,150.51L41.81,150.87L41.86,150.99L42.06,151.52L42.61,149.09L42.76,150.1L42.81,150.49L43.11,151.8L43.41,150.08L43.46,149.91L44.01,149.28L44.16,149.95L44.21,150.43L44.36,151.63L44.66,150.16L44.71,149.35L45.01,146.1L45.36,149.5L45.41,149.99L45.51,150.73L45.91,148.06L45.96,147.78L46.35,146.28L46.8,146.82L46.85,146.79L47.8,144.07L47.9,144.37L47.95,144.59L48.15,144.12L48.35,145.04L48.4,145.14L48.8,145.57L48.85,145.73L48.9,146.13L49.4,143.9L49.6,145.59L49.65,146.27L50.1,149.96L50.4,146.89L50.45,146.16L51.15,143.18L51.3,144.53L51.35,145.02L52.45,150.97L52.55,150.85L52.6,150.71L53.35,146.54L53.4,145.99L54.3,143.41L54.35,143.65L54.4,143.81L55.1,141.51L55.15,141.27L55.5,142.54L55.8,140.59L55.85,140.19L56.34,142.22L56.44,140.5L56.49,139.58L57.39,136.3L57.69,136.43L57.74,136.41L58.04,135.85L58.44,136.47L58.49,136.53L58.79,135.81L59.14,136.84L59.24,136.64L59.29,136.86L60.19,134.93L60.54,135.39L60.59,135.63L62.39,134.2L62.44,134.01L63.09,133.83L63.19,133.59L63.24,133.46L64.89,131.26L65.19,131.46L65.24,131.79L65.44,131.98L65.74,131.31L65.79,131.06L66.14,130.86L66.43,131.53L66.48,131.59L66.73,132.06L67.08,131.25L67.13,131.06L67.23,130.6L67.78,131.85L67.83,131.91L68.53,132.37L68.63,132.33L68.68,132.35L69.33,131.06L69.78,131.61L69.83,131.64L70.68,131.32L70.73,131.19L71.13,131.43L71.48,130.85L71.53,130.95L71.58,131.04L72.83,131.63L72.93,131.54L72.98,131.55L73.53,130.33L73.78,130.73L73.83,131.39L74.58,137.63L74.83,135.31L74.88,134.9L75.83,126.15L76.18,128.67L76.23,129.45L76.33,129.72L76.58,127.44L76.63,127.05L77.07,128.81L77.12,129L77.17,128.81L77.52,130.04L77.57,130.55L77.72,131.24L78.02,129.2L78.07,128.54L78.82,125.03L78.97,126.52L79.02,126.93L79.17,127.55L79.47,125.35L79.52,124.92L80.97,122.51L81.02,122.81L81.07,122.91L81.47,123.43L81.62,122.54L81.67,122.16L83.17,117.48L83.22,117.56L83.62,113.66L83.67,113.14L83.77,111.91L84.32,113.79L84.37,113.45L84.42,113.31L84.47,112.8L84.87,115.51L84.92,116.19L85.57,120.81L85.87,118.51L85.92,118.04L87.61,113.26L87.66,113.69L87.71,113.52L87.91,115.48L87.96,115.49L88.61,117.14L88.71,116.67L88.76,116.2L88.91,114.74L89.26,117.42L89.31,117.82L89.41,118.8L89.86,116.83L89.96,116.95L90.01,116.9L91.16,111.4L91.41,112.33L91.46,112.64L91.86,115.75L92.21,114.2L92.26,113.86L92.61,110.68L92.66,109.94L92.96,106.67L93.46,108.67L93.51,108.3L94.36,106.24L94.41,106.3L94.46,106.65L94.56,107.31L95.06,105.56L95.11,105.68L95.21,105.89L95.26,105.2L95.51,105.24L95.56,104.86L95.81,106.57L96.41,106.05L96.46,105.61L96.51,105.97L96.81,103.48L96.96,104.47L97.01,103.94L97.5,105.27L97.8,104.8L97.85,104.08L97.95,104.39L98.25,102.93L98.65,103.54L98.7,103.86L99.05,101.99L99.5,103.24L99.55,103.32L100.65,99.64L100.7,99.68L100.75,99.96L101.2,99.65L101.25,99.16L101.75,99.32L101.85,98.93L101.9,98.66L102.8,96.91L102.85,96.48L103.35,96.78L103.6,96.36L103.65,96.37L104.75,94.56L104.8,94.51L105.2,95.06L105.4,94.19L105.45,94.08L106.35,92.76L106.45,93.37L106.5,93.88L107.64,90.28L107.84,91.14L107.89,91.49L108.09,93.17L108.54,90.94L108.59,90.97L108.79,91.74L109.19,90.12L109.24,89.95L110.34,87.84L110.39,87.76L110.89,86.42L111.29,87.12L111.34,87.62L112.24,86.97L112.29,87.19L113.14,83.69L113.59,84L113.64,84.23L114.14,82.05L114.39,83.78L114.44,84.29L114.84,86.14L115.19,85.12L115.24,84.59L115.64,82.93L116.19,83.48L116.24,83.55L116.64,84.2L116.94,83.77L116.99,83.56L117.34,82.71L117.39,82.08L117.49,81.26L117.93,83.26L117.98,83.79L118.43,80.11L118.48,79.37L118.83,77.52L119.23,78.99L119.28,79.27L119.83,83.54L120.13,80.88L120.18,80.5L120.23,80.16L120.63,82.59L120.68,82.43L121.08,76.01L121.13,75.05L121.23,74.5L121.48,77.86L121.53,78.61L121.78,80.57L122.13,77.56L122.18,77.54L122.68,81.03L123.08,79.05L123.13,78.98L123.53,77.78L123.88,78.73L123.93,78.84L124.28,79.1L124.53,78.29L124.58,78.01L125.33,73.54L125.38,73.04L125.53,72.78L125.63,73.98L125.68,74.48L126.03,75.63L126.28,74.06L126.33,74.09L126.38,74.02L126.68,73.07L127.23,73.38L127.28,73.65L127.72,75.01L128.02,73.59L128.07,73.25L128.57,70.69L128.97,71.12L129.02,71.24L129.37,71.46L130.57,66.66L130.82,67.24L130.87,67.41L131.47,66.24L131.52,66.14L133.07,63.34L133.12,63.7L133.17,64.08L133.57,66.8L133.82,64.33L133.87,63.67L135.62,49.12L135.67,49.06L136.77,50.95L136.87,50.76L136.92,50.6L137.47,50.05L137.52,49.69L138.01,48.54L138.26,49.36L138.31,49.63L139.16,53.91L139.46,53.06L139.51,52.93L141.81,43.21L141.86,42.97L142.41,41.2L142.81,42.06L142.86,42.28L144.16,44.34L144.61,44L144.66,43.86L144.81,44.12L145.21,43.25L145.26,43.11L145.51,43.13L145.71,42.64L145.76,42.5L146.66,41.12L146.76,41.15L146.81,41.19L147.26,40.78L147.31,42.42L147.86,57.7L148.4,56.2L148.45,56.09L148.85,55.51L149.25,56.08L149.3,56.07L149.55,56.55L150,56.02L150.05,55.72L151.25,55.36L151.3,55.52L151.35,55.7L151.8,56.77L152.25,56.53L152.3,56.32L154.85,60.59L154.9,60.88L156.1,63.75L156.15,63.94L156.55,64.18L156.85,63.74L156.9,63.62L158.35,60.02L158.4,60.18L158.45,60.6L158.74,61.63L159.04,60.13L159.09,60.12L159.69,58.36L160.04,58.67L160.09,58.74L160.84,59.15L160.89,58.95L160.94,58.79L161.59,57.42L161.84,58.07L161.89,58.16L162.39,60.26L162.79,59.66L162.84,59.52L163.39,59.65L163.49,59.97L163.54,60.23L163.79,60.34L164.04,59.78L164.29,60.24L164.34,60.3L164.99,60.38L165.04,60.22L165.09,60.04L165.79,62.26L165.84,62.6L166.59,64.53L166.64,64.79L167.44,65.99L167.89,65.61L167.94,65.56L169.38,65.53L169.43,65.54L170.08,66.26L170.13,66.3L171.08,64.12L171.38,64.3L171.43,64.45L171.83,65.1L172.08,64.09L172.13,63.86L173.53,61.89L173.73,62.35L173.78,62.31L174.43,64.07L174.83,63.37L174.88,63.34L175.58,61.11L175.83,62.01L175.88,62.18L176.83,60.35L176.88,60.17L177.78,59.66L177.83,59.69L177.88,59.8L178.97,59.75L179.02,59.59L179.07,59.47L179.67,58.56L179.97,59.04L180.02,59.19L181.87,60.13L181.92,59.98L183.02,57.86L183.32,58.51L183.37,58.72L184.22,59.25L184.27,59.02L184.57,59.36L184.87,58.54L184.92,58.54L186.17,57.36L186.22,57.46L186.27,57.63L186.87,57L186.92,56.9L187.92,56.81L187.97,56.59L188.17,56.37L188.52,57.05L188.57,56.99L188.62,57.17L189.66,57.8L189.71,57.7L189.76,57.61L190.51,57.68L190.56,57.43L191.06,57.48L191.16,57.14L191.21,57.02L192.41,57.9L192.51,57.62L192.56,57.34L193.31,55.03L193.66,55.62L193.71,55.72L194.66,58.03L194.71,57.65L194.76,56.43L194.91,55.92L195.21,58.58L195.26,60.36L196.36,68.51L196.46,68.03L196.51,67.65L197.51,56.35L197.91,58.93L197.96,59.17L198.46,58.64L198.56,59.28L198.61,59.81L198.95,60.78L199.35,60.5L199.4,59.82L200.35,65.22L200.7,64.36L200.75,64.34L201.15,65.09L201.45,64.17L201.5,64.17L201.65,64.05L201.85,64.77L201.9,64.74L201.95,64.85L202.2,65.16L202.45,64.35L202.5,63.84L203.75,59.19L203.8,59.19L204.55,58.57L204.6,59.44L204.65,60.08L205.15,57.49L205.2,57.61L205.25,57.75L205.9,59.8L206,58.75L206.05,58.21L206.4,54.61L206.55,55.1" style="vector-effect: none; fill: none; stroke: rgb(99, 110, 250); stroke-opacity: 1; stroke-width: 1.8px; opacity: 1;"/></g><g class="points"/><g class="text"/></g><g class="trace scatter trace144268" style="stroke-miterlimit: 2; opacity: 1;"><g class="fills"/><g class="errorbars"/><g class="lines"><path class="js-line" d="M0.2,188.99L0.25,199.5L0.9,185.47L0.95,185.25L1.25,181.54L1.55,188.26L1.6,187.87L1.65,187.38L2,182.71L2.05,181.74L3.3,175.39L3.35,175.13L4.65,171.4L4.7,171.55L6.19,167.34L6.34,167.6L6.39,167.8L6.89,169.53L7.24,168.79L7.29,168.53L7.69,168.87L8.44,165.66L8.74,166.38L8.79,166.64L9.09,166.64L9.14,167.11L9.99,166.5L10.04,165.99L10.94,161.91L11.24,162.28L11.29,162.5L11.64,162.18L11.79,162.6L11.84,163.14L11.94,162.95L12.24,163.59L12.54,163.26L12.59,162.97L14.34,155.44L14.44,156.03L14.49,156.72L15.24,160.07L15.53,159.2L15.58,158.92L16.28,156.26L16.48,157.38L16.53,157.86L16.78,158.27L17.13,156.92L17.18,156.77L17.43,157.49L18.78,152.58L18.83,152.87L18.88,153.53L19.03,152.87L19.28,154.72L19.38,154.31L19.43,154.48L19.93,152.76L20.13,153.6L20.18,153.8L20.48,153.35L20.73,153.75L20.78,153.37L20.83,153L21.38,154.56L21.73,153.52L21.78,153.13L21.98,152.42L22.28,153.93L22.33,154.55L22.53,155.66L22.98,153.84L23.03,153.6L23.08,153.77L23.23,153.32L23.73,153.4L23.78,153.05L24.08,152.47L24.43,153.07L24.48,153.21L24.73,152.71L25.03,153.53L25.13,153.33L25.18,153.57L26.27,150.55L26.37,150.68L26.42,150.89L26.57,150.79L27.27,152.22L27.47,151.34L27.52,151.04L28.77,148.63L28.82,148.83L29.37,149.89L29.57,149.19L29.62,148.9L30.12,149.2L31.17,144.92L31.22,144.96L31.27,145.23L31.42,145.62L31.77,144.95L32.02,145.39L32.07,145.15L32.42,144.37L32.67,145.38L32.72,145.56L33.22,147.14L33.52,146.06L33.57,146.07L33.72,145.91L33.87,146.88L34.22,146.42L34.27,146.36L35.12,143.81L35.27,144.25L35.32,144.29L35.52,145.35L35.92,143.8L36.21,145.04L36.26,144.95L36.41,145.35L36.71,144.29L37.01,145.01L37.06,144.97L37.81,145.52L37.86,145.28L37.91,145.01L38.41,143.03L38.66,144.23L38.71,144.38L38.91,144.78L39.51,143.48L39.56,143.81L39.76,144.23L40.16,143.39L40.26,143.53L40.31,143.38L41.56,139.35L41.81,140.72L41.86,140.92L42.51,143.63L42.91,142.4L42.96,142.11L43.91,139.95L43.96,139.47L44.36,138.08L44.86,138.69L44.91,138.53L45.16,137.19L45.61,138.18L45.66,138.7L46.06,140.41L46.35,139.03L46.4,138.66L46.8,137.62L46.85,137.45L47.95,136.07L48,136.17L48.6,137.03L48.75,136.48L48.8,136.09L49.5,133.33L49.8,134.02L49.85,134.08L51.1,136.3L51.15,136.17L51.2,135.87L51.25,136.07L51.65,134.75L51.7,134.66L52.05,134.36L52.25,134.91L52.35,134.76L52.4,134.98L52.6,135.6L53.2,135.28L53.25,135.24L54.35,137.36L54.5,136.91L54.55,136.58L55.35,134.13L55.5,134.97L55.55,135.44L55.9,137.37L56.3,135.55L56.35,135.22L56.74,134.52L56.79,134.13L57.39,129.66L57.84,129.82L57.89,129.91L57.94,130.06L58.09,128.37L58.14,127.86L58.79,124.96L59.04,125.91L59.09,126.12L59.49,122.86L59.74,124.06L59.79,124.6L60.49,127.62L60.84,126.77L60.89,126.29L61.19,125.3L61.44,126.89L61.49,127.29L61.89,128.43L62.29,127.71L62.34,127.53L62.59,128.95L62.64,129.3L63.04,128.11L63.09,127.93L63.54,126.62L63.59,126.14L63.74,125.39L64.19,126.76L64.24,126.92L64.74,127.97L65.04,127.26L65.09,126.86L67.13,121L67.18,121.13L67.23,121.39L67.48,121.77L67.68,121.02L67.73,120.65L68.73,118.5L68.88,118.93L68.93,119.07L69.18,119.19L69.28,118.55L69.33,117.87L71.23,112.71L71.33,112.94L71.38,113.11L71.93,111.11L72.33,111.92L72.38,112.16L72.78,112.54L72.83,112.26L72.88,111.79L73.18,109.64L73.63,111.11L73.68,111.1L74.58,108.85L74.63,109.58L74.68,110.33L75.08,116.81L75.73,115.82L75.78,115.85L76.43,111.76L76.77,112.43L76.82,112.83L76.87,113.08L77.22,111.02L77.27,111.12L78.12,104.69L78.37,105.8L78.42,107.59L78.52,106.04L78.72,107.44L78.77,108.27L79.02,108.56L79.17,106.96L79.22,105.18L79.37,105.35L79.47,104.34L79.52,102.85L80.62,110.34L80.82,110.08L80.87,110L81.12,109.06L81.52,110.31L81.57,110.47L82.32,106.49L82.82,107.44L82.87,107.32L83.02,106.65L83.42,108.15L83.47,108.53L83.82,109.61L84.12,107.99L84.17,107.6L85.07,102.76L85.32,103.55L85.37,103.92L85.62,105.48L86.17,104.32L86.22,104.34L86.52,105.72L86.77,104.2L86.82,103.75L88.66,99.62L88.76,99.75L88.81,99.8L89.16,101.02L89.56,99.93L89.61,99.92L89.86,99.08L89.91,98.79L90.21,97.77L90.46,98.84L90.51,99.15L90.96,100.94L91.16,99.52L91.21,98.96L91.51,96.33L91.91,99.61L91.96,99.83L92.21,100.26L92.36,98.84L92.41,98.52L93.21,96.19L93.26,96L93.61,94.35L94.11,95.27L94.16,95.16L94.66,95.6L94.76,95.21L94.81,95.06L95.16,93.72L95.56,94.7L95.61,95.08L95.66,95.23L95.96,94.27L96.01,93.88L96.81,90.79L97.06,91.69L97.11,91.77L97.35,92.28L97.65,91.42L97.7,91.04L98.25,93.09L98.55,91.82L98.6,91.37L100.05,86.03L100.1,86.14L100.3,86.34L100.5,85.4L100.55,85.15L100.7,85.07L100.95,85.71L101,85.81L101.6,83.56L101.75,84.35L101.8,84.83L102.6,87.5L102.95,87.06L103,86.91L103.6,87.27L104.65,82.96L104.7,82.76L104.9,81.94L105.35,83.18L105.4,83.16L105.6,83.5L105.9,82.47L105.95,81.97L106.55,79.29L106.8,80.21L106.85,80.69L107.29,82L107.64,81.41L107.69,81.14L108.19,77.98L108.69,79L108.74,78.87L109.39,76.21L109.64,77.05L109.69,77.17L110.04,78.73L110.34,77.9L110.39,77.66L111.64,70.67L111.69,70.24L112.59,62.89L112.84,63.23L112.89,63.37L114.34,68.74L114.49,68.22L114.54,68.09L114.99,68.93L115.29,67.96L115.34,67.69L115.59,66.6L115.89,68.37L115.94,68.84L116.14,69.74L116.59,68.49L116.64,68.25L117.28,66.5L117.68,67.23L117.73,67.36L117.83,67.71L118.23,66.45L118.28,66.17L119.93,59.53L119.98,59.4L120.38,57.41L120.73,58.85L120.78,59.04L121.43,60.15L121.63,59.69L121.68,59.49L122.28,58.04L122.63,58.31L122.68,58.65L123.58,59.48L123.63,59.32L123.68,58.92L124.48,51.18L124.78,53.65L124.83,54.08L125.13,55.4L125.53,54.22L125.58,53.97L125.88,53.51L126.28,54.09L126.33,54.1L127.18,54.82L127.23,54.77L127.28,54.66L128.87,48.82L128.92,48.11L129.37,46.28L129.72,46.9L129.77,47.16L129.92,47.3L130.12,46.58L130.17,46.41L131.32,44.51L131.47,44.66L131.52,44.7L132.12,45.81L132.27,45.1L132.32,44.97L132.72,45.86L132.77,46.23L133.32,44.37L133.37,44.47L133.42,43.86L133.87,41.01L134.17,43.74L134.22,43.97L134.52,44.76L134.87,43.68L134.92,43.83L134.97,43.68L136.82,39.69L136.87,39.86L136.92,39.97L137.27,40.78L137.57,39.6L137.62,39.18L138.31,36.52L138.61,37.55L138.66,37.89L139.56,39.42L139.66,39.16L139.71,39.24L140.51,40.51L140.66,40.02L140.71,39.77L140.81,40.06L141.16,38.87L141.21,38.47L142.36,33.75L142.46,34.1L142.51,34.3L143.56,35.48L143.61,35.32L143.91,36.49L144.31,35.33L144.36,35.01L145.16,34.29L145.21,34.45L145.56,35.19L145.86,34.27L145.91,34.32L145.96,34.32L147.26,31.47L147.31,31.67L147.36,32.23L148.7,38.93L148.9,38.2L148.95,37.98L150.3,35.43L150.4,35.74L150.45,35.89L151.1,34.8L151.15,34.33L151.6,29.78L152,32.91L152.05,33.3L152.65,36.73L152.95,35.71L153,35.56L153.4,34.18L153.75,35.54L153.8,35.72L154.95,37.46L155,37.44L155.05,37.23L157.1,27.68L157.15,27.75L158.54,34.01L158.69,33.5L158.74,32.77L159.69,24.71L159.79,27.97L159.84,29.59L160.44,43.01L160.89,41.18L160.94,41.18L161.69,44.27L161.94,43.18L161.99,42.89L162.69,39.54L162.99,40.36L163.04,40.93L163.49,43.43L163.94,42.8L163.99,42.42L164.74,39.84L165.04,40.63L165.09,40.89L165.94,42.31L165.99,42.29L166.04,42.08L166.49,40.45L166.79,41.34L166.84,41.77L167.29,40.84L167.34,40.61L167.94,42.06L168.29,41.17L168.34,40.94L168.98,40.96L169.03,41.12L169.08,41.19L169.43,42.64L169.48,42.92L169.68,43.42L170.03,41.79L170.08,41.8L170.63,40.78L170.78,41.2L170.83,41.64L171.28,44.53L171.73,43.3L171.78,42.89L172.83,39.57L172.88,39.59L172.93,39.65L173.73,47.13L174.03,45.09L174.08,44.71L174.58,41.33L174.93,42.97L174.98,43.65L175.43,44.87L175.73,43.82L175.78,43.75L176.63,39.25L176.88,41.12L176.93,41.77L177.58,45.25L177.88,44.51L177.93,44.17L178.18,42.92L178.73,43.78L178.77,43.81L179.17,44.7L179.47,43.88L179.52,43.8L180.07,41.02L180.57,41.88L180.62,41.96L181.57,47.47L181.97,46.03L182.02,45.92L182.67,45.78L182.82,46.1L182.87,46.26L183.37,48.75L183.67,47.1L183.72,46.7L183.82,46.43L184.07,47.67L184.12,48.2L184.87,55.32L185.12,52.36L185.17,51.61L186.42,46.35L186.47,46.3L186.97,45.94L187.02,45.68L187.07,45.2L187.62,40.99L188.12,42.14L188.17,41.74L188.47,40.09L188.76,42.73L188.81,43.29L189.61,46.07L189.76,45.94L189.81,45.86L190.56,44.98L190.61,44.48L191.41,35.91L191.76,37.72L191.81,38.44L192.81,46.41L193.11,46.34L193.16,46.14L195.26,34.18L195.56,34.78L195.61,34.56L195.81,33.94L196.11,34.8L196.16,34.81L196.21,35.19L197.46,40.8L197.51,40.07L199.15,35.06L199.2,35L199.65,33.54L200,34.24L200.05,34.52L200.5,35.69L200.7,34.63L200.75,34.22L201.05,33.24L201.35,34.04L201.4,34.12L202,33.83L202.3,34.43L202.35,34.41L202.55,34.92L202.65,34.47L202.7,33.39L202.75,32.14L203.3,36.29L203.35,36.25L204.5,33.41L204.55,33.46L204.6,34.42L204.65,34.25L204.85,35.78L204.9,36.06L206,42L206.05,42.52L206.4,44.42L206.55,44.36" style="vector-effect: none; fill: none; stroke: rgb(239, 85, 59); stroke-opacity: 1; stroke-width: 1.8px; opacity: 1;"/></g><g class="points"/><g class="text"/></g><g class="trace scatter trace53f4b4" style="stroke-miterlimit: 2; opacity: 1;"><g class="fills"/><g class="errorbars"/><g class="lines"><path class="js-line" d="M0.2,185.57L0.25,196.5L0.95,191.45L1,190.52L3.25,168.13L3.3,168.15L3.45,168.67L4,167.61L4.05,167.85L4.1,168.01L4.5,168.12L4.55,167.4L4.6,167.12L4.7,167.67L5,165.99L5.24,166.86L5.29,166.32L5.49,167.21L6.04,166.72L6.09,166.77L6.74,168L6.94,167.67L6.99,167.15L7.14,167.48L7.29,166.21L7.34,166.04L7.54,166.76L7.94,165.54L8.09,166.53L8.14,166.35L8.19,166.64L8.59,165.2L8.74,165.63L8.79,165.58L9.69,163.83L9.74,163.68L10.39,161.45L10.59,162.63L10.64,162.79L10.94,164.05L11.44,162.06L11.49,162.25L11.54,162.85L12.54,159.72L12.89,159.86L12.94,160.43L13.29,162.09L13.69,160.46L13.74,160.25L13.79,159.82L14.04,160.54L14.49,160.09L14.54,159.91L14.89,160.92L15.23,159.7L15.28,159.85L15.33,159.86L15.98,159.26L16.08,159.49L16.13,159.85L16.53,158.38L16.93,159.49L16.98,159.7L18.13,156.12L18.18,156.41L18.33,156.27L18.63,156.91L18.88,156.67L18.93,156.32L19.08,156.44L19.18,155.72L19.23,156.04L19.28,155.52L19.38,155.16L19.78,156.27L20.03,155.44L20.08,155.36L20.88,153.75L20.93,154.38L20.98,154.39L21.18,154.46L21.33,153.94L21.38,153.46L22.28,151.43L22.43,151.48L22.48,151.6L23.18,153.6L23.38,152.18L23.43,151.66L24.23,148.77L24.43,149.81L24.48,149.97L24.73,150.43L25.32,148.27L25.37,148.94L25.47,149.58L25.77,148.38L25.82,147.91L26.62,146.85L26.67,146.96L26.72,147.34L27.22,145.8L27.52,146.67L27.57,146.96L27.72,147.76L28.02,145.85L28.07,145.37L28.42,143.94L28.82,145.09L28.87,145.3L29.97,143L30.02,143.33L30.07,142.74L30.47,144.08L30.67,143.85L30.72,144.02L31.27,142.29L31.67,142.54L31.72,142.58L32.02,141.37L32.37,142.9L32.47,142.44L32.52,142.7L32.57,142.92L33.02,141.66L33.07,141.8L33.12,141.71L33.27,142.18L33.52,140.98L33.57,140.43L33.82,139.18L34.22,139.7L34.27,140.17L34.72,141.04L34.92,139.44L34.97,139.67L35.02,139.36L35.32,139.18L35.76,140.73L35.91,139.78L35.96,139.58L36.56,138.09L36.61,138.4L36.66,137.62L36.96,136.2L37.36,138.24L37.41,137.7L37.46,137.39L38.16,134.34L38.21,134.39L38.26,134.11L39.01,135.42L39.26,135.03L39.31,134.93L39.46,134.55L39.76,136.14L40.01,135.29L40.06,134.81L40.11,134.99L40.41,133.38L40.46,133.28L41.36,130.54L41.56,131.47L41.61,131.79L41.71,131.59L41.81,132.86L41.86,133.38L41.91,133.55L42.16,132.05L42.21,131.43L42.71,131.53L42.86,130.27L43.06,130.68L43.11,130.73L43.16,130.38L43.56,131.06L43.81,130.91L43.86,131.62L43.96,131.99L44.36,130.6L44.41,130.42L44.51,130.59L44.71,129.59L44.76,129.29L45.26,129.71L45.36,128.66L45.41,128.1L45.7,127.24L45.75,126.53L46.25,128.43L46.85,128.25L46.9,128.09L46.95,128.31L47.35,127.02L47.4,126.67L47.6,126.34L47.7,126.81L47.75,126.63L47.8,125.91L48.15,124.38L48.45,125.65L48.5,125.86L48.65,126.68L48.95,125.28L49,125.05L49.75,123.05L49.95,123.65L50,123.85L50.55,122.38L50.85,123.28L50.9,123.41L52.05,118.3L52.1,118.6L52.15,118.56L53,115.34L53.15,115.78L53.2,115.89L53.55,116.58L53.75,115.79L53.8,115.09L55.05,110.94L55.1,110.87L55.6,112.31L55.89,111.45L55.94,111.41L56.04,111.66L56.29,110.75L56.39,110.93L56.44,110.51L56.49,110.8L56.89,109.89L56.94,109.96L56.99,109.24L57.29,109.41L58.54,105.32L58.74,106.19L58.79,106.58L59.04,107.15L59.34,106.14L59.44,106.24L59.49,105.91L59.54,105.56L59.94,107.25L59.99,107.21L60.04,107.6L60.34,107.84L60.64,106.9L60.69,106.62L61.34,102.55L61.74,104.04L61.79,103.99L61.84,104.27L62.24,102.89L62.29,103L62.34,102.71L62.89,104.33L63.19,103.77L63.24,103.2L64.19,101.02L64.24,101.12L65.04,98.99L65.14,99.24L65.19,99.65L65.59,100.51L66.08,99.02L66.13,98.93L66.28,98.99L67.03,98.13L67.08,98.33L67.53,97.01L67.58,96.33L67.98,94.52L68.38,95.68L68.43,96.01L69.63,91.64L69.78,91.79L69.83,91.71L70.63,90.34L70.83,90.62L70.88,90.45L73.23,86.59L73.28,86.23L73.43,86.38L74.03,84.67L74.08,84.38L74.13,84.15L74.63,85.14L74.78,84.58L74.83,84.65L75.23,83.12L75.28,82.79L75.93,80.88L76.12,81.86L76.17,82.52L77.12,85.34L77.17,85.14L77.27,85.54L77.62,84.01L77.67,83.59L79.02,77.63L79.07,77.57L79.12,77.1L79.62,79.06L79.67,79.26L80.02,81L80.42,79.63L80.47,79.28L81.27,77.48L81.47,77.76L81.52,77.93L82.22,74.62L82.57,75.78L82.62,76.12L83.22,73.81L83.27,72.9L83.92,65.99L84.27,67.32L84.32,67.55L85.02,68.8L85.22,68.26L85.27,68.08L85.72,66.87L85.92,67.56L85.97,68L86.21,71.06L86.76,69L86.81,69.25L87.11,68.79L87.21,69.47L87.26,69.84L87.61,69.67L87.66,69.3L87.71,69.13L88.31,63.79L88.36,63.26L88.66,60.93L89.16,61.91L89.21,62.18L90.11,64.73L90.16,64.72L90.21,64.82L91.66,57.69L91.71,57.35L92.26,51.8L92.71,53.39L92.76,53.78L93.66,56.18L93.76,55.42L93.81,55.05L94.31,55.45L94.66,54.4L94.71,54.34L96.8,44.06L96.95,44.79L97,44.87L97.1,45.17L97.4,43.73L97.45,43.46L99.2,37L99.25,36.63L99.6,35.9L99.9,37.17L99.95,37.28L100.85,39.45L101.05,38.9L101.1,38.91L101.15,39.09L101.5,37.72L101.55,37.57L101.7,36.93L102.1,38.31L102.15,38.54L102.4,39.37L102.9,38.55L102.95,38.58L105.95,28.25L106,28.28L106.05,28.21L106.89,25.78L106.94,25.47L108.79,16.77L108.84,16.95L109.14,17.04L109.29,16.45L109.34,16.17L110.64,10.5L110.79,11.47L110.84,11.91L112.89,23.96L112.94,24L113.39,24.69L113.79,24.33L113.84,24.15L115.04,26.51L115.44,26.24L115.49,25.95L116.04,22.28L116.34,23.83L116.38,23.93L117.03,19.17L117.48,20.36L117.53,20.58L117.73,21.52L118.13,19.56L118.18,19.63L118.23,19.86L119.93,26.16L119.98,26.38L120.03,26.61L120.28,24.73L120.33,24.75L120.38,24.36L121.33,22.3L121.38,22.38L121.78,22.06L122.28,22.8L122.33,22.64L122.53,22.86L122.68,22.01L122.73,21.83L123.58,20.78L123.73,21.05L123.78,21.21L123.93,21.44L125.03,17.79L125.33,18.28L125.38,19.74L125.88,18.72L126.13,19.39L126.18,19.68L126.58,20.9L126.92,19.99L126.97,19.75L127.87,18.08L127.97,18.32L128.02,18.48L128.12,18.08L128.42,18.96L128.67,18.67L128.72,18.83L128.92,19.18L129.42,18.55L129.47,18.73L129.72,18.8L129.82,18.28L129.87,18.07L129.92,17.83L130.42,18.6L130.62,18.08L130.67,18.07L131.07,18.54L131.22,17.45L131.27,17.15L132.32,14.15L132.47,14.31L132.52,14.17L133.67,13.07L133.77,13.28L133.82,13.5L135.37,24.1L135.52,21.24L135.57,20.26L136.02,11.96L136.47,15.47L136.52,16.71L137.06,23.9L137.41,20.84L137.46,19.05L137.56,17.42L137.96,23.96L138.01,25.06L138.46,24.53L138.96,26.72L139.06,25.96L139.11,25.65L139.46,24.88L139.61,25.87L139.86,25.55L139.91,26.01L141.01,20.35L141.21,22.03L141.26,22.6L142.26,24.08L142.41,23.61L142.46,23.41L143.06,19.74L143.11,19.4L143.31,18.49L143.51,21.42L143.56,22L143.81,24.11L144.16,20.61L144.21,19.96L144.46,18.41L144.71,22.42L144.76,23.49L145.06,27.48L145.46,23.2L145.51,22.93L146.06,21.45L146.26,22.11L146.31,22.65L147.15,29.53L147.45,27.03L147.5,26.6L148.15,22.3L148.5,23.61L148.55,24.01L149,27.59L149.4,25.35L149.45,24.67L149.6,23.69L150,26.42L150.05,27.09L150.45,33.34L150.85,29.92L150.9,29.01L151.4,27.72L151.45,27.13L151.85,23.46L152.25,25.6L152.3,26.09L152.95,27.61L153.1,27.05L153.15,26.82L154.8,22.31L154.85,22.46L154.9,22.44L155.75,23.56L155.8,24.17L156.7,32.32L157.19,30.75L157.24,30.48L157.64,31.32L158.09,30.82L158.14,30.73L158.39,30.48L158.94,31.07L158.99,30.83L159.89,28.8L159.94,28.46L160.54,25.84L160.94,26.83L160.99,26.93L161.19,27.13L161.44,25.9L161.49,25.97L161.54,25.87L161.74,25.23L162.19,26L162.24,26.21L162.64,27.42L162.94,26.15L162.99,25.78L163.34,24.65L163.79,25.14L163.84,25.35L163.99,25.23L164.34,28.86L164.39,29.42L165.49,33.1L165.54,33.06L166.09,34.02L166.54,33.52L166.59,33.28L166.98,33.18L167.48,34.29L167.53,33.92L167.73,34.07L169.08,29.55L169.18,29.67L169.23,29.7L170.68,34.49L170.83,34.03L170.88,33.65L171.18,34.13L171.63,32.25L171.73,33.02L171.78,33.17L172.63,36.16L172.88,35.79L172.93,35.98L172.98,36.18L173.48,35.18L173.53,35.27L174.33,35.64L174.38,35.89L175.43,36.67L175.48,36.96L176.03,36.98L176.18,37.33L176.23,37.56L177.13,34.62L177.18,33.92L178.17,30.12L178.22,30.35L178.27,30.37L179.92,24.06L179.97,24.26L180.02,24.04L181.47,28.21L181.82,27.77L181.87,27.61L181.97,27.14L182.22,28.45L182.42,28.23L182.47,28.59L182.62,28.97L182.97,27.5L183.02,27.09L183.27,28.17L184.07,23.75L184.32,24.55L184.37,25.45L185.17,28.66L185.27,28.61L185.32,28.76L185.92,28.47L186.02,28.91L186.07,28.96L186.22,28.64L186.72,29.32L186.77,29.22L186.82,29.35L187.07,28.75L187.11,28.16L187.56,24.8L188.01,25.89L188.06,26.27L188.21,26.62L188.51,25.44L188.56,25.06L188.76,24.43L189.16,25.43L189.21,25.3L189.26,25.33L189.81,23.87L190.01,24.94L190.06,25.28L191.16,29.07L191.21,28.94L191.86,27.76L192.16,28.46L192.21,28.45L192.51,28.88L192.76,27.97L192.81,27.8L192.96,27.7L193.11,28.5L193.16,28.95L193.51,31.43L193.66,26.82L193.71,25.25L194.76,14.7L194.81,14.5L194.86,14.7L195.31,13.62L195.36,13.19L195.66,13.1L195.76,13.46L195.81,13.8L197.6,24.29" style="vector-effect: none; fill: none; stroke: rgb(0, 204, 150); stroke-opacity: 1; stroke-width: 1.8px; opacity: 1;"/></g><g class="points"/><g class="text"/></g><g class="trace scatter traceef40bf" style="stroke-miterlimit: 2; opacity: 1;"><g class="fills"/><g class="errorbars"/><g class="lines"><path class="js-line" d="M0.2,182.61L0.3,189.04L0.9,183.1L0.95,182.49L2,175.66L2.15,175.75L2.2,175.83L2.45,175.89L2.65,175.41L2.7,175.12L2.9,174.59L3.3,175.5L3.35,175.49L3.4,175.58L4.1,174.11L4.3,174.63L4.35,174.83L5.3,173.47L5.4,173.64L5.44,173.9L6.34,173.3L6.39,173.28L6.69,172.77L7.04,173.41L7.09,173.55L7.19,173.91L7.69,173.07L7.74,173.31L7.79,173.11L8.14,172.14L8.59,172.66L8.64,172.75L9.19,173.83L9.39,171.16L9.54,171.83L9.59,171.96L9.69,171.65L9.84,173.62L9.89,174.53L10.54,176.43L10.69,175.24L10.74,174.97L11.99,170.19L12.09,170.74L12.14,170.85L12.49,171.18L12.74,169.36L13.04,169.88L13.09,170.35L13.49,173.49L13.79,170.7L13.84,170.06L14.44,165.82L14.84,167.07L14.89,167.38L15.98,171.21L16.03,172.07L16.18,172.85L16.68,171.68L16.73,172.05L16.78,171.76L16.88,171.61L17.08,172.13L17.33,172.17L17.38,172.36L17.53,172.49L18.03,171.6L18.23,172.04L18.28,172.31L18.68,172.92L19.13,172.58L19.18,172.49L20.33,175.62L20.48,175.47L20.53,175.51L21.58,175.65L21.63,175.55L21.68,175.23L22.43,170.67L22.88,171.76L22.93,172.03L23.28,172.6L23.73,171.41L23.78,170.28L23.98,170.26L24.03,169.71L24.08,168.61L25.18,162.55L25.23,162.29L26.18,166.16L26.77,165.61L26.82,165.65L27.92,163.58L27.97,163.52L28.27,162.83L28.72,163.51L28.77,163.54L29.07,164.18L29.52,163.59L29.57,163.41L30.32,163.89L30.37,163.69L30.67,164.36L31.02,163.61L31.07,163.43L31.17,163.31L31.32,164.17L31.37,164.2L31.42,164.32L31.67,165.26L31.97,163.76L32.02,164L32.07,163.55L32.92,162.35L32.97,162.67L33.02,164.45L33.52,145.58L33.97,153.72L34.02,158.85L34.12,163.01L34.42,152.82L34.52,153.43L34.57,152.14L34.62,149.49L34.97,169.62L35.02,168.72L35.22,163.44L35.27,161.1L35.52,147.91L35.57,143.89L35.67,137.55L36.12,157.14L36.17,159.22L36.37,162.84L36.52,161.51L36.57,159.17L36.87,147.6L37.27,159.65L37.31,159.45L37.36,159.53L37.66,159.24L37.91,160.27L37.96,160.29L38.46,161.47L38.66,159.9L38.71,160.09L39.11,159.04L39.26,160.75L39.31,161.73L39.61,164.21L39.76,160.94L39.81,159.26L40.11,156.37L40.41,161.78L40.46,162.51L40.66,164.62L41.01,160.82L41.06,159.84L41.41,158.91L41.76,159.91L41.81,160.21L42.21,161.2L42.26,161.35L42.61,161.57L43.36,159.27L43.41,159.45L43.46,159.68L43.86,160.78L44.06,159.78L44.11,159.67L44.31,159.22L44.56,160.94L44.61,161.33L44.81,162.01L45.01,160.62L45.06,160.06L45.36,156.7L45.76,160.03L45.81,160.77L47.31,150.47L47.51,150.87L47.56,151.08L47.75,152.79L47.85,148.4L47.9,146.01L48.1,133.79L48.5,152L48.55,153.76L48.6,155.7L48.8,148.67L49.3,154.56L49.35,154.03L49.5,152.33L50,155.12L50.05,155.49L50.6,157.12L50.65,158.05L51.95,167.61L52,167.53L53.5,166.15L53.55,165.02L54.15,156.49L54.6,157.85L54.65,157.99L55.5,158.56L55.55,158.37L56.05,156.3L56.4,157.89L56.45,158.56L56.6,162.1L56.95,151.32L57,149.72L57.35,157.14L57.8,147.64L57.85,147.31L57.95,146.57L58.29,149.43L58.34,150.47L58.84,156.15L59.14,153.86L59.19,151.11L60.29,126.76L60.34,126.39L60.44,126.14L60.54,127.67L60.59,131.95L61.59,152.27L61.64,152.72L63.14,146.84L63.19,146.67L63.24,146.83L63.64,146.07L63.79,146.26L63.84,146.07L64.54,144.76L64.74,145.26L64.79,145.28L65.19,144.96L65.24,144.45L65.74,144.75L66.04,143.19L66.09,143.49L66.14,144.19L66.64,157.68L66.84,147.77L66.89,143.92L67.14,129.53L67.54,145.02L67.59,144.27L67.64,143.39L67.69,143.12L67.84,143.66L68.34,143.29L68.39,143.48L68.98,143.29L69.03,143.01L69.68,142.46L69.83,142.59L69.88,142.85L70.93,141.82L71.03,142.46L71.08,142.5L71.73,144.16L71.98,143.46L72.03,142.88L72.23,142.44L72.73,145.54L73.13,144.45L73.18,144.12L73.23,143.84L73.63,145.04L73.88,144.17L73.93,144.43L74.23,143.12L74.53,144.26L74.58,144.87L75.78,150.59L75.93,149.33L75.98,148.78L76.73,145.6L76.78,146.6L76.83,147.39L76.98,147.83L77.48,143.72L77.53,143.36L77.68,143.72L77.88,143.1L77.93,144.37L78.13,144.1L78.28,145.07L78.33,145.53L78.68,147.89L79.07,146.43L79.12,146L79.42,147.53L79.92,144.44L80.02,145.12L80.07,145.43L80.27,145.23L81.27,149.42L81.42,148.66L81.47,148.23L81.82,146.64L82.22,147.47L82.27,147.81L82.37,148.64L82.87,147.73L83.02,147.85L83.07,148.24L83.17,147.74L83.62,149.58L83.67,149.77L84.47,149.1L84.52,149.34L84.57,149.79L84.82,150.11L85.32,147.13L85.52,148.08L85.57,148.05L85.97,148.36L86.47,146.58L86.62,146.92L86.67,146.98L87.07,146.8L87.67,149.22L87.92,148.51L87.97,148.5L88.57,150.16L88.82,149.3L88.87,148.93L89.66,147.16L89.81,147.65L89.86,148.26L91.06,150.75L91.26,150.5L91.31,150.48L91.76,150L91.81,149.8L91.91,149.93L92.21,149.12L92.31,149.25L92.36,148.98L92.46,149.17L92.76,148.19L92.86,148.32L92.91,148.21L93.61,149.45L94.06,149.18L94.11,149.06L94.61,150.3L95.06,149.95L95.11,149.8L95.21,150.16L95.66,149.41L95.86,149.8L95.91,150.04L95.96,149.87L96.46,150.68L96.51,150.8L96.71,150.38L97.21,150.95L97.26,151.07L97.41,151.16L97.91,150.73L97.96,150.95L98.01,151.31L99.11,152.5L99.16,152.18L100.05,153.51L100.1,153.47L100.15,153.04L100.6,152.77L100.75,153.22L100.8,153.58L101.1,154L101.4,153.13L101.45,153.18L101.6,152.85L102,154.18L102.05,154.39L103.05,155.03L103.15,154.71L103.2,154.33L103.5,154.55L103.85,154.11L103.95,154.23L104,154.28L104.8,155.65L104.85,155.34L104.9,155.52L106,156.45L106.05,156.63L106.55,157.18L106.85,156.62L106.9,156.45L107.05,156.19L107.25,157.13L107.3,157.1L107.35,157.51L107.45,157.3L107.6,157.82L107.9,157.86L107.95,158.04L108.1,157.99L108.2,158.58L108.25,158.81L109.1,158.79L109.15,159.12L109.34,158.92L110.09,160.04L110.19,159.47L110.24,159.3L110.49,159.62L110.79,158.94L110.84,158.94L110.99,158.69L111.24,159.65L111.39,159.66L111.44,159.74L112.49,161.32L112.54,161.06L113.39,161.77L113.54,161.67L113.59,161.6L113.64,161.34L113.89,163.11L113.94,164.18L114.99,172.14L115.04,172.03L116.09,169.93L116.14,169.93L116.94,171.8L117.19,171.15L117.24,170.9L117.39,170.32L117.79,171.41L117.94,171.2L117.99,171.03L118.84,171.82L119.14,171.51L119.19,171.23L119.34,170.38L119.83,171.52L119.88,171.43L119.93,171.41L121.08,172.88L121.13,172.87L121.18,172.69L121.58,173.91L121.63,174.29L122.18,173.34L122.43,174.65L122.48,174.64L122.93,172.51L123.23,174.04L123.28,174.36L123.48,174.77L123.88,173.49L123.93,173.15L124.53,172.82L124.68,173.17L124.73,172.91L124.98,173.41L125.43,172.82L125.48,172.78L126.03,170.07L126.08,169.61L126.53,168.18L126.88,168.73L126.93,168.85L127.63,169.72L127.68,170.11L128.93,173.26L128.98,173.41L129.83,179.33L129.88,179.78L130.42,176.53L130.67,178.26L130.72,178.83L131.57,179.98L131.62,180.13L132.17,184.11L132.62,182.48L132.67,182.36L133.07,182.85L133.12,182.36L133.17,181.78L134.62,166.47L134.77,167.76L134.82,168.17L135.42,171.81L135.77,170.53L135.82,170.51L136.42,168.97L136.67,169.83L136.72,170.31L137.42,171.5L137.62,170.85L137.67,170.86L137.87,171.47L138.22,170.78L138.27,170.66L138.37,170.28L138.67,171.33L138.82,171.28L138.87,171.41L139.22,172.1L139.27,172.26L141.01,176.11L141.21,175.87L141.26,175.63L141.76,176.77L142.06,175.95L142.11,175.8L142.46,176.06L143.36,173L143.46,174.4L143.51,174.83L144.36,179.38L144.46,179L144.51,179.16L144.56,179.38L144.96,178.16L145.01,178.2L145.06,177.5L145.16,178.05L145.51,176.34L145.56,176.54L145.61,175.95L145.81,174.6L146.16,177.23L146.21,177.66L146.81,179.61L147.01,178.66L147.06,178.19L147.46,177.13L147.66,178.56L147.71,178.51L148.01,179.14L148.16,177.85L148.21,177.17L148.61,175.24L149.01,176.77L149.06,177.08L149.26,176.95L149.36,177.76L149.41,177.9L149.86,176.8L150.01,177.69L150.06,178.48L150.96,181.54L151.25,180.48L151.3,180.18L152.1,176.15L152.3,177.53L152.35,178.02L152.45,178.61L152.8,176.45L153,177.23L153.05,177.41L153.15,177.35L153.7,180.18L154.15,179.21L154.2,179.26L155.05,180.3L155.2,180.04L155.25,179.68L155.4,180.39L155.8,178.55L155.85,178.64L155.9,178.28L156,177.55L156.45,179.31L156.5,179.97L157.4,181.2L157.45,180.81L158.2,177.8L158.55,178.12L158.6,178.3L158.9,176.91L159.15,177.47L159.2,178.06L159.45,176.68L159.5,176.52L159.6,175.73L160,178.1L160.05,178.04L160.1,178.7L160.6,176.04L160.85,177.77L160.9,178.39L161,177.84L161.1,180.13L161.39,179.49L161.44,180.09L161.49,180.28L161.59,179.24L161.84,179.28L161.89,178.67L162.19,177.71L162.49,179.69L162.54,180.09L162.64,180.26L162.74,179.66L162.79,178.91L162.94,179.56L163.14,177.61L163.24,179.09L163.29,179.93L163.54,180.36L164.24,176.74L164.54,178.03L164.59,178.15L164.89,179.67L165.34,178.14L165.39,177.56L165.44,178.28L166.04,176.7L166.09,176.82L166.14,176.64L166.39,176L166.59,177.52L166.64,178.25L166.89,180.21L167.34,178.32L167.39,177.81L167.54,178.36L167.89,177.15L167.94,176.61L168.14,176.24L168.44,177.43L168.79,176.91L168.84,176.51L169.09,176.79L169.24,175.5L169.49,176.57L169.54,175.89L170.19,181.31L170.54,179.56L170.59,179.02L170.74,180.21L170.99,177.98L171.39,179.92L171.44,179.94L171.54,180.33L171.83,177.87L171.88,178.01L171.93,177.39L172.18,178.3L172.78,176.2L172.83,176.23L172.88,176.96L172.93,176.53L173.28,179.26L173.33,179.63L173.58,177.98L173.93,180.48L173.98,181.25L174.93,181.82L174.98,181.51L175.68,179.87L175.93,179.97L175.98,180.15L176.23,180.98L176.48,179.28L176.53,179.11L177.43,172.16L177.88,172.44L177.93,174.55L178.43,175.25L178.48,175.4L179.33,176.24L179.38,176.03L179.53,176.16L180.03,175.83L180.13,175.9L180.18,176.19L181.23,178.74L181.28,178.49L182.22,178.1L182.27,178.17L182.32,178.83L183.62,183.44L183.67,183.56L184.52,185.35L184.67,185.22L184.72,184.88L185.62,183.55L185.72,183.69L185.77,183.65L186.62,185.2L186.97,184.66L187.02,184.28L187.37,182.99L187.77,183.85L187.82,184.13L190.27,178.35L190.57,178.94L190.62,179.22L191.12,177.55L191.17,177.24L191.37,177.59L191.62,177.43L191.67,176.57L192.16,177.43L192.51,177.02L192.56,176.89L193.31,177.83L193.51,177.45L193.56,176.99L193.96,175.62L194.46,175.98L194.51,175.93L194.71,176.8L194.76,177.24L195.16,177.85L195.31,176.94L195.51,177.18L195.56,177.01L196.36,175.36L196.61,176.04L196.66,176.27L197.71,177.7L197.76,177.7L198.46,176.63L198.51,176.58L199.31,176.93L199.36,176.95L200.01,177.57L200.06,177.65L200.21,177.79L200.56,177.09L200.61,177L200.96,177.05L201.21,177.47L201.26,177.54L201.66,177.51L201.9,177.12L201.95,177.05L203.15,176.64L203.2,176.68L204.35,176.6L204.4,176.57L205.4,176.82L205.45,176.89L206.5,178.59" style="vector-effect: none; fill: none; stroke: rgb(171, 99, 250); stroke-opacity: 1; stroke-width: 1.8px; opacity: 1;"/></g><g class="points"/><g class="text"/></g><g class="trace scatter tracecf150b" style="stroke-miterlimit: 2; opacity: 1;"><g class="fills"/><g class="errorbars"/><g class="lines"><path class="js-line" d="M0,172.28L20.33,161.98L20.38,161.95L33.92,153.88L33.97,153.85L55.25,138.84L55.3,138.8L73.43,123.37L73.48,123.32L83.22,113.89L83.27,113.84L103.7,91.11L103.75,91.05L117.64,73.22L117.69,73.15L142.51,39.68L142.56,39.63L146.41,37.04L146.46,37.02L150.81,36.35L150.86,36.35L166.04,36.3L166.09,36.3L207,36.31" style="vector-effect: none; fill: none; stroke: rgb(0, 0, 0); stroke-opacity: 1; stroke-dasharray: 3px, 3px; stroke-width: 1.8px; opacity: 1;"/></g><g class="points"/><g class="text"/></g></g></g></g><path class="xlines-above crisp" d="M0,0" style="fill: none;"/><path class="ylines-above crisp" d="M0,0" style="fill: none;"/><g class="overlines-above"/><g class="xaxislayer-above"><g class="xtick"><text text-anchor="middle" x="0" y="239" transform="translate(20,0)" style="font-family: 'Open Sans', verdana, arial, sans-serif; font-size: 8px; fill: rgb(0, 0, 0); fill-opacity: 1; white-space: pre; opacity: 1;">0</text></g><g class="xtick"><text text-anchor="middle" x="0" y="239" style="font-family: 'Open Sans', verdana, arial, sans-serif; font-size: 8px; fill: rgb(0, 0, 0); fill-opacity: 1; white-space: pre; opacity: 1;" transform="translate(37.96,0)">6</text></g><g class="xtick"><text text-anchor="middle" x="0" y="239" style="font-family: 'Open Sans', verdana, arial, sans-serif; font-size: 8px; fill: rgb(0, 0, 0); fill-opacity: 1; white-space: pre; opacity: 1;" transform="translate(55.93,0)">12</text></g><g class="xtick"><text text-anchor="middle" x="0" y="239" style="font-family: 'Open Sans', verdana, arial, sans-serif; font-size: 8px; fill: rgb(0, 0, 0); fill-opacity: 1; white-space: pre; opacity: 1;" transform="translate(73.89,0)">18</text></g><g class="xtick"><text text-anchor="middle" x="0" y="239" style="font-family: 'Open Sans', verdana, arial, sans-serif; font-size: 8px; fill: rgb(0, 0, 0); fill-opacity: 1; white-space: pre; opacity: 1;" transform="translate(91.85,0)">24</text></g><g class="xtick"><text text-anchor="middle" x="0" y="239" style="font-family: 'Open Sans', verdana, arial, sans-serif; font-size: 8px; fill: rgb(0, 0, 0); fill-opacity: 1; white-space: pre; opacity: 1;" transform="translate(109.82,0)">30</text></g><g class="xtick"><text text-anchor="middle" x="0" y="239" style="font-family: 'Open Sans', verdana, arial, sans-serif; font-size: 8px; fill: rgb(0, 0, 0); fill-opacity: 1; white-space: pre; opacity: 1;" transform="translate(127.78,0)">36</text></g><g class="xtick"><text text-anchor="middle" x="0" y="239" style="font-family: 'Open Sans', verdana, arial, sans-serif; font-size: 8px; fill: rgb(0, 0, 0); fill-opacity: 1; white-space: pre; opacity: 1;" transform="translate(145.74,0)">42</text></g><g class="xtick"><text text-anchor="middle" x="0" y="239" style="font-family: 'Open Sans', verdana, arial, sans-serif; font-size: 8px; fill: rgb(0, 0, 0); fill-opacity: 1; white-space: pre; opacity: 1;" transform="translate(163.71,0)">48</text></g><g class="xtick"><text text-anchor="middle" x="0" y="239" style="font-family: 'Open Sans', verdana, arial, sans-serif; font-size: 8px; fill: rgb(0, 0, 0); fill-opacity: 1; white-space: pre; opacity: 1;" transform="translate(181.67,0)">54</text></g><g class="xtick"><text text-anchor="middle" x="0" y="239" style="font-family: 'Open Sans', verdana, arial, sans-serif; font-size: 8px; fill: rgb(0, 0, 0); fill-opacity: 1; white-space: pre; opacity: 1;" transform="translate(199.64,0)">60</text></g><g class="xtick"><text text-anchor="middle" x="0" y="239" style="font-family: 'Open Sans', verdana, arial, sans-serif; font-size: 8px; fill: rgb(0, 0, 0); fill-opacity: 1; white-space: pre; opacity: 1;" transform="translate(217.6,0)">66</text></g></g><g class="yaxislayer-above"><g class="ytick"><text text-anchor="end" x="19" y="2.8" transform="translate(0,192.28)" style="font-family: 'Open Sans', verdana, arial, sans-serif; font-size: 8px; fill: rgb(0, 0, 0); fill-opacity: 1; white-space: pre; opacity: 1;">0.1</text></g><g class="ytick"><text text-anchor="end" x="19" y="2.8" style="font-family: 'Open Sans', verdana, arial, sans-serif; font-size: 8px; fill: rgb(0, 0, 0); fill-opacity: 1; white-space: pre; opacity: 1;" transform="translate(0,145.75)">0.2</text></g><g class="ytick"><text text-anchor="end" x="19" y="2.8" style="font-family: 'Open Sans', verdana, arial, sans-serif; font-size: 8px; fill: rgb(0, 0, 0); fill-opacity: 1; white-space: pre; opacity: 1;" transform="translate(0,99.22)">0.3</text></g><g class="ytick"><text text-anchor="end" x="19" y="2.8" style="font-family: 'Open Sans', verdana, arial, sans-serif; font-size: 8px; fill: rgb(0, 0, 0); fill-opacity: 1; white-space: pre; opacity: 1;" transform="translate(0,52.68)">0.4</text></g></g><g class="overaxes-above"/></g></g><g class="polarlayer"/><g class="smithlayer"/><g class="ternarylayer"/><g class="geolayer"/><g class="funnelarealayer"/><g class="pielayer"/><g class="iciclelayer"/><g class="treemaplayer"/><g class="sunburstlayer"/><g class="glimages"/><defs id="topdefs-341888"><g class="clips"/><clipPath id="legend341888"><rect width="69" height="105" x="0" y="0"/></clipPath></defs><g class="layer-above"><g class="imagelayer"/><g class="shapelayer"/></g><g class="infolayer"><g class="legend" pointer-events="all" transform="translate(231,20)"><rect class="bg" shape-rendering="crispEdges" style="stroke: rgb(68, 68, 68); stroke-opacity: 1; fill: rgb(255, 255, 255); fill-opacity: 1; stroke-width: 0px;" width="69" height="105" x="0" y="0"/><g class="scrollbox" transform="" clip-path="url(#legend341888)"><g class="groups"><g class="traces" transform="translate(0,14.5)" style="opacity: 1;"><text class="legendtext" text-anchor="start" x="40" y="3.12" style="font-family: 'Open Sans', verdana, arial, sans-serif; font-size: 8px; fill: rgb(0, 0, 0); fill-opacity: 1; white-space: pre;">M0</text><g class="layers" style="opacity: 1;"><g class="legendfill"/><g class="legendlines"><path class="js-line" d="M5,0h30" style="fill: none; stroke: rgb(99, 110, 250); stroke-opacity: 1; stroke-width: 1.8px;"/></g><g class="legendsymbols"><g class="legendpoints"/></g></g><rect class="legendtoggle" x="0" y="-9.5" width="63.46875" height="19" style="fill: rgb(0, 0, 0); fill-opacity: 0;"/></g><g class="traces" transform="translate(0,33.5)" style="opacity: 1;"><text class="legendtext" text-anchor="start" x="40" y="3.12" style="font-family: 'Open Sans', verdana, arial, sans-serif; font-size: 8px; fill: rgb(0, 0, 0); fill-opacity: 1; white-space: pre;">M1</text><g class="layers" style="opacity: 1;"><g class="legendfill"/><g class="legendlines"><path class="js-line" d="M5,0h30" style="fill: none; stroke: rgb(239, 85, 59); stroke-opacity: 1; stroke-width: 1.8px;"/></g><g class="legendsymbols"><g class="legendpoints"/></g></g><rect class="legendtoggle" x="0" y="-9.5" width="63.46875" height="19" style="fill: rgb(0, 0, 0); fill-opacity: 0;"/></g><g class="traces" transform="translate(0,52.5)" style="opacity: 1;"><text class="legendtext" text-anchor="start" x="40" y="3.12" style="font-family: 'Open Sans', verdana, arial, sans-serif; font-size: 8px; fill: rgb(0, 0, 0); fill-opacity: 1; white-space: pre;">M2</text><g class="layers" style="opacity: 1;"><g class="legendfill"/><g class="legendlines"><path class="js-line" d="M5,0h30" style="fill: none; stroke: rgb(0, 204, 150); stroke-opacity: 1; stroke-width: 1.8px;"/></g><g class="legendsymbols"><g class="legendpoints"/></g></g><rect class="legendtoggle" x="0" y="-9.5" width="63.46875" height="19" style="fill: rgb(0, 0, 0); fill-opacity: 0;"/></g><g class="traces" transform="translate(0,71.5)" style="opacity: 1;"><text class="legendtext" text-anchor="start" x="40" y="3.12" style="font-family: 'Open Sans', verdana, arial, sans-serif; font-size: 8px; fill: rgb(0, 0, 0); fill-opacity: 1; white-space: pre;">M3</text><g class="layers" style="opacity: 1;"><g class="legendfill"/><g class="legendlines"><path class="js-line" d="M5,0h30" style="fill: none; stroke: rgb(171, 99, 250); stroke-opacity: 1; stroke-width: 1.8px;"/></g><g class="legendsymbols"><g class="legendpoints"/></g></g><rect class="legendtoggle" x="0" y="-9.5" width="63.46875" height="19" style="fill: rgb(0, 0, 0); fill-opacity: 0;"/></g><g class="traces" transform="translate(0,90.5)" style="opacity: 1;"><text class="legendtext" text-anchor="start" x="40" y="3.12" style="font-family: 'Open Sans', verdana, arial, sans-serif; font-size: 8px; fill: rgb(0, 0, 0); fill-opacity: 1; white-space: pre;">Model</text><g class="layers" style="opacity: 1;"><g class="legendfill"/><g class="legendlines"><path class="js-line" d="M5,0h30" style="fill: none; stroke: rgb(0, 0, 0); stroke-opacity: 1; stroke-dasharray: 3px, 3px; stroke-width: 1.8px;"/></g><g class="legendsymbols"><g class="legendpoints"/></g></g><rect class="legendtoggle" x="0" y="-9.5" width="63.46875" height="19" style="fill: rgb(0, 0, 0); fill-opacity: 0;"/></g></g></g><rect class="scrollbar" rx="20" ry="3" width="0" height="0" style="fill: rgb(128, 139, 164); fill-opacity: 1;" x="0" y="0"/></g><g class="g-gtitle"><text class="gtitle" x="15" y="10" text-anchor="start" dy="0em" style="opacity: 1; font-family: 'Open Sans', verdana, arial, sans-serif; font-size: 8px; fill: rgb(0, 0, 0); fill-opacity: 1; white-space: pre;"><tspan style="font-style:italic">O. anthropi</tspan></text></g><g class="g-xtitle" transform="translate(0,1.9000000000000057)"><text class="xtitle" x="123.5" y="246.1" text-anchor="middle" style="opacity: 1; font-family: 'Open Sans', verdana, arial, sans-serif; font-size: 8px; fill: rgb(0, 0, 0); fill-opacity: 1; white-space: pre;">Time [h]</text></g><g class="g-ytitle"/></g></svg>