<svg class="main-svg" xmlns="http://www.w3.org/2000/svg" xmlns:xlink="http://www.w3.org/1999/xlink" width="150" height="150" style="" viewBox="0 0 150 150"><rect x="0" y="0" width="150" height="150" style="fill: rgb(255, 255, 255); fill-opacity: 1;"/><defs id="defs-c0f4ad"><g class="clips"><clipPath id="clipc0f4adxyplot" class="plotclip"><rect width="114" height="100"/></clipPath><clipPath class="axesclip" id="clipc0f4adx"><rect x="30" y="0" width="114" height="150"/></clipPath><clipPath class="axesclip" id="clipc0f4ady"><rect x="0" y="20" width="150" height="100"/></clipPath><clipPath class="axesclip" id="clipc0f4adxy"><rect x="30" y="20" width="114" height="100"/></clipPath></g><g class="gradients"/><g class="patterns"/></defs><g class="bglayer"/><g class="layer-below"><g class="imagelayer"/><g class="shapelayer"/></g><g class="cartesianlayer"><g class="subplot xy"><g class="layer-subplot"><g class="shapelayer"/><g class="imagelayer"/></g><g class="minor-gridlayer"><g class="x"/><g class="y"/></g><g class="gridlayer"><g class="x"><path class="xgrid crisp" transform="translate(48.96,0)" d="M0,20v100" style="stroke: rgb(128, 128, 128); stroke-opacity: 1; stroke-width: 0.2px;"/><path class="xgrid crisp" transform="translate(67.92,0)" d="M0,20v100" style="stroke: rgb(128, 128, 128); stroke-opacity: 1; stroke-width: 0.2px;"/><path class="xgrid crisp" transform="translate(86.88,0)" d="M0,20v100" style="stroke: rgb(128, 128, 128); stroke-opacity: 1; stroke-width: 0.2px;"/><path class="xgrid crisp" transform="translate(105.84,0)" d="M0,20v100" style="stroke: rgb(128, 128, 128); stroke-opacity: 1; stroke-width: 0.2px;"/><path class="xgrid crisp" transform="translate(124.8,0)" d="M0,20v100" style="stroke: rgb(128, 128, 128); stroke-opacity: 1; stroke-width: 0.2px;"/></g><g class="y"><path class="ygrid crisp" transform="translate(0,95)" d="M30,0h114" style="stroke: rgb(128, 128, 128); stroke-opacity: 1; stroke-width: 0.2px;"/><path class="ygrid crisp" transform="translate(0,70)" d="M30,0h114" style="stroke: rgb(128, 128, 128); stroke-opacity: 1; stroke-width: 0.2px;"/><path class="ygrid crisp" transform="translate(0,45)" d="M30,0h114" style="stroke: rgb(128, 128, 128); stroke-opacity: 1; stroke-width: 0.2px;"/></g></g><g class="zerolinelayer"/><g class="layer-between"><g class="shapelayer"/><g class="imagelayer"/></g><path class="xlines-below"/><path class="ylines-below"/><g class="overlines-below"/><g class="xaxislayer-below"/><g class="yaxislayer-below"/><g class="overaxes-below"/><g class="overplot"><g class="xy" transform="translate(30,20)" clip-path="url(#clipc0f4adxyplot)"><g class="scatterlayer mlayer"><g class="trace scatter trace69eb72" style="stroke-miterlimit: 2; opacity: 1;"><g class="fills"/><g class="errorbars"/><g class="lines"><path class="js-line" d="M0.24,95.5L1.82,95L2.08,95L10.77,94.25L11.03,94L15.77,93.25L16.04,93L17.35,92.75L17.62,92.75L19.72,91.75L19.99,91.75L22.62,90L22.88,90.25L27.63,85.5L27.89,85L31.58,76L31.84,76.25L34.47,68.75L34.74,69L40.79,24L41.06,32.75L42.37,32.75L42.64,31.5L42.9,32.25L43.43,31.75L43.69,31L43.95,31.25L44.22,29.25L44.48,30.25L44.74,30L45.01,29.25L45.8,29.5L46.06,29L46.32,29.5L46.59,28.75L46.85,28.25L47.11,29L47.38,28.25L47.64,28L48.17,28.5L48.43,27.5L48.69,26.75L48.96,28L49.22,27L49.48,27L50.01,28L50.54,27.75L50.8,27.25L51.59,27.75L51.85,27.25L52.12,27.25L53.17,27.75L53.43,27.75L54.49,26.25L54.75,26.5L55.8,26.5L56.07,26.25L56.59,25.5L56.86,26.25L57.12,26L57.91,25.75L58.17,26L58.7,26L58.96,25L59.23,24.75L59.49,25.75L61.6,25L61.86,24.75L62.12,23.75L62.39,24.5L62.65,25L62.91,25.25L63.18,24.25L63.97,25.25L64.23,24.25L65.81,25L66.07,23.75L66.86,25L67.13,24.25L67.39,24.25L68.44,25L68.71,24.75L68.97,25.5L69.23,24.25L69.5,24.75L69.76,25.25L70.55,24.5L70.81,25L72.13,23.5L72.39,24.25L72.66,24L72.92,24.75L73.18,25L73.45,23.75L73.97,24L74.24,24L74.76,24L75.03,24.5L76.08,24.5L76.34,24L77.66,25L77.92,24.75L78.19,25.25L78.45,25L78.71,24.5L79.77,25.25L80.03,24.75L80.82,25.25L81.08,24.75L81.35,24.75L82.14,24.5L82.4,25.5L82.66,24.5L83.19,25.25L83.45,25.25L84.24,25.5L84.51,24.5L84.77,24.5L85.03,25.5L85.3,24L85.56,24.75L85.82,25.5L86.88,25.5L87.14,26L87.67,25.25L87.93,26L88.19,26L88.98,25.75L89.25,25.75L90.04,26L90.3,25.5L91.35,26L91.62,25.5L91.88,26.25L92.41,25.75L92.67,25.25L94.25,25.75L94.51,25.5L97.15,25.75L97.41,26.25L97.94,25.75L98.2,26.5L99.52,25.75L99.78,26.25L100.83,26.25L101.1,25.5L101.36,25L101.62,26.25L102.68,25.5L102.94,26.25L103.99,26L104.26,26.25L106.1,27L106.36,26.5L106.63,27L106.89,26.5L107.15,26L108.21,27L108.47,26.75L109.52,25.5L109.79,25.75L110.05,25.75L112.16,26.75L112.42,26.25L113.47,26.75L113.74,26L114,26.25" style="vector-effect: none; fill: none; stroke: rgb(140, 86, 75); stroke-opacity: 1; stroke-width: 1.5px; opacity: 1;"/></g><g class="points"/><g class="text"/></g><g class="trace scatter trace5f6c5e" style="stroke-miterlimit: 2; opacity: 1;"><g class="fills"/><g class="errorbars"/><g class="lines"><path class="js-line" d="M0.24,95L1.03,94.25L1.29,94.5L1.55,94.5L11.82,93.75L12.09,93.5L15.77,93L16.04,92.75L18.93,92L19.2,91.75L20.78,91.25L21.04,90.75L21.83,90.5L22.09,90.5L23.15,90L23.41,89.5L24.73,88.75L24.99,88.5L25.78,88.25L26.05,87.5L29.21,83.5L29.47,83L30.52,79.5L30.79,78.25L32.1,74.75L32.37,75.75L33.42,72.5L33.68,72.25L35.26,68.25L35.53,68.25L41.32,46.25L41.58,48.25L42.64,42.75L42.9,43L43.16,42L43.95,41.25L44.22,39.25L44.48,40L44.74,39.75L45.01,39L45.27,39.5L45.8,39L46.06,39L49.48,36L49.75,36.25L50.01,36.5L50.27,36L50.54,35.75L52.12,34.25L52.38,34.5L56.59,30.75L56.86,31L58.7,30.25L58.96,29.5L60.28,29L60.54,29.5L62.65,28L62.91,28.5L63.18,27.5L63.7,28L63.97,28L64.23,27L64.76,27.25L65.02,27.5L66.07,26L66.34,26.5L66.6,26.5L66.86,27L67.39,26.5L67.65,26.75L68.71,26.25L68.97,26.75L69.23,25.75L69.76,26.25L70.02,25.75L71.6,25.25L71.87,25L72.66,24.75L72.92,25.5L73.18,25.5L73.45,24.5L74.24,24.75L74.5,24L75.29,25L75.55,24.75L75.82,24.75L76.34,24L76.61,24.75L76.87,25L77.13,24L77.4,24.5L77.66,25L78.71,24.5L78.98,24.5L79.77,24.75L80.03,24.25L81.08,24.25L81.35,23.75L82.14,23.5L82.4,24.5L82.66,23.5L83.19,24.25L83.45,24.25L83.72,24.75L84.24,24.25L84.51,23.25L84.77,23.25L85.03,24.5L85.3,22.75L85.82,24.25L86.09,24L87.4,24.5L87.67,24L88.46,25L88.72,24.5L89.51,24.5L89.77,24.75L90.83,24.25L91.09,24.5L92.14,24.5L92.41,24.5L92.67,23.75L93.2,24.25L93.46,24.25L94.78,24L95.04,24.5L96.88,23.5L97.15,24.25L98.46,24.75L98.73,24.5L98.99,25L99.25,24.5L99.52,24.25L100.83,25L101.1,24L101.36,23.5L101.62,25L102.41,23.75L102.68,24.25L102.94,24.75L103.47,24L103.73,25L103.99,24.25L104.52,25L104.78,25L106.1,25.5L106.36,25.25L106.63,25.5L106.89,25L107.15,24.25L108.21,25.5L108.47,25.5L109.79,24.25L110.05,24.5L112.16,25.75L112.42,25L113.47,25.5L113.74,25L114,25.25" style="vector-effect: none; fill: none; stroke: rgb(148, 103, 189); stroke-opacity: 1; stroke-width: 1.5px; opacity: 1;"/></g><g class="points"/><g class="text"/></g><g class="trace scatter tracee7e856" style="stroke-miterlimit: 2; opacity: 1;"><g class="fills"/><g class="errorbars"/><g class="lines"><path class="js-line" d="M0.24,94.5L4.45,93.75L4.71,93.5L13.93,92.75L14.19,92.5L17.09,91.75L17.35,91.5L18.14,91.25L18.41,91.25L20.51,90.5L20.78,90.25L22.62,89.5L22.88,89.25L24.73,88.5L24.99,88.25L28.68,85.75L28.94,85.75L32.37,82.5L32.63,81.5L33.16,81.25L33.42,80.5L35.26,79.75L35.53,80L37.37,79.5L37.63,79.25L41.06,76.75L41.32,75.5L41.58,76.25L42.11,75.75L42.37,75.5L44.22,73.25L44.48,74L48.43,69.5L48.69,68.5L48.96,68.75L49.22,68.25L49.48,68L51.85,65L52.12,64.25L52.64,63.75L52.91,63.25L54.22,61.25L54.49,60.5L55.54,59.75L55.8,59.25L58.96,55.5L59.23,55L59.75,55.25L60.02,54.5L65.55,49.5L65.81,49.5L66.6,48.25L66.86,48.5L68.71,45.5L68.97,45.25L70.02,42.75L70.29,42.25L71.08,41.75L71.34,41L72.66,40.25L72.92,40.75L75.03,39.25L75.29,39.5L77.13,38L77.4,38.5L77.66,39L78.98,38L79.24,38.25L81.35,36.75L81.61,37.25L82.4,37.75L82.66,36.5L83.72,37.5L83.98,37L84.77,36L85.03,37L85.3,35.25L85.82,36.5L86.09,36.25L87.14,37L87.4,36.5L87.67,35.75L87.93,36.75L88.19,36.5L88.46,36.75L89.25,36L89.51,36.5L89.77,36.75L91.09,36L91.35,36.25L91.62,35.5L92.14,35.75L92.41,35.75L92.93,35.25L93.2,35.5L93.46,35.5L100.83,35.25L101.1,34.75L101.36,34L101.62,35L101.89,35L102.41,34L102.68,34.25L102.94,35L103.47,34.25L103.73,35.25L104.78,34.75L105.05,35L105.84,35.25L106.1,35.25L107.68,34.75L107.94,34.75L108.21,35.25L108.47,35L108.73,34.5L109,35L109.26,34.75L109.52,33.75L111.89,34.25L112.16,34.75L112.42,33.75L112.95,34.25L113.21,34.25L113.74,34.25L114,33.75" style="vector-effect: none; fill: none; stroke: rgb(214, 39, 40); stroke-opacity: 1; stroke-width: 1.5px; opacity: 1;"/></g><g class="points"/><g class="text"/></g><g class="trace scatter trace7f04e9" style="stroke-miterlimit: 2; opacity: 1;"><g class="fills"/><g class="errorbars"/><g class="lines"><path class="js-line" d="M0.24,95.25L2.08,94.5L2.34,94.5L13.4,93.75L13.67,93.5L14.72,93.5L14.98,93.5L21.3,92.75L21.57,92.5L22.62,92.75L22.88,92.5L27.89,91.75L28.15,91.5L29.21,91.5L29.47,91.5L31.84,91.25L32.1,92L33.42,90.75L33.68,90.75L37.63,91L37.9,91.5L39.21,90.5L39.48,90.75L43.69,90.25L43.95,90L45.53,90.5L45.8,91.75L46.59,89.5L46.85,90.25L47.11,90.5L47.38,89.75L47.64,91.25L48.17,89.75L48.69,90.5L48.96,91L51.33,90.75L51.59,91.25L51.85,90.25L52.38,91L52.64,90.5L53.43,89.5L53.7,89.75L53.96,90L55.54,90.5L55.8,90.25L71.6,89.5L71.87,89.25L77.66,88.5L77.92,88.25L78.98,88.25L79.24,88.25L81.08,87.5L81.35,87.5L87.93,87L88.19,86.5L88.98,86.5L89.25,86.25L90.56,86L90.83,86L94.51,85.75L94.78,85.25L95.83,85.5L96.09,85.25L96.36,85.75L96.88,85.25L97.15,85L106.89,84.75L107.15,84.5L108.21,84.5L108.47,84.25L113.21,84L113.47,83.5L113.74,83.75L114,82.75" style="vector-effect: none; fill: none; stroke: rgb(44, 160, 44); stroke-opacity: 1; stroke-width: 1.5px; opacity: 1;"/></g><g class="points"/><g class="text"/></g><g class="trace scatter trace968d86" style="stroke-miterlimit: 2; opacity: 1;"><g class="fills"/><g class="errorbars"/><g class="lines"><path class="js-line" d="M0.24,95.25L2.08,94.5L2.34,94.5L3.4,94.5L3.66,94.5L40.53,95L40.79,95.25L42.11,95L42.37,95L43.16,95L43.43,95.25L44.48,95.25L44.74,95.25L71.87,95.5L72.13,93.75L72.39,95.5L72.92,95.25L73.18,95.5L75.82,95.25L76.08,94.5L76.61,95.75L76.87,95.5L77.13,95L78.71,95.5L78.98,94.5L79.5,95.5L79.77,95.25L80.03,95.5L80.29,95.5L80.56,94.5L81.35,95.5L81.61,95L81.87,95L82.14,95.5L82.4,94.75L82.66,94.25L83.45,95.5L83.72,94.75L84.77,95.5L85.03,95.5L87.93,95.75L88.19,94.75L88.72,95.5L88.98,94.25L89.25,94.25L89.51,95.25L89.77,94L90.04,95.5L90.3,95.25L91.09,95.5L91.35,95.5L92.41,95L92.67,94.5L92.93,94.25L93.2,95.5L94.51,95L94.78,94.5L95.04,95.5L95.3,93.5L95.57,95.5L96.09,95.25L96.36,95.5L96.88,94L97.15,95L97.41,95.5L98.73,95.25L98.99,95.5L100.04,95.5L100.31,95.5L101.62,95.25L101.89,95.5L114,95.5" style="vector-effect: none; fill: none; stroke: rgb(255, 127, 14); stroke-opacity: 1; stroke-width: 1.5px; opacity: 1;"/></g><g class="points"/><g class="text"/></g><g class="trace scatter traceff2699" style="stroke-miterlimit: 2; opacity: 1;"><g class="fills"/><g class="errorbars"/><g class="lines"><path class="js-line" d="M0.24,95.75L1.82,95.25L2.08,95.25L13.67,95.75L13.93,96L14.72,95.75L14.98,96L20.78,96.25L21.04,96.5L32.37,97L32.63,97.25L99.52,97.75L99.78,98L101.1,97.75L101.36,97.75L114,97.75" style="vector-effect: none; fill: none; stroke: rgb(31, 119, 180); stroke-opacity: 1; stroke-width: 1.5px; opacity: 1;"/></g><g class="points"/><g class="text"/></g><g class="trace scatter trace96eda1" style="stroke-miterlimit: 2; opacity: 1;"><g class="fills"/><g class="errorbars"/><g class="lines"><path class="js-line" d="M0.24,95.75L6.03,95L6.29,94.75L12.61,94L12.88,93.75L16.56,93L16.83,92.75L19.2,92L19.46,91.5L19.99,91.5L20.25,91L20.51,91.5L20.78,91.25L21.04,90.75L21.57,90.75L21.83,90.25L22.09,90.75L22.36,90.5L22.62,90L28.68,84L28.94,83.5L30,83.25L30.26,82.25L34.74,68.5L35,67L35.79,64.5L36.05,63.25L38.69,32.75L38.95,30.5L39.21,30.25L39.48,26.5L40.27,19.75L40.53,26.5L41.06,32.25L41.32,31L41.58,32.5L43.16,29L43.43,29.5L45.01,26.5L45.27,27L47.64,23.5L47.9,23.75L48.17,24.25L48.43,23.5L48.69,22.25L48.96,23.75L49.48,22.5L49.75,23.5L50.54,23.5L50.8,22.5L51.59,23.25L51.85,23L52.12,22.75L53.17,23.25L53.43,23.25L54.49,21.75L54.75,22L55.28,22.5L55.54,21.5L56.07,22L56.33,21L56.59,20.75L56.86,21.5L57.12,21.5L57.38,20.75L57.65,21.75L57.91,21.5L58.17,21.5L58.7,21.75L58.96,20.5L59.49,21.25L59.75,21.5L60.02,20.5L60.54,21.25L60.81,21.25L61.86,20.5L62.12,18.75L62.91,21L63.18,20L63.97,20.75L64.23,19.75L65.81,20.5L66.07,19L66.86,20.5L67.13,19.75L67.39,19.75L67.65,20.75L68.18,20.25L68.44,20.5L68.71,20.25L68.97,21L69.23,19.5L69.76,20.75L70.02,19.75L70.29,20L72.13,18.5L72.39,19.25L72.66,19L72.92,20L73.18,20.5L73.45,18.75L74.24,19.75L74.5,19L74.76,18.75L75.03,19.75L75.82,20.25L76.08,19.5L77.4,20L77.66,20.75L78.98,20.25L79.24,21L80.29,20.25L80.56,20L81.35,20.25L81.61,20L82.4,20.75L82.66,19.75L83.72,21.25L83.98,21.25L84.77,20.25L85.03,21.25L85.3,19.5L85.82,21L86.09,21L87.4,21.75L87.67,21.25L88.46,22.5L88.72,22.25L88.98,21.75L90.04,22L90.3,21L91.35,22.25L91.62,21.5L91.88,22.25L92.41,22L92.67,21.25L94.25,21.75L94.51,21.75L96.62,21.75L96.88,21L97.67,22L97.94,21.5L98.99,22.5L99.25,22L99.78,22L100.04,22.5L100.83,22.75L101.1,21.75L101.36,21.25L101.62,22.5L102.41,21.5L102.68,22L102.94,22.5L103.47,21.75L103.73,22.75L103.99,22L104.26,22.75L104.52,23L106.1,23.5L106.36,23.25L106.63,23.5L106.89,22.75L107.15,21.75L108.21,23.25L108.47,23.5L109.52,22L109.79,22L112.16,23.5L112.42,23L113.47,23.75L113.74,23L114,23.25" style="vector-effect: none; fill: none; stroke: rgb(140, 86, 75); stroke-opacity: 1; stroke-width: 1.5px; opacity: 1;"/></g><g class="points"/><g class="text"/></g><g class="trace scatter trace6ed863" style="stroke-miterlimit: 2; opacity: 1;"><g class="fills"/><g class="errorbars"/><g class="lines"><path class="js-line" d="M0.24,96.5L1.82,96L2.08,96L9.72,95.25L9.98,95L14.46,94.25L14.72,94L16.56,93.5L16.83,93L17.62,93.25L17.88,93.25L20.25,91.75L20.51,92.25L21.57,91.25L21.83,91.5L23.41,90L23.67,89.75L24.46,89.25L24.73,88.5L25.52,88.25L25.78,87.75L27.1,87.5L27.36,86.25L27.63,86.75L27.89,86.25L28.15,85.5L28.42,85.75L28.68,85L28.94,84.5L29.21,84.75L29.47,84L29.73,83.75L37.37,62.75L37.63,60.75L38.95,54L39.21,54L41.06,44.5L41.32,45.75L41.58,46L41.85,44.25L43.16,40.75L43.43,41L45.01,38.5L45.27,39L46.59,37.25L46.85,37L48.43,35.5L48.69,34.25L48.96,34.75L49.22,34.25L49.48,34L50.01,34.25L50.27,33.75L50.54,33.5L51.33,32.5L51.59,33L53.17,32L53.43,32L54.75,30.25L55.01,30.25L55.28,30.25L55.54,29.25L56.07,29.25L56.33,28.5L58.17,27.75L58.44,27.75L58.7,27.75L58.96,26.75L60.28,26L60.54,26.5L61.86,25.25L62.12,24L62.91,25.25L63.18,24.25L63.97,24.5L64.23,23.5L65.02,24L65.28,23.25L65.81,23.75L66.07,22.5L66.86,23.5L67.13,22.75L67.39,22.5L67.65,23.5L68.18,22.75L68.44,23L69.23,22L69.5,23L72.13,20.5L72.39,21.25L72.66,20.75L72.92,21.5L73.18,22L73.45,20.5L73.97,20.75L74.24,21L74.76,20.25L75.03,20.75L75.29,21.25L76.34,20.25L76.61,21L76.87,21.25L77.13,20.5L77.4,20.75L77.66,21.5L78.98,20.75L79.24,21.5L80.29,20.75L80.56,20.5L81.35,20.5L81.61,20.25L82.4,20.75L82.66,20L83.72,21.25L83.98,21L84.24,21L84.51,20L85.03,21L85.3,19.5L86.35,21L86.61,21L88.46,22L88.72,21.75L90.83,20.75L91.09,21L91.88,21.75L92.14,21.5L96.62,21L96.88,20.25L98.2,21.75L98.46,21.5L99.78,21.25L100.04,21.75L101.1,21.25L101.36,20.75L101.62,22L102.15,21.25L102.41,21L103.73,22L103.99,21.25L105.31,22.75L105.57,22.5L105.84,23L106.36,22.5L106.63,22.75L107.15,21.25L107.42,22L107.68,22.25L108.73,21.75L109,22.75L109.79,21.25L110.05,21.5L110.31,21.75L111.1,22L111.37,22.25L111.63,22L111.89,22.75L112.16,22.75L112.95,22L113.21,23L113.74,22.25L114,22.75" style="vector-effect: none; fill: none; stroke: rgb(148, 103, 189); stroke-opacity: 1; stroke-width: 1.5px; opacity: 1;"/></g><g class="points"/><g class="text"/></g><g class="trace scatter tracef70572" style="stroke-miterlimit: 2; opacity: 1;"><g class="fills"/><g class="errorbars"/><g class="lines"><path class="js-line" d="M0.24,96.25L6.82,95.5L7.08,95.25L12.88,94.5L13.14,94.25L16.83,93.5L17.09,93.25L18.93,92.75L19.2,92L19.46,92.5L19.99,92L20.25,92L23.15,90.25L23.41,90.5L26.31,88.5L26.57,88.75L27.36,88L27.63,88.25L27.89,88L28.94,87.75L29.21,86.75L30.79,85.25L31.05,85.75L31.31,86L31.58,85.25L31.84,85.25L33.16,84L33.42,84L37.63,80.25L37.9,80.25L39.21,79.5L39.48,79.25L41.85,76.25L42.11,76L43.95,73.5L44.22,72.75L44.48,73.25L44.74,72.75L45.01,72L45.8,71.25L46.06,71L47.64,68.5L47.9,68L48.43,67.25L48.69,66.5L49.48,65.75L49.75,65.5L52.64,61.75L52.91,61.25L53.43,61L53.7,60L54.22,59.25L54.49,58.75L56.33,56L56.59,55.5L57.12,55L57.38,54.25L57.65,54.5L57.91,54L58.17,53.75L59.75,51.5L60.02,51L61.86,49.25L62.12,48L62.65,48.5L62.91,48.25L63.18,47.75L66.86,44.75L67.13,43.75L69.23,41L69.5,41.5L69.76,41.75L70.55,40.5L70.81,40.75L72.13,39L72.39,39.75L72.66,39.25L72.92,40.25L73.18,40.25L73.45,38.5L73.97,39.25L74.24,39L74.76,38.5L75.03,38.75L75.29,39.25L76.34,37.5L76.61,38.25L76.87,38.25L77.13,37.75L77.4,38L77.66,38.5L78.98,37.5L79.24,38L80.29,37.25L80.56,37.25L80.82,37.5L81.08,36.5L82.4,37L82.66,35.75L83.72,36.75L83.98,36.5L84.77,35.5L85.03,36.5L85.3,34.75L85.82,36L86.09,35.75L87.14,36.5L87.4,36L87.67,35.75L87.93,36.25L88.19,36.5L90.04,36.25L90.3,35.25L91.35,35.75L91.62,35.25L91.88,36L92.41,35.5L92.67,34.75L94.25,35.25L94.51,34.75L95.83,35.25L96.09,35L97.15,35.25L97.41,35.75L97.94,35.25L98.2,36L99.78,35.25L100.04,35.5L100.83,35.75L101.1,34.75L101.36,34.25L101.62,35.75L102.41,34.25L102.68,34.75L102.94,35.5L103.47,34.75L103.73,35.75L103.99,35.25L104.52,35.75L104.78,35.75L106.1,36L106.36,35.75L106.63,36.25L106.89,35.5L107.15,34.5L108.21,36L108.47,36L109.52,34.25L109.79,34.5L112.16,35.75L112.42,35L113.21,36L113.47,35.75L113.74,35.25L114,35.5" style="vector-effect: none; fill: none; stroke: rgb(214, 39, 40); stroke-opacity: 1; stroke-width: 1.5px; opacity: 1;"/></g><g class="points"/><g class="text"/></g><g class="trace scatter trace3147b8" style="stroke-miterlimit: 2; opacity: 1;"><g class="fills"/><g class="errorbars"/><g class="lines"><path class="js-line" d="M0.24,97L6.82,96.25L7.08,96L14.19,95.25L14.46,95L15.25,95.25L15.51,94.75L16.3,95L16.56,94.5L17.09,95L17.35,94.75L17.62,94.75L19.99,94.75L20.25,93.75L21.04,94.5L21.3,94L22.62,93.75L22.88,93.75L23.15,94L23.41,92.75L24.2,93.75L24.46,93L24.73,94L25.26,93.75L25.52,93L27.36,93L27.63,92.5L28.42,93L28.68,92.25L29.47,93.25L29.73,93.25L30.79,92.5L31.05,93.25L31.58,91.75L32.1,92.5L32.37,92.75L33.16,92L33.42,91.75L33.68,92.75L34.21,92L34.47,91.5L35,93L35.26,91.5L39.74,91L40,92.25L41.06,91.5L41.32,91.25L42.11,92L42.37,91.5L44.22,91.5L44.48,92.5L45.27,91.25L45.53,91.75L45.8,92.5L46.06,91.5L46.32,91L47.38,91.5L47.64,91.25L48.96,91.5L49.22,91L50.27,91L50.54,91L51.33,91L51.59,91.25L52.91,91L53.17,91L64.49,90.5L64.76,90.25L68.44,89.5L68.71,89.25L71.6,88.5L71.87,88.25L74.24,87.5L74.5,87.25L75.29,87.25L75.55,87L78.45,86.25L78.71,86L79.5,85.75L79.77,85.75L81.87,85L82.14,84.75L85.03,84.25L85.3,83.75L86.09,83.5L86.35,83.5L88.46,82.75L88.72,82.5L90.83,81.5L91.09,81.5L91.88,81.25L92.14,81.25L94.78,80.5L95.04,80.25L97.41,79.5L97.67,79.25L100.04,78.5L100.31,78.25L101.1,78L101.36,77.75L102.41,77.75L102.68,77.75L104.78,76.75L105.05,76.75L105.84,76.5L106.1,76.5L109.52,75.75L109.79,75.5L112.68,74.75L112.95,74.5L114,73.75" style="vector-effect: none; fill: none; stroke: rgb(44, 160, 44); stroke-opacity: 1; stroke-width: 1.5px; opacity: 1;"/></g><g class="points"/><g class="text"/></g><g class="trace scatter trace47592b" style="stroke-miterlimit: 2; opacity: 1;"><g class="fills"/><g class="errorbars"/><g class="lines"><path class="js-line" d="M0.24,97L3.66,96.25L3.92,96L64.76,96L65.02,96.75L65.55,96.5L65.81,95L66.34,94.75L66.86,96.75L67.13,95.25L67.65,96.5L67.92,95.25L68.71,96.75L68.97,96.75L73.97,96.75L74.24,94.25L75.03,96.75L75.29,96.5L75.55,96.75L75.82,95.25L76.61,97L76.87,96.75L84.24,97L84.51,96L85.3,97L85.56,97L114,97" style="vector-effect: none; fill: none; stroke: rgb(255, 127, 14); stroke-opacity: 1; stroke-width: 1.5px; opacity: 1;"/></g><g class="points"/><g class="text"/></g><g class="trace scatter trace738ac3" style="stroke-miterlimit: 2; opacity: 1;"><g class="fills"/><g class="errorbars"/><g class="lines"><path class="js-line" d="M0.24,96L26.05,96.25L26.31,96.5L38.69,97.25L38.95,97.5L40,97.5L40.27,97.5L108.73,97.25L109,96.75L110.05,97.25L110.31,97L114,97" style="vector-effect: none; fill: none; stroke: rgb(31, 119, 180); stroke-opacity: 1; stroke-width: 1.5px; opacity: 1;"/></g><g class="points"/><g class="text"/></g><g class="trace scatter trace792650" style="stroke-miterlimit: 2; opacity: 1;"><g class="fills"/><g class="errorbars"/><g class="lines"><path class="js-line" d="M0.24,96.25L2.08,95.5L2.34,95.5L10.24,94.75L10.51,94.5L14.72,93.75L14.98,93.5L16.04,93.5L16.3,93.5L18.41,92.75L18.67,92.5L20.51,91.5L20.78,91.75L21.83,90.75L22.09,91L23.41,89.75L23.67,90.25L23.94,90.25L24.46,89L24.73,88.25L25.26,88.25L25.52,87.5L27.1,86.75L27.36,86L29.47,84.25L29.73,83.25L31.05,79.5L31.31,78.25L35.53,63.25L35.79,60.5L38.69,30.75L38.95,28.75L39.21,28.5L39.48,25.25L40.53,16.25L40.79,29.25L41.58,32.75L41.85,32.25L42.11,32L42.37,32.5L42.64,30L42.9,30.5L43.16,29.5L43.43,30L43.69,28.75L43.95,29.25L44.22,26.75L44.48,28.5L44.74,27.5L45.01,26.25L45.27,27.25L45.53,26.25L45.8,26.25L47.64,22.25L47.9,22.75L48.17,23.5L48.43,22L48.69,21L48.96,22.25L49.22,21.25L49.48,21L50.01,22.25L50.27,21.75L50.54,21.75L50.8,20.75L51.33,21L51.59,21.5L52.91,21L53.17,21.75L53.43,21.75L53.7,20.5L53.96,21.25L54.22,20.5L54.49,20.25L55.28,21.25L55.54,19.75L55.8,20.75L56.07,20.5L56.33,19.25L56.59,19L56.86,20L57.12,20L57.38,19L58.44,20.75L58.7,21L59.23,19.5L59.49,20.5L59.75,21L60.02,19.5L60.54,20.75L60.81,21L62.12,18L62.39,19.75L62.91,20.5L63.18,19.25L63.97,20.25L64.23,19L65.02,20L65.28,19L65.81,20L66.07,18.25L66.86,19.75L67.13,19.25L67.39,19L67.65,20.25L68.18,19.75L68.44,19.75L68.97,20.5L69.23,19L69.76,20.25L70.02,19.25L70.29,19.25L71.87,18.5L72.13,17.25L73.18,19.75L73.45,17.75L74.24,18.75L74.5,17.75L74.76,17.75L75.03,19L75.82,19.25L76.08,18.5L76.61,19.25L76.87,19.75L77.13,18.75L77.4,19.25L77.66,20L78.98,19.5L79.24,20.25L80.29,19.5L80.56,19.5L80.82,19.75L81.08,18.75L81.87,19.5L82.14,18.75L82.93,20L83.19,20L83.98,20.5L84.24,20L84.51,19.25L85.03,20.5L85.3,18.75L86.35,20.5L86.61,20.5L87.14,21.5L87.4,21L87.67,20.5L88.46,21.75L88.72,21.5L90.83,20.5L91.09,20.75L91.88,21.75L92.14,21.25L94.78,21L95.04,21.5L96.36,20.5L96.62,21L96.88,20L97.15,21L97.41,21.25L98.73,21.5L98.99,22L99.52,21L99.78,21.25L100.04,21.75L100.83,22.25L101.1,21.25L101.36,20.75L101.62,22.25L102.41,21L102.68,21.25L102.94,22L103.47,21L103.73,22.25L103.99,21.25L104.26,22L104.52,22.5L106.1,23L106.36,22.75L106.63,23L106.89,22L107.15,21L107.42,22.25L107.68,22.5L107.94,22.25L108.21,22.75L108.47,23L109.52,21.5L109.79,21.5L112.16,23.25L112.42,22.5L112.68,22.75L112.95,22L113.21,23.5L113.74,22.25L114,23" style="vector-effect: none; fill: none; stroke: rgb(140, 86, 75); stroke-opacity: 1; stroke-width: 1.5px; opacity: 1;"/></g><g class="points"/><g class="text"/></g><g class="trace scatter tracefff90c" style="stroke-miterlimit: 2; opacity: 1;"><g class="fills"/><g class="errorbars"/><g class="lines"><path class="js-line" d="M0.24,96.25L4.71,95.5L4.98,95.25L13.14,94.5L13.4,94.25L17.09,93.5L17.35,93.25L18.67,92.75L18.93,92.25L19.99,92.25L20.25,92L22.88,90.5L23.15,90.5L26.57,87.75L26.84,88L28.15,86L28.42,85.75L28.94,85.25L29.21,84.5L30,81.75L30.26,80.75L32.1,76L32.37,76.25L32.63,74.25L32.89,74.5L33.16,74L33.42,72.5L35.79,66.75L36.05,66.75L38.69,56.25L38.95,55.25L39.21,55.25L39.48,53.75L40.79,48.25L41.06,47.75L41.32,45.5L41.85,46.75L42.11,46.5L42.37,46.25L42.64,44.25L42.9,44.25L43.16,43L43.43,43.5L43.95,43L44.22,41.5L44.48,42L44.74,41.5L45.01,40.25L45.27,40.75L45.53,40L45.8,39.75L49.48,33L49.75,33.5L50.01,33.5L51.33,31.25L51.59,31.25L52.91,29.75L53.17,30L56.07,26.75L56.33,25.75L57.38,24.75L57.65,25.25L58.7,25.25L58.96,24L59.23,23.75L59.49,24.25L59.75,24.75L60.28,23.5L60.54,24L60.81,24L61.86,22.25L62.12,21L62.91,22.75L63.18,21.5L63.97,21.75L64.23,20.75L65.02,21.5L65.28,20.5L65.81,21L66.07,19.5L66.86,20.5L67.13,20L67.39,19.75L67.65,21L68.18,20.25L68.44,20.25L68.97,20.75L69.23,19.25L69.76,20.5L70.02,19.25L70.81,19.5L71.08,18.5L71.34,19.25L71.6,18.75L71.87,18.25L72.13,17.25L72.39,18.5L72.66,17.75L72.92,18.75L73.18,19.25L73.45,17.5L74.24,18.25L74.5,17.25L75.03,18L75.29,18.75L76.34,17.5L76.61,18.25L78.19,18.75L78.45,18.25L78.98,18L79.24,19L80.29,18L80.56,18L80.82,18.25L81.08,17.25L81.87,18L82.14,17L82.4,18.25L82.93,18L83.19,18.25L84.24,18.25L84.51,17.25L85.03,18.5L85.3,16.75L86.35,18.5L86.61,18.5L87.4,19L87.67,18.25L88.46,19.75L88.72,19.5L89.51,19L89.77,19.25L90.04,19.25L90.3,18L91.35,19.5L91.62,18.75L91.88,19.75L92.41,19.25L92.67,18.5L93.46,18.75L93.72,18.25L95.04,19.25L95.3,19L96.88,17.75L97.15,18.75L98.99,19.75L99.25,19.25L99.52,18.75L99.78,19L100.04,19.5L100.83,20L101.1,18.75L101.36,18.25L101.62,19.75L102.68,18.75L102.94,19.5L103.47,18.75L103.73,19.75L103.99,18.75L104.26,19.5L104.52,20L105.31,20.5L105.57,20.25L105.84,21L106.36,20.25L106.63,20.5L107.15,18.5L107.42,19.75L107.68,20L107.94,19.75L108.21,20.25L108.47,20.5L109.52,19L109.79,18.75L111.1,19.75L111.37,20L111.63,19.5L111.89,20.5L112.16,20.5L112.95,19.5L113.21,21L113.74,19.75L114,20.5" style="vector-effect: none; fill: none; stroke: rgb(148, 103, 189); stroke-opacity: 1; stroke-width: 1.5px; opacity: 1;"/></g><g class="points"/><g class="text"/></g><g class="trace scatter tracea0dc85" style="stroke-miterlimit: 2; opacity: 1;"><g class="fills"/><g class="errorbars"/><g class="lines"><path class="js-line" d="M0.24,95.25L1.29,95.25L1.55,95.25L11.3,94.5L11.56,94.25L15.77,93.5L16.04,93.25L18.41,92.5L18.67,92.25L21.04,91.5L21.3,91.25L22.62,90.75L22.88,90.25L23.94,90.25L24.2,89.75L24.99,89.75L25.26,89.5L25.52,89L26.05,89.5L26.31,89.25L27.63,88L27.89,88L28.94,88.25L29.21,87.25L30,86.5L30.26,86.75L30.52,86.75L31.31,86L31.58,85.75L32.37,85.75L32.63,85.25L34.21,84.5L34.47,84.25L36.32,83.5L36.58,83.25L38.42,82.5L38.69,82.25L40.27,81.5L40.53,81.25L41.58,80.5L41.85,80.25L45.27,76L45.53,75.25L46.85,73.5L47.11,72.5L47.64,72L47.9,71.25L48.96,69.5L49.22,69L51.59,65.75L51.85,65.25L53.7,62.25L53.96,62L55.54,59.5L55.8,59.25L58.7,56L58.96,54.75L61.86,52L62.12,50.5L62.65,51.25L62.91,51L63.18,50.5L67.39,46L67.65,46.5L67.92,46.5L68.44,45.75L68.71,45.5L69.76,44L70.02,42.75L72.13,40L72.39,40.25L72.66,40L72.92,40.75L73.18,40.75L73.45,39.25L73.97,40L74.24,39.75L75.03,39.5L75.29,40L76.08,40L76.34,39.5L76.87,40L77.13,39.25L78.19,40.25L78.45,39.75L80.56,38.75L80.82,39L81.35,38L81.61,38.25L81.87,38.5L82.66,37.75L82.93,38.25L84.24,38.25L84.51,37L85.03,38L85.3,36.25L86.35,38L86.61,37.75L90.04,37.75L90.3,37L91.35,37.75L91.62,36.75L91.88,37.75L92.41,37.25L92.67,36.5L94.25,37.25L94.51,36.75L96.62,36.5L96.88,36L97.41,37.5L97.67,37L97.94,36.75L98.99,37.5L99.25,37L100.04,37.25L100.31,37.5L100.83,37.25L101.1,36.5L101.36,36L101.62,37.25L102.68,36.25L102.94,36.75L103.47,36.25L103.73,37.5L103.99,37L104.52,37.5L104.78,37.5L106.89,37L107.15,36.25L108.21,37.75L108.47,37.75L109.52,36L109.79,36.5L111.63,37L111.89,37.5L114,36.75" style="vector-effect: none; fill: none; stroke: rgb(214, 39, 40); stroke-opacity: 1; stroke-width: 1.5px; opacity: 1;"/></g><g class="points"/><g class="text"/></g><g class="trace scatter trace50b00d" style="stroke-miterlimit: 2; opacity: 1;"><g class="fills"/><g class="errorbars"/><g class="lines"><path class="js-line" d="M0.24,96.75L1.29,96.25L1.55,96.25L10.51,95.5L10.77,95.25L18.67,94.75L18.93,94.25L19.99,94.25L20.25,94.25L21.3,94.25L21.57,94L27.36,93.5L27.63,93.25L29.73,93L30,92.5L31.05,93.5L31.31,93L31.84,92.75L32.1,93.5L32.89,92.5L33.16,93L33.95,92.5L34.21,92.75L35.79,92.25L36.05,92.25L37.11,92.25L37.37,92.5L43.95,92.75L44.22,93L45.53,92.75L45.8,92.75L53.7,92.25L53.96,92L55.28,92.25L55.54,92.25L57.12,91.75L57.38,91.75L60.28,91L60.54,90.75L62.91,90L63.18,89.75L65.02,89L65.28,88.75L66.07,88.5L66.34,88.5L68.18,87.75L68.44,87.75L70.81,86.5L71.08,86.5L73.71,85.75L73.97,85.25L76.87,84.75L77.13,84.25L78.19,84.25L78.45,84.25L80.56,83.25L80.82,83.25L83.72,82.5L83.98,82.25L85.56,81.75L85.82,81.75L87.67,81L87.93,81L90.3,79.75L90.56,79.75L93.2,79L93.46,78.75L96.62,78L96.88,77.75L99.25,77.25L99.52,76.75L100.57,76.75L100.83,76.5L106.36,75.75L106.63,75.5L109.26,74.75L109.52,74.5L110.84,74.25L111.1,74.5L112.68,74L112.95,74L114,73.5" style="vector-effect: none; fill: none; stroke: rgb(44, 160, 44); stroke-opacity: 1; stroke-width: 1.5px; opacity: 1;"/></g><g class="points"/><g class="text"/></g><g class="trace scatter tracec2dbdc" style="stroke-miterlimit: 2; opacity: 1;"><g class="fills"/><g class="errorbars"/><g class="lines"><path class="js-line" d="M0.24,95.25L1.82,94.75L2.08,94.75L35.53,95.25L35.79,95.5L41.06,95.5L41.32,95.75L42.37,95.5L42.64,95.75L44.74,95.75L45.01,94.25L45.53,95L45.8,95.75L46.06,96L46.32,94.75L46.59,94L46.85,95.75L47.64,95.75L47.9,96L48.96,96L49.22,95L50.27,96L50.54,95.75L50.8,94.5L51.06,96L51.33,96L54.75,96L55.01,96.25L57.12,96L57.38,94.75L57.65,96.25L58.17,96L58.44,96.25L58.7,95.5L59.23,96L59.49,96L59.75,95L60.02,96.25L60.28,96.25L60.81,96.25L61.07,95L62.12,96.25L62.39,96L63.7,96.25L63.97,96.25L64.23,96.25L64.49,94L65.55,96.25L65.81,96.25L67.13,96.25L67.39,94L68.18,96.25L68.44,94L69.23,96.25L69.5,96.25L70.02,94.25L70.29,96.25L71.08,96.25L71.34,95L72.13,96.25L72.39,96.25L75.03,95.5L75.29,94.25L75.82,96.25L76.08,96L76.34,96.25L77.4,96.25L77.66,95.5L78.19,96.5L78.45,94.75L78.71,94L78.98,96.25L79.77,94.75L80.03,96.25L83.45,96.25L83.72,94L83.98,96.25L84.51,96L84.77,94.25L85.03,96.5L85.56,95L85.82,96.25L86.09,96.25L86.35,95L86.88,96.25L87.14,96L87.4,96L88.72,96.25L88.98,96.25L89.77,95.5L90.04,96.25L90.3,96.25L92.41,96.25L92.67,94.5L93.46,96.25L93.72,96.25L95.57,96.25L95.83,95.25L96.62,96.25L96.88,96.25L101.36,96.25L101.62,96.5L102.94,96.25L103.2,96.25L114,96.25" style="vector-effect: none; fill: none; stroke: rgb(255, 127, 14); stroke-opacity: 1; stroke-width: 1.5px; opacity: 1;"/></g><g class="points"/><g class="text"/></g><g class="trace scatter tracea64630" style="stroke-miterlimit: 2; opacity: 1;"><g class="fills"/><g class="errorbars"/><g class="lines"><path class="js-line" d="M0.24,96.25L1.82,95.75L2.08,95.75L17.35,96.25L17.62,96.5L28.94,97.25L29.21,97.5L49.48,97.25L49.75,97L51.06,97.25L51.33,97.25L58.44,96.5L58.7,96.25L60.02,96.5L60.28,96.5L70.02,95.75L70.29,95.5L90.04,94.75L90.3,94.5L91.35,94.75L91.62,94.5L114,94.25" style="vector-effect: none; fill: none; stroke: rgb(31, 119, 180); stroke-opacity: 1; stroke-width: 1.5px; opacity: 1;"/></g><g class="points"/><g class="text"/></g><g class="trace scatter traceec6a72" style="stroke-miterlimit: 2; opacity: 1;"><g class="fills"/><g class="errorbars"/><g class="lines"><path class="js-line" d="M0,97.5L12.03,95.07L12.6,94.91L21.2,91.84L21.77,91.58L29.79,87.13L30.36,86.74L37.81,80.77L38.38,80.24L46.97,70.95L47.55,70.25L67.6,46.1L68.17,45.58L74.47,40.95L75.05,40.62L81.35,37.93L81.92,37.76L89.94,36.13L90.51,36.06L105.98,35.18L106.55,35.17L114,35.07" style="vector-effect: none; fill: none; stroke: rgb(0, 0, 0); stroke-opacity: 1; stroke-dasharray: 3px, 3px; stroke-width: 1.5px; opacity: 1;"/></g><g class="points"/><g class="text"/></g></g></g></g><path class="xlines-above crisp" d="M29.5,120.25H144.5M29.5,19.75H144.5" style="fill: none; stroke-width: 0.5px; stroke: rgb(0, 0, 0); stroke-opacity: 1;"/><path class="ylines-above crisp" d="M29.75,20V120M144.25,20V120" style="fill: none; stroke-width: 0.5px; stroke: rgb(0, 0, 0); stroke-opacity: 1;"/><g class="overlines-above"/><g class="xaxislayer-above"><path class="xtick ticks crisp" d="M0,120v-5" transform="translate(48.96,0)" style="stroke: rgb(0, 0, 0); stroke-opacity: 1; stroke-width: 0.5px;"/><path class="xtick ticks crisp" d="M0,120v-5" transform="translate(67.92,0)" style="stroke: rgb(0, 0, 0); stroke-opacity: 1; stroke-width: 0.5px;"/><path class="xtick ticks crisp" d="M0,120v-5" transform="translate(86.88,0)" style="stroke: rgb(0, 0, 0); stroke-opacity: 1; stroke-width: 0.5px;"/><path class="xtick ticks crisp" d="M0,120v-5" transform="translate(105.84,0)" style="stroke: rgb(0, 0, 0); stroke-opacity: 1; stroke-width: 0.5px;"/><path class="xtick ticks crisp" d="M0,120v-5" transform="translate(124.8,0)" style="stroke: rgb(0, 0, 0); stroke-opacity: 1; stroke-width: 0.5px;"/><g class="xtick"><text text-anchor="middle" x="0" y="133.7" transform="translate(30,0)" style="font-family: 'Open Sans', verdana, arial, sans-serif; font-size: 11px; fill: rgb(0, 0, 0); fill-opacity: 1; white-space: pre; opacity: 1;">0</text></g><g class="xtick"><text text-anchor="middle" x="0" y="133.7" style="font-family: 'Open Sans', verdana, arial, sans-serif; font-size: 11px; fill: rgb(0, 0, 0); fill-opacity: 1; white-space: pre; opacity: 1;" transform="translate(48.96,0)">12</text></g><g class="xtick"><text text-anchor="middle" x="0" y="133.7" style="font-family: 'Open Sans', verdana, arial, sans-serif; font-size: 11px; fill: rgb(0, 0, 0); fill-opacity: 1; white-space: pre; opacity: 1;" transform="translate(67.92,0)">24</text></g><g class="xtick"><text text-anchor="middle" x="0" y="133.7" style="font-family: 'Open Sans', verdana, arial, sans-serif; font-size: 11px; fill: rgb(0, 0, 0); fill-opacity: 1; white-space: pre; opacity: 1;" transform="translate(86.88,0)">36</text></g><g class="xtick"><text text-anchor="middle" x="0" y="133.7" style="font-family: 'Open Sans', verdana, arial, sans-serif; font-size: 11px; fill: rgb(0, 0, 0); fill-opacity: 1; white-space: pre; opacity: 1;" transform="translate(105.84,0)">48</text></g><g class="xtick"><text text-anchor="middle" x="0" y="133.7" style="font-family: 'Open Sans', verdana, arial, sans-serif; font-size: 11px; fill: rgb(0, 0, 0); fill-opacity: 1; white-space: pre; opacity: 1;" transform="translate(124.8,0)">60</text></g><g class="xtick"><text text-anchor="middle" x="0" y="133.7" style="font-family: 'Open Sans', verdana, arial, sans-serif; font-size: 11px; fill: rgb(0, 0, 0); fill-opacity: 1; white-space: pre; opacity: 0;" transform="translate(143.76,0)">72</text></g></g><g class="yaxislayer-above"><path class="ytick ticks crisp" d="M30,0h5" transform="translate(0,95)" style="stroke: rgb(0, 0, 0); stroke-opacity: 1; stroke-width: 0.5px;"/><path class="ytick ticks crisp" d="M30,0h5" transform="translate(0,70)" style="stroke: rgb(0, 0, 0); stroke-opacity: 1; stroke-width: 0.5px;"/><path class="ytick ticks crisp" d="M30,0h5" transform="translate(0,45)" style="stroke: rgb(0, 0, 0); stroke-opacity: 1; stroke-width: 0.5px;"/><g class="ytick"><text text-anchor="end" x="27.3" y="3.8499999999999996" transform="translate(0,120)" style="font-family: 'Open Sans', verdana, arial, sans-serif; font-size: 11px; fill: rgb(0, 0, 0); fill-opacity: 1; white-space: pre; opacity: 1;">0</text></g><g class="ytick"><text text-anchor="end" x="27.3" y="3.8499999999999996" style="font-family: 'Open Sans', verdana, arial, sans-serif; font-size: 11px; fill: rgb(0, 0, 0); fill-opacity: 1; white-space: pre; opacity: 1;" transform="translate(0,95)">0.1</text></g><g class="ytick"><text text-anchor="end" x="27.3" y="3.8499999999999996" style="font-family: 'Open Sans', verdana, arial, sans-serif; font-size: 11px; fill: rgb(0, 0, 0); fill-opacity: 1; white-space: pre; opacity: 1;" transform="translate(0,70)">0.2</text></g><g class="ytick"><text text-anchor="end" x="27.3" y="3.8499999999999996" style="font-family: 'Open Sans', verdana, arial, sans-serif; font-size: 11px; fill: rgb(0, 0, 0); fill-opacity: 1; white-space: pre; opacity: 1;" transform="translate(0,45)">0.3</text></g><g class="ytick"><text text-anchor="end" x="27.3" y="3.8499999999999996" style="font-family: 'Open Sans', verdana, arial, sans-serif; font-size: 11px; fill: rgb(0, 0, 0); fill-opacity: 1; white-space: pre; opacity: 1;" transform="translate(0,20)">0.4</text></g></g><g class="overaxes-above"/></g></g><g class="polarlayer"/><g class="smithlayer"/><g class="ternarylayer"/><g class="geolayer"/><g class="funnelarealayer"/><g class="pielayer"/><g class="iciclelayer"/><g class="treemaplayer"/><g class="sunburstlayer"/><g class="glimages"/><defs id="topdefs-c0f4ad"><g class="clips"/></defs><g class="layer-above"><g class="imagelayer"/><g class="shapelayer"/></g><g class="infolayer"><g class="g-gtitle"><text class="gtitle" x="7.5" y="10" text-anchor="start" dy="0em" style="opacity: 1; font-family: 'Open Sans', verdana, arial, sans-serif; font-size: 11px; fill: rgb(0, 0, 0); fill-opacity: 1; white-space: pre;">Oa thiamine gradient</text></g><g class="g-xtitle" transform="translate(0,2.8468750000000114)"><text class="xtitle" x="87" y="144.153125" text-anchor="middle" style="opacity: 1; font-family: 'Open Sans', verdana, arial, sans-serif; font-size: 11px; fill: rgb(0, 0, 0); fill-opacity: 1; white-space: pre;">Time [h]</text></g><g class="g-ytitle" transform="translate(3.818359375,0)"><text class="ytitle" transform="rotate(-90,8.181249999999999,70)" x="8.181249999999999" y="70" text-anchor="middle" style="opacity: 1; font-family: 'Open Sans', verdana, arial, sans-serif; font-size: 11px; fill: rgb(0, 0, 0); fill-opacity: 1; white-space: pre;">OD</text></g></g></svg>