<svg class="main-svg" xmlns="http://www.w3.org/2000/svg" xmlns:xlink="http://www.w3.org/1999/xlink" width="150" height="150" style="" viewBox="0 0 150 150"><rect x="0" y="0" width="150" height="150" style="fill: rgb(255, 255, 255); fill-opacity: 1;"/><defs id="defs-255ecd"><g class="clips"><clipPath id="clip255ecdxyplot" class="plotclip"><rect width="103" height="105"/></clipPath><clipPath class="axesclip" id="clip255ecdx"><rect x="36" y="0" width="103" height="150"/></clipPath><clipPath class="axesclip" id="clip255ecdy"><rect x="0" y="11" width="150" height="105"/></clipPath><clipPath class="axesclip" id="clip255ecdxy"><rect x="36" y="11" width="103" height="105"/></clipPath></g><g class="gradients"/><g class="patterns"/></defs><g class="bglayer"/><g class="layer-below"><g class="imagelayer"/><g class="shapelayer"/></g><g class="cartesianlayer"><g class="subplot xy"><g class="layer-subplot"><g class="shapelayer"/><g class="imagelayer"/></g><g class="minor-gridlayer"><g class="x"/><g class="y"/></g><g class="gridlayer"><g class="x"><path class="xgrid crisp" transform="translate(70.35,0)" d="M0,11v105" style="stroke: rgb(128, 128, 128); stroke-opacity: 1; stroke-width: 0.2px;"/><path class="xgrid crisp" transform="translate(104.7,0)" d="M0,11v105" style="stroke: rgb(128, 128, 128); stroke-opacity: 1; stroke-width: 0.2px;"/></g><g class="y"><path class="ygrid crisp" transform="translate(0,86)" d="M36,0h103" style="stroke: rgb(128, 128, 128); stroke-opacity: 1; stroke-width: 0.2px;"/><path class="ygrid crisp" transform="translate(0,56)" d="M36,0h103" style="stroke: rgb(128, 128, 128); stroke-opacity: 1; stroke-width: 0.2px;"/><path class="ygrid crisp" transform="translate(0,26)" d="M36,0h103" style="stroke: rgb(128, 128, 128); stroke-opacity: 1; stroke-width: 0.2px;"/></g></g><g class="zerolinelayer"/><g class="layer-between"><g class="shapelayer"/><g class="imagelayer"/></g><path class="xlines-below"/><path class="ylines-below"/><g class="overlines-below"/><g class="xaxislayer-below"/><g class="yaxislayer-below"/><g class="overaxes-below"/><g class="overplot"><g class="xy" transform="translate(36,11)" clip-path="url(#clip255ecdxyplot)"><g class="scatterlayer mlayer"><g class="trace scatter trace15a59f" style="stroke-miterlimit: 2; opacity: 1;"><g class="fills"/><g class="errorbars"/><g class="lines"><path class="js-line" d="M0.43,97.5L0.91,97.8L1.39,96.3L2.82,93.3L3.29,93L4.25,92.7L4.72,92.1L5.2,91.8L5.68,90.6L7.11,88.8L7.59,88.2L8.06,88.2L8.54,87.3L10.93,85.2L11.4,84.6L16.17,82.2L16.65,81L18.08,78.9L18.56,79.2L19.04,76.5L19.51,78L19.99,76.5L21.42,73.2L21.9,73.8L28.1,52.2L28.58,47.4L30.49,41.7L30.96,37.2L32.39,31.8L32.87,29.4L33.83,25.8L34.3,25.8L34.78,20.7L35.26,21L35.73,20.4L36.69,17.7L37.16,18.9L38.12,14.7L38.6,15L39.07,15.3L39.55,15L40.03,11.7L40.5,12.9L40.98,12L41.46,11.7L41.94,10.5L43.37,6.9L43.84,15.6L44.32,21L44.8,19.2L45.28,16.8L45.75,17.7L46.23,16.5L48.14,10.8L48.61,12L49.09,11.7L49.57,10.2L50.52,9.9L51,10.8L51.48,8.4L51.95,8.7L52.43,8.7L53.39,6.9L53.86,8.1L54.34,6.6L54.82,6.9L55.29,9L56.72,5.7L57.2,6.6L58.63,6.3L59.11,7.2L59.59,6L60.06,6.6L60.54,6.3L61.02,6.9L61.5,6L61.97,6L62.45,6.9L63.4,6L63.88,6.9L64.36,6.6L64.83,7.5L66.74,6.6L67.22,7.8L71.04,7.5L71.51,8.1L72.47,7.5L72.94,7.8L74.38,8.4L74.85,7.5L75.33,6.6L75.81,8.4L76.76,7.2L77.24,8.1L77.72,6.9L78.19,7.8L78.67,8.1L79.15,7.5L79.62,6.9L80.1,8.1L81.53,7.5L82.01,8.1L83.92,7.2L84.39,7.8L84.87,8.1L85.35,7.2L86.78,6.9L87.26,8.1L88.21,7.5L88.69,7.5L92.98,7.8L93.46,8.7L95.37,6.6L95.84,6.3L97.28,8.4L97.75,7.8L99.18,7.2L99.66,7.5L100.14,8.1L100.61,7.2L102.05,7.5L102.52,7.5L103,7.2" style="vector-effect: none; fill: none; stroke: rgb(217, 95, 2); stroke-opacity: 1; stroke-width: 1.5px; opacity: 1;"/></g><g class="points"/><g class="text"/></g><g class="trace scatter trace56b280" style="stroke-miterlimit: 2; opacity: 1;"><g class="fills"/><g class="errorbars"/><g class="lines"><path class="js-line" d="M0.43,96.6L5.2,93.6L5.68,92.7L7.11,90.6L7.59,90L10.93,87.6L11.4,86.7L13.31,85.2L13.79,84.3L16.65,82.2L17.13,81L18.56,80.1L19.04,78.9L19.51,79.5L19.99,78.9L20.47,78.3L21.9,76.5L22.38,75L22.85,74.4L23.33,71.4L25.24,64.8L25.72,63.9L27.62,54.6L28.1,53.7L33.35,29.4L33.83,28.8L34.3,29.1L34.78,24L35.26,24.3L35.73,23.7L37.64,20.7L38.12,18.6L38.6,18.3L39.07,18.9L39.55,18.3L40.03,15.6L40.98,15.9L41.46,15.6L42.89,12.3L43.37,11.1L43.84,9.3L44.32,21.3L44.8,22.2L45.28,20.7L46.23,20.4L46.71,18.9L48.14,16.2L48.61,16.5L49.09,16.2L49.57,14.1L50.05,14.7L50.52,14.4L51,14.1L51.48,12.9L52.43,12.3L52.91,11.1L53.86,11.4L54.34,10.5L54.82,9.9L55.29,11.4L56.72,9.3L57.2,10.2L57.68,10.5L58.16,9.6L59.11,9.9L59.59,8.7L61.02,10.2L61.5,9.6L61.97,9L62.45,9.9L64.36,10.2L64.83,10.5L66.74,10.2L67.22,11.1L68.17,11.1L68.65,10.8L69.61,10.5L70.08,11.1L71.04,11.1L71.51,11.4L74.85,11.4L75.33,10.5L76.28,12L76.76,11.1L77.24,11.7L77.72,11.1L78.19,11.4L80.1,12L80.58,12L89.17,12.6L89.64,12.9L95.84,12.3L96.32,13.2L96.8,12.9L97.28,13.5L98.23,12.6L98.71,13.2L102.52,12.9L103,12.3" style="vector-effect: none; fill: none; stroke: rgb(217, 95, 2); stroke-opacity: 1; stroke-width: 1.5px; opacity: 1;"/></g><g class="points"/><g class="text"/></g><g class="trace scatter trace4e49b9" style="stroke-miterlimit: 2; opacity: 1;"><g class="fills"/><g class="errorbars"/><g class="lines"><path class="js-line" d="M0.43,98.4L3.77,95.1L4.25,94.8L5.68,92.7L6.16,90.9L7.11,90.3L7.59,89.4L14.27,81.6L14.74,81.3L19.99,74.7L20.47,72.6L24.76,64.8L25.24,62.7L27.15,52.8L27.62,49.5L29.05,43.5L29.53,36L30.01,37.2L30.49,34.5L31.92,27.9L32.39,27.3L33.83,22.5L34.3,22.8L34.78,18.3L35.26,18.6L35.73,17.7L36.21,17.4L36.69,15.9L37.16,16.2L37.64,15L38.6,13.2L39.07,13.5L39.55,12.9L40.03,10.5L41.46,10.8L41.94,9L43.37,6.3L43.84,3.9L44.32,6.6L44.8,17.1L45.75,18.3L46.23,17.7L48.61,14.1L49.09,14.1L50.05,12.3L50.52,12L51,12.3L51.48,10.5L52.43,10.5L52.91,8.7L53.86,9.3L54.34,8.1L54.82,7.8L55.29,8.7L56.72,7.2L57.2,7.5L57.68,8.1L58.16,7.5L58.63,7.5L59.11,7.8L59.59,6.3L60.06,6.6L60.54,7.8L61.02,8.1L61.5,7.5L61.97,7.2L62.45,8.1L63.4,7.5L63.88,8.1L65.79,8.7L66.27,8.4L66.74,8.4L67.22,9.6L69.61,8.7L70.08,9.3L71.04,9L71.51,9.6L72.47,9L72.94,9.6L74.38,10.2L74.85,9.9L75.33,8.7L75.81,9.9L77.24,10.2L77.72,9.9L79.62,10.5L80.1,10.5L81.05,10.5L81.53,10.5L82.49,10.5L82.96,10.5L86.78,10.8L87.26,11.4L88.21,11.1L88.69,11.4L94.41,11.4L94.89,11.1L95.84,11.1L96.32,12.3L98.23,11.7L98.71,12.3L99.66,11.7L100.14,12.3L101.57,12L102.05,12L103,11.1" style="vector-effect: none; fill: none; stroke: rgb(217, 95, 2); stroke-opacity: 1; stroke-width: 1.5px; opacity: 1;"/></g><g class="points"/><g class="text"/></g><g class="trace scatter trace3ffa22" style="stroke-miterlimit: 2; opacity: 1;"><g class="fills"/><g class="errorbars"/><g class="lines"><path class="js-line" d="M0,98.4L7.16,94.66L7.63,94.34L13.36,89.73L13.84,89.27L19.56,82.46L20.04,81.77L25.28,72.71L25.76,71.73L30.53,60.12L31.01,58.76L35.78,42.63L36.26,40.74L41.51,15.9L41.98,13.4L43.41,12.9L43.89,12.9L2163,12.9" style="vector-effect: none; fill: none; stroke: rgb(217, 95, 2); stroke-opacity: 1; stroke-dasharray: 3px, 3px; stroke-width: 1.5px; opacity: 1;"/></g><g class="points"/><g class="text"/></g><g class="trace scatter trace336072" style="stroke-miterlimit: 2; opacity: 1;"><g class="fills"/><g class="errorbars"/><g class="lines"><path class="js-line" d="M0.43,98.7L2.34,98.4L2.82,97.5L5.2,90.6L5.68,90L8.54,81L9.02,79.5L10.93,71.1L11.4,69.3L13.31,61.5L13.79,60.3L15.22,56.4L15.7,57.3L18.56,62.7L19.04,62.1L22.38,52.5L22.85,44.7L23.81,37.2L24.28,36.9L24.76,36.6L25.24,37.5L27.62,39.3L28.1,39.6L29.53,37.2L30.01,37.2L31.44,35.1L31.92,34.8L32.87,35.1L33.35,33.9L35.26,33.3L35.73,32.7L36.69,31.5L37.16,31.8L37.64,31.5L38.12,30.3L40.5,29.1L40.98,29.4L42.89,27.9L43.37,28.2L44.32,27.9L44.8,25.8L45.28,27L45.75,26.1L47.66,24.6L48.14,25.2L49.57,24L50.05,24.3L51,23.4L51.48,23.4L52.43,22.8L52.91,22.8L54.34,22.2L54.82,23.1L55.77,21.3L56.25,21.3L56.72,22.2L57.2,21.9L57.68,21.6L59.11,21L59.59,20.7L60.06,21.3L60.54,20.7L61.02,20.4L63.4,19.2L63.88,20.4L64.36,19.5L64.83,19.8L65.31,19.8L65.79,19.5L66.27,20.1L66.74,18.9L67.22,19.2L67.7,19.2L68.17,18.9L68.65,17.4L70.08,18L70.56,18.3L72.47,18L72.94,18.6L74.38,17.7L74.85,18.6L75.33,18L75.81,19.5L76.76,17.7L77.24,17.1L77.72,16.5L78.19,18.3L79.62,16.8L80.1,17.7L81.53,17.1L82.01,17.4L83.92,17.1L84.39,16.2L85.35,16.5L85.83,15.9L86.3,15.6L86.78,17.1L88.21,16.2L88.69,16.2L89.17,17.1L89.64,16.8L90.12,15.6L91.55,17.1L92.03,15.9L92.5,16.2L92.98,14.4L94.41,15.6L94.89,14.4L96.32,15.3L96.8,15.3L97.75,14.1L98.23,15L98.71,13.8L99.18,14.4L99.66,15L100.14,12.6L100.61,14.4L101.09,13.5L101.57,13.8L102.05,14.1L103,14.7" style="vector-effect: none; fill: none; stroke: rgb(117, 112, 179); stroke-opacity: 1; stroke-width: 1.5px; opacity: 1;"/></g><g class="points"/><g class="text"/></g><g class="trace scatter trace1c405a" style="stroke-miterlimit: 2; opacity: 1;"><g class="fills"/><g class="errorbars"/><g class="lines"><path class="js-line" d="M0.43,97.5L1.39,97.5L1.86,96.6L2.34,96.9L2.82,96L4.72,90L5.2,89.1L6.16,87.3L6.63,86.1L9.02,78.3L9.5,76.8L11.4,69L11.88,66.6L14.27,58.8L14.74,57.3L16.65,53.4L17.13,52.8L18.08,53.4L18.56,51.9L19.51,48.9L19.99,47.1L20.47,45.3L20.94,45.6L21.42,44.7L21.9,40.2L22.38,40.5L22.85,39.6L23.81,36.6L24.28,38.1L25.72,39.3L26.19,39L27.15,38.7L27.62,39.3L29.05,37.8L29.53,36.9L30.01,37.2L30.49,36.6L31.44,36L31.92,35.4L32.39,35.1L32.87,35.7L33.35,34.2L33.83,34.5L34.3,33.9L35.73,33.6L36.21,33L37.64,31.8L38.12,30.6L39.55,30L40.03,29.7L41.94,29.7L42.41,28.5L44.32,27.9L44.8,25.8L45.28,26.7L45.75,25.8L46.23,25.8L46.71,24.9L48.61,24.3L49.09,24L52.91,21.9L53.39,21.9L54.34,21.3L54.82,21.9L55.77,20.1L56.25,20.1L56.72,21L57.2,20.7L57.68,20.1L59.11,20.1L59.59,19.5L61.02,18.9L61.5,18.6L62.93,17.4L63.4,17.7L63.88,18.3L64.36,17.4L65.79,17.7L66.27,17.7L67.22,16.5L67.7,16.8L68.17,16.8L68.65,15.3L70.56,15.9L71.04,15.6L72.47,15.9L72.94,16.5L74.38,15.3L74.85,16.8L75.33,16.2L75.81,17.4L76.76,15.9L77.24,15.6L77.72,14.7L78.19,16.2L78.67,15.6L79.15,16.5L79.62,15.3L80.1,15.9L80.58,15.9L81.53,15L82.01,15.3L83.44,15.3L83.92,14.1L84.87,14.7L85.35,14.4L86.3,13.8L86.78,14.1L87.73,13.8L88.21,14.4L88.69,13.2L89.17,13.8L89.64,14.4L90.12,11.7L90.6,12.9L91.07,13.5L91.55,13.8L92.03,12.9L92.5,13.8L92.98,12.6L93.46,13.5L93.94,12.6L94.41,14.1L94.89,12.9L95.37,13.5L95.84,12.6L96.8,12.9L97.28,12.3L98.23,12.9L98.71,12L99.18,12.3L99.66,13.5L100.14,12L100.61,13.2L102.05,12L102.52,12.3L103,12.6" style="vector-effect: none; fill: none; stroke: rgb(117, 112, 179); stroke-opacity: 1; stroke-width: 1.5px; opacity: 1;"/></g><g class="points"/><g class="text"/></g><g class="trace scatter tracea1d19b" style="stroke-miterlimit: 2; opacity: 1;"><g class="fills"/><g class="errorbars"/><g class="lines"><path class="js-line" d="M0.43,97.5L1.39,97.2L1.86,96.6L2.34,96.3L2.82,95.1L3.77,91.5L4.25,91.8L5.68,90.6L6.16,88.5L6.63,88.2L7.11,86.1L11.4,67.5L11.88,65.1L15.22,55.2L15.7,54.6L19.99,45L20.47,43.5L21.42,39.9L21.9,39.3L23.33,34.2L23.81,34.5L25.24,37.2L25.72,37.8L27.15,38.4L27.62,39L29.05,37.8L29.53,36.6L30.01,36.9L30.49,36L30.96,36.3L31.44,35.4L32.87,34.8L33.35,33.6L33.83,33.6L34.3,32.7L37.16,30.9L37.64,29.4L39.55,28.2L40.03,27.9L40.98,27.6L41.46,26.4L41.94,27.6L42.41,25.8L43.37,26.4L43.84,25.2L44.32,24.9L44.8,23.4L45.75,23.7L46.23,23.1L46.71,21.9L47.18,22.5L47.66,21.6L48.14,22.2L48.61,21.6L49.09,21.9L50.52,20.1L51,20.4L52.43,19.5L52.91,19.8L54.34,18.6L54.82,19.2L55.77,18L56.25,17.7L56.72,18.6L57.2,17.4L58.16,17.1L58.63,17.4L60.06,16.8L60.54,16.5L62.93,14.7L63.4,15.3L63.88,16.2L64.36,15L64.83,15.3L65.31,14.7L66.27,15L66.74,14.1L67.7,14.4L68.17,14.1L68.65,12.6L69.13,13.5L69.61,13.8L71.51,12.9L71.99,13.2L73.42,13.8L73.9,12.6L74.85,12.9L75.33,12.9L75.81,13.8L76.28,12.3L76.76,13.2L77.24,12.9L77.72,11.4L78.19,13.5L78.67,12.9L79.15,13.2L80.1,12L80.58,12.3L81.53,12L82.01,11.7L82.96,12.3L83.44,11.7L83.92,12.3L84.39,11.1L84.87,12.3L85.35,11.7L85.83,10.8L86.3,10.8L86.78,12L87.26,11.4L87.73,12.3L88.69,11.1L89.17,12L90.12,10.5L90.6,11.7L92.98,9.9L93.46,11.1L94.41,11.4L94.89,9.9L95.84,11.1L96.32,10.5L97.75,9.9L98.23,11.4L98.71,8.7L99.18,9.6L99.66,9.9L100.14,8.4L100.61,9.3L101.09,9.3L102.52,8.1L103,9" style="vector-effect: none; fill: none; stroke: rgb(117, 112, 179); stroke-opacity: 1; stroke-width: 1.5px; opacity: 1;"/></g><g class="points"/><g class="text"/></g><g class="trace scatter trace0b0ff5" style="stroke-miterlimit: 2; opacity: 1;"><g class="fills"/><g class="errorbars"/><g class="lines"><path class="js-line" d="M0,98.4L3.82,93.91L4.29,93.17L7.63,86.39L8.11,85.15L11.45,73.86L11.93,71.81L15.27,53.39L15.74,50.12L19.08,30.93L19.56,30.9L2163.0000000000005,30.9L2163,30.9" style="vector-effect: none; fill: none; stroke: rgb(117, 112, 179); stroke-opacity: 1; stroke-dasharray: 3px, 3px; stroke-width: 1.5px; opacity: 1;"/></g><g class="points"/><g class="text"/></g></g></g></g><path class="xlines-above crisp" d="M35.5,116.25H139.5M35.5,10.75H139.5" style="fill: none; stroke-width: 0.5px; stroke: rgb(0, 0, 0); stroke-opacity: 1;"/><path class="ylines-above crisp" d="M35.75,11V116M139.25,11V116" style="fill: none; stroke-width: 0.5px; stroke: rgb(0, 0, 0); stroke-opacity: 1;"/><g class="overlines-above"/><g class="xaxislayer-above"><path class="xtick ticks crisp" d="M0,116v-5" transform="translate(70.35,0)" style="stroke: rgb(0, 0, 0); stroke-opacity: 1; stroke-width: 0.5px;"/><path class="xtick ticks crisp" d="M0,116v-5" transform="translate(104.7,0)" style="stroke: rgb(0, 0, 0); stroke-opacity: 1; stroke-width: 0.5px;"/><g class="xtick"><text text-anchor="middle" x="0" y="129.7" transform="translate(36,0)" style="font-family: 'Open Sans', verdana, arial, sans-serif; font-size: 11px; fill: rgb(0, 0, 0); fill-opacity: 1; white-space: pre; opacity: 1;">0</text></g><g class="xtick"><text text-anchor="middle" x="0" y="129.7" style="font-family: 'Open Sans', verdana, arial, sans-serif; font-size: 11px; fill: rgb(0, 0, 0); fill-opacity: 1; white-space: pre; opacity: 1;" transform="translate(70.35,0)">12</text></g><g class="xtick"><text text-anchor="middle" x="0" y="129.7" style="font-family: 'Open Sans', verdana, arial, sans-serif; font-size: 11px; fill: rgb(0, 0, 0); fill-opacity: 1; white-space: pre; opacity: 1;" transform="translate(104.7,0)">24</text></g></g><g class="yaxislayer-above"><path class="ytick ticks crisp" d="M36,0h5" transform="translate(0,86)" style="stroke: rgb(0, 0, 0); stroke-opacity: 1; stroke-width: 0.5px;"/><path class="ytick ticks crisp" d="M36,0h5" transform="translate(0,56)" style="stroke: rgb(0, 0, 0); stroke-opacity: 1; stroke-width: 0.5px;"/><path class="ytick ticks crisp" d="M36,0h5" transform="translate(0,26)" style="stroke: rgb(0, 0, 0); stroke-opacity: 1; stroke-width: 0.5px;"/><g class="ytick"><text text-anchor="end" x="33.3" y="3.8499999999999996" transform="translate(0,116)" style="font-family: 'Open Sans', verdana, arial, sans-serif; font-size: 11px; fill: rgb(0, 0, 0); fill-opacity: 1; white-space: pre; opacity: 1;">0</text></g><g class="ytick"><text text-anchor="end" x="33.3" y="3.8499999999999996" style="font-family: 'Open Sans', verdana, arial, sans-serif; font-size: 11px; fill: rgb(0, 0, 0); fill-opacity: 1; white-space: pre; opacity: 1;" transform="translate(0,86)">0.1</text></g><g class="ytick"><text text-anchor="end" x="33.3" y="3.8499999999999996" style="font-family: 'Open Sans', verdana, arial, sans-serif; font-size: 11px; fill: rgb(0, 0, 0); fill-opacity: 1; white-space: pre; opacity: 1;" transform="translate(0,56)">0.2</text></g><g class="ytick"><text text-anchor="end" x="33.3" y="3.8499999999999996" style="font-family: 'Open Sans', verdana, arial, sans-serif; font-size: 11px; fill: rgb(0, 0, 0); fill-opacity: 1; white-space: pre; opacity: 1;" transform="translate(0,26)">0.3</text></g></g><g class="overaxes-above"/></g></g><g class="polarlayer"/><g class="smithlayer"/><g class="ternarylayer"/><g class="geolayer"/><g class="funnelarealayer"/><g class="pielayer"/><g class="iciclelayer"/><g class="treemaplayer"/><g class="sunburstlayer"/><g class="glimages"/><defs id="topdefs-255ecd"><g class="clips"/></defs><g class="layer-above"><g class="imagelayer"/><g class="shapelayer"/></g><g class="infolayer"><g class="g-gtitle"/><g class="g-xtitle" transform="translate(0,4.550000000000011)"><text class="xtitle" x="87.5" y="140.153125" text-anchor="middle" style="opacity: 1; font-family: 'Open Sans', verdana, arial, sans-serif; font-size: 11px; fill: rgb(0, 0, 0); fill-opacity: 1; white-space: pre;">Time [h]</text></g><g class="g-ytitle"><text class="ytitle" transform="rotate(-90,14.181249999999999,63.5)" x="14.181249999999999" y="63.5" text-anchor="middle" style="opacity: 1; font-family: 'Open Sans', verdana, arial, sans-serif; font-size: 11px; fill: rgb(0, 0, 0); fill-opacity: 1; white-space: pre;">OD</text></g></g></svg>