<svg class="main-svg" xmlns="http://www.w3.org/2000/svg" xmlns:xlink="http://www.w3.org/1999/xlink" width="150" height="150" style="" viewBox="0 0 150 150"><rect x="0" y="0" width="150" height="150" style="fill: rgb(255, 255, 255); fill-opacity: 1;"/><defs id="defs-198f3a"><g class="clips"><clipPath id="clip198f3axyplot" class="plotclip"><rect width="111" height="98"/></clipPath><clipPath class="axesclip" id="clip198f3ax"><rect x="28" y="0" width="111" height="150"/></clipPath><clipPath class="axesclip" id="clip198f3ay"><rect x="0" y="18" width="150" height="98"/></clipPath><clipPath class="axesclip" id="clip198f3axy"><rect x="28" y="18" width="111" height="98"/></clipPath></g><g class="gradients"/><g class="patterns"/></defs><g class="bglayer"/><g class="layer-below"><g class="imagelayer"/><g class="shapelayer"/></g><g class="cartesianlayer"><g class="subplot xy"><g class="layer-subplot"><g class="shapelayer"/><g class="imagelayer"/></g><g class="minor-gridlayer"><g class="x"/><g class="y"/></g><g class="gridlayer"><g class="x"><path class="xgrid crisp" transform="translate(47.269999999999996,0)" d="M0,18v98" style="stroke: rgb(128, 128, 128); stroke-opacity: 1; stroke-width: 0.2px;"/><path class="xgrid crisp" transform="translate(66.53,0)" d="M0,18v98" style="stroke: rgb(128, 128, 128); stroke-opacity: 1; stroke-width: 0.2px;"/><path class="xgrid crisp" transform="translate(85.8,0)" d="M0,18v98" style="stroke: rgb(128, 128, 128); stroke-opacity: 1; stroke-width: 0.2px;"/><path class="xgrid crisp" transform="translate(105.06,0)" d="M0,18v98" style="stroke: rgb(128, 128, 128); stroke-opacity: 1; stroke-width: 0.2px;"/><path class="xgrid crisp" transform="translate(124.33,0)" d="M0,18v98" style="stroke: rgb(128, 128, 128); stroke-opacity: 1; stroke-width: 0.2px;"/></g><g class="y"><path class="ygrid crisp" transform="translate(0,96.4)" d="M28,0h111" style="stroke: rgb(128, 128, 128); stroke-opacity: 1; stroke-width: 0.2px;"/><path class="ygrid crisp" transform="translate(0,76.8)" d="M28,0h111" style="stroke: rgb(128, 128, 128); stroke-opacity: 1; stroke-width: 0.2px;"/><path class="ygrid crisp" transform="translate(0,57.2)" d="M28,0h111" style="stroke: rgb(128, 128, 128); stroke-opacity: 1; stroke-width: 0.2px;"/><path class="ygrid crisp" transform="translate(0,37.6)" d="M28,0h111" style="stroke: rgb(128, 128, 128); stroke-opacity: 1; stroke-width: 0.2px;"/></g></g><g class="zerolinelayer"/><g class="layer-between"><g class="shapelayer"/><g class="imagelayer"/></g><path class="xlines-below"/><path class="ylines-below"/><g class="overlines-below"/><g class="xaxislayer-below"/><g class="yaxislayer-below"/><g class="overaxes-below"/><g class="overplot"><g class="xy" transform="translate(28,18)" clip-path="url(#clip198f3axyplot)"><g class="scatterlayer mlayer"><g class="trace scatter traceaf75e6" style="stroke-miterlimit: 2; opacity: 1;"><g class="fills"/><g class="errorbars"/><g class="lines"><path class="js-line" d="M0.11,82.75L0.16,85.46L0.83,80.14L0.86,80.07L1.55,79.37L1.82,79.79L1.85,79.77L2.84,78.9L2.87,78.94L2.89,78.97L4.23,78.62L4.26,78.51L4.79,78.32L4.88,78.75L4.9,79.01L5.04,77.93L5.3,79.35L5.33,79.58L5.65,80.15L6.43,77.52L6.48,77.75L6.51,77.8L6.8,77.18L7.07,78.19L7.1,78.47L7.23,78.91L7.45,77.29L7.47,77.11L7.74,75.68L8.25,76.58L8.28,76.91L8.38,76.54L8.65,78.57L8.68,78.64L9.05,78.12L9.46,78.4L9.48,78.38L9.67,78.12L9.94,78.64L10.23,78.55L10.26,78.53L11.57,79.82L11.63,79.64L11.65,79.56L12.03,77.72L12.62,78.22L12.64,78.25L13.53,74.19L13.88,75.26L13.9,75.27L14.04,75.82L14.68,75.39L14.71,75.34L15.16,74.42L15.64,74.87L15.67,74.89L16.5,74.92L16.53,74.98L16.98,75.44L17.57,74.45L17.6,74.41L17.71,75.1L17.79,72.09L17.81,71.03L17.97,67.15L18.3,74.5L18.51,70.46L18.54,69.92L18.75,77.28L19.13,63.77L19.29,68.45L19.31,69.16L19.5,74.42L19.77,68.01L20.12,72.95L20.14,72.95L20.63,73.85L20.92,73.08L20.95,72.84L21.24,75L21.46,72.14L21.48,71.88L21.51,71.7L21.72,74.65L21.75,74.98L21.8,75.17L22.1,72.88L22.13,72.88L22.15,72.88L23.01,73.88L23.17,73.34L23.2,73.19L23.76,72.9L23.89,73.62L23.92,73.79L24.03,74.07L24.27,72.29L24.3,71.98L24.59,73.59L24.7,72.55L24.72,72.07L25.8,62.19L25.9,65.94L25.93,66.86L26.06,71.42L26.76,70.99L26.79,71.1L28.02,76.47L28.37,76.05L28.39,76L28.69,75.82L28.71,75.34L28.74,74.87L29.04,71.75L29.65,72.53L29.68,72.59L30.08,71.69L30.24,72.34L30.27,72.62L30.35,74.11L30.59,68.31L30.88,69.43L30.91,68.93L31.07,67.57L31.47,70.66L31.5,71.24L31.55,71.61L31.8,66.79L31.82,65.67L32.41,58.97L32.57,64.97L32.6,65.82L33.05,70.16L33.4,68.15L33.43,68.09L34.26,67.25L34.29,67.35L35.17,66.25L35.2,66.32L35.41,66.15L35.73,72.25L35.87,66.46L35.89,64.7L36,60.39L36.21,66.92L36.59,66.29L36.62,66.29L37.58,65.92L37.61,65.9L38.68,66.13L38.71,66.02L38.73,65.83L39,67.14L39.54,66.92L39.56,66.56L39.8,66.12L40.02,66.91L40.05,67.06L40.63,69.27L40.88,68.34L40.9,67.73L41.28,68.1L41.71,66.09L41.76,66.11L41.79,66.64L41.92,66.55L42,67.13L42.03,67.44L42.19,68.13L42.46,67.24L42.72,67.45L42.75,67.35L42.86,66.67L43.29,67.79L43.31,67.91L43.58,68.77L43.88,67.6L44.01,67.98L44.04,67.91L44.92,68.94L44.95,68.92L45.48,69.06L45.75,67.8L45.78,67.81L45.8,67.83L46.1,68.32L46.37,67.57L46.55,67.86L46.58,67.77L47.38,68.81L47.41,68.89L47.49,69.08L48.08,67.82L48.24,68.4L48.27,68.4L48.83,69.33L49.1,69.21L49.13,69.19L49.15,69.36L49.74,68.25L49.77,68.31L49.8,68.31L51.08,69.05L51.21,68.84L51.24,68.84L55.66,70.88L55.69,70.75L56.97,71.94L57,71.83L58.23,72.8L58.26,72.68L58.29,72.59L59.25,73.07L59.49,72.73L59.52,72.68L60.88,73.93L60.91,73.9L61.21,76.51L61.23,76.79L61.66,78.34L62.06,77.7L62.09,77.57L62.3,77.43L62.41,77.92L62.63,78.01L62.65,78.09L63.38,77.82L63.48,78.02L63.51,78.1L64.55,78.36L64.58,78.51L65.73,79.31L65.84,78.83L65.87,78.59L66.21,79.45L66.46,78.77L66.48,78.63L67.45,78.13L67.47,78.04L67.85,76.67L68.33,77.19L68.36,77.18L69.51,80.63L69.54,80.86L69.94,80.19L70.23,81.56L70.31,81.39L70.34,81.34L70.69,82.31L70.71,82.5L70.88,83.38L71.41,82.4L71.44,82.2L72.19,75.95L72.48,77.96L72.51,78.13L72.91,77.45L72.94,77.35L73.15,77.01L73.45,77.82L73.47,78.01L74.63,78.21L74.65,78.33L76.02,80.29L76.15,79.93L76.18,79.95L76.88,78.7L76.98,79.89L77.01,80.18L77.52,81.39L77.87,80.82L77.89,80.75L78.19,79.38L78.54,81.25L78.56,81.35L78.72,81.49L78.88,80.79L78.91,80.56L79.07,80.45L79.26,81.17L79.29,81.16L79.31,81.3L79.69,79.65L80.04,80.37L80.06,80.53L80.36,80.3L80.95,82.3L81.05,82.02L81.08,81.87L81.56,80.03L82.13,80.53L82.15,80.63L83.04,81.76L83.06,81.57L83.33,81.82L83.6,80.93L83.63,80.79L83.65,80.62L84.08,82.01L84.24,81.79L84.27,81.94L84.4,82.16L84.83,80.73L84.86,80.78L84.96,81.12L85.21,80.35L85.47,80.58L85.5,80.26L85.58,79.85L85.85,81.1L86.2,80.15L86.22,80.57L86.6,81.77L86.97,80.69L87,80.73L87.48,80.65L87.7,81.81L87.83,81.44L87.86,81.4L88.07,80.28L88.42,81.51L88.63,80.92L88.66,80.87L88.71,80.93L89.22,79.97L89.38,80.91L89.41,81.24L89.49,81.74L89.97,80.57L90,80.6L90.03,80.45L90.32,80.57L90.75,79.76L90.83,79.92L90.86,79.95L90.91,79.92L91.26,82.2L91.66,81.05L91.69,80.8L91.98,81.79L92.25,80.35L92.41,80.8L92.44,80.48L92.6,80.05L93.3,82.18L93.32,82.14L93.35,82.15L93.8,82.42L94.07,81.94L94.1,81.93L94.5,82.06L95.33,78.39L95.57,79.36L95.6,79.49L96.32,80.03L96.51,79.97L96.54,79.89L97.61,81.12L97.71,80.85L97.74,80.88L98.73,83.52L98.76,83.5L98.79,83.57L98.95,83.91L99.29,83.18L99.46,83.33L99.48,83.3L99.54,83.15L100.07,83.84L100.1,83.77L102.03,80.96L102.16,81.15L102.19,81.2L102.27,81.36L102.54,80.46L102.75,80.57L102.78,80.21L103.61,80.78L103.77,80.58L103.79,80.38L104.01,79.81L104.49,80.63L104.52,80.65L104.65,80.74L104.97,80.13L105,80.04L105.29,79.7L105.59,80.54L105.62,80.59L107.49,80.51L107.52,80.47L108.8,80.16L108.83,80.18L110.73,81.06" style="vector-effect: none; fill: none; stroke: rgb(217, 95, 2); stroke-opacity: 1; stroke-width: 1.5px; opacity: 1;"/></g><g class="points"/><g class="text"/></g></g></g></g><path class="xlines-above crisp" d="M27.5,116.25H139.5M27.5,17.75H139.5" style="fill: none; stroke-width: 0.5px; stroke: rgb(0, 0, 0); stroke-opacity: 1;"/><path class="ylines-above crisp" d="M27.75,18V116M139.25,18V116" style="fill: none; stroke-width: 0.5px; stroke: rgb(0, 0, 0); stroke-opacity: 1;"/><g class="overlines-above"/><g class="xaxislayer-above"><g class="xtick"><text text-anchor="middle" x="0" y="129.7" transform="translate(28,0)" style="font-family: 'Open Sans', verdana, arial, sans-serif; font-size: 11px; fill: rgb(0, 0, 0); fill-opacity: 1; white-space: pre; opacity: 1;">0</text></g><g class="xtick"><text text-anchor="middle" x="0" y="129.7" style="font-family: 'Open Sans', verdana, arial, sans-serif; font-size: 11px; fill: rgb(0, 0, 0); fill-opacity: 1; white-space: pre; opacity: 1;" transform="translate(47.269999999999996,0)">12</text></g><g class="xtick"><text text-anchor="middle" x="0" y="129.7" style="font-family: 'Open Sans', verdana, arial, sans-serif; font-size: 11px; fill: rgb(0, 0, 0); fill-opacity: 1; white-space: pre; opacity: 1;" transform="translate(66.53,0)">24</text></g><g class="xtick"><text text-anchor="middle" x="0" y="129.7" style="font-family: 'Open Sans', verdana, arial, sans-serif; font-size: 11px; fill: rgb(0, 0, 0); fill-opacity: 1; white-space: pre; opacity: 1;" transform="translate(85.8,0)">36</text></g><g class="xtick"><text text-anchor="middle" x="0" y="129.7" style="font-family: 'Open Sans', verdana, arial, sans-serif; font-size: 11px; fill: rgb(0, 0, 0); fill-opacity: 1; white-space: pre; opacity: 1;" transform="translate(105.06,0)">48</text></g><g class="xtick"><text text-anchor="middle" x="0" y="129.7" style="font-family: 'Open Sans', verdana, arial, sans-serif; font-size: 11px; fill: rgb(0, 0, 0); fill-opacity: 1; white-space: pre; opacity: 1;" transform="translate(124.33,0)">60</text></g></g><g class="yaxislayer-above"><g class="ytick"><text text-anchor="end" x="25.3" y="3.8499999999999996" transform="translate(0,116)" style="font-family: 'Open Sans', verdana, arial, sans-serif; font-size: 11px; fill: rgb(0, 0, 0); fill-opacity: 1; white-space: pre; opacity: 1;">0</text></g><g class="ytick"><text text-anchor="end" x="25.3" y="3.8499999999999996" style="font-family: 'Open Sans', verdana, arial, sans-serif; font-size: 11px; fill: rgb(0, 0, 0); fill-opacity: 1; white-space: pre; opacity: 1;" transform="translate(0,96.4)">0.1</text></g><g class="ytick"><text text-anchor="end" x="25.3" y="3.8499999999999996" style="font-family: 'Open Sans', verdana, arial, sans-serif; font-size: 11px; fill: rgb(0, 0, 0); fill-opacity: 1; white-space: pre; opacity: 1;" transform="translate(0,76.8)">0.2</text></g><g class="ytick"><text text-anchor="end" x="25.3" y="3.8499999999999996" style="font-family: 'Open Sans', verdana, arial, sans-serif; font-size: 11px; fill: rgb(0, 0, 0); fill-opacity: 1; white-space: pre; opacity: 1;" transform="translate(0,57.2)">0.3</text></g><g class="ytick"><text text-anchor="end" x="25.3" y="3.8499999999999996" style="font-family: 'Open Sans', verdana, arial, sans-serif; font-size: 11px; fill: rgb(0, 0, 0); fill-opacity: 1; white-space: pre; opacity: 1;" transform="translate(0,37.6)">0.4</text></g><g class="ytick"><text text-anchor="end" x="25.3" y="3.8499999999999996" style="font-family: 'Open Sans', verdana, arial, sans-serif; font-size: 11px; fill: rgb(0, 0, 0); fill-opacity: 1; white-space: pre; opacity: 1;" transform="translate(0,18)">0.5</text></g></g><g class="overaxes-above"/></g></g><g class="polarlayer"/><g class="smithlayer"/><g class="ternarylayer"/><g class="geolayer"/><g class="funnelarealayer"/><g class="pielayer"/><g class="iciclelayer"/><g class="treemaplayer"/><g class="sunburstlayer"/><g class="glimages"/><defs id="topdefs-198f3a"><g class="clips"/></defs><g class="layer-above"><g class="imagelayer"/><g class="shapelayer"/></g><g class="infolayer"><g class="g-gtitle"><text class="gtitle" x="7.5" y="9" text-anchor="start" dy="0em" style="opacity: 1; font-family: 'Open Sans', verdana, arial, sans-serif; font-size: 11px; fill: rgb(0, 0, 0); fill-opacity: 1; white-space: pre;"><tspan style="font-style:italic">O. anthropi</tspan></text></g><g class="g-xtitle" transform="translate(0,4.550000000000011)"><text class="xtitle" x="83.5" y="140.153125" text-anchor="middle" style="opacity: 1; font-family: 'Open Sans', verdana, arial, sans-serif; font-size: 11px; fill: rgb(0, 0, 0); fill-opacity: 1; white-space: pre;">Time [h]</text></g><g class="g-ytitle"/></g></svg>