<svg class="main-svg" xmlns="http://www.w3.org/2000/svg" xmlns:xlink="http://www.w3.org/1999/xlink" width="150" height="150" style="" viewBox="0 0 150 150"><rect x="0" y="0" width="150" height="150" style="fill: rgb(255, 255, 255); fill-opacity: 1;"/><defs id="defs-6baa7d"><g class="clips"><clipPath id="clip6baa7dxyplot" class="plotclip"><rect width="103" height="98"/></clipPath><clipPath class="axesclip" id="clip6baa7dx"><rect x="36" y="0" width="103" height="150"/></clipPath><clipPath class="axesclip" id="clip6baa7dy"><rect x="0" y="18" width="150" height="98"/></clipPath><clipPath class="axesclip" id="clip6baa7dxy"><rect x="36" y="18" width="103" height="98"/></clipPath></g><g class="gradients"/><g class="patterns"/></defs><g class="bglayer"/><g class="layer-below"><g class="imagelayer"/><g class="shapelayer"/></g><g class="cartesianlayer"><g class="subplot xy"><g class="layer-subplot"><g class="shapelayer"/><g class="imagelayer"/></g><g class="minor-gridlayer"><g class="x"/><g class="y"/></g><g class="gridlayer"><g class="x"><path class="xgrid crisp" transform="translate(58.010000000000005,0)" d="M0,18v98" style="stroke: rgb(128, 128, 128); stroke-opacity: 1; stroke-width: 0.2px;"/><path class="xgrid crisp" transform="translate(80.02000000000001,0)" d="M0,18v98" style="stroke: rgb(128, 128, 128); stroke-opacity: 1; stroke-width: 0.2px;"/><path class="xgrid crisp" transform="translate(102.03,0)" d="M0,18v98" style="stroke: rgb(128, 128, 128); stroke-opacity: 1; stroke-width: 0.2px;"/><path class="xgrid crisp" transform="translate(124.03,0)" d="M0,18v98" style="stroke: rgb(128, 128, 128); stroke-opacity: 1; stroke-width: 0.2px;"/></g><g class="y"><path class="ygrid crisp" transform="translate(0,96.4)" d="M36,0h103" style="stroke: rgb(128, 128, 128); stroke-opacity: 1; stroke-width: 0.2px;"/><path class="ygrid crisp" transform="translate(0,76.8)" d="M36,0h103" style="stroke: rgb(128, 128, 128); stroke-opacity: 1; stroke-width: 0.2px;"/><path class="ygrid crisp" transform="translate(0,57.2)" d="M36,0h103" style="stroke: rgb(128, 128, 128); stroke-opacity: 1; stroke-width: 0.2px;"/><path class="ygrid crisp" transform="translate(0,37.6)" d="M36,0h103" style="stroke: rgb(128, 128, 128); stroke-opacity: 1; stroke-width: 0.2px;"/></g></g><g class="zerolinelayer"/><g class="layer-between"><g class="shapelayer"/><g class="imagelayer"/></g><path class="xlines-below"/><path class="ylines-below"/><g class="overlines-below"/><g class="xaxislayer-below"/><g class="yaxislayer-below"/><g class="overaxes-below"/><g class="overplot"><g class="xy" transform="translate(36,18)" clip-path="url(#clip6baa7dxyplot)"><g class="scatterlayer mlayer"><g class="trace scatter trace59f3e0" style="stroke-miterlimit: 2; opacity: 1;"><g class="fills"/><g class="errorbars"/><g class="lines"><path class="js-line" d="M0.24,82.67L0.49,87.82L0.98,84.91L1.04,84.82L1.29,85.1L1.53,84.61L1.65,84.85L1.71,84.31L2.2,83.27L2.51,84.1L2.57,84.24L2.82,84.78L3.24,83.93L3.3,83.58L4.65,81.55L4.71,81.69L4.83,81.26L5.39,81.98L5.45,82.02L5.94,80.54L6,80.04L6.36,77.39L6.92,78.32L6.98,78.45L7.71,77.26L7.89,77.31L7.96,77.16L8.45,75.68L8.93,76.13L9,76.18L9.91,69.63L9.98,68.74L10.89,56.86L11.32,57.58L11.38,57.57L14.5,53.38L14.57,53.06L15.97,50.65L16.03,50.59L17.63,47.34L17.69,47.18L19.34,42.11L19.83,42.57L19.89,42.61L22.64,36.95L22.71,36.65L24.17,32.46L24.24,32.3L24.72,31.01L24.79,30.74L25.7,27.71L26.07,28.12L26.13,28.25L29.07,28.3L29.13,28.33L30.48,29.67L30.54,29.53L30.6,29.47L30.97,28.8L31.4,29.28L31.46,29.37L32.37,29.49L32.44,29.69L32.93,30.17L33.29,29.91L33.35,29.87L35.74,31.29L35.8,31.21L36.96,31.18L37.03,31.32L37.45,31.87L37.76,31.22L37.82,31.02L38.62,31.26L38.68,31.39L39.41,31.45L39.47,31.68L39.53,31.77L39.66,31.94L40.15,31.49L40.21,31.43L40.76,31.43L40.82,31.24L40.88,31.01L41.37,30.77L41.68,31.04L41.74,31.08L43.15,31.51L43.21,31.34L43.27,31.29L43.76,31.08L44,31.58L44.06,31.69L44.43,32.45L44.98,32.04L45.04,32.09L47.31,32.33L47.37,32.59L47.67,33.01L48.04,32.29L48.1,32.17L48.41,31.68L48.71,32.45L48.78,32.67L49.51,33L49.63,32.79L49.69,32.75L50.8,32.09L50.86,32.19L50.92,32.49L51.47,33.57L51.84,33.11L51.9,33.05L52.75,32.79L52.88,32.93L52.94,33.1L53.37,33.85L53.67,33.24L53.73,32.99L53.98,32.51L54.28,33.34L54.34,33.58L54.71,34.34L55.2,33.91L55.26,33.83L55.88,33.87L56.06,34.24L56.12,34.31L56.55,34.76L56.98,34.31L57.04,34.34L58.02,33.71L58.08,33.9L58.14,34.21L58.63,35.38L59.06,34.76L59.12,34.69L59.85,34.85L59.91,35.08L61.08,36.21L61.14,36.16L61.2,36.04L61.87,37.14L61.93,37.3L63.4,38.08L63.46,37.97L64.26,38.21L64.32,38.29L64.69,38.15L64.99,38.43L65.06,38.55L66.59,39.04L66.65,39.02L67.07,38.46L67.38,39.11L67.44,39.14L67.69,39.65L68.11,38.92L68.18,38.61L69.16,36.3L69.4,36.69L69.46,36.82L71.05,40.16L71.11,40.1L72.22,40.2L72.28,40.32L73.19,39.73L73.26,39.62L74.72,38.24L74.79,38.11L75.46,37.94L75.7,38.16L75.76,38.21L76.74,38.03L76.81,37.95L77.66,37.39L77.78,37.67L77.85,37.84L78.89,39.14L79.01,38.93L79.07,38.86L80.05,38.21L80.17,38.34L80.23,38.33L81.52,38.31L81.58,38.13L83.72,37.47L83.78,37.25L84.45,38.02L84.52,38.2L85.5,38.06L85.56,37.96L86.35,37.57L86.47,37.91L86.54,38.21L86.9,38.64L87.21,37.88L87.27,37.89L88.74,38.98L88.8,38.82L88.86,38.59L89.41,37.72L89.66,38.36L89.72,38.52L90.08,39.53L90.45,38.74L90.51,38.53L91.49,38.12L91.55,38.05L92.35,38.6L92.53,38.11L92.59,37.91L92.78,37.79L93.08,38.44L93.14,38.55L94.12,39.46L94.19,39.44L95.59,39.2L95.65,39.15L96.27,39.29L96.39,39.44L96.45,39.48L100.49,39.5L100.55,39.8L101.59,40.34L101.65,40.21L102.39,40.07" style="vector-effect: none; fill: none; stroke: rgb(117, 112, 179); stroke-opacity: 1; stroke-width: 1.5px; opacity: 1;"/></g><g class="points"/><g class="text"/></g><g class="trace scatter trace284159" style="stroke-miterlimit: 2; opacity: 1;"><g class="fills"/><g class="errorbars"/><g class="lines"><path class="js-line" d="M0.24,82.85L0.31,88.82L1.04,88.1L1.1,88.1L1.71,87.53L1.78,87.27L3.79,85.32L3.86,85.82L3.92,86.15L4.9,84.81L4.96,84.75L5.88,83.52L6,83.61L6.06,83.66L6.36,83.85L7.28,81.32L7.34,81.5L7.41,81.83L7.96,80.94L8.02,80.22L8.75,78.98L9,79.43L9.06,79.4L11.14,75.48L11.2,75.6L11.51,75.36L11.57,74.9L12.61,73.77L12.67,73.83L12.73,73.89L12.79,74.04L13.28,73.26L13.34,73.05L14.44,71.83L14.5,71.85L15.3,72.62L15.54,72.15L15.61,71.91L16.22,61.41L16.28,59.85L17.26,50.41L17.32,50.53L17.38,50.59L18.05,50.6L18.11,50.28L18.18,50.01L19.77,46.24L19.83,46.21L20.5,46.06L20.62,46.2L20.69,46.16L20.75,46.37L21.18,45.38L21.24,45.15L22.52,42.67L22.58,42.69L23.44,42.11L23.5,41.97L27.05,34.99L27.11,34.8L29.5,28.45L29.56,28.01L32.07,20.95L32.13,21.18L32.19,21.3L32.62,21.92L32.68,22.03L32.99,21.56L33.48,21.86L33.54,22.14L35.01,24.62L35.13,24.29L35.19,24.03L35.68,23.66L35.92,24.14L35.98,24.46L36.47,25.21L36.84,24.76L36.9,24.6L38.74,25.51L38.8,25.37L38.86,25.15L41.74,28.58L41.98,28.26L42.04,28.15L44.55,27.96L44.61,27.75L45.04,27.51L45.29,27.91L45.35,28.08L47.86,29.05L47.92,28.72L47.98,28.44L48.47,27.48L48.78,28.33L48.84,28.38L49.88,29.75L50.12,29.35L50.18,29.31L51.35,29.58L51.41,29.29L52.14,30.91L52.57,30.39L52.63,30.23L53.61,31.87L53.73,31.42L53.79,31.36L53.92,31.87L54.28,30.83L54.41,31.14L54.47,31.03L54.77,30.35L54.9,31.36L55.14,31.38L55.2,31.46L55.51,30.74L55.87,31.77L55.94,32.16L56.43,33.1L56.73,32.25L56.79,32.29L57.04,31.65L57.34,32.58L57.47,32.55L57.53,32.62L57.59,32.4L57.77,33.05L58.26,32.75L58.32,32.74L58.51,33.03L59.24,31.46L59.36,31.79L59.42,31.91L60.59,33.97L60.77,33.4L60.83,33.21L61.32,33.93L61.38,34.4L61.57,34.81L61.93,33.98L61.99,33.7L62.3,33.33L62.67,33.87L62.73,34.01L63.34,33.01L63.52,33.54L63.59,33.91L64.01,35.4L64.56,35.22L64.63,35.16L65.24,35.69L65.36,35.32L65.42,34.97L65.67,34.3L66.09,35.15L66.16,35.22L66.46,34.27L66.95,34.77L67.01,35.1L67.07,35.45L67.69,34.87L67.75,35.17L67.81,35.17L68.73,36.34L68.79,36.7L68.97,37.54L69.46,36.53L69.52,36.28L71.36,36.79L71.42,36.79L72.21,34.94L72.52,35.86L72.58,35.92L73.07,35.77L73.56,37.34L73.62,37.26L74.91,35.37L74.97,35.53L75.46,38.61L75.83,37.06L75.89,36.52L76.07,35.9L76.5,36.91L76.56,37.09L77.23,36.54L77.29,36.84L77.36,37.34L77.85,38.43L78.03,37.49L78.09,37.09L78.21,36.69L78.76,37.31L78.82,37.37L79.13,37.03L79.68,38.29L79.74,38.6L80.66,36.01L80.72,35.91L80.84,35.61L81.09,36.59L81.15,37.09L81.52,38.98L82.01,38.52L82.07,38.45L83.29,38.68L83.35,38.61L83.97,39.16L84.15,38.78L84.21,38.63L84.58,38.11L84.88,38.85L84.94,39.05L85.62,39.53L85.8,39.37L85.86,39.17L87.39,38.44L87.58,38.71L87.64,38.79L89.11,40.18L89.17,40.09L90.15,39.14L90.33,39.69L90.39,39.82L90.76,40.14L91.13,39.53L91.19,39.43L91.86,39.14L92.04,39.49L92.1,39.61L92.78,41.8L93.27,41.26L93.33,41.14L94.92,39.09L94.98,39.12L95.04,39.29L96.33,41.11L96.45,41.06L96.51,41.07L96.94,40.85L97.18,41.29L97.25,41.35L97.55,41.71L97.92,41.12L97.98,40.89L98.41,40.22L98.65,40.89L98.71,41.1L99.14,41.92L99.63,41.63L99.69,41.7L100,41.79L100.31,41.34L100.37,41.26L101.9,41.71L101.96,41.8L102.39,41.8" style="vector-effect: none; fill: none; stroke: rgb(117, 112, 179); stroke-opacity: 1; stroke-width: 1.5px; opacity: 1;"/></g><g class="points"/><g class="text"/></g><g class="trace scatter tracee2ebfe" style="stroke-miterlimit: 2; opacity: 1;"><g class="fills"/><g class="errorbars"/><g class="lines"><path class="js-line" d="M0.24,83.33L0.31,88.19L0.98,84.32L1.04,83.59L2.88,74.86L2.94,74.75L5.69,69.61L5.75,69.76L6.24,68.88L6.3,68.81L7.47,66.02L7.53,65.94L8.51,65.43L8.57,65.15L9.85,63.9L9.91,63.98L9.98,63.96L11.2,63.89L11.26,63.74L11.44,63.83L11.69,63.13L11.75,62.97L12.18,62.07L12.67,62.34L12.73,62.47L13.34,62.91L13.46,62.49L13.52,62.36L14.26,59.92L14.75,60.61L14.81,60.57L15.73,58.94L15.79,58.58L16.83,58L16.95,58.12L17.01,58.24L18.48,55.42L18.54,55.29L19.83,52.69L19.89,52.55L20.69,52.21L20.75,52.09L25.52,41.04L25.58,41.05L29.62,31.24L30.05,31.49L30.11,31.6L33.97,32.93L34.03,33.08L36.05,34.34L36.11,34.26L38.92,35.83L38.98,35.71L39.78,35.79L39.9,35.63L39.96,35.52L41.07,36.43L41.13,36.65L42.29,37.2L42.35,37.1L42.47,36.95L42.84,37.51L42.9,37.47L42.96,37.6L43.88,38.16L43.94,38.15L45.78,38.5L45.84,38.63L47.25,38.86L47.31,38.83L49.27,39.12L49.33,39.06L50.61,39.17L50.67,39.27L51.59,38.83L51.65,38.81L52.45,39.11L52.51,39.13L53.55,39.69L53.61,39.74L54.77,40.66L54.84,40.68L56.79,41.86L56.86,41.8L57.83,41.74L57.9,41.82L59.06,43.23L59.3,43.01L59.36,42.91L59.85,42.28L60.22,42.74L60.28,42.82L60.65,43.21L61.08,42.93L61.14,42.91L62.36,42.33L62.42,42.28L63.83,42.03L63.89,42.08L65.55,42.94L65.61,42.87L65.67,42.84L68.97,42.83L69.03,42.65L70.07,42.35L70.14,42.34L71.42,42.48L71.48,42.34L72.09,42.02L72.34,42.28L72.4,42.37L73.81,42.83L73.87,42.79L75.46,43.07L75.52,42.85L76.68,43.17L76.75,43.25L78.03,43.45L78.09,43.29L78.15,43.19L80.78,42.64L80.85,42.91L81.7,43.02L81.76,43.44L81.89,43.52L82.07,42.9L82.13,42.7L82.5,41.84L82.74,42.9L82.8,43.19L83.23,44L83.54,43.52L83.6,43.25L83.91,42.55L84.33,43.29L84.4,43.29L85.31,44L85.44,43.8L85.5,43.68L86.17,44.16L86.42,43.8L86.48,43.84L87.46,43.17L87.52,43.28L88.5,43.27L88.56,43.41L91.37,44.3L91.43,44.1L91.49,43.96L92.9,43.12L92.96,43.2L93.02,43.34L93.58,43.06L93.64,42.89L93.7,42.71L94.68,41.62L94.8,41.79L94.86,41.77L95.9,40.61L96.08,40.7L96.15,40.67L96.76,40.52L96.94,40.67L97,40.81L98.9,41.2L98.96,41.37L99.27,41.75L99.76,41.55L99.82,41.59L100.49,41.67L100.55,41.41L100.61,41.31L102.39,38.9" style="vector-effect: none; fill: none; stroke: rgb(117, 112, 179); stroke-opacity: 1; stroke-width: 1.5px; opacity: 1;"/></g><g class="points"/><g class="text"/></g><g class="trace scatter trace602468" style="stroke-miterlimit: 2; opacity: 1;"><g class="fills"/><g class="errorbars"/><g class="lines"><path class="js-line" d="M0,88.2L6.61,82.92L6.67,82.86L12.36,76.12L12.42,76.03L16.46,69.53L16.52,69.41L20.44,61.34L20.5,61.2L25.83,46.93L25.89,46.74L32.68,28.03L32.74,27.98L34.7,27.61L34.76,27.61L54.41,28.93L54.47,28.93L80.91,29.65L80.97,29.65L103,29.87" style="vector-effect: none; fill: none; stroke: rgb(0, 0, 0); stroke-opacity: 1; stroke-dasharray: 3px, 3px; stroke-width: 1.5px; opacity: 1;"/></g><g class="points"/><g class="text"/></g></g></g></g><path class="xlines-above crisp" d="M35.5,116.25H139.5M35.5,17.75H139.5" style="fill: none; stroke-width: 0.5px; stroke: rgb(0, 0, 0); stroke-opacity: 1;"/><path class="ylines-above crisp" d="M35.75,18V116M139.25,18V116" style="fill: none; stroke-width: 0.5px; stroke: rgb(0, 0, 0); stroke-opacity: 1;"/><g class="overlines-above"/><g class="xaxislayer-above"><path class="xtick ticks crisp" d="M0,116v-5" transform="translate(58.010000000000005,0)" style="stroke: rgb(0, 0, 0); stroke-opacity: 1; stroke-width: 0.5px;"/><path class="xtick ticks crisp" d="M0,116v-5" transform="translate(80.02000000000001,0)" style="stroke: rgb(0, 0, 0); stroke-opacity: 1; stroke-width: 0.5px;"/><path class="xtick ticks crisp" d="M0,116v-5" transform="translate(102.03,0)" style="stroke: rgb(0, 0, 0); stroke-opacity: 1; stroke-width: 0.5px;"/><path class="xtick ticks crisp" d="M0,116v-5" transform="translate(124.03,0)" style="stroke: rgb(0, 0, 0); stroke-opacity: 1; stroke-width: 0.5px;"/><g class="xtick"><text text-anchor="middle" x="0" y="129.7" transform="translate(36,0)" style="font-family: 'Open Sans', verdana, arial, sans-serif; font-size: 11px; fill: rgb(0, 0, 0); fill-opacity: 1; white-space: pre; opacity: 1;">0</text></g><g class="xtick"><text text-anchor="middle" x="0" y="129.7" style="font-family: 'Open Sans', verdana, arial, sans-serif; font-size: 11px; fill: rgb(0, 0, 0); fill-opacity: 1; white-space: pre; opacity: 1;" transform="translate(58.010000000000005,0)">6</text></g><g class="xtick"><text text-anchor="middle" x="0" y="129.7" style="font-family: 'Open Sans', verdana, arial, sans-serif; font-size: 11px; fill: rgb(0, 0, 0); fill-opacity: 1; white-space: pre; opacity: 1;" transform="translate(80.02000000000001,0)">12</text></g><g class="xtick"><text text-anchor="middle" x="0" y="129.7" style="font-family: 'Open Sans', verdana, arial, sans-serif; font-size: 11px; fill: rgb(0, 0, 0); fill-opacity: 1; white-space: pre; opacity: 1;" transform="translate(102.03,0)">18</text></g><g class="xtick"><text text-anchor="middle" x="0" y="129.7" style="font-family: 'Open Sans', verdana, arial, sans-serif; font-size: 11px; fill: rgb(0, 0, 0); fill-opacity: 1; white-space: pre; opacity: 1;" transform="translate(124.03,0)">24</text></g></g><g class="yaxislayer-above"><path class="ytick ticks crisp" d="M36,0h5" transform="translate(0,96.4)" style="stroke: rgb(0, 0, 0); stroke-opacity: 1; stroke-width: 0.5px;"/><path class="ytick ticks crisp" d="M36,0h5" transform="translate(0,76.8)" style="stroke: rgb(0, 0, 0); stroke-opacity: 1; stroke-width: 0.5px;"/><path class="ytick ticks crisp" d="M36,0h5" transform="translate(0,57.2)" style="stroke: rgb(0, 0, 0); stroke-opacity: 1; stroke-width: 0.5px;"/><path class="ytick ticks crisp" d="M36,0h5" transform="translate(0,37.6)" style="stroke: rgb(0, 0, 0); stroke-opacity: 1; stroke-width: 0.5px;"/><g class="ytick"><text text-anchor="end" x="33.3" y="3.8499999999999996" transform="translate(0,116)" style="font-family: 'Open Sans', verdana, arial, sans-serif; font-size: 11px; fill: rgb(0, 0, 0); fill-opacity: 1; white-space: pre; opacity: 1;">0</text></g><g class="ytick"><text text-anchor="end" x="33.3" y="3.8499999999999996" style="font-family: 'Open Sans', verdana, arial, sans-serif; font-size: 11px; fill: rgb(0, 0, 0); fill-opacity: 1; white-space: pre; opacity: 1;" transform="translate(0,96.4)">0.1</text></g><g class="ytick"><text text-anchor="end" x="33.3" y="3.8499999999999996" style="font-family: 'Open Sans', verdana, arial, sans-serif; font-size: 11px; fill: rgb(0, 0, 0); fill-opacity: 1; white-space: pre; opacity: 1;" transform="translate(0,76.8)">0.2</text></g><g class="ytick"><text text-anchor="end" x="33.3" y="3.8499999999999996" style="font-family: 'Open Sans', verdana, arial, sans-serif; font-size: 11px; fill: rgb(0, 0, 0); fill-opacity: 1; white-space: pre; opacity: 1;" transform="translate(0,57.2)">0.3</text></g><g class="ytick"><text text-anchor="end" x="33.3" y="3.8499999999999996" style="font-family: 'Open Sans', verdana, arial, sans-serif; font-size: 11px; fill: rgb(0, 0, 0); fill-opacity: 1; white-space: pre; opacity: 1;" transform="translate(0,37.6)">0.4</text></g><g class="ytick"><text text-anchor="end" x="33.3" y="3.8499999999999996" style="font-family: 'Open Sans', verdana, arial, sans-serif; font-size: 11px; fill: rgb(0, 0, 0); fill-opacity: 1; white-space: pre; opacity: 1;" transform="translate(0,18)">0.5</text></g></g><g class="overaxes-above"/></g></g><g class="polarlayer"/><g class="smithlayer"/><g class="ternarylayer"/><g class="geolayer"/><g class="funnelarealayer"/><g class="pielayer"/><g class="iciclelayer"/><g class="treemaplayer"/><g class="sunburstlayer"/><g class="glimages"/><defs id="topdefs-6baa7d"><g class="clips"/></defs><g class="layer-above"><g class="imagelayer"/><g class="shapelayer"/></g><g class="infolayer"><g class="g-gtitle"><text class="gtitle" x="7.5" y="9" text-anchor="start" dy="0em" style="opacity: 1; font-family: 'Open Sans', verdana, arial, sans-serif; font-size: 11px; fill: rgb(0, 0, 0); fill-opacity: 1; white-space: pre;">Ct</text></g><g class="g-xtitle" transform="translate(0,4.550000000000011)"><text class="xtitle" x="87.5" y="140.153125" text-anchor="middle" style="opacity: 1; font-family: 'Open Sans', verdana, arial, sans-serif; font-size: 11px; fill: rgb(0, 0, 0); fill-opacity: 1; white-space: pre;">Time [h]</text></g><g class="g-ytitle"><text class="ytitle" transform="rotate(-90,14.181249999999999,67)" x="14.181249999999999" y="67" text-anchor="middle" style="opacity: 1; font-family: 'Open Sans', verdana, arial, sans-serif; font-size: 11px; fill: rgb(0, 0, 0); fill-opacity: 1; white-space: pre;">OD</text></g></g></svg>