<svg class="main-svg" xmlns="http://www.w3.org/2000/svg" xmlns:xlink="http://www.w3.org/1999/xlink" width="150" height="150" style="" viewBox="0 0 150 150"><rect x="0" y="0" width="150" height="150" style="fill: rgb(255, 255, 255); fill-opacity: 1;"/><defs id="defs-dda343"><g class="clips"><clipPath id="clipdda343xyplot" class="plotclip"><rect width="111" height="98"/></clipPath><clipPath class="axesclip" id="clipdda343x"><rect x="28" y="0" width="111" height="150"/></clipPath><clipPath class="axesclip" id="clipdda343y"><rect x="0" y="18" width="150" height="98"/></clipPath><clipPath class="axesclip" id="clipdda343xy"><rect x="28" y="18" width="111" height="98"/></clipPath></g><g class="gradients"/><g class="patterns"/></defs><g class="bglayer"/><g class="layer-below"><g class="imagelayer"/><g class="shapelayer"/></g><g class="cartesianlayer"><g class="subplot xy"><g class="layer-subplot"><g class="shapelayer"/><g class="imagelayer"/></g><g class="minor-gridlayer"><g class="x"/><g class="y"/></g><g class="gridlayer"><g class="x"><path class="xgrid crisp" transform="translate(46.629999999999995,0)" d="M0,18v98" style="stroke: rgb(128, 128, 128); stroke-opacity: 1; stroke-width: 0.2px;"/><path class="xgrid crisp" transform="translate(65.25999999999999,0)" d="M0,18v98" style="stroke: rgb(128, 128, 128); stroke-opacity: 1; stroke-width: 0.2px;"/><path class="xgrid crisp" transform="translate(83.9,0)" d="M0,18v98" style="stroke: rgb(128, 128, 128); stroke-opacity: 1; stroke-width: 0.2px;"/><path class="xgrid crisp" transform="translate(102.53,0)" d="M0,18v98" style="stroke: rgb(128, 128, 128); stroke-opacity: 1; stroke-width: 0.2px;"/><path class="xgrid crisp" transform="translate(121.16,0)" d="M0,18v98" style="stroke: rgb(128, 128, 128); stroke-opacity: 1; stroke-width: 0.2px;"/></g><g class="y"><path class="ygrid crisp" transform="translate(0,96.4)" d="M28,0h111" style="stroke: rgb(128, 128, 128); stroke-opacity: 1; stroke-width: 0.2px;"/><path class="ygrid crisp" transform="translate(0,76.8)" d="M28,0h111" style="stroke: rgb(128, 128, 128); stroke-opacity: 1; stroke-width: 0.2px;"/><path class="ygrid crisp" transform="translate(0,57.2)" d="M28,0h111" style="stroke: rgb(128, 128, 128); stroke-opacity: 1; stroke-width: 0.2px;"/><path class="ygrid crisp" transform="translate(0,37.6)" d="M28,0h111" style="stroke: rgb(128, 128, 128); stroke-opacity: 1; stroke-width: 0.2px;"/></g></g><g class="zerolinelayer"/><g class="layer-between"><g class="shapelayer"/><g class="imagelayer"/></g><path class="xlines-below"/><path class="ylines-below"/><g class="overlines-below"/><g class="xaxislayer-below"/><g class="yaxislayer-below"/><g class="overaxes-below"/><g class="overplot"><g class="xy" transform="translate(28,18)" clip-path="url(#clipdda343xyplot)"><g class="scatterlayer mlayer"><g class="trace scatter traceff2fc8" style="stroke-miterlimit: 2; opacity: 1;"><g class="fills"/><g class="errorbars"/><g class="lines"><path class="js-line" d="M0.1,85.29L0.21,89.42L0.65,82.84L0.83,83.84L0.85,83.91L0.98,84.27L1.22,81.88L1.24,81.55L2.25,78.55L2.28,78.67L2.31,78.74L3.39,77.62L3.42,77.67L3.45,77.66L3.81,78.59L4.2,77.26L4.25,77.46L4.27,77.62L4.71,78.34L5,77.94L5.03,77.57L5.23,75.25L5.49,77.76L5.7,77.3L5.73,77.43L5.85,78.12L6.37,76.91L6.4,76.87L6.66,77.48L7.07,76.47L7.1,76.42L7.36,76.03L7.8,76.66L7.82,76.7L8.37,75.83L8.39,75.65L8.65,74.87L8.94,76.24L9.12,75.82L9.14,75.88L10.49,75.01L10.52,75.13L10.54,75.27L10.75,76L10.98,74.84L11.24,74.89L11.27,74.73L11.63,75.36L12.07,73.89L12.1,73.91L12.33,74.86L12.69,73.49L12.8,73.58L12.82,73.49L13.16,73.87L13.6,72.5L13.78,73.13L13.81,73.18L14.4,72.47L14.71,72.93L14.74,72.93L15.02,73.11L15.36,72.51L15.39,72.55L16.53,72.66L16.55,72.74L16.58,72.86L16.99,71.75L17.41,72.43L17.43,72.57L17.51,72.74L17.72,71.83L17.98,72.09L18,72L18.34,70.56L18.86,71.08L18.88,71.16L19.2,71.03L19.35,71.69L19.38,71.77L19.71,70.53L19.74,70.44L20.98,70.14L21.01,70.02L22.1,68.63L22.17,69.06L22.2,69.22L22.82,68.71L23,69.7L23.03,69.69L23.06,69.64L23.34,67.37L23.55,69.01L23.57,69.2L24.97,66.54L25.05,66.86L25.08,66.93L25.62,66.45L25.88,68.57L25.9,68.75L25.98,69L26.19,67.2L26.22,67.11L26.53,66.14L26.73,67.81L26.89,67.46L26.91,67.43L27.2,69.42L27.56,68.41L27.59,68.19L28.6,65.34L28.62,65.49L28.65,65.68L28.96,64.88L29.22,65.74L29.25,65.55L29.27,65.02L30.1,63.06L30.15,63.13L30.18,63.21L30.8,63.47L31.01,62.96L31.03,62.89L31.97,62.58L32.04,62.73L32.07,62.73L33.65,61.12L33.75,61.22L33.78,61.28L34.61,61.46L34.69,61.31L34.71,61.21L34.95,60.89L35.26,61.59L35.28,61.49L35.31,61.57L37.74,61.17L37.77,61.28L38.13,60.73L38.34,61.57L38.36,61.87L38.68,63.81L39.06,61.69L39.09,61.49L39.32,58.97L39.94,59.93L39.97,60.09L40.31,61.11L40.46,60.25L40.49,59.98L41.34,58.28L41.37,58.3L41.4,58.37L42.59,56.01L42.67,56.2L42.69,56.24L42.85,56.49L43.13,55.32L43.18,55.38L43.21,55.2L43.44,52.97L43.99,54.28L44.01,54.49L44.37,56.72L44.79,54.82L44.82,54.7L45.44,53.54L45.59,54.47L45.62,54.48L46.11,54.16L46.37,55.87L46.42,55.73L46.45,55.62L47.28,52.76L47.54,53.88L47.56,54.21L47.64,54.59L47.98,53.09L48,52.75L48.93,50.58L48.96,50.61L49.04,51.03L49.56,50L49.71,50.66L49.74,50.64L50.2,49.42L50.54,49.91L50.57,50.18L51.37,48.79L51.47,49.03L51.5,49.03L51.58,49.44L52.07,48.22L52.09,48.06L53,47.22L53.05,47.28L53.08,47.36L54.5,45.67L54.53,45.86L55.82,43.86L56.01,44.67L56.03,44.93L56.06,45.08L56.58,43.9L56.6,43.85L57.51,42.23L57.74,42.74L57.77,42.8L58.62,41.08L58.67,41.09L58.7,41.23L59.19,40.4L59.55,42.12L59.61,41.91L59.63,41.91L59.97,40.77L60.59,41.1L60.62,41.14L61.5,38.77L61.52,38.59L61.65,38.49L61.86,39.22L61.89,39.4L62.15,41.02L62.66,39.85L62.69,39.47L62.87,37.22L63.16,39.77L63.44,38.98L63.47,39.25L63.62,39.97L64.06,38.6L64.17,38.76L64.19,38.78L64.45,39.15L64.79,38.29L64.81,38.06L65.1,36.49L65.75,36.71L65.77,36.78L66.37,37.09L66.39,36.83L66.42,36.69L67.35,34.86L67.38,34.78L68.52,33.27L68.54,33.36L68.57,33.36L69.01,32.51L69.11,33.13L69.14,33.36L69.27,33.97L69.53,31.65L69.55,31.65L69.58,31.68L70.15,28.26L70.18,27.93L70.38,26.5L70.98,27.21L71,27.15L71.68,26.46L71.76,26.91L71.78,27.07L72.17,28.54L72.64,27.63L72.66,27.58L73.85,23.19L74.06,23.55L74.09,23.64L75.1,24.42L75.28,24.14L75.3,24.05L76.37,23.01L76.39,23.7L76.42,24.49L76.68,30.14L77.27,29.29L77.3,29.37L77.77,29.51L78.02,29.1L78.05,29.07L80.9,32.43L80.93,32.57L81.16,32.89L81.57,32.27L81.6,32.16L82.56,30.96L82.58,30.73L83.8,30.02L83.83,30.05L84.22,31.22L84.68,30.92L84.71,30.96L85.56,31.26L85.62,31.12L85.64,31.07L86.78,33.65L87.14,33.43L87.17,33.42L88.46,33.09L88.49,33.02L90.15,32.07L90.33,32.53L90.36,32.56L90.46,32.82L90.93,31.98L90.95,31.82L91.31,32.09L91.88,30.98L91.94,31.08L91.96,31.11L93.31,30.6L93.36,30.77L93.39,30.81L94.58,30.75L94.6,30.69L94.63,30.66L95.46,30.59L95.48,30.65L95.51,30.76L97.92,30.04L97.95,30.08L99.53,30.19L99.55,30.27L99.97,29.69L99.99,29.61L100.02,29.5L100.25,29.01L100.69,30.11L100.72,30.2L100.95,30.28L101,29.6L101.03,29.46L101.36,32.32L101.39,32.73L101.83,34.69L102.09,32.37L102.12,32.25L102.43,29.57L102.92,30.53L102.94,30.63L103.9,33.3L104.08,32.94L104.11,32.93L104.86,33.28L104.97,33.1L104.99,32.94L105.98,30.6L106,30.71L106.03,30.65L106.13,31.14L106.39,30.05L106.7,31L106.73,31.01L107.04,28.84L107.12,29.04" style="vector-effect: none; fill: none; stroke: rgb(217, 95, 2); stroke-opacity: 1; stroke-width: 1.5px; opacity: 1;"/></g><g class="points"/><g class="text"/></g><g class="trace scatter tracea27f67" style="stroke-miterlimit: 2; opacity: 1;"><g class="fills"/><g class="errorbars"/><g class="lines"><path class="js-line" d="M0.1,85.44L0.13,89.87L0.65,82.3L0.83,84.97L0.85,84.76L2.25,78.13L2.28,78.19L3.21,76.32L3.52,77.11L3.55,77.18L4.38,75.61L4.71,76.03L4.74,76.22L6.04,74.15L6.19,74.47L6.22,74.62L6.5,74.6L6.68,74.09L6.71,74.28L6.74,74.07L6.92,74.12L7.43,71.31L7.67,72.27L7.69,72.73L7.9,73.26L8.32,71.69L8.34,71.67L8.7,72.5L9.12,71.88L9.14,71.76L10.34,70.18L10.36,70.35L10.39,70.41L11.09,70.94L11.24,70.68L11.27,70.5L11.4,70.03L11.68,71.4L12.02,70.52L12.05,70.41L13.08,70.5L13.11,70.28L13.13,70.23L13.63,69.25L14.01,69.69L14.04,69.75L14.17,69.94L14.4,68.93L14.43,68.8L14.61,69.2L14.92,68.44L15.18,68.85L15.21,68.9L16.81,66.64L16.92,66.93L16.94,67.07L17.23,67.81L17.77,67.48L17.8,67.33L18.63,66.4L18.65,66.57L19.61,67.13L19.64,67.03L19.66,66.91L19.92,66.08L20.49,66.27L20.52,66.41L20.62,66.58L20.93,66.15L21.16,66.11L21.19,66L21.55,64.53L21.94,65.86L21.97,66L22.05,66.33L22.51,64.82L22.59,65.03L22.61,64.99L23.42,63.62L23.7,64.25L23.73,64.41L23.88,64.98L24.32,63.66L24.35,63.49L24.58,63.64L24.87,63.15L25.18,63.47L25.21,63.55L25.67,62L26.03,62.82L26.06,62.86L26.5,63.25L26.97,62.45L26.99,62.43L28.18,63.69L28.21,63.61L28.24,63.57L28.7,62.33L28.96,63.68L28.99,63.7L30.85,57.58L31.01,58.32L31.03,58.37L32.1,59.93L32.12,59.92L32.51,60.34L33.05,58.65L33.08,58.73L33.11,58.85L33.57,59.73L33.86,58.92L33.88,58.82L34.32,57.42L34.35,57.3L35.18,56.51L35.2,56.38L37.3,52.64L37.43,52.96L37.46,52.96L37.69,53.36L37.87,52.56L37.9,52.38L38.16,52.66L38.68,51.68L38.7,51.99L38.73,52.3L38.93,55.03L39.53,53.37L39.56,53.19L39.87,53.46L40.51,49.93L40.59,50.22L40.62,50.71L40.98,51.56L41.24,49.16L41.4,50.25L41.42,50.56L42.28,52.3L42.3,52.37L43.05,50.76L43.26,51.39L43.29,51.55L43.47,52L43.83,50.15L43.86,50.08L44.12,49.12L44.4,50.26L44.69,49.78L44.71,49.78L44.87,50.36L45.13,49.27L45.39,49.44L45.41,49.46L45.98,47.79L46.47,47.92L46.5,47.91L46.81,47.03L46.99,47.89L47.02,48.09L47.17,48.35L47.35,46.97L47.38,46.77L47.46,46.41L47.82,48.06L48.08,47.14L48.11,47.05L48.55,45.57L49.01,46.05L49.04,46.15L50.67,44.18L50.77,44.39L50.8,44.54L50.95,45.04L51.19,43.84L51.21,43.64L52.2,41.66L52.33,41.9L52.35,41.93L52.69,41.03L52.87,41.89L52.9,42L53.73,42.59L53.78,42.51L53.8,42.42L55.28,39.23L55.41,39.82L55.44,40.04L55.64,40.37L55.98,39.21L56.01,38.97L56.37,39.11L56.73,37.93L56.91,38.4L56.94,38.43L57.07,38.99L57.56,37.76L57.59,37.56L58.39,32.32L58.8,33.9L58.83,33.95L59.63,34.87L59.68,34.84L59.71,34.7L59.94,33.88L60.23,35.21L60.38,34.93L60.41,34.9L61.42,33.48L61.47,33.5L61.5,33.54L62.48,30.04L62.79,31.04L62.82,31.07L63,31.14L63.21,30.56L63.23,30.44L63.88,30.61L63.96,30.75L63.98,30.82L64.24,29.51L64.27,29.13L64.55,27.39L64.99,28.96L65.02,28.9L65.28,28.37L65.8,28.73L65.82,28.81L65.98,28.9L66.16,28.24L66.19,28.14L66.83,26.4L66.86,26.1L67.66,24.99L67.74,25.15L67.77,25.15L68.83,25.15L68.85,25.31L69.22,24.01L69.24,23.72L69.42,23.11L69.76,24.69L69.94,24.23L69.97,24.29L71.78,21.24L71.91,21.79L71.94,21.89L72.74,22.94L72.82,22.89L72.84,22.9L73.83,20.05L74.35,20.61L74.37,20.69L74.68,21.19L74.99,20.5L75.02,20.5L76.06,19.55L76.08,19.43L76.37,19.09L76.47,19.75L76.5,19.93L77.12,22.23L77.38,21.48L77.4,21.54L77.58,21.79L77.84,20.9L77.9,20.88L77.92,20.84L78.23,20.87L78.39,20.29L78.41,19.99L78.62,18.38L79.01,20.91L79.03,21.07L79.16,21.3L79.48,20.3L79.5,20.31L79.53,20.31L80.38,21.6L80.51,20.89L80.54,20.62L81.47,17.49L81.55,17.75L81.57,17.8L82.22,20.16L82.4,18.83L82.43,18.53L82.82,16.24L82.97,20.53L83,21.33L83.83,24.42L83.85,24.48L84.45,22.51L84.66,23.87L84.68,24.02L84.79,24.13L85.1,23.58L85.12,23.57L85.15,23.39L85.43,22.61L85.93,23.34L85.95,23.36L86.06,23.66L86.34,22.87L86.68,23.25L86.7,23.08L87.07,23.54L87.43,22.94L87.53,23.07L87.56,23.11L88,24.12L88.26,23.43L88.28,23.4L88.49,23.01L88.7,23.99L88.72,24.19L88.83,24.59L89.19,23.18L89.22,22.93L89.63,22.5L89.79,23.52L89.81,23.77L90.1,25.68L90.48,23.39L90.51,23.3L90.98,24.73L91.26,23.81L91.29,23.73L91.6,22.36L91.83,24.15L91.86,24.45L92.09,24.89L92.4,23.91L92.58,24.22L92.61,24.27L92.95,24.62L93.18,23.99L93.2,23.87L93.39,23.11L93.83,24.27L93.85,24.4L94.16,25.83L94.71,25.11L94.73,25.12L95.56,27.06L95.59,27.39L95.87,29.14L96.18,26.66L96.29,26.88L96.31,26.92L97.09,24.36L97.12,24.07L97.74,22.72L97.89,23.83L97.92,24.07L98.33,25.24L98.77,24.97L98.8,24.96L99.27,20.96L99.6,23L99.63,23.28L99.99,25.38L100.48,24.23L100.51,24.09L101.55,20.13L101.7,20.49L101.73,20.5L102.4,23.02L102.63,21.75L102.66,21.68L103.54,19.96L103.83,20.67L103.85,20.73L103.98,20.87L104.21,20.09L104.24,19.92L105.04,20.54L105.12,19.9L105.15,19.37L105.48,21.11L105.79,20.34L105.82,20.25L106.08,19.93L106.18,20.77L106.21,20.85L107.12,24.52" style="vector-effect: none; fill: none; stroke: rgb(217, 95, 2); stroke-opacity: 1; stroke-width: 1.5px; opacity: 1;"/></g><g class="points"/><g class="text"/></g><g class="trace scatter trace712aa2" style="stroke-miterlimit: 2; opacity: 1;"><g class="fills"/><g class="errorbars"/><g class="lines"><path class="js-line" d="M0.1,84L0.13,88.6L0.83,82.73L0.85,82.41L2.38,76.23L2.41,76.34L2.49,76.39L2.59,75.75L3.24,76.16L3.26,76.3L3.5,76.6L3.81,75.77L3.91,76.08L3.94,75.77L4.25,76.02L4.58,75.33L4.61,75.31L5.1,74.43L5.13,74.25L5.39,73.84L5.62,74.4L5.65,74.86L6.68,73.17L6.81,73.76L6.84,73.89L6.89,74.11L7.15,73.15L7.43,73.38L7.46,73.21L7.62,73.57L8.57,72.55L8.68,72.8L8.7,72.89L8.81,73.1L9.2,71.76L9.3,71.89L9.33,71.78L9.66,71.93L10.05,71.19L10.18,71.39L10.21,71.59L10.26,71.65L10.83,70.6L11.04,70.74L11.06,70.68L11.55,69.62L11.86,70.14L11.89,70.28L12.02,70.53L12.18,69.61L12.2,69.38L13.13,68.29L13.16,68.57L13.19,68.65L13.21,68.84L13.81,67.69L13.86,67.89L13.88,67.92L14.74,66.47L14.95,66.95L14.97,67.03L15.59,65.96L15.8,66.52L15.83,66.35L15.93,66.5L16.22,65.77L16.4,66.02L16.42,65.87L16.79,66.02L17.54,64.46L17.64,64.76L17.67,64.85L18,65.24L18.31,64.46L18.39,64.8L18.42,65L18.57,65.1L18.75,64.46L18.78,64.21L18.91,64.52L19.07,63.68L19.09,63.36L19.38,64.06L20.08,62.36L20.18,62.61L20.21,62.84L20.62,63.18L21.45,60.82L21.53,60.98L21.55,61.21L21.73,62.09L22.07,60.72L22.17,61.13L22.2,60.93L22.23,60.71L22.8,61.43L22.93,61.12L22.95,61.14L23.75,59.13L23.96,59.68L23.99,59.93L24.97,58.22L25.13,58.76L25.15,58.85L25.23,59.19L25.7,58.08L25.72,58.15L25.75,57.94L25.93,58L26.73,55.97L26.76,55.97L26.86,56.38L27.3,55.1L27.33,54.94L28.34,53.2L28.37,53.31L29.38,52.16L29.4,52.28L29.43,52.39L30.36,50.2L30.41,50.43L30.44,50.54L30.88,50.3L31.29,51.26L31.37,51.15L31.4,51.07L31.81,49.03L32.38,49.36L32.41,49.35L32.61,49.78L32.87,48.93L32.92,48.93L32.95,48.84L33.11,48.88L33.73,47.53L33.91,47.73L33.93,47.77L34.01,48.17L34.53,47.27L34.58,47.38L34.61,47.25L34.69,47.4L35.02,46.7L35.05,46.41L36.11,44.43L36.14,44.49L39.09,40.35L39.12,40.14L39.37,39.9L39.58,40.99L39.61,41.2L40.07,41.87L40.31,40.84L40.33,40.62L41.03,38.31L41.37,39.39L41.4,39.43L41.5,39.95L41.91,38.66L42.02,38.87L42.04,38.78L43.29,35.21L43.31,34.82L43.52,33.63L44.06,34.73L44.09,34.81L44.45,34L44.66,35.35L44.69,35.57L44.71,35.77L45.18,34.81L45.41,35.24L45.44,35.18L45.98,31.5L46.47,32.92L46.5,32.92L46.78,33.14L47.48,30.35L47.51,30.23L47.9,27.66L48.31,28.88L48.34,28.99L48.47,29.53L48.73,28.81L49.06,28.81L49.09,28.75L51.65,20.95L51.73,21.37L51.76,21.41L52.33,22.43L52.66,21.66L52.69,21.55L52.74,21.39L53.1,22.42L53.31,22.02L53.34,22.05L54.48,18.42L54.5,18.27L57.38,10.26L57.46,10.66L57.48,10.85L58.8,16.23L59.01,16.08L59.04,16.01L59.84,16.93L59.97,16.41L59.99,16.3L60.69,13.91L60.95,14.5L60.98,14.74L61.26,14.07L62.25,17.04L62.43,16.1L62.46,15.88L63.28,15.12L63.34,15.28L63.36,15.35L63.54,15.46L63.83,14.77L63.85,14.74L64.76,13.54L64.79,13.4L65.64,14.63L65.93,14.08L65.95,14.03L66.44,13.45L66.76,13.77L66.78,13.88L68.15,12.83L68.18,12.78L69.09,11.3L69.19,11.38L69.22,11.34L69.61,12.45L69.63,12.57L70.05,14.34L70.07,14.74L70.2,15.99L70.38,13.08L70.41,12.69L70.54,10.87L71.06,15.79L71.08,15.9L71.34,13.17L71.65,16.52L71.76,16.29L71.78,16.19L72.07,17.09L72.61,16.66L72.64,16.49L72.97,14.97L73,14.76L73.13,14.41L73.59,15.75L73.62,15.81L73.78,15.98L74.06,15.23L74.09,15.03L74.58,15.99L74.92,13.59L74.94,13.83L74.97,14.2L75.23,17.41L75.74,14.87L75.77,14.9L76.31,18.27L76.63,16.02L76.65,15.82L76.83,15.23L77.09,16.3L77.12,16.52L77.58,15.81L78.02,19.88L78.15,19.08L78.18,18.86L78.75,15.71L79.09,17.14L79.11,17.41L79.58,16.26L79.6,16.16L80.56,15.23L80.61,15.34L80.64,15.39L80.98,17.24L81,17.54L81.26,19.45L81.91,18.9L81.94,18.98L83.26,16.72L83.39,16.83L83.41,17L83.88,16.46L84.34,17.38L84.37,17.35L84.4,17.24L84.71,16.22L85.1,16.73L85.12,17.25L86.13,20.16L86.26,20L86.29,19.95L87.17,20.01L87.19,19.87L87.22,19.64L87.69,18.28L88.02,19.04L88.05,19.19L88.52,20.36L88.9,19.91L88.93,19.79L89.01,19.42L89.47,20.84L89.5,20.96L90.79,20.99L90.82,21.11L90.85,21.15L91.73,21.37L91.75,21.21L91.78,21.06L92.87,17.44L92.92,17.49L92.95,17.74L93.36,15.96L93.72,16.54L93.75,16.81L94.71,18.03L94.86,17.54L94.89,17.42L95.04,17.7L95.46,15.84L95.66,17.16L95.69,17.41L96.52,18.07L96.62,17.99L96.65,17.94L96.91,18.23L97.06,17.46L97.09,17.35L97.89,16.12L97.97,16.31L98,16.44L98.59,16.68L98.62,16.82L99.14,18.08L99.45,17.55L99.47,17.58L100.3,18.75L100.33,18.93L101.42,11.31L101.44,11.35L101.47,11.35L102.89,17.96L102.92,18.15L103.15,15.03L103.28,18.15L103.31,18.92L103.38,20.23L103.67,14.82L103.82,15.36L103.85,15.25L105.51,22.13L105.56,22.01L105.59,21.98L106,17.97L106.03,17.37L106.29,14.35L106.8,15.62L106.83,15.7L107.3,18.17L107.45,15.77L107.48,15.21L107.58,13.4L107.94,16.42L108.2,15.68L108.23,15.69L110.17,20.02L110.2,31.35L110.74,80.23" style="vector-effect: none; fill: none; stroke: rgb(217, 95, 2); stroke-opacity: 1; stroke-width: 1.5px; opacity: 1;"/></g><g class="points"/><g class="text"/></g><g class="trace scatter tracedfc981" style="stroke-miterlimit: 2; opacity: 1;"><g class="fills"/><g class="errorbars"/><g class="lines"><path class="js-line" d="M0,78.4L14.2,72.28L14.22,72.27L27.8,64.66L27.82,64.64L38.11,57.43L38.13,57.41L49.09,48.04L49.11,48.01L58.73,38.12L58.75,38.09L74.16,20.7L74.19,20.7L78.75,20.6L78.78,20.6L111,20.61" style="vector-effect: none; fill: none; stroke: rgb(0, 0, 0); stroke-opacity: 1; stroke-dasharray: 3px, 3px; stroke-width: 1.5px; opacity: 1;"/></g><g class="points"/><g class="text"/></g></g></g></g><path class="xlines-above crisp" d="M27.5,116.25H139.5M27.5,17.75H139.5" style="fill: none; stroke-width: 0.5px; stroke: rgb(0, 0, 0); stroke-opacity: 1;"/><path class="ylines-above crisp" d="M27.75,18V116M139.25,18V116" style="fill: none; stroke-width: 0.5px; stroke: rgb(0, 0, 0); stroke-opacity: 1;"/><g class="overlines-above"/><g class="xaxislayer-above"><g class="xtick"><text text-anchor="middle" x="0" y="129.7" transform="translate(28,0)" style="font-family: 'Open Sans', verdana, arial, sans-serif; font-size: 11px; fill: rgb(0, 0, 0); fill-opacity: 1; white-space: pre; opacity: 1;">0</text></g><g class="xtick"><text text-anchor="middle" x="0" y="129.7" style="font-family: 'Open Sans', verdana, arial, sans-serif; font-size: 11px; fill: rgb(0, 0, 0); fill-opacity: 1; white-space: pre; opacity: 1;" transform="translate(46.629999999999995,0)">12</text></g><g class="xtick"><text text-anchor="middle" x="0" y="129.7" style="font-family: 'Open Sans', verdana, arial, sans-serif; font-size: 11px; fill: rgb(0, 0, 0); fill-opacity: 1; white-space: pre; opacity: 1;" transform="translate(65.25999999999999,0)">24</text></g><g class="xtick"><text text-anchor="middle" x="0" y="129.7" style="font-family: 'Open Sans', verdana, arial, sans-serif; font-size: 11px; fill: rgb(0, 0, 0); fill-opacity: 1; white-space: pre; opacity: 1;" transform="translate(83.9,0)">36</text></g><g class="xtick"><text text-anchor="middle" x="0" y="129.7" style="font-family: 'Open Sans', verdana, arial, sans-serif; font-size: 11px; fill: rgb(0, 0, 0); fill-opacity: 1; white-space: pre; opacity: 1;" transform="translate(102.53,0)">48</text></g><g class="xtick"><text text-anchor="middle" x="0" y="129.7" style="font-family: 'Open Sans', verdana, arial, sans-serif; font-size: 11px; fill: rgb(0, 0, 0); fill-opacity: 1; white-space: pre; opacity: 1;" transform="translate(121.16,0)">60</text></g></g><g class="yaxislayer-above"><g class="ytick"><text text-anchor="end" x="25.3" y="3.8499999999999996" transform="translate(0,116)" style="font-family: 'Open Sans', verdana, arial, sans-serif; font-size: 11px; fill: rgb(0, 0, 0); fill-opacity: 1; white-space: pre; opacity: 1;">0</text></g><g class="ytick"><text text-anchor="end" x="25.3" y="3.8499999999999996" style="font-family: 'Open Sans', verdana, arial, sans-serif; font-size: 11px; fill: rgb(0, 0, 0); fill-opacity: 1; white-space: pre; opacity: 1;" transform="translate(0,96.4)">0.1</text></g><g class="ytick"><text text-anchor="end" x="25.3" y="3.8499999999999996" style="font-family: 'Open Sans', verdana, arial, sans-serif; font-size: 11px; fill: rgb(0, 0, 0); fill-opacity: 1; white-space: pre; opacity: 1;" transform="translate(0,76.8)">0.2</text></g><g class="ytick"><text text-anchor="end" x="25.3" y="3.8499999999999996" style="font-family: 'Open Sans', verdana, arial, sans-serif; font-size: 11px; fill: rgb(0, 0, 0); fill-opacity: 1; white-space: pre; opacity: 1;" transform="translate(0,57.2)">0.3</text></g><g class="ytick"><text text-anchor="end" x="25.3" y="3.8499999999999996" style="font-family: 'Open Sans', verdana, arial, sans-serif; font-size: 11px; fill: rgb(0, 0, 0); fill-opacity: 1; white-space: pre; opacity: 1;" transform="translate(0,37.6)">0.4</text></g><g class="ytick"><text text-anchor="end" x="25.3" y="3.8499999999999996" style="font-family: 'Open Sans', verdana, arial, sans-serif; font-size: 11px; fill: rgb(0, 0, 0); fill-opacity: 1; white-space: pre; opacity: 1;" transform="translate(0,18)">0.5</text></g></g><g class="overaxes-above"/></g></g><g class="polarlayer"/><g class="smithlayer"/><g class="ternarylayer"/><g class="geolayer"/><g class="funnelarealayer"/><g class="pielayer"/><g class="iciclelayer"/><g class="treemaplayer"/><g class="sunburstlayer"/><g class="glimages"/><defs id="topdefs-dda343"><g class="clips"/></defs><g class="layer-above"><g class="imagelayer"/><g class="shapelayer"/></g><g class="infolayer"><g class="g-gtitle"><text class="gtitle" x="7.5" y="9" text-anchor="start" dy="0em" style="opacity: 1; font-family: 'Open Sans', verdana, arial, sans-serif; font-size: 11px; fill: rgb(0, 0, 0); fill-opacity: 1; white-space: pre;"><tspan style="font-style:italic">O. anthropi</tspan></text></g><g class="g-xtitle" transform="translate(0,4.550000000000011)"><text class="xtitle" x="83.5" y="140.153125" text-anchor="middle" style="opacity: 1; font-family: 'Open Sans', verdana, arial, sans-serif; font-size: 11px; fill: rgb(0, 0, 0); fill-opacity: 1; white-space: pre;">Time [h]</text></g><g class="g-ytitle"/></g></svg>