<svg class="main-svg" xmlns="http://www.w3.org/2000/svg" xmlns:xlink="http://www.w3.org/1999/xlink" width="150" height="150" style="" viewBox="0 0 150 150"><rect x="0" y="0" width="150" height="150" style="fill: rgb(255, 255, 255); fill-opacity: 1;"/><defs id="defs-6f223e"><g class="clips"><clipPath id="clip6f223exyplot" class="plotclip"><rect width="109" height="115"/></clipPath><clipPath class="axesclip" id="clip6f223ex"><rect x="35" y="0" width="109" height="150"/></clipPath><clipPath class="axesclip" id="clip6f223ey"><rect x="0" y="10" width="150" height="115"/></clipPath><clipPath class="axesclip" id="clip6f223exy"><rect x="35" y="10" width="109" height="115"/></clipPath></g><g class="gradients"/><g class="patterns"/></defs><g class="bglayer"/><g class="layer-below"><g class="imagelayer"/><g class="shapelayer"/></g><g class="cartesianlayer"><g class="subplot xy"><g class="layer-subplot"><g class="shapelayer"/><g class="imagelayer"/></g><g class="minor-gridlayer"><g class="x"/><g class="y"/></g><g class="gridlayer"><g class="x"><path class="xgrid crisp" transform="translate(53.17,0)" d="M0,10v115" style="stroke: rgb(0, 0, 0); stroke-opacity: 1; stroke-width: 0.5px;"/><path class="xgrid crisp" transform="translate(71.33,0)" d="M0,10v115" style="stroke: rgb(0, 0, 0); stroke-opacity: 1; stroke-width: 0.5px;"/><path class="xgrid crisp" transform="translate(89.5,0)" d="M0,10v115" style="stroke: rgb(0, 0, 0); stroke-opacity: 1; stroke-width: 0.5px;"/><path class="xgrid crisp" transform="translate(107.67,0)" d="M0,10v115" style="stroke: rgb(0, 0, 0); stroke-opacity: 1; stroke-width: 0.5px;"/><path class="xgrid crisp" transform="translate(125.83,0)" d="M0,10v115" style="stroke: rgb(0, 0, 0); stroke-opacity: 1; stroke-width: 0.5px;"/></g><g class="y"><path class="ygrid crisp" transform="translate(0,96.25)" d="M35,0h109" style="stroke: rgb(0, 0, 0); stroke-opacity: 1; stroke-width: 0.5px;"/><path class="ygrid crisp" transform="translate(0,67.5)" d="M35,0h109" style="stroke: rgb(0, 0, 0); stroke-opacity: 1; stroke-width: 0.5px;"/><path class="ygrid crisp" transform="translate(0,38.75)" d="M35,0h109" style="stroke: rgb(0, 0, 0); stroke-opacity: 1; stroke-width: 0.5px;"/></g></g><g class="zerolinelayer"><path class="xzl zl crisp" transform="translate(35,0)" d="M0,10v115" style="stroke: rgb(0, 0, 0); stroke-opacity: 1; stroke-width: 0.5px;"/><path class="yzl zl crisp" transform="translate(0,125)" d="M35,0h109" style="stroke: rgb(0, 0, 0); stroke-opacity: 1; stroke-width: 0.5px;"/></g><g class="layer-between"><g class="shapelayer"/><g class="imagelayer"/></g><path class="xlines-below"/><path class="ylines-below"/><g class="overlines-below"/><g class="xaxislayer-below"/><g class="yaxislayer-below"/><g class="overaxes-below"/><g class="overplot"><g class="xy" transform="translate(35,10)" clip-path="url(#clip6f223exyplot)"><g class="scatterlayer mlayer"><g class="trace scatter trace012120" style="stroke-miterlimit: 2; opacity: 0.5;"><g class="fills"/><g class="errorbars"/><g class="lines"><path class="js-line" d="M0.23,89.13L0.74,83.38L1.24,84.81L1.49,84.81L2.25,84.81L2.5,83.38L3.01,86.25L3.26,83.38L3.51,83.38L3.76,81.94L4.27,83.38L4.52,83.38L5.28,84.81L5.53,83.38L5.78,86.25L6.29,84.81L6.54,84.81L6.79,86.25L7.3,84.81L7.55,84.81L9.06,84.81L9.31,86.25L9.57,86.25L9.82,87.69L10.07,87.69L10.32,86.25L10.58,87.69L11.08,86.25L11.33,86.25L11.59,86.25L11.84,87.69L12.09,87.69L12.34,86.25L13.1,86.25L13.35,87.69L13.6,87.69L13.86,89.13L14.87,87.69L15.12,87.69L15.37,89.13L15.87,87.69L16.13,87.69L16.88,87.69L17.14,89.13L18.15,87.69L18.4,87.69L23.95,87.69L24.2,89.13L25.21,87.69L25.46,87.69L26.47,86.25L26.72,86.25L27.23,86.25L27.48,87.69L27.73,87.69L27.99,86.25L28.74,84.81L29,86.25L29.25,86.25L29.5,84.81L30.26,81.94L30.51,83.38L30.76,84.81L31.52,83.38L31.77,84.81L32.02,84.81L32.28,83.38L32.78,81.94L33.03,83.38L33.28,83.38L34.04,81.94L34.29,83.38L35.81,79.06L36.06,80.5L36.56,81.94L36.82,79.06L37.57,79.06L37.83,80.5L38.58,77.63L38.84,79.06L39.84,76.19L40.1,77.63L41.11,76.19L41.36,76.19L41.61,76.19L41.86,74.75L42.12,74.75L42.37,73.31L42.62,73.31L42.87,74.75L43.12,74.75L43.38,71.88L43.63,73.31L44.13,71.88L44.39,71.88L45.9,67.56L46.15,66.13L47.16,66.13L47.41,64.69L47.92,66.13L48.17,64.69L48.42,63.25L48.93,63.25L49.18,61.81L49.43,61.81L49.68,63.25L49.94,63.25L50.19,61.81L50.69,61.81L50.95,60.38L51.2,60.38L51.45,61.81L51.96,61.81L52.21,60.38L52.46,61.81L52.97,60.38L53.22,58.94L54.23,61.81L54.48,60.38L55.99,56.06L56.25,58.94L56.5,60.38L56.75,54.63L57.51,60.38L57.76,57.5L58.52,63.25L58.77,58.94L59.02,60.38L59.53,58.94L59.78,56.06L60.53,60.38L60.79,56.06L61.29,56.06L61.54,53.19L61.8,54.63L62.05,50.31L62.3,56.06L62.55,50.31L62.81,50.31L63.06,57.5L63.31,48.88L63.56,54.63L63.81,50.31L64.32,56.06L64.57,48.88L64.82,48.88L65.08,50.31L65.33,53.19L65.58,48.88L65.83,50.31L66.09,50.31L66.34,51.75L66.59,50.31L66.84,47.44L67.35,48.88L67.6,44.56L68.1,48.88L68.36,44.56L69.37,38.81L69.62,47.44L70.37,44.56L70.63,48.88L70.88,46L71.13,50.31L71.38,47.44L71.64,50.31L73.4,40.25L73.65,44.56L74.16,47.44L74.41,46L74.66,44.56L74.92,44.56L75.17,46L75.42,46L75.67,47.44L76.18,46L76.43,47.44L76.68,38.81L77.19,44.56L77.44,43.13L77.69,40.25L77.94,43.13L78.2,37.38L78.7,41.69L78.95,35.94L79.46,34.5L79.96,43.13L80.22,41.69L80.72,43.13L80.97,40.25L81.22,43.13L81.48,43.13L81.73,41.69L81.98,43.13L82.23,40.25L82.49,41.69L82.74,34.5L82.99,41.69L83.5,38.81L83.75,28.75L84.76,37.38L85.01,37.38L85.26,38.81L85.51,33.06L86.52,40.25L86.78,40.25L87.03,37.38L87.53,38.81L87.78,38.81L88.04,38.81L88.29,31.63L88.79,37.38L89.05,30.19L89.8,37.38L90.06,30.19L90.56,37.38L90.81,35.94L91.06,35.94L92.07,28.75L92.33,30.19L92.58,30.19L93.08,31.63L93.34,28.75L93.59,31.63L94.85,21.56L95.1,24.44L95.35,24.44L95.61,27.31L96.36,24.44L96.62,28.75L96.87,25.88L97.12,31.63L97.37,30.19L97.62,25.88L97.88,27.31L98.13,30.19L98.38,30.19L98.63,27.31L98.89,27.31L99.14,30.19L99.39,27.31L99.9,28.75L100.15,30.19L100.4,31.63L100.65,30.19L100.9,27.31L101.41,33.06L101.66,28.75L101.91,31.63L102.42,31.63L102.67,37.38L104.69,27.31L104.94,30.19L105.19,30.19L105.45,25.88L105.95,24.44L106.2,28.75L106.46,27.31L106.71,25.88L107.21,23L107.47,27.31L107.72,23L107.97,27.31L108.22,28.75L108.98,24.44L109.23,27.31L109.48,24.44" style="vector-effect: none; fill: none; stroke: rgb(117, 112, 179); stroke-opacity: 1; stroke-width: 1px; opacity: 1;"/></g><g class="points"/><g class="text"/></g><g class="trace scatter trace894fcb" style="stroke-miterlimit: 2; opacity: 0.5;"><g class="fills"/><g class="errorbars"/><g class="lines"><path class="js-line" d="M0.23,89.13L1.24,84.81L1.49,86.25L2,86.25L2.25,83.38L3.51,80.5L3.76,80.5L4.02,80.5L4.27,81.94L5.03,80.5L5.28,81.94L6.03,83.38L6.29,81.94L7.3,83.38L7.55,83.38L8.31,83.38L8.56,84.81L9.06,84.81L9.31,83.38L10.07,83.38L10.32,84.81L10.83,84.81L11.08,86.25L11.33,84.81L11.84,86.25L12.09,86.25L12.34,84.81L12.85,86.25L13.1,86.25L13.35,86.25L13.6,87.69L14.61,86.25L14.87,86.25L15.12,86.25L15.37,87.69L15.62,86.25L16.13,87.69L16.38,87.69L16.88,86.25L17.14,87.69L17.39,87.69L18.15,86.25L18.4,87.69L18.65,87.69L18.9,86.25L19.91,87.69L20.16,87.69L24.2,87.69L24.45,86.25L25.46,87.69L25.72,87.69L29,87.69L29.25,86.25L29.5,84.81L29.75,86.25L30,87.69L30.76,84.81L31.01,86.25L31.27,86.25L31.52,87.69L31.77,84.81L32.28,86.25L32.53,86.25L33.28,86.25L33.54,84.81L34.8,87.69L35.05,87.69L35.56,87.69L35.81,89.13L36.82,87.69L37.07,87.69L38.33,87.69L38.58,89.13L39.59,87.69L39.84,89.13L40.6,89.13L40.85,87.69L41.11,89.13L41.61,87.69L41.86,86.25L42.87,84.81L43.12,84.81L44.13,83.38L44.39,83.38L44.64,83.38L44.89,81.94L45.4,83.38L45.65,81.94L45.9,81.94L46.91,83.38L47.16,83.38L48.42,79.06L48.68,79.06L49.94,79.06L50.19,77.63L50.44,77.63L50.69,79.06L51.7,81.94L51.96,80.5L52.46,80.5L52.71,81.94L53.47,77.63L53.72,74.75L53.97,74.75L54.23,73.31L54.48,74.75L54.73,73.31L54.98,70.44L58.01,54.63L58.26,56.06L59.53,53.19L59.78,54.63L60.28,53.19L60.53,54.63L60.79,54.63L61.8,53.19L62.05,57.5L63.56,57.5L63.81,60.38L64.07,58.94L64.32,60.38L64.57,61.81L66.09,69L66.34,66.13L67.35,64.69L67.6,64.69L67.85,64.69L68.1,63.25L70.12,70.44L70.37,69L70.63,70.44L70.88,67.56L71.13,61.81L71.64,66.13L71.89,66.13L72.14,64.69L72.39,67.56L72.65,69L73.65,70.44L73.91,69L74.41,69L74.66,67.56L74.92,67.56L75.17,69L75.42,67.56L75.67,73.31L77.69,66.13L77.94,66.13L78.45,66.13L78.7,64.69L79.46,58.94L79.71,54.63L80.47,43.13L80.72,44.56L81.48,34.5L81.73,40.25L82.49,31.63L82.74,34.5L83.5,40.25L83.75,37.38L84,37.38L84.25,43.13L84.76,46L85.01,40.25L85.51,43.13L85.77,41.69L86.02,43.13L86.27,43.13L86.52,37.38L86.78,37.38L87.03,34.5L87.28,34.5L87.53,33.06L88.79,33.06L89.05,20.13L89.3,20.13L89.55,24.44L89.8,23L90.06,27.31L90.31,25.88L90.56,28.75L90.81,30.19L91.06,30.19L91.32,31.63L91.57,35.94L92.07,33.06L92.33,33.06L92.83,37.38L93.08,35.94L93.34,35.94L93.59,35.94L93.84,34.5L94.09,34.5L94.34,35.94L95.61,27.31L95.86,28.75L96.11,28.75L96.36,31.63L96.62,27.31L97.12,28.75L97.37,28.75L97.62,38.81L98.13,30.19L98.38,34.5L98.63,40.25L99.14,35.94L99.39,34.5L99.64,30.19L99.9,33.06L100.15,38.81L100.9,40.25L101.16,35.94L101.66,41.69L101.91,31.63L102.67,38.81L102.92,37.38L103.18,40.25L103.43,37.38L103.68,33.06L104.18,41.69L104.44,38.81L104.69,38.81L105.95,34.5L106.2,35.94L106.96,41.69L107.21,38.81L107.47,38.81L107.72,40.25L108.22,38.81L108.47,33.06L109.23,35.94L109.48,34.5" style="vector-effect: none; fill: none; stroke: rgb(117, 112, 179); stroke-opacity: 1; stroke-width: 1px; opacity: 1;"/></g><g class="points"/><g class="text"/></g><g class="trace scatter trace714546" style="stroke-miterlimit: 2; opacity: 0.5;"><g class="fills"/><g class="errorbars"/><g class="lines"><path class="js-line" d="M0.23,93.44L0.99,86.25L1.24,87.69L1.49,86.25L1.75,86.25L2,89.13L2.5,84.81L2.75,86.25L3.01,87.69L4.02,83.38L4.27,83.38L5.28,87.69L5.53,84.81L5.78,84.81L6.03,86.25L6.29,84.81L6.54,86.25L6.79,87.69L7.3,86.25L7.55,89.13L8.31,87.69L8.56,89.13L8.81,89.13L9.06,87.69L9.31,89.13L9.57,87.69L9.82,86.25L10.83,90.56L11.08,87.69L11.33,87.69L11.59,89.13L12.34,89.13L12.59,87.69L13.35,89.13L13.6,87.69L14.87,92L15.12,90.56L15.37,87.69L15.62,90.56L15.87,92L16.13,92L16.38,90.56L17.14,90.56L17.39,92L17.64,89.13L18.15,90.56L18.4,92L19.41,89.13L19.66,92L20.42,90.56L20.67,92L21.43,92L21.68,90.56L22.43,92L22.69,90.56L23.7,92L23.95,90.56L25.21,90.56L25.46,92L26.47,89.13L26.72,89.13L27.99,89.13L28.24,87.69L29,87.69L29.25,86.25L29.5,86.25L29.75,87.69L31.01,84.81L31.27,84.81L31.52,83.38L31.77,84.81L32.02,86.25L32.78,84.81L33.03,87.69L33.28,84.81L33.79,86.25L34.04,86.25L34.8,86.25L35.05,87.69L36.31,84.81L36.56,87.69L36.82,84.81L37.32,86.25L37.57,87.69L38.58,86.25L38.84,86.25L39.09,86.25L39.34,84.81L39.59,86.25L39.84,83.38L40.1,83.38L40.85,84.81L41.11,83.38L41.36,83.38L41.61,81.94L42.12,81.94L42.37,80.5L43.38,76.19L43.63,74.75L43.88,74.75L44.13,73.31L44.89,74.75L45.14,71.88L45.4,73.31L45.9,71.88L46.15,70.44L46.66,70.44L46.91,69L47.67,70.44L47.92,69L48.17,71.88L48.68,70.44L48.93,71.88L49.18,71.88L49.43,73.31L49.68,71.88L49.94,73.31L50.19,74.75L50.95,73.31L51.2,74.75L51.96,71.88L52.21,74.75L52.46,73.31L52.97,74.75L53.22,74.75L53.47,73.31L53.72,74.75L53.97,77.63L54.23,73.31L54.73,76.19L54.98,74.75L55.24,77.63L55.49,74.75L55.74,74.75L55.99,74.75L56.25,76.19L56.5,76.19L56.75,73.31L57,74.75L57.25,73.31L57.51,71.88L57.76,70.44L58.01,71.88L58.26,73.31L59.53,69L59.78,71.88L60.28,70.44L60.53,73.31L62.05,64.69L62.3,67.56L63.31,66.13L63.56,67.56L64.32,66.13L64.57,67.56L64.82,69L65.33,67.56L65.58,66.13L65.83,66.13L66.09,64.69L66.34,64.69L66.59,67.56L67.6,61.81L67.85,63.25L68.61,66.13L68.86,64.69L69.37,61.81L69.62,66.13L69.87,60.38L70.37,64.69L70.63,63.25L70.88,66.13L71.38,63.25L71.64,63.25L71.89,66.13L72.39,63.25L72.65,60.38L73.91,54.63L74.16,56.06L74.66,57.5L74.92,56.06L75.17,56.06L75.42,54.63L75.67,57.5L75.93,56.06L76.18,57.5L76.43,58.94L76.93,57.5L77.19,57.5L77.44,57.5L77.69,61.81L77.94,61.81L78.2,63.25L78.95,57.5L79.21,58.94L80.22,50.31L80.47,58.94L81.22,67.56L81.48,60.38L81.73,57.5L81.98,63.25L82.23,58.94L82.49,57.5L82.99,57.5L83.24,56.06L84.5,53.19L84.76,53.19L85.01,43.13L85.26,53.19L85.51,57.5L86.27,51.75L86.52,53.19L86.78,56.06L87.03,51.75L87.28,50.31L88.54,57.5L88.79,53.19L89.8,46L90.06,48.88L90.31,46L90.81,48.88L91.06,47.44L92.07,40.25L92.33,43.13L92.58,44.56L92.83,41.69L93.08,40.25L93.34,40.25L93.59,41.69L94.34,37.38L94.6,37.38L94.85,38.81L95.35,37.38L95.61,35.94L96.11,38.81L96.36,35.94L96.62,34.5L97.12,28.75L97.62,30.19L97.88,31.63L98.13,31.63L98.38,27.31L98.63,28.75L98.89,25.88L99.14,27.31L99.39,27.31L100.4,25.88L100.65,25.88L100.9,23L101.16,25.88L101.41,27.31L103.18,34.5L103.43,31.63L104.18,34.5L104.44,33.06L104.94,30.19L105.19,31.63L105.45,33.06L106.46,35.94L106.71,33.06L107.47,37.38L107.72,33.06L108.22,30.19L108.47,35.94L108.98,30.19L109.23,33.06L109.48,35.94" style="vector-effect: none; fill: none; stroke: rgb(117, 112, 179); stroke-opacity: 1; stroke-width: 1px; opacity: 1;"/></g><g class="points"/><g class="text"/></g><g class="trace scatter trace0c4442" style="stroke-miterlimit: 2; opacity: 1;"><g class="fills"/><g class="errorbars"/><g class="lines"><path class="js-line" d="M0.23,94.88L1.75,84.81L2,89.13L2.75,83.38L3.01,86.25L3.76,81.94L4.02,83.38L4.27,81.94L4.52,83.38L4.77,84.81L5.03,84.81L5.28,86.25L6.29,83.38L6.54,84.81L7.04,84.81L7.3,83.38L7.55,86.25L8.05,84.81L8.31,86.25L8.56,86.25L8.81,87.69L9.82,84.81L10.07,86.25L10.58,84.81L10.83,87.69L11.33,84.81L11.84,86.25L12.09,86.25L12.59,86.25L12.85,87.69L13.35,87.69L13.6,86.25L14.87,89.13L15.12,87.69L15.37,86.25L15.62,87.69L15.87,89.13L16.13,89.13L16.38,87.69L16.88,87.69L17.14,89.13L17.39,90.56L17.64,87.69L17.89,89.13L18.15,89.13L19.15,90.56L19.41,87.69L20.16,90.56L20.42,87.69L20.92,90.56L21.17,89.13L21.43,89.13L21.68,87.69L22.18,89.13L22.43,89.13L23.44,87.69L23.7,89.13L24.71,87.69L24.96,87.69L25.21,87.69L25.46,89.13L26.72,86.25L26.98,86.25L28.74,86.25L29,84.81L29.25,84.81L29.5,86.25L29.75,86.25L30,84.81L30.76,86.25L31.01,84.81L31.77,83.38L32.02,84.81L32.78,83.38L33.03,84.81L34.04,83.38L34.29,83.38L34.8,83.38L35.05,84.81L35.81,81.94L36.06,81.94L36.31,80.5L36.56,83.38L36.82,81.94L37.07,83.38L38.08,83.38L38.33,81.94L39.59,79.06L39.84,77.63L40.1,77.63L40.35,79.06L41.11,77.63L41.36,79.06L41.86,77.63L42.12,79.06L42.37,80.5L43.12,77.63L43.38,79.06L43.88,77.63L44.13,79.06L44.39,79.06L45.14,76.19L45.4,79.06L46.15,77.63L46.4,79.06L46.66,79.06L46.91,76.19L47.16,76.19L47.41,77.63L47.67,76.19L47.92,77.63L48.17,79.06L49.68,71.88L49.94,73.31L50.44,71.88L50.69,74.75L51.96,70.44L52.21,71.88L53.47,69L53.72,71.88L54.98,69L55.24,70.44L55.99,67.56L56.25,67.56L56.5,67.56L56.75,64.69L57.25,67.56L57.51,66.13L57.76,64.69L58.26,67.56L58.52,66.13L58.77,63.25L59.27,66.13L59.78,64.69L60.03,63.25L60.28,63.25L60.53,64.69L62.05,58.94L62.3,60.38L63.06,56.06L63.31,58.94L63.56,61.81L64.32,58.94L64.57,60.38L65.33,57.5L65.58,58.94L65.83,58.94L67.09,56.06L67.35,56.06L67.6,56.06L67.85,57.5L68.61,60.38L68.86,60.38L69.37,61.81L69.62,60.38L69.87,57.5L70.12,58.94L70.37,56.06L70.63,54.63L71.89,57.5L72.14,57.5L73.15,54.63L73.4,54.63L74.41,53.19L74.66,53.19L74.92,53.19L75.17,54.63L75.42,51.75L75.93,53.19L76.18,54.63L77.19,56.06L77.44,56.06L78.7,58.94L78.95,56.06L79.21,56.06L79.46,54.63L79.71,54.63L79.96,56.06L80.72,51.75L80.97,54.63L81.22,54.63L81.48,56.06L83.24,46L83.5,41.69L84.25,46L84.5,44.56L84.76,44.56L85.01,46L85.51,47.44L85.77,41.69L86.02,43.13L86.27,44.56L86.78,48.88L87.03,47.44L87.28,47.44L88.04,48.88L88.29,46L89.05,50.31L89.3,50.31L89.55,50.31L89.8,48.88L90.06,53.19L90.56,50.31L90.81,51.75L91.82,46L92.07,46L92.58,48.88L92.83,46L93.08,43.13L93.34,46L93.59,46L94.09,47.44L94.34,44.56L94.6,46L95.86,48.88L96.11,48.88L96.87,40.25L97.12,41.69L97.37,46L98.13,47.44L98.38,44.56L99.64,48.88L99.9,47.44L100.15,48.88L100.4,46L100.65,47.44L100.9,44.56L101.91,53.19L102.17,53.19L102.92,48.88L103.43,50.31L103.68,51.75L105.19,43.13L105.45,44.56L105.7,46L106.71,40.25L106.96,43.13L107.47,43.13L107.72,40.25L108.47,46L108.73,43.13L108.98,46L109.23,44.56L109.48,41.69" style="vector-effect: none; fill: none; stroke: rgb(117, 112, 179); stroke-opacity: 1; stroke-width: 1px; opacity: 1;"/></g><g class="points"/><g class="text"/></g><g class="trace scatter trace37bdbb" style="stroke-miterlimit: 2; opacity: 1;"><g class="fills"/><g class="errorbars"/><g class="lines"><path class="js-line" d="M0.23,90.56L0.99,84.81L1.24,87.69L1.49,87.69L1.75,86.25L2.25,87.69L2.5,87.69L3.76,84.81L4.02,86.25L5.03,83.38L5.28,86.25L6.29,84.81L6.54,84.81L7.55,86.25L7.8,86.25L9.06,86.25L9.31,87.69L10.32,86.25L10.58,87.69L11.08,86.25L11.33,87.69L11.59,87.69L12.09,89.13L12.34,87.69L12.59,87.69L13.1,87.69L13.35,89.13L14.36,87.69L14.61,87.69L15.12,87.69L15.37,89.13L15.62,87.69L16.13,89.13L16.38,89.13L16.88,89.13L17.14,90.56L18.15,89.13L18.4,89.13L23.7,89.13L23.95,87.69L24.2,89.13L24.71,87.69L24.96,87.69L26.98,87.69L27.23,86.25L27.73,87.69L27.99,86.25L28.24,86.25L29.25,86.25L29.5,84.81L30,84.81L30.26,83.38L30.76,84.81L31.01,83.38L31.27,83.38L31.52,83.38L31.77,84.81L32.02,84.81L32.28,83.38L32.53,83.38L32.78,81.94L33.79,83.38L34.04,81.94L34.55,81.94L34.8,80.5L35.05,81.94L35.56,80.5L35.81,79.06L36.06,81.94L36.56,80.5L36.82,79.06L37.57,79.06L37.83,80.5L38.58,77.63L38.84,79.06L39.84,77.63L40.1,77.63L41.36,77.63L41.61,79.06L42.87,76.19L43.12,76.19L44.13,73.31L44.39,73.31L44.89,73.31L45.14,74.75L45.9,74.75L46.15,76.19L46.4,76.19L46.66,77.63L46.91,77.63L47.16,74.75L47.41,74.75L47.67,77.63L48.68,79.06L48.93,79.06L49.18,79.06L49.43,77.63L49.68,79.06L49.94,77.63L50.19,76.19L50.44,76.19L50.69,74.75L50.95,74.75L51.2,73.31L51.96,73.31L52.21,71.88L52.46,73.31L52.71,70.44L52.97,70.44L53.22,70.44L53.47,71.88L53.72,70.44L53.97,73.31L54.23,74.75L55.24,73.31L55.49,71.88L55.74,74.75L56.25,73.31L56.5,73.31L57.51,73.31L57.76,71.88L58.77,73.31L59.02,73.31L60.28,70.44L60.53,70.44L60.79,71.88L61.29,70.44L61.54,70.44L62.3,70.44L62.55,67.56L63.06,70.44L63.31,67.56L63.81,67.56L64.07,64.69L64.32,70.44L64.82,67.56L65.08,69L65.33,70.44L65.58,67.56L65.83,67.56L66.84,66.13L67.09,67.56L67.35,67.56L67.6,63.25L68.1,66.13L68.36,64.69L68.61,61.81L69.62,66.13L69.87,66.13L70.12,66.13L70.37,63.25L70.63,61.81L70.88,67.56L71.38,64.69L71.64,66.13L71.89,66.13L72.14,66.13L72.39,64.69L72.65,58.94L72.9,63.25L73.15,64.69L73.65,64.69L73.91,58.94L74.16,66.13L74.66,63.25L74.92,63.25L75.17,60.38L75.42,66.13L75.67,63.25L75.93,66.13L76.93,64.69L77.19,64.69L77.94,61.81L78.2,61.81L79.96,51.75L80.22,43.13L81.22,51.75L81.48,50.31L82.74,43.13L82.99,43.13L83.24,37.38L83.75,41.69L84,41.69L84.5,44.56L84.76,41.69L85.01,40.25L85.51,44.56L85.77,41.69L86.02,41.69L86.52,44.56L86.78,43.13L87.03,41.69L87.53,41.69L87.78,40.25L89.05,43.13L89.3,41.69L90.56,47.44L90.81,46L91.32,46L91.57,47.44L91.82,47.44L92.07,58.94L92.33,58.94L92.58,57.5L92.83,58.94L93.08,57.5L93.34,53.19L94.09,46L94.34,47.44L94.6,47.44L95.1,47.44L95.35,46L96.36,43.13L96.62,44.56L97.62,41.69L97.88,43.13L98.38,43.13L98.63,44.56L99.64,38.81L99.9,41.69L100.4,43.13L100.65,41.69L100.9,38.81L101.16,41.69L101.41,37.38L101.66,40.25L101.91,40.25L103.18,44.56L103.43,43.13L103.68,43.13L103.93,41.69L104.94,40.25L105.19,41.69L105.45,40.25L105.7,44.56L105.95,44.56L106.2,46L106.46,46L106.71,47.44L106.96,54.63L107.21,46L107.47,44.56L108.47,38.81L108.73,38.81L109.23,30.19L109.48,31.63" style="vector-effect: none; fill: none; stroke: rgb(117, 112, 179); stroke-opacity: 1; stroke-width: 1px; opacity: 1;"/></g><g class="points"/><g class="text"/></g><g class="trace scatter traceeeb7b7" style="stroke-miterlimit: 2; opacity: 1;"><g class="fills"/><g class="errorbars"/><g class="lines"><path class="js-line" d="M0.23,83.38L0.48,83.38L0.74,81.94L1.49,84.81L1.75,83.38L2,83.38L2.25,83.38L2.5,81.94L3.26,84.81L3.51,81.94L3.76,80.5L4.02,81.94L4.27,83.38L5.03,81.94L5.28,83.38L6.03,84.81L6.29,83.38L7.3,84.81L7.55,84.81L8.31,84.81L8.56,86.25L9.06,86.25L9.31,84.81L9.82,84.81L10.07,86.25L10.58,86.25L10.83,84.81L11.59,87.69L11.84,87.69L12.09,87.69L12.34,86.25L13.35,87.69L13.6,87.69L14.36,87.69L14.61,86.25L14.87,86.25L15.12,87.69L16.13,89.13L16.38,89.13L16.88,87.69L17.14,89.13L17.39,89.13L18.15,87.69L18.4,89.13L18.65,89.13L18.9,87.69L19.91,89.13L20.16,89.13L24.2,89.13L24.45,87.69L25.72,90.56L25.97,89.13L29.25,89.13L29.5,87.69L29.75,87.69L30,89.13L30.76,87.69L31.01,89.13L31.52,89.13L31.77,86.25L32.02,89.13L32.53,87.69L32.78,89.13L33.54,86.25L33.79,87.69L34.04,87.69L34.55,87.69L34.8,86.25L36.56,86.25L36.82,84.81L37.07,86.25L37.57,84.81L37.83,84.81L38.33,84.81L38.58,83.38L39.84,83.38L40.1,81.94L40.35,83.38L40.85,81.94L41.11,81.94L41.86,81.94L42.12,80.5L42.37,80.5L42.62,81.94L42.87,81.94L43.12,80.5L43.63,80.5L43.88,79.06L44.64,80.5L44.89,79.06L45.4,79.06L45.65,77.63L46.4,77.63L46.66,76.19L46.91,76.19L47.16,77.63L48.42,73.31L48.68,74.75L48.93,74.75L49.18,73.31L49.94,74.75L50.19,73.31L50.44,73.31L50.69,71.88L52.46,71.88L52.71,70.44L52.97,70.44L53.22,69L53.97,70.44L54.23,69L54.98,69L55.24,67.56L55.49,67.56L55.74,66.13L56.25,67.56L56.5,66.13L56.75,66.13L57.25,67.56L57.51,66.13L57.76,63.25L58.52,64.69L58.77,63.25L59.02,63.25L59.27,64.69L59.53,63.25L59.78,66.13L60.03,66.13L60.28,69L60.79,69L61.04,70.44L64.82,51.75L65.08,53.19L66.34,50.31L66.59,48.88L68.1,44.56L68.36,43.13L68.61,43.13L68.86,41.69L69.11,41.69L69.37,40.25L70.12,41.69L70.37,40.25L70.63,40.25L70.88,41.69L71.38,41.69L71.64,43.13L71.89,44.56L72.39,43.13L72.65,43.13L73.65,41.69L73.91,43.13L74.92,43.13L75.17,41.69L75.93,46L76.18,43.13L76.43,44.56L76.68,44.56L76.93,46L77.19,43.13L77.44,47.44L77.69,46L78.2,51.75L78.45,58.94L78.7,60.38L78.95,57.5L79.21,51.75L80.97,35.94L81.22,37.38L82.99,31.63L83.24,31.63L84,28.75L84.25,30.19L84.5,31.63L84.76,30.19L85.01,28.75L85.26,28.75L85.51,30.19L86.02,27.31L86.52,28.75L86.78,28.75L87.78,27.31L88.04,25.88L88.29,25.88L88.54,28.75L88.79,24.44L89.3,27.31L89.55,28.75L89.8,27.31L90.31,28.75L90.56,28.75L91.32,25.88L91.57,27.31L91.82,28.75L92.07,28.75L92.33,34.5L92.58,40.25L93.08,34.5L93.34,34.5L93.59,34.5L93.84,33.06L94.09,33.06L94.34,34.5L94.85,31.63L95.1,37.38L95.86,30.19L96.11,35.94L97.37,43.13L97.62,44.56L98.38,44.56L98.63,47.44L99.64,44.56L99.9,44.56L100.65,43.13L100.9,44.56L101.91,41.69L102.17,44.56L103.18,43.13L103.43,43.13L103.68,43.13L103.93,41.69L104.94,41.69L105.19,40.25L105.45,40.25L105.7,41.69L106.71,38.81L106.96,40.25L107.97,35.94L108.22,37.38L109.23,38.81L109.48,38.81" style="vector-effect: none; fill: none; stroke: rgb(117, 112, 179); stroke-opacity: 1; stroke-width: 1px; opacity: 1;"/></g><g class="points"/><g class="text"/></g><g class="trace scatter tracef25207" style="stroke-miterlimit: 2; opacity: 1;"><g class="fills"/><g class="errorbars"/><g class="lines"><path class="js-line" d="M36.31,81.74L48.42,74.62L48.68,74.45L60.28,66.17L60.53,65.97L71.13,56.89L71.38,56.66L81.98,45.86L82.23,45.58L90.81,35.35" style="vector-effect: none; fill: none; stroke: rgb(117, 112, 179); stroke-opacity: 1; stroke-dasharray: 3px, 3px; stroke-width: 1px; opacity: 1;"/></g><g class="points"/><g class="text"/></g></g></g></g><path class="xlines-above crisp" d="M0,0" style="fill: none;"/><path class="ylines-above crisp" d="M0,0" style="fill: none;"/><g class="overlines-above"/><g class="xaxislayer-above"><g class="xtick"><text text-anchor="middle" x="0" y="137" transform="translate(35,0)" style="font-family: 'Open Sans', verdana, arial, sans-serif; font-size: 11px; fill: rgb(0, 0, 0); fill-opacity: 1; white-space: pre; opacity: 1;">0</text></g><g class="xtick"><text text-anchor="middle" x="0" y="137" style="font-family: 'Open Sans', verdana, arial, sans-serif; font-size: 11px; fill: rgb(0, 0, 0); fill-opacity: 1; white-space: pre; opacity: 1;" transform="translate(53.17,0)">12</text></g><g class="xtick"><text text-anchor="middle" x="0" y="137" style="font-family: 'Open Sans', verdana, arial, sans-serif; font-size: 11px; fill: rgb(0, 0, 0); fill-opacity: 1; white-space: pre; opacity: 1;" transform="translate(71.33,0)">24</text></g><g class="xtick"><text text-anchor="middle" x="0" y="137" style="font-family: 'Open Sans', verdana, arial, sans-serif; font-size: 11px; fill: rgb(0, 0, 0); fill-opacity: 1; white-space: pre; opacity: 1;" transform="translate(89.5,0)">36</text></g><g class="xtick"><text text-anchor="middle" x="0" y="137" style="font-family: 'Open Sans', verdana, arial, sans-serif; font-size: 11px; fill: rgb(0, 0, 0); fill-opacity: 1; white-space: pre; opacity: 1;" transform="translate(107.67,0)">48</text></g><g class="xtick"><text text-anchor="middle" x="0" y="137" style="font-family: 'Open Sans', verdana, arial, sans-serif; font-size: 11px; fill: rgb(0, 0, 0); fill-opacity: 1; white-space: pre; opacity: 1;" transform="translate(125.83,0)">60</text></g><g class="xtick"><text text-anchor="middle" x="0" y="137" style="font-family: 'Open Sans', verdana, arial, sans-serif; font-size: 11px; fill: rgb(0, 0, 0); fill-opacity: 1; white-space: pre; opacity: 0;" transform="translate(144,0)">72</text></g></g><g class="yaxislayer-above"><g class="ytick"><text text-anchor="end" x="34" y="3.8499999999999996" transform="translate(0,125)" style="font-family: 'Open Sans', verdana, arial, sans-serif; font-size: 11px; fill: rgb(0, 0, 0); fill-opacity: 1; white-space: pre; opacity: 1;">0</text></g><g class="ytick"><text text-anchor="end" x="34" y="3.8499999999999996" style="font-family: 'Open Sans', verdana, arial, sans-serif; font-size: 11px; fill: rgb(0, 0, 0); fill-opacity: 1; white-space: pre; opacity: 1;" transform="translate(0,96.25)">0.02</text></g><g class="ytick"><text text-anchor="end" x="34" y="3.8499999999999996" style="font-family: 'Open Sans', verdana, arial, sans-serif; font-size: 11px; fill: rgb(0, 0, 0); fill-opacity: 1; white-space: pre; opacity: 1;" transform="translate(0,67.5)">0.04</text></g><g class="ytick"><text text-anchor="end" x="34" y="3.8499999999999996" style="font-family: 'Open Sans', verdana, arial, sans-serif; font-size: 11px; fill: rgb(0, 0, 0); fill-opacity: 1; white-space: pre; opacity: 1;" transform="translate(0,38.75)">0.06</text></g><g class="ytick"><text text-anchor="end" x="34" y="3.8499999999999996" style="font-family: 'Open Sans', verdana, arial, sans-serif; font-size: 11px; fill: rgb(0, 0, 0); fill-opacity: 1; white-space: pre; opacity: 1;" transform="translate(0,10)">0.08</text></g></g><g class="overaxes-above"/></g></g><g class="polarlayer"/><g class="smithlayer"/><g class="ternarylayer"/><g class="geolayer"/><g class="funnelarealayer"/><g class="pielayer"/><g class="iciclelayer"/><g class="treemaplayer"/><g class="sunburstlayer"/><g class="glimages"/><defs id="topdefs-6f223e"><g class="clips"/></defs><g class="layer-above"><g class="imagelayer"/><g class="shapelayer"/></g><g class="infolayer"><g class="g-gtitle"/><g class="g-xtitle" transform="translate(0,-0.19999999999998863)"><text class="xtitle" x="89.5" y="147.2" text-anchor="middle" style="opacity: 1; font-family: 'Open Sans', verdana, arial, sans-serif; font-size: 11px; fill: rgb(0, 0, 0); fill-opacity: 1; white-space: pre;">Time [h]</text></g><g class="g-ytitle" transform="translate(3.146484375,0)"><text class="ytitle" transform="rotate(-90,8.853124999999999,67.5)" x="8.853124999999999" y="67.5" text-anchor="middle" style="opacity: 1; font-family: 'Open Sans', verdana, arial, sans-serif; font-size: 11px; fill: rgb(0, 0, 0); fill-opacity: 1; white-space: pre;">OD</text></g></g></svg>