<svg class="main-svg" xmlns="http://www.w3.org/2000/svg" xmlns:xlink="http://www.w3.org/1999/xlink" width="700" height="500" style="" viewBox="0 0 700 500"><rect x="0" y="0" width="700" height="500" style="fill: rgb(255, 255, 255); fill-opacity: 1;"/><defs id="defs-0c30f8"><g class="clips"><clipPath id="clip0c30f8xyplot" class="plotclip"><rect width="549" height="470"/></clipPath><clipPath class="axesclip" id="clip0c30f8x"><rect x="35" y="0" width="549" height="500"/></clipPath><clipPath class="axesclip" id="clip0c30f8y"><rect x="0" y="10" width="700" height="470"/></clipPath><clipPath class="axesclip" id="clip0c30f8xy"><rect x="35" y="10" width="549" height="470"/></clipPath></g><g class="gradients"/><g class="patterns"/></defs><g class="bglayer"/><g class="layer-below"><g class="imagelayer"/><g class="shapelayer"/></g><g class="cartesianlayer"><g class="subplot xy"><g class="layer-subplot"><g class="shapelayer"/><g class="imagelayer"/></g><g class="minor-gridlayer"><g class="x"/><g class="y"/></g><g class="gridlayer"><g class="x"><path class="xgrid crisp" transform="translate(96,0)" d="M0,10v470" style="stroke: rgb(0, 0, 0); stroke-opacity: 1; stroke-width: 0.5px;"/><path class="xgrid crisp" transform="translate(157,0)" d="M0,10v470" style="stroke: rgb(0, 0, 0); stroke-opacity: 1; stroke-width: 0.5px;"/><path class="xgrid crisp" transform="translate(218,0)" d="M0,10v470" style="stroke: rgb(0, 0, 0); stroke-opacity: 1; stroke-width: 0.5px;"/><path class="xgrid crisp" transform="translate(279,0)" d="M0,10v470" style="stroke: rgb(0, 0, 0); stroke-opacity: 1; stroke-width: 0.5px;"/><path class="xgrid crisp" transform="translate(340,0)" d="M0,10v470" style="stroke: rgb(0, 0, 0); stroke-opacity: 1; stroke-width: 0.5px;"/><path class="xgrid crisp" transform="translate(401,0)" d="M0,10v470" style="stroke: rgb(0, 0, 0); stroke-opacity: 1; stroke-width: 0.5px;"/><path class="xgrid crisp" transform="translate(462,0)" d="M0,10v470" style="stroke: rgb(0, 0, 0); stroke-opacity: 1; stroke-width: 0.5px;"/><path class="xgrid crisp" transform="translate(523,0)" d="M0,10v470" style="stroke: rgb(0, 0, 0); stroke-opacity: 1; stroke-width: 0.5px;"/></g><g class="y"><path class="ygrid crisp" transform="translate(0,415.38)" d="M35,0h549" style="stroke: rgb(0, 0, 0); stroke-opacity: 1; stroke-width: 0.5px;"/><path class="ygrid crisp" transform="translate(0,350.75)" d="M35,0h549" style="stroke: rgb(0, 0, 0); stroke-opacity: 1; stroke-width: 0.5px;"/><path class="ygrid crisp" transform="translate(0,286.13)" d="M35,0h549" style="stroke: rgb(0, 0, 0); stroke-opacity: 1; stroke-width: 0.5px;"/><path class="ygrid crisp" transform="translate(0,221.5)" d="M35,0h549" style="stroke: rgb(0, 0, 0); stroke-opacity: 1; stroke-width: 0.5px;"/><path class="ygrid crisp" transform="translate(0,156.88)" d="M35,0h549" style="stroke: rgb(0, 0, 0); stroke-opacity: 1; stroke-width: 0.5px;"/><path class="ygrid crisp" transform="translate(0,92.25)" d="M35,0h549" style="stroke: rgb(0, 0, 0); stroke-opacity: 1; stroke-width: 0.5px;"/><path class="ygrid crisp" transform="translate(0,27.63)" d="M35,0h549" style="stroke: rgb(0, 0, 0); stroke-opacity: 1; stroke-width: 0.5px;"/></g></g><g class="zerolinelayer"><path class="xzl zl crisp" transform="translate(35,0)" d="M0,10v470" style="stroke: rgb(0, 0, 0); stroke-opacity: 1; stroke-width: 0.5px;"/><path class="yzl zl crisp" transform="translate(0,480)" d="M35,0h549" style="stroke: rgb(0, 0, 0); stroke-opacity: 1; stroke-width: 0.5px;"/></g><g class="layer-between"><g class="shapelayer"/><g class="imagelayer"/></g><path class="xlines-below"/><path class="ylines-below"/><g class="overlines-below"/><g class="xaxislayer-below"/><g class="yaxislayer-below"/><g class="overaxes-below"/><g class="overplot"><g class="xy" transform="translate(35,10)" clip-path="url(#clip0c30f8xyplot)"><g class="scatterlayer mlayer"><g class="trace scatter trace02ffb7" style="stroke-miterlimit: 2; opacity: 1;"><g class="fills"/><g class="errorbars"/><g class="lines"><path class="js-line" d="M1.16,205.63L2.44,364.25L3.71,370.13L4.98,364.25L6.25,370.13L7.52,358.38L8.79,364.25L10.06,370.13L11.33,364.25L13.87,364.25L15.14,370.13L16.41,358.38L17.69,364.25L18.96,370.13L20.23,370.13L21.5,352.5L22.77,364.25L24.04,364.25L25.31,358.38L26.58,364.25L27.85,352.5L29.12,352.5L30.39,364.25L31.66,358.38L32.94,364.25L35.48,364.25L36.75,358.38L38.02,370.13L39.29,370.13L41.83,370.13L43.1,376L45.64,376L46.91,381.88L49.46,370.13L50.73,376L52,370.13L53.27,376L54.54,387.75L55.81,376L57.08,376L58.35,381.88L62.16,381.88L63.44,376L65.98,387.75L67.25,381.88L68.52,381.88L69.79,387.75L71.06,387.75L72.33,393.63L73.6,387.75L74.87,393.63L77.41,381.88L78.69,387.75L79.96,393.63L81.23,393.63L82.5,387.75L83.77,393.63L85.04,387.75L86.31,387.75L87.58,393.63L88.85,381.88L90.12,387.75L91.39,387.75L92.66,399.5L93.94,381.88L95.21,399.5L96.48,399.5L97.75,381.88L99.02,399.5L100.29,387.75L101.56,399.5L102.83,393.63L104.1,399.5L105.37,399.5L106.64,393.63L109.19,393.63L110.46,399.5L113,399.5L114.27,393.63L116.81,381.88L118.08,393.63L119.35,393.63L120.62,387.75L121.89,393.63L123.16,387.75L124.44,387.75L125.71,393.63L128.25,393.63L129.52,399.5L130.79,393.63L132.06,393.63L142.23,393.63L143.5,387.75L144.77,387.75L146.04,393.63L148.58,393.63L149.85,399.5L151.12,393.63L152.39,399.5L153.66,405.38L154.94,399.5L156.21,393.63L157.48,393.63L158.75,387.75L160.02,393.63L165.1,393.63L166.37,399.5L167.64,393.63L168.91,399.5L170.19,393.63L171.46,393.63L175.27,393.63L176.54,399.5L177.81,393.63L179.08,399.5L180.35,393.63L181.62,393.63L182.89,393.63L184.16,399.5L185.44,393.63L186.71,399.5L193.06,399.5L194.33,387.75L195.6,399.5L196.87,393.63L198.14,393.63L199.41,399.5L200.69,393.63L201.96,393.63L203.23,393.63L204.5,387.75L205.77,399.5L207.04,387.75L209.58,387.75L210.85,393.63L212.12,393.63L213.39,399.5L214.66,393.63L215.94,393.63L217.21,393.63L218.48,399.5L219.75,393.63L221.02,393.63L223.56,393.63L224.83,387.75L226.1,393.63L227.37,387.75L228.64,393.63L229.91,393.63L235,393.63L236.27,387.75L237.54,387.75L238.81,393.63L243.89,393.63L245.16,387.75L246.44,387.75L247.71,393.63L248.98,387.75L250.25,387.75L251.52,387.75L252.79,393.63L254.06,387.75L255.33,393.63L257.87,393.63L259.14,387.75L260.41,393.63L261.69,387.75L262.96,393.63L264.23,387.75L265.5,387.75L266.77,393.63L268.04,393.63L269.31,387.75L270.58,393.63L271.85,393.63L273.12,387.75L274.39,393.63L276.94,381.88L278.21,393.63L279.48,387.75L280.75,393.63L282.02,387.75L283.29,393.63L284.56,393.63L285.83,387.75L287.1,393.63L288.37,387.75L290.91,387.75L292.19,393.63L294.73,393.63L296,387.75L297.27,393.63L298.54,393.63L299.81,387.75L301.08,387.75L303.62,387.75L304.89,393.63L306.16,387.75L307.44,393.63L308.71,387.75L309.98,387.75L312.52,387.75L313.79,393.63L315.06,387.75L316.33,393.63L317.6,387.75L318.87,387.75L320.14,393.63L321.41,393.63L322.69,387.75L323.96,393.63L327.77,393.63L329.04,387.75L330.31,393.63L331.58,393.63L332.85,387.75L334.12,387.75L336.66,387.75L337.94,393.63L339.21,387.75L340.48,387.75L341.75,387.75L343.02,393.63L350.64,393.63L351.91,387.75L353.19,393.63L354.46,393.63L355.73,387.75L357,393.63L358.27,387.75L359.54,393.63L365.89,393.63L367.16,387.75L372.25,387.75L373.52,393.63L374.79,387.75L376.06,393.63L378.6,393.63L379.87,387.75L381.14,393.63L382.41,387.75L383.69,393.63L384.96,393.63L398.94,393.63L400.21,387.75L401.48,387.75L402.75,393.63L404.02,387.75L405.29,393.63L406.56,387.75L407.83,393.63L414.19,393.63L415.46,387.75L416.73,393.63L418,387.75L420.54,387.75L421.81,393.63L423.08,387.75L424.35,393.63L425.62,387.75L426.89,387.75L428.16,393.63L429.44,393.63L430.71,393.63L431.98,387.75L433.25,393.63L434.52,387.75L435.79,393.63L437.06,393.63L438.33,393.63L439.6,387.75L440.87,393.63L442.14,393.63L443.41,393.63L444.69,387.75L445.96,393.63L447.23,393.63L451.04,393.63L452.31,387.75L453.58,393.63L454.85,393.63L461.21,393.63L462.48,387.75L463.75,387.75L465.02,393.63L467.56,393.63L468.83,387.75L470.1,393.63L471.37,393.63L472.64,387.75L473.91,393.63L475.19,399.5L476.46,393.63L477.73,393.63L479,387.75L480.27,393.63L481.54,393.63L487.89,393.63L489.16,387.75L491.71,399.5L492.98,393.63L494.25,399.5L495.52,387.75L496.79,393.63L498.06,393.63L501.87,393.63L503.14,387.75L504.41,399.5L505.69,393.63L506.96,399.5L508.23,387.75L509.5,399.5L510.77,399.5L513.31,399.5L514.58,393.63L515.85,399.5L517.12,387.75L519.66,399.5L520.94,387.75L523.48,399.5L524.75,393.63L526.02,399.5L527.29,399.5L528.56,393.63L529.83,393.63L531.1,399.5L532.37,399.5L536.19,399.5L537.46,393.63L538.73,399.5L540,399.5L541.27,399.5L542.54,393.63L543.81,399.5L545.08,399.5L546.35,399.5L547.62,387.75L548.89,399.5L550.16,399.5L551.44,399.5" style="vector-effect: none; fill: none; stroke: rgb(27, 158, 119); stroke-opacity: 1; stroke-width: 1.5px; opacity: 1;"/></g><g class="points"/><g class="text"/></g><g class="trace scatter trace197166" style="stroke-miterlimit: 2; opacity: 1;"><g class="fills"/><g class="errorbars"/><g class="lines"><path class="js-line" d="M1.16,211.5L2.44,370.13L3.71,370.13L4.98,358.38L6.25,364.25L7.52,358.38L8.79,358.38L10.06,370.13L11.33,364.25L12.6,358.38L13.87,358.38L15.14,364.25L16.41,352.5L17.69,358.38L18.96,358.38L20.23,358.38L21.5,352.5L22.77,352.5L24.04,358.38L26.58,358.38L27.85,352.5L29.12,352.5L30.39,358.38L31.66,352.5L32.94,358.38L34.21,364.25L35.48,364.25L36.75,358.38L38.02,370.13L39.29,364.25L40.56,370.13L41.83,370.13L43.1,376L45.64,376L46.91,381.88L48.19,376L49.46,364.25L50.73,376L52,370.13L53.27,376L54.54,387.75L55.81,376L57.08,376L58.35,381.88L59.62,381.88L62.16,381.88L63.44,376L64.71,387.75L65.98,387.75L67.25,376L68.52,381.88L71.06,381.88L72.33,387.75L73.6,381.88L74.87,393.63L77.41,381.88L78.69,387.75L79.96,393.63L81.23,393.63L82.5,393.63L83.77,387.75L85.04,387.75L86.31,381.88L87.58,393.63L88.85,387.75L90.12,376L91.39,387.75L92.66,393.63L93.94,370.13L95.21,393.63L96.48,393.63L97.75,376L99.02,393.63L100.29,387.75L101.56,399.5L102.83,381.88L104.1,399.5L106.64,387.75L107.91,393.63L110.46,381.88L111.73,393.63L113,387.75L114.27,387.75L115.54,393.63L116.81,387.75L118.08,381.88L119.35,393.63L120.62,387.75L121.89,393.63L125.71,376L126.98,376L128.25,393.63L129.52,381.88L130.79,381.88L132.06,393.63L133.33,393.63L134.6,381.88L135.87,387.75L137.14,376L138.41,399.5L139.69,376L142.23,393.63L143.5,381.88L144.77,399.5L146.04,381.88L147.31,393.63L148.58,387.75L149.85,399.5L151.12,381.88L152.39,381.88L153.66,387.75L154.94,399.5L156.21,387.75L157.48,381.88L158.75,387.75L160.02,376L161.29,393.63L162.56,387.75L163.83,393.63L166.37,393.63L167.64,387.75L168.91,393.63L170.19,393.63L171.46,381.88L172.73,381.88L176.54,399.5L177.81,393.63L180.35,393.63L181.62,387.75L182.89,387.75L184.16,393.63L185.44,387.75L186.71,393.63L187.98,399.5L189.25,393.63L190.52,399.5L191.79,393.63L193.06,387.75L194.33,393.63L195.6,387.75L196.87,393.63L198.14,387.75L199.41,399.5L200.69,387.75L201.96,393.63L203.23,399.5L204.5,387.75L205.77,399.5L207.04,387.75L208.31,387.75L209.58,393.63L212.12,393.63L213.39,399.5L214.66,399.5L215.94,393.63L217.21,387.75L218.48,399.5L222.29,399.5L223.56,393.63L224.83,387.75L226.1,393.63L227.37,387.75L228.64,393.63L229.91,387.75L231.19,393.63L232.46,393.63L233.73,399.5L235,399.5L236.27,387.75L237.54,387.75L238.81,393.63L242.62,393.63L243.89,399.5L245.16,387.75L246.44,387.75L247.71,393.63L248.98,381.88L250.25,387.75L251.52,387.75L252.79,393.63L254.06,393.63L255.33,393.63L256.6,399.5L257.87,387.75L259.14,393.63L260.41,387.75L261.69,387.75L264.23,387.75L265.5,393.63L266.77,387.75L268.04,393.63L269.31,387.75L270.58,387.75L271.85,393.63L273.12,381.88L274.39,387.75L275.66,381.88L278.21,393.63L279.48,381.88L280.75,393.63L282.02,381.88L283.29,387.75L284.56,387.75L287.1,387.75L288.37,381.88L289.64,387.75L290.91,381.88L292.19,387.75L293.46,387.75L294.73,393.63L296,381.88L298.54,393.63L299.81,381.88L302.35,381.88L303.62,387.75L304.89,393.63L306.16,387.75L307.44,387.75L308.71,381.88L309.98,381.88L311.25,387.75L313.79,387.75L315.06,381.88L316.33,387.75L317.6,381.88L318.87,381.88L320.14,387.75L321.41,387.75L322.69,381.88L323.96,393.63L325.23,387.75L326.5,393.63L327.77,387.75L329.04,387.75L330.31,393.63L331.58,393.63L332.85,387.75L334.12,381.88L335.39,387.75L341.75,387.75L343.02,393.63L344.29,387.75L345.56,393.63L346.83,387.75L348.1,393.63L350.64,393.63L351.91,387.75L353.19,393.63L354.46,393.63L355.73,387.75L357,393.63L358.27,387.75L359.54,393.63L360.81,387.75L362.08,393.63L364.62,393.63L365.89,387.75L367.16,381.88L368.44,387.75L369.71,387.75L370.98,381.88L373.52,393.63L374.79,387.75L376.06,393.63L377.33,393.63L378.6,387.75L379.87,387.75L381.14,393.63L382.41,387.75L383.69,393.63L384.96,393.63L396.39,393.63L397.66,387.75L398.94,393.63L400.21,387.75L401.48,387.75L402.75,393.63L404.02,387.75L405.29,393.63L406.56,387.75L407.83,393.63L414.19,393.63L415.46,387.75L416.73,393.63L418,387.75L420.54,387.75L421.81,393.63L423.08,387.75L424.35,393.63L425.62,387.75L426.89,387.75L428.16,393.63L429.44,393.63L430.71,393.63L431.98,387.75L433.25,393.63L434.52,387.75L435.79,393.63L437.06,393.63L438.33,393.63L439.6,387.75L440.87,393.63L442.14,393.63L443.41,393.63L444.69,387.75L445.96,393.63L447.23,393.63L461.21,393.63L462.48,387.75L463.75,387.75L465.02,393.63L467.56,393.63L468.83,387.75L470.1,393.63L471.37,393.63L472.64,387.75L473.91,393.63L476.46,393.63L477.73,399.5L479,387.75L480.27,393.63L486.62,393.63L487.89,387.75L490.44,387.75L491.71,393.63L494.25,393.63L495.52,387.75L496.79,393.63L498.06,393.63L499.33,399.5L500.6,393.63L501.87,393.63L503.14,387.75L504.41,393.63L505.69,387.75L506.96,399.5L508.23,387.75L510.77,399.5L512.04,393.63L515.85,393.63L517.12,387.75L519.66,399.5L520.94,387.75L522.21,393.63L523.48,393.63L526.02,393.63L527.29,399.5L528.56,387.75L529.83,399.5L531.1,399.5L532.37,393.63L534.91,393.63L536.19,399.5L537.46,387.75L538.73,399.5L540,393.63L541.27,393.63L542.54,399.5L543.81,399.5L545.08,393.63L546.35,393.63L547.62,387.75L548.89,399.5L550.16,393.63L551.44,393.63" style="vector-effect: none; fill: none; stroke: rgb(27, 158, 119); stroke-opacity: 1; stroke-width: 1.5px; opacity: 1;"/></g><g class="points"/><g class="text"/></g><g class="trace scatter trace359065" style="stroke-miterlimit: 2; opacity: 1;"><g class="fills"/><g class="errorbars"/><g class="lines"><path class="js-line" d="M1.16,264.38L2.44,376L3.71,387.75L4.98,370.13L6.25,376L7.52,364.25L8.79,364.25L10.06,370.13L11.33,364.25L13.87,364.25L15.14,370.13L16.41,364.25L17.69,370.13L18.96,364.25L20.23,364.25L21.5,358.38L22.77,358.38L25.31,358.38L26.58,364.25L27.85,352.5L29.12,358.38L30.39,364.25L31.66,358.38L32.94,364.25L34.21,364.25L35.48,364.25L36.75,358.38L38.02,370.13L39.29,370.13L41.83,370.13L43.1,376L45.64,376L46.91,381.88L49.46,370.13L50.73,376L52,370.13L53.27,370.13L54.54,387.75L55.81,376L57.08,376L58.35,381.88L62.16,381.88L63.44,376L64.71,387.75L65.98,381.88L67.25,381.88L68.52,376L69.79,387.75L71.06,387.75L72.33,393.63L73.6,387.75L74.87,393.63L76.14,387.75L77.41,381.88L78.69,387.75L79.96,393.63L81.23,393.63L82.5,387.75L83.77,387.75L86.31,387.75L87.58,393.63L88.85,381.88L90.12,387.75L92.66,387.75L93.94,381.88L95.21,387.75L96.48,387.75L97.75,376L99.02,381.88L101.56,393.63L102.83,393.63L104.1,381.88L105.37,393.63L113,393.63L114.27,387.75L119.35,387.75L120.62,393.63L121.89,387.75L123.16,393.63L124.44,381.88L125.71,393.63L126.98,381.88L128.25,381.88L129.52,387.75L130.79,381.88L132.06,387.75L133.33,381.88L134.6,376L135.87,381.88L137.14,376L138.41,376L139.69,376L140.96,387.75L142.23,393.63L143.5,381.88L146.04,393.63L147.31,381.88L148.58,387.75L149.85,399.5L152.39,387.75L153.66,387.75L154.94,399.5L156.21,381.88L157.48,393.63L158.75,376L160.02,381.88L161.29,393.63L162.56,381.88L163.83,381.88L165.1,387.75L166.37,387.75L167.64,381.88L168.91,387.75L170.19,381.88L171.46,387.75L174,387.75L175.27,381.88L176.54,393.63L177.81,381.88L179.08,405.38L180.35,393.63L182.89,381.88L184.16,393.63L185.44,387.75L186.71,387.75L187.98,387.75L189.25,393.63L190.52,387.75L191.79,393.63L195.6,393.63L196.87,387.75L198.14,393.63L199.41,393.63L200.69,393.63L201.96,387.75L203.23,393.63L204.5,381.88L205.77,387.75L207.04,381.88L208.31,387.75L209.58,387.75L210.85,381.88L212.12,387.75L213.39,387.75L214.66,393.63L215.94,393.63L217.21,381.88L218.48,393.63L219.75,393.63L221.02,393.63L222.29,399.5L224.83,387.75L226.1,393.63L227.37,387.75L228.64,393.63L235,393.63L236.27,387.75L237.54,387.75L238.81,393.63L242.62,393.63L243.89,387.75L246.44,387.75L247.71,393.63L248.98,387.75L250.25,393.63L251.52,381.88L252.79,393.63L254.06,387.75L255.33,399.5L256.6,387.75L257.87,393.63L260.41,393.63L261.69,381.88L262.96,393.63L264.23,393.63L266.77,393.63L268.04,387.75L270.58,387.75L271.85,393.63L273.12,387.75L274.39,387.75L275.66,387.75L276.94,381.88L278.21,387.75L279.48,387.75L284.56,387.75L285.83,381.88L287.1,393.63L288.37,381.88L289.64,387.75L290.91,381.88L292.19,387.75L293.46,387.75L294.73,387.75L296,381.88L297.27,387.75L298.54,387.75L299.81,381.88L301.08,387.75L302.35,381.88L303.62,387.75L307.44,387.75L308.71,381.88L312.52,381.88L313.79,387.75L315.06,381.88L316.33,393.63L317.6,381.88L318.87,387.75L320.14,387.75L321.41,393.63L322.69,381.88L323.96,393.63L325.23,393.63L326.5,387.75L327.77,393.63L329.04,381.88L330.31,393.63L331.58,393.63L334.12,381.88L335.39,381.88L337.94,393.63L339.21,387.75L343.02,387.75L344.29,393.63L345.56,393.63L346.83,387.75L348.1,393.63L349.37,393.63L350.64,393.63L351.91,387.75L353.19,393.63L354.46,393.63L355.73,387.75L357,393.63L358.27,381.88L359.54,393.63L365.89,393.63L367.16,387.75L372.25,387.75L373.52,393.63L374.79,387.75L376.06,393.63L378.6,393.63L379.87,387.75L381.14,393.63L382.41,387.75L383.69,393.63L384.96,393.63L398.94,393.63L400.21,387.75L401.48,387.75L402.75,393.63L404.02,387.75L405.29,393.63L406.56,387.75L407.83,393.63L414.19,393.63L415.46,387.75L416.73,393.63L418,387.75L420.54,387.75L421.81,399.5L423.08,387.75L424.35,393.63L425.62,387.75L426.89,393.63L430.71,393.63L431.98,387.75L433.25,393.63L434.52,387.75L435.79,393.63L437.06,393.63L438.33,393.63L439.6,387.75L440.87,393.63L442.14,393.63L443.41,393.63L444.69,387.75L445.96,393.63L447.23,393.63L451.04,393.63L452.31,387.75L453.58,393.63L454.85,393.63L456.12,399.5L457.39,393.63L461.21,393.63L462.48,387.75L463.75,387.75L465.02,393.63L466.29,399.5L467.56,393.63L470.1,393.63L471.37,399.5L472.64,387.75L473.91,399.5L476.46,399.5L477.73,393.63L480.27,393.63L481.54,399.5L482.81,393.63L484.08,393.63L485.35,399.5L486.62,399.5L487.89,387.75L489.16,387.75L490.44,393.63L491.71,393.63L494.25,393.63L495.52,387.75L496.79,399.5L498.06,393.63L499.33,393.63L500.6,399.5L501.87,399.5L503.14,387.75L504.41,399.5L505.69,387.75L506.96,399.5L508.23,393.63L509.5,399.5L510.77,399.5L512.04,393.63L513.31,399.5L514.58,393.63L515.85,399.5L517.12,393.63L518.39,393.63L520.94,393.63L522.21,399.5L523.48,399.5L524.75,393.63L526.02,399.5L527.29,393.63L528.56,393.63L529.83,399.5L531.1,399.5L532.37,393.63L533.64,393.63L534.91,399.5L536.19,393.63L537.46,393.63L538.73,399.5L540,399.5L541.27,393.63L542.54,393.63L543.81,399.5L545.08,399.5L546.35,399.5L547.62,393.63L548.89,393.63L550.16,399.5L551.44,399.5" style="vector-effect: none; fill: none; stroke: rgb(27, 158, 119); stroke-opacity: 1; stroke-width: 1.5px; opacity: 1;"/></g><g class="points"/><g class="text"/></g><g class="trace scatter trace97c4d5" style="stroke-miterlimit: 2; opacity: 1;"><g class="fills"/><g class="errorbars"/><g class="lines"><path class="js-line" d="M1.16,70.5L2.44,364.25L3.71,358.38L4.98,358.38L6.25,352.5L11.33,352.5L12.6,358.38L13.87,364.25L15.14,352.5L16.41,358.38L17.69,358.38L20.23,370.13L21.5,352.5L24.04,340.75L25.31,346.63L26.58,346.63L27.85,352.5L29.12,346.63L30.39,352.5L31.66,346.63L32.94,352.5L34.21,358.38L35.48,352.5L39.29,352.5L40.56,358.38L41.83,358.38L43.1,364.25L44.37,364.25L45.64,370.13L46.91,364.25L48.19,364.25L49.46,364.25L50.73,370.13L52,364.25L53.27,370.13L54.54,370.13L55.81,376L57.08,370.13L58.35,376L60.89,376L62.16,370.13L63.44,381.88L64.71,381.88L72.33,381.88L73.6,376L74.87,376L76.14,381.88L77.41,387.75L78.69,381.88L79.96,387.75L81.23,358.38L82.5,387.75L83.77,381.88L85.04,381.88L86.31,370.13L87.58,376L88.85,358.38L90.12,358.38L91.39,370.13L92.66,387.75L93.94,370.13L95.21,364.25L96.48,364.25L97.75,346.63L99.02,381.88L100.29,358.38L101.56,376L102.83,358.38L104.1,358.38L105.37,352.5L106.64,364.25L107.91,364.25L109.19,370.13L110.46,376L111.73,340.75L114.27,358.38L115.54,334.88L116.81,381.88L118.08,364.25L120.62,352.5L121.89,352.5L123.16,364.25L124.44,387.75L125.71,381.88L126.98,358.38L128.25,381.88L129.52,387.75L130.79,376L132.06,352.5L134.6,381.88L135.87,381.88L137.14,381.88L138.41,352.5L140.96,376L142.23,370.13L143.5,358.38L144.77,364.25L146.04,387.75L147.31,381.88L149.85,352.5L151.12,387.75L152.39,387.75L153.66,399.5L154.94,381.88L156.21,387.75L157.48,387.75L158.75,352.5L161.29,393.63L162.56,387.75L163.83,381.88L165.1,370.13L166.37,358.38L167.64,393.63L170.19,381.88L171.46,393.63L172.73,393.63L174,381.88L175.27,393.63L176.54,393.63L204.5,393.63L205.77,387.75L207.04,393.63L208.31,387.75L209.58,393.63L210.85,393.63L212.12,393.63L213.39,387.75L214.66,393.63L215.94,393.63L217.21,393.63L218.48,387.75L219.75,393.63L221.02,387.75L222.29,387.75L223.56,393.63L224.83,387.75L226.1,393.63L227.37,387.75L228.64,393.63L229.91,387.75L231.19,387.75L254.06,387.75L255.33,381.88L256.6,387.75L257.87,387.75L357,387.75L358.27,393.63L359.54,387.75L360.81,387.75L379.87,387.75L381.14,393.63L382.41,387.75L383.69,387.75L400.21,387.75L401.48,393.63L402.75,393.63L404.02,387.75L412.91,387.75L414.19,399.5L415.46,387.75L416.73,387.75L418,393.63L419.27,387.75L438.33,387.75L439.6,393.63L442.14,393.63L443.41,387.75L444.69,393.63L445.96,387.75L448.5,387.75L449.77,393.63L451.04,387.75L452.31,393.63L453.58,387.75L454.85,393.63L457.39,393.63L458.66,387.75L459.94,393.63L461.21,393.63L462.48,387.75L463.75,387.75L465.02,387.75L466.29,399.5L467.56,393.63L468.83,393.63L477.73,393.63L479,387.75L480.27,387.75L481.54,393.63L485.35,393.63L486.62,399.5L487.89,393.63L489.16,393.63L495.52,393.63L496.79,399.5L498.06,393.63L499.33,393.63L500.6,393.63L501.87,399.5L503.14,393.63L504.41,393.63L513.31,393.63L514.58,399.5L515.85,393.63L517.12,393.63L518.39,399.5L519.66,393.63L523.48,393.63L524.75,387.75L526.02,393.63L527.29,393.63L551.44,393.63" style="vector-effect: none; fill: none; stroke: rgb(27, 158, 119); stroke-opacity: 1; stroke-width: 1.5px; opacity: 1;"/></g><g class="points"/><g class="text"/></g><g class="trace scatter trace4bc0f7" style="stroke-miterlimit: 2; opacity: 1;"><g class="fills"/><g class="errorbars"/><g class="lines"><path class="js-line" d="M1.16,123.38L2.44,364.25L3.71,358.38L4.98,352.5L6.25,358.38L7.52,352.5L8.79,352.5L12.6,352.5L13.87,358.38L15.14,358.38L16.41,364.25L17.69,370.13L18.96,370.13L20.23,376L21.5,370.13L24.04,340.75L25.31,346.63L26.58,352.5L27.85,352.5L29.12,352.5L30.39,358.38L31.66,352.5L32.94,358.38L34.21,364.25L35.48,358.38L38.02,358.38L39.29,364.25L41.83,364.25L43.1,370.13L48.19,370.13L49.46,364.25L50.73,370.13L52,370.13L54.54,370.13L55.81,376L58.35,376L59.62,381.88L60.89,381.88L62.16,370.13L63.44,381.88L64.71,381.88L73.6,381.88L74.87,376L76.14,376L77.41,387.75L78.69,381.88L79.96,387.75L82.5,387.75L83.77,381.88L85.04,381.88L86.31,387.75L87.58,387.75L88.85,381.88L91.39,381.88L92.66,387.75L93.94,387.75L95.21,381.88L96.48,387.75L97.75,387.75L99.02,393.63L100.29,387.75L101.56,393.63L102.83,393.63L104.1,387.75L105.37,393.63L106.64,387.75L107.91,387.75L109.19,387.75L110.46,393.63L111.73,387.75L113,393.63L114.27,387.75L115.54,387.75L116.81,393.63L118.08,393.63L119.35,387.75L120.62,393.63L121.89,393.63L123.16,387.75L124.44,393.63L125.71,393.63L147.31,393.63L148.58,387.75L149.85,387.75L151.12,393.63L152.39,387.75L153.66,393.63L154.94,387.75L156.21,393.63L158.75,393.63L160.02,387.75L161.29,393.63L162.56,393.63L167.64,393.63L168.91,387.75L170.19,387.75L171.46,393.63L227.37,393.63L228.64,387.75L229.91,393.63L231.19,393.63L254.06,393.63L255.33,387.75L256.6,387.75L257.87,393.63L259.14,393.63L260.41,387.75L261.69,393.63L262.96,393.63L264.23,393.63L265.5,387.75L266.77,393.63L268.04,387.75L269.31,393.63L270.58,393.63L271.85,387.75L273.12,393.63L274.39,387.75L275.66,387.75L278.21,387.75L279.48,393.63L280.75,387.75L282.02,387.75L357,387.75L358.27,393.63L359.54,387.75L360.81,387.75L365.89,387.75L367.16,393.63L370.98,393.63L372.25,387.75L379.87,387.75L381.14,393.63L382.41,387.75L383.69,387.75L386.23,387.75L387.5,393.63L388.77,387.75L390.04,387.75L392.58,387.75L393.85,393.63L395.12,387.75L396.39,387.75L412.91,387.75L414.19,393.63L415.46,387.75L416.73,387.75L418,393.63L419.27,387.75L438.33,387.75L439.6,399.5L442.14,387.75L443.41,393.63L444.69,387.75L445.96,387.75L448.5,387.75L449.77,393.63L453.58,393.63L454.85,387.75L456.12,393.63L457.39,393.63L458.66,393.63L459.94,387.75L465.02,387.75L466.29,393.63L467.56,387.75L468.83,387.75L470.1,393.63L471.37,393.63L472.64,387.75L473.91,393.63L477.73,393.63L479,387.75L481.54,387.75L482.81,393.63L484.08,387.75L485.35,393.63L486.62,399.5L487.89,393.63L494.25,393.63L495.52,387.75L496.79,393.63L498.06,393.63L500.6,393.63L501.87,399.5L503.14,393.63L504.41,393.63L505.69,393.63L506.96,387.75L508.23,393.63L509.5,393.63L513.31,393.63L514.58,399.5L515.85,393.63L517.12,393.63L518.39,399.5L519.66,393.63L551.44,393.63" style="vector-effect: none; fill: none; stroke: rgb(27, 158, 119); stroke-opacity: 1; stroke-width: 1.5px; opacity: 1;"/></g><g class="points"/><g class="text"/></g><g class="trace scatter trace3d810f" style="stroke-miterlimit: 2; opacity: 1;"><g class="fills"/><g class="errorbars"/><g class="lines"><path class="js-line" d="M1.16,152.75L2.44,364.25L3.71,364.25L4.98,358.38L6.25,358.38L13.87,358.38L15.14,364.25L17.69,364.25L18.96,358.38L20.23,364.25L21.5,358.38L22.77,346.63L24.04,346.63L25.31,346.63L26.58,352.5L29.12,352.5L30.39,358.38L31.66,352.5L32.94,358.38L34.21,364.25L35.48,358.38L39.29,358.38L40.56,364.25L41.83,364.25L43.1,370.13L45.64,370.13L46.91,364.25L48.19,370.13L49.46,370.13L54.54,370.13L55.81,376L57.08,370.13L58.35,381.88L60.89,381.88L62.16,376L63.44,381.88L64.71,381.88L68.52,381.88L69.79,387.75L71.06,381.88L72.33,387.75L73.6,381.88L74.87,381.88L76.14,381.88L77.41,387.75L78.69,381.88L79.96,387.75L82.5,387.75L83.77,381.88L85.04,381.88L86.31,387.75L87.58,387.75L88.85,381.88L91.39,381.88L92.66,387.75L97.75,387.75L99.02,393.63L102.83,393.63L104.1,381.88L105.37,381.88L106.64,393.63L121.89,393.63L123.16,387.75L124.44,393.63L125.71,393.63L134.6,393.63L135.87,399.5L137.14,393.63L138.41,393.63L139.69,399.5L140.96,399.5L142.23,399.5L143.5,393.63L146.04,393.63L147.31,399.5L149.85,387.75L151.12,393.63L152.39,393.63L153.66,399.5L154.94,393.63L156.21,399.5L158.75,399.5L160.02,393.63L161.29,399.5L162.56,399.5L166.37,399.5L167.64,393.63L168.91,393.63L170.19,399.5L180.35,399.5L181.62,393.63L182.89,399.5L184.16,399.5L194.33,399.5L195.6,393.63L196.87,399.5L198.14,399.5L199.41,393.63L200.69,399.5L203.23,399.5L204.5,393.63L205.77,399.5L207.04,393.63L208.31,399.5L209.58,399.5L210.85,399.5L212.12,393.63L213.39,399.5L214.66,393.63L217.21,393.63L218.48,399.5L219.75,393.63L221.02,399.5L222.29,393.63L223.56,393.63L231.19,393.63L232.46,399.5L233.73,393.63L235,393.63L236.27,399.5L237.54,393.63L248.98,393.63L250.25,399.5L251.52,393.63L252.79,393.63L254.06,393.63L255.33,387.75L256.6,393.63L257.87,393.63L261.69,393.63L262.96,399.5L264.23,393.63L265.5,393.63L296,393.63L297.27,387.75L298.54,393.63L299.81,393.63L307.44,393.63L308.71,387.75L309.98,393.63L311.25,393.63L312.52,393.63L313.79,387.75L315.06,387.75L316.33,393.63L318.87,393.63L320.14,387.75L321.41,393.63L322.69,393.63L357,393.63L358.27,399.5L359.54,393.63L360.81,393.63L412.91,393.63L414.19,399.5L415.46,393.63L416.73,393.63L418,399.5L419.27,393.63L438.33,393.63L439.6,399.5L440.87,399.5L442.14,393.63L454.85,393.63L456.12,399.5L457.39,393.63L458.66,399.5L459.94,393.63L461.21,393.63L465.02,393.63L466.29,399.5L467.56,393.63L468.83,399.5L470.1,393.63L471.37,399.5L477.73,399.5L479,393.63L480.27,399.5L481.54,399.5L491.71,399.5L492.98,393.63L494.25,399.5L495.52,399.5L496.79,405.38L498.06,399.5L499.33,399.5L500.6,393.63L501.87,405.38L503.14,393.63L504.41,393.63L505.69,399.5L515.85,399.5L517.12,393.63L518.39,405.38L519.66,399.5L551.44,399.5" style="vector-effect: none; fill: none; stroke: rgb(27, 158, 119); stroke-opacity: 1; stroke-width: 1.5px; opacity: 1;"/></g><g class="points"/><g class="text"/></g><g class="trace scatter trace1d61ae" style="stroke-miterlimit: 2; opacity: 1;"><g class="fills"/><g class="errorbars"/><g class="lines"><path class="js-line" d="M1.16,-47L2.44,358.38L3.71,352.5L4.98,352.5L6.25,358.38L10.06,358.38L11.33,352.5L12.6,352.5L13.87,364.25L15.14,358.38L16.41,364.25L17.69,376L18.96,364.25L20.23,364.25L21.5,358.38L22.77,340.75L24.04,346.63L26.58,358.38L27.85,346.63L29.12,358.38L30.39,358.38L31.66,352.5L32.94,352.5L34.21,364.25L35.48,358.38L40.56,358.38L41.83,364.25L45.64,364.25L46.91,370.13L48.19,370.13L49.46,376L50.73,376L52,370.13L53.27,376L54.54,370.13L55.81,370.13L57.08,376L58.35,376L59.62,381.88L60.89,381.88L62.16,376L65.98,376L67.25,381.88L68.52,381.88L69.79,387.75L71.06,381.88L72.33,381.88L76.14,381.88L77.41,387.75L78.69,381.88L79.96,381.88L85.04,381.88L86.31,387.75L87.58,381.88L88.85,381.88L90.12,387.75L91.39,387.75L92.66,381.88L93.94,387.75L114.27,387.75L115.54,393.63L116.81,387.75L118.08,387.75L120.62,387.75L121.89,393.63L123.16,387.75L124.44,387.75L125.71,387.75L126.98,393.63L128.25,393.63L129.52,387.75L132.06,387.75L133.33,393.63L134.6,387.75L135.87,387.75L138.41,399.5L139.69,399.5L142.23,387.75L143.5,387.75L144.77,393.63L146.04,393.63L147.31,393.63L148.58,387.75L149.85,393.63L151.12,387.75L152.39,381.88L153.66,393.63L156.21,393.63L157.48,387.75L158.75,387.75L160.02,393.63L167.64,393.63L168.91,387.75L170.19,399.5L171.46,387.75L172.73,399.5L174,393.63L175.27,387.75L176.54,393.63L177.81,387.75L179.08,387.75L180.35,381.88L181.62,393.63L182.89,399.5L184.16,399.5L185.44,387.75L186.71,387.75L189.25,387.75L190.52,399.5L191.79,387.75L193.06,393.63L194.33,387.75L195.6,393.63L196.87,387.75L198.14,393.63L199.41,393.63L200.69,387.75L201.96,393.63L203.23,387.75L204.5,393.63L205.77,387.75L208.31,387.75L209.58,393.63L212.12,393.63L213.39,387.75L214.66,393.63L215.94,393.63L217.21,399.5L218.48,387.75L219.75,393.63L221.02,387.75L233.73,387.75L235,393.63L236.27,393.63L237.54,387.75L238.81,387.75L240.08,393.63L241.35,393.63L242.62,387.75L248.98,387.75L250.25,393.63L251.52,393.63L252.79,387.75L254.06,381.88L255.33,387.75L257.87,387.75L259.14,381.88L260.41,381.88L261.69,387.75L262.96,387.75L264.23,393.63L265.5,387.75L266.77,387.75L271.85,387.75L273.12,393.63L274.39,387.75L275.66,387.75L279.48,387.75L280.75,393.63L282.02,387.75L283.29,387.75L290.91,387.75L292.19,393.63L293.46,387.75L294.73,393.63L296,393.63L297.27,399.5L298.54,393.63L299.81,393.63L301.08,387.75L302.35,393.63L304.89,393.63L306.16,399.5L307.44,393.63L308.71,399.5L309.98,393.63L311.25,393.63L312.52,387.75L313.79,387.75L316.33,387.75L317.6,393.63L320.14,393.63L321.41,399.5L322.69,393.63L323.96,393.63L327.77,393.63L329.04,399.5L334.12,399.5L335.39,405.38L336.66,393.63L337.94,399.5L339.21,393.63L340.48,399.5L343.02,399.5L344.29,393.63L345.56,399.5L346.83,399.5L348.1,393.63L349.37,405.38L350.64,405.38L351.91,399.5L353.19,393.63L354.46,399.5L355.73,405.38L357,405.38L358.27,405.38L359.54,399.5L360.81,393.63L362.08,399.5L364.62,399.5L365.89,393.63L367.16,399.5L368.44,393.63L369.71,399.5L370.98,399.5L374.79,399.5L376.06,393.63L377.33,399.5L378.6,399.5L379.87,405.38L381.14,405.38L382.41,405.38L383.69,399.5L384.96,405.38L386.23,393.63L387.5,405.38L388.77,399.5L390.04,393.63L391.31,399.5L392.58,405.38L393.85,399.5L396.39,399.5L397.66,405.38L400.21,393.63L401.48,405.38L402.75,399.5L404.02,399.5L405.29,393.63L406.56,399.5L407.83,393.63L409.1,405.38L410.37,399.5L411.64,405.38L415.46,405.38L416.73,399.5L418,405.38L419.27,393.63L421.81,405.38L423.08,393.63L424.35,399.5L425.62,399.5L426.89,393.63L428.16,399.5L429.44,399.5L430.71,405.38L431.98,405.38L433.25,393.63L434.52,393.63L435.79,405.38L437.06,399.5L438.33,399.5L439.6,405.38L440.87,399.5L442.14,405.38L443.41,405.38L444.69,393.63L445.96,393.63L447.23,405.38L448.5,399.5L449.77,399.5L451.04,393.63L452.31,405.38L453.58,399.5L454.85,405.38L456.12,405.38L458.66,393.63L459.94,393.63L461.21,399.5L462.48,393.63L465.02,405.38L466.29,399.5L467.56,387.75L468.83,399.5L471.37,399.5L472.64,405.38L473.91,393.63L475.19,405.38L476.46,405.38L477.73,399.5L479,393.63L480.27,393.63L481.54,393.63L482.81,399.5L485.35,399.5L486.62,405.38L487.89,399.5L489.16,399.5L490.44,405.38L491.71,399.5L492.98,393.63L494.25,405.38L495.52,399.5L496.79,405.38L498.06,405.38L499.33,399.5L500.6,393.63L501.87,399.5L504.41,399.5L505.69,405.38L506.96,399.5L508.23,399.5L509.5,399.5L510.77,405.38L512.04,399.5L513.31,399.5L514.58,393.63L515.85,399.5L517.12,399.5L518.39,393.63L519.66,399.5L520.94,399.5L522.21,405.38L523.48,405.38L524.75,399.5L526.02,399.5L527.29,405.38L528.56,399.5L529.83,399.5L531.1,393.63L532.37,399.5L533.64,399.5L534.91,405.38L536.19,393.63L537.46,405.38L538.73,399.5L540,399.5L541.27,405.38L543.81,393.63L545.08,399.5L550.16,399.5L551.44,393.63" style="vector-effect: none; fill: none; stroke: rgb(27, 158, 119); stroke-opacity: 1; stroke-width: 1.5px; opacity: 1;"/></g><g class="points"/><g class="text"/></g><g class="trace scatter tracefd8c08" style="stroke-miterlimit: 2; opacity: 1;"><g class="fills"/><g class="errorbars"/><g class="lines"><path class="js-line" d="M1.16,-23.5L2.44,334.88L3.71,317.25L4.98,317.25L6.25,323.13L11.33,323.13L12.6,329L13.87,323.13L15.14,329L16.41,329L17.69,334.88L18.96,323.13L20.23,329L21.5,323.13L22.77,305.5L24.04,317.25L25.31,311.38L26.58,323.13L27.85,317.25L29.12,323.13L30.39,323.13L31.66,317.25L32.94,317.25L34.21,329L35.48,323.13L39.29,323.13L40.56,329L44.37,329L45.64,334.88L46.91,340.75L48.19,334.88L49.46,340.75L50.73,340.75L52,334.88L53.27,340.75L54.54,334.88L55.81,334.88L57.08,340.75L58.35,340.75L59.62,346.63L60.89,346.63L62.16,340.75L63.44,340.75L65.98,340.75L67.25,346.63L68.52,340.75L69.79,352.5L71.06,346.63L72.33,346.63L76.14,346.63L77.41,352.5L78.69,346.63L79.96,346.63L85.04,346.63L86.31,352.5L87.58,346.63L88.85,346.63L92.66,346.63L93.94,352.5L96.48,352.5L97.75,346.63L99.02,352.5L100.29,352.5L109.19,352.5L110.46,346.63L111.73,352.5L113,352.5L114.27,346.63L115.54,352.5L116.81,346.63L118.08,352.5L119.35,340.75L120.62,352.5L121.89,352.5L123.16,346.63L124.44,352.5L125.71,352.5L137.14,352.5L138.41,358.38L139.69,358.38L140.96,352.5L144.77,352.5L146.04,358.38L148.58,346.63L149.85,352.5L151.12,352.5L152.39,346.63L153.66,352.5L154.94,352.5L158.75,352.5L160.02,358.38L161.29,358.38L162.56,352.5L165.1,352.5L166.37,358.38L167.64,358.38L168.91,352.5L170.19,358.38L171.46,352.5L172.73,358.38L174,352.5L175.27,352.5L176.54,364.25L177.81,352.5L179.08,352.5L180.35,346.63L181.62,358.38L184.16,358.38L185.44,352.5L189.25,352.5L190.52,358.38L191.79,352.5L193.06,358.38L194.33,352.5L195.6,358.38L196.87,352.5L198.14,358.38L199.41,358.38L200.69,352.5L201.96,358.38L203.23,352.5L204.5,358.38L205.77,352.5L208.31,352.5L209.58,358.38L210.85,352.5L212.12,358.38L213.39,352.5L214.66,358.38L217.21,358.38L218.48,352.5L219.75,358.38L221.02,352.5L233.73,352.5L235,358.38L236.27,358.38L237.54,352.5L238.81,352.5L240.08,358.38L241.35,358.38L242.62,352.5L243.89,352.5L245.16,346.63L246.44,352.5L247.71,352.5L250.25,352.5L251.52,358.38L252.79,352.5L254.06,352.5L260.41,352.5L261.69,358.38L262.96,352.5L264.23,352.5L265.5,346.63L266.77,346.63L268.04,346.63L269.31,352.5L270.58,346.63L271.85,352.5L273.12,358.38L274.39,352.5L275.66,346.63L276.94,346.63L278.21,352.5L279.48,352.5L280.75,352.5L282.02,346.63L287.1,346.63L288.37,352.5L289.64,346.63L290.91,352.5L292.19,352.5L293.46,346.63L294.73,346.63L296,352.5L297.27,352.5L298.54,346.63L299.81,352.5L301.08,346.63L302.35,352.5L303.62,352.5L304.89,352.5L306.16,358.38L307.44,346.63L308.71,358.38L311.25,346.63L312.52,352.5L313.79,346.63L315.06,346.63L316.33,346.63L317.6,352.5L318.87,346.63L320.14,346.63L321.41,358.38L322.69,352.5L323.96,358.38L325.23,352.5L327.77,352.5L329.04,358.38L330.31,352.5L331.58,352.5L332.85,352.5L334.12,358.38L335.39,358.38L336.66,352.5L337.94,358.38L339.21,358.38L343.02,358.38L344.29,352.5L348.1,352.5L349.37,358.38L351.91,358.38L353.19,352.5L354.46,358.38L355.73,358.38L358.27,358.38L359.54,352.5L360.81,352.5L362.08,358.38L364.62,358.38L365.89,352.5L367.16,358.38L368.44,352.5L369.71,358.38L370.98,352.5L372.25,352.5L373.52,358.38L374.79,358.38L376.06,352.5L377.33,358.38L378.6,358.38L384.96,358.38L386.23,352.5L387.5,358.38L388.77,358.38L390.04,352.5L391.31,358.38L395.12,358.38L396.39,352.5L397.66,358.38L398.94,358.38L400.21,352.5L401.48,358.38L404.02,358.38L405.29,352.5L406.56,358.38L407.83,352.5L409.1,358.38L410.37,358.38L411.64,358.38L412.91,364.25L414.19,358.38L415.46,358.38L418,358.38L419.27,352.5L421.81,364.25L423.08,358.38L424.35,364.25L425.62,358.38L426.89,358.38L428.16,352.5L429.44,358.38L430.71,358.38L431.98,358.38L433.25,352.5L435.79,364.25L437.06,364.25L438.33,358.38L439.6,358.38L440.87,358.38L442.14,364.25L443.41,364.25L444.69,358.38L445.96,358.38L447.23,364.25L448.5,364.25L449.77,358.38L451.04,358.38L452.31,364.25L453.58,358.38L454.85,364.25L457.39,364.25L458.66,358.38L459.94,358.38L461.21,364.25L462.48,352.5L463.75,364.25L466.29,364.25L467.56,358.38L468.83,364.25L470.1,358.38L471.37,358.38L472.64,364.25L473.91,358.38L475.19,364.25L476.46,364.25L477.73,358.38L480.27,358.38L481.54,364.25L482.81,358.38L484.08,364.25L485.35,358.38L486.62,364.25L487.89,358.38L489.16,364.25L490.44,364.25L491.71,358.38L492.98,358.38L494.25,364.25L496.79,364.25L498.06,370.13L500.6,358.38L501.87,358.38L503.14,364.25L504.41,364.25L505.69,370.13L506.96,364.25L508.23,358.38L509.5,364.25L512.04,364.25L513.31,358.38L517.12,358.38L518.39,364.25L522.21,364.25L523.48,370.13L524.75,358.38L526.02,364.25L527.29,370.13L528.56,364.25L529.83,370.13L531.1,358.38L532.37,364.25L533.64,364.25L534.91,370.13L536.19,364.25L537.46,370.13L538.73,364.25L540,364.25L541.27,370.13L543.81,358.38L545.08,364.25L546.35,358.38L547.62,370.13L548.89,358.38L550.16,364.25L551.44,364.25" style="vector-effect: none; fill: none; stroke: rgb(27, 158, 119); stroke-opacity: 1; stroke-width: 1.5px; opacity: 1;"/></g><g class="points"/><g class="text"/></g><g class="trace scatter trace875955" style="stroke-miterlimit: 2; opacity: 1;"><g class="fills"/><g class="errorbars"/><g class="lines"><path class="js-line" d="M1.16,41.13L2.44,358.38L3.71,346.63L4.98,346.63L6.25,352.5L8.79,352.5L10.06,346.63L11.33,352.5L12.6,352.5L16.41,352.5L17.69,364.25L18.96,352.5L20.23,352.5L22.77,340.75L24.04,352.5L25.31,346.63L26.58,346.63L27.85,340.75L29.12,352.5L30.39,352.5L31.66,346.63L32.94,346.63L34.21,352.5L43.1,352.5L44.37,358.38L45.64,358.38L46.91,364.25L48.19,358.38L49.46,364.25L50.73,364.25L52,358.38L53.27,370.13L54.54,364.25L58.35,364.25L59.62,370.13L60.89,376L62.16,370.13L65.98,370.13L67.25,376L68.52,370.13L69.79,376L71.06,370.13L72.33,370.13L76.14,370.13L77.41,376L78.69,370.13L79.96,376L81.23,370.13L82.5,376L85.04,376L86.31,381.88L87.58,376L88.85,376L100.29,376L101.56,381.88L102.83,370.13L104.1,370.13L106.64,381.88L107.91,376L109.19,381.88L110.46,376L111.73,381.88L113,376L114.27,376L115.54,381.88L116.81,376L118.08,381.88L119.35,381.88L120.62,376L121.89,387.75L123.16,370.13L124.44,381.88L125.71,376L126.98,376L128.25,381.88L129.52,370.13L130.79,381.88L137.14,381.88L138.41,387.75L139.69,387.75L140.96,381.88L142.23,376L143.5,376L146.04,387.75L147.31,387.75L148.58,376L149.85,381.88L151.12,381.88L152.39,376L153.66,381.88L154.94,381.88L158.75,381.88L160.02,387.75L161.29,387.75L162.56,381.88L165.1,381.88L166.37,387.75L167.64,387.75L168.91,381.88L170.19,387.75L171.46,381.88L175.27,381.88L176.54,387.75L177.81,381.88L179.08,381.88L180.35,376L181.62,387.75L184.16,387.75L185.44,381.88L189.25,381.88L190.52,387.75L191.79,381.88L193.06,387.75L194.33,381.88L195.6,387.75L196.87,381.88L198.14,387.75L199.41,387.75L200.69,381.88L201.96,387.75L203.23,381.88L204.5,387.75L205.77,381.88L208.31,381.88L209.58,387.75L210.85,381.88L212.12,387.75L213.39,381.88L214.66,387.75L217.21,387.75L218.48,381.88L219.75,387.75L221.02,381.88L227.37,381.88L228.64,376L229.91,381.88L231.19,381.88L233.73,381.88L235,387.75L236.27,387.75L237.54,381.88L238.81,381.88L240.08,387.75L241.35,387.75L242.62,381.88L243.89,376L245.16,381.88L247.71,381.88L248.98,376L250.25,387.75L251.52,387.75L252.79,381.88L254.06,381.88L256.6,381.88L257.87,376L259.14,381.88L260.41,376L261.69,387.75L262.96,381.88L264.23,387.75L265.5,381.88L269.31,381.88L270.58,376L271.85,376L273.12,387.75L274.39,376L275.66,376L278.21,376L279.48,381.88L280.75,381.88L282.02,376L290.91,376L292.19,381.88L293.46,376L294.73,376L296,376L297.27,381.88L298.54,376L299.81,381.88L301.08,376L302.35,376L303.62,376L304.89,381.88L306.16,381.88L307.44,376L308.71,381.88L309.98,381.88L311.25,376L312.52,376L316.33,376L317.6,381.88L318.87,376L320.14,376L321.41,381.88L322.69,376L323.96,387.75L325.23,376L326.5,376L327.77,381.88L330.31,381.88L331.58,376L332.85,376L334.12,387.75L335.39,387.75L336.66,376L337.94,381.88L339.21,381.88L343.02,381.88L344.29,376L345.56,381.88L346.83,381.88L348.1,381.88L349.37,387.75L351.91,387.75L353.19,381.88L354.46,387.75L355.73,387.75L358.27,387.75L359.54,381.88L365.89,381.88L367.16,387.75L368.44,376L369.71,387.75L370.98,381.88L372.25,381.88L373.52,387.75L374.79,387.75L376.06,376L377.33,387.75L384.96,387.75L386.23,381.88L387.5,387.75L388.77,387.75L390.04,376L391.31,381.88L392.58,387.75L393.85,381.88L395.12,387.75L396.39,381.88L397.66,387.75L398.94,387.75L400.21,381.88L401.48,387.75L404.02,387.75L405.29,381.88L406.56,387.75L407.83,381.88L409.1,387.75L410.37,387.75L418,387.75L419.27,381.88L420.54,387.75L421.81,387.75L423.08,381.88L424.35,387.75L425.62,387.75L426.89,381.88L428.16,381.88L429.44,387.75L431.98,387.75L433.25,381.88L434.52,381.88L435.79,387.75L437.06,387.75L438.33,381.88L439.6,387.75L440.87,381.88L442.14,387.75L443.41,387.75L444.69,381.88L445.96,381.88L447.23,387.75L448.5,387.75L449.77,381.88L451.04,387.75L452.31,393.63L453.58,381.88L454.85,393.63L456.12,393.63L457.39,393.63L458.66,387.75L459.94,381.88L461.21,393.63L462.48,387.75L463.75,387.75L465.02,387.75L466.29,393.63L467.56,387.75L468.83,393.63L470.1,387.75L471.37,387.75L475.19,387.75L476.46,393.63L477.73,381.88L479,381.88L480.27,381.88L481.54,387.75L482.81,387.75L484.08,393.63L485.35,387.75L486.62,393.63L487.89,387.75L489.16,393.63L490.44,393.63L491.71,387.75L492.98,381.88L494.25,393.63L495.52,387.75L496.79,393.63L498.06,393.63L499.33,387.75L500.6,381.88L501.87,387.75L503.14,387.75L504.41,393.63L506.96,393.63L508.23,387.75L509.5,393.63L510.77,393.63L512.04,387.75L513.31,387.75L517.12,387.75L518.39,393.63L519.66,393.63L520.94,387.75L522.21,393.63L523.48,393.63L524.75,387.75L526.02,393.63L527.29,393.63L528.56,387.75L529.83,393.63L531.1,387.75L532.37,393.63L533.64,387.75L534.91,393.63L536.19,387.75L537.46,393.63L538.73,387.75L540,387.75L541.27,399.5L543.81,387.75L545.08,399.5L546.35,387.75L547.62,399.5L548.89,387.75L550.16,399.5L551.44,387.75" style="vector-effect: none; fill: none; stroke: rgb(27, 158, 119); stroke-opacity: 1; stroke-width: 1.5px; opacity: 1;"/></g><g class="points"/><g class="text"/></g><g class="trace scatter trace1ea11c" style="stroke-miterlimit: 2; opacity: 1;"><g class="fills"/><g class="errorbars"/><g class="lines"><path class="js-line" d="M1.16,311.38L2.44,358.38L3.71,364.25L4.98,352.5L6.25,352.5L7.52,346.63L8.79,352.5L10.06,352.5L11.33,346.63L16.41,346.63L17.69,352.5L21.5,334.88L22.77,346.63L24.04,352.5L25.31,346.63L26.58,352.5L27.85,346.63L29.12,346.63L30.39,352.5L31.66,346.63L32.94,346.63L34.21,352.5L35.48,352.5L36.75,346.63L38.02,358.38L41.83,358.38L43.1,364.25L45.64,364.25L46.91,370.13L49.46,358.38L50.73,364.25L52,358.38L53.27,358.38L54.54,370.13L55.81,364.25L57.08,358.38L58.35,364.25L59.62,370.13L60.89,370.13L62.16,370.13L63.44,364.25L64.71,370.13L65.98,370.13L71.06,370.13L72.33,381.88L73.6,376L74.87,381.88L77.41,370.13L78.69,376L79.96,381.88L81.23,381.88L82.5,376L83.77,376L86.31,376L87.58,381.88L88.85,370.13L90.12,376L91.39,376L92.66,381.88L93.94,376L95.21,387.75L97.75,376L99.02,387.75L100.29,381.88L101.56,387.75L102.83,376L104.1,387.75L106.64,387.75L107.91,381.88L109.19,381.88L110.46,387.75L111.73,387.75L113,381.88L115.54,370.13L116.81,376L119.35,387.75L120.62,381.88L123.16,381.88L124.44,376L126.98,376L128.25,381.88L129.52,370.13L130.79,381.88L132.06,370.13L133.33,370.13L134.6,381.88L135.87,376L137.14,370.13L138.41,376L139.69,376L140.96,381.88L142.23,381.88L143.5,376L144.77,381.88L146.04,381.88L147.31,376L148.58,381.88L149.85,376L151.12,381.88L153.66,381.88L154.94,393.63L156.21,376L157.48,381.88L158.75,376L160.02,381.88L161.29,387.75L162.56,381.88L163.83,381.88L165.1,376L167.64,376L168.91,381.88L170.19,376L171.46,387.75L174,376L175.27,381.88L176.54,387.75L177.81,381.88L179.08,387.75L180.35,381.88L181.62,381.88L182.89,376L184.16,381.88L185.44,381.88L186.71,376L187.98,387.75L190.52,376L191.79,387.75L193.06,387.75L194.33,370.13L195.6,393.63L196.87,387.75L198.14,381.88L199.41,381.88L200.69,381.88L201.96,370.13L203.23,381.88L204.5,381.88L205.77,387.75L207.04,381.88L208.31,381.88L209.58,376L210.85,381.88L212.12,381.88L213.39,376L214.66,376L215.94,387.75L217.21,376L219.75,387.75L221.02,381.88L222.29,387.75L223.56,381.88L224.83,376L226.1,381.88L227.37,381.88L228.64,387.75L229.91,376L231.19,381.88L232.46,387.75L233.73,387.75L235,387.75L236.27,381.88L237.54,370.13L238.81,387.75L240.08,387.75L241.35,381.88L242.62,387.75L243.89,387.75L245.16,376L246.44,381.88L252.79,381.88L254.06,376L255.33,381.88L256.6,381.88L260.41,381.88L261.69,376L262.96,381.88L264.23,381.88L268.04,381.88L269.31,376L270.58,387.75L271.85,381.88L273.12,376L274.39,381.88L275.66,376L276.94,381.88L278.21,381.88L279.48,376L280.75,381.88L282.02,376L283.29,381.88L284.56,381.88L285.83,376L287.1,381.88L288.37,376L289.64,376L293.46,376L294.73,381.88L296,376L297.27,376L298.54,381.88L299.81,376L303.62,376L304.89,381.88L306.16,376L307.44,381.88L308.71,370.13L309.98,376L312.52,376L313.79,381.88L315.06,376L316.33,376L320.14,376L321.41,381.88L322.69,376L323.96,381.88L325.23,381.88L326.5,376L331.58,376L332.85,370.13L334.12,376L335.39,376L337.94,376L339.21,370.13L341.75,370.13L343.02,376L349.37,376L350.64,370.13L351.91,370.13L353.19,381.88L355.73,370.13L357,376L358.27,370.13L359.54,376L365.89,376L367.16,370.13L372.25,370.13L373.52,376L374.79,370.13L376.06,376L378.6,376L379.87,370.13L381.14,376L382.41,370.13L383.69,376L384.96,376L398.94,376L400.21,370.13L401.48,370.13L402.75,376L404.02,370.13L405.29,376L406.56,370.13L407.83,376L414.19,376L415.46,370.13L416.73,376L418,370.13L419.27,376L420.54,370.13L421.81,381.88L423.08,370.13L424.35,376L425.62,370.13L426.89,370.13L428.16,376L430.71,376L431.98,370.13L433.25,376L434.52,370.13L435.79,376L437.06,376L438.33,376L439.6,370.13L440.87,376L442.14,376L443.41,381.88L444.69,370.13L445.96,381.88L447.23,376L456.12,376L457.39,381.88L458.66,376L459.94,376L461.21,376L462.48,370.13L463.75,370.13L465.02,376L467.56,376L468.83,370.13L470.1,376L471.37,376L472.64,370.13L473.91,381.88L475.19,381.88L476.46,376L477.73,381.88L479,376L480.27,376L481.54,381.88L486.62,381.88L487.89,376L489.16,370.13L490.44,370.13L491.71,376L492.98,376L495.52,376L496.79,381.88L498.06,376L499.33,381.88L501.87,381.88L503.14,376L504.41,381.88L505.69,376L506.96,381.88L508.23,370.13L509.5,381.88L510.77,381.88L514.58,381.88L515.85,376L517.12,376L518.39,381.88L519.66,376L520.94,376L522.21,381.88L523.48,381.88L524.75,381.88L526.02,376L527.29,381.88L528.56,376L529.83,381.88L531.1,376L532.37,381.88L533.64,381.88L534.91,381.88L536.19,376L537.46,376L538.73,381.88L546.35,381.88L547.62,376L548.89,381.88L550.16,381.88L551.44,381.88" style="vector-effect: none; fill: none; stroke: rgb(231, 41, 138); stroke-opacity: 1; stroke-width: 1.5px; opacity: 1;"/></g><g class="points"/><g class="text"/></g><g class="trace scatter tracea46b42" style="stroke-miterlimit: 2; opacity: 1;"><g class="fills"/><g class="errorbars"/><g class="lines"><path class="js-line" d="M1.16,370.13L2.44,364.25L3.71,364.25L4.98,358.38L6.25,364.25L7.52,358.38L8.79,358.38L10.06,370.13L11.33,370.13L12.6,358.38L13.87,364.25L15.14,370.13L16.41,358.38L17.69,370.13L18.96,358.38L21.5,346.63L22.77,358.38L24.04,370.13L25.31,358.38L26.58,370.13L27.85,358.38L29.12,358.38L30.39,364.25L31.66,358.38L32.94,364.25L34.21,364.25L35.48,370.13L36.75,364.25L38.02,376L39.29,370.13L40.56,370.13L41.83,370.13L43.1,376L44.37,381.88L45.64,376L46.91,381.88L48.19,376L49.46,370.13L50.73,376L52,370.13L53.27,376L54.54,387.75L55.81,381.88L57.08,376L58.35,381.88L62.16,381.88L63.44,376L64.71,387.75L65.98,387.75L67.25,387.75L68.52,381.88L69.79,387.75L71.06,387.75L72.33,393.63L73.6,387.75L74.87,393.63L76.14,387.75L77.41,381.88L78.69,387.75L79.96,393.63L81.23,393.63L82.5,387.75L83.77,387.75L85.04,393.63L86.31,393.63L87.58,393.63L88.85,381.88L90.12,393.63L91.39,376L93.94,393.63L95.21,381.88L96.48,393.63L97.75,381.88L99.02,393.63L100.29,381.88L101.56,393.63L102.83,393.63L104.1,399.5L105.37,393.63L106.64,405.38L107.91,399.5L109.19,381.88L110.46,387.75L111.73,399.5L113,393.63L114.27,387.75L115.54,393.63L116.81,381.88L118.08,381.88L119.35,399.5L120.62,376L121.89,381.88L123.16,393.63L124.44,399.5L125.71,393.63L126.98,381.88L128.25,399.5L129.52,399.5L130.79,387.75L132.06,387.75L133.33,381.88L134.6,381.88L135.87,393.63L138.41,381.88L139.69,399.5L140.96,399.5L142.23,387.75L143.5,381.88L144.77,387.75L146.04,381.88L147.31,393.63L148.58,387.75L149.85,405.38L151.12,393.63L152.39,393.63L153.66,399.5L154.94,387.75L156.21,399.5L157.48,381.88L158.75,393.63L160.02,393.63L161.29,393.63L162.56,381.88L163.83,387.75L165.1,387.75L166.37,393.63L167.64,387.75L168.91,399.5L170.19,399.5L171.46,381.88L172.73,381.88L174,381.88L175.27,399.5L177.81,399.5L179.08,387.75L180.35,376L181.62,393.63L182.89,387.75L184.16,399.5L185.44,381.88L186.71,393.63L187.98,399.5L189.25,393.63L191.79,393.63L193.06,405.38L194.33,393.63L195.6,399.5L196.87,399.5L198.14,393.63L199.41,399.5L200.69,393.63L201.96,387.75L203.23,405.38L204.5,393.63L205.77,393.63L208.31,393.63L209.58,399.5L210.85,387.75L212.12,399.5L213.39,399.5L214.66,405.38L215.94,399.5L217.21,399.5L218.48,405.38L219.75,405.38L223.56,405.38L224.83,393.63L226.1,405.38L227.37,387.75L229.91,399.5L231.19,399.5L232.46,393.63L233.73,399.5L235,387.75L236.27,399.5L237.54,387.75L238.81,399.5L240.08,393.63L241.35,399.5L242.62,399.5L243.89,405.38L245.16,393.63L246.44,393.63L247.71,393.63L248.98,387.75L250.25,399.5L251.52,387.75L252.79,399.5L254.06,387.75L256.6,399.5L257.87,399.5L259.14,393.63L260.41,399.5L261.69,393.63L262.96,399.5L266.77,399.5L268.04,393.63L269.31,393.63L270.58,399.5L271.85,393.63L273.12,393.63L274.39,399.5L275.66,387.75L276.94,387.75L278.21,393.63L279.48,387.75L280.75,399.5L282.02,387.75L283.29,399.5L284.56,399.5L285.83,393.63L287.1,399.5L288.37,387.75L289.64,387.75L290.91,393.63L292.19,393.63L293.46,399.5L294.73,393.63L296,393.63L299.81,393.63L301.08,387.75L302.35,381.88L303.62,387.75L304.89,393.63L306.16,387.75L307.44,393.63L308.71,387.75L312.52,387.75L313.79,393.63L315.06,387.75L316.33,393.63L317.6,387.75L318.87,387.75L320.14,393.63L321.41,393.63L322.69,387.75L323.96,393.63L325.23,393.63L326.5,387.75L327.77,393.63L329.04,381.88L331.58,393.63L332.85,387.75L336.66,387.75L337.94,393.63L340.48,381.88L341.75,387.75L343.02,393.63L344.29,393.63L346.83,393.63L348.1,387.75L349.37,393.63L350.64,393.63L351.91,381.88L353.19,387.75L355.73,387.75L357,393.63L358.27,376L359.54,387.75L365.89,387.75L367.16,381.88L369.71,381.88L370.98,387.75L372.25,381.88L373.52,387.75L374.79,381.88L376.06,387.75L381.14,387.75L382.41,381.88L383.69,393.63L384.96,387.75L391.31,387.75L392.58,393.63L393.85,393.63L395.12,387.75L396.39,393.63L397.66,387.75L398.94,393.63L400.21,381.88L401.48,381.88L402.75,387.75L405.29,387.75L406.56,381.88L407.83,393.63L409.1,387.75L411.64,387.75L412.91,393.63L414.19,387.75L415.46,387.75L416.73,393.63L418,381.88L419.27,387.75L420.54,381.88L421.81,393.63L423.08,381.88L424.35,387.75L425.62,381.88L426.89,381.88L428.16,387.75L429.44,393.63L430.71,387.75L434.52,387.75L435.79,393.63L437.06,387.75L438.33,387.75L439.6,381.88L440.87,387.75L444.69,387.75L445.96,393.63L447.23,387.75L448.5,393.63L451.04,393.63L452.31,387.75L453.58,393.63L454.85,393.63L457.39,393.63L458.66,387.75L459.94,393.63L461.21,393.63L463.75,381.88L465.02,387.75L467.56,387.75L468.83,381.88L471.37,393.63L472.64,381.88L475.19,393.63L476.46,393.63L477.73,393.63L479,387.75L480.27,393.63L481.54,393.63L484.08,393.63L485.35,387.75L486.62,393.63L487.89,387.75L489.16,381.88L490.44,387.75L491.71,387.75L492.98,393.63L494.25,393.63L495.52,387.75L496.79,393.63L498.06,393.63L501.87,393.63L503.14,387.75L505.69,387.75L506.96,393.63L508.23,387.75L509.5,393.63L514.58,393.63L515.85,387.75L517.12,387.75L518.39,393.63L519.66,393.63L520.94,387.75L522.21,393.63L523.48,393.63L527.29,393.63L528.56,387.75L529.83,387.75L531.1,393.63L536.19,393.63L537.46,387.75L538.73,393.63L540,393.63L546.35,393.63L547.62,387.75L548.89,393.63L550.16,393.63L551.44,393.63" style="vector-effect: none; fill: none; stroke: rgb(231, 41, 138); stroke-opacity: 1; stroke-width: 1.5px; opacity: 1;"/></g><g class="points"/><g class="text"/></g><g class="trace scatter trace1269a9" style="stroke-miterlimit: 2; opacity: 1;"><g class="fills"/><g class="errorbars"/><g class="lines"><path class="js-line" d="M1.16,376L2.44,381.88L3.71,376L4.98,370.13L6.25,370.13L7.52,364.25L8.79,364.25L10.06,370.13L11.33,364.25L13.87,364.25L15.14,358.38L16.41,364.25L17.69,364.25L18.96,364.25L20.23,352.5L21.5,352.5L22.77,358.38L24.04,364.25L25.31,358.38L26.58,364.25L27.85,358.38L29.12,358.38L30.39,364.25L31.66,358.38L32.94,364.25L35.48,364.25L36.75,358.38L38.02,376L39.29,370.13L41.83,370.13L43.1,376L44.37,381.88L45.64,370.13L46.91,381.88L48.19,376L49.46,370.13L50.73,376L53.27,376L54.54,387.75L57.08,376L58.35,381.88L60.89,381.88L62.16,387.75L63.44,376L64.71,387.75L67.25,387.75L68.52,381.88L69.79,387.75L71.06,387.75L72.33,393.63L73.6,393.63L74.87,393.63L76.14,387.75L77.41,387.75L78.69,393.63L79.96,393.63L81.23,399.5L82.5,393.63L83.77,381.88L85.04,393.63L86.31,387.75L87.58,393.63L88.85,381.88L90.12,393.63L91.39,393.63L92.66,393.63L93.94,387.75L96.48,399.5L97.75,387.75L99.02,393.63L100.29,387.75L101.56,399.5L102.83,381.88L104.1,399.5L105.37,393.63L106.64,393.63L107.91,405.38L109.19,393.63L110.46,399.5L111.73,399.5L113,405.38L114.27,393.63L115.54,399.5L116.81,393.63L118.08,393.63L119.35,405.38L120.62,381.88L121.89,399.5L123.16,387.75L124.44,387.75L125.71,399.5L126.98,399.5L128.25,393.63L129.52,376L130.79,399.5L132.06,393.63L133.33,393.63L134.6,399.5L135.87,381.88L137.14,399.5L138.41,393.63L139.69,387.75L140.96,399.5L142.23,399.5L143.5,393.63L144.77,399.5L146.04,399.5L148.58,399.5L149.85,393.63L151.12,399.5L152.39,399.5L153.66,405.38L154.94,405.38L156.21,381.88L157.48,399.5L158.75,393.63L160.02,381.88L162.56,399.5L163.83,399.5L165.1,399.5L166.37,411.25L167.64,387.75L168.91,393.63L170.19,381.88L171.46,393.63L172.73,393.63L174,399.5L175.27,393.63L176.54,405.38L177.81,393.63L179.08,399.5L180.35,393.63L181.62,399.5L185.44,399.5L186.71,405.38L187.98,405.38L189.25,399.5L190.52,405.38L191.79,399.5L193.06,393.63L194.33,399.5L195.6,405.38L196.87,399.5L198.14,393.63L199.41,405.38L200.69,381.88L201.96,381.88L203.23,399.5L204.5,399.5L205.77,405.38L207.04,393.63L209.58,393.63L210.85,387.75L212.12,393.63L213.39,393.63L214.66,405.38L215.94,405.38L217.21,393.63L218.48,405.38L219.75,399.5L221.02,399.5L222.29,405.38L223.56,399.5L224.83,399.5L226.1,405.38L228.64,393.63L229.91,399.5L231.19,405.38L232.46,399.5L233.73,405.38L235,405.38L236.27,393.63L237.54,393.63L238.81,399.5L240.08,393.63L241.35,399.5L242.62,399.5L243.89,405.38L245.16,393.63L246.44,387.75L247.71,399.5L248.98,393.63L250.25,393.63L251.52,393.63L252.79,405.38L254.06,393.63L255.33,399.5L260.41,399.5L261.69,393.63L262.96,399.5L264.23,399.5L268.04,399.5L269.31,393.63L270.58,399.5L271.85,399.5L273.12,393.63L274.39,399.5L275.66,393.63L276.94,393.63L278.21,399.5L279.48,393.63L280.75,399.5L282.02,387.75L283.29,399.5L284.56,399.5L285.83,393.63L287.1,399.5L289.64,387.75L290.91,387.75L292.19,399.5L293.46,393.63L294.73,399.5L296,393.63L297.27,399.5L298.54,393.63L299.81,393.63L301.08,387.75L302.35,393.63L303.62,393.63L304.89,399.5L306.16,387.75L307.44,399.5L308.71,393.63L311.25,393.63L312.52,387.75L313.79,393.63L315.06,387.75L316.33,393.63L317.6,387.75L318.87,387.75L320.14,393.63L321.41,393.63L322.69,387.75L323.96,393.63L325.23,393.63L327.77,393.63L329.04,387.75L330.31,393.63L331.58,393.63L334.12,381.88L335.39,387.75L336.66,387.75L337.94,393.63L339.21,387.75L340.48,387.75L343.02,387.75L344.29,393.63L345.56,387.75L346.83,387.75L348.1,393.63L349.37,393.63L350.64,393.63L351.91,387.75L353.19,393.63L354.46,387.75L355.73,387.75L357,393.63L358.27,387.75L359.54,393.63L362.08,393.63L363.35,387.75L364.62,393.63L365.89,387.75L368.44,387.75L369.71,381.88L370.98,387.75L372.25,387.75L373.52,393.63L374.79,387.75L376.06,393.63L377.33,387.75L378.6,387.75L379.87,381.88L381.14,393.63L382.41,387.75L383.69,393.63L384.96,387.75L386.23,393.63L387.5,393.63L388.77,387.75L390.04,393.63L398.94,393.63L400.21,387.75L401.48,387.75L402.75,393.63L404.02,387.75L405.29,393.63L406.56,381.88L407.83,393.63L414.19,393.63L415.46,387.75L420.54,387.75L421.81,393.63L423.08,387.75L424.35,393.63L426.89,381.88L428.16,393.63L430.71,393.63L431.98,387.75L433.25,393.63L434.52,387.75L435.79,393.63L437.06,393.63L438.33,393.63L439.6,387.75L440.87,393.63L442.14,393.63L443.41,393.63L444.69,387.75L445.96,393.63L447.23,393.63L451.04,393.63L452.31,387.75L453.58,393.63L454.85,393.63L461.21,393.63L462.48,387.75L463.75,387.75L465.02,393.63L467.56,393.63L468.83,387.75L470.1,393.63L471.37,393.63L472.64,387.75L473.91,393.63L477.73,393.63L479,387.75L480.27,393.63L481.54,393.63L486.62,393.63L487.89,387.75L490.44,387.75L491.71,393.63L494.25,393.63L495.52,387.75L496.79,393.63L498.06,393.63L501.87,393.63L503.14,387.75L504.41,393.63L505.69,387.75L506.96,393.63L508.23,387.75L509.5,393.63L510.77,393.63L515.85,393.63L517.12,387.75L518.39,393.63L519.66,393.63L520.94,387.75L522.21,393.63L527.29,393.63L528.56,387.75L529.83,393.63L531.1,393.63L536.19,393.63L537.46,387.75L538.73,393.63L540,393.63L546.35,393.63L547.62,387.75L548.89,393.63L550.16,393.63L551.44,393.63" style="vector-effect: none; fill: none; stroke: rgb(231, 41, 138); stroke-opacity: 1; stroke-width: 1.5px; opacity: 1;"/></g><g class="points"/><g class="text"/></g><g class="trace scatter trace921b47" style="stroke-miterlimit: 2; opacity: 1;"><g class="fills"/><g class="errorbars"/><g class="lines"><path class="js-line" d="M1.16,170.38L2.44,370.13L3.71,364.25L4.98,364.25L6.25,358.38L8.79,358.38L10.06,364.25L11.33,358.38L12.6,364.25L13.87,364.25L15.14,370.13L17.69,370.13L18.96,364.25L22.77,346.63L24.04,352.5L26.58,352.5L27.85,358.38L29.12,352.5L30.39,358.38L31.66,358.38L32.94,364.25L34.21,364.25L35.48,358.38L39.29,358.38L40.56,364.25L41.83,364.25L43.1,370.13L45.64,370.13L46.91,364.25L48.19,364.25L49.46,370.13L54.54,370.13L55.81,376L57.08,370.13L58.35,376L60.89,376L62.16,370.13L63.44,381.88L64.71,381.88L72.33,381.88L73.6,376L74.87,376L76.14,381.88L77.41,387.75L78.69,381.88L79.96,387.75L81.23,387.75L82.5,387.75L83.77,381.88L85.04,381.88L86.31,387.75L87.58,387.75L88.85,381.88L91.39,381.88L92.66,387.75L93.94,387.75L95.21,381.88L96.48,387.75L97.75,387.75L100.29,387.75L101.56,393.63L102.83,387.75L104.1,393.63L121.89,393.63L123.16,387.75L124.44,393.63L125.71,393.63L134.6,393.63L135.87,399.5L142.23,399.5L143.5,393.63L144.77,393.63L146.04,399.5L147.31,399.5L148.58,387.75L149.85,387.75L151.12,399.5L152.39,393.63L153.66,399.5L154.94,393.63L156.21,399.5L158.75,399.5L160.02,393.63L161.29,399.5L162.56,399.5L167.64,399.5L168.91,387.75L170.19,399.5L171.46,399.5L187.98,399.5L189.25,393.63L190.52,393.63L191.79,399.5L193.06,399.5L194.33,393.63L195.6,399.5L196.87,399.5L198.14,393.63L199.41,381.88L200.69,399.5L201.96,399.5L203.23,393.63L204.5,399.5L215.94,399.5L217.21,393.63L218.48,399.5L219.75,393.63L221.02,399.5L222.29,399.5L228.64,399.5L229.91,393.63L231.19,393.63L232.46,399.5L243.89,399.5L245.16,393.63L246.44,399.5L247.71,393.63L248.98,399.5L250.25,399.5L251.52,393.63L252.79,399.5L255.33,387.75L256.6,393.63L257.87,399.5L259.14,399.5L260.41,393.63L261.69,393.63L262.96,399.5L264.23,399.5L266.77,399.5L268.04,393.63L269.31,399.5L270.58,393.63L271.85,393.63L273.12,399.5L274.39,393.63L275.66,399.5L276.94,399.5L278.21,393.63L279.48,393.63L280.75,399.5L282.02,393.63L283.29,393.63L292.19,393.63L293.46,399.5L294.73,393.63L296,393.63L298.54,393.63L299.81,399.5L301.08,399.5L302.35,393.63L350.64,393.63L351.91,387.75L353.19,393.63L354.46,393.63L357,393.63L358.27,399.5L359.54,393.63L360.81,393.63L407.83,393.63L409.1,387.75L410.37,393.63L411.64,393.63L412.91,393.63L414.19,399.5L415.46,393.63L416.73,393.63L418,399.5L419.27,393.63L438.33,393.63L439.6,399.5L440.87,393.63L442.14,393.63L444.69,393.63L445.96,399.5L447.23,393.63L448.5,393.63L453.58,393.63L454.85,399.5L456.12,387.75L457.39,399.5L458.66,393.63L459.94,393.63L465.02,393.63L466.29,399.5L467.56,393.63L468.83,393.63L470.1,393.63L471.37,399.5L484.08,399.5L485.35,393.63L486.62,405.38L487.89,393.63L489.16,393.63L490.44,399.5L495.52,399.5L496.79,405.38L498.06,399.5L499.33,399.5L500.6,399.5L501.87,405.38L503.14,399.5L504.41,399.5L505.69,387.75L506.96,393.63L508.23,399.5L509.5,399.5L513.31,399.5L514.58,405.38L517.12,393.63L518.39,405.38L519.66,393.63L520.94,399.5L524.75,399.5L526.02,393.63L527.29,393.63L528.56,399.5L531.1,399.5L532.37,393.63L533.64,399.5L534.91,399.5L536.19,399.5L537.46,393.63L538.73,399.5L540,399.5L541.27,399.5L542.54,393.63L543.81,399.5L545.08,399.5L551.44,399.5" style="vector-effect: none; fill: none; stroke: rgb(231, 41, 138); stroke-opacity: 1; stroke-width: 1.5px; opacity: 1;"/></g><g class="points"/><g class="text"/></g><g class="trace scatter traceea4b02" style="stroke-miterlimit: 2; opacity: 1;"><g class="fills"/><g class="errorbars"/><g class="lines"><path class="js-line" d="M1.16,199.75L2.44,364.25L3.71,364.25L4.98,364.25L6.25,352.5L7.52,358.38L8.79,358.38L11.33,358.38L12.6,370.13L13.87,364.25L15.14,364.25L16.41,370.13L17.69,370.13L18.96,364.25L20.23,364.25L21.5,358.38L22.77,346.63L24.04,352.5L25.31,352.5L26.58,346.63L27.85,358.38L29.12,352.5L30.39,358.38L31.66,352.5L32.94,364.25L34.21,364.25L35.48,358.38L40.56,358.38L41.83,364.25L43.1,370.13L44.37,370.13L45.64,370.13L46.91,364.25L49.46,364.25L50.73,370.13L54.54,370.13L55.81,376L57.08,370.13L58.35,376L62.16,376L63.44,381.88L72.33,381.88L73.6,376L76.14,376L77.41,381.88L78.69,376L79.96,387.75L81.23,387.75L82.5,381.88L85.04,381.88L86.31,387.75L87.58,387.75L88.85,381.88L90.12,376L91.39,381.88L92.66,387.75L93.94,387.75L95.21,381.88L96.48,387.75L106.64,387.75L107.91,393.63L109.19,387.75L110.46,387.75L111.73,387.75L113,393.63L115.54,393.63L116.81,387.75L118.08,393.63L119.35,393.63L121.89,393.63L123.16,387.75L124.44,393.63L125.71,393.63L147.31,393.63L148.58,387.75L149.85,387.75L151.12,393.63L152.39,387.75L153.66,399.5L154.94,387.75L156.21,393.63L157.48,393.63L158.75,399.5L160.02,393.63L161.29,399.5L167.64,399.5L168.91,393.63L170.19,393.63L171.46,399.5L172.73,393.63L174,399.5L184.16,399.5L185.44,393.63L186.71,399.5L187.98,399.5L189.25,376L190.52,399.5L191.79,399.5L193.06,387.75L195.6,399.5L196.87,399.5L201.96,399.5L203.23,393.63L204.5,399.5L205.77,399.5L214.66,399.5L215.94,393.63L217.21,399.5L218.48,393.63L219.75,393.63L221.02,399.5L222.29,387.75L223.56,393.63L224.83,393.63L226.1,399.5L227.37,393.63L228.64,399.5L236.27,399.5L237.54,393.63L238.81,399.5L240.08,393.63L241.35,399.5L242.62,399.5L245.16,399.5L246.44,393.63L247.71,399.5L248.98,393.63L250.25,399.5L251.52,393.63L252.79,399.5L254.06,399.5L255.33,393.63L256.6,393.63L257.87,393.63L259.14,399.5L260.41,393.63L261.69,393.63L264.23,393.63L265.5,399.5L266.77,393.63L268.04,393.63L269.31,399.5L270.58,399.5L274.39,399.5L275.66,393.63L283.29,393.63L284.56,399.5L285.83,393.63L287.1,393.63L298.54,393.63L299.81,399.5L301.08,393.63L302.35,393.63L321.41,393.63L322.69,387.75L323.96,393.63L325.23,393.63L331.58,393.63L332.85,387.75L334.12,393.63L335.39,393.63L336.66,393.63L337.94,387.75L339.21,393.63L340.48,393.63L341.75,393.63L343.02,387.75L344.29,393.63L345.56,393.63L353.19,393.63L354.46,387.75L355.73,387.75L357,393.63L364.62,393.63L365.89,387.75L367.16,393.63L368.44,393.63L369.71,387.75L370.98,393.63L372.25,393.63L373.52,387.75L374.79,387.75L376.06,393.63L402.75,393.63L404.02,387.75L405.29,393.63L406.56,393.63L412.91,393.63L414.19,399.5L415.46,393.63L416.73,393.63L418,399.5L419.27,387.75L420.54,387.75L421.81,393.63L438.33,393.63L439.6,399.5L440.87,393.63L442.14,393.63L465.02,393.63L466.29,399.5L467.56,393.63L468.83,393.63L485.35,393.63L486.62,399.5L487.89,393.63L489.16,393.63L491.71,393.63L492.98,399.5L494.25,393.63L495.52,393.63L496.79,399.5L498.06,393.63L500.6,393.63L501.87,399.5L503.14,393.63L504.41,393.63L512.04,393.63L513.31,399.5L514.58,405.38L515.85,393.63L517.12,393.63L518.39,399.5L519.66,399.5L520.94,393.63L533.64,393.63L534.91,399.5L536.19,393.63L537.46,393.63L538.73,399.5L540,393.63L543.81,393.63L545.08,399.5L546.35,399.5L547.62,393.63L548.89,399.5L550.16,399.5L551.44,399.5" style="vector-effect: none; fill: none; stroke: rgb(231, 41, 138); stroke-opacity: 1; stroke-width: 1.5px; opacity: 1;"/></g><g class="points"/><g class="text"/></g><g class="trace scatter trace30ef81" style="stroke-miterlimit: 2; opacity: 1;"><g class="fills"/><g class="errorbars"/><g class="lines"><path class="js-line" d="M1.16,193.88L2.44,358.38L3.71,358.38L4.98,364.25L6.25,352.5L7.52,358.38L8.79,358.38L11.33,358.38L12.6,364.25L13.87,364.25L15.14,358.38L16.41,364.25L17.69,364.25L21.5,346.63L22.77,346.63L25.31,346.63L26.58,352.5L27.85,358.38L29.12,352.5L30.39,358.38L31.66,352.5L32.94,358.38L34.21,358.38L41.83,358.38L43.1,370.13L45.64,370.13L46.91,364.25L53.27,364.25L54.54,370.13L55.81,376L57.08,370.13L58.35,376L59.62,376L60.89,376L62.16,370.13L64.71,381.88L65.98,376L67.25,381.88L68.52,381.88L72.33,381.88L73.6,376L76.14,376L77.41,381.88L78.69,376L79.96,387.75L81.23,381.88L82.5,387.75L83.77,381.88L85.04,381.88L86.31,387.75L87.58,387.75L88.85,381.88L90.12,381.88L91.39,381.88L92.66,387.75L93.94,387.75L95.21,376L96.48,387.75L97.75,387.75L105.37,387.75L106.64,393.63L109.19,393.63L110.46,387.75L111.73,393.63L113,393.63L119.35,393.63L120.62,387.75L121.89,393.63L123.16,387.75L124.44,393.63L125.71,393.63L135.87,393.63L137.14,376L138.41,376L139.69,393.63L143.5,393.63L144.77,381.88L146.04,399.5L147.31,393.63L148.58,387.75L149.85,387.75L151.12,387.75L152.39,393.63L157.48,393.63L158.75,399.5L160.02,370.13L161.29,387.75L162.56,376L163.83,381.88L165.1,393.63L166.37,393.63L167.64,381.88L168.91,393.63L170.19,387.75L171.46,393.63L172.73,399.5L174,393.63L175.27,381.88L176.54,393.63L177.81,399.5L179.08,393.63L180.35,393.63L181.62,399.5L182.89,387.75L184.16,399.5L185.44,393.63L186.71,399.5L187.98,393.63L189.25,393.63L191.79,381.88L193.06,399.5L194.33,393.63L195.6,393.63L196.87,387.75L198.14,393.63L200.69,393.63L201.96,399.5L203.23,393.63L204.5,393.63L207.04,393.63L208.31,399.5L209.58,393.63L210.85,399.5L212.12,399.5L213.39,393.63L214.66,399.5L215.94,387.75L217.21,393.63L218.48,393.63L226.1,393.63L227.37,399.5L228.64,393.63L229.91,393.63L233.73,393.63L235,399.5L237.54,399.5L238.81,393.63L245.16,393.63L246.44,399.5L247.71,393.63L248.98,393.63L254.06,393.63L255.33,387.75L257.87,399.5L259.14,387.75L260.41,393.63L261.69,393.63L262.96,393.63L264.23,399.5L265.5,393.63L266.77,393.63L268.04,387.75L269.31,387.75L270.58,393.63L271.85,393.63L276.94,393.63L278.21,387.75L279.48,393.63L280.75,393.63L282.02,387.75L283.29,393.63L284.56,387.75L285.83,387.75L287.1,387.75L288.37,393.63L293.46,393.63L294.73,387.75L296,393.63L297.27,387.75L298.54,393.63L299.81,387.75L301.08,387.75L302.35,393.63L304.89,393.63L306.16,387.75L307.44,387.75L308.71,393.63L311.25,393.63L312.52,387.75L313.79,393.63L315.06,387.75L316.33,387.75L317.6,393.63L318.87,387.75L320.14,387.75L321.41,393.63L322.69,387.75L326.5,387.75L327.77,393.63L329.04,387.75L330.31,393.63L331.58,387.75L332.85,387.75L335.39,387.75L336.66,393.63L337.94,387.75L339.21,387.75L340.48,393.63L341.75,387.75L343.02,387.75L344.29,393.63L345.56,387.75L346.83,387.75L348.1,393.63L349.37,387.75L355.73,387.75L357,393.63L362.08,393.63L363.35,387.75L365.89,387.75L367.16,393.63L368.44,387.75L369.71,393.63L370.98,387.75L372.25,393.63L373.52,387.75L374.79,393.63L376.06,387.75L377.33,387.75L378.6,393.63L379.87,387.75L381.14,393.63L382.41,393.63L383.69,393.63L384.96,387.75L393.85,387.75L395.12,393.63L402.75,393.63L404.02,387.75L405.29,393.63L406.56,387.75L407.83,387.75L409.1,393.63L411.64,393.63L412.91,387.75L414.19,399.5L415.46,393.63L416.73,387.75L418,393.63L423.08,393.63L424.35,387.75L425.62,387.75L426.89,393.63L430.71,393.63L431.98,387.75L433.25,393.63L434.52,387.75L435.79,393.63L437.06,387.75L439.6,399.5L440.87,393.63L444.69,393.63L445.96,387.75L447.23,393.63L448.5,393.63L453.58,393.63L454.85,387.75L456.12,393.63L457.39,393.63L465.02,393.63L466.29,399.5L467.56,393.63L468.83,393.63L485.35,393.63L486.62,399.5L487.89,393.63L489.16,393.63L495.52,393.63L496.79,399.5L498.06,393.63L499.33,393.63L500.6,393.63L501.87,399.5L503.14,393.63L504.41,393.63L517.12,393.63L518.39,399.5L519.66,393.63L520.94,393.63L551.44,393.63" style="vector-effect: none; fill: none; stroke: rgb(231, 41, 138); stroke-opacity: 1; stroke-width: 1.5px; opacity: 1;"/></g><g class="points"/><g class="text"/></g><g class="trace scatter trace0301cf" style="stroke-miterlimit: 2; opacity: 1;"><g class="fills"/><g class="errorbars"/><g class="lines"><path class="js-line" d="M1.16,64.63L2.44,346.63L3.71,334.88L6.25,346.63L7.52,346.63L11.33,346.63L12.6,352.5L13.87,358.38L15.14,352.5L16.41,358.38L17.69,376L20.23,358.38L21.5,352.5L22.77,346.63L24.04,352.5L25.31,346.63L26.58,358.38L27.85,352.5L29.12,358.38L30.39,358.38L31.66,352.5L32.94,352.5L34.21,364.25L35.48,358.38L36.75,358.38L43.1,358.38L44.37,364.25L45.64,364.25L46.91,370.13L48.19,364.25L49.46,370.13L50.73,370.13L52,364.25L53.27,370.13L54.54,370.13L58.35,370.13L59.62,376L60.89,376L62.16,370.13L63.44,370.13L64.71,376L65.98,376L67.25,381.88L68.52,376L69.79,381.88L71.06,376L72.33,376L76.14,376L77.41,387.75L78.69,381.88L79.96,381.88L85.04,381.88L86.31,387.75L87.58,381.88L88.85,381.88L105.37,381.88L106.64,387.75L120.62,387.75L121.89,393.63L123.16,387.75L124.44,387.75L137.14,387.75L138.41,393.63L139.69,393.63L140.96,387.75L143.5,387.75L144.77,393.63L147.31,393.63L148.58,376L149.85,387.75L151.12,387.75L152.39,381.88L153.66,387.75L158.75,387.75L160.02,393.63L161.29,393.63L162.56,387.75L165.1,387.75L166.37,393.63L167.64,393.63L168.91,387.75L170.19,393.63L171.46,387.75L172.73,393.63L174,387.75L175.27,387.75L176.54,393.63L177.81,387.75L179.08,387.75L180.35,381.88L181.62,393.63L184.16,393.63L185.44,387.75L186.71,387.75L187.98,393.63L189.25,387.75L190.52,393.63L191.79,387.75L193.06,393.63L194.33,387.75L195.6,393.63L196.87,387.75L198.14,393.63L199.41,393.63L200.69,387.75L201.96,393.63L203.23,387.75L204.5,393.63L205.77,387.75L208.31,387.75L209.58,393.63L210.85,387.75L212.12,393.63L213.39,387.75L214.66,393.63L217.21,393.63L218.48,387.75L219.75,393.63L221.02,387.75L233.73,387.75L235,393.63L236.27,393.63L237.54,387.75L238.81,387.75L240.08,393.63L241.35,393.63L242.62,387.75L248.98,387.75L250.25,393.63L251.52,393.63L252.79,387.75L260.41,387.75L261.69,393.63L262.96,387.75L264.23,393.63L265.5,387.75L266.77,387.75L271.85,387.75L273.12,393.63L275.66,381.88L276.94,387.75L279.48,387.75L280.75,393.63L282.02,387.75L283.29,387.75L288.37,387.75L289.64,381.88L290.91,387.75L292.19,387.75L296,387.75L297.27,393.63L298.54,381.88L299.81,387.75L301.08,381.88L302.35,387.75L304.89,387.75L306.16,393.63L307.44,387.75L308.71,393.63L311.25,381.88L312.52,381.88L316.33,381.88L317.6,387.75L318.87,381.88L320.14,381.88L321.41,387.75L322.69,381.88L323.96,387.75L325.23,387.75L326.5,381.88L327.77,381.88L329.04,387.75L330.31,387.75L331.58,381.88L332.85,381.88L334.12,387.75L335.39,387.75L336.66,381.88L337.94,393.63L339.21,387.75L340.48,387.75L343.02,387.75L344.29,381.88L348.1,381.88L349.37,387.75L351.91,387.75L353.19,381.88L354.46,387.75L355.73,387.75L358.27,387.75L359.54,381.88L362.08,381.88L363.35,387.75L364.62,387.75L365.89,381.88L367.16,387.75L368.44,381.88L369.71,387.75L370.98,381.88L372.25,381.88L373.52,387.75L374.79,387.75L376.06,376L377.33,387.75L378.6,387.75L384.96,387.75L386.23,381.88L387.5,387.75L388.77,387.75L390.04,381.88L391.31,387.75L395.12,387.75L396.39,381.88L397.66,387.75L398.94,387.75L400.21,381.88L401.48,387.75L404.02,387.75L405.29,381.88L406.56,387.75L407.83,381.88L409.1,387.75L410.37,387.75L418,387.75L419.27,381.88L420.54,387.75L421.81,387.75L423.08,381.88L424.35,387.75L425.62,387.75L426.89,381.88L428.16,381.88L429.44,387.75L431.98,387.75L433.25,381.88L434.52,381.88L435.79,387.75L437.06,393.63L438.33,381.88L439.6,387.75L440.87,387.75L445.96,387.75L447.23,393.63L448.5,393.63L449.77,381.88L452.31,393.63L453.58,381.88L454.85,393.63L456.12,393.63L457.39,393.63L458.66,381.88L461.21,393.63L462.48,387.75L463.75,393.63L465.02,393.63L466.29,393.63L467.56,387.75L468.83,393.63L470.1,387.75L471.37,387.75L472.64,393.63L473.91,387.75L475.19,393.63L476.46,393.63L477.73,387.75L482.81,387.75L484.08,393.63L485.35,387.75L486.62,393.63L487.89,387.75L489.16,393.63L490.44,393.63L491.71,387.75L492.98,387.75L494.25,393.63L498.06,393.63L499.33,387.75L500.6,387.75L501.87,381.88L504.41,393.63L505.69,393.63L506.96,393.63L508.23,387.75L509.5,393.63L510.77,393.63L512.04,381.88L513.31,387.75L517.12,387.75L518.39,393.63L523.48,393.63L524.75,387.75L526.02,393.63L527.29,393.63L528.56,387.75L529.83,393.63L531.1,387.75L532.37,393.63L533.64,387.75L534.91,393.63L536.19,387.75L537.46,393.63L538.73,387.75L540,393.63L541.27,399.5L542.54,393.63L543.81,387.75L545.08,393.63L546.35,387.75L547.62,393.63L548.89,387.75L550.16,393.63L551.44,393.63" style="vector-effect: none; fill: none; stroke: rgb(231, 41, 138); stroke-opacity: 1; stroke-width: 1.5px; opacity: 1;"/></g><g class="points"/><g class="text"/></g><g class="trace scatter traceaee13f" style="stroke-miterlimit: 2; opacity: 1;"><g class="fills"/><g class="errorbars"/><g class="lines"><path class="js-line" d="M1.16,111.63L2.44,370.13L3.71,358.38L4.98,364.25L6.25,364.25L7.52,370.13L8.79,364.25L11.33,364.25L12.6,370.13L16.41,370.13L17.69,376L18.96,370.13L20.23,370.13L21.5,358.38L22.77,358.38L24.04,364.25L25.31,358.38L26.58,364.25L27.85,358.38L29.12,364.25L30.39,364.25L32.94,364.25L34.21,370.13L35.48,364.25L36.75,364.25L40.56,364.25L41.83,370.13L45.64,370.13L46.91,376L48.19,370.13L49.46,376L52,376L53.27,381.88L54.54,376L55.81,376L58.35,376L59.62,381.88L60.89,387.75L62.16,376L63.44,381.88L64.71,381.88L65.98,381.88L67.25,387.75L68.52,381.88L69.79,387.75L71.06,381.88L72.33,381.88L73.6,387.75L74.87,387.75L76.14,387.75L77.41,393.63L78.69,387.75L79.96,387.75L85.04,387.75L86.31,393.63L87.58,381.88L88.85,387.75L97.75,387.75L99.02,393.63L120.62,393.63L121.89,399.5L124.44,387.75L125.71,393.63L128.25,393.63L129.52,387.75L130.79,387.75L132.06,393.63L133.33,399.5L134.6,399.5L137.14,399.5L138.41,405.38L139.69,399.5L140.96,399.5L143.5,399.5L144.77,393.63L146.04,399.5L147.31,399.5L151.12,399.5L152.39,387.75L154.94,399.5L156.21,393.63L157.48,393.63L158.75,399.5L160.02,405.38L161.29,399.5L163.83,399.5L165.1,393.63L166.37,405.38L167.64,405.38L168.91,399.5L170.19,399.5L172.73,399.5L174,393.63L176.54,405.38L177.81,399.5L179.08,399.5L180.35,393.63L181.62,399.5L182.89,399.5L184.16,405.38L185.44,399.5L189.25,399.5L190.52,405.38L191.79,399.5L193.06,405.38L194.33,393.63L195.6,405.38L196.87,393.63L198.14,405.38L199.41,405.38L200.69,399.5L201.96,405.38L203.23,399.5L204.5,399.5L205.77,393.63L207.04,399.5L208.31,393.63L209.58,405.38L210.85,399.5L212.12,405.38L213.39,393.63L214.66,405.38L215.94,405.38L217.21,399.5L218.48,399.5L219.75,399.5L221.02,393.63L222.29,399.5L223.56,393.63L224.83,399.5L226.1,393.63L229.91,393.63L231.19,399.5L233.73,399.5L235,405.38L236.27,405.38L237.54,393.63L238.81,393.63L240.08,405.38L241.35,399.5L242.62,399.5L243.89,393.63L245.16,393.63L246.44,393.63L247.71,399.5L248.98,393.63L250.25,399.5L252.79,399.5L254.06,393.63L260.41,393.63L261.69,405.38L262.96,393.63L264.23,405.38L265.5,393.63L266.77,393.63L271.85,393.63L273.12,399.5L274.39,393.63L275.66,393.63L279.48,393.63L280.75,399.5L282.02,393.63L283.29,393.63L290.91,393.63L292.19,399.5L293.46,393.63L294.73,393.63L296,393.63L297.27,399.5L298.54,393.63L299.81,399.5L301.08,393.63L302.35,393.63L303.62,393.63L304.89,399.5L306.16,399.5L307.44,393.63L308.71,399.5L309.98,399.5L311.25,393.63L312.52,393.63L313.79,393.63L315.06,387.75L317.6,399.5L318.87,387.75L320.14,387.75L321.41,399.5L322.69,387.75L323.96,393.63L327.77,393.63L329.04,399.5L330.31,393.63L331.58,393.63L332.85,387.75L334.12,393.63L335.39,399.5L336.66,393.63L341.75,393.63L343.02,399.5L344.29,387.75L345.56,393.63L346.83,387.75L348.1,393.63L351.91,393.63L353.19,387.75L354.46,393.63L355.73,393.63L358.27,393.63L359.54,387.75L360.81,387.75L362.08,393.63L364.62,393.63L365.89,387.75L367.16,399.5L368.44,387.75L369.71,393.63L370.98,387.75L372.25,387.75L373.52,393.63L374.79,393.63L376.06,387.75L377.33,393.63L378.6,393.63L379.87,393.63L381.14,399.5L382.41,393.63L383.69,393.63L384.96,393.63L386.23,387.75L387.5,393.63L388.77,393.63L390.04,387.75L391.31,393.63L395.12,393.63L396.39,387.75L397.66,393.63L398.94,393.63L400.21,387.75L401.48,393.63L402.75,399.5L404.02,393.63L412.91,393.63L414.19,399.5L415.46,393.63L416.73,399.5L418,399.5L419.27,393.63L420.54,399.5L421.81,393.63L423.08,387.75L424.35,393.63L428.16,393.63L429.44,399.5L430.71,399.5L431.98,393.63L433.25,393.63L434.52,387.75L437.06,399.5L438.33,393.63L439.6,399.5L440.87,393.63L442.14,399.5L443.41,399.5L444.69,393.63L445.96,393.63L447.23,399.5L448.5,399.5L449.77,393.63L451.04,393.63L452.31,399.5L453.58,393.63L454.85,399.5L456.12,393.63L457.39,399.5L458.66,393.63L459.94,393.63L461.21,399.5L462.48,393.63L463.75,399.5L466.29,399.5L467.56,393.63L468.83,399.5L470.1,393.63L471.37,393.63L472.64,399.5L473.91,393.63L475.19,405.38L477.73,393.63L479,393.63L482.81,393.63L484.08,399.5L485.35,393.63L486.62,399.5L487.89,393.63L489.16,399.5L490.44,399.5L491.71,393.63L492.98,393.63L494.25,399.5L495.52,399.5L496.79,405.38L498.06,399.5L499.33,387.75L500.6,381.88L501.87,393.63L503.14,399.5L504.41,399.5L510.77,399.5L512.04,393.63L517.12,393.63L518.39,399.5L519.66,405.38L520.94,393.63L523.48,405.38L524.75,393.63L527.29,405.38L528.56,393.63L529.83,399.5L531.1,399.5L532.37,405.38L533.64,399.5L534.91,405.38L536.19,393.63L537.46,405.38L538.73,399.5L540,399.5L541.27,405.38L542.54,399.5L543.81,399.5L545.08,405.38L546.35,399.5L548.89,399.5L550.16,405.38L551.44,399.5" style="vector-effect: none; fill: none; stroke: rgb(231, 41, 138); stroke-opacity: 1; stroke-width: 1.5px; opacity: 1;"/></g><g class="points"/><g class="text"/></g><g class="trace scatter tracea15834" style="stroke-miterlimit: 2; opacity: 1;"><g class="fills"/><g class="errorbars"/><g class="lines"><path class="js-line" d="M1.16,117.5L2.44,358.38L3.71,352.5L4.98,352.5L6.25,358.38L7.52,358.38L8.79,352.5L11.33,364.25L12.6,358.38L16.41,358.38L17.69,370.13L18.96,358.38L20.23,358.38L22.77,346.63L24.04,358.38L25.31,346.63L26.58,358.38L27.85,352.5L29.12,358.38L30.39,358.38L31.66,352.5L32.94,352.5L34.21,364.25L35.48,352.5L36.75,358.38L43.1,358.38L44.37,364.25L45.64,364.25L46.91,370.13L48.19,364.25L49.46,370.13L50.73,370.13L52,364.25L53.27,376L54.54,364.25L55.81,370.13L57.08,370.13L58.35,370.13L59.62,376L60.89,376L62.16,370.13L64.71,370.13L65.98,376L67.25,381.88L68.52,376L69.79,381.88L71.06,370.13L72.33,376L73.6,376L76.14,376L77.41,381.88L78.69,376L79.96,381.88L81.23,376L82.5,381.88L83.77,381.88L85.04,376L86.31,387.75L87.58,381.88L106.64,381.88L107.91,387.75L109.19,381.88L110.46,387.75L111.73,387.75L113,381.88L114.27,387.75L115.54,387.75L120.62,387.75L121.89,393.63L123.16,387.75L124.44,387.75L134.6,387.75L135.87,381.88L138.41,393.63L139.69,393.63L140.96,387.75L142.23,387.75L144.77,387.75L146.04,393.63L147.31,393.63L148.58,387.75L151.12,387.75L152.39,381.88L153.66,387.75L154.94,387.75L160.02,387.75L161.29,393.63L162.56,387.75L163.83,387.75L165.1,387.75L166.37,393.63L167.64,393.63L168.91,387.75L170.19,393.63L171.46,387.75L172.73,393.63L174,387.75L175.27,387.75L176.54,393.63L177.81,387.75L179.08,387.75L180.35,381.88L181.62,393.63L184.16,393.63L185.44,387.75L189.25,387.75L190.52,393.63L191.79,387.75L193.06,393.63L194.33,387.75L195.6,393.63L196.87,387.75L198.14,393.63L199.41,393.63L200.69,387.75L201.96,393.63L203.23,387.75L204.5,393.63L205.77,387.75L208.31,387.75L209.58,393.63L210.85,387.75L212.12,393.63L213.39,387.75L214.66,393.63L217.21,393.63L218.48,387.75L219.75,393.63L221.02,387.75L233.73,387.75L235,393.63L236.27,393.63L237.54,387.75L238.81,387.75L240.08,393.63L241.35,393.63L242.62,387.75L247.71,387.75L248.98,381.88L250.25,393.63L251.52,387.75L256.6,387.75L257.87,381.88L259.14,387.75L260.41,381.88L261.69,393.63L262.96,387.75L264.23,393.63L265.5,381.88L266.77,387.75L268.04,381.88L270.58,381.88L271.85,387.75L273.12,393.63L274.39,381.88L279.48,381.88L280.75,387.75L282.02,381.88L283.29,381.88L290.91,381.88L292.19,387.75L293.46,381.88L294.73,381.88L296,381.88L297.27,387.75L298.54,381.88L299.81,387.75L301.08,381.88L302.35,381.88L303.62,381.88L304.89,387.75L306.16,387.75L307.44,381.88L308.71,387.75L309.98,387.75L311.25,381.88L312.52,381.88L316.33,381.88L317.6,387.75L320.14,376L321.41,387.75L322.69,381.88L323.96,387.75L325.23,381.88L326.5,381.88L327.77,381.88L329.04,387.75L331.58,376L332.85,381.88L334.12,387.75L335.39,381.88L339.21,381.88L340.48,387.75L343.02,387.75L344.29,376L345.56,381.88L346.83,381.88L348.1,381.88L349.37,387.75L351.91,387.75L353.19,381.88L354.46,387.75L355.73,387.75L358.27,387.75L359.54,381.88L362.08,381.88L363.35,387.75L365.89,376L367.16,387.75L368.44,381.88L369.71,387.75L370.98,381.88L372.25,381.88L373.52,387.75L374.79,387.75L376.06,381.88L377.33,387.75L378.6,387.75L379.87,381.88L381.14,387.75L382.41,387.75L384.96,387.75L386.23,381.88L387.5,387.75L388.77,387.75L390.04,381.88L391.31,387.75L395.12,387.75L396.39,381.88L397.66,387.75L398.94,387.75L400.21,381.88L401.48,387.75L404.02,387.75L405.29,381.88L406.56,387.75L407.83,381.88L409.1,387.75L410.37,387.75L418,387.75L419.27,381.88L420.54,387.75L421.81,387.75L423.08,381.88L424.35,387.75L425.62,387.75L426.89,381.88L428.16,381.88L429.44,387.75L431.98,387.75L433.25,381.88L434.52,376L435.79,387.75L437.06,387.75L438.33,381.88L439.6,387.75L440.87,381.88L442.14,387.75L443.41,387.75L444.69,381.88L445.96,381.88L447.23,387.75L448.5,387.75L449.77,381.88L451.04,381.88L452.31,387.75L453.58,381.88L454.85,387.75L456.12,387.75L457.39,387.75L458.66,381.88L459.94,381.88L461.21,387.75L462.48,381.88L463.75,387.75L466.29,387.75L467.56,381.88L468.83,387.75L470.1,381.88L471.37,381.88L472.64,387.75L473.91,381.88L475.19,387.75L476.46,387.75L477.73,381.88L482.81,381.88L484.08,387.75L485.35,381.88L486.62,387.75L487.89,381.88L489.16,387.75L490.44,387.75L491.71,381.88L492.98,381.88L494.25,387.75L498.06,387.75L499.33,381.88L501.87,381.88L503.14,387.75L506.96,387.75L508.23,381.88L509.5,387.75L510.77,387.75L512.04,381.88L513.31,381.88L517.12,381.88L518.39,387.75L519.66,387.75L520.94,381.88L522.21,387.75L523.48,387.75L524.75,381.88L526.02,387.75L527.29,387.75L528.56,381.88L529.83,387.75L531.1,381.88L532.37,387.75L533.64,381.88L534.91,387.75L536.19,381.88L537.46,393.63L538.73,387.75L540,381.88L541.27,387.75L542.54,381.88L543.81,381.88L545.08,387.75L546.35,381.88L547.62,387.75L548.89,381.88L550.16,387.75L551.44,381.88" style="vector-effect: none; fill: none; stroke: rgb(231, 41, 138); stroke-opacity: 1; stroke-width: 1.5px; opacity: 1;"/></g><g class="points"/><g class="text"/></g></g></g></g><path class="xlines-above crisp" d="M0,0" style="fill: none;"/><path class="ylines-above crisp" d="M0,0" style="fill: none;"/><g class="overlines-above"/><g class="xaxislayer-above"><g class="xtick"><text text-anchor="middle" x="0" y="489" transform="translate(35,0)" style="font-family: 'Open Sans', verdana, arial, sans-serif; font-size: 8px; fill: rgb(0, 0, 0); fill-opacity: 1; white-space: pre; opacity: 1;">0</text></g><g class="xtick"><text text-anchor="middle" x="0" y="489" style="font-family: 'Open Sans', verdana, arial, sans-serif; font-size: 8px; fill: rgb(0, 0, 0); fill-opacity: 1; white-space: pre; opacity: 1;" transform="translate(96,0)">8</text></g><g class="xtick"><text text-anchor="middle" x="0" y="489" style="font-family: 'Open Sans', verdana, arial, sans-serif; font-size: 8px; fill: rgb(0, 0, 0); fill-opacity: 1; white-space: pre; opacity: 1;" transform="translate(157,0)">16</text></g><g class="xtick"><text text-anchor="middle" x="0" y="489" style="font-family: 'Open Sans', verdana, arial, sans-serif; font-size: 8px; fill: rgb(0, 0, 0); fill-opacity: 1; white-space: pre; opacity: 1;" transform="translate(218,0)">24</text></g><g class="xtick"><text text-anchor="middle" x="0" y="489" style="font-family: 'Open Sans', verdana, arial, sans-serif; font-size: 8px; fill: rgb(0, 0, 0); fill-opacity: 1; white-space: pre; opacity: 1;" transform="translate(279,0)">32</text></g><g class="xtick"><text text-anchor="middle" x="0" y="489" style="font-family: 'Open Sans', verdana, arial, sans-serif; font-size: 8px; fill: rgb(0, 0, 0); fill-opacity: 1; white-space: pre; opacity: 1;" transform="translate(340,0)">40</text></g><g class="xtick"><text text-anchor="middle" x="0" y="489" style="font-family: 'Open Sans', verdana, arial, sans-serif; font-size: 8px; fill: rgb(0, 0, 0); fill-opacity: 1; white-space: pre; opacity: 1;" transform="translate(401,0)">48</text></g><g class="xtick"><text text-anchor="middle" x="0" y="489" style="font-family: 'Open Sans', verdana, arial, sans-serif; font-size: 8px; fill: rgb(0, 0, 0); fill-opacity: 1; white-space: pre; opacity: 1;" transform="translate(462,0)">56</text></g><g class="xtick"><text text-anchor="middle" x="0" y="489" style="font-family: 'Open Sans', verdana, arial, sans-serif; font-size: 8px; fill: rgb(0, 0, 0); fill-opacity: 1; white-space: pre; opacity: 1;" transform="translate(523,0)">64</text></g><g class="xtick"><text text-anchor="middle" x="0" y="489" style="font-family: 'Open Sans', verdana, arial, sans-serif; font-size: 8px; fill: rgb(0, 0, 0); fill-opacity: 1; white-space: pre; opacity: 1;" transform="translate(584,0)">72</text></g></g><g class="yaxislayer-above"><g class="ytick"><text text-anchor="end" x="34" y="2.8" transform="translate(0,480)" style="font-family: 'Open Sans', verdana, arial, sans-serif; font-size: 8px; fill: rgb(0, 0, 0); fill-opacity: 1; white-space: pre; opacity: 1;">0</text></g><g class="ytick"><text text-anchor="end" x="34" y="2.8" style="font-family: 'Open Sans', verdana, arial, sans-serif; font-size: 8px; fill: rgb(0, 0, 0); fill-opacity: 1; white-space: pre; opacity: 1;" transform="translate(0,415.38)">0.011</text></g><g class="ytick"><text text-anchor="end" x="34" y="2.8" style="font-family: 'Open Sans', verdana, arial, sans-serif; font-size: 8px; fill: rgb(0, 0, 0); fill-opacity: 1; white-space: pre; opacity: 1;" transform="translate(0,350.75)">0.022</text></g><g class="ytick"><text text-anchor="end" x="34" y="2.8" style="font-family: 'Open Sans', verdana, arial, sans-serif; font-size: 8px; fill: rgb(0, 0, 0); fill-opacity: 1; white-space: pre; opacity: 1;" transform="translate(0,286.13)">0.033</text></g><g class="ytick"><text text-anchor="end" x="34" y="2.8" style="font-family: 'Open Sans', verdana, arial, sans-serif; font-size: 8px; fill: rgb(0, 0, 0); fill-opacity: 1; white-space: pre; opacity: 1;" transform="translate(0,221.5)">0.044</text></g><g class="ytick"><text text-anchor="end" x="34" y="2.8" style="font-family: 'Open Sans', verdana, arial, sans-serif; font-size: 8px; fill: rgb(0, 0, 0); fill-opacity: 1; white-space: pre; opacity: 1;" transform="translate(0,156.88)">0.055</text></g><g class="ytick"><text text-anchor="end" x="34" y="2.8" style="font-family: 'Open Sans', verdana, arial, sans-serif; font-size: 8px; fill: rgb(0, 0, 0); fill-opacity: 1; white-space: pre; opacity: 1;" transform="translate(0,92.25)">0.066</text></g><g class="ytick"><text text-anchor="end" x="34" y="2.8" style="font-family: 'Open Sans', verdana, arial, sans-serif; font-size: 8px; fill: rgb(0, 0, 0); fill-opacity: 1; white-space: pre; opacity: 1;" transform="translate(0,27.63)">0.077</text></g></g><g class="overaxes-above"/></g></g><g class="polarlayer"/><g class="smithlayer"/><g class="ternarylayer"/><g class="geolayer"/><g class="funnelarealayer"/><g class="pielayer"/><g class="iciclelayer"/><g class="treemaplayer"/><g class="sunburstlayer"/><g class="glimages"/><defs id="topdefs-0c30f8"><g class="clips"/><clipPath id="legend0c30f8"><rect width="105" height="58" x="0" y="0"/></clipPath></defs><g class="layer-above"><g class="imagelayer"/><g class="shapelayer"/></g><g class="infolayer"><g class="legend" pointer-events="all" transform="translate(594.98,10)"><rect class="bg" shape-rendering="crispEdges" width="105" height="58" x="0" y="0" style="stroke: rgb(68, 68, 68); stroke-opacity: 1; fill: rgb(255, 255, 255); fill-opacity: 1; stroke-width: 0px;"/><g class="scrollbox" transform="" clip-path="url(#legend0c30f8)"><g class="groups" transform=""><g class="traces" transform="translate(0,14.5)" style="opacity: 1;"><text class="legendtext" text-anchor="start" x="40" y="3.12" style="font-family: 'Open Sans', verdana, arial, sans-serif; font-size: 8px; fill: rgb(0, 0, 0); fill-opacity: 1; white-space: pre;">Spent media Ct</text><g class="layers" style="opacity: 1;"><g class="legendfill"/><g class="legendlines"><path class="js-line" d="M5,0h30" style="fill: none; stroke: rgb(27, 158, 119); stroke-opacity: 1; stroke-width: 1.5px;"/></g><g class="legendsymbols"><g class="legendpoints"/></g></g><rect class="legendtoggle" x="0" y="-9.5" width="99.65625" height="19" style="fill: rgb(0, 0, 0); fill-opacity: 0;"/></g></g><g class="groups" transform="translate(0,10)"><g class="traces" transform="translate(0,33.5)" style="opacity: 1;"><text class="legendtext" text-anchor="start" x="40" y="3.12" style="font-family: 'Open Sans', verdana, arial, sans-serif; font-size: 8px; fill: rgb(0, 0, 0); fill-opacity: 1; white-space: pre;">Spent media Oa</text><g class="layers" style="opacity: 1;"><g class="legendfill"/><g class="legendlines"><path class="js-line" d="M5,0h30" style="fill: none; stroke: rgb(231, 41, 138); stroke-opacity: 1; stroke-width: 1.5px;"/></g><g class="legendsymbols"><g class="legendpoints"/></g></g><rect class="legendtoggle" x="0" y="-9.5" width="99.65625" height="19" style="fill: rgb(0, 0, 0); fill-opacity: 0;"/></g></g></g><rect class="scrollbar" rx="20" ry="3" width="0" height="0" x="0" y="0" style="fill: rgb(128, 139, 164); fill-opacity: 1;"/></g><g class="g-gtitle"><text class="gtitle" x="35" y="5" text-anchor="start" dy="0em" style="opacity: 1; font-family: 'Open Sans', verdana, arial, sans-serif; font-size: 8px; fill: rgb(0, 0, 0); fill-opacity: 1; white-space: pre;"><tspan style="font-style:italic">O. anthropi</tspan></text></g><g class="g-xtitle"><text class="xtitle" x="309.5" y="496.1" text-anchor="middle" style="opacity: 1; font-family: 'Open Sans', verdana, arial, sans-serif; font-size: 8px; fill: rgb(0, 0, 0); fill-opacity: 1; white-space: pre;">Time [h]</text></g><g class="g-ytitle"><text class="ytitle" transform="rotate(-90,11.2625,245)" x="11.2625" y="245" text-anchor="middle" style="opacity: 1; font-family: 'Open Sans', verdana, arial, sans-serif; font-size: 8px; fill: rgb(0, 0, 0); fill-opacity: 1; white-space: pre;">OD</text></g></g></svg>