<svg class="main-svg" xmlns="http://www.w3.org/2000/svg" xmlns:xlink="http://www.w3.org/1999/xlink" width="150" height="150" style="" viewBox="0 0 150 150"><rect x="0" y="0" width="150" height="150" style="fill: rgb(255, 255, 255); fill-opacity: 1;"/><defs id="defs-80dfcc"><g class="clips"><clipPath id="clip80dfccxyplot" class="plotclip"><rect width="114" height="117"/></clipPath><clipPath class="axesclip" id="clip80dfccx"><rect x="30" y="0" width="114" height="150"/></clipPath><clipPath class="axesclip" id="clip80dfccy"><rect x="0" y="8" width="150" height="117"/></clipPath><clipPath class="axesclip" id="clip80dfccxy"><rect x="30" y="8" width="114" height="117"/></clipPath></g><g class="gradients"/><g class="patterns"/></defs><g class="bglayer"/><g class="layer-below"><g class="imagelayer"/><g class="shapelayer"/></g><g class="cartesianlayer"><g class="subplot xy"><g class="layer-subplot"><g class="shapelayer"/><g class="imagelayer"/></g><g class="minor-gridlayer"><g class="x"/><g class="y"/></g><g class="gridlayer"><g class="x"><path class="xgrid crisp" transform="translate(48.96,0)" d="M0,8v117" style="stroke: rgb(0, 0, 0); stroke-opacity: 1; stroke-width: 0.5px;"/><path class="xgrid crisp" transform="translate(67.92,0)" d="M0,8v117" style="stroke: rgb(0, 0, 0); stroke-opacity: 1; stroke-width: 0.5px;"/><path class="xgrid crisp" transform="translate(86.88,0)" d="M0,8v117" style="stroke: rgb(0, 0, 0); stroke-opacity: 1; stroke-width: 0.5px;"/><path class="xgrid crisp" transform="translate(105.84,0)" d="M0,8v117" style="stroke: rgb(0, 0, 0); stroke-opacity: 1; stroke-width: 0.5px;"/><path class="xgrid crisp" transform="translate(124.8,0)" d="M0,8v117" style="stroke: rgb(0, 0, 0); stroke-opacity: 1; stroke-width: 0.5px;"/></g><g class="y"><path class="ygrid crisp" transform="translate(0,95.75)" d="M30,0h114" style="stroke: rgb(0, 0, 0); stroke-opacity: 1; stroke-width: 0.5px;"/><path class="ygrid crisp" transform="translate(0,66.5)" d="M30,0h114" style="stroke: rgb(0, 0, 0); stroke-opacity: 1; stroke-width: 0.5px;"/><path class="ygrid crisp" transform="translate(0,37.25)" d="M30,0h114" style="stroke: rgb(0, 0, 0); stroke-opacity: 1; stroke-width: 0.5px;"/></g></g><g class="zerolinelayer"><path class="xzl zl crisp" transform="translate(30,0)" d="M0,8v117" style="stroke: rgb(0, 0, 0); stroke-opacity: 1; stroke-width: 0.5px;"/><path class="yzl zl crisp" transform="translate(0,125)" d="M30,0h114" style="stroke: rgb(0, 0, 0); stroke-opacity: 1; stroke-width: 0.5px;"/></g><g class="layer-between"><g class="shapelayer"/><g class="imagelayer"/></g><path class="xlines-below"/><path class="ylines-below"/><g class="overlines-below"/><g class="xaxislayer-below"/><g class="yaxislayer-below"/><g class="overaxes-below"/><g class="overplot"><g class="xy" transform="translate(30,8)" clip-path="url(#clip80dfccxyplot)"><g class="scatterlayer mlayer"><g class="trace scatter tracece9464" style="stroke-miterlimit: 2; opacity: 1;"><g class="fills"/><g class="errorbars"/><g class="lines"><path class="js-line" d="M0.24,111.74L1.55,111.15L1.82,111.15L9.19,110.57L9.45,110.27L13.4,109.69L13.67,109.4L14.46,109.4L14.72,109.4L16.04,108.81L16.3,108.52L17.88,108.23L18.14,107.93L18.93,107.93L19.2,107.35L19.99,107.35L20.25,107.06L21.3,106.76L21.57,106.18L23.41,105.01L23.67,105.01L27.63,100.04L27.89,99.45L31.58,88.92L31.84,89.21L34.47,80.44L34.74,80.73L40.79,28.08L41.06,38.32L41.58,38.9L41.85,38.02L42.37,38.32L42.64,36.85L42.9,37.73L43.43,37.15L43.69,36.27L43.95,36.56L44.22,34.22L44.48,35.39L44.74,35.1L45.01,34.22L45.27,34.81L45.8,34.52L46.06,33.93L46.32,34.52L46.59,33.64L46.85,33.05L47.11,33.93L47.38,33.05L47.64,32.76L48.17,33.35L48.43,32.18L48.69,31.3L48.96,32.76L49.22,31.59L49.48,31.59L50.01,32.76L50.27,32.47L50.54,32.47L51.33,31.88L51.59,32.47L52.12,31.88L52.38,32.47L52.64,32.18L52.91,31.88L53.17,32.47L53.43,32.47L54.49,30.71L54.75,31.01L55.28,31.59L55.54,30.71L55.8,31.01L56.07,30.71L56.33,29.84L56.59,29.84L56.86,30.71L57.91,30.13L58.17,30.42L58.7,30.42L58.96,29.25L59.23,28.96L59.49,30.13L59.75,30.13L60.02,29.25L61.07,29.84L61.33,29.54L62.12,27.79L62.39,28.67L62.91,29.54L63.18,28.37L63.97,29.54L64.23,28.37L65.02,28.96L65.28,28.37L65.81,29.25L66.07,27.79L66.86,29.25L67.13,28.37L67.92,28.96L68.18,29.25L68.71,28.96L68.97,29.84L69.23,28.37L69.76,29.54L70.02,28.67L70.81,29.25L71.08,28.37L71.87,28.08L72.13,27.5L73.18,29.25L73.45,27.79L74.24,28.08L74.5,27.79L75.82,28.96L76.08,28.67L76.34,28.08L76.61,28.67L76.87,28.96L77.13,28.08L77.4,28.67L77.66,29.25L78.71,28.67L78.98,28.96L79.77,29.54L80.03,28.96L80.82,29.54L81.08,28.96L81.87,29.54L82.14,28.67L82.4,29.84L82.93,29.54L83.19,29.54L84.24,29.84L84.51,28.67L84.77,28.67L85.03,29.84L85.3,28.08L85.56,28.96L85.82,29.84L86.61,29.84L86.88,29.84L87.14,30.42L87.4,30.13L87.67,29.54L88.46,30.71L88.72,30.42L89.25,30.13L89.51,30.42L89.77,30.71L90.83,30.13L91.09,30.13L91.88,30.71L92.14,30.42L92.41,30.13L92.67,29.54L93.2,29.84L93.46,30.13L94.51,29.84L94.78,29.84L95.04,30.42L95.57,30.13L95.83,30.13L96.88,29.54L97.15,30.13L98.2,31.01L98.46,30.71L99.52,30.13L99.78,30.71L100.83,30.71L101.1,29.84L101.36,29.25L101.62,30.71L102.41,29.54L102.68,29.84L102.94,30.71L103.47,30.13L103.73,31.01L103.99,30.42L104.52,31.01L104.78,31.01L106.89,31.01L107.15,30.42L108.21,31.59L108.47,31.3L109.52,29.84L109.79,30.13L110.05,30.13L111.89,31.3L112.16,31.3L112.95,30.71L113.21,31.01L113.47,31.3L113.74,30.42L114,30.71" style="vector-effect: none; fill: none; stroke: rgb(140, 86, 75); stroke-opacity: 1; stroke-width: 0.8px; opacity: 1;"/></g><g class="points"/><g class="text"/></g><g class="trace scatter trace7e9434" style="stroke-miterlimit: 2; opacity: 1;"><g class="fills"/><g class="errorbars"/><g class="lines"><path class="js-line" d="M0.24,111.15L1.03,110.27L1.29,110.57L1.55,110.57L10.24,109.98L10.51,109.69L14.46,109.1L14.72,108.81L15.51,108.81L15.77,108.81L16.56,108.23L16.83,108.52L17.09,108.52L18.67,107.64L18.93,107.64L20.51,106.47L20.78,106.76L21.83,105.89L22.09,105.89L22.62,105.59L22.88,105.01L23.15,105.3L23.41,104.72L23.67,104.72L27.63,100.33L27.89,99.74L30.52,93.02L30.79,91.55L32.1,87.46L32.37,88.63L33.42,84.83L33.68,84.53L35.26,79.85L35.53,79.85L41.32,54.11L41.58,56.45L42.64,50.02L42.9,50.31L43.16,49.14L43.43,49.14L43.69,48.26L43.95,48.26L44.22,45.92L44.48,46.8L44.74,46.51L45.01,45.63L45.27,46.22L45.8,45.63L46.06,45.63L48.43,42.71L48.69,42.12L48.96,43L49.22,42.12L49.48,42.12L50.01,42.71L50.27,42.12L50.54,41.83L52.12,40.07L52.38,40.36L55.01,37.73L55.28,38.02L56.59,35.98L56.86,36.27L58.44,35.68L58.7,35.39L59.23,34.22L59.49,34.81L59.75,34.81L60.28,33.93L60.54,34.52L60.81,34.22L62.12,32.18L62.39,32.76L62.65,32.76L62.91,33.35L63.18,32.18L63.44,32.47L63.97,32.76L64.23,31.59L65.02,32.18L65.28,31.59L65.55,32.18L65.81,31.88L66.07,30.42L66.86,31.59L67.13,31.01L67.39,31.01L68.44,31.3L68.71,30.71L68.97,31.3L69.23,30.13L69.5,30.71L69.76,30.71L70.55,30.13L70.81,30.42L72.13,28.67L72.39,29.25L72.66,28.96L72.92,29.84L73.18,29.84L73.45,28.67L74.24,28.96L74.5,28.08L75.29,29.25L75.55,28.96L75.82,28.96L76.34,28.08L76.61,28.96L76.87,29.25L77.13,28.08L77.4,28.67L77.66,29.25L78.71,28.67L78.98,28.67L79.77,28.96L80.03,28.37L80.82,28.67L81.08,28.37L82.14,27.5L82.4,28.67L82.66,27.5L83.19,28.37L83.45,28.37L83.72,28.96L84.24,28.37L84.51,27.2L84.77,27.2L85.03,28.67L85.3,26.62L85.82,28.37L86.09,28.08L87.14,28.96L87.4,28.67L87.67,28.08L88.46,29.25L88.72,28.67L89.25,28.37L89.51,28.67L89.77,28.96L90.83,28.37L91.09,28.67L91.88,28.96L92.14,28.67L92.41,28.67L92.67,27.79L94.25,28.67L94.51,28.08L96.62,28.08L96.88,27.5L97.41,28.67L97.67,28.37L97.94,28.37L98.99,29.25L99.25,28.67L99.52,28.37L99.78,28.67L100.04,28.96L100.83,29.25L101.1,28.08L101.36,27.5L101.62,29.25L102.41,27.79L102.68,28.37L102.94,28.96L103.2,28.96L103.47,28.08L103.73,29.25L104.26,28.96L104.52,29.25L105.05,29.54L105.31,30.13L105.57,29.25L106.1,29.84L106.36,29.54L106.63,29.84L106.89,29.25L107.15,28.37L108.21,29.84L108.47,29.84L109.79,28.37L110.05,28.67L112.16,30.13L112.42,29.25L113.47,29.84L113.74,29.25L114,29.54" style="vector-effect: none; fill: none; stroke: rgb(148, 103, 189); stroke-opacity: 1; stroke-width: 0.8px; opacity: 1;"/></g><g class="points"/><g class="text"/></g><g class="trace scatter tracea5fdb5" style="stroke-miterlimit: 2; opacity: 1;"><g class="fills"/><g class="errorbars"/><g class="lines"><path class="js-line" d="M0.24,110.57L1.55,109.98L1.82,109.69L10.51,109.1L10.77,108.81L14.72,108.23L14.98,107.93L15.77,107.93L16.04,107.64L17.88,107.06L18.14,106.76L19.99,106.18L20.25,105.89L21.57,105.3L21.83,105.01L23.15,104.42L23.41,104.13L23.67,104.42L23.94,104.13L24.2,103.84L25.52,102.67L25.78,103.25L26.84,101.79L27.1,101.79L28.42,100.62L28.68,100.33L29.21,100.04L29.47,99.45L30.52,98.87L30.79,98.57L32.1,96.23L32.37,96.53L32.63,95.36L33.16,95.06L33.42,94.19L35,93.02L35.26,93.31L36.05,93.89L36.32,93.6L36.58,93.02L37.11,93.31L37.37,93.02L37.63,92.72L41.06,89.8L41.32,88.34L41.58,89.21L42.11,88.63L42.37,88.34L44.22,85.7L44.48,86.58L47.64,82.19L47.9,81.61L48.17,81.9L48.43,81.32L48.69,80.15L48.96,80.44L49.22,79.85L49.48,79.56L51.85,76.05L52.12,75.17L52.64,74.59L52.91,74L54.22,71.66L54.49,70.79L55.28,70.2L55.54,69.91L57.65,66.98L57.91,66.69L58.44,66.11L58.7,65.81L60.02,63.77L60.28,63.47L61.07,62.89L61.33,62.3L61.86,62.01L62.12,60.84L62.91,61.13L63.18,60.26L68.44,54.11L68.71,53.24L68.97,52.94L69.23,50.9L69.76,50.9L70.02,50.02L72.13,47.09L72.39,47.09L73.18,47.39L73.45,46.51L74.5,45.63L74.76,45.92L75.03,45.92L75.82,46.22L76.08,45.63L77.13,44.46L77.4,45.05L78.19,45.63L78.45,45.05L79.5,44.46L79.77,44.75L80.56,43.58L80.82,44.17L81.35,43L81.61,43.58L81.87,43.88L82.4,44.17L82.66,42.71L82.93,43.58L83.45,43L83.72,43.88L84.77,42.12L85.03,43.29L85.3,41.24L85.82,42.71L86.09,42.41L87.14,43.29L87.4,42.71L87.67,41.83L87.93,43L88.19,42.71L88.46,43L88.72,42.71L88.98,42.41L89.25,42.12L89.51,42.71L89.77,43L90.83,42.12L91.09,42.12L91.35,42.41L91.62,41.54L91.88,42.41L92.41,41.83L92.67,41.24L94.51,41.24L94.78,40.95L95.04,41.83L95.57,41.54L95.83,41.83L96.88,40.95L97.15,41.24L97.67,40.95L98.2,41.83L98.46,41.54L99.78,40.95L100.04,41.24L100.83,41.24L101.1,40.66L101.36,39.78L101.62,40.95L101.89,40.95L102.41,39.78L102.68,40.07L102.94,40.95L103.2,40.95L103.47,40.07L103.73,41.24L104.26,40.95L104.52,41.24L104.78,40.66L105.05,40.95L105.31,41.54L105.57,40.66L106.1,41.24L106.36,40.95L106.63,41.24L106.89,40.95L107.15,40.07L108.21,41.24L108.47,40.95L109.79,39.49L110.05,39.49L111.37,40.07L111.63,40.36L112.42,39.49L112.68,40.07L112.95,40.07L113.74,40.07L114,39.49" style="vector-effect: none; fill: none; stroke: rgb(214, 39, 40); stroke-opacity: 1; stroke-width: 0.8px; opacity: 1;"/></g><g class="points"/><g class="text"/></g><g class="trace scatter tracee36173" style="stroke-miterlimit: 2; opacity: 1;"><g class="fills"/><g class="errorbars"/><g class="lines"><path class="js-line" d="M0.24,111.44L1.82,110.57L2.08,110.57L11.82,109.98L12.09,109.69L18.14,109.1L18.41,108.81L18.67,109.1L18.93,108.81L19.2,108.52L19.99,108.81L20.25,108.52L21.04,108.52L21.3,108.52L22.09,108.52L22.36,108.52L24.73,107.93L24.99,107.64L27.89,107.35L28.15,107.06L28.94,107.35L29.21,107.06L31.05,106.76L31.31,106.18L32.1,107.64L32.37,107.06L32.63,106.76L33.95,106.18L34.21,105.89L35,106.76L35.26,106.18L36.05,106.76L36.32,106.18L36.58,105.89L36.84,106.76L37.63,106.47L37.9,107.06L39.21,105.89L39.48,106.18L40.79,105.89L41.06,105.59L41.85,106.18L42.11,105.59L42.9,105.59L43.16,105.59L43.43,105.89L43.69,105.59L43.95,105.3L44.48,105.89L44.74,105.01L45.8,107.35L46.06,105.89L46.32,105.89L46.59,104.72L47.64,106.76L47.9,105.89L48.17,105.01L48.43,105.3L48.69,105.89L49.48,106.47L49.75,105.59L50.01,105.59L50.27,106.47L51.33,106.18L51.59,106.76L51.85,105.59L52.38,106.47L52.64,105.89L53.43,104.72L53.7,105.01L53.96,105.3L55.28,105.89L55.54,105.89L56.59,105.59L56.86,105.59L69.5,105.01L69.76,104.72L70.55,104.72L70.81,104.72L73.71,104.13L73.97,103.84L74.76,104.13L75.03,103.84L79.24,103.25L79.5,102.96L82.4,102.38L82.66,102.08L85.82,101.79L86.09,101.5L87.14,101.79L87.4,101.79L88.98,101.21L89.25,100.91L89.77,100.62L90.04,100.91L90.3,100.91L91.09,100.62L91.35,100.91L92.93,100.04L93.2,100.04L96.88,99.74L97.15,99.45L103.47,99.45L103.73,99.16L104.52,99.74L104.78,99.16L106.89,99.16L107.15,98.87L107.94,98.87L108.21,98.87L108.73,98.57L109,98.87L109.26,98.87L112.42,98.28L112.68,97.99L113.21,98.28L113.47,97.7L113.74,97.99L114,96.82" style="vector-effect: none; fill: none; stroke: rgb(44, 160, 44); stroke-opacity: 1; stroke-width: 0.8px; opacity: 1;"/></g><g class="points"/><g class="text"/></g><g class="trace scatter trace12bc4b" style="stroke-miterlimit: 2; opacity: 1;"><g class="fills"/><g class="errorbars"/><g class="lines"><path class="js-line" d="M0.24,111.44L1.82,110.57L2.08,110.57L26.84,110.86L27.1,111.15L27.89,110.86L28.15,111.15L29.21,110.86L29.47,111.15L51.33,110.86L51.59,111.74L52.38,111.15L52.64,111.44L53.7,111.15L53.96,111.44L55.01,111.15L55.28,111.15L64.76,111.44L65.02,111.74L66.34,111.15L66.6,111.15L67.65,111.74L67.92,111.15L68.97,111.74L69.23,111.44L71.87,111.74L72.13,109.69L72.39,111.74L72.92,111.44L73.18,111.74L75.82,111.44L76.08,110.57L76.61,112.03L76.87,111.74L77.13,111.15L78.45,111.74L78.71,111.74L78.98,110.57L79.24,111.74L79.5,111.74L80.56,110.57L80.82,110.86L81.08,111.74L82.14,111.74L82.4,110.86L82.66,110.27L82.93,111.74L83.45,111.74L83.72,110.86L84.51,111.74L84.77,111.74L87.93,112.03L88.19,110.86L88.72,111.74L88.98,110.27L89.25,110.27L89.51,111.44L89.77,109.98L90.04,111.74L90.3,111.44L90.56,111.15L90.83,111.74L91.09,111.74L92.41,111.15L92.67,110.57L92.93,110.27L93.2,111.74L93.99,111.74L94.25,110.86L95.04,111.74L95.3,109.4L95.57,111.74L96.09,111.44L96.36,111.74L96.88,109.98L97.15,111.15L97.41,111.74L98.46,111.44L98.73,111.44L99.52,111.44L99.78,111.44L100.83,111.74L101.1,111.44L102.15,111.74L102.41,111.74L114,111.74" style="vector-effect: none; fill: none; stroke: rgb(255, 127, 14); stroke-opacity: 1; stroke-width: 0.8px; opacity: 1;"/></g><g class="points"/><g class="text"/></g><g class="trace scatter trace93a972" style="stroke-miterlimit: 2; opacity: 1;"><g class="fills"/><g class="errorbars"/><g class="lines"><path class="js-line" d="M0.24,112.03L1.55,111.44L1.82,111.44L10.77,111.74L11.03,112.03L17.09,112.32L17.35,112.61L18.41,112.03L18.67,112.32L19.72,112.61L19.99,112.61L28.68,113.2L28.94,113.49L29.73,113.49L30,113.49L31.05,113.2L31.31,113.49L32.1,113.49L32.37,113.49L33.16,113.78L33.42,113.49L34.47,113.78L34.74,113.78L59.75,114.08L60.02,114.37L61.07,114.08L61.33,114.08L114,114.37" style="vector-effect: none; fill: none; stroke: rgb(31, 119, 180); stroke-opacity: 1; stroke-width: 0.8px; opacity: 1;"/></g><g class="points"/><g class="text"/></g><g class="trace scatter trace7c8277" style="stroke-miterlimit: 2; opacity: 1;"><g class="fills"/><g class="errorbars"/><g class="lines"><path class="js-line" d="M0.24,112.03L3.13,111.44L3.4,111.15L10.24,110.57L10.51,110.27L13.67,109.69L13.93,109.4L16.56,108.81L16.83,108.52L18.14,108.23L18.41,107.64L19.2,107.64L19.46,107.06L19.72,107.35L19.99,107.06L20.25,106.47L20.51,107.06L20.78,106.76L21.04,106.18L21.3,106.47L21.57,106.18L21.83,105.59L22.09,106.18L22.36,105.89L22.62,105.3L24.99,102.96L25.26,103.25L26.31,101.79L26.57,101.5L28.94,97.7L29.21,97.7L31.84,91.85L32.1,90.38L32.89,87.46L33.16,86.29L36.32,69.03L36.58,64.06L40.27,23.11L40.53,31.01L41.06,37.73L41.32,36.27L41.58,38.02L43.16,33.93L43.43,34.52L44.22,31.01L44.74,31.88L45.01,31.01L45.27,31.59L45.53,31.01L45.8,30.71L46.32,31.01L47.64,27.5L47.9,27.79L48.17,28.37L48.69,26.03L48.96,27.79L49.48,26.33L49.75,27.5L50.01,27.79L51.33,26.62L51.59,27.2L52.12,26.62L52.38,27.2L52.64,27.2L53.7,26.33L53.96,26.91L54.49,25.45L54.75,25.74L55.01,26.03L55.28,26.33L55.54,25.16L56.07,25.74L56.33,24.57L56.59,24.28L56.86,25.16L57.12,25.16L57.38,24.28L57.65,25.45L58.17,25.16L58.44,25.45L58.7,25.45L58.96,23.99L59.23,23.99L59.49,24.86L59.75,25.16L60.02,23.99L61.07,24.86L61.33,24.28L61.86,23.99L62.12,21.94L62.91,24.57L63.18,23.4L63.97,24.28L64.23,23.11L65.02,23.99L65.28,23.11L65.81,23.99L66.07,22.23L66.86,23.99L67.13,23.11L67.39,23.11L67.65,24.28L68.71,23.69L68.97,24.57L69.23,22.82L69.76,24.28L70.02,23.11L70.81,23.99L71.08,22.52L71.34,23.4L71.87,22.82L72.13,21.64L73.18,23.99L73.45,21.94L74.24,23.11L74.5,22.23L74.76,21.94L75.03,23.11L75.82,23.69L76.08,22.82L76.61,23.4L76.87,23.69L77.13,23.11L77.4,23.4L77.66,24.28L78.98,23.69L79.24,24.57L80.03,23.69L80.29,23.69L81.08,23.11L81.35,23.69L82.14,23.11L82.4,24.28L82.66,23.11L82.93,24.28L83.19,24.57L84.24,24.57L84.51,23.4L85.03,24.86L85.3,22.82L86.35,24.86L86.61,24.86L87.14,25.74L87.4,25.45L87.67,24.86L88.46,26.33L88.72,26.03L88.98,25.45L90.04,25.74L90.3,24.57L91.35,26.03L91.62,25.16L91.88,26.03L92.41,25.74L92.67,24.86L93.46,25.45L93.72,24.86L94.78,25.45L95.04,25.74L96.36,24.86L96.62,25.45L96.88,24.57L97.15,25.45L97.41,25.74L97.94,25.16L98.2,26.03L99.25,25.74L99.52,25.45L100.83,26.62L101.1,25.45L101.36,24.86L101.62,26.33L102.41,25.16L102.68,25.74L102.94,26.33L103.47,25.45L103.73,26.62L103.99,25.74L104.26,26.62L104.52,26.91L105.84,27.79L106.1,27.5L106.89,26.62L107.15,25.45L108.21,27.2L108.47,27.5L109.52,25.74L109.79,25.74L111.37,27.2L111.63,26.62L112.16,27.5L112.42,26.91L112.68,27.2L112.95,26.62L113.21,27.79L113.47,27.79L113.74,26.91L114,27.2" style="vector-effect: none; fill: none; stroke: rgb(140, 86, 75); stroke-opacity: 1; stroke-width: 0.8px; opacity: 1;"/></g><g class="points"/><g class="text"/></g><g class="trace scatter trace36fd48" style="stroke-miterlimit: 2; opacity: 1;"><g class="fills"/><g class="errorbars"/><g class="lines"><path class="js-line" d="M0.24,112.91L1.55,112.32L1.82,112.32L7.61,111.74L7.87,111.44L12.88,110.86L13.14,110.57L15.51,109.98L15.77,109.69L16.56,109.4L16.83,108.81L17.09,109.4L17.62,109.1L17.88,109.1L19.46,108.23L19.72,108.23L20.78,107.35L21.04,107.35L26.31,102.38L26.57,102.38L26.84,102.67L27.1,102.38L27.36,100.91L27.63,101.5L27.89,100.91L28.15,100.04L28.42,100.33L28.68,99.45L32.37,90.68L32.63,88.92L33.68,84.83L33.95,83.95L35.53,80.15L35.79,79.27L36.05,78.97L36.32,77.22L41.06,52.07L41.32,53.53L41.58,53.82L41.85,51.77L43.16,47.68L43.43,47.97L45.01,45.05L45.27,45.63L46.59,43.58L46.85,43.29L48.43,41.54L48.69,40.07L48.96,40.66L49.22,40.07L49.48,39.78L50.01,40.07L50.27,39.49L51.33,38.02L51.59,38.61L52.91,37.15L53.17,37.44L53.43,37.44L53.7,36.56L53.96,36.85L54.22,35.98L55.54,34.22L55.8,34.52L57.91,32.47L58.17,32.47L58.7,32.47L58.96,31.3L59.23,31.01L59.49,31.59L59.75,31.59L60.28,30.42L60.54,31.01L60.81,30.71L61.86,29.54L62.12,28.08L62.91,29.54L63.18,28.37L63.97,28.67L64.23,27.5L65.02,28.08L65.28,27.2L65.81,27.79L66.07,26.33L66.86,27.5L67.13,26.62L67.39,26.33L67.65,27.5L68.71,26.62L68.97,27.2L69.23,25.74L69.76,26.62L70.02,26.03L72.13,23.99L72.39,24.86L72.66,24.28L72.92,25.16L73.18,25.74L73.45,23.99L73.97,24.28L74.24,24.57L74.76,23.69L75.03,24.28L75.29,24.86L76.34,23.69L76.61,24.57L76.87,24.86L77.13,23.99L78.19,25.16L78.45,24.57L78.98,24.28L79.24,25.16L80.03,24.28L80.29,24.28L81.61,23.69L81.87,23.99L82.4,24.28L82.66,23.4L82.93,24.28L83.72,24.86L83.98,24.57L84.24,24.57L84.51,23.4L84.77,23.69L85.03,24.57L85.3,22.82L85.82,24.28L86.09,24.57L87.67,24.57L87.93,25.45L88.98,25.16L89.25,24.86L89.77,25.45L90.04,25.16L90.3,23.99L91.35,25.45L91.62,24.57L91.88,25.45L92.41,25.16L92.67,24.28L93.46,24.86L93.72,24.28L95.04,25.16L95.3,24.86L96.36,24.28L96.62,24.57L96.88,23.69L97.15,24.57L97.41,24.86L97.94,24.57L98.2,25.45L98.73,24.86L98.99,25.74L99.52,24.57L99.78,24.86L100.04,25.45L100.83,25.74L101.1,24.86L101.36,24.28L101.62,25.74L102.41,24.57L102.68,24.86L102.94,25.45L103.47,24.86L103.73,25.74L103.99,24.86L104.26,25.74L104.52,26.03L105.84,26.91L106.1,26.62L106.89,25.45L107.15,24.86L108.21,26.33L108.47,26.33L109,26.62L109.52,24.86L109.79,24.86L111.37,26.03L111.63,25.74L112.16,26.62L112.42,26.03L112.68,26.33L112.95,25.74L113.21,26.91L113.47,26.62L113.74,26.03L114,26.62" style="vector-effect: none; fill: none; stroke: rgb(148, 103, 189); stroke-opacity: 1; stroke-width: 0.8px; opacity: 1;"/></g><g class="points"/><g class="text"/></g><g class="trace scatter tracea362f6" style="stroke-miterlimit: 2; opacity: 1;"><g class="fills"/><g class="errorbars"/><g class="lines"><path class="js-line" d="M0.24,112.61L3.92,112.03L4.19,111.74L4.98,111.74L5.24,111.74L10.24,111.15L10.51,110.86L14.19,110.27L14.46,109.98L16.83,109.4L17.09,109.1L18.93,108.52L19.2,107.64L19.46,108.23L19.72,107.35L19.99,107.64L20.25,107.64L22.09,106.47L22.36,106.47L23.15,105.59L23.41,105.89L23.67,105.59L26.31,103.55L26.57,103.84L27.36,102.96L27.63,103.25L27.89,102.96L28.94,102.67L29.21,101.5L30.79,99.74L31.05,100.33L31.31,100.62L31.58,99.74L32.1,99.16L32.37,98.87L35.79,94.77L36.05,95.65L36.58,93.89L37.11,94.19L37.37,94.19L42.9,87.75L43.16,87.17L46.32,82.78L46.59,81.9L48.17,79.56L48.43,78.68L49.75,76.63L50.01,76.34L52.91,71.66L53.17,71.66L53.96,70.2L54.22,69.32L57.38,63.47L57.65,63.77L60.28,59.38L60.54,59.38L61.86,57.62L62.12,56.16L62.65,56.75L62.91,56.45L63.18,55.87L65.55,53.53L65.81,54.11L66.86,52.36L67.13,51.19L68.97,49.43L69.23,47.97L69.76,48.85L70.02,47.68L70.81,47.68L71.08,46.8L71.34,47.09L71.6,46.8L71.87,46.51L72.13,45.63L72.66,45.92L72.92,47.09L73.18,47.09L73.45,45.05L73.97,45.92L74.24,45.63L74.5,45.05L75.03,45.34L75.29,45.92L76.34,43.88L76.61,44.75L77.4,44.46L77.66,45.05L78.98,43.88L79.24,44.46L80.29,43.58L80.56,43.58L80.82,43.88L81.08,42.71L81.87,43.29L82.14,42.41L82.4,43.29L82.66,41.83L82.93,42.71L83.19,42.71L83.72,43L83.98,42.71L84.24,42.41L84.77,41.54L85.03,42.71L85.3,40.66L85.82,42.12L86.09,41.83L87.14,42.71L87.4,42.12L87.67,41.83L87.93,42.41L88.19,42.71L88.98,42.12L89.25,41.83L90.04,42.41L90.3,41.24L91.35,41.83L91.62,41.24L91.88,42.12L92.41,41.54L92.67,40.66L93.99,41.24L94.25,41.24L94.51,40.66L95.04,41.24L95.3,40.95L96.62,40.95L96.88,40.36L97.41,41.83L97.67,41.24L97.94,41.24L98.2,42.12L98.73,41.54L98.99,42.12L99.78,41.24L100.04,41.54L100.83,41.83L101.1,40.66L101.36,40.07L101.62,41.83L102.41,40.07L102.68,40.66L102.94,41.54L103.47,40.66L103.73,41.83L103.99,41.24L104.52,41.83L104.78,41.83L105.84,42.41L106.1,42.12L106.89,41.54L107.15,40.36L108.21,42.12L108.47,42.12L109.52,40.07L109.79,40.36L111.37,41.54L111.63,41.24L112.16,41.83L112.42,40.95L113.21,42.12L113.47,41.83L113.74,41.24L114,41.54" style="vector-effect: none; fill: none; stroke: rgb(214, 39, 40); stroke-opacity: 1; stroke-width: 0.8px; opacity: 1;"/></g><g class="points"/><g class="text"/></g><g class="trace scatter trace118e0e" style="stroke-miterlimit: 2; opacity: 1;"><g class="fills"/><g class="errorbars"/><g class="lines"><path class="js-line" d="M0.24,113.49L3.92,112.91L4.19,112.61L4.71,112.91L4.98,112.61L5.24,112.61L11.3,112.03L11.56,111.74L15.25,111.44L15.51,110.86L16.04,111.44L16.3,111.15L16.56,110.57L17.09,111.15L17.35,110.86L17.62,110.86L18.67,110.27L18.93,109.98L19.72,110.57L19.99,110.86L20.78,109.69L21.04,110.57L22.09,109.69L22.36,109.69L23.15,109.98L23.41,108.52L24.2,109.69L24.46,108.81L24.73,109.98L25.26,109.69L25.52,108.81L26.84,108.81L27.1,109.4L27.63,108.23L28.15,108.81L28.42,108.81L28.68,107.93L28.94,109.1L29.21,108.23L29.47,109.1L30.26,108.52L30.52,107.93L31.05,109.1L31.31,108.23L31.58,107.35L31.84,108.52L32.1,108.23L32.63,108.52L32.89,107.93L33.42,107.35L33.68,108.52L34.47,107.06L34.74,107.64L35,108.81L35.26,107.06L35.53,107.06L36.32,107.06L36.58,106.47L37.63,107.35L37.9,106.76L38.69,107.06L38.95,106.76L39.48,107.35L39.74,106.47L40.27,107.93L40.53,107.64L40.79,107.64L41.32,106.76L41.58,107.64L41.85,107.64L42.64,107.06L42.9,106.76L43.69,107.64L43.95,107.06L44.22,107.06L44.48,108.23L45.27,106.76L45.53,107.35L45.8,108.23L46.06,107.06L46.32,106.47L47.38,107.06L47.64,106.76L47.9,107.06L48.17,106.76L48.43,106.47L48.96,107.06L49.22,106.47L49.48,106.76L50.8,106.18L51.06,106.47L62.39,106.18L62.65,105.89L66.34,105.3L66.6,105.01L69.5,104.42L69.76,104.13L71.6,103.55L71.87,103.25L73.71,102.67L73.97,102.38L76.08,101.79L76.34,101.5L77.66,101.21L77.92,100.91L78.19,101.21L78.45,100.91L78.71,100.62L78.98,100.91L79.24,100.62L79.5,100.33L81.08,99.74L81.35,99.45L83.72,98.87L83.98,98.57L85.82,97.99L86.09,97.7L87.93,97.11L88.19,96.82L88.98,96.23L89.25,95.94L90.56,95.36L90.83,95.36L92.41,95.06L92.67,94.77L93.99,94.19L94.25,94.19L96.36,93.89L96.62,93.31L98.46,92.72L98.73,92.43L100.04,91.85L100.31,91.55L100.57,91.85L100.83,91.55L101.1,91.26L102.15,90.97L102.41,90.97L103.2,90.68L103.47,90.09L106.36,89.51L106.63,89.21L109.52,88.63L109.79,88.34L112.16,87.75L112.42,87.46L113.74,86.87L114,86.29" style="vector-effect: none; fill: none; stroke: rgb(44, 160, 44); stroke-opacity: 1; stroke-width: 0.8px; opacity: 1;"/></g><g class="points"/><g class="text"/></g><g class="trace scatter trace5e2fb5" style="stroke-miterlimit: 2; opacity: 1;"><g class="fills"/><g class="errorbars"/><g class="lines"><path class="js-line" d="M0.24,113.49L1.82,112.91L2.08,112.61L48.96,112.61L49.22,112.91L53.96,112.91L54.22,112.03L55.01,112.91L55.28,112.32L56.59,112.91L56.86,112.91L57.91,112.03L58.17,112.91L60.28,112.91L60.54,112.03L61.33,112.91L61.6,112.91L61.86,112.91L62.12,112.03L62.91,112.91L63.18,112.91L64.76,112.32L65.02,113.2L65.55,112.91L65.81,111.15L66.34,110.86L66.86,113.2L67.13,111.44L67.65,112.91L67.92,111.44L68.71,113.2L68.97,113.2L73.97,113.2L74.24,110.27L75.03,113.2L75.29,112.91L75.55,113.2L75.82,111.44L76.61,113.49L76.87,113.2L84.24,113.49L84.51,112.32L85.3,113.49L85.56,113.49L98.73,113.49L98.99,113.78L100.04,113.49L100.31,113.78L101.36,113.49L101.62,113.78L102.68,113.49L102.94,113.49L103.2,112.91L103.47,113.78L103.73,113.78L114,113.49" style="vector-effect: none; fill: none; stroke: rgb(255, 127, 14); stroke-opacity: 1; stroke-width: 0.8px; opacity: 1;"/></g><g class="points"/><g class="text"/></g><g class="trace scatter tracebe6de6" style="stroke-miterlimit: 2; opacity: 1;"><g class="fills"/><g class="errorbars"/><g class="lines"><path class="js-line" d="M0.24,112.32L22.36,112.32L22.62,112.61L31.31,113.2L31.58,113.49L42.9,114.08L43.16,114.37L43.43,113.49L43.95,114.08L44.22,114.08L96.88,113.78L97.15,113.49L98.2,113.78L98.46,113.78L114,113.49" style="vector-effect: none; fill: none; stroke: rgb(31, 119, 180); stroke-opacity: 1; stroke-width: 0.8px; opacity: 1;"/></g><g class="points"/><g class="text"/></g><g class="trace scatter tracec94f80" style="stroke-miterlimit: 2; opacity: 1;"><g class="fills"/><g class="errorbars"/><g class="lines"><path class="js-line" d="M0.24,112.61L1.82,111.74L2.08,111.74L9.19,111.15L9.45,110.86L13.14,110.27L13.4,109.98L16.56,109.4L16.83,109.1L18.41,108.52L18.67,108.23L19.99,107.35L20.25,107.64L21.57,106.47L21.83,106.18L22.09,106.47L22.36,106.18L22.62,105.59L23.15,105.89L23.41,105.01L23.94,105.59L24.2,105.3L24.46,104.13L25.78,102.38L26.05,102.08L29.47,98.57L29.73,97.4L31.05,93.02L31.31,91.55L35.53,74L35.79,70.79L38.69,35.98L38.95,33.64L39.21,33.35L39.48,29.54L40.53,19.01L40.79,34.22L41.58,38.32L41.85,37.73L42.11,37.44L42.37,38.02L42.64,35.1L42.9,35.68L43.16,34.52L43.43,35.1L43.69,33.64L43.95,34.22L44.22,31.3L44.48,33.35L44.74,32.18L45.01,30.71L45.27,31.88L45.53,30.71L45.8,30.71L47.64,26.03L47.9,26.62L48.17,27.5L48.43,25.74L48.69,24.57L48.96,26.03L49.22,24.86L49.48,24.57L50.01,26.03L50.27,25.45L50.54,25.45L50.8,24.28L51.33,24.57L51.59,25.16L52.91,24.57L53.17,25.45L53.43,25.45L53.7,23.99L53.96,24.86L54.22,23.99L54.49,23.69L55.28,24.86L55.54,23.11L55.8,24.28L56.07,23.99L56.33,22.52L56.59,22.23L56.86,23.4L57.12,23.4L57.38,22.23L58.44,24.28L58.7,24.57L59.23,22.82L59.49,23.99L59.75,24.57L60.02,22.82L60.54,24.28L60.81,24.57L62.12,21.06L62.39,23.11L62.65,23.11L62.91,23.99L63.18,22.52L63.7,23.4L63.97,23.69L64.23,22.23L64.76,22.82L65.02,23.4L65.28,22.23L65.55,23.4L65.81,23.4L66.07,21.35L66.6,22.52L66.86,23.11L67.39,22.23L67.65,23.69L68.71,23.11L68.97,23.99L69.23,22.23L69.76,23.69L70.02,22.52L70.55,22.23L70.81,23.11L71.08,21.64L71.6,22.23L71.87,21.64L72.13,20.18L72.66,21.06L72.92,22.52L73.18,23.11L73.45,20.77L74.24,21.94L74.5,20.77L74.76,20.77L75.03,22.23L75.29,22.82L75.82,22.52L76.08,21.64L76.34,21.64L76.61,22.52L77.13,21.94L77.66,23.4L77.92,23.11L78.19,23.4L78.45,22.82L78.71,22.82L78.98,22.82L79.24,23.69L80.03,22.82L80.29,22.82L80.82,23.11L81.08,21.94L81.87,22.82L82.14,21.94L82.93,23.4L83.19,23.4L83.98,23.99L84.24,23.4L84.51,22.52L84.77,22.82L85.03,23.99L85.3,21.94L85.56,23.11L85.82,23.99L86.61,23.99L86.88,24.57L87.14,25.16L87.4,24.57L87.67,23.99L88.46,25.45L88.72,25.16L89.25,24.57L89.51,24.86L89.77,25.16L90.04,24.86L90.3,23.4L91.35,25.16L91.62,24.57L91.88,25.45L92.41,24.86L92.67,24.28L94.25,24.57L94.51,24.86L95.57,24.57L95.83,24.86L96.88,23.4L97.15,24.57L98.2,25.45L98.46,25.16L98.73,25.16L98.99,25.74L99.25,25.16L99.52,24.57L100.83,26.03L101.1,24.86L101.36,24.28L101.62,26.03L102.41,24.57L102.68,24.86L102.94,25.74L103.47,24.57L103.73,26.03L103.99,24.86L104.26,25.74L104.52,26.33L105.84,27.2L106.1,26.91L106.89,25.74L107.15,24.57L108.21,26.62L108.47,26.91L109.52,25.16L109.79,25.16L111.37,26.33L111.63,26.03L112.16,27.2L112.42,26.33L112.68,26.62L112.95,25.74L113.21,27.5L113.74,26.03L114,26.91" style="vector-effect: none; fill: none; stroke: rgb(140, 86, 75); stroke-opacity: 1; stroke-width: 0.8px; opacity: 1;"/></g><g class="points"/><g class="text"/></g><g class="trace scatter trace096eca" style="stroke-miterlimit: 2; opacity: 1;"><g class="fills"/><g class="errorbars"/><g class="lines"><path class="js-line" d="M0.24,112.61L2.08,112.03L2.34,111.74L3.13,112.03L3.4,111.74L9.45,111.15L9.72,110.86L14.19,110.27L14.46,109.98L17.09,109.4L17.35,109.1L18.67,108.52L18.93,107.93L19.72,107.93L19.99,107.93L22.36,106.18L22.62,106.18L26.57,102.67L26.84,102.96L28.15,100.62L28.42,100.33L28.94,99.74L29.21,98.87L30,95.65L30.26,94.48L32.1,88.92L32.37,89.21L32.63,86.87L32.89,87.17L33.16,86.58L33.42,84.83L35.79,78.1L36.05,78.1L38.69,65.81L38.95,64.64L39.21,64.64L39.48,62.89L40.79,56.45L41.06,55.87L41.32,53.24L41.85,54.7L42.11,54.41L42.37,54.11L42.64,51.77L42.9,51.77L43.16,50.31L43.43,50.9L43.95,50.31L44.22,48.55L44.48,49.14L44.74,48.55L45.01,47.09L45.27,47.68L45.53,46.8L45.8,46.51L49.48,38.61L49.75,39.19L50.01,39.19L51.33,36.56L51.59,36.56L52.91,34.81L53.17,35.1L53.43,34.81L53.7,33.35L53.96,33.93L54.22,33.05L54.49,32.47L55.28,32.47L55.54,31.3L55.8,31.88L56.07,31.3L56.33,30.13L56.86,30.42L57.38,28.96L57.65,29.54L58.7,29.54L58.96,28.08L59.23,27.79L59.49,28.37L59.75,28.96L60.28,27.5L60.54,28.08L60.81,28.08L61.86,26.03L62.12,24.57L62.91,26.62L63.18,25.16L63.97,25.45L64.23,24.28L65.02,25.16L65.28,23.99L65.81,24.57L66.07,22.82L66.86,23.99L67.13,23.4L67.39,23.11L67.65,24.57L68.18,23.69L68.44,23.69L68.97,24.28L69.23,22.52L69.76,23.99L70.02,22.52L70.81,22.82L71.08,21.64L71.34,22.52L71.6,21.94L71.87,21.35L72.13,20.18L72.39,21.64L72.66,20.77L72.92,21.94L73.18,22.52L73.45,20.47L74.24,21.35L74.5,20.18L74.76,20.18L75.03,21.06L75.29,21.94L75.82,21.64L76.08,20.47L76.34,20.47L76.61,21.35L76.87,21.64L77.13,20.77L78.19,21.94L78.45,21.35L78.98,21.06L79.24,22.23L80.29,21.06L80.56,21.06L80.82,21.35L81.08,20.18L81.87,21.06L82.14,19.89L82.4,21.35L82.93,21.06L83.19,21.35L83.72,21.94L83.98,21.64L84.24,21.35L84.51,20.18L84.77,20.47L85.03,21.64L85.3,19.6L85.82,21.35L86.09,21.35L87.14,22.52L87.4,22.23L87.67,21.35L88.46,23.11L88.72,22.82L89.51,22.23L89.77,22.52L90.04,22.52L90.3,21.06L91.35,22.82L91.62,21.94L91.88,23.11L92.41,22.52L92.67,21.64L93.46,21.94L93.72,21.35L95.04,22.52L95.3,22.23L96.36,21.35L96.62,21.94L96.88,20.77L97.15,21.94L97.41,22.23L97.94,21.64L98.2,22.82L99.25,22.52L99.52,21.94L100.83,23.4L101.1,21.94L101.36,21.35L101.62,23.11L102.68,21.94L102.94,22.82L103.47,21.94L103.73,23.11L103.99,21.94L104.26,22.82L104.52,23.4L105.31,23.99L105.57,23.69L105.84,24.57L106.1,23.99L106.36,23.69L106.63,23.99L106.89,22.82L107.15,21.64L107.42,23.11L107.68,23.4L107.94,23.11L108.21,23.69L108.47,23.99L109.52,22.23L109.79,21.94L111.1,23.11L111.37,23.4L111.63,22.82L111.89,23.99L112.16,23.99L112.95,22.82L113.21,24.57L113.74,23.11L114,23.99" style="vector-effect: none; fill: none; stroke: rgb(148, 103, 189); stroke-opacity: 1; stroke-width: 0.8px; opacity: 1;"/></g><g class="points"/><g class="text"/></g><g class="trace scatter trace521716" style="stroke-miterlimit: 2; opacity: 1;"><g class="fills"/><g class="errorbars"/><g class="lines"><path class="js-line" d="M0.24,111.44L0.76,111.74L1.03,111.15L2.08,111.44L2.34,111.44L3.4,111.15L3.66,111.15L11.3,110.57L11.56,110.27L14.46,109.69L14.72,109.4L17.62,108.81L17.88,108.52L19.46,107.64L19.72,107.64L21.3,106.76L21.57,106.76L22.88,105.59L23.15,105.89L23.41,105.89L25.52,104.13L25.78,104.72L26.31,104.42L26.57,103.84L27.36,103.55L27.63,102.96L28.94,103.25L29.21,102.08L30,101.21L30.26,101.5L30.52,101.5L31.05,101.21L31.31,100.62L33.95,98.87L34.21,98.87L36.05,97.7L36.32,97.7L38.16,96.53L38.42,96.53L40.53,95.06L40.79,95.06L43.95,90.97L44.22,90.09L44.48,90.38L44.74,90.09L45.01,89.21L46.06,87.46L46.32,86.58L51.33,77.22L51.59,76.93L54.75,70.79L55.01,70.79L56.07,69.03L56.33,68.15L58.7,65.52L58.96,64.06L61.86,60.84L62.12,59.08L62.65,59.96L62.91,59.67L63.18,59.08L64.23,57.62L64.49,57.04L65.02,57.04L65.28,56.16L65.81,56.45L66.07,55.28L67.39,53.82L67.65,54.41L67.92,54.41L68.18,54.41L68.44,53.53L69.76,51.48L70.02,50.02L72.13,46.8L72.39,47.09L72.66,46.8L72.92,47.68L73.18,47.68L73.45,45.92L73.97,46.8L74.24,46.51L74.5,46.22L74.76,45.92L75.03,46.22L75.29,46.8L75.82,47.09L76.08,46.8L76.34,46.22L76.87,46.8L77.13,45.92L78.19,47.09L78.45,46.51L79.5,45.92L79.77,46.22L81.35,44.46L81.61,44.75L82.4,45.34L82.66,44.17L83.72,44.75L83.98,44.46L84.24,44.75L84.51,43.29L85.03,44.46L85.3,42.41L86.35,44.46L86.61,44.17L87.4,44.17L87.67,43.58L88.46,44.46L88.72,44.17L89.25,43.88L89.51,44.17L89.77,44.46L90.83,43.58L91.09,43.58L91.62,43L91.88,44.17L92.14,43.58L92.41,43.58L92.67,42.71L94.25,43.58L94.51,43L96.36,43L96.62,42.71L96.88,42.12L97.15,43.29L97.41,43.88L97.94,43L98.2,43.88L98.46,43.58L99.52,43L99.78,43.29L100.57,43.88L100.83,43.58L101.1,42.71L101.36,42.12L101.62,43.58L102.41,42.12L102.68,42.41L102.94,43L103.47,42.41L103.73,43.88L103.99,43.29L104.52,43.88L104.78,43.88L106.63,43.88L106.89,43.29L107.15,42.41L107.42,43.58L107.68,43.58L107.94,43.29L108.21,44.17L108.47,44.17L108.73,43.29L109,44.17L109.26,43.29L109.52,42.12L110.58,43L110.84,43L112.16,43.88L112.42,43L113.21,43.88L113.47,43.58L113.74,43L114,43" style="vector-effect: none; fill: none; stroke: rgb(214, 39, 40); stroke-opacity: 1; stroke-width: 0.8px; opacity: 1;"/></g><g class="points"/><g class="text"/></g><g class="trace scatter trace94479e" style="stroke-miterlimit: 2; opacity: 1;"><g class="fills"/><g class="errorbars"/><g class="lines"><path class="js-line" d="M0.24,113.2L1.29,112.61L1.55,112.61L8.93,112.03L9.19,111.74L16.3,111.15L16.56,110.86L21.3,110.27L21.57,109.98L23.15,109.69L23.41,109.4L23.94,110.27L24.2,109.69L24.46,109.69L27.36,109.4L27.63,109.1L28.42,108.81L28.68,108.52L29.21,108.52L29.47,109.4L30,108.23L30.26,109.1L30.52,109.1L30.79,108.23L31.05,109.4L31.31,108.81L31.58,108.52L31.84,108.52L32.1,109.4L32.89,108.23L33.16,108.81L33.95,108.23L34.21,108.52L35.26,107.64L35.53,107.93L35.79,107.93L36.32,107.64L36.58,108.52L37.11,107.93L37.37,108.23L37.63,108.23L38.95,107.64L39.21,107.64L40.27,107.93L40.53,107.93L42.9,108.23L43.16,108.52L43.95,108.52L44.22,108.81L45.27,108.52L45.53,108.52L48.69,108.52L48.96,107.93L49.48,108.81L49.75,108.52L50.01,108.23L53.7,107.93L53.96,107.64L55.01,107.93L55.28,107.93L57.91,107.35L58.17,107.06L60.28,106.47L60.54,106.18L62.39,105.59L62.65,105.3L63.7,104.72L63.97,104.42L65.81,103.84L66.07,103.55L67.65,102.96L67.92,102.67L69.5,102.08L69.76,101.79L70.02,102.08L70.29,101.79L70.55,101.5L71.87,100.91L72.13,100.91L73.18,100.33L73.45,100.62L75.29,99.16L75.55,99.16L77.66,98.87L77.92,98.28L78.98,98.57L79.24,98.28L80.82,97.4L81.08,97.4L82.4,96.82L82.66,96.82L84.24,95.94L84.51,95.94L85.3,95.36L85.56,95.65L85.82,95.65L87.14,95.06L87.4,95.06L89.51,93.6L89.77,93.89L91.09,93.31L91.35,93.31L92.93,92.43L93.2,92.43L94.25,91.85L94.51,92.14L96.09,91.26L96.36,91.55L97.94,90.68L98.2,90.68L99.25,90.38L99.52,89.8L100.04,90.09L100.31,89.8L100.57,89.8L101.36,89.21L101.62,89.51L101.89,89.51L102.94,89.21L103.2,89.21L106.36,88.63L106.63,88.34L109,87.75L109.26,87.46L110.58,86.87L110.84,86.87L111.63,86.87L111.89,86.58L112.68,86.58L112.95,86.58L114,86" style="vector-effect: none; fill: none; stroke: rgb(44, 160, 44); stroke-opacity: 1; stroke-width: 0.8px; opacity: 1;"/></g><g class="points"/><g class="text"/></g><g class="trace scatter trace2baefd" style="stroke-miterlimit: 2; opacity: 1;"><g class="fills"/><g class="errorbars"/><g class="lines"><path class="js-line" d="M0.24,111.44L1.29,110.86L1.55,111.15L2.61,110.86L2.87,110.86L3.92,110.57L4.19,110.57L26.84,111.15L27.1,111.44L28.15,111.15L28.42,111.15L32.89,111.15L33.16,110.57L33.95,111.44L34.21,111.44L39.48,111.74L39.74,110.86L40.79,111.74L41.06,111.74L42.11,112.03L42.37,111.74L43.43,112.03L43.69,112.03L44.74,112.03L45.01,110.27L45.27,110.27L45.53,111.15L46.06,112.32L46.32,110.86L46.59,109.98L46.85,112.03L47.64,112.03L47.9,112.32L48.96,112.32L49.22,111.15L50.27,112.32L50.54,112.03L50.8,110.57L51.06,112.32L51.33,112.32L53.7,112.32L53.96,111.44L55.01,112.61L55.28,112.61L56.33,112.32L56.59,112.32L56.86,112.61L57.12,112.32L57.38,110.86L57.65,112.61L58.17,112.32L58.44,112.61L58.7,111.74L59.23,112.32L59.49,112.32L59.75,111.15L60.02,112.61L60.28,112.61L60.81,112.61L61.07,111.15L62.12,112.61L62.39,112.32L63.18,112.61L63.44,112.32L64.23,112.61L64.49,109.98L65.28,112.61L65.55,112.61L67.13,112.61L67.39,109.98L68.18,112.61L68.44,109.98L69.23,112.61L69.5,112.61L70.02,110.27L70.29,112.61L71.08,112.61L71.34,111.15L72.13,112.61L72.39,112.61L74.76,112.32L75.03,111.74L75.29,110.27L75.55,112.61L75.82,112.61L76.87,112.32L77.13,112.91L77.66,111.74L77.92,112.91L78.19,112.91L78.45,110.86L78.71,109.98L78.98,112.61L79.77,110.86L80.03,112.61L83.45,112.61L83.72,109.98L83.98,112.61L84.51,112.32L84.77,110.27L85.03,112.91L85.56,111.15L85.82,112.61L86.09,112.61L86.35,111.15L86.88,112.61L87.14,112.32L87.4,112.32L88.19,112.61L88.46,112.32L89.51,112.61L89.77,111.74L90.56,112.61L90.83,112.61L91.88,112.61L92.14,111.74L92.41,112.61L92.67,110.57L93.46,112.61L93.72,112.61L95.57,112.61L95.83,111.44L96.62,112.61L96.88,112.61L99.52,112.61L99.78,111.74L100.57,112.61L100.83,112.61L104.26,112.61L104.52,111.74L105.31,112.61L105.57,112.61L114,112.61" style="vector-effect: none; fill: none; stroke: rgb(255, 127, 14); stroke-opacity: 1; stroke-width: 0.8px; opacity: 1;"/></g><g class="points"/><g class="text"/></g><g class="trace scatter trace60df0d" style="stroke-miterlimit: 2; opacity: 1;"><g class="fills"/><g class="errorbars"/><g class="lines"><path class="js-line" d="M0.24,112.61L1.55,112.03L1.82,112.03L14.98,112.32L15.25,112.61L22.62,113.2L22.88,113.49L31.84,114.08L32.1,114.37L47.11,114.08L47.38,113.78L52.38,113.49L52.64,113.2L53.7,113.49L53.96,113.49L58.44,112.91L58.7,112.61L59.75,112.91L60.02,112.91L67.39,112.32L67.65,112.03L72.13,111.74L72.39,111.44L84.51,111.15L84.77,110.86L85.56,110.86L85.82,110.86L98.2,110.57L98.46,109.98L99.25,110.57L99.52,110.27L100.57,110.57L100.83,110.57L114,110.27" style="vector-effect: none; fill: none; stroke: rgb(31, 119, 180); stroke-opacity: 1; stroke-width: 0.8px; opacity: 1;"/></g><g class="points"/><g class="text"/></g><g class="trace scatter traceef7496" style="stroke-miterlimit: 2; opacity: 1;"><g class="fills"/><g class="errorbars"/><g class="lines"><path class="js-line" d="M0,114.08L12.03,111.24L12.6,111.05L21.2,107.45L21.77,107.15L29.79,101.94L30.36,101.49L37.24,95.12L37.81,94.51L45.83,84.61L46.4,83.81L68.17,53.33L68.74,52.74L75.05,47.53L75.62,47.17L81.92,44.18L82.49,43.98L90.51,42.19L91.09,42.11L104.26,41.2L104.83,41.19L114,41.03" style="vector-effect: none; fill: none; stroke: rgb(0, 0, 0); stroke-opacity: 1; stroke-dasharray: 3px, 3px; stroke-width: 0.8px; opacity: 1;"/></g><g class="points"/><g class="text"/></g></g></g></g><path class="xlines-above crisp" d="M0,0" style="fill: none;"/><path class="ylines-above crisp" d="M0,0" style="fill: none;"/><g class="overlines-above"/><g class="xaxislayer-above"><g class="xtick"><text text-anchor="middle" x="0" y="137" transform="translate(30,0)" style="font-family: 'Open Sans', verdana, arial, sans-serif; font-size: 11px; fill: rgb(0, 0, 0); fill-opacity: 1; white-space: pre; opacity: 1;">0</text></g><g class="xtick"><text text-anchor="middle" x="0" y="137" style="font-family: 'Open Sans', verdana, arial, sans-serif; font-size: 11px; fill: rgb(0, 0, 0); fill-opacity: 1; white-space: pre; opacity: 1;" transform="translate(48.96,0)">12</text></g><g class="xtick"><text text-anchor="middle" x="0" y="137" style="font-family: 'Open Sans', verdana, arial, sans-serif; font-size: 11px; fill: rgb(0, 0, 0); fill-opacity: 1; white-space: pre; opacity: 1;" transform="translate(67.92,0)">24</text></g><g class="xtick"><text text-anchor="middle" x="0" y="137" style="font-family: 'Open Sans', verdana, arial, sans-serif; font-size: 11px; fill: rgb(0, 0, 0); fill-opacity: 1; white-space: pre; opacity: 1;" transform="translate(86.88,0)">36</text></g><g class="xtick"><text text-anchor="middle" x="0" y="137" style="font-family: 'Open Sans', verdana, arial, sans-serif; font-size: 11px; fill: rgb(0, 0, 0); fill-opacity: 1; white-space: pre; opacity: 1;" transform="translate(105.84,0)">48</text></g><g class="xtick"><text text-anchor="middle" x="0" y="137" style="font-family: 'Open Sans', verdana, arial, sans-serif; font-size: 11px; fill: rgb(0, 0, 0); fill-opacity: 1; white-space: pre; opacity: 1;" transform="translate(124.8,0)">60</text></g><g class="xtick"><text text-anchor="middle" x="0" y="137" style="font-family: 'Open Sans', verdana, arial, sans-serif; font-size: 11px; fill: rgb(0, 0, 0); fill-opacity: 1; white-space: pre; opacity: 0;" transform="translate(143.76,0)">72</text></g></g><g class="yaxislayer-above"><g class="ytick"><text text-anchor="end" x="29" y="3.8499999999999996" transform="translate(0,125)" style="font-family: 'Open Sans', verdana, arial, sans-serif; font-size: 11px; fill: rgb(0, 0, 0); fill-opacity: 1; white-space: pre; opacity: 1;">0</text></g><g class="ytick"><text text-anchor="end" x="29" y="3.8499999999999996" style="font-family: 'Open Sans', verdana, arial, sans-serif; font-size: 11px; fill: rgb(0, 0, 0); fill-opacity: 1; white-space: pre; opacity: 1;" transform="translate(0,95.75)">0.1</text></g><g class="ytick"><text text-anchor="end" x="29" y="3.8499999999999996" style="font-family: 'Open Sans', verdana, arial, sans-serif; font-size: 11px; fill: rgb(0, 0, 0); fill-opacity: 1; white-space: pre; opacity: 1;" transform="translate(0,66.5)">0.2</text></g><g class="ytick"><text text-anchor="end" x="29" y="3.8499999999999996" style="font-family: 'Open Sans', verdana, arial, sans-serif; font-size: 11px; fill: rgb(0, 0, 0); fill-opacity: 1; white-space: pre; opacity: 1;" transform="translate(0,37.25)">0.3</text></g><g class="ytick"><text text-anchor="end" x="29" y="3.8499999999999996" style="font-family: 'Open Sans', verdana, arial, sans-serif; font-size: 11px; fill: rgb(0, 0, 0); fill-opacity: 1; white-space: pre; opacity: 0;" transform="translate(0,8)">0.4</text></g></g><g class="overaxes-above"/></g></g><g class="polarlayer"/><g class="smithlayer"/><g class="ternarylayer"/><g class="geolayer"/><g class="funnelarealayer"/><g class="pielayer"/><g class="iciclelayer"/><g class="treemaplayer"/><g class="sunburstlayer"/><g class="glimages"/><defs id="topdefs-80dfcc"><g class="clips"/></defs><g class="layer-above"><g class="imagelayer"/><g class="shapelayer"/></g><g class="infolayer"><g class="g-gtitle"/><g class="g-xtitle" transform="translate(0,-0.19999999999998863)"><text class="xtitle" x="87" y="147.2" text-anchor="middle" style="opacity: 1; font-family: 'Open Sans', verdana, arial, sans-serif; font-size: 11px; fill: rgb(0, 0, 0); fill-opacity: 1; white-space: pre;">Time [h]</text></g><g class="g-ytitle" transform="translate(1.865234375,0)"><text class="ytitle" transform="rotate(-90,10.134374999999999,66.5)" x="10.134374999999999" y="66.5" text-anchor="middle" style="opacity: 1; font-family: 'Open Sans', verdana, arial, sans-serif; font-size: 11px; fill: rgb(0, 0, 0); fill-opacity: 1; white-space: pre;">OD</text></g></g></svg>