<svg class="main-svg" xmlns="http://www.w3.org/2000/svg" xmlns:xlink="http://www.w3.org/1999/xlink" width="120" height="110" style="" viewBox="0 0 120 110"><rect x="0" y="0" width="120" height="110" style="fill: rgb(255, 255, 255); fill-opacity: 1;"/><defs id="defs-cdc26c"><g class="clips"><clipPath id="clipcdc26cxyplot" class="plotclip"><rect width="85" height="78"/></clipPath><clipPath class="axesclip" id="clipcdc26cx"><rect x="30" y="0" width="85" height="110"/></clipPath><clipPath class="axesclip" id="clipcdc26cy"><rect x="0" y="12" width="120" height="78"/></clipPath><clipPath class="axesclip" id="clipcdc26cxy"><rect x="30" y="12" width="85" height="78"/></clipPath></g><g class="gradients"/><g class="patterns"/></defs><g class="bglayer"/><g class="layer-below"><g class="imagelayer"/><g class="shapelayer"/></g><g class="cartesianlayer"><g class="subplot xy"><g class="layer-subplot"><g class="shapelayer"/><g class="imagelayer"/></g><g class="minor-gridlayer"><g class="x"/><g class="y"/></g><g class="gridlayer"><g class="x"/><g class="y"/></g><g class="zerolinelayer"><path class="xzl zl crisp" transform="translate(30,0)" d="M0,12v78" style="stroke: rgb(0, 0, 0); stroke-opacity: 1; stroke-width: 0.5px;"/><path class="yzl zl crisp" transform="translate(0,90)" d="M30,0h85" style="stroke: rgb(0, 0, 0); stroke-opacity: 1; stroke-width: 0.5px;"/></g><g class="layer-between"><g class="shapelayer"/><g class="imagelayer"/></g><path class="xlines-below"/><path class="ylines-below"/><g class="overlines-below"/><g class="xaxislayer-below"/><g class="yaxislayer-below"/><g class="overaxes-below"/><g class="overplot"><g class="xy" transform="translate(30,12)" clip-path="url(#clipcdc26cxyplot)"><g class="scatterlayer mlayer"><g class="trace scatter trace0a985f" style="stroke-miterlimit: 2; opacity: 1;"><g class="fills"/><g class="errorbars"/><g class="lines"><path class="js-line" d="M0.18,73.99L1.55,73.54L1.75,73.54L8.03,72.87L8.23,72.65L11.76,71.98L11.96,71.76L13.33,71.31L13.53,71.09L14.12,71.09L14.31,70.65L14.9,70.65L15.1,70.42L15.3,70.42L17.46,68.86L17.65,68.86L20.79,64.63L20.99,63.96L24.72,54.38L24.92,52.82L26.1,48.58L26.29,47.25L27.08,39L27.27,36.33L30.42,10.25L30.61,18.05L31.59,18.05L31.79,16.94L31.99,17.61L32.38,17.16L32.57,16.49L32.77,16.71L32.97,14.93L33.16,15.82L33.75,15.38L33.95,15.15L34.73,14.49L34.93,14.04L35.13,14.71L35.52,13.82L35.72,13.82L35.91,14.26L36.11,13.37L36.31,12.7L36.5,13.82L37.09,13.59L37.29,13.82L38.27,13.15L38.47,13.59L39.45,13.15L39.64,13.59L39.84,13.59L40.04,12.7L40.23,13.15L40.63,12.26L40.82,12.48L41.21,12.93L41.61,12.48L41.8,12.26L42.2,11.59L42.59,12.03L42.79,11.59L43.77,12.03L43.96,11.14L44.16,10.92L44.36,11.81L44.55,11.81L44.75,11.14L45.34,11.59L45.53,11.59L46.32,10.03L46.52,10.7L46.71,11.14L47.1,10.47L47.69,11.37L47.89,10.47L49.07,11.14L49.26,10.03L50.84,11.14L51.03,11.14L51.42,11.59L51.62,10.47L51.82,10.92L52.01,11.37L53,10.47L53.19,10.47L54.17,10.25L54.37,10.92L54.57,11.14L54.76,10.03L56.53,10.92L56.73,10.7L57.51,10.25L57.71,10.7L58.3,11.37L58.49,11.14L58.69,10.7L59.87,11.14L60.06,11.14L61.05,11.37L61.24,10.7L61.44,11.59L62.03,11.37L62.22,11.37L62.81,11.59L63.01,10.7L63.21,10.7L63.4,11.59L63.6,10.25L64.19,11.37L64.38,11.81L65.37,11.37L65.56,12.03L68.9,11.81L69.1,11.37L70.27,11.81L70.47,11.59L72.43,11.81L72.63,12.26L73.02,11.81L73.42,12.26L73.61,12.03L74.4,12.26L74.59,12.26L75.18,12.26L75.38,11.59L75.58,11.14L75.77,12.26L75.97,12.03L76.16,11.81L76.36,11.37L76.75,12.26L76.95,12.03L77.34,12.48L77.54,12.03L77.74,12.26L77.93,12.48L79.7,12.48L79.89,12.03L80.68,12.93L80.88,12.7L81.66,11.59L82.05,11.81L82.25,12.03L83.63,12.7L83.82,12.26L84.61,12.7L84.8,12.03L85,12.26" style="vector-effect: none; fill: none; stroke: rgb(140, 86, 75); stroke-opacity: 1; stroke-width: 0.8px; opacity: 1;"/></g><g class="points"/><g class="text"/></g><g class="trace scatter trace4d4b38" style="stroke-miterlimit: 2; opacity: 1;"><g class="fills"/><g class="errorbars"/><g class="lines"><path class="js-line" d="M0.18,73.54L0.77,72.87L1.16,73.1L1.36,73.1L8.82,72.43L9.01,72.21L11.76,71.76L11.96,71.54L14.12,70.87L14.31,70.65L15.49,70.2L15.69,69.75L16.47,69.53L16.67,69.53L20.79,64.85L20.99,64.41L22.17,62.4L22.36,61.29L24.33,54.6L24.52,55.27L24.72,55.05L26.1,49.92L26.29,49.7L26.49,49.7L26.68,48.81L26.88,48.81L27.08,47.25L29.63,36.1L29.83,36.33L30.81,30.09L31,31.87L31.2,29.86L32.57,25.63L32.77,25.63L33.56,23.62L33.75,24.07L36.89,20.95L37.09,21.17L37.29,21.39L38.86,19.39L39.05,19.61L42.79,16.05L42.98,16.49L44.94,14.71L45.14,15.15L46.32,13.37L46.71,13.82L46.91,14.26L47.89,12.93L48.09,13.37L49.26,12.03L49.66,12.48L49.85,12.93L50.64,12.48L50.84,12.7L51.42,12.7L51.62,11.81L52.01,12.26L52.41,11.81L52.6,11.81L52.8,12.03L53,11.37L53.19,11.59L53.39,11.37L54.17,10.92L54.37,11.59L54.57,11.59L54.76,10.7L55.35,10.92L55.55,10.25L56.14,11.14L56.53,10.92L56.73,10.47L56.92,10.25L57.12,10.92L57.31,11.14L57.51,10.25L58.1,10.7L58.3,11.14L59.28,10.7L59.47,10.92L60.65,10.03L60.85,10.03L61.24,9.81L61.44,10.7L61.63,9.81L62.42,10.92L62.62,10.47L62.81,10.47L63.01,9.58L63.21,9.58L63.4,10.7L63.6,9.14L64.19,10.25L64.38,10.47L65.76,10.92L65.95,11.14L66.54,10.47L66.74,10.7L66.94,10.92L67.72,10.47L67.92,10.7L68.11,10.92L69.1,10.03L69.29,10.25L70.27,10.7L70.47,10.25L72.04,10.25L72.24,9.81L73.22,10.92L73.42,10.92L74.2,10.47L74.4,10.7L74.59,10.92L75.18,11.14L75.38,10.25L75.58,9.81L75.77,11.14L75.97,10.7L76.16,10.47L76.36,10.03L76.75,10.92L76.95,10.92L77.15,10.25L77.34,11.14L77.54,10.47L77.74,10.92L79.11,11.59L79.31,11.37L79.5,11.59L79.7,11.14L79.89,10.47L80.88,11.59L81.07,11.14L81.27,11.59L81.47,11.37L81.66,10.47L82.64,10.92L82.84,11.37L85,11.37" style="vector-effect: none; fill: none; stroke: rgb(148, 103, 189); stroke-opacity: 1; stroke-width: 0.8px; opacity: 1;"/></g><g class="points"/><g class="text"/></g><g class="trace scatter trace025725" style="stroke-miterlimit: 2; opacity: 1;"><g class="fills"/><g class="errorbars"/><g class="lines"><path class="js-line" d="M0.18,73.1L3.32,72.43L3.52,72.21L10.39,71.54L10.58,71.31L12.74,70.65L12.94,70.42L13.73,70.2L13.92,70.2L15.69,69.31L15.89,69.31L17.46,68.19L17.65,68.42L20.4,65.97L20.6,66.19L26.1,59.73L26.29,59.95L26.49,60.17L27.86,59.73L28.06,59.5L32.97,54.15L33.16,54.82L36.11,50.81L36.31,49.92L36.5,50.14L36.89,49.47L37.09,49.25L38.66,46.8L38.86,46.13L39.25,45.69L39.45,45.24L41.8,41.45L42,41.01L51.03,30.09L51.23,29.42L51.42,29.19L51.62,27.63L52.21,26.97L52.41,26.52L53,26.07L53.19,25.41L54.96,24.07L55.15,24.29L55.35,24.07L55.55,23.62L56.14,24.07L56.33,23.85L56.53,24.07L56.73,23.62L56.92,23.18L57.9,23.62L58.1,23.18L58.3,23.62L58.69,22.73L58.89,22.73L59.47,22.95L59.67,22.29L60.46,21.84L60.65,21.62L61.44,22.51L61.63,21.39L62.42,22.29L62.62,21.84L63.21,20.95L63.4,21.84L63.6,20.28L64.19,21.17L64.38,21.62L65.37,20.73L65.56,21.62L66.54,20.95L66.74,21.39L66.94,21.62L67.92,20.95L68.11,21.17L69.1,20.28L69.29,20.28L70.27,20.73L70.47,20.28L70.86,20.73L71.06,20.28L71.26,20.5L71.45,20.73L72.24,20.06L72.43,20.28L72.63,20.73L72.83,20.06L73.42,20.5L73.61,20.28L74.79,20.5L74.99,20.28L75.38,19.83L75.58,19.17L75.97,20.06L76.16,19.61L76.36,19.17L77.93,20.28L78.13,19.83L79.11,20.28L79.31,20.06L79.5,20.28L79.7,20.06L79.89,19.39L80.68,20.28L80.88,20.06L82.05,18.94L82.25,18.94L83.63,19.83L83.82,18.94L84.61,19.61L84.8,19.39L85,18.94" style="vector-effect: none; fill: none; stroke: rgb(214, 39, 40); stroke-opacity: 1; stroke-width: 0.8px; opacity: 1;"/></g><g class="points"/><g class="text"/></g><g class="trace scatter tracef898de" style="stroke-miterlimit: 2; opacity: 1;"><g class="fills"/><g class="errorbars"/><g class="lines"><path class="js-line" d="M0.18,73.77L1.55,73.1L1.75,73.1L9.99,72.43L10.19,72.21L11.17,72.21L11.37,72.21L15.89,71.54L16.08,71.31L16.87,71.54L17.06,71.31L17.26,71.31L18.63,70.87L18.83,70.87L22.36,70.42L22.56,70.2L23.74,70.2L23.94,70.87L25.11,69.75L25.31,69.75L25.9,69.75L26.1,70.2L26.68,69.53L27.08,69.75L27.27,69.53L28.26,70.42L28.45,69.98L29.83,69.53L30.02,69.98L31.4,69.31L31.59,69.53L32.97,69.09L33.16,69.53L33.36,68.86L33.75,69.31L33.95,69.53L34.15,70.65L34.54,69.53L34.73,68.64L35.52,70.2L35.72,69.53L35.91,68.86L36.89,69.98L37.09,69.31L38.27,69.75L38.47,70.2L39.45,69.09L39.64,68.86L39.84,68.64L40.23,69.09L40.43,69.31L41.41,69.53L41.61,69.31L53.39,68.64L53.58,68.42L57.9,67.75L58.1,67.53L59.08,67.53L59.28,67.3L63.01,66.63L63.21,66.41L63.99,66.41L64.19,66.19L65.37,66.41L65.56,66.41L66.74,65.52L66.94,65.52L68.11,65.74L68.31,65.52L69.68,65.07L69.88,65.07L77.15,64.63L77.34,64.41L78.52,64.85L78.72,64.63L82.45,63.96L82.64,63.74L83.63,63.96L83.82,63.74L85,62.62" style="vector-effect: none; fill: none; stroke: rgb(44, 160, 44); stroke-opacity: 1; stroke-width: 0.8px; opacity: 1;"/></g><g class="points"/><g class="text"/></g><g class="trace scatter trace4945ef" style="stroke-miterlimit: 2; opacity: 1;"><g class="fills"/><g class="errorbars"/><g class="lines"><path class="js-line" d="M0.18,73.77L1.55,73.1L1.75,73.1L2.73,73.1L2.93,73.1L30.22,73.54L30.42,73.77L31.4,73.54L31.59,73.54L32.57,73.54L32.77,73.77L53.58,73.99L53.78,72.43L54.57,73.99L54.76,73.99L56.53,73.77L56.73,73.1L57.12,74.21L57.51,73.54L57.71,73.77L58.69,73.99L58.89,73.1L59.67,73.99L59.87,73.99L60.06,73.1L60.46,73.99L60.65,73.99L61.63,72.87L61.83,73.99L64.78,73.99L64.97,74.21L66.54,72.87L66.74,73.77L66.94,72.65L67.13,73.99L67.52,73.54L67.72,73.99L68.9,73.54L69.1,73.1L69.29,72.87L69.49,73.99L70.47,73.54L70.67,73.1L71.06,72.21L71.26,73.99L71.45,73.54L71.65,73.77L71.84,73.99L72.04,73.32L72.24,72.65L73.22,73.99L73.42,73.77L85,73.99" style="vector-effect: none; fill: none; stroke: rgb(255, 127, 14); stroke-opacity: 1; stroke-width: 0.8px; opacity: 1;"/></g><g class="points"/><g class="text"/></g><g class="trace scatter trace374e41" style="stroke-miterlimit: 2; opacity: 1;"><g class="fills"/><g class="errorbars"/><g class="lines"><path class="js-line" d="M0.18,74.21L1.55,73.77L1.75,73.77L2.73,73.77L2.93,73.77L3.71,73.77L3.91,73.77L12.74,74.43L12.94,74.66L13.73,74.21L13.92,74.43L14.12,74.66L14.9,74.66L15.1,74.66L24.13,75.33L24.33,75.55L74.2,75.99L74.4,76.22L75.38,75.99L75.58,75.99L85,75.99" style="vector-effect: none; fill: none; stroke: rgb(31, 119, 180); stroke-opacity: 1; stroke-width: 0.8px; opacity: 1;"/></g><g class="points"/><g class="text"/></g><g class="trace scatter trace18aa86" style="stroke-miterlimit: 2; opacity: 1;"><g class="fills"/><g class="errorbars"/><g class="lines"><path class="js-line" d="M0.18,74.21L4.5,73.54L4.69,73.32L9.41,72.65L9.6,72.43L12.35,71.76L12.55,71.54L14.31,70.87L14.51,70.42L15.3,70.42L15.49,70.2L16.28,69.31L16.47,69.75L16.67,69.53L18.24,67.75L18.44,67.53L22.56,62.18L22.76,61.51L23.54,59.5L23.74,58.83L27.08,41.45L27.27,37.66L30.02,6.46L30.22,12.48L31,17.83L31.2,17.16L33.56,12.48L33.75,12.93L35.52,9.81L35.72,10.03L35.91,10.47L36.31,8.69L36.89,8.91L37.09,9.81L37.68,9.81L37.88,8.91L38.47,9.58L38.66,9.36L38.86,9.14L39.84,9.58L40.04,8.91L40.23,9.36L40.43,8.69L40.63,8.25L41.8,8.47L42,7.58L42.39,8.02L42.79,7.35L42.98,8.25L44.16,7.13L44.36,7.8L44.55,8.02L44.75,7.13L45.34,7.8L45.53,7.8L46.32,5.57L46.52,6.91L46.71,7.13L46.91,7.58L47.1,6.69L47.5,7.13L47.69,7.35L47.89,6.46L48.48,7.13L48.68,6.46L49.07,7.13L49.26,5.79L49.46,6.02L50.44,7.35L50.64,6.91L51.42,7.58L51.62,6.24L52.01,7.35L52.41,6.69L52.6,6.46L52.8,7.13L53,6.02L53.19,6.69L53.39,6.46L53.78,5.35L54.17,5.79L54.37,6.69L54.57,7.13L54.76,5.57L55.35,6.46L55.55,5.79L55.74,5.57L56.53,6.91L56.73,6.24L57.71,6.69L57.9,7.35L58.89,6.91L59.08,7.58L60.06,6.69L60.26,7.13L60.46,6.46L60.85,6.69L61.05,7.13L61.44,7.35L61.63,6.46L61.83,7.35L62.62,7.8L62.81,7.58L63.01,6.69L63.4,7.8L63.6,6.24L64.58,7.8L64.78,8.02L65.95,8.91L66.15,8.69L66.54,8.25L66.94,8.69L67.13,8.47L67.33,7.58L67.92,8.02L68.11,8.69L69.1,7.8L69.29,8.02L72.04,8.25L72.24,7.58L73.22,8.69L73.42,8.69L74.2,8.25L74.4,8.47L74.59,8.91L75.18,9.14L75.38,8.25L75.58,7.8L75.77,8.91L76.16,8.25L76.36,8.02L77.34,9.14L77.54,8.47L78.52,9.81L78.72,9.58L79.5,9.81L79.7,9.14L79.89,8.25L80.29,9.36L80.48,9.14L81.27,9.81L81.47,9.14L81.86,8.47L82.25,8.91L82.45,8.69L83.63,9.81L83.82,9.36L84.61,10.03L85,9.58" style="vector-effect: none; fill: none; stroke: rgb(140, 86, 75); stroke-opacity: 1; stroke-width: 0.8px; opacity: 1;"/></g><g class="points"/><g class="text"/></g><g class="trace scatter trace261af1" style="stroke-miterlimit: 2; opacity: 1;"><g class="fills"/><g class="errorbars"/><g class="lines"><path class="js-line" d="M0.18,74.88L1.55,74.43L1.75,74.43L7.25,73.77L7.44,73.54L10.78,72.87L10.98,72.65L12.35,72.21L12.55,71.76L13.33,71.98L13.53,71.76L13.92,71.31L14.31,71.54L14.51,71.31L15.69,70.65L15.89,70.42L19.81,66.86L20.01,67.08L22.17,63.51L22.36,62.85L28.06,43.01L28.26,41.01L28.45,41.01L28.65,39.22L30.61,28.53L30.81,29.64L31,29.86L32.18,25.18L32.38,25.41L33.56,23.18L33.75,23.62L34.93,21.84L35.13,21.62L36.31,19.39L36.5,19.83L37.88,18.05L38.07,18.27L38.86,17.38L39.05,17.83L39.25,17.61L40.82,15.82L41.02,15.82L41.21,15.82L41.41,14.93L41.61,15.15L41.8,14.93L42,14.26L43.57,13.59L43.77,13.59L44.75,12.03L44.94,12.03L45.14,12.48L45.53,12.03L45.73,11.81L46.32,10.25L46.71,11.14L46.91,11.37L47.89,9.81L48.09,10.03L49.07,10.03L49.26,8.91L49.85,9.81L50.05,9.14L50.25,8.91L50.44,9.81L51.03,9.36L51.23,9.14L51.42,9.58L51.62,8.47L52.01,9.14L52.21,8.69L54.17,7.35L54.37,8.02L54.57,8.47L54.76,7.13L54.96,7.58L55.15,7.35L55.55,6.91L56.53,7.8L56.73,7.13L56.92,6.91L57.12,7.58L57.31,7.8L57.51,7.13L57.9,8.02L58.1,7.8L58.3,8.02L58.69,7.35L58.89,7.35L59.08,8.02L59.47,7.58L59.67,7.35L61.83,7.35L62.03,7.58L62.81,7.58L63.01,6.69L63.4,7.58L63.6,6.24L64.58,7.58L64.78,7.8L65.95,8.47L66.15,8.25L66.35,8.02L67.72,7.35L67.92,7.58L68.51,8.25L68.7,8.02L68.9,8.02L69.88,7.35L70.08,7.58L72.04,7.58L72.24,6.91L73.22,8.25L73.42,8.02L73.81,8.47L74.2,7.58L74.4,7.8L74.59,8.25L75.38,7.8L75.58,7.35L75.77,8.47L76.36,7.58L76.56,7.8L77.34,8.47L77.54,7.8L78.52,9.14L78.72,8.91L79.5,9.14L79.7,8.25L79.89,7.8L80.29,8.69L80.48,8.47L81.27,9.14L81.47,8.47L81.86,7.8L82.25,8.25L82.45,8.02L84.02,8.91L84.21,8.47L84.41,9.36L85,9.14" style="vector-effect: none; fill: none; stroke: rgb(148, 103, 189); stroke-opacity: 1; stroke-width: 0.8px; opacity: 1;"/></g><g class="points"/><g class="text"/></g><g class="trace scatter trace6d4242" style="stroke-miterlimit: 2; opacity: 1;"><g class="fills"/><g class="errorbars"/><g class="lines"><path class="js-line" d="M0.18,74.66L5.09,73.99L5.28,73.77L9.6,73.1L9.8,72.87L12.55,72.21L12.74,71.98L14.12,71.54L14.31,70.87L14.51,71.31L14.71,70.65L15.1,70.87L15.3,70.65L16.67,69.98L16.87,69.53L18.24,68.86L18.44,68.64L19.42,68.19L19.62,67.75L20.2,67.75L20.4,67.3L20.99,67.3L21.19,66.86L21.58,67.08L21.78,66.19L22.95,64.85L23.15,65.3L23.35,65.52L24.52,63.74L24.72,63.74L25.51,63.07L25.7,62.85L27.27,60.39L27.47,60.62L28.84,59.95L29.04,59.73L29.83,59.06L30.02,58.61L32.57,54.82L32.77,54.38L34.15,52.37L34.34,52.15L35.52,49.92L35.72,49.47L36.11,48.81L36.31,48.14L36.89,47.47L37.09,47.25L39.84,43.23L40.04,42.34L40.43,41.67L40.63,41.23L42.59,37.89L42.79,37.22L42.98,37.44L43.37,36.77L43.57,36.55L45.73,33.43L45.93,32.76L46.12,32.76L46.32,31.65L46.71,32.09L46.91,31.87L47.1,31.42L49.85,28.75L50.05,27.86L53.78,23.62L53.98,24.29L54.37,24.74L54.76,23.18L54.96,23.85L55.15,23.85L55.74,23.18L55.94,23.4L56.14,23.85L57.51,22.51L57.71,22.73L58.3,23.18L58.49,22.51L60.26,22.29L60.46,21.39L61.44,21.84L61.63,20.73L62.42,21.62L62.62,21.39L63.21,20.5L63.4,21.39L63.6,19.83L64.19,20.73L64.38,21.17L67.13,21.17L67.33,20.28L68.11,20.73L68.31,20.28L68.51,20.95L68.9,20.5L69.1,19.83L70.27,20.28L70.47,19.83L71.45,20.28L71.65,20.06L71.84,20.06L72.43,20.28L72.63,20.73L73.02,20.28L73.42,20.73L73.61,20.5L73.81,20.95L74,20.28L74.2,20.28L74.4,20.28L75.18,20.73L75.38,19.83L75.77,20.73L76.36,19.39L76.56,19.83L77.34,20.73L77.54,20.28L78.52,21.17L78.72,20.73L79.5,21.17L79.7,20.5L79.89,19.61L80.09,20.73L80.29,20.5L80.48,20.5L81.27,20.95L81.47,20.5L81.66,19.39L82.25,20.06L82.45,20.06L84.21,20.28L84.41,20.95L84.8,20.28L85,20.5" style="vector-effect: none; fill: none; stroke: rgb(214, 39, 40); stroke-opacity: 1; stroke-width: 0.8px; opacity: 1;"/></g><g class="points"/><g class="text"/></g><g class="trace scatter tracea55ae1" style="stroke-miterlimit: 2; opacity: 1;"><g class="fills"/><g class="errorbars"/><g class="lines"><path class="js-line" d="M0.18,75.33L5.09,74.66L5.28,74.43L10.58,73.77L10.78,73.54L11.96,73.77L12.15,73.54L12.94,73.32L13.14,73.32L14.9,73.32L15.1,72.43L15.69,73.1L15.89,72.65L16.08,72.43L16.28,72.87L16.87,72.43L17.06,72.43L17.26,72.65L17.46,71.54L18.44,72.65L18.63,71.98L18.83,72.43L19.03,71.76L19.22,71.76L19.42,71.54L20.2,72.21L20.4,71.76L21.38,71.09L21.58,71.98L21.78,71.31L22.36,71.76L22.56,71.54L23.15,71.98L23.54,70.65L23.74,71.54L24.92,70.65L25.11,71.54L25.7,70.42L25.9,70.87L26.1,71.76L26.68,70.42L26.88,70.65L27.08,70.42L27.27,69.98L27.86,70.42L28.06,70.65L29.04,70.2L29.24,70.2L29.63,69.98L30.02,71.09L30.22,70.87L30.42,70.87L30.81,70.2L31.2,70.87L31.4,70.87L31.99,70.2L32.38,70.42L32.57,70.87L33.16,71.31L33.56,70.2L33.75,70.2L34.15,71.31L34.34,70.42L34.54,69.98L35.32,70.42L35.52,70.2L36.5,70.42L36.7,69.98L37.68,69.98L37.88,69.75L38.86,69.98L39.05,69.98L48.09,69.53L48.28,69.31L51.03,68.64L51.23,68.42L53.39,67.75L53.58,67.53L55.35,66.86L55.55,66.63L56.14,66.63L56.33,66.41L56.53,66.41L58.49,65.74L58.69,65.52L59.47,65.3L59.67,65.3L61.05,64.63L61.24,64.41L63.4,63.96L63.6,63.51L64.38,63.29L64.58,63.29L65.95,62.62L66.15,62.4L67.92,61.51L68.11,61.73L70.08,60.62L70.27,60.62L72.24,59.95L72.43,59.73L74,59.06L74.2,58.83L76.56,58.17L76.75,57.94L78.52,57.5L78.72,57.05L81.66,56.38L81.86,56.16L84.02,55.49L84.21,55.27L85,54.6" style="vector-effect: none; fill: none; stroke: rgb(44, 160, 44); stroke-opacity: 1; stroke-width: 0.8px; opacity: 1;"/></g><g class="points"/><g class="text"/></g><g class="trace scatter trace00379b" style="stroke-miterlimit: 2; opacity: 1;"><g class="fills"/><g class="errorbars"/><g class="lines"><path class="js-line" d="M0.18,75.33L2.73,74.66L2.93,74.43L48.28,74.43L48.48,75.1L48.87,74.88L49.07,73.54L49.46,73.32L49.85,75.1L50.05,73.77L51.03,75.1L51.23,75.1L55.15,75.1L55.35,72.87L55.94,75.1L56.14,74.88L56.33,75.1L56.53,73.77L56.73,75.33L56.92,75.1L57.12,75.33L57.71,75.1L57.9,75.33L58.1,75.33L62.81,75.33L63.01,74.43L63.79,75.33L63.99,75.33L85,75.33" style="vector-effect: none; fill: none; stroke: rgb(255, 127, 14); stroke-opacity: 1; stroke-width: 0.8px; opacity: 1;"/></g><g class="points"/><g class="text"/></g><g class="trace scatter trace18d11c" style="stroke-miterlimit: 2; opacity: 1;"><g class="fills"/><g class="errorbars"/><g class="lines"><path class="js-line" d="M0.18,74.43L19.42,74.66L19.62,74.88L28.84,75.55L29.04,75.77L30.02,75.77L30.22,75.77L31.2,75.77L31.4,75.77L81.07,75.55L81.27,75.1L82.05,75.55L82.25,75.33L85,75.33" style="vector-effect: none; fill: none; stroke: rgb(31, 119, 180); stroke-opacity: 1; stroke-width: 0.8px; opacity: 1;"/></g><g class="points"/><g class="text"/></g><g class="trace scatter traceb983d8" style="stroke-miterlimit: 2; opacity: 1;"><g class="fills"/><g class="errorbars"/><g class="lines"><path class="js-line" d="M0.18,74.66L1.55,73.99L1.75,73.99L7.64,73.32L7.83,73.1L10.98,72.43L11.17,72.21L12.15,72.21L12.35,72.21L14.12,71.09L14.31,71.31L17.06,69.31L17.26,69.53L18.44,67.53L18.63,67.75L21.97,63.96L22.17,63.07L23.35,58.61L23.54,57.72L24.13,56.38L24.33,54.82L24.72,54.15L24.92,52.82L26.88,40.11L27.08,35.21L28.84,16.27L29.04,14.49L29.24,14.26L29.43,11.37L30.22,3.34L30.42,14.93L31,18.05L31.2,17.61L31.4,17.38L31.59,17.83L31.79,15.6L31.99,16.05L32.18,15.15L32.38,15.6L32.57,14.49L32.77,14.93L32.97,12.7L33.16,14.26L33.56,12.26L33.75,13.15L33.95,12.26L34.54,12.03L34.73,11.14L35.52,8.69L35.72,9.14L35.91,9.81L36.89,7.58L37.09,8.47L37.29,8.69L37.68,8.25L37.88,7.35L38.47,8.02L38.66,7.8L38.86,7.58L39.84,8.25L40.04,7.13L40.23,7.8L40.63,6.91L40.82,7.13L41.21,7.8L41.41,6.46L41.61,7.35L42,6.02L42.2,5.79L43.18,6.91L43.37,7.13L43.77,7.58L43.96,6.24L44.16,6.24L44.36,7.13L44.55,7.58L44.75,6.24L44.94,6.46L45.34,7.58L45.73,6.91L45.93,6.24L46.12,6.24L46.32,4.9L46.91,7.13L47.1,6.02L47.3,6.24L47.69,6.91L47.89,5.79L48.09,6.02L49.07,6.69L49.26,5.13L50.44,6.91L50.84,6.46L51.03,6.46L51.42,7.13L51.62,5.79L52.01,6.91L52.41,6.02L52.6,5.79L52.8,6.46L53,5.35L53.19,6.02L53.39,5.79L53.78,4.23L54.17,4.9L54.37,6.02L54.57,6.46L54.76,4.68L55.35,5.57L55.55,4.68L55.74,4.68L55.94,5.79L56.14,6.24L56.53,6.02L56.73,5.35L57.12,6.02L57.31,6.46L57.51,5.57L57.9,6.69L58.1,6.46L59.08,6.91L59.28,6.24L60.26,6.46L60.46,5.57L61.44,6.69L61.63,5.79L62.62,7.13L62.81,6.69L63.4,7.13L63.6,5.57L63.79,6.46L64.97,8.02L65.17,7.58L65.37,7.13L65.56,8.02L65.76,8.02L65.95,8.25L67.33,6.69L67.72,7.13L67.92,7.35L68.51,8.25L68.7,7.8L68.9,7.8L69.88,7.13L70.08,7.58L71.65,7.35L71.84,7.13L72.24,6.69L72.83,7.8L73.02,7.58L73.81,8.47L74,8.02L74.2,7.58L74.59,8.25L74.79,8.25L75.18,8.69L75.38,7.8L75.58,7.35L75.77,8.69L76.36,7.58L76.56,7.8L77.15,7.58L77.34,8.69L77.54,7.8L78.52,9.36L78.72,9.14L78.91,9.58L79.7,8.47L79.89,7.58L80.88,9.36L81.07,8.47L81.27,9.14L81.66,8.02L81.86,8.02L83.63,9.58L83.82,8.91L84.21,8.47L84.41,9.81L84.61,9.36L84.8,8.69L85,9.36" style="vector-effect: none; fill: none; stroke: rgb(140, 86, 75); stroke-opacity: 1; stroke-width: 0.8px; opacity: 1;"/></g><g class="points"/><g class="text"/></g><g class="trace scatter trace6ff34d" style="stroke-miterlimit: 2; opacity: 1;"><g class="fills"/><g class="errorbars"/><g class="lines"><path class="js-line" d="M0.18,74.66L3.52,73.99L3.71,73.77L9.8,73.1L9.99,72.87L12.74,72.21L12.94,71.98L13.92,71.54L14.12,71.09L14.9,71.09L15.1,70.87L17.85,68.64L18.05,68.86L21.78,64.18L21.97,63.74L28.06,42.57L28.26,41.01L28.45,41.23L28.65,39.67L30.61,31.42L30.81,29.42L31.2,30.53L31.59,30.09L31.79,28.3L31.99,28.3L32.18,27.19L32.38,27.63L32.77,27.19L32.97,25.85L33.16,26.3L33.36,25.85L33.56,24.74L33.75,25.18L34.15,24.29L34.34,23.85L34.54,24.07L34.73,23.4L34.93,22.51L35.13,22.73L35.32,21.62L36.89,18.27L37.09,18.72L37.48,18.05L37.68,17.83L38.66,16.27L38.86,16.05L39.05,16.27L39.25,15.82L39.45,15.38L39.64,15.6L39.84,15.38L40.04,14.26L40.23,14.71L40.43,14.04L40.63,13.59L41.21,13.59L41.41,12.7L41.61,13.15L41.8,12.7L42,11.81L42.39,12.03L42.79,10.92L42.98,11.37L43.18,11.37L43.77,11.37L43.96,10.25L44.16,10.03L44.36,10.47L44.55,10.92L44.94,9.81L45.34,10.25L45.53,10.03L46.32,7.58L46.52,8.69L46.71,8.91L46.91,9.14L47.1,8.02L47.69,8.25L47.89,7.35L49.07,7.58L49.26,6.24L50.44,7.58L50.64,6.91L50.84,6.91L51.42,7.35L51.62,6.02L52.01,7.13L52.41,6.24L52.6,5.79L52.8,6.24L53,5.35L53.19,6.02L53.39,5.57L53.78,4.23L54.17,4.68L54.37,5.57L54.57,6.02L54.76,4.46L55.35,5.13L55.55,4.23L55.94,4.9L56.14,5.57L56.92,4.46L57.12,5.13L57.31,5.35L57.51,4.68L57.9,5.57L58.1,5.35L58.3,5.57L58.69,5.13L58.89,4.9L59.08,5.79L59.47,5.35L59.67,4.9L60.26,5.13L60.46,4.23L61.05,4.9L61.24,4.01L62.22,5.35L62.42,5.57L63.01,4.23L63.21,4.46L63.4,5.35L63.6,3.79L63.99,5.13L64.19,5.13L64.97,6.02L65.17,5.79L65.37,5.13L65.95,6.46L66.15,6.24L66.35,5.79L67.13,6.02L67.33,4.9L68.51,6.46L68.7,5.79L69.1,5.35L69.49,5.57L69.68,5.57L69.88,5.13L70.27,5.57L70.47,5.79L71.65,5.35L71.84,5.13L72.24,4.68L72.83,5.79L73.02,5.35L73.81,6.46L74,6.02L74.2,5.57L74.59,6.24L74.79,6.46L75.38,5.57L75.58,5.13L75.77,6.46L76.36,5.57L76.56,5.57L77.34,6.46L77.54,5.57L78.91,7.58L79.11,7.13L79.7,6.24L79.89,5.35L80.88,7.13L81.07,6.24L81.27,7.13L81.66,5.79L81.86,5.57L83.04,6.69L83.23,6.24L83.63,7.13L84.02,6.91L84.21,6.24L84.41,7.58L85,7.13" style="vector-effect: none; fill: none; stroke: rgb(148, 103, 189); stroke-opacity: 1; stroke-width: 0.8px; opacity: 1;"/></g><g class="points"/><g class="text"/></g><g class="trace scatter trace4fb432" style="stroke-miterlimit: 2; opacity: 1;"><g class="fills"/><g class="errorbars"/><g class="lines"><path class="js-line" d="M0.18,73.77L1.16,73.77L1.36,73.77L8.42,73.1L8.62,72.87L11.76,72.21L11.96,71.98L13.73,71.31L13.92,71.09L15.69,70.42L15.89,70.2L16.87,69.75L17.06,69.31L17.85,69.31L18.05,68.86L18.44,69.09L18.83,68.64L19.03,68.19L19.42,68.64L19.62,68.42L19.81,67.97L21.19,67.3L21.38,67.08L21.58,67.53L21.78,66.63L21.97,66.19L23.35,65.52L23.54,65.3L24.13,65.3L24.33,64.85L25.51,64.18L25.7,63.96L27.08,63.29L27.27,63.07L28.65,62.4L28.84,62.18L30.02,61.51L30.22,61.29L31,60.62L31.2,60.39L33.75,56.61L33.95,55.94L35.52,53.04L35.72,52.37L37.29,49.47L37.48,49.03L38.66,47.02L38.86,46.35L39.25,45.91L39.45,45.46L41.21,42.57L41.41,41.9L43.77,38.78L43.96,37.66L46.12,35.21L46.32,33.87L46.71,34.54L47.1,33.87L47.3,33.65L47.69,33.65L47.89,32.76L49.46,30.75L49.66,30.98L50.05,30.31L50.25,29.86L50.84,30.31L51.03,29.64L52.01,28.08L52.21,26.97L53.78,24.51L53.98,24.74L54.17,24.51L54.57,25.18L54.76,23.85L55.15,24.51L55.55,24.07L55.74,23.85L56.53,24.74L56.73,24.51L56.92,24.07L57.9,24.74L58.1,24.51L58.3,24.74L58.69,24.07L58.89,23.85L59.08,24.29L59.47,24.07L59.67,23.62L60.46,22.95L60.65,22.73L61.44,23.4L61.63,22.51L62.42,22.95L62.62,22.73L62.81,22.95L63.01,21.84L63.4,22.73L63.6,21.17L64.38,22.73L64.58,22.51L64.78,22.51L65.95,22.73L66.15,22.51L67.33,21.84L67.52,22.29L68.31,21.62L68.51,22.51L69.1,21.39L69.49,21.62L69.68,21.84L70.67,21.62L70.86,22.06L72.24,20.95L72.43,21.84L73.22,22.29L73.42,22.06L74.2,21.62L74.4,21.84L74.59,22.06L74.99,22.29L75.18,22.06L75.38,21.39L75.77,22.06L76.36,20.95L76.56,21.17L77.34,22.29L77.74,22.06L77.93,22.29L79.7,21.84L79.89,21.17L80.88,22.51L81.07,21.84L81.27,22.51L81.47,21.84L81.66,20.95L82.84,21.84L83.04,21.84L85,21.62" style="vector-effect: none; fill: none; stroke: rgb(214, 39, 40); stroke-opacity: 1; stroke-width: 0.8px; opacity: 1;"/></g><g class="points"/><g class="text"/></g><g class="trace scatter trace5e7af2" style="stroke-miterlimit: 2; opacity: 1;"><g class="fills"/><g class="errorbars"/><g class="lines"><path class="js-line" d="M0.18,75.1L1.16,74.66L1.36,74.66L7.83,73.99L8.03,73.77L13.92,73.32L14.12,72.87L14.71,73.1L14.9,72.87L15.1,72.87L15.69,73.1L15.89,72.87L16.08,72.65L20.4,72.21L20.6,71.98L22.17,71.76L22.36,71.31L23.15,72.21L23.35,71.76L24.52,71.31L24.72,71.76L25.7,71.31L25.9,71.09L26.88,71.09L27.08,70.87L27.27,71.54L27.86,71.31L28.06,71.31L29.24,70.87L29.43,71.09L30.61,70.87L30.81,70.87L31.59,71.31L31.79,71.09L32.97,71.76L33.16,71.54L33.36,71.54L40.04,71.09L40.23,70.87L41.41,71.09L41.61,70.87L44.55,70.2L44.75,69.98L46.52,69.31L46.71,69.09L48.28,68.42L48.48,68.19L50.05,67.53L50.25,67.53L52.01,66.41L52.21,66.63L54.17,65.52L54.37,65.52L56.33,64.41L56.53,64.41L59.08,63.74L59.28,63.51L61.05,62.85L61.24,62.62L63.01,61.95L63.21,61.73L63.99,61.73L64.19,61.51L66.15,60.84L66.35,60.62L67.72,59.95L67.92,59.95L69.49,59.28L69.68,59.06L72.04,58.39L72.24,58.17L74,57.72L74.2,57.27L74.99,57.27L75.18,57.05L79.31,56.38L79.5,56.16L81.47,55.49L81.66,55.27L82.64,55.05L82.84,55.27L84.21,54.82L84.41,54.82L85,54.38" style="vector-effect: none; fill: none; stroke: rgb(44, 160, 44); stroke-opacity: 1; stroke-width: 0.8px; opacity: 1;"/></g><g class="points"/><g class="text"/></g><g class="trace scatter trace3eb639" style="stroke-miterlimit: 2; opacity: 1;"><g class="fills"/><g class="errorbars"/><g class="lines"><path class="js-line" d="M0.18,73.77L1.36,73.32L1.55,73.32L26.49,73.77L26.68,73.99L30.61,73.99L30.81,74.21L31.59,73.99L31.79,74.21L31.99,74.21L33.36,74.21L33.56,72.87L33.95,73.54L34.15,74.21L34.34,74.43L34.54,73.32L34.73,72.65L34.93,74.21L35.13,73.99L36.5,74.43L36.7,73.54L37.48,74.43L37.68,74.21L37.88,73.1L38.07,74.43L38.27,74.43L38.47,74.43L40.82,74.43L41.02,74.66L42.59,74.43L42.79,73.32L43.57,74.66L43.77,73.99L43.96,74.66L44.36,74.43L44.55,73.54L45.34,74.66L45.53,73.54L46.71,74.66L46.91,74.43L47.89,74.66L48.09,72.65L48.87,74.66L49.07,74.66L50.05,74.66L50.25,72.65L50.84,74.66L51.03,72.65L51.82,74.66L52.01,73.32L52.21,72.87L52.41,74.66L53,74.66L53.19,73.54L53.98,74.66L54.17,74.66L55.94,73.99L56.14,72.87L56.92,74.66L57.12,74.66L57.9,73.99L58.1,74.88L58.3,74.88L58.49,73.32L58.69,72.65L58.89,74.66L59.47,73.32L59.67,74.66L59.87,74.66L62.22,74.66L62.42,72.65L62.62,74.66L63.01,74.43L63.21,72.87L63.4,74.88L63.99,74.66L64.19,74.66L64.38,73.54L64.97,74.43L65.17,74.43L66.35,74.66L66.54,74.43L66.94,73.99L67.72,74.66L67.92,74.66L68.9,74.66L69.1,73.1L69.88,74.66L70.08,74.66L71.26,74.66L71.45,73.77L72.24,74.66L72.43,74.66L75.58,74.66L75.77,74.88L76.95,74.66L77.15,74.66L85,74.66" style="vector-effect: none; fill: none; stroke: rgb(255, 127, 14); stroke-opacity: 1; stroke-width: 0.8px; opacity: 1;"/></g><g class="points"/><g class="text"/></g><g class="trace scatter trace5fb6d6" style="stroke-miterlimit: 2; opacity: 1;"><g class="fills"/><g class="errorbars"/><g class="lines"><path class="js-line" d="M0.18,74.66L1.36,74.21L1.55,74.21L12.94,74.66L13.14,74.88L21.58,75.55L21.78,75.77L36.89,75.55L37.09,75.33L38.27,75.55L38.47,75.55L39.64,75.33L39.84,75.33L48.09,74.66L48.28,74.43L58.3,73.77L58.49,73.54L73.22,73.1L73.42,72.65L74.4,73.1L74.59,73.1L85,72.87" style="vector-effect: none; fill: none; stroke: rgb(31, 119, 180); stroke-opacity: 1; stroke-width: 0.8px; opacity: 1;"/></g><g class="points"/><g class="text"/></g><g class="trace scatter trace0e11c2" style="stroke-miterlimit: 2; opacity: 1;"><g class="fills"/><g class="errorbars"/><g class="lines"><path class="js-line" d="M0,75.77L8.97,73.61L9.4,73.47L17.09,70.03L17.51,69.78L23.49,65.5L23.92,65.13L29.9,58.95L30.33,58.43L38.02,47.73L38.44,47.08L49.97,30.54L50.4,30.07L55.53,25.45L55.95,25.16L61.51,22.43L61.93,22.29L68.34,20.92L68.77,20.87L78.59,20.24L79.02,20.22L85,20.12" style="vector-effect: none; fill: none; stroke: rgb(0, 0, 0); stroke-opacity: 1; stroke-dasharray: 3px, 3px; stroke-width: 0.8px; opacity: 1;"/></g><g class="points"/><g class="text"/></g></g></g></g><path class="xlines-above crisp" d="M0,0" style="fill: none;"/><path class="ylines-above crisp" d="M0,0" style="fill: none;"/><g class="overlines-above"/><g class="xaxislayer-above"><g class="xtick"><text text-anchor="middle" x="0" y="99" transform="translate(30,0)" style="font-family: 'Open Sans', verdana, arial, sans-serif; font-size: 8px; fill: rgb(0, 0, 0); fill-opacity: 1; white-space: pre; opacity: 1;">0</text></g><g class="xtick"><text text-anchor="middle" x="0" y="99" style="font-family: 'Open Sans', verdana, arial, sans-serif; font-size: 8px; fill: rgb(0, 0, 0); fill-opacity: 1; white-space: pre; opacity: 1;" transform="translate(44.14,0)">12</text></g><g class="xtick"><text text-anchor="middle" x="0" y="99" style="font-family: 'Open Sans', verdana, arial, sans-serif; font-size: 8px; fill: rgb(0, 0, 0); fill-opacity: 1; white-space: pre; opacity: 1;" transform="translate(58.269999999999996,0)">24</text></g><g class="xtick"><text text-anchor="middle" x="0" y="99" style="font-family: 'Open Sans', verdana, arial, sans-serif; font-size: 8px; fill: rgb(0, 0, 0); fill-opacity: 1; white-space: pre; opacity: 1;" transform="translate(72.41,0)">36</text></g><g class="xtick"><text text-anchor="middle" x="0" y="99" style="font-family: 'Open Sans', verdana, arial, sans-serif; font-size: 8px; fill: rgb(0, 0, 0); fill-opacity: 1; white-space: pre; opacity: 1;" transform="translate(86.55,0)">48</text></g><g class="xtick"><text text-anchor="middle" x="0" y="99" style="font-family: 'Open Sans', verdana, arial, sans-serif; font-size: 8px; fill: rgb(0, 0, 0); fill-opacity: 1; white-space: pre; opacity: 1;" transform="translate(100.69,0)">60</text></g><g class="xtick"><text text-anchor="middle" x="0" y="99" style="font-family: 'Open Sans', verdana, arial, sans-serif; font-size: 8px; fill: rgb(0, 0, 0); fill-opacity: 1; white-space: pre; opacity: 1;" transform="translate(114.82,0)">72</text></g></g><g class="yaxislayer-above"><g class="ytick"><text text-anchor="end" x="29" y="2.8" transform="translate(0,90)" style="font-family: 'Open Sans', verdana, arial, sans-serif; font-size: 8px; fill: rgb(0, 0, 0); fill-opacity: 1; white-space: pre; opacity: 1;">0</text></g><g class="ytick"><text text-anchor="end" x="29" y="2.8" style="font-family: 'Open Sans', verdana, arial, sans-serif; font-size: 8px; fill: rgb(0, 0, 0); fill-opacity: 1; white-space: pre; opacity: 1;" transform="translate(0,78.86)">0.05</text></g><g class="ytick"><text text-anchor="end" x="29" y="2.8" style="font-family: 'Open Sans', verdana, arial, sans-serif; font-size: 8px; fill: rgb(0, 0, 0); fill-opacity: 1; white-space: pre; opacity: 1;" transform="translate(0,67.71000000000001)">0.1</text></g><g class="ytick"><text text-anchor="end" x="29" y="2.8" style="font-family: 'Open Sans', verdana, arial, sans-serif; font-size: 8px; fill: rgb(0, 0, 0); fill-opacity: 1; white-space: pre; opacity: 1;" transform="translate(0,56.57)">0.15</text></g><g class="ytick"><text text-anchor="end" x="29" y="2.8" style="font-family: 'Open Sans', verdana, arial, sans-serif; font-size: 8px; fill: rgb(0, 0, 0); fill-opacity: 1; white-space: pre; opacity: 1;" transform="translate(0,45.43)">0.2</text></g><g class="ytick"><text text-anchor="end" x="29" y="2.8" style="font-family: 'Open Sans', verdana, arial, sans-serif; font-size: 8px; fill: rgb(0, 0, 0); fill-opacity: 1; white-space: pre; opacity: 1;" transform="translate(0,34.29)">0.25</text></g><g class="ytick"><text text-anchor="end" x="29" y="2.8" style="font-family: 'Open Sans', verdana, arial, sans-serif; font-size: 8px; fill: rgb(0, 0, 0); fill-opacity: 1; white-space: pre; opacity: 1;" transform="translate(0,23.14)">0.3</text></g><g class="ytick"><text text-anchor="end" x="29" y="2.8" style="font-family: 'Open Sans', verdana, arial, sans-serif; font-size: 8px; fill: rgb(0, 0, 0); fill-opacity: 1; white-space: pre; opacity: 1;" transform="translate(0,12)">0.35</text></g></g><g class="overaxes-above"/></g></g><g class="polarlayer"/><g class="smithlayer"/><g class="ternarylayer"/><g class="geolayer"/><g class="funnelarealayer"/><g class="pielayer"/><g class="iciclelayer"/><g class="treemaplayer"/><g class="sunburstlayer"/><g class="glimages"/><defs id="topdefs-cdc26c"><g class="clips"/></defs><g class="layer-above"><g class="imagelayer"/><g class="shapelayer"/></g><g class="infolayer"><g class="g-gtitle"><text class="gtitle" x="6" y="6" text-anchor="start" dy="0em" style="opacity: 1; font-family: 'Open Sans', verdana, arial, sans-serif; font-size: 8px; fill: rgb(0, 0, 0); fill-opacity: 1; white-space: pre;">Thiamine gradient <tspan style="font-style:italic">O. anthropi</tspan></text></g><g class="g-xtitle" transform="translate(0,1.9000000000000057)"><text class="xtitle" x="72.5" y="106.1" text-anchor="middle" style="opacity: 1; font-family: 'Open Sans', verdana, arial, sans-serif; font-size: 8px; fill: rgb(0, 0, 0); fill-opacity: 1; white-space: pre;">Time [h]</text></g><g class="g-ytitle"><text class="ytitle" transform="rotate(-90,10.840625,51)" x="10.840625" y="51" text-anchor="middle" style="opacity: 1; font-family: 'Open Sans', verdana, arial, sans-serif; font-size: 8px; fill: rgb(0, 0, 0); fill-opacity: 1; white-space: pre;">OD</text></g></g></svg>