<svg class="main-svg" xmlns="http://www.w3.org/2000/svg" xmlns:xlink="http://www.w3.org/1999/xlink" width="150" height="150" style="" viewBox="0 0 150 150"><rect x="0" y="0" width="150" height="150" style="fill: rgb(255, 255, 255); fill-opacity: 1;"/><defs id="defs-7d4142"><g class="clips"><clipPath id="clip7d4142xyplot" class="plotclip"><rect width="64" height="84"/></clipPath><clipPath class="axesclip" id="clip7d4142x"><rect x="26" y="0" width="64" height="150"/></clipPath><clipPath class="axesclip" id="clip7d4142y"><rect x="0" y="18" width="150" height="84"/></clipPath><clipPath class="axesclip" id="clip7d4142xy"><rect x="26" y="18" width="64" height="84"/></clipPath><clipPath class="contourclip" id="clipc2e1b6"><path d="M0,4.2L64,4.2L64,79.8L0,79.8Z"/></clipPath></g><g class="gradients"/><g class="patterns"/></defs><g class="bglayer"/><g class="layer-below"><g class="imagelayer"/><g class="shapelayer"/></g><g class="cartesianlayer"><g class="subplot xy"><g class="layer-subplot"><g class="shapelayer"/><g class="imagelayer"/></g><g class="minor-gridlayer"><g class="x"/><g class="y"/></g><g class="gridlayer"><g class="x"/><g class="y"/></g><g class="zerolinelayer"><path class="yzl zl crisp" transform="translate(0,97.8)" d="M26,0h64" style="stroke: rgb(0, 0, 0); stroke-opacity: 1; stroke-width: 0.5px;"/></g><g class="layer-between"><g class="shapelayer"/><g class="imagelayer"/></g><path class="xlines-below"/><path class="ylines-below"/><g class="overlines-below"/><g class="xaxislayer-below"/><g class="yaxislayer-below"/><g class="overaxes-below"/><g class="overplot"><g class="xy" transform="translate(26,18)" clip-path="url(#clip7d4142xyplot)"><g class="contourlayer mlayer"><g class="contour" clip-path="url(#clipc2e1b6)" style="opacity: 1;"><g class="heatmapcoloring"/><g class="contourbg"><path d="M0,4.2L64,4.2L64,79.8L0,79.8Z" style="stroke: none; fill: rgb(173, 216, 230);"/></g><g class="contourfill"><path d="M57.05,4.2Q57.05,4.71 57.05,4.96C57.05,5.22 57.05,5.47 57.05,5.73C57.05,5.98 57.05,6.24 57.05,6.49C57.05,6.74 57.05,7 57.05,7.25C57.05,7.51 57.05,7.76 57.05,8.02C57.05,8.27 57.05,8.53 57.05,8.78C57.05,9.04 57.05,9.29 57.05,9.55C57.05,9.8 57.05,10.06 57.05,10.31C57.05,10.56 57.05,10.82 57.05,11.07C57.05,11.33 57.05,11.58 57.05,11.84C57.05,12.09 57.05,12.35 57.05,12.6C57.05,12.85 57.05,13.11 57.05,13.36C57.05,13.62 57.05,13.87 57.05,14.13C57.05,14.38 57.05,14.64 57.05,14.89C57.05,15.14 57.05,15.4 57.05,15.65C57.05,15.91 57.05,16.16 57.05,16.42C57.05,16.67 57.05,16.93 57.05,17.18C57.05,17.44 57.05,17.69 57.05,17.95C57.05,18.2 57.05,18.46 57.05,18.71C57.05,18.96 57.05,19.22 57.05,19.47C57.05,19.73 57.05,19.98 57.05,20.24C57.05,20.49 57.05,20.75 57.05,21C57.05,21.25 57.05,21.51 57.05,21.76C57.05,22.02 57.05,22.27 57.05,22.53C57.05,22.78 57.05,23.04 57.05,23.29C57.05,23.54 57.05,23.8 57.05,24.05C57.05,24.31 57.05,24.56 57.05,24.82C57.05,25.07 57.05,25.33 57.05,25.58C57.05,25.84 57.05,26.09 57.05,26.35C57.05,26.6 57.05,26.86 57.05,27.11C57.05,27.36 57.05,27.62 57.05,27.87C57.05,28.13 57.05,28.38 57.05,28.64C57.05,28.89 57.05,29.15 57.05,29.4C57.05,29.65 57.05,29.91 57.05,30.16C57.05,30.42 57.05,30.67 57.05,30.93C57.05,31.18 57.05,31.44 57.05,31.69C57.05,31.94 57.05,32.2 57.05,32.45C57.05,32.71 57.05,32.96 57.05,33.22C57.05,33.47 57.05,33.73 57.05,33.98C57.05,34.24 57.05,34.49 57.05,34.75C57.05,35 57.05,35.26 57.05,35.51C57.05,35.76 57.05,36.02 57.05,36.27C57.05,36.53 57.05,36.78 57.05,37.04C57.05,37.29 57.05,37.55 57.05,37.8C57.05,38.05 57.05,38.31 57.05,38.56C57.05,38.82 57.05,39.07 57.05,39.33C57.05,39.58 57.05,39.84 57.05,40.09C57.05,40.34 57.05,40.6 57.05,40.85C57.05,41.11 57.05,41.36 57.05,41.62C57.05,41.87 57.05,42.13 57.05,42.38C57.05,42.64 57.05,42.89 57.05,43.15C57.05,43.4 57.05,43.66 57.05,43.91C57.05,44.16 57.05,44.42 57.05,44.67C57.05,44.93 57.05,45.18 57.05,45.44C57.05,45.69 57.05,45.95 57.05,46.2C57.05,46.45 57.05,46.71 57.05,46.96C57.05,47.22 57.05,47.47 57.05,47.73C57.05,47.98 57.05,48.24 57.05,48.49C57.05,48.74 57.05,49 57.05,49.25C57.05,49.51 57.05,49.76 57.05,50.02C57.05,50.27 57.05,50.53 57.05,50.78C57.05,51.04 57.05,51.29 57.05,51.55C57.05,51.8 57.05,52.06 57.05,52.31C57.05,52.56 57.05,52.82 57.05,53.07C57.05,53.33 57.05,53.58 57.05,53.84C57.05,54.09 57.05,54.35 57.05,54.6C57.05,54.85 57.05,55.11 57.05,55.36C57.05,55.62 57.05,55.87 57.05,56.13C57.05,56.38 57.05,56.64 57.05,56.89C57.05,57.14 57.05,57.4 57.05,57.65C57.05,57.91 57.05,58.16 57.05,58.42C57.05,58.67 57.05,58.93 57.05,59.18C57.05,59.44 57.05,59.69 57.05,59.95C57.05,60.2 57.05,60.46 57.05,60.71C57.05,60.96 57.05,61.22 57.05,61.47C57.05,61.73 57.05,61.98 57.05,62.24C57.05,62.49 57.05,62.75 57.05,63C57.05,63.25 57.05,63.51 57.05,63.76C57.05,64.02 57.05,64.27 57.05,64.53C57.05,64.78 57.05,65.04 57.05,65.29C57.05,65.54 57.05,65.8 57.05,66.05C57.05,66.31 57.05,66.56 57.05,66.82C57.05,67.07 57.05,67.33 57.05,67.58C57.05,67.84 57.05,68.09 57.05,68.35C57.05,68.6 57.05,68.86 57.05,69.11C57.05,69.36 57.05,69.62 57.05,69.87C57.05,70.13 57.05,70.38 57.05,70.64C57.05,70.89 57.05,71.15 57.05,71.4C57.05,71.65 57.05,71.91 57.05,72.16C57.05,72.42 57.05,72.67 57.05,72.93C57.05,73.18 57.05,73.44 57.05,73.69C57.05,73.94 57.05,74.2 57.05,74.45C57.05,74.71 57.05,74.96 57.05,75.22C57.05,75.47 57.05,75.73 57.05,75.98C57.05,76.24 57.05,76.49 57.05,76.75C57.05,77 57.05,77.26 57.05,77.51C57.05,77.76 57.05,78.02 57.05,78.27C57.05,78.53 57.05,78.78 57.05,79.04Q57.05,79.29 57.05,79.8L0,79.8L0,4.2Z" style="stroke: none; fill: rgb(182, 220, 233);"/><path d="M48.39,4.2Q48.39,4.71 48.39,4.96C48.39,5.22 48.39,5.47 48.39,5.73C48.39,5.98 48.39,6.24 48.39,6.49C48.39,6.74 48.39,7 48.39,7.25C48.39,7.51 48.39,7.76 48.39,8.02C48.39,8.27 48.39,8.53 48.39,8.78C48.39,9.04 48.39,9.29 48.39,9.55C48.39,9.8 48.39,10.06 48.39,10.31C48.39,10.56 48.39,10.82 48.39,11.07C48.39,11.33 48.39,11.58 48.39,11.84C48.39,12.09 48.39,12.35 48.39,12.6C48.39,12.85 48.39,13.11 48.39,13.36C48.39,13.62 48.39,13.87 48.39,14.13C48.39,14.38 48.39,14.64 48.39,14.89C48.39,15.14 48.39,15.4 48.39,15.65C48.39,15.91 48.39,16.16 48.39,16.42C48.39,16.67 48.39,16.93 48.39,17.18C48.39,17.44 48.39,17.69 48.39,17.95C48.39,18.2 48.39,18.46 48.39,18.71C48.39,18.96 48.39,19.22 48.39,19.47C48.39,19.73 48.39,19.98 48.39,20.24C48.39,20.49 48.39,20.75 48.39,21C48.39,21.25 48.39,21.51 48.39,21.76C48.39,22.02 48.39,22.27 48.39,22.53C48.39,22.78 48.39,23.04 48.39,23.29C48.39,23.54 48.39,23.8 48.39,24.05C48.39,24.31 48.39,24.56 48.39,24.82C48.39,25.07 48.39,25.33 48.39,25.58C48.39,25.84 48.39,26.09 48.39,26.35C48.39,26.6 48.39,26.86 48.39,27.11C48.39,27.36 48.39,27.62 48.39,27.87C48.39,28.13 48.39,28.38 48.39,28.64C48.39,28.89 48.39,29.15 48.39,29.4C48.39,29.65 48.39,29.91 48.39,30.16C48.39,30.42 48.39,30.67 48.39,30.93C48.39,31.18 48.39,31.44 48.39,31.69C48.39,31.94 48.39,32.2 48.39,32.45C48.39,32.71 48.39,32.96 48.39,33.22C48.39,33.47 48.39,33.73 48.39,33.98C48.39,34.24 48.39,34.49 48.39,34.75C48.39,35 48.39,35.26 48.39,35.51C48.39,35.76 48.39,36.02 48.39,36.27C48.39,36.53 48.39,36.78 48.39,37.04C48.39,37.29 48.39,37.55 48.39,37.8C48.39,38.05 48.39,38.31 48.39,38.56C48.39,38.82 48.39,39.07 48.39,39.33C48.39,39.58 48.39,39.84 48.39,40.09C48.39,40.34 48.39,40.6 48.39,40.85C48.39,41.11 48.39,41.36 48.39,41.62C48.39,41.87 48.39,42.13 48.39,42.38C48.39,42.64 48.39,42.89 48.39,43.15C48.39,43.4 48.39,43.66 48.39,43.91C48.39,44.16 48.39,44.42 48.39,44.67C48.39,44.93 48.39,45.18 48.39,45.44C48.39,45.69 48.39,45.95 48.39,46.2C48.39,46.45 48.39,46.71 48.39,46.96C48.39,47.22 48.39,47.47 48.39,47.73C48.39,47.98 48.39,48.24 48.39,48.49C48.39,48.74 48.39,49 48.39,49.25C48.39,49.51 48.39,49.76 48.39,50.02C48.39,50.27 48.39,50.53 48.39,50.78C48.39,51.04 48.39,51.29 48.39,51.55C48.39,51.8 48.39,52.06 48.39,52.31C48.39,52.56 48.39,52.82 48.39,53.07C48.39,53.33 48.39,53.58 48.39,53.84C48.39,54.09 48.39,54.35 48.39,54.6C48.39,54.85 48.39,55.11 48.39,55.36C48.39,55.62 48.39,55.87 48.39,56.13C48.39,56.38 48.39,56.64 48.39,56.89C48.39,57.14 48.39,57.4 48.39,57.65C48.39,57.91 48.39,58.16 48.39,58.42C48.39,58.67 48.39,58.93 48.39,59.18C48.39,59.44 48.39,59.69 48.39,59.95C48.39,60.2 48.39,60.46 48.39,60.71C48.39,60.96 48.39,61.22 48.39,61.47C48.39,61.73 48.39,61.98 48.39,62.24C48.39,62.49 48.39,62.75 48.39,63C48.39,63.25 48.39,63.51 48.39,63.76C48.39,64.02 48.39,64.27 48.39,64.53C48.39,64.78 48.39,65.04 48.39,65.29C48.39,65.54 48.39,65.8 48.39,66.05C48.39,66.31 48.39,66.56 48.39,66.82C48.39,67.07 48.39,67.33 48.39,67.58C48.39,67.84 48.39,68.09 48.39,68.35C48.39,68.6 48.39,68.86 48.39,69.11C48.39,69.36 48.39,69.62 48.39,69.87C48.39,70.13 48.39,70.38 48.39,70.64C48.39,70.89 48.39,71.15 48.39,71.4C48.39,71.65 48.39,71.91 48.39,72.16C48.39,72.42 48.39,72.67 48.39,72.93C48.39,73.18 48.39,73.44 48.39,73.69C48.39,73.94 48.39,74.2 48.39,74.45C48.39,74.71 48.39,74.96 48.39,75.22C48.39,75.47 48.39,75.73 48.39,75.98C48.39,76.24 48.39,76.49 48.39,76.75C48.39,77 48.39,77.26 48.39,77.51C48.39,77.76 48.39,78.02 48.39,78.27C48.39,78.53 48.39,78.78 48.39,79.04Q48.39,79.29 48.39,79.8L0,79.8L0,4.2Z" style="stroke: none; fill: rgb(190, 224, 235);"/><path d="M41.69,4.2Q41.69,4.71 41.69,4.96C41.69,5.22 41.69,5.47 41.69,5.73C41.69,5.98 41.69,6.24 41.69,6.49C41.69,6.74 41.69,7 41.69,7.25C41.69,7.51 41.69,7.76 41.69,8.02C41.69,8.27 41.69,8.53 41.69,8.78C41.69,9.04 41.69,9.29 41.69,9.55C41.69,9.8 41.69,10.06 41.69,10.31C41.69,10.56 41.69,10.82 41.69,11.07C41.69,11.33 41.69,11.58 41.69,11.84C41.69,12.09 41.69,12.35 41.69,12.6C41.69,12.85 41.69,13.11 41.69,13.36C41.69,13.62 41.69,13.87 41.69,14.13C41.69,14.38 41.69,14.64 41.69,14.89C41.69,15.14 41.69,15.4 41.69,15.65C41.69,15.91 41.69,16.16 41.69,16.42C41.69,16.67 41.69,16.93 41.69,17.18C41.69,17.44 41.69,17.69 41.69,17.95C41.69,18.2 41.69,18.46 41.69,18.71C41.69,18.96 41.69,19.22 41.69,19.47C41.69,19.73 41.69,19.98 41.69,20.24C41.69,20.49 41.69,20.75 41.69,21C41.69,21.25 41.69,21.51 41.69,21.76C41.69,22.02 41.69,22.27 41.69,22.53C41.69,22.78 41.69,23.04 41.69,23.29C41.69,23.54 41.69,23.8 41.69,24.05C41.69,24.31 41.69,24.56 41.69,24.82C41.69,25.07 41.69,25.33 41.69,25.58C41.69,25.84 41.69,26.09 41.69,26.35C41.69,26.6 41.69,26.86 41.69,27.11C41.69,27.36 41.69,27.62 41.69,27.87C41.69,28.13 41.69,28.38 41.69,28.64C41.69,28.89 41.69,29.15 41.69,29.4C41.69,29.65 41.69,29.91 41.69,30.16C41.69,30.42 41.69,30.67 41.69,30.93C41.69,31.18 41.69,31.44 41.69,31.69C41.69,31.94 41.69,32.2 41.69,32.45C41.69,32.71 41.69,32.96 41.69,33.22C41.69,33.47 41.69,33.73 41.69,33.98C41.69,34.24 41.69,34.49 41.69,34.75C41.69,35 41.69,35.26 41.69,35.51C41.69,35.76 41.69,36.02 41.69,36.27C41.69,36.53 41.69,36.78 41.69,37.04C41.69,37.29 41.69,37.55 41.69,37.8C41.69,38.05 41.69,38.31 41.69,38.56C41.69,38.82 41.69,39.07 41.69,39.33C41.69,39.58 41.69,39.84 41.69,40.09C41.69,40.34 41.69,40.6 41.69,40.85C41.69,41.11 41.69,41.36 41.69,41.62C41.69,41.87 41.69,42.13 41.69,42.38C41.69,42.64 41.69,42.89 41.69,43.15C41.69,43.4 41.69,43.66 41.69,43.91C41.69,44.16 41.69,44.42 41.69,44.67C41.69,44.93 41.69,45.18 41.69,45.44C41.69,45.69 41.69,45.95 41.69,46.2C41.69,46.45 41.69,46.71 41.69,46.96C41.69,47.22 41.69,47.47 41.69,47.73C41.69,47.98 41.69,48.24 41.69,48.49C41.69,48.74 41.69,49 41.69,49.25C41.69,49.51 41.69,49.76 41.69,50.02C41.69,50.27 41.69,50.53 41.69,50.78C41.69,51.04 41.69,51.29 41.69,51.55C41.69,51.8 41.69,52.06 41.69,52.31C41.69,52.56 41.69,52.82 41.69,53.07C41.69,53.33 41.69,53.58 41.69,53.84C41.69,54.09 41.69,54.35 41.69,54.6C41.69,54.85 41.69,55.11 41.69,55.36C41.69,55.62 41.69,55.87 41.69,56.13C41.69,56.38 41.69,56.64 41.69,56.89C41.69,57.14 41.69,57.4 41.69,57.65C41.69,57.91 41.69,58.16 41.69,58.42C41.69,58.67 41.69,58.93 41.69,59.18C41.69,59.44 41.69,59.69 41.69,59.95C41.69,60.2 41.69,60.46 41.69,60.71C41.69,60.96 41.69,61.22 41.69,61.47C41.69,61.73 41.69,61.98 41.69,62.24C41.69,62.49 41.69,62.75 41.69,63C41.69,63.25 41.69,63.51 41.69,63.76C41.69,64.02 41.69,64.27 41.69,64.53C41.69,64.78 41.69,65.04 41.69,65.29C41.69,65.54 41.69,65.8 41.69,66.05C41.69,66.31 41.69,66.56 41.69,66.82C41.69,67.07 41.69,67.33 41.69,67.58C41.69,67.84 41.69,68.09 41.69,68.35C41.69,68.6 41.69,68.86 41.69,69.11C41.69,69.36 41.69,69.62 41.69,69.87C41.69,70.13 41.69,70.38 41.69,70.64C41.69,70.89 41.69,71.15 41.69,71.4C41.69,71.65 41.69,71.91 41.69,72.16C41.69,72.42 41.69,72.67 41.69,72.93C41.69,73.18 41.69,73.44 41.69,73.69C41.69,73.94 41.69,74.2 41.69,74.45C41.69,74.71 41.69,74.96 41.69,75.22C41.69,75.47 41.69,75.73 41.69,75.98C41.69,76.24 41.69,76.49 41.69,76.75C41.69,77 41.69,77.26 41.69,77.51C41.69,77.76 41.69,78.02 41.69,78.27C41.69,78.53 41.69,78.78 41.69,79.04Q41.69,79.29 41.69,79.8L0,79.8L0,4.2Z" style="stroke: none; fill: rgb(199, 228, 238);"/><path d="M36.35,4.2Q36.35,4.71 36.35,4.96C36.35,5.22 36.35,5.47 36.35,5.73C36.35,5.98 36.35,6.24 36.35,6.49C36.35,6.74 36.35,7 36.35,7.25C36.35,7.51 36.35,7.76 36.35,8.02C36.35,8.27 36.35,8.53 36.35,8.78C36.35,9.04 36.35,9.29 36.35,9.55C36.35,9.8 36.35,10.06 36.35,10.31C36.35,10.56 36.35,10.82 36.35,11.07C36.35,11.33 36.35,11.58 36.35,11.84C36.35,12.09 36.35,12.35 36.35,12.6C36.35,12.85 36.35,13.11 36.35,13.36C36.35,13.62 36.35,13.87 36.35,14.13C36.35,14.38 36.35,14.64 36.35,14.89C36.35,15.14 36.35,15.4 36.35,15.65C36.35,15.91 36.35,16.16 36.35,16.42C36.35,16.67 36.35,16.93 36.35,17.18C36.35,17.44 36.35,17.69 36.35,17.95C36.35,18.2 36.35,18.46 36.35,18.71C36.35,18.96 36.35,19.22 36.35,19.47C36.35,19.73 36.35,19.98 36.35,20.24C36.35,20.49 36.35,20.75 36.35,21C36.35,21.25 36.35,21.51 36.35,21.76C36.35,22.02 36.35,22.27 36.35,22.53C36.35,22.78 36.35,23.04 36.35,23.29C36.35,23.54 36.35,23.8 36.35,24.05C36.35,24.31 36.35,24.56 36.35,24.82C36.35,25.07 36.35,25.33 36.35,25.58C36.35,25.84 36.35,26.09 36.35,26.35C36.35,26.6 36.35,26.86 36.35,27.11C36.35,27.36 36.35,27.62 36.35,27.87C36.35,28.13 36.35,28.38 36.35,28.64C36.35,28.89 36.35,29.15 36.35,29.4C36.35,29.65 36.35,29.91 36.35,30.16C36.35,30.42 36.35,30.67 36.35,30.93C36.35,31.18 36.35,31.44 36.35,31.69C36.35,31.94 36.35,32.2 36.35,32.45C36.35,32.71 36.35,32.96 36.35,33.22C36.35,33.47 36.35,33.73 36.35,33.98C36.35,34.24 36.35,34.49 36.35,34.75C36.35,35 36.35,35.26 36.35,35.51C36.35,35.76 36.35,36.02 36.35,36.27C36.35,36.53 36.35,36.78 36.35,37.04C36.35,37.29 36.35,37.55 36.35,37.8C36.35,38.05 36.35,38.31 36.35,38.56C36.35,38.82 36.35,39.07 36.35,39.33C36.35,39.58 36.35,39.84 36.35,40.09C36.35,40.34 36.35,40.6 36.35,40.85C36.35,41.11 36.35,41.36 36.35,41.62C36.35,41.87 36.35,42.13 36.35,42.38C36.35,42.64 36.35,42.89 36.35,43.15C36.35,43.4 36.35,43.66 36.35,43.91C36.35,44.16 36.35,44.42 36.35,44.67C36.35,44.93 36.35,45.18 36.35,45.44C36.35,45.69 36.35,45.95 36.35,46.2C36.35,46.45 36.35,46.71 36.35,46.96C36.35,47.22 36.35,47.47 36.35,47.73C36.35,47.98 36.35,48.24 36.35,48.49C36.35,48.74 36.35,49 36.35,49.25C36.35,49.51 36.35,49.76 36.35,50.02C36.35,50.27 36.35,50.53 36.35,50.78C36.35,51.04 36.35,51.29 36.35,51.55C36.35,51.8 36.35,52.06 36.35,52.31C36.35,52.56 36.35,52.82 36.35,53.07C36.35,53.33 36.35,53.58 36.35,53.84C36.35,54.09 36.35,54.35 36.35,54.6C36.35,54.85 36.35,55.11 36.35,55.36C36.35,55.62 36.35,55.87 36.35,56.13C36.35,56.38 36.35,56.64 36.35,56.89C36.35,57.14 36.35,57.4 36.35,57.65C36.35,57.91 36.35,58.16 36.35,58.42C36.35,58.67 36.35,58.93 36.35,59.18C36.35,59.44 36.35,59.69 36.35,59.95C36.35,60.2 36.35,60.46 36.35,60.71C36.35,60.96 36.35,61.22 36.35,61.47C36.35,61.73 36.35,61.98 36.35,62.24C36.35,62.49 36.35,62.75 36.35,63C36.35,63.25 36.35,63.51 36.35,63.76C36.35,64.02 36.35,64.27 36.35,64.53C36.35,64.78 36.35,65.04 36.35,65.29C36.35,65.54 36.35,65.8 36.35,66.05C36.35,66.31 36.35,66.56 36.35,66.82C36.35,67.07 36.35,67.33 36.35,67.58C36.35,67.84 36.35,68.09 36.35,68.35C36.35,68.6 36.35,68.86 36.35,69.11C36.35,69.36 36.35,69.62 36.35,69.87C36.35,70.13 36.35,70.38 36.35,70.64C36.35,70.89 36.35,71.15 36.35,71.4C36.35,71.65 36.35,71.91 36.35,72.16C36.35,72.42 36.35,72.67 36.35,72.93C36.35,73.18 36.35,73.44 36.35,73.69C36.35,73.94 36.35,74.2 36.35,74.45C36.35,74.71 36.35,74.96 36.35,75.22C36.35,75.47 36.35,75.73 36.35,75.98C36.35,76.24 36.35,76.49 36.35,76.75C36.35,77 36.35,77.26 36.35,77.51C36.35,77.76 36.35,78.02 36.35,78.27C36.35,78.53 36.35,78.78 36.35,79.04Q36.35,79.29 36.35,79.8L0,79.8L0,4.2Z" style="stroke: none; fill: rgb(208, 232, 241);"/><path d="M32.01,4.2Q32.01,4.71 32.01,4.96C32.01,5.22 32.01,5.47 32.01,5.73C32.01,5.98 32.01,6.24 32.01,6.49C32.01,6.74 32.01,7 32.01,7.25C32.01,7.51 32.01,7.76 32.01,8.02C32.01,8.27 32.01,8.53 32.01,8.78C32.01,9.04 32.01,9.29 32.01,9.55C32.01,9.8 32.01,10.06 32.01,10.31C32.01,10.56 32.01,10.82 32.01,11.07C32.01,11.33 32.01,11.58 32.01,11.84C32.01,12.09 32.01,12.35 32.01,12.6C32.01,12.85 32.01,13.11 32.01,13.36C32.01,13.62 32.01,13.87 32.01,14.13C32.01,14.38 32.01,14.64 32.01,14.89C32.01,15.14 32.01,15.4 32.01,15.65C32.01,15.91 32.01,16.16 32.01,16.42C32.01,16.67 32.01,16.93 32.01,17.18C32.01,17.44 32.01,17.69 32.01,17.95C32.01,18.2 32.01,18.46 32.01,18.71C32.01,18.96 32.01,19.22 32.01,19.47C32.01,19.73 32.01,19.98 32.01,20.24C32.01,20.49 32.01,20.75 32.01,21C32.01,21.25 32.01,21.51 32.01,21.76C32.01,22.02 32.01,22.27 32.01,22.53C32.01,22.78 32.01,23.04 32.01,23.29C32.01,23.54 32.01,23.8 32.01,24.05C32.01,24.31 32.01,24.56 32.01,24.82C32.01,25.07 32.01,25.33 32.01,25.58C32.01,25.84 32.01,26.09 32.01,26.35C32.01,26.6 32.01,26.86 32.01,27.11C32.01,27.36 32.01,27.62 32.01,27.87C32.01,28.13 32.01,28.38 32.01,28.64C32.01,28.89 32.01,29.15 32.01,29.4C32.01,29.65 32.01,29.91 32.01,30.16C32.01,30.42 32.01,30.67 32.01,30.93C32.01,31.18 32.01,31.44 32.01,31.69C32.01,31.94 32.01,32.2 32.01,32.45C32.01,32.71 32.01,32.96 32.01,33.22C32.01,33.47 32.01,33.73 32.01,33.98C32.01,34.24 32.01,34.49 32.01,34.75C32.01,35 32.01,35.26 32.01,35.51C32.01,35.76 32.01,36.02 32.01,36.27C32.01,36.53 32.01,36.78 32.01,37.04C32.01,37.29 32.01,37.55 32.01,37.8C32.01,38.05 32.01,38.31 32.01,38.56C32.01,38.82 32.01,39.07 32.01,39.33C32.01,39.58 32.01,39.84 32.01,40.09C32.01,40.34 32.01,40.6 32.01,40.85C32.01,41.11 32.01,41.36 32.01,41.62C32.01,41.87 32.01,42.13 32.01,42.38C32.01,42.64 32.01,42.89 32.01,43.15C32.01,43.4 32.01,43.66 32.01,43.91C32.01,44.16 32.01,44.42 32.01,44.67C32.01,44.93 32.01,45.18 32.01,45.44C32.01,45.69 32.01,45.95 32.01,46.2C32.01,46.45 32.01,46.71 32.01,46.96C32.01,47.22 32.01,47.47 32.01,47.73C32.01,47.98 32.01,48.24 32.01,48.49C32.01,48.74 32.01,49 32.01,49.25C32.01,49.51 32.01,49.76 32.01,50.02C32.01,50.27 32.01,50.53 32.01,50.78C32.01,51.04 32.01,51.29 32.01,51.55C32.01,51.8 32.01,52.06 32.01,52.31C32.01,52.56 32.01,52.82 32.01,53.07C32.01,53.33 32.01,53.58 32.01,53.84C32.01,54.09 32.01,54.35 32.01,54.6C32.01,54.85 32.01,55.11 32.01,55.36C32.01,55.62 32.01,55.87 32.01,56.13C32.01,56.38 32.01,56.64 32.01,56.89C32.01,57.14 32.01,57.4 32.01,57.65C32.01,57.91 32.01,58.16 32.01,58.42C32.01,58.67 32.01,58.93 32.01,59.18C32.01,59.44 32.01,59.69 32.01,59.95C32.01,60.2 32.01,60.46 32.01,60.71C32.01,60.96 32.01,61.22 32.01,61.47C32.01,61.73 32.01,61.98 32.01,62.24C32.01,62.49 32.01,62.75 32.01,63C32.01,63.25 32.01,63.51 32.01,63.76C32.01,64.02 32.01,64.27 32.01,64.53C32.01,64.78 32.01,65.04 32.01,65.29C32.01,65.54 32.01,65.8 32.01,66.05C32.01,66.31 32.01,66.56 32.01,66.82C32.01,67.07 32.01,67.33 32.01,67.58C32.01,67.84 32.01,68.09 32.01,68.35C32.01,68.6 32.01,68.86 32.01,69.11C32.01,69.36 32.01,69.62 32.01,69.87C32.01,70.13 32.01,70.38 32.01,70.64C32.01,70.89 32.01,71.15 32.01,71.4C32.01,71.65 32.01,71.91 32.01,72.16C32.01,72.42 32.01,72.67 32.01,72.93C32.01,73.18 32.01,73.44 32.01,73.69C32.01,73.94 32.01,74.2 32.01,74.45C32.01,74.71 32.01,74.96 32.01,75.22C32.01,75.47 32.01,75.73 32.01,75.98C32.01,76.24 32.01,76.49 32.01,76.75C32.01,77 32.01,77.26 32.01,77.51C32.01,77.76 32.01,78.02 32.01,78.27C32.01,78.53 32.01,78.78 32.01,79.04Q32.01,79.29 32.01,79.8L0,79.8L0,4.2Z" style="stroke: none; fill: rgb(216, 237, 243);"/><path d="M28.4,4.2Q28.4,4.71 28.4,4.96C28.4,5.22 28.4,5.47 28.4,5.73C28.4,5.98 28.4,6.24 28.4,6.49C28.4,6.74 28.4,7 28.4,7.25C28.4,7.51 28.4,7.76 28.4,8.02C28.4,8.27 28.4,8.53 28.4,8.78C28.4,9.04 28.4,9.29 28.4,9.55C28.4,9.8 28.4,10.06 28.4,10.31C28.4,10.56 28.4,10.82 28.4,11.07C28.4,11.33 28.4,11.58 28.4,11.84C28.4,12.09 28.4,12.35 28.4,12.6C28.4,12.85 28.4,13.11 28.4,13.36C28.4,13.62 28.4,13.87 28.4,14.13C28.4,14.38 28.4,14.64 28.4,14.89C28.4,15.14 28.4,15.4 28.4,15.65C28.4,15.91 28.4,16.16 28.4,16.42C28.4,16.67 28.4,16.93 28.4,17.18C28.4,17.44 28.4,17.69 28.4,17.95C28.4,18.2 28.4,18.46 28.4,18.71C28.4,18.96 28.4,19.22 28.4,19.47C28.4,19.73 28.4,19.98 28.4,20.24C28.4,20.49 28.4,20.75 28.4,21C28.4,21.25 28.4,21.51 28.4,21.76C28.4,22.02 28.4,22.27 28.4,22.53C28.4,22.78 28.4,23.04 28.4,23.29C28.4,23.54 28.4,23.8 28.4,24.05C28.4,24.31 28.4,24.56 28.4,24.82C28.4,25.07 28.4,25.33 28.4,25.58C28.4,25.84 28.4,26.09 28.4,26.35C28.4,26.6 28.4,26.86 28.4,27.11C28.4,27.36 28.4,27.62 28.4,27.87C28.4,28.13 28.4,28.38 28.4,28.64C28.4,28.89 28.4,29.15 28.4,29.4C28.4,29.65 28.4,29.91 28.4,30.16C28.4,30.42 28.4,30.67 28.4,30.93C28.4,31.18 28.4,31.44 28.4,31.69C28.4,31.94 28.4,32.2 28.4,32.45C28.4,32.71 28.4,32.96 28.4,33.22C28.4,33.47 28.4,33.73 28.4,33.98C28.4,34.24 28.4,34.49 28.4,34.75C28.4,35 28.4,35.26 28.4,35.51C28.4,35.76 28.4,36.02 28.4,36.27C28.4,36.53 28.4,36.78 28.4,37.04C28.4,37.29 28.4,37.55 28.4,37.8C28.4,38.05 28.4,38.31 28.4,38.56C28.4,38.82 28.4,39.07 28.4,39.33C28.4,39.58 28.4,39.84 28.4,40.09C28.4,40.34 28.4,40.6 28.4,40.85C28.4,41.11 28.4,41.36 28.4,41.62C28.4,41.87 28.4,42.13 28.4,42.38C28.4,42.64 28.4,42.89 28.4,43.15C28.4,43.4 28.4,43.66 28.4,43.91C28.4,44.16 28.4,44.42 28.4,44.67C28.4,44.93 28.4,45.18 28.4,45.44C28.4,45.69 28.4,45.95 28.4,46.2C28.4,46.45 28.4,46.71 28.4,46.96C28.4,47.22 28.4,47.47 28.4,47.73C28.4,47.98 28.4,48.24 28.4,48.49C28.4,48.74 28.4,49 28.4,49.25C28.4,49.51 28.4,49.76 28.4,50.02C28.4,50.27 28.4,50.53 28.4,50.78C28.4,51.04 28.4,51.29 28.4,51.55C28.4,51.8 28.4,52.06 28.4,52.31C28.4,52.56 28.4,52.82 28.4,53.07C28.4,53.33 28.4,53.58 28.4,53.84C28.4,54.09 28.4,54.35 28.4,54.6C28.4,54.85 28.4,55.11 28.4,55.36C28.4,55.62 28.4,55.87 28.4,56.13C28.4,56.38 28.4,56.64 28.4,56.89C28.4,57.14 28.4,57.4 28.4,57.65C28.4,57.91 28.4,58.16 28.4,58.42C28.4,58.67 28.4,58.93 28.4,59.18C28.4,59.44 28.4,59.69 28.4,59.95C28.4,60.2 28.4,60.46 28.4,60.71C28.4,60.96 28.4,61.22 28.4,61.47C28.4,61.73 28.4,61.98 28.4,62.24C28.4,62.49 28.4,62.75 28.4,63C28.4,63.25 28.4,63.51 28.4,63.76C28.4,64.02 28.4,64.27 28.4,64.53C28.4,64.78 28.4,65.04 28.4,65.29C28.4,65.54 28.4,65.8 28.4,66.05C28.4,66.31 28.4,66.56 28.4,66.82C28.4,67.07 28.4,67.33 28.4,67.58C28.4,67.84 28.4,68.09 28.4,68.35C28.4,68.6 28.4,68.86 28.4,69.11C28.4,69.36 28.4,69.62 28.4,69.87C28.4,70.13 28.4,70.38 28.4,70.64C28.4,70.89 28.4,71.15 28.4,71.4C28.4,71.65 28.4,71.91 28.4,72.16C28.4,72.42 28.4,72.67 28.4,72.93C28.4,73.18 28.4,73.44 28.4,73.69C28.4,73.94 28.4,74.2 28.4,74.45C28.4,74.71 28.4,74.96 28.4,75.22C28.4,75.47 28.4,75.73 28.4,75.98C28.4,76.24 28.4,76.49 28.4,76.75C28.4,77 28.4,77.26 28.4,77.51C28.4,77.76 28.4,78.02 28.4,78.27C28.4,78.53 28.4,78.78 28.4,79.04Q28.4,79.29 28.4,79.8L0,79.8L0,4.2Z" style="stroke: none; fill: rgb(225, 241, 246);"/><path d="M25.37,4.2Q25.37,4.71 25.37,4.96C25.37,5.22 25.37,5.47 25.37,5.73C25.37,5.98 25.37,6.24 25.37,6.49C25.37,6.74 25.37,7 25.37,7.25C25.37,7.51 25.37,7.76 25.37,8.02C25.37,8.27 25.37,8.53 25.37,8.78C25.37,9.04 25.37,9.29 25.37,9.55C25.37,9.8 25.37,10.06 25.37,10.31C25.37,10.56 25.37,10.82 25.37,11.07C25.37,11.33 25.37,11.58 25.37,11.84C25.37,12.09 25.37,12.35 25.37,12.6C25.37,12.85 25.37,13.11 25.37,13.36C25.37,13.62 25.37,13.87 25.37,14.13C25.37,14.38 25.37,14.64 25.37,14.89C25.37,15.14 25.37,15.4 25.37,15.65C25.37,15.91 25.37,16.16 25.37,16.42C25.37,16.67 25.37,16.93 25.37,17.18C25.37,17.44 25.37,17.69 25.37,17.95C25.37,18.2 25.37,18.46 25.37,18.71C25.37,18.96 25.37,19.22 25.37,19.47C25.37,19.73 25.37,19.98 25.37,20.24C25.37,20.49 25.37,20.75 25.37,21C25.37,21.25 25.37,21.51 25.37,21.76C25.37,22.02 25.37,22.27 25.37,22.53C25.37,22.78 25.37,23.04 25.37,23.29C25.37,23.54 25.37,23.8 25.37,24.05C25.37,24.31 25.37,24.56 25.37,24.82C25.37,25.07 25.37,25.33 25.37,25.58C25.37,25.84 25.37,26.09 25.37,26.35C25.37,26.6 25.37,26.86 25.37,27.11C25.37,27.36 25.37,27.62 25.37,27.87C25.37,28.13 25.37,28.38 25.37,28.64C25.37,28.89 25.37,29.15 25.37,29.4C25.37,29.65 25.37,29.91 25.37,30.16C25.37,30.42 25.37,30.67 25.37,30.93C25.37,31.18 25.37,31.44 25.37,31.69C25.37,31.94 25.37,32.2 25.37,32.45C25.37,32.71 25.37,32.96 25.37,33.22C25.37,33.47 25.37,33.73 25.37,33.98C25.37,34.24 25.37,34.49 25.37,34.75C25.37,35 25.37,35.26 25.37,35.51C25.37,35.76 25.37,36.02 25.37,36.27C25.37,36.53 25.37,36.78 25.37,37.04C25.37,37.29 25.37,37.55 25.37,37.8C25.37,38.05 25.37,38.31 25.37,38.56C25.37,38.82 25.37,39.07 25.37,39.33C25.37,39.58 25.37,39.84 25.37,40.09C25.37,40.34 25.37,40.6 25.37,40.85C25.37,41.11 25.37,41.36 25.37,41.62C25.37,41.87 25.37,42.13 25.37,42.38C25.37,42.64 25.37,42.89 25.37,43.15C25.37,43.4 25.37,43.66 25.37,43.91C25.37,44.16 25.37,44.42 25.37,44.67C25.37,44.93 25.37,45.18 25.37,45.44C25.37,45.69 25.37,45.95 25.37,46.2C25.37,46.45 25.37,46.71 25.37,46.96C25.37,47.22 25.37,47.47 25.37,47.73C25.37,47.98 25.37,48.24 25.37,48.49C25.37,48.74 25.37,49 25.37,49.25C25.37,49.51 25.37,49.76 25.37,50.02C25.37,50.27 25.37,50.53 25.37,50.78C25.37,51.04 25.37,51.29 25.37,51.55C25.37,51.8 25.37,52.06 25.37,52.31C25.37,52.56 25.37,52.82 25.37,53.07C25.37,53.33 25.37,53.58 25.37,53.84C25.37,54.09 25.37,54.35 25.37,54.6C25.37,54.85 25.37,55.11 25.37,55.36C25.37,55.62 25.37,55.87 25.37,56.13C25.37,56.38 25.37,56.64 25.37,56.89C25.37,57.14 25.37,57.4 25.37,57.65C25.37,57.91 25.37,58.16 25.37,58.42C25.37,58.67 25.37,58.93 25.37,59.18C25.37,59.44 25.37,59.69 25.37,59.95C25.37,60.2 25.37,60.46 25.37,60.71C25.37,60.96 25.37,61.22 25.37,61.47C25.37,61.73 25.37,61.98 25.37,62.24C25.37,62.49 25.37,62.75 25.37,63C25.37,63.25 25.37,63.51 25.37,63.76C25.37,64.02 25.37,64.27 25.37,64.53C25.37,64.78 25.37,65.04 25.37,65.29C25.37,65.54 25.37,65.8 25.37,66.05C25.37,66.31 25.37,66.56 25.37,66.82C25.37,67.07 25.37,67.33 25.37,67.58C25.37,67.84 25.37,68.09 25.37,68.35C25.37,68.6 25.37,68.86 25.37,69.11C25.37,69.36 25.37,69.62 25.37,69.87C25.37,70.13 25.37,70.38 25.37,70.64C25.37,70.89 25.37,71.15 25.37,71.4C25.37,71.65 25.37,71.91 25.37,72.16C25.37,72.42 25.37,72.67 25.37,72.93C25.37,73.18 25.37,73.44 25.37,73.69C25.37,73.94 25.37,74.2 25.37,74.45C25.37,74.71 25.37,74.96 25.37,75.22C25.37,75.47 25.37,75.73 25.37,75.98C25.37,76.24 25.37,76.49 25.37,76.75C25.37,77 25.37,77.26 25.37,77.51C25.37,77.76 25.37,78.02 25.37,78.27C25.37,78.53 25.37,78.78 25.37,79.04Q25.37,79.29 25.37,79.8L0,79.8L0,4.2Z" style="stroke: none; fill: rgb(233, 245, 248);"/><path d="M22.78,4.2Q22.78,4.71 22.78,4.96C22.78,5.22 22.78,5.47 22.78,5.73C22.78,5.98 22.78,6.24 22.78,6.49C22.78,6.74 22.78,7 22.78,7.25C22.78,7.51 22.78,7.76 22.78,8.02C22.78,8.27 22.78,8.53 22.78,8.78C22.78,9.04 22.78,9.29 22.78,9.55C22.78,9.8 22.78,10.06 22.78,10.31C22.78,10.56 22.78,10.82 22.78,11.07C22.78,11.33 22.78,11.58 22.78,11.84C22.78,12.09 22.78,12.35 22.78,12.6C22.78,12.85 22.78,13.11 22.78,13.36C22.78,13.62 22.78,13.87 22.78,14.13C22.78,14.38 22.78,14.64 22.78,14.89C22.78,15.14 22.78,15.4 22.78,15.65C22.78,15.91 22.78,16.16 22.78,16.42C22.78,16.67 22.78,16.93 22.78,17.18C22.78,17.44 22.78,17.69 22.78,17.95C22.78,18.2 22.78,18.46 22.78,18.71C22.78,18.96 22.78,19.22 22.78,19.47C22.78,19.73 22.78,19.98 22.78,20.24C22.78,20.49 22.78,20.75 22.78,21C22.78,21.25 22.78,21.51 22.78,21.76C22.78,22.02 22.78,22.27 22.78,22.53C22.78,22.78 22.78,23.04 22.78,23.29C22.78,23.54 22.78,23.8 22.78,24.05C22.78,24.31 22.78,24.56 22.78,24.82C22.78,25.07 22.78,25.33 22.78,25.58C22.78,25.84 22.78,26.09 22.78,26.35C22.78,26.6 22.78,26.86 22.78,27.11C22.78,27.36 22.78,27.62 22.78,27.87C22.78,28.13 22.78,28.38 22.78,28.64C22.78,28.89 22.78,29.15 22.78,29.4C22.78,29.65 22.78,29.91 22.78,30.16C22.78,30.42 22.78,30.67 22.78,30.93C22.78,31.18 22.78,31.44 22.78,31.69C22.78,31.94 22.78,32.2 22.78,32.45C22.78,32.71 22.78,32.96 22.78,33.22C22.78,33.47 22.78,33.73 22.78,33.98C22.78,34.24 22.78,34.49 22.78,34.75C22.78,35 22.78,35.26 22.78,35.51C22.78,35.76 22.78,36.02 22.78,36.27C22.78,36.53 22.78,36.78 22.78,37.04C22.78,37.29 22.78,37.55 22.78,37.8C22.78,38.05 22.78,38.31 22.78,38.56C22.78,38.82 22.78,39.07 22.78,39.33C22.78,39.58 22.78,39.84 22.78,40.09C22.78,40.34 22.78,40.6 22.78,40.85C22.78,41.11 22.78,41.36 22.78,41.62C22.78,41.87 22.78,42.13 22.78,42.38C22.78,42.64 22.78,42.89 22.78,43.15C22.78,43.4 22.78,43.66 22.78,43.91C22.78,44.16 22.78,44.42 22.78,44.67C22.78,44.93 22.78,45.18 22.78,45.44C22.78,45.69 22.78,45.95 22.78,46.2C22.78,46.45 22.78,46.71 22.78,46.96C22.78,47.22 22.78,47.47 22.78,47.73C22.78,47.98 22.78,48.24 22.78,48.49C22.78,48.74 22.78,49 22.78,49.25C22.78,49.51 22.78,49.76 22.78,50.02C22.78,50.27 22.78,50.53 22.78,50.78C22.78,51.04 22.78,51.29 22.78,51.55C22.78,51.8 22.78,52.06 22.78,52.31C22.78,52.56 22.78,52.82 22.78,53.07C22.78,53.33 22.78,53.58 22.78,53.84C22.78,54.09 22.78,54.35 22.78,54.6C22.78,54.85 22.78,55.11 22.78,55.36C22.78,55.62 22.78,55.87 22.78,56.13C22.78,56.38 22.78,56.64 22.78,56.89C22.78,57.14 22.78,57.4 22.78,57.65C22.78,57.91 22.78,58.16 22.78,58.42C22.78,58.67 22.78,58.93 22.78,59.18C22.78,59.44 22.78,59.69 22.78,59.95C22.78,60.2 22.78,60.46 22.78,60.71C22.78,60.96 22.78,61.22 22.78,61.47C22.78,61.73 22.78,61.98 22.78,62.24C22.78,62.49 22.78,62.75 22.78,63C22.78,63.25 22.78,63.51 22.78,63.76C22.78,64.02 22.78,64.27 22.78,64.53C22.78,64.78 22.78,65.04 22.78,65.29C22.78,65.54 22.78,65.8 22.78,66.05C22.78,66.31 22.78,66.56 22.78,66.82C22.78,67.07 22.78,67.33 22.78,67.58C22.78,67.84 22.78,68.09 22.78,68.35C22.78,68.6 22.78,68.86 22.78,69.11C22.78,69.36 22.78,69.62 22.78,69.87C22.78,70.13 22.78,70.38 22.78,70.64C22.78,70.89 22.78,71.15 22.78,71.4C22.78,71.65 22.78,71.91 22.78,72.16C22.78,72.42 22.78,72.67 22.78,72.93C22.78,73.18 22.78,73.44 22.78,73.69C22.78,73.94 22.78,74.2 22.78,74.45C22.78,74.71 22.78,74.96 22.78,75.22C22.78,75.47 22.78,75.73 22.78,75.98C22.78,76.24 22.78,76.49 22.78,76.75C22.78,77 22.78,77.26 22.78,77.51C22.78,77.76 22.78,78.02 22.78,78.27C22.78,78.53 22.78,78.78 22.78,79.04Q22.78,79.29 22.78,79.8L0,79.8L0,4.2Z" style="stroke: none; fill: rgb(242, 249, 251);"/><path d="M20.56,4.2Q20.56,4.71 20.56,4.96C20.56,5.22 20.56,5.47 20.56,5.73C20.56,5.98 20.56,6.24 20.56,6.49C20.56,6.74 20.56,7 20.56,7.25C20.56,7.51 20.56,7.76 20.56,8.02C20.56,8.27 20.56,8.53 20.56,8.78C20.56,9.04 20.56,9.29 20.56,9.55C20.56,9.8 20.56,10.06 20.56,10.31C20.56,10.56 20.56,10.82 20.56,11.07C20.56,11.33 20.56,11.58 20.56,11.84C20.56,12.09 20.56,12.35 20.56,12.6C20.56,12.85 20.56,13.11 20.56,13.36C20.56,13.62 20.56,13.87 20.56,14.13C20.56,14.38 20.56,14.64 20.56,14.89C20.56,15.14 20.56,15.4 20.56,15.65C20.56,15.91 20.56,16.16 20.56,16.42C20.56,16.67 20.56,16.93 20.56,17.18C20.56,17.44 20.56,17.69 20.56,17.95C20.56,18.2 20.56,18.46 20.56,18.71C20.56,18.96 20.56,19.22 20.56,19.47C20.56,19.73 20.56,19.98 20.56,20.24C20.56,20.49 20.56,20.75 20.56,21C20.56,21.25 20.56,21.51 20.56,21.76C20.56,22.02 20.56,22.27 20.56,22.53C20.56,22.78 20.56,23.04 20.56,23.29C20.56,23.54 20.56,23.8 20.56,24.05C20.56,24.31 20.56,24.56 20.56,24.82C20.56,25.07 20.56,25.33 20.56,25.58C20.56,25.84 20.56,26.09 20.56,26.35C20.56,26.6 20.56,26.86 20.56,27.11C20.56,27.36 20.56,27.62 20.56,27.87C20.56,28.13 20.56,28.38 20.56,28.64C20.56,28.89 20.56,29.15 20.56,29.4C20.56,29.65 20.56,29.91 20.56,30.16C20.56,30.42 20.56,30.67 20.56,30.93C20.56,31.18 20.56,31.44 20.56,31.69C20.56,31.94 20.56,32.2 20.56,32.45C20.56,32.71 20.56,32.96 20.56,33.22C20.56,33.47 20.56,33.73 20.56,33.98C20.56,34.24 20.56,34.49 20.56,34.75C20.56,35 20.56,35.26 20.56,35.51C20.56,35.76 20.56,36.02 20.56,36.27C20.56,36.53 20.56,36.78 20.56,37.04C20.56,37.29 20.56,37.55 20.56,37.8C20.56,38.05 20.56,38.31 20.56,38.56C20.56,38.82 20.56,39.07 20.56,39.33C20.56,39.58 20.56,39.84 20.56,40.09C20.56,40.34 20.56,40.6 20.56,40.85C20.56,41.11 20.56,41.36 20.56,41.62C20.56,41.87 20.56,42.13 20.56,42.38C20.56,42.64 20.56,42.89 20.56,43.15C20.56,43.4 20.56,43.66 20.56,43.91C20.56,44.16 20.56,44.42 20.56,44.67C20.56,44.93 20.56,45.18 20.56,45.44C20.56,45.69 20.56,45.95 20.56,46.2C20.56,46.45 20.56,46.71 20.56,46.96C20.56,47.22 20.56,47.47 20.56,47.73C20.56,47.98 20.56,48.24 20.56,48.49C20.56,48.74 20.56,49 20.56,49.25C20.56,49.51 20.56,49.76 20.56,50.02C20.56,50.27 20.56,50.53 20.56,50.78C20.56,51.04 20.56,51.29 20.56,51.55C20.56,51.8 20.56,52.06 20.56,52.31C20.56,52.56 20.56,52.82 20.56,53.07C20.56,53.33 20.56,53.58 20.56,53.84C20.56,54.09 20.56,54.35 20.56,54.6C20.56,54.85 20.56,55.11 20.56,55.36C20.56,55.62 20.56,55.87 20.56,56.13C20.56,56.38 20.56,56.64 20.56,56.89C20.56,57.14 20.56,57.4 20.56,57.65C20.56,57.91 20.56,58.16 20.56,58.42C20.56,58.67 20.56,58.93 20.56,59.18C20.56,59.44 20.56,59.69 20.56,59.95C20.56,60.2 20.56,60.46 20.56,60.71C20.56,60.96 20.56,61.22 20.56,61.47C20.56,61.73 20.56,61.98 20.56,62.24C20.56,62.49 20.56,62.75 20.56,63C20.56,63.25 20.56,63.51 20.56,63.76C20.56,64.02 20.56,64.27 20.56,64.53C20.56,64.78 20.56,65.04 20.56,65.29C20.56,65.54 20.56,65.8 20.56,66.05C20.56,66.31 20.56,66.56 20.56,66.82C20.56,67.07 20.56,67.33 20.56,67.58C20.56,67.84 20.56,68.09 20.56,68.35C20.56,68.6 20.56,68.86 20.56,69.11C20.56,69.36 20.56,69.62 20.56,69.87C20.56,70.13 20.56,70.38 20.56,70.64C20.56,70.89 20.56,71.15 20.56,71.4C20.56,71.65 20.56,71.91 20.56,72.16C20.56,72.42 20.56,72.67 20.56,72.93C20.56,73.18 20.56,73.44 20.56,73.69C20.56,73.94 20.56,74.2 20.56,74.45C20.56,74.71 20.56,74.96 20.56,75.22C20.56,75.47 20.56,75.73 20.56,75.98C20.56,76.24 20.56,76.49 20.56,76.75C20.56,77 20.56,77.26 20.56,77.51C20.56,77.76 20.56,78.02 20.56,78.27C20.56,78.53 20.56,78.78 20.56,79.04Q20.56,79.29 20.56,79.8L0,79.8L0,4.2Z" style="stroke: none; fill: rgb(251, 253, 254);"/><path d="M18.62,4.2Q18.62,4.71 18.62,4.96C18.62,5.22 18.62,5.47 18.62,5.73C18.62,5.98 18.62,6.24 18.62,6.49C18.62,6.74 18.62,7 18.62,7.25C18.62,7.51 18.62,7.76 18.62,8.02C18.62,8.27 18.62,8.53 18.62,8.78C18.62,9.04 18.62,9.29 18.62,9.55C18.62,9.8 18.62,10.06 18.62,10.31C18.62,10.56 18.62,10.82 18.62,11.07C18.62,11.33 18.62,11.58 18.62,11.84C18.62,12.09 18.62,12.35 18.62,12.6C18.62,12.85 18.62,13.11 18.62,13.36C18.62,13.62 18.62,13.87 18.62,14.13C18.62,14.38 18.62,14.64 18.62,14.89C18.62,15.14 18.62,15.4 18.62,15.65C18.62,15.91 18.62,16.16 18.62,16.42C18.62,16.67 18.62,16.93 18.62,17.18C18.62,17.44 18.62,17.69 18.62,17.95C18.62,18.2 18.62,18.46 18.62,18.71C18.62,18.96 18.62,19.22 18.62,19.47C18.62,19.73 18.62,19.98 18.62,20.24C18.62,20.49 18.62,20.75 18.62,21C18.62,21.25 18.62,21.51 18.62,21.76C18.62,22.02 18.62,22.27 18.62,22.53C18.62,22.78 18.62,23.04 18.62,23.29C18.62,23.54 18.62,23.8 18.62,24.05C18.62,24.31 18.62,24.56 18.62,24.82C18.62,25.07 18.62,25.33 18.62,25.58C18.62,25.84 18.62,26.09 18.62,26.35C18.62,26.6 18.62,26.86 18.62,27.11C18.62,27.36 18.62,27.62 18.62,27.87C18.62,28.13 18.62,28.38 18.62,28.64C18.62,28.89 18.62,29.15 18.62,29.4C18.62,29.65 18.62,29.91 18.62,30.16C18.62,30.42 18.62,30.67 18.62,30.93C18.62,31.18 18.62,31.44 18.62,31.69C18.62,31.94 18.62,32.2 18.62,32.45C18.62,32.71 18.62,32.96 18.62,33.22C18.62,33.47 18.62,33.73 18.62,33.98C18.62,34.24 18.62,34.49 18.62,34.75C18.62,35 18.62,35.26 18.62,35.51C18.62,35.76 18.62,36.02 18.62,36.27C18.62,36.53 18.62,36.78 18.62,37.04C18.62,37.29 18.62,37.55 18.62,37.8C18.62,38.05 18.62,38.31 18.62,38.56C18.62,38.82 18.62,39.07 18.62,39.33C18.62,39.58 18.62,39.84 18.62,40.09C18.62,40.34 18.62,40.6 18.62,40.85C18.62,41.11 18.62,41.36 18.62,41.62C18.62,41.87 18.62,42.13 18.62,42.38C18.62,42.64 18.62,42.89 18.62,43.15C18.62,43.4 18.62,43.66 18.62,43.91C18.62,44.16 18.62,44.42 18.62,44.67C18.62,44.93 18.62,45.18 18.62,45.44C18.62,45.69 18.62,45.95 18.62,46.2C18.62,46.45 18.62,46.71 18.62,46.96C18.62,47.22 18.62,47.47 18.62,47.73C18.62,47.98 18.62,48.24 18.62,48.49C18.62,48.74 18.62,49 18.62,49.25C18.62,49.51 18.62,49.76 18.62,50.02C18.62,50.27 18.62,50.53 18.62,50.78C18.62,51.04 18.62,51.29 18.62,51.55C18.62,51.8 18.62,52.06 18.62,52.31C18.62,52.56 18.62,52.82 18.62,53.07C18.62,53.33 18.62,53.58 18.62,53.84C18.62,54.09 18.62,54.35 18.62,54.6C18.62,54.85 18.62,55.11 18.62,55.36C18.62,55.62 18.62,55.87 18.62,56.13C18.62,56.38 18.62,56.64 18.62,56.89C18.62,57.14 18.62,57.4 18.62,57.65C18.62,57.91 18.62,58.16 18.62,58.42C18.62,58.67 18.62,58.93 18.62,59.18C18.62,59.44 18.62,59.69 18.62,59.95C18.62,60.2 18.62,60.46 18.62,60.71C18.62,60.96 18.62,61.22 18.62,61.47C18.62,61.73 18.62,61.98 18.62,62.24C18.62,62.49 18.62,62.75 18.62,63C18.62,63.25 18.62,63.51 18.62,63.76C18.62,64.02 18.62,64.27 18.62,64.53C18.62,64.78 18.62,65.04 18.62,65.29C18.62,65.54 18.62,65.8 18.62,66.05C18.62,66.31 18.62,66.56 18.62,66.82C18.62,67.07 18.62,67.33 18.62,67.58C18.62,67.84 18.62,68.09 18.62,68.35C18.62,68.6 18.62,68.86 18.62,69.11C18.62,69.36 18.62,69.62 18.62,69.87C18.62,70.13 18.62,70.38 18.62,70.64C18.62,70.89 18.62,71.15 18.62,71.4C18.62,71.65 18.62,71.91 18.62,72.16C18.62,72.42 18.62,72.67 18.62,72.93C18.62,73.18 18.62,73.44 18.62,73.69C18.62,73.94 18.62,74.2 18.62,74.45C18.62,74.71 18.62,74.96 18.62,75.22C18.62,75.47 18.62,75.73 18.62,75.98C18.62,76.24 18.62,76.49 18.62,76.75C18.62,77 18.62,77.26 18.62,77.51C18.62,77.76 18.62,78.02 18.62,78.27C18.62,78.53 18.62,78.78 18.62,79.04Q18.62,79.29 18.62,79.8L0,79.8L0,4.2Z" style="stroke: none; fill: rgb(255, 250, 248);"/><path d="M16.92,4.2Q16.92,4.71 16.92,4.96C16.92,5.22 16.92,5.47 16.92,5.73C16.92,5.98 16.92,6.24 16.92,6.49C16.92,6.74 16.92,7 16.92,7.25C16.92,7.51 16.92,7.76 16.92,8.02C16.92,8.27 16.92,8.53 16.92,8.78C16.92,9.04 16.92,9.29 16.92,9.55C16.92,9.8 16.92,10.06 16.92,10.31C16.92,10.56 16.92,10.82 16.92,11.07C16.92,11.33 16.92,11.58 16.92,11.84C16.92,12.09 16.92,12.35 16.92,12.6C16.92,12.85 16.92,13.11 16.92,13.36C16.92,13.62 16.92,13.87 16.92,14.13C16.92,14.38 16.92,14.64 16.92,14.89C16.92,15.14 16.92,15.4 16.92,15.65C16.92,15.91 16.92,16.16 16.92,16.42C16.92,16.67 16.92,16.93 16.92,17.18C16.92,17.44 16.92,17.69 16.92,17.95C16.92,18.2 16.92,18.46 16.92,18.71C16.92,18.96 16.92,19.22 16.92,19.47C16.92,19.73 16.92,19.98 16.92,20.24C16.92,20.49 16.92,20.75 16.92,21C16.92,21.25 16.92,21.51 16.92,21.76C16.92,22.02 16.92,22.27 16.92,22.53C16.92,22.78 16.92,23.04 16.92,23.29C16.92,23.54 16.92,23.8 16.92,24.05C16.92,24.31 16.92,24.56 16.92,24.82C16.92,25.07 16.92,25.33 16.92,25.58C16.92,25.84 16.92,26.09 16.92,26.35C16.92,26.6 16.92,26.86 16.92,27.11C16.92,27.36 16.92,27.62 16.92,27.87C16.92,28.13 16.92,28.38 16.92,28.64C16.92,28.89 16.92,29.15 16.92,29.4C16.92,29.65 16.92,29.91 16.92,30.16C16.92,30.42 16.92,30.67 16.92,30.93C16.92,31.18 16.92,31.44 16.92,31.69C16.92,31.94 16.92,32.2 16.92,32.45C16.92,32.71 16.92,32.96 16.92,33.22C16.92,33.47 16.92,33.73 16.92,33.98C16.92,34.24 16.92,34.49 16.92,34.75C16.92,35 16.92,35.26 16.92,35.51C16.92,35.76 16.92,36.02 16.92,36.27C16.92,36.53 16.92,36.78 16.92,37.04C16.92,37.29 16.92,37.55 16.92,37.8C16.92,38.05 16.92,38.31 16.92,38.56C16.92,38.82 16.92,39.07 16.92,39.33C16.92,39.58 16.92,39.84 16.92,40.09C16.92,40.34 16.92,40.6 16.92,40.85C16.92,41.11 16.92,41.36 16.92,41.62C16.92,41.87 16.92,42.13 16.92,42.38C16.92,42.64 16.92,42.89 16.92,43.15C16.92,43.4 16.92,43.66 16.92,43.91C16.92,44.16 16.92,44.42 16.92,44.67C16.92,44.93 16.92,45.18 16.92,45.44C16.92,45.69 16.92,45.95 16.92,46.2C16.92,46.45 16.92,46.71 16.92,46.96C16.92,47.22 16.92,47.47 16.92,47.73C16.92,47.98 16.92,48.24 16.92,48.49C16.92,48.74 16.92,49 16.92,49.25C16.92,49.51 16.92,49.76 16.92,50.02C16.92,50.27 16.92,50.53 16.92,50.78C16.92,51.04 16.92,51.29 16.92,51.55C16.92,51.8 16.92,52.06 16.92,52.31C16.92,52.56 16.92,52.82 16.92,53.07C16.92,53.33 16.92,53.58 16.92,53.84C16.92,54.09 16.92,54.35 16.92,54.6C16.92,54.85 16.92,55.11 16.92,55.36C16.92,55.62 16.92,55.87 16.92,56.13C16.92,56.38 16.92,56.64 16.92,56.89C16.92,57.14 16.92,57.4 16.92,57.65C16.92,57.91 16.92,58.16 16.92,58.42C16.92,58.67 16.92,58.93 16.92,59.18C16.92,59.44 16.92,59.69 16.92,59.95C16.92,60.2 16.92,60.46 16.92,60.71C16.92,60.96 16.92,61.22 16.92,61.47C16.92,61.73 16.92,61.98 16.92,62.24C16.92,62.49 16.92,62.75 16.92,63C16.92,63.25 16.92,63.51 16.92,63.76C16.92,64.02 16.92,64.27 16.92,64.53C16.92,64.78 16.92,65.04 16.92,65.29C16.92,65.54 16.92,65.8 16.92,66.05C16.92,66.31 16.92,66.56 16.92,66.82C16.92,67.07 16.92,67.33 16.92,67.58C16.92,67.84 16.92,68.09 16.92,68.35C16.92,68.6 16.92,68.86 16.92,69.11C16.92,69.36 16.92,69.62 16.92,69.87C16.92,70.13 16.92,70.38 16.92,70.64C16.92,70.89 16.92,71.15 16.92,71.4C16.92,71.65 16.92,71.91 16.92,72.16C16.92,72.42 16.92,72.67 16.92,72.93C16.92,73.18 16.92,73.44 16.92,73.69C16.92,73.94 16.92,74.2 16.92,74.45C16.92,74.71 16.92,74.96 16.92,75.22C16.92,75.47 16.92,75.73 16.92,75.98C16.92,76.24 16.92,76.49 16.92,76.75C16.92,77 16.92,77.26 16.92,77.51C16.92,77.76 16.92,78.02 16.92,78.27C16.92,78.53 16.92,78.78 16.92,79.04Q16.92,79.29 16.92,79.8L0,79.8L0,4.2Z" style="stroke: none; fill: rgb(255, 240, 234);"/><path d="M15.43,4.2Q15.43,4.71 15.43,4.96C15.43,5.22 15.43,5.47 15.43,5.73C15.43,5.98 15.43,6.24 15.43,6.49C15.43,6.74 15.43,7 15.43,7.25C15.43,7.51 15.43,7.76 15.43,8.02C15.43,8.27 15.43,8.53 15.43,8.78C15.43,9.04 15.43,9.29 15.43,9.55C15.43,9.8 15.43,10.06 15.43,10.31C15.43,10.56 15.43,10.82 15.43,11.07C15.43,11.33 15.43,11.58 15.43,11.84C15.43,12.09 15.43,12.35 15.43,12.6C15.43,12.85 15.43,13.11 15.43,13.36C15.43,13.62 15.43,13.87 15.43,14.13C15.43,14.38 15.43,14.64 15.43,14.89C15.43,15.14 15.43,15.4 15.43,15.65C15.43,15.91 15.43,16.16 15.43,16.42C15.43,16.67 15.43,16.93 15.43,17.18C15.43,17.44 15.43,17.69 15.43,17.95C15.43,18.2 15.43,18.46 15.43,18.71C15.43,18.96 15.43,19.22 15.43,19.47C15.43,19.73 15.43,19.98 15.43,20.24C15.43,20.49 15.43,20.75 15.43,21C15.43,21.25 15.43,21.51 15.43,21.76C15.43,22.02 15.43,22.27 15.43,22.53C15.43,22.78 15.43,23.04 15.43,23.29C15.43,23.54 15.43,23.8 15.43,24.05C15.43,24.31 15.43,24.56 15.43,24.82C15.43,25.07 15.43,25.33 15.43,25.58C15.43,25.84 15.43,26.09 15.43,26.35C15.43,26.6 15.43,26.86 15.43,27.11C15.43,27.36 15.43,27.62 15.43,27.87C15.43,28.13 15.43,28.38 15.43,28.64C15.43,28.89 15.43,29.15 15.43,29.4C15.43,29.65 15.43,29.91 15.43,30.16C15.43,30.42 15.43,30.67 15.43,30.93C15.43,31.18 15.43,31.44 15.43,31.69C15.43,31.94 15.43,32.2 15.43,32.45C15.43,32.71 15.43,32.96 15.43,33.22C15.43,33.47 15.43,33.73 15.43,33.98C15.43,34.24 15.43,34.49 15.43,34.75C15.43,35 15.43,35.26 15.43,35.51C15.43,35.76 15.43,36.02 15.43,36.27C15.43,36.53 15.43,36.78 15.43,37.04C15.43,37.29 15.43,37.55 15.43,37.8C15.43,38.05 15.43,38.31 15.43,38.56C15.43,38.82 15.43,39.07 15.43,39.33C15.43,39.58 15.43,39.84 15.43,40.09C15.43,40.34 15.43,40.6 15.43,40.85C15.43,41.11 15.43,41.36 15.43,41.62C15.43,41.87 15.43,42.13 15.43,42.38C15.43,42.64 15.43,42.89 15.43,43.15C15.43,43.4 15.43,43.66 15.43,43.91C15.43,44.16 15.43,44.42 15.43,44.67C15.43,44.93 15.43,45.18 15.43,45.44C15.43,45.69 15.43,45.95 15.43,46.2C15.43,46.45 15.43,46.71 15.43,46.96C15.43,47.22 15.43,47.47 15.43,47.73C15.43,47.98 15.43,48.24 15.43,48.49C15.43,48.74 15.43,49 15.43,49.25C15.43,49.51 15.43,49.76 15.43,50.02C15.43,50.27 15.43,50.53 15.43,50.78C15.43,51.04 15.43,51.29 15.43,51.55C15.43,51.8 15.43,52.06 15.43,52.31C15.43,52.56 15.43,52.82 15.43,53.07C15.43,53.33 15.43,53.58 15.43,53.84C15.43,54.09 15.43,54.35 15.43,54.6C15.43,54.85 15.43,55.11 15.43,55.36C15.43,55.62 15.43,55.87 15.43,56.13C15.43,56.38 15.43,56.64 15.43,56.89C15.43,57.14 15.43,57.4 15.43,57.65C15.43,57.91 15.43,58.16 15.43,58.42C15.43,58.67 15.43,58.93 15.43,59.18C15.43,59.44 15.43,59.69 15.43,59.95C15.43,60.2 15.43,60.46 15.43,60.71C15.43,60.96 15.43,61.22 15.43,61.47C15.43,61.73 15.43,61.98 15.43,62.24C15.43,62.49 15.43,62.75 15.43,63C15.43,63.25 15.43,63.51 15.43,63.76C15.43,64.02 15.43,64.27 15.43,64.53C15.43,64.78 15.43,65.04 15.43,65.29C15.43,65.54 15.43,65.8 15.43,66.05C15.43,66.31 15.43,66.56 15.43,66.82C15.43,67.07 15.43,67.33 15.43,67.58C15.43,67.84 15.43,68.09 15.43,68.35C15.43,68.6 15.43,68.86 15.43,69.11C15.43,69.36 15.43,69.62 15.43,69.87C15.43,70.13 15.43,70.38 15.43,70.64C15.43,70.89 15.43,71.15 15.43,71.4C15.43,71.65 15.43,71.91 15.43,72.16C15.43,72.42 15.43,72.67 15.43,72.93C15.43,73.18 15.43,73.44 15.43,73.69C15.43,73.94 15.43,74.2 15.43,74.45C15.43,74.71 15.43,74.96 15.43,75.22C15.43,75.47 15.43,75.73 15.43,75.98C15.43,76.24 15.43,76.49 15.43,76.75C15.43,77 15.43,77.26 15.43,77.51C15.43,77.76 15.43,78.02 15.43,78.27C15.43,78.53 15.43,78.78 15.43,79.04Q15.43,79.29 15.43,79.8L0,79.8L0,4.2Z" style="stroke: none; fill: rgb(255, 230, 220);"/><path d="M14.1,4.2Q14.1,4.71 14.1,4.96C14.1,5.22 14.1,5.47 14.1,5.73C14.1,5.98 14.1,6.24 14.1,6.49C14.1,6.74 14.1,7 14.1,7.25C14.1,7.51 14.1,7.76 14.1,8.02C14.1,8.27 14.1,8.53 14.1,8.78C14.1,9.04 14.1,9.29 14.1,9.55C14.1,9.8 14.1,10.06 14.1,10.31C14.1,10.56 14.1,10.82 14.1,11.07C14.1,11.33 14.1,11.58 14.1,11.84C14.1,12.09 14.1,12.35 14.1,12.6C14.1,12.85 14.1,13.11 14.1,13.36C14.1,13.62 14.1,13.87 14.1,14.13C14.1,14.38 14.1,14.64 14.1,14.89C14.1,15.14 14.1,15.4 14.1,15.65C14.1,15.91 14.1,16.16 14.1,16.42C14.1,16.67 14.1,16.93 14.1,17.18C14.1,17.44 14.1,17.69 14.1,17.95C14.1,18.2 14.1,18.46 14.1,18.71C14.1,18.96 14.1,19.22 14.1,19.47C14.1,19.73 14.1,19.98 14.1,20.24C14.1,20.49 14.1,20.75 14.1,21C14.1,21.25 14.1,21.51 14.1,21.76C14.1,22.02 14.1,22.27 14.1,22.53C14.1,22.78 14.1,23.04 14.1,23.29C14.1,23.54 14.1,23.8 14.1,24.05C14.1,24.31 14.1,24.56 14.1,24.82C14.1,25.07 14.1,25.33 14.1,25.58C14.1,25.84 14.1,26.09 14.1,26.35C14.1,26.6 14.1,26.86 14.1,27.11C14.1,27.36 14.1,27.62 14.1,27.87C14.1,28.13 14.1,28.38 14.1,28.64C14.1,28.89 14.1,29.15 14.1,29.4C14.1,29.65 14.1,29.91 14.1,30.16C14.1,30.42 14.1,30.67 14.1,30.93C14.1,31.18 14.1,31.44 14.1,31.69C14.1,31.94 14.1,32.2 14.1,32.45C14.1,32.71 14.1,32.96 14.1,33.22C14.1,33.47 14.1,33.73 14.1,33.98C14.1,34.24 14.1,34.49 14.1,34.75C14.1,35 14.1,35.26 14.1,35.51C14.1,35.76 14.1,36.02 14.1,36.27C14.1,36.53 14.1,36.78 14.1,37.04C14.1,37.29 14.1,37.55 14.1,37.8C14.1,38.05 14.1,38.31 14.1,38.56C14.1,38.82 14.1,39.07 14.1,39.33C14.1,39.58 14.1,39.84 14.1,40.09C14.1,40.34 14.1,40.6 14.1,40.85C14.1,41.11 14.1,41.36 14.1,41.62C14.1,41.87 14.1,42.13 14.1,42.38C14.1,42.64 14.1,42.89 14.1,43.15C14.1,43.4 14.1,43.66 14.1,43.91C14.1,44.16 14.1,44.42 14.1,44.67C14.1,44.93 14.1,45.18 14.1,45.44C14.1,45.69 14.1,45.95 14.1,46.2C14.1,46.45 14.1,46.71 14.1,46.96C14.1,47.22 14.1,47.47 14.1,47.73C14.1,47.98 14.1,48.24 14.1,48.49C14.1,48.74 14.1,49 14.1,49.25C14.1,49.51 14.1,49.76 14.1,50.02C14.1,50.27 14.1,50.53 14.1,50.78C14.1,51.04 14.1,51.29 14.1,51.55C14.1,51.8 14.1,52.06 14.1,52.31C14.1,52.56 14.1,52.82 14.1,53.07C14.1,53.33 14.1,53.58 14.1,53.84C14.1,54.09 14.1,54.35 14.1,54.6C14.1,54.85 14.1,55.11 14.1,55.36C14.1,55.62 14.1,55.87 14.1,56.13C14.1,56.38 14.1,56.64 14.1,56.89C14.1,57.14 14.1,57.4 14.1,57.65C14.1,57.91 14.1,58.16 14.1,58.42C14.1,58.67 14.1,58.93 14.1,59.18C14.1,59.44 14.1,59.69 14.1,59.95C14.1,60.2 14.1,60.46 14.1,60.71C14.1,60.96 14.1,61.22 14.1,61.47C14.1,61.73 14.1,61.98 14.1,62.24C14.1,62.49 14.1,62.75 14.1,63C14.1,63.25 14.1,63.51 14.1,63.76C14.1,64.02 14.1,64.27 14.1,64.53C14.1,64.78 14.1,65.04 14.1,65.29C14.1,65.54 14.1,65.8 14.1,66.05C14.1,66.31 14.1,66.56 14.1,66.82C14.1,67.07 14.1,67.33 14.1,67.58C14.1,67.84 14.1,68.09 14.1,68.35C14.1,68.6 14.1,68.86 14.1,69.11C14.1,69.36 14.1,69.62 14.1,69.87C14.1,70.13 14.1,70.38 14.1,70.64C14.1,70.89 14.1,71.15 14.1,71.4C14.1,71.65 14.1,71.91 14.1,72.16C14.1,72.42 14.1,72.67 14.1,72.93C14.1,73.18 14.1,73.44 14.1,73.69C14.1,73.94 14.1,74.2 14.1,74.45C14.1,74.71 14.1,74.96 14.1,75.22C14.1,75.47 14.1,75.73 14.1,75.98C14.1,76.24 14.1,76.49 14.1,76.75C14.1,77 14.1,77.26 14.1,77.51C14.1,77.76 14.1,78.02 14.1,78.27C14.1,78.53 14.1,78.78 14.1,79.04Q14.1,79.29 14.1,79.8L0,79.8L0,4.2Z" style="stroke: none; fill: rgb(255, 220, 206);"/><path d="M12.91,4.2Q12.91,4.71 12.91,4.96C12.91,5.22 12.91,5.47 12.91,5.73C12.91,5.98 12.91,6.24 12.91,6.49C12.91,6.74 12.91,7 12.91,7.25C12.91,7.51 12.91,7.76 12.91,8.02C12.91,8.27 12.91,8.53 12.91,8.78C12.91,9.04 12.91,9.29 12.91,9.55C12.91,9.8 12.91,10.06 12.91,10.31C12.91,10.56 12.91,10.82 12.91,11.07C12.91,11.33 12.91,11.58 12.91,11.84C12.91,12.09 12.91,12.35 12.91,12.6C12.91,12.85 12.91,13.11 12.91,13.36C12.91,13.62 12.91,13.87 12.91,14.13C12.91,14.38 12.91,14.64 12.91,14.89C12.91,15.14 12.91,15.4 12.91,15.65C12.91,15.91 12.91,16.16 12.91,16.42C12.91,16.67 12.91,16.93 12.91,17.18C12.91,17.44 12.91,17.69 12.91,17.95C12.91,18.2 12.91,18.46 12.91,18.71C12.91,18.96 12.91,19.22 12.91,19.47C12.91,19.73 12.91,19.98 12.91,20.24C12.91,20.49 12.91,20.75 12.91,21C12.91,21.25 12.91,21.51 12.91,21.76C12.91,22.02 12.91,22.27 12.91,22.53C12.91,22.78 12.91,23.04 12.91,23.29C12.91,23.54 12.91,23.8 12.91,24.05C12.91,24.31 12.91,24.56 12.91,24.82C12.91,25.07 12.91,25.33 12.91,25.58C12.91,25.84 12.91,26.09 12.91,26.35C12.91,26.6 12.91,26.86 12.91,27.11C12.91,27.36 12.91,27.62 12.91,27.87C12.91,28.13 12.91,28.38 12.91,28.64C12.91,28.89 12.91,29.15 12.91,29.4C12.91,29.65 12.91,29.91 12.91,30.16C12.91,30.42 12.91,30.67 12.91,30.93C12.91,31.18 12.91,31.44 12.91,31.69C12.91,31.94 12.91,32.2 12.91,32.45C12.91,32.71 12.91,32.96 12.91,33.22C12.91,33.47 12.91,33.73 12.91,33.98C12.91,34.24 12.91,34.49 12.91,34.75C12.91,35 12.91,35.26 12.91,35.51C12.91,35.76 12.91,36.02 12.91,36.27C12.91,36.53 12.91,36.78 12.91,37.04C12.91,37.29 12.91,37.55 12.91,37.8C12.91,38.05 12.91,38.31 12.91,38.56C12.91,38.82 12.91,39.07 12.91,39.33C12.91,39.58 12.91,39.84 12.91,40.09C12.91,40.34 12.91,40.6 12.91,40.85C12.91,41.11 12.91,41.36 12.91,41.62C12.91,41.87 12.91,42.13 12.91,42.38C12.91,42.64 12.91,42.89 12.91,43.15C12.91,43.4 12.91,43.66 12.91,43.91C12.91,44.16 12.91,44.42 12.91,44.67C12.91,44.93 12.91,45.18 12.91,45.44C12.91,45.69 12.91,45.95 12.91,46.2C12.91,46.45 12.91,46.71 12.91,46.96C12.91,47.22 12.91,47.47 12.91,47.73C12.91,47.98 12.91,48.24 12.91,48.49C12.91,48.74 12.91,49 12.91,49.25C12.91,49.51 12.91,49.76 12.91,50.02C12.91,50.27 12.91,50.53 12.91,50.78C12.91,51.04 12.91,51.29 12.91,51.55C12.91,51.8 12.91,52.06 12.91,52.31C12.91,52.56 12.91,52.82 12.91,53.07C12.91,53.33 12.91,53.58 12.91,53.84C12.91,54.09 12.91,54.35 12.91,54.6C12.91,54.85 12.91,55.11 12.91,55.36C12.91,55.62 12.91,55.87 12.91,56.13C12.91,56.38 12.91,56.64 12.91,56.89C12.91,57.14 12.91,57.4 12.91,57.65C12.91,57.91 12.91,58.16 12.91,58.42C12.91,58.67 12.91,58.93 12.91,59.18C12.91,59.44 12.91,59.69 12.91,59.95C12.91,60.2 12.91,60.46 12.91,60.71C12.91,60.96 12.91,61.22 12.91,61.47C12.91,61.73 12.91,61.98 12.91,62.24C12.91,62.49 12.91,62.75 12.91,63C12.91,63.25 12.91,63.51 12.91,63.76C12.91,64.02 12.91,64.27 12.91,64.53C12.91,64.78 12.91,65.04 12.91,65.29C12.91,65.54 12.91,65.8 12.91,66.05C12.91,66.31 12.91,66.56 12.91,66.82C12.91,67.07 12.91,67.33 12.91,67.58C12.91,67.84 12.91,68.09 12.91,68.35C12.91,68.6 12.91,68.86 12.91,69.11C12.91,69.36 12.91,69.62 12.91,69.87C12.91,70.13 12.91,70.38 12.91,70.64C12.91,70.89 12.91,71.15 12.91,71.4C12.91,71.65 12.91,71.91 12.91,72.16C12.91,72.42 12.91,72.67 12.91,72.93C12.91,73.18 12.91,73.44 12.91,73.69C12.91,73.94 12.91,74.2 12.91,74.45C12.91,74.71 12.91,74.96 12.91,75.22C12.91,75.47 12.91,75.73 12.91,75.98C12.91,76.24 12.91,76.49 12.91,76.75C12.91,77 12.91,77.26 12.91,77.51C12.91,77.76 12.91,78.02 12.91,78.27C12.91,78.53 12.91,78.78 12.91,79.04Q12.91,79.29 12.91,79.8L0,79.8L0,4.2Z" style="stroke: none; fill: rgb(255, 210, 192);"/><path d="M11.85,4.2Q11.85,4.71 11.85,4.96C11.85,5.22 11.85,5.47 11.85,5.73C11.85,5.98 11.85,6.24 11.85,6.49C11.85,6.74 11.85,7 11.85,7.25C11.85,7.51 11.85,7.76 11.85,8.02C11.85,8.27 11.85,8.53 11.85,8.78C11.85,9.04 11.85,9.29 11.85,9.55C11.85,9.8 11.85,10.06 11.85,10.31C11.85,10.56 11.85,10.82 11.85,11.07C11.85,11.33 11.85,11.58 11.85,11.84C11.85,12.09 11.85,12.35 11.85,12.6C11.85,12.85 11.85,13.11 11.85,13.36C11.85,13.62 11.85,13.87 11.85,14.13C11.85,14.38 11.85,14.64 11.85,14.89C11.85,15.14 11.85,15.4 11.85,15.65C11.85,15.91 11.85,16.16 11.85,16.42C11.85,16.67 11.85,16.93 11.85,17.18C11.85,17.44 11.85,17.69 11.85,17.95C11.85,18.2 11.85,18.46 11.85,18.71C11.85,18.96 11.85,19.22 11.85,19.47C11.85,19.73 11.85,19.98 11.85,20.24C11.85,20.49 11.85,20.75 11.85,21C11.85,21.25 11.85,21.51 11.85,21.76C11.85,22.02 11.85,22.27 11.85,22.53C11.85,22.78 11.85,23.04 11.85,23.29C11.85,23.54 11.85,23.8 11.85,24.05C11.85,24.31 11.85,24.56 11.85,24.82C11.85,25.07 11.85,25.33 11.85,25.58C11.85,25.84 11.85,26.09 11.85,26.35C11.85,26.6 11.85,26.86 11.85,27.11C11.85,27.36 11.85,27.62 11.85,27.87C11.85,28.13 11.85,28.38 11.85,28.64C11.85,28.89 11.85,29.15 11.85,29.4C11.85,29.65 11.85,29.91 11.85,30.16C11.85,30.42 11.85,30.67 11.85,30.93C11.85,31.18 11.85,31.44 11.85,31.69C11.85,31.94 11.85,32.2 11.85,32.45C11.85,32.71 11.85,32.96 11.85,33.22C11.85,33.47 11.85,33.73 11.85,33.98C11.85,34.24 11.85,34.49 11.85,34.75C11.85,35 11.85,35.26 11.85,35.51C11.85,35.76 11.85,36.02 11.85,36.27C11.85,36.53 11.85,36.78 11.85,37.04C11.85,37.29 11.85,37.55 11.85,37.8C11.85,38.05 11.85,38.31 11.85,38.56C11.85,38.82 11.85,39.07 11.85,39.33C11.85,39.58 11.85,39.84 11.85,40.09C11.85,40.34 11.85,40.6 11.85,40.85C11.85,41.11 11.85,41.36 11.85,41.62C11.85,41.87 11.85,42.13 11.85,42.38C11.85,42.64 11.85,42.89 11.85,43.15C11.85,43.4 11.85,43.66 11.85,43.91C11.85,44.16 11.85,44.42 11.85,44.67C11.85,44.93 11.85,45.18 11.85,45.44C11.85,45.69 11.85,45.95 11.85,46.2C11.85,46.45 11.85,46.71 11.85,46.96C11.85,47.22 11.85,47.47 11.85,47.73C11.85,47.98 11.85,48.24 11.85,48.49C11.85,48.74 11.85,49 11.85,49.25C11.85,49.51 11.85,49.76 11.85,50.02C11.85,50.27 11.85,50.53 11.85,50.78C11.85,51.04 11.85,51.29 11.85,51.55C11.85,51.8 11.85,52.06 11.85,52.31C11.85,52.56 11.85,52.82 11.85,53.07C11.85,53.33 11.85,53.58 11.85,53.84C11.85,54.09 11.85,54.35 11.85,54.6C11.85,54.85 11.85,55.11 11.85,55.36C11.85,55.62 11.85,55.87 11.85,56.13C11.85,56.38 11.85,56.64 11.85,56.89C11.85,57.14 11.85,57.4 11.85,57.65C11.85,57.91 11.85,58.16 11.85,58.42C11.85,58.67 11.85,58.93 11.85,59.18C11.85,59.44 11.85,59.69 11.85,59.95C11.85,60.2 11.85,60.46 11.85,60.71C11.85,60.96 11.85,61.22 11.85,61.47C11.85,61.73 11.85,61.98 11.85,62.24C11.85,62.49 11.85,62.75 11.85,63C11.85,63.25 11.85,63.51 11.85,63.76C11.85,64.02 11.85,64.27 11.85,64.53C11.85,64.78 11.85,65.04 11.85,65.29C11.85,65.54 11.85,65.8 11.85,66.05C11.85,66.31 11.85,66.56 11.85,66.82C11.85,67.07 11.85,67.33 11.85,67.58C11.85,67.84 11.85,68.09 11.85,68.35C11.85,68.6 11.85,68.86 11.85,69.11C11.85,69.36 11.85,69.62 11.85,69.87C11.85,70.13 11.85,70.38 11.85,70.64C11.85,70.89 11.85,71.15 11.85,71.4C11.85,71.65 11.85,71.91 11.85,72.16C11.85,72.42 11.85,72.67 11.85,72.93C11.85,73.18 11.85,73.44 11.85,73.69C11.85,73.94 11.85,74.2 11.85,74.45C11.85,74.71 11.85,74.96 11.85,75.22C11.85,75.47 11.85,75.73 11.85,75.98C11.85,76.24 11.85,76.49 11.85,76.75C11.85,77 11.85,77.26 11.85,77.51C11.85,77.76 11.85,78.02 11.85,78.27C11.85,78.53 11.85,78.78 11.85,79.04Q11.85,79.29 11.85,79.8L0,79.8L0,4.2Z" style="stroke: none; fill: rgb(255, 200, 178);"/><path d="M10.89,4.2Q10.89,4.71 10.89,4.96C10.89,5.22 10.89,5.47 10.89,5.73C10.89,5.98 10.89,6.24 10.89,6.49C10.89,6.74 10.89,7 10.89,7.25C10.89,7.51 10.89,7.76 10.89,8.02C10.89,8.27 10.89,8.53 10.89,8.78C10.89,9.04 10.89,9.29 10.89,9.55C10.89,9.8 10.89,10.06 10.89,10.31C10.89,10.56 10.89,10.82 10.89,11.07C10.89,11.33 10.89,11.58 10.89,11.84C10.89,12.09 10.89,12.35 10.89,12.6C10.89,12.85 10.89,13.11 10.89,13.36C10.89,13.62 10.89,13.87 10.89,14.13C10.89,14.38 10.89,14.64 10.89,14.89C10.89,15.14 10.89,15.4 10.89,15.65C10.89,15.91 10.89,16.16 10.89,16.42C10.89,16.67 10.89,16.93 10.89,17.18C10.89,17.44 10.89,17.69 10.89,17.95C10.89,18.2 10.89,18.46 10.89,18.71C10.89,18.96 10.89,19.22 10.89,19.47C10.89,19.73 10.89,19.98 10.89,20.24C10.89,20.49 10.89,20.75 10.89,21C10.89,21.25 10.89,21.51 10.89,21.76C10.89,22.02 10.89,22.27 10.89,22.53C10.89,22.78 10.89,23.04 10.89,23.29C10.89,23.54 10.89,23.8 10.89,24.05C10.89,24.31 10.89,24.56 10.89,24.82C10.89,25.07 10.89,25.33 10.89,25.58C10.89,25.84 10.89,26.09 10.89,26.35C10.89,26.6 10.89,26.86 10.89,27.11C10.89,27.36 10.89,27.62 10.89,27.87C10.89,28.13 10.89,28.38 10.89,28.64C10.89,28.89 10.89,29.15 10.89,29.4C10.89,29.65 10.89,29.91 10.89,30.16C10.89,30.42 10.89,30.67 10.89,30.93C10.89,31.18 10.89,31.44 10.89,31.69C10.89,31.94 10.89,32.2 10.89,32.45C10.89,32.71 10.89,32.96 10.89,33.22C10.89,33.47 10.89,33.73 10.89,33.98C10.89,34.24 10.89,34.49 10.89,34.75C10.89,35 10.89,35.26 10.89,35.51C10.89,35.76 10.89,36.02 10.89,36.27C10.89,36.53 10.89,36.78 10.89,37.04C10.89,37.29 10.89,37.55 10.89,37.8C10.89,38.05 10.89,38.31 10.89,38.56C10.89,38.82 10.89,39.07 10.89,39.33C10.89,39.58 10.89,39.84 10.89,40.09C10.89,40.34 10.89,40.6 10.89,40.85C10.89,41.11 10.89,41.36 10.89,41.62C10.89,41.87 10.89,42.13 10.89,42.38C10.89,42.64 10.89,42.89 10.89,43.15C10.89,43.4 10.89,43.66 10.89,43.91C10.89,44.16 10.89,44.42 10.89,44.67C10.89,44.93 10.89,45.18 10.89,45.44C10.89,45.69 10.89,45.95 10.89,46.2C10.89,46.45 10.89,46.71 10.89,46.96C10.89,47.22 10.89,47.47 10.89,47.73C10.89,47.98 10.89,48.24 10.89,48.49C10.89,48.74 10.89,49 10.89,49.25C10.89,49.51 10.89,49.76 10.89,50.02C10.89,50.27 10.89,50.53 10.89,50.78C10.89,51.04 10.89,51.29 10.89,51.55C10.89,51.8 10.89,52.06 10.89,52.31C10.89,52.56 10.89,52.82 10.89,53.07C10.89,53.33 10.89,53.58 10.89,53.84C10.89,54.09 10.89,54.35 10.89,54.6C10.89,54.85 10.89,55.11 10.89,55.36C10.89,55.62 10.89,55.87 10.89,56.13C10.89,56.38 10.89,56.64 10.89,56.89C10.89,57.14 10.89,57.4 10.89,57.65C10.89,57.91 10.89,58.16 10.89,58.42C10.89,58.67 10.89,58.93 10.89,59.18C10.89,59.44 10.89,59.69 10.89,59.95C10.89,60.2 10.89,60.46 10.89,60.71C10.89,60.96 10.89,61.22 10.89,61.47C10.89,61.73 10.89,61.98 10.89,62.24C10.89,62.49 10.89,62.75 10.89,63C10.89,63.25 10.89,63.51 10.89,63.76C10.89,64.02 10.89,64.27 10.89,64.53C10.89,64.78 10.89,65.04 10.89,65.29C10.89,65.54 10.89,65.8 10.89,66.05C10.89,66.31 10.89,66.56 10.89,66.82C10.89,67.07 10.89,67.33 10.89,67.58C10.89,67.84 10.89,68.09 10.89,68.35C10.89,68.6 10.89,68.86 10.89,69.11C10.89,69.36 10.89,69.62 10.89,69.87C10.89,70.13 10.89,70.38 10.89,70.64C10.89,70.89 10.89,71.15 10.89,71.4C10.89,71.65 10.89,71.91 10.89,72.16C10.89,72.42 10.89,72.67 10.89,72.93C10.89,73.18 10.89,73.44 10.89,73.69C10.89,73.94 10.89,74.2 10.89,74.45C10.89,74.71 10.89,74.96 10.89,75.22C10.89,75.47 10.89,75.73 10.89,75.98C10.89,76.24 10.89,76.49 10.89,76.75C10.89,77 10.89,77.26 10.89,77.51C10.89,77.76 10.89,78.02 10.89,78.27C10.89,78.53 10.89,78.78 10.89,79.04Q10.89,79.29 10.89,79.8L0,79.8L0,4.2Z" style="stroke: none; fill: rgb(255, 190, 164);"/><path d="M10.02,4.2Q10.02,4.71 10.02,4.96C10.02,5.22 10.02,5.47 10.02,5.73C10.02,5.98 10.02,6.24 10.02,6.49C10.02,6.74 10.02,7 10.02,7.25C10.02,7.51 10.02,7.76 10.02,8.02C10.02,8.27 10.02,8.53 10.02,8.78C10.02,9.04 10.02,9.29 10.02,9.55C10.02,9.8 10.02,10.06 10.02,10.31C10.02,10.56 10.02,10.82 10.02,11.07C10.02,11.33 10.02,11.58 10.02,11.84C10.02,12.09 10.02,12.35 10.02,12.6C10.02,12.85 10.02,13.11 10.02,13.36C10.02,13.62 10.02,13.87 10.02,14.13C10.02,14.38 10.02,14.64 10.02,14.89C10.02,15.14 10.02,15.4 10.02,15.65C10.02,15.91 10.02,16.16 10.02,16.42C10.02,16.67 10.02,16.93 10.02,17.18C10.02,17.44 10.02,17.69 10.02,17.95C10.02,18.2 10.02,18.46 10.02,18.71C10.02,18.96 10.02,19.22 10.02,19.47C10.02,19.73 10.02,19.98 10.02,20.24C10.02,20.49 10.02,20.75 10.02,21C10.02,21.25 10.02,21.51 10.02,21.76C10.02,22.02 10.02,22.27 10.02,22.53C10.02,22.78 10.02,23.04 10.02,23.29C10.02,23.54 10.02,23.8 10.02,24.05C10.02,24.31 10.02,24.56 10.02,24.82C10.02,25.07 10.02,25.33 10.02,25.58C10.02,25.84 10.02,26.09 10.02,26.35C10.02,26.6 10.02,26.86 10.02,27.11C10.02,27.36 10.02,27.62 10.02,27.87C10.02,28.13 10.02,28.38 10.02,28.64C10.02,28.89 10.02,29.15 10.02,29.4C10.02,29.65 10.02,29.91 10.02,30.16C10.02,30.42 10.02,30.67 10.02,30.93C10.02,31.18 10.02,31.44 10.02,31.69C10.02,31.94 10.02,32.2 10.02,32.45C10.02,32.71 10.02,32.96 10.02,33.22C10.02,33.47 10.02,33.73 10.02,33.98C10.02,34.24 10.02,34.49 10.02,34.75C10.02,35 10.02,35.26 10.02,35.51C10.02,35.76 10.02,36.02 10.02,36.27C10.02,36.53 10.02,36.78 10.02,37.04C10.02,37.29 10.02,37.55 10.02,37.8C10.02,38.05 10.02,38.31 10.02,38.56C10.02,38.82 10.02,39.07 10.02,39.33C10.02,39.58 10.02,39.84 10.02,40.09C10.02,40.34 10.02,40.6 10.02,40.85C10.02,41.11 10.02,41.36 10.02,41.62C10.02,41.87 10.02,42.13 10.02,42.38C10.02,42.64 10.02,42.89 10.02,43.15C10.02,43.4 10.02,43.66 10.02,43.91C10.02,44.16 10.02,44.42 10.02,44.67C10.02,44.93 10.02,45.18 10.02,45.44C10.02,45.69 10.02,45.95 10.02,46.2C10.02,46.45 10.02,46.71 10.02,46.96C10.02,47.22 10.02,47.47 10.02,47.73C10.02,47.98 10.02,48.24 10.02,48.49C10.02,48.74 10.02,49 10.02,49.25C10.02,49.51 10.02,49.76 10.02,50.02C10.02,50.27 10.02,50.53 10.02,50.78C10.02,51.04 10.02,51.29 10.02,51.55C10.02,51.8 10.02,52.06 10.02,52.31C10.02,52.56 10.02,52.82 10.02,53.07C10.02,53.33 10.02,53.58 10.02,53.84C10.02,54.09 10.02,54.35 10.02,54.6C10.02,54.85 10.02,55.11 10.02,55.36C10.02,55.62 10.02,55.87 10.02,56.13C10.02,56.38 10.02,56.64 10.02,56.89C10.02,57.14 10.02,57.4 10.02,57.65C10.02,57.91 10.02,58.16 10.02,58.42C10.02,58.67 10.02,58.93 10.02,59.18C10.02,59.44 10.02,59.69 10.02,59.95C10.02,60.2 10.02,60.46 10.02,60.71C10.02,60.96 10.02,61.22 10.02,61.47C10.02,61.73 10.02,61.98 10.02,62.24C10.02,62.49 10.02,62.75 10.02,63C10.02,63.25 10.02,63.51 10.02,63.76C10.02,64.02 10.02,64.27 10.02,64.53C10.02,64.78 10.02,65.04 10.02,65.29C10.02,65.54 10.02,65.8 10.02,66.05C10.02,66.31 10.02,66.56 10.02,66.82C10.02,67.07 10.02,67.33 10.02,67.58C10.02,67.84 10.02,68.09 10.02,68.35C10.02,68.6 10.02,68.86 10.02,69.11C10.02,69.36 10.02,69.62 10.02,69.87C10.02,70.13 10.02,70.38 10.02,70.64C10.02,70.89 10.02,71.15 10.02,71.4C10.02,71.65 10.02,71.91 10.02,72.16C10.02,72.42 10.02,72.67 10.02,72.93C10.02,73.18 10.02,73.44 10.02,73.69C10.02,73.94 10.02,74.2 10.02,74.45C10.02,74.71 10.02,74.96 10.02,75.22C10.02,75.47 10.02,75.73 10.02,75.98C10.02,76.24 10.02,76.49 10.02,76.75C10.02,77 10.02,77.26 10.02,77.51C10.02,77.76 10.02,78.02 10.02,78.27C10.02,78.53 10.02,78.78 10.02,79.04Q10.02,79.29 10.02,79.8L0,79.8L0,4.2Z" style="stroke: none; fill: rgb(255, 180, 150);"/><path d="M9.23,4.2Q9.23,4.71 9.23,4.96C9.23,5.22 9.23,5.47 9.23,5.73C9.23,5.98 9.23,6.24 9.23,6.49C9.23,6.74 9.23,7 9.23,7.25C9.23,7.51 9.23,7.76 9.23,8.02C9.23,8.27 9.23,8.53 9.23,8.78C9.23,9.04 9.23,9.29 9.23,9.55C9.23,9.8 9.23,10.06 9.23,10.31C9.23,10.56 9.23,10.82 9.23,11.07C9.23,11.33 9.23,11.58 9.23,11.84C9.23,12.09 9.23,12.35 9.23,12.6C9.23,12.85 9.23,13.11 9.23,13.36C9.23,13.62 9.23,13.87 9.23,14.13C9.23,14.38 9.23,14.64 9.23,14.89C9.23,15.14 9.23,15.4 9.23,15.65C9.23,15.91 9.23,16.16 9.23,16.42C9.23,16.67 9.23,16.93 9.23,17.18C9.23,17.44 9.23,17.69 9.23,17.95C9.23,18.2 9.23,18.46 9.23,18.71C9.23,18.96 9.23,19.22 9.23,19.47C9.23,19.73 9.23,19.98 9.23,20.24C9.23,20.49 9.23,20.75 9.23,21C9.23,21.25 9.23,21.51 9.23,21.76C9.23,22.02 9.23,22.27 9.23,22.53C9.23,22.78 9.23,23.04 9.23,23.29C9.23,23.54 9.23,23.8 9.23,24.05C9.23,24.31 9.23,24.56 9.23,24.82C9.23,25.07 9.23,25.33 9.23,25.58C9.23,25.84 9.23,26.09 9.23,26.35C9.23,26.6 9.23,26.86 9.23,27.11C9.23,27.36 9.23,27.62 9.23,27.87C9.23,28.13 9.23,28.38 9.23,28.64C9.23,28.89 9.23,29.15 9.23,29.4C9.23,29.65 9.23,29.91 9.23,30.16C9.23,30.42 9.23,30.67 9.23,30.93C9.23,31.18 9.23,31.44 9.23,31.69C9.23,31.94 9.23,32.2 9.23,32.45C9.23,32.71 9.23,32.96 9.23,33.22C9.23,33.47 9.23,33.73 9.23,33.98C9.23,34.24 9.23,34.49 9.23,34.75C9.23,35 9.23,35.26 9.23,35.51C9.23,35.76 9.23,36.02 9.23,36.27C9.23,36.53 9.23,36.78 9.23,37.04C9.23,37.29 9.23,37.55 9.23,37.8C9.23,38.05 9.23,38.31 9.23,38.56C9.23,38.82 9.23,39.07 9.23,39.33C9.23,39.58 9.23,39.84 9.23,40.09C9.23,40.34 9.23,40.6 9.23,40.85C9.23,41.11 9.23,41.36 9.23,41.62C9.23,41.87 9.23,42.13 9.23,42.38C9.23,42.64 9.23,42.89 9.23,43.15C9.23,43.4 9.23,43.66 9.23,43.91C9.23,44.16 9.23,44.42 9.23,44.67C9.23,44.93 9.23,45.18 9.23,45.44C9.23,45.69 9.23,45.95 9.23,46.2C9.23,46.45 9.23,46.71 9.23,46.96C9.23,47.22 9.23,47.47 9.23,47.73C9.23,47.98 9.23,48.24 9.23,48.49C9.23,48.74 9.23,49 9.23,49.25C9.23,49.51 9.23,49.76 9.23,50.02C9.23,50.27 9.23,50.53 9.23,50.78C9.23,51.04 9.23,51.29 9.23,51.55C9.23,51.8 9.23,52.06 9.23,52.31C9.23,52.56 9.23,52.82 9.23,53.07C9.23,53.33 9.23,53.58 9.23,53.84C9.23,54.09 9.23,54.35 9.23,54.6C9.23,54.85 9.23,55.11 9.23,55.36C9.23,55.62 9.23,55.87 9.23,56.13C9.23,56.38 9.23,56.64 9.23,56.89C9.23,57.14 9.23,57.4 9.23,57.65C9.23,57.91 9.23,58.16 9.23,58.42C9.23,58.67 9.23,58.93 9.23,59.18C9.23,59.44 9.23,59.69 9.23,59.95C9.23,60.2 9.23,60.46 9.23,60.71C9.23,60.96 9.23,61.22 9.23,61.47C9.23,61.73 9.23,61.98 9.23,62.24C9.23,62.49 9.23,62.75 9.23,63C9.23,63.25 9.23,63.51 9.23,63.76C9.23,64.02 9.23,64.27 9.23,64.53C9.23,64.78 9.23,65.04 9.23,65.29C9.23,65.54 9.23,65.8 9.23,66.05C9.23,66.31 9.23,66.56 9.23,66.82C9.23,67.07 9.23,67.33 9.23,67.58C9.23,67.84 9.23,68.09 9.23,68.35C9.23,68.6 9.23,68.86 9.23,69.11C9.23,69.36 9.23,69.62 9.23,69.87C9.23,70.13 9.23,70.38 9.23,70.64C9.23,70.89 9.23,71.15 9.23,71.4C9.23,71.65 9.23,71.91 9.23,72.16C9.23,72.42 9.23,72.67 9.23,72.93C9.23,73.18 9.23,73.44 9.23,73.69C9.23,73.94 9.23,74.2 9.23,74.45C9.23,74.71 9.23,74.96 9.23,75.22C9.23,75.47 9.23,75.73 9.23,75.98C9.23,76.24 9.23,76.49 9.23,76.75C9.23,77 9.23,77.26 9.23,77.51C9.23,77.76 9.23,78.02 9.23,78.27C9.23,78.53 9.23,78.78 9.23,79.04Q9.23,79.29 9.23,79.8L0,79.8L0,4.2Z" style="stroke: none; fill: rgb(255, 170, 136);"/><path d="M8.51,4.2Q8.51,4.71 8.51,4.96C8.51,5.22 8.51,5.47 8.51,5.73C8.51,5.98 8.51,6.24 8.51,6.49C8.51,6.74 8.51,7 8.51,7.25C8.51,7.51 8.51,7.76 8.51,8.02C8.51,8.27 8.51,8.53 8.51,8.78C8.51,9.04 8.51,9.29 8.51,9.55C8.51,9.8 8.51,10.06 8.51,10.31C8.51,10.56 8.51,10.82 8.51,11.07C8.51,11.33 8.51,11.58 8.51,11.84C8.51,12.09 8.51,12.35 8.51,12.6C8.51,12.85 8.51,13.11 8.51,13.36C8.51,13.62 8.51,13.87 8.51,14.13C8.51,14.38 8.51,14.64 8.51,14.89C8.51,15.14 8.51,15.4 8.51,15.65C8.51,15.91 8.51,16.16 8.51,16.42C8.51,16.67 8.51,16.93 8.51,17.18C8.51,17.44 8.51,17.69 8.51,17.95C8.51,18.2 8.51,18.46 8.51,18.71C8.51,18.96 8.51,19.22 8.51,19.47C8.51,19.73 8.51,19.98 8.51,20.24C8.51,20.49 8.51,20.75 8.51,21C8.51,21.25 8.51,21.51 8.51,21.76C8.51,22.02 8.51,22.27 8.51,22.53C8.51,22.78 8.51,23.04 8.51,23.29C8.51,23.54 8.51,23.8 8.51,24.05C8.51,24.31 8.51,24.56 8.51,24.82C8.51,25.07 8.51,25.33 8.51,25.58C8.51,25.84 8.51,26.09 8.51,26.35C8.51,26.6 8.51,26.86 8.51,27.11C8.51,27.36 8.51,27.62 8.51,27.87C8.51,28.13 8.51,28.38 8.51,28.64C8.51,28.89 8.51,29.15 8.51,29.4C8.51,29.65 8.51,29.91 8.51,30.16C8.51,30.42 8.51,30.67 8.51,30.93C8.51,31.18 8.51,31.44 8.51,31.69C8.51,31.94 8.51,32.2 8.51,32.45C8.51,32.71 8.51,32.96 8.51,33.22C8.51,33.47 8.51,33.73 8.51,33.98C8.51,34.24 8.51,34.49 8.51,34.75C8.51,35 8.51,35.26 8.51,35.51C8.51,35.76 8.51,36.02 8.51,36.27C8.51,36.53 8.51,36.78 8.51,37.04C8.51,37.29 8.51,37.55 8.51,37.8C8.51,38.05 8.51,38.31 8.51,38.56C8.51,38.82 8.51,39.07 8.51,39.33C8.51,39.58 8.51,39.84 8.51,40.09C8.51,40.34 8.51,40.6 8.51,40.85C8.51,41.11 8.51,41.36 8.51,41.62C8.51,41.87 8.51,42.13 8.51,42.38C8.51,42.64 8.51,42.89 8.51,43.15C8.51,43.4 8.51,43.66 8.51,43.91C8.51,44.16 8.51,44.42 8.51,44.67C8.51,44.93 8.51,45.18 8.51,45.44C8.51,45.69 8.51,45.95 8.51,46.2C8.51,46.45 8.51,46.71 8.51,46.96C8.51,47.22 8.51,47.47 8.51,47.73C8.51,47.98 8.51,48.24 8.51,48.49C8.51,48.74 8.51,49 8.51,49.25C8.51,49.51 8.51,49.76 8.51,50.02C8.51,50.27 8.51,50.53 8.51,50.78C8.51,51.04 8.51,51.29 8.51,51.55C8.51,51.8 8.51,52.06 8.51,52.31C8.51,52.56 8.51,52.82 8.51,53.07C8.51,53.33 8.51,53.58 8.51,53.84C8.51,54.09 8.51,54.35 8.51,54.6C8.51,54.85 8.51,55.11 8.51,55.36C8.51,55.62 8.51,55.87 8.51,56.13C8.51,56.38 8.51,56.64 8.51,56.89C8.51,57.14 8.51,57.4 8.51,57.65C8.51,57.91 8.51,58.16 8.51,58.42C8.51,58.67 8.51,58.93 8.51,59.18C8.51,59.44 8.51,59.69 8.51,59.95C8.51,60.2 8.51,60.46 8.51,60.71C8.51,60.96 8.51,61.22 8.51,61.47C8.51,61.73 8.51,61.98 8.51,62.24C8.51,62.49 8.51,62.75 8.51,63C8.51,63.25 8.51,63.51 8.51,63.76C8.51,64.02 8.51,64.27 8.51,64.53C8.51,64.78 8.51,65.04 8.51,65.29C8.51,65.54 8.51,65.8 8.51,66.05C8.51,66.31 8.51,66.56 8.51,66.82C8.51,67.07 8.51,67.33 8.51,67.58C8.51,67.84 8.51,68.09 8.51,68.35C8.51,68.6 8.51,68.86 8.51,69.11C8.51,69.36 8.51,69.62 8.51,69.87C8.51,70.13 8.51,70.38 8.51,70.64C8.51,70.89 8.51,71.15 8.51,71.4C8.51,71.65 8.51,71.91 8.51,72.16C8.51,72.42 8.51,72.67 8.51,72.93C8.51,73.18 8.51,73.44 8.51,73.69C8.51,73.94 8.51,74.2 8.51,74.45C8.51,74.71 8.51,74.96 8.51,75.22C8.51,75.47 8.51,75.73 8.51,75.98C8.51,76.24 8.51,76.49 8.51,76.75C8.51,77 8.51,77.26 8.51,77.51C8.51,77.76 8.51,78.02 8.51,78.27C8.51,78.53 8.51,78.78 8.51,79.04Q8.51,79.29 8.51,79.8L0,79.8L0,4.2Z" style="stroke: none; fill: rgb(255, 160, 122);"/></g><g class="contourlines"/></g></g><g class="scatterlayer mlayer"><g class="trace scatter trace1e7b98" style="stroke-miterlimit: 2; opacity: 1;"><g class="fills"/><g class="errorbars"/><g class="lines"><path class="js-line" d="M0,79.8L5.17,62.01L5.82,60.2L10.99,48.01L11.64,46.73L17.45,36.89L18.1,35.96L25.21,27.28L25.86,26.61L34.26,19.22L34.91,18.74L44.61,12.55L45.25,12.2L57.54,6.55L58.18,6.3L64,4.2" style="vector-effect: none; fill: none; stroke: rgb(117, 112, 179); stroke-opacity: 1; stroke-width: 1.2px; opacity: 1;"/></g><g class="points"/><g class="text"/></g><g class="trace scatter trace2f522d" style="stroke-miterlimit: 2; opacity: 1;"><g class="fills"/><g class="errorbars"/><g class="lines"><path class="js-line" d="M0,79.8L1.29,55.87L1.94,51.11L3.88,43.99L4.53,42.67L7.11,39.44L7.76,38.92L11.64,36.89L12.28,36.67L19.39,35.12L20.04,35.03L35.56,33.83L36.2,33.8L64,33.11" style="vector-effect: none; fill: none; stroke: rgb(217, 95, 2); stroke-opacity: 1; stroke-width: 1.2px; opacity: 1;"/></g><g class="points"/><g class="text"/></g></g></g></g><path class="xlines-above crisp" d="" style="fill: none; stroke-width: 1px; stroke: rgb(0, 0, 0); stroke-opacity: 0;"/><path class="ylines-above crisp" d="" style="fill: none; stroke-width: 1px; stroke: rgb(0, 0, 0); stroke-opacity: 0;"/><g class="overlines-above"/><g class="xaxislayer-above"><path class="xtick ticks crisp" d="M0,103v5" transform="translate(26,0)" style="stroke: rgb(68, 68, 68); stroke-opacity: 1; stroke-width: 1px;"/><path class="xtick ticks crisp" d="M0,103v5" transform="translate(38.8,0)" style="stroke: rgb(68, 68, 68); stroke-opacity: 1; stroke-width: 1px;"/><path class="xtick ticks crisp" d="M0,103v5" transform="translate(51.6,0)" style="stroke: rgb(68, 68, 68); stroke-opacity: 1; stroke-width: 1px;"/><path class="xtick ticks crisp" d="M0,103v5" transform="translate(64.4,0)" style="stroke: rgb(68, 68, 68); stroke-opacity: 1; stroke-width: 1px;"/><path class="xtick ticks crisp" d="M0,103v5" transform="translate(77.2,0)" style="stroke: rgb(68, 68, 68); stroke-opacity: 1; stroke-width: 1px;"/><path class="xtick ticks crisp" d="M0,103v5" transform="translate(90,0)" style="stroke: rgb(68, 68, 68); stroke-opacity: 1; stroke-width: 1px;"/><g class="xtick"><text text-anchor="start" x="0" y="121.2" transform="translate(26,0) rotate(90,0,115.7)" style="font-family: 'Open Sans', verdana, arial, sans-serif; font-size: 11px; fill: rgb(0, 0, 0); fill-opacity: 1; white-space: pre; opacity: 1;">0</text></g><g class="xtick"><text text-anchor="start" x="0" y="121.2" style="font-family: 'Open Sans', verdana, arial, sans-serif; font-size: 11px; fill: rgb(0, 0, 0); fill-opacity: 1; white-space: pre; opacity: 1;" transform="translate(38.8,0) rotate(90,0,115.7)">0.1</text></g><g class="xtick"><text text-anchor="start" x="0" y="121.2" style="font-family: 'Open Sans', verdana, arial, sans-serif; font-size: 11px; fill: rgb(0, 0, 0); fill-opacity: 1; white-space: pre; opacity: 1;" transform="translate(51.6,0) rotate(90,0,115.7)">0.2</text></g><g class="xtick"><text text-anchor="start" x="0" y="121.2" style="font-family: 'Open Sans', verdana, arial, sans-serif; font-size: 11px; fill: rgb(0, 0, 0); fill-opacity: 1; white-space: pre; opacity: 1;" transform="translate(64.4,0) rotate(90,0,115.7)">0.3</text></g><g class="xtick"><text text-anchor="start" x="0" y="121.2" style="font-family: 'Open Sans', verdana, arial, sans-serif; font-size: 11px; fill: rgb(0, 0, 0); fill-opacity: 1; white-space: pre; opacity: 1;" transform="translate(77.2,0) rotate(90,0,115.7)">0.4</text></g><g class="xtick"><text text-anchor="start" x="0" y="121.2" style="font-family: 'Open Sans', verdana, arial, sans-serif; font-size: 11px; fill: rgb(0, 0, 0); fill-opacity: 1; white-space: pre; opacity: 1;" transform="translate(90,0) rotate(90,0,115.7)">0.5</text></g></g><g class="yaxislayer-above"><path class="ytick ticks crisp" d="M25,0h-5" transform="translate(0,97.8)" style="stroke: rgb(68, 68, 68); stroke-opacity: 1; stroke-width: 1px;"/><path class="ytick ticks crisp" d="M25,0h-5" transform="translate(0,71.34)" style="stroke: rgb(68, 68, 68); stroke-opacity: 1; stroke-width: 1px;"/><path class="ytick ticks crisp" d="M25,0h-5" transform="translate(0,44.879999999999995)" style="stroke: rgb(68, 68, 68); stroke-opacity: 1; stroke-width: 1px;"/><path class="ytick ticks crisp" d="M25,0h-5" transform="translate(0,18.42)" style="stroke: rgb(68, 68, 68); stroke-opacity: 1; stroke-width: 1px;"/><g class="ytick"><text text-anchor="end" x="17.8" y="3.8499999999999996" transform="translate(0,97.8)" style="font-family: 'Open Sans', verdana, arial, sans-serif; font-size: 11px; fill: rgb(0, 0, 0); fill-opacity: 1; white-space: pre; opacity: 1;">0</text></g><g class="ytick"><text text-anchor="end" x="17.8" y="3.8499999999999996" style="font-family: 'Open Sans', verdana, arial, sans-serif; font-size: 11px; fill: rgb(0, 0, 0); fill-opacity: 1; white-space: pre; opacity: 1;" transform="translate(0,71.34)">0.1</text></g><g class="ytick"><text text-anchor="end" x="17.8" y="3.8499999999999996" style="font-family: 'Open Sans', verdana, arial, sans-serif; font-size: 11px; fill: rgb(0, 0, 0); fill-opacity: 1; white-space: pre; opacity: 1;" transform="translate(0,44.879999999999995)">0.2</text></g><g class="ytick"><text text-anchor="end" x="17.8" y="3.8499999999999996" style="font-family: 'Open Sans', verdana, arial, sans-serif; font-size: 11px; fill: rgb(0, 0, 0); fill-opacity: 1; white-space: pre; opacity: 1;" transform="translate(0,18.42)">0.3</text></g></g><g class="overaxes-above"/></g></g><g class="polarlayer"/><g class="smithlayer"/><g class="ternarylayer"/><g class="geolayer"/><g class="funnelarealayer"/><g class="pielayer"/><g class="iciclelayer"/><g class="treemaplayer"/><g class="sunburstlayer"/><g class="glimages"/><defs id="topdefs-7d4142"><g class="clips"/><clipPath id="legend7d4142"><rect width="64" height="77" x="0" y="0"/></clipPath></defs><g class="layer-above"><g class="imagelayer"/><g class="shapelayer"/></g><g class="infolayer"><g class="legend" pointer-events="all" transform="translate(86,18)"><rect class="bg" shape-rendering="crispEdges" style="stroke: rgb(68, 68, 68); stroke-opacity: 1; fill: rgb(255, 255, 255); fill-opacity: 1; stroke-width: 0px;" width="64" height="77" x="0" y="0"/><g class="scrollbox" transform="" clip-path="url(#legend7d4142)"><text class="legendtitletext" text-anchor="start" x="2" y="14.3" style="font-family: 'Open Sans', verdana, arial, sans-serif; font-size: 11px; fill: rgb(0, 0, 0); fill-opacity: 1; white-space: pre;"><tspan class="line" dy="0em" x="2" y="14.3">Isocline of</tspan><tspan class="line" dy="1.3em" x="2" y="14.3">growth rate</tspan></text><g class="groups"><g class="traces" transform="translate(0,43.1)" style="opacity: 1;"><text class="legendtext" text-anchor="start" x="40" y="4.29" style="font-family: 'Open Sans', verdana, arial, sans-serif; font-size: 11px; fill: rgb(0, 0, 0); fill-opacity: 1; white-space: pre;"><tspan style="font-style:italic">Ct</tspan></text><g class="layers" style="opacity: 1;"><g class="legendfill"/><g class="legendlines"><path class="js-line" d="M5,0h30" style="fill: none; stroke: rgb(117, 112, 179); stroke-opacity: 1; stroke-width: 1.2px;"/></g><g class="legendsymbols"><g class="legendpoints"/></g></g><rect class="legendtoggle" x="0" y="-9.5" width="54.9375" height="19" style="fill: rgb(0, 0, 0); fill-opacity: 0;"/></g><g class="traces" transform="translate(0,62.1)" style="opacity: 1;"><text class="legendtext" text-anchor="start" x="40" y="4.29" style="font-family: 'Open Sans', verdana, arial, sans-serif; font-size: 11px; fill: rgb(0, 0, 0); fill-opacity: 1; white-space: pre;"><tspan style="font-style:italic">Oa</tspan></text><g class="layers" style="opacity: 1;"><g class="legendfill"/><g class="legendlines"><path class="js-line" d="M5,0h30" style="fill: none; stroke: rgb(217, 95, 2); stroke-opacity: 1; stroke-width: 1.2px;"/></g><g class="legendsymbols"><g class="legendpoints"/></g></g><rect class="legendtoggle" x="0" y="-9.5" width="54.9375" height="19" style="fill: rgb(0, 0, 0); fill-opacity: 0;"/></g></g></g><rect class="scrollbar" rx="20" ry="3" width="0" height="0" style="fill: rgb(128, 139, 164); fill-opacity: 1;" x="0" y="0"/></g><g class="cbc2e1b6 colorbar" transform="translate(26,18)"><rect class="cbbg" x="65" y="29" width="96.25" height="42" style="fill: rgb(0, 0, 0); fill-opacity: 0; stroke: rgb(68, 68, 68); stroke-opacity: 1; stroke-width: 0;"/><g class="cbfills" transform="translate(0,39)"><rect class="cbfill" style="" x="75" y="1" width="30" height="21" fill="#add8e6"/><rect class="cbfill" style="" x="75" y="1" width="30" height="20" fill="#b6dce9"/><rect class="cbfill" style="" x="75" y="1" width="30" height="19" fill="#bee0eb"/><rect class="cbfill" style="" x="75" y="1" width="30" height="18" fill="#c7e4ee"/><rect class="cbfill" style="" x="75" y="1" width="30" height="17" fill="#d0e8f1"/><rect class="cbfill" style="" x="75" y="1" width="30" height="16" fill="#d8edf3"/><rect class="cbfill" style="" x="75" y="1" width="30" height="14" fill="#e1f1f6"/><rect class="cbfill" style="" x="75" y="1" width="30" height="13" fill="#e9f5f8"/><rect class="cbfill" style="" x="75" y="1" width="30" height="12" fill="#f2f9fb"/><rect class="cbfill" style="" x="75" y="1" width="30" height="11" fill="#fbfdfe"/><rect class="cbfill" style="" x="75" y="1" width="30" height="10" fill="#fffaf8"/><rect class="cbfill" style="" x="75" y="1" width="30" height="9" fill="#fff0ea"/><rect class="cbfill" style="" x="75" y="1" width="30" height="8" fill="#ffe6dc"/><rect class="cbfill" style="" x="75" y="1" width="30" height="7" fill="#ffdcce"/><rect class="cbfill" style="" x="75" y="1" width="30" height="6" fill="#ffd2c0"/><rect class="cbfill" style="" x="75" y="1" width="30" height="5" fill="#ffc8b2"/><rect class="cbfill" style="" x="75" y="1" width="30" height="3" fill="#ffbea4"/><rect class="cbfill" style="" x="75" y="1" width="30" height="2" fill="#ffb496"/><rect class="cbfill" style="" x="75" y="1" width="30" height="2" fill="#ffaa88"/><rect class="cbfill" style="" x="75" y="0" width="30" height="2" fill="#ffa07a"/></g><g class="cblines" transform="translate(0,39)"/><g class="cbaxis crisp" transform="translate(0,-18)"><g class="ycbc2e1b6tick"><text text-anchor="start" x="107.7" y="3.8499999999999996" transform="translate(0,79.4)" style="font-family: 'Open Sans', verdana, arial, sans-serif; font-size: 11px; fill: rgb(0, 0, 0); fill-opacity: 1; white-space: pre; opacity: 1;">0.5</text></g><g class="ycbc2e1b6tick"><text text-anchor="start" x="107.7" y="3.8499999999999996" style="font-family: 'Open Sans', verdana, arial, sans-serif; font-size: 11px; fill: rgb(0, 0, 0); fill-opacity: 1; white-space: pre; opacity: 1;" transform="translate(0,68.4)">0</text></g><g class="ycbc2e1b6tick"><text text-anchor="start" x="107.7" y="3.8499999999999996" style="font-family: 'Open Sans', verdana, arial, sans-serif; font-size: 11px; fill: rgb(0, 0, 0); fill-opacity: 1; white-space: pre; opacity: 1;" transform="translate(0,57.4)">0.5</text></g></g><g class="cbtitleunshift" transform="translate(-26,-18)"><g class="cbtitle" transform="translate(17.2294921875,0)"><text class="hycbc2e1b6title" transform="rotate(-90,154.28,68.39999999999999)" x="154.28" y="68.39999999999999" text-anchor="middle" style="opacity: 1; font-family: 'Open Sans', verdana, arial, sans-serif; font-size: 13px; fill: rgb(0, 0, 0); fill-opacity: 1; white-space: pre;">log<tspan style="font-size:70%" dy="0.3em">10</tspan><tspan dy="-0.21em"></tspan> ( J<tspan style="font-size:70%" dy="0.3em"><tspan style="font-style:italic">Oa</tspan></tspan><tspan dy="-0.21em"></tspan> / J<tspan style="font-size:70%" dy="0.3em"><tspan style="font-style:italic">Ct</tspan></tspan><tspan dy="-0.21em"></tspan> )</text></g></g><rect class="cboutline" x="75" y="39" width="30" height="22" style="stroke: rgb(68, 68, 68); stroke-opacity: 1; fill: none; stroke-width: 0;"/></g><g class="g-gtitle"/><g class="g-xtitle" transform="translate(0,4.800000000000011)"><text class="xtitle" x="58" y="139.1189453125" text-anchor="middle" style="opacity: 1; font-family: 'Open Sans', verdana, arial, sans-serif; font-size: 11px; fill: rgb(0, 0, 0); fill-opacity: 1; white-space: pre;">Acetate [mM]</text></g><g class="g-ytitle" transform="translate(13.068359375,0)"><text class="ytitle" transform="rotate(-90,-1.0687500000000014,60)" x="-1.0687500000000014" y="60" text-anchor="middle" style="opacity: 1; font-family: 'Open Sans', verdana, arial, sans-serif; font-size: 11px; fill: rgb(0, 0, 0); fill-opacity: 1; white-space: pre;">J [1/h]</text></g></g></svg>