<svg class="main-svg" xmlns="http://www.w3.org/2000/svg" xmlns:xlink="http://www.w3.org/1999/xlink" width="300" height="250" style="" viewBox="0 0 300 250"><rect x="0" y="0" width="300" height="250" style="fill: rgb(255, 255, 255); fill-opacity: 1;"/><defs id="defs-1dba1e"><g class="clips"><clipPath id="clip1dba1exyplot" class="plotclip"><rect width="167" height="202"/></clipPath><clipPath class="axesclip" id="clip1dba1ex"><rect x="34" y="0" width="167" height="250"/></clipPath><clipPath class="axesclip" id="clip1dba1ey"><rect x="0" y="15" width="300" height="202"/></clipPath><clipPath class="axesclip" id="clip1dba1exy"><rect x="34" y="15" width="167" height="202"/></clipPath><clipPath class="contourclip" id="clip3b52e0"><path d="M0,10.1L167,10.1L167,191.9L0,191.9Z"/></clipPath></g><g class="gradients"/><g class="patterns"/></defs><g class="bglayer"/><g class="layer-below"><g class="imagelayer"/><g class="shapelayer"/></g><g class="cartesianlayer"><g class="subplot xy"><g class="layer-subplot"><g class="shapelayer"/><g class="imagelayer"/></g><g class="minor-gridlayer"><g class="x"/><g class="y"/></g><g class="gridlayer"><g class="x"/><g class="y"/></g><g class="zerolinelayer"><path class="yzl zl crisp" transform="translate(0,206.9)" d="M34,0h167" style="stroke: rgb(0, 0, 0); stroke-opacity: 1; stroke-width: 1px;"/></g><g class="layer-between"><g class="shapelayer"/><g class="imagelayer"/></g><path class="xlines-below"/><path class="ylines-below"/><g class="overlines-below"/><g class="xaxislayer-below"/><g class="yaxislayer-below"/><g class="overaxes-below"/><g class="overplot"><g class="xy" transform="translate(34,15)" clip-path="url(#clip1dba1exyplot)"><g class="contourlayer mlayer"><g class="contour" clip-path="url(#clip3b52e0)" style="opacity: 1;"><g class="heatmapcoloring"/><g class="contourbg"><path d="M0,10.1L167,10.1L167,191.9L0,191.9Z" style="stroke: none; fill: rgb(173, 216, 230);"/></g><g class="contourfill"><path d="M0,10.1L167,10.1L167,191.9L0,191.9Z" style="stroke: none; fill: rgb(182, 220, 233);"/><path d="M0,10.1L167,10.1L167,191.9L0,191.9Z" style="stroke: none; fill: rgb(190, 224, 235);"/><path d="M140.18,10.1Q140.18,11.33 140.18,11.94C140.18,12.55 140.18,13.16 140.18,13.77C140.18,14.38 140.18,15 140.18,15.61C140.18,16.22 140.18,16.84 140.18,17.45C140.18,18.06 140.18,18.67 140.18,19.28C140.18,19.89 140.18,20.51 140.18,21.12C140.18,21.73 140.18,22.34 140.18,22.95C140.18,23.56 140.18,24.18 140.18,24.79C140.18,25.4 140.18,26.02 140.18,26.63C140.18,27.24 140.18,27.85 140.18,28.46C140.18,29.07 140.18,29.69 140.18,30.3C140.18,30.91 140.18,31.53 140.18,32.14C140.18,32.75 140.18,33.36 140.18,33.97C140.18,34.58 140.18,35.2 140.18,35.81C140.18,36.42 140.18,37.04 140.18,37.65C140.18,38.26 140.18,38.87 140.18,39.48C140.18,40.09 140.18,40.71 140.18,41.32C140.18,41.93 140.18,42.54 140.18,43.15C140.18,43.76 140.18,44.38 140.18,44.99C140.18,45.6 140.18,46.22 140.18,46.83C140.18,47.44 140.18,48.05 140.18,48.66C140.18,49.27 140.18,49.89 140.18,50.5C140.18,51.11 140.18,51.73 140.18,52.34C140.18,52.95 140.18,53.56 140.18,54.17C140.18,54.78 140.18,55.4 140.18,56.01C140.18,56.62 140.18,57.24 140.18,57.85C140.18,58.46 140.18,59.07 140.18,59.68C140.18,60.29 140.18,60.91 140.18,61.52C140.18,62.13 140.18,62.74 140.18,63.35C140.18,63.96 140.18,64.58 140.18,65.19C140.18,65.8 140.18,66.42 140.18,67.03C140.18,67.64 140.18,68.25 140.18,68.86C140.18,69.47 140.18,70.09 140.18,70.7C140.18,71.31 140.18,71.93 140.18,72.54C140.18,73.15 140.18,73.76 140.18,74.37C140.18,74.98 140.18,75.6 140.18,76.21C140.18,76.82 140.18,77.44 140.18,78.05C140.18,78.66 140.18,79.27 140.18,79.88C140.18,80.49 140.18,81.11 140.18,81.72C140.18,82.33 140.18,82.94 140.18,83.55C140.18,84.16 140.18,84.78 140.18,85.39C140.18,86 140.18,86.62 140.18,87.23C140.18,87.84 140.18,88.45 140.18,89.06C140.18,89.67 140.18,90.29 140.18,90.9C140.18,91.51 140.18,92.13 140.18,92.74C140.18,93.35 140.18,93.96 140.18,94.57C140.18,95.18 140.18,95.8 140.18,96.41C140.18,97.02 140.18,97.64 140.18,98.25C140.18,98.86 140.18,99.47 140.18,100.08C140.18,100.69 140.18,101.31 140.18,101.92C140.18,102.53 140.18,103.14 140.18,103.75C140.18,104.36 140.18,104.98 140.18,105.59C140.18,106.2 140.18,106.82 140.18,107.43C140.18,108.04 140.18,108.65 140.18,109.26C140.18,109.87 140.18,110.49 140.18,111.1C140.18,111.71 140.18,112.33 140.18,112.94C140.18,113.55 140.18,114.16 140.18,114.77C140.18,115.38 140.18,116 140.18,116.61C140.18,117.22 140.18,117.84 140.18,118.45C140.18,119.06 140.18,119.67 140.18,120.28C140.18,120.89 140.18,121.51 140.18,122.12C140.18,122.73 140.18,123.34 140.18,123.95C140.18,124.56 140.18,125.18 140.18,125.79C140.18,126.4 140.18,127.02 140.18,127.63C140.18,128.24 140.18,128.85 140.18,129.46C140.18,130.07 140.18,130.69 140.18,131.3C140.18,131.91 140.18,132.53 140.18,133.14C140.18,133.75 140.18,134.36 140.18,134.97C140.18,135.58 140.18,136.2 140.18,136.81C140.18,137.42 140.18,138.04 140.18,138.65C140.18,139.26 140.18,139.87 140.18,140.48C140.18,141.09 140.18,141.71 140.18,142.32C140.18,142.93 140.18,143.54 140.18,144.15C140.18,144.76 140.18,145.38 140.18,145.99C140.18,146.6 140.18,147.22 140.18,147.83C140.18,148.44 140.18,149.05 140.18,149.66C140.18,150.27 140.18,150.89 140.18,151.5C140.18,152.11 140.18,152.73 140.18,153.34C140.18,153.95 140.18,154.56 140.18,155.17C140.18,155.78 140.18,156.4 140.18,157.01C140.18,157.62 140.18,158.24 140.18,158.85C140.18,159.46 140.18,160.07 140.18,160.68C140.18,161.29 140.18,161.91 140.18,162.52C140.18,163.13 140.18,163.74 140.18,164.35C140.18,164.96 140.18,165.58 140.18,166.19C140.18,166.8 140.18,167.42 140.18,168.03C140.18,168.64 140.18,169.25 140.18,169.86C140.18,170.47 140.18,171.09 140.18,171.7C140.18,172.31 140.18,172.93 140.18,173.54C140.18,174.15 140.18,174.76 140.18,175.37C140.18,175.98 140.18,176.6 140.18,177.21C140.18,177.82 140.18,178.44 140.18,179.05C140.18,179.66 140.18,180.27 140.18,180.88C140.18,181.49 140.18,182.11 140.18,182.72C140.18,183.33 140.18,183.94 140.18,184.55C140.18,185.16 140.18,185.78 140.18,186.39C140.18,187 140.18,187.62 140.18,188.23C140.18,188.84 140.18,189.45 140.18,190.06Q140.18,190.67 140.18,191.9L0,191.9L0,10.1Z" style="stroke: none; fill: rgb(199, 228, 238);"/><path d="M118.15,10.1Q118.15,11.33 118.15,11.94C118.15,12.55 118.15,13.16 118.15,13.77C118.15,14.38 118.15,15 118.15,15.61C118.15,16.22 118.15,16.84 118.15,17.45C118.15,18.06 118.15,18.67 118.15,19.28C118.15,19.89 118.15,20.51 118.15,21.12C118.15,21.73 118.15,22.34 118.15,22.95C118.15,23.56 118.15,24.18 118.15,24.79C118.15,25.4 118.15,26.02 118.15,26.63C118.15,27.24 118.15,27.85 118.15,28.46C118.15,29.07 118.15,29.69 118.15,30.3C118.15,30.91 118.15,31.53 118.15,32.14C118.15,32.75 118.15,33.36 118.15,33.97C118.15,34.58 118.15,35.2 118.15,35.81C118.15,36.42 118.15,37.04 118.15,37.65C118.15,38.26 118.15,38.87 118.15,39.48C118.15,40.09 118.15,40.71 118.15,41.32C118.15,41.93 118.15,42.54 118.15,43.15C118.15,43.76 118.15,44.38 118.15,44.99C118.15,45.6 118.15,46.22 118.15,46.83C118.15,47.44 118.15,48.05 118.15,48.66C118.15,49.27 118.15,49.89 118.15,50.5C118.15,51.11 118.15,51.73 118.15,52.34C118.15,52.95 118.15,53.56 118.15,54.17C118.15,54.78 118.15,55.4 118.15,56.01C118.15,56.62 118.15,57.24 118.15,57.85C118.15,58.46 118.15,59.07 118.15,59.68C118.15,60.29 118.15,60.91 118.15,61.52C118.15,62.13 118.15,62.74 118.15,63.35C118.15,63.96 118.15,64.58 118.15,65.19C118.15,65.8 118.15,66.42 118.15,67.03C118.15,67.64 118.15,68.25 118.15,68.86C118.15,69.47 118.15,70.09 118.15,70.7C118.15,71.31 118.15,71.93 118.15,72.54C118.15,73.15 118.15,73.76 118.15,74.37C118.15,74.98 118.15,75.6 118.15,76.21C118.15,76.82 118.15,77.44 118.15,78.05C118.15,78.66 118.15,79.27 118.15,79.88C118.15,80.49 118.15,81.11 118.15,81.72C118.15,82.33 118.15,82.94 118.15,83.55C118.15,84.16 118.15,84.78 118.15,85.39C118.15,86 118.15,86.62 118.15,87.23C118.15,87.84 118.15,88.45 118.15,89.06C118.15,89.67 118.15,90.29 118.15,90.9C118.15,91.51 118.15,92.13 118.15,92.74C118.15,93.35 118.15,93.96 118.15,94.57C118.15,95.18 118.15,95.8 118.15,96.41C118.15,97.02 118.15,97.64 118.15,98.25C118.15,98.86 118.15,99.47 118.15,100.08C118.15,100.69 118.15,101.31 118.15,101.92C118.15,102.53 118.15,103.14 118.15,103.75C118.15,104.36 118.15,104.98 118.15,105.59C118.15,106.2 118.15,106.82 118.15,107.43C118.15,108.04 118.15,108.65 118.15,109.26C118.15,109.87 118.15,110.49 118.15,111.1C118.15,111.71 118.15,112.33 118.15,112.94C118.15,113.55 118.15,114.16 118.15,114.77C118.15,115.38 118.15,116 118.15,116.61C118.15,117.22 118.15,117.84 118.15,118.45C118.15,119.06 118.15,119.67 118.15,120.28C118.15,120.89 118.15,121.51 118.15,122.12C118.15,122.73 118.15,123.34 118.15,123.95C118.15,124.56 118.15,125.18 118.15,125.79C118.15,126.4 118.15,127.02 118.15,127.63C118.15,128.24 118.15,128.85 118.15,129.46C118.15,130.07 118.15,130.69 118.15,131.3C118.15,131.91 118.15,132.53 118.15,133.14C118.15,133.75 118.15,134.36 118.15,134.97C118.15,135.58 118.15,136.2 118.15,136.81C118.15,137.42 118.15,138.04 118.15,138.65C118.15,139.26 118.15,139.87 118.15,140.48C118.15,141.09 118.15,141.71 118.15,142.32C118.15,142.93 118.15,143.54 118.15,144.15C118.15,144.76 118.15,145.38 118.15,145.99C118.15,146.6 118.15,147.22 118.15,147.83C118.15,148.44 118.15,149.05 118.15,149.66C118.15,150.27 118.15,150.89 118.15,151.5C118.15,152.11 118.15,152.73 118.15,153.34C118.15,153.95 118.15,154.56 118.15,155.17C118.15,155.78 118.15,156.4 118.15,157.01C118.15,157.62 118.15,158.24 118.15,158.85C118.15,159.46 118.15,160.07 118.15,160.68C118.15,161.29 118.15,161.91 118.15,162.52C118.15,163.13 118.15,163.74 118.15,164.35C118.15,164.96 118.15,165.58 118.15,166.19C118.15,166.8 118.15,167.42 118.15,168.03C118.15,168.64 118.15,169.25 118.15,169.86C118.15,170.47 118.15,171.09 118.15,171.7C118.15,172.31 118.15,172.93 118.15,173.54C118.15,174.15 118.15,174.76 118.15,175.37C118.15,175.98 118.15,176.6 118.15,177.21C118.15,177.82 118.15,178.44 118.15,179.05C118.15,179.66 118.15,180.27 118.15,180.88C118.15,181.49 118.15,182.11 118.15,182.72C118.15,183.33 118.15,183.94 118.15,184.55C118.15,185.16 118.15,185.78 118.15,186.39C118.15,187 118.15,187.62 118.15,188.23C118.15,188.84 118.15,189.45 118.15,190.06Q118.15,190.67 118.15,191.9L0,191.9L0,10.1Z" style="stroke: none; fill: rgb(208, 232, 241);"/><path d="M101.14,10.1Q101.14,11.33 101.14,11.94C101.14,12.55 101.14,13.16 101.14,13.77C101.14,14.38 101.14,15 101.14,15.61C101.14,16.22 101.14,16.84 101.14,17.45C101.14,18.06 101.14,18.67 101.14,19.28C101.14,19.89 101.14,20.51 101.14,21.12C101.14,21.73 101.14,22.34 101.14,22.95C101.14,23.56 101.14,24.18 101.14,24.79C101.14,25.4 101.14,26.02 101.14,26.63C101.14,27.24 101.14,27.85 101.14,28.46C101.14,29.07 101.14,29.69 101.14,30.3C101.14,30.91 101.14,31.53 101.14,32.14C101.14,32.75 101.14,33.36 101.14,33.97C101.14,34.58 101.14,35.2 101.14,35.81C101.14,36.42 101.14,37.04 101.14,37.65C101.14,38.26 101.14,38.87 101.14,39.48C101.14,40.09 101.14,40.71 101.14,41.32C101.14,41.93 101.14,42.54 101.14,43.15C101.14,43.76 101.14,44.38 101.14,44.99C101.14,45.6 101.14,46.22 101.14,46.83C101.14,47.44 101.14,48.05 101.14,48.66C101.14,49.27 101.14,49.89 101.14,50.5C101.14,51.11 101.14,51.73 101.14,52.34C101.14,52.95 101.14,53.56 101.14,54.17C101.14,54.78 101.14,55.4 101.14,56.01C101.14,56.62 101.14,57.24 101.14,57.85C101.14,58.46 101.14,59.07 101.14,59.68C101.14,60.29 101.14,60.91 101.14,61.52C101.14,62.13 101.14,62.74 101.14,63.35C101.14,63.96 101.14,64.58 101.14,65.19C101.14,65.8 101.14,66.42 101.14,67.03C101.14,67.64 101.14,68.25 101.14,68.86C101.14,69.47 101.14,70.09 101.14,70.7C101.14,71.31 101.14,71.93 101.14,72.54C101.14,73.15 101.14,73.76 101.14,74.37C101.14,74.98 101.14,75.6 101.14,76.21C101.14,76.82 101.14,77.44 101.14,78.05C101.14,78.66 101.14,79.27 101.14,79.88C101.14,80.49 101.14,81.11 101.14,81.72C101.14,82.33 101.14,82.94 101.14,83.55C101.14,84.16 101.14,84.78 101.14,85.39C101.14,86 101.14,86.62 101.14,87.23C101.14,87.84 101.14,88.45 101.14,89.06C101.14,89.67 101.14,90.29 101.14,90.9C101.14,91.51 101.14,92.13 101.14,92.74C101.14,93.35 101.14,93.96 101.14,94.57C101.14,95.18 101.14,95.8 101.14,96.41C101.14,97.02 101.14,97.64 101.14,98.25C101.14,98.86 101.14,99.47 101.14,100.08C101.14,100.69 101.14,101.31 101.14,101.92C101.14,102.53 101.14,103.14 101.14,103.75C101.14,104.36 101.14,104.98 101.14,105.59C101.14,106.2 101.14,106.82 101.14,107.43C101.14,108.04 101.14,108.65 101.14,109.26C101.14,109.87 101.14,110.49 101.14,111.1C101.14,111.71 101.14,112.33 101.14,112.94C101.14,113.55 101.14,114.16 101.14,114.77C101.14,115.38 101.14,116 101.14,116.61C101.14,117.22 101.14,117.84 101.14,118.45C101.14,119.06 101.14,119.67 101.14,120.28C101.14,120.89 101.14,121.51 101.14,122.12C101.14,122.73 101.14,123.34 101.14,123.95C101.14,124.56 101.14,125.18 101.14,125.79C101.14,126.4 101.14,127.02 101.14,127.63C101.14,128.24 101.14,128.85 101.14,129.46C101.14,130.07 101.14,130.69 101.14,131.3C101.14,131.91 101.14,132.53 101.14,133.14C101.14,133.75 101.14,134.36 101.14,134.97C101.14,135.58 101.14,136.2 101.14,136.81C101.14,137.42 101.14,138.04 101.14,138.65C101.14,139.26 101.14,139.87 101.14,140.48C101.14,141.09 101.14,141.71 101.14,142.32C101.14,142.93 101.14,143.54 101.14,144.15C101.14,144.76 101.14,145.38 101.14,145.99C101.14,146.6 101.14,147.22 101.14,147.83C101.14,148.44 101.14,149.05 101.14,149.66C101.14,150.27 101.14,150.89 101.14,151.5C101.14,152.11 101.14,152.73 101.14,153.34C101.14,153.95 101.14,154.56 101.14,155.17C101.14,155.78 101.14,156.4 101.14,157.01C101.14,157.62 101.14,158.24 101.14,158.85C101.14,159.46 101.14,160.07 101.14,160.68C101.14,161.29 101.14,161.91 101.14,162.52C101.14,163.13 101.14,163.74 101.14,164.35C101.14,164.96 101.14,165.58 101.14,166.19C101.14,166.8 101.14,167.42 101.14,168.03C101.14,168.64 101.14,169.25 101.14,169.86C101.14,170.47 101.14,171.09 101.14,171.7C101.14,172.31 101.14,172.93 101.14,173.54C101.14,174.15 101.14,174.76 101.14,175.37C101.14,175.98 101.14,176.6 101.14,177.21C101.14,177.82 101.14,178.44 101.14,179.05C101.14,179.66 101.14,180.27 101.14,180.88C101.14,181.49 101.14,182.11 101.14,182.72C101.14,183.33 101.14,183.94 101.14,184.55C101.14,185.16 101.14,185.78 101.14,186.39C101.14,187 101.14,187.62 101.14,188.23C101.14,188.84 101.14,189.45 101.14,190.06Q101.14,190.67 101.14,191.9L0,191.9L0,10.1Z" style="stroke: none; fill: rgb(216, 237, 243);"/><path d="M87.63,10.1Q87.63,11.33 87.63,11.94C87.63,12.55 87.63,13.16 87.63,13.77C87.63,14.38 87.63,15 87.63,15.61C87.63,16.22 87.63,16.84 87.63,17.45C87.63,18.06 87.63,18.67 87.63,19.28C87.63,19.89 87.63,20.51 87.63,21.12C87.63,21.73 87.63,22.34 87.63,22.95C87.63,23.56 87.63,24.18 87.63,24.79C87.63,25.4 87.63,26.02 87.63,26.63C87.63,27.24 87.63,27.85 87.63,28.46C87.63,29.07 87.63,29.69 87.63,30.3C87.63,30.91 87.63,31.53 87.63,32.14C87.63,32.75 87.63,33.36 87.63,33.97C87.63,34.58 87.63,35.2 87.63,35.81C87.63,36.42 87.63,37.04 87.63,37.65C87.63,38.26 87.63,38.87 87.63,39.48C87.63,40.09 87.63,40.71 87.63,41.32C87.63,41.93 87.63,42.54 87.63,43.15C87.63,43.76 87.63,44.38 87.63,44.99C87.63,45.6 87.63,46.22 87.63,46.83C87.63,47.44 87.63,48.05 87.63,48.66C87.63,49.27 87.63,49.89 87.63,50.5C87.63,51.11 87.63,51.73 87.63,52.34C87.63,52.95 87.63,53.56 87.63,54.17C87.63,54.78 87.63,55.4 87.63,56.01C87.63,56.62 87.63,57.24 87.63,57.85C87.63,58.46 87.63,59.07 87.63,59.68C87.63,60.29 87.63,60.91 87.63,61.52C87.63,62.13 87.63,62.74 87.63,63.35C87.63,63.96 87.63,64.58 87.63,65.19C87.63,65.8 87.63,66.42 87.63,67.03C87.63,67.64 87.63,68.25 87.63,68.86C87.63,69.47 87.63,70.09 87.63,70.7C87.63,71.31 87.63,71.93 87.63,72.54C87.63,73.15 87.63,73.76 87.63,74.37C87.63,74.98 87.63,75.6 87.63,76.21C87.63,76.82 87.63,77.44 87.63,78.05C87.63,78.66 87.63,79.27 87.63,79.88C87.63,80.49 87.63,81.11 87.63,81.72C87.63,82.33 87.63,82.94 87.63,83.55C87.63,84.16 87.63,84.78 87.63,85.39C87.63,86 87.63,86.62 87.63,87.23C87.63,87.84 87.63,88.45 87.63,89.06C87.63,89.67 87.63,90.29 87.63,90.9C87.63,91.51 87.63,92.13 87.63,92.74C87.63,93.35 87.63,93.96 87.63,94.57C87.63,95.18 87.63,95.8 87.63,96.41C87.63,97.02 87.63,97.64 87.63,98.25C87.63,98.86 87.63,99.47 87.63,100.08C87.63,100.69 87.63,101.31 87.63,101.92C87.63,102.53 87.63,103.14 87.63,103.75C87.63,104.36 87.63,104.98 87.63,105.59C87.63,106.2 87.63,106.82 87.63,107.43C87.63,108.04 87.63,108.65 87.63,109.26C87.63,109.87 87.63,110.49 87.63,111.1C87.63,111.71 87.63,112.33 87.63,112.94C87.63,113.55 87.63,114.16 87.63,114.77C87.63,115.38 87.63,116 87.63,116.61C87.63,117.22 87.63,117.84 87.63,118.45C87.63,119.06 87.63,119.67 87.63,120.28C87.63,120.89 87.63,121.51 87.63,122.12C87.63,122.73 87.63,123.34 87.63,123.95C87.63,124.56 87.63,125.18 87.63,125.79C87.63,126.4 87.63,127.02 87.63,127.63C87.63,128.24 87.63,128.85 87.63,129.46C87.63,130.07 87.63,130.69 87.63,131.3C87.63,131.91 87.63,132.53 87.63,133.14C87.63,133.75 87.63,134.36 87.63,134.97C87.63,135.58 87.63,136.2 87.63,136.81C87.63,137.42 87.63,138.04 87.63,138.65C87.63,139.26 87.63,139.87 87.63,140.48C87.63,141.09 87.63,141.71 87.63,142.32C87.63,142.93 87.63,143.54 87.63,144.15C87.63,144.76 87.63,145.38 87.63,145.99C87.63,146.6 87.63,147.22 87.63,147.83C87.63,148.44 87.63,149.05 87.63,149.66C87.63,150.27 87.63,150.89 87.63,151.5C87.63,152.11 87.63,152.73 87.63,153.34C87.63,153.95 87.63,154.56 87.63,155.17C87.63,155.78 87.63,156.4 87.63,157.01C87.63,157.62 87.63,158.24 87.63,158.85C87.63,159.46 87.63,160.07 87.63,160.68C87.63,161.29 87.63,161.91 87.63,162.52C87.63,163.13 87.63,163.74 87.63,164.35C87.63,164.96 87.63,165.58 87.63,166.19C87.63,166.8 87.63,167.42 87.63,168.03C87.63,168.64 87.63,169.25 87.63,169.86C87.63,170.47 87.63,171.09 87.63,171.7C87.63,172.31 87.63,172.93 87.63,173.54C87.63,174.15 87.63,174.76 87.63,175.37C87.63,175.98 87.63,176.6 87.63,177.21C87.63,177.82 87.63,178.44 87.63,179.05C87.63,179.66 87.63,180.27 87.63,180.88C87.63,181.49 87.63,182.11 87.63,182.72C87.63,183.33 87.63,183.94 87.63,184.55C87.63,185.16 87.63,185.78 87.63,186.39C87.63,187 87.63,187.62 87.63,188.23C87.63,188.84 87.63,189.45 87.63,190.06Q87.63,190.67 87.63,191.9L0,191.9L0,10.1Z" style="stroke: none; fill: rgb(225, 241, 246);"/><path d="M76.66,10.1Q76.66,11.33 76.66,11.94C76.66,12.55 76.66,13.16 76.66,13.77C76.66,14.38 76.66,15 76.66,15.61C76.66,16.22 76.66,16.84 76.66,17.45C76.66,18.06 76.66,18.67 76.66,19.28C76.66,19.89 76.66,20.51 76.66,21.12C76.66,21.73 76.66,22.34 76.66,22.95C76.66,23.56 76.66,24.18 76.66,24.79C76.66,25.4 76.66,26.02 76.66,26.63C76.66,27.24 76.66,27.85 76.66,28.46C76.66,29.07 76.66,29.69 76.66,30.3C76.66,30.91 76.66,31.53 76.66,32.14C76.66,32.75 76.66,33.36 76.66,33.97C76.66,34.58 76.66,35.2 76.66,35.81C76.66,36.42 76.66,37.04 76.66,37.65C76.66,38.26 76.66,38.87 76.66,39.48C76.66,40.09 76.66,40.71 76.66,41.32C76.66,41.93 76.66,42.54 76.66,43.15C76.66,43.76 76.66,44.38 76.66,44.99C76.66,45.6 76.66,46.22 76.66,46.83C76.66,47.44 76.66,48.05 76.66,48.66C76.66,49.27 76.66,49.89 76.66,50.5C76.66,51.11 76.66,51.73 76.66,52.34C76.66,52.95 76.66,53.56 76.66,54.17C76.66,54.78 76.66,55.4 76.66,56.01C76.66,56.62 76.66,57.24 76.66,57.85C76.66,58.46 76.66,59.07 76.66,59.68C76.66,60.29 76.66,60.91 76.66,61.52C76.66,62.13 76.66,62.74 76.66,63.35C76.66,63.96 76.66,64.58 76.66,65.19C76.66,65.8 76.66,66.42 76.66,67.03C76.66,67.64 76.66,68.25 76.66,68.86C76.66,69.47 76.66,70.09 76.66,70.7C76.66,71.31 76.66,71.93 76.66,72.54C76.66,73.15 76.66,73.76 76.66,74.37C76.66,74.98 76.66,75.6 76.66,76.21C76.66,76.82 76.66,77.44 76.66,78.05C76.66,78.66 76.66,79.27 76.66,79.88C76.66,80.49 76.66,81.11 76.66,81.72C76.66,82.33 76.66,82.94 76.66,83.55C76.66,84.16 76.66,84.78 76.66,85.39C76.66,86 76.66,86.62 76.66,87.23C76.66,87.84 76.66,88.45 76.66,89.06C76.66,89.67 76.66,90.29 76.66,90.9C76.66,91.51 76.66,92.13 76.66,92.74C76.66,93.35 76.66,93.96 76.66,94.57C76.66,95.18 76.66,95.8 76.66,96.41C76.66,97.02 76.66,97.64 76.66,98.25C76.66,98.86 76.66,99.47 76.66,100.08C76.66,100.69 76.66,101.31 76.66,101.92C76.66,102.53 76.66,103.14 76.66,103.75C76.66,104.36 76.66,104.98 76.66,105.59C76.66,106.2 76.66,106.82 76.66,107.43C76.66,108.04 76.66,108.65 76.66,109.26C76.66,109.87 76.66,110.49 76.66,111.1C76.66,111.71 76.66,112.33 76.66,112.94C76.66,113.55 76.66,114.16 76.66,114.77C76.66,115.38 76.66,116 76.66,116.61C76.66,117.22 76.66,117.84 76.66,118.45C76.66,119.06 76.66,119.67 76.66,120.28C76.66,120.89 76.66,121.51 76.66,122.12C76.66,122.73 76.66,123.34 76.66,123.95C76.66,124.56 76.66,125.18 76.66,125.79C76.66,126.4 76.66,127.02 76.66,127.63C76.66,128.24 76.66,128.85 76.66,129.46C76.66,130.07 76.66,130.69 76.66,131.3C76.66,131.91 76.66,132.53 76.66,133.14C76.66,133.75 76.66,134.36 76.66,134.97C76.66,135.58 76.66,136.2 76.66,136.81C76.66,137.42 76.66,138.04 76.66,138.65C76.66,139.26 76.66,139.87 76.66,140.48C76.66,141.09 76.66,141.71 76.66,142.32C76.66,142.93 76.66,143.54 76.66,144.15C76.66,144.76 76.66,145.38 76.66,145.99C76.66,146.6 76.66,147.22 76.66,147.83C76.66,148.44 76.66,149.05 76.66,149.66C76.66,150.27 76.66,150.89 76.66,151.5C76.66,152.11 76.66,152.73 76.66,153.34C76.66,153.95 76.66,154.56 76.66,155.17C76.66,155.78 76.66,156.4 76.66,157.01C76.66,157.62 76.66,158.24 76.66,158.85C76.66,159.46 76.66,160.07 76.66,160.68C76.66,161.29 76.66,161.91 76.66,162.52C76.66,163.13 76.66,163.74 76.66,164.35C76.66,164.96 76.66,165.58 76.66,166.19C76.66,166.8 76.66,167.42 76.66,168.03C76.66,168.64 76.66,169.25 76.66,169.86C76.66,170.47 76.66,171.09 76.66,171.7C76.66,172.31 76.66,172.93 76.66,173.54C76.66,174.15 76.66,174.76 76.66,175.37C76.66,175.98 76.66,176.6 76.66,177.21C76.66,177.82 76.66,178.44 76.66,179.05C76.66,179.66 76.66,180.27 76.66,180.88C76.66,181.49 76.66,182.11 76.66,182.72C76.66,183.33 76.66,183.94 76.66,184.55C76.66,185.16 76.66,185.78 76.66,186.39C76.66,187 76.66,187.62 76.66,188.23C76.66,188.84 76.66,189.45 76.66,190.06Q76.66,190.67 76.66,191.9L0,191.9L0,10.1Z" style="stroke: none; fill: rgb(233, 245, 248);"/><path d="M67.57,10.1Q67.57,11.33 67.57,11.94C67.57,12.55 67.57,13.16 67.57,13.77C67.57,14.38 67.57,15 67.57,15.61C67.57,16.22 67.57,16.84 67.57,17.45C67.57,18.06 67.57,18.67 67.57,19.28C67.57,19.89 67.57,20.51 67.57,21.12C67.57,21.73 67.57,22.34 67.57,22.95C67.57,23.56 67.57,24.18 67.57,24.79C67.57,25.4 67.57,26.02 67.57,26.63C67.57,27.24 67.57,27.85 67.57,28.46C67.57,29.07 67.57,29.69 67.57,30.3C67.57,30.91 67.57,31.53 67.57,32.14C67.57,32.75 67.57,33.36 67.57,33.97C67.57,34.58 67.57,35.2 67.57,35.81C67.57,36.42 67.57,37.04 67.57,37.65C67.57,38.26 67.57,38.87 67.57,39.48C67.57,40.09 67.57,40.71 67.57,41.32C67.57,41.93 67.57,42.54 67.57,43.15C67.57,43.76 67.57,44.38 67.57,44.99C67.57,45.6 67.57,46.22 67.57,46.83C67.57,47.44 67.57,48.05 67.57,48.66C67.57,49.27 67.57,49.89 67.57,50.5C67.57,51.11 67.57,51.73 67.57,52.34C67.57,52.95 67.57,53.56 67.57,54.17C67.57,54.78 67.57,55.4 67.57,56.01C67.57,56.62 67.57,57.24 67.57,57.85C67.57,58.46 67.57,59.07 67.57,59.68C67.57,60.29 67.57,60.91 67.57,61.52C67.57,62.13 67.57,62.74 67.57,63.35C67.57,63.96 67.57,64.58 67.57,65.19C67.57,65.8 67.57,66.42 67.57,67.03C67.57,67.64 67.57,68.25 67.57,68.86C67.57,69.47 67.57,70.09 67.57,70.7C67.57,71.31 67.57,71.93 67.57,72.54C67.57,73.15 67.57,73.76 67.57,74.37C67.57,74.98 67.57,75.6 67.57,76.21C67.57,76.82 67.57,77.44 67.57,78.05C67.57,78.66 67.57,79.27 67.57,79.88C67.57,80.49 67.57,81.11 67.57,81.72C67.57,82.33 67.57,82.94 67.57,83.55C67.57,84.16 67.57,84.78 67.57,85.39C67.57,86 67.57,86.62 67.57,87.23C67.57,87.84 67.57,88.45 67.57,89.06C67.57,89.67 67.57,90.29 67.57,90.9C67.57,91.51 67.57,92.13 67.57,92.74C67.57,93.35 67.57,93.96 67.57,94.57C67.57,95.18 67.57,95.8 67.57,96.41C67.57,97.02 67.57,97.64 67.57,98.25C67.57,98.86 67.57,99.47 67.57,100.08C67.57,100.69 67.57,101.31 67.57,101.92C67.57,102.53 67.57,103.14 67.57,103.75C67.57,104.36 67.57,104.98 67.57,105.59C67.57,106.2 67.57,106.82 67.57,107.43C67.57,108.04 67.57,108.65 67.57,109.26C67.57,109.87 67.57,110.49 67.57,111.1C67.57,111.71 67.57,112.33 67.57,112.94C67.57,113.55 67.57,114.16 67.57,114.77C67.57,115.38 67.57,116 67.57,116.61C67.57,117.22 67.57,117.84 67.57,118.45C67.57,119.06 67.57,119.67 67.57,120.28C67.57,120.89 67.57,121.51 67.57,122.12C67.57,122.73 67.57,123.34 67.57,123.95C67.57,124.56 67.57,125.18 67.57,125.79C67.57,126.4 67.57,127.02 67.57,127.63C67.57,128.24 67.57,128.85 67.57,129.46C67.57,130.07 67.57,130.69 67.57,131.3C67.57,131.91 67.57,132.53 67.57,133.14C67.57,133.75 67.57,134.36 67.57,134.97C67.57,135.58 67.57,136.2 67.57,136.81C67.57,137.42 67.57,138.04 67.57,138.65C67.57,139.26 67.57,139.87 67.57,140.48C67.57,141.09 67.57,141.71 67.57,142.32C67.57,142.93 67.57,143.54 67.57,144.15C67.57,144.76 67.57,145.38 67.57,145.99C67.57,146.6 67.57,147.22 67.57,147.83C67.57,148.44 67.57,149.05 67.57,149.66C67.57,150.27 67.57,150.89 67.57,151.5C67.57,152.11 67.57,152.73 67.57,153.34C67.57,153.95 67.57,154.56 67.57,155.17C67.57,155.78 67.57,156.4 67.57,157.01C67.57,157.62 67.57,158.24 67.57,158.85C67.57,159.46 67.57,160.07 67.57,160.68C67.57,161.29 67.57,161.91 67.57,162.52C67.57,163.13 67.57,163.74 67.57,164.35C67.57,164.96 67.57,165.58 67.57,166.19C67.57,166.8 67.57,167.42 67.57,168.03C67.57,168.64 67.57,169.25 67.57,169.86C67.57,170.47 67.57,171.09 67.57,171.7C67.57,172.31 67.57,172.93 67.57,173.54C67.57,174.15 67.57,174.76 67.57,175.37C67.57,175.98 67.57,176.6 67.57,177.21C67.57,177.82 67.57,178.44 67.57,179.05C67.57,179.66 67.57,180.27 67.57,180.88C67.57,181.49 67.57,182.11 67.57,182.72C67.57,183.33 67.57,183.94 67.57,184.55C67.57,185.16 67.57,185.78 67.57,186.39C67.57,187 67.57,187.62 67.57,188.23C67.57,188.84 67.57,189.45 67.57,190.06Q67.57,190.67 67.57,191.9L0,191.9L0,10.1Z" style="stroke: none; fill: rgb(242, 249, 251);"/><path d="M59.95,10.1Q59.95,11.33 59.95,11.94C59.95,12.55 59.95,13.16 59.95,13.77C59.95,14.38 59.95,15 59.95,15.61C59.95,16.22 59.95,16.84 59.95,17.45C59.95,18.06 59.95,18.67 59.95,19.28C59.95,19.89 59.95,20.51 59.95,21.12C59.95,21.73 59.95,22.34 59.95,22.95C59.95,23.56 59.95,24.18 59.95,24.79C59.95,25.4 59.95,26.02 59.95,26.63C59.95,27.24 59.95,27.85 59.95,28.46C59.95,29.07 59.95,29.69 59.95,30.3C59.95,30.91 59.95,31.53 59.95,32.14C59.95,32.75 59.95,33.36 59.95,33.97C59.95,34.58 59.95,35.2 59.95,35.81C59.95,36.42 59.95,37.04 59.95,37.65C59.95,38.26 59.95,38.87 59.95,39.48C59.95,40.09 59.95,40.71 59.95,41.32C59.95,41.93 59.95,42.54 59.95,43.15C59.95,43.76 59.95,44.38 59.95,44.99C59.95,45.6 59.95,46.22 59.95,46.83C59.95,47.44 59.95,48.05 59.95,48.66C59.95,49.27 59.95,49.89 59.95,50.5C59.95,51.11 59.95,51.73 59.95,52.34C59.95,52.95 59.95,53.56 59.95,54.17C59.95,54.78 59.95,55.4 59.95,56.01C59.95,56.62 59.95,57.24 59.95,57.85C59.95,58.46 59.95,59.07 59.95,59.68C59.95,60.29 59.95,60.91 59.95,61.52C59.95,62.13 59.95,62.74 59.95,63.35C59.95,63.96 59.95,64.58 59.95,65.19C59.95,65.8 59.95,66.42 59.95,67.03C59.95,67.64 59.95,68.25 59.95,68.86C59.95,69.47 59.95,70.09 59.95,70.7C59.95,71.31 59.95,71.93 59.95,72.54C59.95,73.15 59.95,73.76 59.95,74.37C59.95,74.98 59.95,75.6 59.95,76.21C59.95,76.82 59.95,77.44 59.95,78.05C59.95,78.66 59.95,79.27 59.95,79.88C59.95,80.49 59.95,81.11 59.95,81.72C59.95,82.33 59.95,82.94 59.95,83.55C59.95,84.16 59.95,84.78 59.95,85.39C59.95,86 59.95,86.62 59.95,87.23C59.95,87.84 59.95,88.45 59.95,89.06C59.95,89.67 59.95,90.29 59.95,90.9C59.95,91.51 59.95,92.13 59.95,92.74C59.95,93.35 59.95,93.96 59.95,94.57C59.95,95.18 59.95,95.8 59.95,96.41C59.95,97.02 59.95,97.64 59.95,98.25C59.95,98.86 59.95,99.47 59.95,100.08C59.95,100.69 59.95,101.31 59.95,101.92C59.95,102.53 59.95,103.14 59.95,103.75C59.95,104.36 59.95,104.98 59.95,105.59C59.95,106.2 59.95,106.82 59.95,107.43C59.95,108.04 59.95,108.65 59.95,109.26C59.95,109.87 59.95,110.49 59.95,111.1C59.95,111.71 59.95,112.33 59.95,112.94C59.95,113.55 59.95,114.16 59.95,114.77C59.95,115.38 59.95,116 59.95,116.61C59.95,117.22 59.95,117.84 59.95,118.45C59.95,119.06 59.95,119.67 59.95,120.28C59.95,120.89 59.95,121.51 59.95,122.12C59.95,122.73 59.95,123.34 59.95,123.95C59.95,124.56 59.95,125.18 59.95,125.79C59.95,126.4 59.95,127.02 59.95,127.63C59.95,128.24 59.95,128.85 59.95,129.46C59.95,130.07 59.95,130.69 59.95,131.3C59.95,131.91 59.95,132.53 59.95,133.14C59.95,133.75 59.95,134.36 59.95,134.97C59.95,135.58 59.95,136.2 59.95,136.81C59.95,137.42 59.95,138.04 59.95,138.65C59.95,139.26 59.95,139.87 59.95,140.48C59.95,141.09 59.95,141.71 59.95,142.32C59.95,142.93 59.95,143.54 59.95,144.15C59.95,144.76 59.95,145.38 59.95,145.99C59.95,146.6 59.95,147.22 59.95,147.83C59.95,148.44 59.95,149.05 59.95,149.66C59.95,150.27 59.95,150.89 59.95,151.5C59.95,152.11 59.95,152.73 59.95,153.34C59.95,153.95 59.95,154.56 59.95,155.17C59.95,155.78 59.95,156.4 59.95,157.01C59.95,157.62 59.95,158.24 59.95,158.85C59.95,159.46 59.95,160.07 59.95,160.68C59.95,161.29 59.95,161.91 59.95,162.52C59.95,163.13 59.95,163.74 59.95,164.35C59.95,164.96 59.95,165.58 59.95,166.19C59.95,166.8 59.95,167.42 59.95,168.03C59.95,168.64 59.95,169.25 59.95,169.86C59.95,170.47 59.95,171.09 59.95,171.7C59.95,172.31 59.95,172.93 59.95,173.54C59.95,174.15 59.95,174.76 59.95,175.37C59.95,175.98 59.95,176.6 59.95,177.21C59.95,177.82 59.95,178.44 59.95,179.05C59.95,179.66 59.95,180.27 59.95,180.88C59.95,181.49 59.95,182.11 59.95,182.72C59.95,183.33 59.95,183.94 59.95,184.55C59.95,185.16 59.95,185.78 59.95,186.39C59.95,187 59.95,187.62 59.95,188.23C59.95,188.84 59.95,189.45 59.95,190.06Q59.95,190.67 59.95,191.9L0,191.9L0,10.1Z" style="stroke: none; fill: rgb(251, 253, 254);"/><path d="M53.45,10.1Q53.45,11.33 53.45,11.94C53.45,12.55 53.45,13.16 53.45,13.77C53.45,14.38 53.45,15 53.45,15.61C53.45,16.22 53.45,16.84 53.45,17.45C53.45,18.06 53.45,18.67 53.45,19.28C53.45,19.89 53.45,20.51 53.45,21.12C53.45,21.73 53.45,22.34 53.45,22.95C53.45,23.56 53.45,24.18 53.45,24.79C53.45,25.4 53.45,26.02 53.45,26.63C53.45,27.24 53.45,27.85 53.45,28.46C53.45,29.07 53.45,29.69 53.45,30.3C53.45,30.91 53.45,31.53 53.45,32.14C53.45,32.75 53.45,33.36 53.45,33.97C53.45,34.58 53.45,35.2 53.45,35.81C53.45,36.42 53.45,37.04 53.45,37.65C53.45,38.26 53.45,38.87 53.45,39.48C53.45,40.09 53.45,40.71 53.45,41.32C53.45,41.93 53.45,42.54 53.45,43.15C53.45,43.76 53.45,44.38 53.45,44.99C53.45,45.6 53.45,46.22 53.45,46.83C53.45,47.44 53.45,48.05 53.45,48.66C53.45,49.27 53.45,49.89 53.45,50.5C53.45,51.11 53.45,51.73 53.45,52.34C53.45,52.95 53.45,53.56 53.45,54.17C53.45,54.78 53.45,55.4 53.45,56.01C53.45,56.62 53.45,57.24 53.45,57.85C53.45,58.46 53.45,59.07 53.45,59.68C53.45,60.29 53.45,60.91 53.45,61.52C53.45,62.13 53.45,62.74 53.45,63.35C53.45,63.96 53.45,64.58 53.45,65.19C53.45,65.8 53.45,66.42 53.45,67.03C53.45,67.64 53.45,68.25 53.45,68.86C53.45,69.47 53.45,70.09 53.45,70.7C53.45,71.31 53.45,71.93 53.45,72.54C53.45,73.15 53.45,73.76 53.45,74.37C53.45,74.98 53.45,75.6 53.45,76.21C53.45,76.82 53.45,77.44 53.45,78.05C53.45,78.66 53.45,79.27 53.45,79.88C53.45,80.49 53.45,81.11 53.45,81.72C53.45,82.33 53.45,82.94 53.45,83.55C53.45,84.16 53.45,84.78 53.45,85.39C53.45,86 53.45,86.62 53.45,87.23C53.45,87.84 53.45,88.45 53.45,89.06C53.45,89.67 53.45,90.29 53.45,90.9C53.45,91.51 53.45,92.13 53.45,92.74C53.45,93.35 53.45,93.96 53.45,94.57C53.45,95.18 53.45,95.8 53.45,96.41C53.45,97.02 53.45,97.64 53.45,98.25C53.45,98.86 53.45,99.47 53.45,100.08C53.45,100.69 53.45,101.31 53.45,101.92C53.45,102.53 53.45,103.14 53.45,103.75C53.45,104.36 53.45,104.98 53.45,105.59C53.45,106.2 53.45,106.82 53.45,107.43C53.45,108.04 53.45,108.65 53.45,109.26C53.45,109.87 53.45,110.49 53.45,111.1C53.45,111.71 53.45,112.33 53.45,112.94C53.45,113.55 53.45,114.16 53.45,114.77C53.45,115.38 53.45,116 53.45,116.61C53.45,117.22 53.45,117.84 53.45,118.45C53.45,119.06 53.45,119.67 53.45,120.28C53.45,120.89 53.45,121.51 53.45,122.12C53.45,122.73 53.45,123.34 53.45,123.95C53.45,124.56 53.45,125.18 53.45,125.79C53.45,126.4 53.45,127.02 53.45,127.63C53.45,128.24 53.45,128.85 53.45,129.46C53.45,130.07 53.45,130.69 53.45,131.3C53.45,131.91 53.45,132.53 53.45,133.14C53.45,133.75 53.45,134.36 53.45,134.97C53.45,135.58 53.45,136.2 53.45,136.81C53.45,137.42 53.45,138.04 53.45,138.65C53.45,139.26 53.45,139.87 53.45,140.48C53.45,141.09 53.45,141.71 53.45,142.32C53.45,142.93 53.45,143.54 53.45,144.15C53.45,144.76 53.45,145.38 53.45,145.99C53.45,146.6 53.45,147.22 53.45,147.83C53.45,148.44 53.45,149.05 53.45,149.66C53.45,150.27 53.45,150.89 53.45,151.5C53.45,152.11 53.45,152.73 53.45,153.34C53.45,153.95 53.45,154.56 53.45,155.17C53.45,155.78 53.45,156.4 53.45,157.01C53.45,157.62 53.45,158.24 53.45,158.85C53.45,159.46 53.45,160.07 53.45,160.68C53.45,161.29 53.45,161.91 53.45,162.52C53.45,163.13 53.45,163.74 53.45,164.35C53.45,164.96 53.45,165.58 53.45,166.19C53.45,166.8 53.45,167.42 53.45,168.03C53.45,168.64 53.45,169.25 53.45,169.86C53.45,170.47 53.45,171.09 53.45,171.7C53.45,172.31 53.45,172.93 53.45,173.54C53.45,174.15 53.45,174.76 53.45,175.37C53.45,175.98 53.45,176.6 53.45,177.21C53.45,177.82 53.45,178.44 53.45,179.05C53.45,179.66 53.45,180.27 53.45,180.88C53.45,181.49 53.45,182.11 53.45,182.72C53.45,183.33 53.45,183.94 53.45,184.55C53.45,185.16 53.45,185.78 53.45,186.39C53.45,187 53.45,187.62 53.45,188.23C53.45,188.84 53.45,189.45 53.45,190.06Q53.45,190.67 53.45,191.9L0,191.9L0,10.1Z" style="stroke: none; fill: rgb(255, 250, 248);"/><path d="M47.86,10.1Q47.86,11.33 47.86,11.94C47.86,12.55 47.86,13.16 47.86,13.77C47.86,14.38 47.86,15 47.86,15.61C47.86,16.22 47.86,16.84 47.86,17.45C47.86,18.06 47.86,18.67 47.86,19.28C47.86,19.89 47.86,20.51 47.86,21.12C47.86,21.73 47.86,22.34 47.86,22.95C47.86,23.56 47.86,24.18 47.86,24.79C47.86,25.4 47.86,26.02 47.86,26.63C47.86,27.24 47.86,27.85 47.86,28.46C47.86,29.07 47.86,29.69 47.86,30.3C47.86,30.91 47.86,31.53 47.86,32.14C47.86,32.75 47.86,33.36 47.86,33.97C47.86,34.58 47.86,35.2 47.86,35.81C47.86,36.42 47.86,37.04 47.86,37.65C47.86,38.26 47.86,38.87 47.86,39.48C47.86,40.09 47.86,40.71 47.86,41.32C47.86,41.93 47.86,42.54 47.86,43.15C47.86,43.76 47.86,44.38 47.86,44.99C47.86,45.6 47.86,46.22 47.86,46.83C47.86,47.44 47.86,48.05 47.86,48.66C47.86,49.27 47.86,49.89 47.86,50.5C47.86,51.11 47.86,51.73 47.86,52.34C47.86,52.95 47.86,53.56 47.86,54.17C47.86,54.78 47.86,55.4 47.86,56.01C47.86,56.62 47.86,57.24 47.86,57.85C47.86,58.46 47.86,59.07 47.86,59.68C47.86,60.29 47.86,60.91 47.86,61.52C47.86,62.13 47.86,62.74 47.86,63.35C47.86,63.96 47.86,64.58 47.86,65.19C47.86,65.8 47.86,66.42 47.86,67.03C47.86,67.64 47.86,68.25 47.86,68.86C47.86,69.47 47.86,70.09 47.86,70.7C47.86,71.31 47.86,71.93 47.86,72.54C47.86,73.15 47.86,73.76 47.86,74.37C47.86,74.98 47.86,75.6 47.86,76.21C47.86,76.82 47.86,77.44 47.86,78.05C47.86,78.66 47.86,79.27 47.86,79.88C47.86,80.49 47.86,81.11 47.86,81.72C47.86,82.33 47.86,82.94 47.86,83.55C47.86,84.16 47.86,84.78 47.86,85.39C47.86,86 47.86,86.62 47.86,87.23C47.86,87.84 47.86,88.45 47.86,89.06C47.86,89.67 47.86,90.29 47.86,90.9C47.86,91.51 47.86,92.13 47.86,92.74C47.86,93.35 47.86,93.96 47.86,94.57C47.86,95.18 47.86,95.8 47.86,96.41C47.86,97.02 47.86,97.64 47.86,98.25C47.86,98.86 47.86,99.47 47.86,100.08C47.86,100.69 47.86,101.31 47.86,101.92C47.86,102.53 47.86,103.14 47.86,103.75C47.86,104.36 47.86,104.98 47.86,105.59C47.86,106.2 47.86,106.82 47.86,107.43C47.86,108.04 47.86,108.65 47.86,109.26C47.86,109.87 47.86,110.49 47.86,111.1C47.86,111.71 47.86,112.33 47.86,112.94C47.86,113.55 47.86,114.16 47.86,114.77C47.86,115.38 47.86,116 47.86,116.61C47.86,117.22 47.86,117.84 47.86,118.45C47.86,119.06 47.86,119.67 47.86,120.28C47.86,120.89 47.86,121.51 47.86,122.12C47.86,122.73 47.86,123.34 47.86,123.95C47.86,124.56 47.86,125.18 47.86,125.79C47.86,126.4 47.86,127.02 47.86,127.63C47.86,128.24 47.86,128.85 47.86,129.46C47.86,130.07 47.86,130.69 47.86,131.3C47.86,131.91 47.86,132.53 47.86,133.14C47.86,133.75 47.86,134.36 47.86,134.97C47.86,135.58 47.86,136.2 47.86,136.81C47.86,137.42 47.86,138.04 47.86,138.65C47.86,139.26 47.86,139.87 47.86,140.48C47.86,141.09 47.86,141.71 47.86,142.32C47.86,142.93 47.86,143.54 47.86,144.15C47.86,144.76 47.86,145.38 47.86,145.99C47.86,146.6 47.86,147.22 47.86,147.83C47.86,148.44 47.86,149.05 47.86,149.66C47.86,150.27 47.86,150.89 47.86,151.5C47.86,152.11 47.86,152.73 47.86,153.34C47.86,153.95 47.86,154.56 47.86,155.17C47.86,155.78 47.86,156.4 47.86,157.01C47.86,157.62 47.86,158.24 47.86,158.85C47.86,159.46 47.86,160.07 47.86,160.68C47.86,161.29 47.86,161.91 47.86,162.52C47.86,163.13 47.86,163.74 47.86,164.35C47.86,164.96 47.86,165.58 47.86,166.19C47.86,166.8 47.86,167.42 47.86,168.03C47.86,168.64 47.86,169.25 47.86,169.86C47.86,170.47 47.86,171.09 47.86,171.7C47.86,172.31 47.86,172.93 47.86,173.54C47.86,174.15 47.86,174.76 47.86,175.37C47.86,175.98 47.86,176.6 47.86,177.21C47.86,177.82 47.86,178.44 47.86,179.05C47.86,179.66 47.86,180.27 47.86,180.88C47.86,181.49 47.86,182.11 47.86,182.72C47.86,183.33 47.86,183.94 47.86,184.55C47.86,185.16 47.86,185.78 47.86,186.39C47.86,187 47.86,187.62 47.86,188.23C47.86,188.84 47.86,189.45 47.86,190.06Q47.86,190.67 47.86,191.9L0,191.9L0,10.1Z" style="stroke: none; fill: rgb(255, 240, 234);"/><path d="M43,10.1Q43,11.33 43,11.94C43,12.55 43,13.16 43,13.77C43,14.38 43,15 43,15.61C43,16.22 43,16.84 43,17.45C43,18.06 43,18.67 43,19.28C43,19.89 43,20.51 43,21.12C43,21.73 43,22.34 43,22.95C43,23.56 43,24.18 43,24.79C43,25.4 43,26.02 43,26.63C43,27.24 43,27.85 43,28.46C43,29.07 43,29.69 43,30.3C43,30.91 43,31.53 43,32.14C43,32.75 43,33.36 43,33.97C43,34.58 43,35.2 43,35.81C43,36.42 43,37.04 43,37.65C43,38.26 43,38.87 43,39.48C43,40.09 43,40.71 43,41.32C43,41.93 43,42.54 43,43.15C43,43.76 43,44.38 43,44.99C43,45.6 43,46.22 43,46.83C43,47.44 43,48.05 43,48.66C43,49.27 43,49.89 43,50.5C43,51.11 43,51.73 43,52.34C43,52.95 43,53.56 43,54.17C43,54.78 43,55.4 43,56.01C43,56.62 43,57.24 43,57.85C43,58.46 43,59.07 43,59.68C43,60.29 43,60.91 43,61.52C43,62.13 43,62.74 43,63.35C43,63.96 43,64.58 43,65.19C43,65.8 43,66.42 43,67.03C43,67.64 43,68.25 43,68.86C43,69.47 43,70.09 43,70.7C43,71.31 43,71.93 43,72.54C43,73.15 43,73.76 43,74.37C43,74.98 43,75.6 43,76.21C43,76.82 43,77.44 43,78.05C43,78.66 43,79.27 43,79.88C43,80.49 43,81.11 43,81.72C43,82.33 43,82.94 43,83.55C43,84.16 43,84.78 43,85.39C43,86 43,86.62 43,87.23C43,87.84 43,88.45 43,89.06C43,89.67 43,90.29 43,90.9C43,91.51 43,92.13 43,92.74C43,93.35 43,93.96 43,94.57C43,95.18 43,95.8 43,96.41C43,97.02 43,97.64 43,98.25C43,98.86 43,99.47 43,100.08C43,100.69 43,101.31 43,101.92C43,102.53 43,103.14 43,103.75C43,104.36 43,104.98 43,105.59C43,106.2 43,106.82 43,107.43C43,108.04 43,108.65 43,109.26C43,109.87 43,110.49 43,111.1C43,111.71 43,112.33 43,112.94C43,113.55 43,114.16 43,114.77C43,115.38 43,116 43,116.61C43,117.22 43,117.84 43,118.45C43,119.06 43,119.67 43,120.28C43,120.89 43,121.51 43,122.12C43,122.73 43,123.34 43,123.95C43,124.56 43,125.18 43,125.79C43,126.4 43,127.02 43,127.63C43,128.24 43,128.85 43,129.46C43,130.07 43,130.69 43,131.3C43,131.91 43,132.53 43,133.14C43,133.75 43,134.36 43,134.97C43,135.58 43,136.2 43,136.81C43,137.42 43,138.04 43,138.65C43,139.26 43,139.87 43,140.48C43,141.09 43,141.71 43,142.32C43,142.93 43,143.54 43,144.15C43,144.76 43,145.38 43,145.99C43,146.6 43,147.22 43,147.83C43,148.44 43,149.05 43,149.66C43,150.27 43,150.89 43,151.5C43,152.11 43,152.73 43,153.34C43,153.95 43,154.56 43,155.17C43,155.78 43,156.4 43,157.01C43,157.62 43,158.24 43,158.85C43,159.46 43,160.07 43,160.68C43,161.29 43,161.91 43,162.52C43,163.13 43,163.74 43,164.35C43,164.96 43,165.58 43,166.19C43,166.8 43,167.42 43,168.03C43,168.64 43,169.25 43,169.86C43,170.47 43,171.09 43,171.7C43,172.31 43,172.93 43,173.54C43,174.15 43,174.76 43,175.37C43,175.98 43,176.6 43,177.21C43,177.82 43,178.44 43,179.05C43,179.66 43,180.27 43,180.88C43,181.49 43,182.11 43,182.72C43,183.33 43,183.94 43,184.55C43,185.16 43,185.78 43,186.39C43,187 43,187.62 43,188.23C43,188.84 43,189.45 43,190.06Q43,190.67 43,191.9L0,191.9L0,10.1Z" style="stroke: none; fill: rgb(255, 230, 220);"/><path d="M38.74,10.1Q38.74,11.33 38.74,11.94C38.74,12.55 38.74,13.16 38.74,13.77C38.74,14.38 38.74,15 38.74,15.61C38.74,16.22 38.74,16.84 38.74,17.45C38.74,18.06 38.74,18.67 38.74,19.28C38.74,19.89 38.74,20.51 38.74,21.12C38.74,21.73 38.74,22.34 38.74,22.95C38.74,23.56 38.74,24.18 38.74,24.79C38.74,25.4 38.74,26.02 38.74,26.63C38.74,27.24 38.74,27.85 38.74,28.46C38.74,29.07 38.74,29.69 38.74,30.3C38.74,30.91 38.74,31.53 38.74,32.14C38.74,32.75 38.74,33.36 38.74,33.97C38.74,34.58 38.74,35.2 38.74,35.81C38.74,36.42 38.74,37.04 38.74,37.65C38.74,38.26 38.74,38.87 38.74,39.48C38.74,40.09 38.74,40.71 38.74,41.32C38.74,41.93 38.74,42.54 38.74,43.15C38.74,43.76 38.74,44.38 38.74,44.99C38.74,45.6 38.74,46.22 38.74,46.83C38.74,47.44 38.74,48.05 38.74,48.66C38.74,49.27 38.74,49.89 38.74,50.5C38.74,51.11 38.74,51.73 38.74,52.34C38.74,52.95 38.74,53.56 38.74,54.17C38.74,54.78 38.74,55.4 38.74,56.01C38.74,56.62 38.74,57.24 38.74,57.85C38.74,58.46 38.74,59.07 38.74,59.68C38.74,60.29 38.74,60.91 38.74,61.52C38.74,62.13 38.74,62.74 38.74,63.35C38.74,63.96 38.74,64.58 38.74,65.19C38.74,65.8 38.74,66.42 38.74,67.03C38.74,67.64 38.74,68.25 38.74,68.86C38.74,69.47 38.74,70.09 38.74,70.7C38.74,71.31 38.74,71.93 38.74,72.54C38.74,73.15 38.74,73.76 38.74,74.37C38.74,74.98 38.74,75.6 38.74,76.21C38.74,76.82 38.74,77.44 38.74,78.05C38.74,78.66 38.74,79.27 38.74,79.88C38.74,80.49 38.74,81.11 38.74,81.72C38.74,82.33 38.74,82.94 38.74,83.55C38.74,84.16 38.74,84.78 38.74,85.39C38.74,86 38.74,86.62 38.74,87.23C38.74,87.84 38.74,88.45 38.74,89.06C38.74,89.67 38.74,90.29 38.74,90.9C38.74,91.51 38.74,92.13 38.74,92.74C38.74,93.35 38.74,93.96 38.74,94.57C38.74,95.18 38.74,95.8 38.74,96.41C38.74,97.02 38.74,97.64 38.74,98.25C38.74,98.86 38.74,99.47 38.74,100.08C38.74,100.69 38.74,101.31 38.74,101.92C38.74,102.53 38.74,103.14 38.74,103.75C38.74,104.36 38.74,104.98 38.74,105.59C38.74,106.2 38.74,106.82 38.74,107.43C38.74,108.04 38.74,108.65 38.74,109.26C38.74,109.87 38.74,110.49 38.74,111.1C38.74,111.71 38.74,112.33 38.74,112.94C38.74,113.55 38.74,114.16 38.74,114.77C38.74,115.38 38.74,116 38.74,116.61C38.74,117.22 38.74,117.84 38.74,118.45C38.74,119.06 38.74,119.67 38.74,120.28C38.74,120.89 38.74,121.51 38.74,122.12C38.74,122.73 38.74,123.34 38.74,123.95C38.74,124.56 38.74,125.18 38.74,125.79C38.74,126.4 38.74,127.02 38.74,127.63C38.74,128.24 38.74,128.85 38.74,129.46C38.74,130.07 38.74,130.69 38.74,131.3C38.74,131.91 38.74,132.53 38.74,133.14C38.74,133.75 38.74,134.36 38.74,134.97C38.74,135.58 38.74,136.2 38.74,136.81C38.74,137.42 38.74,138.04 38.74,138.65C38.74,139.26 38.74,139.87 38.74,140.48C38.74,141.09 38.74,141.71 38.74,142.32C38.74,142.93 38.74,143.54 38.74,144.15C38.74,144.76 38.74,145.38 38.74,145.99C38.74,146.6 38.74,147.22 38.74,147.83C38.74,148.44 38.74,149.05 38.74,149.66C38.74,150.27 38.74,150.89 38.74,151.5C38.74,152.11 38.74,152.73 38.74,153.34C38.74,153.95 38.74,154.56 38.74,155.17C38.74,155.78 38.74,156.4 38.74,157.01C38.74,157.62 38.74,158.24 38.74,158.85C38.74,159.46 38.74,160.07 38.74,160.68C38.74,161.29 38.74,161.91 38.74,162.52C38.74,163.13 38.74,163.74 38.74,164.35C38.74,164.96 38.74,165.58 38.74,166.19C38.74,166.8 38.74,167.42 38.74,168.03C38.74,168.64 38.74,169.25 38.74,169.86C38.74,170.47 38.74,171.09 38.74,171.7C38.74,172.31 38.74,172.93 38.74,173.54C38.74,174.15 38.74,174.76 38.74,175.37C38.74,175.98 38.74,176.6 38.74,177.21C38.74,177.82 38.74,178.44 38.74,179.05C38.74,179.66 38.74,180.27 38.74,180.88C38.74,181.49 38.74,182.11 38.74,182.72C38.74,183.33 38.74,183.94 38.74,184.55C38.74,185.16 38.74,185.78 38.74,186.39C38.74,187 38.74,187.62 38.74,188.23C38.74,188.84 38.74,189.45 38.74,190.06Q38.74,190.67 38.74,191.9L0,191.9L0,10.1Z" style="stroke: none; fill: rgb(255, 220, 206);"/><path d="M35,10.1Q35,11.33 35,11.94C35,12.55 35,13.16 35,13.77C35,14.38 35,15 35,15.61C35,16.22 35,16.84 35,17.45C35,18.06 35,18.67 35,19.28C35,19.89 35,20.51 35,21.12C35,21.73 35,22.34 35,22.95C35,23.56 35,24.18 35,24.79C35,25.4 35,26.02 35,26.63C35,27.24 35,27.85 35,28.46C35,29.07 35,29.69 35,30.3C35,30.91 35,31.53 35,32.14C35,32.75 35,33.36 35,33.97C35,34.58 35,35.2 35,35.81C35,36.42 35,37.04 35,37.65C35,38.26 35,38.87 35,39.48C35,40.09 35,40.71 35,41.32C35,41.93 35,42.54 35,43.15C35,43.76 35,44.38 35,44.99C35,45.6 35,46.22 35,46.83C35,47.44 35,48.05 35,48.66C35,49.27 35,49.89 35,50.5C35,51.11 35,51.73 35,52.34C35,52.95 35,53.56 35,54.17C35,54.78 35,55.4 35,56.01C35,56.62 35,57.24 35,57.85C35,58.46 35,59.07 35,59.68C35,60.29 35,60.91 35,61.52C35,62.13 35,62.74 35,63.35C35,63.96 35,64.58 35,65.19C35,65.8 35,66.42 35,67.03C35,67.64 35,68.25 35,68.86C35,69.47 35,70.09 35,70.7C35,71.31 35,71.93 35,72.54C35,73.15 35,73.76 35,74.37C35,74.98 35,75.6 35,76.21C35,76.82 35,77.44 35,78.05C35,78.66 35,79.27 35,79.88C35,80.49 35,81.11 35,81.72C35,82.33 35,82.94 35,83.55C35,84.16 35,84.78 35,85.39C35,86 35,86.62 35,87.23C35,87.84 35,88.45 35,89.06C35,89.67 35,90.29 35,90.9C35,91.51 35,92.13 35,92.74C35,93.35 35,93.96 35,94.57C35,95.18 35,95.8 35,96.41C35,97.02 35,97.64 35,98.25C35,98.86 35,99.47 35,100.08C35,100.69 35,101.31 35,101.92C35,102.53 35,103.14 35,103.75C35,104.36 35,104.98 35,105.59C35,106.2 35,106.82 35,107.43C35,108.04 35,108.65 35,109.26C35,109.87 35,110.49 35,111.1C35,111.71 35,112.33 35,112.94C35,113.55 35,114.16 35,114.77C35,115.38 35,116 35,116.61C35,117.22 35,117.84 35,118.45C35,119.06 35,119.67 35,120.28C35,120.89 35,121.51 35,122.12C35,122.73 35,123.34 35,123.95C35,124.56 35,125.18 35,125.79C35,126.4 35,127.02 35,127.63C35,128.24 35,128.85 35,129.46C35,130.07 35,130.69 35,131.3C35,131.91 35,132.53 35,133.14C35,133.75 35,134.36 35,134.97C35,135.58 35,136.2 35,136.81C35,137.42 35,138.04 35,138.65C35,139.26 35,139.87 35,140.48C35,141.09 35,141.71 35,142.32C35,142.93 35,143.54 35,144.15C35,144.76 35,145.38 35,145.99C35,146.6 35,147.22 35,147.83C35,148.44 35,149.05 35,149.66C35,150.27 35,150.89 35,151.5C35,152.11 35,152.73 35,153.34C35,153.95 35,154.56 35,155.17C35,155.78 35,156.4 35,157.01C35,157.62 35,158.24 35,158.85C35,159.46 35,160.07 35,160.68C35,161.29 35,161.91 35,162.52C35,163.13 35,163.74 35,164.35C35,164.96 35,165.58 35,166.19C35,166.8 35,167.42 35,168.03C35,168.64 35,169.25 35,169.86C35,170.47 35,171.09 35,171.7C35,172.31 35,172.93 35,173.54C35,174.15 35,174.76 35,175.37C35,175.98 35,176.6 35,177.21C35,177.82 35,178.44 35,179.05C35,179.66 35,180.27 35,180.88C35,181.49 35,182.11 35,182.72C35,183.33 35,183.94 35,184.55C35,185.16 35,185.78 35,186.39C35,187 35,187.62 35,188.23C35,188.84 35,189.45 35,190.06Q35,190.67 35,191.9L0,191.9L0,10.1Z" style="stroke: none; fill: rgb(255, 210, 192);"/><path d="M31.67,10.1Q31.67,11.33 31.67,11.94C31.67,12.55 31.67,13.16 31.67,13.77C31.67,14.38 31.67,15 31.67,15.61C31.67,16.22 31.67,16.84 31.67,17.45C31.67,18.06 31.67,18.67 31.67,19.28C31.67,19.89 31.67,20.51 31.67,21.12C31.67,21.73 31.67,22.34 31.67,22.95C31.67,23.56 31.67,24.18 31.67,24.79C31.67,25.4 31.67,26.02 31.67,26.63C31.67,27.24 31.67,27.85 31.67,28.46C31.67,29.07 31.67,29.69 31.67,30.3C31.67,30.91 31.67,31.53 31.67,32.14C31.67,32.75 31.67,33.36 31.67,33.97C31.67,34.58 31.67,35.2 31.67,35.81C31.67,36.42 31.67,37.04 31.67,37.65C31.67,38.26 31.67,38.87 31.67,39.48C31.67,40.09 31.67,40.71 31.67,41.32C31.67,41.93 31.67,42.54 31.67,43.15C31.67,43.76 31.67,44.38 31.67,44.99C31.67,45.6 31.67,46.22 31.67,46.83C31.67,47.44 31.67,48.05 31.67,48.66C31.67,49.27 31.67,49.89 31.67,50.5C31.67,51.11 31.67,51.73 31.67,52.34C31.67,52.95 31.67,53.56 31.67,54.17C31.67,54.78 31.67,55.4 31.67,56.01C31.67,56.62 31.67,57.24 31.67,57.85C31.67,58.46 31.67,59.07 31.67,59.68C31.67,60.29 31.67,60.91 31.67,61.52C31.67,62.13 31.67,62.74 31.67,63.35C31.67,63.96 31.67,64.58 31.67,65.19C31.67,65.8 31.67,66.42 31.67,67.03C31.67,67.64 31.67,68.25 31.67,68.86C31.67,69.47 31.67,70.09 31.67,70.7C31.67,71.31 31.67,71.93 31.67,72.54C31.67,73.15 31.67,73.76 31.67,74.37C31.67,74.98 31.67,75.6 31.67,76.21C31.67,76.82 31.67,77.44 31.67,78.05C31.67,78.66 31.67,79.27 31.67,79.88C31.67,80.49 31.67,81.11 31.67,81.72C31.67,82.33 31.67,82.94 31.67,83.55C31.67,84.16 31.67,84.78 31.67,85.39C31.67,86 31.67,86.62 31.67,87.23C31.67,87.84 31.67,88.45 31.67,89.06C31.67,89.67 31.67,90.29 31.67,90.9C31.67,91.51 31.67,92.13 31.67,92.74C31.67,93.35 31.67,93.96 31.67,94.57C31.67,95.18 31.67,95.8 31.67,96.41C31.67,97.02 31.67,97.64 31.67,98.25C31.67,98.86 31.67,99.47 31.67,100.08C31.67,100.69 31.67,101.31 31.67,101.92C31.67,102.53 31.67,103.14 31.67,103.75C31.67,104.36 31.67,104.98 31.67,105.59C31.67,106.2 31.67,106.82 31.67,107.43C31.67,108.04 31.67,108.65 31.67,109.26C31.67,109.87 31.67,110.49 31.67,111.1C31.67,111.71 31.67,112.33 31.67,112.94C31.67,113.55 31.67,114.16 31.67,114.77C31.67,115.38 31.67,116 31.67,116.61C31.67,117.22 31.67,117.84 31.67,118.45C31.67,119.06 31.67,119.67 31.67,120.28C31.67,120.89 31.67,121.51 31.67,122.12C31.67,122.73 31.67,123.34 31.67,123.95C31.67,124.56 31.67,125.18 31.67,125.79C31.67,126.4 31.67,127.02 31.67,127.63C31.67,128.24 31.67,128.85 31.67,129.46C31.67,130.07 31.67,130.69 31.67,131.3C31.67,131.91 31.67,132.53 31.67,133.14C31.67,133.75 31.67,134.36 31.67,134.97C31.67,135.58 31.67,136.2 31.67,136.81C31.67,137.42 31.67,138.04 31.67,138.65C31.67,139.26 31.67,139.87 31.67,140.48C31.67,141.09 31.67,141.71 31.67,142.32C31.67,142.93 31.67,143.54 31.67,144.15C31.67,144.76 31.67,145.38 31.67,145.99C31.67,146.6 31.67,147.22 31.67,147.83C31.67,148.44 31.67,149.05 31.67,149.66C31.67,150.27 31.67,150.89 31.67,151.5C31.67,152.11 31.67,152.73 31.67,153.34C31.67,153.95 31.67,154.56 31.67,155.17C31.67,155.78 31.67,156.4 31.67,157.01C31.67,157.62 31.67,158.24 31.67,158.85C31.67,159.46 31.67,160.07 31.67,160.68C31.67,161.29 31.67,161.91 31.67,162.52C31.67,163.13 31.67,163.74 31.67,164.35C31.67,164.96 31.67,165.58 31.67,166.19C31.67,166.8 31.67,167.42 31.67,168.03C31.67,168.64 31.67,169.25 31.67,169.86C31.67,170.47 31.67,171.09 31.67,171.7C31.67,172.31 31.67,172.93 31.67,173.54C31.67,174.15 31.67,174.76 31.67,175.37C31.67,175.98 31.67,176.6 31.67,177.21C31.67,177.82 31.67,178.44 31.67,179.05C31.67,179.66 31.67,180.27 31.67,180.88C31.67,181.49 31.67,182.11 31.67,182.72C31.67,183.33 31.67,183.94 31.67,184.55C31.67,185.16 31.67,185.78 31.67,186.39C31.67,187 31.67,187.62 31.67,188.23C31.67,188.84 31.67,189.45 31.67,190.06Q31.67,190.67 31.67,191.9L0,191.9L0,10.1Z" style="stroke: none; fill: rgb(255, 200, 178);"/><path d="M28.69,10.1Q28.69,11.33 28.69,11.94C28.69,12.55 28.69,13.16 28.69,13.77C28.69,14.38 28.69,15 28.69,15.61C28.69,16.22 28.69,16.84 28.69,17.45C28.69,18.06 28.69,18.67 28.69,19.28C28.69,19.89 28.69,20.51 28.69,21.12C28.69,21.73 28.69,22.34 28.69,22.95C28.69,23.56 28.69,24.18 28.69,24.79C28.69,25.4 28.69,26.02 28.69,26.63C28.69,27.24 28.69,27.85 28.69,28.46C28.69,29.07 28.69,29.69 28.69,30.3C28.69,30.91 28.69,31.53 28.69,32.14C28.69,32.75 28.69,33.36 28.69,33.97C28.69,34.58 28.69,35.2 28.69,35.81C28.69,36.42 28.69,37.04 28.69,37.65C28.69,38.26 28.69,38.87 28.69,39.48C28.69,40.09 28.69,40.71 28.69,41.32C28.69,41.93 28.69,42.54 28.69,43.15C28.69,43.76 28.69,44.38 28.69,44.99C28.69,45.6 28.69,46.22 28.69,46.83C28.69,47.44 28.69,48.05 28.69,48.66C28.69,49.27 28.69,49.89 28.69,50.5C28.69,51.11 28.69,51.73 28.69,52.34C28.69,52.95 28.69,53.56 28.69,54.17C28.69,54.78 28.69,55.4 28.69,56.01C28.69,56.62 28.69,57.24 28.69,57.85C28.69,58.46 28.69,59.07 28.69,59.68C28.69,60.29 28.69,60.91 28.69,61.52C28.69,62.13 28.69,62.74 28.69,63.35C28.69,63.96 28.69,64.58 28.69,65.19C28.69,65.8 28.69,66.42 28.69,67.03C28.69,67.64 28.69,68.25 28.69,68.86C28.69,69.47 28.69,70.09 28.69,70.7C28.69,71.31 28.69,71.93 28.69,72.54C28.69,73.15 28.69,73.76 28.69,74.37C28.69,74.98 28.69,75.6 28.69,76.21C28.69,76.82 28.69,77.44 28.69,78.05C28.69,78.66 28.69,79.27 28.69,79.88C28.69,80.49 28.69,81.11 28.69,81.72C28.69,82.33 28.69,82.94 28.69,83.55C28.69,84.16 28.69,84.78 28.69,85.39C28.69,86 28.69,86.62 28.69,87.23C28.69,87.84 28.69,88.45 28.69,89.06C28.69,89.67 28.69,90.29 28.69,90.9C28.69,91.51 28.69,92.13 28.69,92.74C28.69,93.35 28.69,93.96 28.69,94.57C28.69,95.18 28.69,95.8 28.69,96.41C28.69,97.02 28.69,97.64 28.69,98.25C28.69,98.86 28.69,99.47 28.69,100.08C28.69,100.69 28.69,101.31 28.69,101.92C28.69,102.53 28.69,103.14 28.69,103.75C28.69,104.36 28.69,104.98 28.69,105.59C28.69,106.2 28.69,106.82 28.69,107.43C28.69,108.04 28.69,108.65 28.69,109.26C28.69,109.87 28.69,110.49 28.69,111.1C28.69,111.71 28.69,112.33 28.69,112.94C28.69,113.55 28.69,114.16 28.69,114.77C28.69,115.38 28.69,116 28.69,116.61C28.69,117.22 28.69,117.84 28.69,118.45C28.69,119.06 28.69,119.67 28.69,120.28C28.69,120.89 28.69,121.51 28.69,122.12C28.69,122.73 28.69,123.34 28.69,123.95C28.69,124.56 28.69,125.18 28.69,125.79C28.69,126.4 28.69,127.02 28.69,127.63C28.69,128.24 28.69,128.85 28.69,129.46C28.69,130.07 28.69,130.69 28.69,131.3C28.69,131.91 28.69,132.53 28.69,133.14C28.69,133.75 28.69,134.36 28.69,134.97C28.69,135.58 28.69,136.2 28.69,136.81C28.69,137.42 28.69,138.04 28.69,138.65C28.69,139.26 28.69,139.87 28.69,140.48C28.69,141.09 28.69,141.71 28.69,142.32C28.69,142.93 28.69,143.54 28.69,144.15C28.69,144.76 28.69,145.38 28.69,145.99C28.69,146.6 28.69,147.22 28.69,147.83C28.69,148.44 28.69,149.05 28.69,149.66C28.69,150.27 28.69,150.89 28.69,151.5C28.69,152.11 28.69,152.73 28.69,153.34C28.69,153.95 28.69,154.56 28.69,155.17C28.69,155.78 28.69,156.4 28.69,157.01C28.69,157.62 28.69,158.24 28.69,158.85C28.69,159.46 28.69,160.07 28.69,160.68C28.69,161.29 28.69,161.91 28.69,162.52C28.69,163.13 28.69,163.74 28.69,164.35C28.69,164.96 28.69,165.58 28.69,166.19C28.69,166.8 28.69,167.42 28.69,168.03C28.69,168.64 28.69,169.25 28.69,169.86C28.69,170.47 28.69,171.09 28.69,171.7C28.69,172.31 28.69,172.93 28.69,173.54C28.69,174.15 28.69,174.76 28.69,175.37C28.69,175.98 28.69,176.6 28.69,177.21C28.69,177.82 28.69,178.44 28.69,179.05C28.69,179.66 28.69,180.27 28.69,180.88C28.69,181.49 28.69,182.11 28.69,182.72C28.69,183.33 28.69,183.94 28.69,184.55C28.69,185.16 28.69,185.78 28.69,186.39C28.69,187 28.69,187.62 28.69,188.23C28.69,188.84 28.69,189.45 28.69,190.06Q28.69,190.67 28.69,191.9L0,191.9L0,10.1Z" style="stroke: none; fill: rgb(255, 190, 164);"/><path d="M26.04,10.1Q26.04,11.33 26.04,11.94C26.04,12.55 26.04,13.16 26.04,13.77C26.04,14.38 26.04,15 26.04,15.61C26.04,16.22 26.04,16.84 26.04,17.45C26.04,18.06 26.04,18.67 26.04,19.28C26.04,19.89 26.04,20.51 26.04,21.12C26.04,21.73 26.04,22.34 26.04,22.95C26.04,23.56 26.04,24.18 26.04,24.79C26.04,25.4 26.04,26.02 26.04,26.63C26.04,27.24 26.04,27.85 26.04,28.46C26.04,29.07 26.04,29.69 26.04,30.3C26.04,30.91 26.04,31.53 26.04,32.14C26.04,32.75 26.04,33.36 26.04,33.97C26.04,34.58 26.04,35.2 26.04,35.81C26.04,36.42 26.04,37.04 26.04,37.65C26.04,38.26 26.04,38.87 26.04,39.48C26.04,40.09 26.04,40.71 26.04,41.32C26.04,41.93 26.04,42.54 26.04,43.15C26.04,43.76 26.04,44.38 26.04,44.99C26.04,45.6 26.04,46.22 26.04,46.83C26.04,47.44 26.04,48.05 26.04,48.66C26.04,49.27 26.04,49.89 26.04,50.5C26.04,51.11 26.04,51.73 26.04,52.34C26.04,52.95 26.04,53.56 26.04,54.17C26.04,54.78 26.04,55.4 26.04,56.01C26.04,56.62 26.04,57.24 26.04,57.85C26.04,58.46 26.04,59.07 26.04,59.68C26.04,60.29 26.04,60.91 26.04,61.52C26.04,62.13 26.04,62.74 26.04,63.35C26.04,63.96 26.04,64.58 26.04,65.19C26.04,65.8 26.04,66.42 26.04,67.03C26.04,67.64 26.04,68.25 26.04,68.86C26.04,69.47 26.04,70.09 26.04,70.7C26.04,71.31 26.04,71.93 26.04,72.54C26.04,73.15 26.04,73.76 26.04,74.37C26.04,74.98 26.04,75.6 26.04,76.21C26.04,76.82 26.04,77.44 26.04,78.05C26.04,78.66 26.04,79.27 26.04,79.88C26.04,80.49 26.04,81.11 26.04,81.72C26.04,82.33 26.04,82.94 26.04,83.55C26.04,84.16 26.04,84.78 26.04,85.39C26.04,86 26.04,86.62 26.04,87.23C26.04,87.84 26.04,88.45 26.04,89.06C26.04,89.67 26.04,90.29 26.04,90.9C26.04,91.51 26.04,92.13 26.04,92.74C26.04,93.35 26.04,93.96 26.04,94.57C26.04,95.18 26.04,95.8 26.04,96.41C26.04,97.02 26.04,97.64 26.04,98.25C26.04,98.86 26.04,99.47 26.04,100.08C26.04,100.69 26.04,101.31 26.04,101.92C26.04,102.53 26.04,103.14 26.04,103.75C26.04,104.36 26.04,104.98 26.04,105.59C26.04,106.2 26.04,106.82 26.04,107.43C26.04,108.04 26.04,108.65 26.04,109.26C26.04,109.87 26.04,110.49 26.04,111.1C26.04,111.71 26.04,112.33 26.04,112.94C26.04,113.55 26.04,114.16 26.04,114.77C26.04,115.38 26.04,116 26.04,116.61C26.04,117.22 26.04,117.84 26.04,118.45C26.04,119.06 26.04,119.67 26.04,120.28C26.04,120.89 26.04,121.51 26.04,122.12C26.04,122.73 26.04,123.34 26.04,123.95C26.04,124.56 26.04,125.18 26.04,125.79C26.04,126.4 26.04,127.02 26.04,127.63C26.04,128.24 26.04,128.85 26.04,129.46C26.04,130.07 26.04,130.69 26.04,131.3C26.04,131.91 26.04,132.53 26.04,133.14C26.04,133.75 26.04,134.36 26.04,134.97C26.04,135.58 26.04,136.2 26.04,136.81C26.04,137.42 26.04,138.04 26.04,138.65C26.04,139.26 26.04,139.87 26.04,140.48C26.04,141.09 26.04,141.71 26.04,142.32C26.04,142.93 26.04,143.54 26.04,144.15C26.04,144.76 26.04,145.38 26.04,145.99C26.04,146.6 26.04,147.22 26.04,147.83C26.04,148.44 26.04,149.05 26.04,149.66C26.04,150.27 26.04,150.89 26.04,151.5C26.04,152.11 26.04,152.73 26.04,153.34C26.04,153.95 26.04,154.56 26.04,155.17C26.04,155.78 26.04,156.4 26.04,157.01C26.04,157.62 26.04,158.24 26.04,158.85C26.04,159.46 26.04,160.07 26.04,160.68C26.04,161.29 26.04,161.91 26.04,162.52C26.04,163.13 26.04,163.74 26.04,164.35C26.04,164.96 26.04,165.58 26.04,166.19C26.04,166.8 26.04,167.42 26.04,168.03C26.04,168.64 26.04,169.25 26.04,169.86C26.04,170.47 26.04,171.09 26.04,171.7C26.04,172.31 26.04,172.93 26.04,173.54C26.04,174.15 26.04,174.76 26.04,175.37C26.04,175.98 26.04,176.6 26.04,177.21C26.04,177.82 26.04,178.44 26.04,179.05C26.04,179.66 26.04,180.27 26.04,180.88C26.04,181.49 26.04,182.11 26.04,182.72C26.04,183.33 26.04,183.94 26.04,184.55C26.04,185.16 26.04,185.78 26.04,186.39C26.04,187 26.04,187.62 26.04,188.23C26.04,188.84 26.04,189.45 26.04,190.06Q26.04,190.67 26.04,191.9L0,191.9L0,10.1Z" style="stroke: none; fill: rgb(255, 180, 150);"/><path d="M23.63,10.1Q23.63,11.33 23.63,11.94C23.63,12.55 23.63,13.16 23.63,13.77C23.63,14.38 23.63,15 23.63,15.61C23.63,16.22 23.63,16.84 23.63,17.45C23.63,18.06 23.63,18.67 23.63,19.28C23.63,19.89 23.63,20.51 23.63,21.12C23.63,21.73 23.63,22.34 23.63,22.95C23.63,23.56 23.63,24.18 23.63,24.79C23.63,25.4 23.63,26.02 23.63,26.63C23.63,27.24 23.63,27.85 23.63,28.46C23.63,29.07 23.63,29.69 23.63,30.3C23.63,30.91 23.63,31.53 23.63,32.14C23.63,32.75 23.63,33.36 23.63,33.97C23.63,34.58 23.63,35.2 23.63,35.81C23.63,36.42 23.63,37.04 23.63,37.65C23.63,38.26 23.63,38.87 23.63,39.48C23.63,40.09 23.63,40.71 23.63,41.32C23.63,41.93 23.63,42.54 23.63,43.15C23.63,43.76 23.63,44.38 23.63,44.99C23.63,45.6 23.63,46.22 23.63,46.83C23.63,47.44 23.63,48.05 23.63,48.66C23.63,49.27 23.63,49.89 23.63,50.5C23.63,51.11 23.63,51.73 23.63,52.34C23.63,52.95 23.63,53.56 23.63,54.17C23.63,54.78 23.63,55.4 23.63,56.01C23.63,56.62 23.63,57.24 23.63,57.85C23.63,58.46 23.63,59.07 23.63,59.68C23.63,60.29 23.63,60.91 23.63,61.52C23.63,62.13 23.63,62.74 23.63,63.35C23.63,63.96 23.63,64.58 23.63,65.19C23.63,65.8 23.63,66.42 23.63,67.03C23.63,67.64 23.63,68.25 23.63,68.86C23.63,69.47 23.63,70.09 23.63,70.7C23.63,71.31 23.63,71.93 23.63,72.54C23.63,73.15 23.63,73.76 23.63,74.37C23.63,74.98 23.63,75.6 23.63,76.21C23.63,76.82 23.63,77.44 23.63,78.05C23.63,78.66 23.63,79.27 23.63,79.88C23.63,80.49 23.63,81.11 23.63,81.72C23.63,82.33 23.63,82.94 23.63,83.55C23.63,84.16 23.63,84.78 23.63,85.39C23.63,86 23.63,86.62 23.63,87.23C23.63,87.84 23.63,88.45 23.63,89.06C23.63,89.67 23.63,90.29 23.63,90.9C23.63,91.51 23.63,92.13 23.63,92.74C23.63,93.35 23.63,93.96 23.63,94.57C23.63,95.18 23.63,95.8 23.63,96.41C23.63,97.02 23.63,97.64 23.63,98.25C23.63,98.86 23.63,99.47 23.63,100.08C23.63,100.69 23.63,101.31 23.63,101.92C23.63,102.53 23.63,103.14 23.63,103.75C23.63,104.36 23.63,104.98 23.63,105.59C23.63,106.2 23.63,106.82 23.63,107.43C23.63,108.04 23.63,108.65 23.63,109.26C23.63,109.87 23.63,110.49 23.63,111.1C23.63,111.71 23.63,112.33 23.63,112.94C23.63,113.55 23.63,114.16 23.63,114.77C23.63,115.38 23.63,116 23.63,116.61C23.63,117.22 23.63,117.84 23.63,118.45C23.63,119.06 23.63,119.67 23.63,120.28C23.63,120.89 23.63,121.51 23.63,122.12C23.63,122.73 23.63,123.34 23.63,123.95C23.63,124.56 23.63,125.18 23.63,125.79C23.63,126.4 23.63,127.02 23.63,127.63C23.63,128.24 23.63,128.85 23.63,129.46C23.63,130.07 23.63,130.69 23.63,131.3C23.63,131.91 23.63,132.53 23.63,133.14C23.63,133.75 23.63,134.36 23.63,134.97C23.63,135.58 23.63,136.2 23.63,136.81C23.63,137.42 23.63,138.04 23.63,138.65C23.63,139.26 23.63,139.87 23.63,140.48C23.63,141.09 23.63,141.71 23.63,142.32C23.63,142.93 23.63,143.54 23.63,144.15C23.63,144.76 23.63,145.38 23.63,145.99C23.63,146.6 23.63,147.22 23.63,147.83C23.63,148.44 23.63,149.05 23.63,149.66C23.63,150.27 23.63,150.89 23.63,151.5C23.63,152.11 23.63,152.73 23.63,153.34C23.63,153.95 23.63,154.56 23.63,155.17C23.63,155.78 23.63,156.4 23.63,157.01C23.63,157.62 23.63,158.24 23.63,158.85C23.63,159.46 23.63,160.07 23.63,160.68C23.63,161.29 23.63,161.91 23.63,162.52C23.63,163.13 23.63,163.74 23.63,164.35C23.63,164.96 23.63,165.58 23.63,166.19C23.63,166.8 23.63,167.42 23.63,168.03C23.63,168.64 23.63,169.25 23.63,169.86C23.63,170.47 23.63,171.09 23.63,171.7C23.63,172.31 23.63,172.93 23.63,173.54C23.63,174.15 23.63,174.76 23.63,175.37C23.63,175.98 23.63,176.6 23.63,177.21C23.63,177.82 23.63,178.44 23.63,179.05C23.63,179.66 23.63,180.27 23.63,180.88C23.63,181.49 23.63,182.11 23.63,182.72C23.63,183.33 23.63,183.94 23.63,184.55C23.63,185.16 23.63,185.78 23.63,186.39C23.63,187 23.63,187.62 23.63,188.23C23.63,188.84 23.63,189.45 23.63,190.06Q23.63,190.67 23.63,191.9L0,191.9L0,10.1Z" style="stroke: none; fill: rgb(255, 170, 136);"/><path d="M21.47,10.1Q21.47,11.33 21.47,11.94C21.47,12.55 21.47,13.16 21.47,13.77C21.47,14.38 21.47,15 21.47,15.61C21.47,16.22 21.47,16.84 21.47,17.45C21.47,18.06 21.47,18.67 21.47,19.28C21.47,19.89 21.47,20.51 21.47,21.12C21.47,21.73 21.47,22.34 21.47,22.95C21.47,23.56 21.47,24.18 21.47,24.79C21.47,25.4 21.47,26.02 21.47,26.63C21.47,27.24 21.47,27.85 21.47,28.46C21.47,29.07 21.47,29.69 21.47,30.3C21.47,30.91 21.47,31.53 21.47,32.14C21.47,32.75 21.47,33.36 21.47,33.97C21.47,34.58 21.47,35.2 21.47,35.81C21.47,36.42 21.47,37.04 21.47,37.65C21.47,38.26 21.47,38.87 21.47,39.48C21.47,40.09 21.47,40.71 21.47,41.32C21.47,41.93 21.47,42.54 21.47,43.15C21.47,43.76 21.47,44.38 21.47,44.99C21.47,45.6 21.47,46.22 21.47,46.83C21.47,47.44 21.47,48.05 21.47,48.66C21.47,49.27 21.47,49.89 21.47,50.5C21.47,51.11 21.47,51.73 21.47,52.34C21.47,52.95 21.47,53.56 21.47,54.17C21.47,54.78 21.47,55.4 21.47,56.01C21.47,56.62 21.47,57.24 21.47,57.85C21.47,58.46 21.47,59.07 21.47,59.68C21.47,60.29 21.47,60.91 21.47,61.52C21.47,62.13 21.47,62.74 21.47,63.35C21.47,63.96 21.47,64.58 21.47,65.19C21.47,65.8 21.47,66.42 21.47,67.03C21.47,67.64 21.47,68.25 21.47,68.86C21.47,69.47 21.47,70.09 21.47,70.7C21.47,71.31 21.47,71.93 21.47,72.54C21.47,73.15 21.47,73.76 21.47,74.37C21.47,74.98 21.47,75.6 21.47,76.21C21.47,76.82 21.47,77.44 21.47,78.05C21.47,78.66 21.47,79.27 21.47,79.88C21.47,80.49 21.47,81.11 21.47,81.72C21.47,82.33 21.47,82.94 21.47,83.55C21.47,84.16 21.47,84.78 21.47,85.39C21.47,86 21.47,86.62 21.47,87.23C21.47,87.84 21.47,88.45 21.47,89.06C21.47,89.67 21.47,90.29 21.47,90.9C21.47,91.51 21.47,92.13 21.47,92.74C21.47,93.35 21.47,93.96 21.47,94.57C21.47,95.18 21.47,95.8 21.47,96.41C21.47,97.02 21.47,97.64 21.47,98.25C21.47,98.86 21.47,99.47 21.47,100.08C21.47,100.69 21.47,101.31 21.47,101.92C21.47,102.53 21.47,103.14 21.47,103.75C21.47,104.36 21.47,104.98 21.47,105.59C21.47,106.2 21.47,106.82 21.47,107.43C21.47,108.04 21.47,108.65 21.47,109.26C21.47,109.87 21.47,110.49 21.47,111.1C21.47,111.71 21.47,112.33 21.47,112.94C21.47,113.55 21.47,114.16 21.47,114.77C21.47,115.38 21.47,116 21.47,116.61C21.47,117.22 21.47,117.84 21.47,118.45C21.47,119.06 21.47,119.67 21.47,120.28C21.47,120.89 21.47,121.51 21.47,122.12C21.47,122.73 21.47,123.34 21.47,123.95C21.47,124.56 21.47,125.18 21.47,125.79C21.47,126.4 21.47,127.02 21.47,127.63C21.47,128.24 21.47,128.85 21.47,129.46C21.47,130.07 21.47,130.69 21.47,131.3C21.47,131.91 21.47,132.53 21.47,133.14C21.47,133.75 21.47,134.36 21.47,134.97C21.47,135.58 21.47,136.2 21.47,136.81C21.47,137.42 21.47,138.04 21.47,138.65C21.47,139.26 21.47,139.87 21.47,140.48C21.47,141.09 21.47,141.71 21.47,142.32C21.47,142.93 21.47,143.54 21.47,144.15C21.47,144.76 21.47,145.38 21.47,145.99C21.47,146.6 21.47,147.22 21.47,147.83C21.47,148.44 21.47,149.05 21.47,149.66C21.47,150.27 21.47,150.89 21.47,151.5C21.47,152.11 21.47,152.73 21.47,153.34C21.47,153.95 21.47,154.56 21.47,155.17C21.47,155.78 21.47,156.4 21.47,157.01C21.47,157.62 21.47,158.24 21.47,158.85C21.47,159.46 21.47,160.07 21.47,160.68C21.47,161.29 21.47,161.91 21.47,162.52C21.47,163.13 21.47,163.74 21.47,164.35C21.47,164.96 21.47,165.58 21.47,166.19C21.47,166.8 21.47,167.42 21.47,168.03C21.47,168.64 21.47,169.25 21.47,169.86C21.47,170.47 21.47,171.09 21.47,171.7C21.47,172.31 21.47,172.93 21.47,173.54C21.47,174.15 21.47,174.76 21.47,175.37C21.47,175.98 21.47,176.6 21.47,177.21C21.47,177.82 21.47,178.44 21.47,179.05C21.47,179.66 21.47,180.27 21.47,180.88C21.47,181.49 21.47,182.11 21.47,182.72C21.47,183.33 21.47,183.94 21.47,184.55C21.47,185.16 21.47,185.78 21.47,186.39C21.47,187 21.47,187.62 21.47,188.23C21.47,188.84 21.47,189.45 21.47,190.06Q21.47,190.67 21.47,191.9L0,191.9L0,10.1Z" style="stroke: none; fill: rgb(255, 160, 122);"/></g><g class="contourlines"/></g></g><g class="scatterlayer mlayer"><g class="trace scatter tracea8014a" style="stroke-miterlimit: 2; opacity: 1;"><g class="fills"/><g class="errorbars"/><g class="lines"><path class="js-line" d="M0,191.9L8.43,163.37L10.12,158.41L18.56,136.57L20.24,132.71L28.68,115.45L30.36,112.36L40.48,95.85L42.17,93.4L52.29,80.14L53.98,78.15L65.79,65.61L67.47,64L80.97,52.44L82.66,51.14L96.15,41.72L97.84,40.65L114.71,31.05L116.39,30.19L134.95,21.65L136.64,20.95L158.57,12.82L160.25,12.26L167,10.1" style="vector-effect: none; fill: none; stroke: rgb(117, 112, 179); stroke-opacity: 1; stroke-width: 1.2px; opacity: 1;"/></g><g class="points"/><g class="text"/></g><g class="trace scatter trace81a8c7" style="stroke-miterlimit: 2; opacity: 1;"><g class="fills"/><g class="errorbars"/><g class="lines"><path class="js-line" d="M0,191.9L3.37,149.2L5.06,137.05L8.43,120.88L10.12,115.24L15.18,103.53L16.87,100.74L21.93,94.35L23.62,92.7L30.36,87.59L32.05,86.59L40.48,82.66L42.17,82.04L53.98,78.65L55.67,78.28L72.54,75.37L74.22,75.15L97.84,72.77L99.53,72.64L141.7,70.37L143.38,70.3L167,69.53" style="vector-effect: none; fill: none; stroke: rgb(217, 95, 2); stroke-opacity: 1; stroke-width: 1.2px; opacity: 1;"/></g><g class="points"/><g class="text"/></g></g></g></g><path class="xlines-above crisp" d="" style="fill: none; stroke-width: 1px; stroke: rgb(0, 0, 0); stroke-opacity: 0;"/><path class="ylines-above crisp" d="" style="fill: none; stroke-width: 1px; stroke: rgb(0, 0, 0); stroke-opacity: 0;"/><g class="overlines-above"/><g class="xaxislayer-above"><path class="xtick ticks crisp" d="M0,218v5" transform="translate(34,0)" style="stroke: rgb(68, 68, 68); stroke-opacity: 1; stroke-width: 1px;"/><path class="xtick ticks crisp" d="M0,218v5" transform="translate(67.4,0)" style="stroke: rgb(68, 68, 68); stroke-opacity: 1; stroke-width: 1px;"/><path class="xtick ticks crisp" d="M0,218v5" transform="translate(100.8,0)" style="stroke: rgb(68, 68, 68); stroke-opacity: 1; stroke-width: 1px;"/><path class="xtick ticks crisp" d="M0,218v5" transform="translate(134.2,0)" style="stroke: rgb(68, 68, 68); stroke-opacity: 1; stroke-width: 1px;"/><path class="xtick ticks crisp" d="M0,218v5" transform="translate(167.6,0)" style="stroke: rgb(68, 68, 68); stroke-opacity: 1; stroke-width: 1px;"/><path class="xtick ticks crisp" d="M0,218v5" transform="translate(201,0)" style="stroke: rgb(68, 68, 68); stroke-opacity: 1; stroke-width: 1px;"/><g class="xtick"><text text-anchor="middle" x="0" y="232.6" transform="translate(34,0)" style="font-family: 'Open Sans', verdana, arial, sans-serif; font-size: 8px; fill: rgb(0, 0, 0); fill-opacity: 1; white-space: pre; opacity: 1;">0</text></g><g class="xtick"><text text-anchor="middle" x="0" y="232.6" style="font-family: 'Open Sans', verdana, arial, sans-serif; font-size: 8px; fill: rgb(0, 0, 0); fill-opacity: 1; white-space: pre; opacity: 1;" transform="translate(67.4,0)">0.1</text></g><g class="xtick"><text text-anchor="middle" x="0" y="232.6" style="font-family: 'Open Sans', verdana, arial, sans-serif; font-size: 8px; fill: rgb(0, 0, 0); fill-opacity: 1; white-space: pre; opacity: 1;" transform="translate(100.8,0)">0.2</text></g><g class="xtick"><text text-anchor="middle" x="0" y="232.6" style="font-family: 'Open Sans', verdana, arial, sans-serif; font-size: 8px; fill: rgb(0, 0, 0); fill-opacity: 1; white-space: pre; opacity: 1;" transform="translate(134.2,0)">0.3</text></g><g class="xtick"><text text-anchor="middle" x="0" y="232.6" style="font-family: 'Open Sans', verdana, arial, sans-serif; font-size: 8px; fill: rgb(0, 0, 0); fill-opacity: 1; white-space: pre; opacity: 1;" transform="translate(167.6,0)">0.4</text></g><g class="xtick"><text text-anchor="middle" x="0" y="232.6" style="font-family: 'Open Sans', verdana, arial, sans-serif; font-size: 8px; fill: rgb(0, 0, 0); fill-opacity: 1; white-space: pre; opacity: 1;" transform="translate(201,0)">0.5</text></g></g><g class="yaxislayer-above"><path class="ytick ticks crisp" d="M33,0h-5" transform="translate(0,206.9)" style="stroke: rgb(68, 68, 68); stroke-opacity: 1; stroke-width: 1px;"/><path class="ytick ticks crisp" d="M33,0h-5" transform="translate(0,143.27)" style="stroke: rgb(68, 68, 68); stroke-opacity: 1; stroke-width: 1px;"/><path class="ytick ticks crisp" d="M33,0h-5" transform="translate(0,79.64)" style="stroke: rgb(68, 68, 68); stroke-opacity: 1; stroke-width: 1px;"/><path class="ytick ticks crisp" d="M33,0h-5" transform="translate(0,16.01)" style="stroke: rgb(68, 68, 68); stroke-opacity: 1; stroke-width: 1px;"/><g class="ytick"><text text-anchor="end" x="26.4" y="2.8" transform="translate(0,206.9)" style="font-family: 'Open Sans', verdana, arial, sans-serif; font-size: 8px; fill: rgb(0, 0, 0); fill-opacity: 1; white-space: pre; opacity: 1;">0</text></g><g class="ytick"><text text-anchor="end" x="26.4" y="2.8" style="font-family: 'Open Sans', verdana, arial, sans-serif; font-size: 8px; fill: rgb(0, 0, 0); fill-opacity: 1; white-space: pre; opacity: 1;" transform="translate(0,143.27)">0.1</text></g><g class="ytick"><text text-anchor="end" x="26.4" y="2.8" style="font-family: 'Open Sans', verdana, arial, sans-serif; font-size: 8px; fill: rgb(0, 0, 0); fill-opacity: 1; white-space: pre; opacity: 1;" transform="translate(0,79.64)">0.2</text></g><g class="ytick"><text text-anchor="end" x="26.4" y="2.8" style="font-family: 'Open Sans', verdana, arial, sans-serif; font-size: 8px; fill: rgb(0, 0, 0); fill-opacity: 1; white-space: pre; opacity: 1;" transform="translate(0,16.01)">0.3</text></g></g><g class="overaxes-above"/></g></g><g class="polarlayer"/><g class="smithlayer"/><g class="ternarylayer"/><g class="geolayer"/><g class="funnelarealayer"/><g class="pielayer"/><g class="iciclelayer"/><g class="treemaplayer"/><g class="sunburstlayer"/><g class="glimages"/><defs id="topdefs-1dba1e"><g class="clips"/><clipPath id="legend1dba1e"><rect width="56" height="69" x="0" y="0"/></clipPath></defs><g class="layer-above"><g class="imagelayer"/><g class="shapelayer"/></g><g class="infolayer"><g class="legend" pointer-events="all" transform="translate(204.34,15)"><rect class="bg" shape-rendering="crispEdges" width="56" height="69" x="0" y="0" style="stroke: rgb(68, 68, 68); stroke-opacity: 1; fill: rgb(255, 255, 255); fill-opacity: 1; stroke-width: 0px;"/><g class="scrollbox" transform="" clip-path="url(#legend1dba1e)"><text class="legendtitletext" text-anchor="start" x="2" y="10.4" style="font-family: 'Open Sans', verdana, arial, sans-serif; font-size: 8px; fill: rgb(0, 0, 0); fill-opacity: 1; white-space: pre;"><tspan class="line" dy="0em" x="2" y="10.4">Isocline of</tspan><tspan class="line" dy="1.3em" x="2" y="10.4">growth rate</tspan></text><g class="groups"><g class="traces" transform="translate(0,35.3)" style="opacity: 1;"><text class="legendtext" text-anchor="start" x="40" y="3.12" style="font-family: 'Open Sans', verdana, arial, sans-serif; font-size: 8px; fill: rgb(0, 0, 0); fill-opacity: 1; white-space: pre;"><tspan style="font-style:italic">Ct</tspan></text><g class="layers" style="opacity: 1;"><g class="legendfill"/><g class="legendlines"><path class="js-line" d="M5,0h30" style="fill: none; stroke: rgb(117, 112, 179); stroke-opacity: 1; stroke-width: 1.2px;"/></g><g class="legendsymbols"><g class="legendpoints"/></g></g><rect class="legendtoggle" x="0" y="-9.5" width="50.765625" height="19" style="fill: rgb(0, 0, 0); fill-opacity: 0;"/></g><g class="traces" transform="translate(0,54.3)" style="opacity: 1;"><text class="legendtext" text-anchor="start" x="40" y="3.12" style="font-family: 'Open Sans', verdana, arial, sans-serif; font-size: 8px; fill: rgb(0, 0, 0); fill-opacity: 1; white-space: pre;"><tspan style="font-style:italic">Oa</tspan></text><g class="layers" style="opacity: 1;"><g class="legendfill"/><g class="legendlines"><path class="js-line" d="M5,0h30" style="fill: none; stroke: rgb(217, 95, 2); stroke-opacity: 1; stroke-width: 1.2px;"/></g><g class="legendsymbols"><g class="legendpoints"/></g></g><rect class="legendtoggle" x="0" y="-9.5" width="50.765625" height="19" style="fill: rgb(0, 0, 0); fill-opacity: 0;"/></g></g></g><rect class="scrollbar" rx="20" ry="3" width="0" height="0" x="0" y="0" style="fill: rgb(128, 139, 164); fill-opacity: 1;"/></g><g class="cb3b52e0 colorbar" transform="translate(34,15)"><rect class="cbbg" x="170" y="71" width="85.515625" height="101" style="fill: rgb(0, 0, 0); fill-opacity: 0; stroke: rgb(68, 68, 68); stroke-opacity: 1; stroke-width: 0;"/><g class="cbfills" transform="translate(0,81)"><rect class="cbfill" style="" x="180" y="1" width="30" height="80" fill="#add8e6"/><rect class="cbfill" style="" x="180" y="1" width="30" height="76" fill="#b6dce9"/><rect class="cbfill" style="" x="180" y="1" width="30" height="72" fill="#bee0eb"/><rect class="cbfill" style="" x="180" y="1" width="30" height="68" fill="#c7e4ee"/><rect class="cbfill" style="" x="180" y="1" width="30" height="64" fill="#d0e8f1"/><rect class="cbfill" style="" x="180" y="1" width="30" height="60" fill="#d8edf3"/><rect class="cbfill" style="" x="180" y="1" width="30" height="56" fill="#e1f1f6"/><rect class="cbfill" style="" x="180" y="1" width="30" height="52" fill="#e9f5f8"/><rect class="cbfill" style="" x="180" y="1" width="30" height="48" fill="#f2f9fb"/><rect class="cbfill" style="" x="180" y="1" width="30" height="44" fill="#fbfdfe"/><rect class="cbfill" style="" x="180" y="1" width="30" height="40" fill="#fffaf8"/><rect class="cbfill" style="" x="180" y="1" width="30" height="35" fill="#fff0ea"/><rect class="cbfill" style="" x="180" y="1" width="30" height="31" fill="#ffe6dc"/><rect class="cbfill" style="" x="180" y="1" width="30" height="27" fill="#ffdcce"/><rect class="cbfill" style="" x="180" y="1" width="30" height="23" fill="#ffd2c0"/><rect class="cbfill" style="" x="180" y="1" width="30" height="19" fill="#ffc8b2"/><rect class="cbfill" style="" x="180" y="1" width="30" height="15" fill="#ffbea4"/><rect class="cbfill" style="" x="180" y="1" width="30" height="11" fill="#ffb496"/><rect class="cbfill" style="" x="180" y="1" width="30" height="7" fill="#ffaa88"/><rect class="cbfill" style="" x="180" y="0" width="30" height="4" fill="#ffa07a"/></g><g class="cblines" transform="translate(0,81)"/><g class="cbaxis crisp" transform="translate(0,-15)"><g class="ycb3b52e0tick"><text text-anchor="start" x="212.1" y="2.8" transform="translate(0,176.7)" style="font-family: 'Open Sans', verdana, arial, sans-serif; font-size: 8px; fill: rgb(0, 0, 0); fill-opacity: 1; white-space: pre; opacity: 1;">0.5</text></g><g class="ycb3b52e0tick"><text text-anchor="start" x="212.1" y="2.8" style="font-family: 'Open Sans', verdana, arial, sans-serif; font-size: 8px; fill: rgb(0, 0, 0); fill-opacity: 1; white-space: pre; opacity: 1;" transform="translate(0,136.2)">0</text></g><g class="ycb3b52e0tick"><text text-anchor="start" x="212.1" y="2.8" style="font-family: 'Open Sans', verdana, arial, sans-serif; font-size: 8px; fill: rgb(0, 0, 0); fill-opacity: 1; white-space: pre; opacity: 1;" transform="translate(0,95.7)">0.5</text></g></g><g class="cbtitleunshift" transform="translate(-34,-15)"><g class="cbtitle" transform="translate(11.0634765625,0)"><text class="hycb3b52e0title" transform="rotate(-90,264.34000000000003,136.2)" x="264.34000000000003" y="136.2" text-anchor="middle" style="opacity: 1; font-family: 'Open Sans', verdana, arial, sans-serif; font-size: 10px; fill: rgb(0, 0, 0); fill-opacity: 1; white-space: pre;">log<tspan style="font-size:70%" dy="0.3em">10</tspan><tspan dy="-0.21em"></tspan> ( J<tspan style="font-size:70%" dy="0.3em"><tspan style="font-style:italic">Oa</tspan></tspan><tspan dy="-0.21em"></tspan> / J<tspan style="font-size:70%" dy="0.3em"><tspan style="font-style:italic">Ct</tspan></tspan><tspan dy="-0.21em"></tspan> )</text></g></g><rect class="cboutline" x="180" y="81" width="30" height="81" style="stroke: rgb(68, 68, 68); stroke-opacity: 1; fill: none; stroke-width: 0;"/></g><g class="g-gtitle"/><g class="g-xtitle" transform="translate(0,3.9000000000000057)"><text class="xtitle" x="117.5" y="239.709375" text-anchor="middle" style="opacity: 1; font-family: 'Open Sans', verdana, arial, sans-serif; font-size: 8px; fill: rgb(0, 0, 0); fill-opacity: 1; white-space: pre;">Acetate [mM]</text></g><g class="g-ytitle"><text class="ytitle" transform="rotate(-90,12.809375,116)" x="12.809375" y="116" text-anchor="middle" style="opacity: 1; font-family: 'Open Sans', verdana, arial, sans-serif; font-size: 8px; fill: rgb(0, 0, 0); fill-opacity: 1; white-space: pre;">J [1/h]</text></g></g></svg>