<svg class="main-svg" xmlns="http://www.w3.org/2000/svg" xmlns:xlink="http://www.w3.org/1999/xlink" width="150" height="225" style="" viewBox="0 0 150 225"><rect x="0" y="0" width="150" height="225" style="fill: rgb(255, 255, 255); fill-opacity: 1;"/><defs id="defs-3d4252"><g class="clips"><clipPath id="clip3d4252xyplot" class="plotclip"><rect width="104" height="122"/></clipPath><clipPath class="axesclip" id="clip3d4252x"><rect x="35" y="0" width="104" height="225"/></clipPath><clipPath class="axesclip" id="clip3d4252y"><rect x="0" y="11" width="150" height="122"/></clipPath><clipPath class="axesclip" id="clip3d4252xy"><rect x="35" y="11" width="104" height="122"/></clipPath></g><g class="gradients"/><g class="patterns"/></defs><g class="bglayer"/><g class="layer-below"><g class="imagelayer"/><g class="shapelayer"/></g><g class="cartesianlayer"><g class="subplot xy"><g class="layer-subplot"><g class="shapelayer"/><g class="imagelayer"/></g><g class="minor-gridlayer"><g class="x"/><g class="y"/></g><g class="gridlayer"><g class="x"><path class="xgrid crisp" transform="translate(45.4,0)" d="M0,11v122" style="stroke: rgb(128, 128, 128); stroke-opacity: 1; stroke-width: 0.2px;"/><path class="xgrid crisp" transform="translate(66.2,0)" d="M0,11v122" style="stroke: rgb(128, 128, 128); stroke-opacity: 1; stroke-width: 0.2px;"/><path class="xgrid crisp" transform="translate(87,0)" d="M0,11v122" style="stroke: rgb(128, 128, 128); stroke-opacity: 1; stroke-width: 0.2px;"/><path class="xgrid crisp" transform="translate(107.8,0)" d="M0,11v122" style="stroke: rgb(128, 128, 128); stroke-opacity: 1; stroke-width: 0.2px;"/><path class="xgrid crisp" transform="translate(128.6,0)" d="M0,11v122" style="stroke: rgb(128, 128, 128); stroke-opacity: 1; stroke-width: 0.2px;"/></g><g class="y"><path class="ygrid crisp" transform="translate(0,100.81)" d="M35,0h104" style="stroke: rgb(128, 128, 128); stroke-opacity: 1; stroke-width: 0.2px;"/><path class="ygrid crisp" transform="translate(0,56.82)" d="M35,0h104" style="stroke: rgb(128, 128, 128); stroke-opacity: 1; stroke-width: 0.2px;"/><path class="ygrid crisp" transform="translate(0,25.61)" d="M35,0h104" style="stroke: rgb(128, 128, 128); stroke-opacity: 1; stroke-width: 0.2px;"/></g></g><g class="zerolinelayer"/><g class="layer-between"><g class="shapelayer"/><g class="imagelayer"/></g><path class="xlines-below"/><path class="ylines-below"/><g class="overlines-below"/><g class="xaxislayer-below"/><g class="yaxislayer-below"/><g class="overaxes-below"/><g class="overplot"><g class="xy" transform="translate(35,11)" clip-path="url(#clip3d4252xyplot)"><g class="boxlayer mlayer"><g class="trace boxes" style="opacity: 1;"><path class="box" d="M5.3,7.12H15.5M5.3,10.68H15.5V6.12H5.3ZM10.4,10.68V12.23M10.4,6.12V6.1M7.85,12.23H12.95M7.85,6.1H12.95" style="vector-effect: none; stroke-width: 1.5px; stroke: rgb(0, 0, 0); stroke-opacity: 1; fill: rgb(0, 0, 0); fill-opacity: 0.5;"/><g class="points"><path class="point" transform="translate(13.04,12.23)" d="M2.5,0A2.5,2.5 0 1,1 0,-2.5A2.5,2.5 0 0,1 2.5,0Z" style="opacity: 1; stroke-width: 0px; fill: rgb(0, 0, 0); fill-opacity: 1;"/><path class="point" transform="translate(7.15,6.17)" d="M2.5,0A2.5,2.5 0 1,1 0,-2.5A2.5,2.5 0 0,1 2.5,0Z" style="opacity: 1; stroke-width: 0px; fill: rgb(0, 0, 0); fill-opacity: 1;"/><path class="point" transform="translate(14.35,6.1)" d="M2.5,0A2.5,2.5 0 1,1 0,-2.5A2.5,2.5 0 0,1 2.5,0Z" style="opacity: 1; stroke-width: 0px; fill: rgb(0, 0, 0); fill-opacity: 1;"/></g><path class="mean" d="M5.3,8.13H15.5" style="fill: none; vector-effect: non-scaling-stroke; stroke-width: 1.5; stroke-dasharray: 3px, 1.5px; stroke: rgb(0, 0, 0); stroke-opacity: 1;"/></g><g class="trace boxes" style="opacity: 1;"><path class="box" d="M26.1,50.89H36.3M26.1,54.51H36.3V38.78H26.1ZM31.2,54.51V55.75M31.2,38.78V35.03M28.65,55.75H33.75M28.65,35.03H33.75" style="vector-effect: none; stroke-width: 1.5px; stroke: rgb(117, 112, 179); stroke-opacity: 1; fill: rgb(117, 112, 179); fill-opacity: 0.5;"/><g class="points"><path class="point" transform="translate(33.84,55.75)" d="M2.5,0A2.5,2.5 0 1,1 0,-2.5A2.5,2.5 0 0,1 2.5,0Z" style="opacity: 1; stroke-width: 0px; fill: rgb(117, 112, 179); fill-opacity: 1;"/><path class="point" transform="translate(27.95,50.89)" d="M2.5,0A2.5,2.5 0 1,1 0,-2.5A2.5,2.5 0 0,1 2.5,0Z" style="opacity: 1; stroke-width: 0px; fill: rgb(117, 112, 179); fill-opacity: 1;"/><path class="point" transform="translate(35.15,35.03)" d="M2.5,0A2.5,2.5 0 1,1 0,-2.5A2.5,2.5 0 0,1 2.5,0Z" style="opacity: 1; stroke-width: 0px; fill: rgb(117, 112, 179); fill-opacity: 1;"/></g><path class="mean" d="M26.1,46.86H36.3" style="fill: none; vector-effect: non-scaling-stroke; stroke-width: 1.5; stroke-dasharray: 3px, 1.5px; stroke: rgb(117, 112, 179); stroke-opacity: 1;"/></g><g class="trace boxes" style="opacity: 1;"><path class="box" d="M46.9,26.4H57.1M46.9,30.37H57.1V23.78H46.9ZM52,30.37V31.72M52,23.78V22.92M49.45,31.72H54.55M49.45,22.92H54.55" style="vector-effect: none; stroke-width: 1.5px; stroke: rgb(217, 95, 2); stroke-opacity: 1; fill: rgb(217, 95, 2); fill-opacity: 0.5;"/><g class="points"><path class="point" transform="translate(54.64,31.72)" d="M2.5,0A2.5,2.5 0 1,1 0,-2.5A2.5,2.5 0 0,1 2.5,0Z" style="opacity: 1; stroke-width: 0px; fill: rgb(217, 95, 2); fill-opacity: 1;"/><path class="point" transform="translate(48.75,26.4)" d="M2.5,0A2.5,2.5 0 1,1 0,-2.5A2.5,2.5 0 0,1 2.5,0Z" style="opacity: 1; stroke-width: 0px; fill: rgb(217, 95, 2); fill-opacity: 1;"/><path class="point" transform="translate(55.95,22.92)" d="M2.5,0A2.5,2.5 0 1,1 0,-2.5A2.5,2.5 0 0,1 2.5,0Z" style="opacity: 1; stroke-width: 0px; fill: rgb(217, 95, 2); fill-opacity: 1;"/></g><path class="mean" d="M46.9,26.95H57.1" style="fill: none; vector-effect: non-scaling-stroke; stroke-width: 1.5; stroke-dasharray: 3px, 1.5px; stroke: rgb(217, 95, 2); stroke-opacity: 1;"/></g><g class="trace boxes" style="opacity: 1;"><path class="box" d="M67.7,89.94H77.9M67.7,108.8H77.9V87.27H67.7ZM72.8,108.8V115.9M72.8,87.27V86.39M70.25,115.9H75.35M70.25,86.39H75.35" style="vector-effect: none; stroke-width: 1.5px; stroke: rgb(117, 112, 179); stroke-opacity: 1; fill: rgb(117, 112, 179); fill-opacity: 0.5;"/><g class="points"><path class="point" transform="translate(75.44,115.9)" d="M2.5,0A2.5,2.5 0 1,1 0,-2.5A2.5,2.5 0 0,1 2.5,0Z" style="opacity: 1; stroke-width: 0px; fill: rgb(117, 112, 179); fill-opacity: 1;"/><path class="point" transform="translate(69.55,89.94)" d="M2.5,0A2.5,2.5 0 1,1 0,-2.5A2.5,2.5 0 0,1 2.5,0Z" style="opacity: 1; stroke-width: 0px; fill: rgb(117, 112, 179); fill-opacity: 1;"/><path class="point" transform="translate(76.75,86.39)" d="M2.5,0A2.5,2.5 0 1,1 0,-2.5A2.5,2.5 0 0,1 2.5,0Z" style="opacity: 1; stroke-width: 0px; fill: rgb(117, 112, 179); fill-opacity: 1;"/></g><path class="mean" d="M67.7,96.64H77.9" style="fill: none; vector-effect: non-scaling-stroke; stroke-width: 1.5; stroke-dasharray: 3px, 1.5px; stroke: rgb(117, 112, 179); stroke-opacity: 1;"/></g><g class="trace boxes" style="opacity: 1;"><path class="box" d="M88.5,64.7H98.7M88.5,76.32H98.7V52.13H88.5ZM93.6,76.32V80.49M93.6,52.13V48.24M91.05,80.49H96.15M91.05,48.24H96.15" style="vector-effect: none; stroke-width: 1.5px; stroke: rgb(217, 95, 2); stroke-opacity: 1; fill: rgb(217, 95, 2); fill-opacity: 0.5;"/><g class="points"><path class="point" transform="translate(96.24,80.49)" d="M2.5,0A2.5,2.5 0 1,1 0,-2.5A2.5,2.5 0 0,1 2.5,0Z" style="opacity: 1; stroke-width: 0px; fill: rgb(217, 95, 2); fill-opacity: 1;"/><path class="point" transform="translate(90.35,64.7)" d="M2.5,0A2.5,2.5 0 1,1 0,-2.5A2.5,2.5 0 0,1 2.5,0Z" style="opacity: 1; stroke-width: 0px; fill: rgb(217, 95, 2); fill-opacity: 1;"/><path class="point" transform="translate(97.55,48.24)" d="M2.5,0A2.5,2.5 0 1,1 0,-2.5A2.5,2.5 0 0,1 2.5,0Z" style="opacity: 1; stroke-width: 0px; fill: rgb(217, 95, 2); fill-opacity: 1;"/></g><path class="mean" d="M88.5,63.68H98.7" style="fill: none; vector-effect: non-scaling-stroke; stroke-width: 1.5; stroke-dasharray: 3px, 1.5px; stroke: rgb(217, 95, 2); stroke-opacity: 1;"/></g></g></g></g><path class="xlines-above crisp" d="M34.5,133.25H139.5M34.5,10.75H139.5" style="fill: none; stroke-width: 0.5px; stroke: rgb(0, 0, 0); stroke-opacity: 1;"/><path class="ylines-above crisp" d="M34.75,11V133M139.25,11V133" style="fill: none; stroke-width: 0.5px; stroke: rgb(0, 0, 0); stroke-opacity: 1;"/><g class="overlines-above"/><g class="xaxislayer-above"><g class="xtick"><text text-anchor="start" x="0" y="146.7" transform="translate(45.4,0) rotate(90,0,141.2)" style="font-family: 'Open Sans', verdana, arial, sans-serif; font-size: 11px; fill: rgb(0, 0, 0); fill-opacity: 1; white-space: pre; opacity: 1;">Media</text></g><g class="xtick"><text text-anchor="start" x="0" y="146.7" transform="translate(66.2,0) rotate(90,0,141.2)" style="font-family: 'Open Sans', verdana, arial, sans-serif; font-size: 11px; fill: rgb(0, 0, 0); fill-opacity: 1; white-space: pre; opacity: 1;">Ct Chemostat</text></g><g class="xtick"><text text-anchor="start" x="0" y="146.7" transform="translate(87,0) rotate(90,0,141.2)" style="font-family: 'Open Sans', verdana, arial, sans-serif; font-size: 11px; fill: rgb(0, 0, 0); fill-opacity: 1; white-space: pre; opacity: 1;">Oa Chemostat</text></g><g class="xtick"><text text-anchor="start" x="0" y="146.7" transform="translate(107.8,0) rotate(90,0,141.2)" style="font-family: 'Open Sans', verdana, arial, sans-serif; font-size: 11px; fill: rgb(0, 0, 0); fill-opacity: 1; white-space: pre; opacity: 1;">Ct in Oa</text></g><g class="xtick"><text text-anchor="start" x="0" y="146.7" transform="translate(128.6,0) rotate(90,0,141.2)" style="font-family: 'Open Sans', verdana, arial, sans-serif; font-size: 11px; fill: rgb(0, 0, 0); fill-opacity: 1; white-space: pre; opacity: 1;">Oa in Ct</text></g></g><g class="yaxislayer-above"><g class="ytick"><text text-anchor="end" x="32.3" y="3.8499999999999996" transform="translate(0,100.81)" style="font-family: 'Open Sans', verdana, arial, sans-serif; font-size: 11px; fill: rgb(0, 0, 0); fill-opacity: 1; white-space: pre; opacity: 1;">20M</text></g><g class="ytick"><text text-anchor="end" x="32.3" y="3.8499999999999996" style="font-family: 'Open Sans', verdana, arial, sans-serif; font-size: 11px; fill: rgb(0, 0, 0); fill-opacity: 1; white-space: pre; opacity: 1;" transform="translate(0,56.82)">30M</text></g><g class="ytick"><text text-anchor="end" x="32.3" y="3.8499999999999996" style="font-family: 'Open Sans', verdana, arial, sans-serif; font-size: 11px; fill: rgb(0, 0, 0); fill-opacity: 1; white-space: pre; opacity: 1;" transform="translate(0,25.61)">40M</text></g></g><g class="overaxes-above"/></g></g><g class="polarlayer"/><g class="smithlayer"/><g class="ternarylayer"/><g class="geolayer"/><g class="funnelarealayer"/><g class="pielayer"/><g class="iciclelayer"/><g class="treemaplayer"/><g class="sunburstlayer"/><g class="glimages"/><defs id="topdefs-3d4252"><g class="clips"/></defs><g class="layer-above"><g class="imagelayer"/><g class="shapelayer"/></g><g class="infolayer"><g class="g-gtitle"/><g class="g-xtitle"/><g class="g-ytitle"/></g></svg>