<svg class="main-svg" xmlns="http://www.w3.org/2000/svg" xmlns:xlink="http://www.w3.org/1999/xlink" width="375" height="225" style="" viewBox="0 0 375 225"><rect x="0" y="0" width="375" height="225" style="fill: rgb(255, 255, 255); fill-opacity: 1;"/><defs id="defs-dac277"><g class="clips"><clipPath id="clipdac277xyplot" class="plotclip"><rect width="262" height="127"/></clipPath><clipPath class="axesclip" id="clipdac277x"><rect x="40" y="0" width="262" height="225"/></clipPath><clipPath class="axesclip" id="clipdac277y"><rect x="0" y="1" width="375" height="127"/></clipPath><clipPath class="axesclip" id="clipdac277xy"><rect x="40" y="1" width="262" height="127"/></clipPath></g><g class="gradients"/><g class="patterns"/></defs><g class="bglayer"/><g class="layer-below"><g class="imagelayer"/><g class="shapelayer"/></g><g class="cartesianlayer"><g class="subplot xy"><g class="layer-subplot"><g class="shapelayer"/><g class="imagelayer"/></g><g class="minor-gridlayer"><g class="x"/><g class="y"/></g><g class="gridlayer"><g class="x"><path class="xgrid crisp" transform="translate(58.71,0)" d="M0,1v127" style="stroke: rgb(128, 128, 128); stroke-opacity: 1; stroke-width: 0.2px;"/><path class="xgrid crisp" transform="translate(96.14,0)" d="M0,1v127" style="stroke: rgb(128, 128, 128); stroke-opacity: 1; stroke-width: 0.2px;"/><path class="xgrid crisp" transform="translate(133.57,0)" d="M0,1v127" style="stroke: rgb(128, 128, 128); stroke-opacity: 1; stroke-width: 0.2px;"/><path class="xgrid crisp" transform="translate(171,0)" d="M0,1v127" style="stroke: rgb(128, 128, 128); stroke-opacity: 1; stroke-width: 0.2px;"/><path class="xgrid crisp" transform="translate(208.43,0)" d="M0,1v127" style="stroke: rgb(128, 128, 128); stroke-opacity: 1; stroke-width: 0.2px;"/><path class="xgrid crisp" transform="translate(245.86,0)" d="M0,1v127" style="stroke: rgb(128, 128, 128); stroke-opacity: 1; stroke-width: 0.2px;"/><path class="xgrid crisp" transform="translate(283.28999999999996,0)" d="M0,1v127" style="stroke: rgb(128, 128, 128); stroke-opacity: 1; stroke-width: 0.2px;"/></g><g class="y"><path class="ygrid crisp" transform="translate(0,123.09)" d="M40,0h262" style="stroke: rgb(128, 128, 128); stroke-opacity: 1; stroke-width: 0.2px;"/><path class="ygrid crisp" transform="translate(0,91.26)" d="M40,0h262" style="stroke: rgb(128, 128, 128); stroke-opacity: 1; stroke-width: 0.2px;"/><path class="ygrid crisp" transform="translate(0,59.43)" d="M40,0h262" style="stroke: rgb(128, 128, 128); stroke-opacity: 1; stroke-width: 0.2px;"/><path class="ygrid crisp" transform="translate(0,27.6)" d="M40,0h262" style="stroke: rgb(128, 128, 128); stroke-opacity: 1; stroke-width: 0.2px;"/></g></g><g class="zerolinelayer"/><g class="layer-between"><g class="shapelayer"/><g class="imagelayer"/></g><path class="xlines-below"/><path class="ylines-below"/><g class="overlines-below"/><g class="xaxislayer-below"/><g class="yaxislayer-below"/><g class="overaxes-below"/><g class="overplot"><g class="xy" transform="translate(40,1)" clip-path="url(#clipdac277xyplot)"><g class="boxlayer mlayer"><g class="trace boxes" style="opacity: 1;"><path class="box" d="M9.54,89.04H27.88M9.54,89.18H27.88V88.83H9.54ZM18.71,89.18V89.23M18.71,88.83V88.76M14.13,89.23H23.3M14.13,88.76H23.3" style="vector-effect: none; stroke-width: 1.5px; stroke: rgb(0, 0, 0); stroke-opacity: 1; fill: rgb(0, 0, 0); fill-opacity: 0.5;"/><g class="points"><path class="point" transform="translate(23.47,89.23)" d="M2.5,0A2.5,2.5 0 1,1 0,-2.5A2.5,2.5 0 0,1 2.5,0Z" style="opacity: 1; stroke-width: 0px; fill: rgb(0, 0, 0); fill-opacity: 1;"/><path class="point" transform="translate(12.87,89.04)" d="M2.5,0A2.5,2.5 0 1,1 0,-2.5A2.5,2.5 0 0,1 2.5,0Z" style="opacity: 1; stroke-width: 0px; fill: rgb(0, 0, 0); fill-opacity: 1;"/><path class="point" transform="translate(25.82,88.76)" d="M2.5,0A2.5,2.5 0 1,1 0,-2.5A2.5,2.5 0 0,1 2.5,0Z" style="opacity: 1; stroke-width: 0px; fill: rgb(0, 0, 0); fill-opacity: 1;"/></g><path class="mean" d="M9.54,89.01H27.88" style="fill: none; vector-effect: non-scaling-stroke; stroke-width: 1.5; stroke-dasharray: 3px, 1.5px; stroke: rgb(0, 0, 0); stroke-opacity: 1;"/></g><g class="trace boxes" style="opacity: 1;"><path class="box" d="M46.97,96.53H65.31M46.97,97.03H65.31V95.79H46.97ZM56.14,97.03V97.21M56.14,95.79V95.55M51.56,97.21H60.73M51.56,95.55H60.73" style="vector-effect: none; stroke-width: 1.5px; stroke: rgb(0, 0, 0); stroke-opacity: 1; fill: rgb(0, 0, 0); fill-opacity: 0.5;"/><g class="points"><path class="point" transform="translate(60.9,97.21)" d="M2.5,0A2.5,2.5 0 1,1 0,-2.5A2.5,2.5 0 0,1 2.5,0Z" style="opacity: 1; stroke-width: 0px; fill: rgb(0, 0, 0); fill-opacity: 1;"/><path class="point" transform="translate(50.3,96.53)" d="M2.5,0A2.5,2.5 0 1,1 0,-2.5A2.5,2.5 0 0,1 2.5,0Z" style="opacity: 1; stroke-width: 0px; fill: rgb(0, 0, 0); fill-opacity: 1;"/><path class="point" transform="translate(63.25,95.55)" d="M2.5,0A2.5,2.5 0 1,1 0,-2.5A2.5,2.5 0 0,1 2.5,0Z" style="opacity: 1; stroke-width: 0px; fill: rgb(0, 0, 0); fill-opacity: 1;"/></g><path class="mean" d="M46.97,96.41H65.31" style="fill: none; vector-effect: non-scaling-stroke; stroke-width: 1.5; stroke-dasharray: 3px, 1.5px; stroke: rgb(0, 0, 0); stroke-opacity: 1;"/></g><g class="trace boxes" style="opacity: 1;"><path class="box" d="M84.4,6.36H102.74M84.4,6.93H102.74V6.35H84.4ZM93.57,6.93V7.13M93.57,6.35V6.35M88.99,7.13H98.16M88.99,6.35H98.16" style="vector-effect: none; stroke-width: 1.5px; stroke: rgb(0, 0, 0); stroke-opacity: 1; fill: rgb(0, 0, 0); fill-opacity: 0.5;"/><g class="points"><path class="point" transform="translate(98.33,7.13)" d="M2.5,0A2.5,2.5 0 1,1 0,-2.5A2.5,2.5 0 0,1 2.5,0Z" style="opacity: 1; stroke-width: 0px; fill: rgb(0, 0, 0); fill-opacity: 1;"/><path class="point" transform="translate(87.73,6.36)" d="M2.5,0A2.5,2.5 0 1,1 0,-2.5A2.5,2.5 0 0,1 2.5,0Z" style="opacity: 1; stroke-width: 0px; fill: rgb(0, 0, 0); fill-opacity: 1;"/><path class="point" transform="translate(100.68,6.35)" d="M2.5,0A2.5,2.5 0 1,1 0,-2.5A2.5,2.5 0 0,1 2.5,0Z" style="opacity: 1; stroke-width: 0px; fill: rgb(0, 0, 0); fill-opacity: 1;"/></g><path class="mean" d="M84.4,6.61H102.74" style="fill: none; vector-effect: non-scaling-stroke; stroke-width: 1.5; stroke-dasharray: 3px, 1.5px; stroke: rgb(0, 0, 0); stroke-opacity: 1;"/></g><g class="trace boxes" style="opacity: 1;"><path class="box" d="M121.83,95.14H140.17M121.83,95.37H140.17V95.12H121.83ZM131,95.37V95.45M131,95.12V95.11M126.42,95.45H135.59M126.42,95.11H135.59" style="vector-effect: none; stroke-width: 1.5px; stroke: rgb(0, 0, 0); stroke-opacity: 1; fill: rgb(0, 0, 0); fill-opacity: 0.5;"/><g class="points"><path class="point" transform="translate(135.76,95.45)" d="M2.5,0A2.5,2.5 0 1,1 0,-2.5A2.5,2.5 0 0,1 2.5,0Z" style="opacity: 1; stroke-width: 0px; fill: rgb(0, 0, 0); fill-opacity: 1;"/><path class="point" transform="translate(125.16,95.14)" d="M2.5,0A2.5,2.5 0 1,1 0,-2.5A2.5,2.5 0 0,1 2.5,0Z" style="opacity: 1; stroke-width: 0px; fill: rgb(0, 0, 0); fill-opacity: 1;"/><path class="point" transform="translate(138.11,95.11)" d="M2.5,0A2.5,2.5 0 1,1 0,-2.5A2.5,2.5 0 0,1 2.5,0Z" style="opacity: 1; stroke-width: 0px; fill: rgb(0, 0, 0); fill-opacity: 1;"/></g><path class="mean" d="M121.83,95.23H140.17" style="fill: none; vector-effect: non-scaling-stroke; stroke-width: 1.5; stroke-dasharray: 3px, 1.5px; stroke: rgb(0, 0, 0); stroke-opacity: 1;"/></g><g class="trace boxes" style="opacity: 1;"><path class="box" d="M159.26,105.53H177.6M159.26,105.58H177.6V105.38H159.26ZM168.43,105.58V105.6M168.43,105.38V105.33M163.84,105.6H173.01M163.84,105.33H173.01" style="vector-effect: none; stroke-width: 1.5px; stroke: rgb(0, 0, 0); stroke-opacity: 1; fill: rgb(0, 0, 0); fill-opacity: 0.5;"/><g class="points"><path class="point" transform="translate(173.19,105.6)" d="M2.5,0A2.5,2.5 0 1,1 0,-2.5A2.5,2.5 0 0,1 2.5,0Z" style="opacity: 1; stroke-width: 0px; fill: rgb(0, 0, 0); fill-opacity: 1;"/><path class="point" transform="translate(162.58,105.53)" d="M2.5,0A2.5,2.5 0 1,1 0,-2.5A2.5,2.5 0 0,1 2.5,0Z" style="opacity: 1; stroke-width: 0px; fill: rgb(0, 0, 0); fill-opacity: 1;"/><path class="point" transform="translate(175.54,105.33)" d="M2.5,0A2.5,2.5 0 1,1 0,-2.5A2.5,2.5 0 0,1 2.5,0Z" style="opacity: 1; stroke-width: 0px; fill: rgb(0, 0, 0); fill-opacity: 1;"/></g><path class="mean" d="M159.26,105.49H177.6" style="fill: none; vector-effect: non-scaling-stroke; stroke-width: 1.5; stroke-dasharray: 3px, 1.5px; stroke: rgb(0, 0, 0); stroke-opacity: 1;"/></g><g class="trace boxes" style="opacity: 1;"><path class="box" d="M196.69,119.99H215.03M196.69,120.48H215.03V119H196.69ZM205.86,120.48V120.65M205.86,119V118.68M201.27,120.65H210.44M201.27,118.68H210.44" style="vector-effect: none; stroke-width: 1.5px; stroke: rgb(0, 0, 0); stroke-opacity: 1; fill: rgb(0, 0, 0); fill-opacity: 0.5;"/><g class="points"><path class="point" transform="translate(210.62,120.65)" d="M2.5,0A2.5,2.5 0 1,1 0,-2.5A2.5,2.5 0 0,1 2.5,0Z" style="opacity: 1; stroke-width: 0px; fill: rgb(0, 0, 0); fill-opacity: 1;"/><path class="point" transform="translate(200.01,119.99)" d="M2.5,0A2.5,2.5 0 1,1 0,-2.5A2.5,2.5 0 0,1 2.5,0Z" style="opacity: 1; stroke-width: 0px; fill: rgb(0, 0, 0); fill-opacity: 1;"/><path class="point" transform="translate(212.97,118.68)" d="M2.5,0A2.5,2.5 0 1,1 0,-2.5A2.5,2.5 0 0,1 2.5,0Z" style="opacity: 1; stroke-width: 0px; fill: rgb(0, 0, 0); fill-opacity: 1;"/></g><path class="mean" d="M196.69,119.75H215.03" style="fill: none; vector-effect: non-scaling-stroke; stroke-width: 1.5; stroke-dasharray: 3px, 1.5px; stroke: rgb(0, 0, 0); stroke-opacity: 1;"/></g><g class="trace boxes" style="opacity: 1;"><path class="box" d="M234.12,80.56H252.46M234.12,83.56H252.46V79.56H234.12ZM243.29,83.56V84.81M243.29,79.56V79.3M238.7,84.81H247.87M238.7,79.3H247.87" style="vector-effect: none; stroke-width: 1.5px; stroke: rgb(0, 0, 0); stroke-opacity: 1; fill: rgb(0, 0, 0); fill-opacity: 0.5;"/><g class="points"><path class="point" transform="translate(248.04,84.81)" d="M2.5,0A2.5,2.5 0 1,1 0,-2.5A2.5,2.5 0 0,1 2.5,0Z" style="opacity: 1; stroke-width: 0px; fill: rgb(0, 0, 0); fill-opacity: 1;"/><path class="point" transform="translate(237.44,80.37)" d="M2.5,0A2.5,2.5 0 1,1 0,-2.5A2.5,2.5 0 0,1 2.5,0Z" style="opacity: 1; stroke-width: 0px; fill: rgb(0, 0, 0); fill-opacity: 1;"/><path class="point" transform="translate(250.4,79.3)" d="M2.5,0A2.5,2.5 0 1,1 0,-2.5A2.5,2.5 0 0,1 2.5,0Z" style="opacity: 1; stroke-width: 0px; fill: rgb(0, 0, 0); fill-opacity: 1;"/></g><path class="mean" d="M234.12,81.3H252.46" style="fill: none; vector-effect: non-scaling-stroke; stroke-width: 1.5; stroke-dasharray: 3px, 1.5px; stroke: rgb(0, 0, 0); stroke-opacity: 1;"/></g></g></g></g><path class="xlines-above crisp" d="M39.5,128.25H302.5M39.5,0.75H302.5" style="fill: none; stroke-width: 0.5px; stroke: rgb(0, 0, 0); stroke-opacity: 1;"/><path class="ylines-above crisp" d="M39.75,1V128M302.25,1V128" style="fill: none; stroke-width: 0.5px; stroke: rgb(0, 0, 0); stroke-opacity: 1;"/><g class="overlines-above"/><g class="xaxislayer-above"><g class="xtick"><text text-anchor="start" x="0" y="141.7" transform="translate(58.71,0) rotate(29.999999999999996,0,136.2)" style="font-family: 'Open Sans', verdana, arial, sans-serif; font-size: 11px; fill: rgb(0, 0, 0); fill-opacity: 1; white-space: pre; opacity: 1;">Hexanoate</text></g><g class="xtick"><text text-anchor="start" x="0" y="141.7" transform="translate(96.14,0) rotate(29.999999999999996,0,136.2)" style="font-family: 'Open Sans', verdana, arial, sans-serif; font-size: 11px; fill: rgb(0, 0, 0); fill-opacity: 1; white-space: pre; opacity: 1;">Trigonelline</text></g><g class="xtick"><text text-anchor="start" x="0" y="141.7" transform="translate(133.57,0) rotate(29.999999999999996,0,136.2)" style="font-family: 'Open Sans', verdana, arial, sans-serif; font-size: 11px; fill: rgb(0, 0, 0); fill-opacity: 1; white-space: pre; opacity: 1;">Thiamine</text></g><g class="xtick"><text text-anchor="start" x="0" y="141.7" transform="translate(171,0) rotate(29.999999999999996,0,136.2)" style="font-family: 'Open Sans', verdana, arial, sans-serif; font-size: 11px; fill: rgb(0, 0, 0); fill-opacity: 1; white-space: pre; opacity: 1;">Deoxyribose</text></g><g class="xtick"><text text-anchor="start" x="0" y="141.7" transform="translate(208.43,0) rotate(29.999999999999996,0,136.2)" style="font-family: 'Open Sans', verdana, arial, sans-serif; font-size: 11px; fill: rgb(0, 0, 0); fill-opacity: 1; white-space: pre; opacity: 1;">Oxoadipate</text></g><g class="xtick"><text text-anchor="start" x="0" y="141.7" transform="translate(245.86,0) rotate(29.999999999999996,0,136.2)" style="font-family: 'Open Sans', verdana, arial, sans-serif; font-size: 11px; fill: rgb(0, 0, 0); fill-opacity: 1; white-space: pre; opacity: 1;">Glyceraldehyde 3-phosphate</text></g><g class="xtick"><text text-anchor="start" x="0" y="141.7" transform="translate(283.28999999999996,0) rotate(29.999999999999996,0,136.2)" style="font-family: 'Open Sans', verdana, arial, sans-serif; font-size: 11px; fill: rgb(0, 0, 0); fill-opacity: 1; white-space: pre; opacity: 1;">Citrate</text></g></g><g class="yaxislayer-above"><g class="ytick"><text text-anchor="end" x="37.3" y="3.8499999999999996" transform="translate(0,123.09)" style="font-family: 'Open Sans', verdana, arial, sans-serif; font-size: 11px; fill: rgb(0, 0, 0); fill-opacity: 1; white-space: pre; opacity: 1;">10k</text></g><g class="ytick"><text text-anchor="end" x="37.3" y="3.8499999999999996" style="font-family: 'Open Sans', verdana, arial, sans-serif; font-size: 11px; fill: rgb(0, 0, 0); fill-opacity: 1; white-space: pre; opacity: 1;" transform="translate(0,91.26)">100k</text></g><g class="ytick"><text text-anchor="end" x="37.3" y="3.8499999999999996" style="font-family: 'Open Sans', verdana, arial, sans-serif; font-size: 11px; fill: rgb(0, 0, 0); fill-opacity: 1; white-space: pre; opacity: 1;" transform="translate(0,59.43)">1M</text></g><g class="ytick"><text text-anchor="end" x="37.3" y="3.8499999999999996" style="font-family: 'Open Sans', verdana, arial, sans-serif; font-size: 11px; fill: rgb(0, 0, 0); fill-opacity: 1; white-space: pre; opacity: 1;" transform="translate(0,27.6)">10M</text></g></g><g class="overaxes-above"/></g></g><g class="polarlayer"/><g class="smithlayer"/><g class="ternarylayer"/><g class="geolayer"/><g class="funnelarealayer"/><g class="pielayer"/><g class="iciclelayer"/><g class="treemaplayer"/><g class="sunburstlayer"/><g class="glimages"/><defs id="topdefs-dac277"><g class="clips"/></defs><g class="layer-above"><g class="imagelayer"/><g class="shapelayer"/></g><g class="infolayer"><g class="g-gtitle"/><g class="g-xtitle" transform="translate(0,-2.5134765624999886)"><text class="xtitle" x="171" y="224.5134765625" text-anchor="middle" style="opacity: 1; font-family: 'Open Sans', verdana, arial, sans-serif; font-size: 11px; fill: rgb(0, 0, 0); fill-opacity: 1; white-space: pre;">Metabolite</text></g><g class="g-ytitle" transform="translate(2.943359375,0)"><text class="ytitle" transform="rotate(-90,9.056249999999999,64.5)" x="9.056249999999999" y="64.5" text-anchor="middle" style="opacity: 1; font-family: 'Open Sans', verdana, arial, sans-serif; font-size: 11px; fill: rgb(0, 0, 0); fill-opacity: 1; white-space: pre;">Peak area</text></g></g></svg>