<svg class="main-svg" xmlns="http://www.w3.org/2000/svg" xmlns:xlink="http://www.w3.org/1999/xlink" width="150" height="150" style="" viewBox="0 0 150 150"><rect x="0" y="0" width="150" height="150" style="fill: rgb(255, 255, 255); fill-opacity: 1;"/><defs id="defs-a98181"><g class="clips"><clipPath id="clipa98181xyplot" class="plotclip"><rect width="116" height="64"/></clipPath><clipPath class="axesclip" id="clipa98181x"><rect x="24" y="0" width="116" height="150"/></clipPath><clipPath class="axesclip" id="clipa98181y"><rect x="0" y="12" width="150" height="64"/></clipPath><clipPath class="axesclip" id="clipa98181xy"><rect x="24" y="12" width="116" height="64"/></clipPath></g><g class="gradients"/><g class="patterns"/></defs><g class="bglayer"/><g class="layer-below"><g class="imagelayer"/><g class="shapelayer"/></g><g class="cartesianlayer"><g class="subplot xy"><g class="layer-subplot"><g class="shapelayer"/><g class="imagelayer"/></g><g class="minor-gridlayer"><g class="x"/><g class="y"/></g><g class="gridlayer"><g class="x"><path class="xgrid crisp" transform="translate(35.6,0)" d="M0,12v64" style="stroke: rgb(0, 0, 0); stroke-opacity: 1; stroke-width: 0.5px;"/><path class="xgrid crisp" transform="translate(58.8,0)" d="M0,12v64" style="stroke: rgb(0, 0, 0); stroke-opacity: 1; stroke-width: 0.5px;"/><path class="xgrid crisp" transform="translate(82,0)" d="M0,12v64" style="stroke: rgb(0, 0, 0); stroke-opacity: 1; stroke-width: 0.5px;"/><path class="xgrid crisp" transform="translate(105.2,0)" d="M0,12v64" style="stroke: rgb(0, 0, 0); stroke-opacity: 1; stroke-width: 0.5px;"/><path class="xgrid crisp" transform="translate(128.4,0)" d="M0,12v64" style="stroke: rgb(0, 0, 0); stroke-opacity: 1; stroke-width: 0.5px;"/></g><g class="y"><path class="ygrid crisp" transform="translate(0,70.44)" d="M24,0h116" style="stroke: rgb(0, 0, 0); stroke-opacity: 1; stroke-width: 0.5px;"/><path class="ygrid crisp" transform="translate(0,46)" d="M24,0h116" style="stroke: rgb(0, 0, 0); stroke-opacity: 1; stroke-width: 0.5px;"/><path class="ygrid crisp" transform="translate(0,28.65)" d="M24,0h116" style="stroke: rgb(0, 0, 0); stroke-opacity: 1; stroke-width: 0.5px;"/><path class="ygrid crisp" transform="translate(0,15.2)" d="M24,0h116" style="stroke: rgb(0, 0, 0); stroke-opacity: 1; stroke-width: 0.5px;"/></g></g><g class="zerolinelayer"/><g class="layer-between"><g class="shapelayer"/><g class="imagelayer"/></g><path class="xlines-below"/><path class="ylines-below"/><g class="overlines-below"/><g class="xaxislayer-below"/><g class="yaxislayer-below"/><g class="overaxes-below"/><g class="overplot"><g class="xy" transform="translate(24,12)" clip-path="url(#clipa98181xyplot)"><g class="boxlayer mlayer"><g class="trace boxes" style="opacity: 1;"><path class="box" d="M5.92,3.2H17.28M5.92,3.2H17.28V3.2H5.92ZM11.6,3.2V3.2M11.6,3.2V3.2M8.76,3.2H14.44M8.76,3.2H14.44" style="vector-effect: none; stroke-width: 1px; stroke: rgb(0, 0, 0); stroke-opacity: 1; fill: rgb(0, 0, 0); fill-opacity: 0.5;"/><g class="points"><path class="point" transform="translate(14.55,3.2)" d="M2.5,0A2.5,2.5 0 1,1 0,-2.5A2.5,2.5 0 0,1 2.5,0Z" style="opacity: 1; stroke-width: 0px; fill: rgb(0, 0, 0); fill-opacity: 1;"/><path class="point" transform="translate(7.98,3.2)" d="M2.5,0A2.5,2.5 0 1,1 0,-2.5A2.5,2.5 0 0,1 2.5,0Z" style="opacity: 1; stroke-width: 0px; fill: rgb(0, 0, 0); fill-opacity: 1;"/><path class="point" transform="translate(16.01,3.2)" d="M2.5,0A2.5,2.5 0 1,1 0,-2.5A2.5,2.5 0 0,1 2.5,0Z" style="opacity: 1; stroke-width: 0px; fill: rgb(0, 0, 0); fill-opacity: 1;"/></g><path class="mean" d="M5.92,3.2H17.28" style="fill: none; vector-effect: non-scaling-stroke; stroke-width: 1; stroke-dasharray: 2px, 1px; stroke: rgb(0, 0, 0); stroke-opacity: 1;"/></g><g class="trace boxes" style="opacity: 1;"><path class="box" d="M29.12,24.68H40.48M29.12,29.2H40.48V20.55H29.12ZM34.8,29.2V30.79M34.8,20.55V19.24M31.96,30.79H37.64M31.96,19.24H37.64" style="vector-effect: none; stroke-width: 1px; stroke: rgb(117, 112, 179); stroke-opacity: 1; fill: rgb(117, 112, 179); fill-opacity: 0.5;"/><g class="points"><path class="point" transform="translate(37.75,30.79)" d="M2.5,0A2.5,2.5 0 1,1 0,-2.5A2.5,2.5 0 0,1 2.5,0Z" style="opacity: 1; stroke-width: 0px; fill: rgb(117, 112, 179); fill-opacity: 1;"/><path class="point" transform="translate(31.18,24.68)" d="M2.5,0A2.5,2.5 0 1,1 0,-2.5A2.5,2.5 0 0,1 2.5,0Z" style="opacity: 1; stroke-width: 0px; fill: rgb(117, 112, 179); fill-opacity: 1;"/><path class="point" transform="translate(39.21,19.24)" d="M2.5,0A2.5,2.5 0 1,1 0,-2.5A2.5,2.5 0 0,1 2.5,0Z" style="opacity: 1; stroke-width: 0px; fill: rgb(117, 112, 179); fill-opacity: 1;"/></g><path class="mean" d="M29.12,24.72H40.48" style="fill: none; vector-effect: non-scaling-stroke; stroke-width: 1; stroke-dasharray: 2px, 1px; stroke: rgb(117, 112, 179); stroke-opacity: 1;"/></g><g class="trace boxes" style="opacity: 1;"><path class="box" d="M52.32,14.44H63.68M52.32,16.67H63.68V10.42H52.32ZM58,16.67V17.44M58,10.42V9.14M55.16,17.44H60.84M55.16,9.14H60.84" style="vector-effect: none; stroke-width: 1px; stroke: rgb(217, 95, 2); stroke-opacity: 1; fill: rgb(217, 95, 2); fill-opacity: 0.5;"/><g class="points"><path class="point" transform="translate(60.95,17.44)" d="M2.5,0A2.5,2.5 0 1,1 0,-2.5A2.5,2.5 0 0,1 2.5,0Z" style="opacity: 1; stroke-width: 0px; fill: rgb(217, 95, 2); fill-opacity: 1;"/><path class="point" transform="translate(54.38,14.44)" d="M2.5,0A2.5,2.5 0 1,1 0,-2.5A2.5,2.5 0 0,1 2.5,0Z" style="opacity: 1; stroke-width: 0px; fill: rgb(217, 95, 2); fill-opacity: 1;"/><path class="point" transform="translate(62.41,9.14)" d="M2.5,0A2.5,2.5 0 1,1 0,-2.5A2.5,2.5 0 0,1 2.5,0Z" style="opacity: 1; stroke-width: 0px; fill: rgb(217, 95, 2); fill-opacity: 1;"/></g><path class="mean" d="M52.32,13.57H63.68" style="fill: none; vector-effect: non-scaling-stroke; stroke-width: 1; stroke-dasharray: 2px, 1px; stroke: rgb(217, 95, 2); stroke-opacity: 1;"/></g><g class="trace boxes" style="opacity: 1;"><path class="box" d="M75.52,49.75H86.88M75.52,57.84H86.88V48.29H75.52ZM81.2,57.84V60.8M81.2,48.29V47.81M78.36,60.8H84.04M78.36,47.81H84.04" style="vector-effect: none; stroke-width: 1px; stroke: rgb(117, 112, 179); stroke-opacity: 1; fill: rgb(117, 112, 179); fill-opacity: 0.5;"/><g class="points"><path class="point" transform="translate(84.15,60.8)" d="M2.5,0A2.5,2.5 0 1,1 0,-2.5A2.5,2.5 0 0,1 2.5,0Z" style="opacity: 1; stroke-width: 0px; fill: rgb(117, 112, 179); fill-opacity: 1;"/><path class="point" transform="translate(77.58,49.75)" d="M2.5,0A2.5,2.5 0 1,1 0,-2.5A2.5,2.5 0 0,1 2.5,0Z" style="opacity: 1; stroke-width: 0px; fill: rgb(117, 112, 179); fill-opacity: 1;"/><path class="point" transform="translate(85.61,47.81)" d="M2.5,0A2.5,2.5 0 1,1 0,-2.5A2.5,2.5 0 0,1 2.5,0Z" style="opacity: 1; stroke-width: 0px; fill: rgb(117, 112, 179); fill-opacity: 1;"/></g><path class="mean" d="M75.52,52.52H86.88" style="fill: none; vector-effect: non-scaling-stroke; stroke-width: 1; stroke-dasharray: 2px, 1px; stroke: rgb(117, 112, 179); stroke-opacity: 1;"/></g><g class="trace boxes" style="opacity: 1;"><path class="box" d="M98.72,35.76H110.08M98.72,42.19H110.08V26.11H98.72ZM104.4,42.19V44.5M104.4,26.11V23.21M101.56,44.5H107.24M101.56,23.21H107.24" style="vector-effect: none; stroke-width: 1px; stroke: rgb(217, 95, 2); stroke-opacity: 1; fill: rgb(217, 95, 2); fill-opacity: 0.5;"/><g class="points"><path class="point" transform="translate(107.35,44.5)" d="M2.5,0A2.5,2.5 0 1,1 0,-2.5A2.5,2.5 0 0,1 2.5,0Z" style="opacity: 1; stroke-width: 0px; fill: rgb(217, 95, 2); fill-opacity: 1;"/><path class="point" transform="translate(100.78,35.76)" d="M2.5,0A2.5,2.5 0 1,1 0,-2.5A2.5,2.5 0 0,1 2.5,0Z" style="opacity: 1; stroke-width: 0px; fill: rgb(217, 95, 2); fill-opacity: 1;"/><path class="point" transform="translate(108.81,23.21)" d="M2.5,0A2.5,2.5 0 1,1 0,-2.5A2.5,2.5 0 0,1 2.5,0Z" style="opacity: 1; stroke-width: 0px; fill: rgb(217, 95, 2); fill-opacity: 1;"/></g><path class="mean" d="M98.72,33.85H110.08" style="fill: none; vector-effect: non-scaling-stroke; stroke-width: 1; stroke-dasharray: 2px, 1px; stroke: rgb(217, 95, 2); stroke-opacity: 1;"/></g></g></g></g><path class="xlines-above crisp" d="M0,0" style="fill: none;"/><path class="ylines-above crisp" d="M0,0" style="fill: none;"/><g class="overlines-above"/><g class="xaxislayer-above"><g class="xtick"><text text-anchor="start" x="0" y="88" transform="translate(35.6,0) rotate(90,0,82.5)" style="font-family: 'Open Sans', verdana, arial, sans-serif; font-size: 11px; fill: rgb(0, 0, 0); fill-opacity: 1; white-space: pre; opacity: 1;">Media</text></g><g class="xtick"><text text-anchor="start" x="0" y="88" transform="translate(58.8,0) rotate(90,0,82.5)" style="font-family: 'Open Sans', verdana, arial, sans-serif; font-size: 11px; fill: rgb(0, 0, 0); fill-opacity: 1; white-space: pre; opacity: 1;">Ct Chemostat</text></g><g class="xtick"><text text-anchor="start" x="0" y="88" transform="translate(82,0) rotate(90,0,82.5)" style="font-family: 'Open Sans', verdana, arial, sans-serif; font-size: 11px; fill: rgb(0, 0, 0); fill-opacity: 1; white-space: pre; opacity: 1;">Oa Chemostat</text></g><g class="xtick"><text text-anchor="start" x="0" y="88" transform="translate(105.2,0) rotate(90,0,82.5)" style="font-family: 'Open Sans', verdana, arial, sans-serif; font-size: 11px; fill: rgb(0, 0, 0); fill-opacity: 1; white-space: pre; opacity: 1;">Ct in Oa</text></g><g class="xtick"><text text-anchor="start" x="0" y="88" transform="translate(128.4,0) rotate(90,0,82.5)" style="font-family: 'Open Sans', verdana, arial, sans-serif; font-size: 11px; fill: rgb(0, 0, 0); fill-opacity: 1; white-space: pre; opacity: 1;">Oa in Ct</text></g></g><g class="yaxislayer-above"><g class="ytick"><text text-anchor="end" x="23" y="3.8499999999999996" transform="translate(0,70.44)" style="font-family: 'Open Sans', verdana, arial, sans-serif; font-size: 11px; fill: rgb(0, 0, 0); fill-opacity: 1; white-space: pre; opacity: 1;">4</text></g><g class="ytick"><text text-anchor="end" x="23" y="3.8499999999999996" style="font-family: 'Open Sans', verdana, arial, sans-serif; font-size: 11px; fill: rgb(0, 0, 0); fill-opacity: 1; white-space: pre; opacity: 1;" transform="translate(0,46)">6</text></g><g class="ytick"><text text-anchor="end" x="23" y="3.8499999999999996" style="font-family: 'Open Sans', verdana, arial, sans-serif; font-size: 11px; fill: rgb(0, 0, 0); fill-opacity: 1; white-space: pre; opacity: 1;" transform="translate(0,28.65)">8</text></g><g class="ytick"><text text-anchor="end" x="23" y="3.8499999999999996" style="font-family: 'Open Sans', verdana, arial, sans-serif; font-size: 11px; fill: rgb(0, 0, 0); fill-opacity: 1; white-space: pre; opacity: 1;" transform="translate(0,15.2)">10</text></g></g><g class="overaxes-above"/></g></g><g class="polarlayer"/><g class="smithlayer"/><g class="ternarylayer"/><g class="geolayer"/><g class="funnelarealayer"/><g class="pielayer"/><g class="iciclelayer"/><g class="treemaplayer"/><g class="sunburstlayer"/><g class="glimages"/><defs id="topdefs-a98181"><g class="clips"/></defs><g class="layer-above"><g class="imagelayer"/><g class="shapelayer"/></g><g class="infolayer"><g class="g-gtitle"/><g class="g-xtitle"/><g class="g-ytitle"/></g></svg>