<svg class="main-svg" xmlns="http://www.w3.org/2000/svg" xmlns:xlink="http://www.w3.org/1999/xlink" width="266.6666666666667" height="250" style="" viewBox="0 0 266.6666666666667 250"><rect x="0" y="0" width="266.6666666666667" height="250" style="fill: rgb(255, 255, 255); fill-opacity: 1;"/><defs id="defs-13f065"><g class="clips"><clipPath id="clip13f065xyplot" class="plotclip"><rect width="121" height="187"/></clipPath><clipPath class="axesclip" id="clip13f065x"><rect x="61" y="0" width="121" height="250"/></clipPath><clipPath class="axesclip" id="clip13f065y"><rect x="0" y="20" width="266.6666666666667" height="187"/></clipPath><clipPath class="axesclip" id="clip13f065xy"><rect x="61" y="20" width="121" height="187"/></clipPath></g><g class="gradients"/><g class="patterns"/></defs><g class="bglayer"><rect class="bg" x="61" y="20" width="121" height="187" style="fill: rgb(229, 236, 246); fill-opacity: 1; stroke-width: 0;"/></g><g class="layer-below"><g class="imagelayer"/><g class="shapelayer"/></g><g class="cartesianlayer"><g class="subplot xy"><g class="layer-subplot"><g class="shapelayer"/><g class="imagelayer"/></g><g class="minor-gridlayer"><g class="x"/><g class="y"/></g><g class="gridlayer"><g class="x"><path class="xgrid crisp" transform="translate(91.25,0)" d="M0,20v187" style="stroke: rgb(255, 255, 255); stroke-opacity: 1; stroke-width: 1px;"/><path class="xgrid crisp" transform="translate(121.5,0)" d="M0,20v187" style="stroke: rgb(255, 255, 255); stroke-opacity: 1; stroke-width: 1px;"/><path class="xgrid crisp" transform="translate(151.75,0)" d="M0,20v187" style="stroke: rgb(255, 255, 255); stroke-opacity: 1; stroke-width: 1px;"/></g><g class="y"><path class="ygrid crisp" transform="translate(0,129.57999999999998)" d="M61,0h121" style="stroke: rgb(255, 255, 255); stroke-opacity: 1; stroke-width: 1px;"/><path class="ygrid crisp" transform="translate(0,61.5)" d="M61,0h121" style="stroke: rgb(255, 255, 255); stroke-opacity: 1; stroke-width: 1px;"/></g></g><g class="zerolinelayer"><path class="xzl zl crisp" transform="translate(61,0)" d="M0,20v187" style="stroke: rgb(255, 255, 255); stroke-opacity: 1; stroke-width: 2px;"/><path class="yzl zl crisp" transform="translate(0,197.65)" d="M61,0h121" style="stroke: rgb(255, 255, 255); stroke-opacity: 1; stroke-width: 2px;"/></g><path class="xlines-below"/><path class="ylines-below"/><g class="overlines-below"/><g class="xaxislayer-below"/><g class="yaxislayer-below"/><g class="overaxes-below"/><g class="plot" transform="translate(61,20)" clip-path="url(#clip13f065xyplot)"><g class="scatterlayer mlayer"><g class="trace scatter tracea33718" style="stroke-miterlimit: 2; opacity: 1;"><g class="fills"/><g class="errorbars"/><g class="lines"><path class="js-line" d="M0,177.65L3.67,113.35L4.89,84.87L8.56,12.94L9.78,9.35L11,15.4L12.22,26.19L18.33,80.96L19.56,88.71L23.22,105.03L24.44,108.5L28.11,114.81L29.33,115.96L33,117.83L34.22,118.13L41.56,118.73L42.78,118.75L121,118.79" style="vector-effect: none; fill: none; stroke: rgb(99, 110, 250); stroke-opacity: 1; stroke-width: 3px; opacity: 1;"/></g><g class="points"/><g class="text"/></g><g class="trace scatter trace2c906e" style="stroke-miterlimit: 2; opacity: 1;"><g class="fills"/><g class="errorbars"/><g class="lines"><path class="js-line" d="M0,177.65L6.11,105.74L7.33,91.53L11,53.66L12.22,45.42L13.44,40.69L14.67,39.77L15.89,42.44L17.11,48L24.44,93.42L25.67,98.19L28.11,104.66L29.33,106.66L31.78,108.98L33,109.56L36.67,110.1L37.89,110.08L61.11,109.45L62.33,109.45L121,109.45" style="vector-effect: none; fill: none; stroke: rgb(99, 110, 250); stroke-opacity: 1; stroke-dasharray: 3px, 3px; stroke-width: 3px; opacity: 1;"/></g><g class="points"/><g class="text"/></g><g class="trace scatter trace79b0fc" style="stroke-miterlimit: 2; opacity: 1;"><g class="fills"/><g class="errorbars"/><g class="lines"><path class="js-line" d="M0,177.65L2.44,152.63L3.67,144.34L8.56,119.29L9.78,113.68L18.33,78.08L19.56,74.14L23.22,65.46L24.44,63.78L26.89,62.42L28.11,62.74L30.56,65.22L31.78,67.27L36.67,78.72L37.89,81.86L42.78,92.84L44,94.95L47.67,99.6L48.89,100.64L52.56,102.6L53.78,102.96L59.89,103.42L61.11,103.37L89.22,102.03L90.44,102.03L121,102.09" style="vector-effect: none; fill: none; stroke: rgb(99, 110, 250); stroke-opacity: 1; stroke-dasharray: 9px, 9px; stroke-width: 3px; opacity: 1;"/></g><g class="points"/><g class="text"/></g></g></g><g class="overplot"/><path class="xlines-above crisp" d="M0,0" style="fill: none;"/><path class="ylines-above crisp" d="M0,0" style="fill: none;"/><g class="overlines-above"/><g class="xaxislayer-above"><g class="xtick"><text text-anchor="middle" x="0" y="218" transform="translate(61,0)" style="font-family: 'Open Sans', verdana, arial, sans-serif; font-size: 10px; fill: rgb(0, 0, 0); fill-opacity: 1; white-space: pre; opacity: 1;">0</text></g><g class="xtick"><text text-anchor="middle" x="0" y="218" style="font-family: 'Open Sans', verdana, arial, sans-serif; font-size: 10px; fill: rgb(0, 0, 0); fill-opacity: 1; white-space: pre; opacity: 1;" transform="translate(91.25,0)">100</text></g><g class="xtick"><text text-anchor="middle" x="0" y="218" style="font-family: 'Open Sans', verdana, arial, sans-serif; font-size: 10px; fill: rgb(0, 0, 0); fill-opacity: 1; white-space: pre; opacity: 1;" transform="translate(121.5,0)">200</text></g><g class="xtick"><text text-anchor="middle" x="0" y="218" style="font-family: 'Open Sans', verdana, arial, sans-serif; font-size: 10px; fill: rgb(0, 0, 0); fill-opacity: 1; white-space: pre; opacity: 1;" transform="translate(151.75,0)">300</text></g><g class="xtick"><text text-anchor="middle" x="0" y="218" style="font-family: 'Open Sans', verdana, arial, sans-serif; font-size: 10px; fill: rgb(0, 0, 0); fill-opacity: 1; white-space: pre; opacity: 1;" transform="translate(182,0)">400</text></g></g><g class="yaxislayer-above"><g class="ytick"><text text-anchor="end" x="60" y="3.5" transform="translate(0,197.65)" style="font-family: 'Open Sans', verdana, arial, sans-serif; font-size: 10px; fill: rgb(0, 0, 0); fill-opacity: 1; white-space: pre; opacity: 1;">0</text></g><g class="ytick"><text text-anchor="end" x="60" y="3.5" style="font-family: 'Open Sans', verdana, arial, sans-serif; font-size: 10px; fill: rgb(0, 0, 0); fill-opacity: 1; white-space: pre; opacity: 1;" transform="translate(0,129.57999999999998)">0.0005</text></g><g class="ytick"><text text-anchor="end" x="60" y="3.5" style="font-family: 'Open Sans', verdana, arial, sans-serif; font-size: 10px; fill: rgb(0, 0, 0); fill-opacity: 1; white-space: pre; opacity: 1;" transform="translate(0,61.5)">0.001</text></g></g><g class="overaxes-above"/></g></g><g class="polarlayer"/><g class="smithlayer"/><g class="ternarylayer"/><g class="geolayer"/><g class="funnelarealayer"/><g class="pielayer"/><g class="iciclelayer"/><g class="treemaplayer"/><g class="sunburstlayer"/><g class="glimages"/><defs id="topdefs-13f065"><g class="clips"/><clipPath id="legend13f065"><rect width="71" height="80" x="0" y="0"/></clipPath></defs><g class="layer-above"><g class="imagelayer"/><g class="shapelayer"/></g><g class="infolayer"><g class="legend" pointer-events="all" transform="translate(184.42000000000002,20)"><rect class="bg" shape-rendering="crispEdges" style="stroke: rgb(68, 68, 68); stroke-opacity: 1; fill: rgb(255, 255, 255); fill-opacity: 1; stroke-width: 0px;" width="71" height="80" x="0" y="0"/><g class="scrollbox" transform="" clip-path="url(#legend13f065)"><text class="legendtitletext" text-anchor="start" x="2" y="13" style="font-family: 'Open Sans', verdana, arial, sans-serif; font-size: 10px; fill: rgb(0, 0, 0); fill-opacity: 1; white-space: pre;">D [1/h]</text><g class="groups" transform=""><g class="traces" transform="translate(0,27.5)" style="opacity: 1;"><text class="legendtext" text-anchor="start" x="40" y="3.9" style="font-family: 'Open Sans', verdana, arial, sans-serif; font-size: 10px; fill: rgb(0, 0, 0); fill-opacity: 1; white-space: pre;">0.05</text><g class="layers" style="opacity: 1;"><g class="legendfill"/><g class="legendlines"><path class="js-line" d="M5,0h30" style="fill: none; stroke: rgb(99, 110, 250); stroke-opacity: 1; stroke-width: 3px;"/></g><g class="legendsymbols"><g class="legendpoints"/></g></g><rect class="legendtoggle" x="0" y="-9.5" width="65.828125" height="19" style="fill: rgb(0, 0, 0); fill-opacity: 0;"/></g></g><g class="groups" transform=""><g class="traces" transform="translate(0,46.5)" style="opacity: 1;"><text class="legendtext" text-anchor="start" x="40" y="3.9" style="font-family: 'Open Sans', verdana, arial, sans-serif; font-size: 10px; fill: rgb(0, 0, 0); fill-opacity: 1; white-space: pre;">0.085</text><g class="layers" style="opacity: 1;"><g class="legendfill"/><g class="legendlines"><path class="js-line" d="M5,0h30" style="fill: none; stroke: rgb(99, 110, 250); stroke-opacity: 1; stroke-dasharray: 3px, 3px; stroke-width: 3px;"/></g><g class="legendsymbols"><g class="legendpoints"/></g></g><rect class="legendtoggle" x="0" y="-9.5" width="65.828125" height="19" style="fill: rgb(0, 0, 0); fill-opacity: 0;"/></g></g><g class="groups" transform=""><g class="traces" transform="translate(0,65.5)" style="opacity: 1;"><text class="legendtext" text-anchor="start" x="40" y="3.9" style="font-family: 'Open Sans', verdana, arial, sans-serif; font-size: 10px; fill: rgb(0, 0, 0); fill-opacity: 1; white-space: pre;">0.11</text><g class="layers" style="opacity: 1;"><g class="legendfill"/><g class="legendlines"><path class="js-line" d="M5,0h30" style="fill: none; stroke: rgb(99, 110, 250); stroke-opacity: 1; stroke-dasharray: 9px, 9px; stroke-width: 3px;"/></g><g class="legendsymbols"><g class="legendpoints"/></g></g><rect class="legendtoggle" x="0" y="-9.5" width="65.828125" height="19" style="fill: rgb(0, 0, 0); fill-opacity: 0;"/></g></g></g><rect class="scrollbar" rx="20" ry="3" width="0" height="0" style="fill: rgb(128, 139, 164); fill-opacity: 1;" x="0" y="0"/></g><g class="g-gtitle"/><g class="g-xtitle"><text class="xtitle" x="121.5" y="237.5" text-anchor="middle" style="font-family: 'Open Sans', verdana, arial, sans-serif; font-size: 10px; fill: rgb(0, 0, 0); opacity: 1; font-weight: normal; white-space: pre;">Time [h]</text></g><g class="g-ytitle"><text class="ytitle" transform="rotate(-90,12.25,113.5)" x="12.25" y="113.5" text-anchor="middle" style="font-family: 'Open Sans', verdana, arial, sans-serif; font-size: 10px; fill: rgb(0, 0, 0); opacity: 1; font-weight: normal; white-space: pre;">Thiamine [mM]</text></g></g></svg>