<svg class="main-svg" xmlns="http://www.w3.org/2000/svg" xmlns:xlink="http://www.w3.org/1999/xlink" width="266.6666666666667" height="250" style="" viewBox="0 0 266.6666666666667 250"><rect x="0" y="0" width="266.6666666666667" height="250" style="fill: rgb(255, 255, 255); fill-opacity: 1;"/><defs id="defs-12aa02"><g class="clips"><clipPath id="clip12aa02xyplot" class="plotclip"><rect width="186" height="79.47500000000001"/></clipPath><clipPath id="clip12aa02x2y2plot" class="plotclip"><rect width="186" height="79.475"/></clipPath><clipPath class="axesclip" id="clip12aa02x"><rect x="60" y="0" width="186" height="250"/></clipPath><clipPath class="axesclip" id="clip12aa02y"><rect x="0" y="20" width="266.6666666666667" height="79.47500000000001"/></clipPath><clipPath class="axesclip" id="clip12aa02xy"><rect x="60" y="20" width="186" height="79.47500000000001"/></clipPath><clipPath class="axesclip" id="clip12aa02y2"><rect x="0" y="127.52499999999999" width="266.6666666666667" height="79.475"/></clipPath><clipPath class="axesclip" id="clip12aa02xy2"><rect x="60" y="127.52499999999999" width="186" height="79.475"/></clipPath><clipPath class="axesclip" id="clip12aa02x2"><rect x="60" y="0" width="186" height="250"/></clipPath><clipPath class="axesclip" id="clip12aa02x2y"><rect x="60" y="20" width="186" height="79.47500000000001"/></clipPath><clipPath class="axesclip" id="clip12aa02x2y2"><rect x="60" y="127.52499999999999" width="186" height="79.475"/></clipPath></g><g class="gradients"/><g class="patterns"/></defs><g class="bglayer"><rect class="bg" x="60" y="20" width="186" height="79.47500000000001" style="fill: rgb(229, 236, 246); fill-opacity: 1; stroke-width: 0;"/><rect class="bg" x="60" y="127.52499999999999" width="186" height="79.475" style="fill: rgb(229, 236, 246); fill-opacity: 1; stroke-width: 0;"/></g><g class="layer-below"><g class="imagelayer"/><g class="shapelayer"/></g><g class="cartesianlayer"><g class="subplot xy"><g class="layer-subplot"><g class="shapelayer"/><g class="imagelayer"/></g><g class="minor-gridlayer"><g class="x"/><g class="y"/></g><g class="gridlayer"><g class="x"><path class="xgrid crisp" transform="translate(70.94,0)" d="M0,20v79.47500000000001" style="stroke: rgb(255, 255, 255); stroke-opacity: 1; stroke-width: 1px;"/><path class="xgrid crisp" transform="translate(114.71000000000001,0)" d="M0,20v79.47500000000001" style="stroke: rgb(255, 255, 255); stroke-opacity: 1; stroke-width: 1px;"/><path class="xgrid crisp" transform="translate(158.47,0)" d="M0,20v79.47500000000001" style="stroke: rgb(255, 255, 255); stroke-opacity: 1; stroke-width: 1px;"/><path class="xgrid crisp" transform="translate(202.24,0)" d="M0,20v79.47500000000001" style="stroke: rgb(255, 255, 255); stroke-opacity: 1; stroke-width: 1px;"/></g><g class="y"><path class="ygrid crisp" transform="translate(0,72.97999999999999)" d="M60,0h186" style="stroke: rgb(255, 255, 255); stroke-opacity: 1; stroke-width: 1px;"/><path class="ygrid crisp" transform="translate(0,46.489999999999995)" d="M60,0h186" style="stroke: rgb(255, 255, 255); stroke-opacity: 1; stroke-width: 1px;"/></g></g><g class="zerolinelayer"><path class="yzl zl crisp" transform="translate(0,99.48)" d="M60,0h186" style="stroke: rgb(255, 255, 255); stroke-opacity: 1; stroke-width: 2px;"/></g><path class="xlines-below"/><path class="ylines-below"/><g class="overlines-below"/><g class="xaxislayer-below"/><g class="yaxislayer-below"/><g class="overaxes-below"/><g class="plot" transform="translate(60,20)" clip-path="url(#clip12aa02xyplot)"><g class="scatterlayer mlayer"><g class="trace scatter trace308f4f" style="stroke-miterlimit: 2; opacity: 1;"><g class="fills"/><g class="errorbars"/><g class="lines"><path class="js-line" d="M-152.03,42.48L-140.71,37.37L-140.34,36.16L-139.61,37.79L-137.42,34.12L-134.87,33.45L-134.5,33.43L-125.01,27.78L-124.64,28.07L-124.28,28.37L-109.67,24.6L-109.31,24.7L-101.64,23.28L-101.28,22.85L-95.8,23.3L-95.44,22.94L-91.42,23.3L-91.06,22.79L-90.69,22.74L-85.58,24.01L-85.21,23.32L-84.85,23.76L-84.12,22.69L-81.2,24.19L-80.83,23.22L-80.47,22.71L-76.82,24.15L-76.45,24.58L-73.9,23.95L-73.17,26.12L-72.8,26.78L-65.86,26.57L-65.5,27.06L-64.77,24.37L-62.94,27.3L-62.58,29.58L-62.21,23.1L-61.48,30.59L-59.66,27.07L-59.29,29.53L-57.47,24.04L-56.74,28.84L-56.37,28.94L-56.01,27.73L-54.18,29.47L-53.82,30.7L-51.99,31.43L-50.53,27.54L-50.17,28.1L-48.71,31.25L-47.97,26.72L-47.61,24.33L-45.42,29.4L-44.32,28.89L-43.96,29.23L-43.23,28.83L-41.4,30.9L-41.04,28.24L-39.58,31.1L-38.48,30.07L-38.12,30.37L-37.02,29.48L-36.66,31.63L-36.29,27.06L-35.93,31.26L-34.1,29.43L-33.74,29.73L-33.01,33.33L-31.91,30.33L-31.55,31.17L-28.99,30.03L-28.63,32.29L-27.9,33.27L-27.53,31.5L-26.8,32.36L-26.44,31.95L-24.97,31.79L-24.61,32.61L-23.51,34.85L-23.15,32.57L-22.78,30.51L-21.69,31.01L-21.32,29.99L-20.96,31.27L-20.59,33.37L-20.23,30.65L-19.86,32.1L-19.5,30.23L-18.77,34.45L-17.67,32.76L-17.31,33.67L-16.58,33.89L-16.21,33.03L-15.48,31.53L-15.12,32.27L-14.75,33.66L-14.39,34.84L-14.02,32.04L-13.66,30.38L-13.29,27.82L-12.93,33.19L-12.56,35.02L-12.2,34.83L-11.83,32.81L-11.1,32.13L-10.74,33.63L-9.64,34.86L-9.28,33.92L-8.91,33.61L-7.09,35.61L-6.72,34.66L-5.99,32.33L-5.63,32.6L-5.26,33.82L-4.53,30.55L-4.17,29.09L-3.8,27.58L-3.44,29.18L-3.07,29.83L-1.61,37.63L-1.25,36.99L-0.88,34.02L-0.15,34.41L0.22,34.99L1.68,37.57L2.04,37.67L3.5,31.85L3.87,35.95L4.23,32.56L4.6,33.09L4.96,33.93L5.33,33.99L5.69,32.66L6.42,32.94L6.79,27.12L7.52,35.01L7.88,33.02L8.25,33.08L8.61,31.24L9.71,33.18L10.07,32.52L10.44,30.48L10.8,31.89L11.17,31.46L12.26,29.64L12.63,32.8L13.36,28.58L13.73,32.14L14.09,34.76L14.46,29.87L15.19,31.7L15.55,31.1L15.92,28.67L16.28,28.9L16.65,27.76L17.38,30.75L17.74,28.49L18.11,28.22L18.47,28.86L18.84,26.97L19.57,27.89L19.93,29.19L20.3,28.69L20.66,26.63L21.39,29.35L21.76,28.56L22.12,27.7L22.49,27.9L22.86,27.03L23.95,25.93L24.32,26.27L24.68,24.95L25.05,25.26L25.41,25.67L26.87,27.37L27.24,27.01L29.06,25.93L29.43,26.58L30.16,25.67L30.52,26.04L30.89,26.51L31.25,27.48L31.62,27.27L31.98,27.14L32.35,27.06L32.71,26.1L34.54,25.79L34.9,26.38L36,26.25L36.36,26.55L38.19,27.66L38.55,26.97L39.65,28.07L40.01,28.05L41.11,28.29L41.47,28.45L42.57,29.09L42.94,28.85L43.67,28.82L44.03,27.72L45.13,27.74L45.49,28.97L46.59,27.11L46.95,27.42L48.05,27.44L48.41,26.62L48.78,27.57L49.14,26.47L49.51,26.23L49.87,26.97L50.24,26.4L50.6,26.61L51.7,26.85L52.06,26.31L54.62,24.36L54.98,25.2L56.08,25.27L56.45,25.8L56.81,26.17L57.18,25.52L57.54,24.68L57.91,25.92L58.24,24.8L58.61,25.19L59.71,19.8L60.07,20.03L60.44,21.29L61.53,24.66L61.9,24.28L62.26,24.47L62.63,23.6L63.36,24.72L63.72,23.09L64.09,24.5L64.45,23.81L64.82,22.28L65.18,18.67L65.55,21.76L65.91,23.08L66.28,21.4L66.64,22.08L67.01,22.09L67.74,20.28L68.1,23.18L69.2,24.09L69.56,23.21L71.02,22.16L71.39,22.11L73.22,21.18L73.58,20.04L75.04,17.63L75.41,17.85L75.77,17.99L77.23,17.6L77.6,17.64L80.15,18.35L80.52,18.31L82.34,18.77L82.71,19.25L83.8,18.8L84.17,19.19L84.9,18.98L85.26,18.65L85.63,19.94L85.99,19.01L86.36,18.87L88.92,20.64L89.28,20.21L91.11,21.47L91.47,21.24L94.03,23.19L94.39,22.98L95.85,22.8L96.22,22.98L101.33,23.73L101.69,23.26L103.88,24.27L104.25,23.97L105.34,23.5L105.71,24.24L106.08,24.33L106.44,23.49L107.54,22.87L107.9,23.16L109,22.17L109.36,21.88L110.46,22.07L110.82,21.17L111.92,20.74L112.28,20.69L117.03,20.32L117.39,19.78L118.85,19.91L119.22,19.45L120.68,20L121.05,22.39L122.14,22.3L122.51,22.41L123.97,21.34L124.33,21.94L124.7,22.31L125.06,21.62L125.43,21.94L126.52,21.5L126.89,21.9L128.35,20.32L128.71,21.16L130.17,21.97L130.54,21.54L131.27,21.37L131.63,20.98L132,21L132.36,22.11L133.46,22.36L133.82,21.34L134.92,21.59L135.28,21.72L136.38,22.52L136.74,22.41L137.11,21.83L137.47,22.45L137.84,23.33L139.67,22.19L140.03,22.87L141.49,23.43L141.86,23.89L143.32,23.48L143.68,23.14L144.05,24.01L144.41,23.23L144.78,22.7L145.51,23.51L145.87,23.09L146.6,23.42L146.97,23.32L149.16,23.72L149.52,23.53L150.62,23.06L150.98,23.33L152.08,22.76L152.44,23.54L153.9,24.17L154.27,24.01L158.65,21.41L159.02,20.36L160.48,20.67L160.84,17.91L161.21,18.06L161.57,16.45L163.03,17.37L163.4,17.13L164.13,16.22L164.49,17.07L165.95,17.57L166.32,20.4L167.05,12.05L167.41,13.27L167.78,16.52L168.14,16.6L168.51,15.9L168.87,16.45L169.24,15.54L169.6,14.68L169.97,16.27L170.33,18.82L170.7,13.24L171.06,17.23L171.43,16.3L171.8,12.24L172.53,15.83L172.89,15.78L173.26,16.14L173.62,16.9L173.99,15.18L174.72,14.96L175.08,15.12L176.18,16.25L176.54,15.56L177.27,14.93L177.64,15.16L179.83,15.5L180.19,15.28L182.38,16.38L182.75,16.05L184.57,16.21L184.94,15.31L185.67,15.36L186.03,15.59L186.4,16.16L186.77,15.57L187.13,15.71L188.23,16.02L188.59,15.78L189.69,16.43L190.05,15.85L191.88,14.15L192.24,15.37L194.07,15.58L194.43,15.37L196.62,15.33L196.99,14.6L201.73,15.91L202.1,14.94L203.92,14.97L204.29,15.18L206.48,13.86L206.85,14.51L207.21,15L209.77,16.93L210.13,17.41L213.05,14.93L213.42,18.07L213.78,17.37L214.15,18.13" style="vector-effect: non-scaling-stroke; fill: none; stroke: rgb(131, 130, 133); stroke-opacity: 1; stroke-width: 3px; opacity: 1;"/></g><g class="points"/><g class="text"/></g></g></g><g class="overplot"/><path class="xlines-above crisp" d="M0,0" style="fill: none;"/><path class="ylines-above crisp" d="M0,0" style="fill: none;"/><g class="overlines-above"/><g class="xaxislayer-above"><g class="xtick"><text text-anchor="middle" x="0" y="110.47500000000001" transform="translate(70.94,0)" style="font-family: 'Open Sans', verdana, arial, sans-serif; font-size: 10px; fill: rgb(0, 0, 0); fill-opacity: 1; white-space: pre; opacity: 1;">120</text></g><g class="xtick"><text text-anchor="middle" x="0" y="110.47500000000001" style="font-family: 'Open Sans', verdana, arial, sans-serif; font-size: 10px; fill: rgb(0, 0, 0); fill-opacity: 1; white-space: pre; opacity: 1;" transform="translate(114.71000000000001,0)">140</text></g><g class="xtick"><text text-anchor="middle" x="0" y="110.47500000000001" style="font-family: 'Open Sans', verdana, arial, sans-serif; font-size: 10px; fill: rgb(0, 0, 0); fill-opacity: 1; white-space: pre; opacity: 1;" transform="translate(158.47,0)">160</text></g><g class="xtick"><text text-anchor="middle" x="0" y="110.47500000000001" style="font-family: 'Open Sans', verdana, arial, sans-serif; font-size: 10px; fill: rgb(0, 0, 0); fill-opacity: 1; white-space: pre; opacity: 1;" transform="translate(202.24,0)">180</text></g><g class="xtick"><text text-anchor="middle" x="0" y="110.47500000000001" style="font-family: 'Open Sans', verdana, arial, sans-serif; font-size: 10px; fill: rgb(0, 0, 0); fill-opacity: 1; white-space: pre; opacity: 1;" transform="translate(246,0)">200</text></g></g><g class="yaxislayer-above"><g class="ytick"><text text-anchor="end" x="59" y="3.5" transform="translate(0,99.48)" style="font-family: 'Open Sans', verdana, arial, sans-serif; font-size: 10px; fill: rgb(0, 0, 0); fill-opacity: 1; white-space: pre; opacity: 1;">0</text></g><g class="ytick"><text text-anchor="end" x="59" y="3.5" style="font-family: 'Open Sans', verdana, arial, sans-serif; font-size: 10px; fill: rgb(0, 0, 0); fill-opacity: 1; white-space: pre; opacity: 1;" transform="translate(0,72.97999999999999)">0.2</text></g><g class="ytick"><text text-anchor="end" x="59" y="3.5" style="font-family: 'Open Sans', verdana, arial, sans-serif; font-size: 10px; fill: rgb(0, 0, 0); fill-opacity: 1; white-space: pre; opacity: 1;" transform="translate(0,46.489999999999995)">0.4</text></g><g class="ytick"><text text-anchor="end" x="59" y="3.5" style="font-family: 'Open Sans', verdana, arial, sans-serif; font-size: 10px; fill: rgb(0, 0, 0); fill-opacity: 1; white-space: pre; opacity: 1;" transform="translate(0,20)">0.6</text></g></g><g class="overaxes-above"/></g><g class="subplot x2y2"><g class="layer-subplot"><g class="shapelayer"/><g class="imagelayer"/></g><g class="minor-gridlayer"><g class="x2"/><g class="y2"/></g><g class="gridlayer"><g class="x2"><path class="x2grid crisp" transform="translate(70.94,0)" d="M0,127.52499999999999v79.475" style="stroke: rgb(255, 255, 255); stroke-opacity: 1; stroke-width: 1px;"/><path class="x2grid crisp" transform="translate(114.71000000000001,0)" d="M0,127.52499999999999v79.475" style="stroke: rgb(255, 255, 255); stroke-opacity: 1; stroke-width: 1px;"/><path class="x2grid crisp" transform="translate(158.47,0)" d="M0,127.52499999999999v79.475" style="stroke: rgb(255, 255, 255); stroke-opacity: 1; stroke-width: 1px;"/><path class="x2grid crisp" transform="translate(202.24,0)" d="M0,127.52499999999999v79.475" style="stroke: rgb(255, 255, 255); stroke-opacity: 1; stroke-width: 1px;"/></g><g class="y2"><path class="y2grid crisp" transform="translate(0,187.135)" d="M60,0h186" style="stroke: rgb(255, 255, 255); stroke-opacity: 1; stroke-width: 1px;"/><path class="y2grid crisp" transform="translate(0,167.265)" d="M60,0h186" style="stroke: rgb(255, 255, 255); stroke-opacity: 1; stroke-width: 1px;"/><path class="y2grid crisp" transform="translate(0,147.39499999999998)" d="M60,0h186" style="stroke: rgb(255, 255, 255); stroke-opacity: 1; stroke-width: 1px;"/></g></g><g class="zerolinelayer"/><path class="xlines-below"/><path class="ylines-below"/><g class="overlines-below"/><g class="xaxislayer-below"/><g class="yaxislayer-below"/><g class="overaxes-below"/><g class="plot" transform="translate(60,127.52499999999999)" clip-path="url(#clip12aa02x2y2plot)"><g class="scatterlayer mlayer"><g class="trace scatter tracec97c43" style="stroke-miterlimit: 2; opacity: 1;"><g class="fills"/><g class="errorbars"><g class="errorbar" style="opacity: 1;"><path class="yerror" d="M-2.29,31.21h8m-4,0V32.25m-4,0h8" style="vector-effect: non-scaling-stroke; stroke-width: 2px; stroke: rgb(117, 112, 179); stroke-opacity: 1;"/></g><g class="errorbar" style="opacity: 1;"><path class="yerror" d="M8.91,33.76h8m-4,0V34.67m-4,0h8" style="vector-effect: non-scaling-stroke; stroke-width: 2px; stroke: rgb(117, 112, 179); stroke-opacity: 1;"/></g><g class="errorbar" style="opacity: 1;"><path class="yerror" d="M49.74,33.26h8m-4,0V39.07m-4,0h8" style="vector-effect: non-scaling-stroke; stroke-width: 2px; stroke: rgb(117, 112, 179); stroke-opacity: 1;"/></g><g class="errorbar" style="opacity: 1;"><path class="yerror" d="M64.38,33.76h8m-4,0V39.74m-4,0h8" style="vector-effect: non-scaling-stroke; stroke-width: 2px; stroke: rgb(117, 112, 179); stroke-opacity: 1;"/></g><g class="errorbar" style="opacity: 1;"><path class="yerror" d="M101.84,38.26h8m-4,0V40.83m-4,0h8" style="vector-effect: non-scaling-stroke; stroke-width: 2px; stroke: rgb(117, 112, 179); stroke-opacity: 1;"/></g><g class="errorbar" style="opacity: 1;"><path class="yerror" d="M116.53,35.23h8m-4,0V36.95m-4,0h8" style="vector-effect: non-scaling-stroke; stroke-width: 2px; stroke: rgb(117, 112, 179); stroke-opacity: 1;"/></g><g class="errorbar" style="opacity: 1;"><path class="yerror" d="M154.28,40.46h8m-4,0V43.95m-4,0h8" style="vector-effect: non-scaling-stroke; stroke-width: 2px; stroke: rgb(117, 112, 179); stroke-opacity: 1;"/></g><g class="errorbar" style="opacity: 1;"><path class="yerror" d="M169.18,37.35h8m-4,0V41.5m-4,0h8" style="vector-effect: non-scaling-stroke; stroke-width: 2px; stroke: rgb(117, 112, 179); stroke-opacity: 1;"/></g><g class="errorbar" style="opacity: 1;"><path class="yerror" d="M208.92,32.55h8m-4,0V40.02m-4,0h8" style="vector-effect: non-scaling-stroke; stroke-width: 2px; stroke: rgb(117, 112, 179); stroke-opacity: 1;"/></g></g><g class="lines"><path class="js-line" d="M1.71,31.72L12.91,34.2L53.74,35.68L68.38,36.24L105.84,39.45L120.53,36.05L158.28,42.03L173.18,39.18L212.92,35.5" style="vector-effect: non-scaling-stroke; fill: none; stroke: rgb(117, 112, 179); stroke-opacity: 1; stroke-width: 3px; opacity: 1;"/></g><g class="points"><path class="point" transform="translate(1.71,31.72)" d="M1.5,0A1.5,1.5 0 1,1 0,-1.5A1.5,1.5 0 0,1 1.5,0Z" style="opacity: 1; stroke-width: 0px; fill: rgb(117, 112, 179); fill-opacity: 1;"/><path class="point" transform="translate(12.91,34.2)" d="M1.5,0A1.5,1.5 0 1,1 0,-1.5A1.5,1.5 0 0,1 1.5,0Z" style="opacity: 1; stroke-width: 0px; fill: rgb(117, 112, 179); fill-opacity: 1;"/><path class="point" transform="translate(53.74,35.68)" d="M1.5,0A1.5,1.5 0 1,1 0,-1.5A1.5,1.5 0 0,1 1.5,0Z" style="opacity: 1; stroke-width: 0px; fill: rgb(117, 112, 179); fill-opacity: 1;"/><path class="point" transform="translate(68.38,36.24)" d="M1.5,0A1.5,1.5 0 1,1 0,-1.5A1.5,1.5 0 0,1 1.5,0Z" style="opacity: 1; stroke-width: 0px; fill: rgb(117, 112, 179); fill-opacity: 1;"/><path class="point" transform="translate(105.84,39.45)" d="M1.5,0A1.5,1.5 0 1,1 0,-1.5A1.5,1.5 0 0,1 1.5,0Z" style="opacity: 1; stroke-width: 0px; fill: rgb(117, 112, 179); fill-opacity: 1;"/><path class="point" transform="translate(120.53,36.05)" d="M1.5,0A1.5,1.5 0 1,1 0,-1.5A1.5,1.5 0 0,1 1.5,0Z" style="opacity: 1; stroke-width: 0px; fill: rgb(117, 112, 179); fill-opacity: 1;"/><path class="point" transform="translate(158.28,42.03)" d="M1.5,0A1.5,1.5 0 1,1 0,-1.5A1.5,1.5 0 0,1 1.5,0Z" style="opacity: 1; stroke-width: 0px; fill: rgb(117, 112, 179); fill-opacity: 1;"/><path class="point" transform="translate(173.18,39.18)" d="M1.5,0A1.5,1.5 0 1,1 0,-1.5A1.5,1.5 0 0,1 1.5,0Z" style="opacity: 1; stroke-width: 0px; fill: rgb(117, 112, 179); fill-opacity: 1;"/><path class="point" transform="translate(212.92,35.5)" d="M1.5,0A1.5,1.5 0 1,1 0,-1.5A1.5,1.5 0 0,1 1.5,0Z" style="opacity: 1; stroke-width: 0px; fill: rgb(117, 112, 179); fill-opacity: 1;"/></g><g class="text"/></g><g class="trace scatter trace30495d" style="stroke-miterlimit: 2; opacity: 1;"><g class="fills"/><g class="errorbars"><g class="errorbar" style="opacity: 1;"><path class="yerror" d="M-2.29,19.87h8m-4,0V21.79m-4,0h8" style="vector-effect: non-scaling-stroke; stroke-width: 2px; stroke: rgb(217, 95, 2); stroke-opacity: 1;"/></g><g class="errorbar" style="opacity: 1;"><path class="yerror" d="M8.91,15.57h8m-4,0V23.99m-4,0h8" style="vector-effect: non-scaling-stroke; stroke-width: 2px; stroke: rgb(217, 95, 2); stroke-opacity: 1;"/></g><g class="errorbar" style="opacity: 1;"><path class="yerror" d="M49.74,18.4h8m-4,0V20.97m-4,0h8" style="vector-effect: non-scaling-stroke; stroke-width: 2px; stroke: rgb(217, 95, 2); stroke-opacity: 1;"/></g><g class="errorbar" style="opacity: 1;"><path class="yerror" d="M64.38,23.06h8m-4,0V24.63m-4,0h8" style="vector-effect: non-scaling-stroke; stroke-width: 2px; stroke: rgb(217, 95, 2); stroke-opacity: 1;"/></g><g class="errorbar" style="opacity: 1;"><path class="yerror" d="M101.84,17.35h8m-4,0V22.61m-4,0h8" style="vector-effect: non-scaling-stroke; stroke-width: 2px; stroke: rgb(217, 95, 2); stroke-opacity: 1;"/></g><g class="errorbar" style="opacity: 1;"><path class="yerror" d="M116.53,18.16h8m-4,0V20.65m-4,0h8" style="vector-effect: non-scaling-stroke; stroke-width: 2px; stroke: rgb(217, 95, 2); stroke-opacity: 1;"/></g><g class="errorbar" style="opacity: 1;"><path class="yerror" d="M154.28,13.61h8m-4,0V16.17m-4,0h8" style="vector-effect: non-scaling-stroke; stroke-width: 2px; stroke: rgb(217, 95, 2); stroke-opacity: 1;"/></g><g class="errorbar" style="opacity: 1;"><path class="yerror" d="M169.18,20.1h8m-4,0V23.9m-4,0h8" style="vector-effect: non-scaling-stroke; stroke-width: 2px; stroke: rgb(217, 95, 2); stroke-opacity: 1;"/></g><g class="errorbar" style="opacity: 1;"><path class="yerror" d="M208.92,15.51h8m-4,0V25.13m-4,0h8" style="vector-effect: non-scaling-stroke; stroke-width: 2px; stroke: rgb(217, 95, 2); stroke-opacity: 1;"/></g></g><g class="lines"><path class="js-line" d="M1.71,20.78L12.91,18.79L53.74,19.59L68.38,23.81L105.84,19.59L120.53,19.31L158.28,14.8L173.18,21.79L212.92,19.05" style="vector-effect: non-scaling-stroke; fill: none; stroke: rgb(217, 95, 2); stroke-opacity: 1; stroke-width: 3px; opacity: 1;"/></g><g class="points"><path class="point" transform="translate(1.71,20.78)" d="M1.5,0A1.5,1.5 0 1,1 0,-1.5A1.5,1.5 0 0,1 1.5,0Z" style="opacity: 1; stroke-width: 0px; fill: rgb(217, 95, 2); fill-opacity: 1;"/><path class="point" transform="translate(12.91,18.79)" d="M1.5,0A1.5,1.5 0 1,1 0,-1.5A1.5,1.5 0 0,1 1.5,0Z" style="opacity: 1; stroke-width: 0px; fill: rgb(217, 95, 2); fill-opacity: 1;"/><path class="point" transform="translate(53.74,19.59)" d="M1.5,0A1.5,1.5 0 1,1 0,-1.5A1.5,1.5 0 0,1 1.5,0Z" style="opacity: 1; stroke-width: 0px; fill: rgb(217, 95, 2); fill-opacity: 1;"/><path class="point" transform="translate(68.38,23.81)" d="M1.5,0A1.5,1.5 0 1,1 0,-1.5A1.5,1.5 0 0,1 1.5,0Z" style="opacity: 1; stroke-width: 0px; fill: rgb(217, 95, 2); fill-opacity: 1;"/><path class="point" transform="translate(105.84,19.59)" d="M1.5,0A1.5,1.5 0 1,1 0,-1.5A1.5,1.5 0 0,1 1.5,0Z" style="opacity: 1; stroke-width: 0px; fill: rgb(217, 95, 2); fill-opacity: 1;"/><path class="point" transform="translate(120.53,19.31)" d="M1.5,0A1.5,1.5 0 1,1 0,-1.5A1.5,1.5 0 0,1 1.5,0Z" style="opacity: 1; stroke-width: 0px; fill: rgb(217, 95, 2); fill-opacity: 1;"/><path class="point" transform="translate(158.28,14.8)" d="M1.5,0A1.5,1.5 0 1,1 0,-1.5A1.5,1.5 0 0,1 1.5,0Z" style="opacity: 1; stroke-width: 0px; fill: rgb(217, 95, 2); fill-opacity: 1;"/><path class="point" transform="translate(173.18,21.79)" d="M1.5,0A1.5,1.5 0 1,1 0,-1.5A1.5,1.5 0 0,1 1.5,0Z" style="opacity: 1; stroke-width: 0px; fill: rgb(217, 95, 2); fill-opacity: 1;"/><path class="point" transform="translate(212.92,19.05)" d="M1.5,0A1.5,1.5 0 1,1 0,-1.5A1.5,1.5 0 0,1 1.5,0Z" style="opacity: 1; stroke-width: 0px; fill: rgb(217, 95, 2); fill-opacity: 1;"/></g><g class="text"/></g></g></g><g class="overplot"/><path class="xlines-above crisp" d="M0,0" style="fill: none;"/><path class="ylines-above crisp" d="M0,0" style="fill: none;"/><g class="overlines-above"/><g class="xaxislayer-above"><g class="x2tick"><text text-anchor="middle" x="0" y="218" transform="translate(70.94,0)" style="font-family: 'Open Sans', verdana, arial, sans-serif; font-size: 10px; fill: rgb(0, 0, 0); fill-opacity: 1; white-space: pre; opacity: 1;">120</text></g><g class="x2tick"><text text-anchor="middle" x="0" y="218" style="font-family: 'Open Sans', verdana, arial, sans-serif; font-size: 10px; fill: rgb(0, 0, 0); fill-opacity: 1; white-space: pre; opacity: 1;" transform="translate(114.71000000000001,0)">140</text></g><g class="x2tick"><text text-anchor="middle" x="0" y="218" style="font-family: 'Open Sans', verdana, arial, sans-serif; font-size: 10px; fill: rgb(0, 0, 0); fill-opacity: 1; white-space: pre; opacity: 1;" transform="translate(158.47,0)">160</text></g><g class="x2tick"><text text-anchor="middle" x="0" y="218" style="font-family: 'Open Sans', verdana, arial, sans-serif; font-size: 10px; fill: rgb(0, 0, 0); fill-opacity: 1; white-space: pre; opacity: 1;" transform="translate(202.24,0)">180</text></g><g class="x2tick"><text text-anchor="middle" x="0" y="218" style="font-family: 'Open Sans', verdana, arial, sans-serif; font-size: 10px; fill: rgb(0, 0, 0); fill-opacity: 1; white-space: pre; opacity: 1;" transform="translate(246,0)">200</text></g></g><g class="yaxislayer-above"><g class="y2tick"><text text-anchor="end" x="59" y="3.5" transform="translate(0,207.005)" style="font-family: 'Open Sans', verdana, arial, sans-serif; font-size: 10px; fill: rgb(0, 0, 0); fill-opacity: 1; white-space: pre; opacity: 1;">1M</text></g><g class="y2tick"><text text-anchor="end" x="59" y="3.5" style="font-family: 'Open Sans', verdana, arial, sans-serif; font-size: 10px; fill: rgb(0, 0, 0); fill-opacity: 1; white-space: pre; opacity: 1;" transform="translate(0,187.135)">10M</text></g><g class="y2tick"><text text-anchor="end" x="59" y="3.5" style="font-family: 'Open Sans', verdana, arial, sans-serif; font-size: 10px; fill: rgb(0, 0, 0); fill-opacity: 1; white-space: pre; opacity: 1;" transform="translate(0,167.265)">100M</text></g><g class="y2tick"><text text-anchor="end" x="59" y="3.5" style="font-family: 'Open Sans', verdana, arial, sans-serif; font-size: 10px; fill: rgb(0, 0, 0); fill-opacity: 1; white-space: pre; opacity: 1;" transform="translate(0,147.39499999999998)">1B</text></g><g class="y2tick"><text text-anchor="end" x="59" y="3.5" style="font-family: 'Open Sans', verdana, arial, sans-serif; font-size: 10px; fill: rgb(0, 0, 0); fill-opacity: 1; white-space: pre; opacity: 1;" transform="translate(0,127.52499999999999)">10B</text></g></g><g class="overaxes-above"/></g></g><g class="polarlayer"/><g class="smithlayer"/><g class="ternarylayer"/><g class="geolayer"/><g class="funnelarealayer"/><g class="pielayer"/><g class="iciclelayer"/><g class="treemaplayer"/><g class="sunburstlayer"/><g class="glimages"/><defs id="topdefs-12aa02"><g class="clips"/></defs><g class="layer-above"><g class="imagelayer"/><g class="shapelayer"/></g><g class="infolayer"><g class="g-gtitle"/><g class="g-xtitle"/><g class="g-x2title"><text class="x2title" x="153" y="238" text-anchor="middle" style="font-family: 'Open Sans', verdana, arial, sans-serif; font-size: 10px; fill: rgb(0, 0, 0); opacity: 1; font-weight: normal; white-space: pre;">Time [h]</text></g><g class="g-ytitle"><text class="ytitle" transform="rotate(-90,27.890625,59.737500000000004)" x="27.890625" y="59.737500000000004" text-anchor="middle" style="font-family: 'Open Sans', verdana, arial, sans-serif; font-size: 10px; fill: rgb(0, 0, 0); opacity: 1; font-weight: normal; white-space: pre;">OD</text></g><g class="g-y2title"><text class="y2title" transform="rotate(-90,15.8125,167.2625)" x="15.8125" y="167.2625" text-anchor="middle" style="font-family: 'Open Sans', verdana, arial, sans-serif; font-size: 10px; fill: rgb(0, 0, 0); opacity: 1; font-weight: normal; white-space: pre;">CFUs/mL</text></g></g></svg>