<svg class="main-svg" xmlns="http://www.w3.org/2000/svg" xmlns:xlink="http://www.w3.org/1999/xlink" width="266.6666666666667" height="250" style="" viewBox="0 0 266.6666666666667 250"><rect x="0" y="0" width="266.6666666666667" height="250" style="fill: rgb(255, 255, 255); fill-opacity: 1;"/><defs id="defs-2be189"><g class="clips"><clipPath id="clip2be189xyplot" class="plotclip"><rect width="187" height="79.47500000000001"/></clipPath><clipPath id="clip2be189x2y2plot" class="plotclip"><rect width="187" height="79.475"/></clipPath><clipPath class="axesclip" id="clip2be189x"><rect x="60" y="0" width="187" height="250"/></clipPath><clipPath class="axesclip" id="clip2be189y"><rect x="0" y="20" width="266.6666666666667" height="79.47500000000001"/></clipPath><clipPath class="axesclip" id="clip2be189xy"><rect x="60" y="20" width="187" height="79.47500000000001"/></clipPath><clipPath class="axesclip" id="clip2be189y2"><rect x="0" y="127.52499999999999" width="266.6666666666667" height="79.475"/></clipPath><clipPath class="axesclip" id="clip2be189xy2"><rect x="60" y="127.52499999999999" width="187" height="79.475"/></clipPath><clipPath class="axesclip" id="clip2be189x2"><rect x="60" y="0" width="187" height="250"/></clipPath><clipPath class="axesclip" id="clip2be189x2y"><rect x="60" y="20" width="187" height="79.47500000000001"/></clipPath><clipPath class="axesclip" id="clip2be189x2y2"><rect x="60" y="127.52499999999999" width="187" height="79.475"/></clipPath></g><g class="gradients"/><g class="patterns"/></defs><g class="bglayer"><rect class="bg" x="60" y="20" width="187" height="79.47500000000001" style="fill: rgb(229, 236, 246); fill-opacity: 1; stroke-width: 0;"/><rect class="bg" x="60" y="127.52499999999999" width="187" height="79.475" style="fill: rgb(229, 236, 246); fill-opacity: 1; stroke-width: 0;"/></g><g class="layer-below"><g class="imagelayer"/><g class="shapelayer"/></g><g class="cartesianlayer"><g class="subplot xy"><g class="layer-subplot"><g class="shapelayer"/><g class="imagelayer"/></g><g class="minor-gridlayer"><g class="x"/><g class="y"/></g><g class="gridlayer"><g class="x"><path class="xgrid crisp" transform="translate(75.8,0)" d="M0,20v79.47500000000001" style="stroke: rgb(255, 255, 255); stroke-opacity: 1; stroke-width: 1px;"/><path class="xgrid crisp" transform="translate(141.65,0)" d="M0,20v79.47500000000001" style="stroke: rgb(255, 255, 255); stroke-opacity: 1; stroke-width: 1px;"/><path class="xgrid crisp" transform="translate(207.49,0)" d="M0,20v79.47500000000001" style="stroke: rgb(255, 255, 255); stroke-opacity: 1; stroke-width: 1px;"/></g><g class="y"><path class="ygrid crisp" transform="translate(0,72.97999999999999)" d="M60,0h187" style="stroke: rgb(255, 255, 255); stroke-opacity: 1; stroke-width: 1px;"/><path class="ygrid crisp" transform="translate(0,46.489999999999995)" d="M60,0h187" style="stroke: rgb(255, 255, 255); stroke-opacity: 1; stroke-width: 1px;"/></g></g><g class="zerolinelayer"><path class="yzl zl crisp" transform="translate(0,99.48)" d="M60,0h187" style="stroke: rgb(255, 255, 255); stroke-opacity: 1; stroke-width: 2px;"/></g><path class="xlines-below"/><path class="ylines-below"/><g class="overlines-below"/><g class="xaxislayer-below"/><g class="yaxislayer-below"/><g class="overaxes-below"/><g class="plot" transform="translate(60,20)" clip-path="url(#clip2be189xyplot)"><g class="scatterlayer mlayer"><g class="trace scatter tracea1ab50" style="stroke-miterlimit: 2; opacity: 1;"><g class="fills"/><g class="errorbars"/><g class="lines"><path class="js-line" d="M-32.88,18.92L-25.41,45.44L-25.19,45.94L-20.8,50.09L-20.58,50.13L-19.7,49.67L-19.48,51.71L-17.5,50.3L-17.28,50.87L-15.52,51.44L-15.3,51.26L-13.99,52.61L-13.77,52.14L-13.55,51.98L-13.33,51.3L-13.11,53.06L-12.89,52.24L-12.67,56.03L-12.01,57.06L-11.57,52.17L-11.35,53.29L-11.13,52.39L-10.03,51.94L-9.81,51.69L-9.37,50.9L-8.71,51.91L-8.49,52.91L-8.27,52.78L-8.05,54.01L-7.83,53.88L-7.61,54.45L-7.39,55.36L-6.08,52.46L-5.64,53.29L-5.42,54.17L-4.32,48.06L-4.1,50.01L-3.88,52.07L-3.66,51.9L-3.44,52.81L-3.22,52.92L-2.78,53.44L-2.56,54.11L-2.34,54.41L-2.12,53.48L-1.9,53.44L-0.58,51.22L-0.36,51.68L-0.14,51.99L0.3,52.73L0.51,54.06L1.61,50.56L1.83,51.08L4.25,50.02L4.47,49.98L5.13,49.86L5.35,49.47L5.79,49.9L6.23,49.37L6.45,48.99L6.89,49.69L7.11,49.16L7.33,48.51L8.86,49.45L9.08,49.6L10.18,48.8L10.4,48.7L11.94,48.95L12.16,48.56L12.38,49.07L12.6,48.1L12.82,48.68L13.04,48.66L13.92,48.46L14.14,48.85L15.24,47.97L15.46,48.11L16.77,48.04L16.99,48.56L19.41,49.86L19.63,50.16L20.95,50.73L21.17,49.81L21.61,50.68L22.05,50.24L22.27,50.2L22.71,50.6L22.93,49.79L24.46,49.15L24.68,49.5L26.66,49.53L26.88,49.65L28.42,49.15L28.64,48.47L30.62,48.82L30.84,49.15L32.37,50.77L32.59,50.51L33.25,48.25L33.47,48.81L33.69,49.08L36.33,51.61L36.55,51.52L40.72,53.39L40.94,53.25L42.26,52.57L42.48,52.99L47.32,54.5L47.54,54.34L47.76,55.05L48.41,54.78L48.63,54.91L49.95,54.62L50.17,54.83L51.27,55.13L51.49,54.92L52.37,55L52.59,54.51L53.03,54.83L53.25,54.08L53.91,54.62L54.13,54.42L54.35,53.91L55.66,54.25L55.88,53.61L56.32,55.04L56.76,54.73L56.98,54.98L58.08,54.21L58.3,54.06L58.52,54.36L58.74,54.08L58.96,53.5L60.5,53.49L60.72,52.31L61.16,51.35L61.38,52.82L62.04,52.38L62.26,52.59L62.48,52.7L63.57,50.28L63.79,50.97L64.01,50.72L64.45,49.44L64.67,49.54L64.89,50.38L65.33,50.98L65.55,50.17L65.77,49.84L67.75,49.14L67.97,48.78L69.51,48.07L69.73,48.42L70.39,47.34L70.82,47.9L71.04,47.66L72.36,46.75L72.58,47.09L72.8,47.14L74.56,47.01L74.78,46.59L77.86,46.33L78.08,46.08L79.61,46.05L79.83,45.79L80.49,46.17L80.71,45.99L80.93,45.9L81.81,45.85L82.03,45.4L82.69,44.87L82.91,44.59L84.45,44.47L84.67,44.55L87.08,44.68L87.3,45.03L91.48,46.4L91.7,45.99L92.36,46.24L92.58,46.27L93.89,45.82L94.11,45.95L94.33,46.25L94.55,45.5L94.77,45.49L96.53,45.43L96.75,45.29L97.63,45.11L97.85,44.83L98.95,44.93L99.17,44.55L102.24,44.18L102.46,43.67L102.9,43.7L103.12,44.23L104,43.53L104.22,43.57L107.52,44.61L107.74,44.97L108.62,44.77L108.84,44.81L109.27,43.54L109.71,44.05L109.93,44.35L113.23,43.39L113.45,43.5L114.55,43.77L114.77,43.88L116.53,45.18L116.75,44.83L116.96,44.62L119.6,45.19L119.82,44.76L120.48,45.28L120.7,44.91L120.92,44.92L121.8,45.05L122.02,45.16L123.12,45.41L123.34,44.83L123.56,45.33L123.78,44.9L124,42.81L124.22,43.62L124.43,42.54L124.65,40.33L124.87,40.07L125.09,40.48L125.31,41.23L126.41,45.15L126.63,44.35L126.85,44.76L127.29,44.1L127.51,45.12L128.17,44.62L128.39,45.03L128.61,45.2L128.83,44.55L129.27,45.06L129.49,45.09L129.93,44.91L130.15,46.26L131.03,42.55L131.25,42.42L133.22,41.39L133.44,41.83L135.42,42.82L135.64,42.86L138.06,44.19L138.28,43.7L139.16,43.59L139.38,43.63L141.13,44.7L141.35,45.22L144.43,44.73L144.65,44.5L144.87,44.95L145.31,44.51L145.53,44.35L147.07,44.53L147.29,44.61L148.38,43.82L148.6,44.14L148.82,44.74L149.48,44.38L149.7,44.19L151.02,42.51L151.24,42.47L152.78,42.85L153,43.38L154.32,42.71L154.54,43.05L155.42,43.44L155.63,43.93L156.95,42.78L157.17,43.3L157.61,43.43L157.83,43.11L158.05,42.84L158.49,43.46L158.93,43.04L159.15,43.05L160.03,43.4L160.25,43.31L161.79,43.44L162.01,43.63L168.82,44.48L169.04,44.39L172.55,43.74L172.77,44.04L174.75,44.79L174.97,44.63L175.63,45.01L175.85,44.79L176.07,44.58L177.17,45.44L177.39,45.54L178.7,46.41L178.92,46.02L179.14,45.78L180.02,46.18L180.24,46.21L181.34,46.78L181.56,46.53L182.44,46.93L182.66,46.59L183.54,47.26L183.76,47.04L184.42,46.31L184.64,46.99L184.86,46.85L185.95,46.67L186.17,46.45L187.71,46.1L187.93,45.91L188.81,44.55" style="vector-effect: non-scaling-stroke; fill: none; stroke: rgb(131, 130, 133); stroke-opacity: 1; stroke-width: 3px; opacity: 1;"/></g><g class="points"/><g class="text"/></g></g></g><g class="overplot"/><path class="xlines-above crisp" d="M0,0" style="fill: none;"/><path class="ylines-above crisp" d="M0,0" style="fill: none;"/><g class="overlines-above"/><g class="xaxislayer-above"><g class="xtick"><text text-anchor="middle" x="0" y="110.47500000000001" transform="translate(75.8,0)" style="font-family: 'Open Sans', verdana, arial, sans-serif; font-size: 10px; fill: rgb(0, 0, 0); fill-opacity: 1; white-space: pre; opacity: 1;">250</text></g><g class="xtick"><text text-anchor="middle" x="0" y="110.47500000000001" style="font-family: 'Open Sans', verdana, arial, sans-serif; font-size: 10px; fill: rgb(0, 0, 0); fill-opacity: 1; white-space: pre; opacity: 1;" transform="translate(141.65,0)">300</text></g><g class="xtick"><text text-anchor="middle" x="0" y="110.47500000000001" style="font-family: 'Open Sans', verdana, arial, sans-serif; font-size: 10px; fill: rgb(0, 0, 0); fill-opacity: 1; white-space: pre; opacity: 1;" transform="translate(207.49,0)">350</text></g></g><g class="yaxislayer-above"><g class="ytick"><text text-anchor="end" x="59" y="3.5" transform="translate(0,99.48)" style="font-family: 'Open Sans', verdana, arial, sans-serif; font-size: 10px; fill: rgb(0, 0, 0); fill-opacity: 1; white-space: pre; opacity: 1;">0</text></g><g class="ytick"><text text-anchor="end" x="59" y="3.5" style="font-family: 'Open Sans', verdana, arial, sans-serif; font-size: 10px; fill: rgb(0, 0, 0); fill-opacity: 1; white-space: pre; opacity: 1;" transform="translate(0,72.97999999999999)">0.2</text></g><g class="ytick"><text text-anchor="end" x="59" y="3.5" style="font-family: 'Open Sans', verdana, arial, sans-serif; font-size: 10px; fill: rgb(0, 0, 0); fill-opacity: 1; white-space: pre; opacity: 1;" transform="translate(0,46.489999999999995)">0.4</text></g><g class="ytick"><text text-anchor="end" x="59" y="3.5" style="font-family: 'Open Sans', verdana, arial, sans-serif; font-size: 10px; fill: rgb(0, 0, 0); fill-opacity: 1; white-space: pre; opacity: 1;" transform="translate(0,20)">0.6</text></g></g><g class="overaxes-above"/></g><g class="subplot x2y2"><g class="layer-subplot"><g class="shapelayer"/><g class="imagelayer"/></g><g class="minor-gridlayer"><g class="x2"/><g class="y2"/></g><g class="gridlayer"><g class="x2"><path class="x2grid crisp" transform="translate(75.8,0)" d="M0,127.52499999999999v79.475" style="stroke: rgb(255, 255, 255); stroke-opacity: 1; stroke-width: 1px;"/><path class="x2grid crisp" transform="translate(141.65,0)" d="M0,127.52499999999999v79.475" style="stroke: rgb(255, 255, 255); stroke-opacity: 1; stroke-width: 1px;"/><path class="x2grid crisp" transform="translate(207.49,0)" d="M0,127.52499999999999v79.475" style="stroke: rgb(255, 255, 255); stroke-opacity: 1; stroke-width: 1px;"/></g><g class="y2"><path class="y2grid crisp" transform="translate(0,187.135)" d="M60,0h187" style="stroke: rgb(255, 255, 255); stroke-opacity: 1; stroke-width: 1px;"/><path class="y2grid crisp" transform="translate(0,167.265)" d="M60,0h187" style="stroke: rgb(255, 255, 255); stroke-opacity: 1; stroke-width: 1px;"/><path class="y2grid crisp" transform="translate(0,147.39499999999998)" d="M60,0h187" style="stroke: rgb(255, 255, 255); stroke-opacity: 1; stroke-width: 1px;"/></g></g><g class="zerolinelayer"/><path class="xlines-below"/><path class="ylines-below"/><g class="overlines-below"/><g class="xaxislayer-below"/><g class="yaxislayer-below"/><g class="overaxes-below"/><g class="plot" transform="translate(60,127.52499999999999)" clip-path="url(#clip2be189x2y2plot)"><g class="scatterlayer mlayer"><g class="trace scatter trace3e59bc" style="stroke-miterlimit: 2; opacity: 1;"><g class="fills"/><g class="errorbars"><g class="errorbar" style="opacity: 1;"><path class="yerror" d="M-3.21,36.24h8m-4,0V40.65m-4,0h8" style="vector-effect: non-scaling-stroke; stroke-width: 2px; stroke: rgb(117, 112, 179); stroke-opacity: 1;"/></g><g class="errorbar" style="opacity: 1;"><path class="yerror" d="M28.03,46.79h8m-4,0V51.42m-4,0h8" style="vector-effect: non-scaling-stroke; stroke-width: 2px; stroke: rgb(117, 112, 179); stroke-opacity: 1;"/></g><g class="errorbar" style="opacity: 1;"><path class="yerror" d="M61.120000000000005,42.99h8m-4,0V48.07m-4,0h8" style="vector-effect: non-scaling-stroke; stroke-width: 2px; stroke: rgb(117, 112, 179); stroke-opacity: 1;"/></g><g class="errorbar" style="opacity: 1;"><path class="yerror" d="M95.19,34.72h8m-4,0V41.03m-4,0h8" style="vector-effect: non-scaling-stroke; stroke-width: 2px; stroke: rgb(117, 112, 179); stroke-opacity: 1;"/></g><g class="errorbar" style="opacity: 1;"><path class="yerror" d="M126.07,41.85h8m-4,0V47.28m-4,0h8" style="vector-effect: non-scaling-stroke; stroke-width: 2px; stroke: rgb(117, 112, 179); stroke-opacity: 1;"/></g><g class="errorbar" style="opacity: 1;"><path class="yerror" d="M150.45,36.74h8m-4,0V40.79m-4,0h8" style="vector-effect: non-scaling-stroke; stroke-width: 2px; stroke: rgb(117, 112, 179); stroke-opacity: 1;"/></g><g class="errorbar" style="opacity: 1;"><path class="yerror" d="M183.53,34.91h8m-4,0V40.49m-4,0h8" style="vector-effect: non-scaling-stroke; stroke-width: 2px; stroke: rgb(117, 112, 179); stroke-opacity: 1;"/></g></g><g class="lines"><path class="js-line" d="M0.79,38.16L32.03,48.8L65.12,45.16L99.19,37.31L130.07,44.15L154.45,38.53L187.53,37.26" style="vector-effect: non-scaling-stroke; fill: none; stroke: rgb(117, 112, 179); stroke-opacity: 1; stroke-width: 3px; opacity: 1;"/></g><g class="points"><path class="point" transform="translate(0.79,38.16)" d="M1.5,0A1.5,1.5 0 1,1 0,-1.5A1.5,1.5 0 0,1 1.5,0Z" style="opacity: 1; stroke-width: 0px; fill: rgb(117, 112, 179); fill-opacity: 1;"/><path class="point" transform="translate(32.03,48.8)" d="M1.5,0A1.5,1.5 0 1,1 0,-1.5A1.5,1.5 0 0,1 1.5,0Z" style="opacity: 1; stroke-width: 0px; fill: rgb(117, 112, 179); fill-opacity: 1;"/><path class="point" transform="translate(65.12,45.16)" d="M1.5,0A1.5,1.5 0 1,1 0,-1.5A1.5,1.5 0 0,1 1.5,0Z" style="opacity: 1; stroke-width: 0px; fill: rgb(117, 112, 179); fill-opacity: 1;"/><path class="point" transform="translate(99.19,37.31)" d="M1.5,0A1.5,1.5 0 1,1 0,-1.5A1.5,1.5 0 0,1 1.5,0Z" style="opacity: 1; stroke-width: 0px; fill: rgb(117, 112, 179); fill-opacity: 1;"/><path class="point" transform="translate(130.07,44.15)" d="M1.5,0A1.5,1.5 0 1,1 0,-1.5A1.5,1.5 0 0,1 1.5,0Z" style="opacity: 1; stroke-width: 0px; fill: rgb(117, 112, 179); fill-opacity: 1;"/><path class="point" transform="translate(154.45,38.53)" d="M1.5,0A1.5,1.5 0 1,1 0,-1.5A1.5,1.5 0 0,1 1.5,0Z" style="opacity: 1; stroke-width: 0px; fill: rgb(117, 112, 179); fill-opacity: 1;"/><path class="point" transform="translate(187.53,37.26)" d="M1.5,0A1.5,1.5 0 1,1 0,-1.5A1.5,1.5 0 0,1 1.5,0Z" style="opacity: 1; stroke-width: 0px; fill: rgb(117, 112, 179); fill-opacity: 1;"/></g><g class="text"/></g><g class="trace scatter trace4478bb" style="stroke-miterlimit: 2; opacity: 1;"><g class="fills"/><g class="errorbars"><g class="errorbar" style="opacity: 1;"><path class="yerror" d="M-3.21,38.27h8m-4,0V43.04m-4,0h8" style="vector-effect: non-scaling-stroke; stroke-width: 2px; stroke: rgb(217, 95, 2); stroke-opacity: 1;"/></g><g class="errorbar" style="opacity: 1;"><path class="yerror" d="M28.03,43.8h8m-4,0V45.57m-4,0h8" style="vector-effect: non-scaling-stroke; stroke-width: 2px; stroke: rgb(217, 95, 2); stroke-opacity: 1;"/></g><g class="errorbar" style="opacity: 1;"><path class="yerror" d="M61.120000000000005,41.81h8m-4,0V46.06m-4,0h8" style="vector-effect: non-scaling-stroke; stroke-width: 2px; stroke: rgb(217, 95, 2); stroke-opacity: 1;"/></g><g class="errorbar" style="opacity: 1;"><path class="yerror" d="M95.19,49.42h8m-4,0V53.03m-4,0h8" style="vector-effect: non-scaling-stroke; stroke-width: 2px; stroke: rgb(217, 95, 2); stroke-opacity: 1;"/></g><g class="errorbar" style="opacity: 1;"><path class="yerror" d="M126.07,61.53h8m-4,0V64.01m-4,0h8" style="vector-effect: non-scaling-stroke; stroke-width: 2px; stroke: rgb(217, 95, 2); stroke-opacity: 1;"/></g><g class="errorbar" style="opacity: 1;"><path class="yerror" d="M150.45,58.93h8m-4,0V60.34m-4,0h8" style="vector-effect: non-scaling-stroke; stroke-width: 2px; stroke: rgb(217, 95, 2); stroke-opacity: 1;"/></g><g class="errorbar" style="opacity: 1;"><path class="yerror" d="M183.53,61.1h8m-4,0V64.63m-4,0h8" style="vector-effect: non-scaling-stroke; stroke-width: 2px; stroke: rgb(217, 95, 2); stroke-opacity: 1;"/></g></g><g class="lines"><path class="js-line" d="M0.79,40.33L32.03,44.64L65.12,43.68L99.19,51.04L130.07,62.68L154.45,59.61L187.53,62.68" style="vector-effect: non-scaling-stroke; fill: none; stroke: rgb(217, 95, 2); stroke-opacity: 1; stroke-width: 3px; opacity: 1;"/></g><g class="points"><path class="point" transform="translate(0.79,40.33)" d="M1.5,0A1.5,1.5 0 1,1 0,-1.5A1.5,1.5 0 0,1 1.5,0Z" style="opacity: 1; stroke-width: 0px; fill: rgb(217, 95, 2); fill-opacity: 1;"/><path class="point" transform="translate(32.03,44.64)" d="M1.5,0A1.5,1.5 0 1,1 0,-1.5A1.5,1.5 0 0,1 1.5,0Z" style="opacity: 1; stroke-width: 0px; fill: rgb(217, 95, 2); fill-opacity: 1;"/><path class="point" transform="translate(65.12,43.68)" d="M1.5,0A1.5,1.5 0 1,1 0,-1.5A1.5,1.5 0 0,1 1.5,0Z" style="opacity: 1; stroke-width: 0px; fill: rgb(217, 95, 2); fill-opacity: 1;"/><path class="point" transform="translate(99.19,51.04)" d="M1.5,0A1.5,1.5 0 1,1 0,-1.5A1.5,1.5 0 0,1 1.5,0Z" style="opacity: 1; stroke-width: 0px; fill: rgb(217, 95, 2); fill-opacity: 1;"/><path class="point" transform="translate(130.07,62.68)" d="M1.5,0A1.5,1.5 0 1,1 0,-1.5A1.5,1.5 0 0,1 1.5,0Z" style="opacity: 1; stroke-width: 0px; fill: rgb(217, 95, 2); fill-opacity: 1;"/><path class="point" transform="translate(154.45,59.61)" d="M1.5,0A1.5,1.5 0 1,1 0,-1.5A1.5,1.5 0 0,1 1.5,0Z" style="opacity: 1; stroke-width: 0px; fill: rgb(217, 95, 2); fill-opacity: 1;"/><path class="point" transform="translate(187.53,62.68)" d="M1.5,0A1.5,1.5 0 1,1 0,-1.5A1.5,1.5 0 0,1 1.5,0Z" style="opacity: 1; stroke-width: 0px; fill: rgb(217, 95, 2); fill-opacity: 1;"/></g><g class="text"/></g></g></g><g class="overplot"/><path class="xlines-above crisp" d="M0,0" style="fill: none;"/><path class="ylines-above crisp" d="M0,0" style="fill: none;"/><g class="overlines-above"/><g class="xaxislayer-above"><g class="x2tick"><text text-anchor="middle" x="0" y="218" transform="translate(75.8,0)" style="font-family: 'Open Sans', verdana, arial, sans-serif; font-size: 10px; fill: rgb(0, 0, 0); fill-opacity: 1; white-space: pre; opacity: 1;">250</text></g><g class="x2tick"><text text-anchor="middle" x="0" y="218" style="font-family: 'Open Sans', verdana, arial, sans-serif; font-size: 10px; fill: rgb(0, 0, 0); fill-opacity: 1; white-space: pre; opacity: 1;" transform="translate(141.65,0)">300</text></g><g class="x2tick"><text text-anchor="middle" x="0" y="218" style="font-family: 'Open Sans', verdana, arial, sans-serif; font-size: 10px; fill: rgb(0, 0, 0); fill-opacity: 1; white-space: pre; opacity: 1;" transform="translate(207.49,0)">350</text></g></g><g class="yaxislayer-above"><g class="y2tick"><text text-anchor="end" x="59" y="3.5" transform="translate(0,207.005)" style="font-family: 'Open Sans', verdana, arial, sans-serif; font-size: 10px; fill: rgb(0, 0, 0); fill-opacity: 1; white-space: pre; opacity: 1;">1M</text></g><g class="y2tick"><text text-anchor="end" x="59" y="3.5" style="font-family: 'Open Sans', verdana, arial, sans-serif; font-size: 10px; fill: rgb(0, 0, 0); fill-opacity: 1; white-space: pre; opacity: 1;" transform="translate(0,187.135)">10M</text></g><g class="y2tick"><text text-anchor="end" x="59" y="3.5" style="font-family: 'Open Sans', verdana, arial, sans-serif; font-size: 10px; fill: rgb(0, 0, 0); fill-opacity: 1; white-space: pre; opacity: 1;" transform="translate(0,167.265)">100M</text></g><g class="y2tick"><text text-anchor="end" x="59" y="3.5" style="font-family: 'Open Sans', verdana, arial, sans-serif; font-size: 10px; fill: rgb(0, 0, 0); fill-opacity: 1; white-space: pre; opacity: 1;" transform="translate(0,147.39499999999998)">1B</text></g><g class="y2tick"><text text-anchor="end" x="59" y="3.5" style="font-family: 'Open Sans', verdana, arial, sans-serif; font-size: 10px; fill: rgb(0, 0, 0); fill-opacity: 1; white-space: pre; opacity: 1;" transform="translate(0,127.52499999999999)">10B</text></g></g><g class="overaxes-above"/></g></g><g class="polarlayer"/><g class="smithlayer"/><g class="ternarylayer"/><g class="geolayer"/><g class="funnelarealayer"/><g class="pielayer"/><g class="iciclelayer"/><g class="treemaplayer"/><g class="sunburstlayer"/><g class="glimages"/><defs id="topdefs-2be189"><g class="clips"/></defs><g class="layer-above"><g class="imagelayer"/><g class="shapelayer"/></g><g class="infolayer"><g class="g-gtitle"/><g class="g-xtitle"/><g class="g-x2title"><text class="x2title" x="153.5" y="238" text-anchor="middle" style="font-family: 'Open Sans', verdana, arial, sans-serif; font-size: 10px; fill: rgb(0, 0, 0); opacity: 1; font-weight: normal; white-space: pre;">Time [h]</text></g><g class="g-ytitle"/><g class="g-y2title"/></g></svg>