<svg class="main-svg" xmlns="http://www.w3.org/2000/svg" xmlns:xlink="http://www.w3.org/1999/xlink" width="372" height="250" style="" viewBox="0 0 372 250"><rect x="0" y="0" width="372" height="250" style="fill: rgb(255, 255, 255); fill-opacity: 1;"/><defs id="defs-8476eb"><g class="clips"><clipPath id="clip8476ebxyplot" class="plotclip"><rect width="187" height="79.47500000000001"/></clipPath><clipPath id="clip8476ebx2y2plot" class="plotclip"><rect width="187" height="79.475"/></clipPath><clipPath class="axesclip" id="clip8476ebx"><rect x="60" y="0" width="187" height="250"/></clipPath><clipPath class="axesclip" id="clip8476eby"><rect x="0" y="20" width="372" height="79.47500000000001"/></clipPath><clipPath class="axesclip" id="clip8476ebxy"><rect x="60" y="20" width="187" height="79.47500000000001"/></clipPath><clipPath class="axesclip" id="clip8476eby2"><rect x="0" y="127.52499999999999" width="372" height="79.475"/></clipPath><clipPath class="axesclip" id="clip8476ebxy2"><rect x="60" y="127.52499999999999" width="187" height="79.475"/></clipPath><clipPath class="axesclip" id="clip8476ebx2"><rect x="60" y="0" width="187" height="250"/></clipPath><clipPath class="axesclip" id="clip8476ebx2y"><rect x="60" y="20" width="187" height="79.47500000000001"/></clipPath><clipPath class="axesclip" id="clip8476ebx2y2"><rect x="60" y="127.52499999999999" width="187" height="79.475"/></clipPath></g><g class="gradients"/><g class="patterns"/></defs><g class="bglayer"><rect class="bg" x="60" y="20" width="187" height="79.47500000000001" style="fill: rgb(229, 236, 246); fill-opacity: 1; stroke-width: 0;"/><rect class="bg" x="60" y="127.52499999999999" width="187" height="79.475" style="fill: rgb(229, 236, 246); fill-opacity: 1; stroke-width: 0;"/></g><g class="layer-below"><g class="imagelayer"/><g class="shapelayer"/></g><g class="cartesianlayer"><g class="subplot xy"><g class="layer-subplot"><g class="shapelayer"/><g class="imagelayer"/></g><g class="minor-gridlayer"><g class="x"/><g class="y"/></g><g class="gridlayer"><g class="x"><path class="xgrid crisp" transform="translate(115.33,0)" d="M0,20v79.47500000000001" style="stroke: rgb(255, 255, 255); stroke-opacity: 1; stroke-width: 1px;"/><path class="xgrid crisp" transform="translate(170.65,0)" d="M0,20v79.47500000000001" style="stroke: rgb(255, 255, 255); stroke-opacity: 1; stroke-width: 1px;"/><path class="xgrid crisp" transform="translate(225.98,0)" d="M0,20v79.47500000000001" style="stroke: rgb(255, 255, 255); stroke-opacity: 1; stroke-width: 1px;"/></g><g class="y"><path class="ygrid crisp" transform="translate(0,72.97999999999999)" d="M60,0h187" style="stroke: rgb(255, 255, 255); stroke-opacity: 1; stroke-width: 1px;"/><path class="ygrid crisp" transform="translate(0,46.489999999999995)" d="M60,0h187" style="stroke: rgb(255, 255, 255); stroke-opacity: 1; stroke-width: 1px;"/></g></g><g class="zerolinelayer"><path class="yzl zl crisp" transform="translate(0,99.48)" d="M60,0h187" style="stroke: rgb(255, 255, 255); stroke-opacity: 1; stroke-width: 2px;"/></g><path class="xlines-below"/><path class="ylines-below"/><g class="overlines-below"/><g class="xaxislayer-below"/><g class="yaxislayer-below"/><g class="overaxes-below"/><g class="plot" transform="translate(60,20)" clip-path="url(#clip8476ebxyplot)"><g class="scatterlayer mlayer"><g class="trace scatter trace377a8d" style="stroke-miterlimit: 2; opacity: 1;"><g class="fills"/><g class="errorbars"/><g class="lines"><path class="js-line" d="M-75.75,44.33L-68.36,34.87L-67.81,35.36L-67.63,36.35L-63.93,31.21L-62.46,33.31L-62.27,33.96L-57.29,36L-57.1,35.6L-55.44,34.94L-54.33,36.7L-54.15,37.19L-46.21,35.81L-46.03,36.36L-41.78,38.06L-41.6,37.65L-39.2,39.48L-39.01,39.34L-38.83,39.1L-35.69,40.05L-35.5,40.1L-28.86,41.12L-28.67,41.1L-23.14,41.46L-22.95,41.51L-16.31,41.2L-16.12,41.03L-11.69,40.18L-11.51,40.32L-8.37,40.25L-8.18,40.17L-6.15,40.28L-5.97,40.24L-3.01,39.5L-2.83,39.72L-1.91,39.68L-1.72,39.81L-0.61,40.41L-0.43,40.4L0.68,40.39L0.86,40.52L3.08,40.49L3.26,40.47L5.11,40.8L5.29,40.55L7.14,38.98L7.33,38.2L11.2,30.97L11.39,30.85L11.76,30.81L11.94,29.93L12.86,29.28L13.05,29.6L13.23,30.03L14.53,29.24L14.71,29.63L16.37,32.01L16.56,31.51L17.85,33.92L18.03,33.15L18.22,32.65L18.96,34.86L19.33,34.6L19.51,34.93L20.62,36.43L20.8,35.95L21.17,34.46L21.54,35.16L21.73,35.24L23.39,36.7L23.57,36.85L25.42,38.7L25.6,38.36L26.89,39.7L27.08,39.23L27.26,39.06L28,39.75L28.19,39.81L29.66,38.89L29.85,39.49L30.03,39.46L33.36,39.32L33.54,38.93L33.72,39.38L34.09,38.87L34.28,38.25L34.83,37L35.2,37.39L35.39,37.71L36.49,37.84L36.68,37.94L37.42,37.51L37.6,37.29L38.89,34.56L39.08,34.07L40.92,29.37L41.11,30.08L41.85,32.3L42.03,33.81L43.32,38.35L43.51,37.77L43.69,36.93L44.25,37.41L44.43,37.27L45.72,38.51L45.91,38.17L46.28,37.81L47.39,39.71L47.57,39.45L48.31,38.47L48.49,39.35L49.23,38.06L49.42,38.96L50.15,39.38L50.34,39.04L50.52,38.93L51.82,40.1L52,39.62L52.55,40.09L52.92,39.55L53.11,39.48L54.03,40.04L54.22,39.99L54.77,39.98L54.95,39.67L55.14,38.93L56.06,39.77L56.25,39.61L56.43,39.17L56.99,38.87L57.17,39.57L57.36,39.33L58.65,39.06L58.83,38.59L60.12,37.5L60.31,37.48L61.6,36.93L61.79,37.33L62.89,38.1L63.08,37.83L64.37,37.56L64.56,37.92L65.48,37.89L65.66,37.85L66.03,38.49L66.22,37.58L66.4,37.43L68.25,37.3L68.43,36.72L68.99,37.62L69.17,37.77L70.83,36.58L71.02,36.9L71.2,37.26L73.79,39.61L73.97,39.52L76,39.59L76.19,39.77L80.62,40.46L80.8,40.82L81.54,39.9L81.91,40.2L82.09,40.24L82.28,39.99L82.65,40.65L82.83,40.75L83.02,41.2L83.57,40.88L83.76,40.99L86.16,40.8L86.34,40.62L86.71,39.37L87.08,40.13L87.26,40.18L88.19,40.29L88.37,40.11L91.51,39.93L91.7,40.07L92.62,39.56L92.8,39.3L93.73,38.95L93.91,39.17L95.94,34.94L96.13,34.94L96.31,35.49L96.5,34.87L96.68,34.14L97.97,33.18L98.16,32.79L99.26,33.72L99.45,33.55L100.74,35.25L100.93,35L101.11,34.94L104.62,36.86L104.8,36.7L105.54,35.82L105.73,36.13L105.91,36.79L107.02,37.63L107.2,37.58L107.57,38.05L107.94,37.32L108.13,38.09L109.23,37.39L109.42,37.84L109.6,37.94L110.53,39.16L110.71,38.11L111.26,38.53L111.45,39.14L111.63,38.26L112.19,38.94L112.37,39.76L112.74,39.32L113.11,39.73L113.3,39.59L113.48,39.76L113.85,39.2L114.03,38.58L114.4,37.75L114.59,36.93L115.51,36.39L115.7,34.79L115.88,35.86L116.25,34.66L116.43,34.28L117.17,34.94L117.36,33.97L117.91,34.98L118.1,34.77L118.28,34.29L118.65,32.86L119.2,33.29L119.39,33.88L121.79,28.92L121.97,29.05L122.53,28.67L122.71,28.9L122.9,29.82L124.19,27.77L124.37,27.98L124.56,28.44L126.59,30.69L126.77,30.29L126.96,30.37L127.69,30.31L127.88,31.73L128.62,32.44L128.8,32.19L128.99,31.48L129.73,31.96L129.91,31.55L130.46,29.42L130.83,29.6L131.02,30.17L131.57,29.18L131.76,29.62L131.94,30.21L133.97,32.44L134.16,31.13L134.53,30.51L134.89,30.74L135.08,31.55L135.45,30.75L135.63,32.74L135.82,31.66L136,31.32L136.19,32.44L136.37,30.75L136.56,29.88L138.22,28.09L138.4,28.52L138.59,28.48L138.77,27.37L139.69,25.9L139.88,27.25L140.25,27.79L140.62,27.17L140.8,26.96L142.09,24.51L142.28,24.4L144.86,23.65L145.05,24.04L146.71,23.05L146.89,23.12L149.11,23.51L149.29,24.14L150.22,24.74L150.4,24.53L151.33,26.17L151.51,26.32L152.25,26.64L152.43,27.09L153.36,27.14L153.54,27.91L154.09,27.63L154.28,28.01L154.46,28.3L154.83,28.35L155.02,28.63L155.2,28.69L156.13,29.58L156.31,29.14L156.49,29.32L158.52,32.16L158.71,32.09L161.48,34.96L161.66,34.84L162.59,33.71L162.77,34.08L163.14,34.49L163.32,34.16L163.51,33.74L163.69,34.14L164.06,33.22L164.25,33.36L164.62,32.08L164.99,32.67L165.17,32.58L166.28,33.96L166.46,33.29L166.65,32.98L167.94,35.54L168.13,35.4L168.31,35.18L168.49,35.77L168.68,36.54L169.97,38.46L170.16,37.89L170.34,37.41L170.71,38.36L170.89,38.71L171.63,38.25L171.82,38.73L172,37.74L172.56,37.91L172.74,39.12L173.66,37.46L173.85,38.13L174.77,38.48L174.96,37.46L175.88,39.37L176.06,39.17L177.17,39.47L177.36,37.86L177.54,36.77L177.73,37.42L177.91,39.29L178.09,40.18L178.46,38.73L178.65,39.5L178.83,39.89L179.76,41.04L179.94,40.67L180.13,40.55L181.6,40.02L181.79,39.7L182.34,40.1L182.52,39.51L182.71,39.33L184.37,36.34L184.74,36.92L184.92,37.2L185.66,37.84L185.85,37.37L186.03,37.1L186.22,37L186.4,37.94L186.96,37.81" style="vector-effect: non-scaling-stroke; fill: none; stroke: rgb(131, 130, 133); stroke-opacity: 1; stroke-width: 3px; opacity: 1;"/></g><g class="points"/><g class="text"/></g></g></g><g class="overplot"/><path class="xlines-above crisp" d="M0,0" style="fill: none;"/><path class="ylines-above crisp" d="M0,0" style="fill: none;"/><g class="overlines-above"/><g class="xaxislayer-above"><g class="xtick"><text text-anchor="middle" x="0" y="110.47500000000001" transform="translate(60,0)" style="font-family: 'Open Sans', verdana, arial, sans-serif; font-size: 10px; fill: rgb(0, 0, 0); fill-opacity: 1; white-space: pre; opacity: 1;">450</text></g><g class="xtick"><text text-anchor="middle" x="0" y="110.47500000000001" style="font-family: 'Open Sans', verdana, arial, sans-serif; font-size: 10px; fill: rgb(0, 0, 0); fill-opacity: 1; white-space: pre; opacity: 1;" transform="translate(115.33,0)">500</text></g><g class="xtick"><text text-anchor="middle" x="0" y="110.47500000000001" style="font-family: 'Open Sans', verdana, arial, sans-serif; font-size: 10px; fill: rgb(0, 0, 0); fill-opacity: 1; white-space: pre; opacity: 1;" transform="translate(170.65,0)">550</text></g><g class="xtick"><text text-anchor="middle" x="0" y="110.47500000000001" style="font-family: 'Open Sans', verdana, arial, sans-serif; font-size: 10px; fill: rgb(0, 0, 0); fill-opacity: 1; white-space: pre; opacity: 1;" transform="translate(225.98,0)">600</text></g></g><g class="yaxislayer-above"><g class="ytick"><text text-anchor="end" x="59" y="3.5" transform="translate(0,99.48)" style="font-family: 'Open Sans', verdana, arial, sans-serif; font-size: 10px; fill: rgb(0, 0, 0); fill-opacity: 1; white-space: pre; opacity: 1;">0</text></g><g class="ytick"><text text-anchor="end" x="59" y="3.5" style="font-family: 'Open Sans', verdana, arial, sans-serif; font-size: 10px; fill: rgb(0, 0, 0); fill-opacity: 1; white-space: pre; opacity: 1;" transform="translate(0,72.97999999999999)">0.2</text></g><g class="ytick"><text text-anchor="end" x="59" y="3.5" style="font-family: 'Open Sans', verdana, arial, sans-serif; font-size: 10px; fill: rgb(0, 0, 0); fill-opacity: 1; white-space: pre; opacity: 1;" transform="translate(0,46.489999999999995)">0.4</text></g><g class="ytick"><text text-anchor="end" x="59" y="3.5" style="font-family: 'Open Sans', verdana, arial, sans-serif; font-size: 10px; fill: rgb(0, 0, 0); fill-opacity: 1; white-space: pre; opacity: 1;" transform="translate(0,20)">0.6</text></g></g><g class="overaxes-above"/></g><g class="subplot x2y2"><g class="layer-subplot"><g class="shapelayer"/><g class="imagelayer"/></g><g class="minor-gridlayer"><g class="x2"/><g class="y2"/></g><g class="gridlayer"><g class="x2"><path class="x2grid crisp" transform="translate(115.33,0)" d="M0,127.52499999999999v79.475" style="stroke: rgb(255, 255, 255); stroke-opacity: 1; stroke-width: 1px;"/><path class="x2grid crisp" transform="translate(170.65,0)" d="M0,127.52499999999999v79.475" style="stroke: rgb(255, 255, 255); stroke-opacity: 1; stroke-width: 1px;"/><path class="x2grid crisp" transform="translate(225.98,0)" d="M0,127.52499999999999v79.475" style="stroke: rgb(255, 255, 255); stroke-opacity: 1; stroke-width: 1px;"/></g><g class="y2"><path class="y2grid crisp" transform="translate(0,187.135)" d="M60,0h187" style="stroke: rgb(255, 255, 255); stroke-opacity: 1; stroke-width: 1px;"/><path class="y2grid crisp" transform="translate(0,167.265)" d="M60,0h187" style="stroke: rgb(255, 255, 255); stroke-opacity: 1; stroke-width: 1px;"/><path class="y2grid crisp" transform="translate(0,147.39499999999998)" d="M60,0h187" style="stroke: rgb(255, 255, 255); stroke-opacity: 1; stroke-width: 1px;"/></g></g><g class="zerolinelayer"/><path class="xlines-below"/><path class="ylines-below"/><g class="overlines-below"/><g class="xaxislayer-below"/><g class="yaxislayer-below"/><g class="overaxes-below"/><g class="plot" transform="translate(60,127.52499999999999)" clip-path="url(#clip8476ebx2y2plot)"><g class="scatterlayer mlayer"><g class="trace scatter trace89a01b" style="stroke-miterlimit: 2; opacity: 1;"><g class="fills"/><g class="errorbars"><g class="errorbar" style="opacity: 1;"><path class="yerror" d="M-0.79,44.15h8m-4,0V44.15m-4,0h8" style="vector-effect: non-scaling-stroke; stroke-width: 2px; stroke: rgb(117, 112, 179); stroke-opacity: 1;"/></g><g class="errorbar" style="opacity: 1;"><path class="yerror" d="M24.63,50.28h8m-4,0V52.6m-4,0h8" style="vector-effect: non-scaling-stroke; stroke-width: 2px; stroke: rgb(117, 112, 179); stroke-opacity: 1;"/></g><g class="errorbar" style="opacity: 1;"><path class="yerror" d="M53.33,37.66h8m-4,0V43.31m-4,0h8" style="vector-effect: non-scaling-stroke; stroke-width: 2px; stroke: rgb(117, 112, 179); stroke-opacity: 1;"/></g><g class="errorbar" style="opacity: 1;"><path class="yerror" d="M78.27,36.71h8m-4,0V37.96m-4,0h8" style="vector-effect: non-scaling-stroke; stroke-width: 2px; stroke: rgb(117, 112, 179); stroke-opacity: 1;"/></g><g class="errorbar" style="opacity: 1;"><path class="yerror" d="M109.1,36.34h8m-4,0V37.35m-4,0h8" style="vector-effect: non-scaling-stroke; stroke-width: 2px; stroke: rgb(117, 112, 179); stroke-opacity: 1;"/></g><g class="errorbar" style="opacity: 1;"><path class="yerror" d="M134.6,37.74h8m-4,0V45.06m-4,0h8" style="vector-effect: non-scaling-stroke; stroke-width: 2px; stroke: rgb(117, 112, 179); stroke-opacity: 1;"/></g><g class="errorbar" style="opacity: 1;"><path class="yerror" d="M159.58,34h8m-4,0V36.5m-4,0h8" style="vector-effect: non-scaling-stroke; stroke-width: 2px; stroke: rgb(117, 112, 179); stroke-opacity: 1;"/></g><g class="errorbar" style="opacity: 1;"><path class="yerror" d="M183,36.99h8m-4,0V43.78m-4,0h8" style="vector-effect: non-scaling-stroke; stroke-width: 2px; stroke: rgb(117, 112, 179); stroke-opacity: 1;"/></g></g><g class="lines"><path class="js-line" d="M3.21,44.15L28.63,51.36L57.33,40.03L82.27,37.31L113.1,36.83L138.6,40.65L163.58,35.16L187,39.74" style="vector-effect: non-scaling-stroke; fill: none; stroke: rgb(117, 112, 179); stroke-opacity: 1; stroke-width: 3px; opacity: 1;"/></g><g class="points"><path class="point" transform="translate(3.21,44.15)" d="M1.5,0A1.5,1.5 0 1,1 0,-1.5A1.5,1.5 0 0,1 1.5,0Z" style="opacity: 1; stroke-width: 0px; fill: rgb(117, 112, 179); fill-opacity: 1;"/><path class="point" transform="translate(28.63,51.36)" d="M1.5,0A1.5,1.5 0 1,1 0,-1.5A1.5,1.5 0 0,1 1.5,0Z" style="opacity: 1; stroke-width: 0px; fill: rgb(117, 112, 179); fill-opacity: 1;"/><path class="point" transform="translate(57.33,40.03)" d="M1.5,0A1.5,1.5 0 1,1 0,-1.5A1.5,1.5 0 0,1 1.5,0Z" style="opacity: 1; stroke-width: 0px; fill: rgb(117, 112, 179); fill-opacity: 1;"/><path class="point" transform="translate(82.27,37.31)" d="M1.5,0A1.5,1.5 0 1,1 0,-1.5A1.5,1.5 0 0,1 1.5,0Z" style="opacity: 1; stroke-width: 0px; fill: rgb(117, 112, 179); fill-opacity: 1;"/><path class="point" transform="translate(113.1,36.83)" d="M1.5,0A1.5,1.5 0 1,1 0,-1.5A1.5,1.5 0 0,1 1.5,0Z" style="opacity: 1; stroke-width: 0px; fill: rgb(117, 112, 179); fill-opacity: 1;"/><path class="point" transform="translate(138.6,40.65)" d="M1.5,0A1.5,1.5 0 1,1 0,-1.5A1.5,1.5 0 0,1 1.5,0Z" style="opacity: 1; stroke-width: 0px; fill: rgb(117, 112, 179); fill-opacity: 1;"/><path class="point" transform="translate(163.58,35.16)" d="M1.5,0A1.5,1.5 0 1,1 0,-1.5A1.5,1.5 0 0,1 1.5,0Z" style="opacity: 1; stroke-width: 0px; fill: rgb(117, 112, 179); fill-opacity: 1;"/><path class="point" transform="translate(187,39.74)" d="M1.5,0A1.5,1.5 0 1,1 0,-1.5A1.5,1.5 0 0,1 1.5,0Z" style="opacity: 1; stroke-width: 0px; fill: rgb(117, 112, 179); fill-opacity: 1;"/></g><g class="text"/></g><g class="trace scatter traceafbd18" style="stroke-miterlimit: 2; opacity: 1;"><g class="fills"/><g class="errorbars"><g class="errorbar" style="opacity: 1;"><path class="yerror" d="M-0.79,65.74h8m-4,0V68.06m-4,0h8" style="vector-effect: non-scaling-stroke; stroke-width: 2px; stroke: rgb(217, 95, 2); stroke-opacity: 1;"/></g><g class="errorbar" style="opacity: 1;"><path class="yerror" d="M24.63,63.72h8m-4,0V66.9m-4,0h8" style="vector-effect: non-scaling-stroke; stroke-width: 2px; stroke: rgb(217, 95, 2); stroke-opacity: 1;"/></g><g class="errorbar" style="opacity: 1;"><path class="yerror" d="M53.33,52.57h8m-4,0V55.88m-4,0h8" style="vector-effect: non-scaling-stroke; stroke-width: 2px; stroke: rgb(217, 95, 2); stroke-opacity: 1;"/></g><g class="errorbar" style="opacity: 1;"><path class="yerror" d="M78.27,52.73h8m-4,0V54m-4,0h8" style="vector-effect: non-scaling-stroke; stroke-width: 2px; stroke: rgb(217, 95, 2); stroke-opacity: 1;"/></g><g class="errorbar" style="opacity: 1;"><path class="yerror" d="M109.1,52.3h8m-4,0V56.59m-4,0h8" style="vector-effect: non-scaling-stroke; stroke-width: 2px; stroke: rgb(217, 95, 2); stroke-opacity: 1;"/></g><g class="errorbar" style="opacity: 1;"><path class="yerror" d="M134.6,54.91h8m-4,0V56.85m-4,0h8" style="vector-effect: non-scaling-stroke; stroke-width: 2px; stroke: rgb(217, 95, 2); stroke-opacity: 1;"/></g><g class="errorbar" style="opacity: 1;"><path class="yerror" d="M159.58,48.8h8m-4,0V52.6m-4,0h8" style="vector-effect: non-scaling-stroke; stroke-width: 2px; stroke: rgb(217, 95, 2); stroke-opacity: 1;"/></g><g class="errorbar" style="opacity: 1;"><path class="yerror" d="M183,53.78h8m-4,0V57.44m-4,0h8" style="vector-effect: non-scaling-stroke; stroke-width: 2px; stroke: rgb(217, 95, 2); stroke-opacity: 1;"/></g></g><g class="lines"><path class="js-line" d="M3.21,66.82L28.63,65.17L57.33,54.07L82.27,53.34L113.1,54.18L138.6,55.82L163.58,50.49L187,55.42" style="vector-effect: non-scaling-stroke; fill: none; stroke: rgb(217, 95, 2); stroke-opacity: 1; stroke-width: 3px; opacity: 1;"/></g><g class="points"><path class="point" transform="translate(3.21,66.82)" d="M1.5,0A1.5,1.5 0 1,1 0,-1.5A1.5,1.5 0 0,1 1.5,0Z" style="opacity: 1; stroke-width: 0px; fill: rgb(217, 95, 2); fill-opacity: 1;"/><path class="point" transform="translate(28.63,65.17)" d="M1.5,0A1.5,1.5 0 1,1 0,-1.5A1.5,1.5 0 0,1 1.5,0Z" style="opacity: 1; stroke-width: 0px; fill: rgb(217, 95, 2); fill-opacity: 1;"/><path class="point" transform="translate(57.33,54.07)" d="M1.5,0A1.5,1.5 0 1,1 0,-1.5A1.5,1.5 0 0,1 1.5,0Z" style="opacity: 1; stroke-width: 0px; fill: rgb(217, 95, 2); fill-opacity: 1;"/><path class="point" transform="translate(82.27,53.34)" d="M1.5,0A1.5,1.5 0 1,1 0,-1.5A1.5,1.5 0 0,1 1.5,0Z" style="opacity: 1; stroke-width: 0px; fill: rgb(217, 95, 2); fill-opacity: 1;"/><path class="point" transform="translate(113.1,54.18)" d="M1.5,0A1.5,1.5 0 1,1 0,-1.5A1.5,1.5 0 0,1 1.5,0Z" style="opacity: 1; stroke-width: 0px; fill: rgb(217, 95, 2); fill-opacity: 1;"/><path class="point" transform="translate(138.6,55.82)" d="M1.5,0A1.5,1.5 0 1,1 0,-1.5A1.5,1.5 0 0,1 1.5,0Z" style="opacity: 1; stroke-width: 0px; fill: rgb(217, 95, 2); fill-opacity: 1;"/><path class="point" transform="translate(163.58,50.49)" d="M1.5,0A1.5,1.5 0 1,1 0,-1.5A1.5,1.5 0 0,1 1.5,0Z" style="opacity: 1; stroke-width: 0px; fill: rgb(217, 95, 2); fill-opacity: 1;"/><path class="point" transform="translate(187,55.42)" d="M1.5,0A1.5,1.5 0 1,1 0,-1.5A1.5,1.5 0 0,1 1.5,0Z" style="opacity: 1; stroke-width: 0px; fill: rgb(217, 95, 2); fill-opacity: 1;"/></g><g class="text"/></g></g></g><g class="overplot"/><path class="xlines-above crisp" d="M0,0" style="fill: none;"/><path class="ylines-above crisp" d="M0,0" style="fill: none;"/><g class="overlines-above"/><g class="xaxislayer-above"><g class="x2tick"><text text-anchor="middle" x="0" y="218" transform="translate(60,0)" style="font-family: 'Open Sans', verdana, arial, sans-serif; font-size: 10px; fill: rgb(0, 0, 0); fill-opacity: 1; white-space: pre; opacity: 1;">450</text></g><g class="x2tick"><text text-anchor="middle" x="0" y="218" style="font-family: 'Open Sans', verdana, arial, sans-serif; font-size: 10px; fill: rgb(0, 0, 0); fill-opacity: 1; white-space: pre; opacity: 1;" transform="translate(115.33,0)">500</text></g><g class="x2tick"><text text-anchor="middle" x="0" y="218" style="font-family: 'Open Sans', verdana, arial, sans-serif; font-size: 10px; fill: rgb(0, 0, 0); fill-opacity: 1; white-space: pre; opacity: 1;" transform="translate(170.65,0)">550</text></g><g class="x2tick"><text text-anchor="middle" x="0" y="218" style="font-family: 'Open Sans', verdana, arial, sans-serif; font-size: 10px; fill: rgb(0, 0, 0); fill-opacity: 1; white-space: pre; opacity: 1;" transform="translate(225.98,0)">600</text></g></g><g class="yaxislayer-above"><g class="y2tick"><text text-anchor="end" x="59" y="3.5" transform="translate(0,207.005)" style="font-family: 'Open Sans', verdana, arial, sans-serif; font-size: 10px; fill: rgb(0, 0, 0); fill-opacity: 1; white-space: pre; opacity: 1;">1M</text></g><g class="y2tick"><text text-anchor="end" x="59" y="3.5" style="font-family: 'Open Sans', verdana, arial, sans-serif; font-size: 10px; fill: rgb(0, 0, 0); fill-opacity: 1; white-space: pre; opacity: 1;" transform="translate(0,187.135)">10M</text></g><g class="y2tick"><text text-anchor="end" x="59" y="3.5" style="font-family: 'Open Sans', verdana, arial, sans-serif; font-size: 10px; fill: rgb(0, 0, 0); fill-opacity: 1; white-space: pre; opacity: 1;" transform="translate(0,167.265)">100M</text></g><g class="y2tick"><text text-anchor="end" x="59" y="3.5" style="font-family: 'Open Sans', verdana, arial, sans-serif; font-size: 10px; fill: rgb(0, 0, 0); fill-opacity: 1; white-space: pre; opacity: 1;" transform="translate(0,147.39499999999998)">1B</text></g><g class="y2tick"><text text-anchor="end" x="59" y="3.5" style="font-family: 'Open Sans', verdana, arial, sans-serif; font-size: 10px; fill: rgb(0, 0, 0); fill-opacity: 1; white-space: pre; opacity: 1;" transform="translate(0,127.52499999999999)">10B</text></g></g><g class="overaxes-above"/></g></g><g class="polarlayer"/><g class="smithlayer"/><g class="ternarylayer"/><g class="geolayer"/><g class="funnelarealayer"/><g class="pielayer"/><g class="iciclelayer"/><g class="treemaplayer"/><g class="sunburstlayer"/><g class="glimages"/><defs id="topdefs-8476eb"><g class="clips"/><clipPath id="legend8476eb"><rect width="109" height="67" x="0" y="0"/></clipPath></defs><g class="layer-above"><g class="imagelayer"/><g class="shapelayer"/></g><g class="infolayer"><g class="legend" pointer-events="all" transform="translate(250.74,20)"><rect class="bg" shape-rendering="crispEdges" width="109" height="67" x="0" y="0" style="stroke: rgb(68, 68, 68); stroke-opacity: 1; fill: rgb(255, 255, 255); fill-opacity: 1; stroke-width: 0px;"/><g class="scrollbox" transform="" clip-path="url(#legend8476eb)"><g class="groups"><g class="traces" transform="translate(0,14.5)" style="opacity: 1;"><text class="legendtext" text-anchor="start" x="40" y="3.9" style="font-family: 'Open Sans', verdana, arial, sans-serif; font-size: 10px; fill: rgb(0, 0, 0); fill-opacity: 1; white-space: pre;">OD</text><g class="layers" style="opacity: 1;"><g class="legendfill"/><g class="legendlines"><path class="js-line" d="M5,0h30" style="fill: none; stroke: rgb(131, 130, 133); stroke-opacity: 1; stroke-width: 3px;"/></g><g class="legendsymbols"><g class="legendpoints"/></g></g><rect class="legendtoggle" x="0" y="-9.5" width="103.09375" height="19" style="fill: rgb(0, 0, 0); fill-opacity: 0;"/></g><g class="traces" transform="translate(0,33.5)" style="opacity: 1;"><text class="legendtext" text-anchor="start" x="40" y="3.9" style="font-family: 'Open Sans', verdana, arial, sans-serif; font-size: 10px; fill: rgb(0, 0, 0); fill-opacity: 1; white-space: pre;"><tspan style="font-style:italic">C. testosteroni</tspan></text><g class="layers" style="opacity: 1;"><g class="legendfill"/><g class="legendlines"><path class="js-line" d="M5,0h30" style="fill: none; stroke: rgb(117, 112, 179); stroke-opacity: 1; stroke-width: 3px;"/></g><g class="legendsymbols"><g class="legendpoints"><path class="scatterpts" transform="translate(20,0)" d="M1.5,0A1.5,1.5 0 1,1 0,-1.5A1.5,1.5 0 0,1 1.5,0Z" style="opacity: 1; stroke-width: 0px; fill: rgb(117, 112, 179); fill-opacity: 1;"/></g></g></g><rect class="legendtoggle" x="0" y="-9.5" width="103.09375" height="19" style="fill: rgb(0, 0, 0); fill-opacity: 0;"/></g><g class="traces" transform="translate(0,52.5)" style="opacity: 1;"><text class="legendtext" text-anchor="start" x="40" y="3.9" style="font-family: 'Open Sans', verdana, arial, sans-serif; font-size: 10px; fill: rgb(0, 0, 0); fill-opacity: 1; white-space: pre;"><tspan style="font-style:italic">O. anthropi</tspan></text><g class="layers" style="opacity: 1;"><g class="legendfill"/><g class="legendlines"><path class="js-line" d="M5,0h30" style="fill: none; stroke: rgb(217, 95, 2); stroke-opacity: 1; stroke-width: 3px;"/></g><g class="legendsymbols"><g class="legendpoints"><path class="scatterpts" transform="translate(20,0)" d="M1.5,0A1.5,1.5 0 1,1 0,-1.5A1.5,1.5 0 0,1 1.5,0Z" style="opacity: 1; stroke-width: 0px; fill: rgb(217, 95, 2); fill-opacity: 1;"/></g></g></g><rect class="legendtoggle" x="0" y="-9.5" width="103.09375" height="19" style="fill: rgb(0, 0, 0); fill-opacity: 0;"/></g></g></g><rect class="scrollbar" rx="20" ry="3" width="0" height="0" x="0" y="0" style="fill: rgb(128, 139, 164); fill-opacity: 1;"/></g><g class="g-gtitle"/><g class="g-xtitle"/><g class="g-x2title"><text class="x2title" x="153.5" y="238" text-anchor="middle" style="font-family: 'Open Sans', verdana, arial, sans-serif; font-size: 10px; fill: rgb(0, 0, 0); opacity: 1; font-weight: normal; white-space: pre;">Time [h]</text></g><g class="g-ytitle"/><g class="g-y2title"/></g></svg>