<?xml version="1.0" encoding="utf-8" standalone="no"?>
<!DOCTYPE svg PUBLIC "-//W3C//DTD SVG 1.1//EN"
  "http://www.w3.org/Graphics/SVG/1.1/DTD/svg11.dtd">
<svg xmlns:xlink="http://www.w3.org/1999/xlink" width="296.347375pt" height="183.35625pt" viewBox="0 0 296.347375 183.35625" xmlns="http://www.w3.org/2000/svg" version="1.1">
 <metadata>
  <rdf:RDF xmlns:dc="http://purl.org/dc/elements/1.1/" xmlns:cc="http://creativecommons.org/ns#" xmlns:rdf="http://www.w3.org/1999/02/22-rdf-syntax-ns#">
   <cc:Work>
    <dc:type rdf:resource="http://purl.org/dc/dcmitype/StillImage"/>
    <dc:date>2023-10-09T14:20:37.358357</dc:date>
    <dc:format>image/svg+xml</dc:format>
    <dc:creator>
     <cc:Agent>
      <dc:title>Matplotlib v3.5.1, https://matplotlib.org/</dc:title>
     </cc:Agent>
    </dc:creator>
   </cc:Work>
  </rdf:RDF>
 </metadata>
 <defs>
  <style type="text/css">*{stroke-linejoin: round; stroke-linecap: butt}</style>
 </defs>
 <g id="figure_1">
  <g id="patch_1">
   <path d="M -0 183.35625 
L 296.347375 183.35625 
L 296.347375 0 
L -0 0 
z
" style="fill: #ffffff"/>
  </g>
  <g id="axes_1">
   <g id="patch_2">
    <path d="M 69.23125 145.8 
L 218.03125 145.8 
L 218.03125 7.2 
L 69.23125 7.2 
z
" style="fill: #ffffff"/>
   </g>
   <g id="matplotlib.axis_1">
    <g id="xtick_1">
     <g id="line2d_1">
      <defs>
       <path id="mc3262d14ae" d="M 0 0 
L 0 3.5 
" style="stroke: #000000; stroke-width: 0.8"/>
      </defs>
      <g>
       <use xlink:href="#mc3262d14ae" x="69.23125" y="145.8" style="stroke: #000000; stroke-width: 0.8"/>
      </g>
     </g>
     <g id="text_1">
      <!-- 0.0 -->
      <g transform="translate(61.279688 160.398438)scale(0.1 -0.1)">
       <defs>
        <path id="DejaVuSans-30" d="M 2034 4250 
Q 1547 4250 1301 3770 
Q 1056 3291 1056 2328 
Q 1056 1369 1301 889 
Q 1547 409 2034 409 
Q 2525 409 2770 889 
Q 3016 1369 3016 2328 
Q 3016 3291 2770 3770 
Q 2525 4250 2034 4250 
z
M 2034 4750 
Q 2819 4750 3233 4129 
Q 3647 3509 3647 2328 
Q 3647 1150 3233 529 
Q 2819 -91 2034 -91 
Q 1250 -91 836 529 
Q 422 1150 422 2328 
Q 422 3509 836 4129 
Q 1250 4750 2034 4750 
z
" transform="scale(0.015625)"/>
        <path id="DejaVuSans-2e" d="M 684 794 
L 1344 794 
L 1344 0 
L 684 0 
L 684 794 
z
" transform="scale(0.015625)"/>
       </defs>
       <use xlink:href="#DejaVuSans-30"/>
       <use xlink:href="#DejaVuSans-2e" x="63.623047"/>
       <use xlink:href="#DejaVuSans-30" x="95.410156"/>
      </g>
     </g>
    </g>
    <g id="xtick_2">
     <g id="line2d_2">
      <g>
       <use xlink:href="#mc3262d14ae" x="106.43125" y="145.8" style="stroke: #000000; stroke-width: 0.8"/>
      </g>
     </g>
     <g id="text_2">
      <!-- 2.5 -->
      <g transform="translate(98.479688 160.398438)scale(0.1 -0.1)">
       <defs>
        <path id="DejaVuSans-32" d="M 1228 531 
L 3431 531 
L 3431 0 
L 469 0 
L 469 531 
Q 828 903 1448 1529 
Q 2069 2156 2228 2338 
Q 2531 2678 2651 2914 
Q 2772 3150 2772 3378 
Q 2772 3750 2511 3984 
Q 2250 4219 1831 4219 
Q 1534 4219 1204 4116 
Q 875 4013 500 3803 
L 500 4441 
Q 881 4594 1212 4672 
Q 1544 4750 1819 4750 
Q 2544 4750 2975 4387 
Q 3406 4025 3406 3419 
Q 3406 3131 3298 2873 
Q 3191 2616 2906 2266 
Q 2828 2175 2409 1742 
Q 1991 1309 1228 531 
z
" transform="scale(0.015625)"/>
        <path id="DejaVuSans-35" d="M 691 4666 
L 3169 4666 
L 3169 4134 
L 1269 4134 
L 1269 2991 
Q 1406 3038 1543 3061 
Q 1681 3084 1819 3084 
Q 2600 3084 3056 2656 
Q 3513 2228 3513 1497 
Q 3513 744 3044 326 
Q 2575 -91 1722 -91 
Q 1428 -91 1123 -41 
Q 819 9 494 109 
L 494 744 
Q 775 591 1075 516 
Q 1375 441 1709 441 
Q 2250 441 2565 725 
Q 2881 1009 2881 1497 
Q 2881 1984 2565 2268 
Q 2250 2553 1709 2553 
Q 1456 2553 1204 2497 
Q 953 2441 691 2322 
L 691 4666 
z
" transform="scale(0.015625)"/>
       </defs>
       <use xlink:href="#DejaVuSans-32"/>
       <use xlink:href="#DejaVuSans-2e" x="63.623047"/>
       <use xlink:href="#DejaVuSans-35" x="95.410156"/>
      </g>
     </g>
    </g>
    <g id="xtick_3">
     <g id="line2d_3">
      <g>
       <use xlink:href="#mc3262d14ae" x="143.63125" y="145.8" style="stroke: #000000; stroke-width: 0.8"/>
      </g>
     </g>
     <g id="text_3">
      <!-- 5.0 -->
      <g transform="translate(135.679688 160.398438)scale(0.1 -0.1)">
       <use xlink:href="#DejaVuSans-35"/>
       <use xlink:href="#DejaVuSans-2e" x="63.623047"/>
       <use xlink:href="#DejaVuSans-30" x="95.410156"/>
      </g>
     </g>
    </g>
    <g id="xtick_4">
     <g id="line2d_4">
      <g>
       <use xlink:href="#mc3262d14ae" x="180.83125" y="145.8" style="stroke: #000000; stroke-width: 0.8"/>
      </g>
     </g>
     <g id="text_4">
      <!-- 7.5 -->
      <g transform="translate(172.879688 160.398438)scale(0.1 -0.1)">
       <defs>
        <path id="DejaVuSans-37" d="M 525 4666 
L 3525 4666 
L 3525 4397 
L 1831 0 
L 1172 0 
L 2766 4134 
L 525 4134 
L 525 4666 
z
" transform="scale(0.015625)"/>
       </defs>
       <use xlink:href="#DejaVuSans-37"/>
       <use xlink:href="#DejaVuSans-2e" x="63.623047"/>
       <use xlink:href="#DejaVuSans-35" x="95.410156"/>
      </g>
     </g>
    </g>
    <g id="xtick_5">
     <g id="line2d_5">
      <g>
       <use xlink:href="#mc3262d14ae" x="218.03125" y="145.8" style="stroke: #000000; stroke-width: 0.8"/>
      </g>
     </g>
     <g id="text_5">
      <!-- 10.0 -->
      <g transform="translate(206.898438 160.398438)scale(0.1 -0.1)">
       <defs>
        <path id="DejaVuSans-31" d="M 794 531 
L 1825 531 
L 1825 4091 
L 703 3866 
L 703 4441 
L 1819 4666 
L 2450 4666 
L 2450 531 
L 3481 531 
L 3481 0 
L 794 0 
L 794 531 
z
" transform="scale(0.015625)"/>
       </defs>
       <use xlink:href="#DejaVuSans-31"/>
       <use xlink:href="#DejaVuSans-30" x="63.623047"/>
       <use xlink:href="#DejaVuSans-2e" x="127.246094"/>
       <use xlink:href="#DejaVuSans-30" x="159.033203"/>
      </g>
     </g>
    </g>
    <g id="text_6">
     <!-- Citric acid [mM] -->
     <g transform="translate(103.95625 174.076563)scale(0.1 -0.1)">
      <defs>
       <path id="DejaVuSans-43" d="M 4122 4306 
L 4122 3641 
Q 3803 3938 3442 4084 
Q 3081 4231 2675 4231 
Q 1875 4231 1450 3742 
Q 1025 3253 1025 2328 
Q 1025 1406 1450 917 
Q 1875 428 2675 428 
Q 3081 428 3442 575 
Q 3803 722 4122 1019 
L 4122 359 
Q 3791 134 3420 21 
Q 3050 -91 2638 -91 
Q 1578 -91 968 557 
Q 359 1206 359 2328 
Q 359 3453 968 4101 
Q 1578 4750 2638 4750 
Q 3056 4750 3426 4639 
Q 3797 4528 4122 4306 
z
" transform="scale(0.015625)"/>
       <path id="DejaVuSans-69" d="M 603 3500 
L 1178 3500 
L 1178 0 
L 603 0 
L 603 3500 
z
M 603 4863 
L 1178 4863 
L 1178 4134 
L 603 4134 
L 603 4863 
z
" transform="scale(0.015625)"/>
       <path id="DejaVuSans-74" d="M 1172 4494 
L 1172 3500 
L 2356 3500 
L 2356 3053 
L 1172 3053 
L 1172 1153 
Q 1172 725 1289 603 
Q 1406 481 1766 481 
L 2356 481 
L 2356 0 
L 1766 0 
Q 1100 0 847 248 
Q 594 497 594 1153 
L 594 3053 
L 172 3053 
L 172 3500 
L 594 3500 
L 594 4494 
L 1172 4494 
z
" transform="scale(0.015625)"/>
       <path id="DejaVuSans-72" d="M 2631 2963 
Q 2534 3019 2420 3045 
Q 2306 3072 2169 3072 
Q 1681 3072 1420 2755 
Q 1159 2438 1159 1844 
L 1159 0 
L 581 0 
L 581 3500 
L 1159 3500 
L 1159 2956 
Q 1341 3275 1631 3429 
Q 1922 3584 2338 3584 
Q 2397 3584 2469 3576 
Q 2541 3569 2628 3553 
L 2631 2963 
z
" transform="scale(0.015625)"/>
       <path id="DejaVuSans-63" d="M 3122 3366 
L 3122 2828 
Q 2878 2963 2633 3030 
Q 2388 3097 2138 3097 
Q 1578 3097 1268 2742 
Q 959 2388 959 1747 
Q 959 1106 1268 751 
Q 1578 397 2138 397 
Q 2388 397 2633 464 
Q 2878 531 3122 666 
L 3122 134 
Q 2881 22 2623 -34 
Q 2366 -91 2075 -91 
Q 1284 -91 818 406 
Q 353 903 353 1747 
Q 353 2603 823 3093 
Q 1294 3584 2113 3584 
Q 2378 3584 2631 3529 
Q 2884 3475 3122 3366 
z
" transform="scale(0.015625)"/>
       <path id="DejaVuSans-20" transform="scale(0.015625)"/>
       <path id="DejaVuSans-61" d="M 2194 1759 
Q 1497 1759 1228 1600 
Q 959 1441 959 1056 
Q 959 750 1161 570 
Q 1363 391 1709 391 
Q 2188 391 2477 730 
Q 2766 1069 2766 1631 
L 2766 1759 
L 2194 1759 
z
M 3341 1997 
L 3341 0 
L 2766 0 
L 2766 531 
Q 2569 213 2275 61 
Q 1981 -91 1556 -91 
Q 1019 -91 701 211 
Q 384 513 384 1019 
Q 384 1609 779 1909 
Q 1175 2209 1959 2209 
L 2766 2209 
L 2766 2266 
Q 2766 2663 2505 2880 
Q 2244 3097 1772 3097 
Q 1472 3097 1187 3025 
Q 903 2953 641 2809 
L 641 3341 
Q 956 3463 1253 3523 
Q 1550 3584 1831 3584 
Q 2591 3584 2966 3190 
Q 3341 2797 3341 1997 
z
" transform="scale(0.015625)"/>
       <path id="DejaVuSans-64" d="M 2906 2969 
L 2906 4863 
L 3481 4863 
L 3481 0 
L 2906 0 
L 2906 525 
Q 2725 213 2448 61 
Q 2172 -91 1784 -91 
Q 1150 -91 751 415 
Q 353 922 353 1747 
Q 353 2572 751 3078 
Q 1150 3584 1784 3584 
Q 2172 3584 2448 3432 
Q 2725 3281 2906 2969 
z
M 947 1747 
Q 947 1113 1208 752 
Q 1469 391 1925 391 
Q 2381 391 2643 752 
Q 2906 1113 2906 1747 
Q 2906 2381 2643 2742 
Q 2381 3103 1925 3103 
Q 1469 3103 1208 2742 
Q 947 2381 947 1747 
z
" transform="scale(0.015625)"/>
       <path id="DejaVuSans-5b" d="M 550 4863 
L 1875 4863 
L 1875 4416 
L 1125 4416 
L 1125 -397 
L 1875 -397 
L 1875 -844 
L 550 -844 
L 550 4863 
z
" transform="scale(0.015625)"/>
       <path id="DejaVuSans-6d" d="M 3328 2828 
Q 3544 3216 3844 3400 
Q 4144 3584 4550 3584 
Q 5097 3584 5394 3201 
Q 5691 2819 5691 2113 
L 5691 0 
L 5113 0 
L 5113 2094 
Q 5113 2597 4934 2840 
Q 4756 3084 4391 3084 
Q 3944 3084 3684 2787 
Q 3425 2491 3425 1978 
L 3425 0 
L 2847 0 
L 2847 2094 
Q 2847 2600 2669 2842 
Q 2491 3084 2119 3084 
Q 1678 3084 1418 2786 
Q 1159 2488 1159 1978 
L 1159 0 
L 581 0 
L 581 3500 
L 1159 3500 
L 1159 2956 
Q 1356 3278 1631 3431 
Q 1906 3584 2284 3584 
Q 2666 3584 2933 3390 
Q 3200 3197 3328 2828 
z
" transform="scale(0.015625)"/>
       <path id="DejaVuSans-4d" d="M 628 4666 
L 1569 4666 
L 2759 1491 
L 3956 4666 
L 4897 4666 
L 4897 0 
L 4281 0 
L 4281 4097 
L 3078 897 
L 2444 897 
L 1241 4097 
L 1241 0 
L 628 0 
L 628 4666 
z
" transform="scale(0.015625)"/>
       <path id="DejaVuSans-5d" d="M 1947 4863 
L 1947 -844 
L 622 -844 
L 622 -397 
L 1369 -397 
L 1369 4416 
L 622 4416 
L 622 4863 
L 1947 4863 
z
" transform="scale(0.015625)"/>
      </defs>
      <use xlink:href="#DejaVuSans-43"/>
      <use xlink:href="#DejaVuSans-69" x="69.824219"/>
      <use xlink:href="#DejaVuSans-74" x="97.607422"/>
      <use xlink:href="#DejaVuSans-72" x="136.816406"/>
      <use xlink:href="#DejaVuSans-69" x="177.929688"/>
      <use xlink:href="#DejaVuSans-63" x="205.712891"/>
      <use xlink:href="#DejaVuSans-20" x="260.693359"/>
      <use xlink:href="#DejaVuSans-61" x="292.480469"/>
      <use xlink:href="#DejaVuSans-63" x="353.759766"/>
      <use xlink:href="#DejaVuSans-69" x="408.740234"/>
      <use xlink:href="#DejaVuSans-64" x="436.523438"/>
      <use xlink:href="#DejaVuSans-20" x="500"/>
      <use xlink:href="#DejaVuSans-5b" x="531.787109"/>
      <use xlink:href="#DejaVuSans-6d" x="570.800781"/>
      <use xlink:href="#DejaVuSans-4d" x="668.212891"/>
      <use xlink:href="#DejaVuSans-5d" x="754.492188"/>
     </g>
    </g>
   </g>
   <g id="matplotlib.axis_2">
    <g id="ytick_1">
     <g id="line2d_6">
      <defs>
       <path id="m81ea8cc687" d="M 0 0 
L -3.5 0 
" style="stroke: #000000; stroke-width: 0.8"/>
      </defs>
      <g>
       <use xlink:href="#m81ea8cc687" x="69.23125" y="145.8" style="stroke: #000000; stroke-width: 0.8"/>
      </g>
     </g>
     <g id="text_7">
      <!-- 0.00000 -->
      <g transform="translate(20.878125 149.599219)scale(0.1 -0.1)">
       <use xlink:href="#DejaVuSans-30"/>
       <use xlink:href="#DejaVuSans-2e" x="63.623047"/>
       <use xlink:href="#DejaVuSans-30" x="95.410156"/>
       <use xlink:href="#DejaVuSans-30" x="159.033203"/>
       <use xlink:href="#DejaVuSans-30" x="222.65625"/>
       <use xlink:href="#DejaVuSans-30" x="286.279297"/>
       <use xlink:href="#DejaVuSans-30" x="349.902344"/>
      </g>
     </g>
    </g>
    <g id="ytick_2">
     <g id="line2d_7">
      <g>
       <use xlink:href="#m81ea8cc687" x="69.23125" y="122.387838" style="stroke: #000000; stroke-width: 0.8"/>
      </g>
     </g>
     <g id="text_8">
      <!-- 0.00025 -->
      <g transform="translate(20.878125 126.187057)scale(0.1 -0.1)">
       <use xlink:href="#DejaVuSans-30"/>
       <use xlink:href="#DejaVuSans-2e" x="63.623047"/>
       <use xlink:href="#DejaVuSans-30" x="95.410156"/>
       <use xlink:href="#DejaVuSans-30" x="159.033203"/>
       <use xlink:href="#DejaVuSans-30" x="222.65625"/>
       <use xlink:href="#DejaVuSans-32" x="286.279297"/>
       <use xlink:href="#DejaVuSans-35" x="349.902344"/>
      </g>
     </g>
    </g>
    <g id="ytick_3">
     <g id="line2d_8">
      <g>
       <use xlink:href="#m81ea8cc687" x="69.23125" y="98.975676" style="stroke: #000000; stroke-width: 0.8"/>
      </g>
     </g>
     <g id="text_9">
      <!-- 0.00050 -->
      <g transform="translate(20.878125 102.774894)scale(0.1 -0.1)">
       <use xlink:href="#DejaVuSans-30"/>
       <use xlink:href="#DejaVuSans-2e" x="63.623047"/>
       <use xlink:href="#DejaVuSans-30" x="95.410156"/>
       <use xlink:href="#DejaVuSans-30" x="159.033203"/>
       <use xlink:href="#DejaVuSans-30" x="222.65625"/>
       <use xlink:href="#DejaVuSans-35" x="286.279297"/>
       <use xlink:href="#DejaVuSans-30" x="349.902344"/>
      </g>
     </g>
    </g>
    <g id="ytick_4">
     <g id="line2d_9">
      <g>
       <use xlink:href="#m81ea8cc687" x="69.23125" y="75.563514" style="stroke: #000000; stroke-width: 0.8"/>
      </g>
     </g>
     <g id="text_10">
      <!-- 0.00075 -->
      <g transform="translate(20.878125 79.362732)scale(0.1 -0.1)">
       <use xlink:href="#DejaVuSans-30"/>
       <use xlink:href="#DejaVuSans-2e" x="63.623047"/>
       <use xlink:href="#DejaVuSans-30" x="95.410156"/>
       <use xlink:href="#DejaVuSans-30" x="159.033203"/>
       <use xlink:href="#DejaVuSans-30" x="222.65625"/>
       <use xlink:href="#DejaVuSans-37" x="286.279297"/>
       <use xlink:href="#DejaVuSans-35" x="349.902344"/>
      </g>
     </g>
    </g>
    <g id="ytick_5">
     <g id="line2d_10">
      <g>
       <use xlink:href="#m81ea8cc687" x="69.23125" y="52.151351" style="stroke: #000000; stroke-width: 0.8"/>
      </g>
     </g>
     <g id="text_11">
      <!-- 0.00100 -->
      <g transform="translate(20.878125 55.95057)scale(0.1 -0.1)">
       <use xlink:href="#DejaVuSans-30"/>
       <use xlink:href="#DejaVuSans-2e" x="63.623047"/>
       <use xlink:href="#DejaVuSans-30" x="95.410156"/>
       <use xlink:href="#DejaVuSans-30" x="159.033203"/>
       <use xlink:href="#DejaVuSans-31" x="222.65625"/>
       <use xlink:href="#DejaVuSans-30" x="286.279297"/>
       <use xlink:href="#DejaVuSans-30" x="349.902344"/>
      </g>
     </g>
    </g>
    <g id="ytick_6">
     <g id="line2d_11">
      <g>
       <use xlink:href="#m81ea8cc687" x="69.23125" y="28.739189" style="stroke: #000000; stroke-width: 0.8"/>
      </g>
     </g>
     <g id="text_12">
      <!-- 0.00125 -->
      <g transform="translate(20.878125 32.538408)scale(0.1 -0.1)">
       <use xlink:href="#DejaVuSans-30"/>
       <use xlink:href="#DejaVuSans-2e" x="63.623047"/>
       <use xlink:href="#DejaVuSans-30" x="95.410156"/>
       <use xlink:href="#DejaVuSans-30" x="159.033203"/>
       <use xlink:href="#DejaVuSans-31" x="222.65625"/>
       <use xlink:href="#DejaVuSans-32" x="286.279297"/>
       <use xlink:href="#DejaVuSans-35" x="349.902344"/>
      </g>
     </g>
    </g>
    <g id="text_13">
     <!-- Thiamine [mM] -->
     <g transform="translate(14.798438 114.355469)rotate(-90)scale(0.1 -0.1)">
      <defs>
       <path id="DejaVuSans-54" d="M -19 4666 
L 3928 4666 
L 3928 4134 
L 2272 4134 
L 2272 0 
L 1638 0 
L 1638 4134 
L -19 4134 
L -19 4666 
z
" transform="scale(0.015625)"/>
       <path id="DejaVuSans-68" d="M 3513 2113 
L 3513 0 
L 2938 0 
L 2938 2094 
Q 2938 2591 2744 2837 
Q 2550 3084 2163 3084 
Q 1697 3084 1428 2787 
Q 1159 2491 1159 1978 
L 1159 0 
L 581 0 
L 581 4863 
L 1159 4863 
L 1159 2956 
Q 1366 3272 1645 3428 
Q 1925 3584 2291 3584 
Q 2894 3584 3203 3211 
Q 3513 2838 3513 2113 
z
" transform="scale(0.015625)"/>
       <path id="DejaVuSans-6e" d="M 3513 2113 
L 3513 0 
L 2938 0 
L 2938 2094 
Q 2938 2591 2744 2837 
Q 2550 3084 2163 3084 
Q 1697 3084 1428 2787 
Q 1159 2491 1159 1978 
L 1159 0 
L 581 0 
L 581 3500 
L 1159 3500 
L 1159 2956 
Q 1366 3272 1645 3428 
Q 1925 3584 2291 3584 
Q 2894 3584 3203 3211 
Q 3513 2838 3513 2113 
z
" transform="scale(0.015625)"/>
       <path id="DejaVuSans-65" d="M 3597 1894 
L 3597 1613 
L 953 1613 
Q 991 1019 1311 708 
Q 1631 397 2203 397 
Q 2534 397 2845 478 
Q 3156 559 3463 722 
L 3463 178 
Q 3153 47 2828 -22 
Q 2503 -91 2169 -91 
Q 1331 -91 842 396 
Q 353 884 353 1716 
Q 353 2575 817 3079 
Q 1281 3584 2069 3584 
Q 2775 3584 3186 3129 
Q 3597 2675 3597 1894 
z
M 3022 2063 
Q 3016 2534 2758 2815 
Q 2500 3097 2075 3097 
Q 1594 3097 1305 2825 
Q 1016 2553 972 2059 
L 3022 2063 
z
" transform="scale(0.015625)"/>
      </defs>
      <use xlink:href="#DejaVuSans-54"/>
      <use xlink:href="#DejaVuSans-68" x="61.083984"/>
      <use xlink:href="#DejaVuSans-69" x="124.462891"/>
      <use xlink:href="#DejaVuSans-61" x="152.246094"/>
      <use xlink:href="#DejaVuSans-6d" x="213.525391"/>
      <use xlink:href="#DejaVuSans-69" x="310.9375"/>
      <use xlink:href="#DejaVuSans-6e" x="338.720703"/>
      <use xlink:href="#DejaVuSans-65" x="402.099609"/>
      <use xlink:href="#DejaVuSans-20" x="463.623047"/>
      <use xlink:href="#DejaVuSans-5b" x="495.410156"/>
      <use xlink:href="#DejaVuSans-6d" x="534.423828"/>
      <use xlink:href="#DejaVuSans-4d" x="631.835938"/>
      <use xlink:href="#DejaVuSans-5d" x="718.115234"/>
     </g>
    </g>
   </g>
   <g id="PathCollection_1">
    <path d="M 96.643572 7.2 
L 96.643572 10.028571 
L 96.643572 12.857143 
L 96.643572 15.685714 
L 96.643572 18.514286 
L 96.643572 21.342857 
L 96.643572 24.171429 
L 96.643572 27 
L 96.643572 29.828571 
L 96.643572 32.657143 
L 96.643572 35.485714 
L 96.643572 38.314286 
L 96.643572 41.142857 
L 96.643572 43.971429 
L 96.643572 46.8 
L 96.643572 49.628571 
L 96.643572 52.457143 
L 96.643572 55.285714 
L 96.643572 58.114286 
L 96.643572 60.942857 
L 96.643572 63.771429 
L 96.643572 66.6 
L 96.643572 69.428571 
L 96.643572 72.257143 
L 96.643572 75.085714 
L 96.643572 77.914286 
L 96.643572 80.742857 
L 96.643572 83.571429 
L 96.643572 86.4 
L 96.643572 89.228571 
L 96.643572 92.057143 
L 96.643572 94.885714 
L 96.643572 97.714286 
L 96.643572 100.542857 
L 96.643572 103.371429 
L 96.643572 106.2 
L 96.643572 109.028571 
L 96.643572 111.857143 
L 96.643572 114.685714 
L 96.643572 117.514286 
L 96.643572 120.342857 
L 96.643572 123.171429 
L 96.643572 126 
L 96.643572 128.828571 
L 96.643572 131.657143 
L 96.643572 134.485714 
L 96.643572 137.314286 
L 96.643572 140.142857 
L 96.643572 142.971429 
L 96.643572 145.8 
" clip-path="url(#p5e4d8041f6)" style="fill: none; stroke: #a50026; stroke-width: 1.5"/>
   </g>
   <g id="PathCollection_2">
    <path d="M 126.360061 7.2 
L 126.360061 10.028571 
L 126.360061 12.857143 
L 126.360061 15.685714 
L 126.360061 18.514286 
L 126.360061 21.342857 
L 126.360061 24.171429 
L 126.360061 27 
L 126.360061 29.828571 
L 126.360061 32.657143 
L 126.360061 35.485714 
L 126.360061 38.314286 
L 126.360061 41.142857 
L 126.360061 43.971429 
L 126.360061 46.8 
L 126.360061 49.628571 
L 126.360061 52.457143 
L 126.360061 55.285714 
L 126.360061 58.114286 
L 126.360061 60.942857 
L 126.360061 63.771429 
L 126.360061 66.6 
L 126.360061 69.428571 
L 126.360061 72.257143 
L 126.360061 75.085714 
L 126.360061 77.914286 
L 126.360061 80.742857 
L 126.360061 83.571429 
L 126.360061 86.4 
L 126.360061 89.228571 
L 126.360061 92.057143 
L 126.360061 94.885714 
L 126.360061 97.714286 
L 126.360061 100.542857 
L 126.360061 103.371429 
L 126.360061 106.2 
L 126.360061 109.028571 
L 126.360061 111.857143 
L 126.360061 114.685714 
L 126.360061 117.514286 
L 126.360061 120.342857 
L 126.360061 123.171429 
L 126.360061 126 
L 126.360061 128.828571 
L 126.360061 131.657143 
L 126.360061 134.485714 
L 126.360061 137.314286 
L 126.360061 140.142857 
L 126.360061 142.971429 
L 126.360061 145.8 
" clip-path="url(#p5e4d8041f6)" style="fill: none; stroke: #aad8e9; stroke-width: 1.5"/>
   </g>
   <g id="PathCollection_3">
    <path d="M 143.644161 7.2 
L 143.644161 10.028571 
L 143.644161 12.857143 
L 143.644161 15.685714 
L 143.644161 18.514286 
L 143.644161 21.342857 
L 143.644161 24.171429 
L 143.644161 27 
L 143.644161 29.828571 
L 143.644161 32.657143 
L 143.644161 35.485714 
L 143.644161 38.314286 
L 143.644161 41.142857 
L 143.644161 43.971429 
L 143.644161 46.8 
L 143.644161 49.628571 
L 143.644161 52.457143 
L 143.644161 55.285714 
L 143.644161 58.114286 
L 143.644161 60.942857 
L 143.644161 63.771429 
L 143.644161 66.6 
L 143.644161 69.428571 
L 143.644161 72.257143 
L 143.644161 75.085714 
L 143.644161 77.914286 
L 143.644161 80.742857 
L 143.644161 83.571429 
L 143.644161 86.4 
L 143.644161 89.228571 
L 143.644161 92.057143 
L 143.644161 94.885714 
L 143.644161 97.714286 
L 143.644161 100.542857 
L 143.644161 103.371429 
L 143.644161 106.2 
L 143.644161 109.028571 
L 143.644161 111.857143 
L 143.644161 114.685714 
L 143.644161 117.514286 
L 143.644161 120.342857 
L 143.644161 123.171429 
L 143.644161 126 
L 143.644161 128.828571 
L 143.644161 131.657143 
L 143.644161 134.485714 
L 143.644161 137.314286 
L 143.644161 140.142857 
L 143.644161 142.971429 
L 143.644161 145.8 
" clip-path="url(#p5e4d8041f6)" style="fill: none; stroke: #313695; stroke-width: 1.5"/>
   </g>
   <g id="PathCollection_4">
    <path d="M 91.250459 7.2 
L 91.4378 10.028571 
L 91.633114 12.857143 
L 91.836919 15.685714 
L 92.049782 18.514286 
L 92.272321 21.342857 
L 92.50521 24.171429 
L 92.749189 27 
L 93.00507 29.828571 
L 93.273745 32.657143 
L 93.525128 35.177241 
L 93.557702 35.485714 
L 93.869419 38.314286 
L 94.197986 41.142857 
L 94.544806 43.971429 
L 94.911445 46.8 
L 95.29965 49.628571 
L 95.711383 52.457143 
L 96.14885 55.285714 
L 96.561862 57.798247 
L 96.61703 58.114286 
L 97.137253 60.942857 
L 97.693352 63.771429 
L 98.289174 66.6 
L 98.92913 69.428571 
L 99.598597 72.177635 
L 99.619224 72.257143 
L 100.397922 75.085714 
L 101.241511 77.914286 
L 102.158456 80.742857 
L 102.635332 82.107685 
L 103.18239 83.571429 
L 104.327422 86.4 
L 105.586957 89.228571 
L 105.672066 89.406196 
L 107.03678 92.057143 
L 108.651868 94.885714 
L 108.708801 94.977854 
L 110.532482 97.714286 
L 111.745536 99.358972 
L 112.689223 100.542857 
L 114.78227 102.923784 
L 115.208612 103.371429 
L 117.819005 105.863608 
L 118.201891 106.2 
L 120.85574 108.324745 
L 121.81453 109.028571 
L 123.892474 110.420986 
L 126.240489 111.857143 
L 126.929209 112.242165 
L 129.965944 113.81229 
L 131.810986 114.685714 
L 133.002679 115.202899 
L 136.039413 116.42358 
L 139.009495 117.514286 
L 139.076148 117.536772 
L 142.112883 118.500871 
L 145.149617 119.387842 
L 148.186352 120.206584 
L 148.722758 120.342857 
L 151.223087 120.928631 
L 154.259821 121.591768 
L 157.296556 122.209171 
L 160.333291 122.785414 
L 162.497079 123.171429 
L 163.370026 123.315343 
L 166.40676 123.790546 
L 169.443495 124.236948 
L 172.48023 124.657092 
L 175.516964 125.053227 
L 178.553699 125.427355 
L 181.590434 125.78126 
L 183.562849 126 
L 184.627168 126.109367 
L 187.663903 126.407877 
L 190.700638 126.691461 
L 193.737372 126.961212 
L 196.774107 127.218118 
L 199.810842 127.463075 
L 202.847577 127.696897 
L 205.884311 127.920327 
L 208.921046 128.134043 
L 211.957781 128.338665 
L 214.994515 128.534761 
L 218.03125 128.722852 
" clip-path="url(#p5e4d8041f6)" style="fill: none; stroke: #a50026; stroke-width: 1.5"/>
   </g>
   <g id="PathCollection_5">
    <path d="M 113.148854 7.2 
L 113.582951 10.028571 
L 114.035519 12.857143 
L 114.507764 15.685714 
L 114.78227 17.265304 
L 115.010055 18.514286 
L 115.547061 21.342857 
L 116.109044 24.171429 
L 116.697788 27 
L 117.315251 29.828571 
L 117.819005 32.030907 
L 117.969453 32.657143 
L 118.678688 35.485714 
L 119.425251 38.314286 
L 120.212168 41.142857 
L 120.85574 43.339833 
L 121.050242 43.971429 
L 121.963256 46.8 
L 122.929978 49.628571 
L 123.892474 52.285895 
L 123.957738 52.457143 
L 125.089602 55.285714 
L 126.294489 58.114286 
L 126.929209 59.521543 
L 127.604578 60.942857 
L 129.030964 63.771429 
L 129.965944 65.512797 
L 130.581497 66.6 
L 132.284567 69.428571 
L 133.002679 70.548309 
L 134.159746 72.257143 
L 136.039413 74.850129 
L 136.219801 75.085714 
L 138.525173 77.914286 
L 139.076148 78.546827 
L 141.100457 80.742857 
L 142.112883 81.769611 
L 143.994677 83.571429 
L 145.149617 84.605793 
L 147.27369 86.4 
L 148.186352 87.121356 
L 151.016525 89.228571 
L 151.223087 89.37251 
L 154.259821 91.376858 
L 155.353402 92.057143 
L 157.296556 93.189679 
L 160.333291 94.853109 
L 160.395847 94.885714 
L 163.370026 96.339175 
L 166.369787 97.714286 
L 166.40676 97.730172 
L 169.443495 98.976077 
L 172.48023 100.148693 
L 173.552817 100.542857 
L 175.516964 101.220016 
L 178.553699 102.213881 
L 181.590434 103.154023 
L 182.324569 103.371429 
L 184.627168 104.011437 
L 187.663903 104.814695 
L 190.700638 105.577791 
L 193.299469 106.2 
L 193.737372 106.298413 
L 196.774107 106.954716 
L 199.810842 107.580494 
L 202.847577 108.177827 
L 205.884311 108.748612 
L 207.434309 109.028571 
L 208.921046 109.280761 
L 211.957781 109.776342 
L 214.994515 110.251273 
L 218.03125 110.706819 
" clip-path="url(#p5e4d8041f6)" style="fill: none; stroke: #aad8e9; stroke-width: 1.5"/>
   </g>
   <g id="PathCollection_6">
    <path d="M 125.044762 7.2 
L 125.642625 10.028571 
L 126.26593 12.857143 
L 126.916334 15.685714 
L 126.929209 15.739731 
L 127.621131 18.514286 
L 128.358478 21.342857 
L 129.130121 24.171429 
L 129.938508 27 
L 129.965944 27.092328 
L 130.817113 29.828571 
L 131.740729 32.657143 
L 132.71171 35.485714 
L 133.002679 36.296786 
L 133.760724 38.314286 
L 134.877738 41.142857 
L 136.039413 43.930148 
L 136.057438 43.971429 
L 137.348963 46.8 
L 138.71646 49.628571 
L 139.076148 50.336721 
L 140.205581 52.457143 
L 141.801349 55.285714 
L 142.112883 55.810366 
L 143.548487 58.114286 
L 145.149617 60.53456 
L 145.433103 60.942857 
L 147.506407 63.771429 
L 148.186352 64.646999 
L 149.779794 66.6 
L 151.223087 68.266967 
L 152.280144 69.428571 
L 154.259821 71.479353 
L 155.049327 72.257143 
L 157.296556 74.344651 
L 158.135909 75.085714 
L 160.333291 76.915291 
L 161.596551 77.914286 
L 163.370026 79.236937 
L 165.497768 80.742857 
L 166.40676 81.349546 
L 169.443495 83.275781 
L 169.932489 83.571429 
L 172.48023 85.024823 
L 175.024774 86.4 
L 175.516964 86.650907 
L 178.553699 88.13079 
L 180.928231 89.228571 
L 181.590434 89.517401 
L 184.627168 90.785317 
L 187.663903 91.988212 
L 187.845063 92.057143 
L 190.700638 93.082701 
L 193.737372 94.120854 
L 196.080741 94.885714 
L 196.774107 95.099278 
L 199.810842 95.998664 
L 202.847577 96.857168 
L 205.884311 97.677517 
L 206.025331 97.714286 
L 208.921046 98.427003 
L 211.957781 99.142939 
L 214.994515 99.829044 
L 218.03125 100.487145 
" clip-path="url(#p5e4d8041f6)" style="fill: none; stroke: #313695; stroke-width: 1.5"/>
   </g>
   <g id="patch_3">
    <path d="M 69.23125 145.8 
L 69.23125 7.2 
" style="fill: none; stroke: #000000; stroke-width: 0.8; stroke-linejoin: miter; stroke-linecap: square"/>
   </g>
   <g id="patch_4">
    <path d="M 218.03125 145.8 
L 218.03125 7.2 
" style="fill: none; stroke: #000000; stroke-width: 0.8; stroke-linejoin: miter; stroke-linecap: square"/>
   </g>
   <g id="patch_5">
    <path d="M 69.23125 145.8 
L 218.03125 145.8 
" style="fill: none; stroke: #000000; stroke-width: 0.8; stroke-linejoin: miter; stroke-linecap: square"/>
   </g>
   <g id="patch_6">
    <path d="M 69.23125 7.2 
L 218.03125 7.2 
" style="fill: none; stroke: #000000; stroke-width: 0.8; stroke-linejoin: miter; stroke-linecap: square"/>
   </g>
   <g id="legend_1">
    <g id="patch_7">
     <path d="M 226.51925 73.9125 
L 287.147375 73.9125 
Q 289.147375 73.9125 289.147375 71.9125 
L 289.147375 14.2 
Q 289.147375 12.2 287.147375 12.2 
L 226.51925 12.2 
Q 224.51925 12.2 224.51925 14.2 
L 224.51925 71.9125 
Q 224.51925 73.9125 226.51925 73.9125 
z
" style="fill: #ffffff; opacity: 0.8; stroke: #cccccc; stroke-linejoin: miter"/>
    </g>
    <g id="text_14">
     <!-- J [1/h] -->
     <g transform="translate(241.833313 23.798438)scale(0.1 -0.1)">
      <defs>
       <path id="DejaVuSans-4a" d="M 628 4666 
L 1259 4666 
L 1259 325 
Q 1259 -519 939 -900 
Q 619 -1281 -91 -1281 
L -331 -1281 
L -331 -750 
L -134 -750 
Q 284 -750 456 -515 
Q 628 -281 628 325 
L 628 4666 
z
" transform="scale(0.015625)"/>
       <path id="DejaVuSans-2f" d="M 1625 4666 
L 2156 4666 
L 531 -594 
L 0 -594 
L 1625 4666 
z
" transform="scale(0.015625)"/>
      </defs>
      <use xlink:href="#DejaVuSans-4a"/>
      <use xlink:href="#DejaVuSans-20" x="29.492188"/>
      <use xlink:href="#DejaVuSans-5b" x="61.279297"/>
      <use xlink:href="#DejaVuSans-31" x="100.292969"/>
      <use xlink:href="#DejaVuSans-2f" x="163.916016"/>
      <use xlink:href="#DejaVuSans-68" x="197.607422"/>
      <use xlink:href="#DejaVuSans-5d" x="260.986328"/>
     </g>
    </g>
    <g id="line2d_12">
     <path d="M 228.51925 34.976562 
L 248.51925 34.976562 
" style="fill: none; stroke: #a50026; stroke-width: 1.5"/>
    </g>
    <g id="text_15">
     <!-- 0.05 -->
     <g transform="translate(256.51925 38.476562)scale(0.1 -0.1)">
      <use xlink:href="#DejaVuSans-30"/>
      <use xlink:href="#DejaVuSans-2e" x="63.623047"/>
      <use xlink:href="#DejaVuSans-30" x="95.410156"/>
      <use xlink:href="#DejaVuSans-35" x="159.033203"/>
     </g>
    </g>
    <g id="line2d_13">
     <path d="M 228.51925 49.654687 
L 248.51925 49.654687 
" style="fill: none; stroke: #aad8e9; stroke-width: 1.5"/>
    </g>
    <g id="text_16">
     <!-- 0.085 -->
     <g transform="translate(256.51925 53.154687)scale(0.1 -0.1)">
      <defs>
       <path id="DejaVuSans-38" d="M 2034 2216 
Q 1584 2216 1326 1975 
Q 1069 1734 1069 1313 
Q 1069 891 1326 650 
Q 1584 409 2034 409 
Q 2484 409 2743 651 
Q 3003 894 3003 1313 
Q 3003 1734 2745 1975 
Q 2488 2216 2034 2216 
z
M 1403 2484 
Q 997 2584 770 2862 
Q 544 3141 544 3541 
Q 544 4100 942 4425 
Q 1341 4750 2034 4750 
Q 2731 4750 3128 4425 
Q 3525 4100 3525 3541 
Q 3525 3141 3298 2862 
Q 3072 2584 2669 2484 
Q 3125 2378 3379 2068 
Q 3634 1759 3634 1313 
Q 3634 634 3220 271 
Q 2806 -91 2034 -91 
Q 1263 -91 848 271 
Q 434 634 434 1313 
Q 434 1759 690 2068 
Q 947 2378 1403 2484 
z
M 1172 3481 
Q 1172 3119 1398 2916 
Q 1625 2713 2034 2713 
Q 2441 2713 2670 2916 
Q 2900 3119 2900 3481 
Q 2900 3844 2670 4047 
Q 2441 4250 2034 4250 
Q 1625 4250 1398 4047 
Q 1172 3844 1172 3481 
z
" transform="scale(0.015625)"/>
      </defs>
      <use xlink:href="#DejaVuSans-30"/>
      <use xlink:href="#DejaVuSans-2e" x="63.623047"/>
      <use xlink:href="#DejaVuSans-30" x="95.410156"/>
      <use xlink:href="#DejaVuSans-38" x="159.033203"/>
      <use xlink:href="#DejaVuSans-35" x="222.65625"/>
     </g>
    </g>
    <g id="line2d_14">
     <path d="M 228.51925 64.332813 
L 248.51925 64.332813 
" style="fill: none; stroke: #313695; stroke-width: 1.5"/>
    </g>
    <g id="text_17">
     <!-- 0.1 -->
     <g transform="translate(256.51925 67.832813)scale(0.1 -0.1)">
      <use xlink:href="#DejaVuSans-30"/>
      <use xlink:href="#DejaVuSans-2e" x="63.623047"/>
      <use xlink:href="#DejaVuSans-31" x="95.410156"/>
     </g>
    </g>
   </g>
  </g>
 </g>
 <defs>
  <clipPath id="p5e4d8041f6">
   <rect x="69.23125" y="7.2" width="148.8" height="138.6"/>
  </clipPath>
 </defs>
</svg>
