<svg class="main-svg" xmlns="http://www.w3.org/2000/svg" xmlns:xlink="http://www.w3.org/1999/xlink" width="266.6666666666667" height="166.66666666666666" style="" viewBox="0 0 266.6666666666667 166.66666666666666"><rect x="0" y="0" width="266.6666666666667" height="166.66666666666666" style="fill: rgb(255, 255, 255); fill-opacity: 1;"/><defs id="defs-e66bd2"><g class="clips"><clipPath id="clipe66bd2xyplot" class="plotclip"><rect width="84" height="104"/></clipPath><clipPath class="axesclip" id="clipe66bd2x"><rect x="60" y="0" width="84" height="166.66666666666666"/></clipPath><clipPath class="axesclip" id="clipe66bd2y"><rect x="0" y="20" width="266.6666666666667" height="104"/></clipPath><clipPath class="axesclip" id="clipe66bd2xy"><rect x="60" y="20" width="84" height="104"/></clipPath></g><g class="gradients"/><g class="patterns"/></defs><g class="bglayer"><rect class="bg" x="60" y="20" width="84" height="104" style="fill: rgb(229, 236, 246); fill-opacity: 1; stroke-width: 0;"/></g><g class="layer-below"><g class="imagelayer"/><g class="shapelayer"/></g><g class="cartesianlayer"><g class="subplot xy"><g class="layer-subplot"><g class="shapelayer"/><g class="imagelayer"/></g><g class="minor-gridlayer"><g class="x"/><g class="y"/></g><g class="gridlayer"><g class="x"><path class="xgrid crisp" transform="translate(83.33,0)" d="M0,20v104" style="stroke: rgb(255, 255, 255); stroke-opacity: 1; stroke-width: 1px;"/><path class="xgrid crisp" transform="translate(106.67,0)" d="M0,20v104" style="stroke: rgb(255, 255, 255); stroke-opacity: 1; stroke-width: 1px;"/><path class="xgrid crisp" transform="translate(130,0)" d="M0,20v104" style="stroke: rgb(255, 255, 255); stroke-opacity: 1; stroke-width: 1px;"/></g><g class="y"><path class="ygrid crisp" transform="translate(0,86.29)" d="M60,0h84" style="stroke: rgb(255, 255, 255); stroke-opacity: 1; stroke-width: 1px;"/><path class="ygrid crisp" transform="translate(0,44.510000000000005)" d="M60,0h84" style="stroke: rgb(255, 255, 255); stroke-opacity: 1; stroke-width: 1px;"/></g></g><g class="zerolinelayer"><path class="xzl zl crisp" transform="translate(60,0)" d="M0,20v104" style="stroke: rgb(255, 255, 255); stroke-opacity: 1; stroke-width: 2px;"/></g><path class="xlines-below"/><path class="ylines-below"/><g class="overlines-below"/><g class="xaxislayer-below"/><g class="yaxislayer-below"/><g class="overaxes-below"/><g class="plot" transform="translate(60,20)" clip-path="url(#clipe66bd2xyplot)"><g class="scatterlayer mlayer"><g class="trace scatter trace8b2641" style="stroke-miterlimit: 2; opacity: 1;"><g class="fills"/><g class="errorbars"/><g class="lines"><path class="js-line" d="M0,97.88L0.58,98.47L0.78,98.3L0.97,98.22L2.14,98.38L2.33,98.47L8.75,98.13L8.94,97.88L9.72,96.46L9.92,95.96L10.69,94.45L10.89,92.7L12.25,89.61L12.44,89.36L13.42,85.09L13.61,83.76L15.75,72.64L15.94,71.47L18.28,60.86L18.47,57.77L18.67,56.85L18.86,58.18L19.06,62.53L20.03,64.79L20.22,65.12L23.33,58.69L23.53,59.02L24.11,58.27L24.31,57.6L25.67,54.59L26.06,55.43L26.25,55.34L27.03,54.26L27.22,54.42L27.42,53.25L27.61,55.18L28.19,53.92L28.39,54.59L28.97,54.93L29.36,53.09L29.56,53.42L29.94,54.42L30.14,52.75L30.33,53L30.53,53.92L31.31,51.25L31.5,51.75L31.69,53.76L32.28,54.09L32.47,52.17L32.67,53.09L33.06,52.17L33.25,53.76L33.44,52.42L33.64,53.92L34.03,51.5L34.22,51.16L34.42,52.67L34.61,50.91L35,51.83L35.19,51.75L35.58,52.84L35.78,50.58L36.56,52.33L36.75,51.16L36.94,52.08L37.14,50.91L37.33,48.82L37.53,49.08L37.72,51.42L37.92,51.5L38.11,50.66L38.5,50.16L38.69,51.33L38.89,48.82L39.28,51.58L39.47,47.99L39.67,47.74L40.25,50.66L40.44,49.08L40.64,49.49L41.03,48.66L41.22,50.66L41.42,47.32L41.61,49.66L42.19,48.82L42.39,49.08L42.58,47.74L42.78,48.91L42.97,50.41L43.75,47.49L43.94,51.16L44.33,51.5L44.53,46.4L44.92,46.57L45.11,49.99L46.08,46.74L46.28,49.16L46.67,49.58L47.06,46.15L47.25,46.4L47.44,49.33L47.83,49.83L48.03,48.74L48.22,46.82L48.42,45.48L48.61,47.91L48.81,49.58L49.39,45.48L49.58,47.24L49.78,48.74L50.36,45.48L50.56,48.32L50.75,48.41L50.94,43.56L51.53,45.15L51.72,46.23L52.31,46.82L52.5,45.57L52.89,46.15L53.08,47.91L53.28,45.06L53.67,45.31L53.86,48.07L54.44,45.98L54.64,48.57L54.83,43.81L55.42,45.48L55.61,43.89L55.81,47.57L56.39,44.73L56.58,44.98L56.78,43.98L56.97,45.4L57.17,47.07L57.94,42.89L58.14,47.74L58.72,44.81L59.11,45.73L59.31,49.58L60.28,42.31L60.47,44.9L60.86,43.89L61.06,46.4L61.44,42.89L61.83,45.9L62.03,45.15L62.22,46.74L62.42,43.64L62.61,44.56L62.81,45.23L63.19,45.4L63.39,43.64L63.58,45.73L63.97,44.23L64.17,45.82L64.36,45.73L64.56,42.56L64.94,44.73L65.14,46.32L65.33,45.15L65.53,46.99L65.72,45.9L65.92,46.65L66.5,44.31L66.69,45.57L66.89,46.9L67.08,44.65L67.47,46.82L67.67,47.57L68.25,48.49L68.64,44.56L68.83,44.48L69.03,43.73L69.22,45.65L69.42,45.73L69.61,47.99L69.81,45.48L70,47.07L70.19,44.9L70.58,47.82L70.78,43.39L70.97,44.73L71.17,44.73L71.36,46.57L72.14,44.48L72.33,46.48L72.53,46.15L72.72,47.07L73.11,46.57L73.31,46.48L73.5,46.48L73.69,48.32L74.67,44.65L74.86,44.9L75.25,46.82L75.44,45.4L75.64,45.57L76.22,46.99L76.42,46.74L76.61,46.9L76.81,46.32L77,46.65L77.19,49.16L78.17,45.31L78.36,44.48L78.56,47.49L79.14,45.57L79.33,44.81L80.11,48.24L80.31,45.57L80.5,46.23L80.69,44.73L81.08,45.73L81.28,43.56L82.06,46.15L82.25,45.82L82.44,45.48L82.83,45.31L83.22,46.15L83.42,44.98L83.81,44.31L84,47.32" style="vector-effect: none; fill: none; stroke: rgb(117, 112, 179); stroke-opacity: 1; stroke-width: 2px; opacity: 1;"/></g><g class="points"/><g class="text"/></g><g class="trace scatter tracef4074d" style="stroke-miterlimit: 2; opacity: 1;"><g class="fills"/><g class="errorbars"/><g class="lines"><path class="js-line" d="M0,97.88L4.24,91.25L5.09,89.55L9.33,78.96L10.18,76.46L18.67,51.67L19.52,50.06L22.91,45.95L23.76,45.38L28,44L28.85,43.89L38.18,43.57L39.03,43.57L84,43.56" style="vector-effect: none; fill: none; stroke: rgb(117, 112, 179); stroke-opacity: 1; stroke-dasharray: 9px, 9px; stroke-width: 2px; opacity: 1;"/></g><g class="points"/><g class="text"/></g><g class="trace scatter traceebc556" style="stroke-miterlimit: 2; opacity: 1;"><g class="fills"/><g class="errorbars"/><g class="lines"><path class="js-line" d="M0,98.3L2.33,97.63L2.53,97.46L6.81,93.54L7,92.95L11.67,84.68L11.86,82.84L12.64,72.31L12.83,68.46L14.58,52.59L14.78,51.33L15.36,48.99L15.56,47.82L21.39,25.59L21.58,25.26L25.47,18.07L25.67,17.82L28,15.23L28.19,15.14L31.11,12.05L31.31,11.64L31.89,11.22L32.08,10.8L33.83,9.3L34.03,9.04L35.39,7.79L35.58,7.21L36.17,5.2L36.56,5.45L36.75,5.62L37.72,7.87L37.92,8.54L39.08,12.47L39.28,13.22L39.47,13.31L39.67,15.14L39.86,15.4L40.06,17.15L40.25,16.9L40.44,18.15L40.64,17.99L40.83,18.32L41.03,18.66L41.22,18.99L41.42,17.9L41.61,18.07L42,17.57L42.19,18.32L42.39,17.49L42.97,18.49L43.17,17.82L43.36,17.4L43.94,18.74L44.33,18.4L44.53,17.9L45.31,19.49L45.5,17.99L46.28,19.49L46.47,19.24L46.67,19.16L47.25,18.99L47.44,19.24L47.64,19.32L48.42,19.66L48.61,19.49L48.81,19.49L49.39,19.07L49.58,20.08L49.78,19.41L51.14,20.41L51.33,19.66L51.92,20.49" style="vector-effect: none; fill: none; stroke: rgb(217, 95, 2); stroke-opacity: 1; stroke-width: 2px; opacity: 1;"/></g><g class="points"/><g class="text"/></g><g class="trace scatter trace102d2d" style="stroke-miterlimit: 2; opacity: 1;"><g class="fills"/><g class="errorbars"/><g class="lines"><path class="js-line" d="M0,98.3L3.67,91.67L4.2,90.45L7.87,79.75L8.39,77.9L13.63,55.94L14.16,53.57L19.93,30.56L20.45,28.95L24.12,20.15L24.65,19.21L28.32,14.29L28.84,13.78L33.56,10.51L34.09,10.26L40.38,8.27L40.9,8.16L50.87,6.98L51.39,6.95L51.92,6.92" style="vector-effect: none; fill: none; stroke: rgb(217, 95, 2); stroke-opacity: 1; stroke-dasharray: 9px, 9px; stroke-width: 2px; opacity: 1;"/></g><g class="points"/><g class="text"/></g></g></g><g class="overplot"/><path class="xlines-above crisp" d="M0,0" style="fill: none;"/><path class="ylines-above crisp" d="M0,0" style="fill: none;"/><g class="overlines-above"/><g class="xaxislayer-above"><g class="xtick"><text text-anchor="middle" x="0" y="135" transform="translate(60,0)" style="font-family: 'Open Sans', verdana, arial, sans-serif; font-size: 10px; fill: rgb(0, 0, 0); fill-opacity: 1; white-space: pre; opacity: 1;">0</text></g><g class="xtick"><text text-anchor="middle" x="0" y="135" style="font-family: 'Open Sans', verdana, arial, sans-serif; font-size: 10px; fill: rgb(0, 0, 0); fill-opacity: 1; white-space: pre; opacity: 1;" transform="translate(83.33,0)">20</text></g><g class="xtick"><text text-anchor="middle" x="0" y="135" style="font-family: 'Open Sans', verdana, arial, sans-serif; font-size: 10px; fill: rgb(0, 0, 0); fill-opacity: 1; white-space: pre; opacity: 1;" transform="translate(106.67,0)">40</text></g><g class="xtick"><text text-anchor="middle" x="0" y="135" style="font-family: 'Open Sans', verdana, arial, sans-serif; font-size: 10px; fill: rgb(0, 0, 0); fill-opacity: 1; white-space: pre; opacity: 1;" transform="translate(130,0)">60</text></g></g><g class="yaxislayer-above"><g class="ytick"><text text-anchor="end" x="59" y="3.5" transform="translate(0,86.29)" style="font-family: 'Open Sans', verdana, arial, sans-serif; font-size: 10px; fill: rgb(0, 0, 0); fill-opacity: 1; white-space: pre; opacity: 1;">0.5</text></g><g class="ytick"><text text-anchor="end" x="59" y="3.5" style="font-family: 'Open Sans', verdana, arial, sans-serif; font-size: 10px; fill: rgb(0, 0, 0); fill-opacity: 1; white-space: pre; opacity: 1;" transform="translate(0,44.510000000000005)">1</text></g></g><g class="overaxes-above"/></g></g><g class="polarlayer"/><g class="smithlayer"/><g class="ternarylayer"/><g class="geolayer"/><g class="funnelarealayer"/><g class="pielayer"/><g class="iciclelayer"/><g class="treemaplayer"/><g class="sunburstlayer"/><g class="glimages"/><defs id="topdefs-e66bd2"><g class="clips"/><clipPath id="legende66bd2"><rect width="109" height="99" x="0" y="0"/></clipPath></defs><g class="layer-above"><g class="imagelayer"/><g class="shapelayer"/></g><g class="infolayer"><g class="legend" pointer-events="all" transform="translate(145.68,20)"><rect class="bg" shape-rendering="crispEdges" width="109" height="99" x="0" y="0" style="stroke: rgb(68, 68, 68); stroke-opacity: 1; fill: rgb(255, 255, 255); fill-opacity: 1; stroke-width: 0px;"/><g class="scrollbox" transform="" clip-path="url(#legende66bd2)"><text class="legendtitletext" text-anchor="start" x="2" y="13" style="font-family: 'Open Sans', verdana, arial, sans-serif; font-size: 10px; fill: rgb(0, 0, 0); fill-opacity: 1; white-space: pre;">Species</text><g class="groups" transform=""><g class="traces" transform="translate(0,27.5)" style="opacity: 1;"><text class="legendtext" text-anchor="start" x="40" y="3.9" style="font-family: 'Open Sans', verdana, arial, sans-serif; font-size: 10px; fill: rgb(0, 0, 0); fill-opacity: 1; white-space: pre;"><tspan style="font-style:italic">C. testosteroni</tspan></text><g class="layers" style="opacity: 1;"><g class="legendfill"/><g class="legendlines"><path class="js-line" d="M5,0h30" style="fill: none; stroke: rgb(117, 112, 179); stroke-opacity: 1; stroke-width: 2px;"/></g><g class="legendsymbols"><g class="legendpoints"/></g></g><rect class="legendtoggle" x="0" y="-9.5" width="103.09375" height="19" style="fill: rgb(0, 0, 0); fill-opacity: 0;"/></g></g><g class="groups" transform=""><g class="traces" transform="translate(0,46.5)" style="opacity: 1;"><text class="legendtext" text-anchor="start" x="40" y="3.9" style="font-family: 'Open Sans', verdana, arial, sans-serif; font-size: 10px; fill: rgb(0, 0, 0); fill-opacity: 1; white-space: pre;">Modeled</text><g class="layers" style="opacity: 1;"><g class="legendfill"/><g class="legendlines"><path class="js-line" d="M5,0h30" style="fill: none; stroke: rgb(117, 112, 179); stroke-opacity: 1; stroke-dasharray: 9px, 9px; stroke-width: 2px;"/></g><g class="legendsymbols"><g class="legendpoints"/></g></g><rect class="legendtoggle" x="0" y="-9.5" width="103.09375" height="19" style="fill: rgb(0, 0, 0); fill-opacity: 0;"/></g></g><g class="groups" transform=""><g class="traces" transform="translate(0,65.5)" style="opacity: 1;"><text class="legendtext" text-anchor="start" x="40" y="3.9" style="font-family: 'Open Sans', verdana, arial, sans-serif; font-size: 10px; fill: rgb(0, 0, 0); fill-opacity: 1; white-space: pre;"><tspan style="font-style:italic">O. anthropi</tspan></text><g class="layers" style="opacity: 1;"><g class="legendfill"/><g class="legendlines"><path class="js-line" d="M5,0h30" style="fill: none; stroke: rgb(217, 95, 2); stroke-opacity: 1; stroke-width: 2px;"/></g><g class="legendsymbols"><g class="legendpoints"/></g></g><rect class="legendtoggle" x="0" y="-9.5" width="103.09375" height="19" style="fill: rgb(0, 0, 0); fill-opacity: 0;"/></g></g><g class="groups" transform=""><g class="traces" transform="translate(0,84.5)" style="opacity: 1;"><text class="legendtext" text-anchor="start" x="40" y="3.9" style="font-family: 'Open Sans', verdana, arial, sans-serif; font-size: 10px; fill: rgb(0, 0, 0); fill-opacity: 1; white-space: pre;">Modeled</text><g class="layers" style="opacity: 1;"><g class="legendfill"/><g class="legendlines"><path class="js-line" d="M5,0h30" style="fill: none; stroke: rgb(217, 95, 2); stroke-opacity: 1; stroke-dasharray: 9px, 9px; stroke-width: 2px;"/></g><g class="legendsymbols"><g class="legendpoints"/></g></g><rect class="legendtoggle" x="0" y="-9.5" width="103.09375" height="19" style="fill: rgb(0, 0, 0); fill-opacity: 0;"/></g></g></g><rect class="scrollbar" rx="20" ry="3" width="0" height="0" x="0" y="0" style="fill: rgb(128, 139, 164); fill-opacity: 1;"/></g><g class="g-gtitle"/><g class="g-xtitle"><text class="xtitle" x="102" y="154.5" text-anchor="middle" style="font-family: 'Open Sans', verdana, arial, sans-serif; font-size: 10px; fill: rgb(0, 0, 0); opacity: 1; font-weight: normal; white-space: pre;">Time [h]</text></g><g class="g-ytitle"><text class="ytitle" transform="rotate(-90,28.390625,72)" x="28.390625" y="72" text-anchor="middle" style="font-family: 'Open Sans', verdana, arial, sans-serif; font-size: 10px; fill: rgb(0, 0, 0); opacity: 1; font-weight: normal; white-space: pre;">OD</text></g></g></svg>