<svg class="main-svg" xmlns="http://www.w3.org/2000/svg" xmlns:xlink="http://www.w3.org/1999/xlink" width="700" height="1000" style="" viewBox="0 0 700 1000"><rect x="0" y="0" width="700" height="1000" style="fill: rgb(255, 255, 255); fill-opacity: 1;"/><defs id="defs-e33b7c"><g class="clips"><clipPath id="clipe33b7cxyplot" class="plotclip"><rect width="660" height="211.57500000000005"/></clipPath><clipPath id="clipe33b7cx2y2plot" class="plotclip"><rect width="660" height="211.57500000000005"/></clipPath><clipPath id="clipe33b7cx3y3plot" class="plotclip"><rect width="660" height="211.575"/></clipPath><clipPath id="clipe33b7cx4y4plot" class="plotclip"><rect width="660" height="211.57500000000002"/></clipPath><clipPath class="axesclip" id="clipe33b7cx"><rect x="40" y="0" width="660" height="1000"/></clipPath><clipPath class="axesclip" id="clipe33b7cy"><rect x="0" y="20" width="700" height="211.57500000000005"/></clipPath><clipPath class="axesclip" id="clipe33b7cxy"><rect x="40" y="20" width="660" height="211.57500000000005"/></clipPath><clipPath class="axesclip" id="clipe33b7cy2"><rect x="0" y="259.47499999999997" width="700" height="211.57500000000005"/></clipPath><clipPath class="axesclip" id="clipe33b7cxy2"><rect x="40" y="259.47499999999997" width="660" height="211.57500000000005"/></clipPath><clipPath class="axesclip" id="clipe33b7cy3"><rect x="0" y="498.95" width="700" height="211.575"/></clipPath><clipPath class="axesclip" id="clipe33b7cxy3"><rect x="40" y="498.95" width="660" height="211.575"/></clipPath><clipPath class="axesclip" id="clipe33b7cy4"><rect x="0" y="738.425" width="700" height="211.57500000000002"/></clipPath><clipPath class="axesclip" id="clipe33b7cxy4"><rect x="40" y="738.425" width="660" height="211.57500000000002"/></clipPath><clipPath class="axesclip" id="clipe33b7cx2"><rect x="40" y="0" width="660" height="1000"/></clipPath><clipPath class="axesclip" id="clipe33b7cx2y"><rect x="40" y="20" width="660" height="211.57500000000005"/></clipPath><clipPath class="axesclip" id="clipe33b7cx2y2"><rect x="40" y="259.47499999999997" width="660" height="211.57500000000005"/></clipPath><clipPath class="axesclip" id="clipe33b7cx2y3"><rect x="40" y="498.95" width="660" height="211.575"/></clipPath><clipPath class="axesclip" id="clipe33b7cx2y4"><rect x="40" y="738.425" width="660" height="211.57500000000002"/></clipPath><clipPath class="axesclip" id="clipe33b7cx3"><rect x="40" y="0" width="660" height="1000"/></clipPath><clipPath class="axesclip" id="clipe33b7cx3y"><rect x="40" y="20" width="660" height="211.57500000000005"/></clipPath><clipPath class="axesclip" id="clipe33b7cx3y2"><rect x="40" y="259.47499999999997" width="660" height="211.57500000000005"/></clipPath><clipPath class="axesclip" id="clipe33b7cx3y3"><rect x="40" y="498.95" width="660" height="211.575"/></clipPath><clipPath class="axesclip" id="clipe33b7cx3y4"><rect x="40" y="738.425" width="660" height="211.57500000000002"/></clipPath><clipPath class="axesclip" id="clipe33b7cx4"><rect x="40" y="0" width="660" height="1000"/></clipPath><clipPath class="axesclip" id="clipe33b7cx4y"><rect x="40" y="20" width="660" height="211.57500000000005"/></clipPath><clipPath class="axesclip" id="clipe33b7cx4y2"><rect x="40" y="259.47499999999997" width="660" height="211.57500000000005"/></clipPath><clipPath class="axesclip" id="clipe33b7cx4y3"><rect x="40" y="498.95" width="660" height="211.575"/></clipPath><clipPath class="axesclip" id="clipe33b7cx4y4"><rect x="40" y="738.425" width="660" height="211.57500000000002"/></clipPath></g><g class="gradients"/><g class="patterns"/></defs><g class="bglayer"/><g class="layer-below"><g class="imagelayer"/><g class="shapelayer"/></g><g class="cartesianlayer"><g class="subplot xy"><g class="layer-subplot"><g class="shapelayer"/><g class="imagelayer"/></g><g class="minor-gridlayer"><g class="x"/><g class="y"/></g><g class="gridlayer"><g class="x"><path class="xgrid crisp" transform="translate(132.86,0)" d="M0,20v211.57500000000005" style="stroke: rgb(0, 0, 0); stroke-opacity: 1; stroke-width: 1px;"/><path class="xgrid crisp" transform="translate(225.72,0)" d="M0,20v211.57500000000005" style="stroke: rgb(0, 0, 0); stroke-opacity: 1; stroke-width: 1px;"/><path class="xgrid crisp" transform="translate(318.59,0)" d="M0,20v211.57500000000005" style="stroke: rgb(0, 0, 0); stroke-opacity: 1; stroke-width: 1px;"/><path class="xgrid crisp" transform="translate(411.45,0)" d="M0,20v211.57500000000005" style="stroke: rgb(0, 0, 0); stroke-opacity: 1; stroke-width: 1px;"/><path class="xgrid crisp" transform="translate(504.31,0)" d="M0,20v211.57500000000005" style="stroke: rgb(0, 0, 0); stroke-opacity: 1; stroke-width: 1px;"/><path class="xgrid crisp" transform="translate(597.17,0)" d="M0,20v211.57500000000005" style="stroke: rgb(0, 0, 0); stroke-opacity: 1; stroke-width: 1px;"/><path class="xgrid crisp" transform="translate(690.03,0)" d="M0,20v211.57500000000005" style="stroke: rgb(0, 0, 0); stroke-opacity: 1; stroke-width: 1px;"/></g><g class="y"><path class="ygrid crisp" transform="translate(0,180.19)" d="M40,0h660" style="stroke: rgb(0, 0, 0); stroke-opacity: 1; stroke-width: 1px;"/><path class="ygrid crisp" transform="translate(0,141.36)" d="M40,0h660" style="stroke: rgb(0, 0, 0); stroke-opacity: 1; stroke-width: 1px;"/><path class="ygrid crisp" transform="translate(0,102.53)" d="M40,0h660" style="stroke: rgb(0, 0, 0); stroke-opacity: 1; stroke-width: 1px;"/><path class="ygrid crisp" transform="translate(0,63.7)" d="M40,0h660" style="stroke: rgb(0, 0, 0); stroke-opacity: 1; stroke-width: 1px;"/><path class="ygrid crisp" transform="translate(0,24.87)" d="M40,0h660" style="stroke: rgb(0, 0, 0); stroke-opacity: 1; stroke-width: 1px;"/></g></g><g class="zerolinelayer"><path class="yzl zl crisp" transform="translate(0,219.02)" d="M40,0h660" style="stroke: rgb(0, 0, 0); stroke-opacity: 1; stroke-width: 1px;"/></g><g class="layer-between"><g class="shapelayer"/><g class="imagelayer"/></g><path class="xlines-below"/><path class="ylines-below"/><g class="overlines-below"/><g class="xaxislayer-below"/><g class="yaxislayer-below"/><g class="overaxes-below"/><g class="overplot"><g class="xy" transform="translate(40,20)" clip-path="url(#clipe33b7cxyplot)"><g class="scatterlayer mlayer"><g class="trace scatter trace5a4073" style="stroke-miterlimit: 2; opacity: 1;"><g class="fills"/><g class="errorbars"/><g class="lines"><path class="js-line" d="M0,143.57L1.55,201L3.1,186.69L9.3,143.44L10.84,136.56L13.94,127.47L15.49,123.71L18.59,117.54L20.14,115.77L27.89,105.01L29.44,100.59L30.98,95.47L32.53,92.94L35.63,90.88L37.18,90.58L41.83,88.84L43.38,88.85L48.03,88.65L49.58,88.38L52.68,87.97L54.22,87.74L55.77,88.1L57.32,87.48L68.17,85.62L69.72,84.65L74.36,83.94L75.91,83.93L79.01,83.16L80.56,82.71L88.31,80.91L89.86,80.99L96.06,79.63L97.6,79.53L103.8,78.27L105.35,77.88L108.45,77.42L110,76.21L113.1,76.24L114.65,75.64L116.2,74.69L117.74,74.9L119.29,73.4L120.84,73.06L127.04,71.24L128.59,70.14L131.69,69.95L133.24,69.2L140.98,66.8L142.53,66.16L145.63,65.2L147.18,64.5L151.83,62.93L153.38,62.63L154.93,61.48L156.48,61.67L161.12,59.8L162.67,59.37L165.77,57.49L167.32,57.88L171.97,55.77L173.52,54.96L176.62,41.56L178.17,42.74L181.26,42.63L182.81,43.66L184.36,44.41L185.91,44.03L187.46,44.46L189.01,42.5L190.56,12.93L192.11,11.17L193.66,11.76L195.21,11.43L196.76,12.28L198.31,12.13L199.86,10.89L201.41,11.44L207.6,10.68L209.15,20.27L218.45,23.59L220,23.17L221.55,24.2L223.1,23.93L224.64,14.63L226.19,16.49L232.39,21.53L233.94,22.03L235.49,22.58L237.04,19.88L238.59,18.15L240.14,18.63L243.24,21.02L244.79,21.62L246.34,22.89L247.88,22.71L249.43,22.87L250.98,23.97L252.53,23.86L254.08,25.38L255.63,20.6L257.18,20.13L271.12,27.48L272.67,27.24L274.22,28.65L275.77,28.33L281.97,31.21L283.52,31.48L285.07,33.17L286.62,32.97L289.72,34.04L291.26,33.21L295.91,34.44L297.46,34.26L299.01,34.19L300.56,36.03L302.11,35.14L303.66,35.39L309.86,36.41L311.41,35.64L312.96,36.71L314.5,36.05L317.6,37.1L319.15,37.22L323.8,38.19L325.35,38.37L326.9,39.85L328.45,39.23L333.1,40.7L334.65,40.28L337.74,41.19L339.29,40.59L340.84,41.84L342.39,41.51L343.94,41.19L345.49,42.31L348.59,43.22L350.14,42.89L354.79,42.36L356.34,42.53L357.89,43.65L359.44,43.13L360.98,42.78L362.53,43.33L364.08,42.54L365.63,43.88L367.18,43.19L368.73,44.41L370.28,43.4L371.83,44.57L374.93,44.11L376.48,45.32L378.03,44.1L379.58,45.33L381.13,44.19L382.67,45.75L384.22,44.96L385.77,45.26L388.87,45.02L390.42,45.53L391.97,46.03L393.52,45.37L396.62,46.44L398.17,46.21L399.72,47.09L401.27,45.94L402.82,45.84L404.36,47.03L407.46,46.86L409.01,45.46L412.11,46.51L413.66,45.58L416.76,45.5L418.31,46.71L422.96,46.41L424.51,46L429.15,47.89L430.7,47.42L435.35,48.77L436.9,48.12L443.1,47.33L444.65,46.19L446.2,48.58L447.75,47.16L449.3,47.64L450.84,48.97L452.39,48.21L453.94,48.6L455.49,47.46L457.04,48.52L464.79,48.5L466.34,50.05L467.89,48.2L469.44,48.7L470.98,48.17L472.53,48.72L477.18,48.92L478.73,48.67L480.28,48.54L481.83,49.88L489.58,47.58L491.13,48.53L497.32,47.71L498.87,48.21L500.42,48.85L501.97,47.99L503.52,47.7L505.07,48.46L506.62,47.32L508.17,48.54L509.72,47L511.27,47.4L514.37,47.37L515.92,46.65L517.46,48.12L519.01,48.5L520.56,47.6L522.11,47.78L523.66,48.63L525.21,47.44L526.76,47.19L528.31,48.82L529.86,47.63L531.41,47.46L536.06,48.35L537.61,47.74L539.16,49.14L540.71,47.63L542.25,48.04L543.8,49.39L545.35,47.75L546.9,48.22L548.45,48.98L550,48.77L553.1,48.24L554.65,49.18L557.75,48.19L559.3,49.45L563.94,49.8L565.49,50.1L567.04,49.23L568.59,49.24L570.14,47.89L571.69,48.96L573.24,48.54L574.79,49.11L577.89,48.16L579.44,48.62L580.99,48.32L582.53,46.37L585.63,49.53L587.18,49.49L590.28,49.07L591.83,48.6L593.38,48.51L594.93,50.28L596.48,49.35L598.03,49.83L599.58,49.99L601.13,49.29L605.77,51.21L607.32,51.67L608.87,50.07L610.42,51.72L611.97,52.61L613.52,51.61L615.07,52.41L616.62,51.88L621.27,53.22L622.82,53.5L624.37,53.42L625.92,54.13L629.01,52.94L630.56,52.85L635.21,54.1L636.76,54L638.31,54.46L639.86,53.71L644.51,51.53L646.06,52.72L649.16,51.95L650.7,52.09L652.25,51.47L653.8,49.61L655.35,50.12L656.9,47.25L660,50.69" style="vector-effect: none; fill: none; stroke: rgb(79, 79, 79); stroke-opacity: 1; stroke-width: 3px; opacity: 1;"/></g><g class="points"/><g class="text"/></g><g class="trace scatter trace7186c2" style="stroke-miterlimit: 2; opacity: 1;"><g class="fills"/><g class="errorbars"/><g class="lines"><path class="js-line" d="M0,173.25L1.55,196.51L3.1,190.41L12.39,144.16L13.94,138.28L18.59,125.28L20.14,120.93L23.24,117.33L24.79,116.05L27.89,113.66L29.44,110.22L44.93,98.21L46.48,97.55L54.22,93.24L55.77,92.84L60.42,90.75L61.97,89.9L77.46,83.92L79.01,83.43L92.96,78.46L94.51,77.88L100.7,75.34L102.25,74.78L111.55,71.46L113.1,70.61L116.2,69.86L117.75,69.62L139.44,63.75L140.99,63.5L156.48,60.47L158.03,60.37L164.22,59.51L165.77,59.27L170.42,58.79L171.97,58.68L178.17,57.74L179.72,57.97L184.36,58.11L185.91,58.34L187.46,58.53L189.01,57.17L190.56,53.63L192.11,53.82L201.41,55.2L202.96,54.93L206.05,55.36L207.6,55.33L210.7,54.46L212.25,55.05L223.1,56.27L224.65,55.02L229.29,56.26L230.84,56.23L235.49,56.93L237.04,56.68L238.59,56.06L240.14,56.59L246.34,57.59L247.89,57.8L250.98,57.9L252.53,58.19L254.08,58.37L255.63,57.53L258.73,57.7L260.28,57.78L264.93,58.01L266.48,58.03L269.58,58.66L271.13,58.45L277.32,58.94L278.87,58.93L288.17,59.72L289.72,59.56L339.29,61.72L340.84,61.71L354.79,62.33L356.33,62.12L365.63,62.6L367.18,62.6L370.28,62.75L371.83,62.66L373.38,63.02L374.93,62.46L378.03,62.67L379.57,62.59L388.87,62.43L390.42,62.51L401.27,62.79L402.81,62.71L415.21,63.32L416.76,63.25L438.45,63.8L440,63.54L455.49,64.21L457.04,64.11L464.79,64.17L466.33,64.11L478.73,64.39L480.28,64.11L483.38,64.17L484.93,64L488.03,64.13L489.57,64.25L512.81,64.05L514.36,63.86L517.46,64.02L519.01,63.98L528.31,64.01L529.86,63.85L542.25,64.25L543.8,63.89L546.9,64.26L548.45,63.86L576.34,63.82L577.88,63.56L584.08,63.67L585.63,63.35L588.73,63.71L590.28,63.28L593.38,63.83L594.93,63.5L610.42,63.76L611.97,63.42L627.46,63.28L629.01,63.32L641.41,63.84L642.96,120.53L644.5,63.13L646.05,63.14L655.35,63.33L656.9,63.64L660,63.5" style="vector-effect: none; fill: none; stroke: rgb(79, 79, 79); stroke-opacity: 1; stroke-width: 3px; opacity: 1;"/></g><g class="points"/><g class="text"/></g></g></g></g><path class="xlines-above crisp" d="M0,0" style="fill: none;"/><path class="ylines-above crisp" d="M0,0" style="fill: none;"/><g class="overlines-above"/><g class="xaxislayer-above"/><g class="yaxislayer-above"><g class="ytick"><text text-anchor="end" x="39" y="4.8999999999999995" transform="translate(0,219.02)" style="font-family: 'Open Sans', verdana, arial, sans-serif; font-size: 14px; fill: rgb(0, 0, 0); fill-opacity: 1; white-space: pre; opacity: 1;">0</text></g><g class="ytick"><text text-anchor="end" x="39" y="4.8999999999999995" style="font-family: 'Open Sans', verdana, arial, sans-serif; font-size: 14px; fill: rgb(0, 0, 0); fill-opacity: 1; white-space: pre; opacity: 1;" transform="translate(0,180.19)">1</text></g><g class="ytick"><text text-anchor="end" x="39" y="4.8999999999999995" style="font-family: 'Open Sans', verdana, arial, sans-serif; font-size: 14px; fill: rgb(0, 0, 0); fill-opacity: 1; white-space: pre; opacity: 1;" transform="translate(0,141.36)">2</text></g><g class="ytick"><text text-anchor="end" x="39" y="4.8999999999999995" style="font-family: 'Open Sans', verdana, arial, sans-serif; font-size: 14px; fill: rgb(0, 0, 0); fill-opacity: 1; white-space: pre; opacity: 1;" transform="translate(0,102.53)">3</text></g><g class="ytick"><text text-anchor="end" x="39" y="4.8999999999999995" style="font-family: 'Open Sans', verdana, arial, sans-serif; font-size: 14px; fill: rgb(0, 0, 0); fill-opacity: 1; white-space: pre; opacity: 1;" transform="translate(0,63.7)">4</text></g><g class="ytick"><text text-anchor="end" x="39" y="4.8999999999999995" style="font-family: 'Open Sans', verdana, arial, sans-serif; font-size: 14px; fill: rgb(0, 0, 0); fill-opacity: 1; white-space: pre; opacity: 1;" transform="translate(0,24.87)">5</text></g></g><g class="overaxes-above"/></g><g class="subplot x2y2"><g class="layer-subplot"><g class="shapelayer"/><g class="imagelayer"/></g><g class="minor-gridlayer"><g class="x2"/><g class="y2"/></g><g class="gridlayer"><g class="x2"><path class="x2grid crisp" transform="translate(132.86,0)" d="M0,259.47499999999997v211.57500000000005" style="stroke: rgb(0, 0, 0); stroke-opacity: 1; stroke-width: 1px;"/><path class="x2grid crisp" transform="translate(225.72,0)" d="M0,259.47499999999997v211.57500000000005" style="stroke: rgb(0, 0, 0); stroke-opacity: 1; stroke-width: 1px;"/><path class="x2grid crisp" transform="translate(318.59,0)" d="M0,259.47499999999997v211.57500000000005" style="stroke: rgb(0, 0, 0); stroke-opacity: 1; stroke-width: 1px;"/><path class="x2grid crisp" transform="translate(411.45,0)" d="M0,259.47499999999997v211.57500000000005" style="stroke: rgb(0, 0, 0); stroke-opacity: 1; stroke-width: 1px;"/><path class="x2grid crisp" transform="translate(504.31,0)" d="M0,259.47499999999997v211.57500000000005" style="stroke: rgb(0, 0, 0); stroke-opacity: 1; stroke-width: 1px;"/><path class="x2grid crisp" transform="translate(597.17,0)" d="M0,259.47499999999997v211.57500000000005" style="stroke: rgb(0, 0, 0); stroke-opacity: 1; stroke-width: 1px;"/><path class="x2grid crisp" transform="translate(690.03,0)" d="M0,259.47499999999997v211.57500000000005" style="stroke: rgb(0, 0, 0); stroke-opacity: 1; stroke-width: 1px;"/></g><g class="y2"><path class="y2grid crisp" transform="translate(0,435.81499999999994)" d="M40,0h660" style="stroke: rgb(0, 0, 0); stroke-opacity: 1; stroke-width: 1px;"/><path class="y2grid crisp" transform="translate(0,400.78499999999997)" d="M40,0h660" style="stroke: rgb(0, 0, 0); stroke-opacity: 1; stroke-width: 1px;"/><path class="y2grid crisp" transform="translate(0,365.755)" d="M40,0h660" style="stroke: rgb(0, 0, 0); stroke-opacity: 1; stroke-width: 1px;"/><path class="y2grid crisp" transform="translate(0,330.72499999999997)" d="M40,0h660" style="stroke: rgb(0, 0, 0); stroke-opacity: 1; stroke-width: 1px;"/><path class="y2grid crisp" transform="translate(0,295.69499999999994)" d="M40,0h660" style="stroke: rgb(0, 0, 0); stroke-opacity: 1; stroke-width: 1px;"/><path class="y2grid crisp" transform="translate(0,260.66499999999996)" d="M40,0h660" style="stroke: rgb(0, 0, 0); stroke-opacity: 1; stroke-width: 1px;"/></g></g><g class="zerolinelayer"/><g class="layer-between"><g class="shapelayer"/><g class="imagelayer"/></g><path class="xlines-below"/><path class="ylines-below"/><g class="overlines-below"/><g class="xaxislayer-below"/><g class="yaxislayer-below"/><g class="overaxes-below"/><g class="overplot"><g class="x2y2" transform="translate(40,259.47499999999997)" clip-path="url(#clipe33b7cx2y2plot)"><g class="scatterlayer mlayer"><g class="trace scatter traced9df4e" style="stroke-miterlimit: 2; opacity: 1;"><g class="fills"/><g class="errorbars"/><g class="lines"><path class="js-line" d="M0,201L6.2,173.25L7.75,169.75L10.84,150.69L12.39,148.73L13.94,140.12L15.49,138.43L18.59,129.61L20.14,127.93L23.24,129.54L24.79,125.47L26.34,129.4L27.89,122.39L29.44,124.14L30.98,117.35L32.53,118.82L34.08,114.82L35.63,115.81L37.18,112.79L38.73,115.46L40.28,110.69L41.83,113.35L43.38,113.98L44.93,111.11L46.48,109.99L48.03,110.34L49.58,108.31L51.13,112.58L52.68,109.15L55.77,106.35L57.32,106.63L60.42,109.92L61.97,110.62L66.62,106.91L68.17,111.6L71.27,105.51L72.82,107.12L74.36,106.21L75.91,106.35L77.46,102.85L79.01,106.14L80.56,107.68L82.11,103.2L83.66,103.27L85.21,107.05L88.31,101.23L89.86,102.21L92.96,103.69L94.51,101.09L96.06,103.83L97.6,102.99L99.15,99.69L100.7,102.49L103.8,96.68L105.35,98.15L106.9,97.24L108.45,99.97L110,97.94L111.55,97.38L113.1,95L114.65,97.1L116.2,94.65L117.74,95.98L119.29,93.81L120.84,95.91L123.94,89.25L125.49,92.27L127.04,84.28L128.59,85.54L130.14,92.34L131.69,91.29L133.24,88.41L134.79,90.02L136.34,84.21L137.88,86.87L139.43,80.15L140.98,89.32L142.53,80.5L144.08,80.22L145.63,82.67L147.18,81.62L148.73,73.28L150.28,79.73L151.83,79.31L153.38,75.31L154.93,73.42L156.48,73.49L158.03,71.6L159.57,73.91L161.12,72.23L162.67,73.7L164.22,74.33L165.77,67.96L167.32,73.07L168.87,73.56L171.97,69.29L173.52,69.92L176.62,46.38L178.17,52.82L179.71,57.1L181.26,57.59L182.81,54.44L184.36,54.01L185.91,53.31L187.46,55.91L189.01,52.96L190.56,47.29L192.11,45.26L193.66,50.37L195.21,52.96L196.76,52.12L198.31,53.17L199.86,51.42L201.41,57.1L202.95,44.91L204.5,46.38L206.05,51.42L207.6,47.5L209.15,23.47L210.7,19.48L212.25,26.76L213.8,22.28L215.35,23.54L216.9,27.39L218.45,26.9L220,24.03L221.55,30.69L223.1,10.58L224.64,28.79L226.19,28.23L227.74,32.79L229.29,37.41L230.84,37.55L232.39,153.43L233.94,155.81L237.04,157.07L238.59,148.94L241.69,152.1L243.24,144.67L244.79,150.34L246.34,147.4L247.88,154.62L249.43,155.25L250.98,156.79L252.53,155.18L254.08,157.77L255.63,142.64L257.18,141.8L258.73,147.82L261.83,151.89L263.38,150.97L264.93,150.48L266.48,146.07L269.57,153.85L271.12,150.9L274.22,152.59L275.77,156.44L277.32,149.85L278.87,154.34L280.42,149.85L281.97,157.42L283.52,157.7L285.07,154.62L286.62,157.7L288.17,158.75L289.72,152.87L291.26,159.45L292.81,159.52L294.36,150.55L295.91,147.89L297.46,154.41L299.01,158.96L300.56,156.02L302.11,158.47L303.66,158.26L305.21,161.76L306.76,156.3L308.31,161.27L309.86,156.93L311.41,159.1L312.96,158.4L314.5,159.17L316.05,157.28L317.6,160.64L319.15,159.8L320.7,154.9L322.25,156.51L323.8,161.27L325.35,156.09L326.9,159.03L328.45,160.08L330,162.81L331.55,160.57L334.65,161.9L336.2,164.71L339.29,160.15L340.84,164.29L342.39,163.73L343.94,159.38L345.49,163.45L347.04,158.82L350.14,164.64L351.69,162.88L353.24,159.03L354.79,164.71L356.34,161.41L357.89,154.27L359.44,166.18L360.98,159.59L362.53,165.41L364.08,163.24L365.63,159.59L367.18,164.99L368.73,166.32L370.28,161.06L371.83,161.62L373.38,165.55L378.03,156.58L379.58,164.57L381.13,167.37L382.67,160.15L384.22,165.62L385.77,162.95L387.32,161.62L388.87,161.69L390.42,164.15L391.97,159.73L393.52,160.15L395.07,166.11L396.62,160.01L398.17,166.95L399.72,157.56L401.27,164.29L402.82,158.68L404.36,163.38L405.91,166.81L407.46,163.16L409.01,165.06L410.56,165.27L412.11,167.16L413.66,159.17L415.21,166.74L416.76,161.76L418.31,164.15L419.86,162.81L421.41,167.51L422.96,164.08L424.51,162.46L426.06,168.77L427.61,160.43L429.15,166.32L430.7,167.23L432.25,163.87L433.8,168L435.35,163.94L436.9,163.73L438.45,165.55L441.55,161.13L443.1,168.21L444.65,165.55L446.2,154.27L447.75,165.69L449.3,164.99L450.84,167.86L452.39,166.11L455.49,157.14L457.04,159.38L458.59,170.94L460.14,167.51L461.69,166.11L463.24,159.45L464.79,164.15L466.34,160.99L467.89,162.25L469.44,169.05L470.98,163.87L472.53,165.13L474.08,157.7L475.63,163.45L478.73,159.66L480.28,166.95L481.83,161.2L483.38,162.39L484.93,169.96L486.48,167.37L488.03,163.94L489.58,169.05L491.13,161.06L492.67,166.95L494.22,161.55L495.77,170.66L497.32,161.62L498.87,165.76L501.97,172.69L503.52,163.87L505.07,163.31L506.62,166.88L508.17,169.26L509.72,163.45L511.27,164.71L512.82,164.36L514.37,166.81L515.92,162.46L517.46,166.95L519.01,165.34L522.11,165.69L523.66,169.26L525.21,168.28L526.76,161.97L528.31,166.11L529.86,161.62L531.41,169.47L532.96,164.29L534.51,166.39L536.06,160.85L537.61,163.16L539.16,168.42L540.71,157.07L542.25,164.22L543.8,161.9L545.35,162.74L546.9,169.33L548.45,165.48L551.55,164.92L553.1,165.34L554.65,164.57L556.2,162.74L557.75,157.84L559.3,165.83L560.85,162.81L562.39,170.87L563.94,164.36L565.49,167.09L567.04,157.28L568.59,160.01L570.14,166.46L571.69,167.58L573.24,168.14L574.79,167.23L576.34,158.54L577.89,167.72L579.44,158.33L580.99,159.87L582.53,154.76L584.08,161.55L585.63,166.04L587.18,164.15L588.73,161.62L590.28,156.58L591.83,157.14L593.38,162.74L596.48,155.88L598.03,163.45L599.58,168.35L601.13,166.95L602.68,162.6L604.22,162.39L605.77,158.61L607.32,169.75L608.87,172.76L610.42,160.08L611.97,171.57L613.52,166.88L615.07,163.09L616.62,161.55L619.72,163.8L621.27,166.81L622.82,164.15L624.37,169.26L625.92,164.22L627.46,164.99L629.01,170.94L630.56,158.96L635.21,168.42L636.76,166.53L638.31,162.81L639.86,161.55L641.41,170.17L642.96,165.62L644.51,165.27L646.06,166.39L649.16,167.23L650.7,164.57L652.25,171.92L653.8,160.08L658.45,165.34L660,164.43" style="vector-effect: none; fill: none; stroke: rgb(128, 0, 128); stroke-opacity: 1; stroke-width: 3px; opacity: 1;"/></g><g class="points"/><g class="text"/></g></g></g></g><path class="xlines-above crisp" d="M0,0" style="fill: none;"/><path class="ylines-above crisp" d="M0,0" style="fill: none;"/><g class="overlines-above"/><g class="xaxislayer-above"/><g class="yaxislayer-above"><g class="y2tick"><text text-anchor="end" x="39" y="4.8999999999999995" transform="translate(0,470.835)" style="font-family: 'Open Sans', verdana, arial, sans-serif; font-size: 14px; fill: rgb(0, 0, 0); fill-opacity: 1; white-space: pre; opacity: 1;">1000</text></g><g class="y2tick"><text text-anchor="end" x="39" y="4.8999999999999995" style="font-family: 'Open Sans', verdana, arial, sans-serif; font-size: 14px; fill: rgb(0, 0, 0); fill-opacity: 1; white-space: pre; opacity: 1;" transform="translate(0,435.81499999999994)">1500</text></g><g class="y2tick"><text text-anchor="end" x="39" y="4.8999999999999995" style="font-family: 'Open Sans', verdana, arial, sans-serif; font-size: 14px; fill: rgb(0, 0, 0); fill-opacity: 1; white-space: pre; opacity: 1;" transform="translate(0,400.78499999999997)">2000</text></g><g class="y2tick"><text text-anchor="end" x="39" y="4.8999999999999995" style="font-family: 'Open Sans', verdana, arial, sans-serif; font-size: 14px; fill: rgb(0, 0, 0); fill-opacity: 1; white-space: pre; opacity: 1;" transform="translate(0,365.755)">2500</text></g><g class="y2tick"><text text-anchor="end" x="39" y="4.8999999999999995" style="font-family: 'Open Sans', verdana, arial, sans-serif; font-size: 14px; fill: rgb(0, 0, 0); fill-opacity: 1; white-space: pre; opacity: 1;" transform="translate(0,330.72499999999997)">3000</text></g><g class="y2tick"><text text-anchor="end" x="39" y="4.8999999999999995" style="font-family: 'Open Sans', verdana, arial, sans-serif; font-size: 14px; fill: rgb(0, 0, 0); fill-opacity: 1; white-space: pre; opacity: 1;" transform="translate(0,295.69499999999994)">3500</text></g><g class="y2tick"><text text-anchor="end" x="39" y="4.8999999999999995" style="font-family: 'Open Sans', verdana, arial, sans-serif; font-size: 14px; fill: rgb(0, 0, 0); fill-opacity: 1; white-space: pre; opacity: 1;" transform="translate(0,260.66499999999996)">4000</text></g></g><g class="overaxes-above"/></g><g class="subplot x3y3"><g class="layer-subplot"><g class="shapelayer"/><g class="imagelayer"/></g><g class="minor-gridlayer"><g class="x3"/><g class="y3"/></g><g class="gridlayer"><g class="x3"><path class="x3grid crisp" transform="translate(132.86,0)" d="M0,498.95v211.575" style="stroke: rgb(0, 0, 0); stroke-opacity: 1; stroke-width: 1px;"/><path class="x3grid crisp" transform="translate(225.72,0)" d="M0,498.95v211.575" style="stroke: rgb(0, 0, 0); stroke-opacity: 1; stroke-width: 1px;"/><path class="x3grid crisp" transform="translate(318.59,0)" d="M0,498.95v211.575" style="stroke: rgb(0, 0, 0); stroke-opacity: 1; stroke-width: 1px;"/><path class="x3grid crisp" transform="translate(411.45,0)" d="M0,498.95v211.575" style="stroke: rgb(0, 0, 0); stroke-opacity: 1; stroke-width: 1px;"/><path class="x3grid crisp" transform="translate(504.31,0)" d="M0,498.95v211.575" style="stroke: rgb(0, 0, 0); stroke-opacity: 1; stroke-width: 1px;"/><path class="x3grid crisp" transform="translate(597.17,0)" d="M0,498.95v211.575" style="stroke: rgb(0, 0, 0); stroke-opacity: 1; stroke-width: 1px;"/><path class="x3grid crisp" transform="translate(690.03,0)" d="M0,498.95v211.575" style="stroke: rgb(0, 0, 0); stroke-opacity: 1; stroke-width: 1px;"/></g><g class="y3"><path class="y3grid crisp" transform="translate(0,666.46)" d="M40,0h660" style="stroke: rgb(0, 0, 0); stroke-opacity: 1; stroke-width: 1px;"/><path class="y3grid crisp" transform="translate(0,622.3)" d="M40,0h660" style="stroke: rgb(0, 0, 0); stroke-opacity: 1; stroke-width: 1px;"/><path class="y3grid crisp" transform="translate(0,578.14)" d="M40,0h660" style="stroke: rgb(0, 0, 0); stroke-opacity: 1; stroke-width: 1px;"/><path class="y3grid crisp" transform="translate(0,533.97)" d="M40,0h660" style="stroke: rgb(0, 0, 0); stroke-opacity: 1; stroke-width: 1px;"/></g></g><g class="zerolinelayer"/><g class="layer-between"><g class="shapelayer"/><g class="imagelayer"/></g><path class="xlines-below"/><path class="ylines-below"/><g class="overlines-below"/><g class="xaxislayer-below"/><g class="yaxislayer-below"/><g class="overaxes-below"/><g class="overplot"><g class="x3y3" transform="translate(40,498.95)" clip-path="url(#clipe33b7cx3y3plot)"><g class="scatterlayer mlayer"><g class="trace scatter tracee0c977" style="stroke-miterlimit: 2; opacity: 1;"><g class="fills"/><g class="errorbars"/><g class="lines"><path class="js-line" d="M0,201L1.55,194.19L3.1,183.39L4.65,177.55L6.2,162.1L7.75,157.44L9.3,139.55L10.84,126.35L12.39,120.44L17.04,104.98L18.59,105.15L20.14,94.57L21.69,92.87L23.24,94.18L24.79,80.81L26.34,90.07L27.89,85.53L30.98,74.94L32.53,73.7L35.63,69.53L37.18,64.94L38.73,66.13L40.28,60.03L41.83,64.48L43.38,64.25L44.93,61.08L46.48,59.76L48.03,60.22L49.58,56.95L51.13,60.08L52.68,57.94L54.22,55.42L55.77,58.4L58.87,55.15L60.42,57.89L61.97,54.57L63.52,53.37L65.07,57.81L66.62,55.78L68.17,56.44L69.72,55.59L71.27,51.02L72.82,53.47L74.36,48.36L75.91,52.24L77.46,49.27L79.01,49.35L82.11,51.92L83.66,49.74L86.76,46.6L88.31,46.33L89.86,43.92L91.41,50.14L92.96,48.82L94.51,45.48L96.06,46.17L97.6,44.48L99.15,41.73L100.7,41.97L102.25,43.56L103.8,37.43L105.35,42.21L106.9,38.76L108.45,37.47L110,41.66L111.55,41.05L113.1,33.85L114.65,39.32L116.2,35.54L117.74,40.09L119.29,36.91L120.84,35.63L122.39,31.71L123.94,26.88L125.49,27.6L127.04,28.39L128.59,25.82L130.14,18.95L131.69,27.67L133.24,24.68L134.79,26.06L136.34,21.38L137.88,22.55L139.43,19.76L140.98,22.53L144.08,12.57L145.63,22.1L147.18,21.23L148.73,10.58L150.28,11.76L151.83,16.47L153.38,10.58L154.93,11.06L158.03,10.58L159.57,10.58L230.84,10.58L232.39,115.48L233.94,115.17L235.49,115.96L237.04,121.56L238.59,112.69L240.14,114.39L241.69,112.56L243.24,107.1L244.79,113.75L246.34,108.51L247.88,123.33L249.43,117.71L250.98,117.84L254.08,122.88L255.63,102.9L257.18,87.8L258.73,110.06L261.83,107.79L263.38,107.77L264.93,113.79L266.48,108.79L269.57,117.72L271.12,111.84L272.67,117.43L274.22,114.75L275.77,110.63L277.32,119.32L278.87,121.24L280.42,109.35L281.97,119.57L283.52,119.01L285.07,120.99L286.62,125.36L288.17,129.81L289.72,120.09L291.26,121.19L292.81,125.52L294.36,111.31L295.91,109.93L297.46,121.23L299.01,126.85L300.56,112.65L302.11,127.24L303.66,124.33L305.21,124.88L306.76,123.66L308.31,121.07L309.86,125.88L311.41,124.57L314.5,128.86L316.05,126.53L317.6,131.26L319.15,129.11L320.7,127.31L322.25,131.34L325.35,126.18L326.9,134.62L328.45,122.54L330,124.05L331.55,129.14L333.1,127.1L336.2,135.83L337.74,131.11L339.29,133L340.84,128.53L342.39,133.4L343.94,128.43L345.49,138.52L347.04,136.38L350.14,131.23L351.69,133.23L354.79,132L356.34,128.26L357.89,131.71L359.44,131.62L360.98,124.56L362.53,134.03L365.63,126.55L367.18,129.21L368.73,141.55L370.28,128.04L373.38,127.11L374.93,129.5L376.48,130.49L378.03,120.89L379.58,137.37L381.13,135.97L382.67,128.31L384.22,135.89L385.77,135.11L387.32,132.39L388.87,131.66L390.42,129.29L393.52,130.93L395.07,139.94L396.62,132.46L398.17,128.86L399.72,125.13L401.27,132.68L402.82,124.89L404.36,132.06L405.91,133.26L407.46,136.56L409.01,133.93L410.56,141.54L412.11,134.36L413.66,133.47L415.21,135.97L416.76,135.41L418.31,137.16L419.86,122.78L421.41,135.75L422.96,131.14L424.51,138.85L426.06,138.71L427.61,130.68L429.15,139.41L430.7,140.88L432.25,133.46L433.8,136.25L435.35,134.42L436.9,138.34L438.45,138.47L441.55,127.55L443.1,141.2L444.65,138.06L446.2,129.03L447.75,134.36L449.3,130.71L450.84,140.61L452.39,140.6L453.94,134.46L455.49,125.05L457.04,134.28L458.59,132.89L460.14,133.79L461.69,140.6L463.24,123.37L464.79,139.49L466.34,124.54L467.89,133.94L469.44,136.12L470.98,130.91L472.53,136.39L474.08,125.38L475.63,139.47L477.18,135.4L478.73,135.23L480.28,132.76L483.38,134.32L484.93,141.59L486.48,142.34L488.03,131.23L489.58,142.02L491.13,126.78L494.22,138.54L495.77,140.64L498.87,130.14L500.42,126.02L501.97,141.93L503.52,133.74L506.62,137.87L508.17,134.33L509.72,122.86L511.27,134.31L512.82,132.82L514.37,139.21L517.46,128.4L519.01,136.23L520.56,129.39L522.11,130.47L525.21,140.31L526.76,131.27L528.31,136.67L529.86,136.05L531.41,141.51L532.96,130.58L534.51,131.92L536.06,126.48L537.61,128.07L539.16,138.1L540.71,124.89L542.25,136.79L543.8,125.78L545.35,126.29L546.9,134.97L548.45,131.25L550,132.08L551.55,135.98L553.1,127.17L554.65,125.33L556.2,137.88L557.75,121.05L559.3,135.16L560.85,137.83L562.39,137.19L563.94,131.87L565.49,139.51L567.04,117.57L568.59,130.54L570.14,134.71L571.69,136.04L573.24,138.49L574.79,130.91L576.34,128.81L577.89,137.53L579.44,126.18L580.99,136.34L582.53,123.69L584.08,126.12L585.63,140.78L588.73,127.37L590.28,128.02L591.83,126.63L593.38,113.51L594.93,121.81L596.48,121.6L598.03,137.66L599.58,134.96L601.13,139.42L602.68,135.55L604.22,134.96L605.77,138.68L607.32,145.29L608.87,136.98L610.42,125.42L611.97,137.37L613.52,138.88L615.07,124.2L616.62,130.29L618.17,132.91L621.27,139.99L622.82,133.81L624.37,140.14L625.92,137.37L627.46,139.49L629.01,149.43L630.56,122.9L632.11,126.16L633.66,142.73L635.21,138.27L638.31,125.51L639.86,126.57L641.41,141.36L642.96,134.1L644.51,138.47L646.06,137.38L647.61,137.62L649.16,136.51L650.7,135.67L652.25,147.88L653.8,125.77L655.35,130.08L656.9,127.47L658.45,134.39L660,126.92" style="vector-effect: none; fill: none; stroke: rgb(170, 0, 0); stroke-opacity: 1; stroke-width: 3px; opacity: 1;"/></g><g class="points"/><g class="text"/></g></g></g></g><path class="xlines-above crisp" d="M0,0" style="fill: none;"/><path class="ylines-above crisp" d="M0,0" style="fill: none;"/><g class="overlines-above"/><g class="xaxislayer-above"/><g class="yaxislayer-above"><g class="y3tick"><text text-anchor="end" x="39" y="4.8999999999999995" transform="translate(0,666.46)" style="font-family: 'Open Sans', verdana, arial, sans-serif; font-size: 14px; fill: rgb(0, 0, 0); fill-opacity: 1; white-space: pre; opacity: 1;">30k</text></g><g class="y3tick"><text text-anchor="end" x="39" y="4.8999999999999995" style="font-family: 'Open Sans', verdana, arial, sans-serif; font-size: 14px; fill: rgb(0, 0, 0); fill-opacity: 1; white-space: pre; opacity: 1;" transform="translate(0,622.3)">40k</text></g><g class="y3tick"><text text-anchor="end" x="39" y="4.8999999999999995" style="font-family: 'Open Sans', verdana, arial, sans-serif; font-size: 14px; fill: rgb(0, 0, 0); fill-opacity: 1; white-space: pre; opacity: 1;" transform="translate(0,578.14)">50k</text></g><g class="y3tick"><text text-anchor="end" x="39" y="4.8999999999999995" style="font-family: 'Open Sans', verdana, arial, sans-serif; font-size: 14px; fill: rgb(0, 0, 0); fill-opacity: 1; white-space: pre; opacity: 1;" transform="translate(0,533.97)">60k</text></g></g><g class="overaxes-above"/></g><g class="subplot x4y4"><g class="layer-subplot"><g class="shapelayer"/><g class="imagelayer"/></g><g class="minor-gridlayer"><g class="x4"/><g class="y4"/></g><g class="gridlayer"><g class="x4"><path class="x4grid crisp" transform="translate(132.86,0)" d="M0,738.425v211.57500000000002" style="stroke: rgb(0, 0, 0); stroke-opacity: 1; stroke-width: 1px;"/><path class="x4grid crisp" transform="translate(225.72,0)" d="M0,738.425v211.57500000000002" style="stroke: rgb(0, 0, 0); stroke-opacity: 1; stroke-width: 1px;"/><path class="x4grid crisp" transform="translate(318.59,0)" d="M0,738.425v211.57500000000002" style="stroke: rgb(0, 0, 0); stroke-opacity: 1; stroke-width: 1px;"/><path class="x4grid crisp" transform="translate(411.45,0)" d="M0,738.425v211.57500000000002" style="stroke: rgb(0, 0, 0); stroke-opacity: 1; stroke-width: 1px;"/><path class="x4grid crisp" transform="translate(504.31,0)" d="M0,738.425v211.57500000000002" style="stroke: rgb(0, 0, 0); stroke-opacity: 1; stroke-width: 1px;"/><path class="x4grid crisp" transform="translate(597.17,0)" d="M0,738.425v211.57500000000002" style="stroke: rgb(0, 0, 0); stroke-opacity: 1; stroke-width: 1px;"/><path class="x4grid crisp" transform="translate(690.03,0)" d="M0,738.425v211.57500000000002" style="stroke: rgb(0, 0, 0); stroke-opacity: 1; stroke-width: 1px;"/></g><g class="y4"><path class="y4grid crisp" transform="translate(0,939.165)" d="M40,0h660" style="stroke: rgb(0, 0, 0); stroke-opacity: 1; stroke-width: 1px;"/><path class="y4grid crisp" transform="translate(0,899.665)" d="M40,0h660" style="stroke: rgb(0, 0, 0); stroke-opacity: 1; stroke-width: 1px;"/><path class="y4grid crisp" transform="translate(0,860.155)" d="M40,0h660" style="stroke: rgb(0, 0, 0); stroke-opacity: 1; stroke-width: 1px;"/><path class="y4grid crisp" transform="translate(0,820.645)" d="M40,0h660" style="stroke: rgb(0, 0, 0); stroke-opacity: 1; stroke-width: 1px;"/><path class="y4grid crisp" transform="translate(0,781.135)" d="M40,0h660" style="stroke: rgb(0, 0, 0); stroke-opacity: 1; stroke-width: 1px;"/><path class="y4grid crisp" transform="translate(0,741.635)" d="M40,0h660" style="stroke: rgb(0, 0, 0); stroke-opacity: 1; stroke-width: 1px;"/></g></g><g class="zerolinelayer"/><g class="layer-between"><g class="shapelayer"/><g class="imagelayer"/></g><path class="xlines-below"/><path class="ylines-below"/><g class="overlines-below"/><g class="xaxislayer-below"/><g class="yaxislayer-below"/><g class="overaxes-below"/><g class="overplot"><g class="x4y4" transform="translate(40,738.425)" clip-path="url(#clipe33b7cx4y4plot)"><g class="scatterlayer mlayer"><g class="trace scatter traceb3a793" style="stroke-miterlimit: 2; opacity: 1;"><g class="fills"/><g class="errorbars"/><g class="lines"><path class="js-line" d="M0,201L1.55,198.31L3.1,189.67L4.65,185.21L6.2,176.38L7.75,171.75L9.3,161.13L10.84,149.14L12.39,143.28L15.49,132.9L17.04,131.58L18.59,133.38L20.14,126.14L21.69,121.93L23.24,122.28L24.79,116.29L26.34,123.21L27.89,115.84L29.44,119.42L30.98,112.53L32.53,111.36L34.08,104.63L35.63,105.7L37.18,104.58L38.73,106.08L40.28,99.54L41.83,104.43L43.38,104.22L44.93,105.1L48.03,98.74L49.58,102.23L51.13,102.87L52.68,98.29L55.77,101.67L57.32,97.76L58.87,98.55L60.42,101.52L61.97,99.68L63.52,100.39L65.07,101.02L66.62,99.8L68.17,101.79L69.72,100.02L71.27,96.78L72.82,101.56L74.36,98.26L75.91,101.36L80.56,101.56L82.11,97.9L83.66,97.93L85.21,101.67L88.31,95.91L89.86,100.12L91.41,94.11L92.96,98.77L94.51,99.87L96.06,95.79L99.15,95.53L100.7,97.54L102.25,99.02L103.8,97.99L106.9,92.48L108.45,100.37L110,97.17L111.55,89.37L113.1,87.93L114.65,91.59L117.74,96.23L119.29,92.6L122.39,90.72L123.94,87.88L125.49,91.14L127.04,88.23L128.59,85.57L130.14,92.55L131.69,84.66L133.24,90.38L134.79,91.48L136.34,84.46L137.88,82.82L139.43,85.22L140.98,85.01L142.53,82.58L144.08,77.81L145.63,80.4L147.18,82.12L148.73,73.62L150.28,81.25L151.83,73.29L153.38,83.15L154.93,76.56L156.48,74.83L158.03,71.62L159.57,74.34L161.12,72.82L162.67,75.69L164.22,76.56L165.77,72.9L167.32,67.07L168.87,68.02L170.42,67.1L171.97,68.92L173.52,68.53L175.07,56.01L176.62,55.14L178.17,55.44L179.71,57.96L181.26,59.93L182.81,57.01L184.36,54.29L185.91,56.66L187.46,55.21L189.01,56.03L190.56,54.34L192.11,46.41L193.66,53.49L195.21,52.24L196.76,57.47L198.31,57.61L199.86,64.45L201.41,55.74L202.95,52.15L204.5,54.54L206.05,55.85L207.6,51.84L209.15,25.49L210.7,28.3L212.25,23.85L213.8,30.09L215.35,30.66L216.9,26.15L220,28.15L221.55,27.45L223.1,19.03L224.64,35.94L226.19,38.25L227.74,35.9L229.29,42.48L230.84,39.52L232.39,43.05L233.94,37.23L235.49,50.6L237.04,43.71L238.59,33.76L240.14,34.79L241.69,31.9L243.24,24.33L244.79,27.57L246.34,34.21L247.88,45.8L249.43,42.23L250.98,39.2L252.53,42.71L254.08,40.87L255.63,17.88L257.18,10.58L258.73,24.23L260.28,13.97L261.83,29.91L263.38,24.08L264.93,35.88L266.48,26.98L268.03,36.69L269.57,30.18L271.12,29.01L272.67,34.62L274.22,35.89L275.77,32.18L277.32,36.74L278.87,39.25L280.42,29.03L281.97,38.01L283.52,40.26L285.07,40.32L286.62,41.95L288.17,49.21L289.72,47.38L291.26,47.77L292.81,41.44L294.36,21.72L295.91,26.9L297.46,48.74L299.01,34.67L300.56,29.5L302.11,44.33L303.66,56.06L305.21,48.15L306.76,45.4L308.31,45.35L309.86,56.6L311.41,43.84L312.96,41.83L314.5,49.57L316.05,44.01L317.6,47.55L319.15,53.58L320.7,37.94L323.8,54.89L325.35,45.01L326.9,52.59L328.45,48.64L330,58.12L331.55,55.73L333.1,56.87L334.65,52.9L336.2,57.79L337.74,53.05L339.29,59.56L340.84,56.62L342.39,52.68L343.94,46.47L345.49,62.03L347.04,54.85L348.59,51.45L350.14,55.09L351.69,47.02L353.24,55.93L354.79,60.28L356.34,39.02L357.89,55.51L359.44,56.21L360.98,52.52L362.53,54.28L365.63,47.84L367.18,48.7L368.73,60.99L370.28,43.86L371.83,45.1L373.38,50.67L374.93,58.21L376.48,44.99L378.03,42.73L379.58,55.93L381.13,55.93L382.67,59.5L384.22,56.16L385.77,57.1L387.32,60.16L388.87,52.92L390.42,41.47L391.97,45.62L393.52,57.01L395.07,58.26L396.62,51.56L398.17,58.43L399.72,39.79L401.27,53.22L402.82,47.26L404.36,49.23L405.91,45.64L407.46,52.92L409.01,64.51L410.56,63.13L412.11,57.46L413.66,59.64L415.21,61.43L416.76,59.81L418.31,60.88L419.86,47.23L421.41,60.93L422.96,58.41L424.51,54.25L426.06,55.69L427.61,43.97L429.15,57.66L430.7,72.38L432.25,51.36L433.8,67.08L435.35,61.75L436.9,64.45L438.45,62.43L440,54.53L441.55,55.9L443.1,73.03L444.65,62.39L447.75,55.34L449.3,53.94L450.84,58.33L452.39,58.59L455.49,43.45L457.04,45.13L458.59,62.8L460.14,61.68L461.69,65.8L463.24,43.58L464.79,72.67L466.34,58.98L467.89,59.94L469.44,65L470.98,52.72L472.53,53.96L474.08,47.99L475.63,55.29L477.18,58.22L478.73,41.19L480.28,72.79L481.83,52.31L483.38,61.36L484.93,58.27L486.48,67.11L488.03,60.52L489.58,68.44L491.13,44.14L492.67,58.89L494.22,53.79L495.77,67.15L497.32,50.37L498.87,51.48L500.42,46.81L501.97,59.19L503.52,55.63L505.07,65.68L506.62,58.19L508.17,60.74L509.72,56.91L511.27,61.05L512.82,42.64L514.37,61.13L515.92,55.69L517.46,51.25L519.01,60.48L522.11,46.39L523.66,57.26L525.21,64.18L526.76,49.6L528.31,60.22L529.86,56.27L531.41,46.81L532.96,52.65L534.51,57.41L536.06,33.97L537.61,59.74L539.16,55.85L540.71,42.78L542.25,61.5L543.8,56.87L545.35,48.84L546.9,72.74L548.45,59.2L550,49.31L551.55,51.68L553.1,38.63L554.65,42.86L556.2,55.48L557.75,37.82L559.3,59.84L560.85,70.23L562.39,60.28L563.94,58.56L565.49,63.65L567.04,32.29L568.59,58.16L570.14,57.77L571.69,66.75L573.24,49.08L574.79,65.4L576.34,37.24L577.89,69.01L579.44,62.57L580.99,62.02L582.53,47.33L584.08,49.14L585.63,56.54L587.18,66.9L588.73,50.69L590.28,51.49L591.83,36.65L594.93,43.67L596.48,44.93L598.03,68.98L599.58,54.14L601.13,55.88L602.68,50.55L604.22,68.92L605.77,64.94L608.87,54.61L610.42,65.16L611.97,52.63L613.52,72.76L615.07,46.78L616.62,47.71L618.17,60.18L619.72,59.93L621.27,63.98L622.82,54.12L624.37,62.67L625.92,63.47L627.46,54.86L629.01,79.35L630.56,38.95L632.11,43.73L633.66,65.13L635.21,66.06L636.76,55.32L638.31,60.78L639.86,37.2L641.41,73.55L642.96,57.53L644.51,65.58L646.06,55.06L647.61,64.13L649.16,65.41L650.7,56.38L652.25,63.61L653.8,44.19L655.35,53.3L656.9,56.57L658.45,52.99L660,69.66" style="vector-effect: none; fill: none; stroke: rgb(128, 51, 0); stroke-opacity: 1; stroke-width: 3px; opacity: 1;"/></g><g class="points"/><g class="text"/></g></g></g></g><path class="xlines-above crisp" d="M0,0" style="fill: none;"/><path class="ylines-above crisp" d="M0,0" style="fill: none;"/><g class="overlines-above"/><g class="xaxislayer-above"><g class="x4tick"><text text-anchor="middle" x="0" y="965" transform="translate(40,0)" style="font-family: 'Open Sans', verdana, arial, sans-serif; font-size: 14px; fill: rgb(0, 0, 0); fill-opacity: 1; white-space: pre; opacity: 1;">0</text></g><g class="x4tick"><text text-anchor="middle" x="0" y="965" style="font-family: 'Open Sans', verdana, arial, sans-serif; font-size: 14px; fill: rgb(0, 0, 0); fill-opacity: 1; white-space: pre; opacity: 1;" transform="translate(132.86,0)">10</text></g><g class="x4tick"><text text-anchor="middle" x="0" y="965" style="font-family: 'Open Sans', verdana, arial, sans-serif; font-size: 14px; fill: rgb(0, 0, 0); fill-opacity: 1; white-space: pre; opacity: 1;" transform="translate(225.72,0)">20</text></g><g class="x4tick"><text text-anchor="middle" x="0" y="965" style="font-family: 'Open Sans', verdana, arial, sans-serif; font-size: 14px; fill: rgb(0, 0, 0); fill-opacity: 1; white-space: pre; opacity: 1;" transform="translate(318.59,0)">30</text></g><g class="x4tick"><text text-anchor="middle" x="0" y="965" style="font-family: 'Open Sans', verdana, arial, sans-serif; font-size: 14px; fill: rgb(0, 0, 0); fill-opacity: 1; white-space: pre; opacity: 1;" transform="translate(411.45,0)">40</text></g><g class="x4tick"><text text-anchor="middle" x="0" y="965" style="font-family: 'Open Sans', verdana, arial, sans-serif; font-size: 14px; fill: rgb(0, 0, 0); fill-opacity: 1; white-space: pre; opacity: 1;" transform="translate(504.31,0)">50</text></g><g class="x4tick"><text text-anchor="middle" x="0" y="965" style="font-family: 'Open Sans', verdana, arial, sans-serif; font-size: 14px; fill: rgb(0, 0, 0); fill-opacity: 1; white-space: pre; opacity: 1;" transform="translate(597.17,0)">60</text></g><g class="x4tick"><text text-anchor="middle" x="0" y="965" style="font-family: 'Open Sans', verdana, arial, sans-serif; font-size: 14px; fill: rgb(0, 0, 0); fill-opacity: 1; white-space: pre; opacity: 1;" transform="translate(690.03,0)">70</text></g></g><g class="yaxislayer-above"><g class="y4tick"><text text-anchor="end" x="39" y="4.8999999999999995" transform="translate(0,939.165)" style="font-family: 'Open Sans', verdana, arial, sans-serif; font-size: 14px; fill: rgb(0, 0, 0); fill-opacity: 1; white-space: pre; opacity: 1;">10k</text></g><g class="y4tick"><text text-anchor="end" x="39" y="4.8999999999999995" style="font-family: 'Open Sans', verdana, arial, sans-serif; font-size: 14px; fill: rgb(0, 0, 0); fill-opacity: 1; white-space: pre; opacity: 1;" transform="translate(0,899.665)">15k</text></g><g class="y4tick"><text text-anchor="end" x="39" y="4.8999999999999995" style="font-family: 'Open Sans', verdana, arial, sans-serif; font-size: 14px; fill: rgb(0, 0, 0); fill-opacity: 1; white-space: pre; opacity: 1;" transform="translate(0,860.155)">20k</text></g><g class="y4tick"><text text-anchor="end" x="39" y="4.8999999999999995" style="font-family: 'Open Sans', verdana, arial, sans-serif; font-size: 14px; fill: rgb(0, 0, 0); fill-opacity: 1; white-space: pre; opacity: 1;" transform="translate(0,820.645)">25k</text></g><g class="y4tick"><text text-anchor="end" x="39" y="4.8999999999999995" style="font-family: 'Open Sans', verdana, arial, sans-serif; font-size: 14px; fill: rgb(0, 0, 0); fill-opacity: 1; white-space: pre; opacity: 1;" transform="translate(0,781.135)">30k</text></g><g class="y4tick"><text text-anchor="end" x="39" y="4.8999999999999995" style="font-family: 'Open Sans', verdana, arial, sans-serif; font-size: 14px; fill: rgb(0, 0, 0); fill-opacity: 1; white-space: pre; opacity: 1;" transform="translate(0,741.635)">35k</text></g></g><g class="overaxes-above"/></g></g><g class="polarlayer"/><g class="smithlayer"/><g class="ternarylayer"/><g class="geolayer"/><g class="funnelarealayer"/><g class="pielayer"/><g class="iciclelayer"/><g class="treemaplayer"/><g class="sunburstlayer"/><g class="glimages"/><defs id="topdefs-e33b7c"><g class="clips"/></defs><g class="layer-above"><g class="imagelayer"/><g class="shapelayer"/></g><g class="infolayer"><g class="g-gtitle"/><g class="g-xtitle"/><g class="g-x2title"/><g class="g-x3title"/><g class="g-x4title"><text class="x4title" x="370" y="978.3" text-anchor="middle" style="opacity: 1; font-family: 'Open Sans', verdana, arial, sans-serif; font-size: 14px; fill: rgb(0, 0, 0); fill-opacity: 1; white-space: pre;">Time [h]</text></g><g class="g-ytitle"/><g class="g-y2title"/><g class="g-y3title"/><g class="g-y4title"/><g class="annotation" data-index="0" style="opacity: 1;"><g class="annotation-text-g" transform="rotate(0,370,8.5)"><g class="cursor-pointer" transform="translate(358,-3)"><rect class="bg" x="0.5" y="0.5" width="24" height="22" style="stroke-width: 1px; stroke: rgb(0, 0, 0); stroke-opacity: 0; fill: rgb(0, 0, 0); fill-opacity: 0;"/><text class="annotation-text" text-anchor="middle" x="12.5625" y="17" style="font-family: 'Open Sans', verdana, arial, sans-serif; font-size: 14px; fill: rgb(0, 0, 0); fill-opacity: 1; white-space: pre;">OD</text></g></g></g><g class="annotation" data-index="1" style="opacity: 1;"><g class="annotation-text-g" transform="rotate(0,370,247.97499999999997)"><g class="cursor-pointer" transform="translate(356,236)"><rect class="bg" x="0.5" y="0.5" width="27" height="22" style="stroke-width: 1px; stroke: rgb(0, 0, 0); stroke-opacity: 0; fill: rgb(0, 0, 0); fill-opacity: 0;"/><text class="annotation-text" text-anchor="middle" x="13.84375" y="17" style="font-family: 'Open Sans', verdana, arial, sans-serif; font-size: 14px; fill: rgb(0, 0, 0); fill-opacity: 1; white-space: pre;">FP1</text></g></g></g><g class="annotation" data-index="2" style="opacity: 1;"><g class="annotation-text-g" transform="rotate(0,370,487.45)"><g class="cursor-pointer" transform="translate(356,476)"><rect class="bg" x="0.5" y="0.5" width="27" height="22" style="stroke-width: 1px; stroke: rgb(0, 0, 0); stroke-opacity: 0; fill: rgb(0, 0, 0); fill-opacity: 0;"/><text class="annotation-text" text-anchor="middle" x="13.84375" y="17" style="font-family: 'Open Sans', verdana, arial, sans-serif; font-size: 14px; fill: rgb(0, 0, 0); fill-opacity: 1; white-space: pre;">FP2</text></g></g></g><g class="annotation" data-index="3" style="opacity: 1;"><g class="annotation-text-g" transform="rotate(0,370,726.925)"><g class="cursor-pointer" transform="translate(356,715)"><rect class="bg" x="0.5" y="0.5" width="27" height="22" style="stroke-width: 1px; stroke: rgb(0, 0, 0); stroke-opacity: 0; fill: rgb(0, 0, 0); fill-opacity: 0;"/><text class="annotation-text" text-anchor="middle" x="13.84375" y="17" style="font-family: 'Open Sans', verdana, arial, sans-serif; font-size: 14px; fill: rgb(0, 0, 0); fill-opacity: 1; white-space: pre;">FP3</text></g></g></g></g></svg>