<svg class="main-svg" xmlns="http://www.w3.org/2000/svg" xmlns:xlink="http://www.w3.org/1999/xlink" width="350" height="250" style="" viewBox="0 0 350 250"><rect x="0" y="0" width="350" height="250" style="fill: rgb(153, 153, 153); fill-opacity: 1;"/><defs id="defs-e261ab"><g class="clips"><clipPath id="clipe261abxyplot" class="plotclip"><rect width="212" height="141"/></clipPath><clipPath class="axesclip" id="clipe261abx"><rect x="60" y="0" width="212" height="250"/></clipPath><clipPath class="axesclip" id="clipe261aby"><rect x="0" y="50" width="350" height="141"/></clipPath><clipPath class="axesclip" id="clipe261abxy"><rect x="60" y="50" width="212" height="141"/></clipPath></g><g class="gradients"/><g class="patterns"/></defs><g class="bglayer"/><g class="layer-below"><g class="imagelayer"/><g class="shapelayer"/></g><g class="cartesianlayer"><g class="subplot xy"><g class="layer-subplot"><g class="shapelayer"/><g class="imagelayer"/></g><g class="minor-gridlayer"><g class="x"/><g class="y"/></g><g class="gridlayer"><g class="x"><path class="xgrid crisp" transform="translate(113,0)" d="M0,50v141" style="stroke: rgb(0, 0, 0); stroke-opacity: 1; stroke-width: 1px;"/><path class="xgrid crisp" transform="translate(166,0)" d="M0,50v141" style="stroke: rgb(0, 0, 0); stroke-opacity: 1; stroke-width: 1px;"/><path class="xgrid crisp" transform="translate(219,0)" d="M0,50v141" style="stroke: rgb(0, 0, 0); stroke-opacity: 1; stroke-width: 1px;"/></g><g class="y"><path class="ygrid crisp" transform="translate(0,139.87)" d="M60,0h212" style="stroke: rgb(0, 0, 0); stroke-opacity: 1; stroke-width: 1px;"/><path class="ygrid crisp" transform="translate(0,83.22)" d="M60,0h212" style="stroke: rgb(0, 0, 0); stroke-opacity: 1; stroke-width: 1px;"/></g></g><g class="zerolinelayer"/><path class="xlines-below"/><path class="ylines-below"/><g class="overlines-below"/><g class="xaxislayer-below"/><g class="yaxislayer-below"/><g class="overaxes-below"/><g class="plot" transform="translate(60,50)" clip-path="url(#clipe261abxyplot)"><g class="scatterlayer mlayer"><g class="trace scatter trace5353eb" style="stroke-miterlimit: 2; opacity: 1;"><g class="fills"/><g class="errorbars"/><g class="lines"><path class="js-line" d="M0,132.7L1.77,133.38L2.65,133.5L7.07,133.16L7.95,133.27L39.75,133.04L40.63,132.7L43.28,131.91L44.17,130.78L48.58,128.06L49.47,125.68L50.35,124.43L51.23,125.45L52.12,123.19L53,123.64L53.88,123.41L56.53,121.15L57.42,120.47L60.95,115.37L61.83,113.56L65.37,106.76L66.25,106.42L72.43,96.9L73.32,95.88L78.62,88.63L79.5,88.18L84.8,77.07L85.68,78.88L87.45,87.38L88.33,87.84L90.98,87.84L91.87,88.29L100.7,81.26L101.58,81.94L102.47,82.4L103.35,79.68L105.12,79.79L106,79.56L107.77,79.9L108.65,79L110.42,78.09L111.3,77.52L112.18,77.75L113.07,76.73L115.72,76.17L116.6,74.01L118.37,75.15L119.25,75.03L121.02,75.15L121.9,75.15L124.55,72.2L125.43,74.81L127.2,74.58L128.08,73.11L128.97,74.01L129.85,72.77L130.73,72.99L131.62,74.47L134.27,72.43L135.15,71.63L136.03,73.79L136.92,71.52L138.68,73.11L139.57,71.07L141.33,70.5L142.22,69.48L143.1,70.16L143.98,72.88L144.87,71.18L145.75,72.31L146.63,73.33L147.52,70.73L149.28,72.54L150.17,70.73L151.05,72.88L151.93,71.07L152.82,73.11L153.7,71.97L155.47,69.37L156.35,71.41L157.23,69.03L158.12,70.16L160.77,70.73L161.65,71.63L162.53,68.57L163.42,69.82L164.3,70.61L165.18,69.48L166.07,70.95L166.95,69.37L167.83,70.61L168.72,69.03L169.6,66.19L170.48,66.53L171.37,69.71L172.25,69.82L173.13,68.69L174.02,69.25L174.9,68.01L175.78,69.59L176.67,66.19L178.43,69.93L179.32,65.06L180.2,64.72L181.08,67.44L182.85,68.69L183.73,66.53L185.5,67.67L186.38,65.97L187.27,68.69L188.15,64.16L189.03,67.33L189.92,66.99L190.8,65.97L192.57,66.53L193.45,64.72L195.22,68.35L196.1,64.95L197.87,65.63L198.75,64.38L199.63,69.37L200.52,66.42L201.4,69.82L202.28,62.91L204.05,63.14L204.93,67.78L205.82,64.95L206.7,66.99L207.58,64.72L208.47,66.87L209.35,63.36L210.23,66.65L211.12,64.61L212,67.21" style="vector-effect: non-scaling-stroke; fill: none; stroke: rgb(136, 114, 205); stroke-opacity: 1; stroke-width: 4px; opacity: 1;"/></g><g class="points"/><g class="text"/></g><g class="trace scatter tracea0d5e8" style="stroke-miterlimit: 2; opacity: 1;"><g class="fills"/><g class="errorbars"/><g class="lines"><path class="js-line" d="M0,133.27L10.6,132.36L11.48,132.14L30.03,127.27L30.92,126.81L34.45,124.89L35.33,124.21L38.87,122.05L39.75,121.6L43.28,119.45L44.17,119.33L47.7,118.65L48.58,117.63L53,114.8L53.88,112.31L55.65,107.1L56.53,102.34L60.07,87.72L60.95,85.46L63.6,76.51L64.48,75.94L68.9,66.87L69.78,66.42L75.08,58.72L75.97,57.81L80.38,51.92L81.27,49.88L83.92,46.59L84.8,45.12L97.17,34.7L98.05,34.24L110.42,26.65L111.3,26.42L121.02,22.01L121.9,22.23L134.27,18.38L135.15,18.38L153.7,12.6L154.58,12.26L160.77,10.56L161.65,9.77L164.3,7.05L165.18,7.39L167.83,7.96L168.72,9.2L174.02,12.38L174.9,13.39L175.78,13.85L176.67,15.55L181.97,23.25L182.85,22.91L184.62,24.39L185.5,24.84L187.27,25.75L188.15,24.27L189.92,25.07L190.8,23.82L191.68,24.84L192.57,23.71L195.22,25.07L196.1,24.16L197.87,23.93L198.75,25.18L199.63,25.41L200.52,24.27L201.4,24.95L202.28,24.27L205.82,26.42L206.7,24.39L209.35,26.2L210.23,26.42L212,25.97" style="vector-effect: non-scaling-stroke; fill: none; stroke: rgb(226, 126, 80); stroke-opacity: 1; stroke-width: 4px; opacity: 1;"/></g><g class="points"/><g class="text"/></g></g></g><g class="overplot"/><path class="xlines-above crisp" d="M59,191.5H272" style="fill: none; stroke-width: 1px; stroke: rgb(0, 0, 0); stroke-opacity: 1;"/><path class="ylines-above crisp" d="M59.5,50V191" style="fill: none; stroke-width: 1px; stroke: rgb(0, 0, 0); stroke-opacity: 1;"/><g class="overlines-above"/><g class="xaxislayer-above"><g class="xtick"><text text-anchor="middle" x="0" y="208.8" transform="translate(60,0)" style="font-family: 'Open Sans', verdana, arial, sans-serif; font-size: 14px; fill: rgb(0, 0, 0); fill-opacity: 1; white-space: pre; opacity: 1;">0</text></g><g class="xtick"><text text-anchor="middle" x="0" y="208.8" style="font-family: 'Open Sans', verdana, arial, sans-serif; font-size: 14px; fill: rgb(0, 0, 0); fill-opacity: 1; white-space: pre; opacity: 1;" transform="translate(113,0)">10</text></g><g class="xtick"><text text-anchor="middle" x="0" y="208.8" style="font-family: 'Open Sans', verdana, arial, sans-serif; font-size: 14px; fill: rgb(0, 0, 0); fill-opacity: 1; white-space: pre; opacity: 1;" transform="translate(166,0)">20</text></g><g class="xtick"><text text-anchor="middle" x="0" y="208.8" style="font-family: 'Open Sans', verdana, arial, sans-serif; font-size: 14px; fill: rgb(0, 0, 0); fill-opacity: 1; white-space: pre; opacity: 1;" transform="translate(219,0)">30</text></g><g class="xtick"><text text-anchor="middle" x="0" y="208.8" style="font-family: 'Open Sans', verdana, arial, sans-serif; font-size: 14px; fill: rgb(0, 0, 0); fill-opacity: 1; white-space: pre; opacity: 1;" transform="translate(272,0)">40</text></g></g><g class="yaxislayer-above"><g class="ytick"><text text-anchor="end" x="56.2" y="4.8999999999999995" transform="translate(0,139.87)" style="font-family: 'Open Sans', verdana, arial, sans-serif; font-size: 14px; fill: rgb(0, 0, 0); fill-opacity: 1; white-space: pre; opacity: 1;">0.5</text></g><g class="ytick"><text text-anchor="end" x="56.2" y="4.8999999999999995" style="font-family: 'Open Sans', verdana, arial, sans-serif; font-size: 14px; fill: rgb(0, 0, 0); fill-opacity: 1; white-space: pre; opacity: 1;" transform="translate(0,83.22)">1</text></g></g><g class="overaxes-above"/></g></g><g class="polarlayer"/><g class="smithlayer"/><g class="ternarylayer"/><g class="geolayer"/><g class="funnelarealayer"/><g class="pielayer"/><g class="iciclelayer"/><g class="treemaplayer"/><g class="sunburstlayer"/><g class="glimages"/><defs id="topdefs-e261ab"><g class="clips"/><clipPath id="legende261ab"><rect width="64" height="53" x="0" y="0"/></clipPath></defs><g class="layer-above"><g class="imagelayer"/><g class="shapelayer"/></g><g class="infolayer"><g class="legend" pointer-events="all" transform="translate(276.24,50)"><rect class="bg" shape-rendering="crispEdges" style="stroke: rgb(68, 68, 68); stroke-opacity: 1; fill: rgb(153, 153, 153); fill-opacity: 1; stroke-width: 0px;" width="64" height="53" x="0" y="0"/><g class="scrollbox" transform="" clip-path="url(#legende261ab)"><g class="groups" transform=""><g class="traces" transform="translate(0,15.6)" style="opacity: 1;"><text class="legendtext" text-anchor="start" x="40" y="5.46" style="font-family: 'Open Sans', verdana, arial, sans-serif; font-size: 14px; fill: rgb(0, 0, 0); fill-opacity: 1; white-space: pre;">Ct</text><g class="layers" style="opacity: 1;"><g class="legendfill"/><g class="legendlines"><path class="js-line" d="M5,0h30" style="fill: none; stroke: rgb(136, 114, 205); stroke-opacity: 1; stroke-width: 4px;"/></g><g class="legendsymbols"><g class="legendpoints"/></g></g><rect class="legendtoggle" x="0" y="-10.6" width="58.703125" height="21.2" style="fill: rgb(0, 0, 0); fill-opacity: 0;"/></g></g><g class="groups" transform=""><g class="traces" transform="translate(0,36.8)" style="opacity: 1;"><text class="legendtext" text-anchor="start" x="40" y="5.46" style="font-family: 'Open Sans', verdana, arial, sans-serif; font-size: 14px; fill: rgb(0, 0, 0); fill-opacity: 1; white-space: pre;">Oa</text><g class="layers" style="opacity: 1;"><g class="legendfill"/><g class="legendlines"><path class="js-line" d="M5,0h30" style="fill: none; stroke: rgb(226, 126, 80); stroke-opacity: 1; stroke-width: 4px;"/></g><g class="legendsymbols"><g class="legendpoints"/></g></g><rect class="legendtoggle" x="0" y="-10.6" width="58.703125" height="21.2" style="fill: rgb(0, 0, 0); fill-opacity: 0;"/></g></g></g><rect class="scrollbar" rx="20" ry="3" width="0" height="0" style="fill: rgb(128, 139, 164); fill-opacity: 1;" x="0" y="0"/></g><g class="g-gtitle"/><g class="g-xtitle"><text class="xtitle" x="166" y="239.7125" text-anchor="middle" style="font-family: 'Open Sans', verdana, arial, sans-serif; font-size: 17px; fill: rgb(0, 0, 0); opacity: 1; font-weight: normal; white-space: pre;">time [h]</text></g><g class="g-ytitle" transform="translate(8.447265625,0)"><text class="ytitle" transform="rotate(-90,9.553125000000001,120.5)" x="9.553125000000001" y="120.5" text-anchor="middle" style="font-family: 'Open Sans', verdana, arial, sans-serif; font-size: 17px; fill: rgb(0, 0, 0); opacity: 1; font-weight: normal; white-space: pre;">OD</text></g></g></svg>