<svg class="main-svg" xmlns="http://www.w3.org/2000/svg" xmlns:xlink="http://www.w3.org/1999/xlink" width="600" height="250" style="" viewBox="0 0 600 250"><rect x="0" y="0" width="600" height="250" style="fill: rgb(153, 153, 153); fill-opacity: 1;"/><defs id="defs-84e19f"><g class="clips"><clipPath id="clip84e19fxyplot" class="plotclip"><rect width="105.04499999999999" height="168"/></clipPath><clipPath id="clip84e19fx2y2plot" class="plotclip"><rect width="105.04499999999999" height="168"/></clipPath><clipPath id="clip84e19fx3y3plot" class="plotclip"><rect width="105.04499999999999" height="168"/></clipPath><clipPath id="clip84e19fx4y4plot" class="plotclip"><rect width="105.04499999999999" height="168"/></clipPath><clipPath class="axesclip" id="clip84e19fx"><rect x="77" y="0" width="105.04499999999999" height="250"/></clipPath><clipPath class="axesclip" id="clip84e19fy"><rect x="0" y="50" width="600" height="168"/></clipPath><clipPath class="axesclip" id="clip84e19fxy"><rect x="77" y="50" width="105.04499999999999" height="168"/></clipPath><clipPath class="axesclip" id="clip84e19fy2"><rect x="0" y="50" width="600" height="168"/></clipPath><clipPath class="axesclip" id="clip84e19fxy2"><rect x="77" y="50" width="105.04499999999999" height="168"/></clipPath><clipPath class="axesclip" id="clip84e19fy3"><rect x="0" y="50" width="600" height="168"/></clipPath><clipPath class="axesclip" id="clip84e19fxy3"><rect x="77" y="50" width="105.04499999999999" height="168"/></clipPath><clipPath class="axesclip" id="clip84e19fy4"><rect x="0" y="50" width="600" height="168"/></clipPath><clipPath class="axesclip" id="clip84e19fxy4"><rect x="77" y="50" width="105.04499999999999" height="168"/></clipPath><clipPath class="axesclip" id="clip84e19fx2"><rect x="190.985" y="0" width="105.04499999999999" height="250"/></clipPath><clipPath class="axesclip" id="clip84e19fx2y"><rect x="190.985" y="50" width="105.04499999999999" height="168"/></clipPath><clipPath class="axesclip" id="clip84e19fx2y2"><rect x="190.985" y="50" width="105.04499999999999" height="168"/></clipPath><clipPath class="axesclip" id="clip84e19fx2y3"><rect x="190.985" y="50" width="105.04499999999999" height="168"/></clipPath><clipPath class="axesclip" id="clip84e19fx2y4"><rect x="190.985" y="50" width="105.04499999999999" height="168"/></clipPath><clipPath class="axesclip" id="clip84e19fx3"><rect x="304.97" y="0" width="105.04499999999999" height="250"/></clipPath><clipPath class="axesclip" id="clip84e19fx3y"><rect x="304.97" y="50" width="105.04499999999999" height="168"/></clipPath><clipPath class="axesclip" id="clip84e19fx3y2"><rect x="304.97" y="50" width="105.04499999999999" height="168"/></clipPath><clipPath class="axesclip" id="clip84e19fx3y3"><rect x="304.97" y="50" width="105.04499999999999" height="168"/></clipPath><clipPath class="axesclip" id="clip84e19fx3y4"><rect x="304.97" y="50" width="105.04499999999999" height="168"/></clipPath><clipPath class="axesclip" id="clip84e19fx4"><rect x="418.955" y="0" width="105.04499999999999" height="250"/></clipPath><clipPath class="axesclip" id="clip84e19fx4y"><rect x="418.955" y="50" width="105.04499999999999" height="168"/></clipPath><clipPath class="axesclip" id="clip84e19fx4y2"><rect x="418.955" y="50" width="105.04499999999999" height="168"/></clipPath><clipPath class="axesclip" id="clip84e19fx4y3"><rect x="418.955" y="50" width="105.04499999999999" height="168"/></clipPath><clipPath class="axesclip" id="clip84e19fx4y4"><rect x="418.955" y="50" width="105.04499999999999" height="168"/></clipPath></g><g class="gradients"/><g class="patterns"/></defs><g class="bglayer"/><g class="layer-below"><g class="imagelayer"/><g class="shapelayer"/></g><g class="cartesianlayer"><g class="subplot xy"><g class="layer-subplot"><g class="shapelayer"/><g class="imagelayer"/></g><g class="minor-gridlayer"><g class="x"/><g class="y"/></g><g class="gridlayer"><g class="x"><path class="xgrid crisp" transform="translate(94.51,0)" d="M0,50v168" style="stroke: rgb(0, 0, 0); stroke-opacity: 1; stroke-width: 1px;"/><path class="xgrid crisp" transform="translate(129.52,0)" d="M0,50v168" style="stroke: rgb(0, 0, 0); stroke-opacity: 1; stroke-width: 1px;"/><path class="xgrid crisp" transform="translate(164.54000000000002,0)" d="M0,50v168" style="stroke: rgb(0, 0, 0); stroke-opacity: 1; stroke-width: 1px;"/></g><g class="y"><path class="ygrid crisp" transform="translate(0,182.75)" d="M77,0h105.04499999999999" style="stroke: rgb(0, 0, 0); stroke-opacity: 1; stroke-width: 1px;"/><path class="ygrid crisp" transform="translate(0,154.29000000000002)" d="M77,0h105.04499999999999" style="stroke: rgb(0, 0, 0); stroke-opacity: 1; stroke-width: 1px;"/><path class="ygrid crisp" transform="translate(0,125.83)" d="M77,0h105.04499999999999" style="stroke: rgb(0, 0, 0); stroke-opacity: 1; stroke-width: 1px;"/><path class="ygrid crisp" transform="translate(0,88.21000000000001)" d="M77,0h105.04499999999999" style="stroke: rgb(0, 0, 0); stroke-opacity: 1; stroke-width: 1px;"/><path class="ygrid crisp" transform="translate(0,59.75)" d="M77,0h105.04499999999999" style="stroke: rgb(0, 0, 0); stroke-opacity: 1; stroke-width: 1px;"/></g></g><g class="zerolinelayer"/><path class="xlines-below"/><path class="ylines-below"/><g class="overlines-below"/><g class="xaxislayer-below"/><g class="yaxislayer-below"/><g class="overaxes-below"/><g class="plot" transform="translate(77,50)" clip-path="url(#clip84e19fxyplot)"><g class="boxlayer mlayer"><g class="trace boxes" style="opacity: 1;"><path class="box" d="M3.5,53.64H31.51M3.5,71.92H31.51V42.38H3.5ZM17.51,71.92V87.64M17.51,42.38V37.66M10.5,87.64H24.51M10.5,37.66H24.51" style="vector-effect: non-scaling-stroke; stroke-width: 3px; stroke: rgb(136, 114, 205); stroke-opacity: 1; fill: rgb(136, 114, 205); fill-opacity: 0.5;"/><path class="box" d="M38.52,107.86H66.53M38.52,127.61H66.53V94.58H38.52ZM52.52,127.61V127.61M52.52,94.58V94.58M45.52,127.61H59.53M45.52,94.58H59.53" style="vector-effect: non-scaling-stroke; stroke-width: 3px; stroke: rgb(136, 114, 205); stroke-opacity: 1; fill: rgb(136, 114, 205); fill-opacity: 0.5;"/><path class="box" d="M73.53,85.86H101.54M73.53,91.46H101.54V77.22H73.53ZM87.54,91.46V107.86M87.54,77.22V68.34M80.53,107.86H94.54M80.53,68.34H94.54" style="vector-effect: non-scaling-stroke; stroke-width: 3px; stroke: rgb(136, 114, 205); stroke-opacity: 1; fill: rgb(136, 114, 205); fill-opacity: 0.5;"/><g class="points"><path class="point" transform="translate(23.75,87.64)" d="M3,0A3,3 0 1,1 0,-3A3,3 0 0,1 3,0Z" style="opacity: 1; stroke-width: 0px; fill: rgb(136, 114, 205); fill-opacity: 1;"/><path class="point" transform="translate(9.2,73.83)" d="M3,0A3,3 0 1,1 0,-3A3,3 0 0,1 3,0Z" style="opacity: 1; stroke-width: 0px; fill: rgb(136, 114, 205); fill-opacity: 1;"/><path class="point" transform="translate(27.89,70.09)" d="M3,0A3,3 0 1,1 0,-3A3,3 0 0,1 3,0Z" style="opacity: 1; stroke-width: 0px; fill: rgb(136, 114, 205); fill-opacity: 1;"/><path class="point" transform="translate(6.1,59.18)" d="M3,0A3,3 0 1,1 0,-3A3,3 0 0,1 3,0Z" style="opacity: 1; stroke-width: 0px; fill: rgb(136, 114, 205); fill-opacity: 1;"/><path class="point" transform="translate(14.19,53.64)" d="M3,0A3,3 0 1,1 0,-3A3,3 0 0,1 3,0Z" style="opacity: 1; stroke-width: 0px; fill: rgb(136, 114, 205); fill-opacity: 1;"/><path class="point" transform="translate(24.59,44.4)" d="M3,0A3,3 0 1,1 0,-3A3,3 0 0,1 3,0Z" style="opacity: 1; stroke-width: 0px; fill: rgb(136, 114, 205); fill-opacity: 1;"/><path class="point" transform="translate(16.99,43.77)" d="M3,0A3,3 0 1,1 0,-3A3,3 0 0,1 3,0Z" style="opacity: 1; stroke-width: 0px; fill: rgb(136, 114, 205); fill-opacity: 1;"/><path class="point" transform="translate(21.35,41.04)" d="M3,0A3,3 0 1,1 0,-3A3,3 0 0,1 3,0Z" style="opacity: 1; stroke-width: 0px; fill: rgb(136, 114, 205); fill-opacity: 1;"/><path class="point" transform="translate(13.04,37.66)" d="M3,0A3,3 0 1,1 0,-3A3,3 0 0,1 3,0Z" style="opacity: 1; stroke-width: 0px; fill: rgb(136, 114, 205); fill-opacity: 1;"/></g><g class="points"><path class="point" transform="translate(42.26,127.61)" d="M3,0A3,3 0 1,1 0,-3A3,3 0 0,1 3,0Z" style="opacity: 1; stroke-width: 0px; fill: rgb(136, 114, 205); fill-opacity: 1;"/><path class="point" transform="translate(56.27,94.58)" d="M3,0A3,3 0 1,1 0,-3A3,3 0 0,1 3,0Z" style="opacity: 1; stroke-width: 0px; fill: rgb(136, 114, 205); fill-opacity: 1;"/></g><g class="points"><path class="point" transform="translate(82.93,107.86)" d="M3,0A3,3 0 1,1 0,-3A3,3 0 0,1 3,0Z" style="opacity: 1; stroke-width: 0px; fill: rgb(136, 114, 205); fill-opacity: 1;"/><path class="point" transform="translate(95.59,91.46)" d="M3,0A3,3 0 1,1 0,-3A3,3 0 0,1 3,0Z" style="opacity: 1; stroke-width: 0px; fill: rgb(136, 114, 205); fill-opacity: 1;"/><path class="point" transform="translate(75.17,90.47)" d="M3,0A3,3 0 1,1 0,-3A3,3 0 0,1 3,0Z" style="opacity: 1; stroke-width: 0px; fill: rgb(136, 114, 205); fill-opacity: 1;"/><path class="point" transform="translate(80.19,85.86)" d="M3,0A3,3 0 1,1 0,-3A3,3 0 0,1 3,0Z" style="opacity: 1; stroke-width: 0px; fill: rgb(136, 114, 205); fill-opacity: 1;"/><path class="point" transform="translate(98.77,82.5)" d="M3,0A3,3 0 1,1 0,-3A3,3 0 0,1 3,0Z" style="opacity: 1; stroke-width: 0px; fill: rgb(136, 114, 205); fill-opacity: 1;"/><path class="point" transform="translate(84.35,77.22)" d="M3,0A3,3 0 1,1 0,-3A3,3 0 0,1 3,0Z" style="opacity: 1; stroke-width: 0px; fill: rgb(136, 114, 205); fill-opacity: 1;"/><path class="point" transform="translate(75.61,68.34)" d="M3,0A3,3 0 1,1 0,-3A3,3 0 0,1 3,0Z" style="opacity: 1; stroke-width: 0px; fill: rgb(136, 114, 205); fill-opacity: 1;"/></g><path class="mean" d="M3.5,53.86H31.51" style="fill: none; vector-effect: non-scaling-stroke; stroke-width: 3; stroke-dasharray: 6px, 3px; stroke: rgb(136, 114, 205); stroke-opacity: 1;"/><path class="mean" d="M38.52,107.86H66.53" style="fill: none; vector-effect: non-scaling-stroke; stroke-width: 3; stroke-dasharray: 6px, 3px; stroke: rgb(136, 114, 205); stroke-opacity: 1;"/><path class="mean" d="M73.53,84.69H101.54" style="fill: none; vector-effect: non-scaling-stroke; stroke-width: 3; stroke-dasharray: 6px, 3px; stroke: rgb(136, 114, 205); stroke-opacity: 1;"/></g></g></g><g class="overplot"/><path class="xlines-above crisp" d="M76,218.5H182.045" style="fill: none; stroke-width: 1px; stroke: rgb(0, 0, 0); stroke-opacity: 1;"/><path class="ylines-above crisp" d="M76.5,50V218" style="fill: none; stroke-width: 1px; stroke: rgb(0, 0, 0); stroke-opacity: 1;"/><g class="overlines-above"/><g class="xaxislayer-above"><g class="xtick"><text text-anchor="middle" x="0" y="235.8" transform="translate(94.51,0)" style="font-family: 'Open Sans', verdana, arial, sans-serif; font-size: 14px; fill: rgb(0, 0, 0); fill-opacity: 1; white-space: pre; opacity: 1;">0.04</text></g><g class="xtick"><text text-anchor="middle" x="0" y="235.8" transform="translate(129.52,0)" style="font-family: 'Open Sans', verdana, arial, sans-serif; font-size: 14px; fill: rgb(0, 0, 0); fill-opacity: 1; white-space: pre; opacity: 1;">0.085</text></g><g class="xtick"><text text-anchor="middle" x="0" y="235.8" transform="translate(164.54000000000002,0)" style="font-family: 'Open Sans', verdana, arial, sans-serif; font-size: 14px; fill: rgb(0, 0, 0); fill-opacity: 1; white-space: pre; opacity: 1;">0.15</text></g></g><g class="yaxislayer-above"><g class="ytick"><text text-anchor="end" x="73.2" y="3.675" transform="translate(0,182.75)" style="font-family: 'Open Sans', verdana, arial, sans-serif; font-size: 10.5px; fill: rgb(0, 0, 0); fill-opacity: 1; white-space: pre; opacity: 1;">5</text></g><g class="ytick"><text text-anchor="end" x="73.2" y="4.8999999999999995" style="font-family: 'Open Sans', verdana, arial, sans-serif; font-size: 14px; fill: rgb(0, 0, 0); fill-opacity: 1; white-space: pre; opacity: 1;" transform="translate(0,154.29000000000002)">100M</text></g><g class="ytick"><text text-anchor="end" x="73.2" y="3.675" style="font-family: 'Open Sans', verdana, arial, sans-serif; font-size: 10.5px; fill: rgb(0, 0, 0); fill-opacity: 1; white-space: pre; opacity: 1;" transform="translate(0,125.83)">2</text></g><g class="ytick"><text text-anchor="end" x="73.2" y="3.675" style="font-family: 'Open Sans', verdana, arial, sans-serif; font-size: 10.5px; fill: rgb(0, 0, 0); fill-opacity: 1; white-space: pre; opacity: 1;" transform="translate(0,88.21000000000001)">5</text></g><g class="ytick"><text text-anchor="end" x="73.2" y="4.8999999999999995" style="font-family: 'Open Sans', verdana, arial, sans-serif; font-size: 14px; fill: rgb(0, 0, 0); fill-opacity: 1; white-space: pre; opacity: 1;" transform="translate(0,59.75)">1B</text></g></g><g class="overaxes-above"/></g><g class="subplot x2y2"><g class="layer-subplot"><g class="shapelayer"/><g class="imagelayer"/></g><g class="minor-gridlayer"><g class="x2"/><g class="y2"/></g><g class="gridlayer"><g class="x2"><path class="x2grid crisp" transform="translate(208.495,0)" d="M0,50v168" style="stroke: rgb(0, 0, 0); stroke-opacity: 1; stroke-width: 1px;"/><path class="x2grid crisp" transform="translate(243.50500000000002,0)" d="M0,50v168" style="stroke: rgb(0, 0, 0); stroke-opacity: 1; stroke-width: 1px;"/><path class="x2grid crisp" transform="translate(278.52500000000003,0)" d="M0,50v168" style="stroke: rgb(0, 0, 0); stroke-opacity: 1; stroke-width: 1px;"/></g><g class="y2"><path class="y2grid crisp" transform="translate(0,182.75)" d="M190.985,0h105.04499999999999" style="stroke: rgb(0, 0, 0); stroke-opacity: 1; stroke-width: 1px;"/><path class="y2grid crisp" transform="translate(0,154.29000000000002)" d="M190.985,0h105.04499999999999" style="stroke: rgb(0, 0, 0); stroke-opacity: 1; stroke-width: 1px;"/><path class="y2grid crisp" transform="translate(0,125.83)" d="M190.985,0h105.04499999999999" style="stroke: rgb(0, 0, 0); stroke-opacity: 1; stroke-width: 1px;"/><path class="y2grid crisp" transform="translate(0,88.21000000000001)" d="M190.985,0h105.04499999999999" style="stroke: rgb(0, 0, 0); stroke-opacity: 1; stroke-width: 1px;"/><path class="y2grid crisp" transform="translate(0,59.75)" d="M190.985,0h105.04499999999999" style="stroke: rgb(0, 0, 0); stroke-opacity: 1; stroke-width: 1px;"/></g></g><g class="zerolinelayer"/><path class="xlines-below"/><path class="ylines-below"/><g class="overlines-below"/><g class="xaxislayer-below"/><g class="yaxislayer-below"/><g class="overaxes-below"/><g class="plot" transform="translate(190.985,50)" clip-path="url(#clip84e19fx2y2plot)"><g class="boxlayer mlayer"><g class="trace boxes" style="opacity: 1;"><path class="box" d="M3.5,42.53H31.51M3.5,51.51H31.51V28.72H3.5ZM17.51,51.51V62.51M17.51,28.72V19.6M10.5,62.51H24.51M10.5,19.6H24.51" style="vector-effect: non-scaling-stroke; stroke-width: 3px; stroke: rgb(136, 114, 205); stroke-opacity: 1; fill: rgb(136, 114, 205); fill-opacity: 0.5;"/><path class="box" d="M38.52,99.76H66.53M38.52,111.78H66.53V88.56H38.52ZM52.52,111.78V115.2M52.52,88.56V87.64M45.52,115.2H59.53M45.52,87.64H59.53" style="vector-effect: non-scaling-stroke; stroke-width: 3px; stroke: rgb(136, 114, 205); stroke-opacity: 1; fill: rgb(136, 114, 205); fill-opacity: 0.5;"/><path class="box" d="M73.53,75.83H101.54M73.53,89.51H101.54V69.5H73.53ZM87.54,89.51V97.96M87.54,69.5V64.53M80.53,97.96H94.54M80.53,64.53H94.54" style="vector-effect: non-scaling-stroke; stroke-width: 3px; stroke: rgb(136, 114, 205); stroke-opacity: 1; fill: rgb(136, 114, 205); fill-opacity: 0.5;"/><g class="points"><path class="point" transform="translate(24.38,62.51)" d="M3,0A3,3 0 1,1 0,-3A3,3 0 0,1 3,0Z" style="opacity: 1; stroke-width: 0px; fill: rgb(136, 114, 205); fill-opacity: 1;"/><path class="point" transform="translate(8.58,55.68)" d="M3,0A3,3 0 1,1 0,-3A3,3 0 0,1 3,0Z" style="opacity: 1; stroke-width: 0px; fill: rgb(136, 114, 205); fill-opacity: 1;"/><path class="point" transform="translate(24.79,47.71)" d="M3,0A3,3 0 1,1 0,-3A3,3 0 0,1 3,0Z" style="opacity: 1; stroke-width: 0px; fill: rgb(136, 114, 205); fill-opacity: 1;"/><path class="point" transform="translate(10.53,43.77)" d="M3,0A3,3 0 1,1 0,-3A3,3 0 0,1 3,0Z" style="opacity: 1; stroke-width: 0px; fill: rgb(136, 114, 205); fill-opacity: 1;"/><path class="point" transform="translate(15.48,42.53)" d="M3,0A3,3 0 1,1 0,-3A3,3 0 0,1 3,0Z" style="opacity: 1; stroke-width: 0px; fill: rgb(136, 114, 205); fill-opacity: 1;"/><path class="point" transform="translate(21.84,41.63)" d="M3,0A3,3 0 1,1 0,-3A3,3 0 0,1 3,0Z" style="opacity: 1; stroke-width: 0px; fill: rgb(136, 114, 205); fill-opacity: 1;"/><path class="point" transform="translate(17.21,40.46)" d="M3,0A3,3 0 1,1 0,-3A3,3 0 0,1 3,0Z" style="opacity: 1; stroke-width: 0px; fill: rgb(136, 114, 205); fill-opacity: 1;"/><path class="point" transform="translate(19.76,19.6)" d="M3,0A3,3 0 1,1 0,-3A3,3 0 0,1 3,0Z" style="opacity: 1; stroke-width: 0px; fill: rgb(136, 114, 205); fill-opacity: 1;"/><path class="point" transform="translate(15.17,8.4)" d="M3,0A3,3 0 1,1 0,-3A3,3 0 0,1 3,0Z" style="opacity: 1; stroke-width: 0px; fill: rgb(136, 114, 205); fill-opacity: 1;"/></g><g class="points"><path class="point" transform="translate(42.26,115.2)" d="M3,0A3,3 0 1,1 0,-3A3,3 0 0,1 3,0Z" style="opacity: 1; stroke-width: 0px; fill: rgb(136, 114, 205); fill-opacity: 1;"/><path class="point" transform="translate(56.27,111.78)" d="M3,0A3,3 0 1,1 0,-3A3,3 0 0,1 3,0Z" style="opacity: 1; stroke-width: 0px; fill: rgb(136, 114, 205); fill-opacity: 1;"/><path class="point" transform="translate(47.91,104.29)" d="M3,0A3,3 0 1,1 0,-3A3,3 0 0,1 3,0Z" style="opacity: 1; stroke-width: 0px; fill: rgb(136, 114, 205); fill-opacity: 1;"/><path class="point" transform="translate(61.4,95.68)" d="M3,0A3,3 0 1,1 0,-3A3,3 0 0,1 3,0Z" style="opacity: 1; stroke-width: 0px; fill: rgb(136, 114, 205); fill-opacity: 1;"/><path class="point" transform="translate(38.89,88.56)" d="M3,0A3,3 0 1,1 0,-3A3,3 0 0,1 3,0Z" style="opacity: 1; stroke-width: 0px; fill: rgb(136, 114, 205); fill-opacity: 1;"/><path class="point" transform="translate(44.42,87.64)" d="M3,0A3,3 0 1,1 0,-3A3,3 0 0,1 3,0Z" style="opacity: 1; stroke-width: 0px; fill: rgb(136, 114, 205); fill-opacity: 1;"/></g><g class="points"><path class="point" transform="translate(99.93,97.96)" d="M3,0A3,3 0 1,1 0,-3A3,3 0 0,1 3,0Z" style="opacity: 1; stroke-width: 0px; fill: rgb(136, 114, 205); fill-opacity: 1;"/><path class="point" transform="translate(84.11,89.51)" d="M3,0A3,3 0 1,1 0,-3A3,3 0 0,1 3,0Z" style="opacity: 1; stroke-width: 0px; fill: rgb(136, 114, 205); fill-opacity: 1;"/><path class="point" transform="translate(75.79,84.99)" d="M3,0A3,3 0 1,1 0,-3A3,3 0 0,1 3,0Z" style="opacity: 1; stroke-width: 0px; fill: rgb(136, 114, 205); fill-opacity: 1;"/><path class="point" transform="translate(83.01,75.83)" d="M3,0A3,3 0 1,1 0,-3A3,3 0 0,1 3,0Z" style="opacity: 1; stroke-width: 0px; fill: rgb(136, 114, 205); fill-opacity: 1;"/><path class="point" transform="translate(87.25,70.09)" d="M3,0A3,3 0 1,1 0,-3A3,3 0 0,1 3,0Z" style="opacity: 1; stroke-width: 0px; fill: rgb(136, 114, 205); fill-opacity: 1;"/><path class="point" transform="translate(93.69,69.5)" d="M3,0A3,3 0 1,1 0,-3A3,3 0 0,1 3,0Z" style="opacity: 1; stroke-width: 0px; fill: rgb(136, 114, 205); fill-opacity: 1;"/><path class="point" transform="translate(89.07,64.53)" d="M3,0A3,3 0 1,1 0,-3A3,3 0 0,1 3,0Z" style="opacity: 1; stroke-width: 0px; fill: rgb(136, 114, 205); fill-opacity: 1;"/></g><path class="mean" d="M3.5,36.95H31.51" style="fill: none; vector-effect: non-scaling-stroke; stroke-width: 3; stroke-dasharray: 6px, 3px; stroke: rgb(136, 114, 205); stroke-opacity: 1;"/><path class="mean" d="M38.52,99.15H66.53" style="fill: none; vector-effect: non-scaling-stroke; stroke-width: 3; stroke-dasharray: 6px, 3px; stroke: rgb(136, 114, 205); stroke-opacity: 1;"/><path class="mean" d="M73.53,77.42H101.54" style="fill: none; vector-effect: non-scaling-stroke; stroke-width: 3; stroke-dasharray: 6px, 3px; stroke: rgb(136, 114, 205); stroke-opacity: 1;"/></g></g></g><g class="overplot"/><path class="xlines-above crisp" d="M189.985,218.5H296.03" style="fill: none; stroke-width: 1px; stroke: rgb(0, 0, 0); stroke-opacity: 1;"/><path class="ylines-above crisp" d="M190.485,50V218" style="fill: none; stroke-width: 1px; stroke: rgb(0, 0, 0); stroke-opacity: 1;"/><g class="overlines-above"/><g class="xaxislayer-above"><g class="x2tick"><text text-anchor="middle" x="0" y="235.8" transform="translate(208.495,0)" style="font-family: 'Open Sans', verdana, arial, sans-serif; font-size: 14px; fill: rgb(0, 0, 0); fill-opacity: 1; white-space: pre; opacity: 1;">0.04</text></g><g class="x2tick"><text text-anchor="middle" x="0" y="235.8" transform="translate(243.50500000000002,0)" style="font-family: 'Open Sans', verdana, arial, sans-serif; font-size: 14px; fill: rgb(0, 0, 0); fill-opacity: 1; white-space: pre; opacity: 1;">0.085</text></g><g class="x2tick"><text text-anchor="middle" x="0" y="235.8" transform="translate(278.52500000000003,0)" style="font-family: 'Open Sans', verdana, arial, sans-serif; font-size: 14px; fill: rgb(0, 0, 0); fill-opacity: 1; white-space: pre; opacity: 1;">0.15</text></g></g><g class="yaxislayer-above"/><g class="overaxes-above"/></g><g class="subplot x3y3"><g class="layer-subplot"><g class="shapelayer"/><g class="imagelayer"/></g><g class="minor-gridlayer"><g class="x3"/><g class="y3"/></g><g class="gridlayer"><g class="x3"><path class="x3grid crisp" transform="translate(322.48,0)" d="M0,50v168" style="stroke: rgb(0, 0, 0); stroke-opacity: 1; stroke-width: 1px;"/><path class="x3grid crisp" transform="translate(357.49,0)" d="M0,50v168" style="stroke: rgb(0, 0, 0); stroke-opacity: 1; stroke-width: 1px;"/><path class="x3grid crisp" transform="translate(392.51000000000005,0)" d="M0,50v168" style="stroke: rgb(0, 0, 0); stroke-opacity: 1; stroke-width: 1px;"/></g><g class="y3"><path class="y3grid crisp" transform="translate(0,182.75)" d="M304.97,0h105.04499999999999" style="stroke: rgb(0, 0, 0); stroke-opacity: 1; stroke-width: 1px;"/><path class="y3grid crisp" transform="translate(0,154.29000000000002)" d="M304.97,0h105.04499999999999" style="stroke: rgb(0, 0, 0); stroke-opacity: 1; stroke-width: 1px;"/><path class="y3grid crisp" transform="translate(0,125.83)" d="M304.97,0h105.04499999999999" style="stroke: rgb(0, 0, 0); stroke-opacity: 1; stroke-width: 1px;"/><path class="y3grid crisp" transform="translate(0,88.21000000000001)" d="M304.97,0h105.04499999999999" style="stroke: rgb(0, 0, 0); stroke-opacity: 1; stroke-width: 1px;"/><path class="y3grid crisp" transform="translate(0,59.75)" d="M304.97,0h105.04499999999999" style="stroke: rgb(0, 0, 0); stroke-opacity: 1; stroke-width: 1px;"/></g></g><g class="zerolinelayer"/><path class="xlines-below"/><path class="ylines-below"/><g class="overlines-below"/><g class="xaxislayer-below"/><g class="yaxislayer-below"/><g class="overaxes-below"/><g class="plot" transform="translate(304.97,50)" clip-path="url(#clip84e19fx3y3plot)"><g class="boxlayer mlayer"><g class="trace boxes" style="opacity: 1;"><path class="box" d="M3.5,86.74H31.51M3.5,102.29H31.51V80.92H3.5ZM17.51,102.29V115.2M17.51,80.92V66.12M10.5,115.2H24.51M10.5,66.12H24.51" style="vector-effect: non-scaling-stroke; stroke-width: 3px; stroke: rgb(136, 114, 205); stroke-opacity: 1; fill: rgb(136, 114, 205); fill-opacity: 0.5;"/><path class="box" d="M38.52,104.98H66.53M38.52,116.1H66.53V91.59H38.52ZM52.52,116.1V159.6M52.52,91.59V82.5M45.52,159.6H59.53M45.52,82.5H59.53" style="vector-effect: non-scaling-stroke; stroke-width: 3px; stroke: rgb(136, 114, 205); stroke-opacity: 1; fill: rgb(136, 114, 205); fill-opacity: 0.5;"/><path class="box" d="M73.53,98.55H101.54M73.53,130.1H101.54V92.73H73.53ZM87.54,130.1V147.39M87.54,92.73V92.48M80.53,147.39H94.54M80.53,92.48H94.54" style="vector-effect: non-scaling-stroke; stroke-width: 3px; stroke: rgb(136, 114, 205); stroke-opacity: 1; fill: rgb(136, 114, 205); fill-opacity: 0.5;"/><g class="points"><path class="point" transform="translate(24.27,115.2)" d="M3,0A3,3 0 1,1 0,-3A3,3 0 0,1 3,0Z" style="opacity: 1; stroke-width: 0px; fill: rgb(136, 114, 205); fill-opacity: 1;"/><path class="point" transform="translate(8.58,102.94)" d="M3,0A3,3 0 1,1 0,-3A3,3 0 0,1 3,0Z" style="opacity: 1; stroke-width: 0px; fill: rgb(136, 114, 205); fill-opacity: 1;"/><path class="point" transform="translate(27.77,101.64)" d="M3,0A3,3 0 1,1 0,-3A3,3 0 0,1 3,0Z" style="opacity: 1; stroke-width: 0px; fill: rgb(136, 114, 205); fill-opacity: 1;"/><path class="point" transform="translate(7.93,87.64)" d="M3,0A3,3 0 1,1 0,-3A3,3 0 0,1 3,0Z" style="opacity: 1; stroke-width: 0px; fill: rgb(136, 114, 205); fill-opacity: 1;"/><path class="point" transform="translate(14.72,86.74)" d="M3,0A3,3 0 1,1 0,-3A3,3 0 0,1 3,0Z" style="opacity: 1; stroke-width: 0px; fill: rgb(136, 114, 205); fill-opacity: 1;"/><path class="point" transform="translate(23.45,84.99)" d="M3,0A3,3 0 1,1 0,-3A3,3 0 0,1 3,0Z" style="opacity: 1; stroke-width: 0px; fill: rgb(136, 114, 205); fill-opacity: 1;"/><path class="point" transform="translate(17.08,84.14)" d="M3,0A3,3 0 1,1 0,-3A3,3 0 0,1 3,0Z" style="opacity: 1; stroke-width: 0px; fill: rgb(136, 114, 205); fill-opacity: 1;"/><path class="point" transform="translate(20.63,77.94)" d="M3,0A3,3 0 1,1 0,-3A3,3 0 0,1 3,0Z" style="opacity: 1; stroke-width: 0px; fill: rgb(136, 114, 205); fill-opacity: 1;"/><path class="point" transform="translate(13.77,66.12)" d="M3,0A3,3 0 1,1 0,-3A3,3 0 0,1 3,0Z" style="opacity: 1; stroke-width: 0px; fill: rgb(136, 114, 205); fill-opacity: 1;"/></g><g class="points"><path class="point" transform="translate(43.62,159.6)" d="M3,0A3,3 0 1,1 0,-3A3,3 0 0,1 3,0Z" style="opacity: 1; stroke-width: 0px; fill: rgb(136, 114, 205); fill-opacity: 1;"/><path class="point" transform="translate(55.96,125.26)" d="M3,0A3,3 0 1,1 0,-3A3,3 0 0,1 3,0Z" style="opacity: 1; stroke-width: 0px; fill: rgb(136, 114, 205); fill-opacity: 1;"/><path class="point" transform="translate(48.46,108.62)" d="M3,0A3,3 0 1,1 0,-3A3,3 0 0,1 3,0Z" style="opacity: 1; stroke-width: 0px; fill: rgb(136, 114, 205); fill-opacity: 1;"/><path class="point" transform="translate(60.35,105.68)" d="M3,0A3,3 0 1,1 0,-3A3,3 0 0,1 3,0Z" style="opacity: 1; stroke-width: 0px; fill: rgb(136, 114, 205); fill-opacity: 1;"/><path class="point" transform="translate(40.5,104.29)" d="M3,0A3,3 0 1,1 0,-3A3,3 0 0,1 3,0Z" style="opacity: 1; stroke-width: 0px; fill: rgb(136, 114, 205); fill-opacity: 1;"/><path class="point" transform="translate(45.38,92.73)" d="M3,0A3,3 0 1,1 0,-3A3,3 0 0,1 3,0Z" style="opacity: 1; stroke-width: 0px; fill: rgb(136, 114, 205); fill-opacity: 1;"/><path class="point" transform="translate(64.1,90.47)" d="M3,0A3,3 0 1,1 0,-3A3,3 0 0,1 3,0Z" style="opacity: 1; stroke-width: 0px; fill: rgb(136, 114, 205); fill-opacity: 1;"/><path class="point" transform="translate(49.01,82.5)" d="M3,0A3,3 0 1,1 0,-3A3,3 0 0,1 3,0Z" style="opacity: 1; stroke-width: 0px; fill: rgb(136, 114, 205); fill-opacity: 1;"/></g><g class="points"><path class="point" transform="translate(76.65,147.39)" d="M3,0A3,3 0 1,1 0,-3A3,3 0 0,1 3,0Z" style="opacity: 1; stroke-width: 0px; fill: rgb(136, 114, 205); fill-opacity: 1;"/><path class="point" transform="translate(82.96,130.1)" d="M3,0A3,3 0 1,1 0,-3A3,3 0 0,1 3,0Z" style="opacity: 1; stroke-width: 0px; fill: rgb(136, 114, 205); fill-opacity: 1;"/><path class="point" transform="translate(87.24,125.26)" d="M3,0A3,3 0 1,1 0,-3A3,3 0 0,1 3,0Z" style="opacity: 1; stroke-width: 0px; fill: rgb(136, 114, 205); fill-opacity: 1;"/><path class="point" transform="translate(93.76,98.55)" d="M3,0A3,3 0 1,1 0,-3A3,3 0 0,1 3,0Z" style="opacity: 1; stroke-width: 0px; fill: rgb(136, 114, 205); fill-opacity: 1;"/><path class="point" transform="translate(89.08,96.8)" d="M3,0A3,3 0 1,1 0,-3A3,3 0 0,1 3,0Z" style="opacity: 1; stroke-width: 0px; fill: rgb(136, 114, 205); fill-opacity: 1;"/><path class="point" transform="translate(83.63,92.73)" d="M3,0A3,3 0 1,1 0,-3A3,3 0 0,1 3,0Z" style="opacity: 1; stroke-width: 0px; fill: rgb(136, 114, 205); fill-opacity: 1;"/><path class="point" transform="translate(75.83,92.48)" d="M3,0A3,3 0 1,1 0,-3A3,3 0 0,1 3,0Z" style="opacity: 1; stroke-width: 0px; fill: rgb(136, 114, 205); fill-opacity: 1;"/></g><path class="mean" d="M3.5,87.44H31.51" style="fill: none; vector-effect: non-scaling-stroke; stroke-width: 3; stroke-dasharray: 6px, 3px; stroke: rgb(136, 114, 205); stroke-opacity: 1;"/><path class="mean" d="M38.52,103.52H66.53" style="fill: none; vector-effect: non-scaling-stroke; stroke-width: 3; stroke-dasharray: 6px, 3px; stroke: rgb(136, 114, 205); stroke-opacity: 1;"/><path class="mean" d="M73.53,107.39H101.54" style="fill: none; vector-effect: non-scaling-stroke; stroke-width: 3; stroke-dasharray: 6px, 3px; stroke: rgb(136, 114, 205); stroke-opacity: 1;"/></g></g></g><g class="overplot"/><path class="xlines-above crisp" d="M303.97,218.5H410.015" style="fill: none; stroke-width: 1px; stroke: rgb(0, 0, 0); stroke-opacity: 1;"/><path class="ylines-above crisp" d="M304.47,50V218" style="fill: none; stroke-width: 1px; stroke: rgb(0, 0, 0); stroke-opacity: 1;"/><g class="overlines-above"/><g class="xaxislayer-above"><g class="x3tick"><text text-anchor="middle" x="0" y="235.8" transform="translate(322.48,0)" style="font-family: 'Open Sans', verdana, arial, sans-serif; font-size: 14px; fill: rgb(0, 0, 0); fill-opacity: 1; white-space: pre; opacity: 1;">0.04</text></g><g class="x3tick"><text text-anchor="middle" x="0" y="235.8" transform="translate(357.49,0)" style="font-family: 'Open Sans', verdana, arial, sans-serif; font-size: 14px; fill: rgb(0, 0, 0); fill-opacity: 1; white-space: pre; opacity: 1;">0.085</text></g><g class="x3tick"><text text-anchor="middle" x="0" y="235.8" transform="translate(392.51000000000005,0)" style="font-family: 'Open Sans', verdana, arial, sans-serif; font-size: 14px; fill: rgb(0, 0, 0); fill-opacity: 1; white-space: pre; opacity: 1;">0.15</text></g></g><g class="yaxislayer-above"/><g class="overaxes-above"/></g><g class="subplot x4y4"><g class="layer-subplot"><g class="shapelayer"/><g class="imagelayer"/></g><g class="minor-gridlayer"><g class="x4"/><g class="y4"/></g><g class="gridlayer"><g class="x4"><path class="x4grid crisp" transform="translate(436.465,0)" d="M0,50v168" style="stroke: rgb(0, 0, 0); stroke-opacity: 1; stroke-width: 1px;"/><path class="x4grid crisp" transform="translate(471.47499999999997,0)" d="M0,50v168" style="stroke: rgb(0, 0, 0); stroke-opacity: 1; stroke-width: 1px;"/><path class="x4grid crisp" transform="translate(506.495,0)" d="M0,50v168" style="stroke: rgb(0, 0, 0); stroke-opacity: 1; stroke-width: 1px;"/></g><g class="y4"><path class="y4grid crisp" transform="translate(0,182.75)" d="M418.955,0h105.04499999999999" style="stroke: rgb(0, 0, 0); stroke-opacity: 1; stroke-width: 1px;"/><path class="y4grid crisp" transform="translate(0,154.29000000000002)" d="M418.955,0h105.04499999999999" style="stroke: rgb(0, 0, 0); stroke-opacity: 1; stroke-width: 1px;"/><path class="y4grid crisp" transform="translate(0,125.83)" d="M418.955,0h105.04499999999999" style="stroke: rgb(0, 0, 0); stroke-opacity: 1; stroke-width: 1px;"/><path class="y4grid crisp" transform="translate(0,88.21000000000001)" d="M418.955,0h105.04499999999999" style="stroke: rgb(0, 0, 0); stroke-opacity: 1; stroke-width: 1px;"/><path class="y4grid crisp" transform="translate(0,59.75)" d="M418.955,0h105.04499999999999" style="stroke: rgb(0, 0, 0); stroke-opacity: 1; stroke-width: 1px;"/></g></g><g class="zerolinelayer"/><path class="xlines-below"/><path class="ylines-below"/><g class="overlines-below"/><g class="xaxislayer-below"/><g class="yaxislayer-below"/><g class="overaxes-below"/><g class="plot" transform="translate(418.955,50)" clip-path="url(#clip84e19fx4y4plot)"><g class="boxlayer mlayer"><g class="trace boxes" style="opacity: 1;"><path class="box" d="M3.5,95.68H31.51M3.5,108.62H31.51V71.92H3.5ZM17.51,108.62V117.02M17.51,71.92V67.78M10.5,117.02H24.51M10.5,67.78H24.51" style="vector-effect: non-scaling-stroke; stroke-width: 3px; stroke: rgb(136, 114, 205); stroke-opacity: 1; fill: rgb(136, 114, 205); fill-opacity: 0.5;"/><path class="box" d="M38.52,85.1H66.53M38.52,91.34H66.53V74.9H38.52ZM52.52,91.34V92.73M52.52,74.9V70.09M45.52,92.73H59.53M45.52,70.09H59.53" style="vector-effect: non-scaling-stroke; stroke-width: 3px; stroke: rgb(136, 114, 205); stroke-opacity: 1; fill: rgb(136, 114, 205); fill-opacity: 0.5;"/><path class="box" d="M73.53,96.8H101.54M73.53,99.45H101.54V83.11H73.53ZM87.54,99.45V114.84M87.54,83.11V70.09M80.53,114.84H94.54M80.53,70.09H94.54" style="vector-effect: non-scaling-stroke; stroke-width: 3px; stroke: rgb(136, 114, 205); stroke-opacity: 1; fill: rgb(136, 114, 205); fill-opacity: 0.5;"/><g class="points"><path class="point" transform="translate(24.78,117.02)" d="M3,0A3,3 0 1,1 0,-3A3,3 0 0,1 3,0Z" style="opacity: 1; stroke-width: 0px; fill: rgb(136, 114, 205); fill-opacity: 1;"/><path class="point" transform="translate(8.79,108.62)" d="M3,0A3,3 0 1,1 0,-3A3,3 0 0,1 3,0Z" style="opacity: 1; stroke-width: 0px; fill: rgb(136, 114, 205); fill-opacity: 1;"/><path class="point" transform="translate(27.73,108.62)" d="M3,0A3,3 0 1,1 0,-3A3,3 0 0,1 3,0Z" style="opacity: 1; stroke-width: 0px; fill: rgb(136, 114, 205); fill-opacity: 1;"/><path class="point" transform="translate(5.83,102.94)" d="M3,0A3,3 0 1,1 0,-3A3,3 0 0,1 3,0Z" style="opacity: 1; stroke-width: 0px; fill: rgb(136, 114, 205); fill-opacity: 1;"/><path class="point" transform="translate(14.11,95.68)" d="M3,0A3,3 0 1,1 0,-3A3,3 0 0,1 3,0Z" style="opacity: 1; stroke-width: 0px; fill: rgb(136, 114, 205); fill-opacity: 1;"/><path class="point" transform="translate(24.76,80.92)" d="M3,0A3,3 0 1,1 0,-3A3,3 0 0,1 3,0Z" style="opacity: 1; stroke-width: 0px; fill: rgb(136, 114, 205); fill-opacity: 1;"/><path class="point" transform="translate(17,75.15)" d="M3,0A3,3 0 1,1 0,-3A3,3 0 0,1 3,0Z" style="opacity: 1; stroke-width: 0px; fill: rgb(136, 114, 205); fill-opacity: 1;"/><path class="point" transform="translate(21.16,68.92)" d="M3,0A3,3 0 1,1 0,-3A3,3 0 0,1 3,0Z" style="opacity: 1; stroke-width: 0px; fill: rgb(136, 114, 205); fill-opacity: 1;"/><path class="point" transform="translate(13.67,67.78)" d="M3,0A3,3 0 1,1 0,-3A3,3 0 0,1 3,0Z" style="opacity: 1; stroke-width: 0px; fill: rgb(136, 114, 205); fill-opacity: 1;"/></g><g class="points"><path class="point" transform="translate(42.26,92.73)" d="M3,0A3,3 0 1,1 0,-3A3,3 0 0,1 3,0Z" style="opacity: 1; stroke-width: 0px; fill: rgb(136, 114, 205); fill-opacity: 1;"/><path class="point" transform="translate(56.19,91.46)" d="M3,0A3,3 0 1,1 0,-3A3,3 0 0,1 3,0Z" style="opacity: 1; stroke-width: 0px; fill: rgb(136, 114, 205); fill-opacity: 1;"/><path class="point" transform="translate(48.1,91.21)" d="M3,0A3,3 0 1,1 0,-3A3,3 0 0,1 3,0Z" style="opacity: 1; stroke-width: 0px; fill: rgb(136, 114, 205); fill-opacity: 1;"/><path class="point" transform="translate(61.05,88.56)" d="M3,0A3,3 0 1,1 0,-3A3,3 0 0,1 3,0Z" style="opacity: 1; stroke-width: 0px; fill: rgb(136, 114, 205); fill-opacity: 1;"/><path class="point" transform="translate(39.43,81.9)" d="M3,0A3,3 0 1,1 0,-3A3,3 0 0,1 3,0Z" style="opacity: 1; stroke-width: 0px; fill: rgb(136, 114, 205); fill-opacity: 1;"/><path class="point" transform="translate(44.74,76.52)" d="M3,0A3,3 0 1,1 0,-3A3,3 0 0,1 3,0Z" style="opacity: 1; stroke-width: 0px; fill: rgb(136, 114, 205); fill-opacity: 1;"/><path class="point" transform="translate(63.78,73.34)" d="M3,0A3,3 0 1,1 0,-3A3,3 0 0,1 3,0Z" style="opacity: 1; stroke-width: 0px; fill: rgb(136, 114, 205); fill-opacity: 1;"/><path class="point" transform="translate(49.6,70.09)" d="M3,0A3,3 0 1,1 0,-3A3,3 0 0,1 3,0Z" style="opacity: 1; stroke-width: 0px; fill: rgb(136, 114, 205); fill-opacity: 1;"/></g><g class="points"><path class="point" transform="translate(75.52,114.84)" d="M3,0A3,3 0 1,1 0,-3A3,3 0 0,1 3,0Z" style="opacity: 1; stroke-width: 0px; fill: rgb(136, 114, 205); fill-opacity: 1;"/><path class="point" transform="translate(83.64,99.45)" d="M3,0A3,3 0 1,1 0,-3A3,3 0 0,1 3,0Z" style="opacity: 1; stroke-width: 0px; fill: rgb(136, 114, 205); fill-opacity: 1;"/><path class="point" transform="translate(87.29,96.8)" d="M3,0A3,3 0 1,1 0,-3A3,3 0 0,1 3,0Z" style="opacity: 1; stroke-width: 0px; fill: rgb(136, 114, 205); fill-opacity: 1;"/><path class="point" transform="translate(92.84,96.8)" d="M3,0A3,3 0 1,1 0,-3A3,3 0 0,1 3,0Z" style="opacity: 1; stroke-width: 0px; fill: rgb(136, 114, 205); fill-opacity: 1;"/><path class="point" transform="translate(88.85,95.13)" d="M3,0A3,3 0 1,1 0,-3A3,3 0 0,1 3,0Z" style="opacity: 1; stroke-width: 0px; fill: rgb(136, 114, 205); fill-opacity: 1;"/><path class="point" transform="translate(84.21,83.11)" d="M3,0A3,3 0 1,1 0,-3A3,3 0 0,1 3,0Z" style="opacity: 1; stroke-width: 0px; fill: rgb(136, 114, 205); fill-opacity: 1;"/><path class="point" transform="translate(77.28,70.09)" d="M3,0A3,3 0 1,1 0,-3A3,3 0 0,1 3,0Z" style="opacity: 1; stroke-width: 0px; fill: rgb(136, 114, 205); fill-opacity: 1;"/></g><path class="mean" d="M3.5,87.95H31.51" style="fill: none; vector-effect: non-scaling-stroke; stroke-width: 3; stroke-dasharray: 6px, 3px; stroke: rgb(136, 114, 205); stroke-opacity: 1;"/><path class="mean" d="M38.52,82.35H66.53" style="fill: none; vector-effect: non-scaling-stroke; stroke-width: 3; stroke-dasharray: 6px, 3px; stroke: rgb(136, 114, 205); stroke-opacity: 1;"/><path class="mean" d="M73.53,91.65H101.54" style="fill: none; vector-effect: non-scaling-stroke; stroke-width: 3; stroke-dasharray: 6px, 3px; stroke: rgb(136, 114, 205); stroke-opacity: 1;"/></g></g></g><g class="overplot"/><path class="xlines-above crisp" d="M417.955,218.5H524" style="fill: none; stroke-width: 1px; stroke: rgb(0, 0, 0); stroke-opacity: 1;"/><path class="ylines-above crisp" d="M418.455,50V218" style="fill: none; stroke-width: 1px; stroke: rgb(0, 0, 0); stroke-opacity: 1;"/><g class="overlines-above"/><g class="xaxislayer-above"><g class="x4tick"><text text-anchor="middle" x="0" y="235.8" transform="translate(436.465,0)" style="font-family: 'Open Sans', verdana, arial, sans-serif; font-size: 14px; fill: rgb(0, 0, 0); fill-opacity: 1; white-space: pre; opacity: 1;">0.04</text></g><g class="x4tick"><text text-anchor="middle" x="0" y="235.8" transform="translate(471.47499999999997,0)" style="font-family: 'Open Sans', verdana, arial, sans-serif; font-size: 14px; fill: rgb(0, 0, 0); fill-opacity: 1; white-space: pre; opacity: 1;">0.085</text></g><g class="x4tick"><text text-anchor="middle" x="0" y="235.8" transform="translate(506.495,0)" style="font-family: 'Open Sans', verdana, arial, sans-serif; font-size: 14px; fill: rgb(0, 0, 0); fill-opacity: 1; white-space: pre; opacity: 1;">0.15</text></g></g><g class="yaxislayer-above"/><g class="overaxes-above"/></g></g><g class="polarlayer"/><g class="smithlayer"/><g class="ternarylayer"/><g class="geolayer"/><g class="funnelarealayer"/><g class="pielayer"/><g class="iciclelayer"/><g class="treemaplayer"/><g class="sunburstlayer"/><g class="glimages"/><defs id="topdefs-84e19f"><g class="clips"/><clipPath id="legend84e19f"><rect width="57" height="32" x="0" y="0"/></clipPath></defs><g class="layer-above"><g class="imagelayer"/><g class="shapelayer"/></g><g class="infolayer"><g class="legend" pointer-events="all" transform="translate(532.94,50)"><rect class="bg" shape-rendering="crispEdges" style="stroke: rgb(68, 68, 68); stroke-opacity: 1; fill: rgb(153, 153, 153); fill-opacity: 1; stroke-width: 0px;" width="57" height="32" x="0" y="0"/><g class="scrollbox" transform="" clip-path="url(#legend84e19f)"><g class="groups" transform=""><g class="traces" transform="translate(0,15.6)" style="opacity: 1;"><text class="legendtext" text-anchor="start" x="40" y="5.46" style="font-family: 'Open Sans', verdana, arial, sans-serif; font-size: 14px; fill: rgb(0, 0, 0); fill-opacity: 1; white-space: pre;">ct</text><g class="layers" style="opacity: 1;"><g class="legendfill"/><g class="legendlines"/><g class="legendsymbols"><g class="legendpoints"><path class="legendbox" d="M6,6H-6V-6H6Z" transform="translate(20,0)" style="stroke-width: 3px; fill: rgb(136, 114, 205); fill-opacity: 0.5; stroke: rgb(136, 114, 205); stroke-opacity: 1;"/></g></g></g><rect class="legendtoggle" x="0" y="-10.6" width="51.671875" height="21.2" style="fill: rgb(0, 0, 0); fill-opacity: 0;"/></g></g></g><rect class="scrollbar" rx="20" ry="3" width="0" height="0" style="fill: rgb(128, 139, 164); fill-opacity: 1;" x="0" y="0"/></g><g class="g-gtitle"/><g class="g-xtitle"/><g class="g-x2title"/><g class="g-x3title"/><g class="g-x4title"/><g class="g-ytitle" transform="translate(8.369140625,0)"><text class="ytitle" transform="rotate(-90,9.631249999999994,134)" x="9.631249999999994" y="134" text-anchor="middle" style="font-family: 'Open Sans', verdana, arial, sans-serif; font-size: 17px; fill: rgb(0, 0, 0); opacity: 1; font-weight: normal; white-space: pre;">CFUs/mL</text></g><g class="g-y2title"/><g class="g-y3title"/><g class="g-y4title"/><g class="annotation" data-index="0" style="opacity: 1;"><g class="annotation-text-g" transform="rotate(0,129.52249999999998,38.49999999999999)"><g class="cursor-pointer" transform="translate(56,27)"><rect class="bg" x="0.5" y="0.5" width="146" height="22" style="stroke-width: 1px; stroke: rgb(0, 0, 0); stroke-opacity: 0; fill: rgb(0, 0, 0); fill-opacity: 0;"/><text class="annotation-text" text-anchor="middle" x="73.5" y="17" style="font-family: 'Open Sans', verdana, arial, sans-serif; font-size: 14px; fill: rgb(0, 0, 0); fill-opacity: 1; white-space: pre;">cond=mono_thiamine</text></g></g></g><g class="annotation" data-index="1" style="opacity: 1;"><g class="annotation-text-g" transform="rotate(0,243.5075,38.5)"><g class="cursor-pointer" transform="translate(202,27)"><rect class="bg" x="0.5" y="0.5" width="82" height="22" style="stroke-width: 1px; stroke: rgb(0, 0, 0); stroke-opacity: 0; fill: rgb(0, 0, 0); fill-opacity: 0;"/><text class="annotation-text" text-anchor="middle" x="41.421875" y="17" style="font-family: 'Open Sans', verdana, arial, sans-serif; font-size: 14px; fill: rgb(0, 0, 0); fill-opacity: 1; white-space: pre;">cond=mono</text></g></g></g><g class="annotation" data-index="2" style="opacity: 1;"><g class="annotation-text-g" transform="rotate(0,357.49249999999995,38.5)"><g class="cursor-pointer" transform="translate(315,27)"><rect class="bg" x="0.5" y="0.5" width="84" height="22" style="stroke-width: 1px; stroke: rgb(0, 0, 0); stroke-opacity: 0; fill: rgb(0, 0, 0); fill-opacity: 0;"/><text class="annotation-text" text-anchor="middle" x="42.734375" y="17" style="font-family: 'Open Sans', verdana, arial, sans-serif; font-size: 14px; fill: rgb(0, 0, 0); fill-opacity: 1; white-space: pre;">cond=comm</text></g></g></g><g class="annotation" data-index="3" style="opacity: 1;"><g class="annotation-text-g" transform="rotate(0,471.4774999999999,38.49999999999999)"><g class="cursor-pointer" transform="translate(396,27)"><rect class="bg" x="0.5" y="0.5" width="149" height="22" style="stroke-width: 1px; stroke: rgb(0, 0, 0); stroke-opacity: 0; fill: rgb(0, 0, 0); fill-opacity: 0;"/><text class="annotation-text" text-anchor="middle" x="74.8125" y="17" style="font-family: 'Open Sans', verdana, arial, sans-serif; font-size: 14px; fill: rgb(0, 0, 0); fill-opacity: 1; white-space: pre;">cond=comm_thiamine</text></g></g></g></g></svg>