<svg class="main-svg" xmlns="http://www.w3.org/2000/svg" xmlns:xlink="http://www.w3.org/1999/xlink" width="600" height="300" style="" viewBox="0 0 600 300"><rect x="0" y="0" width="600" height="300" style="fill: rgb(153, 153, 153); fill-opacity: 1;"/><defs id="defs-f233be"><g class="clips"><clipPath id="clipf233bexyplot" class="plotclip"><rect width="196.98" height="192"/></clipPath><clipPath id="clipf233bex2y2plot" class="plotclip"><rect width="196.98" height="192"/></clipPath><clipPath class="axesclip" id="clipf233bex"><rect x="76" y="0" width="196.98" height="300"/></clipPath><clipPath class="axesclip" id="clipf233bey"><rect x="0" y="50" width="600" height="192"/></clipPath><clipPath class="axesclip" id="clipf233bexy"><rect x="76" y="50" width="196.98" height="192"/></clipPath><clipPath class="axesclip" id="clipf233bey2"><rect x="0" y="50" width="600" height="192"/></clipPath><clipPath class="axesclip" id="clipf233bexy2"><rect x="76" y="50" width="196.98" height="192"/></clipPath><clipPath class="axesclip" id="clipf233bex2"><rect x="281.02" y="0" width="196.98" height="300"/></clipPath><clipPath class="axesclip" id="clipf233bex2y"><rect x="281.02" y="50" width="196.98" height="192"/></clipPath><clipPath class="axesclip" id="clipf233bex2y2"><rect x="281.02" y="50" width="196.98" height="192"/></clipPath></g><g class="gradients"/><g class="patterns"/></defs><g class="bglayer"/><g class="layer-below"><g class="imagelayer"/><g class="shapelayer"/></g><g class="cartesianlayer"><g class="subplot xy"><g class="layer-subplot"><g class="shapelayer"/><g class="imagelayer"/></g><g class="minor-gridlayer"><g class="x"/><g class="y"/></g><g class="gridlayer"><g class="x"><path class="xgrid crisp" transform="translate(149.62,0)" d="M0,50v192" style="stroke: rgb(0, 0, 0); stroke-opacity: 1; stroke-width: 1px;"/><path class="xgrid crisp" transform="translate(240.72,0)" d="M0,50v192" style="stroke: rgb(0, 0, 0); stroke-opacity: 1; stroke-width: 1px;"/></g><g class="y"><path class="ygrid crisp" transform="translate(0,230.71)" d="M76,0h196.98" style="stroke: rgb(0, 0, 0); stroke-opacity: 1; stroke-width: 1px;"/><path class="ygrid crisp" transform="translate(0,199.41)" d="M76,0h196.98" style="stroke: rgb(0, 0, 0); stroke-opacity: 1; stroke-width: 1px;"/><path class="ygrid crisp" transform="translate(0,168.1)" d="M76,0h196.98" style="stroke: rgb(0, 0, 0); stroke-opacity: 1; stroke-width: 1px;"/><path class="ygrid crisp" transform="translate(0,126.71)" d="M76,0h196.98" style="stroke: rgb(0, 0, 0); stroke-opacity: 1; stroke-width: 1px;"/><path class="ygrid crisp" transform="translate(0,95.41)" d="M76,0h196.98" style="stroke: rgb(0, 0, 0); stroke-opacity: 1; stroke-width: 1px;"/><path class="ygrid crisp" transform="translate(0,64.1)" d="M76,0h196.98" style="stroke: rgb(0, 0, 0); stroke-opacity: 1; stroke-width: 1px;"/></g></g><g class="zerolinelayer"/><path class="xlines-below"/><path class="ylines-below"/><g class="overlines-below"/><g class="xaxislayer-below"/><g class="yaxislayer-below"/><g class="overaxes-below"/><g class="plot" transform="translate(76,50)" clip-path="url(#clipf233bexyplot)"><g class="scatterlayer mlayer"><g class="trace scatter trace94e14b" style="stroke-miterlimit: 2; opacity: 1;"><g class="fills"/><g class="errorbars"><g class="errorbar" style="opacity: 1;"><path class="yerror" d="M7.27,74.07h8m-4,0V84.97m-4,0h8" style="vector-effect: none; stroke-width: 2px; stroke: rgb(136, 114, 205); stroke-opacity: 1;"/></g><g class="errorbar" style="opacity: 1;"><path class="yerror" d="M16.6,76.7h8m-4,0V89.93m-4,0h8" style="vector-effect: none; stroke-width: 2px; stroke: rgb(136, 114, 205); stroke-opacity: 1;"/></g><g class="errorbar" style="opacity: 1;"><path class="yerror" d="M50.6,37.7h8m-4,0V51.15m-4,0h8" style="vector-effect: none; stroke-width: 2px; stroke: rgb(136, 114, 205); stroke-opacity: 1;"/></g><g class="errorbar" style="opacity: 1;"><path class="yerror" d="M62.790000000000006,78.89h8m-4,0V84.21m-4,0h8" style="vector-effect: none; stroke-width: 2px; stroke: rgb(136, 114, 205); stroke-opacity: 1;"/></g><g class="errorbar" style="opacity: 1;"><path class="yerror" d="M93.98,51.83h8m-4,0V61.14m-4,0h8" style="vector-effect: none; stroke-width: 2px; stroke: rgb(136, 114, 205); stroke-opacity: 1;"/></g><g class="errorbar" style="opacity: 1;"><path class="yerror" d="M106.21,93.15h8m-4,0V98.91m-4,0h8" style="vector-effect: none; stroke-width: 2px; stroke: rgb(136, 114, 205); stroke-opacity: 1;"/></g><g class="errorbar" style="opacity: 1;"><path class="yerror" d="M137.64,77.14h8m-4,0V100.09m-4,0h8" style="vector-effect: none; stroke-width: 2px; stroke: rgb(136, 114, 205); stroke-opacity: 1;"/></g><g class="errorbar" style="opacity: 1;"><path class="yerror" d="M150.04,70.58h8m-4,0V93.17m-4,0h8" style="vector-effect: none; stroke-width: 2px; stroke: rgb(136, 114, 205); stroke-opacity: 1;"/></g><g class="errorbar" style="opacity: 1;"><path class="yerror" d="M183.13,97.65h8m-4,0V110.09m-4,0h8" style="vector-effect: none; stroke-width: 2px; stroke: rgb(136, 114, 205); stroke-opacity: 1;"/></g></g><g class="lines"><path class="js-line" d="M11.27,79.19L20.6,82.83L54.6,43.93L66.79,81.47L97.98,56.25L110.21,95.94L141.64,87.17L154.04,80.48L187.13,103.44" style="vector-effect: none; fill: none; stroke: rgb(136, 114, 205); stroke-opacity: 1; stroke-width: 5px; opacity: 1;"/></g><g class="points"/><g class="text"/></g><g class="trace scatter trace1b9313" style="stroke-miterlimit: 2; opacity: 1;"><g class="fills"/><g class="errorbars"><g class="errorbar" style="opacity: 1;"><path class="yerror" d="M7.27,104.78h8m-4,0V110.23m-4,0h8" style="vector-effect: none; stroke-width: 2px; stroke: rgb(136, 114, 205); stroke-opacity: 1;"/></g><g class="errorbar" style="opacity: 1;"><path class="yerror" d="M16.6,118.1h8m-4,0V122.86m-4,0h8" style="vector-effect: none; stroke-width: 2px; stroke: rgb(136, 114, 205); stroke-opacity: 1;"/></g><g class="errorbar" style="opacity: 1;"><path class="yerror" d="M50.6,115.48h8m-4,0V145.91m-4,0h8" style="vector-effect: none; stroke-width: 2px; stroke: rgb(136, 114, 205); stroke-opacity: 1;"/></g><g class="errorbar" style="opacity: 1;"><path class="yerror" d="M62.790000000000006,118.1h8m-4,0V149.41m-4,0h8" style="vector-effect: none; stroke-width: 2px; stroke: rgb(136, 114, 205); stroke-opacity: 1;"/></g><g class="errorbar" style="opacity: 1;"><path class="yerror" d="M93.98,141.7h8m-4,0V155.15m-4,0h8" style="vector-effect: none; stroke-width: 2px; stroke: rgb(136, 114, 205); stroke-opacity: 1;"/></g><g class="errorbar" style="opacity: 1;"><path class="yerror" d="M106.21,125.81h8m-4,0V134.84m-4,0h8" style="vector-effect: none; stroke-width: 2px; stroke: rgb(136, 114, 205); stroke-opacity: 1;"/></g><g class="errorbar" style="opacity: 1;"><path class="yerror" d="M137.64,153.2h8m-4,0V171.44m-4,0h8" style="vector-effect: none; stroke-width: 2px; stroke: rgb(136, 114, 205); stroke-opacity: 1;"/></g><g class="errorbar" style="opacity: 1;"><path class="yerror" d="M150.04,136.92h8m-4,0V158.65m-4,0h8" style="vector-effect: none; stroke-width: 2px; stroke: rgb(136, 114, 205); stroke-opacity: 1;"/></g><g class="errorbar" style="opacity: 1;"><path class="yerror" d="M183.13,111.8h8m-4,0V150.9m-4,0h8" style="vector-effect: none; stroke-width: 2px; stroke: rgb(136, 114, 205); stroke-opacity: 1;"/></g></g><g class="lines"><path class="js-line" d="M11.27,107.42L20.6,120.42L54.6,128.18L66.79,131.09L97.98,147.93L110.21,130.1L141.64,161.41L154.04,146.49L187.13,127.25" style="vector-effect: none; fill: none; stroke: rgb(136, 114, 205); stroke-opacity: 1; stroke-dasharray: 5px, 5px; stroke-width: 5px; opacity: 1;"/></g><g class="points"/><g class="text"/></g><g class="trace scatter trace91a313" style="stroke-miterlimit: 2; opacity: 1;"><g class="fills"/><g class="errorbars"><g class="errorbar" style="opacity: 1;"><path class="yerror" d="M5.85,45.41h8m-4,0V86.79m-4,0h8" style="vector-effect: none; stroke-width: 2px; stroke: rgb(226, 126, 80); stroke-opacity: 1;"/></g><g class="errorbar" style="opacity: 1;"><path class="yerror" d="M14.96,56.63h8m-4,0V78.56m-4,0h8" style="vector-effect: none; stroke-width: 2px; stroke: rgb(226, 126, 80); stroke-opacity: 1;"/></g></g><g class="lines"><path class="js-line" d="M9.85,61.52L18.96,66.28" style="vector-effect: none; fill: none; stroke: rgb(226, 126, 80); stroke-opacity: 1; stroke-width: 5px; opacity: 1;"/></g><g class="points"/><g class="text"/></g><g class="trace scatter trace9a78ed" style="stroke-miterlimit: 2; opacity: 1;"><g class="fills"/><g class="errorbars"><g class="errorbar" style="opacity: 1;"><path class="yerror" d="M7.27,45.41h8m-4,0V55.49m-4,0h8" style="vector-effect: none; stroke-width: 2px; stroke: rgb(226, 126, 80); stroke-opacity: 1;"/></g><g class="errorbar" style="opacity: 1;"><path class="yerror" d="M16.6,22.89h8m-4,0V66.99m-4,0h8" style="vector-effect: none; stroke-width: 2px; stroke: rgb(226, 126, 80); stroke-opacity: 1;"/></g><g class="errorbar" style="opacity: 1;"><path class="yerror" d="M50.6,37.7h8m-4,0V51.15m-4,0h8" style="vector-effect: none; stroke-width: 2px; stroke: rgb(226, 126, 80); stroke-opacity: 1;"/></g><g class="errorbar" style="opacity: 1;"><path class="yerror" d="M62.790000000000006,62.1h8m-4,0V70.36m-4,0h8" style="vector-effect: none; stroke-width: 2px; stroke: rgb(226, 126, 80); stroke-opacity: 1;"/></g><g class="errorbar" style="opacity: 1;"><path class="yerror" d="M93.98,32.23h8m-4,0V59.76m-4,0h8" style="vector-effect: none; stroke-width: 2px; stroke: rgb(226, 126, 80); stroke-opacity: 1;"/></g><g class="errorbar" style="opacity: 1;"><path class="yerror" d="M106.21,36.45h8m-4,0V49.47m-4,0h8" style="vector-effect: none; stroke-width: 2px; stroke: rgb(226, 126, 80); stroke-opacity: 1;"/></g><g class="errorbar" style="opacity: 1;"><path class="yerror" d="M137.64,12.67h8m-4,0V26.04m-4,0h8" style="vector-effect: none; stroke-width: 2px; stroke: rgb(226, 126, 80); stroke-opacity: 1;"/></g><g class="errorbar" style="opacity: 1;"><path class="yerror" d="M150.04,46.63h8m-4,0V66.51m-4,0h8" style="vector-effect: none; stroke-width: 2px; stroke: rgb(226, 126, 80); stroke-opacity: 1;"/></g><g class="errorbar" style="opacity: 1;"><path class="yerror" d="M183.13,22.6h8m-4,0V72.97m-4,0h8" style="vector-effect: none; stroke-width: 2px; stroke: rgb(226, 126, 80); stroke-opacity: 1;"/></g></g><g class="lines"><path class="js-line" d="M11.27,50.17L20.6,39.75L54.6,43.93L66.79,66.04L97.98,43.93L110.21,42.49L141.64,18.86L154.04,55.49L187.13,41.1" style="vector-effect: none; fill: none; stroke: rgb(226, 126, 80); stroke-opacity: 1; stroke-dasharray: 5px, 5px; stroke-width: 5px; opacity: 1;"/></g><g class="points"/><g class="text"/></g></g></g><g class="overplot"/><path class="xlines-above crisp" d="M75,242.5H272.98" style="fill: none; stroke-width: 1px; stroke: rgb(0, 0, 0); stroke-opacity: 1;"/><path class="ylines-above crisp" d="M75.5,50V242" style="fill: none; stroke-width: 1px; stroke: rgb(0, 0, 0); stroke-opacity: 1;"/><g class="overlines-above"/><g class="xaxislayer-above"><g class="xtick"><text text-anchor="middle" x="0" y="259.8" transform="translate(149.62,0)" style="font-family: 'Open Sans', verdana, arial, sans-serif; font-size: 14px; fill: rgb(0, 0, 0); fill-opacity: 1; white-space: pre; opacity: 1;">150</text></g><g class="xtick"><text text-anchor="middle" x="0" y="259.8" style="font-family: 'Open Sans', verdana, arial, sans-serif; font-size: 14px; fill: rgb(0, 0, 0); fill-opacity: 1; white-space: pre; opacity: 1;" transform="translate(240.72,0)">200</text></g></g><g class="yaxislayer-above"><g class="ytick"><text text-anchor="end" x="72.2" y="3.675" transform="translate(0,230.71)" style="font-family: 'Open Sans', verdana, arial, sans-serif; font-size: 10.5px; fill: rgb(0, 0, 0); fill-opacity: 1; white-space: pre; opacity: 1;">5</text></g><g class="ytick"><text text-anchor="end" x="72.2" y="4.8999999999999995" style="font-family: 'Open Sans', verdana, arial, sans-serif; font-size: 14px; fill: rgb(0, 0, 0); fill-opacity: 1; white-space: pre; opacity: 1;" transform="translate(0,199.41)">100M</text></g><g class="ytick"><text text-anchor="end" x="72.2" y="3.675" style="font-family: 'Open Sans', verdana, arial, sans-serif; font-size: 10.5px; fill: rgb(0, 0, 0); fill-opacity: 1; white-space: pre; opacity: 1;" transform="translate(0,168.1)">2</text></g><g class="ytick"><text text-anchor="end" x="72.2" y="3.675" style="font-family: 'Open Sans', verdana, arial, sans-serif; font-size: 10.5px; fill: rgb(0, 0, 0); fill-opacity: 1; white-space: pre; opacity: 1;" transform="translate(0,126.71)">5</text></g><g class="ytick"><text text-anchor="end" x="72.2" y="4.8999999999999995" style="font-family: 'Open Sans', verdana, arial, sans-serif; font-size: 14px; fill: rgb(0, 0, 0); fill-opacity: 1; white-space: pre; opacity: 1;" transform="translate(0,95.41)">1B</text></g><g class="ytick"><text text-anchor="end" x="72.2" y="3.675" style="font-family: 'Open Sans', verdana, arial, sans-serif; font-size: 10.5px; fill: rgb(0, 0, 0); fill-opacity: 1; white-space: pre; opacity: 1;" transform="translate(0,64.1)">2</text></g></g><g class="overaxes-above"/></g><g class="subplot x2y2"><g class="layer-subplot"><g class="shapelayer"/><g class="imagelayer"/></g><g class="minor-gridlayer"><g class="x2"/><g class="y2"/></g><g class="gridlayer"><g class="x2"><path class="x2grid crisp" transform="translate(354.64,0)" d="M0,50v192" style="stroke: rgb(0, 0, 0); stroke-opacity: 1; stroke-width: 1px;"/><path class="x2grid crisp" transform="translate(445.74,0)" d="M0,50v192" style="stroke: rgb(0, 0, 0); stroke-opacity: 1; stroke-width: 1px;"/></g><g class="y2"><path class="y2grid crisp" transform="translate(0,230.71)" d="M281.02,0h196.98" style="stroke: rgb(0, 0, 0); stroke-opacity: 1; stroke-width: 1px;"/><path class="y2grid crisp" transform="translate(0,199.41)" d="M281.02,0h196.98" style="stroke: rgb(0, 0, 0); stroke-opacity: 1; stroke-width: 1px;"/><path class="y2grid crisp" transform="translate(0,168.1)" d="M281.02,0h196.98" style="stroke: rgb(0, 0, 0); stroke-opacity: 1; stroke-width: 1px;"/><path class="y2grid crisp" transform="translate(0,126.71)" d="M281.02,0h196.98" style="stroke: rgb(0, 0, 0); stroke-opacity: 1; stroke-width: 1px;"/><path class="y2grid crisp" transform="translate(0,95.41)" d="M281.02,0h196.98" style="stroke: rgb(0, 0, 0); stroke-opacity: 1; stroke-width: 1px;"/><path class="y2grid crisp" transform="translate(0,64.1)" d="M281.02,0h196.98" style="stroke: rgb(0, 0, 0); stroke-opacity: 1; stroke-width: 1px;"/></g></g><g class="zerolinelayer"/><path class="xlines-below"/><path class="ylines-below"/><g class="overlines-below"/><g class="xaxislayer-below"/><g class="yaxislayer-below"/><g class="overaxes-below"/><g class="plot" transform="translate(281.02,50)" clip-path="url(#clipf233bex2y2plot)"><g class="scatterlayer mlayer"><g class="trace scatter tracef13fd1" style="stroke-miterlimit: 2; opacity: 1;"><g class="fills"/><g class="errorbars"><g class="errorbar" style="opacity: 1;"><path class="yerror" d="M7.27,74.3h8m-4,0V78.01m-4,0h8" style="vector-effect: none; stroke-width: 2px; stroke: rgb(136, 114, 205); stroke-opacity: 1;"/></g><g class="errorbar" style="opacity: 1;"><path class="yerror" d="M16.6,80.48h8m-4,0V86.79m-4,0h8" style="vector-effect: none; stroke-width: 2px; stroke: rgb(136, 114, 205); stroke-opacity: 1;"/></g><g class="errorbar" style="opacity: 1;"><path class="yerror" d="M50.6,80.73h8m-4,0V85.04m-4,0h8" style="vector-effect: none; stroke-width: 2px; stroke: rgb(136, 114, 205); stroke-opacity: 1;"/></g><g class="errorbar" style="opacity: 1;"><path class="yerror" d="M62.790000000000006,81.73h8m-4,0V110.01m-4,0h8" style="vector-effect: none; stroke-width: 2px; stroke: rgb(136, 114, 205); stroke-opacity: 1;"/></g><g class="errorbar" style="opacity: 1;"><path class="yerror" d="M93.98,75.66h8m-4,0V84.42m-4,0h8" style="vector-effect: none; stroke-width: 2px; stroke: rgb(136, 114, 205); stroke-opacity: 1;"/></g><g class="errorbar" style="opacity: 1;"><path class="yerror" d="M106.21,91.45h8m-4,0V110.02m-4,0h8" style="vector-effect: none; stroke-width: 2px; stroke: rgb(136, 114, 205); stroke-opacity: 1;"/></g><g class="errorbar" style="opacity: 1;"><path class="yerror" d="M137.64,122.86h8m-4,0V141.17m-4,0h8" style="vector-effect: none; stroke-width: 2px; stroke: rgb(136, 114, 205); stroke-opacity: 1;"/></g><g class="errorbar" style="opacity: 1;"><path class="yerror" d="M150.04,102.56h8m-4,0V134.9m-4,0h8" style="vector-effect: none; stroke-width: 2px; stroke: rgb(136, 114, 205); stroke-opacity: 1;"/></g><g class="errorbar" style="opacity: 1;"><path class="yerror" d="M183.13,106.87h8m-4,0V117.31m-4,0h8" style="vector-effect: none; stroke-width: 2px; stroke: rgb(136, 114, 205); stroke-opacity: 1;"/></g></g><g class="lines"><path class="js-line" d="M11.27,76.12L20.6,83.53L54.6,82.83L66.79,93.69L97.98,79.83L110.21,99.79L141.64,131.09L154.04,115.9L187.13,111.79" style="vector-effect: none; fill: none; stroke: rgb(136, 114, 205); stroke-opacity: 1; stroke-width: 5px; opacity: 1;"/></g><g class="points"/><g class="text"/></g><g class="trace scatter trace2c75dc" style="stroke-miterlimit: 2; opacity: 1;"><g class="fills"/><g class="errorbars"><g class="errorbar" style="opacity: 1;"><path class="yerror" d="M7.27,106.49h8m-4,0V112.17m-4,0h8" style="vector-effect: none; stroke-width: 2px; stroke: rgb(136, 114, 205); stroke-opacity: 1;"/></g><g class="errorbar" style="opacity: 1;"><path class="yerror" d="M16.6,114.08h8m-4,0V120.88m-4,0h8" style="vector-effect: none; stroke-width: 2px; stroke: rgb(136, 114, 205); stroke-opacity: 1;"/></g><g class="errorbar" style="opacity: 1;"><path class="yerror" d="M50.6,98.06h8m-4,0V127.73m-4,0h8" style="vector-effect: none; stroke-width: 2px; stroke: rgb(136, 114, 205); stroke-opacity: 1;"/></g><g class="errorbar" style="opacity: 1;"><path class="yerror" d="M62.790000000000006,150.09h8m-4,0V182.4m-4,0h8" style="vector-effect: none; stroke-width: 2px; stroke: rgb(136, 114, 205); stroke-opacity: 1;"/></g><g class="errorbar" style="opacity: 1;"><path class="yerror" d="M93.98,116.5h8m-4,0V132.28m-4,0h8" style="vector-effect: none; stroke-width: 2px; stroke: rgb(136, 114, 205); stroke-opacity: 1;"/></g><g class="errorbar" style="opacity: 1;"><path class="yerror" d="M106.21,149.41h8m-4,0V159.49m-4,0h8" style="vector-effect: none; stroke-width: 2px; stroke: rgb(136, 114, 205); stroke-opacity: 1;"/></g><g class="errorbar" style="opacity: 1;"><path class="yerror" d="M137.64,133.02h8m-4,0V170.33m-4,0h8" style="vector-effect: none; stroke-width: 2px; stroke: rgb(136, 114, 205); stroke-opacity: 1;"/></g><g class="errorbar" style="opacity: 1;"><path class="yerror" d="M150.04,126.8h8m-4,0V158.54m-4,0h8" style="vector-effect: none; stroke-width: 2px; stroke: rgb(136, 114, 205); stroke-opacity: 1;"/></g><g class="errorbar" style="opacity: 1;"><path class="yerror" d="M183.13,139.46h8m-4,0V176.11m-4,0h8" style="vector-effect: none; stroke-width: 2px; stroke: rgb(136, 114, 205); stroke-opacity: 1;"/></g></g><g class="lines"><path class="js-line" d="M11.27,109.24L20.6,117.35L54.6,110.5L66.79,163.42L97.98,123.7L110.21,154.17L141.64,147.93L154.04,139.93L187.13,154.17" style="vector-effect: none; fill: none; stroke: rgb(136, 114, 205); stroke-opacity: 1; stroke-dasharray: 5px, 5px; stroke-width: 5px; opacity: 1;"/></g><g class="points"/><g class="text"/></g><g class="trace scatter trace47c5d5" style="stroke-miterlimit: 2; opacity: 1;"><g class="fills"/><g class="errorbars"><g class="errorbar" style="opacity: 1;"><path class="yerror" d="M5.85,17.72h8m-4,0V44.78m-4,0h8" style="vector-effect: none; stroke-width: 2px; stroke: rgb(226, 126, 80); stroke-opacity: 1;"/></g><g class="errorbar" style="opacity: 1;"><path class="yerror" d="M14.96,22.41h8m-4,0V39.65m-4,0h8" style="vector-effect: none; stroke-width: 2px; stroke: rgb(226, 126, 80); stroke-opacity: 1;"/></g></g><g class="lines"><path class="js-line" d="M9.85,29.25L18.96,30.21" style="vector-effect: none; fill: none; stroke: rgb(226, 126, 80); stroke-opacity: 1; stroke-width: 5px; opacity: 1;"/></g><g class="points"/><g class="text"/></g><g class="trace scatter tracedb27be" style="stroke-miterlimit: 2; opacity: 1;"><g class="fills"/><g class="errorbars"><g class="errorbar" style="opacity: 1;"><path class="yerror" d="M7.27,9.6h8m-4,0V48.99m-4,0h8" style="vector-effect: none; stroke-width: 2px; stroke: rgb(226, 126, 80); stroke-opacity: 1;"/></g><g class="errorbar" style="opacity: 1;"><path class="yerror" d="M16.6,32.89h8m-4,0V44.78m-4,0h8" style="vector-effect: none; stroke-width: 2px; stroke: rgb(226, 126, 80); stroke-opacity: 1;"/></g><g class="errorbar" style="opacity: 1;"><path class="yerror" d="M50.6,30.79h8m-4,0V39.05m-4,0h8" style="vector-effect: none; stroke-width: 2px; stroke: rgb(226, 126, 80); stroke-opacity: 1;"/></g><g class="errorbar" style="opacity: 1;"><path class="yerror" d="M62.790000000000006,59.97h8m-4,0V67.81m-4,0h8" style="vector-effect: none; stroke-width: 2px; stroke: rgb(226, 126, 80); stroke-opacity: 1;"/></g><g class="errorbar" style="opacity: 1;"><path class="yerror" d="M93.98,27.86h8m-4,0V42.84m-4,0h8" style="vector-effect: none; stroke-width: 2px; stroke: rgb(226, 126, 80); stroke-opacity: 1;"/></g><g class="errorbar" style="opacity: 1;"><path class="yerror" d="M106.21,46.63h8m-4,0V66.51m-4,0h8" style="vector-effect: none; stroke-width: 2px; stroke: rgb(226, 126, 80); stroke-opacity: 1;"/></g><g class="errorbar" style="opacity: 1;"><path class="yerror" d="M137.64,27.56h8m-4,0V56.51m-4,0h8" style="vector-effect: none; stroke-width: 2px; stroke: rgb(226, 126, 80); stroke-opacity: 1;"/></g><g class="errorbar" style="opacity: 1;"><path class="yerror" d="M150.04,17.51h8m-4,0V36.73m-4,0h8" style="vector-effect: none; stroke-width: 2px; stroke: rgb(226, 126, 80); stroke-opacity: 1;"/></g><g class="errorbar" style="opacity: 1;"><path class="yerror" d="M183.13,29.36h8m-4,0V82.48m-4,0h8" style="vector-effect: none; stroke-width: 2px; stroke: rgb(226, 126, 80); stroke-opacity: 1;"/></g></g><g class="lines"><path class="js-line" d="M11.27,25.13L20.6,38.45L54.6,34.73L66.79,63.72L97.98,34.73L110.21,55.49L141.64,39.75L154.04,26.1L187.13,48.52" style="vector-effect: none; fill: none; stroke: rgb(226, 126, 80); stroke-opacity: 1; stroke-dasharray: 5px, 5px; stroke-width: 5px; opacity: 1;"/></g><g class="points"/><g class="text"/></g></g></g><g class="overplot"/><path class="xlines-above crisp" d="M280.02,242.5H478" style="fill: none; stroke-width: 1px; stroke: rgb(0, 0, 0); stroke-opacity: 1;"/><path class="ylines-above crisp" d="M280.52,50V242" style="fill: none; stroke-width: 1px; stroke: rgb(0, 0, 0); stroke-opacity: 1;"/><g class="overlines-above"/><g class="xaxislayer-above"><g class="x2tick"><text text-anchor="middle" x="0" y="259.8" transform="translate(354.64,0)" style="font-family: 'Open Sans', verdana, arial, sans-serif; font-size: 14px; fill: rgb(0, 0, 0); fill-opacity: 1; white-space: pre; opacity: 1;">150</text></g><g class="x2tick"><text text-anchor="middle" x="0" y="259.8" style="font-family: 'Open Sans', verdana, arial, sans-serif; font-size: 14px; fill: rgb(0, 0, 0); fill-opacity: 1; white-space: pre; opacity: 1;" transform="translate(445.74,0)">200</text></g></g><g class="yaxislayer-above"/><g class="overaxes-above"/></g></g><g class="polarlayer"/><g class="smithlayer"/><g class="ternarylayer"/><g class="geolayer"/><g class="funnelarealayer"/><g class="pielayer"/><g class="iciclelayer"/><g class="treemaplayer"/><g class="sunburstlayer"/><g class="glimages"/><defs id="topdefs-f233be"><g class="clips"/><clipPath id="legendf233be"><rect width="104" height="95" x="0" y="0"/></clipPath></defs><g class="layer-above"><g class="imagelayer"/><g class="shapelayer"/></g><g class="infolayer"><g class="legend" pointer-events="all" transform="translate(486.04,50)"><rect class="bg" shape-rendering="crispEdges" style="stroke: rgb(68, 68, 68); stroke-opacity: 1; fill: rgb(153, 153, 153); fill-opacity: 1; stroke-width: 0px;" width="104" height="95" x="0" y="0"/><g class="scrollbox" transform="" clip-path="url(#legendf233be)"><g class="groups" transform=""><g class="traces" transform="translate(0,15.6)" style="opacity: 1;"><text class="legendtext" text-anchor="start" x="40" y="5.46" style="font-family: 'Open Sans', verdana, arial, sans-serif; font-size: 14px; fill: rgb(0, 0, 0); fill-opacity: 1; white-space: pre;">ct, mono</text><g class="layers" style="opacity: 1;"><g class="legendfill"/><g class="legendlines"><path class="js-line" d="M5,0h30" style="fill: none; stroke: rgb(136, 114, 205); stroke-opacity: 1; stroke-width: 5px;"/></g><g class="legendsymbols"><g class="legendpoints"/></g></g><rect class="legendtoggle" x="0" y="-10.6" width="98.59375" height="21.2" style="fill: rgb(0, 0, 0); fill-opacity: 0;"/></g></g><g class="groups" transform=""><g class="traces" transform="translate(0,36.8)" style="opacity: 1;"><text class="legendtext" text-anchor="start" x="40" y="5.46" style="font-family: 'Open Sans', verdana, arial, sans-serif; font-size: 14px; fill: rgb(0, 0, 0); fill-opacity: 1; white-space: pre;">ct, co</text><g class="layers" style="opacity: 1;"><g class="legendfill"/><g class="legendlines"><path class="js-line" d="M5,0h30" style="fill: none; stroke: rgb(136, 114, 205); stroke-opacity: 1; stroke-dasharray: 5px, 5px; stroke-width: 5px;"/></g><g class="legendsymbols"><g class="legendpoints"/></g></g><rect class="legendtoggle" x="0" y="-10.6" width="98.59375" height="21.2" style="fill: rgb(0, 0, 0); fill-opacity: 0;"/></g></g><g class="groups" transform=""><g class="traces" transform="translate(0,58)" style="opacity: 1;"><text class="legendtext" text-anchor="start" x="40" y="5.46" style="font-family: 'Open Sans', verdana, arial, sans-serif; font-size: 14px; fill: rgb(0, 0, 0); fill-opacity: 1; white-space: pre;">oa, mono</text><g class="layers" style="opacity: 1;"><g class="legendfill"/><g class="legendlines"><path class="js-line" d="M5,0h30" style="fill: none; stroke: rgb(226, 126, 80); stroke-opacity: 1; stroke-width: 5px;"/></g><g class="legendsymbols"><g class="legendpoints"/></g></g><rect class="legendtoggle" x="0" y="-10.6" width="98.59375" height="21.2" style="fill: rgb(0, 0, 0); fill-opacity: 0;"/></g></g><g class="groups" transform=""><g class="traces" transform="translate(0,79.19999999999999)" style="opacity: 1;"><text class="legendtext" text-anchor="start" x="40" y="5.46" style="font-family: 'Open Sans', verdana, arial, sans-serif; font-size: 14px; fill: rgb(0, 0, 0); fill-opacity: 1; white-space: pre;">oa, co</text><g class="layers" style="opacity: 1;"><g class="legendfill"/><g class="legendlines"><path class="js-line" d="M5,0h30" style="fill: none; stroke: rgb(226, 126, 80); stroke-opacity: 1; stroke-dasharray: 5px, 5px; stroke-width: 5px;"/></g><g class="legendsymbols"><g class="legendpoints"/></g></g><rect class="legendtoggle" x="0" y="-10.6" width="98.59375" height="21.2" style="fill: rgb(0, 0, 0); fill-opacity: 0;"/></g></g></g><rect class="scrollbar" rx="20" ry="3" width="0" height="0" style="fill: rgb(128, 139, 164); fill-opacity: 1;" x="0" y="0"/></g><g class="g-gtitle"/><g class="g-xtitle"><text class="xtitle" x="174.49" y="289.2125" text-anchor="middle" style="font-family: 'Open Sans', verdana, arial, sans-serif; font-size: 17px; fill: rgb(0, 0, 0); opacity: 1; font-weight: normal; white-space: pre;">time [h]</text></g><g class="g-x2title"/><g class="g-ytitle" transform="translate(4.228515625,0)"><text class="ytitle" transform="rotate(-90,10.771874999999994,146)" x="10.771874999999994" y="146" text-anchor="middle" style="font-family: 'Open Sans', verdana, arial, sans-serif; font-size: 17px; fill: rgb(0, 0, 0); opacity: 1; font-weight: normal; white-space: pre;">CFUs/mL</text></g><g class="g-y2title"/><g class="annotation" data-index="0" style="opacity: 1;"><g class="annotation-text-g" transform="rotate(0,174.49,40)"><g class="cursor-pointer" transform="translate(118,30)"><rect class="bg" x="0.5" y="0.5" width="111" height="19" style="stroke-width: 1px; stroke: rgb(0, 0, 0); stroke-opacity: 0; fill: rgb(0, 0, 0); fill-opacity: 0;"/><text class="annotation-text" text-anchor="middle" x="55.890625" y="15" style="font-family: 'Open Sans', verdana, arial, sans-serif; font-size: 14px; fill: rgb(0, 0, 0); fill-opacity: 1; white-space: pre;">media=Citric acid</text></g></g></g><g class="annotation" data-index="1" style="opacity: 1;"><g class="annotation-text-g" transform="rotate(0,379.51,39.99999999999999)"><g class="cursor-pointer" transform="translate(287,30)"><rect class="bg" x="0.5" y="0.5" width="185" height="19" style="stroke-width: 1px; stroke: rgb(0, 0, 0); stroke-opacity: 0; fill: rgb(0, 0, 0); fill-opacity: 0;"/><text class="annotation-text" text-anchor="middle" x="92.65625" y="15" style="font-family: 'Open Sans', verdana, arial, sans-serif; font-size: 14px; fill: rgb(0, 0, 0); fill-opacity: 1; white-space: pre;">media=Citric acid + Thiamine</text></g></g></g></g></svg>