<svg class="main-svg" xmlns="http://www.w3.org/2000/svg" xmlns:xlink="http://www.w3.org/1999/xlink" width="600" height="300" style="" viewBox="0 0 600 300"><rect x="0" y="0" width="600" height="300" style="fill: rgb(153, 153, 153); fill-opacity: 1;"/><defs id="defs-b9dab4"><g class="clips"><clipPath id="clipb9dab4xyplot" class="plotclip"><rect width="199.43" height="192"/></clipPath><clipPath id="clipb9dab4x2y2plot" class="plotclip"><rect width="199.43" height="192"/></clipPath><clipPath class="axesclip" id="clipb9dab4x"><rect x="76" y="0" width="199.43" height="300"/></clipPath><clipPath class="axesclip" id="clipb9dab4y"><rect x="0" y="50" width="600" height="192"/></clipPath><clipPath class="axesclip" id="clipb9dab4xy"><rect x="76" y="50" width="199.43" height="192"/></clipPath><clipPath class="axesclip" id="clipb9dab4y2"><rect x="0" y="50" width="600" height="192"/></clipPath><clipPath class="axesclip" id="clipb9dab4xy2"><rect x="76" y="50" width="199.43" height="192"/></clipPath><clipPath class="axesclip" id="clipb9dab4x2"><rect x="283.57" y="0" width="199.43" height="300"/></clipPath><clipPath class="axesclip" id="clipb9dab4x2y"><rect x="283.57" y="50" width="199.43" height="192"/></clipPath><clipPath class="axesclip" id="clipb9dab4x2y2"><rect x="283.57" y="50" width="199.43" height="192"/></clipPath></g><g class="gradients"/><g class="patterns"/></defs><g class="bglayer"/><g class="layer-below"><g class="imagelayer"/><g class="shapelayer"/></g><g class="cartesianlayer"><g class="subplot xy"><g class="layer-subplot"><g class="shapelayer"/><g class="imagelayer"/></g><g class="minor-gridlayer"><g class="x"/><g class="y"/></g><g class="gridlayer"><g class="x"><path class="xgrid crisp" transform="translate(100.4,0)" d="M0,50v192" style="stroke: rgb(0, 0, 0); stroke-opacity: 1; stroke-width: 1px;"/><path class="xgrid crisp" transform="translate(163.69,0)" d="M0,50v192" style="stroke: rgb(0, 0, 0); stroke-opacity: 1; stroke-width: 1px;"/><path class="xgrid crisp" transform="translate(226.98,0)" d="M0,50v192" style="stroke: rgb(0, 0, 0); stroke-opacity: 1; stroke-width: 1px;"/></g><g class="y"><path class="ygrid crisp" transform="translate(0,236.68)" d="M76,0h199.43" style="stroke: rgb(0, 0, 0); stroke-opacity: 1; stroke-width: 1px;"/><path class="ygrid crisp" transform="translate(0,209.92)" d="M76,0h199.43" style="stroke: rgb(0, 0, 0); stroke-opacity: 1; stroke-width: 1px;"/><path class="ygrid crisp" transform="translate(0,183.16)" d="M76,0h199.43" style="stroke: rgb(0, 0, 0); stroke-opacity: 1; stroke-width: 1px;"/><path class="ygrid crisp" transform="translate(0,147.79000000000002)" d="M76,0h199.43" style="stroke: rgb(0, 0, 0); stroke-opacity: 1; stroke-width: 1px;"/><path class="ygrid crisp" transform="translate(0,121.03)" d="M76,0h199.43" style="stroke: rgb(0, 0, 0); stroke-opacity: 1; stroke-width: 1px;"/><path class="ygrid crisp" transform="translate(0,94.28)" d="M76,0h199.43" style="stroke: rgb(0, 0, 0); stroke-opacity: 1; stroke-width: 1px;"/><path class="ygrid crisp" transform="translate(0,58.9)" d="M76,0h199.43" style="stroke: rgb(0, 0, 0); stroke-opacity: 1; stroke-width: 1px;"/></g></g><g class="zerolinelayer"/><path class="xlines-below"/><path class="ylines-below"/><g class="overlines-below"/><g class="xaxislayer-below"/><g class="yaxislayer-below"/><g class="overaxes-below"/><g class="plot" transform="translate(76,50)" clip-path="url(#clipb9dab4xyplot)"><g class="scatterlayer mlayer"><g class="trace scatter tracee3180c" style="stroke-miterlimit: 2; opacity: 1;"><g class="fills"/><g class="errorbars"><g class="errorbar" style="opacity: 1;"><path class="yerror" d="M5.970000000000001,25.7h8m-4,0V43.69m-4,0h8" style="vector-effect: none; stroke-width: 2px; stroke: rgb(136, 114, 205); stroke-opacity: 1;"/></g><g class="errorbar" style="opacity: 1;"><path class="yerror" d="M36,43.59h8m-4,0V65.17m-4,0h8" style="vector-effect: none; stroke-width: 2px; stroke: rgb(136, 114, 205); stroke-opacity: 1;"/></g><g class="errorbar" style="opacity: 1;"><path class="yerror" d="M67.8,28.12h8m-4,0V72.58m-4,0h8" style="vector-effect: none; stroke-width: 2px; stroke: rgb(136, 114, 205); stroke-opacity: 1;"/></g><g class="errorbar" style="opacity: 1;"><path class="yerror" d="M100.55,30.51h8m-4,0V49.58m-4,0h8" style="vector-effect: none; stroke-width: 2px; stroke: rgb(136, 114, 205); stroke-opacity: 1;"/></g><g class="errorbar" style="opacity: 1;"><path class="yerror" d="M130.23,51.37h8m-4,0V63.92m-4,0h8" style="vector-effect: none; stroke-width: 2px; stroke: rgb(136, 114, 205); stroke-opacity: 1;"/></g><g class="errorbar" style="opacity: 1;"><path class="yerror" d="M153.66,54.92h8m-4,0V78.91m-4,0h8" style="vector-effect: none; stroke-width: 2px; stroke: rgb(136, 114, 205); stroke-opacity: 1;"/></g><g class="errorbar" style="opacity: 1;"><path class="yerror" d="M185.46,37.38h8m-4,0V39.29m-4,0h8" style="vector-effect: none; stroke-width: 2px; stroke: rgb(136, 114, 205); stroke-opacity: 1;"/></g></g><g class="lines"><path class="js-line" d="M9.97,33.66L40,52.89L71.8,44.28L104.55,38.88L134.23,57.14L157.66,65.08L189.46,38.32" style="vector-effect: none; fill: none; stroke: rgb(136, 114, 205); stroke-opacity: 1; stroke-width: 5px; opacity: 1;"/></g><g class="points"/><g class="text"/></g><g class="trace scatter tracef84670" style="stroke-miterlimit: 2; opacity: 1;"><g class="fills"/><g class="errorbars"><g class="errorbar" style="opacity: 1;"><path class="yerror" d="M5.970000000000001,55.38h8m-4,0V75.1m-4,0h8" style="vector-effect: none; stroke-width: 2px; stroke: rgb(136, 114, 205); stroke-opacity: 1;"/></g><g class="errorbar" style="opacity: 1;"><path class="yerror" d="M36,102.58h8m-4,0V123.28m-4,0h8" style="vector-effect: none; stroke-width: 2px; stroke: rgb(136, 114, 205); stroke-opacity: 1;"/></g><g class="errorbar" style="opacity: 1;"><path class="yerror" d="M67.8,85.58h8m-4,0V108.33m-4,0h8" style="vector-effect: none; stroke-width: 2px; stroke: rgb(136, 114, 205); stroke-opacity: 1;"/></g><g class="errorbar" style="opacity: 1;"><path class="yerror" d="M100.55,48.57h8m-4,0V76.84m-4,0h8" style="vector-effect: none; stroke-width: 2px; stroke: rgb(136, 114, 205); stroke-opacity: 1;"/></g><g class="errorbar" style="opacity: 1;"><path class="yerror" d="M130.23,80.5h8m-4,0V104.76m-4,0h8" style="vector-effect: none; stroke-width: 2px; stroke: rgb(136, 114, 205); stroke-opacity: 1;"/></g><g class="errorbar" style="opacity: 1;"><path class="yerror" d="M153.66,57.64h8m-4,0V75.73m-4,0h8" style="vector-effect: none; stroke-width: 2px; stroke: rgb(136, 114, 205); stroke-opacity: 1;"/></g><g class="errorbar" style="opacity: 1;"><path class="yerror" d="M185.46,49.44h8m-4,0V74.38m-4,0h8" style="vector-effect: none; stroke-width: 2px; stroke: rgb(136, 114, 205); stroke-opacity: 1;"/></g></g><g class="lines"><path class="js-line" d="M9.97,63.99L40,111.56L71.8,95.3L104.55,60.17L134.23,90.75L157.66,65.64L189.46,59.93" style="vector-effect: none; fill: none; stroke: rgb(136, 114, 205); stroke-opacity: 1; stroke-dasharray: 5px, 5px; stroke-width: 5px; opacity: 1;"/></g><g class="points"/><g class="text"/></g><g class="trace scatter trace8e37e6" style="stroke-miterlimit: 2; opacity: 1;"><g class="fills"/><g class="errorbars"><g class="errorbar" style="opacity: 1;"><path class="yerror" d="M5.970000000000001,64.48h8m-4,0V85.83m-4,0h8" style="vector-effect: none; stroke-width: 2px; stroke: rgb(226, 126, 80); stroke-opacity: 1;"/></g><g class="errorbar" style="opacity: 1;"><path class="yerror" d="M36,89.21h8m-4,0V97.11m-4,0h8" style="vector-effect: none; stroke-width: 2px; stroke: rgb(226, 126, 80); stroke-opacity: 1;"/></g><g class="errorbar" style="opacity: 1;"><path class="yerror" d="M67.8,80.32h8m-4,0V99.32m-4,0h8" style="vector-effect: none; stroke-width: 2px; stroke: rgb(226, 126, 80); stroke-opacity: 1;"/></g><g class="errorbar" style="opacity: 1;"><path class="yerror" d="M100.55,114.34h8m-4,0V130.49m-4,0h8" style="vector-effect: none; stroke-width: 2px; stroke: rgb(226, 126, 80); stroke-opacity: 1;"/></g><g class="errorbar" style="opacity: 1;"><path class="yerror" d="M130.23,168.53h8m-4,0V179.64m-4,0h8" style="vector-effect: none; stroke-width: 2px; stroke: rgb(226, 126, 80); stroke-opacity: 1;"/></g><g class="errorbar" style="opacity: 1;"><path class="yerror" d="M153.66,156.89h8m-4,0V163.21m-4,0h8" style="vector-effect: none; stroke-width: 2px; stroke: rgb(226, 126, 80); stroke-opacity: 1;"/></g><g class="errorbar" style="opacity: 1;"><path class="yerror" d="M185.46,166.58h8m-4,0V182.4m-4,0h8" style="vector-effect: none; stroke-width: 2px; stroke: rgb(226, 126, 80); stroke-opacity: 1;"/></g></g><g class="lines"><path class="js-line" d="M9.97,73.7L40,92.96L71.8,88.67L104.55,121.58L134.23,173.69L157.66,159.92L189.46,173.69" style="vector-effect: none; fill: none; stroke: rgb(226, 126, 80); stroke-opacity: 1; stroke-dasharray: 5px, 5px; stroke-width: 5px; opacity: 1;"/></g><g class="points"/><g class="text"/></g></g></g><g class="overplot"/><path class="xlines-above crisp" d="M75,242.5H275.43" style="fill: none; stroke-width: 1px; stroke: rgb(0, 0, 0); stroke-opacity: 1;"/><path class="ylines-above crisp" d="M75.5,50V242" style="fill: none; stroke-width: 1px; stroke: rgb(0, 0, 0); stroke-opacity: 1;"/><g class="overlines-above"/><g class="xaxislayer-above"><g class="xtick"><text text-anchor="middle" x="0" y="259.8" transform="translate(100.4,0)" style="font-family: 'Open Sans', verdana, arial, sans-serif; font-size: 14px; fill: rgb(0, 0, 0); fill-opacity: 1; white-space: pre; opacity: 1;">250</text></g><g class="xtick"><text text-anchor="middle" x="0" y="259.8" style="font-family: 'Open Sans', verdana, arial, sans-serif; font-size: 14px; fill: rgb(0, 0, 0); fill-opacity: 1; white-space: pre; opacity: 1;" transform="translate(163.69,0)">300</text></g><g class="xtick"><text text-anchor="middle" x="0" y="259.8" style="font-family: 'Open Sans', verdana, arial, sans-serif; font-size: 14px; fill: rgb(0, 0, 0); fill-opacity: 1; white-space: pre; opacity: 1;" transform="translate(226.98,0)">350</text></g></g><g class="yaxislayer-above"><g class="ytick"><text text-anchor="end" x="72.2" y="3.675" transform="translate(0,236.68)" style="font-family: 'Open Sans', verdana, arial, sans-serif; font-size: 10.5px; fill: rgb(0, 0, 0); fill-opacity: 1; white-space: pre; opacity: 1;">5</text></g><g class="ytick"><text text-anchor="end" x="72.2" y="4.8999999999999995" style="font-family: 'Open Sans', verdana, arial, sans-serif; font-size: 14px; fill: rgb(0, 0, 0); fill-opacity: 1; white-space: pre; opacity: 1;" transform="translate(0,209.92)">10M</text></g><g class="ytick"><text text-anchor="end" x="72.2" y="3.675" style="font-family: 'Open Sans', verdana, arial, sans-serif; font-size: 10.5px; fill: rgb(0, 0, 0); fill-opacity: 1; white-space: pre; opacity: 1;" transform="translate(0,183.16)">2</text></g><g class="ytick"><text text-anchor="end" x="72.2" y="3.675" style="font-family: 'Open Sans', verdana, arial, sans-serif; font-size: 10.5px; fill: rgb(0, 0, 0); fill-opacity: 1; white-space: pre; opacity: 1;" transform="translate(0,147.79000000000002)">5</text></g><g class="ytick"><text text-anchor="end" x="72.2" y="4.8999999999999995" style="font-family: 'Open Sans', verdana, arial, sans-serif; font-size: 14px; fill: rgb(0, 0, 0); fill-opacity: 1; white-space: pre; opacity: 1;" transform="translate(0,121.03)">100M</text></g><g class="ytick"><text text-anchor="end" x="72.2" y="3.675" style="font-family: 'Open Sans', verdana, arial, sans-serif; font-size: 10.5px; fill: rgb(0, 0, 0); fill-opacity: 1; white-space: pre; opacity: 1;" transform="translate(0,94.28)">2</text></g><g class="ytick"><text text-anchor="end" x="72.2" y="3.675" style="font-family: 'Open Sans', verdana, arial, sans-serif; font-size: 10.5px; fill: rgb(0, 0, 0); fill-opacity: 1; white-space: pre; opacity: 1;" transform="translate(0,58.9)">5</text></g></g><g class="overaxes-above"/></g><g class="subplot x2y2"><g class="layer-subplot"><g class="shapelayer"/><g class="imagelayer"/></g><g class="minor-gridlayer"><g class="x2"/><g class="y2"/></g><g class="gridlayer"><g class="x2"><path class="x2grid crisp" transform="translate(307.96999999999997,0)" d="M0,50v192" style="stroke: rgb(0, 0, 0); stroke-opacity: 1; stroke-width: 1px;"/><path class="x2grid crisp" transform="translate(371.26,0)" d="M0,50v192" style="stroke: rgb(0, 0, 0); stroke-opacity: 1; stroke-width: 1px;"/><path class="x2grid crisp" transform="translate(434.54999999999995,0)" d="M0,50v192" style="stroke: rgb(0, 0, 0); stroke-opacity: 1; stroke-width: 1px;"/></g><g class="y2"><path class="y2grid crisp" transform="translate(0,236.68)" d="M283.57,0h199.43" style="stroke: rgb(0, 0, 0); stroke-opacity: 1; stroke-width: 1px;"/><path class="y2grid crisp" transform="translate(0,209.92)" d="M283.57,0h199.43" style="stroke: rgb(0, 0, 0); stroke-opacity: 1; stroke-width: 1px;"/><path class="y2grid crisp" transform="translate(0,183.16)" d="M283.57,0h199.43" style="stroke: rgb(0, 0, 0); stroke-opacity: 1; stroke-width: 1px;"/><path class="y2grid crisp" transform="translate(0,147.79000000000002)" d="M283.57,0h199.43" style="stroke: rgb(0, 0, 0); stroke-opacity: 1; stroke-width: 1px;"/><path class="y2grid crisp" transform="translate(0,121.03)" d="M283.57,0h199.43" style="stroke: rgb(0, 0, 0); stroke-opacity: 1; stroke-width: 1px;"/><path class="y2grid crisp" transform="translate(0,94.28)" d="M283.57,0h199.43" style="stroke: rgb(0, 0, 0); stroke-opacity: 1; stroke-width: 1px;"/><path class="y2grid crisp" transform="translate(0,58.9)" d="M283.57,0h199.43" style="stroke: rgb(0, 0, 0); stroke-opacity: 1; stroke-width: 1px;"/></g></g><g class="zerolinelayer"/><path class="xlines-below"/><path class="ylines-below"/><g class="overlines-below"/><g class="xaxislayer-below"/><g class="yaxislayer-below"/><g class="overaxes-below"/><g class="plot" transform="translate(283.57,50)" clip-path="url(#clipb9dab4x2y2plot)"><g class="scatterlayer mlayer"><g class="trace scatter trace6b209b" style="stroke-miterlimit: 2; opacity: 1;"><g class="fills"/><g class="errorbars"><g class="errorbar" style="opacity: 1;"><path class="yerror" d="M5.970000000000001,42.07h8m-4,0V70.42m-4,0h8" style="vector-effect: none; stroke-width: 2px; stroke: rgb(136, 114, 205); stroke-opacity: 1;"/></g><g class="errorbar" style="opacity: 1;"><path class="yerror" d="M36,70.5h8m-4,0V78.72m-4,0h8" style="vector-effect: none; stroke-width: 2px; stroke: rgb(136, 114, 205); stroke-opacity: 1;"/></g><g class="errorbar" style="opacity: 1;"><path class="yerror" d="M67.8,57.38h8m-4,0V60.64m-4,0h8" style="vector-effect: none; stroke-width: 2px; stroke: rgb(136, 114, 205); stroke-opacity: 1;"/></g><g class="errorbar" style="opacity: 1;"><path class="yerror" d="M100.55,41.23h8m-4,0V50.49m-4,0h8" style="vector-effect: none; stroke-width: 2px; stroke: rgb(136, 114, 205); stroke-opacity: 1;"/></g><g class="errorbar" style="opacity: 1;"><path class="yerror" d="M130.23,52.89h8m-4,0V63.99m-4,0h8" style="vector-effect: none; stroke-width: 2px; stroke: rgb(136, 114, 205); stroke-opacity: 1;"/></g><g class="errorbar" style="opacity: 1;"><path class="yerror" d="M153.66,44.97h8m-4,0V57.08m-4,0h8" style="vector-effect: none; stroke-width: 2px; stroke: rgb(136, 114, 205); stroke-opacity: 1;"/></g><g class="errorbar" style="opacity: 1;"><path class="yerror" d="M185.46,27.1h8m-4,0V51.03m-4,0h8" style="vector-effect: none; stroke-width: 2px; stroke: rgb(136, 114, 205); stroke-opacity: 1;"/></g></g><g class="lines"><path class="js-line" d="M9.97,53.7L40,74.39L71.8,58.97L104.55,45.58L134.23,58.04L157.66,50.55L189.46,37.24" style="vector-effect: none; fill: none; stroke: rgb(136, 114, 205); stroke-opacity: 1; stroke-width: 5px; opacity: 1;"/></g><g class="points"/><g class="text"/></g><g class="trace scatter tracecca051" style="stroke-miterlimit: 2; opacity: 1;"><g class="fills"/><g class="errorbars"><g class="errorbar" style="opacity: 1;"><path class="yerror" d="M5.970000000000001,78.99h8m-4,0V83.03m-4,0h8" style="vector-effect: none; stroke-width: 2px; stroke: rgb(136, 114, 205); stroke-opacity: 1;"/></g><g class="errorbar" style="opacity: 1;"><path class="yerror" d="M36,56.3h8m-4,0V73.61m-4,0h8" style="vector-effect: none; stroke-width: 2px; stroke: rgb(136, 114, 205); stroke-opacity: 1;"/></g><g class="errorbar" style="opacity: 1;"><path class="yerror" d="M67.8,56.3h8m-4,0V73.61m-4,0h8" style="vector-effect: none; stroke-width: 2px; stroke: rgb(136, 114, 205); stroke-opacity: 1;"/></g><g class="errorbar" style="opacity: 1;"><path class="yerror" d="M100.55,59.45h8m-4,0V65.64m-4,0h8" style="vector-effect: none; stroke-width: 2px; stroke: rgb(136, 114, 205); stroke-opacity: 1;"/></g><g class="errorbar" style="opacity: 1;"><path class="yerror" d="M130.23,56.55h8m-4,0V79.91m-4,0h8" style="vector-effect: none; stroke-width: 2px; stroke: rgb(136, 114, 205); stroke-opacity: 1;"/></g><g class="errorbar" style="opacity: 1;"><path class="yerror" d="M153.66,44.17h8m-4,0V59.6m-4,0h8" style="vector-effect: none; stroke-width: 2px; stroke: rgb(136, 114, 205); stroke-opacity: 1;"/></g><g class="errorbar" style="opacity: 1;"><path class="yerror" d="M185.46,30.89h8m-4,0V48.97m-4,0h8" style="vector-effect: none; stroke-width: 2px; stroke: rgb(136, 114, 205); stroke-opacity: 1;"/></g></g><g class="lines"><path class="js-line" d="M9.97,80.96L40,63.99L71.8,63.99L104.55,62.42L134.23,66.49L157.66,51.12L189.46,38.88" style="vector-effect: none; fill: none; stroke: rgb(136, 114, 205); stroke-opacity: 1; stroke-dasharray: 5px, 5px; stroke-width: 5px; opacity: 1;"/></g><g class="points"/><g class="text"/></g><g class="trace scatter trace8b02be" style="stroke-miterlimit: 2; opacity: 1;"><g class="fills"/><g class="errorbars"><g class="errorbar" style="opacity: 1;"><path class="yerror" d="M5.970000000000001,12.97h8m-4,0V20.53m-4,0h8" style="vector-effect: none; stroke-width: 2px; stroke: rgb(226, 126, 80); stroke-opacity: 1;"/></g><g class="errorbar" style="opacity: 1;"><path class="yerror" d="M36,9.6h8m-4,0V19.95m-4,0h8" style="vector-effect: none; stroke-width: 2px; stroke: rgb(226, 126, 80); stroke-opacity: 1;"/></g><g class="errorbar" style="opacity: 1;"><path class="yerror" d="M67.8,34.39h8m-4,0V61.42m-4,0h8" style="vector-effect: none; stroke-width: 2px; stroke: rgb(226, 126, 80); stroke-opacity: 1;"/></g><g class="errorbar" style="opacity: 1;"><path class="yerror" d="M100.55,77.49h8m-4,0V82.28m-4,0h8" style="vector-effect: none; stroke-width: 2px; stroke: rgb(226, 126, 80); stroke-opacity: 1;"/></g><g class="errorbar" style="opacity: 1;"><path class="yerror" d="M130.23,124.55h8m-4,0V131.28m-4,0h8" style="vector-effect: none; stroke-width: 2px; stroke: rgb(226, 126, 80); stroke-opacity: 1;"/></g><g class="errorbar" style="opacity: 1;"><path class="yerror" d="M153.66,146.25h8m-4,0V155.37m-4,0h8" style="vector-effect: none; stroke-width: 2px; stroke: rgb(226, 126, 80); stroke-opacity: 1;"/></g><g class="errorbar" style="opacity: 1;"><path class="yerror" d="M185.46,136.12h8m-4,0V174.77m-4,0h8" style="vector-effect: none; stroke-width: 2px; stroke: rgb(226, 126, 80); stroke-opacity: 1;"/></g></g><g class="lines"><path class="js-line" d="M9.97,16.56L40,14.43L71.8,45.58L104.55,79.81L134.23,127.77L157.66,150.54L189.46,150.79" style="vector-effect: none; fill: none; stroke: rgb(226, 126, 80); stroke-opacity: 1; stroke-dasharray: 5px, 5px; stroke-width: 5px; opacity: 1;"/></g><g class="points"/><g class="text"/></g></g></g><g class="overplot"/><path class="xlines-above crisp" d="M282.57,242.5H483" style="fill: none; stroke-width: 1px; stroke: rgb(0, 0, 0); stroke-opacity: 1;"/><path class="ylines-above crisp" d="M283.07,50V242" style="fill: none; stroke-width: 1px; stroke: rgb(0, 0, 0); stroke-opacity: 1;"/><g class="overlines-above"/><g class="xaxislayer-above"><g class="x2tick"><text text-anchor="middle" x="0" y="259.8" transform="translate(307.96999999999997,0)" style="font-family: 'Open Sans', verdana, arial, sans-serif; font-size: 14px; fill: rgb(0, 0, 0); fill-opacity: 1; white-space: pre; opacity: 1;">250</text></g><g class="x2tick"><text text-anchor="middle" x="0" y="259.8" style="font-family: 'Open Sans', verdana, arial, sans-serif; font-size: 14px; fill: rgb(0, 0, 0); fill-opacity: 1; white-space: pre; opacity: 1;" transform="translate(371.26,0)">300</text></g><g class="x2tick"><text text-anchor="middle" x="0" y="259.8" style="font-family: 'Open Sans', verdana, arial, sans-serif; font-size: 14px; fill: rgb(0, 0, 0); fill-opacity: 1; white-space: pre; opacity: 1;" transform="translate(434.54999999999995,0)">350</text></g></g><g class="yaxislayer-above"/><g class="overaxes-above"/></g></g><g class="polarlayer"/><g class="smithlayer"/><g class="ternarylayer"/><g class="geolayer"/><g class="funnelarealayer"/><g class="pielayer"/><g class="iciclelayer"/><g class="treemaplayer"/><g class="sunburstlayer"/><g class="glimages"/><defs id="topdefs-b9dab4"><g class="clips"/><clipPath id="legendb9dab4"><rect width="99" height="74" x="0" y="0"/></clipPath></defs><g class="layer-above"><g class="imagelayer"/><g class="shapelayer"/></g><g class="infolayer"><g class="legend" pointer-events="all" transform="translate(491.14,50)"><rect class="bg" shape-rendering="crispEdges" width="99" height="74" x="0" y="0" style="stroke: rgb(68, 68, 68); stroke-opacity: 1; fill: rgb(153, 153, 153); fill-opacity: 1; stroke-width: 0px;"/><g class="scrollbox" transform="" clip-path="url(#legendb9dab4)"><g class="groups" transform=""><g class="traces" transform="translate(0,15.6)" style="opacity: 1;"><text class="legendtext" text-anchor="start" x="40" y="5.46" style="font-family: 'Open Sans', verdana, arial, sans-serif; font-size: 14px; fill: rgb(0, 0, 0); fill-opacity: 1; white-space: pre;">ct, mono</text><g class="layers" style="opacity: 1;"><g class="legendfill"/><g class="legendlines"><path class="js-line" d="M5,0h30" style="fill: none; stroke: rgb(136, 114, 205); stroke-opacity: 1; stroke-width: 5px;"/></g><g class="legendsymbols"><g class="legendpoints"/></g></g><rect class="legendtoggle" x="0" y="-10.6" width="93.90625" height="21.2" style="fill: rgb(0, 0, 0); fill-opacity: 0;"/></g></g><g class="groups" transform=""><g class="traces" transform="translate(0,36.8)" style="opacity: 1;"><text class="legendtext" text-anchor="start" x="40" y="5.46" style="font-family: 'Open Sans', verdana, arial, sans-serif; font-size: 14px; fill: rgb(0, 0, 0); fill-opacity: 1; white-space: pre;">ct, co</text><g class="layers" style="opacity: 1;"><g class="legendfill"/><g class="legendlines"><path class="js-line" d="M5,0h30" style="fill: none; stroke: rgb(136, 114, 205); stroke-opacity: 1; stroke-dasharray: 5px, 5px; stroke-width: 5px;"/></g><g class="legendsymbols"><g class="legendpoints"/></g></g><rect class="legendtoggle" x="0" y="-10.6" width="93.90625" height="21.2" style="fill: rgb(0, 0, 0); fill-opacity: 0;"/></g></g><g class="groups" transform=""><g class="traces" transform="translate(0,58)" style="opacity: 1;"><text class="legendtext" text-anchor="start" x="40" y="5.46" style="font-family: 'Open Sans', verdana, arial, sans-serif; font-size: 14px; fill: rgb(0, 0, 0); fill-opacity: 1; white-space: pre;">oa, co</text><g class="layers" style="opacity: 1;"><g class="legendfill"/><g class="legendlines"><path class="js-line" d="M5,0h30" style="fill: none; stroke: rgb(226, 126, 80); stroke-opacity: 1; stroke-dasharray: 5px, 5px; stroke-width: 5px;"/></g><g class="legendsymbols"><g class="legendpoints"/></g></g><rect class="legendtoggle" x="0" y="-10.6" width="93.90625" height="21.2" style="fill: rgb(0, 0, 0); fill-opacity: 0;"/></g></g></g><rect class="scrollbar" rx="20" ry="3" width="0" height="0" x="0" y="0" style="fill: rgb(128, 139, 164); fill-opacity: 1;"/></g><g class="g-gtitle"/><g class="g-xtitle"><text class="xtitle" x="175.715" y="289.2125" text-anchor="middle" style="font-family: 'Open Sans', verdana, arial, sans-serif; font-size: 17px; fill: rgb(0, 0, 0); opacity: 1; font-weight: normal; white-space: pre;">time [h]</text></g><g class="g-x2title"/><g class="g-ytitle" transform="translate(4.228515625,0)"><text class="ytitle" transform="rotate(-90,10.771874999999994,146)" x="10.771874999999994" y="146" text-anchor="middle" style="font-family: 'Open Sans', verdana, arial, sans-serif; font-size: 17px; fill: rgb(0, 0, 0); opacity: 1; font-weight: normal; white-space: pre;">CFUs/mL</text></g><g class="g-y2title"/><g class="annotation" data-index="0" style="opacity: 1;"><g class="annotation-text-g" transform="rotate(0,175.715,40)"><g class="cursor-pointer" transform="translate(120,30)"><rect class="bg" x="0.5" y="0.5" width="111" height="19" style="stroke-width: 1px; stroke: rgb(0, 0, 0); stroke-opacity: 0; fill: rgb(0, 0, 0); fill-opacity: 0;"/><text class="annotation-text" text-anchor="middle" x="55.890625" y="15" style="font-family: 'Open Sans', verdana, arial, sans-serif; font-size: 14px; fill: rgb(0, 0, 0); fill-opacity: 1; white-space: pre;">media=Citric acid</text></g></g></g><g class="annotation" data-index="1" style="opacity: 1;"><g class="annotation-text-g" transform="rotate(0,383.285,39.99999999999999)"><g class="cursor-pointer" transform="translate(290,30)"><rect class="bg" x="0.5" y="0.5" width="185" height="19" style="stroke-width: 1px; stroke: rgb(0, 0, 0); stroke-opacity: 0; fill: rgb(0, 0, 0); fill-opacity: 0;"/><text class="annotation-text" text-anchor="middle" x="92.65625" y="15" style="font-family: 'Open Sans', verdana, arial, sans-serif; font-size: 14px; fill: rgb(0, 0, 0); fill-opacity: 1; white-space: pre;">media=Citric acid + Thiamine</text></g></g></g></g></svg>