<svg class="main-svg" xmlns="http://www.w3.org/2000/svg" xmlns:xlink="http://www.w3.org/1999/xlink" width="600" height="300" style="" viewBox="0 0 600 300"><rect x="0" y="0" width="600" height="300" style="fill: rgb(153, 153, 153); fill-opacity: 1;"/><defs id="defs-aac908"><g class="clips"><clipPath id="clipaac908xyplot" class="plotclip"><rect width="196.98" height="192"/></clipPath><clipPath id="clipaac908x2y2plot" class="plotclip"><rect width="196.98" height="192"/></clipPath><clipPath class="axesclip" id="clipaac908x"><rect x="76" y="0" width="196.98" height="300"/></clipPath><clipPath class="axesclip" id="clipaac908y"><rect x="0" y="50" width="600" height="192"/></clipPath><clipPath class="axesclip" id="clipaac908xy"><rect x="76" y="50" width="196.98" height="192"/></clipPath><clipPath class="axesclip" id="clipaac908y2"><rect x="0" y="50" width="600" height="192"/></clipPath><clipPath class="axesclip" id="clipaac908xy2"><rect x="76" y="50" width="196.98" height="192"/></clipPath><clipPath class="axesclip" id="clipaac908x2"><rect x="281.02" y="0" width="196.98" height="300"/></clipPath><clipPath class="axesclip" id="clipaac908x2y"><rect x="281.02" y="50" width="196.98" height="192"/></clipPath><clipPath class="axesclip" id="clipaac908x2y2"><rect x="281.02" y="50" width="196.98" height="192"/></clipPath></g><g class="gradients"/><g class="patterns"/></defs><g class="bglayer"/><g class="layer-below"><g class="imagelayer"/><g class="shapelayer"/></g><g class="cartesianlayer"><g class="subplot xy"><g class="layer-subplot"><g class="shapelayer"/><g class="imagelayer"/></g><g class="minor-gridlayer"><g class="x"/><g class="y"/></g><g class="gridlayer"><g class="x"><path class="xgrid crisp" transform="translate(115.75,0)" d="M0,50v192" style="stroke: rgb(0, 0, 0); stroke-opacity: 1; stroke-width: 1px;"/><path class="xgrid crisp" transform="translate(186.1,0)" d="M0,50v192" style="stroke: rgb(0, 0, 0); stroke-opacity: 1; stroke-width: 1px;"/><path class="xgrid crisp" transform="translate(256.45,0)" d="M0,50v192" style="stroke: rgb(0, 0, 0); stroke-opacity: 1; stroke-width: 1px;"/></g><g class="y"><path class="ygrid crisp" transform="translate(0,223.45)" d="M76,0h196.98" style="stroke: rgb(0, 0, 0); stroke-opacity: 1; stroke-width: 1px;"/><path class="ygrid crisp" transform="translate(0,204.81)" d="M76,0h196.98" style="stroke: rgb(0, 0, 0); stroke-opacity: 1; stroke-width: 1px;"/><path class="ygrid crisp" transform="translate(0,186.16)" d="M76,0h196.98" style="stroke: rgb(0, 0, 0); stroke-opacity: 1; stroke-width: 1px;"/><path class="ygrid crisp" transform="translate(0,161.51)" d="M76,0h196.98" style="stroke: rgb(0, 0, 0); stroke-opacity: 1; stroke-width: 1px;"/><path class="ygrid crisp" transform="translate(0,142.87)" d="M76,0h196.98" style="stroke: rgb(0, 0, 0); stroke-opacity: 1; stroke-width: 1px;"/><path class="ygrid crisp" transform="translate(0,124.22)" d="M76,0h196.98" style="stroke: rgb(0, 0, 0); stroke-opacity: 1; stroke-width: 1px;"/><path class="ygrid crisp" transform="translate(0,99.57)" d="M76,0h196.98" style="stroke: rgb(0, 0, 0); stroke-opacity: 1; stroke-width: 1px;"/><path class="ygrid crisp" transform="translate(0,80.93)" d="M76,0h196.98" style="stroke: rgb(0, 0, 0); stroke-opacity: 1; stroke-width: 1px;"/><path class="ygrid crisp" transform="translate(0,62.28)" d="M76,0h196.98" style="stroke: rgb(0, 0, 0); stroke-opacity: 1; stroke-width: 1px;"/></g></g><g class="zerolinelayer"/><path class="xlines-below"/><path class="ylines-below"/><g class="overlines-below"/><g class="xaxislayer-below"/><g class="yaxislayer-below"/><g class="overaxes-below"/><g class="plot" transform="translate(76,50)" clip-path="url(#clipaac908xyplot)"><g class="scatterlayer mlayer"><g class="trace scatter trace6c177b" style="stroke-miterlimit: 2; opacity: 1;"><g class="fills"/><g class="errorbars"><g class="errorbar" style="opacity: 1;"><path class="yerror" d="M6.119999999999999,47.99h8m-4,0V54.49m-4,0h8" style="vector-effect: none; stroke-width: 2px; stroke: rgb(136, 114, 205); stroke-opacity: 1;"/></g><g class="errorbar" style="opacity: 1;"><path class="yerror" d="M7.92,49.56h8m-4,0V57.44m-4,0h8" style="vector-effect: none; stroke-width: 2px; stroke: rgb(136, 114, 205); stroke-opacity: 1;"/></g><g class="errorbar" style="opacity: 1;"><path class="yerror" d="M14.489999999999998,26.34h8m-4,0V34.35m-4,0h8" style="vector-effect: none; stroke-width: 2px; stroke: rgb(136, 114, 205); stroke-opacity: 1;"/></g><g class="errorbar" style="opacity: 1;"><path class="yerror" d="M16.84,50.87h8m-4,0V54.04m-4,0h8" style="vector-effect: none; stroke-width: 2px; stroke: rgb(136, 114, 205); stroke-opacity: 1;"/></g><g class="errorbar" style="opacity: 1;"><path class="yerror" d="M22.86,34.75h8m-4,0V40.3m-4,0h8" style="vector-effect: none; stroke-width: 2px; stroke: rgb(136, 114, 205); stroke-opacity: 1;"/></g><g class="errorbar" style="opacity: 1;"><path class="yerror" d="M25.22,59.36h8m-4,0V62.79m-4,0h8" style="vector-effect: none; stroke-width: 2px; stroke: rgb(136, 114, 205); stroke-opacity: 1;"/></g><g class="errorbar" style="opacity: 1;"><path class="yerror" d="M31.29,49.82h8m-4,0V63.49m-4,0h8" style="vector-effect: none; stroke-width: 2px; stroke: rgb(136, 114, 205); stroke-opacity: 1;"/></g><g class="errorbar" style="opacity: 1;"><path class="yerror" d="M33.69,45.92h8m-4,0V59.37m-4,0h8" style="vector-effect: none; stroke-width: 2px; stroke: rgb(136, 114, 205); stroke-opacity: 1;"/></g><g class="errorbar" style="opacity: 1;"><path class="yerror" d="M40.07,62.04h8m-4,0V69.45m-4,0h8" style="vector-effect: none; stroke-width: 2px; stroke: rgb(136, 114, 205); stroke-opacity: 1;"/></g><g class="errorbar" style="opacity: 1;"><path class="yerror" d="M49.33,61.28h8m-4,0V73.81m-4,0h8" style="vector-effect: none; stroke-width: 2px; stroke: rgb(136, 114, 205); stroke-opacity: 1;"/></g><g class="errorbar" style="opacity: 1;"><path class="yerror" d="M57.67,73.74h8m-4,0V88.78m-4,0h8" style="vector-effect: none; stroke-width: 2px; stroke: rgb(136, 114, 205); stroke-opacity: 1;"/></g><g class="errorbar" style="opacity: 1;"><path class="yerror" d="M66.51,62.96h8m-4,0V93.94m-4,0h8" style="vector-effect: none; stroke-width: 2px; stroke: rgb(136, 114, 205); stroke-opacity: 1;"/></g><g class="errorbar" style="opacity: 1;"><path class="yerror" d="M75.61,64.63h8m-4,0V77.92m-4,0h8" style="vector-effect: none; stroke-width: 2px; stroke: rgb(136, 114, 205); stroke-opacity: 1;"/></g><g class="errorbar" style="opacity: 1;"><path class="yerror" d="M83.86,79.16h8m-4,0V87.91m-4,0h8" style="vector-effect: none; stroke-width: 2px; stroke: rgb(136, 114, 205); stroke-opacity: 1;"/></g><g class="errorbar" style="opacity: 1;"><path class="yerror" d="M90.37,81.64h8m-4,0V98.35m-4,0h8" style="vector-effect: none; stroke-width: 2px; stroke: rgb(136, 114, 205); stroke-opacity: 1;"/></g><g class="errorbar" style="opacity: 1;"><path class="yerror" d="M99.2,69.42h8m-4,0V70.75m-4,0h8" style="vector-effect: none; stroke-width: 2px; stroke: rgb(136, 114, 205); stroke-opacity: 1;"/></g><g class="errorbar" style="opacity: 1;"><path class="yerror" d="M124.71000000000001,79.02h8m-4,0V85.26m-4,0h8" style="vector-effect: none; stroke-width: 2px; stroke: rgb(136, 114, 205); stroke-opacity: 1;"/></g><g class="errorbar" style="opacity: 1;"><path class="yerror" d="M132.79,86.55h8m-4,0V101.13m-4,0h8" style="vector-effect: none; stroke-width: 2px; stroke: rgb(136, 114, 205); stroke-opacity: 1;"/></g><g class="errorbar" style="opacity: 1;"><path class="yerror" d="M141.91,93.55h8m-4,0V108.54m-4,0h8" style="vector-effect: none; stroke-width: 2px; stroke: rgb(136, 114, 205); stroke-opacity: 1;"/></g><g class="errorbar" style="opacity: 1;"><path class="yerror" d="M149.84,78.99h8m-4,0V86.68m-4,0h8" style="vector-effect: none; stroke-width: 2px; stroke: rgb(136, 114, 205); stroke-opacity: 1;"/></g><g class="errorbar" style="opacity: 1;"><path class="yerror" d="M159.64,91.77h8m-4,0V105.5m-4,0h8" style="vector-effect: none; stroke-width: 2px; stroke: rgb(136, 114, 205); stroke-opacity: 1;"/></g><g class="errorbar" style="opacity: 1;"><path class="yerror" d="M167.75,75.61h8m-4,0V108.11m-4,0h8" style="vector-effect: none; stroke-width: 2px; stroke: rgb(136, 114, 205); stroke-opacity: 1;"/></g></g><g class="lines"><path class="js-line" d="M10.12,51.05L11.92,53.22L18.49,30.04L20.84,52.41L26.86,37.38L29.22,61.02L35.29,55.8L37.69,51.82L44.07,65.49L53.33,66.82L61.67,80.22L70.51,74.22L79.61,70.46L87.86,83.18L94.37,88.72L103.2,70.07L128.71,81.96L136.79,92.87L145.91,100.01L153.84,82.56L163.64,97.77L171.75,87.22" style="vector-effect: none; fill: none; stroke: rgb(136, 114, 205); stroke-opacity: 1; stroke-width: 5px; opacity: 1;"/></g><g class="points"/><g class="text"/></g><g class="trace scatter trace86ff80" style="stroke-miterlimit: 2; opacity: 1;"><g class="fills"/><g class="errorbars"><g class="errorbar" style="opacity: 1;"><path class="yerror" d="M6.119999999999999,66.29h8m-4,0V69.53m-4,0h8" style="vector-effect: none; stroke-width: 2px; stroke: rgb(136, 114, 205); stroke-opacity: 1;"/></g><g class="errorbar" style="opacity: 1;"><path class="yerror" d="M7.92,74.22h8m-4,0V77.05m-4,0h8" style="vector-effect: none; stroke-width: 2px; stroke: rgb(136, 114, 205); stroke-opacity: 1;"/></g><g class="errorbar" style="opacity: 1;"><path class="yerror" d="M14.489999999999998,72.66h8m-4,0V90.79m-4,0h8" style="vector-effect: none; stroke-width: 2px; stroke: rgb(136, 114, 205); stroke-opacity: 1;"/></g><g class="errorbar" style="opacity: 1;"><path class="yerror" d="M16.84,74.22h8m-4,0V92.87m-4,0h8" style="vector-effect: none; stroke-width: 2px; stroke: rgb(136, 114, 205); stroke-opacity: 1;"/></g><g class="errorbar" style="opacity: 1;"><path class="yerror" d="M22.86,88.28h8m-4,0V96.29m-4,0h8" style="vector-effect: none; stroke-width: 2px; stroke: rgb(136, 114, 205); stroke-opacity: 1;"/></g><g class="errorbar" style="opacity: 1;"><path class="yerror" d="M25.22,78.81h8m-4,0V84.19m-4,0h8" style="vector-effect: none; stroke-width: 2px; stroke: rgb(136, 114, 205); stroke-opacity: 1;"/></g><g class="errorbar" style="opacity: 1;"><path class="yerror" d="M31.29,95.13h8m-4,0V105.99m-4,0h8" style="vector-effect: none; stroke-width: 2px; stroke: rgb(136, 114, 205); stroke-opacity: 1;"/></g><g class="errorbar" style="opacity: 1;"><path class="yerror" d="M33.69,85.43h8m-4,0V98.37m-4,0h8" style="vector-effect: none; stroke-width: 2px; stroke: rgb(136, 114, 205); stroke-opacity: 1;"/></g><g class="errorbar" style="opacity: 1;"><path class="yerror" d="M40.07,70.47h8m-4,0V93.76m-4,0h8" style="vector-effect: none; stroke-width: 2px; stroke: rgb(136, 114, 205); stroke-opacity: 1;"/></g><g class="errorbar" style="opacity: 1;"><path class="yerror" d="M49.33,81.96h8m-4,0V95.7m-4,0h8" style="vector-effect: none; stroke-width: 2px; stroke: rgb(136, 114, 205); stroke-opacity: 1;"/></g><g class="errorbar" style="opacity: 1;"><path class="yerror" d="M57.67,114.85h8m-4,0V129.27m-4,0h8" style="vector-effect: none; stroke-width: 2px; stroke: rgb(136, 114, 205); stroke-opacity: 1;"/></g><g class="errorbar" style="opacity: 1;"><path class="yerror" d="M66.51,103h8m-4,0V118.85m-4,0h8" style="vector-effect: none; stroke-width: 2px; stroke: rgb(136, 114, 205); stroke-opacity: 1;"/></g><g class="errorbar" style="opacity: 1;"><path class="yerror" d="M75.61,77.21h8m-4,0V96.91m-4,0h8" style="vector-effect: none; stroke-width: 2px; stroke: rgb(136, 114, 205); stroke-opacity: 1;"/></g><g class="errorbar" style="opacity: 1;"><path class="yerror" d="M83.86,99.46h8m-4,0V116.37m-4,0h8" style="vector-effect: none; stroke-width: 2px; stroke: rgb(136, 114, 205); stroke-opacity: 1;"/></g><g class="errorbar" style="opacity: 1;"><path class="yerror" d="M90.37,83.54h8m-4,0V96.14m-4,0h8" style="vector-effect: none; stroke-width: 2px; stroke: rgb(136, 114, 205); stroke-opacity: 1;"/></g><g class="errorbar" style="opacity: 1;"><path class="yerror" d="M99.2,77.82h8m-4,0V95.2m-4,0h8" style="vector-effect: none; stroke-width: 2px; stroke: rgb(136, 114, 205); stroke-opacity: 1;"/></g><g class="errorbar" style="opacity: 1;"><path class="yerror" d="M124.71000000000001,106.61h8m-4,0V106.61m-4,0h8" style="vector-effect: none; stroke-width: 2px; stroke: rgb(136, 114, 205); stroke-opacity: 1;"/></g><g class="errorbar" style="opacity: 1;"><path class="yerror" d="M132.79,125.74h8m-4,0V132.95m-4,0h8" style="vector-effect: none; stroke-width: 2px; stroke: rgb(136, 114, 205); stroke-opacity: 1;"/></g><g class="errorbar" style="opacity: 1;"><path class="yerror" d="M141.91,86.39h8m-4,0V104m-4,0h8" style="vector-effect: none; stroke-width: 2px; stroke: rgb(136, 114, 205); stroke-opacity: 1;"/></g><g class="errorbar" style="opacity: 1;"><path class="yerror" d="M149.84,83.42h8m-4,0V87.31m-4,0h8" style="vector-effect: none; stroke-width: 2px; stroke: rgb(136, 114, 205); stroke-opacity: 1;"/></g><g class="errorbar" style="opacity: 1;"><path class="yerror" d="M159.64,82.29h8m-4,0V85.43m-4,0h8" style="vector-effect: none; stroke-width: 2px; stroke: rgb(136, 114, 205); stroke-opacity: 1;"/></g><g class="errorbar" style="opacity: 1;"><path class="yerror" d="M167.75,86.64h8m-4,0V109.47m-4,0h8" style="vector-effect: none; stroke-width: 2px; stroke: rgb(136, 114, 205); stroke-opacity: 1;"/></g><g class="errorbar" style="opacity: 1;"><path class="yerror" d="M175.68,74.97h8m-4,0V82.78m-4,0h8" style="vector-effect: none; stroke-width: 2px; stroke: rgb(136, 114, 205); stroke-opacity: 1;"/></g><g class="errorbar" style="opacity: 1;"><path class="yerror" d="M183.13,84.32h8m-4,0V105.47m-4,0h8" style="vector-effect: none; stroke-width: 2px; stroke: rgb(136, 114, 205); stroke-opacity: 1;"/></g></g><g class="lines"><path class="js-line" d="M10.12,67.86L11.92,75.6L18.49,80.22L20.84,81.96L26.86,91.98L29.22,81.37L35.29,100.01L37.69,91.13L44.07,79.67L53.33,87.96L61.67,121.11L70.51,109.78L79.61,85.3L87.86,106.61L94.37,89.11L103.2,85.13L128.71,106.61L136.79,129.1L145.91,93.78L153.84,85.3L163.64,83.82L171.75,95.7L179.68,78.59L187.13,92.87" style="vector-effect: none; fill: none; stroke: rgb(136, 114, 205); stroke-opacity: 1; stroke-dasharray: 5px, 5px; stroke-width: 5px; opacity: 1;"/></g><g class="points"/><g class="text"/></g><g class="trace scatter trace7a3e78" style="stroke-miterlimit: 2; opacity: 1;"><g class="fills"/><g class="errorbars"><g class="errorbar" style="opacity: 1;"><path class="yerror" d="M5.85,30.93h8m-4,0V55.57m-4,0h8" style="vector-effect: none; stroke-width: 2px; stroke: rgb(226, 126, 80); stroke-opacity: 1;"/></g><g class="errorbar" style="opacity: 1;"><path class="yerror" d="M7.609999999999999,37.61h8m-4,0V50.67m-4,0h8" style="vector-effect: none; stroke-width: 2px; stroke: rgb(226, 126, 80); stroke-opacity: 1;"/></g></g><g class="lines"><path class="js-line" d="M9.85,40.52L11.61,43.36" style="vector-effect: none; fill: none; stroke: rgb(226, 126, 80); stroke-opacity: 1; stroke-width: 5px; opacity: 1;"/></g><g class="points"/><g class="text"/></g><g class="trace scatter trace77f42d" style="stroke-miterlimit: 2; opacity: 1;"><g class="fills"/><g class="errorbars"><g class="errorbar" style="opacity: 1;"><path class="yerror" d="M6.119999999999999,30.93h8m-4,0V36.93m-4,0h8" style="vector-effect: none; stroke-width: 2px; stroke: rgb(226, 126, 80); stroke-opacity: 1;"/></g><g class="errorbar" style="opacity: 1;"><path class="yerror" d="M7.92,17.51h8m-4,0V43.78m-4,0h8" style="vector-effect: none; stroke-width: 2px; stroke: rgb(226, 126, 80); stroke-opacity: 1;"/></g><g class="errorbar" style="opacity: 1;"><path class="yerror" d="M14.489999999999998,26.34h8m-4,0V34.35m-4,0h8" style="vector-effect: none; stroke-width: 2px; stroke: rgb(226, 126, 80); stroke-opacity: 1;"/></g><g class="errorbar" style="opacity: 1;"><path class="yerror" d="M16.84,40.87h8m-4,0V45.78m-4,0h8" style="vector-effect: none; stroke-width: 2px; stroke: rgb(226, 126, 80); stroke-opacity: 1;"/></g><g class="errorbar" style="opacity: 1;"><path class="yerror" d="M22.86,23.08h8m-4,0V39.47m-4,0h8" style="vector-effect: none; stroke-width: 2px; stroke: rgb(226, 126, 80); stroke-opacity: 1;"/></g><g class="errorbar" style="opacity: 1;"><path class="yerror" d="M25.22,25.59h8m-4,0V33.35m-4,0h8" style="vector-effect: none; stroke-width: 2px; stroke: rgb(226, 126, 80); stroke-opacity: 1;"/></g><g class="errorbar" style="opacity: 1;"><path class="yerror" d="M31.29,11.43h8m-4,0V19.39m-4,0h8" style="vector-effect: none; stroke-width: 2px; stroke: rgb(226, 126, 80); stroke-opacity: 1;"/></g><g class="errorbar" style="opacity: 1;"><path class="yerror" d="M33.69,31.66h8m-4,0V43.49m-4,0h8" style="vector-effect: none; stroke-width: 2px; stroke: rgb(226, 126, 80); stroke-opacity: 1;"/></g><g class="errorbar" style="opacity: 1;"><path class="yerror" d="M40.07,17.35h8m-4,0V47.34m-4,0h8" style="vector-effect: none; stroke-width: 2px; stroke: rgb(226, 126, 80); stroke-opacity: 1;"/></g><g class="errorbar" style="opacity: 1;"><path class="yerror" d="M49.33,88.3h8m-4,0V103.17m-4,0h8" style="vector-effect: none; stroke-width: 2px; stroke: rgb(226, 126, 80); stroke-opacity: 1;"/></g><g class="errorbar" style="opacity: 1;"><path class="yerror" d="M57.67,105.54h8m-4,0V111.04m-4,0h8" style="vector-effect: none; stroke-width: 2px; stroke: rgb(226, 126, 80); stroke-opacity: 1;"/></g><g class="errorbar" style="opacity: 1;"><path class="yerror" d="M66.51,99.34h8m-4,0V112.58m-4,0h8" style="vector-effect: none; stroke-width: 2px; stroke: rgb(226, 126, 80); stroke-opacity: 1;"/></g><g class="errorbar" style="opacity: 1;"><path class="yerror" d="M75.61,123.04h8m-4,0V134.3m-4,0h8" style="vector-effect: none; stroke-width: 2px; stroke: rgb(226, 126, 80); stroke-opacity: 1;"/></g><g class="errorbar" style="opacity: 1;"><path class="yerror" d="M83.86,160.81h8m-4,0V168.55m-4,0h8" style="vector-effect: none; stroke-width: 2px; stroke: rgb(226, 126, 80); stroke-opacity: 1;"/></g><g class="errorbar" style="opacity: 1;"><path class="yerror" d="M90.37,152.69h8m-4,0V157.1m-4,0h8" style="vector-effect: none; stroke-width: 2px; stroke: rgb(226, 126, 80); stroke-opacity: 1;"/></g><g class="errorbar" style="opacity: 1;"><path class="yerror" d="M99.2,159.45h8m-4,0V170.47m-4,0h8" style="vector-effect: none; stroke-width: 2px; stroke: rgb(226, 126, 80); stroke-opacity: 1;"/></g><g class="errorbar" style="opacity: 1;"><path class="yerror" d="M124.71000000000001,173.94h8m-4,0V181.15m-4,0h8" style="vector-effect: none; stroke-width: 2px; stroke: rgb(226, 126, 80); stroke-opacity: 1;"/></g><g class="errorbar" style="opacity: 1;"><path class="yerror" d="M132.79,167.63h8m-4,0V177.56m-4,0h8" style="vector-effect: none; stroke-width: 2px; stroke: rgb(226, 126, 80); stroke-opacity: 1;"/></g><g class="errorbar" style="opacity: 1;"><path class="yerror" d="M141.91,132.87h8m-4,0V143.2m-4,0h8" style="vector-effect: none; stroke-width: 2px; stroke: rgb(226, 126, 80); stroke-opacity: 1;"/></g><g class="errorbar" style="opacity: 1;"><path class="yerror" d="M149.84,133.36h8m-4,0V137.34m-4,0h8" style="vector-effect: none; stroke-width: 2px; stroke: rgb(226, 126, 80); stroke-opacity: 1;"/></g><g class="errorbar" style="opacity: 1;"><path class="yerror" d="M159.64,132.03h8m-4,0V145.42m-4,0h8" style="vector-effect: none; stroke-width: 2px; stroke: rgb(226, 126, 80); stroke-opacity: 1;"/></g><g class="errorbar" style="opacity: 1;"><path class="yerror" d="M167.75,140.17h8m-4,0V146.2m-4,0h8" style="vector-effect: none; stroke-width: 2px; stroke: rgb(226, 126, 80); stroke-opacity: 1;"/></g><g class="errorbar" style="opacity: 1;"><path class="yerror" d="M175.68,121.12h8m-4,0V132.98m-4,0h8" style="vector-effect: none; stroke-width: 2px; stroke: rgb(226, 126, 80); stroke-opacity: 1;"/></g><g class="errorbar" style="opacity: 1;"><path class="yerror" d="M183.13,136.63h8m-4,0V148.07m-4,0h8" style="vector-effect: none; stroke-width: 2px; stroke: rgb(226, 126, 80); stroke-opacity: 1;"/></g></g><g class="lines"><path class="js-line" d="M10.12,33.76L11.92,27.56L18.49,30.04L20.84,43.21L26.86,30.04L29.22,29.19L35.29,15.11L37.69,36.93L44.07,28.36L53.33,94.72L61.67,108.15L70.51,105.15L79.61,128.09L87.86,164.4L94.37,154.81L103.2,164.4L128.71,177.3L136.79,172.14L145.91,137.54L153.84,135.28L163.64,137.9L171.75,143.02L179.68,126.4L187.13,141.75" style="vector-effect: none; fill: none; stroke: rgb(226, 126, 80); stroke-opacity: 1; stroke-dasharray: 5px, 5px; stroke-width: 5px; opacity: 1;"/></g><g class="points"/><g class="text"/></g></g></g><g class="overplot"/><path class="xlines-above crisp" d="M75,242.5H272.98" style="fill: none; stroke-width: 1px; stroke: rgb(0, 0, 0); stroke-opacity: 1;"/><path class="ylines-above crisp" d="M75.5,50V242" style="fill: none; stroke-width: 1px; stroke: rgb(0, 0, 0); stroke-opacity: 1;"/><g class="overlines-above"/><g class="xaxislayer-above"><g class="xtick"><text text-anchor="middle" x="0" y="259.8" transform="translate(115.75,0)" style="font-family: 'Open Sans', verdana, arial, sans-serif; font-size: 14px; fill: rgb(0, 0, 0); fill-opacity: 1; white-space: pre; opacity: 1;">200</text></g><g class="xtick"><text text-anchor="middle" x="0" y="259.8" style="font-family: 'Open Sans', verdana, arial, sans-serif; font-size: 14px; fill: rgb(0, 0, 0); fill-opacity: 1; white-space: pre; opacity: 1;" transform="translate(186.1,0)">400</text></g><g class="xtick"><text text-anchor="middle" x="0" y="259.8" style="font-family: 'Open Sans', verdana, arial, sans-serif; font-size: 14px; fill: rgb(0, 0, 0); fill-opacity: 1; white-space: pre; opacity: 1;" transform="translate(256.45,0)">600</text></g></g><g class="yaxislayer-above"><g class="ytick"><text text-anchor="end" x="72.2" y="3.675" transform="translate(0,223.45)" style="font-family: 'Open Sans', verdana, arial, sans-serif; font-size: 10.5px; fill: rgb(0, 0, 0); fill-opacity: 1; white-space: pre; opacity: 1;">5</text></g><g class="ytick"><text text-anchor="end" x="72.2" y="4.8999999999999995" style="font-family: 'Open Sans', verdana, arial, sans-serif; font-size: 14px; fill: rgb(0, 0, 0); fill-opacity: 1; white-space: pre; opacity: 1;" transform="translate(0,204.81)">10M</text></g><g class="ytick"><text text-anchor="end" x="72.2" y="3.675" style="font-family: 'Open Sans', verdana, arial, sans-serif; font-size: 10.5px; fill: rgb(0, 0, 0); fill-opacity: 1; white-space: pre; opacity: 1;" transform="translate(0,186.16)">2</text></g><g class="ytick"><text text-anchor="end" x="72.2" y="3.675" style="font-family: 'Open Sans', verdana, arial, sans-serif; font-size: 10.5px; fill: rgb(0, 0, 0); fill-opacity: 1; white-space: pre; opacity: 1;" transform="translate(0,161.51)">5</text></g><g class="ytick"><text text-anchor="end" x="72.2" y="4.8999999999999995" style="font-family: 'Open Sans', verdana, arial, sans-serif; font-size: 14px; fill: rgb(0, 0, 0); fill-opacity: 1; white-space: pre; opacity: 1;" transform="translate(0,142.87)">100M</text></g><g class="ytick"><text text-anchor="end" x="72.2" y="3.675" style="font-family: 'Open Sans', verdana, arial, sans-serif; font-size: 10.5px; fill: rgb(0, 0, 0); fill-opacity: 1; white-space: pre; opacity: 1;" transform="translate(0,124.22)">2</text></g><g class="ytick"><text text-anchor="end" x="72.2" y="3.675" style="font-family: 'Open Sans', verdana, arial, sans-serif; font-size: 10.5px; fill: rgb(0, 0, 0); fill-opacity: 1; white-space: pre; opacity: 1;" transform="translate(0,99.57)">5</text></g><g class="ytick"><text text-anchor="end" x="72.2" y="4.8999999999999995" style="font-family: 'Open Sans', verdana, arial, sans-serif; font-size: 14px; fill: rgb(0, 0, 0); fill-opacity: 1; white-space: pre; opacity: 1;" transform="translate(0,80.93)">1B</text></g><g class="ytick"><text text-anchor="end" x="72.2" y="3.675" style="font-family: 'Open Sans', verdana, arial, sans-serif; font-size: 10.5px; fill: rgb(0, 0, 0); fill-opacity: 1; white-space: pre; opacity: 1;" transform="translate(0,62.28)">2</text></g></g><g class="overaxes-above"/></g><g class="subplot x2y2"><g class="layer-subplot"><g class="shapelayer"/><g class="imagelayer"/></g><g class="minor-gridlayer"><g class="x2"/><g class="y2"/></g><g class="gridlayer"><g class="x2"><path class="x2grid crisp" transform="translate(320.77,0)" d="M0,50v192" style="stroke: rgb(0, 0, 0); stroke-opacity: 1; stroke-width: 1px;"/><path class="x2grid crisp" transform="translate(391.12,0)" d="M0,50v192" style="stroke: rgb(0, 0, 0); stroke-opacity: 1; stroke-width: 1px;"/><path class="x2grid crisp" transform="translate(461.46999999999997,0)" d="M0,50v192" style="stroke: rgb(0, 0, 0); stroke-opacity: 1; stroke-width: 1px;"/></g><g class="y2"><path class="y2grid crisp" transform="translate(0,223.45)" d="M281.02,0h196.98" style="stroke: rgb(0, 0, 0); stroke-opacity: 1; stroke-width: 1px;"/><path class="y2grid crisp" transform="translate(0,204.81)" d="M281.02,0h196.98" style="stroke: rgb(0, 0, 0); stroke-opacity: 1; stroke-width: 1px;"/><path class="y2grid crisp" transform="translate(0,186.16)" d="M281.02,0h196.98" style="stroke: rgb(0, 0, 0); stroke-opacity: 1; stroke-width: 1px;"/><path class="y2grid crisp" transform="translate(0,161.51)" d="M281.02,0h196.98" style="stroke: rgb(0, 0, 0); stroke-opacity: 1; stroke-width: 1px;"/><path class="y2grid crisp" transform="translate(0,142.87)" d="M281.02,0h196.98" style="stroke: rgb(0, 0, 0); stroke-opacity: 1; stroke-width: 1px;"/><path class="y2grid crisp" transform="translate(0,124.22)" d="M281.02,0h196.98" style="stroke: rgb(0, 0, 0); stroke-opacity: 1; stroke-width: 1px;"/><path class="y2grid crisp" transform="translate(0,99.57)" d="M281.02,0h196.98" style="stroke: rgb(0, 0, 0); stroke-opacity: 1; stroke-width: 1px;"/><path class="y2grid crisp" transform="translate(0,80.93)" d="M281.02,0h196.98" style="stroke: rgb(0, 0, 0); stroke-opacity: 1; stroke-width: 1px;"/><path class="y2grid crisp" transform="translate(0,62.28)" d="M281.02,0h196.98" style="stroke: rgb(0, 0, 0); stroke-opacity: 1; stroke-width: 1px;"/></g></g><g class="zerolinelayer"/><path class="xlines-below"/><path class="ylines-below"/><g class="overlines-below"/><g class="xaxislayer-below"/><g class="yaxislayer-below"/><g class="overaxes-below"/><g class="plot" transform="translate(281.02,50)" clip-path="url(#clipaac908x2y2plot)"><g class="scatterlayer mlayer"><g class="trace scatter tracec128fa" style="stroke-miterlimit: 2; opacity: 1;"><g class="fills"/><g class="errorbars"><g class="errorbar" style="opacity: 1;"><path class="yerror" d="M6.119999999999999,48.13h8m-4,0V50.34m-4,0h8" style="vector-effect: none; stroke-width: 2px; stroke: rgb(136, 114, 205); stroke-opacity: 1;"/></g><g class="errorbar" style="opacity: 1;"><path class="yerror" d="M7.92,51.82h8m-4,0V55.57m-4,0h8" style="vector-effect: none; stroke-width: 2px; stroke: rgb(136, 114, 205); stroke-opacity: 1;"/></g><g class="errorbar" style="opacity: 1;"><path class="yerror" d="M14.489999999999998,51.96h8m-4,0V54.53m-4,0h8" style="vector-effect: none; stroke-width: 2px; stroke: rgb(136, 114, 205); stroke-opacity: 1;"/></g><g class="errorbar" style="opacity: 1;"><path class="yerror" d="M16.84,52.56h8m-4,0V69.4m-4,0h8" style="vector-effect: none; stroke-width: 2px; stroke: rgb(136, 114, 205); stroke-opacity: 1;"/></g><g class="errorbar" style="opacity: 1;"><path class="yerror" d="M22.86,48.95h8m-4,0V54.16m-4,0h8" style="vector-effect: none; stroke-width: 2px; stroke: rgb(136, 114, 205); stroke-opacity: 1;"/></g><g class="errorbar" style="opacity: 1;"><path class="yerror" d="M25.22,58.35h8m-4,0V69.41m-4,0h8" style="vector-effect: none; stroke-width: 2px; stroke: rgb(136, 114, 205); stroke-opacity: 1;"/></g><g class="errorbar" style="opacity: 1;"><path class="yerror" d="M31.29,77.05h8m-4,0V87.96m-4,0h8" style="vector-effect: none; stroke-width: 2px; stroke: rgb(136, 114, 205); stroke-opacity: 1;"/></g><g class="errorbar" style="opacity: 1;"><path class="yerror" d="M33.69,64.97h8m-4,0V84.22m-4,0h8" style="vector-effect: none; stroke-width: 2px; stroke: rgb(136, 114, 205); stroke-opacity: 1;"/></g><g class="errorbar" style="opacity: 1;"><path class="yerror" d="M40.07,67.53h8m-4,0V73.75m-4,0h8" style="vector-effect: none; stroke-width: 2px; stroke: rgb(136, 114, 205); stroke-opacity: 1;"/></g><g class="errorbar" style="opacity: 1;"><path class="yerror" d="M49.33,72.69h8m-4,0V92.44m-4,0h8" style="vector-effect: none; stroke-width: 2px; stroke: rgb(136, 114, 205); stroke-opacity: 1;"/></g><g class="errorbar" style="opacity: 1;"><path class="yerror" d="M57.67,92.5h8m-4,0V98.22m-4,0h8" style="vector-effect: none; stroke-width: 2px; stroke: rgb(136, 114, 205); stroke-opacity: 1;"/></g><g class="errorbar" style="opacity: 1;"><path class="yerror" d="M66.51,83.35h8m-4,0V85.62m-4,0h8" style="vector-effect: none; stroke-width: 2px; stroke: rgb(136, 114, 205); stroke-opacity: 1;"/></g><g class="errorbar" style="opacity: 1;"><path class="yerror" d="M75.61,72.1h8m-4,0V78.55m-4,0h8" style="vector-effect: none; stroke-width: 2px; stroke: rgb(136, 114, 205); stroke-opacity: 1;"/></g><g class="errorbar" style="opacity: 1;"><path class="yerror" d="M83.86,80.22h8m-4,0V87.96m-4,0h8" style="vector-effect: none; stroke-width: 2px; stroke: rgb(136, 114, 205); stroke-opacity: 1;"/></g><g class="errorbar" style="opacity: 1;"><path class="yerror" d="M90.37,74.7h8m-4,0V83.14m-4,0h8" style="vector-effect: none; stroke-width: 2px; stroke: rgb(136, 114, 205); stroke-opacity: 1;"/></g><g class="errorbar" style="opacity: 1;"><path class="yerror" d="M99.2,62.25h8m-4,0V78.93m-4,0h8" style="vector-effect: none; stroke-width: 2px; stroke: rgb(136, 114, 205); stroke-opacity: 1;"/></g><g class="errorbar" style="opacity: 1;"><path class="yerror" d="M124.71000000000001,82.41h8m-4,0V91.34m-4,0h8" style="vector-effect: none; stroke-width: 2px; stroke: rgb(136, 114, 205); stroke-opacity: 1;"/></g><g class="errorbar" style="opacity: 1;"><path class="yerror" d="M132.79,101.72h8m-4,0V116.59m-4,0h8" style="vector-effect: none; stroke-width: 2px; stroke: rgb(136, 114, 205); stroke-opacity: 1;"/></g></g><g class="lines"><path class="js-line" d="M10.12,49.22L11.92,53.63L18.49,53.22L20.84,59.68L26.86,51.43L29.22,63.31L35.29,81.96L37.69,72.91L44.07,70.46L53.33,80.79L61.67,95.21L79.61,75.13L87.86,83.82L94.37,78.59L103.2,69.32L128.71,86.51L136.79,108.15" style="vector-effect: none; fill: none; stroke: rgb(136, 114, 205); stroke-opacity: 1; stroke-width: 5px; opacity: 1;"/></g><g class="points"/><g class="text"/></g><g class="trace scatter tracef14417" style="stroke-miterlimit: 2; opacity: 1;"><g class="fills"/><g class="errorbars"><g class="errorbar" style="opacity: 1;"><path class="yerror" d="M6.119999999999999,67.31h8m-4,0V70.69m-4,0h8" style="vector-effect: none; stroke-width: 2px; stroke: rgb(136, 114, 205); stroke-opacity: 1;"/></g><g class="errorbar" style="opacity: 1;"><path class="yerror" d="M7.92,71.83h8m-4,0V75.88m-4,0h8" style="vector-effect: none; stroke-width: 2px; stroke: rgb(136, 114, 205); stroke-opacity: 1;"/></g><g class="errorbar" style="opacity: 1;"><path class="yerror" d="M14.489999999999998,62.28h8m-4,0V79.95m-4,0h8" style="vector-effect: none; stroke-width: 2px; stroke: rgb(136, 114, 205); stroke-opacity: 1;"/></g><g class="errorbar" style="opacity: 1;"><path class="yerror" d="M16.84,93.27h8m-4,0V112.52m-4,0h8" style="vector-effect: none; stroke-width: 2px; stroke: rgb(136, 114, 205); stroke-opacity: 1;"/></g><g class="errorbar" style="opacity: 1;"><path class="yerror" d="M22.86,73.27h8m-4,0V82.66m-4,0h8" style="vector-effect: none; stroke-width: 2px; stroke: rgb(136, 114, 205); stroke-opacity: 1;"/></g><g class="errorbar" style="opacity: 1;"><path class="yerror" d="M25.22,92.87h8m-4,0V98.87m-4,0h8" style="vector-effect: none; stroke-width: 2px; stroke: rgb(136, 114, 205); stroke-opacity: 1;"/></g><g class="errorbar" style="opacity: 1;"><path class="yerror" d="M31.29,83.1h8m-4,0V105.33m-4,0h8" style="vector-effect: none; stroke-width: 2px; stroke: rgb(136, 114, 205); stroke-opacity: 1;"/></g><g class="errorbar" style="opacity: 1;"><path class="yerror" d="M33.69,79.4h8m-4,0V98.3m-4,0h8" style="vector-effect: none; stroke-width: 2px; stroke: rgb(136, 114, 205); stroke-opacity: 1;"/></g><g class="errorbar" style="opacity: 1;"><path class="yerror" d="M40.07,86.94h8m-4,0V108.77m-4,0h8" style="vector-effect: none; stroke-width: 2px; stroke: rgb(136, 114, 205); stroke-opacity: 1;"/></g><g class="errorbar" style="opacity: 1;"><path class="yerror" d="M49.33,98.41h8m-4,0V101.22m-4,0h8" style="vector-effect: none; stroke-width: 2px; stroke: rgb(136, 114, 205); stroke-opacity: 1;"/></g><g class="errorbar" style="opacity: 1;"><path class="yerror" d="M57.67,82.6h8m-4,0V94.66m-4,0h8" style="vector-effect: none; stroke-width: 2px; stroke: rgb(136, 114, 205); stroke-opacity: 1;"/></g><g class="errorbar" style="opacity: 1;"><path class="yerror" d="M66.51,82.6h8m-4,0V94.66m-4,0h8" style="vector-effect: none; stroke-width: 2px; stroke: rgb(136, 114, 205); stroke-opacity: 1;"/></g><g class="errorbar" style="opacity: 1;"><path class="yerror" d="M75.61,84.79h8m-4,0V89.11m-4,0h8" style="vector-effect: none; stroke-width: 2px; stroke: rgb(136, 114, 205); stroke-opacity: 1;"/></g><g class="errorbar" style="opacity: 1;"><path class="yerror" d="M83.86,82.77h8m-4,0V99.05m-4,0h8" style="vector-effect: none; stroke-width: 2px; stroke: rgb(136, 114, 205); stroke-opacity: 1;"/></g><g class="errorbar" style="opacity: 1;"><path class="yerror" d="M90.37,74.15h8m-4,0V84.9m-4,0h8" style="vector-effect: none; stroke-width: 2px; stroke: rgb(136, 114, 205); stroke-opacity: 1;"/></g><g class="errorbar" style="opacity: 1;"><path class="yerror" d="M99.2,64.89h8m-4,0V77.49m-4,0h8" style="vector-effect: none; stroke-width: 2px; stroke: rgb(136, 114, 205); stroke-opacity: 1;"/></g><g class="errorbar" style="opacity: 1;"><path class="yerror" d="M124.71000000000001,78.78h8m-4,0V91.68m-4,0h8" style="vector-effect: none; stroke-width: 2px; stroke: rgb(136, 114, 205); stroke-opacity: 1;"/></g><g class="errorbar" style="opacity: 1;"><path class="yerror" d="M132.79,68.65h8m-4,0V82.44m-4,0h8" style="vector-effect: none; stroke-width: 2px; stroke: rgb(136, 114, 205); stroke-opacity: 1;"/></g><g class="errorbar" style="opacity: 1;"><path class="yerror" d="M141.91,76.02h8m-4,0V91.23m-4,0h8" style="vector-effect: none; stroke-width: 2px; stroke: rgb(136, 114, 205); stroke-opacity: 1;"/></g><g class="errorbar" style="opacity: 1;"><path class="yerror" d="M149.84,69.92h8m-4,0V75.55m-4,0h8" style="vector-effect: none; stroke-width: 2px; stroke: rgb(136, 114, 205); stroke-opacity: 1;"/></g><g class="errorbar" style="opacity: 1;"><path class="yerror" d="M159.64,63.31h8m-4,0V80.22m-4,0h8" style="vector-effect: none; stroke-width: 2px; stroke: rgb(136, 114, 205); stroke-opacity: 1;"/></g><g class="errorbar" style="opacity: 1;"><path class="yerror" d="M167.75,78.15h8m-4,0V95.05m-4,0h8" style="vector-effect: none; stroke-width: 2px; stroke: rgb(136, 114, 205); stroke-opacity: 1;"/></g><g class="errorbar" style="opacity: 1;"><path class="yerror" d="M175.68,76.75h8m-4,0V79.74m-4,0h8" style="vector-effect: none; stroke-width: 2px; stroke: rgb(136, 114, 205); stroke-opacity: 1;"/></g><g class="errorbar" style="opacity: 1;"><path class="yerror" d="M183.13,80.28h8m-4,0V89.03m-4,0h8" style="vector-effect: none; stroke-width: 2px; stroke: rgb(136, 114, 205); stroke-opacity: 1;"/></g></g><g class="lines"><path class="js-line" d="M10.12,68.95L11.92,73.78L18.49,69.69L20.84,101.21L26.86,77.56L29.22,95.7L35.29,91.98L37.69,87.22L44.07,95.7L53.33,99.78L61.67,87.96L79.61,86.86L87.86,89.7L94.37,78.99L103.2,70.46L128.71,84.46L136.79,74.67L145.91,82.56L153.84,72.59L163.64,70.46L171.75,85.3L179.68,78.2L187.13,84.3" style="vector-effect: none; fill: none; stroke: rgb(136, 114, 205); stroke-opacity: 1; stroke-dasharray: 5px, 5px; stroke-width: 5px; opacity: 1;"/></g><g class="points"/><g class="text"/></g><g class="trace scatter trace110d45" style="stroke-miterlimit: 2; opacity: 1;"><g class="fills"/><g class="errorbars"><g class="errorbar" style="opacity: 1;"><path class="yerror" d="M5.85,14.44h8m-4,0V30.55m-4,0h8" style="vector-effect: none; stroke-width: 2px; stroke: rgb(226, 126, 80); stroke-opacity: 1;"/></g><g class="errorbar" style="opacity: 1;"><path class="yerror" d="M7.609999999999999,17.23h8m-4,0V27.5m-4,0h8" style="vector-effect: none; stroke-width: 2px; stroke: rgb(226, 126, 80); stroke-opacity: 1;"/></g></g><g class="lines"><path class="js-line" d="M9.85,21.3L11.61,21.88" style="vector-effect: none; fill: none; stroke: rgb(226, 126, 80); stroke-opacity: 1; stroke-width: 5px; opacity: 1;"/></g><g class="points"/><g class="text"/></g><g class="trace scatter trace8554f0" style="stroke-miterlimit: 2; opacity: 1;"><g class="fills"/><g class="errorbars"><g class="errorbar" style="opacity: 1;"><path class="yerror" d="M6.119999999999999,9.6h8m-4,0V33.06m-4,0h8" style="vector-effect: none; stroke-width: 2px; stroke: rgb(226, 126, 80); stroke-opacity: 1;"/></g><g class="errorbar" style="opacity: 1;"><path class="yerror" d="M7.92,23.47h8m-4,0V30.55m-4,0h8" style="vector-effect: none; stroke-width: 2px; stroke: rgb(226, 126, 80); stroke-opacity: 1;"/></g><g class="errorbar" style="opacity: 1;"><path class="yerror" d="M14.489999999999998,22.22h8m-4,0V27.14m-4,0h8" style="vector-effect: none; stroke-width: 2px; stroke: rgb(226, 126, 80); stroke-opacity: 1;"/></g><g class="errorbar" style="opacity: 1;"><path class="yerror" d="M16.84,39.6h8m-4,0V44.27m-4,0h8" style="vector-effect: none; stroke-width: 2px; stroke: rgb(226, 126, 80); stroke-opacity: 1;"/></g><g class="errorbar" style="opacity: 1;"><path class="yerror" d="M22.86,20.47h8m-4,0V29.4m-4,0h8" style="vector-effect: none; stroke-width: 2px; stroke: rgb(226, 126, 80); stroke-opacity: 1;"/></g><g class="errorbar" style="opacity: 1;"><path class="yerror" d="M25.22,31.66h8m-4,0V43.49m-4,0h8" style="vector-effect: none; stroke-width: 2px; stroke: rgb(226, 126, 80); stroke-opacity: 1;"/></g><g class="errorbar" style="opacity: 1;"><path class="yerror" d="M31.29,20.3h8m-4,0V37.54m-4,0h8" style="vector-effect: none; stroke-width: 2px; stroke: rgb(226, 126, 80); stroke-opacity: 1;"/></g><g class="errorbar" style="opacity: 1;"><path class="yerror" d="M33.69,14.31h8m-4,0V25.76m-4,0h8" style="vector-effect: none; stroke-width: 2px; stroke: rgb(226, 126, 80); stroke-opacity: 1;"/></g><g class="errorbar" style="opacity: 1;"><path class="yerror" d="M40.07,21.37h8m-4,0V53.01m-4,0h8" style="vector-effect: none; stroke-width: 2px; stroke: rgb(226, 126, 80); stroke-opacity: 1;"/></g><g class="errorbar" style="opacity: 1;"><path class="yerror" d="M49.33,52.41h8m-4,0V57.67m-4,0h8" style="vector-effect: none; stroke-width: 2px; stroke: rgb(226, 126, 80); stroke-opacity: 1;"/></g><g class="errorbar" style="opacity: 1;"><path class="yerror" d="M57.67,50.06h8m-4,0V57.27m-4,0h8" style="vector-effect: none; stroke-width: 2px; stroke: rgb(226, 126, 80); stroke-opacity: 1;"/></g><g class="errorbar" style="opacity: 1;"><path class="yerror" d="M66.51,67.33h8m-4,0V86.17m-4,0h8" style="vector-effect: none; stroke-width: 2px; stroke: rgb(226, 126, 80); stroke-opacity: 1;"/></g><g class="errorbar" style="opacity: 1;"><path class="yerror" d="M75.61,97.37h8m-4,0V100.7m-4,0h8" style="vector-effect: none; stroke-width: 2px; stroke: rgb(226, 126, 80); stroke-opacity: 1;"/></g><g class="errorbar" style="opacity: 1;"><path class="yerror" d="M83.86,130.16h8m-4,0V134.85m-4,0h8" style="vector-effect: none; stroke-width: 2px; stroke: rgb(226, 126, 80); stroke-opacity: 1;"/></g><g class="errorbar" style="opacity: 1;"><path class="yerror" d="M90.37,145.28h8m-4,0V151.64m-4,0h8" style="vector-effect: none; stroke-width: 2px; stroke: rgb(226, 126, 80); stroke-opacity: 1;"/></g><g class="errorbar" style="opacity: 1;"><path class="yerror" d="M99.2,138.22h8m-4,0V165.15m-4,0h8" style="vector-effect: none; stroke-width: 2px; stroke: rgb(226, 126, 80); stroke-opacity: 1;"/></g><g class="errorbar" style="opacity: 1;"><path class="yerror" d="M124.71000000000001,148.02h8m-4,0V166.55m-4,0h8" style="vector-effect: none; stroke-width: 2px; stroke: rgb(226, 126, 80); stroke-opacity: 1;"/></g><g class="errorbar" style="opacity: 1;"><path class="yerror" d="M132.79,163.48h8m-4,0V168.15m-4,0h8" style="vector-effect: none; stroke-width: 2px; stroke: rgb(226, 126, 80); stroke-opacity: 1;"/></g><g class="errorbar" style="opacity: 1;"><path class="yerror" d="M141.91,144.19h8m-4,0V180.65m-4,0h8" style="vector-effect: none; stroke-width: 2px; stroke: rgb(226, 126, 80); stroke-opacity: 1;"/></g><g class="errorbar" style="opacity: 1;"><path class="yerror" d="M149.84,152.58h8m-4,0V161.47m-4,0h8" style="vector-effect: none; stroke-width: 2px; stroke: rgb(226, 126, 80); stroke-opacity: 1;"/></g><g class="errorbar" style="opacity: 1;"><path class="yerror" d="M159.64,151.85h8m-4,0V165.02m-4,0h8" style="vector-effect: none; stroke-width: 2px; stroke: rgb(226, 126, 80); stroke-opacity: 1;"/></g><g class="errorbar" style="opacity: 1;"><path class="yerror" d="M167.75,160.81h8m-4,0V168.55m-4,0h8" style="vector-effect: none; stroke-width: 2px; stroke: rgb(226, 126, 80); stroke-opacity: 1;"/></g><g class="errorbar" style="opacity: 1;"><path class="yerror" d="M175.68,153.71h8m-4,0V162.24m-4,0h8" style="vector-effect: none; stroke-width: 2px; stroke: rgb(226, 126, 80); stroke-opacity: 1;"/></g><g class="errorbar" style="opacity: 1;"><path class="yerror" d="M183.13,162.85h8m-4,0V182.4m-4,0h8" style="vector-effect: none; stroke-width: 2px; stroke: rgb(226, 126, 80); stroke-opacity: 1;"/></g></g><g class="lines"><path class="js-line" d="M10.12,18.85L11.92,26.78L18.49,24.57L20.84,41.83L26.86,24.57L29.22,36.93L35.29,27.56L37.69,19.43L44.07,32.78L53.33,54.91L61.67,53.42L79.61,98.98L87.86,132.4L94.37,148.27L103.2,148.45L128.71,155.72L136.79,165.71L145.91,156.66L153.84,156.66L163.64,157.64L171.75,164.4L179.68,157.64L187.13,170.89" style="vector-effect: none; fill: none; stroke: rgb(226, 126, 80); stroke-opacity: 1; stroke-dasharray: 5px, 5px; stroke-width: 5px; opacity: 1;"/></g><g class="points"/><g class="text"/></g></g></g><g class="overplot"/><path class="xlines-above crisp" d="M280.02,242.5H478" style="fill: none; stroke-width: 1px; stroke: rgb(0, 0, 0); stroke-opacity: 1;"/><path class="ylines-above crisp" d="M280.52,50V242" style="fill: none; stroke-width: 1px; stroke: rgb(0, 0, 0); stroke-opacity: 1;"/><g class="overlines-above"/><g class="xaxislayer-above"><g class="x2tick"><text text-anchor="middle" x="0" y="259.8" transform="translate(320.77,0)" style="font-family: 'Open Sans', verdana, arial, sans-serif; font-size: 14px; fill: rgb(0, 0, 0); fill-opacity: 1; white-space: pre; opacity: 1;">200</text></g><g class="x2tick"><text text-anchor="middle" x="0" y="259.8" style="font-family: 'Open Sans', verdana, arial, sans-serif; font-size: 14px; fill: rgb(0, 0, 0); fill-opacity: 1; white-space: pre; opacity: 1;" transform="translate(391.12,0)">400</text></g><g class="x2tick"><text text-anchor="middle" x="0" y="259.8" style="font-family: 'Open Sans', verdana, arial, sans-serif; font-size: 14px; fill: rgb(0, 0, 0); fill-opacity: 1; white-space: pre; opacity: 1;" transform="translate(461.46999999999997,0)">600</text></g></g><g class="yaxislayer-above"/><g class="overaxes-above"/></g></g><g class="polarlayer"/><g class="smithlayer"/><g class="ternarylayer"/><g class="geolayer"/><g class="funnelarealayer"/><g class="pielayer"/><g class="iciclelayer"/><g class="treemaplayer"/><g class="sunburstlayer"/><g class="glimages"/><defs id="topdefs-aac908"><g class="clips"/><clipPath id="legendaac908"><rect width="104" height="95" x="0" y="0"/></clipPath></defs><g class="layer-above"><g class="imagelayer"/><g class="shapelayer"/></g><g class="infolayer"><g class="legend" pointer-events="all" transform="translate(486.04,50)"><rect class="bg" shape-rendering="crispEdges" width="104" height="95" x="0" y="0" style="stroke: rgb(68, 68, 68); stroke-opacity: 1; fill: rgb(153, 153, 153); fill-opacity: 1; stroke-width: 0px;"/><g class="scrollbox" transform="" clip-path="url(#legendaac908)"><g class="groups" transform=""><g class="traces" transform="translate(0,15.6)" style="opacity: 1;"><text class="legendtext" text-anchor="start" x="40" y="5.46" style="font-family: 'Open Sans', verdana, arial, sans-serif; font-size: 14px; fill: rgb(0, 0, 0); fill-opacity: 1; white-space: pre;">ct, mono</text><g class="layers" style="opacity: 1;"><g class="legendfill"/><g class="legendlines"><path class="js-line" d="M5,0h30" style="fill: none; stroke: rgb(136, 114, 205); stroke-opacity: 1; stroke-width: 5px;"/></g><g class="legendsymbols"><g class="legendpoints"/></g></g><rect class="legendtoggle" x="0" y="-10.6" width="98.59375" height="21.2" style="fill: rgb(0, 0, 0); fill-opacity: 0;"/></g></g><g class="groups" transform=""><g class="traces" transform="translate(0,36.8)" style="opacity: 1;"><text class="legendtext" text-anchor="start" x="40" y="5.46" style="font-family: 'Open Sans', verdana, arial, sans-serif; font-size: 14px; fill: rgb(0, 0, 0); fill-opacity: 1; white-space: pre;">ct, co</text><g class="layers" style="opacity: 1;"><g class="legendfill"/><g class="legendlines"><path class="js-line" d="M5,0h30" style="fill: none; stroke: rgb(136, 114, 205); stroke-opacity: 1; stroke-dasharray: 5px, 5px; stroke-width: 5px;"/></g><g class="legendsymbols"><g class="legendpoints"/></g></g><rect class="legendtoggle" x="0" y="-10.6" width="98.59375" height="21.2" style="fill: rgb(0, 0, 0); fill-opacity: 0;"/></g></g><g class="groups" transform=""><g class="traces" transform="translate(0,58)" style="opacity: 1;"><text class="legendtext" text-anchor="start" x="40" y="5.46" style="font-family: 'Open Sans', verdana, arial, sans-serif; font-size: 14px; fill: rgb(0, 0, 0); fill-opacity: 1; white-space: pre;">oa, mono</text><g class="layers" style="opacity: 1;"><g class="legendfill"/><g class="legendlines"><path class="js-line" d="M5,0h30" style="fill: none; stroke: rgb(226, 126, 80); stroke-opacity: 1; stroke-width: 5px;"/></g><g class="legendsymbols"><g class="legendpoints"/></g></g><rect class="legendtoggle" x="0" y="-10.6" width="98.59375" height="21.2" style="fill: rgb(0, 0, 0); fill-opacity: 0;"/></g></g><g class="groups" transform=""><g class="traces" transform="translate(0,79.19999999999999)" style="opacity: 1;"><text class="legendtext" text-anchor="start" x="40" y="5.46" style="font-family: 'Open Sans', verdana, arial, sans-serif; font-size: 14px; fill: rgb(0, 0, 0); fill-opacity: 1; white-space: pre;">oa, co</text><g class="layers" style="opacity: 1;"><g class="legendfill"/><g class="legendlines"><path class="js-line" d="M5,0h30" style="fill: none; stroke: rgb(226, 126, 80); stroke-opacity: 1; stroke-dasharray: 5px, 5px; stroke-width: 5px;"/></g><g class="legendsymbols"><g class="legendpoints"/></g></g><rect class="legendtoggle" x="0" y="-10.6" width="98.59375" height="21.2" style="fill: rgb(0, 0, 0); fill-opacity: 0;"/></g></g></g><rect class="scrollbar" rx="20" ry="3" width="0" height="0" x="0" y="0" style="fill: rgb(128, 139, 164); fill-opacity: 1;"/></g><g class="g-gtitle"/><g class="g-xtitle"><text class="xtitle" x="174.49" y="289.2125" text-anchor="middle" style="font-family: 'Open Sans', verdana, arial, sans-serif; font-size: 17px; fill: rgb(0, 0, 0); opacity: 1; font-weight: normal; white-space: pre;">time [h]</text></g><g class="g-x2title"/><g class="g-ytitle" transform="translate(4.228515625,0)"><text class="ytitle" transform="rotate(-90,10.771874999999994,146)" x="10.771874999999994" y="146" text-anchor="middle" style="font-family: 'Open Sans', verdana, arial, sans-serif; font-size: 17px; fill: rgb(0, 0, 0); opacity: 1; font-weight: normal; white-space: pre;">CFUs/mL</text></g><g class="g-y2title"/><g class="annotation" data-index="0" style="opacity: 1;"><g class="annotation-text-g" transform="rotate(0,174.49,40)"><g class="cursor-pointer" transform="translate(118,30)"><rect class="bg" x="0.5" y="0.5" width="111" height="19" style="stroke-width: 1px; stroke: rgb(0, 0, 0); stroke-opacity: 0; fill: rgb(0, 0, 0); fill-opacity: 0;"/><text class="annotation-text" text-anchor="middle" x="55.890625" y="15" style="font-family: 'Open Sans', verdana, arial, sans-serif; font-size: 14px; fill: rgb(0, 0, 0); fill-opacity: 1; white-space: pre;">media=Citric acid</text></g></g></g><g class="annotation" data-index="1" style="opacity: 1;"><g class="annotation-text-g" transform="rotate(0,379.51,39.99999999999999)"><g class="cursor-pointer" transform="translate(287,30)"><rect class="bg" x="0.5" y="0.5" width="185" height="19" style="stroke-width: 1px; stroke: rgb(0, 0, 0); stroke-opacity: 0; fill: rgb(0, 0, 0); fill-opacity: 0;"/><text class="annotation-text" text-anchor="middle" x="92.65625" y="15" style="font-family: 'Open Sans', verdana, arial, sans-serif; font-size: 14px; fill: rgb(0, 0, 0); fill-opacity: 1; white-space: pre;">media=Citric acid + Thiamine</text></g></g></g></g></svg>