<svg class="main-svg" xmlns="http://www.w3.org/2000/svg" xmlns:xlink="http://www.w3.org/1999/xlink" width="120" height="195" style="" viewBox="0 0 120 195"><rect x="0" y="0" width="120" height="195" style="fill: rgb(255, 255, 255); fill-opacity: 1;"/><defs id="defs-627886"><g class="clips"><clipPath id="clip627886xyplot" class="plotclip"><rect width="90" height="85"/></clipPath><clipPath class="axesclip" id="clip627886x"><rect x="30" y="0" width="90" height="195"/></clipPath><clipPath class="axesclip" id="clip627886y"><rect x="0" y="30" width="120" height="85"/></clipPath><clipPath class="axesclip" id="clip627886xy"><rect x="30" y="30" width="90" height="85"/></clipPath></g><g class="gradients"/><g class="patterns"/></defs><g class="bglayer"/><g class="layer-below"><g class="imagelayer"/><g class="shapelayer"/></g><g class="cartesianlayer"><g class="subplot xy"><g class="layer-subplot"><g class="shapelayer"/><g class="imagelayer"/></g><g class="minor-gridlayer"><g class="x"/><g class="y"/></g><g class="gridlayer"><g class="x"><path class="xgrid crisp" transform="translate(39.5,0)" d="M0,30v85" style="stroke: rgb(0, 0, 0); stroke-opacity: 1; stroke-width: 0.5px;"/><path class="xgrid crisp" transform="translate(57.39,0)" d="M0,30v85" style="stroke: rgb(0, 0, 0); stroke-opacity: 1; stroke-width: 0.5px;"/><path class="xgrid crisp" transform="translate(75.28,0)" d="M0,30v85" style="stroke: rgb(0, 0, 0); stroke-opacity: 1; stroke-width: 0.5px;"/><path class="xgrid crisp" transform="translate(93.17,0)" d="M0,30v85" style="stroke: rgb(0, 0, 0); stroke-opacity: 1; stroke-width: 0.5px;"/><path class="xgrid crisp" transform="translate(111.06,0)" d="M0,30v85" style="stroke: rgb(0, 0, 0); stroke-opacity: 1; stroke-width: 0.5px;"/></g><g class="y"><path class="ygrid crisp" transform="translate(0,113.77)" d="M30,0h90" style="stroke: rgb(0, 0, 0); stroke-opacity: 1; stroke-width: 0.5px;"/><path class="ygrid crisp" transform="translate(0,98.16)" d="M30,0h90" style="stroke: rgb(0, 0, 0); stroke-opacity: 1; stroke-width: 0.5px;"/><path class="ygrid crisp" transform="translate(0,86.35)" d="M30,0h90" style="stroke: rgb(0, 0, 0); stroke-opacity: 1; stroke-width: 0.5px;"/><path class="ygrid crisp" transform="translate(0,74.55)" d="M30,0h90" style="stroke: rgb(0, 0, 0); stroke-opacity: 1; stroke-width: 0.5px;"/><path class="ygrid crisp" transform="translate(0,58.94)" d="M30,0h90" style="stroke: rgb(0, 0, 0); stroke-opacity: 1; stroke-width: 0.5px;"/><path class="ygrid crisp" transform="translate(0,47.129999999999995)" d="M30,0h90" style="stroke: rgb(0, 0, 0); stroke-opacity: 1; stroke-width: 0.5px;"/><path class="ygrid crisp" transform="translate(0,35.33)" d="M30,0h90" style="stroke: rgb(0, 0, 0); stroke-opacity: 1; stroke-width: 0.5px;"/></g></g><g class="zerolinelayer"/><g class="layer-between"><g class="shapelayer"/><g class="imagelayer"/></g><path class="xlines-below"/><path class="ylines-below"/><g class="overlines-below"/><g class="xaxislayer-below"/><g class="yaxislayer-below"/><g class="overaxes-below"/><g class="overplot"><g class="xy" transform="translate(30,30)" clip-path="url(#clip627886xyplot)"><g class="boxlayer mlayer"><g class="trace boxes" style="opacity: 1;"><path class="box" d="M23.01,74.53H31.77M23.01,80.75H31.77V69.98H23.01ZM27.39,80.75V80.75M27.39,69.98V69.98M25.2,80.75H29.58M25.2,69.98H29.58" style="vector-effect: none; stroke-width: 1px; stroke: rgb(117, 112, 179); stroke-opacity: 1; fill: rgb(117, 112, 179); fill-opacity: 0.5;"/><g class="points"><path class="point" transform="translate(29.66,80.75)" d="M2.5,0A2.5,2.5 0 1,1 0,-2.5A2.5,2.5 0 0,1 2.5,0Z" style="opacity: 1; stroke-width: 0px; fill: rgb(117, 112, 179); fill-opacity: 1;"/><path class="point" transform="translate(24.6,69.98)" d="M2.5,0A2.5,2.5 0 1,1 0,-2.5A2.5,2.5 0 0,1 2.5,0Z" style="opacity: 1; stroke-width: 0px; fill: rgb(117, 112, 179); fill-opacity: 1;"/></g><path class="mean" d="M23.01,74.53H31.77" style="fill: none; vector-effect: non-scaling-stroke; stroke-width: 1; stroke-dasharray: 2px, 1px; stroke: rgb(117, 112, 179); stroke-opacity: 1;"/></g><g class="trace boxes" style="opacity: 1;"><path class="box" d="M40.89,9.77H49.66M40.89,10.86H49.66V5.47H40.89ZM45.28,10.86V11.24M45.28,5.47V4.25M43.09,11.24H47.47M43.09,4.25H47.47" style="vector-effect: none; stroke-width: 1px; stroke: rgb(217, 95, 2); stroke-opacity: 1; fill: rgb(217, 95, 2); fill-opacity: 0.5;"/><g class="points"><path class="point" transform="translate(47.55,11.24)" d="M2.5,0A2.5,2.5 0 1,1 0,-2.5A2.5,2.5 0 0,1 2.5,0Z" style="opacity: 1; stroke-width: 0px; fill: rgb(217, 95, 2); fill-opacity: 1;"/><path class="point" transform="translate(42.48,9.77)" d="M2.5,0A2.5,2.5 0 1,1 0,-2.5A2.5,2.5 0 0,1 2.5,0Z" style="opacity: 1; stroke-width: 0px; fill: rgb(217, 95, 2); fill-opacity: 1;"/><path class="point" transform="translate(48.68,4.25)" d="M2.5,0A2.5,2.5 0 1,1 0,-2.5A2.5,2.5 0 0,1 2.5,0Z" style="opacity: 1; stroke-width: 0px; fill: rgb(217, 95, 2); fill-opacity: 1;"/></g><path class="mean" d="M40.89,8.15H49.66" style="fill: none; vector-effect: non-scaling-stroke; stroke-width: 1; stroke-dasharray: 2px, 1px; stroke: rgb(217, 95, 2); stroke-opacity: 1;"/></g><g class="trace boxes" style="opacity: 1;"><path class="box" d="M76.67,69.39H85.44M76.67,69.39H85.44V69.39H76.67ZM81.06,69.39V69.39M81.06,69.39V69.39M78.86,69.39H83.25M78.86,69.39H83.25" style="vector-effect: none; stroke-width: 1px; stroke: rgb(217, 95, 2); stroke-opacity: 1; fill: rgb(217, 95, 2); fill-opacity: 0.5;"/><g class="points"><path class="point" transform="translate(83.33,69.39)" d="M2.5,0A2.5,2.5 0 1,1 0,-2.5A2.5,2.5 0 0,1 2.5,0Z" style="opacity: 1; stroke-width: 0px; fill: rgb(217, 95, 2); fill-opacity: 1;"/></g><path class="mean" d="M76.67,69.39H85.44" style="fill: none; vector-effect: non-scaling-stroke; stroke-width: 1; stroke-dasharray: 2px, 1px; stroke: rgb(217, 95, 2); stroke-opacity: 1;"/></g></g></g></g><path class="xlines-above crisp" d="M0,0" style="fill: none;"/><path class="ylines-above crisp" d="M0,0" style="fill: none;"/><g class="overlines-above"/><g class="xaxislayer-above"><g class="xtick"><text text-anchor="start" x="0" y="127" transform="translate(39.5,0) rotate(90,0,121.5)" style="font-family: 'Open Sans', verdana, arial, sans-serif; font-size: 11px; fill: rgb(0, 0, 0); fill-opacity: 1; white-space: pre; opacity: 1;">Media</text></g><g class="xtick"><text text-anchor="start" x="0" y="127" transform="translate(57.39,0) rotate(90,0,121.5)" style="font-family: 'Open Sans', verdana, arial, sans-serif; font-size: 11px; fill: rgb(0, 0, 0); fill-opacity: 1; white-space: pre; opacity: 1;">Ct Chemostat</text></g><g class="xtick"><text text-anchor="start" x="0" y="127" transform="translate(75.28,0) rotate(90,0,121.5)" style="font-family: 'Open Sans', verdana, arial, sans-serif; font-size: 11px; fill: rgb(0, 0, 0); fill-opacity: 1; white-space: pre; opacity: 1;">Oa Chemostat</text></g><g class="xtick"><text text-anchor="start" x="0" y="127" transform="translate(93.17,0) rotate(90,0,121.5)" style="font-family: 'Open Sans', verdana, arial, sans-serif; font-size: 11px; fill: rgb(0, 0, 0); fill-opacity: 1; white-space: pre; opacity: 1;">Ct in Oa</text></g><g class="xtick"><text text-anchor="start" x="0" y="127" transform="translate(111.06,0) rotate(90,0,121.5)" style="font-family: 'Open Sans', verdana, arial, sans-serif; font-size: 11px; fill: rgb(0, 0, 0); fill-opacity: 1; white-space: pre; opacity: 1;">Oa in Ct</text></g></g><g class="yaxislayer-above"><g class="ytick"><text text-anchor="end" x="29" y="2.8874999999999997" transform="translate(0,113.77)" style="font-family: 'Open Sans', verdana, arial, sans-serif; font-size: 8.25px; fill: rgb(0, 0, 0); fill-opacity: 1; white-space: pre; opacity: 1;">2</text></g><g class="ytick"><text text-anchor="end" x="29" y="2.8874999999999997" style="font-family: 'Open Sans', verdana, arial, sans-serif; font-size: 8.25px; fill: rgb(0, 0, 0); fill-opacity: 1; white-space: pre; opacity: 1;" transform="translate(0,98.16)">5</text></g><g class="ytick"><text text-anchor="end" x="29" y="3.8499999999999996" style="font-family: 'Open Sans', verdana, arial, sans-serif; font-size: 11px; fill: rgb(0, 0, 0); fill-opacity: 1; white-space: pre; opacity: 1;" transform="translate(0,86.35)">0.1</text></g><g class="ytick"><text text-anchor="end" x="29" y="2.8874999999999997" style="font-family: 'Open Sans', verdana, arial, sans-serif; font-size: 8.25px; fill: rgb(0, 0, 0); fill-opacity: 1; white-space: pre; opacity: 1;" transform="translate(0,74.55)">2</text></g><g class="ytick"><text text-anchor="end" x="29" y="2.8874999999999997" style="font-family: 'Open Sans', verdana, arial, sans-serif; font-size: 8.25px; fill: rgb(0, 0, 0); fill-opacity: 1; white-space: pre; opacity: 1;" transform="translate(0,58.94)">5</text></g><g class="ytick"><text text-anchor="end" x="29" y="3.8499999999999996" style="font-family: 'Open Sans', verdana, arial, sans-serif; font-size: 11px; fill: rgb(0, 0, 0); fill-opacity: 1; white-space: pre; opacity: 1;" transform="translate(0,47.129999999999995)">1</text></g><g class="ytick"><text text-anchor="end" x="29" y="2.8874999999999997" style="font-family: 'Open Sans', verdana, arial, sans-serif; font-size: 8.25px; fill: rgb(0, 0, 0); fill-opacity: 1; white-space: pre; opacity: 1;" transform="translate(0,35.33)">2</text></g></g><g class="overaxes-above"/></g></g><g class="polarlayer"/><g class="smithlayer"/><g class="ternarylayer"/><g class="geolayer"/><g class="funnelarealayer"/><g class="pielayer"/><g class="iciclelayer"/><g class="treemaplayer"/><g class="sunburstlayer"/><g class="glimages"/><defs id="topdefs-627886"><g class="clips"/></defs><g class="layer-above"><g class="imagelayer"/><g class="shapelayer"/></g><g class="infolayer"><g class="g-gtitle"><text class="gtitle" x="6" y="15" text-anchor="start" dy="0em" style="opacity: 1; font-family: 'Open Sans', verdana, arial, sans-serif; font-size: 11px; fill: rgb(0, 0, 0); fill-opacity: 1; white-space: pre;">Cis-Aconitate</text></g><g class="g-xtitle"/><g class="g-ytitle" transform="translate(1.865234375,0)"><text class="ytitle" transform="rotate(-90,10.134374999999999,72.5)" x="10.134374999999999" y="72.5" text-anchor="middle" style="opacity: 1; font-family: 'Open Sans', verdana, arial, sans-serif; font-size: 11px; fill: rgb(0, 0, 0); fill-opacity: 1; white-space: pre;">Concentration [µM]</text></g><g class="annotation" data-index="0" style="opacity: 1;"><g class="annotation-text-g" transform="rotate(90,39.5,77.13)"><g class="cursor-pointer" transform="translate(22,68)"><rect class="bg" x="0.5" y="0.5" width="35" height="18" style="stroke-width: 1px; stroke: rgb(0, 0, 0); stroke-opacity: 0; fill: rgb(255, 255, 255); fill-opacity: 1;"/><text class="annotation-text" text-anchor="middle" x="18" y="14" style="font-family: 'Open Sans', verdana, arial, sans-serif; font-size: 11px; fill: rgb(0, 0, 0); fill-opacity: 1; white-space: pre;">&#60; LOQ</text></g></g></g><g class="annotation" data-index="1" style="opacity: 1;"><g class="annotation-text-g" transform="rotate(90,93.17,77.13)"><g class="cursor-pointer" transform="translate(75,68)"><rect class="bg" x="0.5" y="0.5" width="35" height="18" style="stroke-width: 1px; stroke: rgb(0, 0, 0); stroke-opacity: 0; fill: rgb(255, 255, 255); fill-opacity: 1;"/><text class="annotation-text" text-anchor="middle" x="18" y="14" style="font-family: 'Open Sans', verdana, arial, sans-serif; font-size: 11px; fill: rgb(0, 0, 0); fill-opacity: 1; white-space: pre;">&#60; LOQ</text></g></g></g></g></svg>