<svg class="main-svg" xmlns="http://www.w3.org/2000/svg" xmlns:xlink="http://www.w3.org/1999/xlink" width="150" height="225" style="" viewBox="0 0 150 225"><rect x="0" y="0" width="150" height="225" style="fill: rgb(255, 255, 255); fill-opacity: 1;"/><defs id="defs-e8bb15"><g class="clips"><clipPath id="clipe8bb15xyplot" class="plotclip"><rect width="119" height="123"/></clipPath><clipPath class="axesclip" id="clipe8bb15x"><rect x="30" y="0" width="119" height="225"/></clipPath><clipPath class="axesclip" id="clipe8bb15y"><rect x="0" y="20" width="150" height="123"/></clipPath><clipPath class="axesclip" id="clipe8bb15xy"><rect x="30" y="20" width="119" height="123"/></clipPath></g><g class="gradients"/><g class="patterns"/></defs><g class="bglayer"/><g class="layer-below"><g class="imagelayer"/><g class="shapelayer"/></g><g class="cartesianlayer"><g class="subplot xy"><g class="layer-subplot"><g class="shapelayer"/><g class="imagelayer"/></g><g class="minor-gridlayer"><g class="x"/><g class="y"/></g><g class="gridlayer"><g class="x"><path class="xgrid crisp" transform="translate(39.5,0)" d="M0,20v123" style="stroke: rgb(128, 128, 128); stroke-opacity: 1; stroke-width: 0.2px;"/><path class="xgrid crisp" transform="translate(63.83,0)" d="M0,20v123" style="stroke: rgb(128, 128, 128); stroke-opacity: 1; stroke-width: 0.2px;"/><path class="xgrid crisp" transform="translate(88.17,0)" d="M0,20v123" style="stroke: rgb(128, 128, 128); stroke-opacity: 1; stroke-width: 0.2px;"/><path class="xgrid crisp" transform="translate(112.5,0)" d="M0,20v123" style="stroke: rgb(128, 128, 128); stroke-opacity: 1; stroke-width: 0.2px;"/><path class="xgrid crisp" transform="translate(136.82999999999998,0)" d="M0,20v123" style="stroke: rgb(128, 128, 128); stroke-opacity: 1; stroke-width: 0.2px;"/></g><g class="y"><path class="ygrid crisp" transform="translate(0,141.20999999999998)" d="M30,0h119" style="stroke: rgb(128, 128, 128); stroke-opacity: 1; stroke-width: 0.2px;"/><path class="ygrid crisp" transform="translate(0,118.63)" d="M30,0h119" style="stroke: rgb(128, 128, 128); stroke-opacity: 1; stroke-width: 0.2px;"/><path class="ygrid crisp" transform="translate(0,101.55)" d="M30,0h119" style="stroke: rgb(128, 128, 128); stroke-opacity: 1; stroke-width: 0.2px;"/><path class="ygrid crisp" transform="translate(0,84.46)" d="M30,0h119" style="stroke: rgb(128, 128, 128); stroke-opacity: 1; stroke-width: 0.2px;"/><path class="ygrid crisp" transform="translate(0,61.88)" d="M30,0h119" style="stroke: rgb(128, 128, 128); stroke-opacity: 1; stroke-width: 0.2px;"/><path class="ygrid crisp" transform="translate(0,44.79)" d="M30,0h119" style="stroke: rgb(128, 128, 128); stroke-opacity: 1; stroke-width: 0.2px;"/><path class="ygrid crisp" transform="translate(0,27.71)" d="M30,0h119" style="stroke: rgb(128, 128, 128); stroke-opacity: 1; stroke-width: 0.2px;"/></g></g><g class="zerolinelayer"/><g class="layer-between"><g class="shapelayer"/><g class="imagelayer"/></g><path class="xlines-below"/><path class="ylines-below"/><g class="overlines-below"/><g class="xaxislayer-below"/><g class="yaxislayer-below"/><g class="overaxes-below"/><g class="overplot"><g class="xy" transform="translate(30,20)" clip-path="url(#clipe8bb15xyplot)"><g class="boxlayer mlayer"><g class="trace boxes" style="opacity: 1;"><path class="box" d="M27.87,107.85H39.79M27.87,116.85H39.79V101.27H27.87ZM33.83,116.85V116.85M33.83,101.27V101.27M30.85,116.85H36.81M30.85,101.27H36.81" style="vector-effect: none; stroke-width: 1px; stroke: rgb(117, 112, 179); stroke-opacity: 1; fill: rgb(117, 112, 179); fill-opacity: 0.5;"/><g class="points"><path class="point" transform="translate(36.93,116.85)" d="M2.5,0A2.5,2.5 0 1,1 0,-2.5A2.5,2.5 0 0,1 2.5,0Z" style="opacity: 1; stroke-width: 0px; fill: rgb(117, 112, 179); fill-opacity: 1;"/><path class="point" transform="translate(30.03,101.27)" d="M2.5,0A2.5,2.5 0 1,1 0,-2.5A2.5,2.5 0 0,1 2.5,0Z" style="opacity: 1; stroke-width: 0px; fill: rgb(117, 112, 179); fill-opacity: 1;"/></g><path class="mean" d="M27.87,107.85H39.79" style="fill: none; vector-effect: non-scaling-stroke; stroke-width: 1; stroke-dasharray: 2px, 1px; stroke: rgb(117, 112, 179); stroke-opacity: 1;"/></g><g class="trace boxes" style="opacity: 1;"><path class="box" d="M52.21,14.13H64.13M52.21,15.71H64.13V7.92H52.21ZM58.17,15.71V16.26M58.17,7.92V6.15M55.19,16.26H61.15M55.19,6.15H61.15" style="vector-effect: none; stroke-width: 1px; stroke: rgb(217, 95, 2); stroke-opacity: 1; fill: rgb(217, 95, 2); fill-opacity: 0.5;"/><g class="points"><path class="point" transform="translate(61.26,16.26)" d="M2.5,0A2.5,2.5 0 1,1 0,-2.5A2.5,2.5 0 0,1 2.5,0Z" style="opacity: 1; stroke-width: 0px; fill: rgb(217, 95, 2); fill-opacity: 1;"/><path class="point" transform="translate(54.37,14.13)" d="M2.5,0A2.5,2.5 0 1,1 0,-2.5A2.5,2.5 0 0,1 2.5,0Z" style="opacity: 1; stroke-width: 0px; fill: rgb(217, 95, 2); fill-opacity: 1;"/><path class="point" transform="translate(62.79,6.15)" d="M2.5,0A2.5,2.5 0 1,1 0,-2.5A2.5,2.5 0 0,1 2.5,0Z" style="opacity: 1; stroke-width: 0px; fill: rgb(217, 95, 2); fill-opacity: 1;"/></g><path class="mean" d="M52.21,11.79H64.13" style="fill: none; vector-effect: non-scaling-stroke; stroke-width: 1; stroke-dasharray: 2px, 1px; stroke: rgb(217, 95, 2); stroke-opacity: 1;"/></g><g class="trace boxes" style="opacity: 1;"><path class="box" d="M100.87,100.41H112.8M100.87,100.41H112.8V100.41H100.87ZM106.83,100.41V100.41M106.83,100.41V100.41M103.85,100.41H109.81M103.85,100.41H109.81" style="vector-effect: none; stroke-width: 1px; stroke: rgb(217, 95, 2); stroke-opacity: 1; fill: rgb(217, 95, 2); fill-opacity: 0.5;"/><g class="points"><path class="point" transform="translate(109.93,100.41)" d="M2.5,0A2.5,2.5 0 1,1 0,-2.5A2.5,2.5 0 0,1 2.5,0Z" style="opacity: 1; stroke-width: 0px; fill: rgb(217, 95, 2); fill-opacity: 1;"/></g><path class="mean" d="M100.87,100.41H112.8" style="fill: none; vector-effect: non-scaling-stroke; stroke-width: 1; stroke-dasharray: 2px, 1px; stroke: rgb(217, 95, 2); stroke-opacity: 1;"/></g></g></g></g><path class="xlines-above crisp" d="M29.5,143.25H149.5M29.5,19.75H149.5" style="fill: none; stroke-width: 0.5px; stroke: rgb(0, 0, 0); stroke-opacity: 1;"/><path class="ylines-above crisp" d="M29.75,20V143M149.25,20V143" style="fill: none; stroke-width: 0.5px; stroke: rgb(0, 0, 0); stroke-opacity: 1;"/><g class="overlines-above"/><g class="xaxislayer-above"><g class="xtick"><text text-anchor="start" x="0" y="156.7" transform="translate(39.5,0) rotate(90,0,151.2)" style="font-family: 'Open Sans', verdana, arial, sans-serif; font-size: 11px; fill: rgb(0, 0, 0); fill-opacity: 1; white-space: pre; opacity: 1;">Media</text></g><g class="xtick"><text text-anchor="start" x="0" y="156.7" transform="translate(63.83,0) rotate(90,0,151.2)" style="font-family: 'Open Sans', verdana, arial, sans-serif; font-size: 11px; fill: rgb(0, 0, 0); fill-opacity: 1; white-space: pre; opacity: 1;">Ct Chemostat</text></g><g class="xtick"><text text-anchor="start" x="0" y="156.7" transform="translate(88.17,0) rotate(90,0,151.2)" style="font-family: 'Open Sans', verdana, arial, sans-serif; font-size: 11px; fill: rgb(0, 0, 0); fill-opacity: 1; white-space: pre; opacity: 1;">Oa Chemostat</text></g><g class="xtick"><text text-anchor="start" x="0" y="156.7" transform="translate(112.5,0) rotate(90,0,151.2)" style="font-family: 'Open Sans', verdana, arial, sans-serif; font-size: 11px; fill: rgb(0, 0, 0); fill-opacity: 1; white-space: pre; opacity: 1;">Ct in Oa</text></g><g class="xtick"><text text-anchor="start" x="0" y="156.7" transform="translate(136.82999999999998,0) rotate(90,0,151.2)" style="font-family: 'Open Sans', verdana, arial, sans-serif; font-size: 11px; fill: rgb(0, 0, 0); fill-opacity: 1; white-space: pre; opacity: 1;">Oa in Ct</text></g></g><g class="yaxislayer-above"><path class="ytick ticks crisp" d="M30,0h5" transform="translate(0,141.20999999999998)" style="stroke: rgb(0, 0, 0); stroke-opacity: 1; stroke-width: 0.5px;"/><path class="ytick ticks crisp" d="M30,0h5" transform="translate(0,118.63)" style="stroke: rgb(0, 0, 0); stroke-opacity: 1; stroke-width: 0.5px;"/><path class="ytick ticks crisp" d="M30,0h5" transform="translate(0,101.55)" style="stroke: rgb(0, 0, 0); stroke-opacity: 1; stroke-width: 0.5px;"/><path class="ytick ticks crisp" d="M30,0h5" transform="translate(0,84.46)" style="stroke: rgb(0, 0, 0); stroke-opacity: 1; stroke-width: 0.5px;"/><path class="ytick ticks crisp" d="M30,0h5" transform="translate(0,61.88)" style="stroke: rgb(0, 0, 0); stroke-opacity: 1; stroke-width: 0.5px;"/><path class="ytick ticks crisp" d="M30,0h5" transform="translate(0,44.79)" style="stroke: rgb(0, 0, 0); stroke-opacity: 1; stroke-width: 0.5px;"/><path class="ytick ticks crisp" d="M30,0h5" transform="translate(0,27.71)" style="stroke: rgb(0, 0, 0); stroke-opacity: 1; stroke-width: 0.5px;"/><g class="ytick"><text text-anchor="end" x="27.3" y="2.8874999999999997" transform="translate(0,141.20999999999998)" style="font-family: 'Open Sans', verdana, arial, sans-serif; font-size: 8.25px; fill: rgb(0, 0, 0); fill-opacity: 1; white-space: pre; opacity: 1;">2</text></g><g class="ytick"><text text-anchor="end" x="27.3" y="2.8874999999999997" style="font-family: 'Open Sans', verdana, arial, sans-serif; font-size: 8.25px; fill: rgb(0, 0, 0); fill-opacity: 1; white-space: pre; opacity: 1;" transform="translate(0,118.63)">5</text></g><g class="ytick"><text text-anchor="end" x="27.3" y="3.8499999999999996" style="font-family: 'Open Sans', verdana, arial, sans-serif; font-size: 11px; fill: rgb(0, 0, 0); fill-opacity: 1; white-space: pre; opacity: 1;" transform="translate(0,101.55)">0.1</text></g><g class="ytick"><text text-anchor="end" x="27.3" y="2.8874999999999997" style="font-family: 'Open Sans', verdana, arial, sans-serif; font-size: 8.25px; fill: rgb(0, 0, 0); fill-opacity: 1; white-space: pre; opacity: 1;" transform="translate(0,84.46)">2</text></g><g class="ytick"><text text-anchor="end" x="27.3" y="2.8874999999999997" style="font-family: 'Open Sans', verdana, arial, sans-serif; font-size: 8.25px; fill: rgb(0, 0, 0); fill-opacity: 1; white-space: pre; opacity: 1;" transform="translate(0,61.88)">5</text></g><g class="ytick"><text text-anchor="end" x="27.3" y="3.8499999999999996" style="font-family: 'Open Sans', verdana, arial, sans-serif; font-size: 11px; fill: rgb(0, 0, 0); fill-opacity: 1; white-space: pre; opacity: 1;" transform="translate(0,44.79)">1</text></g><g class="ytick"><text text-anchor="end" x="27.3" y="2.8874999999999997" style="font-family: 'Open Sans', verdana, arial, sans-serif; font-size: 8.25px; fill: rgb(0, 0, 0); fill-opacity: 1; white-space: pre; opacity: 1;" transform="translate(0,27.71)">2</text></g></g><g class="overaxes-above"/></g></g><g class="polarlayer"/><g class="smithlayer"/><g class="ternarylayer"/><g class="geolayer"/><g class="funnelarealayer"/><g class="pielayer"/><g class="iciclelayer"/><g class="treemaplayer"/><g class="sunburstlayer"/><g class="glimages"/><defs id="topdefs-e8bb15"><g class="clips"/></defs><g class="layer-above"><g class="imagelayer"/><g class="shapelayer"/></g><g class="infolayer"><g class="g-gtitle"><text class="gtitle" x="7.5" y="10" text-anchor="start" dy="0em" style="opacity: 1; font-family: 'Open Sans', verdana, arial, sans-serif; font-size: 11px; fill: rgb(0, 0, 0); fill-opacity: 1; white-space: pre;">Cis-Aconitate</text></g><g class="g-xtitle"/><g class="g-ytitle" transform="translate(3.818359375,0)"><text class="ytitle" transform="rotate(-90,8.181249999999999,81.5)" x="8.181249999999999" y="81.5" text-anchor="middle" style="opacity: 1; font-family: 'Open Sans', verdana, arial, sans-serif; font-size: 11px; fill: rgb(0, 0, 0); fill-opacity: 1; white-space: pre;">Concentration [µM]</text></g><g class="annotation" data-index="0" style="opacity: 1;"><g class="annotation-text-g" transform="rotate(90,39.5,74.78999999999999)"><g class="cursor-pointer" transform="translate(22,65)"><rect class="bg" x="0.5" y="0.5" width="35" height="18" style="stroke-width: 1px; stroke: rgb(0, 0, 0); stroke-opacity: 0; fill: rgb(255, 255, 255); fill-opacity: 1;"/><text class="annotation-text" text-anchor="middle" x="18" y="14" style="font-family: 'Open Sans', verdana, arial, sans-serif; font-size: 11px; fill: rgb(0, 0, 0); fill-opacity: 1; white-space: pre;">&#60; LOQ</text></g></g></g><g class="annotation" data-index="1" style="opacity: 1;"><g class="annotation-text-g" transform="rotate(90,112.5,74.78999999999999)"><g class="cursor-pointer" transform="translate(95,65)"><rect class="bg" x="0.5" y="0.5" width="35" height="18" style="stroke-width: 1px; stroke: rgb(0, 0, 0); stroke-opacity: 0; fill: rgb(255, 255, 255); fill-opacity: 1;"/><text class="annotation-text" text-anchor="middle" x="18" y="14" style="font-family: 'Open Sans', verdana, arial, sans-serif; font-size: 11px; fill: rgb(0, 0, 0); fill-opacity: 1; white-space: pre;">&#60; LOQ</text></g></g></g></g></svg>