<svg class="main-svg" xmlns="http://www.w3.org/2000/svg" xmlns:xlink="http://www.w3.org/1999/xlink" width="150" height="225" style="" viewBox="0 0 150 225"><rect x="0" y="0" width="150" height="225" style="fill: rgb(255, 255, 255); fill-opacity: 1;"/><defs id="defs-ceb523"><g class="clips"><clipPath id="clipceb523xyplot" class="plotclip"><rect width="109" height="144"/></clipPath><clipPath class="axesclip" id="clipceb523x"><rect x="40" y="0" width="109" height="225"/></clipPath><clipPath class="axesclip" id="clipceb523y"><rect x="0" y="1" width="150" height="144"/></clipPath><clipPath class="axesclip" id="clipceb523xy"><rect x="40" y="1" width="109" height="144"/></clipPath></g><g class="gradients"/><g class="patterns"/></defs><g class="bglayer"/><g class="layer-below"><g class="imagelayer"/><g class="shapelayer"/></g><g class="cartesianlayer"><g class="subplot xy"><g class="layer-subplot"><g class="shapelayer"/><g class="imagelayer"/></g><g class="minor-gridlayer"><g class="x"/><g class="y"/></g><g class="gridlayer"><g class="x"><path class="xgrid crisp" transform="translate(53.63,0)" d="M0,1v144" style="stroke: rgb(128, 128, 128); stroke-opacity: 1; stroke-width: 0.2px;"/><path class="xgrid crisp" transform="translate(80.88,0)" d="M0,1v144" style="stroke: rgb(128, 128, 128); stroke-opacity: 1; stroke-width: 0.2px;"/><path class="xgrid crisp" transform="translate(108.13,0)" d="M0,1v144" style="stroke: rgb(128, 128, 128); stroke-opacity: 1; stroke-width: 0.2px;"/><path class="xgrid crisp" transform="translate(135.38,0)" d="M0,1v144" style="stroke: rgb(128, 128, 128); stroke-opacity: 1; stroke-width: 0.2px;"/></g><g class="y"><path class="ygrid crisp" transform="translate(0,134.49)" d="M40,0h109" style="stroke: rgb(128, 128, 128); stroke-opacity: 1; stroke-width: 0.2px;"/><path class="ygrid crisp" transform="translate(0,95.74)" d="M40,0h109" style="stroke: rgb(128, 128, 128); stroke-opacity: 1; stroke-width: 0.2px;"/><path class="ygrid crisp" transform="translate(0,57)" d="M40,0h109" style="stroke: rgb(128, 128, 128); stroke-opacity: 1; stroke-width: 0.2px;"/><path class="ygrid crisp" transform="translate(0,18.26)" d="M40,0h109" style="stroke: rgb(128, 128, 128); stroke-opacity: 1; stroke-width: 0.2px;"/></g></g><g class="zerolinelayer"/><g class="layer-between"><g class="shapelayer"/><g class="imagelayer"/></g><path class="xlines-below"/><path class="ylines-below"/><g class="overlines-below"/><g class="xaxislayer-below"/><g class="yaxislayer-below"/><g class="overaxes-below"/><g class="overplot"><g class="xy" transform="translate(40,1)" clip-path="url(#clipceb523xyplot)"><g class="boxlayer mlayer"><g class="trace boxes" style="opacity: 1;"><path class="box" d="M6.95,54.59H20.3M6.95,58.65H20.3V51.32H6.95ZM13.63,58.65V58.65M13.63,51.32V51.32M10.29,58.65H16.96M10.29,51.32H16.96" style="vector-effect: none; stroke-width: 1px; stroke: rgb(0, 0, 0); stroke-opacity: 1; fill: rgb(0, 0, 0); fill-opacity: 0.5;"/><g class="points"><path class="point" transform="translate(17.09,58.65)" d="M2.5,0A2.5,2.5 0 1,1 0,-2.5A2.5,2.5 0 0,1 2.5,0Z" style="opacity: 1; stroke-width: 0px; fill: rgb(0, 0, 0); fill-opacity: 1;"/><path class="point" transform="translate(9.37,51.32)" d="M2.5,0A2.5,2.5 0 1,1 0,-2.5A2.5,2.5 0 0,1 2.5,0Z" style="opacity: 1; stroke-width: 0px; fill: rgb(0, 0, 0); fill-opacity: 1;"/></g><path class="mean" d="M6.95,54.59H20.3" style="fill: none; vector-effect: non-scaling-stroke; stroke-width: 1; stroke-dasharray: 2px, 1px; stroke: rgb(0, 0, 0); stroke-opacity: 1;"/></g><g class="trace boxes" style="opacity: 1;"><path class="box" d="M34.2,122.59H47.55M34.2,131.72H47.55V121.59H34.2ZM40.88,131.72V136.8M40.88,121.59V121.46M37.54,136.8H44.21M37.54,121.46H44.21" style="vector-effect: none; stroke-width: 1px; stroke: rgb(0, 0, 0); stroke-opacity: 1; fill: rgb(0, 0, 0); fill-opacity: 0.5;"/><g class="points"><path class="point" transform="translate(44.34,136.8)" d="M2.5,0A2.5,2.5 0 1,1 0,-2.5A2.5,2.5 0 0,1 2.5,0Z" style="opacity: 1; stroke-width: 0px; fill: rgb(0, 0, 0); fill-opacity: 1;"/><path class="point" transform="translate(36.62,121.99)" d="M2.5,0A2.5,2.5 0 1,1 0,-2.5A2.5,2.5 0 0,1 2.5,0Z" style="opacity: 1; stroke-width: 0px; fill: rgb(0, 0, 0); fill-opacity: 1;"/><path class="point" transform="translate(46.05,121.46)" d="M2.5,0A2.5,2.5 0 1,1 0,-2.5A2.5,2.5 0 0,1 2.5,0Z" style="opacity: 1; stroke-width: 0px; fill: rgb(0, 0, 0); fill-opacity: 1;"/></g><path class="mean" d="M34.2,125.42H47.55" style="fill: none; vector-effect: non-scaling-stroke; stroke-width: 1; stroke-dasharray: 2px, 1px; stroke: rgb(0, 0, 0); stroke-opacity: 1;"/></g><g class="trace boxes" style="opacity: 1;"><path class="box" d="M61.45,27.6H74.8M61.45,28.6H74.8V16.24H61.45ZM68.13,28.6V28.91M68.13,16.24V13.68M64.79,28.91H71.46M64.79,13.68H71.46" style="vector-effect: none; stroke-width: 1px; stroke: rgb(0, 0, 0); stroke-opacity: 1; fill: rgb(0, 0, 0); fill-opacity: 0.5;"/><g class="points"><path class="point" transform="translate(71.59,28.91)" d="M2.5,0A2.5,2.5 0 1,1 0,-2.5A2.5,2.5 0 0,1 2.5,0Z" style="opacity: 1; stroke-width: 0px; fill: rgb(0, 0, 0); fill-opacity: 1;"/><path class="point" transform="translate(63.87,27.69)" d="M2.5,0A2.5,2.5 0 1,1 0,-2.5A2.5,2.5 0 0,1 2.5,0Z" style="opacity: 1; stroke-width: 0px; fill: rgb(0, 0, 0); fill-opacity: 1;"/><path class="point" transform="translate(73.3,13.68)" d="M2.5,0A2.5,2.5 0 1,1 0,-2.5A2.5,2.5 0 0,1 2.5,0Z" style="opacity: 1; stroke-width: 0px; fill: rgb(0, 0, 0); fill-opacity: 1;"/></g><path class="mean" d="M61.45,21.91H74.8" style="fill: none; vector-effect: non-scaling-stroke; stroke-width: 1; stroke-dasharray: 2px, 1px; stroke: rgb(0, 0, 0); stroke-opacity: 1;"/></g><g class="trace boxes" style="opacity: 1;"><path class="box" d="M88.7,9.82H102.05M88.7,10.82H102.05V7.99H88.7ZM95.38,10.82V10.88M95.38,7.99V7.2M92.04,10.88H98.71M92.04,7.2H98.71" style="vector-effect: none; stroke-width: 1px; stroke: rgb(0, 0, 0); stroke-opacity: 1; fill: rgb(0, 0, 0); fill-opacity: 0.5;"/><g class="points"><path class="point" transform="translate(98.84,10.88)" d="M2.5,0A2.5,2.5 0 1,1 0,-2.5A2.5,2.5 0 0,1 2.5,0Z" style="opacity: 1; stroke-width: 0px; fill: rgb(0, 0, 0); fill-opacity: 1;"/><path class="point" transform="translate(91.12,10.62)" d="M2.5,0A2.5,2.5 0 1,1 0,-2.5A2.5,2.5 0 0,1 2.5,0Z" style="opacity: 1; stroke-width: 0px; fill: rgb(0, 0, 0); fill-opacity: 1;"/><path class="point" transform="translate(100.55,7.2)" d="M2.5,0A2.5,2.5 0 1,1 0,-2.5A2.5,2.5 0 0,1 2.5,0Z" style="opacity: 1; stroke-width: 0px; fill: rgb(0, 0, 0); fill-opacity: 1;"/></g><path class="mean" d="M88.7,9.48H102.05" style="fill: none; vector-effect: non-scaling-stroke; stroke-width: 1; stroke-dasharray: 2px, 1px; stroke: rgb(0, 0, 0); stroke-opacity: 1;"/></g></g></g></g><path class="xlines-above crisp" d="M39.5,145.25H149.5M39.5,0.75H149.5" style="fill: none; stroke-width: 0.5px; stroke: rgb(0, 0, 0); stroke-opacity: 1;"/><path class="ylines-above crisp" d="M39.75,1V145M149.25,1V145" style="fill: none; stroke-width: 0.5px; stroke: rgb(0, 0, 0); stroke-opacity: 1;"/><g class="overlines-above"/><g class="xaxislayer-above"><g class="xtick"><text text-anchor="start" x="0" y="158.7" transform="translate(53.63,0) rotate(90,0,153.2)" style="font-family: 'Open Sans', verdana, arial, sans-serif; font-size: 11px; fill: rgb(0, 0, 0); fill-opacity: 1; white-space: pre; opacity: 1;">Isoleucine</text></g><g class="xtick"><text text-anchor="start" x="0" y="158.7" transform="translate(80.88,0) rotate(90,0,153.2)" style="font-family: 'Open Sans', verdana, arial, sans-serif; font-size: 11px; fill: rgb(0, 0, 0); fill-opacity: 1; white-space: pre; opacity: 1;">Glutamine</text></g><g class="xtick"><text text-anchor="start" x="0" y="158.7" transform="translate(108.13,0) rotate(90,0,153.2)" style="font-family: 'Open Sans', verdana, arial, sans-serif; font-size: 11px; fill: rgb(0, 0, 0); fill-opacity: 1; white-space: pre; opacity: 1;">Lactate</text></g><g class="xtick"><text text-anchor="start" x="0" y="158.7" transform="translate(135.38,0) rotate(90,0,153.2)" style="font-family: 'Open Sans', verdana, arial, sans-serif; font-size: 11px; fill: rgb(0, 0, 0); fill-opacity: 1; white-space: pre; opacity: 1;">Citrate</text></g></g><g class="yaxislayer-above"><g class="ytick"><text text-anchor="end" x="37.3" y="3.8499999999999996" transform="translate(0,134.49)" style="font-family: 'Open Sans', verdana, arial, sans-serif; font-size: 11px; fill: rgb(0, 0, 0); fill-opacity: 1; white-space: pre; opacity: 1;">0.01</text></g><g class="ytick"><text text-anchor="end" x="37.3" y="3.8499999999999996" style="font-family: 'Open Sans', verdana, arial, sans-serif; font-size: 11px; fill: rgb(0, 0, 0); fill-opacity: 1; white-space: pre; opacity: 1;" transform="translate(0,95.74)">0.1</text></g><g class="ytick"><text text-anchor="end" x="37.3" y="3.8499999999999996" style="font-family: 'Open Sans', verdana, arial, sans-serif; font-size: 11px; fill: rgb(0, 0, 0); fill-opacity: 1; white-space: pre; opacity: 1;" transform="translate(0,57)">1</text></g><g class="ytick"><text text-anchor="end" x="37.3" y="3.8499999999999996" style="font-family: 'Open Sans', verdana, arial, sans-serif; font-size: 11px; fill: rgb(0, 0, 0); fill-opacity: 1; white-space: pre; opacity: 1;" transform="translate(0,18.26)">10</text></g></g><g class="overaxes-above"/></g></g><g class="polarlayer"/><g class="smithlayer"/><g class="ternarylayer"/><g class="geolayer"/><g class="funnelarealayer"/><g class="pielayer"/><g class="iciclelayer"/><g class="treemaplayer"/><g class="sunburstlayer"/><g class="glimages"/><defs id="topdefs-ceb523"><g class="clips"/></defs><g class="layer-above"><g class="imagelayer"/><g class="shapelayer"/></g><g class="infolayer"><g class="g-gtitle"/><g class="g-xtitle" transform="translate(0,4.550000000000011)"><text class="xtitle" x="94.5" y="214.1345703125" text-anchor="middle" style="opacity: 1; font-family: 'Open Sans', verdana, arial, sans-serif; font-size: 11px; fill: rgb(0, 0, 0); fill-opacity: 1; white-space: pre;">Metabolite</text></g><g class="g-ytitle" transform="translate(0.099609375,0)"><text class="ytitle" transform="rotate(-90,11.899999999999999,73)" x="11.899999999999999" y="73" text-anchor="middle" style="opacity: 1; font-family: 'Open Sans', verdana, arial, sans-serif; font-size: 11px; fill: rgb(0, 0, 0); fill-opacity: 1; white-space: pre;">Concentration [µM]</text></g></g></svg>