<svg class="main-svg" xmlns="http://www.w3.org/2000/svg" xmlns:xlink="http://www.w3.org/1999/xlink" width="500" height="444.44444444444446" style="" viewBox="0 0 500 444.44444444444446"><rect x="0" y="0" width="500" height="444.44444444444446" style="fill: rgb(153, 153, 153); fill-opacity: 1;"/><defs id="defs-c00851"><g class="clips"><clipPath id="clipc00851xyplot" class="plotclip"><rect width="376" height="181.39"/></clipPath><clipPath id="clipc00851x2y2plot" class="plotclip"><rect width="376" height="181.39"/></clipPath><clipPath class="axesclip" id="clipc00851x"><rect x="50" y="0" width="376" height="444.44444444444446"/></clipPath><clipPath class="axesclip" id="clipc00851y"><rect x="0" y="20" width="500" height="181.39"/></clipPath><clipPath class="axesclip" id="clipc00851xy"><rect x="50" y="20" width="376" height="181.39"/></clipPath><clipPath class="axesclip" id="clipc00851y2"><rect x="0" y="212.61" width="500" height="181.39"/></clipPath><clipPath class="axesclip" id="clipc00851xy2"><rect x="50" y="212.61" width="376" height="181.39"/></clipPath><clipPath class="axesclip" id="clipc00851x2"><rect x="50" y="0" width="376" height="444.44444444444446"/></clipPath><clipPath class="axesclip" id="clipc00851x2y"><rect x="50" y="20" width="376" height="181.39"/></clipPath><clipPath class="axesclip" id="clipc00851x2y2"><rect x="50" y="212.61" width="376" height="181.39"/></clipPath></g><g class="gradients"/><g class="patterns"/></defs><g class="bglayer"/><g class="layer-below"><g class="imagelayer"/><g class="shapelayer"/></g><g class="cartesianlayer"><g class="subplot xy"><g class="layer-subplot"><g class="shapelayer"/><g class="imagelayer"/></g><g class="minor-gridlayer"><g class="x"/><g class="y"/></g><g class="gridlayer"><g class="x"><path class="xgrid crisp" transform="translate(140.32999999999998,0)" d="M0,20v181.39" style="stroke: rgb(0, 0, 0); stroke-opacity: 1; stroke-width: 1px;"/><path class="xgrid crisp" transform="translate(209.35,0)" d="M0,20v181.39" style="stroke: rgb(0, 0, 0); stroke-opacity: 1; stroke-width: 1px;"/><path class="xgrid crisp" transform="translate(278.38,0)" d="M0,20v181.39" style="stroke: rgb(0, 0, 0); stroke-opacity: 1; stroke-width: 1px;"/><path class="xgrid crisp" transform="translate(347.4,0)" d="M0,20v181.39" style="stroke: rgb(0, 0, 0); stroke-opacity: 1; stroke-width: 1px;"/><path class="xgrid crisp" transform="translate(416.43,0)" d="M0,20v181.39" style="stroke: rgb(0, 0, 0); stroke-opacity: 1; stroke-width: 1px;"/></g><g class="y"><path class="ygrid crisp" transform="translate(0,132.61)" d="M50,0h376" style="stroke: rgb(0, 0, 0); stroke-opacity: 1; stroke-width: 1px;"/><path class="ygrid crisp" transform="translate(0,81.55)" d="M50,0h376" style="stroke: rgb(0, 0, 0); stroke-opacity: 1; stroke-width: 1px;"/><path class="ygrid crisp" transform="translate(0,30.490000000000002)" d="M50,0h376" style="stroke: rgb(0, 0, 0); stroke-opacity: 1; stroke-width: 1px;"/></g></g><g class="zerolinelayer"><path class="xzl zl crisp" transform="translate(71.31,0)" d="M0,20v181.39" style="stroke: rgb(0, 0, 0); stroke-opacity: 1; stroke-width: 1px;"/><path class="yzl zl crisp" transform="translate(0,183.67)" d="M50,0h376" style="stroke: rgb(0, 0, 0); stroke-opacity: 1; stroke-width: 1px;"/></g><g class="layer-between"><g class="shapelayer"/><g class="imagelayer"/></g><path class="xlines-below"/><path class="ylines-below"/><g class="overlines-below"/><g class="xaxislayer-below"/><g class="yaxislayer-below"/><g class="overaxes-below"/><g class="overplot"><g class="xy" transform="translate(50,20)" clip-path="url(#clipc00851xyplot)"><g class="scatterlayer mlayer"><g class="trace scatter tracefda725" style="stroke-miterlimit: 2; opacity: 1;"><g class="fills"/><g class="errorbars"/><g class="lines"><path class="js-line" d="M21.31,90.49L22.46,165.71L23.61,167.66L27.06,160.39L28.22,162.55L29.37,160.43L30.52,159.94L33.97,153.88L35.13,153.24L36.28,152.64L37.43,150.84L39.73,148.98L40.88,144.95L42.04,145.39L43.19,144.48L44.34,141.8L45.49,141.1L46.64,139.11L47.79,135.55L48.94,134.52L50.1,132.12L52.4,128.99L53.55,124.49L58.16,114.4L59.31,109.47L63.92,93.61L65.07,91.07L67.37,83.23L68.52,77.66L71.98,65.92L73.13,66.78L76.58,73.08L77.73,75.41L78.89,74.87L80.04,75.59L81.19,76.94L82.34,82.05L83.49,82.57L84.64,85.78L85.8,86.47L86.95,88.4L90.4,93.05L91.55,93.09L96.16,101.47L97.31,101.34L98.46,100.47L99.61,101.62L101.92,103.02L103.07,102.66L104.22,103.83L105.37,103.78L106.52,104.33L107.68,103.85L111.13,107.01L112.28,106.86L113.43,107.76L114.58,106.37L115.74,106.7L116.89,104.77L120.34,106.48L121.49,104.75L122.65,106.16L123.8,106.03L124.95,105.69L126.1,106.86L127.25,107.21L128.4,106.35L130.71,104.87L131.86,105.18L134.16,106.28L135.31,105.79L136.47,105.59L137.62,106.19L139.92,106.76L141.07,106.01L142.22,105.27L143.37,105.65L144.53,107L145.68,106.03L150.28,104.3L151.44,103.39L152.59,103.75L153.74,103L154.89,104.27L156.04,103.66L157.19,105.19L158.35,104.55L160.65,103.06L161.8,105.14L164.1,103.62L165.26,105.09L167.56,105.47L168.71,105.95L171.01,105.59L172.16,105.4L173.32,103.45L174.47,104.93L176.77,103.51L177.92,105.6L180.23,104.64L181.38,105.35L182.53,105.06L183.68,106.03L184.83,105.1L185.98,105.3L187.14,101.11L188.29,102.41L190.59,99.91L191.74,100.09L192.89,99.75L194.05,98.15L198.65,98.75L199.8,97.96L202.11,97.01L203.26,98.4L205.56,97.49L206.71,98.37L209.02,97.05L210.17,96.35L214.77,95.89L215.93,92.41L218.23,89.95L219.38,86.93L222.83,83.95L223.99,84.4L225.14,86.24L226.29,80.53L228.59,74.55L229.74,74.55L230.9,81.02L232.05,78.09L233.2,77.54L234.35,79.25L236.65,77.52L237.81,78.64L238.96,77.44L240.11,79.82L241.26,77.47L242.41,81.57L243.56,79.37L244.72,79.32L245.87,78.7L247.02,80.01L248.17,80.49L249.32,82.48L250.47,82.2L251.62,84.38L252.78,86.85L253.93,80.73L257.38,89L258.53,83.65L260.84,94.84L261.99,91.22L263.14,92.2L264.29,95.25L265.44,92.98L266.6,87.35L267.75,93.96L268.9,95.26L270.05,96.55L271.2,94.23L272.35,96.93L273.51,97.63L275.81,96.65L276.96,99.66L278.11,101.97L279.26,100.98L280.41,99.02L281.57,99.48L282.72,100.3L283.87,104.21L285.02,111.4L286.17,109.68L287.32,108.85L288.48,105.9L290.78,95.97L291.93,94.84L293.08,95.29L294.23,102.37L296.54,112.34L297.69,112.69L299.99,108.78L301.14,109.06L302.3,111.22L303.45,117.91L304.6,117.59L305.75,115.83L306.9,118.77L308.05,125.81L309.2,125.31L310.36,125.93L311.51,126.48L312.66,122.78L317.27,106.64L318.42,106.1L319.57,105.7L320.72,107.71L321.87,110.42L323.02,109.27L325.33,103.21L326.48,102.55L327.63,103.72L328.78,103.38L329.93,102.44L331.09,102.53L332.24,103.12L333.39,109.33L336.84,99.49L338,102.81L342.6,112.16L343.75,108.4L344.9,109.98L346.06,109.18L348.36,111.41L349.51,107.22L350.66,106.6L351.81,104.81L352.97,105.09L354.12,100.69L355.27,55.07" style="vector-effect: none; fill: none; stroke: rgb(79, 79, 79); stroke-opacity: 1; stroke-width: 1.5px; opacity: 1;"/></g><g class="points"/><g class="text"/></g><g class="trace scatter trace3bda87" style="stroke-miterlimit: 2; opacity: 1;"><g class="fills"/><g class="errorbars"/><g class="lines"><path class="js-line" d="M21.31,93.5L22.46,165.01L23.61,161.73L25.91,160.36L27.06,160.05L28.22,161.2L29.37,158.18L30.52,155.44L31.67,156.07L32.82,155.6L33.97,149.43L35.13,150.77L36.28,148.97L37.43,147.2L38.58,147.05L40.88,140.96L42.04,145.58L44.34,136.05L45.49,137.76L46.64,139.78L47.79,132.13L48.95,128.8L50.1,131.25L51.25,128.37L52.4,127.61L54.7,118.35L55.85,117.2L57.01,111.65L58.16,111.76L61.61,104.02L62.76,100.31L63.92,99.18L65.07,94.32L66.22,88.14L67.37,86.08L68.52,83.89L69.67,76.12L71.98,69.29L73.13,70.54L75.43,77.18L76.58,76.9L80.04,77.01L81.19,78.17L82.34,80.8L83.49,81.39L85.8,83.93L86.95,85.5L88.1,85L89.25,85.89L92.71,91.26L93.86,93.34L95.01,93.46L96.16,94.9L97.31,95.27L98.46,94.58L100.77,94.22L101.92,94.92L103.07,95.05L104.22,96.03L106.53,99.24L107.68,100.14L111.13,99.22L112.28,99.02L114.59,102.33L115.74,101.6L116.89,103.47L118.04,103.87L119.19,103.09L120.35,104.01L123.8,103.67L124.95,104.23L127.26,107.12L128.41,107.24L131.86,105.41L133.01,107.32L136.47,109.61L137.62,111.42L138.77,110.52L139.92,111.24L141.07,111.62L142.23,109.79L145.68,109.78L146.83,110.64L149.14,110.35L150.29,113.66L152.59,114.81L153.74,114.91L156.05,115.23L157.2,115.98L158.35,115.17L159.5,115.28L162.95,114.19L164.11,111.97L166.41,115.03L167.56,116.45L168.71,115.64L169.86,113.65L171.02,112.76L172.17,113.11L177.93,115.65L179.08,116.63L182.53,118.17L183.68,118.93L185.99,116.02L187.14,117.16L188.29,117.16L189.44,115.96L190.59,117.68L191.75,116.37L194.05,114.82L195.2,112.74L199.81,114.68L200.96,113.58L202.11,115.07L203.26,114.07L205.56,112.13L206.72,112L207.87,111.98L209.02,113.7L210.17,111.77L211.32,112.04L212.47,113.22L213.63,113.27L214.78,112.78L215.93,113.63L218.23,111.62L219.38,112.95L220.54,112.13L221.69,113.8L225.14,113.88L226.29,114.4L229.75,114.63L230.9,114.09L233.2,116.92L234.35,114.97L235.51,111.68L236.66,112.37L238.96,110.45L240.11,111.39L241.26,111.91L242.42,110.94L243.57,109.49L244.72,109.61L247.02,110.27L248.17,108.49L250.48,110.56L251.63,111.46L252.78,113.46L253.93,112.75L255.08,112.41L256.24,114.46L257.39,114.9L258.54,114.46L260.84,113.75L261.99,114.79L264.3,111.52L265.45,111.43L270.06,100.23L271.21,99.34L274.66,104.23L275.81,108.46L276.97,109.88L278.12,108.76L280.42,113.18L281.57,111.87L282.72,110.43L283.88,110.95L285.03,109.92L286.18,111.83L287.33,109.28L288.48,109.47L289.63,108.99L290.78,105.85L293.09,103.38L294.24,104.46L296.54,104.05L297.69,104.98L298.85,104.26L300,102.6L303.45,105.67L304.6,104.34L305.76,103.9L306.91,104.41L308.06,106.33L309.21,106.4L310.36,104.51L311.51,104.11L313.82,97.65L314.97,97.58L316.12,96.47L317.27,97.18L318.42,100.33L319.57,99.79L321.88,104.32L323.03,104.01L324.18,104.55L325.33,106.28L329.94,110.5L331.09,112.89L332.24,112.75L333.39,111.77L334.55,111.25L335.7,109.68L338,110.15L339.15,108.62L342.61,107.78L343.76,106.72L346.06,107.39L347.21,106.01L348.37,105.2L349.52,106.28L350.67,105.03L351.82,105.17L354.12,107.41L355.27,52.57" style="vector-effect: none; fill: none; stroke: rgb(79, 79, 79); stroke-opacity: 1; stroke-width: 1.5px; opacity: 1;"/></g><g class="points"/><g class="text"/></g><g class="trace scatter trace5ce9d5" style="stroke-miterlimit: 2; opacity: 1;"><g class="fills"/><g class="errorbars"/><g class="lines"><path class="js-line" d="M21.31,75.47L22.46,172.32L23.61,164.65L24.76,163.25L25.91,163.5L27.06,165.03L28.22,164.87L29.37,165.85L30.52,164.82L32.82,165.28L33.97,164.78L36.28,162.23L37.43,161.18L40.88,156.86L42.03,156.33L43.19,154.8L44.34,151.98L51.25,139.96L52.4,136.02L53.55,134.48L54.7,131.3L59.31,112.82L60.46,106.73L61.61,102.4L62.76,94.76L66.22,80.58L67.37,74.82L70.82,59.46L71.98,54.5L75.43,63.79L76.58,64.7L85.79,91.57L86.95,94.08L89.25,100.7L90.4,101.5L95.01,106.94L96.16,109.56L97.31,112.53L98.46,113.33L100.77,115.53L101.92,114.68L103.07,118.38L104.22,118.56L105.37,118.54L106.52,117.47L107.68,116.41L108.83,116.71L112.28,117.4L113.43,115.29L114.58,115.62L115.74,114.69L116.89,114.92L118.04,113.81L119.19,113.71L120.34,115.15L121.49,115.85L122.65,114.78L123.8,116.08L124.95,116.2L126.1,116.76L127.25,118.51L128.4,117.6L129.56,114.37L130.71,111.57L131.86,112.64L136.46,117L137.62,117.26L141.07,116.95L142.22,118.34L143.37,118.04L144.53,118.6L146.83,118.87L147.98,120L149.13,120.82L150.28,122.79L152.59,121.27L153.74,121.74L154.89,123.55L156.04,121.99L157.19,121.32L158.35,118.81L162.95,112.97L164.1,113.33L165.26,114.59L166.41,113.79L169.86,116.72L171.01,118.37L173.32,118.04L174.47,119.79L175.62,119.43L176.77,120.21L177.92,118.19L179.07,117.95L181.38,119.4L182.53,117.19L183.68,116.58L184.83,114.75L185.98,114.68L187.14,112.97L191.74,104.38L192.89,105.47L195.2,104.55L196.35,102.65L198.65,102.42L199.8,100.88L200.95,101.11L202.11,99.97L205.56,102.72L206.71,102.43L209.02,104.78L210.17,105.64L212.47,104.63L213.62,103.69L214.78,104.48L215.93,102.86L217.08,104.3L218.23,104.29L219.38,106.75L220.53,105.45L221.68,106.05L222.84,105.42L223.99,102.78L225.14,102.17L226.29,103.86L227.44,103.07L228.59,101.88L229.75,102.01L230.9,100.7L232.05,100.7L235.5,97.55L236.66,95.76L237.81,85.49L238.96,87.48L240.11,89.84L241.26,88.33L243.57,92.43L244.72,92.38L247.02,89.28L248.17,88.53L249.32,86.52L250.47,86.41L252.78,82.69L253.93,82.86L258.54,79.93L259.69,79.29L260.84,79.09L261.99,80.38L267.75,78.72L268.9,80.14L270.05,79.79L271.2,77.05L273.51,74.74L274.66,75.69L275.81,77.97L276.96,78.34L278.11,75.24L279.27,77.45L283.87,77L285.02,78.79L287.33,77.31L288.48,78.15L291.93,77.35L293.09,77.66L294.24,74.95L295.39,74.84L298.84,77.01L299.99,78.73L301.15,80.2L302.3,79.76L303.45,79.66L304.6,78.57L305.75,77.3L306.9,79.62L308.06,82.39L309.21,79.66L310.36,79.48L311.51,77.35L313.81,78.48L314.97,77.75L316.12,76.94L317.27,78.81L318.42,78.98L319.57,78.25L321.88,80.52L323.03,78.95L326.48,77.06L327.63,77.68L328.79,76.09L329.94,76.61L331.09,78.67L332.24,76.89L333.39,76.6L334.54,78.14L336.85,79.74L338,78.86L339.15,77.92L340.3,78.86L341.45,79.77L342.6,78.5L343.76,75.7L344.91,76.32L346.06,75.42L347.21,77.03L348.36,77.76L349.51,76.58L350.67,75.6L351.82,77.58L352.97,76.38L354.12,77.87L355.27,9.07" style="vector-effect: none; fill: none; stroke: rgb(79, 79, 79); stroke-opacity: 1; stroke-width: 1.5px; opacity: 1;"/></g><g class="points"/><g class="text"/></g></g></g></g><path class="xlines-above crisp" d="M0,0" style="fill: none;"/><path class="ylines-above crisp" d="M0,0" style="fill: none;"/><g class="overlines-above"/><g class="xaxislayer-above"/><g class="yaxislayer-above"><g class="ytick"><text text-anchor="end" x="49" y="4.8999999999999995" transform="translate(0,183.67)" style="font-family: 'Open Sans', verdana, arial, sans-serif; font-size: 14px; fill: rgb(0, 0, 0); fill-opacity: 1; white-space: pre; opacity: 1;">0</text></g><g class="ytick"><text text-anchor="end" x="49" y="4.8999999999999995" style="font-family: 'Open Sans', verdana, arial, sans-serif; font-size: 14px; fill: rgb(0, 0, 0); fill-opacity: 1; white-space: pre; opacity: 1;" transform="translate(0,132.61)">0.2</text></g><g class="ytick"><text text-anchor="end" x="49" y="4.8999999999999995" style="font-family: 'Open Sans', verdana, arial, sans-serif; font-size: 14px; fill: rgb(0, 0, 0); fill-opacity: 1; white-space: pre; opacity: 1;" transform="translate(0,81.55)">0.4</text></g><g class="ytick"><text text-anchor="end" x="49" y="4.8999999999999995" style="font-family: 'Open Sans', verdana, arial, sans-serif; font-size: 14px; fill: rgb(0, 0, 0); fill-opacity: 1; white-space: pre; opacity: 1;" transform="translate(0,30.490000000000002)">0.6</text></g></g><g class="overaxes-above"/></g><g class="subplot x2y2"><g class="layer-subplot"><g class="shapelayer"/><g class="imagelayer"/></g><g class="minor-gridlayer"><g class="x2"/><g class="y2"/></g><g class="gridlayer"><g class="x2"><path class="x2grid crisp" transform="translate(140.32999999999998,0)" d="M0,212.61v181.39" style="stroke: rgb(0, 0, 0); stroke-opacity: 1; stroke-width: 1px;"/><path class="x2grid crisp" transform="translate(209.35,0)" d="M0,212.61v181.39" style="stroke: rgb(0, 0, 0); stroke-opacity: 1; stroke-width: 1px;"/><path class="x2grid crisp" transform="translate(278.38,0)" d="M0,212.61v181.39" style="stroke: rgb(0, 0, 0); stroke-opacity: 1; stroke-width: 1px;"/><path class="x2grid crisp" transform="translate(347.4,0)" d="M0,212.61v181.39" style="stroke: rgb(0, 0, 0); stroke-opacity: 1; stroke-width: 1px;"/><path class="x2grid crisp" transform="translate(416.43,0)" d="M0,212.61v181.39" style="stroke: rgb(0, 0, 0); stroke-opacity: 1; stroke-width: 1px;"/></g><g class="y2"><path class="y2grid crisp" transform="translate(0,389.61)" d="M50,0h376" style="stroke: rgb(0, 0, 0); stroke-opacity: 1; stroke-width: 1px;"/><path class="y2grid crisp" transform="translate(0,370.85)" d="M50,0h376" style="stroke: rgb(0, 0, 0); stroke-opacity: 1; stroke-width: 1px;"/><path class="y2grid crisp" transform="translate(0,356.3)" d="M50,0h376" style="stroke: rgb(0, 0, 0); stroke-opacity: 1; stroke-width: 1px;"/><path class="y2grid crisp" transform="translate(0,344.42)" d="M50,0h376" style="stroke: rgb(0, 0, 0); stroke-opacity: 1; stroke-width: 1px;"/><path class="y2grid crisp" transform="translate(0,334.37)" d="M50,0h376" style="stroke: rgb(0, 0, 0); stroke-opacity: 1; stroke-width: 1px;"/><path class="y2grid crisp" transform="translate(0,325.66)" d="M50,0h376" style="stroke: rgb(0, 0, 0); stroke-opacity: 1; stroke-width: 1px;"/><path class="y2grid crisp" transform="translate(0,317.98)" d="M50,0h376" style="stroke: rgb(0, 0, 0); stroke-opacity: 1; stroke-width: 1px;"/><path class="y2grid crisp" transform="translate(0,311.11)" d="M50,0h376" style="stroke: rgb(0, 0, 0); stroke-opacity: 1; stroke-width: 1px;"/><path class="y2grid crisp" transform="translate(0,265.92)" d="M50,0h376" style="stroke: rgb(0, 0, 0); stroke-opacity: 1; stroke-width: 1px;"/><path class="y2grid crisp" transform="translate(0,239.48000000000002)" d="M50,0h376" style="stroke: rgb(0, 0, 0); stroke-opacity: 1; stroke-width: 1px;"/><path class="y2grid crisp" transform="translate(0,220.72000000000003)" d="M50,0h376" style="stroke: rgb(0, 0, 0); stroke-opacity: 1; stroke-width: 1px;"/></g></g><g class="zerolinelayer"><path class="x2zl zl crisp" transform="translate(71.31,0)" d="M0,212.61v181.39" style="stroke: rgb(0, 0, 0); stroke-opacity: 1; stroke-width: 1px;"/></g><g class="layer-between"><g class="shapelayer"/><g class="imagelayer"/></g><path class="xlines-below"/><path class="ylines-below"/><g class="overlines-below"/><g class="xaxislayer-below"/><g class="yaxislayer-below"/><g class="overaxes-below"/><g class="overplot"><g class="x2y2" transform="translate(50,212.61)" clip-path="url(#clipc00851x2y2plot)"><g class="scatterlayer mlayer"><g class="trace scatter trace3207ba" style="stroke-miterlimit: 2; opacity: 1;"><g class="fills"/><g class="errorbars"><g class="errorbar"><path class="yerror" d="M17.31,77.4h8m-4,0V89.32m-4,0h8" style="vector-effect: none; stroke-width: 1.5px; stroke: rgb(117, 112, 179); stroke-opacity: 1;"/></g><g class="errorbar"><path class="yerror" d="M79.43,16.08h8m-4,0V70.91m-4,0h8" style="vector-effect: none; stroke-width: 1.5px; stroke: rgb(117, 112, 179); stroke-opacity: 1;"/></g><g class="errorbar"><path class="yerror" d="M185.73,70.16h8m-4,0V172.32m-4,0h8" style="vector-effect: none; stroke-width: 1.5px; stroke: rgb(117, 112, 179); stroke-opacity: 1;"/></g><g class="errorbar"><path class="yerror" d="M229.9,70.08h8m-4,0V108.82m-4,0h8" style="vector-effect: none; stroke-width: 1.5px; stroke: rgb(117, 112, 179); stroke-opacity: 1;"/></g><g class="errorbar"><path class="yerror" d="M350.69,13.32h8m-4,0V43.99m-4,0h8" style="vector-effect: none; stroke-width: 1.5px; stroke: rgb(117, 112, 179); stroke-opacity: 1;"/></g></g><g class="lines"><path class="js-line" d="M21.31,83.09L83.43,37.89L189.73,103L233.9,86.61L354.69,26.87" style="vector-effect: none; fill: none; stroke: rgb(117, 112, 179); stroke-opacity: 1; stroke-width: 1.5px; opacity: 1;"/></g><g class="points"><path class="point" transform="translate(21.31,83.09)" d="M0.75,0A0.75,0.75 0 1,1 0,-0.75A0.75,0.75 0 0,1 0.75,0Z" style="opacity: 1; stroke-width: 0px; fill: rgb(117, 112, 179); fill-opacity: 1;"/><path class="point" transform="translate(83.43,37.89)" d="M0.75,0A0.75,0.75 0 1,1 0,-0.75A0.75,0.75 0 0,1 0.75,0Z" style="opacity: 1; stroke-width: 0px; fill: rgb(117, 112, 179); fill-opacity: 1;"/><path class="point" transform="translate(189.73,103)" d="M0.75,0A0.75,0.75 0 1,1 0,-0.75A0.75,0.75 0 0,1 0.75,0Z" style="opacity: 1; stroke-width: 0px; fill: rgb(117, 112, 179); fill-opacity: 1;"/><path class="point" transform="translate(233.9,86.61)" d="M0.75,0A0.75,0.75 0 1,1 0,-0.75A0.75,0.75 0 0,1 0.75,0Z" style="opacity: 1; stroke-width: 0px; fill: rgb(117, 112, 179); fill-opacity: 1;"/><path class="point" transform="translate(354.69,26.87)" d="M0.75,0A0.75,0.75 0 1,1 0,-0.75A0.75,0.75 0 0,1 0.75,0Z" style="opacity: 1; stroke-width: 0px; fill: rgb(117, 112, 179); fill-opacity: 1;"/></g><g class="text"/></g><g class="trace scatter trace69958c" style="stroke-miterlimit: 2; opacity: 1;"><g class="fills"/><g class="errorbars"><g class="errorbar"><path class="yerror" d="M17.31,77.4h8m-4,0V89.32m-4,0h8" style="vector-effect: none; stroke-width: 1.5px; stroke: rgb(217, 95, 2); stroke-opacity: 1;"/></g><g class="errorbar"><path class="yerror" d="M79.43,41.42h8m-4,0V67.85m-4,0h8" style="vector-effect: none; stroke-width: 1.5px; stroke: rgb(217, 95, 2); stroke-opacity: 1;"/></g><g class="errorbar"><path class="yerror" d="M185.73,16.45h8m-4,0V70.06m-4,0h8" style="vector-effect: none; stroke-width: 1.5px; stroke: rgb(217, 95, 2); stroke-opacity: 1;"/></g><g class="errorbar"><path class="yerror" d="M229.9,43.37h8m-4,0V82.87m-4,0h8" style="vector-effect: none; stroke-width: 1.5px; stroke: rgb(217, 95, 2); stroke-opacity: 1;"/></g><g class="errorbar"><path class="yerror" d="M350.69,55.66h8m-4,0V107.52m-4,0h8" style="vector-effect: none; stroke-width: 1.5px; stroke: rgb(217, 95, 2); stroke-opacity: 1;"/></g></g><g class="lines"><path class="js-line" d="M21.31,83.09L83.43,53.31L189.73,37.89L233.9,60.17L354.69,76.56" style="vector-effect: none; fill: none; stroke: rgb(217, 95, 2); stroke-opacity: 1; stroke-width: 1.5px; opacity: 1;"/></g><g class="points"><path class="point" transform="translate(21.31,83.09)" d="M0.75,0A0.75,0.75 0 1,1 0,-0.75A0.75,0.75 0 0,1 0.75,0Z" style="opacity: 1; stroke-width: 0px; fill: rgb(217, 95, 2); fill-opacity: 1;"/><path class="point" transform="translate(83.43,53.31)" d="M0.75,0A0.75,0.75 0 1,1 0,-0.75A0.75,0.75 0 0,1 0.75,0Z" style="opacity: 1; stroke-width: 0px; fill: rgb(217, 95, 2); fill-opacity: 1;"/><path class="point" transform="translate(189.73,37.89)" d="M0.75,0A0.75,0.75 0 1,1 0,-0.75A0.75,0.75 0 0,1 0.75,0Z" style="opacity: 1; stroke-width: 0px; fill: rgb(217, 95, 2); fill-opacity: 1;"/><path class="point" transform="translate(233.9,60.17)" d="M0.75,0A0.75,0.75 0 1,1 0,-0.75A0.75,0.75 0 0,1 0.75,0Z" style="opacity: 1; stroke-width: 0px; fill: rgb(217, 95, 2); fill-opacity: 1;"/><path class="point" transform="translate(354.69,76.56)" d="M0.75,0A0.75,0.75 0 1,1 0,-0.75A0.75,0.75 0 0,1 0.75,0Z" style="opacity: 1; stroke-width: 0px; fill: rgb(217, 95, 2); fill-opacity: 1;"/></g><g class="text"/></g><g class="trace scatter traceea995f" style="stroke-miterlimit: 2; opacity: 1;"><g class="fills"/><g class="errorbars"><g class="errorbar"><path class="yerror" d="M17.31,77.4h8m-4,0V89.32m-4,0h8" style="vector-effect: none; stroke-width: 1.5px; stroke: rgb(117, 112, 179); stroke-opacity: 1;"/></g><g class="errorbar"><path class="yerror" d="M79.43,13.59h8m-4,0V39.92m-4,0h8" style="vector-effect: none; stroke-width: 1.5px; stroke: rgb(117, 112, 179); stroke-opacity: 1;"/></g><g class="errorbar"><path class="yerror" d="M185.73,48.7h8m-4,0V74.11m-4,0h8" style="vector-effect: none; stroke-width: 1.5px; stroke: rgb(117, 112, 179); stroke-opacity: 1;"/></g><g class="errorbar"><path class="yerror" d="M229.9,62.79h8m-4,0V124.53m-4,0h8" style="vector-effect: none; stroke-width: 1.5px; stroke: rgb(117, 112, 179); stroke-opacity: 1;"/></g><g class="errorbar"><path class="yerror" d="M350.69,47.99h8m-4,0V88.63m-4,0h8" style="vector-effect: none; stroke-width: 1.5px; stroke: rgb(117, 112, 179); stroke-opacity: 1;"/></g></g><g class="lines"><path class="js-line" d="M21.31,83.09L83.43,25.44L189.73,60.17L233.9,86.61L354.69,65.19" style="vector-effect: none; fill: none; stroke: rgb(117, 112, 179); stroke-opacity: 1; stroke-width: 1.5px; opacity: 1;"/></g><g class="points"><path class="point" transform="translate(21.31,83.09)" d="M0.75,0A0.75,0.75 0 1,1 0,-0.75A0.75,0.75 0 0,1 0.75,0Z" style="opacity: 1; stroke-width: 0px; fill: rgb(117, 112, 179); fill-opacity: 1;"/><path class="point" transform="translate(83.43,25.44)" d="M0.75,0A0.75,0.75 0 1,1 0,-0.75A0.75,0.75 0 0,1 0.75,0Z" style="opacity: 1; stroke-width: 0px; fill: rgb(117, 112, 179); fill-opacity: 1;"/><path class="point" transform="translate(189.73,60.17)" d="M0.75,0A0.75,0.75 0 1,1 0,-0.75A0.75,0.75 0 0,1 0.75,0Z" style="opacity: 1; stroke-width: 0px; fill: rgb(117, 112, 179); fill-opacity: 1;"/><path class="point" transform="translate(233.9,86.61)" d="M0.75,0A0.75,0.75 0 1,1 0,-0.75A0.75,0.75 0 0,1 0.75,0Z" style="opacity: 1; stroke-width: 0px; fill: rgb(117, 112, 179); fill-opacity: 1;"/><path class="point" transform="translate(354.69,65.19)" d="M0.75,0A0.75,0.75 0 1,1 0,-0.75A0.75,0.75 0 0,1 0.75,0Z" style="opacity: 1; stroke-width: 0px; fill: rgb(117, 112, 179); fill-opacity: 1;"/></g><g class="text"/></g><g class="trace scatter trace7f3cb0" style="stroke-miterlimit: 2; opacity: 1;"><g class="fills"/><g class="errorbars"><g class="errorbar"><path class="yerror" d="M17.31,77.4h8m-4,0V89.32m-4,0h8" style="vector-effect: none; stroke-width: 1.5px; stroke: rgb(217, 95, 2); stroke-opacity: 1;"/></g><g class="errorbar"><path class="yerror" d="M79.43,28.09h8m-4,0V63.05m-4,0h8" style="vector-effect: none; stroke-width: 1.5px; stroke: rgb(217, 95, 2); stroke-opacity: 1;"/></g><g class="errorbar"><path class="yerror" d="M185.73,34.15h8m-4,0V58.38m-4,0h8" style="vector-effect: none; stroke-width: 1.5px; stroke: rgb(217, 95, 2); stroke-opacity: 1;"/></g><g class="errorbar"><path class="yerror" d="M229.9,47.23h8m-4,0V82.84m-4,0h8" style="vector-effect: none; stroke-width: 1.5px; stroke: rgb(217, 95, 2); stroke-opacity: 1;"/></g><g class="errorbar"><path class="yerror" d="M350.69,23.86h8m-4,0V70.98m-4,0h8" style="vector-effect: none; stroke-width: 1.5px; stroke: rgb(217, 95, 2); stroke-opacity: 1;"/></g></g><g class="lines"><path class="js-line" d="M21.31,83.09L83.43,43.25L189.73,45.14L233.9,62.64L354.69,43.25" style="vector-effect: none; fill: none; stroke: rgb(217, 95, 2); stroke-opacity: 1; stroke-width: 1.5px; opacity: 1;"/></g><g class="points"><path class="point" transform="translate(21.31,83.09)" d="M0.75,0A0.75,0.75 0 1,1 0,-0.75A0.75,0.75 0 0,1 0.75,0Z" style="opacity: 1; stroke-width: 0px; fill: rgb(217, 95, 2); fill-opacity: 1;"/><path class="point" transform="translate(83.43,43.25)" d="M0.75,0A0.75,0.75 0 1,1 0,-0.75A0.75,0.75 0 0,1 0.75,0Z" style="opacity: 1; stroke-width: 0px; fill: rgb(217, 95, 2); fill-opacity: 1;"/><path class="point" transform="translate(189.73,45.14)" d="M0.75,0A0.75,0.75 0 1,1 0,-0.75A0.75,0.75 0 0,1 0.75,0Z" style="opacity: 1; stroke-width: 0px; fill: rgb(217, 95, 2); fill-opacity: 1;"/><path class="point" transform="translate(233.9,62.64)" d="M0.75,0A0.75,0.75 0 1,1 0,-0.75A0.75,0.75 0 0,1 0.75,0Z" style="opacity: 1; stroke-width: 0px; fill: rgb(217, 95, 2); fill-opacity: 1;"/><path class="point" transform="translate(354.69,43.25)" d="M0.75,0A0.75,0.75 0 1,1 0,-0.75A0.75,0.75 0 0,1 0.75,0Z" style="opacity: 1; stroke-width: 0px; fill: rgb(217, 95, 2); fill-opacity: 1;"/></g><g class="text"/></g><g class="trace scatter trace621514" style="stroke-miterlimit: 2; opacity: 1;"><g class="fills"/><g class="errorbars"><g class="errorbar"><path class="yerror" d="M17.31,77.4h8m-4,0V89.32m-4,0h8" style="vector-effect: none; stroke-width: 1.5px; stroke: rgb(117, 112, 179); stroke-opacity: 1;"/></g><g class="errorbar"><path class="yerror" d="M79.43,23.27h8m-4,0V48.19m-4,0h8" style="vector-effect: none; stroke-width: 1.5px; stroke: rgb(117, 112, 179); stroke-opacity: 1;"/></g><g class="errorbar"><path class="yerror" d="M185.73,28.43h8m-4,0V57.66m-4,0h8" style="vector-effect: none; stroke-width: 1.5px; stroke: rgb(117, 112, 179); stroke-opacity: 1;"/></g><g class="errorbar"><path class="yerror" d="M229.9,9.07h8m-4,0V43.49m-4,0h8" style="vector-effect: none; stroke-width: 1.5px; stroke: rgb(117, 112, 179); stroke-opacity: 1;"/></g><g class="errorbar"><path class="yerror" d="M350.69,42.8h8m-4,0V71.33m-4,0h8" style="vector-effect: none; stroke-width: 1.5px; stroke: rgb(117, 112, 179); stroke-opacity: 1;"/></g></g><g class="lines"><path class="js-line" d="M21.31,83.09L83.43,34.55L189.73,41.42L233.9,24.03L354.69,55.52" style="vector-effect: none; fill: none; stroke: rgb(117, 112, 179); stroke-opacity: 1; stroke-width: 1.5px; opacity: 1;"/></g><g class="points"><path class="point" transform="translate(21.31,83.09)" d="M0.75,0A0.75,0.75 0 1,1 0,-0.75A0.75,0.75 0 0,1 0.75,0Z" style="opacity: 1; stroke-width: 0px; fill: rgb(117, 112, 179); fill-opacity: 1;"/><path class="point" transform="translate(83.43,34.55)" d="M0.75,0A0.75,0.75 0 1,1 0,-0.75A0.75,0.75 0 0,1 0.75,0Z" style="opacity: 1; stroke-width: 0px; fill: rgb(117, 112, 179); fill-opacity: 1;"/><path class="point" transform="translate(189.73,41.42)" d="M0.75,0A0.75,0.75 0 1,1 0,-0.75A0.75,0.75 0 0,1 0.75,0Z" style="opacity: 1; stroke-width: 0px; fill: rgb(117, 112, 179); fill-opacity: 1;"/><path class="point" transform="translate(233.9,24.03)" d="M0.75,0A0.75,0.75 0 1,1 0,-0.75A0.75,0.75 0 0,1 0.75,0Z" style="opacity: 1; stroke-width: 0px; fill: rgb(117, 112, 179); fill-opacity: 1;"/><path class="point" transform="translate(354.69,55.52)" d="M0.75,0A0.75,0.75 0 1,1 0,-0.75A0.75,0.75 0 0,1 0.75,0Z" style="opacity: 1; stroke-width: 0px; fill: rgb(117, 112, 179); fill-opacity: 1;"/></g><g class="text"/></g><g class="trace scatter trace4ece3c" style="stroke-miterlimit: 2; opacity: 1;"><g class="fills"/><g class="errorbars"><g class="errorbar"><path class="yerror" d="M17.31,77.4h8m-4,0V89.32m-4,0h8" style="vector-effect: none; stroke-width: 1.5px; stroke: rgb(217, 95, 2); stroke-opacity: 1;"/></g><g class="errorbar"><path class="yerror" d="M79.43,29.64h8m-4,0V83.51m-4,0h8" style="vector-effect: none; stroke-width: 1.5px; stroke: rgb(217, 95, 2); stroke-opacity: 1;"/></g><g class="errorbar"><path class="yerror" d="M185.73,29.29h8m-4,0V77.68m-4,0h8" style="vector-effect: none; stroke-width: 1.5px; stroke: rgb(217, 95, 2); stroke-opacity: 1;"/></g><g class="errorbar"><path class="yerror" d="M229.9,16.28h8m-4,0V39.52m-4,0h8" style="vector-effect: none; stroke-width: 1.5px; stroke: rgb(217, 95, 2); stroke-opacity: 1;"/></g><g class="errorbar"><path class="yerror" d="M350.69,84.53h8m-4,0V128.85m-4,0h8" style="vector-effect: none; stroke-width: 1.5px; stroke: rgb(217, 95, 2); stroke-opacity: 1;"/></g></g><g class="lines"><path class="js-line" d="M21.31,83.09L83.43,51.17L189.73,49.1L233.9,26.87L354.69,103" style="vector-effect: none; fill: none; stroke: rgb(217, 95, 2); stroke-opacity: 1; stroke-width: 1.5px; opacity: 1;"/></g><g class="points"><path class="point" transform="translate(21.31,83.09)" d="M0.75,0A0.75,0.75 0 1,1 0,-0.75A0.75,0.75 0 0,1 0.75,0Z" style="opacity: 1; stroke-width: 0px; fill: rgb(217, 95, 2); fill-opacity: 1;"/><path class="point" transform="translate(83.43,51.17)" d="M0.75,0A0.75,0.75 0 1,1 0,-0.75A0.75,0.75 0 0,1 0.75,0Z" style="opacity: 1; stroke-width: 0px; fill: rgb(217, 95, 2); fill-opacity: 1;"/><path class="point" transform="translate(189.73,49.1)" d="M0.75,0A0.75,0.75 0 1,1 0,-0.75A0.75,0.75 0 0,1 0.75,0Z" style="opacity: 1; stroke-width: 0px; fill: rgb(217, 95, 2); fill-opacity: 1;"/><path class="point" transform="translate(233.9,26.87)" d="M0.75,0A0.75,0.75 0 1,1 0,-0.75A0.75,0.75 0 0,1 0.75,0Z" style="opacity: 1; stroke-width: 0px; fill: rgb(217, 95, 2); fill-opacity: 1;"/><path class="point" transform="translate(354.69,103)" d="M0.75,0A0.75,0.75 0 1,1 0,-0.75A0.75,0.75 0 0,1 0.75,0Z" style="opacity: 1; stroke-width: 0px; fill: rgb(217, 95, 2); fill-opacity: 1;"/></g><g class="text"/></g></g></g></g><path class="xlines-above crisp" d="M0,0" style="fill: none;"/><path class="ylines-above crisp" d="M0,0" style="fill: none;"/><g class="overlines-above"/><g class="xaxislayer-above"><g class="x2tick"><text text-anchor="middle" x="0" y="409" transform="translate(71.31,0)" style="font-family: 'Open Sans', verdana, arial, sans-serif; font-size: 14px; fill: rgb(0, 0, 0); fill-opacity: 1; white-space: pre; opacity: 1;">0</text></g><g class="x2tick"><text text-anchor="middle" x="0" y="409" style="font-family: 'Open Sans', verdana, arial, sans-serif; font-size: 14px; fill: rgb(0, 0, 0); fill-opacity: 1; white-space: pre; opacity: 1;" transform="translate(140.32999999999998,0)">10</text></g><g class="x2tick"><text text-anchor="middle" x="0" y="409" style="font-family: 'Open Sans', verdana, arial, sans-serif; font-size: 14px; fill: rgb(0, 0, 0); fill-opacity: 1; white-space: pre; opacity: 1;" transform="translate(209.35,0)">20</text></g><g class="x2tick"><text text-anchor="middle" x="0" y="409" style="font-family: 'Open Sans', verdana, arial, sans-serif; font-size: 14px; fill: rgb(0, 0, 0); fill-opacity: 1; white-space: pre; opacity: 1;" transform="translate(278.38,0)">30</text></g><g class="x2tick"><text text-anchor="middle" x="0" y="409" style="font-family: 'Open Sans', verdana, arial, sans-serif; font-size: 14px; fill: rgb(0, 0, 0); fill-opacity: 1; white-space: pre; opacity: 1;" transform="translate(347.4,0)">40</text></g><g class="x2tick"><text text-anchor="middle" x="0" y="409" style="font-family: 'Open Sans', verdana, arial, sans-serif; font-size: 14px; fill: rgb(0, 0, 0); fill-opacity: 1; white-space: pre; opacity: 1;" transform="translate(416.43,0)">50</text></g></g><g class="yaxislayer-above"><g class="y2tick"><text text-anchor="end" x="49" y="3.675" transform="translate(0,389.61)" style="font-family: 'Open Sans', verdana, arial, sans-serif; font-size: 10.5px; fill: rgb(0, 0, 0); fill-opacity: 1; white-space: pre; opacity: 1;">3</text></g><g class="y2tick"><text text-anchor="end" x="49" y="3.675" style="font-family: 'Open Sans', verdana, arial, sans-serif; font-size: 10.5px; fill: rgb(0, 0, 0); fill-opacity: 1; white-space: pre; opacity: 1;" transform="translate(0,370.85)">4</text></g><g class="y2tick"><text text-anchor="end" x="49" y="3.675" style="font-family: 'Open Sans', verdana, arial, sans-serif; font-size: 10.5px; fill: rgb(0, 0, 0); fill-opacity: 1; white-space: pre; opacity: 1;" transform="translate(0,356.3)">5</text></g><g class="y2tick"><text text-anchor="end" x="49" y="3.675" style="font-family: 'Open Sans', verdana, arial, sans-serif; font-size: 10.5px; fill: rgb(0, 0, 0); fill-opacity: 1; white-space: pre; opacity: 1;" transform="translate(0,344.42)">6</text></g><g class="y2tick"><text text-anchor="end" x="49" y="3.675" style="font-family: 'Open Sans', verdana, arial, sans-serif; font-size: 10.5px; fill: rgb(0, 0, 0); fill-opacity: 1; white-space: pre; opacity: 1;" transform="translate(0,334.37)">7</text></g><g class="y2tick"><text text-anchor="end" x="49" y="3.675" style="font-family: 'Open Sans', verdana, arial, sans-serif; font-size: 10.5px; fill: rgb(0, 0, 0); fill-opacity: 1; white-space: pre; opacity: 1;" transform="translate(0,325.66)">8</text></g><g class="y2tick"><text text-anchor="end" x="49" y="3.675" style="font-family: 'Open Sans', verdana, arial, sans-serif; font-size: 10.5px; fill: rgb(0, 0, 0); fill-opacity: 1; white-space: pre; opacity: 1;" transform="translate(0,317.98)">9</text></g><g class="y2tick"><text text-anchor="end" x="45.5" y="2.566666666666666" style="font-family: 'Open Sans', verdana, arial, sans-serif; font-size: 14px; fill: rgb(0, 0, 0); fill-opacity: 1; white-space: pre; opacity: 1;" transform="translate(0,311.11)">100M</text></g><g class="y2tick"><text text-anchor="end" x="49" y="3.675" style="font-family: 'Open Sans', verdana, arial, sans-serif; font-size: 10.5px; fill: rgb(0, 0, 0); fill-opacity: 1; white-space: pre; opacity: 1;" transform="translate(0,265.92)">2</text></g><g class="y2tick"><text text-anchor="end" x="49" y="3.675" style="font-family: 'Open Sans', verdana, arial, sans-serif; font-size: 10.5px; fill: rgb(0, 0, 0); fill-opacity: 1; white-space: pre; opacity: 1;" transform="translate(0,239.48000000000002)">3</text></g><g class="y2tick"><text text-anchor="end" x="49" y="3.675" style="font-family: 'Open Sans', verdana, arial, sans-serif; font-size: 10.5px; fill: rgb(0, 0, 0); fill-opacity: 1; white-space: pre; opacity: 1;" transform="translate(0,220.72000000000003)">4</text></g></g><g class="overaxes-above"/></g></g><g class="polarlayer"/><g class="smithlayer"/><g class="ternarylayer"/><g class="geolayer"/><g class="funnelarealayer"/><g class="pielayer"/><g class="iciclelayer"/><g class="treemaplayer"/><g class="sunburstlayer"/><g class="glimages"/><defs id="topdefs-c00851"><g class="clips"/><clipPath id="legendc00851"><rect width="66" height="32" x="0" y="0"/></clipPath><clipPath id="legend2c00851"><rect width="64" height="53" x="0" y="0"/></clipPath></defs><g class="layer-above"><g class="imagelayer"/><g class="shapelayer"/></g><g class="infolayer"><g class="legend" pointer-events="all" transform="translate(433.52,20)"><rect class="bg" shape-rendering="crispEdges" style="stroke: rgb(68, 68, 68); stroke-opacity: 1; fill: rgb(153, 153, 153); fill-opacity: 1; stroke-width: 0px;" width="66" height="32" x="0" y="0"/><g class="scrollbox" transform="" clip-path="url(#legendc00851)"><g class="groups"><g class="traces" transform="translate(0,15.6)" style="opacity: 1;"><text class="legendtext" text-anchor="start" x="40" y="5.46" style="font-family: 'Open Sans', verdana, arial, sans-serif; font-size: 14px; fill: rgb(0, 0, 0); fill-opacity: 1; white-space: pre;">OD</text><g class="layers" style="opacity: 1;"><g class="legendfill"/><g class="legendlines"><path class="js-line" d="M5,0h30" style="fill: none; stroke: rgb(79, 79, 79); stroke-opacity: 1; stroke-width: 1.5px;"/></g><g class="legendsymbols"><g class="legendpoints"/></g></g><rect class="legendtoggle" x="0" y="-10.6" width="61" height="21.2" style="fill: rgb(0, 0, 0); fill-opacity: 0;"/></g></g></g><rect class="scrollbar" rx="20" ry="3" width="0" height="0" style="fill: rgb(128, 139, 164); fill-opacity: 1;" x="0" y="0"/></g><g class="legend2" pointer-events="all" transform="translate(433.52,143.1)"><rect class="bg" shape-rendering="crispEdges" style="stroke: rgb(68, 68, 68); stroke-opacity: 1; fill: rgb(153, 153, 153); fill-opacity: 1; stroke-width: 0px;" width="64" height="53" x="0" y="0"/><g class="scrollbox" transform="" clip-path="url(#legend2c00851)"><g class="groups"><g class="traces" transform="translate(0,15.6)" style="opacity: 1;"><text class="legend2text" text-anchor="start" x="40" y="5.46" style="font-family: 'Open Sans', verdana, arial, sans-serif; font-size: 14px; fill: rgb(0, 0, 0); fill-opacity: 1; white-space: pre;">Ct</text><g class="layers" style="opacity: 1;"><g class="legendfill"/><g class="legendlines"><path class="js-line" d="M5,0h30" style="fill: none; stroke: rgb(117, 112, 179); stroke-opacity: 1; stroke-width: 1.5px;"/></g><g class="legendsymbols"><g class="legendpoints"><path class="scatterpts" transform="translate(20,0)" d="M1,0A1,1 0 1,1 0,-1A1,1 0 0,1 1,0Z" style="opacity: 1; stroke-width: 0px; fill: rgb(117, 112, 179); fill-opacity: 1;"/></g></g></g><rect class="legend2toggle" x="0" y="-10.6" width="58.890625" height="21.2" style="fill: rgb(0, 0, 0); fill-opacity: 0;"/></g><g class="traces" transform="translate(0,36.8)" style="opacity: 1;"><text class="legend2text" text-anchor="start" x="40" y="5.46" style="font-family: 'Open Sans', verdana, arial, sans-serif; font-size: 14px; fill: rgb(0, 0, 0); fill-opacity: 1; white-space: pre;">Oa</text><g class="layers" style="opacity: 1;"><g class="legendfill"/><g class="legendlines"><path class="js-line" d="M5,0h30" style="fill: none; stroke: rgb(217, 95, 2); stroke-opacity: 1; stroke-width: 1.5px;"/></g><g class="legendsymbols"><g class="legendpoints"><path class="scatterpts" transform="translate(20,0)" d="M1,0A1,1 0 1,1 0,-1A1,1 0 0,1 1,0Z" style="opacity: 1; stroke-width: 0px; fill: rgb(217, 95, 2); fill-opacity: 1;"/></g></g></g><rect class="legend2toggle" x="0" y="-10.6" width="58.890625" height="21.2" style="fill: rgb(0, 0, 0); fill-opacity: 0;"/></g></g></g><rect class="scrollbar" rx="20" ry="3" width="0" height="0" style="fill: rgb(128, 139, 164); fill-opacity: 1;" x="0" y="0"/></g><g class="g-gtitle"><text class="gtitle" x="25" y="10" text-anchor="start" dy="0em" style="opacity: 1; font-family: 'Open Sans', verdana, arial, sans-serif; font-size: 14px; fill: rgb(0, 0, 0); fill-opacity: 1; white-space: pre;">D = 0.15 1/h</text></g><g class="g-xtitle"/><g class="g-x2title" transform="translate(0,3.6999999999999886)"><text class="x2title" x="238" y="421.3" text-anchor="middle" style="opacity: 1; font-family: 'Open Sans', verdana, arial, sans-serif; font-size: 14px; fill: rgb(0, 0, 0); fill-opacity: 1; white-space: pre;">Time [h]</text></g><g class="g-ytitle"><text class="ytitle" transform="rotate(-90,25.13125,110.695)" x="25.13125" y="110.695" text-anchor="middle" style="opacity: 1; font-family: 'Open Sans', verdana, arial, sans-serif; font-size: 14px; fill: rgb(0, 0, 0); fill-opacity: 1; white-space: pre;">OD</text></g><g class="g-y2title" transform="translate(6.939453125,0)"><text class="y2title" transform="rotate(-90,6.068750000000001,303.305)" x="6.068750000000001" y="303.305" text-anchor="middle" style="opacity: 1; font-family: 'Open Sans', verdana, arial, sans-serif; font-size: 14px; fill: rgb(0, 0, 0); fill-opacity: 1; white-space: pre;">CFUs/mL</text></g><g class="annotation" data-index="0" style="opacity: 1;"><g class="annotation-text-g" transform="rotate(0,238,10)"><g class="cursor-pointer" transform="translate(226,0)"><rect class="bg" x="0.5" y="0.5" width="24" height="19" style="stroke-width: 1px; stroke: rgb(0, 0, 0); stroke-opacity: 0; fill: rgb(0, 0, 0); fill-opacity: 0;"/><text class="annotation-text" text-anchor="middle" x="12.5" y="15" style="font-family: 'Open Sans', verdana, arial, sans-serif; font-size: 14px; fill: rgb(0, 0, 0); fill-opacity: 1; white-space: pre;">OD</text></g></g></g><g class="annotation" data-index="1" style="opacity: 1;"><g class="annotation-text-g" transform="rotate(0,238,202.61)"><g class="cursor-pointer" transform="translate(173,193)"><rect class="bg" x="0.5" y="0.5" width="130" height="19" style="stroke-width: 1px; stroke: rgb(0, 0, 0); stroke-opacity: 0; fill: rgb(0, 0, 0); fill-opacity: 0;"/><text class="annotation-text" text-anchor="middle" x="65.4375" y="15" style="font-family: 'Open Sans', verdana, arial, sans-serif; font-size: 14px; fill: rgb(0, 0, 0); fill-opacity: 1; white-space: pre;">Absolut abundances</text></g></g></g></g></svg>