<svg class="main-svg" xmlns="http://www.w3.org/2000/svg" xmlns:xlink="http://www.w3.org/1999/xlink" width="500" height="400" style="" viewBox="0 0 500 400"><rect x="0" y="0" width="500" height="400" style="fill: rgb(255, 255, 255); fill-opacity: 1;"/><defs id="defs-9f20ab"><g class="clips"><clipPath id="clip9f20abxyplot" class="plotclip"><rect width="371" height="300"/></clipPath><clipPath class="axesclip" id="clip9f20abx"><rect x="60" y="0" width="371" height="400"/></clipPath><clipPath class="axesclip" id="clip9f20aby"><rect x="0" y="20" width="500" height="300"/></clipPath><clipPath class="axesclip" id="clip9f20abxy"><rect x="60" y="20" width="371" height="300"/></clipPath></g><g class="gradients"/><g class="patterns"/></defs><g class="bglayer"/><g class="layer-below"><g class="imagelayer"/><g class="shapelayer"/></g><g class="cartesianlayer"><g class="subplot xy"><g class="layer-subplot"><g class="shapelayer"/><g class="imagelayer"/></g><g class="minor-gridlayer"><g class="x"/><g class="y"/></g><g class="gridlayer"><g class="x"><path class="xgrid crisp" transform="translate(78.55,0)" d="M0,20v300" style="stroke: rgb(0, 0, 0); stroke-opacity: 1; stroke-width: 1px;"/><path class="xgrid crisp" transform="translate(97.1,0)" d="M0,20v300" style="stroke: rgb(0, 0, 0); stroke-opacity: 1; stroke-width: 1px;"/><path class="xgrid crisp" transform="translate(115.65,0)" d="M0,20v300" style="stroke: rgb(0, 0, 0); stroke-opacity: 1; stroke-width: 1px;"/><path class="xgrid crisp" transform="translate(134.2,0)" d="M0,20v300" style="stroke: rgb(0, 0, 0); stroke-opacity: 1; stroke-width: 1px;"/><path class="xgrid crisp" transform="translate(152.75,0)" d="M0,20v300" style="stroke: rgb(0, 0, 0); stroke-opacity: 1; stroke-width: 1px;"/><path class="xgrid crisp" transform="translate(171.3,0)" d="M0,20v300" style="stroke: rgb(0, 0, 0); stroke-opacity: 1; stroke-width: 1px;"/><path class="xgrid crisp" transform="translate(189.85,0)" d="M0,20v300" style="stroke: rgb(0, 0, 0); stroke-opacity: 1; stroke-width: 1px;"/><path class="xgrid crisp" transform="translate(208.4,0)" d="M0,20v300" style="stroke: rgb(0, 0, 0); stroke-opacity: 1; stroke-width: 1px;"/><path class="xgrid crisp" transform="translate(226.95,0)" d="M0,20v300" style="stroke: rgb(0, 0, 0); stroke-opacity: 1; stroke-width: 1px;"/><path class="xgrid crisp" transform="translate(245.5,0)" d="M0,20v300" style="stroke: rgb(0, 0, 0); stroke-opacity: 1; stroke-width: 1px;"/><path class="xgrid crisp" transform="translate(264.05,0)" d="M0,20v300" style="stroke: rgb(0, 0, 0); stroke-opacity: 1; stroke-width: 1px;"/><path class="xgrid crisp" transform="translate(282.6,0)" d="M0,20v300" style="stroke: rgb(0, 0, 0); stroke-opacity: 1; stroke-width: 1px;"/><path class="xgrid crisp" transform="translate(301.15,0)" d="M0,20v300" style="stroke: rgb(0, 0, 0); stroke-opacity: 1; stroke-width: 1px;"/><path class="xgrid crisp" transform="translate(319.7,0)" d="M0,20v300" style="stroke: rgb(0, 0, 0); stroke-opacity: 1; stroke-width: 1px;"/><path class="xgrid crisp" transform="translate(338.25,0)" d="M0,20v300" style="stroke: rgb(0, 0, 0); stroke-opacity: 1; stroke-width: 1px;"/><path class="xgrid crisp" transform="translate(356.8,0)" d="M0,20v300" style="stroke: rgb(0, 0, 0); stroke-opacity: 1; stroke-width: 1px;"/><path class="xgrid crisp" transform="translate(375.35,0)" d="M0,20v300" style="stroke: rgb(0, 0, 0); stroke-opacity: 1; stroke-width: 1px;"/><path class="xgrid crisp" transform="translate(393.9,0)" d="M0,20v300" style="stroke: rgb(0, 0, 0); stroke-opacity: 1; stroke-width: 1px;"/><path class="xgrid crisp" transform="translate(412.45,0)" d="M0,20v300" style="stroke: rgb(0, 0, 0); stroke-opacity: 1; stroke-width: 1px;"/></g><g class="y"><path class="ygrid crisp" transform="translate(0,270)" d="M60,0h371" style="stroke: rgb(0, 0, 0); stroke-opacity: 1; stroke-width: 1px;"/><path class="ygrid crisp" transform="translate(0,220)" d="M60,0h371" style="stroke: rgb(0, 0, 0); stroke-opacity: 1; stroke-width: 1px;"/><path class="ygrid crisp" transform="translate(0,170)" d="M60,0h371" style="stroke: rgb(0, 0, 0); stroke-opacity: 1; stroke-width: 1px;"/><path class="ygrid crisp" transform="translate(0,120)" d="M60,0h371" style="stroke: rgb(0, 0, 0); stroke-opacity: 1; stroke-width: 1px;"/><path class="ygrid crisp" transform="translate(0,70)" d="M60,0h371" style="stroke: rgb(0, 0, 0); stroke-opacity: 1; stroke-width: 1px;"/></g></g><g class="zerolinelayer"><path class="yzl zl crisp" transform="translate(0,320)" d="M60,0h371" style="stroke: rgb(0, 0, 0); stroke-opacity: 1; stroke-width: 1px;"/></g><g class="layer-between"><g class="shapelayer"/><g class="imagelayer"/></g><path class="xlines-below"/><path class="ylines-below"/><g class="overlines-below"/><g class="xaxislayer-below"/><g class="yaxislayer-below"/><g class="overaxes-below"/><g class="overplot"><g class="xy" transform="translate(60,20)" clip-path="url(#clip9f20abxyplot)"><g class="scatterlayer mlayer"><g class="trace scatter tracee01c0d" style="stroke-miterlimit: 2; opacity: 1;"><g class="fills"/><g class="errorbars"/><g class="lines"><path class="js-line" d="M0,123L3.09,123L6.18,122L9.28,124L12.37,124L18.55,124L21.64,126L24.73,127L27.83,129L30.92,130L34.01,130L37.1,131L40.19,130L43.28,130L46.38,131L49.47,132L52.56,132L55.65,133L58.74,133L61.83,134L64.93,134L68.02,134L71.11,135L74.2,134L77.29,134L83.48,136L86.57,135L89.66,134L92.75,134L98.93,134L102.03,133L105.12,132L108.21,133L117.48,130L120.58,127L123.67,124L126.76,126L132.94,121L136.03,119L139.13,118L142.22,116L145.31,116L148.4,117L151.49,112L154.58,112L157.68,112L160.77,114L166.95,114L170.04,113L173.13,113L176.23,115L179.32,115L182.41,119L188.59,119L191.68,124L194.78,127L197.87,128L200.96,130L204.05,131L207.14,133L210.23,133L213.33,134L216.42,134L231.88,134L234.97,133L238.06,134L241.15,134L244.24,133L247.33,133L250.43,133L253.52,134L256.61,135L259.7,134L262.79,133L265.88,133L275.16,133L278.25,134L281.34,133L284.43,133L299.89,133L302.98,134L306.08,133L309.17,133L312.26,133L315.35,132L333.9,132L336.99,134L340.08,133L343.18,133L346.27,132L349.36,132L371,132" style="vector-effect: none; fill: none; stroke: rgb(0, 0, 255); stroke-opacity: 1; stroke-width: 3px; opacity: 1;"/></g><g class="points"/><g class="text"/></g><g class="trace scatter trace6df706" style="stroke-miterlimit: 2; opacity: 1;"><g class="fills"/><g class="errorbars"/><g class="lines"><path class="js-line" d="M0,84L3.09,88L6.18,89L9.28,91L12.37,92L15.46,94L18.55,94L21.64,97L24.73,97L27.83,99L30.92,97L37.1,95L40.19,96L43.28,97L46.38,97L49.47,99L52.56,98L55.65,96L58.74,97L64.93,95L68.02,95L71.11,96L74.2,95L77.29,93L80.38,93L83.48,94L86.57,94L89.66,97L92.75,95L95.84,92L98.93,91L102.03,88L105.12,89L114.39,86L117.48,84L120.58,84L123.67,81L126.76,82L129.85,80L136.03,78L139.13,76L142.22,73L145.31,74L148.4,73L151.49,70L157.68,68L160.77,69L170.04,66L173.13,66L176.23,65L179.32,65L182.41,65L185.5,64L188.59,63L191.68,63L194.78,61L197.87,60L207.14,60L210.23,58L213.33,56L216.42,57L219.51,55L222.6,55L225.69,55L228.78,53L234.97,51L238.06,52L241.15,51L244.24,49L247.33,50L250.43,49L253.52,48L256.61,49L259.7,48L262.79,46L265.88,47L268.98,46L272.07,45L275.16,45L278.25,46L281.34,45L284.43,48L287.53,47L290.62,46L293.71,47L296.8,47L299.89,48L302.98,48L306.08,49L315.35,52L318.44,51L327.72,51L330.81,54L333.9,53L336.99,56L340.08,56L343.18,58L346.27,59L349.36,61L355.54,61L358.63,64L361.73,64L364.82,69L367.91,72L371,67" style="vector-effect: none; fill: none; stroke: rgb(255, 0, 0); stroke-opacity: 1; stroke-width: 3px; opacity: 1;"/></g><g class="points"/><g class="text"/></g><g class="trace scatter trace8a0c0e" style="stroke-miterlimit: 2; opacity: 1;"><g class="fills"/><g class="errorbars"/><g class="lines"><path class="js-line" d="M0,238L6.18,240L9.28,240L12.37,240L15.46,241L18.55,241L21.64,242L24.73,241L27.83,241L34.01,243L37.1,242L40.19,243L43.28,243L49.47,243L52.56,241L55.65,241L58.74,238L64.93,236L68.02,234L71.11,234L74.2,232L80.38,230L83.48,228L89.66,224L92.75,221L95.84,220L98.93,218L102.03,213L105.12,210L108.21,211L111.3,208L114.39,202L117.48,201L120.58,199L123.67,193L126.76,196L129.85,191L139.13,170L142.22,158L157.68,114L160.77,107L163.86,102L166.95,101L176.23,101L179.32,103L182.41,102L185.5,102L188.59,98L191.68,98L194.78,98L197.87,95L204.05,99L207.14,98L210.23,97L213.33,97L216.42,98L219.51,95L222.6,92L225.69,95L228.78,93L231.88,93L234.97,90L238.06,93L241.15,91L244.24,87L247.33,90L250.43,90L253.52,88L256.61,87L259.7,87L262.79,82L265.88,85L268.98,84L272.07,80L275.16,78L278.25,81L281.34,76L284.43,80L287.53,79L290.62,76L293.71,78L296.8,71L299.89,71L302.98,70L306.08,70L309.17,68L312.26,67L315.35,69L318.44,67L321.53,62L324.63,63L327.72,60L330.81,62L333.9,58L336.99,56L340.08,56L343.18,54L346.27,50L349.36,50L355.54,46L358.63,47L361.73,43L364.82,45L367.91,46L371,41" style="vector-effect: none; fill: none; stroke: rgb(0, 128, 0); stroke-opacity: 1; stroke-width: 3px; opacity: 1;"/></g><g class="points"/><g class="text"/></g><g class="trace scatter tracea8c3ce" style="stroke-miterlimit: 2; opacity: 1;"><g class="fills"/><g class="errorbars"/><g class="lines"><path class="js-line" d="M0,254L3.09,255L6.18,254L9.28,255L12.37,254L71.11,254L74.2,253L83.48,253L86.57,252L95.84,252L98.93,253L102.03,252L105.12,252L108.21,253L111.3,252L114.39,253L117.48,252L120.58,253L123.67,252L126.76,253L129.85,252L139.13,252L142.22,251L166.95,251L170.04,250L173.13,250L176.23,251L182.41,251L185.5,250L188.59,250L191.68,251L194.78,250L197.87,250L225.69,250L228.78,249L231.88,249L234.97,250L238.06,249L241.15,250L244.24,249L247.33,250L250.43,249L253.52,250L256.61,250L259.7,249L275.16,249L278.25,250L281.34,249L284.43,249L306.08,249L309.17,248L312.26,249L315.35,248L333.9,248L336.99,249L340.08,248L343.18,248L349.36,248L352.45,247L355.54,248L358.63,247L364.82,247L367.91,248L371,247" style="vector-effect: none; fill: none; stroke: rgb(255, 165, 0); stroke-opacity: 1; stroke-width: 3px; opacity: 1;"/></g><g class="points"/><g class="text"/></g></g></g></g><path class="xlines-above crisp" d="M0,0" style="fill: none;"/><path class="ylines-above crisp" d="M0,0" style="fill: none;"/><g class="overlines-above"/><g class="xaxislayer-above"><g class="xtick"><text text-anchor="start" x="0" y="335" transform="translate(60,0) rotate(90,0,328)" style="font-family: 'Open Sans', verdana, arial, sans-serif; font-size: 14px; fill: rgb(0, 0, 0); fill-opacity: 1; white-space: pre; opacity: 1;">00:09:02</text></g><g class="xtick"><text text-anchor="start" x="0" y="335" transform="translate(78.55,0) rotate(90,0,328)" style="font-family: 'Open Sans', verdana, arial, sans-serif; font-size: 14px; fill: rgb(0, 0, 0); fill-opacity: 1; white-space: pre; opacity: 1;">01:09:02</text></g><g class="xtick"><text text-anchor="start" x="0" y="335" transform="translate(97.1,0) rotate(90,0,328)" style="font-family: 'Open Sans', verdana, arial, sans-serif; font-size: 14px; fill: rgb(0, 0, 0); fill-opacity: 1; white-space: pre; opacity: 1;">02:09:02</text></g><g class="xtick"><text text-anchor="start" x="0" y="335" transform="translate(115.65,0) rotate(90,0,328)" style="font-family: 'Open Sans', verdana, arial, sans-serif; font-size: 14px; fill: rgb(0, 0, 0); fill-opacity: 1; white-space: pre; opacity: 1;">03:09:02</text></g><g class="xtick"><text text-anchor="start" x="0" y="335" transform="translate(134.2,0) rotate(90,0,328)" style="font-family: 'Open Sans', verdana, arial, sans-serif; font-size: 14px; fill: rgb(0, 0, 0); fill-opacity: 1; white-space: pre; opacity: 1;">04:09:02</text></g><g class="xtick"><text text-anchor="start" x="0" y="335" transform="translate(152.75,0) rotate(90,0,328)" style="font-family: 'Open Sans', verdana, arial, sans-serif; font-size: 14px; fill: rgb(0, 0, 0); fill-opacity: 1; white-space: pre; opacity: 1;">05:09:02</text></g><g class="xtick"><text text-anchor="start" x="0" y="335" transform="translate(171.3,0) rotate(90,0,328)" style="font-family: 'Open Sans', verdana, arial, sans-serif; font-size: 14px; fill: rgb(0, 0, 0); fill-opacity: 1; white-space: pre; opacity: 1;">06:09:02</text></g><g class="xtick"><text text-anchor="start" x="0" y="335" transform="translate(189.85,0) rotate(90,0,328)" style="font-family: 'Open Sans', verdana, arial, sans-serif; font-size: 14px; fill: rgb(0, 0, 0); fill-opacity: 1; white-space: pre; opacity: 1;">07:09:02</text></g><g class="xtick"><text text-anchor="start" x="0" y="335" transform="translate(208.4,0) rotate(90,0,328)" style="font-family: 'Open Sans', verdana, arial, sans-serif; font-size: 14px; fill: rgb(0, 0, 0); fill-opacity: 1; white-space: pre; opacity: 1;">08:09:02</text></g><g class="xtick"><text text-anchor="start" x="0" y="335" transform="translate(226.95,0) rotate(90,0,328)" style="font-family: 'Open Sans', verdana, arial, sans-serif; font-size: 14px; fill: rgb(0, 0, 0); fill-opacity: 1; white-space: pre; opacity: 1;">09:09:02</text></g><g class="xtick"><text text-anchor="start" x="0" y="335" transform="translate(245.5,0) rotate(90,0,328)" style="font-family: 'Open Sans', verdana, arial, sans-serif; font-size: 14px; fill: rgb(0, 0, 0); fill-opacity: 1; white-space: pre; opacity: 1;">10:09:02</text></g><g class="xtick"><text text-anchor="start" x="0" y="335" transform="translate(264.05,0) rotate(90,0,328)" style="font-family: 'Open Sans', verdana, arial, sans-serif; font-size: 14px; fill: rgb(0, 0, 0); fill-opacity: 1; white-space: pre; opacity: 1;">11:09:02</text></g><g class="xtick"><text text-anchor="start" x="0" y="335" transform="translate(282.6,0) rotate(90,0,328)" style="font-family: 'Open Sans', verdana, arial, sans-serif; font-size: 14px; fill: rgb(0, 0, 0); fill-opacity: 1; white-space: pre; opacity: 1;">12:09:02</text></g><g class="xtick"><text text-anchor="start" x="0" y="335" transform="translate(301.15,0) rotate(90,0,328)" style="font-family: 'Open Sans', verdana, arial, sans-serif; font-size: 14px; fill: rgb(0, 0, 0); fill-opacity: 1; white-space: pre; opacity: 1;">13:09:02</text></g><g class="xtick"><text text-anchor="start" x="0" y="335" transform="translate(319.7,0) rotate(90,0,328)" style="font-family: 'Open Sans', verdana, arial, sans-serif; font-size: 14px; fill: rgb(0, 0, 0); fill-opacity: 1; white-space: pre; opacity: 1;">14:09:02</text></g><g class="xtick"><text text-anchor="start" x="0" y="335" transform="translate(338.25,0) rotate(90,0,328)" style="font-family: 'Open Sans', verdana, arial, sans-serif; font-size: 14px; fill: rgb(0, 0, 0); fill-opacity: 1; white-space: pre; opacity: 1;">15:09:02</text></g><g class="xtick"><text text-anchor="start" x="0" y="335" transform="translate(356.8,0) rotate(90,0,328)" style="font-family: 'Open Sans', verdana, arial, sans-serif; font-size: 14px; fill: rgb(0, 0, 0); fill-opacity: 1; white-space: pre; opacity: 1;">16:09:02</text></g><g class="xtick"><text text-anchor="start" x="0" y="335" transform="translate(375.35,0) rotate(90,0,328)" style="font-family: 'Open Sans', verdana, arial, sans-serif; font-size: 14px; fill: rgb(0, 0, 0); fill-opacity: 1; white-space: pre; opacity: 1;">17:09:02</text></g><g class="xtick"><text text-anchor="start" x="0" y="335" transform="translate(393.9,0) rotate(90,0,328)" style="font-family: 'Open Sans', verdana, arial, sans-serif; font-size: 14px; fill: rgb(0, 0, 0); fill-opacity: 1; white-space: pre; opacity: 1;">18:09:02</text></g><g class="xtick"><text text-anchor="start" x="0" y="335" transform="translate(412.45,0) rotate(90,0,328)" style="font-family: 'Open Sans', verdana, arial, sans-serif; font-size: 14px; fill: rgb(0, 0, 0); fill-opacity: 1; white-space: pre; opacity: 1;">19:09:02</text></g><g class="xtick"><text text-anchor="start" x="0" y="335" transform="translate(431,0) rotate(90,0,328)" style="font-family: 'Open Sans', verdana, arial, sans-serif; font-size: 14px; fill: rgb(0, 0, 0); fill-opacity: 1; white-space: pre; opacity: 1;">20:09:02</text></g></g><g class="yaxislayer-above"><g class="ytick"><text text-anchor="end" x="59" y="4.8999999999999995" transform="translate(0,320)" style="font-family: 'Open Sans', verdana, arial, sans-serif; font-size: 14px; fill: rgb(0, 0, 0); fill-opacity: 1; white-space: pre; opacity: 1;">0</text></g><g class="ytick"><text text-anchor="end" x="59" y="4.8999999999999995" style="font-family: 'Open Sans', verdana, arial, sans-serif; font-size: 14px; fill: rgb(0, 0, 0); fill-opacity: 1; white-space: pre; opacity: 1;" transform="translate(0,270)">0.05</text></g><g class="ytick"><text text-anchor="end" x="59" y="4.8999999999999995" style="font-family: 'Open Sans', verdana, arial, sans-serif; font-size: 14px; fill: rgb(0, 0, 0); fill-opacity: 1; white-space: pre; opacity: 1;" transform="translate(0,220)">0.1</text></g><g class="ytick"><text text-anchor="end" x="59" y="4.8999999999999995" style="font-family: 'Open Sans', verdana, arial, sans-serif; font-size: 14px; fill: rgb(0, 0, 0); fill-opacity: 1; white-space: pre; opacity: 1;" transform="translate(0,170)">0.15</text></g><g class="ytick"><text text-anchor="end" x="59" y="4.8999999999999995" style="font-family: 'Open Sans', verdana, arial, sans-serif; font-size: 14px; fill: rgb(0, 0, 0); fill-opacity: 1; white-space: pre; opacity: 1;" transform="translate(0,120)">0.2</text></g><g class="ytick"><text text-anchor="end" x="59" y="4.8999999999999995" style="font-family: 'Open Sans', verdana, arial, sans-serif; font-size: 14px; fill: rgb(0, 0, 0); fill-opacity: 1; white-space: pre; opacity: 1;" transform="translate(0,70)">0.25</text></g><g class="ytick"><text text-anchor="end" x="59" y="4.8999999999999995" style="font-family: 'Open Sans', verdana, arial, sans-serif; font-size: 14px; fill: rgb(0, 0, 0); fill-opacity: 1; white-space: pre; opacity: 1;" transform="translate(0,20)">0.3</text></g></g><g class="overaxes-above"/></g></g><g class="polarlayer"/><g class="smithlayer"/><g class="ternarylayer"/><g class="geolayer"/><g class="funnelarealayer"/><g class="pielayer"/><g class="iciclelayer"/><g class="treemaplayer"/><g class="sunburstlayer"/><g class="glimages"/><defs id="topdefs-9f20ab"><g class="clips"/><clipPath id="legend9f20ab"><rect width="62" height="95" x="0" y="0"/></clipPath></defs><g class="layer-above"><g class="imagelayer"/><g class="shapelayer"/></g><g class="infolayer"><g class="legend" pointer-events="all" transform="translate(438,20)"><rect class="bg" shape-rendering="crispEdges" width="62" height="95" x="0" y="0" style="stroke: rgb(68, 68, 68); stroke-opacity: 1; fill: rgb(255, 255, 255); fill-opacity: 1; stroke-width: 0px;"/><g class="scrollbox" transform="" clip-path="url(#legend9f20ab)"><g class="groups"><g class="traces" transform="translate(0,15.6)" style="opacity: 1;"><text class="legendtext" text-anchor="start" x="40" y="5.46" style="font-family: 'Open Sans', verdana, arial, sans-serif; font-size: 14px; fill: rgb(0, 0, 0); fill-opacity: 1; white-space: pre;">C1</text><g class="layers" style="opacity: 1;"><g class="legendfill"/><g class="legendlines"><path class="js-line" d="M5,0h30" style="fill: none; stroke: rgb(0, 0, 255); stroke-opacity: 1; stroke-width: 3px;"/></g><g class="legendsymbols"><g class="legendpoints"/></g></g><rect class="legendtoggle" x="0" y="-10.6" width="56.84375" height="21.2" style="fill: rgb(0, 0, 0); fill-opacity: 0;"/></g><g class="traces" transform="translate(0,36.8)" style="opacity: 1;"><text class="legendtext" text-anchor="start" x="40" y="5.46" style="font-family: 'Open Sans', verdana, arial, sans-serif; font-size: 14px; fill: rgb(0, 0, 0); fill-opacity: 1; white-space: pre;">C2</text><g class="layers" style="opacity: 1;"><g class="legendfill"/><g class="legendlines"><path class="js-line" d="M5,0h30" style="fill: none; stroke: rgb(255, 0, 0); stroke-opacity: 1; stroke-width: 3px;"/></g><g class="legendsymbols"><g class="legendpoints"/></g></g><rect class="legendtoggle" x="0" y="-10.6" width="56.84375" height="21.2" style="fill: rgb(0, 0, 0); fill-opacity: 0;"/></g><g class="traces" transform="translate(0,58)" style="opacity: 1;"><text class="legendtext" text-anchor="start" x="40" y="5.46" style="font-family: 'Open Sans', verdana, arial, sans-serif; font-size: 14px; fill: rgb(0, 0, 0); fill-opacity: 1; white-space: pre;">C3</text><g class="layers" style="opacity: 1;"><g class="legendfill"/><g class="legendlines"><path class="js-line" d="M5,0h30" style="fill: none; stroke: rgb(0, 128, 0); stroke-opacity: 1; stroke-width: 3px;"/></g><g class="legendsymbols"><g class="legendpoints"/></g></g><rect class="legendtoggle" x="0" y="-10.6" width="56.84375" height="21.2" style="fill: rgb(0, 0, 0); fill-opacity: 0;"/></g><g class="traces" transform="translate(0,79.19999999999999)" style="opacity: 1;"><text class="legendtext" text-anchor="start" x="40" y="5.46" style="font-family: 'Open Sans', verdana, arial, sans-serif; font-size: 14px; fill: rgb(0, 0, 0); fill-opacity: 1; white-space: pre;">C4</text><g class="layers" style="opacity: 1;"><g class="legendfill"/><g class="legendlines"><path class="js-line" d="M5,0h30" style="fill: none; stroke: rgb(255, 165, 0); stroke-opacity: 1; stroke-width: 3px;"/></g><g class="legendsymbols"><g class="legendpoints"/></g></g><rect class="legendtoggle" x="0" y="-10.6" width="56.84375" height="21.2" style="fill: rgb(0, 0, 0); fill-opacity: 0;"/></g></g></g><rect class="scrollbar" rx="20" ry="3" width="0" height="0" x="0" y="0" style="fill: rgb(128, 139, 164); fill-opacity: 1;"/></g><g class="g-gtitle"><text class="gtitle" x="25" y="10" text-anchor="start" dy="0em" style="opacity: 1; font-family: 'Open Sans', verdana, arial, sans-serif; font-size: 14px; fill: rgb(0, 0, 0); fill-opacity: 1; white-space: pre;">Chemostat samples</text></g><g class="g-xtitle" transform="translate(0,3.2156249999999886)"><text class="xtitle" x="245.5" y="392.784375" text-anchor="middle" style="opacity: 1; font-family: 'Open Sans', verdana, arial, sans-serif; font-size: 14px; fill: rgb(0, 0, 0); fill-opacity: 1; white-space: pre;">Time [h]</text></g><g class="g-ytitle"><text class="ytitle" transform="rotate(-90,26.85,170)" x="26.85" y="170" text-anchor="middle" style="opacity: 1; font-family: 'Open Sans', verdana, arial, sans-serif; font-size: 14px; fill: rgb(0, 0, 0); fill-opacity: 1; white-space: pre;">OD</text></g></g></svg>