<svg class="main-svg" xmlns="http://www.w3.org/2000/svg" xmlns:xlink="http://www.w3.org/1999/xlink" width="700" height="500" style="" viewBox="0 0 700 500"><rect x="0" y="0" width="700" height="500" style="fill: rgb(255, 255, 255); fill-opacity: 1;"/><defs id="defs-24c420"><g class="clips"><clipPath id="clip24c420xyplot" class="plotclip"><rect width="510" height="430"/></clipPath><clipPath class="axesclip" id="clip24c420x"><rect x="40" y="0" width="510" height="500"/></clipPath><clipPath class="axesclip" id="clip24c420y"><rect x="0" y="20" width="700" height="430"/></clipPath><clipPath class="axesclip" id="clip24c420xy"><rect x="40" y="20" width="510" height="430"/></clipPath></g><g class="gradients"/><g class="patterns"/></defs><g class="bglayer"/><g class="layer-below"><g class="imagelayer"/><g class="shapelayer"/></g><g class="cartesianlayer"><g class="subplot xy"><g class="layer-subplot"><g class="shapelayer"/><g class="imagelayer"/></g><g class="minor-gridlayer"><g class="x"/><g class="y"/></g><g class="gridlayer"><g class="x"><path class="xgrid crisp" transform="translate(86.61,0)" d="M0,20v430" style="stroke: rgb(0, 0, 0); stroke-opacity: 1; stroke-width: 1px;"/><path class="xgrid crisp" transform="translate(133.22,0)" d="M0,20v430" style="stroke: rgb(0, 0, 0); stroke-opacity: 1; stroke-width: 1px;"/><path class="xgrid crisp" transform="translate(179.83,0)" d="M0,20v430" style="stroke: rgb(0, 0, 0); stroke-opacity: 1; stroke-width: 1px;"/><path class="xgrid crisp" transform="translate(226.44,0)" d="M0,20v430" style="stroke: rgb(0, 0, 0); stroke-opacity: 1; stroke-width: 1px;"/><path class="xgrid crisp" transform="translate(273.05,0)" d="M0,20v430" style="stroke: rgb(0, 0, 0); stroke-opacity: 1; stroke-width: 1px;"/><path class="xgrid crisp" transform="translate(319.66,0)" d="M0,20v430" style="stroke: rgb(0, 0, 0); stroke-opacity: 1; stroke-width: 1px;"/><path class="xgrid crisp" transform="translate(366.27,0)" d="M0,20v430" style="stroke: rgb(0, 0, 0); stroke-opacity: 1; stroke-width: 1px;"/><path class="xgrid crisp" transform="translate(412.88,0)" d="M0,20v430" style="stroke: rgb(0, 0, 0); stroke-opacity: 1; stroke-width: 1px;"/><path class="xgrid crisp" transform="translate(459.49,0)" d="M0,20v430" style="stroke: rgb(0, 0, 0); stroke-opacity: 1; stroke-width: 1px;"/><path class="xgrid crisp" transform="translate(506.1,0)" d="M0,20v430" style="stroke: rgb(0, 0, 0); stroke-opacity: 1; stroke-width: 1px;"/></g><g class="y"><path class="ygrid crisp" transform="translate(0,396.25)" d="M40,0h510" style="stroke: rgb(0, 0, 0); stroke-opacity: 1; stroke-width: 1px;"/><path class="ygrid crisp" transform="translate(0,342.5)" d="M40,0h510" style="stroke: rgb(0, 0, 0); stroke-opacity: 1; stroke-width: 1px;"/><path class="ygrid crisp" transform="translate(0,288.75)" d="M40,0h510" style="stroke: rgb(0, 0, 0); stroke-opacity: 1; stroke-width: 1px;"/><path class="ygrid crisp" transform="translate(0,235)" d="M40,0h510" style="stroke: rgb(0, 0, 0); stroke-opacity: 1; stroke-width: 1px;"/><path class="ygrid crisp" transform="translate(0,181.25)" d="M40,0h510" style="stroke: rgb(0, 0, 0); stroke-opacity: 1; stroke-width: 1px;"/><path class="ygrid crisp" transform="translate(0,127.5)" d="M40,0h510" style="stroke: rgb(0, 0, 0); stroke-opacity: 1; stroke-width: 1px;"/><path class="ygrid crisp" transform="translate(0,73.75)" d="M40,0h510" style="stroke: rgb(0, 0, 0); stroke-opacity: 1; stroke-width: 1px;"/></g></g><g class="zerolinelayer"><path class="xzl zl crisp" transform="translate(40,0)" d="M0,20v430" style="stroke: rgb(0, 0, 0); stroke-opacity: 1; stroke-width: 1px;"/><path class="yzl zl crisp" transform="translate(0,450)" d="M40,0h510" style="stroke: rgb(0, 0, 0); stroke-opacity: 1; stroke-width: 1px;"/></g><g class="layer-between"><g class="shapelayer"/><g class="imagelayer"/></g><path class="xlines-below"/><path class="ylines-below"/><g class="overlines-below"/><g class="xaxislayer-below"/><g class="yaxislayer-below"/><g class="overaxes-below"/><g class="overplot"><g class="xy" transform="translate(40,20)" clip-path="url(#clip24c420xyplot)"><g class="scatterlayer mlayer"><g class="trace scatter tracea40807" style="stroke-miterlimit: 2; opacity: 1;"><g class="fills"/><g class="errorbars"/><g class="lines"><path class="js-line" d="M1.17,409.58L2.46,407.96L3.76,403.13L7.64,396.14L8.94,395.6L10.23,394.53L11.53,391.84L12.82,394.53L14.12,388.61L19.3,382.7L20.59,382.7L21.89,382.16L23.18,380.55L25.77,377.86L27.06,376.25L29.65,373.03L30.95,371.95L32.24,370.34L33.54,367.11L34.83,366.58L36.13,367.65L40.01,365.5L41.31,363.35L42.6,364.43L43.9,363.89L45.19,364.43L46.49,363.89L47.78,360.13L49.07,363.35L50.37,361.74L51.66,362.81L52.96,361.74L54.25,361.74L55.55,352.6L56.84,351.53L58.14,351.53L59.43,350.45L60.73,349.38L62.02,346.69L65.91,341.31L67.2,341.31L68.5,338.63L69.79,338.09L74.97,325.73L76.26,325.19L78.85,322.5L80.15,320.89L82.74,321.43L84.03,317.66L86.62,318.2L87.92,315.51L91.8,309.6L93.1,312.29L94.39,306.91L95.69,308.52L96.98,306.38L98.27,306.38L100.86,305.3L102.16,303.15L104.75,298.31L106.04,299.93L109.93,295.09L111.22,294.55L112.52,294.55L113.81,291.86L117.7,290.25L118.99,287.56L120.29,289.17L121.58,287.56L122.87,286.49L124.17,286.49L125.46,285.95L126.76,284.34L129.35,280.58L130.64,279.5L133.23,278.43L134.53,276.81L137.12,275.2L138.41,274.13L141,270.36L142.3,269.83L144.89,266.06L146.18,266.6L147.47,264.45L148.77,263.91L150.06,264.99L151.36,262.3L152.65,261.76L153.95,259.08L156.54,258L157.83,256.39L159.13,256.39L160.42,255.31L161.72,253.16L163.01,253.16L165.6,252.09L166.9,248.86L168.19,247.79L169.48,247.79L175.96,240.26L177.25,239.19L181.14,235.43L182.43,235.96L185.02,233.28L186.32,233.28L188.91,228.44L190.2,228.44L196.67,221.45L197.97,220.38L201.85,218.23L203.15,214.46L204.44,212.85L205.74,214.46L208.33,210.16L209.62,210.7L210.92,206.94L212.21,208.01L213.51,206.94L214.8,204.25L216.1,202.1L217.39,201.56L218.68,201.03L219.98,198.34L221.27,196.73L222.57,198.88L223.86,196.19L225.16,196.19L227.75,192.96L229.04,192.43L230.34,191.89L231.63,189.74L232.93,187.59L234.22,187.05L235.52,183.83L236.81,184.9L243.28,175.23L244.58,174.69L252.35,165.55L253.64,169.31L254.94,165.01L256.23,163.94L257.53,159.64L258.82,160.18L260.12,160.18L261.41,162.32L262.71,162.32L264,163.4L266.59,161.25L267.88,161.79L269.18,159.1L270.47,159.64L271.77,160.71L273.06,158.56L274.36,160.18L275.65,159.64L278.24,157.49L279.54,156.95L280.83,155.34L282.13,151.04L284.72,156.95L286.01,153.19L287.31,155.34L288.6,154.8L289.9,151.57L291.19,151.04L292.48,150.5L293.78,146.74L295.07,154.26L296.37,150.5L297.66,148.35L298.96,149.96L300.25,152.11L301.55,147.81L302.84,151.57L304.14,151.04L305.43,149.43L306.73,149.96L308.02,148.35L309.32,148.89L310.61,149.96L311.91,148.35L313.2,149.43L314.5,152.65L315.79,147.27L317.08,146.74L318.38,147.81L319.67,147.81L320.97,147.81L322.26,146.2L324.85,143.51L326.15,143.51L327.44,141.36L328.74,141.9L330.03,142.97L331.33,142.44L332.62,145.66L333.92,139.75L335.21,140.29L336.51,144.05L337.8,146.2L339.1,142.97L340.39,142.44L341.68,142.97L342.98,146.2L344.27,140.82L345.57,142.44L346.86,141.36L348.16,138.14L349.45,127.39L350.75,133.3L352.04,133.3L353.34,137.06L354.63,137.6L355.93,138.14L357.22,128.46L358.52,129L359.81,126.85L361.11,131.69L362.4,126.85L363.7,127.39L364.99,122.01L366.28,130.07L367.58,122.01L368.87,120.94L370.17,118.25L371.46,129L372.76,119.86L374.05,127.39L375.35,121.48L377.94,128.46L379.23,118.79L380.53,120.4L381.82,119.86L383.12,117.71L384.41,119.33L387,116.64L388.3,120.94L389.59,116.1L390.88,114.49L392.18,112.88L393.47,116.64L394.77,113.95L396.06,120.4L397.36,119.33L398.65,116.1L399.95,119.86L401.24,117.71L402.54,120.94L403.83,120.4L405.13,112.34L406.42,119.33L407.72,113.95L409.01,112.88L410.31,113.41L411.6,116.1L412.89,117.71L414.19,110.19L416.78,112.34L418.07,108.57L419.37,113.95L420.66,108.04L421.96,111.26L423.25,105.35L424.55,107.5L425.84,115.03L427.14,103.2L428.43,113.41L431.02,103.2L432.32,105.35L433.61,101.59L434.91,102.66L436.2,101.05L437.49,96.75L438.79,98.9L440.08,98.9L441.38,104.28L442.67,96.21L443.97,95.68L445.26,88.69L446.56,88.15L447.85,91.91L449.15,89.23L450.44,96.75L454.33,89.23L455.62,103.74L458.21,81.7L459.51,88.69L460.8,86L462.09,79.01L463.39,88.69L464.68,78.47L465.98,76.32L467.27,83.85L469.86,71.49L471.16,80.09L472.45,75.25L473.75,74.17L476.34,75.25L477.63,69.88L478.93,77.4L480.22,75.79L481.52,72.02L482.81,71.49L484.11,77.4L485.4,72.02L486.69,75.25L487.99,82.24L490.58,68.8L491.87,83.85L493.17,69.88L494.46,70.95L495.76,68.8L497.05,69.88L498.35,69.34L499.64,82.24L500.94,67.19L502.23,68.26L503.53,67.72L504.82,73.1L506.12,67.72L507.41,69.88L510,60.2" style="vector-effect: none; fill: none; stroke: rgb(68, 1, 84); stroke-opacity: 1; stroke-width: 1.7px; opacity: 1;"/></g><g class="points"/><g class="text"/></g><g class="trace scatter trace2bdac5" style="stroke-miterlimit: 2; opacity: 1;"><g class="fills"/><g class="errorbars"/><g class="lines"><path class="js-line" d="M1.17,410.11L2.46,408.5L3.76,404.74L6.35,404.2L7.64,402.59L10.23,401.51L11.53,398.83L12.82,399.36L14.12,396.68L15.41,395.6L16.71,393.45L20.59,388.08L21.89,387.54L25.77,382.16L27.06,380.55L28.36,379.48L29.65,376.79L30.95,375.71L32.24,373.56L33.54,371.95L34.83,373.03L38.72,364.96L40.01,366.58L41.31,366.58L42.6,364.96L43.9,360.13L45.19,362.81L46.49,361.2L47.78,354.21L49.07,359.05L50.37,358.51L51.66,348.84L52.96,347.76L54.25,346.15L55.55,348.84L56.84,336.48L58.14,338.09L60.73,336.48L62.02,327.88L63.32,327.88L64.61,322.5L65.91,323.04L67.2,321.96L68.5,312.83L69.79,311.75L73.67,299.93L74.97,296.7L76.26,292.94L77.56,286.49L78.85,286.49L80.15,280.04L82.74,284.88L84.03,276.81L85.33,273.05L86.62,272.51L87.92,274.13L89.21,270.36L90.51,268.75L91.8,268.75L93.1,272.51L94.39,262.3L95.69,268.21L96.98,264.99L98.27,266.06L99.57,266.06L100.86,266.06L102.16,262.3L103.45,256.92L104.75,255.31L106.04,259.08L107.34,256.39L108.63,252.63L109.93,252.63L111.22,252.09L112.52,249.4L115.11,243.49L116.4,242.41L117.7,241.34L118.99,236.5L120.29,235.43L121.58,232.74L122.87,227.9L124.17,228.98L126.76,223.6L128.05,220.38L131.94,211.78L133.23,211.24L134.53,206.94L135.82,207.48L137.12,204.25L138.41,203.71L141,198.34L142.3,196.19L143.59,185.98L144.89,181.68L148.77,178.45L150.06,179.53L153.95,175.76L155.24,176.3L156.54,176.3L157.83,174.69L160.42,174.15L161.72,168.78L164.31,170.93L165.6,169.31L166.9,166.09L168.19,165.01L172.07,161.79L173.37,164.48L174.66,162.32L175.96,164.48L177.25,161.25L178.55,161.25L179.84,160.18L181.14,160.18L183.73,161.79L185.02,159.64L186.32,159.1L187.61,157.49L190.2,156.95L191.5,154.26L192.79,155.34L194.08,154.8L195.38,154.8L196.67,153.19L197.97,154.8L199.26,154.26L203.15,153.19L204.44,149.43L205.74,152.11L207.03,151.57L208.33,149.96L209.62,150.5L213.51,144.59L214.8,143.51L216.1,142.44L217.39,144.05L218.68,142.97L219.98,142.97L221.27,144.05L222.57,141.36L226.45,139.21L227.75,139.75L230.34,141.36L231.63,139.75L232.93,138.14L234.22,138.67L235.52,139.21L236.81,141.36L239.4,138.67L240.7,140.29L244.58,138.14L245.87,141.36L248.46,137.6L249.76,138.67L251.05,138.14L252.35,138.67L253.64,139.75L254.94,138.14L256.23,138.14L257.53,136.52L260.12,135.99L261.41,139.21L262.71,138.14L264,134.91L266.59,132.76L267.88,134.38L269.18,135.99L270.47,132.76L273.06,134.91L274.36,134.38L275.65,135.99L276.95,132.76L280.83,131.15L282.13,131.15L284.72,133.3L286.01,134.38L287.31,133.3L288.6,134.38L289.9,130.61L291.19,132.76L292.48,132.76L293.78,128.46L295.07,133.3L296.37,131.15L297.66,130.61L298.96,132.22L300.25,133.84L301.55,130.07L302.84,130.07L304.14,133.3L306.73,131.69L308.02,132.76L310.61,131.69L311.91,132.22L313.2,132.76L314.5,130.61L315.79,128.46L317.08,129L318.38,126.85L319.67,132.76L320.97,127.92L322.26,127.39L323.56,129L324.85,127.93L327.44,123.09L328.74,123.09L330.03,123.63L331.33,123.09L332.62,126.85L333.92,122.55L336.51,124.7L337.8,129.54L339.1,125.24L340.39,126.85L341.68,126.31L342.98,124.7L344.27,126.31L345.57,124.16L346.86,125.78L348.16,125.78L349.45,116.64L350.75,119.86L352.04,119.33L353.34,122.55L355.93,122.01L357.22,118.25L358.52,117.71L359.81,118.25L362.4,117.18L363.7,117.71L364.99,115.56L366.28,119.33L368.87,112.88L370.17,111.8L371.46,117.18L372.76,112.34L374.05,117.18L375.35,113.95L376.64,112.88L377.94,114.49L379.23,108.57L380.53,109.65L381.82,109.65L383.12,106.96L384.41,108.04L385.71,107.5L387,109.11L388.3,108.04L389.59,108.57L390.88,106.96L392.18,106.43L393.47,111.26L394.77,106.43L396.06,112.34L398.65,108.57L399.95,110.73L402.54,110.19L403.83,111.8L405.13,110.19L406.42,112.34L407.72,106.43L409.01,107.5L410.31,111.26L411.6,107.5L412.89,108.57L414.19,107.5L415.48,106.96L416.78,113.41L418.07,107.5L419.37,113.41L420.66,106.43L421.96,106.43L423.25,109.65L424.55,109.65L425.84,109.65L427.14,107.5L428.43,115.56L429.73,113.95L431.02,105.89L432.32,110.73L433.61,106.43L434.91,115.03L436.2,110.73L437.49,109.11L438.79,113.41L440.08,110.73L441.38,114.49L442.67,112.88L443.97,111.8L445.26,104.28L447.85,111.26L449.15,110.19L451.74,110.19L453.03,106.96L454.33,108.04L455.62,116.1L458.21,103.74L459.51,113.41L460.8,111.26L462.09,104.81L463.39,115.03L464.68,106.96L467.27,110.73L468.57,109.65L469.86,103.2L471.16,109.65L472.45,109.65L473.75,110.73L476.34,113.41L477.63,108.04L480.22,115.03L481.52,110.73L482.81,109.65L484.11,111.26L485.4,108.04L486.69,110.19L487.99,115.56L489.28,113.41L490.58,110.19L491.87,117.18L493.17,106.96L494.46,110.19L495.76,106.96L497.05,109.11L498.35,108.04L499.64,118.25L500.94,108.57L502.23,109.65L503.53,106.96L504.82,116.1L506.12,110.73L507.41,115.56L510,104.81" style="vector-effect: none; fill: none; stroke: rgb(59, 82, 139); stroke-opacity: 1; stroke-width: 1.7px; opacity: 1;"/></g><g class="points"/><g class="text"/></g><g class="trace scatter traceba39f9" style="stroke-miterlimit: 2; opacity: 1;"><g class="fills"/><g class="errorbars"/><g class="lines"><path class="js-line" d="M1.17,407.43L3.76,397.75L5.05,397.75L7.64,394.53L8.94,392.91L15.41,385.93L16.71,382.7L20.59,378.4L21.89,377.86L24.47,374.64L25.77,373.03L28.36,370.34L29.65,368.73L36.13,359.59L37.42,357.44L40.01,353.68L41.31,352.6L45.19,349.91L46.49,347.23L47.78,341.31L49.07,346.15L50.37,343.46L51.66,343.46L52.96,341.85L54.25,332.18L55.55,335.94L56.84,332.18L60.73,323.58L62.02,317.66L63.32,316.05L64.61,319.27L65.91,311.75L67.2,309.6L68.5,305.84L69.79,299.39L71.09,292.94L72.38,275.74L73.67,282.19L74.97,278.96L76.26,275.2L77.56,275.2L80.15,252.63L81.44,256.39L82.74,253.7L84.03,242.95L85.33,235.96L86.62,235.96L87.92,233.81L89.21,224.68L90.51,217.69L91.8,216.08L93.1,219.84L94.39,203.71L95.69,211.24L96.98,207.48L98.27,207.48L99.57,205.33L100.86,209.09L102.16,205.86L103.45,198.34L104.75,197.8L106.04,203.71L107.34,203.18L108.63,197.8L109.93,201.56L111.22,201.56L112.52,203.71L115.11,201.56L116.4,202.64L117.7,201.56L118.99,198.88L120.29,197.8L121.58,195.65L122.87,190.28L124.17,211.24L128.05,195.11L129.35,192.43L130.64,188.66L131.94,188.13L133.23,187.05L134.53,181.68L135.82,183.29L137.12,181.68L138.41,180.6L139.71,177.91L141,177.91L142.3,175.76L143.59,170.93L144.89,171.46L146.18,171.46L147.47,168.78L148.77,167.16L150.06,168.24L153.95,164.48L155.24,165.01L156.54,165.01L157.83,162.86L160.42,162.32L161.72,158.56L163.01,158.56L164.31,160.71L165.6,161.79L166.9,159.1L168.19,156.95L169.48,158.56L175.96,158.56L177.25,157.49L178.55,157.49L179.84,155.88L181.14,155.88L182.43,157.49L185.02,156.95L186.32,155.88L187.61,154.8L188.91,155.34L190.2,155.88L191.5,154.26L194.08,155.88L195.38,155.34L196.67,154.26L197.97,155.34L201.85,155.34L203.15,154.26L204.44,151.57L205.74,153.72L207.03,154.26L208.33,152.65L209.62,153.72L210.92,152.11L213.51,152.65L214.8,151.57L216.1,151.04L217.39,151.57L218.68,152.11L219.98,151.04L221.27,150.5L222.57,151.04L225.16,151.57L226.45,150.5L227.75,151.04L229.04,149.43L230.34,150.5L231.63,149.43L234.22,148.89L235.52,148.35L236.81,149.96L238.11,149.43L239.4,148.35L240.7,148.35L244.58,149.43L245.87,149.43L251.05,147.81L252.35,148.35L253.64,148.35L254.94,147.27L256.23,147.81L257.53,146.2L260.12,145.66L261.41,148.35L262.71,147.27L264,147.81L265.3,146.74L266.59,146.74L269.18,147.27L270.47,146.2L271.77,146.74L273.06,146.2L278.24,145.66L279.54,144.05L282.13,143.51L283.42,145.13L284.72,145.13L286.01,144.05L287.31,143.51L288.6,144.05L289.9,144.59L291.19,144.05L293.78,142.44L295.07,145.13L297.66,143.51L298.96,144.05L300.25,144.59L301.55,142.97L302.84,145.13L304.14,144.05L306.73,143.51L308.02,143.51L311.91,143.51L313.2,144.05L314.5,145.13L315.79,143.51L318.38,141.9L319.67,142.97L320.97,143.51L322.26,142.97L327.44,139.21L328.74,138.67L330.03,140.82L331.33,140.29L332.62,141.36L333.92,139.21L336.51,140.82L337.8,140.82L339.1,139.21L340.39,139.75L341.68,140.82L342.98,140.82L344.27,138.14L345.57,139.75L348.16,138.14L349.45,131.69L350.75,135.45L352.04,135.45L353.34,138.67L354.63,138.67L355.93,138.67L357.22,134.38L359.81,132.22L361.11,133.84L362.4,132.76L363.7,132.76L364.99,130.61L366.28,135.45L368.87,130.61L370.17,128.46L371.46,134.38L372.76,128.46L374.05,134.38L375.35,130.61L376.64,132.76L377.94,133.3L379.23,129.54L380.53,130.61L381.82,131.15L383.12,129L384.41,128.46L385.71,129.54L387,127.92L388.3,130.07L389.59,127.92L390.88,127.39L392.18,125.78L393.47,130.07L394.77,127.39L396.06,131.69L397.36,131.69L398.65,129L399.95,132.22L401.24,130.61L403.83,133.84L405.13,127.39L406.42,133.3L407.72,127.92L410.31,128.46L411.6,128.46L412.89,129L414.19,125.78L416.78,130.61L418.07,127.92L419.37,130.07L420.66,126.31L421.96,128.46L423.25,126.85L424.55,127.39L425.84,129L427.14,126.31L428.43,132.76L429.73,130.61L431.02,126.85L432.32,128.46L433.61,126.85L434.91,132.22L436.2,131.15L437.49,128.46L438.79,129.54L440.08,130.61L441.38,134.38L442.67,131.15L443.97,130.07L445.26,125.24L446.56,125.78L447.85,129.54L449.15,125.78L450.44,129.54L451.74,129L453.03,124.7L454.33,127.39L455.62,131.69L456.92,127.92L458.21,123.09L459.51,129.54L462.09,121.48L463.39,130.61L464.68,124.7L465.98,122.55L467.27,127.39L468.57,126.31L469.86,121.48L471.16,127.92L472.45,125.24L473.75,125.78L475.04,125.78L476.34,126.85L477.63,124.16L478.93,127.92L480.22,129L481.52,125.24L482.81,124.16L484.11,128.46L485.4,125.78L486.69,126.85L487.99,131.69L489.28,127.39L490.58,125.24L491.87,132.22L493.17,124.16L494.46,124.16L495.76,124.7L497.05,124.16L498.35,124.16L499.64,132.76L500.94,124.16L502.23,123.09L503.53,125.78L504.82,132.22L506.12,131.15L507.41,133.3L510,125.24" style="vector-effect: none; fill: none; stroke: rgb(33, 144, 141); stroke-opacity: 1; stroke-width: 1.7px; opacity: 1;"/></g><g class="points"/><g class="text"/></g><g class="trace scatter trace916f8b" style="stroke-miterlimit: 2; opacity: 1;"><g class="fills"/><g class="errorbars"/><g class="lines"><path class="js-line" d="M1.17,410.11L2.46,409.58L3.76,406.89L7.64,397.21L8.94,397.21L14.12,394.53L15.41,392.91L16.71,390.23L18,389.69L23.18,384.31L24.47,383.24L32.24,373.03L33.54,370.88L41.31,360.66L42.6,361.2L43.9,360.13L45.19,355.29L46.49,356.9L47.78,353.68L49.07,350.99L50.37,353.68L51.66,353.14L52.96,347.23L54.25,344.54L55.55,339.7L56.84,343.46L58.14,332.71L64.61,316.05L65.91,316.59L71.09,297.24L72.38,289.17L73.67,288.64L74.97,284.34L76.26,283.8L77.56,269.29L78.85,270.9L80.15,261.76L82.74,268.21L84.03,255.85L85.33,252.09L86.62,252.63L87.92,253.16L89.21,246.18L91.8,239.19L93.1,244.56L94.39,228.44L95.69,235.43L96.98,232.74L98.27,234.35L99.57,236.5L100.86,234.35L102.16,232.2L103.45,226.29L104.75,225.21L106.04,230.05L107.34,228.44L108.63,224.14L109.93,227.36L111.22,226.83L112.52,225.75L113.81,221.99L115.11,220.38L116.4,220.91L117.7,219.3L118.99,215.54L120.29,216.61L121.58,212.31L122.87,208.55L124.17,211.77L128.05,204.25L129.35,198.34L130.64,192.96L131.94,194.04L133.23,192.96L134.53,187.05L135.82,189.2L137.12,187.05L138.41,185.98L139.71,182.75L141,183.29L142.3,181.68L143.59,176.3L144.89,177.38L146.18,176.84L147.47,174.69L148.77,172.54L150.06,174.15L151.36,171.46L152.65,170.93L153.95,169.31L155.24,169.31L157.83,166.63L159.13,166.63L160.42,166.09L161.72,161.79L163.01,161.79L164.31,163.94L165.6,164.48L166.9,161.79L168.19,160.18L169.48,161.79L172.07,160.18L173.37,160.71L175.96,161.25L177.25,160.18L178.55,159.64L179.84,158.02L181.14,158.56L182.43,160.18L186.32,158.02L187.61,156.95L190.2,156.95L191.5,154.8L194.08,155.88L195.38,155.34L196.67,154.26L197.97,155.34L203.15,155.34L204.44,152.11L205.74,154.26L207.03,154.26L208.33,152.65L209.62,153.72L210.92,151.57L212.21,152.65L213.51,151.57L214.8,151.57L217.39,151.04L218.68,152.11L221.27,149.96L222.57,150.5L225.16,149.96L226.45,149.43L227.75,149.43L229.04,148.35L230.34,149.43L231.63,148.35L235.52,147.81L236.81,148.89L240.7,146.74L241.99,147.81L244.58,148.35L245.87,147.27L247.17,147.81L248.46,147.27L249.76,147.27L251.05,145.66L253.64,146.74L254.94,145.13L256.23,145.66L257.53,144.59L260.12,144.05L261.41,145.66L262.71,145.13L264,145.66L265.3,145.13L266.59,143.51L267.88,145.13L269.18,144.59L270.47,142.97L271.77,144.05L278.24,141.36L279.54,140.29L280.83,141.36L282.13,140.29L283.42,141.9L284.72,141.9L286.01,140.82L287.31,140.82L291.19,140.29L292.48,139.21L293.78,138.14L295.07,141.36L296.37,140.29L297.66,142.44L298.96,142.97L300.25,142.44L301.55,141.9L302.84,142.97L304.14,142.97L305.43,141.9L306.73,141.36L308.02,141.9L310.61,140.82L311.91,141.9L313.2,141.9L314.5,143.51L317.08,141.36L318.38,140.29L320.97,142.44L322.26,141.36L324.85,138.67L326.15,138.67L327.44,137.6L328.74,137.6L330.03,139.21L331.33,139.21L332.62,140.29L333.92,138.67L337.8,140.29L339.1,138.67L340.39,138.67L341.68,139.75L342.98,140.29L344.27,137.6L345.57,138.67L346.86,138.14L348.16,137.06L349.45,130.08L350.75,132.76L352.04,133.3L353.34,136.52L354.63,135.45L355.93,135.45L357.22,131.15L359.81,127.93L361.11,131.15L362.4,129L363.7,129L364.99,126.31L366.28,132.22L368.87,126.85L370.17,126.85L371.46,132.22L372.76,126.85L374.05,131.15L375.35,127.39L377.94,130.07L379.23,125.24L381.82,126.85L383.12,124.7L385.71,125.24L387,122.55L388.3,126.31L389.59,124.16L390.88,123.63L392.18,120.94L393.47,125.78L394.77,123.09L396.06,127.93L397.36,127.93L398.65,124.7L399.95,128.46L401.24,127.39L402.54,128.46L403.83,129.54L405.13,123.09L406.42,129L407.72,123.63L409.01,125.24L410.31,124.7L411.6,124.7L412.89,125.78L414.19,122.01L415.48,124.7L416.78,126.85L418.07,124.7L419.37,127.39L420.66,123.09L421.96,124.7L423.25,123.63L424.55,124.16L425.84,126.85L427.14,123.09L428.43,129.54L431.02,124.16L432.32,125.24L433.61,123.63L434.91,129.54L436.2,128.46L437.49,125.24L438.79,125.78L440.08,127.39L441.38,131.15L442.67,127.93L443.97,125.78L445.26,120.94L446.56,122.01L447.85,125.24L449.15,122.01L450.44,125.24L451.74,125.78L453.03,119.86L455.62,129L456.92,123.09L458.21,118.79L459.51,125.78L462.09,118.25L463.39,126.31L464.68,120.94L465.98,119.33L467.27,123.09L468.57,121.48L469.86,116.64L471.16,122.55L472.45,119.33L473.75,119.33L476.34,121.48L477.63,117.71L480.22,124.16L481.52,119.33L482.81,115.03L484.11,124.16L485.4,119.86L486.69,118.79L487.99,125.78L489.28,120.94L490.58,118.25L491.87,126.31L493.17,116.64L494.46,117.71L495.76,117.18L497.05,117.71L498.35,117.18L499.64,127.39L500.94,116.64L502.23,116.1L503.53,119.33L504.82,124.7L506.12,124.16L507.41,126.31L510,116.64" style="vector-effect: none; fill: none; stroke: rgb(93, 201, 99); stroke-opacity: 1; stroke-width: 1.7px; opacity: 1;"/></g><g class="points"/><g class="text"/></g><g class="trace scatter trace60caa2" style="stroke-miterlimit: 2; opacity: 1;"><g class="fills"/><g class="errorbars"/><g class="lines"><path class="js-line" d="M1.17,405.28L2.46,405.81L3.76,402.05L6.35,392.91L7.64,391.84L8.94,391.3L10.23,389.69L11.53,389.15L12.82,387.54L15.41,383.78L16.71,378.94L18,378.4L19.3,376.25L21.89,374.64L23.18,371.95L24.47,371.95L25.77,369.26L27.06,368.73L28.36,367.11L32.24,361.74L33.54,360.66L34.83,359.59L36.13,359.59L38.72,358.51L40.01,356.9L43.9,355.83L45.19,351.53L46.49,347.76L47.78,347.23L49.07,344L50.37,345.08L51.66,336.48L52.96,341.31L54.25,337.01L55.55,329.49L56.84,330.56L58.14,325.73L59.43,327.34L60.73,322.5L63.32,313.36L64.61,310.68L67.2,294.55L68.5,294.01L71.09,283.26L72.38,276.81L76.26,256.92L77.56,241.88L78.85,235.96L80.15,235.96L82.74,223.06L84.03,208.55L85.33,197.8L86.62,196.73L89.21,182.21L90.51,173.61L91.8,170.39L93.1,170.39L94.39,153.72L95.69,155.34L96.98,153.72L98.27,148.89L99.57,144.05L100.86,147.81L103.45,134.38L104.75,134.91L107.34,135.45L108.63,124.16L109.93,127.39L111.22,125.78L112.52,124.16L113.81,119.33L115.11,115.03L116.4,113.41L117.7,107.5L118.99,136.52L120.29,154.26L121.58,148.35L122.87,140.29L124.17,142.97L125.46,140.29L126.76,134.38L129.35,124.16L130.64,120.94L131.94,125.24L133.23,123.63L134.53,118.25L135.82,119.33L137.12,117.71L138.41,120.4L139.71,113.41L141,114.49L142.3,113.41L143.59,110.19L144.89,107.5L146.18,112.88L147.47,107.5L148.77,107.5L150.06,115.03L151.36,109.65L152.65,112.34L153.95,104.81L155.24,108.04L156.54,107.5L157.83,105.35L159.13,106.43L160.42,109.11L161.72,105.35L165.6,108.57L166.9,105.35L168.19,105.35L169.48,109.11L170.78,106.96L172.07,106.43L173.37,108.04L174.66,108.04L175.96,110.73L177.25,109.65L178.55,110.19L179.84,108.57L181.14,106.96L182.43,111.8L186.32,111.26L187.61,110.19L188.91,109.11L190.2,111.8L192.79,110.73L194.08,113.41L195.38,110.73L196.67,110.19L199.26,113.41L200.56,112.88L201.85,112.88L203.15,110.73L204.44,107.5L205.74,112.88L207.03,112.34L208.33,109.65L209.62,112.34L210.92,108.57L212.21,111.26L213.51,111.8L214.8,110.73L216.1,108.57L217.39,111.8L218.68,111.8L219.98,110.19L221.27,110.19L222.57,112.34L223.86,111.8L226.45,109.65L227.75,109.65L230.34,111.8L231.63,109.65L232.93,109.11L234.22,110.73L235.52,107.5L236.81,111.8L238.11,110.19L239.4,110.19L240.7,109.65L241.99,110.19L244.58,112.88L245.87,112.34L247.17,113.41L248.46,112.34L251.05,111.8L252.35,111.26L253.64,115.03L254.94,110.73L256.23,110.73L257.53,108.04L258.82,106.96L260.12,107.5L261.41,110.73L262.71,111.26L264,113.41L265.3,111.26L266.59,109.11L267.88,110.73L269.18,109.65L270.47,110.19L271.77,111.8L273.06,109.11L275.65,111.26L276.95,110.19L278.24,110.19L279.54,108.57L280.83,106.96L282.13,103.2L284.72,110.19L286.01,105.89L288.6,108.57L289.9,104.81L291.19,104.81L292.48,103.74L293.78,99.98L295.07,108.04L296.37,104.28L297.66,103.2L300.25,106.43L301.55,102.66L302.84,107.5L304.14,106.96L306.73,105.35L308.02,104.81L309.32,105.89L310.61,105.89L313.2,105.89L314.5,110.73L315.79,104.28L317.08,103.2L318.38,103.2L319.67,105.35L320.97,105.35L322.26,103.2L324.85,97.82L326.15,96.75L327.44,94.06L328.74,94.6L330.03,97.82L331.33,97.29L332.62,101.05L333.92,97.82L335.21,99.44L336.51,103.2L337.8,103.2L339.1,100.51L342.98,105.35L344.27,102.66L345.57,104.81L346.86,104.81L348.16,101.59L349.45,92.45L350.75,96.75L352.04,97.82L353.34,104.28L354.63,102.13L355.93,102.66L357.22,94.6L359.81,91.91L361.11,95.68L362.4,93.52L363.7,95.68L364.99,89.23L366.28,100.51L367.58,91.91L368.87,90.84L370.17,87.61L371.46,99.44L372.76,88.69L374.05,96.21L375.35,91.38L376.64,95.14L377.94,97.82L379.23,87.07L381.82,90.84L383.12,86.54L385.71,87.07L387,81.7L388.3,87.61L389.59,80.63L390.88,82.24L392.18,79.55L393.47,88.69L394.77,83.31L397.36,90.3L398.65,81.16L399.95,89.23L401.24,86.54L403.83,89.23L405.13,80.09L406.42,90.84L407.72,81.16L410.31,84.93L411.6,84.93L412.89,86L414.19,75.79L416.78,86.54L418.07,82.24L419.37,86.54L420.66,77.94L421.96,80.09L423.25,77.94L424.55,77.94L425.84,83.85L427.14,73.1L428.43,90.3L431.02,77.94L432.32,81.7L433.61,79.55L434.91,88.69L437.49,79.55L438.79,83.31L440.08,83.31L441.38,90.3L442.67,83.31L443.97,80.63L445.26,72.56L446.56,72.56L447.85,76.86L449.15,72.56L450.44,80.09L451.74,79.01L453.03,69.88L454.33,73.1L455.62,86L456.92,72.56L458.21,65.04L459.51,77.94L460.8,73.64L462.09,64.5L463.39,78.47L464.68,66.11L465.98,64.5L467.27,69.34L468.57,67.19L469.86,59.66L471.16,69.88L472.45,65.57L475.04,65.57L476.34,68.26L477.63,60.74L478.93,70.41L480.22,60.74L481.52,58.05L482.81,56.98L484.11,66.11L485.4,55.9L486.69,59.66L487.99,71.49L489.28,60.74L490.58,55.9L491.87,72.56L493.17,53.75L494.46,53.21L495.76,49.45L497.05,48.38L498.35,43.54L499.64,63.96L500.94,44.07L502.23,48.91L503.53,48.91L504.82,59.66L506.12,51.06L507.41,56.44L510,37.63" style="vector-effect: none; fill: none; stroke: rgb(253, 231, 37); stroke-opacity: 1; stroke-width: 1.7px; opacity: 1;"/></g><g class="points"/><g class="text"/></g><g class="trace scatter traceb4c71c" style="stroke-miterlimit: 2; opacity: 1;"><g class="fills"/><g class="errorbars"/><g class="lines"><path class="js-line" d="M1.17,409.58L2.46,409.58L3.76,405.81L6.35,397.75L7.64,396.68L11.53,391.3L12.82,391.3L14.12,388.08L15.41,387L20.59,381.63L21.89,381.63L32.24,369.26L33.54,366.58L36.13,366.04L37.42,363.89L40.01,361.74L41.31,360.66L45.19,358.51L46.49,356.36L47.78,353.14L49.07,354.75L50.37,352.6L51.66,357.44L55.55,351.53L56.84,350.45L58.14,344L59.43,344.54L60.73,341.85L62.02,343.46L64.61,338.63L65.91,334.33L67.2,334.33L68.5,332.71L71.09,331.1L72.38,327.88L76.26,320.35L77.56,319.81L78.85,319.81L80.15,316.59L81.44,316.05L82.74,316.59L85.33,311.21L86.62,313.36L90.51,306.38L91.8,305.84L93.1,310.14L94.39,303.15L95.69,305.84L96.98,304.23L100.86,304.23L102.16,301.54L103.45,298.85L104.75,298.31L106.04,301.54L107.34,301.54L108.63,299.39L109.93,299.39L111.22,300.46L112.52,299.93L113.81,297.77L115.11,297.77L117.7,295.09L118.99,292.94L120.29,292.4L121.58,290.25L122.87,288.1L124.17,288.1L126.76,287.02L128.05,284.88L129.35,283.8L130.64,281.65L131.94,280.04L133.23,281.11L135.82,278.43L137.12,278.43L139.71,275.2L141,274.13L142.3,273.05L143.59,270.36L144.89,269.29L146.18,269.83L148.77,266.06L150.06,266.06L152.65,264.45L153.95,262.3L160.42,256.92L161.72,254.24L165.6,254.24L166.9,253.16L168.19,251.01L169.48,252.09L173.37,247.79L174.66,247.79L177.25,244.56L178.55,243.49L181.14,241.34L182.43,241.88L185.02,239.73L186.32,239.19L188.91,236.5L190.2,235.96L191.5,233.28L192.79,233.81L195.38,231.13L196.67,231.13L199.26,229.51L200.56,228.98L203.15,225.21L204.44,222.53L207.03,223.06L208.33,221.45L209.62,221.45L210.92,219.3L214.8,216.08L216.1,216.08L218.68,214.46L219.98,213.39L221.27,212.31L222.57,212.85L225.16,211.24L226.45,210.7L230.34,207.48L231.63,204.79L235.52,201.56L236.81,201.56L239.4,195.65L240.7,194.04L244.58,191.89L245.87,190.81L247.17,189.74L248.46,189.74L249.76,188.66L251.05,186.51L252.35,185.98L253.64,186.51L257.53,182.75L258.82,182.21L260.12,182.21L261.41,183.29L262.71,182.75L264,183.29L266.59,180.6L267.88,181.14L269.18,180.06L270.47,180.06L271.77,180.6L273.06,178.99L275.65,178.99L276.95,177.91L278.24,177.38L279.54,175.76L280.83,176.3L282.13,174.69L283.42,176.84L284.72,177.38L286.01,175.76L287.31,175.76L288.6,175.23L289.9,173.61L293.78,170.39L295.07,174.69L297.66,171.46L298.96,172L300.25,173.61L301.55,170.93L302.84,172.54L304.14,172L305.43,170.39L306.73,170.93L311.91,170.93L313.2,171.46L314.5,173.61L315.79,170.39L317.08,172.54L318.38,172L319.67,173.61L320.97,173.08L328.74,166.09L330.03,168.78L331.33,166.09L332.62,169.31L333.92,166.09L335.21,167.16L336.51,169.85L337.8,169.31L339.1,168.24L340.39,168.24L341.68,169.85L342.98,169.31L344.27,166.63L345.57,167.16L346.86,168.24L348.16,165.01L349.45,160.18L350.75,163.4L352.04,163.94L353.34,167.7L355.93,167.7L357.22,163.4L359.81,161.79L361.11,162.86L362.4,162.32L363.7,162.86L364.99,161.25L366.28,163.4L367.58,160.71L368.87,160.71L370.17,159.1L371.46,161.25L372.76,158.02L374.05,161.25L375.35,160.18L376.64,161.79L377.94,162.32L379.23,159.1L383.12,157.49L384.41,158.02L387,155.34L388.3,157.49L389.59,155.34L390.88,155.34L392.18,153.72L393.47,158.02L394.77,155.88L396.06,158.56L398.65,157.49L399.95,158.02L401.24,159.1L402.54,158.02L403.83,159.1L405.13,154.26L406.42,160.18L407.72,154.8L409.01,156.41L410.31,154.8L411.6,156.41L412.89,155.88L414.19,154.8L415.48,155.88L416.78,156.95L418.07,155.88L419.37,158.56L420.66,154.8L421.96,155.34L423.25,154.8L424.55,153.72L425.84,156.95L427.14,153.19L428.43,160.18L431.02,155.88L432.32,155.34L433.61,155.34L434.91,158.56L437.49,155.88L438.79,156.95L441.38,160.18L442.67,158.56L443.97,158.02L445.26,155.88L446.56,152.65L447.85,154.8L449.15,154.8L450.44,157.49L451.74,157.49L453.03,154.26L454.33,154.8L455.62,158.02L458.21,153.72L459.51,156.41L462.09,152.11L463.39,157.49L464.68,151.04L465.98,152.65L468.57,155.34L469.86,150.5L471.16,156.41L472.45,153.72L475.04,154.26L476.34,155.88L477.63,153.72L478.93,155.34L480.22,155.88L481.52,155.34L482.81,153.19L484.11,156.95L486.69,154.8L487.99,160.18L490.58,154.26L491.87,160.18L493.17,154.26L494.46,153.72L497.05,154.26L498.35,154.8L499.64,161.79L500.94,155.88L503.53,150.5L504.82,154.26L506.12,156.95L507.41,157.49L510,149.96" style="vector-effect: none; fill: none; stroke: rgb(68, 1, 84); stroke-opacity: 1; stroke-width: 1.7px; opacity: 1;"/></g><g class="points"/><g class="text"/></g><g class="trace scatter tracefca003" style="stroke-miterlimit: 2; opacity: 1;"><g class="fills"/><g class="errorbars"/><g class="lines"><path class="js-line" d="M1.17,414.41L3.76,406.89L5.05,405.81L8.94,400.44L10.23,399.9L19.3,385.39L20.59,384.85L28.36,375.71L29.65,372.49L33.54,367.11L34.83,367.65L37.42,359.59L38.72,358.51L41.31,359.05L42.6,355.29L43.9,350.99L45.19,353.68L47.78,345.61L49.07,348.3L50.37,349.38L51.66,344.54L52.96,342.39L54.25,341.85L55.55,340.78L56.84,337.55L58.14,337.55L59.43,334.33L60.73,333.25L62.02,326.8L63.32,327.34L64.61,321.96L65.91,323.04L67.2,322.5L71.09,310.14L72.38,302.08L73.67,302.08L74.97,298.31L77.56,289.71L78.85,290.79L80.15,285.41L81.44,287.56L82.74,287.56L84.03,281.11L85.33,277.89L86.62,277.89L87.92,280.58L89.21,275.2L90.51,274.13L91.8,275.2L93.1,277.89L94.39,267.68L95.69,271.44L96.98,268.75L99.57,269.83L100.86,266.6L102.16,265.52L103.45,257.46L104.75,256.39L106.04,260.15L108.63,254.78L109.93,255.31L111.22,255.85L112.52,252.09L115.11,247.25L116.4,246.18L117.7,244.56L118.99,240.8L120.29,239.19L121.58,234.35L122.87,230.59L124.17,231.66L125.46,228.44L126.76,227.36L128.05,226.29L129.35,221.45L131.94,215.54L133.23,216.08L134.53,211.78L135.82,213.39L138.41,209.63L139.71,207.48L142.3,205.86L143.59,198.88L144.89,196.73L146.18,191.89L148.77,187.05L150.06,188.66L156.54,185.44L157.83,184.36L159.13,184.36L160.42,183.29L161.72,177.38L163.01,179.53L164.31,179.53L165.6,177.91L166.9,177.38L168.19,175.76L169.48,175.76L170.78,173.61L172.07,173.61L173.37,176.3L174.66,174.69L175.96,175.23L177.25,173.08L178.55,173.61L181.14,173.08L182.43,174.69L183.73,174.69L185.02,173.61L187.61,171.46L188.91,173.08L190.2,173.08L191.5,170.93L192.79,171.46L194.08,170.93L195.38,170.93L196.67,169.31L197.97,171.46L199.26,170.93L203.15,170.39L204.44,166.09L207.03,168.78L208.33,167.16L209.62,168.24L210.92,166.63L212.21,163.4L213.51,163.4L214.8,162.32L216.1,162.86L217.39,163.94L218.68,162.86L221.27,165.01L222.57,161.79L225.16,161.25L226.45,161.79L230.34,164.48L231.63,163.4L232.93,162.32L234.22,162.32L236.81,165.01L238.11,164.48L239.4,162.86L240.7,165.01L244.58,163.94L245.87,166.63L247.17,165.01L248.46,165.01L249.76,165.55L251.05,165.01L252.35,166.63L253.64,165.55L254.94,165.01L256.23,166.09L260.12,165.55L261.41,168.78L262.71,167.7L264,164.48L266.59,162.86L267.88,164.48L269.18,166.63L270.47,163.94L273.06,166.63L274.36,165.55L275.65,167.7L276.95,165.01L278.24,164.48L279.54,161.25L283.42,166.63L284.72,166.63L286.01,168.24L287.31,167.16L288.6,169.31L289.9,167.16L291.19,169.31L292.48,169.85L293.78,167.16L295.07,170.39L296.37,168.24L297.66,168.78L300.25,171.46L301.55,168.78L302.84,168.24L304.14,172.54L306.73,170.93L308.02,172.54L309.32,172L310.61,169.85L311.91,173.08L313.2,172.54L314.5,169.85L315.79,170.39L317.08,172L318.38,169.31L319.67,175.76L320.97,170.93L323.56,173.61L324.85,173.61L326.15,169.85L327.44,169.85L330.03,171.46L331.33,171.46L332.62,174.15L333.92,173.08L335.21,173.61L336.51,173.08L337.8,175.23L339.1,174.15L340.39,175.76L341.68,175.23L342.98,171.46L344.27,175.76L345.57,173.61L346.86,175.23L348.16,174.69L349.45,172.54L350.75,175.23L352.04,174.69L353.34,176.3L354.63,176.3L355.93,175.23L357.22,175.76L359.81,177.91L361.11,175.23L362.4,175.76L363.7,177.38L364.99,177.91L366.28,177.38L367.58,176.3L368.87,176.3L370.17,176.3L371.46,178.99L372.76,178.45L374.05,180.6L375.35,180.06L376.64,178.45L377.94,178.99L379.23,177.91L380.53,177.91L381.82,176.3L383.12,175.23L384.41,176.84L385.71,176.3L387,181.14L388.3,178.45L389.59,181.14L390.88,178.45L392.18,181.14L393.47,182.21L394.77,178.99L396.06,183.29L397.36,179.52L398.65,181.68L399.95,180.6L401.24,181.68L402.54,181.14L403.83,181.14L405.13,183.83L407.72,180.06L409.01,180.6L410.31,183.29L411.6,181.68L412.89,182.21L414.19,183.83L415.48,181.14L416.78,186.51L418.07,182.75L419.37,187.05L421.96,181.14L423.25,185.98L424.55,185.98L425.84,181.14L427.14,185.98L428.43,184.9L429.73,185.98L431.02,182.21L432.32,184.9L433.61,183.29L434.91,186.51L436.2,184.9L438.79,189.2L440.08,183.83L441.38,184.9L442.67,187.59L443.97,188.66L445.26,185.44L446.56,188.66L447.85,186.51L449.15,188.66L450.44,185.98L451.74,184.9L453.03,186.51L455.62,186.51L456.92,188.13L458.21,185.44L459.51,188.66L460.8,188.66L462.09,185.98L463.39,189.2L464.68,185.98L465.98,191.35L467.27,187.59L468.57,188.13L469.86,185.98L471.16,187.05L472.45,190.28L473.75,189.74L475.04,190.81L476.34,192.43L477.63,189.74L478.93,188.13L480.22,190.81L482.81,191.89L484.11,185.98L486.69,189.74L487.99,189.2L489.28,192.43L490.58,191.35L493.17,187.05L494.46,191.35L495.76,188.66L497.05,191.35L498.35,191.35L499.64,192.43L500.94,190.81L502.23,191.89L503.53,188.13L504.82,191.89L506.12,189.74L507.41,191.89L508.71,189.2L510,189.74" style="vector-effect: none; fill: none; stroke: rgb(59, 82, 139); stroke-opacity: 1; stroke-width: 1.7px; opacity: 1;"/></g><g class="points"/><g class="text"/></g><g class="trace scatter trace998e15" style="stroke-miterlimit: 2; opacity: 1;"><g class="fills"/><g class="errorbars"/><g class="lines"><path class="js-line" d="M1.17,406.89L3.76,404.2L5.05,404.2L7.64,400.44L8.94,398.83L12.82,395.06L14.12,392.91L15.41,391.3L16.71,388.08L19.3,383.78L20.59,381.63L24.47,376.25L25.77,373.56L28.36,371.41L29.65,369.26L38.72,357.98L40.01,357.44L41.31,356.36L42.6,354.21L46.49,349.91L47.78,346.69L51.66,344.54L52.96,342.93L55.55,336.48L56.84,336.48L59.43,331.1L60.73,328.41L62.02,326.26L63.32,315.51L64.61,319.27L65.91,317.66L67.2,314.98L68.5,306.91L74.97,278.96L76.26,270.9L77.56,267.14L78.85,260.69L82.74,246.18L84.03,232.2L85.33,225.75L86.62,223.6L87.92,221.99L89.21,213.93L90.51,210.16L91.8,209.09L93.1,212.31L94.39,197.8L95.69,202.1L96.98,199.41L98.27,199.95L99.57,198.88L100.86,199.95L102.16,198.34L103.45,191.89L104.75,191.89L106.04,196.73L107.34,196.73L108.63,194.04L109.93,195.65L111.22,196.73L112.52,196.73L115.11,196.19L116.4,196.73L117.7,195.65L118.99,192.96L120.29,192.43L121.58,188.66L122.87,184.36L124.17,188.13L125.46,203.18L126.76,199.41L130.64,187.05L131.94,185.98L133.23,186.51L134.53,180.6L135.82,182.75L137.12,181.14L139.71,178.99L141,177.91L142.3,176.3L143.59,169.85L144.89,171.46L146.18,170.93L148.77,167.16L150.06,168.24L152.65,165.55L153.95,166.09L155.24,165.01L156.54,165.01L159.13,162.32L160.42,162.86L161.72,158.56L163.01,158.56L165.6,161.79L166.9,160.18L168.19,155.88L169.48,158.56L170.78,159.1L172.07,158.02L178.55,158.56L179.84,157.49L181.14,157.49L182.43,159.1L183.73,159.64L185.02,159.1L187.61,155.88L188.91,156.95L191.5,155.34L192.79,156.41L195.38,157.49L196.67,155.88L197.97,156.95L199.26,156.41L203.15,156.41L204.44,152.65L207.03,155.88L208.33,155.34L209.62,156.41L210.92,154.26L213.51,155.88L214.8,155.34L216.1,156.41L217.39,156.41L219.98,156.95L221.27,155.88L225.16,157.49L226.45,156.95L227.75,157.49L229.04,156.95L230.34,158.56L231.63,158.02L232.93,159.1L234.22,158.02L236.81,158.56L238.11,159.1L239.4,158.02L240.7,158.56L243.28,160.18L244.58,160.18L249.76,161.79L251.05,160.71L252.35,162.32L253.64,161.25L254.94,160.18L256.23,161.25L258.82,161.79L260.12,161.25L261.41,163.94L262.71,163.4L264,163.94L265.3,163.4L266.59,162.32L267.88,163.94L269.18,164.48L270.47,163.94L271.77,165.01L273.06,165.01L274.36,164.48L275.65,165.55L278.24,164.48L279.54,161.79L280.83,163.94L282.13,163.94L283.42,165.55L284.72,165.01L288.6,165.55L289.9,167.16L293.78,166.63L295.07,168.78L296.37,167.16L297.66,167.7L300.25,168.78L301.55,167.7L302.84,169.85L304.14,168.78L305.43,168.24L306.73,168.78L309.32,169.31L310.61,167.16L311.91,169.85L313.2,169.85L314.5,170.93L315.79,170.39L318.38,170.39L319.67,171.46L322.26,172.54L323.56,171.46L327.44,169.31L328.74,170.39L330.03,172.54L331.33,172L335.21,172.54L336.51,173.61L337.8,170.39L339.1,171.46L341.68,172.54L342.98,170.39L344.27,170.93L345.57,172.54L346.86,172L348.16,170.39L349.45,169.31L350.75,172.54L352.04,172.54L353.34,174.69L357.22,173.08L358.52,173.61L359.81,173.61L361.11,172L363.7,172.54L364.99,174.15L366.28,174.15L367.58,172.54L370.17,172.54L371.46,175.23L372.76,173.61L374.05,175.76L375.35,175.76L376.64,177.38L377.94,176.3L379.23,176.84L380.53,176.84L381.82,175.23L383.12,174.69L384.41,175.76L385.71,175.76L387,177.38L388.3,175.76L389.59,177.38L390.88,175.76L392.18,177.38L393.47,177.91L394.77,177.38L396.06,179.52L397.36,177.38L401.24,178.45L402.54,180.06L403.83,179.52L405.13,177.38L406.42,178.99L407.72,178.45L410.31,177.38L411.6,179.52L412.89,179.52L414.19,177.91L416.78,180.06L418.07,179.52L419.37,181.14L420.66,179.52L423.25,180.6L424.55,180.06L425.84,178.45L427.14,180.06L429.73,178.99L431.02,180.06L432.32,179.52L433.61,181.14L437.49,182.75L438.79,181.68L440.08,177.38L441.38,182.21L442.67,181.68L443.97,182.75L445.26,182.21L446.56,183.29L451.74,181.14L453.03,182.21L454.33,183.29L455.62,181.68L456.92,183.29L458.21,182.21L460.8,182.75L462.09,182.21L463.39,181.68L464.68,182.75L467.27,183.29L468.57,183.29L469.86,182.21L471.16,184.36L473.75,183.83L475.04,183.29L477.63,184.9L478.93,182.75L481.52,184.36L482.81,183.83L484.11,181.68L485.4,184.9L487.99,183.29L489.28,184.36L490.58,184.9L491.87,182.75L493.17,182.75L494.46,183.83L498.35,184.9L499.64,184.36L504.82,184.9L506.12,185.98L508.71,184.36L510,185.44" style="vector-effect: none; fill: none; stroke: rgb(33, 144, 141); stroke-opacity: 1; stroke-width: 1.7px; opacity: 1;"/></g><g class="points"/><g class="text"/></g><g class="trace scatter traceee0ef4" style="stroke-miterlimit: 2; opacity: 1;"><g class="fills"/><g class="errorbars"/><g class="lines"><path class="js-line" d="M1.17,407.43L3.76,403.13L5.05,403.13L6.35,400.98L7.64,400.44L10.23,398.83L11.53,398.29L16.71,388.61L18,387L20.59,382.7L21.89,381.09L25.77,374.64L27.06,373.56L28.36,373.03L29.65,370.34L30.95,369.26L32.24,367.11L38.72,357.44L40.01,355.83L41.31,354.75L42.6,352.6L49.07,346.69L50.37,347.76L51.66,346.69L52.96,346.69L58.14,333.79L59.43,332.71L60.73,332.18L62.02,328.95L65.91,318.74L67.2,319.27L68.5,316.05L69.79,314.98L72.38,297.24L73.67,294.01L76.26,281.11L77.56,281.11L78.85,270.9L80.15,269.29L81.44,268.75L82.74,267.14L84.03,255.85L85.33,253.7L87.92,252.63L89.21,247.25L91.8,241.88L93.1,245.64L94.39,233.81L95.69,237.58L96.98,233.81L98.27,233.81L99.57,233.81L100.86,232.74L102.16,232.2L103.45,225.75L104.75,222.53L106.04,227.36L107.34,225.75L108.63,222.53L109.93,221.99L111.22,222.53L112.52,220.91L113.81,217.15L115.11,218.23L116.4,218.23L117.7,216.61L118.99,213.39L120.29,212.85L121.58,210.16L122.87,208.01L124.17,210.7L125.46,208.01L126.76,207.48L129.35,200.49L130.64,202.1L131.94,198.88L133.23,198.34L134.53,195.65L135.82,196.73L139.71,189.2L141,190.28L143.59,182.75L144.89,183.29L147.47,182.21L148.77,179.52L151.36,177.91L152.65,175.76L153.95,175.76L155.24,174.15L156.54,174.69L157.83,172.54L160.42,169.85L161.72,165.55L163.01,165.55L164.31,168.78L165.6,168.78L166.9,167.16L168.19,165.01L169.48,166.63L170.78,165.55L172.07,166.09L173.37,165.01L174.66,165.01L175.96,165.01L177.25,163.94L178.55,163.94L179.84,162.32L181.14,162.32L182.43,163.94L183.73,163.94L185.02,162.86L187.61,161.25L188.91,161.79L191.5,161.25L192.79,162.32L195.38,162.86L196.67,161.79L197.97,162.86L199.26,162.32L201.85,162.32L203.15,161.25L204.44,158.02L205.74,159.64L207.03,161.79L208.33,160.18L209.62,161.25L210.92,159.64L212.21,159.1L213.51,160.18L217.39,160.71L218.68,161.25L221.27,159.64L222.57,160.18L226.45,160.18L227.75,161.25L229.04,159.64L230.34,161.25L231.63,160.71L232.93,161.25L234.22,161.79L235.52,161.25L238.11,161.79L239.4,160.71L240.7,160.71L241.99,161.79L247.17,162.32L248.46,163.4L249.76,163.4L251.05,162.32L252.35,163.4L253.64,162.32L254.94,161.79L256.23,162.32L258.82,162.86L260.12,161.79L261.41,165.01L262.71,164.48L265.3,165.01L266.59,163.4L267.88,166.09L269.18,165.55L270.47,164.48L271.77,165.01L273.06,166.09L274.36,165.55L276.95,165.55L278.24,164.48L279.54,161.79L280.83,165.01L282.13,164.48L283.42,165.01L286.01,165.55L287.31,165.01L289.9,167.7L291.19,166.63L292.48,166.09L293.78,166.63L295.07,168.78L296.37,168.24L297.66,171.46L298.96,170.93L300.25,170.39L301.55,170.93L304.14,171.46L305.43,170.93L309.32,172L310.61,169.85L311.91,172.54L313.2,172L317.08,173.08L318.38,172.54L319.67,174.69L320.97,174.69L323.56,174.69L324.85,173.61L327.44,173.08L328.74,173.61L331.33,175.76L332.62,175.76L336.51,177.38L337.8,174.69L339.1,175.76L340.39,175.76L341.68,176.84L342.98,174.69L345.57,176.3L346.86,175.76L349.45,172.54L350.75,174.69L352.04,174.69L353.34,176.84L355.93,175.23L357.22,174.69L361.11,174.15L362.4,173.08L363.7,174.69L364.99,174.15L366.28,175.23L367.58,174.69L368.87,174.15L370.17,175.23L371.46,177.38L372.76,175.76L374.05,177.91L375.35,177.38L376.64,178.45L377.94,178.45L380.53,177.91L381.82,175.76L387,177.91L388.3,178.99L390.88,177.38L392.18,177.91L393.47,178.99L394.77,178.45L396.06,180.6L397.36,179.53L398.65,178.99L399.95,179.53L401.24,180.06L402.54,181.68L403.83,181.14L405.13,178.99L406.42,180.6L407.72,179.53L409.01,179.53L410.31,178.45L411.6,180.6L412.89,181.14L414.19,180.06L415.48,180.6L416.78,181.68L418.07,181.68L419.37,183.83L420.66,182.21L421.96,181.14L423.25,182.75L425.84,181.14L427.14,182.75L428.43,181.68L429.73,181.68L433.61,183.29L434.91,184.36L436.2,185.44L437.49,184.9L438.79,184.9L440.08,183.29L442.67,184.9L443.97,184.36L445.26,183.83L446.56,184.36L451.74,183.83L453.03,183.29L454.33,185.44L455.62,184.9L456.92,185.44L458.21,184.9L459.51,185.44L460.8,184.36L462.09,185.44L463.39,184.36L464.68,185.44L465.98,185.44L467.27,186.51L468.57,185.44L469.86,184.36L471.16,186.51L473.75,184.36L475.04,184.9L476.34,185.98L477.63,185.98L478.93,183.83L480.22,185.44L481.52,185.44L482.81,182.21L485.4,185.98L486.69,182.75L489.28,185.98L490.58,184.9L493.17,182.75L494.46,184.9L498.35,184.9L499.64,185.98L500.94,184.36L502.23,184.9L503.53,185.44L504.82,184.9L506.12,186.51L507.41,185.98L508.71,185.98L510,184.36" style="vector-effect: none; fill: none; stroke: rgb(93, 201, 99); stroke-opacity: 1; stroke-width: 1.7px; opacity: 1;"/></g><g class="points"/><g class="text"/></g><g class="trace scatter trace7efd18" style="stroke-miterlimit: 2; opacity: 1;"><g class="fills"/><g class="errorbars"/><g class="lines"><path class="js-line" d="M1.17,402.59L2.46,400.44L3.76,401.51L5.05,398.83L6.35,398.29L7.64,397.21L8.94,397.21L12.82,393.99L14.12,391.84L15.41,390.76L16.71,385.93L19.3,382.16L20.59,381.09L21.89,380.01L23.18,377.86L24.47,377.33L25.77,375.71L28.36,374.64L29.65,371.95L30.95,370.88L32.24,368.73L36.13,364.96L37.42,362.81L40.01,360.13L41.31,358.51L42.6,357.98L43.9,356.36L45.19,355.29L46.49,352.06L49.07,350.45L50.37,347.76L51.66,344.54L52.96,346.15L58.14,339.7L59.43,336.48L62.02,329.49L63.32,320.35L65.91,306.91L67.2,306.38L68.5,298.85L69.79,296.16L72.38,280.04L73.67,272.51L76.26,261.76L77.56,254.78L78.85,247.79L80.15,233.28L81.44,232.2L82.74,225.21L84.03,209.63L85.33,205.33L89.21,189.74L90.51,182.75L91.8,180.06L93.1,181.68L94.39,164.48L95.69,165.55L96.98,164.48L98.27,160.71L99.57,158.56L100.86,158.02L102.16,154.26L103.45,146.74L104.75,146.2L106.04,147.81L107.34,145.66L108.63,136.52L111.22,138.14L112.52,137.06L113.81,130.07L115.11,128.46L116.4,126.31L117.7,121.48L118.99,115.56L120.29,155.88L121.58,158.02L122.87,153.19L125.46,152.11L126.76,147.81L130.64,138.67L131.94,139.75L133.23,138.14L134.53,132.22L135.82,133.84L137.12,132.22L138.41,131.69L139.71,127.92L142.3,126.31L143.59,121.48L144.89,121.48L146.18,123.63L148.77,117.71L150.06,123.09L151.36,119.86L152.65,121.48L153.95,117.18L155.24,119.33L156.54,120.94L157.83,116.64L160.42,118.25L161.72,113.95L165.6,119.33L166.9,117.18L168.19,115.56L169.48,119.33L172.07,117.71L173.37,119.33L175.96,119.86L177.25,120.4L179.84,119.86L181.14,119.33L182.43,123.09L183.73,123.09L187.61,120.4L188.91,120.4L190.2,122.01L191.5,120.94L194.08,124.16L195.38,123.09L196.67,122.55L197.97,123.63L203.15,123.63L204.44,119.86L205.74,123.63L207.03,124.7L208.33,122.55L209.62,124.16L210.92,122.55L212.21,123.09L213.51,124.16L214.8,124.16L216.1,123.63L217.39,124.7L218.68,125.78L219.98,125.24L221.27,124.7L222.57,125.78L227.75,125.78L229.04,124.7L230.34,125.78L231.63,124.7L234.22,125.78L235.52,124.16L236.81,126.85L238.11,125.78L239.4,124.7L240.7,125.78L243.28,127.39L244.58,127.93L247.17,127.39L248.46,127.93L249.76,127.39L251.05,127.93L252.35,127.39L253.64,127.92L254.94,126.31L256.23,127.39L257.53,127.39L258.82,126.31L260.12,126.31L261.41,129L265.3,129L266.59,127.39L267.88,129L269.18,128.46L270.47,128.46L271.77,129.54L273.06,128.46L274.36,129L275.65,129.54L276.95,127.93L278.24,127.39L279.54,125.78L280.83,126.31L282.13,125.24L284.72,129L286.01,127.39L287.31,126.85L288.6,127.92L291.19,127.92L292.48,126.85L293.78,126.31L295.07,129L296.37,127.39L297.66,127.39L298.96,127.39L300.25,128.46L301.55,126.85L302.84,129L304.14,129L305.43,127.92L308.02,127.39L309.32,127.92L310.61,126.85L311.91,129L313.2,128.46L314.5,130.07L317.08,127.39L318.38,126.85L320.97,129L322.26,128.46L323.56,127.92L324.85,125.78L328.74,124.7L330.03,126.31L331.33,125.24L332.62,127.92L333.92,125.78L335.21,126.85L336.51,127.92L337.8,126.85L339.1,125.78L340.39,126.85L342.98,126.31L344.27,124.7L345.57,126.85L346.86,125.78L348.16,124.16L349.45,119.33L350.75,123.09L352.04,123.63L353.34,126.85L354.63,126.31L355.93,125.78L357.22,121.48L358.52,119.86L359.81,119.86L361.11,121.48L362.4,119.86L363.7,120.4L364.99,117.18L366.28,123.63L367.58,119.86L370.17,117.18L371.46,122.55L372.76,116.64L374.05,122.01L375.35,119.33L376.64,121.48L377.94,122.01L379.23,118.25L380.53,119.33L381.82,117.18L383.12,115.03L384.41,117.71L387,117.18L388.3,119.86L389.59,114.49L390.88,114.49L392.18,115.56L393.47,118.25L394.77,115.56L396.06,120.94L397.36,118.79L398.65,119.33L399.95,120.4L401.24,119.86L402.54,121.48L403.83,120.94L405.13,116.1L406.42,120.4L407.72,116.1L409.01,117.71L410.31,115.03L411.6,118.79L412.89,119.86L414.19,117.18L415.48,117.71L416.78,119.86L418.07,118.79L419.37,120.4L421.96,116.1L423.25,118.25L425.84,118.79L427.14,120.94L428.43,119.86L429.73,117.71L432.32,118.25L433.61,120.4L434.91,123.09L436.2,123.09L440.08,120.94L441.38,123.63L443.97,123.09L445.26,125.78L447.85,119.33L449.15,121.48L451.74,123.09L453.03,126.31L455.62,119.33L456.92,125.78L458.21,129.54L459.51,123.09L460.8,120.94L462.09,123.09L463.39,119.33L464.68,125.24L465.98,125.78L467.27,119.86L468.57,120.94L469.86,127.39L471.16,122.55L472.45,123.09L473.75,120.4L475.04,122.01L476.34,123.09L477.63,125.78L478.93,119.33L480.22,122.55L481.52,128.46L482.81,127.92L484.11,115.56L485.4,125.78L486.69,123.63L487.99,119.33L489.28,127.92L490.58,126.31L491.87,117.18L493.17,126.85L494.46,128.46L495.76,125.24L498.35,125.78L499.64,114.49L500.94,127.92L502.23,130.61L504.82,116.1L506.12,123.63L507.41,125.24L508.71,128.46L510,128.46" style="vector-effect: none; fill: none; stroke: rgb(253, 231, 37); stroke-opacity: 1; stroke-width: 1.7px; opacity: 1;"/></g><g class="points"/><g class="text"/></g><g class="trace scatter trace741f7b" style="stroke-miterlimit: 2; opacity: 1;"><g class="fills"/><g class="errorbars"/><g class="lines"><path class="js-line" d="M1.17,404.74L2.46,404.2L3.76,398.29L5.05,391.3L6.35,389.69L8.94,388.08L10.23,386.46L15.41,380.55L16.71,377.33L19.3,373.56L20.59,372.49L21.89,371.95L23.18,369.8L24.47,368.73L25.77,364.43L27.06,363.35L28.36,361.2L29.65,360.13L30.95,357.98L32.24,355.83L33.54,351.53L36.13,354.21L37.42,348.84L40.01,351.53L41.31,349.38L43.9,349.91L45.19,350.45L46.49,348.3L47.78,343.46L49.07,345.61L50.37,345.08L52.96,340.24L54.25,337.55L55.55,337.01L56.84,334.86L58.14,333.79L59.43,331.1L62.02,329.49L63.32,329.49L65.91,325.19L67.2,324.65L68.5,321.96L69.79,321.43L71.09,319.27L72.38,314.44L73.67,314.44L74.97,312.83L76.26,314.98L77.56,314.98L78.85,313.9L80.15,311.75L81.44,312.83L82.74,311.21L85.33,305.84L86.62,306.91L87.92,306.38L89.21,303.69L91.8,298.85L93.1,299.93L94.39,294.55L95.69,295.63L99.57,291.86L100.86,291.86L104.75,282.19L106.04,285.41L107.34,285.41L108.63,282.73L109.93,283.26L111.22,282.73L112.52,281.65L113.81,278.96L117.7,277.35L118.99,275.2L120.29,275.74L121.58,274.13L122.87,271.44L124.17,271.98L126.76,270.9L128.05,269.29L130.64,266.6L131.94,264.99L133.23,264.99L134.53,262.3L135.82,262.84L137.12,261.23L142.3,258.54L143.59,254.78L146.18,255.31L147.47,253.7L148.77,251.55L150.06,251.55L152.65,248.33L153.95,247.25L156.54,246.71L157.83,244.56L160.42,242.41L161.72,239.19L163.01,238.65L164.31,239.19L165.6,238.65L166.9,237.04L168.19,235.43L169.48,235.96L170.78,235.96L172.07,234.35L178.55,231.66L179.84,230.05L182.43,230.05L183.73,228.98L186.32,227.36L187.61,225.21L190.2,224.14L191.5,221.99L192.79,221.99L194.08,220.38L196.67,218.23L197.97,218.23L199.26,216.61L200.56,216.61L201.85,215.54L203.15,212.85L204.44,210.16L205.74,210.7L207.03,211.24L208.33,209.09L209.62,209.09L210.92,206.94L212.21,205.86L213.51,205.86L216.1,204.25L217.39,203.71L221.27,200.49L222.57,200.49L225.16,198.34L226.45,197.8L227.75,197.26L229.04,195.11L230.34,194.04L231.63,191.35L232.93,190.28L234.22,190.28L236.81,188.66L238.11,185.44L241.99,181.68L243.28,181.14L244.58,181.14L245.87,179.52L248.46,178.99L249.76,178.45L251.05,177.38L252.35,177.38L253.64,177.91L254.94,176.3L256.23,176.3L257.53,174.15L260.12,173.61L261.41,174.69L262.71,175.23L264,176.84L266.59,174.69L267.88,174.69L271.77,175.23L273.06,174.15L274.36,173.08L275.65,174.15L279.54,170.93L280.83,170.93L282.13,169.31L283.42,172L284.72,173.08L286.01,170.93L287.31,171.46L288.6,170.93L291.19,169.85L292.48,168.24L293.78,167.16L295.07,170.93L297.66,168.78L298.96,169.85L300.25,170.93L301.55,168.78L302.84,170.39L304.14,170.39L305.43,168.24L306.73,169.31L309.32,168.24L310.61,168.78L313.2,169.31L314.5,172L317.08,168.24L318.38,167.7L319.67,169.31L320.97,169.31L322.26,168.78L323.56,167.16L324.85,166.09L326.15,167.16L328.74,165.55L330.03,166.63L331.33,166.09L332.62,166.63L333.92,164.48L335.21,164.48L336.51,167.7L337.8,166.09L339.1,164.48L340.39,165.55L342.98,167.16L344.27,163.94L345.57,166.09L346.86,165.01L349.45,156.95L350.75,160.71L352.04,160.71L353.34,163.94L354.63,165.01L355.93,162.86L357.22,159.64L358.52,158.56L359.81,158.56L361.11,159.64L362.4,158.56L363.7,159.1L364.99,156.95L366.28,159.64L367.58,156.95L368.87,156.41L370.17,154.8L371.46,159.1L372.76,154.8L374.05,158.56L375.35,155.88L376.64,157.49L377.94,157.49L379.23,154.8L380.53,155.88L381.82,154.26L383.12,152.11L384.41,154.26L385.71,153.72L387,151.04L388.3,154.26L389.59,152.11L392.18,149.43L393.47,154.26L394.77,151.57L396.06,155.34L398.65,153.72L399.95,154.26L402.54,154.8L403.83,155.88L405.13,152.11L406.42,156.41L407.72,152.11L409.01,152.65L411.6,152.11L412.89,152.65L414.19,150.5L415.48,150.5L416.78,153.19L418.07,152.11L419.37,153.19L420.66,151.04L423.25,151.57L424.55,150.5L425.84,151.04L427.14,149.96L428.43,152.11L429.73,151.04L431.02,148.35L432.32,150.5L433.61,150.5L434.91,153.72L437.49,151.57L438.79,151.57L440.08,148.35L441.38,154.8L443.97,148.35L445.26,146.74L446.56,149.96L447.85,148.89L449.15,148.35L450.44,151.04L451.74,152.11L453.03,149.43L454.33,149.43L455.62,153.19L456.92,151.04L458.21,146.2L459.51,152.65L460.8,146.2L462.09,146.74L463.39,149.96L464.68,147.81L465.98,149.43L467.27,151.57L468.57,147.27L469.86,146.74L471.16,150.5L472.45,149.96L473.75,145.66L476.34,152.11L477.63,148.89L480.22,153.19L481.52,145.13L484.11,149.96L485.4,150.5L486.69,149.43L487.99,153.72L490.58,148.89L491.87,153.19L493.17,148.89L494.46,147.81L495.76,151.04L497.05,149.96L498.35,147.81L499.64,149.96L500.94,146.2L502.23,146.74L503.53,145.13L504.82,147.81L506.12,147.81L507.41,149.96L508.71,146.74L510,139.75" style="vector-effect: none; fill: none; stroke: rgb(68, 1, 84); stroke-opacity: 1; stroke-width: 1.7px; opacity: 1;"/></g><g class="points"/><g class="text"/></g><g class="trace scatter trace5e84f8" style="stroke-miterlimit: 2; opacity: 1;"><g class="fills"/><g class="errorbars"/><g class="lines"><path class="js-line" d="M1.17,416.03L6.35,402.59L7.64,399.9L14.12,390.76L15.41,387.54L18,382.7L19.3,380.01L21.89,376.25L23.18,372.49L24.47,371.95L25.77,368.73L27.06,367.65L28.36,367.65L30.95,363.89L32.24,362.28L33.54,360.66L34.83,362.81L38.72,354.21L40.01,354.75L41.31,355.29L42.6,352.06L43.9,348.3L45.19,350.45L46.49,348.84L47.78,344L49.07,345.61L50.37,345.08L54.25,332.71L55.55,336.48L56.84,332.18L58.14,331.64L59.43,330.03L60.73,325.19L62.02,318.74L63.32,326.26L65.91,319.27L67.2,321.96L71.09,315.51L72.38,309.6L73.67,304.76L74.97,303.69L76.26,297.24L77.56,299.39L78.85,292.94L80.15,292.94L82.74,288.64L84.03,282.73L87.92,274.13L89.21,273.59L90.51,267.14L91.8,266.6L93.1,271.98L94.39,263.38L95.69,264.45L96.98,260.15L98.27,262.3L99.57,261.76L102.16,260.15L103.45,254.24L104.75,252.63L106.04,255.85L108.63,250.48L109.93,250.48L111.22,251.01L112.52,247.25L113.81,244.03L115.11,242.95L116.4,242.95L117.7,240.8L122.87,227.9L124.17,230.05L125.46,227.36L126.76,226.83L128.05,225.75L129.35,220.38L130.64,218.76L131.94,214.46L133.23,215.54L134.53,210.7L135.82,213.39L137.12,210.7L139.71,207.48L141,206.94L142.3,204.25L143.59,197.26L144.89,196.73L146.18,191.35L148.77,183.29L150.06,184.36L151.36,184.9L152.65,183.83L155.24,183.29L156.54,184.36L159.13,181.68L160.42,183.29L161.72,175.76L163.01,176.84L164.31,178.99L165.6,178.99L169.48,175.23L170.78,175.23L172.07,174.69L173.37,176.3L174.66,175.23L175.96,177.38L177.25,173.61L178.55,175.23L179.84,174.15L181.14,175.23L183.73,177.38L185.02,176.3L187.61,174.15L188.91,174.69L190.2,174.15L191.5,172L192.79,174.15L194.08,174.15L195.38,173.61L196.67,171.46L197.97,174.15L199.26,173.61L200.56,172.54L201.85,173.08L203.15,172.54L204.44,168.24L207.03,170.93L208.33,169.85L209.62,169.85L210.92,168.24L212.21,165.55L213.51,165.55L218.68,165.55L219.98,166.63L221.27,167.7L222.57,165.01L225.16,164.48L226.45,165.01L229.04,166.63L230.34,167.16L231.63,166.63L232.93,165.01L236.81,168.24L238.11,167.7L239.4,166.09L240.7,168.24L244.58,167.16L245.87,169.85L248.46,167.7L249.76,168.78L251.05,168.24L252.35,169.85L253.64,169.31L254.94,167.7L256.23,169.31L257.53,168.78L258.82,169.31L260.12,168.78L261.41,171.46L262.71,170.93L264,167.7L265.3,167.16L266.59,166.09L267.88,167.16L269.18,169.85L270.47,167.16L271.77,167.7L273.06,170.39L274.36,169.31L275.65,170.93L276.95,168.78L278.24,168.24L279.54,165.01L280.83,167.16L283.42,169.85L284.72,170.39L286.01,172L287.31,170.39L288.6,172.54L289.9,170.39L291.19,173.08L292.48,173.08L293.78,170.93L295.07,173.61L296.37,172L297.66,172.54L300.25,175.76L301.55,173.08L302.84,172.54L304.14,175.76L306.73,174.69L308.02,176.3L309.32,176.3L310.61,173.61L311.91,176.84L313.2,176.3L314.5,173.61L315.79,174.15L317.08,175.76L318.38,173.08L319.67,178.99L320.97,175.23L322.26,175.76L323.56,177.91L324.85,177.91L326.15,173.61L331.33,175.76L332.62,178.45L333.92,176.84L335.21,177.38L336.51,176.84L337.8,178.45L339.1,177.91L340.39,179.53L341.68,178.99L342.98,175.76L344.27,179.53L345.57,177.38L346.86,178.99L348.16,178.45L349.45,176.3L350.75,178.99L352.04,178.45L353.34,180.06L354.63,180.6L355.93,179.52L359.81,182.21L361.11,179.52L362.4,179.53L363.7,181.14L364.99,182.21L366.28,181.14L368.87,180.6L370.17,180.6L371.46,182.75L372.76,182.75L374.05,183.83L375.35,183.83L376.64,182.21L377.94,182.21L379.23,181.68L380.53,182.21L381.82,179.52L383.12,179.52L384.41,180.6L385.71,179.52L387,184.9L388.3,181.68L389.59,184.9L390.88,182.21L393.47,185.98L394.77,182.75L396.06,187.05L397.36,183.29L398.65,185.98L399.95,183.83L401.24,185.44L402.54,184.9L403.83,185.44L405.13,188.13L407.72,184.36L409.01,184.36L410.31,187.05L411.6,185.44L412.89,185.98L414.19,188.13L415.48,185.44L416.78,190.81L418.07,187.05L419.37,191.35L421.96,185.98L423.25,190.81L424.55,189.74L425.84,184.9L427.14,189.74L428.43,188.66L429.73,190.28L431.02,186.51L432.32,189.2L433.61,187.59L434.91,190.81L436.2,189.2L438.79,193.5L440.08,187.59L441.38,188.66L442.67,191.35L443.97,192.96L445.26,189.74L446.56,194.04L447.85,190.81L449.15,192.96L450.44,190.28L451.74,188.66L453.03,190.81L454.33,190.28L455.62,190.81L456.92,192.43L458.21,190.28L460.8,194.04L462.09,191.35L463.39,192.96L464.68,190.81L465.98,195.65L467.27,191.89L468.57,191.89L469.86,190.81L473.75,195.11L475.04,195.11L476.34,196.73L477.63,194.58L478.93,192.43L480.22,195.11L481.52,196.73L482.81,196.19L484.11,190.28L485.4,192.96L486.69,194.04L487.99,192.96L489.28,196.73L490.58,196.19L493.17,192.43L494.46,196.73L495.76,194.04L497.05,196.73L498.35,196.19L499.64,196.73L500.94,195.65L502.23,197.8L503.53,192.96L504.82,196.73L506.12,194.04L507.41,197.26L508.71,194.04L510,195.11" style="vector-effect: none; fill: none; stroke: rgb(59, 82, 139); stroke-opacity: 1; stroke-width: 1.7px; opacity: 1;"/></g><g class="points"/><g class="text"/></g><g class="trace scatter trace98b608" style="stroke-miterlimit: 2; opacity: 1;"><g class="fills"/><g class="errorbars"/><g class="lines"><path class="js-line" d="M1.17,410.65L3.76,402.05L5.05,399.9L7.64,396.14L8.94,393.99L12.82,388.61L14.12,386.46L15.41,384.85L16.71,381.09L18,379.48L19.3,376.25L21.89,371.95L23.18,368.73L24.47,367.65L25.77,364.96L28.36,363.35L29.65,360.66L36.13,353.14L37.42,350.45L41.31,346.69L42.6,344.54L47.78,340.24L49.07,338.09L50.37,337.55L51.66,335.4L52.96,334.86L54.25,331.1L55.55,330.03L56.84,327.88L60.73,319.81L62.02,318.2L63.32,313.9L64.61,313.36L65.91,310.68L67.2,311.21L71.09,295.09L72.38,289.17L76.26,264.99L77.56,262.84L78.85,259.08L80.15,252.09L82.74,244.56L84.03,234.35L85.33,224.68L86.62,225.21L87.92,220.38L89.21,211.24L91.8,208.01L93.1,212.85L94.39,199.41L95.69,203.18L96.98,200.49L98.27,202.1L99.57,202.1L100.86,201.03L102.16,202.64L103.45,196.73L104.75,196.19L106.04,203.18L107.34,202.64L108.63,199.95L111.22,205.86L112.52,205.33L113.81,203.18L115.11,204.25L117.7,205.86L118.99,204.25L120.29,202.64L121.58,198.34L122.87,192.96L124.17,196.19L125.46,191.89L126.76,215L128.05,213.39L129.35,204.25L131.94,195.65L133.23,196.73L134.53,189.74L135.82,192.96L139.71,185.98L141,185.98L142.3,184.9L143.59,176.84L144.89,179.52L146.18,179.52L148.77,173.61L150.06,175.23L153.95,171.46L155.24,169.85L156.54,170.39L157.83,168.78L159.13,167.7L160.42,167.7L161.72,162.32L163.01,162.32L165.6,167.16L166.9,166.09L168.19,161.79L169.48,164.48L170.78,165.01L172.07,163.4L174.66,165.01L175.96,166.63L177.25,164.48L178.55,165.55L179.84,163.94L181.14,165.01L182.43,167.16L183.73,166.63L185.02,166.63L186.32,164.48L187.61,163.94L188.91,165.01L190.2,165.01L191.5,163.94L194.08,166.63L195.38,167.16L196.67,165.01L197.97,166.63L200.56,165.55L201.85,167.16L203.15,167.16L204.44,162.32L205.74,163.4L207.03,166.63L208.33,166.09L209.62,166.63L210.92,165.55L212.21,165.55L213.51,166.63L214.8,166.09L216.1,167.16L217.39,167.16L218.68,168.78L219.98,168.24L222.57,167.7L223.86,168.24L227.75,169.31L229.04,168.24L230.34,169.85L231.63,168.78L232.93,169.85L234.22,169.31L235.52,169.31L236.81,170.93L238.11,170.93L239.4,169.31L244.58,171.46L245.87,171.46L247.17,171.46L248.46,172.54L251.05,171.46L252.35,172.54L254.94,170.39L256.23,171.46L258.82,173.08L260.12,172L261.41,175.23L262.71,174.69L265.3,174.15L266.59,173.61L269.18,175.76L270.47,174.69L271.77,176.84L273.06,176.3L274.36,175.23L275.65,176.3L278.24,175.76L279.54,172.54L280.83,174.15L282.13,174.15L283.42,176.3L284.72,176.3L287.31,175.76L288.6,176.84L289.9,178.45L291.19,178.45L293.78,177.91L295.07,180.06L296.37,178.45L297.66,178.99L298.96,180.6L300.25,180.6L301.55,180.06L302.84,181.68L306.73,180.6L308.02,180.6L309.32,181.14L310.61,178.45L311.91,180.6L313.2,181.14L314.5,182.21L315.79,181.68L317.08,182.21L318.38,181.14L320.97,183.83L322.26,183.83L324.85,183.29L326.15,181.68L328.74,182.21L330.03,184.9L332.62,183.83L333.92,184.9L336.51,185.44L337.8,182.21L340.39,184.36L341.68,184.9L342.98,182.75L344.27,183.29L345.57,184.9L346.86,184.36L349.45,180.6L350.75,184.36L352.04,184.9L353.34,187.05L359.81,186.51L361.11,185.44L362.4,185.44L363.7,186.51L366.28,187.05L367.58,184.9L368.87,185.44L370.17,184.9L371.46,188.13L372.76,187.05L374.05,188.66L375.35,188.66L376.64,190.81L377.94,189.74L379.23,190.81L380.53,190.81L381.82,188.13L383.12,188.66L385.71,189.2L387,191.35L389.59,190.81L390.88,189.2L393.47,191.89L394.77,190.81L396.06,192.96L397.36,191.89L401.24,192.43L402.54,194.58L403.83,194.58L405.13,192.96L406.42,194.04L407.72,192.96L410.31,191.35L411.6,193.5L414.19,192.96L415.48,194.58L416.78,195.11L418.07,194.58L419.37,196.19L420.66,195.11L421.96,194.58L423.25,195.11L424.55,194.58L425.84,192.43L427.14,195.11L428.43,194.04L431.02,194.58L432.32,194.58L433.61,196.19L434.91,196.19L437.49,198.34L438.79,197.8L440.08,195.11L441.38,197.26L446.56,198.88L447.85,197.8L450.44,198.34L451.74,196.73L454.33,198.88L455.62,197.26L456.92,198.88L458.21,198.88L459.51,199.41L460.8,198.88L464.68,198.88L465.98,199.95L468.57,200.49L469.86,199.41L472.45,201.56L473.75,201.03L475.04,199.95L476.34,201.03L477.63,202.1L478.93,198.88L481.52,201.56L482.81,200.49L484.11,197.8L485.4,201.56L487.99,199.41L489.28,201.03L490.58,202.1L491.87,198.88L497.05,202.64L498.35,202.64L499.64,201.56L500.94,202.1L503.53,202.64L504.82,202.64L506.12,204.25L507.41,203.71L508.71,203.18L510,204.25" style="vector-effect: none; fill: none; stroke: rgb(33, 144, 141); stroke-opacity: 1; stroke-width: 1.7px; opacity: 1;"/></g><g class="points"/><g class="text"/></g><g class="trace scatter tracea4fece" style="stroke-miterlimit: 2; opacity: 1;"><g class="fills"/><g class="errorbars"/><g class="lines"><path class="js-line" d="M1.17,411.73L6.35,398.29L7.64,396.14L10.23,392.38L11.53,391.3L12.82,388.08L14.12,387L18,378.94L19.3,376.25L27.06,363.89L28.36,362.81L30.95,359.05L32.24,357.98L38.72,348.84L40.01,346.15L43.9,342.39L45.19,340.24L47.78,338.63L49.07,337.01L54.25,332.71L55.55,328.95L56.84,325.19L58.14,324.65L59.43,316.05L60.73,315.51L62.02,316.05L63.32,315.51L64.61,312.83L65.91,312.83L68.5,307.45L69.79,306.38L71.09,303.15L72.38,291.33L74.97,281.65L76.26,274.66L77.56,273.59L78.85,266.6L80.15,260.15L81.44,259.61L85.33,232.74L86.62,234.89L87.92,235.96L89.21,226.83L90.51,225.75L91.8,222.53L93.1,226.83L94.39,213.93L95.69,219.84L96.98,217.15L98.27,219.84L99.57,219.84L100.86,221.45L102.16,220.91L103.45,215.54L104.75,216.08L106.04,221.45L107.34,219.84L108.63,217.15L109.93,218.23L112.52,220.91L113.81,216.61L115.11,216.08L116.4,217.15L117.7,216.08L118.99,213.93L120.29,214.46L121.58,210.7L122.87,207.48L124.17,208.01L126.76,205.33L128.05,202.64L129.35,196.19L130.64,196.19L131.94,198.34L133.23,194.04L134.53,189.2L135.82,189.2L139.71,185.98L141,185.44L142.3,183.83L143.59,178.45L144.89,178.45L146.18,177.38L148.77,173.61L150.06,174.15L152.65,172.54L153.95,171.46L159.13,167.7L160.42,167.7L161.72,163.4L163.01,163.4L164.31,165.55L165.6,166.09L168.19,161.79L169.48,163.4L173.37,162.32L174.66,162.32L175.96,162.86L177.25,160.71L178.55,160.71L179.84,159.64L181.14,159.64L182.43,160.71L185.02,160.18L186.32,159.1L187.61,158.02L188.91,159.1L190.2,158.56L191.5,156.41L192.79,158.56L194.08,158.02L195.38,158.56L196.67,156.95L197.97,158.56L199.26,158.56L200.56,158.02L201.85,158.56L203.15,158.02L204.44,154.26L207.03,156.95L208.33,155.88L209.62,156.95L210.92,155.34L212.21,154.8L213.51,156.41L217.39,156.41L218.68,158.56L221.27,156.95L222.57,157.49L226.45,158.02L227.75,158.56L229.04,158.02L230.34,159.64L231.63,159.1L232.93,159.64L234.22,160.18L235.52,159.64L238.11,160.18L239.4,159.64L243.28,161.25L244.58,161.25L247.17,161.79L248.46,162.32L249.76,162.32L251.05,160.71L252.35,162.32L253.64,160.71L254.94,159.64L256.23,161.25L258.82,161.79L260.12,161.25L261.41,163.94L262.71,163.4L265.3,163.4L266.59,162.32L267.88,164.48L269.18,164.48L270.47,163.4L271.77,164.48L273.06,165.01L274.36,164.48L276.95,165.01L278.24,164.48L279.54,161.79L280.83,163.94L282.13,164.48L283.42,166.09L287.31,165.01L288.6,166.09L289.9,167.7L291.19,167.16L292.48,166.63L293.78,167.16L295.07,169.31L296.37,168.78L297.66,172L298.96,172L301.55,172.54L302.84,173.08L306.73,173.08L308.02,173.61L309.32,173.61L310.61,171.46L311.91,174.15L313.2,174.15L317.08,175.23L318.38,175.23L320.97,177.38L322.26,177.38L324.85,176.84L326.15,176.3L328.74,176.3L330.03,178.45L331.33,178.99L332.62,178.45L333.92,179.53L335.21,179.53L336.51,180.6L337.8,177.38L339.1,178.99L340.39,178.99L341.68,180.06L342.98,177.91L345.57,179.53L346.86,178.99L349.45,175.76L350.75,177.91L353.34,180.6L354.63,180.06L359.81,178.45L361.11,178.99L362.4,177.91L363.7,179.52L364.99,178.99L366.28,180.06L367.58,178.99L368.87,178.99L370.17,178.99L371.46,182.21L372.76,181.14L374.05,182.75L375.35,182.21L376.64,183.29L377.94,183.29L379.23,184.36L380.53,183.29L381.82,181.14L387,183.29L388.3,184.36L389.59,184.36L390.88,183.29L393.47,185.44L394.77,184.36L396.06,186.51L397.36,185.98L398.65,185.44L399.95,186.51L401.24,187.05L402.54,188.66L403.83,188.66L405.13,186.51L406.42,188.13L407.72,187.05L409.01,187.05L410.31,185.98L411.6,188.13L412.89,188.66L414.19,187.59L415.48,188.66L416.78,189.74L418.07,189.74L419.37,191.89L420.66,190.28L421.96,189.74L423.25,190.81L425.84,189.2L427.14,191.35L428.43,189.74L429.73,190.28L433.61,191.89L434.91,192.96L436.2,194.04L437.49,193.5L438.79,193.5L440.08,191.35L442.67,193.5L443.97,192.96L450.44,192.96L451.74,192.43L453.03,192.43L454.33,195.11L455.62,193.5L456.92,194.58L462.09,195.11L463.39,194.04L464.68,195.11L465.98,195.11L468.57,195.65L469.86,194.58L471.16,196.19L472.45,195.65L473.75,194.58L475.04,195.11L477.63,196.73L478.93,194.04L480.22,195.65L481.52,195.65L482.81,192.96L484.11,193.5L485.4,196.19L486.69,192.96L489.28,196.19L490.58,195.11L493.17,193.5L494.46,195.65L499.64,196.19L500.94,195.11L503.53,196.19L504.82,195.65L506.12,197.26L507.41,196.73L508.71,197.26L510,196.19" style="vector-effect: none; fill: none; stroke: rgb(93, 201, 99); stroke-opacity: 1; stroke-width: 1.7px; opacity: 1;"/></g><g class="points"/><g class="text"/></g><g class="trace scatter trace213015" style="stroke-miterlimit: 2; opacity: 1;"><g class="fills"/><g class="errorbars"/><g class="lines"><path class="js-line" d="M1.17,408.5L5.05,401.51L6.35,399.9L11.53,395.6L12.82,393.99L15.41,389.69L16.71,384.31L18,383.24L19.3,381.09L27.06,368.19L28.36,367.11L30.95,363.35L32.24,361.74L43.9,346.69L45.19,343.46L47.78,341.31L49.07,335.94L50.37,335.94L51.66,333.79L52.96,333.25L54.25,331.1L55.55,323.58L56.84,320.89L58.14,317.66L59.43,319.81L60.73,315.51L62.02,313.9L67.2,298.31L68.5,291.33L69.79,285.41L71.09,274.66L78.85,227.36L80.15,203.71L81.44,208.01L82.74,198.88L85.33,179.52L86.62,176.84L87.92,175.23L89.21,166.63L90.51,160.71L91.8,159.1L93.1,160.18L94.39,145.66L95.69,147.27L96.98,143.51L98.27,141.9L99.57,137.6L100.86,137.6L102.16,134.38L103.45,128.46L104.75,128.46L106.04,129L107.34,127.92L108.63,119.86L109.93,119.86L112.52,120.4L113.81,113.95L116.4,109.65L117.7,105.35L118.99,97.29L120.29,106.96L121.58,140.82L122.87,144.05L124.17,144.59L125.46,143.51L129.35,132.22L130.64,131.69L131.94,131.69L133.23,130.61L134.53,124.7L135.82,125.78L137.12,124.16L138.41,124.7L139.71,119.86L141,119.86L142.3,118.79L143.59,113.41L144.89,113.41L146.18,116.1L147.47,111.8L148.77,110.19L150.06,112.88L151.36,110.73L152.65,113.41L153.95,109.11L156.54,111.8L157.83,108.57L159.13,109.11L160.42,110.73L161.72,105.89L163.01,106.96L165.6,111.8L166.9,109.65L168.19,108.57L169.48,111.8L170.78,110.73L172.07,110.73L175.96,113.41L177.25,112.88L178.55,113.95L179.84,112.88L181.14,112.88L182.43,117.18L185.02,115.03L186.32,113.95L187.61,112.88L188.91,113.95L190.2,115.56L191.5,113.95L192.79,115.03L194.08,117.18L196.67,115.03L197.97,116.64L201.85,118.25L203.15,117.71L204.44,113.41L205.74,117.18L207.03,118.79L208.33,117.18L209.62,119.33L210.92,117.18L214.8,119.33L216.1,118.79L218.68,120.4L219.98,119.86L226.45,120.4L227.75,120.94L229.04,119.86L230.34,121.48L231.63,119.86L232.93,119.86L234.22,120.94L235.52,119.86L236.81,122.55L238.11,121.48L239.4,120.94L240.7,122.01L241.99,122.01L243.28,123.09L244.58,123.63L245.87,123.09L252.35,123.09L253.64,124.16L254.94,122.01L256.23,122.55L260.12,122.55L261.41,125.24L264,125.78L265.3,124.7L266.59,123.09L267.88,125.24L270.47,123.63L271.77,125.24L273.06,124.16L274.36,124.7L275.65,125.24L276.95,123.63L278.24,123.63L279.54,121.48L280.83,122.55L282.13,121.48L283.42,124.16L284.72,124.16L286.01,122.55L287.31,122.55L288.6,124.16L289.9,123.09L291.19,124.16L292.48,123.63L293.78,122.55L295.07,125.78L297.66,123.63L298.96,124.16L300.25,125.24L301.55,123.63L302.84,125.78L304.14,126.31L305.43,124.7L306.73,124.7L310.61,123.63L311.91,126.85L313.2,124.7L314.5,127.92L318.38,124.16L319.67,126.31L320.97,127.39L322.26,126.85L323.56,126.31L324.85,124.7L327.44,122.01L328.74,123.09L330.03,124.7L331.33,124.7L332.62,125.78L333.92,124.16L336.51,126.85L337.8,125.78L339.1,124.7L340.39,124.7L341.68,125.78L342.98,124.7L344.27,124.7L345.57,126.31L346.86,125.78L348.16,124.16L349.45,119.86L350.75,123.09L352.04,123.09L353.34,126.31L355.93,125.78L357.22,123.09L359.81,120.4L361.11,121.48L362.4,120.94L363.7,122.01L364.99,118.79L366.28,123.09L370.17,119.33L371.46,124.16L372.76,119.86L374.05,123.63L375.35,122.01L376.64,124.16L377.94,124.7L379.23,122.01L380.53,122.01L381.82,120.94L383.12,119.86L384.41,120.4L385.71,119.86L387,118.25L388.3,122.01L389.59,118.79L390.88,118.79L392.18,119.86L393.47,121.48L394.77,120.94L396.06,124.7L397.36,124.16L398.65,122.55L399.95,124.7L401.24,123.63L402.54,125.78L403.83,126.31L405.13,122.55L406.42,125.78L407.72,122.55L409.01,123.09L410.31,122.01L412.89,124.16L414.19,120.94L416.78,123.63L418.07,123.09L419.37,124.16L420.66,121.48L421.96,122.55L423.25,122.55L424.55,123.63L425.84,123.09L427.14,122.55L428.43,124.16L429.73,123.09L431.02,123.09L432.32,124.16L433.61,124.16L434.91,127.39L436.2,127.92L438.79,125.24L440.08,125.78L441.38,128.46L442.67,126.85L445.26,125.24L446.56,124.7L447.85,124.7L449.15,123.09L450.44,127.39L451.74,125.24L455.62,125.78L456.92,124.16L458.21,122.55L459.51,124.7L460.8,124.16L462.09,122.55L463.39,126.85L464.68,124.7L465.98,124.16L467.27,124.7L469.86,123.09L471.16,125.24L473.75,124.7L475.04,124.7L476.34,127.92L477.63,125.24L478.93,124.7L480.22,127.39L482.81,125.24L484.11,125.78L486.69,124.7L487.99,128.46L490.58,125.78L491.87,126.31L493.17,123.09L494.46,122.55L495.76,125.24L497.05,123.63L499.64,128.46L500.94,122.01L504.82,129L506.12,127.92L507.41,131.69L508.71,127.92L510,124.7" style="vector-effect: none; fill: none; stroke: rgb(253, 231, 37); stroke-opacity: 1; stroke-width: 1.7px; opacity: 1;"/></g><g class="points"/><g class="text"/></g></g></g></g><path class="xlines-above crisp" d="M0,0" style="fill: none;"/><path class="ylines-above crisp" d="M0,0" style="fill: none;"/><g class="overlines-above"/><g class="xaxislayer-above"><g class="xtick"><text text-anchor="middle" x="0" y="465" transform="translate(40,0)" style="font-family: 'Open Sans', verdana, arial, sans-serif; font-size: 14px; fill: rgb(0, 0, 0); fill-opacity: 1; white-space: pre; opacity: 1;">0</text></g><g class="xtick"><text text-anchor="middle" x="0" y="465" style="font-family: 'Open Sans', verdana, arial, sans-serif; font-size: 14px; fill: rgb(0, 0, 0); fill-opacity: 1; white-space: pre; opacity: 1;" transform="translate(86.61,0)">6</text></g><g class="xtick"><text text-anchor="middle" x="0" y="465" style="font-family: 'Open Sans', verdana, arial, sans-serif; font-size: 14px; fill: rgb(0, 0, 0); fill-opacity: 1; white-space: pre; opacity: 1;" transform="translate(133.22,0)">12</text></g><g class="xtick"><text text-anchor="middle" x="0" y="465" style="font-family: 'Open Sans', verdana, arial, sans-serif; font-size: 14px; fill: rgb(0, 0, 0); fill-opacity: 1; white-space: pre; opacity: 1;" transform="translate(179.83,0)">18</text></g><g class="xtick"><text text-anchor="middle" x="0" y="465" style="font-family: 'Open Sans', verdana, arial, sans-serif; font-size: 14px; fill: rgb(0, 0, 0); fill-opacity: 1; white-space: pre; opacity: 1;" transform="translate(226.44,0)">24</text></g><g class="xtick"><text text-anchor="middle" x="0" y="465" style="font-family: 'Open Sans', verdana, arial, sans-serif; font-size: 14px; fill: rgb(0, 0, 0); fill-opacity: 1; white-space: pre; opacity: 1;" transform="translate(273.05,0)">30</text></g><g class="xtick"><text text-anchor="middle" x="0" y="465" style="font-family: 'Open Sans', verdana, arial, sans-serif; font-size: 14px; fill: rgb(0, 0, 0); fill-opacity: 1; white-space: pre; opacity: 1;" transform="translate(319.66,0)">36</text></g><g class="xtick"><text text-anchor="middle" x="0" y="465" style="font-family: 'Open Sans', verdana, arial, sans-serif; font-size: 14px; fill: rgb(0, 0, 0); fill-opacity: 1; white-space: pre; opacity: 1;" transform="translate(366.27,0)">42</text></g><g class="xtick"><text text-anchor="middle" x="0" y="465" style="font-family: 'Open Sans', verdana, arial, sans-serif; font-size: 14px; fill: rgb(0, 0, 0); fill-opacity: 1; white-space: pre; opacity: 1;" transform="translate(412.88,0)">48</text></g><g class="xtick"><text text-anchor="middle" x="0" y="465" style="font-family: 'Open Sans', verdana, arial, sans-serif; font-size: 14px; fill: rgb(0, 0, 0); fill-opacity: 1; white-space: pre; opacity: 1;" transform="translate(459.49,0)">54</text></g><g class="xtick"><text text-anchor="middle" x="0" y="465" style="font-family: 'Open Sans', verdana, arial, sans-serif; font-size: 14px; fill: rgb(0, 0, 0); fill-opacity: 1; white-space: pre; opacity: 1;" transform="translate(506.1,0)">60</text></g></g><g class="yaxislayer-above"><g class="ytick"><text text-anchor="end" x="39" y="4.8999999999999995" transform="translate(0,450)" style="font-family: 'Open Sans', verdana, arial, sans-serif; font-size: 14px; fill: rgb(0, 0, 0); fill-opacity: 1; white-space: pre; opacity: 1;">0</text></g><g class="ytick"><text text-anchor="end" x="39" y="4.8999999999999995" style="font-family: 'Open Sans', verdana, arial, sans-serif; font-size: 14px; fill: rgb(0, 0, 0); fill-opacity: 1; white-space: pre; opacity: 1;" transform="translate(0,396.25)">0.1</text></g><g class="ytick"><text text-anchor="end" x="39" y="4.8999999999999995" style="font-family: 'Open Sans', verdana, arial, sans-serif; font-size: 14px; fill: rgb(0, 0, 0); fill-opacity: 1; white-space: pre; opacity: 1;" transform="translate(0,342.5)">0.2</text></g><g class="ytick"><text text-anchor="end" x="39" y="4.8999999999999995" style="font-family: 'Open Sans', verdana, arial, sans-serif; font-size: 14px; fill: rgb(0, 0, 0); fill-opacity: 1; white-space: pre; opacity: 1;" transform="translate(0,288.75)">0.3</text></g><g class="ytick"><text text-anchor="end" x="39" y="4.8999999999999995" style="font-family: 'Open Sans', verdana, arial, sans-serif; font-size: 14px; fill: rgb(0, 0, 0); fill-opacity: 1; white-space: pre; opacity: 1;" transform="translate(0,235)">0.4</text></g><g class="ytick"><text text-anchor="end" x="39" y="4.8999999999999995" style="font-family: 'Open Sans', verdana, arial, sans-serif; font-size: 14px; fill: rgb(0, 0, 0); fill-opacity: 1; white-space: pre; opacity: 1;" transform="translate(0,181.25)">0.5</text></g><g class="ytick"><text text-anchor="end" x="39" y="4.8999999999999995" style="font-family: 'Open Sans', verdana, arial, sans-serif; font-size: 14px; fill: rgb(0, 0, 0); fill-opacity: 1; white-space: pre; opacity: 1;" transform="translate(0,127.5)">0.6</text></g><g class="ytick"><text text-anchor="end" x="39" y="4.8999999999999995" style="font-family: 'Open Sans', verdana, arial, sans-serif; font-size: 14px; fill: rgb(0, 0, 0); fill-opacity: 1; white-space: pre; opacity: 1;" transform="translate(0,73.75)">0.7</text></g><g class="ytick"><text text-anchor="end" x="39" y="4.8999999999999995" style="font-family: 'Open Sans', verdana, arial, sans-serif; font-size: 14px; fill: rgb(0, 0, 0); fill-opacity: 1; white-space: pre; opacity: 1;" transform="translate(0,20)">0.8</text></g></g><g class="overaxes-above"/></g></g><g class="polarlayer"/><g class="smithlayer"/><g class="ternarylayer"/><g class="geolayer"/><g class="funnelarealayer"/><g class="pielayer"/><g class="iciclelayer"/><g class="treemaplayer"/><g class="sunburstlayer"/><g class="glimages"/><defs id="topdefs-24c420"><g class="clips"/><clipPath id="legend24c420"><rect width="140" height="156" x="0" y="0"/></clipPath></defs><g class="layer-above"><g class="imagelayer"/><g class="shapelayer"/></g><g class="infolayer"><g class="legend" pointer-events="all" transform="translate(560,20)"><rect class="bg" shape-rendering="crispEdges" width="140" height="156" x="0" y="0" style="stroke: rgb(68, 68, 68); stroke-opacity: 1; fill: rgb(255, 255, 255); fill-opacity: 1; stroke-width: 0px;"/><g class="scrollbox" transform="" clip-path="url(#legend24c420)"><g class="groups" transform=""><g class="traces" transform="translate(0,15.6)" style="opacity: 1;"><text class="legendtext" text-anchor="start" x="40" y="5.46" style="font-family: 'Open Sans', verdana, arial, sans-serif; font-size: 14px; fill: rgb(0, 0, 0); fill-opacity: 1; white-space: pre;">0.045 OD of Ct</text><g class="layers" style="opacity: 1;"><g class="legendfill"/><g class="legendlines"><path class="js-line" d="M5,0h30" style="fill: none; stroke: rgb(68, 1, 84); stroke-opacity: 1; stroke-width: 1.7px;"/></g><g class="legendsymbols"><g class="legendpoints"/></g></g><rect class="legendtoggle" x="0" y="-10.6" width="134.796875" height="21.2" style="fill: rgb(0, 0, 0); fill-opacity: 0;"/></g></g><g class="groups" transform="translate(0,10)"><g class="traces" transform="translate(0,36.8)" style="opacity: 1;"><text class="legendtext" text-anchor="start" x="40" y="5.46" style="font-family: 'Open Sans', verdana, arial, sans-serif; font-size: 14px; fill: rgb(0, 0, 0); fill-opacity: 1; white-space: pre;">0.152 OD of Ct</text><g class="layers" style="opacity: 1;"><g class="legendfill"/><g class="legendlines"><path class="js-line" d="M5,0h30" style="fill: none; stroke: rgb(59, 82, 139); stroke-opacity: 1; stroke-width: 1.7px;"/></g><g class="legendsymbols"><g class="legendpoints"/></g></g><rect class="legendtoggle" x="0" y="-10.6" width="134.796875" height="21.2" style="fill: rgb(0, 0, 0); fill-opacity: 0;"/></g></g><g class="groups" transform="translate(0,20)"><g class="traces" transform="translate(0,58)" style="opacity: 1;"><text class="legendtext" text-anchor="start" x="40" y="5.46" style="font-family: 'Open Sans', verdana, arial, sans-serif; font-size: 14px; fill: rgb(0, 0, 0); fill-opacity: 1; white-space: pre;">0.235 OD of Ct</text><g class="layers" style="opacity: 1;"><g class="legendfill"/><g class="legendlines"><path class="js-line" d="M5,0h30" style="fill: none; stroke: rgb(33, 144, 141); stroke-opacity: 1; stroke-width: 1.7px;"/></g><g class="legendsymbols"><g class="legendpoints"/></g></g><rect class="legendtoggle" x="0" y="-10.6" width="134.796875" height="21.2" style="fill: rgb(0, 0, 0); fill-opacity: 0;"/></g></g><g class="groups" transform="translate(0,30)"><g class="traces" transform="translate(0,79.19999999999999)" style="opacity: 1;"><text class="legendtext" text-anchor="start" x="40" y="5.46" style="font-family: 'Open Sans', verdana, arial, sans-serif; font-size: 14px; fill: rgb(0, 0, 0); fill-opacity: 1; white-space: pre;">0.299 OD of Ct</text><g class="layers" style="opacity: 1;"><g class="legendfill"/><g class="legendlines"><path class="js-line" d="M5,0h30" style="fill: none; stroke: rgb(93, 201, 99); stroke-opacity: 1; stroke-width: 1.7px;"/></g><g class="legendsymbols"><g class="legendpoints"/></g></g><rect class="legendtoggle" x="0" y="-10.6" width="134.796875" height="21.2" style="fill: rgb(0, 0, 0); fill-opacity: 0;"/></g></g><g class="groups" transform="translate(0,40)"><g class="traces" transform="translate(0,100.39999999999999)" style="opacity: 1;"><text class="legendtext" text-anchor="start" x="40" y="5.46" style="font-family: 'Open Sans', verdana, arial, sans-serif; font-size: 14px; fill: rgb(0, 0, 0); fill-opacity: 1; white-space: pre;">0.37 OD of Ct</text><g class="layers" style="opacity: 1;"><g class="legendfill"/><g class="legendlines"><path class="js-line" d="M5,0h30" style="fill: none; stroke: rgb(253, 231, 37); stroke-opacity: 1; stroke-width: 1.7px;"/></g><g class="legendsymbols"><g class="legendpoints"/></g></g><rect class="legendtoggle" x="0" y="-10.6" width="134.796875" height="21.2" style="fill: rgb(0, 0, 0); fill-opacity: 0;"/></g></g></g><rect class="scrollbar" rx="20" ry="3" width="0" height="0" x="0" y="0" style="fill: rgb(128, 139, 164); fill-opacity: 1;"/></g><g class="g-gtitle"/><g class="g-xtitle" transform="translate(0,5.699999999999989)"><text class="xtitle" x="295" y="478.3" text-anchor="middle" style="opacity: 1; font-family: 'Open Sans', verdana, arial, sans-serif; font-size: 14px; fill: rgb(0, 0, 0); fill-opacity: 1; white-space: pre;">Time [h]</text></g><g class="g-ytitle" transform="translate(0.150390625,0)"><text class="ytitle" transform="rotate(-90,14.850000000000001,235)" x="14.850000000000001" y="235" text-anchor="middle" style="opacity: 1; font-family: 'Open Sans', verdana, arial, sans-serif; font-size: 14px; fill: rgb(0, 0, 0); fill-opacity: 1; white-space: pre;">Corrected OD</text></g></g></svg>