<svg class="main-svg" xmlns="http://www.w3.org/2000/svg" xmlns:xlink="http://www.w3.org/1999/xlink" width="200" height="170" style="" viewBox="0 0 200 170"><rect x="0" y="0" width="200" height="170" style="fill: rgb(0, 0, 0); fill-opacity: 0;"/><defs id="defs-6d2d35"><g class="clips"><clipPath id="clip6d2d35xyplot" class="plotclip"><rect width="149" height="100"/></clipPath><clipPath class="axesclip" id="clip6d2d35x"><rect x="51" y="0" width="149" height="170"/></clipPath><clipPath class="axesclip" id="clip6d2d35y"><rect x="0" y="20" width="200" height="100"/></clipPath><clipPath class="axesclip" id="clip6d2d35xy"><rect x="51" y="20" width="149" height="100"/></clipPath></g><g class="gradients"/><g class="patterns"/></defs><g class="bglayer"><rect class="bg" x="51" y="20" width="149" height="100" style="fill: rgb(0, 0, 0); fill-opacity: 0; stroke-width: 0;"/></g><g class="layer-below"><g class="imagelayer"/><g class="shapelayer"/></g><g class="cartesianlayer"><g class="subplot xy"><g class="layer-subplot"><g class="shapelayer"/><g class="imagelayer"/></g><g class="minor-gridlayer"><g class="x"/><g class="y"/></g><g class="gridlayer"><g class="x"><path class="xgrid crisp" transform="translate(94.3,0)" d="M0,20v100" style="stroke: rgb(0, 0, 0); stroke-opacity: 0; stroke-width: 1px;"/><path class="xgrid crisp" transform="translate(127.14,0)" d="M0,20v100" style="stroke: rgb(0, 0, 0); stroke-opacity: 0; stroke-width: 1px;"/><path class="xgrid crisp" transform="translate(159.99,0)" d="M0,20v100" style="stroke: rgb(0, 0, 0); stroke-opacity: 0; stroke-width: 1px;"/><path class="xgrid crisp" transform="translate(192.83,0)" d="M0,20v100" style="stroke: rgb(0, 0, 0); stroke-opacity: 0; stroke-width: 1px;"/></g><g class="y"><path class="ygrid crisp" transform="translate(0,109.79)" d="M51,0h149" style="stroke: rgb(0, 0, 0); stroke-opacity: 0; stroke-width: 1px;"/><path class="ygrid crisp" transform="translate(0,93.59)" d="M51,0h149" style="stroke: rgb(0, 0, 0); stroke-opacity: 0; stroke-width: 1px;"/><path class="ygrid crisp" transform="translate(0,72.19)" d="M51,0h149" style="stroke: rgb(0, 0, 0); stroke-opacity: 0; stroke-width: 1px;"/><path class="ygrid crisp" transform="translate(0,55.99)" d="M51,0h149" style="stroke: rgb(0, 0, 0); stroke-opacity: 0; stroke-width: 1px;"/><path class="ygrid crisp" transform="translate(0,39.8)" d="M51,0h149" style="stroke: rgb(0, 0, 0); stroke-opacity: 0; stroke-width: 1px;"/></g></g><g class="zerolinelayer"><path class="xzl zl crisp" transform="translate(61.45,0)" d="M0,20v100" style="stroke: rgb(0, 0, 0); stroke-opacity: 1; stroke-width: 1px;"/></g><g class="layer-between"><g class="shapelayer"/><g class="imagelayer"/></g><path class="xlines-below"/><path class="ylines-below"/><g class="overlines-below"/><g class="xaxislayer-below"/><g class="yaxislayer-below"/><g class="overaxes-below"/><g class="overplot"><g class="xy" transform="translate(51,20)" clip-path="url(#clip6d2d35xyplot)"><g class="scatterlayer mlayer"><g class="trace scatter trace595c95" style="stroke-miterlimit: 2; opacity: 1;"><g class="fills"/><g class="errorbars"><g class="errorbar" style="opacity: 1;"><path class="yerror" d="M6.449999999999999,53.94h8m-4,0V57.24m-4,0h8" style="vector-effect: none; stroke-width: 1.5px; stroke: rgb(0, 0, 128); stroke-opacity: 1;"/></g><g class="errorbar" style="opacity: 1;"><path class="yerror" d="M32.07,12.61h8m-4,0V30.25m-4,0h8" style="vector-effect: none; stroke-width: 1.5px; stroke: rgb(0, 0, 128); stroke-opacity: 1;"/></g><g class="errorbar" style="opacity: 1;"><path class="yerror" d="M55.72,54.65h8m-4,0V65.45m-4,0h8" style="vector-effect: none; stroke-width: 1.5px; stroke: rgb(0, 0, 128); stroke-opacity: 1;"/></g><g class="errorbar" style="opacity: 1;"><path class="yerror" d="M88.57,22.62h8m-4,0V32.5m-4,0h8" style="vector-effect: none; stroke-width: 1.5px; stroke: rgb(0, 0, 128); stroke-opacity: 1;"/></g><g class="errorbar" style="opacity: 1;"><path class="yerror" d="M134.55,41.21h8m-4,0V57.4m-4,0h8" style="vector-effect: none; stroke-width: 1.5px; stroke: rgb(0, 0, 128); stroke-opacity: 1;"/></g></g><g class="lines"><path class="js-line" d="M10.45,55.53L36.07,19.8L59.72,59.43L92.57,27.04L138.55,47.93" style="vector-effect: none; fill: none; stroke: rgb(0, 0, 128); stroke-opacity: 1; stroke-width: 1.5px; opacity: 1;"/></g><g class="points"><path class="point" transform="translate(10.45,55.53)" d="M0.75,0A0.75,0.75 0 1,1 0,-0.75A0.75,0.75 0 0,1 0.75,0Z" style="opacity: 1; stroke-width: 0px; fill: rgb(0, 0, 128); fill-opacity: 1;"/><path class="point" transform="translate(36.07,19.8)" d="M0.75,0A0.75,0.75 0 1,1 0,-0.75A0.75,0.75 0 0,1 0.75,0Z" style="opacity: 1; stroke-width: 0px; fill: rgb(0, 0, 128); fill-opacity: 1;"/><path class="point" transform="translate(59.72,59.43)" d="M0.75,0A0.75,0.75 0 1,1 0,-0.75A0.75,0.75 0 0,1 0.75,0Z" style="opacity: 1; stroke-width: 0px; fill: rgb(0, 0, 128); fill-opacity: 1;"/><path class="point" transform="translate(92.57,27.04)" d="M0.75,0A0.75,0.75 0 1,1 0,-0.75A0.75,0.75 0 0,1 0.75,0Z" style="opacity: 1; stroke-width: 0px; fill: rgb(0, 0, 128); fill-opacity: 1;"/><path class="point" transform="translate(138.55,47.93)" d="M0.75,0A0.75,0.75 0 1,1 0,-0.75A0.75,0.75 0 0,1 0.75,0Z" style="opacity: 1; stroke-width: 0px; fill: rgb(0, 0, 128); fill-opacity: 1;"/></g><g class="text"/></g><g class="trace scatter traceb07346" style="stroke-miterlimit: 2; opacity: 1;"><g class="fills"/><g class="errorbars"><g class="errorbar" style="opacity: 1;"><path class="yerror" d="M6.449999999999999,85.53h8m-4,0V95m-4,0h8" style="vector-effect: none; stroke-width: 1.5px; stroke: rgb(128, 0, 128); stroke-opacity: 1;"/></g><g class="errorbar" style="opacity: 1;"><path class="yerror" d="M32.07,13.92h8m-4,0V20.26m-4,0h8" style="vector-effect: none; stroke-width: 1.5px; stroke: rgb(128, 0, 128); stroke-opacity: 1;"/></g><g class="errorbar" style="opacity: 1;"><path class="yerror" d="M55.72,25.42h8m-4,0V36.92m-4,0h8" style="vector-effect: none; stroke-width: 1.5px; stroke: rgb(128, 0, 128); stroke-opacity: 1;"/></g><g class="errorbar" style="opacity: 1;"><path class="yerror" d="M88.57,8.57h8m-4,0V35.26m-4,0h8" style="vector-effect: none; stroke-width: 1.5px; stroke: rgb(128, 0, 128); stroke-opacity: 1;"/></g><g class="errorbar" style="opacity: 1;"><path class="yerror" d="M134.55,8.06h8m-4,0V36.91m-4,0h8" style="vector-effect: none; stroke-width: 1.5px; stroke: rgb(128, 0, 128); stroke-opacity: 1;"/></g></g><g class="lines"><path class="js-line" d="M10.45,89.79L36.07,16.87L59.72,30.47L92.57,18.29L138.55,18.29" style="vector-effect: none; fill: none; stroke: rgb(128, 0, 128); stroke-opacity: 1; stroke-width: 1.5px; opacity: 1;"/></g><g class="points"><path class="point" transform="translate(10.45,89.79)" d="M0.75,0A0.75,0.75 0 1,1 0,-0.75A0.75,0.75 0 0,1 0.75,0Z" style="opacity: 1; stroke-width: 0px; fill: rgb(128, 0, 128); fill-opacity: 1;"/><path class="point" transform="translate(36.07,16.87)" d="M0.75,0A0.75,0.75 0 1,1 0,-0.75A0.75,0.75 0 0,1 0.75,0Z" style="opacity: 1; stroke-width: 0px; fill: rgb(128, 0, 128); fill-opacity: 1;"/><path class="point" transform="translate(59.72,30.47)" d="M0.75,0A0.75,0.75 0 1,1 0,-0.75A0.75,0.75 0 0,1 0.75,0Z" style="opacity: 1; stroke-width: 0px; fill: rgb(128, 0, 128); fill-opacity: 1;"/><path class="point" transform="translate(92.57,18.29)" d="M0.75,0A0.75,0.75 0 1,1 0,-0.75A0.75,0.75 0 0,1 0.75,0Z" style="opacity: 1; stroke-width: 0px; fill: rgb(128, 0, 128); fill-opacity: 1;"/><path class="point" transform="translate(138.55,18.29)" d="M0.75,0A0.75,0.75 0 1,1 0,-0.75A0.75,0.75 0 0,1 0.75,0Z" style="opacity: 1; stroke-width: 0px; fill: rgb(128, 0, 128); fill-opacity: 1;"/></g><g class="text"/></g><g class="trace scatter traceddd2eb" style="stroke-miterlimit: 2; opacity: 1;"><g class="fills"/><g class="errorbars"><g class="errorbar" style="opacity: 1;"><path class="yerror" d="M6.449999999999999,53.94h8m-4,0V57.24m-4,0h8" style="vector-effect: none; stroke-width: 1.5px; stroke: rgb(0, 0, 128); stroke-opacity: 1;"/></g><g class="errorbar" style="opacity: 1;"><path class="yerror" d="M32.07,22.62h8m-4,0V32.5m-4,0h8" style="vector-effect: none; stroke-width: 1.5px; stroke: rgb(0, 0, 128); stroke-opacity: 1;"/></g><g class="errorbar" style="opacity: 1;"><path class="yerror" d="M55.72,31.73h8m-4,0V41.21m-4,0h8" style="vector-effect: none; stroke-width: 1.5px; stroke: rgb(0, 0, 128); stroke-opacity: 1;"/></g><g class="errorbar" style="opacity: 1;"><path class="yerror" d="M88.57,22.97h8m-4,0V34.77m-4,0h8" style="vector-effect: none; stroke-width: 1.5px; stroke: rgb(0, 0, 128); stroke-opacity: 1;"/></g><g class="errorbar" style="opacity: 1;"><path class="yerror" d="M134.55,32.44h8m-4,0V44.25m-4,0h8" style="vector-effect: none; stroke-width: 1.5px; stroke: rgb(0, 0, 128); stroke-opacity: 1;"/></g></g><g class="lines"><path class="js-line" d="M10.45,55.53L36.07,27.04L59.72,35.99L92.57,28.13L138.55,37.6" style="vector-effect: none; fill: none; stroke: rgb(0, 0, 128); stroke-opacity: 1; stroke-width: 1.5px; opacity: 1;"/></g><g class="points"><path class="point" transform="translate(10.45,55.53)" d="M0.75,0A0.75,0.75 0 1,1 0,-0.75A0.75,0.75 0 0,1 0.75,0Z" style="opacity: 1; stroke-width: 0px; fill: rgb(0, 0, 128); fill-opacity: 1;"/><path class="point" transform="translate(36.07,27.04)" d="M0.75,0A0.75,0.75 0 1,1 0,-0.75A0.75,0.75 0 0,1 0.75,0Z" style="opacity: 1; stroke-width: 0px; fill: rgb(0, 0, 128); fill-opacity: 1;"/><path class="point" transform="translate(59.72,35.99)" d="M0.75,0A0.75,0.75 0 1,1 0,-0.75A0.75,0.75 0 0,1 0.75,0Z" style="opacity: 1; stroke-width: 0px; fill: rgb(0, 0, 128); fill-opacity: 1;"/><path class="point" transform="translate(92.57,28.13)" d="M0.75,0A0.75,0.75 0 1,1 0,-0.75A0.75,0.75 0 0,1 0.75,0Z" style="opacity: 1; stroke-width: 0px; fill: rgb(0, 0, 128); fill-opacity: 1;"/><path class="point" transform="translate(138.55,37.6)" d="M0.75,0A0.75,0.75 0 1,1 0,-0.75A0.75,0.75 0 0,1 0.75,0Z" style="opacity: 1; stroke-width: 0px; fill: rgb(0, 0, 128); fill-opacity: 1;"/></g><g class="text"/></g><g class="trace scatter trace3b89c3" style="stroke-miterlimit: 2; opacity: 1;"><g class="fills"/><g class="errorbars"><g class="errorbar" style="opacity: 1;"><path class="yerror" d="M6.449999999999999,85.53h8m-4,0V95m-4,0h8" style="vector-effect: none; stroke-width: 1.5px; stroke: rgb(128, 0, 128); stroke-opacity: 1;"/></g><g class="errorbar" style="opacity: 1;"><path class="yerror" d="M32.07,10.95h8m-4,0V26.85m-4,0h8" style="vector-effect: none; stroke-width: 1.5px; stroke: rgb(128, 0, 128); stroke-opacity: 1;"/></g><g class="errorbar" style="opacity: 1;"><path class="yerror" d="M55.72,5h8m-4,0V25.53m-4,0h8" style="vector-effect: none; stroke-width: 1.5px; stroke: rgb(128, 0, 128); stroke-opacity: 1;"/></g><g class="errorbar" style="opacity: 1;"><path class="yerror" d="M88.57,12.39h8m-4,0V19.18m-4,0h8" style="vector-effect: none; stroke-width: 1.5px; stroke: rgb(128, 0, 128); stroke-opacity: 1;"/></g><g class="errorbar" style="opacity: 1;"><path class="yerror" d="M134.55,16.24h8m-4,0V30.39m-4,0h8" style="vector-effect: none; stroke-width: 1.5px; stroke: rgb(128, 0, 128); stroke-opacity: 1;"/></g></g><g class="lines"><path class="js-line" d="M10.45,89.79L36.07,17.57L59.72,13.08L92.57,15.54L138.55,22.26" style="vector-effect: none; fill: none; stroke: rgb(128, 0, 128); stroke-opacity: 1; stroke-width: 1.5px; opacity: 1;"/></g><g class="points"><path class="point" transform="translate(10.45,89.79)" d="M0.75,0A0.75,0.75 0 1,1 0,-0.75A0.75,0.75 0 0,1 0.75,0Z" style="opacity: 1; stroke-width: 0px; fill: rgb(128, 0, 128); fill-opacity: 1;"/><path class="point" transform="translate(36.07,17.57)" d="M0.75,0A0.75,0.75 0 1,1 0,-0.75A0.75,0.75 0 0,1 0.75,0Z" style="opacity: 1; stroke-width: 0px; fill: rgb(128, 0, 128); fill-opacity: 1;"/><path class="point" transform="translate(59.72,13.08)" d="M0.75,0A0.75,0.75 0 1,1 0,-0.75A0.75,0.75 0 0,1 0.75,0Z" style="opacity: 1; stroke-width: 0px; fill: rgb(128, 0, 128); fill-opacity: 1;"/><path class="point" transform="translate(92.57,15.54)" d="M0.75,0A0.75,0.75 0 1,1 0,-0.75A0.75,0.75 0 0,1 0.75,0Z" style="opacity: 1; stroke-width: 0px; fill: rgb(128, 0, 128); fill-opacity: 1;"/><path class="point" transform="translate(138.55,22.26)" d="M0.75,0A0.75,0.75 0 1,1 0,-0.75A0.75,0.75 0 0,1 0.75,0Z" style="opacity: 1; stroke-width: 0px; fill: rgb(128, 0, 128); fill-opacity: 1;"/></g><g class="text"/></g><g class="trace scatter traceb9ffb6" style="stroke-miterlimit: 2; opacity: 1;"><g class="fills"/><g class="errorbars"><g class="errorbar" style="opacity: 1;"><path class="yerror" d="M6.449999999999999,53.94h8m-4,0V57.24m-4,0h8" style="vector-effect: none; stroke-width: 1.5px; stroke: rgb(0, 0, 128); stroke-opacity: 1;"/></g><g class="errorbar" style="opacity: 1;"><path class="yerror" d="M32.07,13.67h8m-4,0V22.26m-4,0h8" style="vector-effect: none; stroke-width: 1.5px; stroke: rgb(0, 0, 128); stroke-opacity: 1;"/></g><g class="errorbar" style="opacity: 1;"><path class="yerror" d="M55.72,21.09h8m-4,0V51.85m-4,0h8" style="vector-effect: none; stroke-width: 1.5px; stroke: rgb(0, 0, 128); stroke-opacity: 1;"/></g><g class="errorbar" style="opacity: 1;"><path class="yerror" d="M88.57,25.54h8m-4,0V33.72m-4,0h8" style="vector-effect: none; stroke-width: 1.5px; stroke: rgb(0, 0, 128); stroke-opacity: 1;"/></g><g class="errorbar" style="opacity: 1;"><path class="yerror" d="M134.55,22.62h8m-4,0V32.5m-4,0h8" style="vector-effect: none; stroke-width: 1.5px; stroke: rgb(0, 0, 128); stroke-opacity: 1;"/></g></g><g class="lines"><path class="js-line" d="M10.45,55.53L36.07,17.57L59.72,31.73L92.57,29.27L138.55,27.04" style="vector-effect: none; fill: none; stroke: rgb(0, 0, 128); stroke-opacity: 1; stroke-width: 1.5px; opacity: 1;"/></g><g class="points"><path class="point" transform="translate(10.45,55.53)" d="M0.75,0A0.75,0.75 0 1,1 0,-0.75A0.75,0.75 0 0,1 0.75,0Z" style="opacity: 1; stroke-width: 0px; fill: rgb(0, 0, 128); fill-opacity: 1;"/><path class="point" transform="translate(36.07,17.57)" d="M0.75,0A0.75,0.75 0 1,1 0,-0.75A0.75,0.75 0 0,1 0.75,0Z" style="opacity: 1; stroke-width: 0px; fill: rgb(0, 0, 128); fill-opacity: 1;"/><path class="point" transform="translate(59.72,31.73)" d="M0.75,0A0.75,0.75 0 1,1 0,-0.75A0.75,0.75 0 0,1 0.75,0Z" style="opacity: 1; stroke-width: 0px; fill: rgb(0, 0, 128); fill-opacity: 1;"/><path class="point" transform="translate(92.57,29.27)" d="M0.75,0A0.75,0.75 0 1,1 0,-0.75A0.75,0.75 0 0,1 0.75,0Z" style="opacity: 1; stroke-width: 0px; fill: rgb(0, 0, 128); fill-opacity: 1;"/><path class="point" transform="translate(138.55,27.04)" d="M0.75,0A0.75,0.75 0 1,1 0,-0.75A0.75,0.75 0 0,1 0.75,0Z" style="opacity: 1; stroke-width: 0px; fill: rgb(0, 0, 128); fill-opacity: 1;"/></g><g class="text"/></g><g class="trace scatter tracef0ba89" style="stroke-miterlimit: 2; opacity: 1;"><g class="fills"/><g class="errorbars"><g class="errorbar" style="opacity: 1;"><path class="yerror" d="M6.449999999999999,85.53h8m-4,0V95m-4,0h8" style="vector-effect: none; stroke-width: 1.5px; stroke: rgb(128, 0, 128); stroke-opacity: 1;"/></g><g class="errorbar" style="opacity: 1;"><path class="yerror" d="M32.07,16.24h8m-4,0V30.39m-4,0h8" style="vector-effect: none; stroke-width: 1.5px; stroke: rgb(128, 0, 128); stroke-opacity: 1;"/></g><g class="errorbar" style="opacity: 1;"><path class="yerror" d="M55.72,24.31h8m-4,0V27.84m-4,0h8" style="vector-effect: none; stroke-width: 1.5px; stroke: rgb(128, 0, 128); stroke-opacity: 1;"/></g><g class="errorbar" style="opacity: 1;"><path class="yerror" d="M88.57,13.67h8m-4,0V35.99m-4,0h8" style="vector-effect: none; stroke-width: 1.5px; stroke: rgb(128, 0, 128); stroke-opacity: 1;"/></g><g class="errorbar" style="opacity: 1;"><path class="yerror" d="M134.55,18.85h8m-4,0V30.77m-4,0h8" style="vector-effect: none; stroke-width: 1.5px; stroke: rgb(128, 0, 128); stroke-opacity: 1;"/></g></g><g class="lines"><path class="js-line" d="M10.45,89.79L36.07,22.26L59.72,26.01L92.57,22.26L138.55,24.06" style="vector-effect: none; fill: none; stroke: rgb(128, 0, 128); stroke-opacity: 1; stroke-width: 1.5px; opacity: 1;"/></g><g class="points"><path class="point" transform="translate(10.45,89.79)" d="M0.75,0A0.75,0.75 0 1,1 0,-0.75A0.75,0.75 0 0,1 0.75,0Z" style="opacity: 1; stroke-width: 0px; fill: rgb(128, 0, 128); fill-opacity: 1;"/><path class="point" transform="translate(36.07,22.26)" d="M0.75,0A0.75,0.75 0 1,1 0,-0.75A0.75,0.75 0 0,1 0.75,0Z" style="opacity: 1; stroke-width: 0px; fill: rgb(128, 0, 128); fill-opacity: 1;"/><path class="point" transform="translate(59.72,26.01)" d="M0.75,0A0.75,0.75 0 1,1 0,-0.75A0.75,0.75 0 0,1 0.75,0Z" style="opacity: 1; stroke-width: 0px; fill: rgb(128, 0, 128); fill-opacity: 1;"/><path class="point" transform="translate(92.57,22.26)" d="M0.75,0A0.75,0.75 0 1,1 0,-0.75A0.75,0.75 0 0,1 0.75,0Z" style="opacity: 1; stroke-width: 0px; fill: rgb(128, 0, 128); fill-opacity: 1;"/><path class="point" transform="translate(138.55,24.06)" d="M0.75,0A0.75,0.75 0 1,1 0,-0.75A0.75,0.75 0 0,1 0.75,0Z" style="opacity: 1; stroke-width: 0px; fill: rgb(128, 0, 128); fill-opacity: 1;"/></g><g class="text"/></g></g></g></g><path class="xlines-above crisp" d="M0,0" style="fill: none;"/><path class="ylines-above crisp" d="M0,0" style="fill: none;"/><g class="overlines-above"/><g class="xaxislayer-above"><g class="xtick"><text text-anchor="middle" x="0" y="131" transform="translate(61.45,0)" style="font-family: 'Open Sans', verdana, arial, sans-serif; font-size: 10px; fill: rgb(0, 0, 0); fill-opacity: 1; white-space: pre; opacity: 1;">0</text></g><g class="xtick"><text text-anchor="middle" x="0" y="131" style="font-family: 'Open Sans', verdana, arial, sans-serif; font-size: 10px; fill: rgb(0, 0, 0); fill-opacity: 1; white-space: pre; opacity: 1;" transform="translate(94.3,0)">10</text></g><g class="xtick"><text text-anchor="middle" x="0" y="131" style="font-family: 'Open Sans', verdana, arial, sans-serif; font-size: 10px; fill: rgb(0, 0, 0); fill-opacity: 1; white-space: pre; opacity: 1;" transform="translate(127.14,0)">20</text></g><g class="xtick"><text text-anchor="middle" x="0" y="131" style="font-family: 'Open Sans', verdana, arial, sans-serif; font-size: 10px; fill: rgb(0, 0, 0); fill-opacity: 1; white-space: pre; opacity: 1;" transform="translate(159.99,0)">30</text></g><g class="xtick"><text text-anchor="middle" x="0" y="131" style="font-family: 'Open Sans', verdana, arial, sans-serif; font-size: 10px; fill: rgb(0, 0, 0); fill-opacity: 1; white-space: pre; opacity: 1;" transform="translate(192.83,0)">40</text></g></g><g class="yaxislayer-above"><g class="ytick"><text text-anchor="end" x="50" y="3.5" transform="translate(0,109.79)" style="font-family: 'Open Sans', verdana, arial, sans-serif; font-size: 10px; fill: rgb(0, 0, 0); fill-opacity: 1; white-space: pre; opacity: 1;">10M</text></g><g class="ytick"><text text-anchor="end" x="50" y="2.625" style="font-family: 'Open Sans', verdana, arial, sans-serif; font-size: 7.5px; fill: rgb(0, 0, 0); fill-opacity: 1; white-space: pre; opacity: 1;" transform="translate(0,93.59)">2</text></g><g class="ytick"><text text-anchor="end" x="50" y="2.625" style="font-family: 'Open Sans', verdana, arial, sans-serif; font-size: 7.5px; fill: rgb(0, 0, 0); fill-opacity: 1; white-space: pre; opacity: 1;" transform="translate(0,72.19)">5</text></g><g class="ytick"><text text-anchor="end" x="50" y="3.5" style="font-family: 'Open Sans', verdana, arial, sans-serif; font-size: 10px; fill: rgb(0, 0, 0); fill-opacity: 1; white-space: pre; opacity: 1;" transform="translate(0,55.99)">100M</text></g><g class="ytick"><text text-anchor="end" x="50" y="2.625" style="font-family: 'Open Sans', verdana, arial, sans-serif; font-size: 7.5px; fill: rgb(0, 0, 0); fill-opacity: 1; white-space: pre; opacity: 1;" transform="translate(0,39.8)">2</text></g></g><g class="overaxes-above"/></g></g><g class="polarlayer"/><g class="smithlayer"/><g class="ternarylayer"/><g class="geolayer"/><g class="funnelarealayer"/><g class="pielayer"/><g class="iciclelayer"/><g class="treemaplayer"/><g class="sunburstlayer"/><g class="glimages"/><defs id="topdefs-6d2d35"><g class="clips"/></defs><g class="layer-above"><g class="imagelayer"/><g class="shapelayer"/></g><g class="infolayer"><g class="g-gtitle"/><g class="g-xtitle"><text class="xtitle" x="125.5" y="156.9" text-anchor="middle" style="opacity: 1; font-family: 'Open Sans', verdana, arial, sans-serif; font-size: 12px; fill: rgb(0, 0, 0); fill-opacity: 1; white-space: pre;">Time</text></g><g class="g-ytitle" transform="translate(7.8876953125,0)"><text class="ytitle" transform="rotate(-90,5.112499999999997,70)" x="5.112499999999997" y="70" text-anchor="middle" style="opacity: 1; font-family: 'Open Sans', verdana, arial, sans-serif; font-size: 12px; fill: rgb(0, 0, 0); fill-opacity: 1; white-space: pre;">CFUs/mL</text></g></g></svg>