<svg class="main-svg" xmlns="http://www.w3.org/2000/svg" xmlns:xlink="http://www.w3.org/1999/xlink" width="500" height="444.44444444444446" style="" viewBox="0 0 500 444.44444444444446"><rect x="0" y="0" width="500" height="444.44444444444446" style="fill: rgb(153, 153, 153); fill-opacity: 1;"/><defs id="defs-21513e"><g class="clips"><clipPath id="clip21513exyplot" class="plotclip"><rect width="324" height="181.39"/></clipPath><clipPath id="clip21513ex2y2plot" class="plotclip"><rect width="324" height="181.39"/></clipPath><clipPath class="axesclip" id="clip21513ex"><rect x="50" y="0" width="324" height="444.44444444444446"/></clipPath><clipPath class="axesclip" id="clip21513ey"><rect x="0" y="20" width="500" height="181.39"/></clipPath><clipPath class="axesclip" id="clip21513exy"><rect x="50" y="20" width="324" height="181.39"/></clipPath><clipPath class="axesclip" id="clip21513ey2"><rect x="0" y="212.61" width="500" height="181.39"/></clipPath><clipPath class="axesclip" id="clip21513exy2"><rect x="50" y="212.61" width="324" height="181.39"/></clipPath><clipPath class="axesclip" id="clip21513ex2"><rect x="50" y="0" width="324" height="444.44444444444446"/></clipPath><clipPath class="axesclip" id="clip21513ex2y"><rect x="50" y="20" width="324" height="181.39"/></clipPath><clipPath class="axesclip" id="clip21513ex2y2"><rect x="50" y="212.61" width="324" height="181.39"/></clipPath></g><g class="gradients"/><g class="patterns"/></defs><g class="bglayer"/><g class="layer-below"><g class="imagelayer"/><g class="shapelayer"/></g><g class="cartesianlayer"><g class="subplot xy"><g class="layer-subplot"><g class="shapelayer"/><g class="imagelayer"/></g><g class="minor-gridlayer"><g class="x"/><g class="y"/></g><g class="gridlayer"><g class="x"><path class="xgrid crisp" transform="translate(142.01999999999998,0)" d="M0,20v181.39" style="stroke: rgb(0, 0, 0); stroke-opacity: 1; stroke-width: 1px;"/><path class="xgrid crisp" transform="translate(215.68,0)" d="M0,20v181.39" style="stroke: rgb(0, 0, 0); stroke-opacity: 1; stroke-width: 1px;"/><path class="xgrid crisp" transform="translate(289.34000000000003,0)" d="M0,20v181.39" style="stroke: rgb(0, 0, 0); stroke-opacity: 1; stroke-width: 1px;"/><path class="xgrid crisp" transform="translate(363.01,0)" d="M0,20v181.39" style="stroke: rgb(0, 0, 0); stroke-opacity: 1; stroke-width: 1px;"/></g><g class="y"><path class="ygrid crisp" transform="translate(0,141.6)" d="M50,0h324" style="stroke: rgb(0, 0, 0); stroke-opacity: 1; stroke-width: 1px;"/><path class="ygrid crisp" transform="translate(0,90.18)" d="M50,0h324" style="stroke: rgb(0, 0, 0); stroke-opacity: 1; stroke-width: 1px;"/><path class="ygrid crisp" transform="translate(0,38.75)" d="M50,0h324" style="stroke: rgb(0, 0, 0); stroke-opacity: 1; stroke-width: 1px;"/></g></g><g class="zerolinelayer"><path class="xzl zl crisp" transform="translate(68.36,0)" d="M0,20v181.39" style="stroke: rgb(0, 0, 0); stroke-opacity: 1; stroke-width: 1px;"/><path class="yzl zl crisp" transform="translate(0,193.02)" d="M50,0h324" style="stroke: rgb(0, 0, 0); stroke-opacity: 1; stroke-width: 1px;"/></g><g class="layer-between"><g class="shapelayer"/><g class="imagelayer"/></g><path class="xlines-below"/><path class="ylines-below"/><g class="overlines-below"/><g class="xaxislayer-below"/><g class="yaxislayer-below"/><g class="overaxes-below"/><g class="overplot"><g class="xy" transform="translate(50,20)" clip-path="url(#clip21513exyplot)"><g class="scatterlayer mlayer"><g class="trace scatter trace8563ac" style="stroke-miterlimit: 2; opacity: 1;"><g class="fills"/><g class="errorbars"/><g class="lines"><path class="js-line" d="M18.36,113.48L19.59,172.32L20.82,170.94L23.28,167.88L24.5,165.82L28.19,160.29L29.42,159L33.11,153.87L34.34,154.27L38.02,149.81L39.25,149.68L44.17,145.85L45.4,143.76L46.63,143.6L47.85,142.54L50.31,140.3L51.54,139.31L54,136.39L55.23,134.71L60.14,127.93L61.37,123.52L65.06,117.77L66.29,114.31L72.43,100.01L73.66,98.36L74.89,95.88L76.12,95.12L78.58,92.61L79.81,94.28L82.27,97.51L83.49,97.89L87.18,98.57L88.41,100.12L90.87,102.45L92.1,103.33L93.33,104.89L94.56,87.24" style="vector-effect: none; fill: none; stroke: rgb(79, 79, 79); stroke-opacity: 1; stroke-width: 1.5px; opacity: 1;"/></g><g class="points"/><g class="text"/></g><g class="trace scatter tracee2e6ba" style="stroke-miterlimit: 2; opacity: 1;"><g class="fills"/><g class="errorbars"/><g class="lines"><path class="js-line" d="M128.85,9.07L130.08,81.52L130.2,82.47L133.15,103.2L133.52,102.74L133.65,102.33L136.1,92.31L136.23,92.53L137.33,93.94L137.46,93.69L137.58,93.36L137.82,92.95L138.19,93.72L138.32,93.74L138.56,93.9L138.81,93.6L138.93,93.28L139.67,91.68L139.91,92.03L140.04,92.5L141.27,95.21L141.39,95.17L142.13,95.72L142.25,95.3L142.37,95.14L143.23,93.05L143.35,91.74L144.46,87.43L144.58,87.61L144.71,88.03L146.18,93.75L146.3,93.64L146.55,93.72L146.8,93.09L146.92,92.77L148.39,90L148.52,89.64L150.61,83.37L150.73,83.14L151.83,78.52L151.96,78.15L152.45,76.76L152.94,77.02L153.06,77.07L154.42,76.42L154.54,76.66L154.66,76.89L156.14,79L156.26,79.5L158.1,82.38L158.23,83.05L159.09,84.98L159.21,84.94L159.33,84.84L160.56,82.55L160.68,82.49L161.79,82.84L161.91,82.98L164,83.76L164.12,83.95L167.44,82.56L167.57,82.83L167.69,82.94L168.18,83.34L168.43,82.95L168.55,82.76L169.78,80.98L169.9,80.63L171.25,79.64L171.37,79.6L174.45,81.02L174.57,81.01L176.41,81.6L176.54,81.46L178.13,81.08L178.26,81.11L179.24,82.08L179.36,81.95L179.49,82L180.22,82.32L180.35,82.39L181.33,82.63L181.45,82.27L182.31,82.13L182.44,81.97L182.68,82.18L183.05,81.67L183.17,81.38L184.16,80.4L184.28,80.27L185.63,81.06L185.75,80.84L186.37,81.31L186.49,81.43L187.72,81.7L187.84,81.58L191.78,84.75L191.9,84.73L193.86,86.63L193.99,86.65L194.85,87.66L194.97,87.85L196.2,88.66L196.32,88.56L196.45,88.65L197.06,88.41L197.31,88.78L197.43,88.86L198.66,90L198.78,89.88L201.12,92.79L201.24,92.97L203.45,95.96L203.7,95.63L203.82,95.45L205.79,96.12L205.91,95.86L207.51,88.25L207.63,88.32L208.98,87.15L209.1,87.25L210.82,87.65L210.95,87.53L211.32,87.15L211.56,87.37L211.68,87.79L213.16,88.71L213.28,88.54L215,88L215.13,88.25L217.21,87.21L217.34,87.42L217.46,87.53L220.53,89.83L220.66,89.66L221.64,88.67L221.88,88.83L222.01,88.9L222.74,89.03L222.87,88.93L224.1,87.82L224.22,87.2L225.2,83.24L225.45,83.48L225.57,84.41L226.68,92.96L227.05,91.57L227.17,90.79L227.66,89.4L228.03,89.8L228.15,89.93L229.14,89.86L229.26,89.85L231.22,95.49L231.35,96.19L233.81,98.52L233.93,98.51L234.91,98.63L235.03,98.44L235.65,97.79L235.77,97.29L236.63,95.28L236.88,95.53L237,95.69L237.37,94.75L237.62,95.92L237.74,95.93L238.23,97.17L238.35,97.63L239.34,98.78L239.46,98.92L240.44,100.73L240.56,100.59L240.69,100.13L241.55,99.53L241.79,99.79L241.92,100.03L243.76,101.58L244.13,101.03L244.25,100.63L244.74,99.83L244.87,97.81L245.36,97.46L245.48,97.89L245.6,98.02L245.97,98.05L246.1,99.77L247.69,99.6L247.82,99.4L249.78,97.64L250.03,98.07L250.15,98.28L252.24,99.81L252.36,99.69L254.58,100.91L254.7,100.94L254.94,100.83L255.31,101.16L255.44,101.2L257.16,100.44L257.28,100.61L257.4,100.8L258.63,100.63L258.75,100.56L259.98,99.94L260.11,99.92L261.33,100.44L261.46,100.75L262.07,101.8L262.32,101.3L262.44,100.68L263.3,97.62L263.67,98.44L263.79,98.39L263.92,98.58L264.28,98.14L264.41,97.81L266,96.18L266.13,96.27L267.23,97.51L267.36,97.66L268.22,98.07L268.34,98L268.46,98.11L270.55,96.37L270.67,96.44L273.5,97.29L273.62,97.51L274.36,98.68L274.73,98.4L274.85,98.24L275.47,96.88L275.59,95.96L276.57,92.04L276.82,92.61L276.94,93.19L278.79,97.34L278.91,97.01L280.75,93.7L280.88,94.21L281.98,98.33L282.35,97.28L282.47,97.15L284.81,96.17L284.93,96.06L285.55,95.53L285.79,95.77L285.91,95.96L287.02,97.58L287.27,97.43L287.39,97.38L289.48,94.26L289.6,94.07L290.22,93.59L290.34,93.77L290.46,94.07L292.55,96.14L292.67,95.79L293.29,95.62L293.41,95.4L293.53,95.08L294.39,95.55L294.52,95.26L295.5,93.89L295.75,94.34L295.87,94.46L299.06,97.06L299.19,96.94L301.52,92.19L301.64,92.29L302.87,92.78L303,92.76L303.12,92.95L303.49,92.39L303.61,92.32L306.44,90.71L306.56,90.81L306.93,91.21L307.42,90.91L307.54,90.47L308.65,88.55L308.9,89.1L309.02,89.34L310.49,91.82L310.62,91.96L312.46,92.78L312.58,93.07L312.95,92.44L313.2,93.33L313.32,93.93L314.92,97.7L315.04,97.27L316.02,97.54L316.15,88.2L316.51,53.22" style="vector-effect: none; fill: none; stroke: rgb(79, 79, 79); stroke-opacity: 1; stroke-width: 1.5px; opacity: 1;"/></g><g class="points"/><g class="text"/></g><g class="trace scatter tracee8e7c6" style="stroke-miterlimit: 2; opacity: 1;"><g class="fills"/><g class="errorbars"/><g class="lines"><path class="js-line" d="M18.36,122.98L19.59,169L20.82,167.92L34.34,149.22L35.57,149.68L38.02,146.46L39.25,145.48L40.48,145.35L41.71,143.72L44.17,141.44L45.4,140.95L47.86,138.62L49.08,136.29L57.69,122.06L58.92,119.06L63.83,110.81L65.06,108.66L66.29,107.49L67.52,103.93L69.98,99.31L71.21,97.89L72.43,96.73L73.66,97.01L74.89,95.21L76.12,97.02L87.18,106.69L88.41,107.74L93.33,109.45L94.56,94.05" style="vector-effect: none; fill: none; stroke: rgb(79, 79, 79); stroke-opacity: 1; stroke-width: 1.5px; opacity: 1;"/></g><g class="points"/><g class="text"/></g><g class="trace scatter trace53695f" style="stroke-miterlimit: 2; opacity: 1;"><g class="fills"/><g class="errorbars"/><g class="lines"><path class="js-line" d="M128.85,43.12L130.08,92.05L130.2,92.07L131.43,92.98L131.56,93.29L132.54,94.09L132.66,94.61L133.65,96.48L133.77,95.86L133.89,95.27L135.61,91.91L135.73,91.74L139.54,88.47L139.67,88.51L141.51,86.96L141.63,87.2L142.99,86.37L143.11,86.24L145.57,84.62L145.69,84.44L146.92,84.87L147.04,84.75L147.16,84.74L150.24,85.1L150.36,85.17L152.33,84.53L152.45,84.22L153.8,83.96L153.92,83.7L156.63,83.5L156.75,83.66L159.21,82.87L159.33,82.79L162.53,83.66L162.65,83.87L163.63,84.16L163.76,84L164.98,83.49L165.11,83.42L166.09,83L166.21,83.25L167.57,84.17L167.69,84.01L167.81,83.83L169.65,83.18L169.78,83.3L171.25,85.27L171.5,84.97L171.62,84.92L172.48,84.41L172.6,84.56L172.73,84.7L175.18,84.07L175.31,83.73L176.54,83.33L176.66,83.45L177.89,82.57L178.01,82.8L179.24,83.3L179.36,83.66L180.59,85.71L180.71,85.6L181.94,86.64L182.07,86.86L182.93,86.97L183.05,86.78L183.17,86.62L184.77,85.74L184.89,85.68L185.38,85.62L185.63,85.96L185.75,85.96L186.61,84.64L186.74,84.16L187.6,82.57L187.72,82.69L187.84,82.84L190.18,86.84L190.3,87.21L191.16,88.42L191.41,88.19L191.53,88.04L194.36,84.71L194.48,84.72L195.59,84.03L195.71,84.18L195.83,84.29L197.92,86.85L198.04,86.56L198.17,86.19L198.53,85.74L198.9,85.99L199.03,86.25L199.15,86.16L199.4,86.8L199.52,87.1L200.38,87.24L200.5,87.28L201.61,87.49L201.73,87.46L204.06,84.36L204.19,84.63L204.31,84.8L204.93,83.92L205.05,84.28L205.17,84.87L206.65,88.49L206.77,88.66L206.89,88.39L207.14,88.75L207.26,89.87L208.12,91.09L208.24,91.13L209.6,92.2L209.72,92.28L211.32,90.37L211.44,90.08L216.35,81.08L216.48,81.08L217.46,81.91L217.58,82.04L220.16,83.47L220.29,83.67L224.34,89.62L224.47,89.69L227.05,90.51L227.17,90.27L228.89,89.65L229.01,89.73L230.86,90.71L230.98,90.63L232.45,89.4L232.58,89.52L236.75,90.98L236.88,90.9L238.35,90.84L238.48,90.99L239.83,88.89L240.07,89.01L240.2,89.08L241.92,88.35L242.04,88.04L244.62,88.3L244.74,88.18L245.85,88.26L245.97,88.45L247.08,86.95L247.2,86.57L248.92,84.8L249.04,84.83L252.61,85.31L252.73,85.47L255.19,86.1L255.31,85.94L260.84,87.06L260.97,86.96L262.19,87.04L262.32,86.95L263.42,87.31L263.55,87.38L266,87.45L266.13,87.35L266.86,87.84L266.99,87.94L268.71,89.71L268.83,89.72L270.55,90.07L270.67,89.84L272.27,89.97L272.39,89.98L275.84,90.65L275.96,90.74L277.93,91.41L278.05,91.25L279.52,90.86L279.65,90.87L280.63,90.98L280.75,91.15L284.19,91.9L284.32,91.93L286.53,92.1L286.65,91.81L287.51,91.7L287.63,91.65L288.86,90.05L289.11,90.48L289.23,90.45L291.44,91.6L291.57,91.45L292.43,90.87L292.55,90.75L293.78,90.02L293.9,90.11L295.01,89.97L295.13,89.37L296.61,83.64L296.98,83.85L297.1,83.93L297.71,85.51L297.84,85.86L299.68,89.5L299.8,89.48L300.05,89.2L300.29,89.78L300.42,90.09L301.77,92.08L301.89,92L302.01,91.88L304.23,92.24L304.35,92.42L305.33,92.99L305.45,92.85L305.58,92.55L307.18,91.84L307.3,91.67L309.88,88.47L310,88.55L310.62,89.05L310.74,89.19L312.09,88.81L312.21,88.6L314.18,86.47L314.3,86.54L314.43,86.65L314.79,86.1L314.92,85.92L316.02,85.23L316.15,77.98L316.52,49.95" style="vector-effect: none; fill: none; stroke: rgb(79, 79, 79); stroke-opacity: 1; stroke-width: 1.5px; opacity: 1;"/></g><g class="points"/><g class="text"/></g><g class="trace scatter trace32bd99" style="stroke-miterlimit: 2; opacity: 1;"><g class="fills"/><g class="errorbars"/><g class="lines"><path class="js-line" d="M18.36,122.68L19.59,169.29L20.82,168.16L22.05,167.54L23.28,165.44L25.73,160.84L26.96,159.56L29.42,156.89L30.65,156.7L33.11,152.38L34.34,152.6L35.57,151.65L36.8,147.77L40.48,145.55L41.71,143.59L42.94,142.9L44.17,140.75L45.4,141.29L46.63,140.76L47.86,142.94L49.08,141.47L51.54,136.41L52.77,136.3L55.23,133.96L56.46,131.32L60.15,125.02L61.37,126.13L66.29,113.59L67.52,110.9L68.75,107.88L69.98,107.13L73.66,97.34L74.89,95.86L78.58,98.46L79.81,100.43L81.04,100.86L82.27,102.16L84.72,101.1L85.95,101.06L90.87,107.16L92.1,107.83L93.33,107.06L94.56,92.85" style="vector-effect: none; fill: none; stroke: rgb(79, 79, 79); stroke-opacity: 1; stroke-width: 1.5px; opacity: 1;"/></g><g class="points"/><g class="text"/></g><g class="trace scatter traced20c76" style="stroke-miterlimit: 2; opacity: 1;"><g class="fills"/><g class="errorbars"/><g class="lines"><path class="js-line" d="M128.85,39.47L129.47,81.37L129.96,76.19L130.08,76.58L133.4,87.14L133.52,86.01L135.24,72.84L135.37,72.89L135.49,72.73L137.58,71.67L137.7,71.35L139.3,70.05L139.42,69.91L140.77,69.62L140.9,69.6L142,69.34L142.13,69.45L146.06,73.76L146.18,73.7L148.64,74.06L148.76,74.28L151.34,75.73L151.47,75.53L154.91,75.17L155.03,75.22L156.75,75.95L156.87,76.02L159.09,77.22L159.21,77.16L160.19,76.67L160.31,76.54L161.42,76.73L161.54,76.8L162.4,77.27L162.53,77.29L164.12,77.99L164.25,78.16L165.48,79.05L165.6,78.91L166.83,79.4L166.95,79.52L167.81,79.89L167.93,79.78L169.04,80.55L169.16,80.71L172.24,83.33L172.36,83.37L174.08,82.73L174.2,82.65L174.94,83.11L175.06,83.32L177.03,85.08L177.15,85.06L178.63,85.18L178.75,85.29L179.98,85.52L180.1,85.55L181.33,83.15L181.45,82.92L182.56,82.85L182.68,82.98L183.66,84.12L183.79,84.37L185.02,87.33L185.14,87.71L187.11,89.69L187.23,89.98L188.09,90.31L188.21,90.15L188.33,89.98L190.79,91.01L190.92,90.91L192.02,89.66L192.39,90.08L192.51,90.2L193.25,90.63L193.37,90.42L193.5,90.22L194.23,89.58L194.48,90.14L194.6,90.4L195.46,91.3L195.59,90.98L195.71,90.7L199.27,86.88L199.4,86.85L200.5,86.97L200.62,86.93L201.73,87.26L201.85,87.38L203.82,87.85L203.94,87.78L206.4,91.41L206.52,91.37L208.49,89.17L208.61,88.92L208.86,88.7L209.1,89.44L209.23,89.69L210.7,91.9L210.82,91.66L212.42,91.17L212.55,91.1L213.77,90.23L213.9,90.2L215.13,89.58L215.25,89.68L216.6,92.07L216.85,91.81L216.97,91.6L218.81,90.42L218.94,90.56L220.17,90.09L220.29,90.03L222.5,89.34L222.62,89.97L223.73,90.44L223.85,89.93L225.08,89.5L225.2,89.54L226.56,89.25L226.68,89.33L228.28,88.85L228.4,88.7L230.12,89.22L230.24,89.06L231.59,88.05L231.72,87.98L233.68,87.05L233.81,87.05L234.79,87.12L234.91,87.04L236.39,87.87L236.51,87.61L236.63,87.38L237.74,86.81L237.86,86.86L239.46,87.48L239.58,87.46L242.41,87.91L242.53,87.64L243.88,87.11L244.01,87.22L245.85,86.07L245.97,85.71L247.94,84.45L248.06,84.64L248.68,86.2L248.8,86.92L249.78,89.05L249.91,88.67L250.03,88.33L253.1,86.54L253.22,86.7L254.21,86.59L254.33,86.83L254.45,86.91L255.44,87.07L255.56,87.06L256.66,88.18L257.03,87.53L257.16,87.25L258.02,86.6L258.26,86.99L258.39,87.33L259.86,88.72L259.98,88.55L261.58,88.95L261.7,88.81L263.06,87.96L263.18,87.99L266.5,90.01L266.62,89.68L268.22,86.4L268.34,86.54L269.45,85.92L269.57,85.74L270.8,85.18L270.92,85.05L271.9,85.13L272.03,85.11L273.01,84.88L273.13,85.15L273.26,85.15L274.73,85.61L274.85,85.51L275.35,84.94L275.47,84.65L276.7,85.08L276.82,85.13L279.28,84.6L279.4,84.45L281.24,83.06L281.37,83.42L281.49,83.63L282.47,84.14L282.6,83.82L283.7,83.36L283.82,83.51L284.56,83.05L284.68,82.8L286.04,81.64L286.16,81.72L288,82.22L288.13,81.98L289.35,80.62L289.48,80.65L290.95,80.05L291.08,80.26L292.92,80.07L293.04,80.1L294.03,80.01L294.15,79.7L295.01,78L295.5,78.51L295.62,78.82L296.97,79.29L297.1,80.33L298.2,90.25L298.82,89.63L298.94,90.21L299.68,91.94L299.92,91.08L300.05,90.51L300.54,87.95L300.91,88.63L301.03,89.49L302.01,95.97L302.26,95.52L302.38,95.41L303,94.86L303.24,95.32L303.37,95.52L305.21,102.98L305.33,102.18L305.7,99.69L305.82,98.78L306.44,95.99L306.93,96.99L307.05,97.19L308.9,94.8L309.02,94.67L309.88,96.35L310.12,95.93L310.25,95.8L311.48,93.52L311.6,93.71L311.72,93.91L312.83,94.18L312.95,94.01L313.81,94.68L313.93,94.57L314.06,94.29L315.29,92.24L315.66,92.7L315.78,92.74L316.02,92.86L316.15,85.69L316.52,58.79" style="vector-effect: none; fill: none; stroke: rgb(79, 79, 79); stroke-opacity: 1; stroke-width: 1.5px; opacity: 1;"/></g><g class="points"/><g class="text"/></g><g class="trace scatter trace3efe44" style="stroke-miterlimit: 2; opacity: 1;"><g class="fills"/><g class="errorbars"/><g class="lines"><path class="js-line" d="M18.36,159.65L28.09,155.17L28.39,155L36.06,149.95L36.35,149.73L43.43,143.36L43.72,143.05L50.21,135.27L50.51,134.86L57.59,123.61L57.88,123.08L64.96,108.58L65.26,107.93L70.86,96.98L71.15,96.68L73.22,95.82L73.51,95.81L81.48,96.28L81.77,96.29L113.63,97.67L113.92,97.68L154.03,98.27L154.33,98.27L254.61,97.55L254.9,97.54L300.03,96.79L300.32,96.78L313.01,96.54" style="vector-effect: none; fill: none; stroke: rgb(79, 79, 79); stroke-opacity: 1; stroke-dasharray: 9px, 9px; stroke-width: 1.5px; opacity: 1;"/></g><g class="points"/><g class="text"/></g><g class="trace scatter trace740411" style="stroke-miterlimit: 2; opacity: 1;"><g class="fills"/><g class="errorbars"/><g class="lines"><path class="js-line" d="M18.36,166.33L56.41,162.96L56.7,162.93L77.05,160.96L77.35,160.94L110.68,159.05L110.97,159.03L193.85,152.8L194.14,152.77L221.57,150.19L221.87,150.16L295.9,141.78L296.19,141.74L313.01,139.55" style="vector-effect: none; fill: none; stroke: rgb(217, 95, 2); stroke-opacity: 1; stroke-dasharray: 9px, 9px; stroke-width: 1.5px; opacity: 1;"/></g><g class="points"/><g class="text"/></g><g class="trace scatter trace226a34" style="stroke-miterlimit: 2; opacity: 1;"><g class="fills"/><g class="errorbars"/><g class="lines"><path class="js-line" d="M18.36,166.33L28.39,162.45L28.68,162.31L37.24,157.22L37.53,157.01L44.9,150.68L45.2,150.38L51.98,142.36L52.28,141.96L59.36,130.69L59.65,130.15L66.73,115.87L67.03,115.25L70.86,108.66L71.15,108.39L73.22,107.68L73.51,107.68L90.33,109.55L90.62,109.58L154.62,115.26L154.92,115.28L211.55,119.93L211.84,119.96L243.99,122.85L244.28,122.88L313.01,130.01" style="vector-effect: none; fill: none; stroke: rgb(117, 112, 179); stroke-opacity: 1; stroke-dasharray: 9px, 9px; stroke-width: 1.5px; opacity: 1;"/></g><g class="points"/><g class="text"/></g></g></g></g><path class="xlines-above crisp" d="M0,0" style="fill: none;"/><path class="ylines-above crisp" d="M0,0" style="fill: none;"/><g class="overlines-above"/><g class="xaxislayer-above"/><g class="yaxislayer-above"><g class="ytick"><text text-anchor="end" x="49" y="4.8999999999999995" transform="translate(0,193.02)" style="font-family: 'Open Sans', verdana, arial, sans-serif; font-size: 14px; fill: rgb(0, 0, 0); fill-opacity: 1; white-space: pre; opacity: 1;">0</text></g><g class="ytick"><text text-anchor="end" x="49" y="4.8999999999999995" style="font-family: 'Open Sans', verdana, arial, sans-serif; font-size: 14px; fill: rgb(0, 0, 0); fill-opacity: 1; white-space: pre; opacity: 1;" transform="translate(0,141.6)">0.2</text></g><g class="ytick"><text text-anchor="end" x="49" y="4.8999999999999995" style="font-family: 'Open Sans', verdana, arial, sans-serif; font-size: 14px; fill: rgb(0, 0, 0); fill-opacity: 1; white-space: pre; opacity: 1;" transform="translate(0,90.18)">0.4</text></g><g class="ytick"><text text-anchor="end" x="49" y="4.8999999999999995" style="font-family: 'Open Sans', verdana, arial, sans-serif; font-size: 14px; fill: rgb(0, 0, 0); fill-opacity: 1; white-space: pre; opacity: 1;" transform="translate(0,38.75)">0.6</text></g></g><g class="overaxes-above"/></g><g class="subplot x2y2"><g class="layer-subplot"><g class="shapelayer"/><g class="imagelayer"/></g><g class="minor-gridlayer"><g class="x2"/><g class="y2"/></g><g class="gridlayer"><g class="x2"><path class="x2grid crisp" transform="translate(142.01999999999998,0)" d="M0,212.61v181.39" style="stroke: rgb(0, 0, 0); stroke-opacity: 1; stroke-width: 1px;"/><path class="x2grid crisp" transform="translate(215.68,0)" d="M0,212.61v181.39" style="stroke: rgb(0, 0, 0); stroke-opacity: 1; stroke-width: 1px;"/><path class="x2grid crisp" transform="translate(289.34000000000003,0)" d="M0,212.61v181.39" style="stroke: rgb(0, 0, 0); stroke-opacity: 1; stroke-width: 1px;"/><path class="x2grid crisp" transform="translate(363.01,0)" d="M0,212.61v181.39" style="stroke: rgb(0, 0, 0); stroke-opacity: 1; stroke-width: 1px;"/></g><g class="y2"><path class="y2grid crisp" transform="translate(0,375.47)" d="M50,0h324" style="stroke: rgb(0, 0, 0); stroke-opacity: 1; stroke-width: 1px;"/><path class="y2grid crisp" transform="translate(0,346.1)" d="M50,0h324" style="stroke: rgb(0, 0, 0); stroke-opacity: 1; stroke-width: 1px;"/><path class="y2grid crisp" transform="translate(0,307.27)" d="M50,0h324" style="stroke: rgb(0, 0, 0); stroke-opacity: 1; stroke-width: 1px;"/><path class="y2grid crisp" transform="translate(0,277.90000000000003)" d="M50,0h324" style="stroke: rgb(0, 0, 0); stroke-opacity: 1; stroke-width: 1px;"/><path class="y2grid crisp" transform="translate(0,248.52)" d="M50,0h324" style="stroke: rgb(0, 0, 0); stroke-opacity: 1; stroke-width: 1px;"/></g></g><g class="zerolinelayer"><path class="x2zl zl crisp" transform="translate(68.36,0)" d="M0,212.61v181.39" style="stroke: rgb(0, 0, 0); stroke-opacity: 1; stroke-width: 1px;"/></g><g class="layer-between"><g class="shapelayer"/><g class="imagelayer"/></g><path class="xlines-below"/><path class="ylines-below"/><g class="overlines-below"/><g class="xaxislayer-below"/><g class="yaxislayer-below"/><g class="overaxes-below"/><g class="overplot"><g class="x2y2" transform="translate(50,212.61)" clip-path="url(#clip21513ex2y2plot)"><g class="scatterlayer mlayer"><g class="trace scatter tracefde443" style="stroke-miterlimit: 2; opacity: 1;"><g class="fills"/><g class="errorbars"><g class="errorbar"><path class="yerror" d="M14.36,97.84h8m-4,0V103.82m-4,0h8" style="vector-effect: none; stroke-width: 1.5px; stroke: rgb(117, 112, 179); stroke-opacity: 1;"/></g><g class="errorbar"><path class="yerror" d="M71.82,22.87h8m-4,0V54.86m-4,0h8" style="vector-effect: none; stroke-width: 1.5px; stroke: rgb(117, 112, 179); stroke-opacity: 1;"/></g><g class="errorbar"><path class="yerror" d="M124.85,99.13h8m-4,0V118.72m-4,0h8" style="vector-effect: none; stroke-width: 1.5px; stroke: rgb(117, 112, 179); stroke-opacity: 1;"/></g><g class="errorbar"><path class="yerror" d="M198.51,41.04h8m-4,0V58.95m-4,0h8" style="vector-effect: none; stroke-width: 1.5px; stroke: rgb(117, 112, 179); stroke-opacity: 1;"/></g><g class="errorbar"><path class="yerror" d="M301.64,74.74h8m-4,0V104.12m-4,0h8" style="vector-effect: none; stroke-width: 1.5px; stroke: rgb(117, 112, 179); stroke-opacity: 1;"/></g></g><g class="lines"><path class="js-line" d="M18.36,100.72L75.82,35.91L128.85,107.8L202.51,49.06L305.64,86.93" style="vector-effect: none; fill: none; stroke: rgb(117, 112, 179); stroke-opacity: 1; stroke-width: 1.5px; opacity: 1;"/></g><g class="points"><path class="point" transform="translate(18.36,100.72)" d="M0.75,0A0.75,0.75 0 1,1 0,-0.75A0.75,0.75 0 0,1 0.75,0Z" style="opacity: 1; stroke-width: 0px; fill: rgb(117, 112, 179); fill-opacity: 1;"/><path class="point" transform="translate(75.82,35.91)" d="M0.75,0A0.75,0.75 0 1,1 0,-0.75A0.75,0.75 0 0,1 0.75,0Z" style="opacity: 1; stroke-width: 0px; fill: rgb(117, 112, 179); fill-opacity: 1;"/><path class="point" transform="translate(128.85,107.8)" d="M0.75,0A0.75,0.75 0 1,1 0,-0.75A0.75,0.75 0 0,1 0.75,0Z" style="opacity: 1; stroke-width: 0px; fill: rgb(117, 112, 179); fill-opacity: 1;"/><path class="point" transform="translate(202.51,49.06)" d="M0.75,0A0.75,0.75 0 1,1 0,-0.75A0.75,0.75 0 0,1 0.75,0Z" style="opacity: 1; stroke-width: 0px; fill: rgb(117, 112, 179); fill-opacity: 1;"/><path class="point" transform="translate(305.64,86.93)" d="M0.75,0A0.75,0.75 0 1,1 0,-0.75A0.75,0.75 0 0,1 0.75,0Z" style="opacity: 1; stroke-width: 0px; fill: rgb(117, 112, 179); fill-opacity: 1;"/></g><g class="text"/></g><g class="trace scatter trace3140de" style="stroke-miterlimit: 2; opacity: 1;"><g class="fills"/><g class="errorbars"><g class="errorbar"><path class="yerror" d="M14.36,155.14h8m-4,0V172.32m-4,0h8" style="vector-effect: none; stroke-width: 1.5px; stroke: rgb(217, 95, 2); stroke-opacity: 1;"/></g><g class="errorbar"><path class="yerror" d="M71.82,25.25h8m-4,0V36.74m-4,0h8" style="vector-effect: none; stroke-width: 1.5px; stroke: rgb(217, 95, 2); stroke-opacity: 1;"/></g><g class="errorbar"><path class="yerror" d="M124.85,46.11h8m-4,0V66.97m-4,0h8" style="vector-effect: none; stroke-width: 1.5px; stroke: rgb(217, 95, 2); stroke-opacity: 1;"/></g><g class="errorbar"><path class="yerror" d="M198.51,15.54h8m-4,0V63.96m-4,0h8" style="vector-effect: none; stroke-width: 1.5px; stroke: rgb(217, 95, 2); stroke-opacity: 1;"/></g><g class="errorbar"><path class="yerror" d="M301.64,14.62h8m-4,0V66.95m-4,0h8" style="vector-effect: none; stroke-width: 1.5px; stroke: rgb(217, 95, 2); stroke-opacity: 1;"/></g></g><g class="lines"><path class="js-line" d="M18.36,162.86L75.82,30.61L128.85,55.27L202.51,33.18L305.64,33.18" style="vector-effect: none; fill: none; stroke: rgb(217, 95, 2); stroke-opacity: 1; stroke-width: 1.5px; opacity: 1;"/></g><g class="points"><path class="point" transform="translate(18.36,162.86)" d="M0.75,0A0.75,0.75 0 1,1 0,-0.75A0.75,0.75 0 0,1 0.75,0Z" style="opacity: 1; stroke-width: 0px; fill: rgb(217, 95, 2); fill-opacity: 1;"/><path class="point" transform="translate(75.82,30.61)" d="M0.75,0A0.75,0.75 0 1,1 0,-0.75A0.75,0.75 0 0,1 0.75,0Z" style="opacity: 1; stroke-width: 0px; fill: rgb(217, 95, 2); fill-opacity: 1;"/><path class="point" transform="translate(128.85,55.27)" d="M0.75,0A0.75,0.75 0 1,1 0,-0.75A0.75,0.75 0 0,1 0.75,0Z" style="opacity: 1; stroke-width: 0px; fill: rgb(217, 95, 2); fill-opacity: 1;"/><path class="point" transform="translate(202.51,33.18)" d="M0.75,0A0.75,0.75 0 1,1 0,-0.75A0.75,0.75 0 0,1 0.75,0Z" style="opacity: 1; stroke-width: 0px; fill: rgb(217, 95, 2); fill-opacity: 1;"/><path class="point" transform="translate(305.64,33.18)" d="M0.75,0A0.75,0.75 0 1,1 0,-0.75A0.75,0.75 0 0,1 0.75,0Z" style="opacity: 1; stroke-width: 0px; fill: rgb(217, 95, 2); fill-opacity: 1;"/></g><g class="text"/></g><g class="trace scatter trace1d6838" style="stroke-miterlimit: 2; opacity: 1;"><g class="fills"/><g class="errorbars"><g class="errorbar"><path class="yerror" d="M14.36,97.84h8m-4,0V103.82m-4,0h8" style="vector-effect: none; stroke-width: 1.5px; stroke: rgb(117, 112, 179); stroke-opacity: 1;"/></g><g class="errorbar"><path class="yerror" d="M71.82,41.04h8m-4,0V58.95m-4,0h8" style="vector-effect: none; stroke-width: 1.5px; stroke: rgb(117, 112, 179); stroke-opacity: 1;"/></g><g class="errorbar"><path class="yerror" d="M124.85,57.56h8m-4,0V74.74m-4,0h8" style="vector-effect: none; stroke-width: 1.5px; stroke: rgb(117, 112, 179); stroke-opacity: 1;"/></g><g class="errorbar"><path class="yerror" d="M198.51,41.66h8m-4,0V63.07m-4,0h8" style="vector-effect: none; stroke-width: 1.5px; stroke: rgb(117, 112, 179); stroke-opacity: 1;"/></g><g class="errorbar"><path class="yerror" d="M301.64,58.84h8m-4,0V80.26m-4,0h8" style="vector-effect: none; stroke-width: 1.5px; stroke: rgb(117, 112, 179); stroke-opacity: 1;"/></g></g><g class="lines"><path class="js-line" d="M18.36,100.72L75.82,49.06L128.85,65.29L202.51,51.03L305.64,68.21" style="vector-effect: none; fill: none; stroke: rgb(117, 112, 179); stroke-opacity: 1; stroke-width: 1.5px; opacity: 1;"/></g><g class="points"><path class="point" transform="translate(18.36,100.72)" d="M0.75,0A0.75,0.75 0 1,1 0,-0.75A0.75,0.75 0 0,1 0.75,0Z" style="opacity: 1; stroke-width: 0px; fill: rgb(117, 112, 179); fill-opacity: 1;"/><path class="point" transform="translate(75.82,49.06)" d="M0.75,0A0.75,0.75 0 1,1 0,-0.75A0.75,0.75 0 0,1 0.75,0Z" style="opacity: 1; stroke-width: 0px; fill: rgb(117, 112, 179); fill-opacity: 1;"/><path class="point" transform="translate(128.85,65.29)" d="M0.75,0A0.75,0.75 0 1,1 0,-0.75A0.75,0.75 0 0,1 0.75,0Z" style="opacity: 1; stroke-width: 0px; fill: rgb(117, 112, 179); fill-opacity: 1;"/><path class="point" transform="translate(202.51,51.03)" d="M0.75,0A0.75,0.75 0 1,1 0,-0.75A0.75,0.75 0 0,1 0.75,0Z" style="opacity: 1; stroke-width: 0px; fill: rgb(117, 112, 179); fill-opacity: 1;"/><path class="point" transform="translate(305.64,68.21)" d="M0.75,0A0.75,0.75 0 1,1 0,-0.75A0.75,0.75 0 0,1 0.75,0Z" style="opacity: 1; stroke-width: 0px; fill: rgb(117, 112, 179); fill-opacity: 1;"/></g><g class="text"/></g><g class="trace scatter tracee9009f" style="stroke-miterlimit: 2; opacity: 1;"><g class="fills"/><g class="errorbars"><g class="errorbar"><path class="yerror" d="M14.36,155.14h8m-4,0V172.32m-4,0h8" style="vector-effect: none; stroke-width: 1.5px; stroke: rgb(217, 95, 2); stroke-opacity: 1;"/></g><g class="errorbar"><path class="yerror" d="M71.82,19.86h8m-4,0V48.71m-4,0h8" style="vector-effect: none; stroke-width: 1.5px; stroke: rgb(217, 95, 2); stroke-opacity: 1;"/></g><g class="errorbar"><path class="yerror" d="M124.85,9.07h8m-4,0V46.3m-4,0h8" style="vector-effect: none; stroke-width: 1.5px; stroke: rgb(217, 95, 2); stroke-opacity: 1;"/></g><g class="errorbar"><path class="yerror" d="M198.51,22.47h8m-4,0V34.79m-4,0h8" style="vector-effect: none; stroke-width: 1.5px; stroke: rgb(217, 95, 2); stroke-opacity: 1;"/></g><g class="errorbar"><path class="yerror" d="M301.64,29.46h8m-4,0V55.13m-4,0h8" style="vector-effect: none; stroke-width: 1.5px; stroke: rgb(217, 95, 2); stroke-opacity: 1;"/></g></g><g class="lines"><path class="js-line" d="M18.36,162.86L75.82,31.87L128.85,23.72L202.51,28.19L305.64,40.38" style="vector-effect: none; fill: none; stroke: rgb(217, 95, 2); stroke-opacity: 1; stroke-width: 1.5px; opacity: 1;"/></g><g class="points"><path class="point" transform="translate(18.36,162.86)" d="M0.75,0A0.75,0.75 0 1,1 0,-0.75A0.75,0.75 0 0,1 0.75,0Z" style="opacity: 1; stroke-width: 0px; fill: rgb(217, 95, 2); fill-opacity: 1;"/><path class="point" transform="translate(75.82,31.87)" d="M0.75,0A0.75,0.75 0 1,1 0,-0.75A0.75,0.75 0 0,1 0.75,0Z" style="opacity: 1; stroke-width: 0px; fill: rgb(217, 95, 2); fill-opacity: 1;"/><path class="point" transform="translate(128.85,23.72)" d="M0.75,0A0.75,0.75 0 1,1 0,-0.75A0.75,0.75 0 0,1 0.75,0Z" style="opacity: 1; stroke-width: 0px; fill: rgb(217, 95, 2); fill-opacity: 1;"/><path class="point" transform="translate(202.51,28.19)" d="M0.75,0A0.75,0.75 0 1,1 0,-0.75A0.75,0.75 0 0,1 0.75,0Z" style="opacity: 1; stroke-width: 0px; fill: rgb(217, 95, 2); fill-opacity: 1;"/><path class="point" transform="translate(305.64,40.38)" d="M0.75,0A0.75,0.75 0 1,1 0,-0.75A0.75,0.75 0 0,1 0.75,0Z" style="opacity: 1; stroke-width: 0px; fill: rgb(217, 95, 2); fill-opacity: 1;"/></g><g class="text"/></g><g class="trace scatter trace30222b" style="stroke-miterlimit: 2; opacity: 1;"><g class="fills"/><g class="errorbars"><g class="errorbar"><path class="yerror" d="M14.36,97.84h8m-4,0V103.82m-4,0h8" style="vector-effect: none; stroke-width: 1.5px; stroke: rgb(117, 112, 179); stroke-opacity: 1;"/></g><g class="errorbar"><path class="yerror" d="M71.82,24.79h8m-4,0V40.38m-4,0h8" style="vector-effect: none; stroke-width: 1.5px; stroke: rgb(117, 112, 179); stroke-opacity: 1;"/></g><g class="errorbar"><path class="yerror" d="M124.85,38.25h8m-4,0V94.06m-4,0h8" style="vector-effect: none; stroke-width: 1.5px; stroke: rgb(117, 112, 179); stroke-opacity: 1;"/></g><g class="errorbar"><path class="yerror" d="M198.51,46.33h8m-4,0V61.16m-4,0h8" style="vector-effect: none; stroke-width: 1.5px; stroke: rgb(117, 112, 179); stroke-opacity: 1;"/></g><g class="errorbar"><path class="yerror" d="M301.64,41.04h8m-4,0V58.95m-4,0h8" style="vector-effect: none; stroke-width: 1.5px; stroke: rgb(117, 112, 179); stroke-opacity: 1;"/></g></g><g class="lines"><path class="js-line" d="M18.36,100.72L75.82,31.87L128.85,57.56L202.51,53.1L305.64,49.06" style="vector-effect: none; fill: none; stroke: rgb(117, 112, 179); stroke-opacity: 1; stroke-width: 1.5px; opacity: 1;"/></g><g class="points"><path class="point" transform="translate(18.36,100.72)" d="M0.75,0A0.75,0.75 0 1,1 0,-0.75A0.75,0.75 0 0,1 0.75,0Z" style="opacity: 1; stroke-width: 0px; fill: rgb(117, 112, 179); fill-opacity: 1;"/><path class="point" transform="translate(75.82,31.87)" d="M0.75,0A0.75,0.75 0 1,1 0,-0.75A0.75,0.75 0 0,1 0.75,0Z" style="opacity: 1; stroke-width: 0px; fill: rgb(117, 112, 179); fill-opacity: 1;"/><path class="point" transform="translate(128.85,57.56)" d="M0.75,0A0.75,0.75 0 1,1 0,-0.75A0.75,0.75 0 0,1 0.75,0Z" style="opacity: 1; stroke-width: 0px; fill: rgb(117, 112, 179); fill-opacity: 1;"/><path class="point" transform="translate(202.51,53.1)" d="M0.75,0A0.75,0.75 0 1,1 0,-0.75A0.75,0.75 0 0,1 0.75,0Z" style="opacity: 1; stroke-width: 0px; fill: rgb(117, 112, 179); fill-opacity: 1;"/><path class="point" transform="translate(305.64,49.06)" d="M0.75,0A0.75,0.75 0 1,1 0,-0.75A0.75,0.75 0 0,1 0.75,0Z" style="opacity: 1; stroke-width: 0px; fill: rgb(117, 112, 179); fill-opacity: 1;"/></g><g class="text"/></g><g class="trace scatter tracead4abe" style="stroke-miterlimit: 2; opacity: 1;"><g class="fills"/><g class="errorbars"><g class="errorbar"><path class="yerror" d="M14.36,155.14h8m-4,0V172.32m-4,0h8" style="vector-effect: none; stroke-width: 1.5px; stroke: rgb(217, 95, 2); stroke-opacity: 1;"/></g><g class="errorbar"><path class="yerror" d="M71.82,29.46h8m-4,0V55.13m-4,0h8" style="vector-effect: none; stroke-width: 1.5px; stroke: rgb(217, 95, 2); stroke-opacity: 1;"/></g><g class="errorbar"><path class="yerror" d="M124.85,44.1h8m-4,0V50.49m-4,0h8" style="vector-effect: none; stroke-width: 1.5px; stroke: rgb(217, 95, 2); stroke-opacity: 1;"/></g><g class="errorbar"><path class="yerror" d="M198.51,24.79h8m-4,0V65.29m-4,0h8" style="vector-effect: none; stroke-width: 1.5px; stroke: rgb(217, 95, 2); stroke-opacity: 1;"/></g><g class="errorbar"><path class="yerror" d="M301.64,34.19h8m-4,0V55.82m-4,0h8" style="vector-effect: none; stroke-width: 1.5px; stroke: rgb(217, 95, 2); stroke-opacity: 1;"/></g></g><g class="lines"><path class="js-line" d="M18.36,162.86L75.82,40.38L128.85,47.17L202.51,40.38L305.64,43.64" style="vector-effect: none; fill: none; stroke: rgb(217, 95, 2); stroke-opacity: 1; stroke-width: 1.5px; opacity: 1;"/></g><g class="points"><path class="point" transform="translate(18.36,162.86)" d="M0.75,0A0.75,0.75 0 1,1 0,-0.75A0.75,0.75 0 0,1 0.75,0Z" style="opacity: 1; stroke-width: 0px; fill: rgb(217, 95, 2); fill-opacity: 1;"/><path class="point" transform="translate(75.82,40.38)" d="M0.75,0A0.75,0.75 0 1,1 0,-0.75A0.75,0.75 0 0,1 0.75,0Z" style="opacity: 1; stroke-width: 0px; fill: rgb(217, 95, 2); fill-opacity: 1;"/><path class="point" transform="translate(128.85,47.17)" d="M0.75,0A0.75,0.75 0 1,1 0,-0.75A0.75,0.75 0 0,1 0.75,0Z" style="opacity: 1; stroke-width: 0px; fill: rgb(217, 95, 2); fill-opacity: 1;"/><path class="point" transform="translate(202.51,40.38)" d="M0.75,0A0.75,0.75 0 1,1 0,-0.75A0.75,0.75 0 0,1 0.75,0Z" style="opacity: 1; stroke-width: 0px; fill: rgb(217, 95, 2); fill-opacity: 1;"/><path class="point" transform="translate(305.64,43.64)" d="M0.75,0A0.75,0.75 0 1,1 0,-0.75A0.75,0.75 0 0,1 0.75,0Z" style="opacity: 1; stroke-width: 0px; fill: rgb(217, 95, 2); fill-opacity: 1;"/></g><g class="text"/></g></g></g></g><path class="xlines-above crisp" d="M0,0" style="fill: none;"/><path class="ylines-above crisp" d="M0,0" style="fill: none;"/><g class="overlines-above"/><g class="xaxislayer-above"><g class="x2tick"><text text-anchor="middle" x="0" y="409" transform="translate(68.36,0)" style="font-family: 'Open Sans', verdana, arial, sans-serif; font-size: 14px; fill: rgb(0, 0, 0); fill-opacity: 1; white-space: pre; opacity: 1;">0</text></g><g class="x2tick"><text text-anchor="middle" x="0" y="409" style="font-family: 'Open Sans', verdana, arial, sans-serif; font-size: 14px; fill: rgb(0, 0, 0); fill-opacity: 1; white-space: pre; opacity: 1;" transform="translate(142.01999999999998,0)">10</text></g><g class="x2tick"><text text-anchor="middle" x="0" y="409" style="font-family: 'Open Sans', verdana, arial, sans-serif; font-size: 14px; fill: rgb(0, 0, 0); fill-opacity: 1; white-space: pre; opacity: 1;" transform="translate(215.68,0)">20</text></g><g class="x2tick"><text text-anchor="middle" x="0" y="409" style="font-family: 'Open Sans', verdana, arial, sans-serif; font-size: 14px; fill: rgb(0, 0, 0); fill-opacity: 1; white-space: pre; opacity: 1;" transform="translate(289.34000000000003,0)">30</text></g><g class="x2tick"><text text-anchor="middle" x="0" y="409" style="font-family: 'Open Sans', verdana, arial, sans-serif; font-size: 14px; fill: rgb(0, 0, 0); fill-opacity: 1; white-space: pre; opacity: 1;" transform="translate(363.01,0)">40</text></g></g><g class="yaxislayer-above"><g class="y2tick"><text text-anchor="end" x="49" y="4.8999999999999995" transform="translate(0,375.47)" style="font-family: 'Open Sans', verdana, arial, sans-serif; font-size: 14px; fill: rgb(0, 0, 0); fill-opacity: 1; white-space: pre; opacity: 1;">10M</text></g><g class="y2tick"><text text-anchor="end" x="49" y="3.675" style="font-family: 'Open Sans', verdana, arial, sans-serif; font-size: 10.5px; fill: rgb(0, 0, 0); fill-opacity: 1; white-space: pre; opacity: 1;" transform="translate(0,346.1)">2</text></g><g class="y2tick"><text text-anchor="end" x="49" y="3.675" style="font-family: 'Open Sans', verdana, arial, sans-serif; font-size: 10.5px; fill: rgb(0, 0, 0); fill-opacity: 1; white-space: pre; opacity: 1;" transform="translate(0,307.27)">5</text></g><g class="y2tick"><text text-anchor="end" x="49" y="4.8999999999999995" style="font-family: 'Open Sans', verdana, arial, sans-serif; font-size: 14px; fill: rgb(0, 0, 0); fill-opacity: 1; white-space: pre; opacity: 1;" transform="translate(0,277.90000000000003)">100M</text></g><g class="y2tick"><text text-anchor="end" x="49" y="3.675" style="font-family: 'Open Sans', verdana, arial, sans-serif; font-size: 10.5px; fill: rgb(0, 0, 0); fill-opacity: 1; white-space: pre; opacity: 1;" transform="translate(0,248.52)">2</text></g></g><g class="overaxes-above"/></g></g><g class="polarlayer"/><g class="smithlayer"/><g class="ternarylayer"/><g class="geolayer"/><g class="funnelarealayer"/><g class="pielayer"/><g class="iciclelayer"/><g class="treemaplayer"/><g class="sunburstlayer"/><g class="glimages"/><defs id="topdefs-21513e"><g class="clips"/><clipPath id="legend21513e"><rect width="120" height="95" x="0" y="0"/></clipPath><clipPath id="legend221513e"><rect width="64" height="53" x="0" y="0"/></clipPath></defs><g class="layer-above"><g class="imagelayer"/><g class="shapelayer"/></g><g class="infolayer"><g class="legend" pointer-events="all" transform="translate(380,20)"><rect class="bg" shape-rendering="crispEdges" style="stroke: rgb(68, 68, 68); stroke-opacity: 1; fill: rgb(153, 153, 153); fill-opacity: 1; stroke-width: 0px;" width="120" height="95" x="0" y="0"/><g class="scrollbox" transform="" clip-path="url(#legend21513e)"><g class="groups"><g class="traces" transform="translate(0,15.6)" style="opacity: 1;"><text class="legendtext" text-anchor="start" x="40" y="5.46" style="font-family: 'Open Sans', verdana, arial, sans-serif; font-size: 14px; fill: rgb(0, 0, 0); fill-opacity: 1; white-space: pre;">OD</text><g class="layers" style="opacity: 1;"><g class="legendfill"/><g class="legendlines"><path class="js-line" d="M5,0h30" style="fill: none; stroke: rgb(79, 79, 79); stroke-opacity: 1; stroke-width: 1.5px;"/></g><g class="legendsymbols"><g class="legendpoints"/></g></g><rect class="legendtoggle" x="0" y="-10.6" width="114.375" height="21.2" style="fill: rgb(0, 0, 0); fill-opacity: 0;"/></g><g class="traces" transform="translate(0,36.8)" style="opacity: 1;"><text class="legendtext" text-anchor="start" x="40" y="5.46" style="font-family: 'Open Sans', verdana, arial, sans-serif; font-size: 14px; fill: rgb(0, 0, 0); fill-opacity: 1; white-space: pre;">Model total</text><g class="layers" style="opacity: 1;"><g class="legendfill"/><g class="legendlines"><path class="js-line" d="M5,0h30" style="fill: none; stroke: rgb(79, 79, 79); stroke-opacity: 1; stroke-dasharray: 9px, 9px; stroke-width: 1.5px;"/></g><g class="legendsymbols"><g class="legendpoints"/></g></g><rect class="legendtoggle" x="0" y="-10.6" width="114.375" height="21.2" style="fill: rgb(0, 0, 0); fill-opacity: 0;"/></g><g class="traces" transform="translate(0,58)" style="opacity: 1;"><text class="legendtext" text-anchor="start" x="40" y="5.46" style="font-family: 'Open Sans', verdana, arial, sans-serif; font-size: 14px; fill: rgb(0, 0, 0); fill-opacity: 1; white-space: pre;">Model Oa</text><g class="layers" style="opacity: 1;"><g class="legendfill"/><g class="legendlines"><path class="js-line" d="M5,0h30" style="fill: none; stroke: rgb(217, 95, 2); stroke-opacity: 1; stroke-dasharray: 9px, 9px; stroke-width: 1.5px;"/></g><g class="legendsymbols"><g class="legendpoints"/></g></g><rect class="legendtoggle" x="0" y="-10.6" width="114.375" height="21.2" style="fill: rgb(0, 0, 0); fill-opacity: 0;"/></g><g class="traces" transform="translate(0,79.19999999999999)" style="opacity: 1;"><text class="legendtext" text-anchor="start" x="40" y="5.46" style="font-family: 'Open Sans', verdana, arial, sans-serif; font-size: 14px; fill: rgb(0, 0, 0); fill-opacity: 1; white-space: pre;">Model Ct</text><g class="layers" style="opacity: 1;"><g class="legendfill"/><g class="legendlines"><path class="js-line" d="M5,0h30" style="fill: none; stroke: rgb(117, 112, 179); stroke-opacity: 1; stroke-dasharray: 9px, 9px; stroke-width: 1.5px;"/></g><g class="legendsymbols"><g class="legendpoints"/></g></g><rect class="legendtoggle" x="0" y="-10.6" width="114.375" height="21.2" style="fill: rgb(0, 0, 0); fill-opacity: 0;"/></g></g></g><rect class="scrollbar" rx="20" ry="3" width="0" height="0" style="fill: rgb(128, 139, 164); fill-opacity: 1;" x="0" y="0"/></g><g class="legend2" pointer-events="all" transform="translate(380.48,228.8)"><rect class="bg" shape-rendering="crispEdges" style="stroke: rgb(68, 68, 68); stroke-opacity: 1; fill: rgb(153, 153, 153); fill-opacity: 1; stroke-width: 0px;" width="64" height="53" x="0" y="0"/><g class="scrollbox" transform="" clip-path="url(#legend221513e)"><g class="groups"><g class="traces" transform="translate(0,15.6)" style="opacity: 1;"><text class="legend2text" text-anchor="start" x="40" y="5.46" style="font-family: 'Open Sans', verdana, arial, sans-serif; font-size: 14px; fill: rgb(0, 0, 0); fill-opacity: 1; white-space: pre;">Ct</text><g class="layers" style="opacity: 1;"><g class="legendfill"/><g class="legendlines"><path class="js-line" d="M5,0h30" style="fill: none; stroke: rgb(117, 112, 179); stroke-opacity: 1; stroke-width: 1.5px;"/></g><g class="legendsymbols"><g class="legendpoints"><path class="scatterpts" transform="translate(20,0)" d="M1,0A1,1 0 1,1 0,-1A1,1 0 0,1 1,0Z" style="opacity: 1; stroke-width: 0px; fill: rgb(117, 112, 179); fill-opacity: 1;"/></g></g></g><rect class="legend2toggle" x="0" y="-10.6" width="58.703125" height="21.2" style="fill: rgb(0, 0, 0); fill-opacity: 0;"/></g><g class="traces" transform="translate(0,36.8)" style="opacity: 1;"><text class="legend2text" text-anchor="start" x="40" y="5.46" style="font-family: 'Open Sans', verdana, arial, sans-serif; font-size: 14px; fill: rgb(0, 0, 0); fill-opacity: 1; white-space: pre;">Oa</text><g class="layers" style="opacity: 1;"><g class="legendfill"/><g class="legendlines"><path class="js-line" d="M5,0h30" style="fill: none; stroke: rgb(217, 95, 2); stroke-opacity: 1; stroke-width: 1.5px;"/></g><g class="legendsymbols"><g class="legendpoints"><path class="scatterpts" transform="translate(20,0)" d="M1,0A1,1 0 1,1 0,-1A1,1 0 0,1 1,0Z" style="opacity: 1; stroke-width: 0px; fill: rgb(217, 95, 2); fill-opacity: 1;"/></g></g></g><rect class="legend2toggle" x="0" y="-10.6" width="58.703125" height="21.2" style="fill: rgb(0, 0, 0); fill-opacity: 0;"/></g></g></g><rect class="scrollbar" rx="20" ry="3" width="0" height="0" style="fill: rgb(128, 139, 164); fill-opacity: 1;" x="0" y="0"/></g><g class="g-gtitle"><text class="gtitle" x="25" y="10" text-anchor="start" dy="0em" style="opacity: 1; font-family: 'Open Sans', verdana, arial, sans-serif; font-size: 14px; fill: rgb(0, 0, 0); fill-opacity: 1; white-space: pre;">D = 0.15 1/h</text></g><g class="g-xtitle"/><g class="g-x2title" transform="translate(0,5.699999999999989)"><text class="x2title" x="212" y="422.3" text-anchor="middle" style="opacity: 1; font-family: 'Open Sans', verdana, arial, sans-serif; font-size: 14px; fill: rgb(0, 0, 0); fill-opacity: 1; white-space: pre;">Time [h]</text></g><g class="g-ytitle"><text class="ytitle" transform="rotate(-90,24.85,110.695)" x="24.85" y="110.695" text-anchor="middle" style="opacity: 1; font-family: 'Open Sans', verdana, arial, sans-serif; font-size: 14px; fill: rgb(0, 0, 0); fill-opacity: 1; white-space: pre;">OD</text></g><g class="g-y2title" transform="translate(7.064453125,0)"><text class="y2title" transform="rotate(-90,7.943750000000001,303.305)" x="7.943750000000001" y="303.305" text-anchor="middle" style="opacity: 1; font-family: 'Open Sans', verdana, arial, sans-serif; font-size: 14px; fill: rgb(0, 0, 0); fill-opacity: 1; white-space: pre;">CFUs/mL</text></g><g class="annotation" data-index="0" style="opacity: 1;"><g class="annotation-text-g" transform="rotate(0,212,8.5)"><g class="cursor-pointer" transform="translate(200,-3)"><rect class="bg" x="0.5" y="0.5" width="24" height="22" style="stroke-width: 1px; stroke: rgb(0, 0, 0); stroke-opacity: 0; fill: rgb(0, 0, 0); fill-opacity: 0;"/><text class="annotation-text" text-anchor="middle" x="12.5625" y="17" style="font-family: 'Open Sans', verdana, arial, sans-serif; font-size: 14px; fill: rgb(0, 0, 0); fill-opacity: 1; white-space: pre;">OD</text></g></g></g><g class="annotation" data-index="1" style="opacity: 1;"><g class="annotation-text-g" transform="rotate(0,212,201.11)"><g class="cursor-pointer" transform="translate(144,190)"><rect class="bg" x="0.5" y="0.5" width="136" height="22" style="stroke-width: 1px; stroke: rgb(0, 0, 0); stroke-opacity: 0; fill: rgb(0, 0, 0); fill-opacity: 0;"/><text class="annotation-text" text-anchor="middle" x="68.5" y="17" style="font-family: 'Open Sans', verdana, arial, sans-serif; font-size: 14px; fill: rgb(0, 0, 0); fill-opacity: 1; white-space: pre;">Absolut abundances</text></g></g></g></g></svg>