<svg class="main-svg" xmlns="http://www.w3.org/2000/svg" xmlns:xlink="http://www.w3.org/1999/xlink" width="130" height="180" style="" viewBox="0 0 130 180"><rect x="0" y="0" width="130" height="180" style="fill: rgb(255, 255, 255); fill-opacity: 1;"/><defs id="defs-f01b3e"><g class="clips"><clipPath id="clipf01b3exyplot" class="plotclip"><rect width="103" height="130"/></clipPath><clipPath class="axesclip" id="clipf01b3ex"><rect x="26" y="0" width="103" height="180"/></clipPath><clipPath class="axesclip" id="clipf01b3ey"><rect x="0" y="20" width="130" height="130"/></clipPath><clipPath class="axesclip" id="clipf01b3exy"><rect x="26" y="20" width="103" height="130"/></clipPath></g><g class="gradients"/><g class="patterns"/></defs><g class="bglayer"/><g class="layer-below"><g class="imagelayer"/><g class="shapelayer"/></g><g class="cartesianlayer"><g class="subplot xy"><g class="layer-subplot"><g class="shapelayer"/><g class="imagelayer"/></g><g class="minor-gridlayer"><g class="x"/><g class="y"/></g><g class="gridlayer"><g class="x"><path class="xgrid crisp" transform="translate(67.2,0)" d="M0,20v130" style="stroke: rgb(128, 128, 128); stroke-opacity: 1; stroke-width: 0.2px;"/><path class="xgrid crisp" transform="translate(108.4,0)" d="M0,20v130" style="stroke: rgb(128, 128, 128); stroke-opacity: 1; stroke-width: 0.2px;"/></g><g class="y"><path class="ygrid crisp" transform="translate(0,106.67)" d="M26,0h103" style="stroke: rgb(128, 128, 128); stroke-opacity: 1; stroke-width: 0.2px;"/><path class="ygrid crisp" transform="translate(0,63.33)" d="M26,0h103" style="stroke: rgb(128, 128, 128); stroke-opacity: 1; stroke-width: 0.2px;"/></g></g><g class="zerolinelayer"/><g class="layer-between"><g class="shapelayer"/><g class="imagelayer"/></g><path class="xlines-below"/><path class="ylines-below"/><g class="overlines-below"/><g class="xaxislayer-below"/><g class="yaxislayer-below"/><g class="overaxes-below"/><g class="overplot"><g class="xy" transform="translate(26,20)" clip-path="url(#clipf01b3exyplot)"><g class="scatterlayer mlayer"><g class="trace scatter traceb35c69" style="stroke-miterlimit: 2; opacity: 1;"><g class="fills"/><g class="errorbars"/><g class="lines"><path class="js-line" d="M0,108.33L1.44,80.41L1.55,77.47L2.78,40.66L3.3,43.13L3.4,43.63L6.29,53.21L6.39,53.44L10.21,59.78L10.31,59.92L25.98,81.04L26.09,81.21L34.54,96.12L34.64,96.31L47.94,119.42L48.05,119.55L52.69,124.4L52.79,124.49L57.43,127.27L57.53,127.32L64.23,129.1L64.34,129.11L74.13,129.83L74.23,129.83L93.31,129.99L93.41,129.99L103,130" style="vector-effect: none; fill: none; stroke: rgb(117, 112, 179); stroke-opacity: 1; stroke-width: 1.5px; opacity: 1;"/></g><g class="points"/><g class="text"/></g><g class="trace scatter trace140d3e" style="stroke-miterlimit: 2; opacity: 1;"><g class="fills"/><g class="errorbars"/><g class="lines"><path class="js-line" d="M0,108.33L4.54,102.22L4.64,102.13L10.1,96.19L10.21,96.07L18.46,84.16L18.56,83.99L26.81,68.51L26.91,68.29L39.49,38.93L39.59,38.68L46.29,23.94L46.4,23.74L51.14,16.32L51.24,16.19L56.6,11.33L56.71,11.27L61.14,9.27L61.24,9.23L68.67,7.88L68.77,7.87L81.76,7.38L81.86,7.38L103,7.32" style="vector-effect: none; fill: none; stroke: rgb(217, 95, 2); stroke-opacity: 1; stroke-width: 1.5px; opacity: 1;"/></g><g class="points"/><g class="text"/></g></g></g></g><path class="xlines-above crisp" d="M25.5,150.25H129.5M25.5,19.75H129.5" style="fill: none; stroke-width: 0.5px; stroke: rgb(0, 0, 0); stroke-opacity: 1;"/><path class="ylines-above crisp" d="M25.75,20V150M129.25,20V150" style="fill: none; stroke-width: 0.5px; stroke: rgb(0, 0, 0); stroke-opacity: 1;"/><g class="overlines-above"/><g class="xaxislayer-above"><path class="xtick ticks crisp" d="M0,150v-5" transform="translate(67.2,0)" style="stroke: rgb(0, 0, 0); stroke-opacity: 1; stroke-width: 0.5px;"/><path class="xtick ticks crisp" d="M0,150v-5" transform="translate(108.4,0)" style="stroke: rgb(0, 0, 0); stroke-opacity: 1; stroke-width: 0.5px;"/><g class="xtick"><text text-anchor="middle" x="0" y="163.7" transform="translate(26,0)" style="font-family: 'Open Sans', verdana, arial, sans-serif; font-size: 11px; fill: rgb(0, 0, 0); fill-opacity: 1; white-space: pre; opacity: 1;">0</text></g><g class="xtick"><text text-anchor="middle" x="0" y="163.7" style="font-family: 'Open Sans', verdana, arial, sans-serif; font-size: 11px; fill: rgb(0, 0, 0); fill-opacity: 1; white-space: pre; opacity: 1;" transform="translate(67.2,0)">100</text></g><g class="xtick"><text text-anchor="middle" x="0" y="163.7" style="font-family: 'Open Sans', verdana, arial, sans-serif; font-size: 11px; fill: rgb(0, 0, 0); fill-opacity: 1; white-space: pre; opacity: 1;" transform="translate(108.4,0)">200</text></g></g><g class="yaxislayer-above"><path class="ytick ticks crisp" d="M26,0h5" transform="translate(0,106.67)" style="stroke: rgb(0, 0, 0); stroke-opacity: 1; stroke-width: 0.5px;"/><path class="ytick ticks crisp" d="M26,0h5" transform="translate(0,63.33)" style="stroke: rgb(0, 0, 0); stroke-opacity: 1; stroke-width: 0.5px;"/><g class="ytick"><text text-anchor="end" x="23.3" y="3.8499999999999996" transform="translate(0,150)" style="font-family: 'Open Sans', verdana, arial, sans-serif; font-size: 11px; fill: rgb(0, 0, 0); fill-opacity: 1; white-space: pre; opacity: 1;">0</text></g><g class="ytick"><text text-anchor="end" x="23.3" y="3.8499999999999996" style="font-family: 'Open Sans', verdana, arial, sans-serif; font-size: 11px; fill: rgb(0, 0, 0); fill-opacity: 1; white-space: pre; opacity: 1;" transform="translate(0,106.67)">0.1</text></g><g class="ytick"><text text-anchor="end" x="23.3" y="3.8499999999999996" style="font-family: 'Open Sans', verdana, arial, sans-serif; font-size: 11px; fill: rgb(0, 0, 0); fill-opacity: 1; white-space: pre; opacity: 1;" transform="translate(0,63.33)">0.2</text></g><g class="ytick"><text text-anchor="end" x="23.3" y="3.8499999999999996" style="font-family: 'Open Sans', verdana, arial, sans-serif; font-size: 11px; fill: rgb(0, 0, 0); fill-opacity: 1; white-space: pre; opacity: 1;" transform="translate(0,20)">0.3</text></g></g><g class="overaxes-above"/></g></g><g class="polarlayer"/><g class="smithlayer"/><g class="ternarylayer"/><g class="geolayer"/><g class="funnelarealayer"/><g class="pielayer"/><g class="iciclelayer"/><g class="treemaplayer"/><g class="sunburstlayer"/><g class="glimages"/><defs id="topdefs-f01b3e"><g class="clips"/></defs><g class="layer-above"><g class="imagelayer"/><g class="shapelayer"/></g><g class="infolayer"><g class="g-gtitle"><text class="gtitle" x="6.5" y="10" text-anchor="start" dy="0em" style="opacity: 1; font-family: 'Open Sans', verdana, arial, sans-serif; font-size: 11px; fill: rgb(0, 0, 0); fill-opacity: 1; white-space: pre;">No cross-feeding</text></g><g class="g-xtitle" transform="translate(0,2.8468750000000114)"><text class="xtitle" x="77.5" y="174.153125" text-anchor="middle" style="opacity: 1; font-family: 'Open Sans', verdana, arial, sans-serif; font-size: 11px; fill: rgb(0, 0, 0); fill-opacity: 1; white-space: pre;">Time [h]</text></g><g class="g-ytitle" transform="translate(7.818359375,0)"><text class="ytitle" transform="rotate(-90,4.181249999999999,85)" x="4.181249999999999" y="85" text-anchor="middle" style="opacity: 1; font-family: 'Open Sans', verdana, arial, sans-serif; font-size: 11px; fill: rgb(0, 0, 0); fill-opacity: 1; white-space: pre;">OD</text></g></g></svg>