<svg class="main-svg" xmlns="http://www.w3.org/2000/svg" xmlns:xlink="http://www.w3.org/1999/xlink" width="300" height="250" style="" viewBox="0 0 300 250"><rect x="0" y="0" width="300" height="250" style="fill: rgb(255, 255, 255); fill-opacity: 1;"/><defs id="defs-088edc"><g class="clips"><clipPath id="clip088edcxyplot" class="plotclip"><rect width="202" height="213"/></clipPath><clipPath class="axesclip" id="clip088edcx"><rect x="28" y="0" width="202" height="250"/></clipPath><clipPath class="axesclip" id="clip088edcy"><rect x="0" y="10" width="300" height="213"/></clipPath><clipPath class="axesclip" id="clip088edcxy"><rect x="28" y="10" width="202" height="213"/></clipPath></g><g class="gradients"/><g class="patterns"/></defs><g class="bglayer"/><g class="layer-below"><g class="imagelayer"/><g class="shapelayer"/></g><g class="cartesianlayer"><g class="subplot xy"><g class="layer-subplot"><g class="shapelayer"/><g class="imagelayer"/></g><g class="minor-gridlayer"><g class="x"/><g class="y"/></g><g class="gridlayer"><g class="x"><path class="xgrid crisp" transform="translate(78.5,0)" d="M0,10v213" style="stroke: rgb(0, 0, 0); stroke-opacity: 1; stroke-width: 1px;"/><path class="xgrid crisp" transform="translate(129,0)" d="M0,10v213" style="stroke: rgb(0, 0, 0); stroke-opacity: 1; stroke-width: 1px;"/><path class="xgrid crisp" transform="translate(179.5,0)" d="M0,10v213" style="stroke: rgb(0, 0, 0); stroke-opacity: 1; stroke-width: 1px;"/></g><g class="y"><path class="ygrid crisp" transform="translate(0,176.96)" d="M28,0h202" style="stroke: rgb(0, 0, 0); stroke-opacity: 1; stroke-width: 1px;"/><path class="ygrid crisp" transform="translate(0,139.52)" d="M28,0h202" style="stroke: rgb(0, 0, 0); stroke-opacity: 1; stroke-width: 1px;"/><path class="ygrid crisp" transform="translate(0,102.08)" d="M28,0h202" style="stroke: rgb(0, 0, 0); stroke-opacity: 1; stroke-width: 1px;"/><path class="ygrid crisp" transform="translate(0,64.64)" d="M28,0h202" style="stroke: rgb(0, 0, 0); stroke-opacity: 1; stroke-width: 1px;"/><path class="ygrid crisp" transform="translate(0,27.2)" d="M28,0h202" style="stroke: rgb(0, 0, 0); stroke-opacity: 1; stroke-width: 1px;"/></g></g><g class="zerolinelayer"><path class="xzl zl crisp" transform="translate(28,0)" d="M0,10v213" style="stroke: rgb(0, 0, 0); stroke-opacity: 1; stroke-width: 1px;"/><path class="yzl zl crisp" transform="translate(0,214.4)" d="M28,0h202" style="stroke: rgb(0, 0, 0); stroke-opacity: 1; stroke-width: 1px;"/></g><g class="layer-between"><g class="shapelayer"/><g class="imagelayer"/></g><path class="xlines-below"/><path class="ylines-below"/><g class="overlines-below"/><g class="xaxislayer-below"/><g class="yaxislayer-below"/><g class="overaxes-below"/><g class="overplot"><g class="xy" transform="translate(28,10)" clip-path="url(#clip088edcxyplot)"><g class="scatterlayer mlayer"><g class="trace scatter trace9ef714" style="stroke-miterlimit: 2; opacity: 1;"><g class="fills"/><g class="errorbars"/><g class="lines"><path class="js-line" d="M0,185.68L1.01,127.85L1.11,121.78L1.31,117.1L1.52,126.39L1.62,133.64L3.13,191.87L3.23,193.26L4.65,201.82L4.75,201.99L5.46,202.26L5.66,202.04L5.76,201.88L6.67,198.28L6.77,197.57L7.78,188.94L8.08,190.71L8.19,191.91L9.7,201L9.8,201.15L10.51,201.14L10.61,200.99L10.71,200.81L11.62,197.34L11.72,196.76L12.43,193.53L12.73,194.42L12.83,195.07L14.35,200.87L14.45,200.92L15.16,200.26L15.26,200.03L16.77,194.92L17.08,195.78L17.18,196.28L18.69,200.69L18.8,200.69L19.6,199.5L19.7,199.21L20.92,195.52L21.22,196.15L21.32,196.55L22.94,200.55L23.04,200.52L23.95,198.8L24.05,198.47L25.06,195.87L25.36,196.52L25.46,196.9L26.98,200.48L27.08,200.45L27.18,200.4L28.09,198.62L28.19,198.3L29.1,196.05L29.41,196.55L29.51,196.88L31.12,200.41L31.22,200.36L32.13,198.69L32.24,198.38L33.14,196.18L33.45,196.6L33.55,196.9L35.17,200.37L35.27,200.33L35.37,200.27L36.38,198.11L36.48,197.79L37.29,196.3L37.49,196.65L37.59,196.93L39.21,200.35L39.31,200.31L39.41,200.24L40.42,198.13L40.52,197.82L41.33,196.36L41.53,196.7L41.63,196.98L43.25,200.33L43.35,200.29L43.45,200.22L44.46,198.13L44.56,197.82L45.27,196.37L45.57,196.74L45.67,197.02L47.29,200.31L47.39,200.27L47.49,200.2L48.5,198.11L48.61,197.81L49.31,196.4L49.62,196.79L49.72,197.06L51.33,200.3L51.43,200.26L51.54,200.19L52.65,197.78L52.75,197.48L53.35,196.42L53.66,196.83L53.76,197.11L55.38,200.29L55.48,200.24L55.58,200.17L56.59,198.05L56.69,197.75L57.4,196.44L57.7,196.88L57.8,197.16L59.42,200.28L59.52,200.23L60.43,198.59L60.53,198.31L61.44,196.46L61.74,196.93L61.84,197.21L63.46,200.27L63.56,200.22L64.57,198.26L64.67,197.97L65.48,196.47L65.78,196.97L65.88,197.27L67.5,200.26L67.6,200.2L67.7,200.12L68.82,197.63L68.92,197.34L69.52,196.49L69.83,197.02L69.93,197.32L71.54,200.25L71.64,200.19L72.66,198.17L72.76,197.87L73.56,196.5L73.77,196.81L73.87,197.07L75.48,200.28L75.59,200.24L75.69,200.17L76.7,198.12L76.8,197.83L77.51,196.47L77.81,196.85L77.91,197.12L79.53,200.27L79.63,200.23L79.73,200.16L80.84,197.78L80.94,197.49L81.55,196.48L81.85,196.9L81.95,197.18L83.57,200.27L83.67,200.22L83.77,200.14L84.88,197.73L84.98,197.44L85.59,196.48L85.89,196.94L85.99,197.23L87.61,200.26L87.71,200.21L87.81,200.12L88.82,197.97L88.92,197.67L89.63,196.49L89.93,196.99L90.04,197.28L91.65,200.25L91.75,200.19L92.76,198.21L92.87,197.92L93.67,196.5L93.88,196.79L93.98,197.04L95.59,200.28L95.69,200.24L95.8,200.18L96.81,198.16L96.91,197.86L97.61,196.48L97.92,196.83L98.02,197.09L99.64,200.27L99.74,200.23L99.84,200.17L100.85,198.11L100.95,197.81L101.66,196.48L101.96,196.87L102.06,197.14L103.68,200.27L103.78,200.22L103.88,200.15L104.99,197.76L105.09,197.47L105.7,196.48L106,196.92L106.1,197.2L107.72,200.26L107.82,200.21L107.92,200.13L109.03,197.71L109.13,197.42L109.74,196.49L110.04,196.97L110.15,197.25L111.76,200.25L111.86,200.2L112.77,198.53L112.87,198.24L113.78,196.5L113.98,196.77L114.09,197.01L115.8,200.25L115.9,200.19L116.01,200.1L117.12,197.6L117.22,197.32L117.82,196.51L118.03,196.81L118.13,197.06L119.85,200.24L119.95,200.17L120.96,198.14L121.06,197.84L121.77,196.48L122.07,196.85L122.17,197.12L123.79,200.27L123.89,200.23L123.99,200.16L125.1,197.79L125.2,197.5L125.81,196.48L126.11,196.9L126.21,197.17L127.83,200.26L127.93,200.22L128.03,200.14L129.14,197.74L129.24,197.45L129.85,196.49L130.15,196.94L130.25,197.22L131.87,200.26L131.97,200.21L132.07,200.13L133.18,197.68L133.29,197.4L133.89,196.49L134.2,196.99L134.3,197.28L135.91,200.25L136.01,200.19L137.02,198.22L137.13,197.92L137.93,196.5L138.14,196.79L138.24,197.04L139.85,200.28L139.95,200.24L140.06,200.18L141.07,198.17L141.17,197.87L141.87,196.48L142.18,196.83L142.28,197.09L143.9,200.27L144,200.23L144.1,200.17L145.11,198.11L145.21,197.82L145.92,196.48L146.22,196.87L146.32,197.14L147.94,200.27L148.04,200.22L148.14,200.15L149.25,197.76L149.35,197.48L149.96,196.48L150.26,196.92L150.36,197.19L151.98,200.26L152.08,200.21L152.18,200.13L153.19,198.01L153.29,197.71L154,196.49L154.3,196.96L154.41,197.25L156.02,200.26L156.12,200.2L157.03,198.53L157.13,198.25L158.04,196.5L158.25,196.77L158.35,197.01L160.06,200.25L160.17,200.19L161.18,198.19L161.28,197.9L162.09,196.51L162.29,196.81L162.39,197.06L164.11,200.24L164.21,200.17L165.22,198.14L165.32,197.85L166.03,196.48L166.33,196.85L166.43,197.11L168.05,200.27L168.15,200.23L168.25,200.16L169.26,198.09L169.36,197.79L170.07,196.48L170.37,196.89L170.47,197.17L172.09,200.27L172.19,200.22L172.29,200.14L173.4,197.74L173.5,197.45L174.11,196.49L174.41,196.94L174.51,197.22L176.13,200.26L176.23,200.21L176.33,200.13L177.44,197.69L177.55,197.4L178.15,196.49L178.46,196.98L178.56,197.28L180.17,200.25L180.27,200.19L181.18,198.51L181.28,198.22L182.19,196.5L182.5,197.03L182.6,197.33L184.11,200.28L184.22,200.24L184.32,200.18L185.33,198.17L185.43,197.87L186.14,196.48L186.44,196.83L186.54,197.08L188.16,200.27L188.26,200.23L188.36,200.17L189.37,198.12L189.47,197.82L190.18,196.48L190.48,196.87L190.58,197.14L192.2,200.27L192.3,200.22L192.4,200.15L193.51,197.77L193.61,197.48L194.22,196.48L194.52,196.91L194.62,197.19L196.24,200.26L196.34,200.21L196.44,200.14L197.55,197.72L197.65,197.43L198.26,196.49L198.56,196.96L198.67,197.25L200.28,200.26L200.38,200.2L201.29,198.54L201.39,198.25L202,196.69" style="vector-effect: none; fill: none; stroke: rgb(117, 112, 179); stroke-opacity: 1; stroke-width: 1.8px; opacity: 1;"/></g><g class="points"/><g class="text"/></g><g class="trace scatter traceb2953d" style="stroke-miterlimit: 2; opacity: 1;"><g class="fills"/><g class="errorbars"/><g class="lines"><path class="js-line" d="M0,185.68L0.1,186.98L0.4,182.97L0.51,179.96L1.21,124.1L1.31,109.66L2.63,26.02L2.73,23.57L4.04,10.65L4.14,10.74L4.55,13.26L4.65,14.68L5.25,36.3L5.36,42.44L6.77,107.82L6.97,105.55L7.07,102.91L7.78,51.03L7.88,40.01L8.89,14.62L8.99,14.59L9.4,16.59L9.5,17.76L10.21,37.66L10.31,42.16L11.52,81.03L11.72,78.9L11.82,76.54L13.34,16.97L13.64,17.87L13.74,18.65L14.45,33.04L14.55,36.46L15.76,71.18L16.07,68.85L16.17,66.6L17.58,18.65L17.89,19.63L17.99,20.46L18.69,34.64L18.8,37.81L20.01,66.53L20.21,64.91L20.31,63.11L21.73,19.82L22.13,21.52L22.23,22.61L23.14,44.45L23.24,47.63L24.05,63.89L24.35,62L24.45,60.15L25.87,20.58L26.27,22.64L26.37,23.84L27.28,45.63L27.38,48.61L28.19,62.34L28.5,59.5L28.6,57.39L30.01,21.14L30.32,22.79L30.42,23.88L31.43,47.44L31.53,50.23L32.24,61.3L32.54,58.91L32.64,56.99L34.05,21.49L34.36,22.97L34.46,24L35.47,46.82L35.57,49.55L36.28,60.59L36.58,58.4L36.68,56.58L38.1,21.76L38.4,23.15L38.5,24.16L39.51,46.54L39.61,49.22L40.32,60.1L40.62,57.97L40.72,56.18L42.14,21.95L42.44,23.32L42.54,24.32L43.55,46.48L43.65,49.12L44.36,59.75L44.66,57.58L44.77,55.79L46.18,22.09L46.48,23.49L46.58,24.5L47.39,41.14L47.49,43.87L48.4,59.51L48.71,57.23L48.81,55.42L50.22,22.19L50.53,23.66L50.63,24.69L51.64,46.76L51.74,49.34L52.45,59.33L52.75,56.89L52.85,55.04L54.26,22.28L54.57,23.83L54.67,24.89L55.68,47.03L55.78,49.57L56.49,59.19L56.79,56.57L56.89,54.66L58.31,22.34L58.61,24L58.71,25.09L59.82,49.85L59.92,52.18L60.53,59.07L60.83,56.24L60.93,54.27L62.35,22.4L62.65,24.18L62.75,25.3L63.96,52.46L64.07,54.48L64.57,58.97L64.87,55.91L64.98,53.87L66.29,22.41L66.69,24.36L66.79,25.52L67.8,48.07L67.91,50.52L68.51,58.95L68.82,57.19L68.92,55.58L70.33,22.42L70.74,24.55L70.84,25.75L72.55,58.93L72.86,56.92L72.96,55.23L74.37,22.43L74.68,23.75L74.78,24.74L75.79,46.32L75.89,48.86L76.6,58.91L76.9,56.65L77,54.87L78.42,22.44L78.72,23.91L78.82,24.95L79.83,46.76L79.93,49.27L80.64,58.88L80.94,56.36L81.04,54.5L82.46,22.47L82.76,24.08L82.86,25.16L83.97,49.68L84.07,51.99L84.68,58.84L84.98,56.06L85.08,54.11L86.5,22.5L86.8,24.26L86.9,25.38L88.12,52.36L88.22,54.37L88.72,58.8L89.03,55.74L89.13,53.71L90.44,22.48L90.84,24.44L90.95,25.61L92.26,54.69L92.36,56.33L92.66,58.83L92.97,57.03L93.07,55.41L94.48,22.47L94.89,24.63L94.99,25.84L96.71,58.84L97.01,56.77L97.11,55.06L98.52,22.47L98.83,23.83L98.93,24.83L99.94,46.43L100.04,48.96L100.75,58.84L101.05,56.5L101.15,54.7L102.57,22.48L102.87,23.99L102.97,25.04L103.98,46.89L104.08,49.39L104.79,58.82L105.09,56.21L105.19,54.32L106.61,22.5L106.91,24.16L107.01,25.25L108.12,49.82L108.23,52.11L108.83,58.79L109.13,55.91L109.24,53.93L110.55,22.5L110.95,24.34L111.05,25.48L112.07,47.8L112.17,50.25L112.77,58.79L113.08,57.15L113.18,55.58L114.59,22.48L115,24.53L115.1,25.71L116.81,58.82L117.12,56.91L117.22,55.25L118.63,22.47L118.94,23.75L119.04,24.72L120.05,46.16L120.15,48.7L120.86,58.83L121.16,56.64L121.26,54.89L122.68,22.48L122.98,23.9L123.08,24.92L124.09,46.63L124.19,49.14L124.9,58.82L125.2,56.36L125.3,54.52L126.72,22.49L127.02,24.07L127.12,25.14L128.23,49.58L128.33,51.89L128.94,58.81L129.24,56.07L129.34,54.14L130.76,22.51L131.06,24.24L131.16,25.36L132.38,52.28L132.48,54.3L132.98,58.77L133.29,55.76L133.39,53.74L134.7,22.49L135.1,24.42L135.21,25.58L136.92,58.8L137.23,57.04L137.33,55.43L138.74,22.48L139.15,24.61L139.25,25.82L140.97,58.82L141.27,56.79L141.37,55.08L142.78,22.47L143.09,23.82L143.19,24.81L144.2,46.38L144.3,48.9L145.01,58.83L145.31,56.52L145.41,54.72L146.83,22.48L147.13,23.98L147.23,25.02L148.24,46.84L148.34,49.35L149.05,58.82L149.35,56.23L149.45,54.35L150.87,22.5L151.17,24.15L151.27,25.24L152.38,49.78L152.49,52.07L153.09,58.79L153.39,55.93L153.5,53.96L154.81,22.51L155.21,24.33L155.31,25.46L156.33,47.76L156.43,50.21L157.03,58.78L157.34,57.17L157.44,55.61L158.85,22.49L159.26,24.51L159.36,25.69L161.07,58.81L161.38,56.92L161.48,55.27L162.89,22.48L163.2,23.74L163.3,24.71L164.31,46.13L164.41,48.67L165.12,58.82L165.42,56.66L165.52,54.92L166.94,22.48L167.24,23.89L167.34,24.91L168.35,46.59L168.45,49.11L169.16,58.82L169.46,56.38L169.56,54.55L170.98,22.49L171.28,24.06L171.38,25.12L172.49,49.55L172.59,51.86L173.2,58.81L173.5,56.09L173.6,54.17L175.02,22.51L175.32,24.23L175.42,25.34L176.64,52.25L176.74,54.27L177.24,58.77L177.55,55.78L177.65,53.77L178.96,22.5L179.36,24.41L179.47,25.57L180.78,54.6L180.88,56.25L181.18,58.8L181.49,57.06L181.59,55.45L183,22.48L183.41,24.6L183.51,25.8L185.23,58.82L185.53,56.8L185.63,55.11L187.04,22.48L187.35,23.81L187.45,24.8L188.46,46.34L188.56,48.87L189.27,58.83L189.57,56.54L189.67,54.75L191.09,22.48L191.39,23.97L191.49,25.01L192.5,46.81L192.6,49.31L193.31,58.82L193.61,56.25L193.71,54.37L195.13,22.5L195.43,24.14L195.53,25.22L196.64,49.75L196.75,52.04L197.35,58.79L197.65,55.95L197.76,53.98L199.07,22.51L199.47,24.31L199.57,25.44L200.59,47.73L200.69,50.18L201.29,58.78L201.6,57.18L201.7,55.63L202,48.12" style="vector-effect: none; fill: none; stroke: rgb(217, 95, 2); stroke-opacity: 1; stroke-width: 1.8px; opacity: 1;"/></g><g class="points"/><g class="text"/></g></g></g></g><path class="xlines-above crisp" d="M0,0" style="fill: none;"/><path class="ylines-above crisp" d="M0,0" style="fill: none;"/><g class="overlines-above"/><g class="xaxislayer-above"><g class="xtick"><text text-anchor="middle" x="0" y="232" transform="translate(28,0)" style="font-family: 'Open Sans', verdana, arial, sans-serif; font-size: 8px; fill: rgb(0, 0, 0); fill-opacity: 1; white-space: pre; opacity: 1;">0</text></g><g class="xtick"><text text-anchor="middle" x="0" y="232" style="font-family: 'Open Sans', verdana, arial, sans-serif; font-size: 8px; fill: rgb(0, 0, 0); fill-opacity: 1; white-space: pre; opacity: 1;" transform="translate(78.5,0)">500</text></g><g class="xtick"><text text-anchor="middle" x="0" y="232" style="font-family: 'Open Sans', verdana, arial, sans-serif; font-size: 8px; fill: rgb(0, 0, 0); fill-opacity: 1; white-space: pre; opacity: 1;" transform="translate(129,0)">1000</text></g><g class="xtick"><text text-anchor="middle" x="0" y="232" style="font-family: 'Open Sans', verdana, arial, sans-serif; font-size: 8px; fill: rgb(0, 0, 0); fill-opacity: 1; white-space: pre; opacity: 1;" transform="translate(179.5,0)">1500</text></g><g class="xtick"><text text-anchor="middle" x="0" y="232" style="font-family: 'Open Sans', verdana, arial, sans-serif; font-size: 8px; fill: rgb(0, 0, 0); fill-opacity: 1; white-space: pre; opacity: 1;" transform="translate(230,0)">2000</text></g></g><g class="yaxislayer-above"><g class="ytick"><text text-anchor="end" x="27" y="2.8" transform="translate(0,214.4)" style="font-family: 'Open Sans', verdana, arial, sans-serif; font-size: 8px; fill: rgb(0, 0, 0); fill-opacity: 1; white-space: pre; opacity: 1;">0</text></g><g class="ytick"><text text-anchor="end" x="27" y="2.8" style="font-family: 'Open Sans', verdana, arial, sans-serif; font-size: 8px; fill: rgb(0, 0, 0); fill-opacity: 1; white-space: pre; opacity: 1;" transform="translate(0,176.96)">0.1</text></g><g class="ytick"><text text-anchor="end" x="27" y="2.8" style="font-family: 'Open Sans', verdana, arial, sans-serif; font-size: 8px; fill: rgb(0, 0, 0); fill-opacity: 1; white-space: pre; opacity: 1;" transform="translate(0,139.52)">0.2</text></g><g class="ytick"><text text-anchor="end" x="27" y="2.8" style="font-family: 'Open Sans', verdana, arial, sans-serif; font-size: 8px; fill: rgb(0, 0, 0); fill-opacity: 1; white-space: pre; opacity: 1;" transform="translate(0,102.08)">0.3</text></g><g class="ytick"><text text-anchor="end" x="27" y="2.8" style="font-family: 'Open Sans', verdana, arial, sans-serif; font-size: 8px; fill: rgb(0, 0, 0); fill-opacity: 1; white-space: pre; opacity: 1;" transform="translate(0,64.64)">0.4</text></g><g class="ytick"><text text-anchor="end" x="27" y="2.8" style="font-family: 'Open Sans', verdana, arial, sans-serif; font-size: 8px; fill: rgb(0, 0, 0); fill-opacity: 1; white-space: pre; opacity: 1;" transform="translate(0,27.2)">0.5</text></g></g><g class="overaxes-above"/></g></g><g class="polarlayer"/><g class="smithlayer"/><g class="ternarylayer"/><g class="geolayer"/><g class="funnelarealayer"/><g class="pielayer"/><g class="iciclelayer"/><g class="treemaplayer"/><g class="sunburstlayer"/><g class="glimages"/><defs id="topdefs-088edc"><g class="clips"/><clipPath id="legend088edc"><rect width="56" height="48" x="0" y="0"/></clipPath></defs><g class="layer-above"><g class="imagelayer"/><g class="shapelayer"/></g><g class="infolayer"><g class="legend" pointer-events="all" transform="translate(234.04,10)"><rect class="bg" shape-rendering="crispEdges" width="56" height="48" x="0" y="0" style="stroke: rgb(68, 68, 68); stroke-opacity: 1; fill: rgb(255, 255, 255); fill-opacity: 1; stroke-width: 0px;"/><g class="scrollbox" transform="" clip-path="url(#legend088edc)"><g class="groups"><g class="traces" transform="translate(0,14.5)" style="opacity: 1;"><text class="legendtext" text-anchor="start" x="40" y="3.12" style="font-family: 'Open Sans', verdana, arial, sans-serif; font-size: 8px; fill: rgb(0, 0, 0); fill-opacity: 1; white-space: pre;"><tspan style="font-style:italic">Ct</tspan></text><g class="layers" style="opacity: 1;"><g class="legendfill"/><g class="legendlines"><path class="js-line" d="M5,0h30" style="fill: none; stroke: rgb(117, 112, 179); stroke-opacity: 1; stroke-width: 1.8px;"/></g><g class="legendsymbols"><g class="legendpoints"/></g></g><rect class="legendtoggle" x="0" y="-9.5" width="50.765625" height="19" style="fill: rgb(0, 0, 0); fill-opacity: 0;"/></g><g class="traces" transform="translate(0,33.5)" style="opacity: 1;"><text class="legendtext" text-anchor="start" x="40" y="3.12" style="font-family: 'Open Sans', verdana, arial, sans-serif; font-size: 8px; fill: rgb(0, 0, 0); fill-opacity: 1; white-space: pre;"><tspan style="font-style:italic">Oa</tspan></text><g class="layers" style="opacity: 1;"><g class="legendfill"/><g class="legendlines"><path class="js-line" d="M5,0h30" style="fill: none; stroke: rgb(217, 95, 2); stroke-opacity: 1; stroke-width: 1.8px;"/></g><g class="legendsymbols"><g class="legendpoints"/></g></g><rect class="legendtoggle" x="0" y="-9.5" width="50.765625" height="19" style="fill: rgb(0, 0, 0); fill-opacity: 0;"/></g></g></g><rect class="scrollbar" rx="20" ry="3" width="0" height="0" x="0" y="0" style="fill: rgb(128, 139, 164); fill-opacity: 1;"/></g><g class="g-gtitle"/><g class="g-xtitle" transform="translate(0,3.9000000000000057)"><text class="xtitle" x="129" y="239.1" text-anchor="middle" style="opacity: 1; font-family: 'Open Sans', verdana, arial, sans-serif; font-size: 8px; fill: rgb(0, 0, 0); fill-opacity: 1; white-space: pre;">Time [h]</text></g><g class="g-ytitle"><text class="ytitle" transform="rotate(-90,13.41875,116.5)" x="13.41875" y="116.5" text-anchor="middle" style="opacity: 1; font-family: 'Open Sans', verdana, arial, sans-serif; font-size: 8px; fill: rgb(0, 0, 0); fill-opacity: 1; white-space: pre;">OD</text></g></g></svg>