<svg class="main-svg" xmlns="http://www.w3.org/2000/svg" xmlns:xlink="http://www.w3.org/1999/xlink" width="500" height="400" style="" viewBox="0 0 500 400"><rect x="0" y="0" width="500" height="400" style="fill: rgb(255, 255, 255); fill-opacity: 1;"/><defs id="defs-2fb7ad"><g class="clips"><clipPath id="clip2fb7adxyplot" class="plotclip"><rect width="276" height="330"/></clipPath><clipPath class="axesclip" id="clip2fb7adx"><rect x="40" y="0" width="276" height="400"/></clipPath><clipPath class="axesclip" id="clip2fb7ady"><rect x="0" y="20" width="500" height="330"/></clipPath><clipPath class="axesclip" id="clip2fb7adxy"><rect x="40" y="20" width="276" height="330"/></clipPath></g><g class="gradients"/><g class="patterns"/></defs><g class="bglayer"/><g class="layer-below"><g class="imagelayer"/><g class="shapelayer"/></g><g class="cartesianlayer"><g class="subplot xy"><g class="layer-subplot"><g class="shapelayer"/><g class="imagelayer"/></g><g class="minor-gridlayer"><g class="x"/><g class="y"/></g><g class="gridlayer"><g class="x"><path class="xgrid crisp" transform="translate(62.9,0)" d="M0,20v330" style="stroke: rgb(0, 0, 0); stroke-opacity: 1; stroke-width: 1px;"/><path class="xgrid crisp" transform="translate(85.8,0)" d="M0,20v330" style="stroke: rgb(0, 0, 0); stroke-opacity: 1; stroke-width: 1px;"/><path class="xgrid crisp" transform="translate(108.7,0)" d="M0,20v330" style="stroke: rgb(0, 0, 0); stroke-opacity: 1; stroke-width: 1px;"/><path class="xgrid crisp" transform="translate(131.6,0)" d="M0,20v330" style="stroke: rgb(0, 0, 0); stroke-opacity: 1; stroke-width: 1px;"/><path class="xgrid crisp" transform="translate(154.5,0)" d="M0,20v330" style="stroke: rgb(0, 0, 0); stroke-opacity: 1; stroke-width: 1px;"/><path class="xgrid crisp" transform="translate(177.39,0)" d="M0,20v330" style="stroke: rgb(0, 0, 0); stroke-opacity: 1; stroke-width: 1px;"/><path class="xgrid crisp" transform="translate(200.29,0)" d="M0,20v330" style="stroke: rgb(0, 0, 0); stroke-opacity: 1; stroke-width: 1px;"/><path class="xgrid crisp" transform="translate(223.19,0)" d="M0,20v330" style="stroke: rgb(0, 0, 0); stroke-opacity: 1; stroke-width: 1px;"/><path class="xgrid crisp" transform="translate(246.09,0)" d="M0,20v330" style="stroke: rgb(0, 0, 0); stroke-opacity: 1; stroke-width: 1px;"/><path class="xgrid crisp" transform="translate(268.99,0)" d="M0,20v330" style="stroke: rgb(0, 0, 0); stroke-opacity: 1; stroke-width: 1px;"/><path class="xgrid crisp" transform="translate(291.89,0)" d="M0,20v330" style="stroke: rgb(0, 0, 0); stroke-opacity: 1; stroke-width: 1px;"/><path class="xgrid crisp" transform="translate(314.79,0)" d="M0,20v330" style="stroke: rgb(0, 0, 0); stroke-opacity: 1; stroke-width: 1px;"/></g><g class="y"><path class="ygrid crisp" transform="translate(0,308.75)" d="M40,0h276" style="stroke: rgb(0, 0, 0); stroke-opacity: 1; stroke-width: 1px;"/><path class="ygrid crisp" transform="translate(0,267.5)" d="M40,0h276" style="stroke: rgb(0, 0, 0); stroke-opacity: 1; stroke-width: 1px;"/><path class="ygrid crisp" transform="translate(0,226.25)" d="M40,0h276" style="stroke: rgb(0, 0, 0); stroke-opacity: 1; stroke-width: 1px;"/><path class="ygrid crisp" transform="translate(0,185)" d="M40,0h276" style="stroke: rgb(0, 0, 0); stroke-opacity: 1; stroke-width: 1px;"/><path class="ygrid crisp" transform="translate(0,143.75)" d="M40,0h276" style="stroke: rgb(0, 0, 0); stroke-opacity: 1; stroke-width: 1px;"/><path class="ygrid crisp" transform="translate(0,102.5)" d="M40,0h276" style="stroke: rgb(0, 0, 0); stroke-opacity: 1; stroke-width: 1px;"/><path class="ygrid crisp" transform="translate(0,61.25)" d="M40,0h276" style="stroke: rgb(0, 0, 0); stroke-opacity: 1; stroke-width: 1px;"/></g></g><g class="zerolinelayer"><path class="xzl zl crisp" transform="translate(40,0)" d="M0,20v330" style="stroke: rgb(0, 0, 0); stroke-opacity: 1; stroke-width: 1px;"/><path class="yzl zl crisp" transform="translate(0,350)" d="M40,0h276" style="stroke: rgb(0, 0, 0); stroke-opacity: 1; stroke-width: 1px;"/></g><g class="layer-between"><g class="shapelayer"/><g class="imagelayer"/></g><path class="xlines-below"/><path class="ylines-below"/><g class="overlines-below"/><g class="xaxislayer-below"/><g class="yaxislayer-below"/><g class="overaxes-below"/><g class="overplot"><g class="xy" transform="translate(40,20)" clip-path="url(#clip2fb7adxyplot)"><g class="scatterlayer mlayer"><g class="trace scatter trace648b11" style="stroke-miterlimit: 2; opacity: 1;"><g class="fills"/><g class="errorbars"/><g class="lines"><path class="js-line" d="M0.57,313.91L3.12,312.68L3.76,310.61L6.3,294.11L6.94,292.46L7.57,291.64L8.21,288.34L13.3,256.16L13.93,247.91L19.02,211.2L19.66,208.73L20.29,205.84L20.93,207.49L24.75,221.51L25.38,219.45L29.83,194.7L30.47,175.31L31.74,155.93L32.38,155.1L33.02,154.69L33.65,157.99L34.92,160.46L35.56,160.05L37.47,162.11L38.1,159.23L38.74,158.4L39.38,156.34L41.28,152.63L41.92,151.39L43.19,149.74L43.83,150.98L45.1,147.68L45.74,146.85L47.64,144.79L48.28,141.9L49.55,142.31L50.19,141.49L51.46,138.19L52.1,136.95L52.73,136.54L53.37,134.89L54.64,136.54L55.28,134.89L55.91,136.13L56.55,133.24L57.19,132.41L57.82,133.65L59.09,132.83L59.73,127.46L60.37,130.35L61,128.29L61.64,127.46L62.27,125.4L62.91,125.81L63.55,123.75L64.18,125.81L64.82,123.75L65.46,124.16L66.09,122.93L66.73,122.93L67.36,121.69L69.91,119.63L70.54,120.04L71.82,117.98L72.45,117.98L73.09,120.45L73.72,116.32L74.36,115.09L75,115.5L75.63,117.98L76.27,117.15L77.54,115.09L78.18,116.32L79.45,114.67L80.09,115.09L82.63,110.96L83.27,110.55L83.9,109.73L84.54,110.14L85.17,112.61L85.81,110.14L87.08,111.79L87.72,111.38L88.35,112.2L88.99,109.73L90.26,110.55L90.9,109.31L91.53,105.6L92.17,107.25L92.81,107.66L93.44,106.84L94.72,107.66L95.35,106.42L96.62,106.84L97.26,108.49L98.53,106.01L99.17,106.42L99.8,108.49L100.44,107.25L101.08,110.55L101.71,106.42L102.35,106.84L102.98,104.36L103.62,102.71L104.26,107.66L104.89,106.84L105.53,107.25L106.16,104.36L106.8,106.42L108.71,105.19L109.35,105.19L110.62,106.01L111.25,105.19L111.89,104.36L112.53,102.3L113.8,103.54L114.43,102.3L115.07,101.06L115.71,104.36L116.34,103.54L116.98,103.95L118.25,102.71L118.89,104.77L119.52,104.36L120.16,100.65L120.79,103.95L121.43,103.12L122.07,105.19L122.7,101.48L123.34,102.3L123.98,98.17L124.61,99.82L125.25,99L125.88,101.06L126.52,98.59L127.16,99.82L127.79,98.59L128.43,100.24L129.06,99.82L129.7,99L130.34,97.35L130.97,98.59L131.61,96.53L132.24,98.18L132.88,98.59L133.52,93.64L134.15,97.76L134.79,94.88L136.06,97.35L136.7,97.35L137.33,98.17L137.97,95.7L138.61,98.17L139.24,96.94L139.88,94.88L140.51,98.18L141.79,98.18L142.42,98.17L143.69,95.29L144.33,97.76L144.97,98.59L145.6,100.65L146.24,99.82L146.87,100.24L147.51,96.53L148.15,97.35L148.78,96.11L149.42,101.48L150.69,95.7L151.33,95.7L151.96,94.88L152.6,98.17L153.24,98.18L153.87,94.05L154.51,94.46L155.14,92.4L155.78,95.7L156.42,91.99L157.05,96.11L157.69,91.99L158.96,99.41L159.6,98.59L160.87,93.23L161.5,95.29L162.14,101.89L162.78,98.59L163.41,101.06L164.05,100.24L165.96,89.93L166.59,93.64L167.23,91.99L167.87,96.53L169.14,91.58L169.77,96.53L170.41,93.23L171.05,96.11L172.32,103.12L172.95,100.65L174.23,96.94L174.86,93.64L176.13,101.89L176.77,100.65L177.41,99.82L178.04,100.24L179.31,101.89L179.95,100.24L180.59,99L181.22,91.16L181.86,88.69L182.5,89.1L183.13,91.58L183.77,88.69L184.4,91.99L185.68,94.46L186.31,93.64L186.95,97.76L187.58,91.99L188.86,94.05L189.49,88.69L190.13,94.05L190.76,91.58L192.67,98.17L193.31,99.41L194.58,92.4L195.22,93.64L196.49,89.51L197.13,90.75L197.76,94.46L198.4,91.99L199.03,92.81L199.67,91.16L200.31,91.58L200.94,88.69L202.21,91.58L202.85,88.69L203.49,91.99L204.12,81.26L205.39,87.04L206.03,90.34L207.94,81.68L208.57,85.39L209.21,85.39L209.85,86.21L210.48,86.21L211.12,84.56L212.39,86.21L213.03,87.04L213.66,80.03L214.3,85.8L215.57,81.26L216.21,87.45L216.84,89.93L217.48,84.15L218.12,84.15L218.75,85.8L221.3,67.24L221.93,66.82L222.57,64.76L223.2,67.65L224.48,66L225.11,70.13L226.39,72.19L227.02,69.3L227.66,67.65L228.29,70.54L228.93,71.36L229.57,74.66L230.84,71.77L231.47,72.19L232.75,68.06L233.38,68.48L234.02,69.3L234.65,71.36L235.29,76.31L236.56,75.9L237.2,77.55L237.83,72.6L238.47,77.14L239.11,72.19L239.74,73.43L240.38,74.25L241.02,77.14L241.65,69.71L242.29,73.43L243.56,76.31L244.2,75.49L244.83,72.19L245.47,72.6L246.1,73.01L246.74,69.3L247.38,70.54L248.01,73.84L248.65,70.54L249.28,72.19L249.92,71.36L251.19,72.6L251.83,69.71L252.46,70.95L253.1,69.3L254.37,70.95L255.01,71.36L255.65,70.13L256.28,71.36L256.92,70.13L257.55,73.84L260.1,64.76L260.73,70.95L262.01,65.18L262.64,69.3L263.28,75.07L263.91,73.43L265.19,72.6L265.82,74.66L267.09,78.38L267.73,76.72L268.37,75.49L269,76.31L270.28,73.43L270.91,73.84L271.55,78.38L272.18,76.72L273.46,71.36L274.09,74.66L274.73,73.43L275.36,79.2L276,76.72" style="vector-effect: none; fill: none; stroke: rgb(117, 112, 179); stroke-opacity: 1; stroke-width: 1.7px; opacity: 1;"/></g><g class="points"/><g class="text"/></g><g class="trace scatter trace99a814" style="stroke-miterlimit: 2; opacity: 1;"><g class="fills"/><g class="errorbars"/><g class="lines"><path class="js-line" d="M0.57,311.44L1.21,311.85L1.85,310.61L2.48,308.55L3.12,309.38L4.39,301.54L5.03,296.59L10.75,271.43L11.39,265.65L14.57,242.55L15.2,238.01L17.75,220.69L18.39,216.56L20.93,202.54L21.57,200.89L22.84,197.18L23.47,196.76L24.11,198.41L24.75,195.53L26.65,182.74L27.29,177.38L27.93,179.03L28.56,176.55L29.2,165L29.83,165.41L30.47,163.76L31.74,155.51L32.38,159.23L34.29,162.94L34.92,162.94L36.2,161.29L36.83,162.94L37.47,162.11L38.1,159.64L38.74,159.64L39.38,156.75L40.01,157.16L40.65,156.34L41.92,155.1L42.56,153.45L43.19,151.8L43.83,153.45L45.1,150.56L45.74,149.32L46.37,149.74L47.01,148.5L47.64,148.09L48.28,146.44L49.55,146.03L50.19,143.96L50.83,140.66L51.46,141.07L52.1,140.25L54.01,138.19L54.64,138.6L55.28,137.77L55.91,138.6L57.19,134.48L57.82,134.89L59.09,133.65L59.73,128.7L60.37,131.18L61,129.11L61.64,128.7L62.27,127.05L63.55,125.81L64.18,126.64L65.46,124.16L66.09,123.34L68,120.45L68.64,121.28L69.91,119.21L70.54,119.21L71.18,118.8L71.82,117.15L72.45,117.15L73.09,118.39L74.36,113.85L75,114.26L75.63,115.91L76.27,115.5L76.9,113.85L77.54,113.85L78.18,114.67L83.9,106.84L84.54,107.25L85.17,109.31L85.81,106.84L87.72,108.07L88.35,108.49L89.63,105.19L90.26,106.42L91.53,101.89L92.17,103.12L94.08,103.12L94.72,102.3L95.35,102.3L95.99,103.95L96.62,103.12L97.26,105.19L97.9,104.36L98.53,101.89L99.17,102.3L99.8,105.19L100.44,104.36L101.08,106.84L102.35,103.54L102.98,102.3L103.62,99.82L104.26,103.95L104.89,103.12L105.53,105.19L106.16,101.89L106.8,103.54L107.44,103.12L108.07,100.65L109.98,102.3L110.62,103.95L111.89,99L112.53,100.24L113.16,100.24L113.8,99.41L115.07,98.18L115.71,98.59L116.34,96.94L116.98,98.59L117.61,100.24L118.25,96.53L119.52,99.82L120.16,92.81L121.43,97.76L122.07,98.59L122.7,95.7L123.34,97.76L123.98,94.88L124.61,96.94L125.25,94.88L125.88,98.59L126.52,95.7L127.16,97.35L127.79,94.88L128.43,95.29L129.06,95.29L130.34,94.46L130.97,95.7L131.61,93.64L132.24,94.46L132.88,96.53L133.52,93.64L134.15,96.94L134.79,93.64L135.42,96.53L136.06,93.64L137.33,95.29L137.97,94.05L138.61,98.17L139.24,95.7L139.88,92.81L140.51,98.18L141.15,97.35L141.79,93.64L142.42,95.7L143.06,91.99L143.69,89.93L144.33,92.4L144.97,91.99L145.6,92.81L146.87,92.81L147.51,91.58L148.78,91.58L149.42,93.64L150.05,89.51L150.69,90.34L151.33,90.34L151.96,86.63L153.24,94.88L153.87,91.58L154.51,94.05L155.14,93.23L156.42,88.28L157.05,91.16L157.69,86.63L158.32,88.69L159.6,90.34L160.23,88.28L160.87,86.21L161.5,88.28L162.14,91.99L162.78,90.75L164.05,93.23L164.68,92.81L167.23,82.91L167.87,89.51L168.5,85.39L169.14,85.8L169.77,89.1L171.05,83.74L171.68,84.56L173.59,82.91L174.23,83.33L174.86,77.14L175.5,79.61L176.77,89.1L177.41,87.45L178.68,89.51L179.31,84.98L180.59,88.69L181.22,86.21L182.5,86.21L183.13,84.98L184.4,84.56L185.04,87.45L185.68,79.2L186.31,85.39L186.95,89.51L187.58,86.63L188.22,85.8L188.86,81.26L189.49,76.31L190.13,82.5L190.76,79.61L191.4,83.33L193.31,89.1L193.94,85.39L194.58,89.1L195.22,87.04L196.49,88.69L197.13,87.45L197.76,89.93L198.4,86.63L199.03,83.74L199.67,84.15L200.31,87.04L201.58,81.68L202.21,82.09L202.85,86.21L203.49,89.51L204.12,80.03L204.76,84.15L205.39,83.33L206.03,86.21L206.67,85.8L207.3,89.51L207.94,84.98L208.57,86.21L209.21,87.04L209.85,84.98L211.12,79.61L211.76,84.56L213.66,83.33L214.3,85.39L214.94,77.55L215.57,79.2L216.21,85.39L216.84,83.74L217.48,82.5L218.12,84.98L218.75,85.8L219.39,84.15L220.02,85.39L220.66,84.56L221.93,82.09L222.57,83.33L223.2,85.39L223.84,83.33L225.11,83.74L225.75,82.09L227.02,85.39L227.66,80.03L229.57,88.28L230.2,85.8L230.84,84.15L231.47,87.04L233.38,77.96L234.02,78.79L234.65,81.26L235.29,80.03L236.56,83.33L237.2,82.09L237.83,79.61L238.47,84.15L239.74,84.98L240.38,85.39L241.02,81.68L241.65,70.95L242.92,75.07L243.56,81.26L244.2,78.79L244.83,83.33L245.47,81.68L246.1,83.74L246.74,90.75L247.38,85.8L248.01,89.1L248.65,82.5L249.28,85.39L249.92,83.74L250.56,85.39L251.19,84.98L251.83,84.56L252.46,86.63L253.1,84.98L253.74,84.15L254.37,85.39L255.01,83.33L255.65,87.45L256.28,82.5L256.92,83.33L257.55,80.44L258.83,79.2L259.46,81.26L260.1,77.96L260.73,80.85L261.37,87.04L262.01,82.91L262.64,82.5L263.28,84.15L264.55,82.09L265.19,77.96L266.46,81.68L267.09,82.09L267.73,84.56L268.37,77.96L269.64,87.86L270.28,84.15L270.91,79.2L271.55,84.56L272.18,87.45L272.82,81.26L273.46,80.85L274.09,82.5L274.73,75.07L275.36,78.38L276,83.33" style="vector-effect: none; fill: none; stroke: rgb(117, 112, 179); stroke-opacity: 1; stroke-width: 1.7px; opacity: 1;"/></g><g class="points"/><g class="text"/></g><g class="trace scatter tracebfb83f" style="stroke-miterlimit: 2; opacity: 1;"><g class="fills"/><g class="errorbars"/><g class="lines"><path class="js-line" d="M0.57,310.61L1.85,310.2L2.48,308.96L3.12,308.14L3.76,305.25L5.03,296.18L5.66,296.18L7.57,293.29L8.21,287.93L8.84,287.1L9.48,282.98L18.39,212.03L19.02,209.55L20.93,201.71L21.57,199.65L23.47,190.58L24.11,190.58L27.29,173.66L27.93,166.65L29.2,162.94L29.83,154.28L31.11,150.15L31.74,150.56L33.65,157.99L34.29,159.64L36.2,160.46L36.83,162.11L37.47,161.7L38.1,159.64L38.74,159.64L39.38,156.75L40.01,156.75L40.65,155.51L41.92,153.86L42.56,153.04L43.19,150.56L43.83,151.39L45.74,146.85L46.37,146.03L48.92,141.9L49.55,141.49L50.83,136.54L51.46,136.95L53.37,134.06L54.01,133.24L54.64,133.24L55.28,130.76L55.91,132.83L56.55,128.7L57.82,130.35L58.46,127.88L59.09,126.64L59.73,123.34L60.37,124.57L61,123.75L61.64,122.51L62.27,119.63L62.91,120.86L63.55,118.39L64.18,120.04L64.82,117.56L65.46,118.8L66.09,116.74L66.73,116.74L67.36,115.09L68,115.09L68.64,114.26L69.27,112.61L69.91,113.02L70.54,114.26L71.82,110.96L72.45,110.55L73.09,111.79L73.72,108.9L75,108.49L75.63,110.55L76.9,106.84L77.54,106.84L78.18,108.07L78.81,107.66L79.45,106.84L81.36,103.95L81.99,105.19L82.63,102.3L83.27,103.12L83.9,100.65L84.54,101.89L85.17,104.36L85.81,101.06L86.45,101.89L87.08,100.65L88.35,101.89L88.99,99.41L89.63,101.06L90.26,100.65L90.9,99L91.53,95.29L92.17,98.18L94.08,97.76L94.72,97.35L95.35,95.7L95.99,96.94L97.9,98.18L98.53,95.29L99.17,97.76L99.8,96.53L100.44,96.53L101.08,98.59L101.71,95.29L102.35,96.94L102.98,95.7L103.62,92.4L104.26,97.76L104.89,96.53L105.53,96.94L106.16,94.05L106.8,94.05L107.44,94.88L108.07,92.81L108.71,93.64L109.35,92.81L109.98,95.29L110.62,94.88L111.25,92.81L111.89,94.46L112.53,91.58L113.16,94.46L113.8,93.23L115.07,90.75L115.71,94.05L116.34,92.81L116.98,94.88L118.25,91.58L118.89,94.05L120.16,90.34L120.79,93.64L123.98,88.69L124.61,91.58L125.25,91.16L125.88,92.4L126.52,88.69L127.16,91.16L127.79,91.16L128.43,90.34L129.06,88.28L129.7,88.69L130.34,88.28L130.97,91.99L131.61,85.8L132.24,88.28L132.88,87.86L133.52,84.98L134.79,87.04L135.42,86.63L136.06,85.8L136.7,83.74L137.33,86.21L137.97,83.33L138.61,85.39L139.24,84.15L139.88,82.5L140.51,84.56L141.79,83.74L142.42,81.26L143.06,76.72L143.69,78.79L144.33,83.33L144.97,80.44L145.6,85.39L146.24,81.68L148.15,79.61L148.78,76.31L149.42,82.91L150.05,76.31L151.33,79.2L151.96,79.61L152.6,80.85L153.24,77.55L153.87,74.66L154.51,76.72L155.14,73.84L155.78,77.14L156.42,74.66L157.05,75.9L157.69,69.71L158.32,73.01L158.96,74.66L159.6,72.19L160.87,67.65L161.5,70.95L162.14,73.84L162.78,71.77L163.41,73.01L164.05,70.13L164.68,70.54L165.32,68.89L165.96,67.65L166.59,61.46L167.23,63.11L167.87,68.06L168.5,63.11L169.14,64.76L169.77,68.06L170.41,60.64L171.05,60.64L171.68,63.94L172.32,63.94L172.95,67.24L174.23,62.29L174.86,61.88L175.5,58.99L176.13,65.59L177.41,62.29L178.04,63.11L178.68,64.35L179.31,60.64L180.59,61.46L181.22,54.86L182.5,55.27L183.13,58.99L183.77,56.93L184.4,58.16L185.04,63.11L185.68,58.57L186.31,56.51L186.95,59.81L188.22,52.8L188.86,54.45L189.49,47.02L190.13,54.45L190.76,50.32L191.4,53.21L192.04,54.45L192.67,61.46L193.31,58.16L193.94,49.5L194.58,55.27L195.22,54.45L195.85,57.75L197.13,53.21L197.76,56.51L199.67,55.27L200.31,53.63L201.58,51.15L202.21,56.51L202.85,56.1L203.49,58.16L204.12,47.85L204.76,51.15L205.39,53.21L206.03,59.81L206.67,51.97L207.3,54.04L207.94,50.32L208.57,55.27L209.21,54.45L209.85,50.74L211.12,39.6L211.76,48.67L212.39,53.21L213.03,51.15L213.66,47.44L214.3,53.63L215.57,46.61L216.21,48.26L216.84,49.91L217.48,44.14L218.12,38.36L218.75,52.39L219.39,46.61L220.02,52.8L220.66,38.78L221.3,40.84L221.93,38.78L222.57,37.13L223.2,39.19L223.84,37.54L224.48,42.08L225.11,38.78L225.75,40.84L226.39,44.55L227.02,40.01L228.93,47.85L229.57,49.5L230.2,41.66L230.84,48.26L232.75,29.29L233.38,31.35L234.02,34.24L234.65,41.66L235.93,46.2L236.56,43.31L237.2,41.25L237.83,35.06L238.47,38.78L239.11,34.24L239.74,42.08L240.38,40.84L241.02,44.14L241.65,37.54L242.29,40.43L242.92,42.08L243.56,40.43L245.47,30.53L246.1,35.06L247.38,29.29L248.01,38.78L248.65,32.18L249.28,33L249.92,36.71L250.56,33.82L251.19,34.65L251.83,38.78L252.46,36.3L253.1,34.65L253.74,35.89L255.01,32.18L255.65,27.23L256.92,28.05L257.55,32.18L258.19,27.23L258.83,29.7L259.46,22.27L260.1,23.51L260.73,33.82L261.37,32.59L262.01,23.93L263.28,39.6L263.91,26.4L264.55,25.99L265.19,30.11L266.46,23.51L267.09,28.05L267.73,24.75L268.37,26.81L269,28.88L269.64,24.75L270.28,25.16L270.91,22.69L271.55,28.46L272.18,25.16L273.46,20.63L274.09,30.11L274.73,23.51L275.36,30.53L276,25.99" style="vector-effect: none; fill: none; stroke: rgb(117, 112, 179); stroke-opacity: 1; stroke-width: 1.7px; opacity: 1;"/></g><g class="points"/><g class="text"/></g><g class="trace scatter traceee6859" style="stroke-miterlimit: 2; opacity: 1;"><g class="fills"/><g class="errorbars"/><g class="lines"><path class="js-line" d="M0,309.38L4.14,300.98L5.52,297.5L9.67,284.5L11.05,279.16L15.19,259.42L16.57,251.43L20.71,222.67L22.09,211.41L34.52,101.14L35.9,94.74L38.66,87.53L40.04,85.82L42.81,84.26L44.19,83.93L52.47,83.54L53.85,83.54L157.42,83.53L158.8,83.53L274.79,83.53" style="vector-effect: none; fill: none; stroke: rgb(117, 112, 179); stroke-opacity: 1; stroke-dasharray: 9px, 9px; stroke-width: 1.7px; opacity: 1;"/></g><g class="points"/><g class="text"/></g><g class="trace scatter trace1d591f" style="stroke-miterlimit: 2; opacity: 1;"><g class="fills"/><g class="errorbars"/><g class="lines"><path class="js-line" d="M0.57,305.25L4.39,289.99L5.03,284.63L6.94,269.36L7.57,266.06L9.48,253.69L10.12,250.8L12.02,242.96L12.66,241.31L15.2,223.58L15.84,216.98L17.11,216.56L17.75,213.68L19.02,205.43L19.66,207.08L20.29,202.13L20.93,202.95L21.57,201.3L22.84,203.78L23.47,202.13L26.65,198.41L27.29,194.7L27.93,193.88L28.56,194.7L29.83,195.11L30.47,190.16L32.38,183.98L33.02,183.98L34.29,170.78L34.92,169.13L36.2,154.69L36.83,155.93L37.47,161.29L38.1,147.68L39.38,139.42L40.01,140.25L42.56,124.99L43.19,121.69L43.83,122.51L44.46,118.39L45.1,112.2L45.74,117.98L47.01,103.95L47.64,106.01L48.28,99.82L48.92,105.6L49.55,110.14L50.19,107.66L52.1,95.29L52.73,96.11L53.37,94.05L54.01,89.1L54.64,99L55.91,108.9L56.55,94.88L57.19,94.05L57.82,96.94L59.09,87.86L59.73,80.85L60.37,82.09L61,80.03L61.64,78.38L62.27,70.54L62.91,74.66L63.55,69.71L64.18,69.3L64.82,66.41L65.46,70.13L66.09,68.89L66.73,71.36L67.36,70.54L68,76.31L68.64,71.77L69.27,65.59L69.91,67.24L70.54,69.71L71.18,65.18L72.45,66.82L73.09,70.13L74.36,61.88L75,63.52L75.63,69.71L76.27,68.48L76.9,68.89L77.54,68.06L78.18,69.71L78.81,67.24L80.09,69.71L80.72,68.48L81.36,62.29L81.99,65.18L82.63,61.46L83.27,64.76L83.9,61.05L84.54,64.35L85.17,69.71L85.81,67.24L86.45,68.89L87.08,66.82L88.99,65.18L89.63,70.13L90.26,68.06L90.9,68.48L91.53,63.11L92.17,67.24L92.81,66.82L93.44,67.65L94.72,68.89L95.35,66L95.99,66.41L96.62,69.71L97.9,73.43L98.53,67.24L99.17,72.19L99.8,70.54L100.44,71.77L101.08,75.9L101.71,70.13L102.35,73.84L102.98,72.6L103.62,65.59L104.89,74.66L105.53,74.25L106.8,71.77L107.44,70.95L108.07,68.48L108.71,72.19L109.35,70.54L109.98,74.25L110.62,74.25L111.25,70.54L111.89,75.07L112.53,69.71L113.16,73.01L113.8,72.6L114.43,70.54L115.07,68.89L115.71,73.84L116.34,73.43L116.98,75.9L118.25,67.65L118.89,71.77L119.52,70.54L120.16,66.82L121.43,74.25L122.07,72.6L122.7,72.6L123.34,70.95L123.98,67.65L124.61,71.36L125.88,72.19L126.52,66.82L127.79,72.19L128.43,73.43L129.06,69.71L129.7,70.13L130.34,67.65L130.97,73.43L131.61,66.41L132.24,70.95L132.88,68.48L133.52,65.59L134.15,69.71L136.06,70.54L136.7,68.06L137.33,71.36L137.97,64.76L138.61,69.3L139.24,67.24L141.15,69.71L141.79,67.65L142.42,67.24L143.06,60.22L143.69,63.11L144.33,70.13L144.97,66.82L145.6,71.36L146.87,65.18L147.51,66L148.15,66L148.78,62.29L149.42,70.54L150.05,61.88L150.69,64.76L151.33,63.11L151.96,61.88L152.6,67.24L153.24,66L153.87,61.05L154.51,62.29L155.14,60.64L155.78,62.29L156.42,59.81L157.05,65.18L157.69,61.05L158.32,66.41L158.96,63.52L159.6,63.94L160.23,60.64L160.87,61.46L161.5,66.41L162.14,69.3L162.78,67.24L163.41,69.3L164.05,64.76L164.68,66.82L165.32,63.94L165.96,62.7L166.59,55.69L167.87,64.76L168.5,59.4L169.77,65.18L170.41,58.57L171.68,60.22L172.32,65.18L172.95,65.59L173.59,59.4L174.23,57.75L174.86,58.16L175.5,50.32L176.13,61.88L176.77,61.46L177.41,58.99L178.04,58.16L178.68,58.57L179.31,56.51L179.95,58.57L180.59,62.29L181.22,56.1L182.5,47.85L183.13,52.39L183.77,47.44L184.4,48.67L185.04,54.45L185.68,50.74L186.95,59.4L187.58,49.91L188.86,55.27L189.49,48.67L190.13,56.51L190.76,51.56L192.04,56.1L192.67,64.76L193.31,60.64L193.94,49.91L194.58,58.57L195.22,56.51L195.85,60.64L196.49,57.34L197.13,55.69L197.76,58.99L198.4,58.57L199.03,53.63L199.67,54.45L200.31,51.97L200.94,53.63L201.58,51.97L202.21,58.99L202.85,57.34L203.49,58.16L204.12,45.38L206.03,62.29L206.67,56.51L207.3,58.99L207.94,56.51L208.57,57.34L209.21,56.1L209.85,57.75L210.48,46.2L211.12,40.01L211.76,49.91L212.39,56.93L213.03,53.21L213.66,51.56L214.3,57.34L215.57,49.91L216.21,54.86L216.84,56.93L217.48,50.74L218.12,41.25L218.75,54.45L219.39,46.61L220.02,55.27L221.3,43.73L221.93,50.32L222.57,48.67L223.2,44.96L224.48,50.74L225.11,44.96L225.75,49.5L226.39,48.67L227.02,46.2L228.29,48.67L228.93,56.51L229.57,56.51L230.2,49.5L230.84,52.8L231.47,43.31L232.11,47.03L232.75,44.14L233.38,40.43L234.02,47.85L235.93,61.88L236.56,56.51L237.2,56.1L237.83,44.14L238.47,49.09L239.11,41.25L239.74,52.39L240.38,47.44L241.02,57.34L241.65,45.38L242.92,53.21L243.56,50.32L244.83,45.38L245.47,47.44L246.1,45.38L246.74,35.89L248.01,52.39L248.65,44.14L249.28,43.31L249.92,49.5L250.56,46.2L251.19,46.61L251.83,47.44L252.46,49.09L253.1,43.31L253.74,49.09L254.37,47.85L255.65,34.65L256.28,39.19L256.92,39.6L257.55,43.73L258.19,37.54L258.83,42.49L259.46,35.06L260.1,40.84L260.73,51.56L261.37,45.79L262.01,36.3L262.64,44.96L263.28,49.5L263.91,40.01L265.82,44.96L266.46,42.9L267.09,47.03L267.73,43.73L268.37,47.44L269,44.55L269.64,36.71L270.28,40.43L270.91,40.84L271.55,46.61L272.18,37.95L272.82,39.19L273.46,38.36L274.09,44.96L274.73,40.01L275.36,46.61L276,37.95" style="vector-effect: none; fill: none; stroke: rgb(217, 95, 2); stroke-opacity: 1; stroke-width: 1.7px; opacity: 1;"/></g><g class="points"/><g class="text"/></g><g class="trace scatter traceed7323" style="stroke-miterlimit: 2; opacity: 1;"><g class="fills"/><g class="errorbars"/><g class="lines"><path class="js-line" d="M0.57,306.9L3.76,296.18L4.39,290.81L8.21,270.6L8.84,269.36L9.48,268.13L10.12,265.24L10.75,264L11.39,260.29L13.3,256.58L13.93,254.1L15.2,249.56L15.84,246.68L17.11,244.61L17.75,242.55L19.02,235.54L19.66,236.77L21.57,230.59L22.2,228.11L22.84,229.35L23.47,228.11L27.93,212.44L28.56,212.85L29.2,211.2L29.83,207.08L30.47,207.49L31.11,204.19L31.74,202.13L32.38,202.95L33.02,205.01L33.65,203.78L34.29,200.48L34.92,201.3L38.74,177.38L39.38,173.66L41.28,157.16L41.92,155.51L43.19,143.96L43.83,143.96L44.46,138.19L45.1,139.01L45.74,139.42L48.28,127.88L48.92,127.88L50.19,131.18L50.83,121.28L51.46,122.51L52.1,118.39L54.64,113.44L55.28,97.35L55.91,129.53L56.55,128.7L57.19,123.34L59.09,117.98L59.73,110.96L60.37,112.2L61,110.96L63.55,100.65L64.18,101.48L65.46,97.76L66.09,97.35L67.36,96.53L68,98.17L69.91,94.46L70.54,96.11L71.82,93.64L72.45,94.46L73.09,96.11L73.72,93.23L74.36,91.99L75,92.81L75.63,94.46L76.27,94.05L76.9,94.46L77.54,94.05L78.18,95.7L81.36,94.05L81.99,94.05L83.27,91.58L83.9,90.34L84.54,91.16L85.17,93.23L85.81,91.16L86.45,92.4L88.35,92.81L88.99,90.34L90.26,91.99L90.9,91.16L91.53,87.86L92.17,89.1L92.81,90.34L93.44,89.93L94.08,90.34L94.72,90.75L95.35,89.51L96.62,89.93L97.26,91.99L97.9,91.58L98.53,89.93L99.8,92.4L100.44,91.99L101.08,95.29L101.71,92.81L102.35,92.81L102.98,91.58L103.62,88.69L104.26,93.23L104.89,93.23L105.53,94.88L106.16,92.81L106.8,94.05L107.44,94.05L108.07,91.99L110.62,94.46L111.25,92.81L111.89,92.81L112.53,91.99L113.8,92.81L114.43,91.58L115.07,89.93L115.71,92.81L116.34,93.23L116.98,94.88L118.25,91.58L118.89,93.64L119.52,94.46L120.16,90.34L121.43,94.88L122.07,95.7L122.7,92.81L123.34,94.05L123.98,92.81L124.61,94.05L125.25,93.64L125.88,96.11L126.52,93.64L127.16,94.05L127.79,93.64L129.06,94.46L129.7,94.46L130.34,93.64L130.97,95.7L131.61,93.64L132.24,94.46L132.88,95.29L133.52,93.23L134.15,96.11L134.79,94.05L135.42,96.11L136.06,94.88L137.33,96.53L137.97,94.88L138.61,96.53L139.24,95.29L139.88,94.88L140.51,97.35L141.15,97.35L141.79,96.53L142.42,96.94L143.06,94.88L143.69,94.05L144.33,96.11L145.6,97.76L146.24,96.94L147.51,95.7L148.15,96.53L148.78,93.23L149.42,97.76L150.05,94.46L150.69,96.11L151.96,94.46L152.6,96.94L153.24,97.76L153.87,94.05L154.51,94.88L155.14,94.05L155.78,95.7L156.42,93.64L157.05,96.94L157.69,93.64L158.96,97.35L159.6,98.59L160.87,94.88L161.5,96.53L162.14,100.65L162.78,99L163.41,99.82L164.05,99L164.68,99L165.32,96.94L166.59,93.23L167.23,94.05L167.87,99L168.5,96.11L169.14,95.7L169.77,99L170.41,94.88L171.05,96.53L171.68,96.53L172.32,98.17L172.95,99L173.59,96.11L174.23,96.53L174.86,94.46L175.5,94.46L176.13,98.59L176.77,99L177.41,97.76L178.68,97.76L179.31,95.29L180.59,98.17L181.22,94.88L182.5,92.81L183.13,96.11L183.77,94.46L184.4,95.7L185.04,95.7L185.68,93.64L186.95,98.59L187.58,93.23L188.86,96.53L189.49,91.58L190.13,96.94L190.76,94.05L193.31,100.24L193.94,95.29L194.58,98.59L195.22,96.11L195.85,97.35L196.49,96.94L197.13,97.76L197.76,99.82L199.03,95.29L199.67,96.11L200.31,96.11L200.94,94.88L201.58,93.23L202.21,96.94L203.49,99.41L204.12,91.58L206.03,100.24L206.67,97.76L207.3,99L207.94,96.53L208.57,97.76L209.21,97.35L209.85,97.35L210.48,94.46L211.12,91.16L211.76,96.94L212.39,99.41L213.03,97.76L213.66,96.53L214.3,99L215.57,95.7L216.21,98.59L216.84,98.59L217.48,95.7L218.12,92.81L218.75,99.82L219.39,96.11L220.02,99L221.3,94.05L221.93,96.53L222.57,95.29L223.2,91.99L224.48,96.94L225.11,91.58L226.39,97.35L227.02,96.53L227.66,95.29L228.29,96.94L229.57,100.65L230.2,96.11L230.84,97.35L231.47,94.05L232.11,94.05L232.75,92.81L233.38,90.75L234.02,96.53L235.93,101.48L236.56,100.24L237.2,100.65L237.83,95.7L238.47,98.18L239.11,93.64L239.74,98.59L240.38,97.76L241.02,102.3L241.65,96.11L242.29,98.59L242.92,99.82L243.56,99L244.83,94.88L245.47,96.53L246.1,95.29L246.74,91.99L248.01,99.82L248.65,95.29L249.92,97.35L250.56,96.11L251.19,96.53L251.83,95.29L252.46,97.76L253.1,95.29L253.74,98.17L254.37,97.76L255.01,96.53L255.65,92.4L256.28,94.05L256.92,92.81L257.55,94.88L258.19,91.58L258.83,94.46L259.46,91.58L260.1,93.64L260.73,100.24L261.37,98.18L262.01,92.4L262.64,96.94L263.28,100.24L263.91,95.7L264.55,95.29L265.19,96.94L265.82,96.94L266.46,95.7L267.09,99L267.73,96.53L268.37,97.76L269,96.94L269.64,92.4L270.28,94.88L270.91,95.29L271.55,98.18L272.82,94.05L273.46,93.23L274.09,96.53L274.73,94.05L275.36,98.59L276,94.05" style="vector-effect: none; fill: none; stroke: rgb(217, 95, 2); stroke-opacity: 1; stroke-width: 1.7px; opacity: 1;"/></g><g class="points"/><g class="text"/></g><g class="trace scatter trace1ca7b8" style="stroke-miterlimit: 2; opacity: 1;"><g class="fills"/><g class="errorbars"/><g class="lines"><path class="js-line" d="M0.57,306.49L3.76,293.29L4.39,287.1L6.94,267.71L7.57,265.24L9.48,256.58L10.12,254.1L11.39,247.5L12.02,247.91L12.66,247.5L13.3,246.26L13.93,243.38L15.2,240.9L15.84,237.19L19.02,230.59L19.66,229.76L20.93,227.7L21.57,224.4L22.2,223.99L22.84,222.34L23.47,221.93L24.11,219.86L27.93,207.49L28.56,207.9L30.47,202.13L31.11,201.71L31.74,198.83L32.38,203.78L33.65,199.65L34.29,198.41L34.92,197.59L35.56,190.16L37.47,183.56L38.1,173.25L39.38,167.06L40.01,157.99L42.56,142.31L43.19,139.84L43.83,140.66L44.46,134.89L45.1,135.3L45.74,138.6L48.28,127.05L48.92,129.53L50.19,131.18L50.83,121.28L51.46,123.34L52.1,119.63L54.01,114.67L54.64,115.09L55.28,99L55.91,102.3L57.19,129.11L57.82,124.57L58.46,122.93L59.09,118.8L60.37,110.14L61,107.25L64.82,90.34L65.46,90.34L67.36,87.86L68,89.51L69.91,82.91L70.54,83.33L71.82,80.44L72.45,80.85L73.09,83.74L73.72,79.61L74.36,78.38L75,80.44L76.27,83.74L76.9,84.15L77.54,84.56L78.18,86.21L79.45,84.98L80.09,85.8L81.36,83.33L81.99,84.15L83.9,81.68L84.54,83.33L85.17,86.21L85.81,84.98L87.08,87.04L87.72,86.21L88.35,86.63L88.99,84.15L90.26,86.21L90.9,85.8L91.53,82.5L92.17,84.56L94.08,86.21L94.72,86.63L95.35,85.39L95.99,86.63L96.62,86.21L97.26,88.69L97.9,88.28L98.53,85.8L100.44,89.1L101.08,91.99L101.71,89.1L102.35,89.51L102.98,88.69L103.62,84.98L104.26,90.34L104.89,89.93L105.53,91.16L106.16,88.69L106.8,89.1L107.44,89.51L108.07,87.45L108.71,88.28L110.62,90.75L111.25,88.69L112.53,87.45L113.16,88.28L113.8,89.1L114.43,87.86L115.07,86.21L115.71,89.1L116.34,89.1L116.98,90.34L118.25,86.63L118.89,89.1L119.52,89.51L120.16,85.39L121.43,89.93L122.07,90.34L122.7,87.86L123.34,88.69L123.98,87.45L124.61,89.1L125.25,88.69L125.88,90.75L126.52,88.28L127.16,89.1L129.7,89.1L130.34,87.86L130.97,90.34L131.61,87.86L132.88,89.1L133.52,87.04L134.15,90.34L134.79,88.69L135.42,89.93L136.06,89.1L136.7,88.69L137.33,90.34L137.97,88.28L138.61,90.75L139.88,88.69L140.51,91.16L141.15,91.16L141.79,89.93L142.42,89.93L143.06,87.86L143.69,86.63L144.33,89.51L145.6,90.75L146.24,89.93L146.87,88.69L147.51,89.1L148.15,89.51L148.78,86.21L149.42,91.16L150.05,87.45L150.69,89.1L151.33,87.86L151.96,87.04L152.6,89.93L153.24,90.34L153.87,87.04L154.51,87.04L155.14,86.21L155.78,87.86L156.42,85.39L157.05,89.51L157.69,86.21L158.96,89.93L159.6,91.16L160.87,87.04L161.5,89.1L162.14,92.81L162.78,91.58L163.41,92.4L164.05,91.16L164.68,91.58L165.32,89.51L166.59,85.8L167.23,86.63L167.87,91.16L168.5,88.28L169.14,88.28L169.77,91.16L170.41,87.04L171.05,88.69L171.68,88.69L172.32,89.93L172.95,91.16L173.59,88.28L174.23,88.28L174.86,86.21L175.5,85.8L176.13,90.34L176.77,91.16L177.41,89.93L178.04,89.1L178.68,89.51L179.31,87.45L179.95,89.93L180.59,90.75L181.22,87.04L182.5,84.15L183.13,87.45L183.77,85.8L184.4,86.63L185.04,87.45L185.68,84.56L186.95,89.93L187.58,84.56L188.86,87.86L189.49,82.5L190.13,88.28L190.76,85.39L193.31,91.99L193.94,86.63L194.58,89.93L195.22,88.28L195.85,89.51L196.49,88.69L197.13,89.51L197.76,91.58L199.03,87.04L199.67,88.28L200.94,87.04L201.58,84.98L202.85,89.93L203.49,91.16L204.12,83.33L204.76,86.63L205.39,87.04L206.03,92.4L206.67,89.51L207.3,90.75L207.94,89.1L208.57,89.51L209.21,89.51L209.85,89.51L210.48,86.21L211.12,82.5L211.76,87.45L212.39,90.75L213.03,89.51L213.66,88.28L214.3,90.75L215.57,87.45L216.21,90.34L216.84,90.34L217.48,87.45L218.12,83.74L218.75,91.16L219.39,87.86L220.02,91.16L221.3,85.39L221.93,88.69L223.2,83.74L223.84,87.45L224.48,88.69L225.11,83.74L226.39,89.1L227.02,87.86L227.66,87.04L228.29,88.28L229.57,92.81L230.2,87.86L230.84,89.51L231.47,85.8L232.11,86.21L232.75,84.15L233.38,82.09L234.02,88.28L235.93,94.46L236.56,92.81L237.2,93.23L237.83,87.86L238.47,90.34L239.11,85.8L241.02,94.88L241.65,88.28L242.92,92.4L243.56,91.58L244.2,90.34L244.83,87.45L245.47,89.1L246.1,87.86L246.74,83.74L247.38,87.04L248.01,91.99L248.65,87.45L249.28,87.86L249.92,89.93L250.56,88.28L251.19,89.1L251.83,87.86L252.46,90.75L253.1,87.45L253.74,90.34L254.37,90.34L255.01,88.28L255.65,84.15L256.28,86.21L256.92,84.56L257.55,86.63L258.19,83.33L258.83,87.04L259.46,83.33L260.1,85.39L260.73,92.4L261.37,90.75L262.01,84.98L262.64,89.93L263.28,92.81L263.91,88.28L264.55,87.86L265.19,89.51L265.82,89.51L266.46,88.69L267.09,91.58L267.73,89.51L268.37,90.75L269,89.51L269.64,84.98L270.28,87.45L270.91,87.86L271.55,90.34L272.82,86.21L273.46,85.8L274.09,89.1L274.73,86.63L275.36,91.58L276,86.63" style="vector-effect: none; fill: none; stroke: rgb(217, 95, 2); stroke-opacity: 1; stroke-width: 1.7px; opacity: 1;"/></g><g class="points"/><g class="text"/></g><g class="trace scatter trace9f8ba3" style="stroke-miterlimit: 2; opacity: 1;"><g class="fills"/><g class="errorbars"/><g class="lines"><path class="js-line" d="M0,309.38L4.14,298.53L5.52,293.77L9.67,274.77L11.05,266.46L15.19,233.39L16.57,219L20.71,162.57L22.09,138.81L24.86,89.5L26.24,83.58L48.33,83.53L49.71,83.53L274.79,83.53" style="vector-effect: none; fill: none; stroke: rgb(217, 95, 2); stroke-opacity: 1; stroke-dasharray: 9px, 9px; stroke-width: 1.7px; opacity: 1;"/></g><g class="points"/><g class="text"/></g></g></g></g><path class="xlines-above crisp" d="M0,0" style="fill: none;"/><path class="ylines-above crisp" d="M0,0" style="fill: none;"/><g class="overlines-above"/><g class="xaxislayer-above"><g class="xtick"><text text-anchor="middle" x="0" y="365" transform="translate(40,0)" style="font-family: 'Open Sans', verdana, arial, sans-serif; font-size: 14px; fill: rgb(0, 0, 0); fill-opacity: 1; white-space: pre; opacity: 1;">0</text></g><g class="xtick"><text text-anchor="middle" x="0" y="365" style="font-family: 'Open Sans', verdana, arial, sans-serif; font-size: 14px; fill: rgb(0, 0, 0); fill-opacity: 1; white-space: pre; opacity: 1;" transform="translate(62.9,0)">6</text></g><g class="xtick"><text text-anchor="middle" x="0" y="365" style="font-family: 'Open Sans', verdana, arial, sans-serif; font-size: 14px; fill: rgb(0, 0, 0); fill-opacity: 1; white-space: pre; opacity: 1;" transform="translate(85.8,0)">12</text></g><g class="xtick"><text text-anchor="middle" x="0" y="365" style="font-family: 'Open Sans', verdana, arial, sans-serif; font-size: 14px; fill: rgb(0, 0, 0); fill-opacity: 1; white-space: pre; opacity: 1;" transform="translate(108.7,0)">18</text></g><g class="xtick"><text text-anchor="middle" x="0" y="365" style="font-family: 'Open Sans', verdana, arial, sans-serif; font-size: 14px; fill: rgb(0, 0, 0); fill-opacity: 1; white-space: pre; opacity: 1;" transform="translate(131.6,0)">24</text></g><g class="xtick"><text text-anchor="middle" x="0" y="365" style="font-family: 'Open Sans', verdana, arial, sans-serif; font-size: 14px; fill: rgb(0, 0, 0); fill-opacity: 1; white-space: pre; opacity: 1;" transform="translate(154.5,0)">30</text></g><g class="xtick"><text text-anchor="middle" x="0" y="365" style="font-family: 'Open Sans', verdana, arial, sans-serif; font-size: 14px; fill: rgb(0, 0, 0); fill-opacity: 1; white-space: pre; opacity: 1;" transform="translate(177.39,0)">36</text></g><g class="xtick"><text text-anchor="middle" x="0" y="365" style="font-family: 'Open Sans', verdana, arial, sans-serif; font-size: 14px; fill: rgb(0, 0, 0); fill-opacity: 1; white-space: pre; opacity: 1;" transform="translate(200.29,0)">42</text></g><g class="xtick"><text text-anchor="middle" x="0" y="365" style="font-family: 'Open Sans', verdana, arial, sans-serif; font-size: 14px; fill: rgb(0, 0, 0); fill-opacity: 1; white-space: pre; opacity: 1;" transform="translate(223.19,0)">48</text></g><g class="xtick"><text text-anchor="middle" x="0" y="365" style="font-family: 'Open Sans', verdana, arial, sans-serif; font-size: 14px; fill: rgb(0, 0, 0); fill-opacity: 1; white-space: pre; opacity: 1;" transform="translate(246.09,0)">54</text></g><g class="xtick"><text text-anchor="middle" x="0" y="365" style="font-family: 'Open Sans', verdana, arial, sans-serif; font-size: 14px; fill: rgb(0, 0, 0); fill-opacity: 1; white-space: pre; opacity: 1;" transform="translate(268.99,0)">60</text></g><g class="xtick"><text text-anchor="middle" x="0" y="365" style="font-family: 'Open Sans', verdana, arial, sans-serif; font-size: 14px; fill: rgb(0, 0, 0); fill-opacity: 1; white-space: pre; opacity: 1;" transform="translate(291.89,0)">66</text></g><g class="xtick"><text text-anchor="middle" x="0" y="365" style="font-family: 'Open Sans', verdana, arial, sans-serif; font-size: 14px; fill: rgb(0, 0, 0); fill-opacity: 1; white-space: pre; opacity: 1;" transform="translate(314.79,0)">72</text></g></g><g class="yaxislayer-above"><g class="ytick"><text text-anchor="end" x="39" y="4.8999999999999995" transform="translate(0,350)" style="font-family: 'Open Sans', verdana, arial, sans-serif; font-size: 14px; fill: rgb(0, 0, 0); fill-opacity: 1; white-space: pre; opacity: 1;">0</text></g><g class="ytick"><text text-anchor="end" x="39" y="4.8999999999999995" style="font-family: 'Open Sans', verdana, arial, sans-serif; font-size: 14px; fill: rgb(0, 0, 0); fill-opacity: 1; white-space: pre; opacity: 1;" transform="translate(0,308.75)">0.1</text></g><g class="ytick"><text text-anchor="end" x="39" y="4.8999999999999995" style="font-family: 'Open Sans', verdana, arial, sans-serif; font-size: 14px; fill: rgb(0, 0, 0); fill-opacity: 1; white-space: pre; opacity: 1;" transform="translate(0,267.5)">0.2</text></g><g class="ytick"><text text-anchor="end" x="39" y="4.8999999999999995" style="font-family: 'Open Sans', verdana, arial, sans-serif; font-size: 14px; fill: rgb(0, 0, 0); fill-opacity: 1; white-space: pre; opacity: 1;" transform="translate(0,226.25)">0.3</text></g><g class="ytick"><text text-anchor="end" x="39" y="4.8999999999999995" style="font-family: 'Open Sans', verdana, arial, sans-serif; font-size: 14px; fill: rgb(0, 0, 0); fill-opacity: 1; white-space: pre; opacity: 1;" transform="translate(0,185)">0.4</text></g><g class="ytick"><text text-anchor="end" x="39" y="4.8999999999999995" style="font-family: 'Open Sans', verdana, arial, sans-serif; font-size: 14px; fill: rgb(0, 0, 0); fill-opacity: 1; white-space: pre; opacity: 1;" transform="translate(0,143.75)">0.5</text></g><g class="ytick"><text text-anchor="end" x="39" y="4.8999999999999995" style="font-family: 'Open Sans', verdana, arial, sans-serif; font-size: 14px; fill: rgb(0, 0, 0); fill-opacity: 1; white-space: pre; opacity: 1;" transform="translate(0,102.5)">0.6</text></g><g class="ytick"><text text-anchor="end" x="39" y="4.8999999999999995" style="font-family: 'Open Sans', verdana, arial, sans-serif; font-size: 14px; fill: rgb(0, 0, 0); fill-opacity: 1; white-space: pre; opacity: 1;" transform="translate(0,61.25)">0.7</text></g><g class="ytick"><text text-anchor="end" x="39" y="4.8999999999999995" style="font-family: 'Open Sans', verdana, arial, sans-serif; font-size: 14px; fill: rgb(0, 0, 0); fill-opacity: 1; white-space: pre; opacity: 1;" transform="translate(0,20)">0.8</text></g></g><g class="overaxes-above"/></g></g><g class="polarlayer"/><g class="smithlayer"/><g class="ternarylayer"/><g class="geolayer"/><g class="funnelarealayer"/><g class="pielayer"/><g class="iciclelayer"/><g class="treemaplayer"/><g class="sunburstlayer"/><g class="glimages"/><defs id="topdefs-2fb7ad"><g class="clips"/><clipPath id="legend2fb7ad"><rect width="178" height="125" x="0" y="0"/></clipPath></defs><g class="layer-above"><g class="imagelayer"/><g class="shapelayer"/></g><g class="infolayer"><g class="legend" pointer-events="all" transform="translate(321.52,20)"><rect class="bg" shape-rendering="crispEdges" style="stroke: rgb(68, 68, 68); stroke-opacity: 1; fill: rgb(255, 255, 255); fill-opacity: 1; stroke-width: 0px;" width="178" height="125" x="0" y="0"/><g class="scrollbox" transform="" clip-path="url(#legend2fb7ad)"><g class="groups" transform=""><g class="traces" transform="translate(0,15.6)" style="opacity: 1;"><text class="legendtext" text-anchor="start" x="40" y="5.46" style="font-family: 'Open Sans', verdana, arial, sans-serif; font-size: 14px; fill: rgb(0, 0, 0); fill-opacity: 1; white-space: pre;"><tspan style="font-style:italic">C. testosteroni</tspan></text><g class="layers" style="opacity: 1;"><g class="legendfill"/><g class="legendlines"><path class="js-line" d="M5,0h30" style="fill: none; stroke: rgb(117, 112, 179); stroke-opacity: 1; stroke-width: 1.7px;"/></g><g class="legendsymbols"><g class="legendpoints"/></g></g><rect class="legendtoggle" x="0" y="-10.6" width="172.765625" height="21.2" style="fill: rgb(0, 0, 0); fill-opacity: 0;"/></g></g><g class="groups" transform="translate(0,10)"><g class="traces" transform="translate(0,36.8)" style="opacity: 1;"><text class="legendtext" text-anchor="start" x="40" y="5.46" style="font-family: 'Open Sans', verdana, arial, sans-serif; font-size: 14px; fill: rgb(0, 0, 0); fill-opacity: 1; white-space: pre;"><tspan style="font-style:italic">C. testosteroni</tspan> model</text><g class="layers" style="opacity: 1;"><g class="legendfill"/><g class="legendlines"><path class="js-line" d="M5,0h30" style="fill: none; stroke: rgb(117, 112, 179); stroke-opacity: 1; stroke-dasharray: 9px, 9px; stroke-width: 1.7px;"/></g><g class="legendsymbols"><g class="legendpoints"/></g></g><rect class="legendtoggle" x="0" y="-10.6" width="172.765625" height="21.2" style="fill: rgb(0, 0, 0); fill-opacity: 0;"/></g></g><g class="groups" transform="translate(0,20)"><g class="traces" transform="translate(0,58)" style="opacity: 1;"><text class="legendtext" text-anchor="start" x="40" y="5.46" style="font-family: 'Open Sans', verdana, arial, sans-serif; font-size: 14px; fill: rgb(0, 0, 0); fill-opacity: 1; white-space: pre;"><tspan style="font-style:italic">O. anthropi</tspan></text><g class="layers" style="opacity: 1;"><g class="legendfill"/><g class="legendlines"><path class="js-line" d="M5,0h30" style="fill: none; stroke: rgb(217, 95, 2); stroke-opacity: 1; stroke-width: 1.7px;"/></g><g class="legendsymbols"><g class="legendpoints"/></g></g><rect class="legendtoggle" x="0" y="-10.6" width="172.765625" height="21.2" style="fill: rgb(0, 0, 0); fill-opacity: 0;"/></g></g><g class="groups" transform="translate(0,30)"><g class="traces" transform="translate(0,79.19999999999999)" style="opacity: 1;"><text class="legendtext" text-anchor="start" x="40" y="5.46" style="font-family: 'Open Sans', verdana, arial, sans-serif; font-size: 14px; fill: rgb(0, 0, 0); fill-opacity: 1; white-space: pre;"><tspan style="font-style:italic">O. anthropi</tspan> model</text><g class="layers" style="opacity: 1;"><g class="legendfill"/><g class="legendlines"><path class="js-line" d="M5,0h30" style="fill: none; stroke: rgb(217, 95, 2); stroke-opacity: 1; stroke-dasharray: 9px, 9px; stroke-width: 1.7px;"/></g><g class="legendsymbols"><g class="legendpoints"/></g></g><rect class="legendtoggle" x="0" y="-10.6" width="172.765625" height="21.2" style="fill: rgb(0, 0, 0); fill-opacity: 0;"/></g></g></g><rect class="scrollbar" rx="20" ry="3" width="0" height="0" style="fill: rgb(128, 139, 164); fill-opacity: 1;" x="0" y="0"/></g><g class="g-gtitle"/><g class="g-xtitle" transform="translate(0,5.699999999999989)"><text class="xtitle" x="178" y="378.3" text-anchor="middle" style="opacity: 1; font-family: 'Open Sans', verdana, arial, sans-serif; font-size: 14px; fill: rgb(0, 0, 0); fill-opacity: 1; white-space: pre;">Time [h]</text></g><g class="g-ytitle" transform="translate(0.150390625,0)"><text class="ytitle" transform="rotate(-90,14.850000000000001,185)" x="14.850000000000001" y="185" text-anchor="middle" style="opacity: 1; font-family: 'Open Sans', verdana, arial, sans-serif; font-size: 14px; fill: rgb(0, 0, 0); fill-opacity: 1; white-space: pre;">Corrected OD</text></g></g></svg>