<svg class="main-svg" xmlns="http://www.w3.org/2000/svg" xmlns:xlink="http://www.w3.org/1999/xlink" width="500" height="400" style="" viewBox="0 0 500 400"><rect x="0" y="0" width="500" height="400" style="fill: rgb(255, 255, 255); fill-opacity: 1;"/><defs id="defs-5a78c7"><g class="clips"><clipPath id="clip5a78c7xyplot" class="plotclip"><rect width="276" height="330"/></clipPath><clipPath class="axesclip" id="clip5a78c7x"><rect x="40" y="0" width="276" height="400"/></clipPath><clipPath class="axesclip" id="clip5a78c7y"><rect x="0" y="20" width="500" height="330"/></clipPath><clipPath class="axesclip" id="clip5a78c7xy"><rect x="40" y="20" width="276" height="330"/></clipPath></g><g class="gradients"/><g class="patterns"/></defs><g class="bglayer"/><g class="layer-below"><g class="imagelayer"/><g class="shapelayer"/></g><g class="cartesianlayer"><g class="subplot xy"><g class="layer-subplot"><g class="shapelayer"/><g class="imagelayer"/></g><g class="minor-gridlayer"><g class="x"/><g class="y"/></g><g class="gridlayer"><g class="x"><path class="xgrid crisp" transform="translate(62.9,0)" d="M0,20v330" style="stroke: rgb(0, 0, 0); stroke-opacity: 1; stroke-width: 1px;"/><path class="xgrid crisp" transform="translate(85.8,0)" d="M0,20v330" style="stroke: rgb(0, 0, 0); stroke-opacity: 1; stroke-width: 1px;"/><path class="xgrid crisp" transform="translate(108.7,0)" d="M0,20v330" style="stroke: rgb(0, 0, 0); stroke-opacity: 1; stroke-width: 1px;"/><path class="xgrid crisp" transform="translate(131.6,0)" d="M0,20v330" style="stroke: rgb(0, 0, 0); stroke-opacity: 1; stroke-width: 1px;"/><path class="xgrid crisp" transform="translate(154.5,0)" d="M0,20v330" style="stroke: rgb(0, 0, 0); stroke-opacity: 1; stroke-width: 1px;"/><path class="xgrid crisp" transform="translate(177.39,0)" d="M0,20v330" style="stroke: rgb(0, 0, 0); stroke-opacity: 1; stroke-width: 1px;"/><path class="xgrid crisp" transform="translate(200.29,0)" d="M0,20v330" style="stroke: rgb(0, 0, 0); stroke-opacity: 1; stroke-width: 1px;"/><path class="xgrid crisp" transform="translate(223.19,0)" d="M0,20v330" style="stroke: rgb(0, 0, 0); stroke-opacity: 1; stroke-width: 1px;"/><path class="xgrid crisp" transform="translate(246.09,0)" d="M0,20v330" style="stroke: rgb(0, 0, 0); stroke-opacity: 1; stroke-width: 1px;"/><path class="xgrid crisp" transform="translate(268.99,0)" d="M0,20v330" style="stroke: rgb(0, 0, 0); stroke-opacity: 1; stroke-width: 1px;"/><path class="xgrid crisp" transform="translate(291.89,0)" d="M0,20v330" style="stroke: rgb(0, 0, 0); stroke-opacity: 1; stroke-width: 1px;"/><path class="xgrid crisp" transform="translate(314.79,0)" d="M0,20v330" style="stroke: rgb(0, 0, 0); stroke-opacity: 1; stroke-width: 1px;"/></g><g class="y"><path class="ygrid crisp" transform="translate(0,308.75)" d="M40,0h276" style="stroke: rgb(0, 0, 0); stroke-opacity: 1; stroke-width: 1px;"/><path class="ygrid crisp" transform="translate(0,267.5)" d="M40,0h276" style="stroke: rgb(0, 0, 0); stroke-opacity: 1; stroke-width: 1px;"/><path class="ygrid crisp" transform="translate(0,226.25)" d="M40,0h276" style="stroke: rgb(0, 0, 0); stroke-opacity: 1; stroke-width: 1px;"/><path class="ygrid crisp" transform="translate(0,185)" d="M40,0h276" style="stroke: rgb(0, 0, 0); stroke-opacity: 1; stroke-width: 1px;"/><path class="ygrid crisp" transform="translate(0,143.75)" d="M40,0h276" style="stroke: rgb(0, 0, 0); stroke-opacity: 1; stroke-width: 1px;"/><path class="ygrid crisp" transform="translate(0,102.5)" d="M40,0h276" style="stroke: rgb(0, 0, 0); stroke-opacity: 1; stroke-width: 1px;"/><path class="ygrid crisp" transform="translate(0,61.25)" d="M40,0h276" style="stroke: rgb(0, 0, 0); stroke-opacity: 1; stroke-width: 1px;"/></g></g><g class="zerolinelayer"><path class="xzl zl crisp" transform="translate(40,0)" d="M0,20v330" style="stroke: rgb(0, 0, 0); stroke-opacity: 1; stroke-width: 1px;"/><path class="yzl zl crisp" transform="translate(0,350)" d="M40,0h276" style="stroke: rgb(0, 0, 0); stroke-opacity: 1; stroke-width: 1px;"/></g><g class="layer-between"><g class="shapelayer"/><g class="imagelayer"/></g><path class="xlines-below"/><path class="ylines-below"/><g class="overlines-below"/><g class="xaxislayer-below"/><g class="yaxislayer-below"/><g class="overaxes-below"/><g class="overplot"><g class="xy" transform="translate(40,20)" clip-path="url(#clip5a78c7xyplot)"><g class="scatterlayer mlayer"><g class="trace scatter trace6dc066" style="stroke-miterlimit: 2; opacity: 1;"><g class="fills"/><g class="errorbars"/><g class="lines"><path class="js-line" d="M0.57,321.34L3.12,320.93L3.76,319.69L6.94,310.2L7.57,309.38L10.75,300.3L11.39,297L13.93,286.27L14.57,283.39L19.66,264.83L20.29,263.18L24.75,271.84L25.38,271.01L29.83,257.81L30.47,247.09L31.74,236.77L32.38,236.36L33.02,235.95L33.65,237.19L34.92,238.84L35.56,238.43L37.47,240.08L38.1,238.43L42.56,233.48L43.19,233.48L43.83,233.89L44.46,232.24L45.74,231.83L46.37,231.41L47.01,231.41L47.64,230.59L48.92,228.94L49.55,229.35L50.19,228.94L50.83,227.29L54.01,225.64L54.64,226.05L55.28,225.23L55.91,226.05L57.19,223.99L57.82,224.4L59.09,223.99L59.73,221.1L60.37,222.75L61,221.51L63.55,219.45L64.18,220.27L66.09,218.63L66.73,219.04L68,217.8L68.64,217.8L69.91,216.98L70.54,216.98L72.45,216.15L73.09,217.39L74.36,214.91L75,214.91L75.63,216.15L76.27,215.74L77.54,214.5L78.18,215.33L79.45,214.09L80.09,214.91L82.63,212.44L83.27,212.03L84.54,212.03L85.17,213.68L85.81,212.44L86.45,212.85L87.72,212.44L88.35,213.26L88.99,211.61L89.63,212.03L90.26,212.03L90.9,211.61L91.53,209.55L92.81,210.79L93.44,210.38L94.72,210.79L95.35,210.38L96.62,210.38L97.26,211.2L99.17,209.96L99.8,211.2L100.44,210.38L101.08,212.44L102.35,209.96L102.98,209.14L103.62,208.31L104.26,210.79L104.89,209.96L105.53,210.38L106.16,208.73L106.8,209.96L108.71,209.14L109.35,209.55L111.89,209.14L112.53,207.9L113.8,208.31L114.43,207.49L115.07,207.08L115.71,209.14L116.34,208.31L116.98,208.73L118.25,207.9L118.89,209.14L119.52,208.73L120.16,207.08L120.79,208.31L121.43,207.9L122.07,209.14L122.7,207.49L123.34,207.9L123.98,205.43L124.61,206.66L125.25,206.25L125.88,207.08L126.52,205.43L128.43,206.66L129.06,206.66L130.34,205.01L130.97,206.25L131.61,204.6L132.24,205.43L132.88,206.25L133.52,202.95L134.15,205.43L134.79,204.19L137.33,205.84L137.97,204.19L138.61,205.43L139.24,204.6L139.88,203.78L140.51,205.43L141.79,205.43L142.42,205.43L143.69,204.19L144.33,205.43L146.24,206.66L146.87,206.25L147.51,204.6L148.15,205.43L148.78,204.6L149.42,207.08L150.05,204.19L150.69,204.6L151.33,204.19L151.96,203.78L152.6,205.84L153.24,205.43L153.87,203.36L154.51,203.36L155.14,202.13L155.78,204.19L156.42,202.54L157.05,204.6L157.69,202.54L158.96,205.84L159.6,205.84L160.87,202.95L161.5,204.19L162.14,207.49L162.78,205.84L163.41,207.08L164.05,206.66L165.96,200.89L166.59,203.36L167.23,202.13L167.87,204.19L169.14,202.13L169.77,204.6L170.41,202.95L171.05,204.6L172.32,208.31L172.95,206.66L174.23,205.01L174.86,203.36L175.5,204.6L176.13,207.49L178.04,206.66L178.68,207.49L179.31,207.9L179.95,206.66L180.59,206.25L181.22,201.71L182.5,200.48L183.13,201.71L183.77,200.48L184.4,202.13L185.68,203.78L186.31,202.95L186.95,205.43L187.58,202.13L188.86,203.36L189.49,200.06L190.13,203.36L190.76,201.71L193.31,206.25L193.94,202.54L194.58,202.13L195.22,202.95L196.49,200.48L197.13,201.3L197.76,203.78L198.4,202.13L199.03,202.95L199.67,202.13L200.94,200.48L201.58,201.3L202.21,202.13L202.85,200.48L203.49,202.13L204.12,196.76L206.03,201.3L206.67,199.24L207.3,199.24L207.94,196.76L209.21,198.83L209.85,199.24L211.12,198.41L211.76,199.65L213.03,199.65L213.66,195.53L214.3,198.83L214.94,197.59L215.57,196.35L216.21,199.65L216.84,201.3L217.48,198L218.12,198L218.75,198.83L220.66,190.99L221.3,188.93L222.57,187.69L223.2,189.34L224.48,188.1L225.11,190.16L226.39,191.81L227.02,190.16L227.66,188.93L228.29,190.58L228.93,190.99L229.57,193.05L230.84,190.99L231.47,191.4L233.38,189.75L234.02,190.16L234.65,190.99L235.29,193.46L236.56,193.46L237.2,194.29L237.83,191.81L238.47,193.88L239.11,191.4L239.74,192.23L240.38,192.64L241.02,194.29L241.65,190.16L242.29,192.23L243.56,193.88L244.2,193.46L244.83,191.4L245.47,191.81L246.1,191.81L246.74,189.75L247.38,190.58L248.01,192.23L248.65,190.99L251.19,191.81L251.83,190.58L253.74,190.58L254.37,190.99L255.65,190.58L256.28,191.4L256.92,190.58L257.55,192.23L258.83,190.58L259.46,187.28L260.1,188.1L260.73,190.58L262.01,188.1L262.64,189.75L263.28,193.05L263.91,191.81L265.19,191.81L265.82,193.05L267.09,195.11L267.73,193.88L269,193.88L269.64,192.23L270.91,192.64L271.55,194.7L272.18,194.29L272.82,192.23L273.46,190.99L274.09,193.05L274.73,192.23L275.36,195.53L276,194.29" style="vector-effect: none; fill: none; stroke: rgb(117, 112, 179); stroke-opacity: 1; stroke-width: 1.7px; opacity: 1;"/></g><g class="points"/><g class="text"/></g><g class="trace scatter trace117728" style="stroke-miterlimit: 2; opacity: 1;"><g class="fills"/><g class="errorbars"/><g class="lines"><path class="js-line" d="M0.57,319.69L1.85,319.69L2.48,318.45L3.12,318.86L3.76,317.63L6.3,309.38L6.94,308.14L8.21,305.66L8.84,304.01L10.75,298.24L11.39,295.35L15.2,280.5L15.84,277.2L17.75,271.01L18.39,268.54L21.57,260.29L22.2,259.05L23.47,258.23L24.11,259.05L27.29,247.91L27.93,248.33L28.56,247.09L29.2,240.9L29.83,241.31L30.47,240.08L31.74,235.95L32.38,238.01L34.29,239.66L34.92,239.25L36.2,238.84L36.83,239.66L38.74,237.6L39.38,236.36L40.01,236.77L40.65,235.95L41.28,235.95L41.92,235.13L43.19,233.89L43.83,234.71L44.46,232.65L45.1,233.06L45.74,232.24L47.64,231.83L48.28,231L50.19,229.35L50.83,227.7L52.1,227.29L52.73,226.88L55.28,226.05L55.91,226.46L57.19,224.4L57.82,224.4L59.09,223.99L59.73,221.1L60.37,222.34L61,221.1L61.64,221.1L62.27,219.86L64.18,219.86L64.82,219.04L70.54,215.74L71.18,215.74L72.45,214.91L73.09,215.74L74.36,213.26L75,213.26L75.63,214.5L76.27,214.09L77.54,213.26L78.18,213.68L83.9,209.55L84.54,209.96L85.17,210.79L85.81,209.55L87.72,209.96L88.35,209.96L89.63,208.31L90.26,208.73L90.9,208.73L91.53,206.66L94.08,207.49L94.72,207.08L96.62,207.49L97.26,208.31L99.17,206.66L99.8,208.73L100.44,207.9L101.08,209.55L102.35,207.49L102.98,207.08L103.62,205.84L104.26,207.9L104.89,207.08L105.53,208.31L106.16,206.66L106.8,207.49L107.44,207.49L108.07,206.25L109.98,206.66L110.62,207.49L111.89,205.01L112.53,205.84L113.8,205.43L114.43,204.6L115.71,205.01L116.34,204.19L117.61,205.43L118.25,203.78L119.52,205.43L120.16,201.71L121.43,204.19L122.07,204.6L122.7,203.36L123.34,204.6L123.98,202.95L124.61,204.19L125.25,202.95L125.88,205.01L126.52,203.36L127.16,204.19L127.79,202.95L128.43,203.36L129.06,203.36L129.7,202.54L130.97,203.36L131.61,202.13L132.24,202.54L132.88,204.19L133.52,202.13L134.15,203.78L134.79,202.54L135.42,203.36L136.06,202.13L136.7,202.54L137.97,202.54L138.61,204.6L139.88,201.71L140.51,204.19L141.15,204.19L141.79,202.13L142.42,203.36L143.06,200.89L143.69,200.48L144.33,201.3L145.6,201.71L146.24,202.13L147.51,200.89L148.15,201.71L148.78,201.3L149.42,202.13L150.05,200.06L150.69,200.48L151.33,200.48L151.96,198.41L152.6,200.48L153.24,202.54L153.87,200.89L154.51,202.13L155.14,201.71L156.42,199.24L157.05,200.89L157.69,198.41L158.32,199.65L159.6,200.48L160.23,199.24L160.87,198L161.5,199.65L162.14,201.71L162.78,200.89L164.68,201.71L165.32,200.06L167.23,196.35L167.87,199.65L168.5,197.59L169.14,198L169.77,199.65L171.05,197.18L171.68,197.18L172.32,197.18L172.95,196.35L174.23,196.76L174.86,193.46L175.5,194.29L176.13,198.41L176.77,199.65L177.41,198.83L178.68,200.06L179.31,197.59L180.59,199.65L181.22,198.41L184.4,197.18L185.04,198.83L185.68,194.29L186.31,197.59L186.95,200.06L187.58,198.41L188.22,198L188.86,195.53L189.49,192.64L190.13,195.94L190.76,194.7L191.4,196.35L193.31,199.65L193.94,198L194.58,199.65L195.22,198.41L196.49,199.24L197.13,198.83L197.76,200.48L198.4,198.41L199.03,196.76L199.67,197.18L200.31,198.41L201.58,195.94L202.21,196.35L203.49,199.65L204.12,195.11L206.03,198.41L206.67,198L207.3,200.06L207.94,197.18L209.21,198.83L209.85,197.59L211.12,195.11L211.76,197.59L213.66,196.35L214.3,197.59L214.94,193.46L215.57,194.29L216.21,197.59L217.48,195.94L218.12,197.18L218.75,198L219.39,196.76L220.02,198L220.66,197.18L221.93,195.53L222.57,196.35L223.2,197.59L223.84,196.76L225.11,196.76L225.75,195.94L227.02,197.59L227.66,194.7L229.57,199.24L230.2,198L230.84,196.76L231.47,198.83L233.38,193.88L234.02,194.29L234.65,195.53L235.29,194.7L236.56,196.35L237.2,195.94L237.83,194.7L238.47,196.76L240.38,197.59L241.02,195.53L241.65,189.75L242.29,190.99L242.92,191.81L243.56,195.53L244.2,194.29L244.83,196.35L245.47,195.94L246.1,196.76L246.74,200.48L247.38,197.59L248.01,199.65L248.65,196.35L249.28,197.59L249.92,197.18L251.19,197.59L251.83,197.59L252.46,198.41L253.1,197.59L253.74,197.18L254.37,198L255.01,196.35L255.65,198.83L256.28,196.35L256.92,196.76L257.55,194.7L258.83,194.29L259.46,195.53L260.1,193.88L260.73,195.11L261.37,198.83L262.01,196.76L262.64,195.94L263.28,197.18L265.19,193.88L265.82,195.11L267.73,197.18L268.37,193.88L269.64,199.24L270.28,197.18L270.91,194.29L271.55,197.18L272.18,199.24L272.82,195.53L273.46,195.11L274.09,196.35L274.73,192.23L275.36,193.88L276,196.76" style="vector-effect: none; fill: none; stroke: rgb(117, 112, 179); stroke-opacity: 1; stroke-width: 1.7px; opacity: 1;"/></g><g class="points"/><g class="text"/></g><g class="trace scatter tracec8f70e" style="stroke-miterlimit: 2; opacity: 1;"><g class="fills"/><g class="errorbars"/><g class="lines"><path class="js-line" d="M0.57,319.69L1.85,319.27L2.48,318.45L3.12,318.04L3.76,316.39L5.03,311.44L5.66,311.85L7.57,310.2L8.21,307.31L8.84,306.9L9.48,304.01L13.3,287.51L13.93,283.8L14.57,282.15L15.2,278.44L17.11,271.84L17.75,269.36L19.66,262.35L20.29,261.52L21.57,259.46L22.2,257.4L24.75,252.45L25.38,250.39L27.29,245.44L27.93,241.31L29.2,239.66L29.83,235.13L31.11,232.65L31.74,233.06L33.65,236.77L34.29,237.6L35.56,238.01L36.2,238.43L36.83,239.25L37.47,238.84L40.65,235.13L41.28,235.54L43.19,233.06L43.83,233.48L45.1,231.83L45.74,230.59L49.55,228.11L50.19,226.05L52.1,224.4L52.73,224.4L54.64,223.58L55.28,221.93L55.91,223.58L56.55,221.1L57.19,221.1L57.82,221.93L59.73,217.8L60.37,218.63L61.64,217.39L62.27,215.74L62.91,216.56L63.55,215.33L64.18,216.15L64.82,215.33L65.46,215.74L66.09,214.5L66.73,214.5L67.36,213.26L68,213.68L68.64,212.85L69.27,212.03L69.91,212.44L70.54,212.85L71.18,211.61L72.45,211.2L73.09,212.03L74.36,210.38L75,209.96L75.63,211.2L76.27,209.55L77.54,209.14L78.18,209.55L79.45,209.14L80.09,208.73L81.36,207.49L81.99,208.31L83.27,206.66L83.9,205.84L85.17,207.9L85.81,206.25L86.45,206.66L87.08,205.84L88.35,206.25L88.99,205.01L90.26,205.43L90.9,205.01L91.53,202.95L92.17,204.19L94.08,204.6L94.72,204.19L95.35,203.36L95.99,203.78L96.62,203.78L97.26,204.6L97.9,204.6L98.53,202.95L99.17,203.78L99.8,203.36L100.44,203.36L101.08,204.6L101.71,202.54L102.35,203.78L102.98,203.36L103.62,201.3L104.26,204.19L104.89,203.36L105.53,203.78L106.16,202.13L107.44,202.54L108.07,201.71L110.62,202.54L111.25,201.71L111.89,202.54L112.53,200.89L113.16,202.54L113.8,201.71L115.07,200.48L115.71,202.13L116.34,201.3L116.98,202.54L118.25,200.89L118.89,202.13L120.16,200.06L120.79,201.71L123.98,199.24L124.61,200.89L125.88,201.3L126.52,199.24L127.79,200.89L128.43,200.06L129.7,199.24L130.34,199.24L130.97,201.3L131.61,197.59L132.88,199.24L133.52,197.18L134.79,198.41L135.42,198L136.7,196.76L137.33,198L137.97,196.35L138.61,197.59L139.88,195.94L140.51,196.76L141.79,196.35L142.42,195.53L143.06,192.64L143.69,194.29L144.33,196.35L144.97,194.7L145.6,197.59L146.24,195.53L148.15,194.7L148.78,192.64L149.42,195.94L150.05,192.64L151.33,194.29L151.96,194.7L152.6,195.11L153.24,193.05L153.87,191.4L154.51,192.64L155.14,190.99L155.78,192.64L156.42,191.81L157.05,192.23L157.69,188.93L158.32,190.99L158.96,191.4L159.6,190.16L160.87,187.69L161.5,189.75L162.14,191.4L162.78,190.16L163.41,190.99L164.05,189.34L164.68,189.34L165.32,188.51L165.96,187.69L166.59,184.39L167.23,185.21L167.87,187.69L168.5,185.21L169.14,186.45L169.77,188.1L170.41,183.98L171.05,184.39L171.68,186.04L172.32,185.63L172.95,187.28L174.23,185.21L174.86,184.8L175.5,183.15L176.13,186.45L177.41,184.8L178.04,185.21L178.68,186.04L179.31,184.39L180.59,184.39L181.22,181.09L182.5,181.09L183.13,183.15L183.77,181.91L184.4,182.74L185.04,185.21L185.68,183.15L186.31,181.5L186.95,183.98L188.22,179.85L188.86,180.68L189.49,176.55L190.13,180.68L190.76,178.2L191.4,179.85L192.04,180.68L192.67,184.8L193.94,177.79L194.58,181.09L195.22,180.26L195.85,182.33L197.13,179.85L197.76,181.91L199.67,181.5L200.31,179.85L201.58,179.03L202.21,181.91L202.85,181.5L203.49,182.33L204.12,177.38L204.76,178.61L205.39,179.85L206.03,183.56L206.67,179.03L207.3,180.68L207.94,178.2L208.57,181.5L209.21,180.68L209.85,178.61L211.12,172.84L211.76,177.79L212.39,180.26L213.03,179.03L213.66,176.55L214.3,180.26L214.94,179.03L215.57,176.14L216.84,178.2L217.48,174.9L218.12,172.01L218.75,179.44L219.39,176.14L220.02,179.85L220.66,172.01L221.3,173.25L221.93,172.01L222.57,171.19L223.2,172.43L223.84,171.6L224.48,174.08L225.11,172.01L225.75,173.25L226.39,175.31L227.02,172.84L228.93,176.96L229.57,178.2L230.2,173.66L230.84,177.38L232.75,167.06L233.38,168.3L234.02,169.95L234.65,173.66L235.93,176.14L236.56,174.49L237.2,173.25L237.83,170.36L238.47,172.01L239.11,169.54L239.74,173.66L240.38,173.25L241.02,175.31L241.65,171.6L242.29,173.25L242.92,174.08L243.56,173.25L245.47,167.89L246.1,169.95L247.38,167.06L248.01,172.01L249.28,168.71L249.92,171.19L250.56,169.54L251.19,169.95L251.83,172.43L253.1,169.95L253.74,170.78L255.01,168.3L255.65,166.24L256.92,166.65L257.55,168.3L258.19,166.24L258.83,167.06L259.46,162.94L260.1,164.18L261.37,169.13L262.01,164.59L263.28,172.43L263.91,165.41L264.55,165.41L265.19,167.48L266.46,164.18L267.09,166.24L267.73,164.59L268.37,165.83L269,167.06L269.64,164.59L270.28,165L270.91,163.35L271.55,166.65L272.18,165L273.46,162.53L274.09,167.89L274.73,164.18L275.36,167.89L276,165.41" style="vector-effect: none; fill: none; stroke: rgb(117, 112, 179); stroke-opacity: 1; stroke-width: 1.7px; opacity: 1;"/></g><g class="points"/><g class="text"/></g><g class="trace scatter trace45f5d7" style="stroke-miterlimit: 2; opacity: 1;"><g class="fills"/><g class="errorbars"/><g class="lines"><path class="js-line" d="M0,309.38L8.29,300.97L9.67,299.32L17.95,287.85L19.33,285.68L29,268.68L30.38,266.06L48.33,233.02L49.71,230.91L56.61,221.94L58,220.47L64.9,214.67L66.28,213.79L73.19,210.48L74.57,209.99L82.85,208L84.23,207.78L98.04,206.56L99.42,206.5L131.18,206.07L132.56,206.07L274.79,206.04" style="vector-effect: none; fill: none; stroke: rgb(117, 112, 179); stroke-opacity: 1; stroke-dasharray: 9px, 9px; stroke-width: 1.7px; opacity: 1;"/></g><g class="points"/><g class="text"/></g><g class="trace scatter trace93e5be" style="stroke-miterlimit: 2; opacity: 1;"><g class="fills"/><g class="errorbars"/><g class="lines"><path class="js-line" d="M0.57,316.8L4.39,308.96L5.03,306.08L6.94,298.24L7.57,296.18L9.48,289.58L10.12,288.34L14.57,277.61L15.2,273.9L16.48,270.6L17.11,270.19L18.39,266.89L19.02,264.41L19.66,265.24L20.29,262.76L20.93,263.18L21.57,262.35L22.84,264L23.47,262.76L26.65,260.7L27.29,259.05L27.93,258.23L28.56,259.05L29.2,258.64L29.83,259.46L31.74,254.1L32.38,253.28L33.02,253.28L33.65,248.33L36.2,238.01L36.83,238.43L37.47,241.31L38.74,231.41L39.38,229.76L40.01,230.18L40.65,227.29L41.92,224.81L42.56,221.93L43.19,220.69L43.83,221.1L45.1,215.74L45.74,218.21L47.01,211.2L47.64,212.44L48.28,209.14L48.92,211.61L49.55,214.5L50.19,213.26L52.1,206.66L52.73,207.08L53.37,206.25L54.01,203.36L55.91,214.09L56.55,206.25L57.19,205.84L57.82,207.49L59.73,198.83L60.37,199.65L61.64,197.59L62.27,193.46L62.91,195.53L63.55,193.05L64.82,191.4L65.46,193.46L66.09,192.64L66.73,193.88L67.36,193.05L68,196.35L69.27,190.99L69.91,191.81L70.54,192.64L71.18,190.58L72.45,191.4L73.09,193.46L74.36,188.93L75,189.75L75.63,193.05L76.27,192.23L78.18,193.05L78.81,191.81L80.09,193.05L80.72,192.64L81.36,188.93L81.99,190.58L82.63,188.51L83.27,190.16L83.9,188.51L84.54,190.58L85.17,193.05L85.81,191.81L86.45,193.05L87.08,191.4L88.99,190.58L89.63,193.05L90.26,191.81L90.9,192.64L91.53,189.75L92.17,191.4L94.72,192.64L95.35,191.4L95.99,190.99L96.62,193.05L97.9,195.11L98.53,191.81L99.17,194.29L99.8,193.46L100.44,193.88L101.08,196.35L101.71,193.05L102.35,195.11L102.98,194.7L103.62,190.99L104.89,195.53L105.53,195.11L106.8,194.29L107.44,193.88L108.07,192.64L108.71,194.29L109.35,193.46L109.98,195.11L110.62,195.11L111.25,193.88L111.89,195.94L112.53,193.05L113.8,194.7L114.43,193.46L115.07,192.64L115.71,195.11L116.34,195.11L116.98,195.94L118.25,191.81L118.89,194.29L120.16,191.4L120.79,194.7L121.43,195.11L122.07,194.29L122.7,194.7L123.34,193.88L123.98,192.23L124.61,193.88L125.88,194.29L126.52,191.4L127.79,194.7L128.43,195.11L129.7,193.05L130.34,192.23L130.97,195.11L131.61,191.4L132.24,193.46L132.88,192.64L133.52,190.99L134.15,193.05L136.06,193.46L136.7,192.23L137.33,193.88L137.97,190.58L138.61,192.64L139.24,191.81L141.15,192.64L141.79,191.81L142.42,191.81L143.06,187.69L144.33,193.05L144.97,191.81L145.6,194.29L146.24,192.64L146.87,190.16L147.51,190.99L148.15,191.4L148.78,189.34L149.42,193.05L150.05,188.93L150.69,190.58L151.33,189.75L151.96,189.34L152.6,191.81L153.24,190.99L153.87,188.51L154.51,188.93L155.14,188.1L155.78,188.93L156.42,188.1L157.05,190.58L157.69,188.51L158.32,191.4L158.96,189.75L159.6,190.16L160.23,188.1L160.87,188.93L161.5,191.4L162.14,193.05L162.78,191.81L163.41,193.05L164.05,190.16L164.68,191.81L165.32,190.16L165.96,189.34L166.59,185.63L167.87,190.16L168.5,187.28L169.77,190.58L170.41,187.28L171.68,188.1L172.32,190.58L172.95,190.58L173.59,187.69L174.86,186.86L175.5,182.74L176.77,188.51L177.41,187.28L179.31,186.45L179.95,187.28L180.59,188.93L181.22,186.04L182.5,181.5L183.13,183.98L183.77,181.09L184.4,181.91L185.04,184.8L185.68,183.15L186.31,184.39L186.95,187.69L187.58,182.74L188.22,185.63L188.86,185.21L189.49,181.91L190.13,186.04L190.76,183.15L192.04,186.04L192.67,190.58L193.94,182.74L194.58,186.86L195.22,186.04L195.85,188.1L197.13,185.63L197.76,187.69L198.4,187.28L199.03,184.39L199.67,185.21L200.31,183.56L200.94,184.39L201.58,183.98L202.21,187.69L202.85,186.45L203.49,186.86L204.12,180.26L206.03,188.93L206.67,186.04L207.3,187.69L207.94,185.63L208.57,186.86L209.21,186.04L209.85,186.86L210.48,180.68L211.12,177.38L211.76,182.74L212.39,186.45L213.03,184.39L213.66,183.15L214.3,186.45L215.57,182.33L216.21,185.21L216.84,186.45L217.48,182.74L218.12,177.79L218.75,184.8L219.39,180.68L220.02,185.63L221.3,179.44L221.93,182.74L223.2,180.26L223.84,183.15L224.48,182.74L225.11,179.85L225.75,182.33L226.39,181.91L227.02,180.26L228.29,181.91L228.93,186.04L229.57,186.04L230.2,182.33L230.84,183.98L231.47,179.03L232.11,181.09L232.75,179.85L233.38,177.79L234.02,181.5L235.93,188.93L236.56,186.04L237.2,185.63L237.83,179.85L238.47,181.91L239.11,177.79L239.74,183.98L240.38,181.5L241.02,186.45L241.65,180.26L242.92,184.39L243.56,182.74L244.2,181.91L244.83,179.85L245.47,181.09L246.1,179.85L246.74,174.9L247.38,178.2L248.01,183.56L248.65,179.85L249.28,179.03L249.92,182.74L250.56,180.68L251.19,181.09L251.83,181.5L252.46,181.91L253.1,179.03L253.74,182.33L254.37,181.91L255.01,179.03L255.65,174.9L256.28,177.38L256.92,177.38L257.55,179.03L258.19,176.55L258.83,178.61L259.46,174.49L260.1,178.2L260.73,183.56L261.37,180.68L262.01,175.73L262.64,179.85L263.28,182.33L263.91,177.38L265.82,179.85L266.46,179.44L267.09,181.09L267.73,179.44L268.37,181.5L269,179.85L269.64,175.73L270.28,177.79L270.91,177.79L271.55,180.68L272.18,176.55L272.82,176.96L273.46,176.55L274.09,180.26L274.73,177.38L275.36,181.09L276,176.55" style="vector-effect: none; fill: none; stroke: rgb(217, 95, 2); stroke-opacity: 1; stroke-width: 1.7px; opacity: 1;"/></g><g class="points"/><g class="text"/></g><g class="trace scatter trace61735d" style="stroke-miterlimit: 2; opacity: 1;"><g class="fills"/><g class="errorbars"/><g class="lines"><path class="js-line" d="M0.57,317.21L3.76,311.44L4.39,308.55L6.94,299.89L7.57,298.65L10.12,294.11L10.75,293.29L12.66,289.99L13.3,289.58L16.48,283.39L17.11,282.98L19.02,278.02L19.66,278.44L22.2,273.9L22.84,274.73L24.11,272.66L24.75,270.6L25.38,270.19L26.02,267.71L27.29,266.89L27.93,264.83L28.56,265.24L29.2,264.41L31.11,260.7L31.74,259.88L32.38,259.88L33.02,261.11L34.92,258.64L35.56,256.16L37.47,251.21L38.1,245.85L38.74,245.44L39.38,243.79L41.28,234.71L41.92,233.48L43.19,227.7L43.83,227.29L44.46,223.99L45.1,224.81L45.74,224.81L46.37,223.16L47.64,221.1L48.28,218.63L48.92,218.21L49.55,219.86L50.19,220.27L50.83,214.5L51.46,215.33L52.1,212.85L53.37,211.61L54.01,210.38L54.64,210.38L55.28,201.71L55.91,219.45L56.55,218.63L57.19,215.74L59.09,212.85L59.73,209.14L60.37,209.55L61,208.73L63.55,203.36L64.18,203.36L65.46,201.71L66.09,201.71L67.36,200.89L68,202.13L69.91,199.65L70.54,200.48L71.82,199.24L72.45,200.06L73.09,200.89L73.72,199.24L75,198.83L75.63,200.06L77.54,199.65L78.18,200.89L81.36,199.65L81.99,199.65L83.27,198L83.9,197.59L85.17,199.24L85.81,198.41L87.72,198.83L88.35,198.83L88.99,197.18L89.63,197.59L90.26,198.41L90.9,198.41L91.53,196.35L94.72,198L95.35,197.18L97.9,198.41L98.53,197.59L100.44,198.41L101.08,200.48L102.35,198.83L102.98,198.41L103.62,196.76L104.26,199.24L104.89,198.83L105.53,200.06L106.16,198.83L106.8,199.65L107.44,199.65L108.07,198.83L109.35,198.83L109.98,199.65L111.89,199.24L112.53,198.83L114.43,198.41L115.07,197.18L116.34,199.24L116.98,199.65L118.25,198.41L118.89,199.65L119.52,199.65L120.16,197.59L121.43,200.06L122.07,200.48L122.7,198.83L123.34,199.65L124.61,199.65L125.25,199.65L125.88,200.89L126.52,199.24L129.06,200.06L129.7,199.65L130.34,199.24L130.97,200.89L132.24,199.65L132.88,200.48L133.52,199.24L134.15,200.89L134.79,200.06L135.42,200.48L136.7,200.48L137.33,200.89L137.97,200.06L138.61,201.3L139.88,200.06L140.51,201.3L142.42,201.3L143.06,200.06L143.69,199.65L144.33,200.89L145.6,202.13L146.24,201.3L146.87,200.48L147.51,200.89L148.15,201.3L148.78,199.24L149.42,201.71L150.05,200.06L150.69,201.3L151.33,200.48L151.96,200.06L152.6,201.3L153.24,201.3L153.87,199.65L154.51,200.06L155.14,199.24L155.78,200.48L156.42,199.24L157.05,201.3L157.69,199.65L158.96,201.3L159.6,202.13L160.87,200.06L161.5,201.3L162.14,203.36L162.78,202.54L164.05,202.54L164.68,202.54L166.59,199.24L167.23,199.65L167.87,202.13L168.5,200.48L169.77,202.13L170.41,200.06L171.68,201.3L172.32,201.71L172.95,202.13L173.59,200.89L174.23,200.89L174.86,199.65L175.5,199.65L176.13,202.13L176.77,202.54L177.41,201.71L179.31,200.48L179.95,201.71L180.59,202.13L181.22,200.06L182.5,198.83L183.13,200.48L184.4,200.48L185.04,200.48L185.68,199.24L186.31,200.48L186.95,202.54L187.58,199.24L188.86,200.89L189.49,198L190.13,201.3L190.76,199.65L193.31,202.95L193.94,200.48L194.58,202.13L195.22,200.89L197.13,201.3L197.76,202.95L199.03,200.48L199.67,201.3L201.58,199.24L202.21,201.71L202.85,201.71L203.49,202.54L204.12,198.41L204.76,200.06L205.39,200.06L206.03,202.95L206.67,201.3L207.3,202.54L207.94,200.89L208.57,201.71L209.85,201.71L210.48,199.65L211.12,198.41L211.76,201.3L212.39,202.54L213.03,201.71L213.66,200.89L214.3,202.13L215.57,200.48L216.21,202.13L216.84,202.13L217.48,200.48L218.12,198.83L218.75,202.95L219.39,200.48L220.02,202.54L221.3,199.65L221.93,200.89L223.2,198.83L223.84,200.89L224.48,200.89L225.11,198L226.39,201.3L227.02,200.89L227.66,200.06L228.29,200.89L229.57,203.36L230.2,200.48L230.84,201.3L231.47,199.65L232.11,199.65L232.75,198.83L233.38,198L234.02,200.89L235.93,203.78L236.56,202.95L237.2,203.36L237.83,200.48L238.47,201.71L239.11,199.24L241.02,204.19L241.65,200.89L242.92,202.54L243.56,202.54L244.83,200.06L245.47,201.3L246.74,198.41L247.38,200.06L248.01,202.54L248.65,200.48L249.28,200.48L249.92,201.71L251.83,200.48L252.46,201.71L253.1,200.48L253.74,201.71L254.37,201.71L255.01,200.89L255.65,198.83L256.28,200.06L256.92,198.83L257.55,200.06L258.19,198.41L258.83,199.65L259.46,198L260.1,199.65L260.73,202.95L261.37,202.13L262.01,198.83L262.64,201.3L263.28,203.36L263.91,200.48L264.55,200.48L265.19,201.3L266.46,200.89L267.09,202.13L267.73,200.89L268.37,201.71L269,201.71L269.64,198.83L271.55,201.71L272.18,200.06L273.46,199.24L274.09,201.3L274.73,199.65L275.36,202.13L276,199.65" style="vector-effect: none; fill: none; stroke: rgb(217, 95, 2); stroke-opacity: 1; stroke-width: 1.7px; opacity: 1;"/></g><g class="points"/><g class="text"/></g><g class="trace scatter tracef68926" style="stroke-miterlimit: 2; opacity: 1;"><g class="fills"/><g class="errorbars"/><g class="lines"><path class="js-line" d="M0.57,317.21L3.76,310.2L4.39,306.49L6.3,297.83L6.94,296.18L10.12,288.75L10.75,287.51L12.02,285.45L12.66,285.04L13.3,284.63L13.93,282.98L15.2,281.33L15.84,279.26L20.29,274.73L20.93,274.31L21.57,272.25L22.2,272.66L22.84,271.43L23.47,271.43L24.11,270.19L25.38,267.71L26.02,267.71L27.93,263.59L28.56,263.59L30.47,260.29L31.11,260.29L31.74,258.64L32.38,261.52L33.65,259.05L34.29,258.23L34.92,257.81L35.56,253.69L37.47,250.39L38.1,245.03L39.38,241.31L40.01,236.77L41.28,233.06L41.92,231.41L43.19,226.46L43.83,226.88L44.46,223.58L45.1,224.4L45.74,225.64L46.37,223.99L47.64,222.34L48.28,219.86L49.55,221.93L50.19,221.51L50.83,216.56L51.46,217.39L52.1,215.33L54.64,212.85L55.28,204.19L55.91,206.25L56.55,215.33L57.19,220.69L57.82,218.21L59.09,214.91L59.73,210.38L60.37,210.38L61,208.31L61.64,207.08L62.27,204.19L62.91,203.78L63.55,202.13L65.46,199.65L66.09,198.83L66.73,199.24L67.36,198L68,198.83L68.64,197.59L69.91,195.11L70.54,195.53L71.82,193.88L72.45,194.29L73.09,195.94L73.72,193.46L74.36,193.46L75,194.29L76.27,195.94L76.9,196.35L77.54,196.35L78.18,197.18L79.45,196.35L80.09,197.18L81.36,195.53L81.99,196.35L83.9,194.7L84.54,195.94L85.17,197.59L85.81,196.76L87.08,197.59L87.72,197.18L88.35,197.59L88.99,195.94L90.9,197.18L91.53,195.11L93.44,197.18L94.08,197.59L96.62,197.18L97.26,198.41L97.9,198.41L98.53,196.76L101.08,200.48L101.71,198.41L102.98,198.41L103.62,196.76L104.26,199.65L104.89,199.24L105.53,200.06L106.8,198.83L107.44,199.24L108.07,198L108.71,198.41L110.62,199.24L111.25,198.83L113.16,198.41L113.8,198.83L115.07,197.18L115.71,198.83L116.98,199.24L117.61,198L118.25,197.59L118.89,198.83L119.52,198.83L120.16,196.76L121.43,198.83L122.07,199.24L122.7,198L123.34,198.83L123.98,198L124.61,198.83L125.25,198.41L125.88,199.65L126.52,198.41L127.16,198.83L129.06,199.24L129.7,198.41L130.34,198.41L130.97,199.65L132.24,198.41L132.88,199.24L133.52,198L134.15,199.24L136.06,198.83L136.7,198.83L137.33,199.65L137.97,198.41L138.61,199.65L139.24,198.83L139.88,198.41L140.51,199.65L142.42,199.24L143.06,198L143.69,197.59L144.33,199.24L144.97,199.24L145.6,200.06L146.87,198.41L147.51,198.83L148.15,199.24L148.78,197.18L149.42,199.65L150.05,198L150.69,199.24L151.33,198L151.96,198L152.6,199.24L153.24,199.24L153.87,197.59L155.14,197.18L155.78,198L156.42,196.76L157.05,198.83L157.69,197.18L158.32,198.83L158.96,198.83L159.6,200.06L160.87,197.59L161.5,198.83L162.14,201.3L162.78,200.06L164.05,200.06L164.68,200.06L166.59,197.18L167.23,197.59L167.87,199.65L168.5,198.41L169.14,198.41L169.77,199.65L170.41,198L171.05,198.83L172.32,199.24L172.95,199.65L174.86,197.18L175.5,196.76L176.77,200.06L177.41,199.24L179.31,198L179.95,199.24L180.59,199.65L181.22,197.59L182.5,195.94L183.13,197.59L184.4,197.18L185.04,197.59L185.68,196.35L186.31,197.59L186.95,199.24L187.58,196.35L188.86,198L189.49,195.11L190.13,198.41L190.76,196.76L193.31,200.06L193.94,197.59L194.58,199.24L195.22,198L195.85,198.83L196.49,198.41L197.13,198.83L197.76,200.48L199.03,197.59L199.67,198.41L201.58,196.76L202.21,199.24L203.49,199.65L204.12,195.94L205.39,197.59L206.03,200.48L206.67,198.83L207.3,200.06L207.94,198.41L208.57,199.24L209.85,199.24L210.48,196.76L211.12,195.53L211.76,198L212.39,199.65L213.03,199.24L213.66,198L214.3,199.65L214.94,198.83L215.57,197.59L216.21,199.24L216.84,199.65L217.48,197.59L218.12,195.94L218.75,200.06L219.39,198L220.02,200.06L221.3,196.76L221.93,198.41L223.2,195.94L223.84,198L224.48,198.41L225.11,195.53L226.39,198.83L227.02,198L227.66,197.59L228.29,198.41L229.57,200.89L230.2,198L230.84,198.83L231.47,196.76L232.11,197.18L232.75,196.35L233.38,195.11L234.02,198.41L235.93,201.71L236.56,200.89L237.2,200.89L237.83,198L238.47,199.24L239.11,196.76L241.02,201.71L241.65,198.41L242.92,200.48L243.56,200.06L244.83,198L245.47,198.83L246.1,198L246.74,195.53L248.01,200.48L248.65,198L249.28,198L249.92,199.65L250.56,198.41L251.19,198.83L251.83,198.41L252.46,199.24L253.1,198L253.74,199.65L254.37,199.65L255.01,198.41L255.65,196.35L256.28,197.18L256.92,196.35L257.55,197.18L258.19,195.94L258.83,197.59L259.46,195.53L260.1,196.76L260.73,200.48L261.37,200.06L262.01,196.76L263.28,200.89L263.91,198L264.55,198L265.19,199.24L266.46,198.83L267.09,200.06L267.73,198.83L268.37,199.65L269,199.24L269.64,196.35L271.55,199.24L272.18,197.59L273.46,196.76L274.09,199.24L274.73,197.59L275.36,200.06L276,197.59" style="vector-effect: none; fill: none; stroke: rgb(217, 95, 2); stroke-opacity: 1; stroke-width: 1.7px; opacity: 1;"/></g><g class="points"/><g class="text"/></g><g class="trace scatter traced44ebf" style="stroke-miterlimit: 2; opacity: 1;"><g class="fills"/><g class="errorbars"/><g class="lines"><path class="js-line" d="M0,309.38L6.9,302.62L8.29,301.03L15.19,291.54L16.57,289.3L23.47,275.99L24.86,272.84L30.38,258.33L31.76,254.16L37.28,234.95L38.66,229.44L45.57,197.3L46.95,194.91L274.79,194.91" style="vector-effect: none; fill: none; stroke: rgb(217, 95, 2); stroke-opacity: 1; stroke-dasharray: 9px, 9px; stroke-width: 1.7px; opacity: 1;"/></g><g class="points"/><g class="text"/></g><g class="trace scatter tracef302e2" style="stroke-miterlimit: 2; opacity: 1;"><g class="fills"/><g class="errorbars"/><g class="lines"><path class="js-line" d="M0.57,319.59L5.03,313.86L5.66,312.82L9.48,304.98L10.12,303.36L13.93,291.22L14.57,288.71L18.39,269.88L19.02,266L22.84,236.81" style="vector-effect: none; fill: none; stroke: rgb(0, 0, 0); stroke-opacity: 1; stroke-dasharray: 9px, 9px; stroke-width: 1.7px; opacity: 1;"/></g><g class="points"/><g class="text"/></g></g></g></g><path class="xlines-above crisp" d="M0,0" style="fill: none;"/><path class="ylines-above crisp" d="M0,0" style="fill: none;"/><g class="overlines-above"/><g class="xaxislayer-above"><g class="xtick"><text text-anchor="middle" x="0" y="365" transform="translate(40,0)" style="font-family: 'Open Sans', verdana, arial, sans-serif; font-size: 14px; fill: rgb(0, 0, 0); fill-opacity: 1; white-space: pre; opacity: 1;">0</text></g><g class="xtick"><text text-anchor="middle" x="0" y="365" style="font-family: 'Open Sans', verdana, arial, sans-serif; font-size: 14px; fill: rgb(0, 0, 0); fill-opacity: 1; white-space: pre; opacity: 1;" transform="translate(62.9,0)">6</text></g><g class="xtick"><text text-anchor="middle" x="0" y="365" style="font-family: 'Open Sans', verdana, arial, sans-serif; font-size: 14px; fill: rgb(0, 0, 0); fill-opacity: 1; white-space: pre; opacity: 1;" transform="translate(85.8,0)">12</text></g><g class="xtick"><text text-anchor="middle" x="0" y="365" style="font-family: 'Open Sans', verdana, arial, sans-serif; font-size: 14px; fill: rgb(0, 0, 0); fill-opacity: 1; white-space: pre; opacity: 1;" transform="translate(108.7,0)">18</text></g><g class="xtick"><text text-anchor="middle" x="0" y="365" style="font-family: 'Open Sans', verdana, arial, sans-serif; font-size: 14px; fill: rgb(0, 0, 0); fill-opacity: 1; white-space: pre; opacity: 1;" transform="translate(131.6,0)">24</text></g><g class="xtick"><text text-anchor="middle" x="0" y="365" style="font-family: 'Open Sans', verdana, arial, sans-serif; font-size: 14px; fill: rgb(0, 0, 0); fill-opacity: 1; white-space: pre; opacity: 1;" transform="translate(154.5,0)">30</text></g><g class="xtick"><text text-anchor="middle" x="0" y="365" style="font-family: 'Open Sans', verdana, arial, sans-serif; font-size: 14px; fill: rgb(0, 0, 0); fill-opacity: 1; white-space: pre; opacity: 1;" transform="translate(177.39,0)">36</text></g><g class="xtick"><text text-anchor="middle" x="0" y="365" style="font-family: 'Open Sans', verdana, arial, sans-serif; font-size: 14px; fill: rgb(0, 0, 0); fill-opacity: 1; white-space: pre; opacity: 1;" transform="translate(200.29,0)">42</text></g><g class="xtick"><text text-anchor="middle" x="0" y="365" style="font-family: 'Open Sans', verdana, arial, sans-serif; font-size: 14px; fill: rgb(0, 0, 0); fill-opacity: 1; white-space: pre; opacity: 1;" transform="translate(223.19,0)">48</text></g><g class="xtick"><text text-anchor="middle" x="0" y="365" style="font-family: 'Open Sans', verdana, arial, sans-serif; font-size: 14px; fill: rgb(0, 0, 0); fill-opacity: 1; white-space: pre; opacity: 1;" transform="translate(246.09,0)">54</text></g><g class="xtick"><text text-anchor="middle" x="0" y="365" style="font-family: 'Open Sans', verdana, arial, sans-serif; font-size: 14px; fill: rgb(0, 0, 0); fill-opacity: 1; white-space: pre; opacity: 1;" transform="translate(268.99,0)">60</text></g><g class="xtick"><text text-anchor="middle" x="0" y="365" style="font-family: 'Open Sans', verdana, arial, sans-serif; font-size: 14px; fill: rgb(0, 0, 0); fill-opacity: 1; white-space: pre; opacity: 1;" transform="translate(291.89,0)">66</text></g><g class="xtick"><text text-anchor="middle" x="0" y="365" style="font-family: 'Open Sans', verdana, arial, sans-serif; font-size: 14px; fill: rgb(0, 0, 0); fill-opacity: 1; white-space: pre; opacity: 1;" transform="translate(314.79,0)">72</text></g></g><g class="yaxislayer-above"><g class="ytick"><text text-anchor="end" x="39" y="4.8999999999999995" transform="translate(0,350)" style="font-family: 'Open Sans', verdana, arial, sans-serif; font-size: 14px; fill: rgb(0, 0, 0); fill-opacity: 1; white-space: pre; opacity: 1;">0</text></g><g class="ytick"><text text-anchor="end" x="39" y="4.8999999999999995" style="font-family: 'Open Sans', verdana, arial, sans-serif; font-size: 14px; fill: rgb(0, 0, 0); fill-opacity: 1; white-space: pre; opacity: 1;" transform="translate(0,308.75)">0.1</text></g><g class="ytick"><text text-anchor="end" x="39" y="4.8999999999999995" style="font-family: 'Open Sans', verdana, arial, sans-serif; font-size: 14px; fill: rgb(0, 0, 0); fill-opacity: 1; white-space: pre; opacity: 1;" transform="translate(0,267.5)">0.2</text></g><g class="ytick"><text text-anchor="end" x="39" y="4.8999999999999995" style="font-family: 'Open Sans', verdana, arial, sans-serif; font-size: 14px; fill: rgb(0, 0, 0); fill-opacity: 1; white-space: pre; opacity: 1;" transform="translate(0,226.25)">0.3</text></g><g class="ytick"><text text-anchor="end" x="39" y="4.8999999999999995" style="font-family: 'Open Sans', verdana, arial, sans-serif; font-size: 14px; fill: rgb(0, 0, 0); fill-opacity: 1; white-space: pre; opacity: 1;" transform="translate(0,185)">0.4</text></g><g class="ytick"><text text-anchor="end" x="39" y="4.8999999999999995" style="font-family: 'Open Sans', verdana, arial, sans-serif; font-size: 14px; fill: rgb(0, 0, 0); fill-opacity: 1; white-space: pre; opacity: 1;" transform="translate(0,143.75)">0.5</text></g><g class="ytick"><text text-anchor="end" x="39" y="4.8999999999999995" style="font-family: 'Open Sans', verdana, arial, sans-serif; font-size: 14px; fill: rgb(0, 0, 0); fill-opacity: 1; white-space: pre; opacity: 1;" transform="translate(0,102.5)">0.6</text></g><g class="ytick"><text text-anchor="end" x="39" y="4.8999999999999995" style="font-family: 'Open Sans', verdana, arial, sans-serif; font-size: 14px; fill: rgb(0, 0, 0); fill-opacity: 1; white-space: pre; opacity: 1;" transform="translate(0,61.25)">0.7</text></g><g class="ytick"><text text-anchor="end" x="39" y="4.8999999999999995" style="font-family: 'Open Sans', verdana, arial, sans-serif; font-size: 14px; fill: rgb(0, 0, 0); fill-opacity: 1; white-space: pre; opacity: 1;" transform="translate(0,20)">0.8</text></g></g><g class="overaxes-above"/></g></g><g class="polarlayer"/><g class="smithlayer"/><g class="ternarylayer"/><g class="geolayer"/><g class="funnelarealayer"/><g class="pielayer"/><g class="iciclelayer"/><g class="treemaplayer"/><g class="sunburstlayer"/><g class="glimages"/><defs id="topdefs-5a78c7"><g class="clips"/><clipPath id="legend5a78c7"><rect width="178" height="156" x="0" y="0"/></clipPath></defs><g class="layer-above"><g class="imagelayer"/><g class="shapelayer"/></g><g class="infolayer"><g class="legend" pointer-events="all" transform="translate(321.52,20)"><rect class="bg" shape-rendering="crispEdges" style="stroke: rgb(68, 68, 68); stroke-opacity: 1; fill: rgb(255, 255, 255); fill-opacity: 1; stroke-width: 0px;" width="178" height="156" x="0" y="0"/><g class="scrollbox" transform="" clip-path="url(#legend5a78c7)"><g class="groups" transform=""><g class="traces" transform="translate(0,15.6)" style="opacity: 1;"><text class="legendtext" text-anchor="start" x="40" y="5.46" style="font-family: 'Open Sans', verdana, arial, sans-serif; font-size: 14px; fill: rgb(0, 0, 0); fill-opacity: 1; white-space: pre;"><tspan style="font-style:italic">C. testosteroni</tspan></text><g class="layers" style="opacity: 1;"><g class="legendfill"/><g class="legendlines"><path class="js-line" d="M5,0h30" style="fill: none; stroke: rgb(117, 112, 179); stroke-opacity: 1; stroke-width: 1.7px;"/></g><g class="legendsymbols"><g class="legendpoints"/></g></g><rect class="legendtoggle" x="0" y="-10.6" width="172.765625" height="21.2" style="fill: rgb(0, 0, 0); fill-opacity: 0;"/></g></g><g class="groups" transform="translate(0,10)"><g class="traces" transform="translate(0,36.8)" style="opacity: 1;"><text class="legendtext" text-anchor="start" x="40" y="5.46" style="font-family: 'Open Sans', verdana, arial, sans-serif; font-size: 14px; fill: rgb(0, 0, 0); fill-opacity: 1; white-space: pre;"><tspan style="font-style:italic">C. testosteroni</tspan> model</text><g class="layers" style="opacity: 1;"><g class="legendfill"/><g class="legendlines"><path class="js-line" d="M5,0h30" style="fill: none; stroke: rgb(117, 112, 179); stroke-opacity: 1; stroke-dasharray: 9px, 9px; stroke-width: 1.7px;"/></g><g class="legendsymbols"><g class="legendpoints"/></g></g><rect class="legendtoggle" x="0" y="-10.6" width="172.765625" height="21.2" style="fill: rgb(0, 0, 0); fill-opacity: 0;"/></g></g><g class="groups" transform="translate(0,20)"><g class="traces" transform="translate(0,58)" style="opacity: 1;"><text class="legendtext" text-anchor="start" x="40" y="5.46" style="font-family: 'Open Sans', verdana, arial, sans-serif; font-size: 14px; fill: rgb(0, 0, 0); fill-opacity: 1; white-space: pre;"><tspan style="font-style:italic">O. anthropi</tspan></text><g class="layers" style="opacity: 1;"><g class="legendfill"/><g class="legendlines"><path class="js-line" d="M5,0h30" style="fill: none; stroke: rgb(217, 95, 2); stroke-opacity: 1; stroke-width: 1.7px;"/></g><g class="legendsymbols"><g class="legendpoints"/></g></g><rect class="legendtoggle" x="0" y="-10.6" width="172.765625" height="21.2" style="fill: rgb(0, 0, 0); fill-opacity: 0;"/></g></g><g class="groups" transform="translate(0,30)"><g class="traces" transform="translate(0,79.19999999999999)" style="opacity: 1;"><text class="legendtext" text-anchor="start" x="40" y="5.46" style="font-family: 'Open Sans', verdana, arial, sans-serif; font-size: 14px; fill: rgb(0, 0, 0); fill-opacity: 1; white-space: pre;"><tspan style="font-style:italic">O. anthropi</tspan> model</text><g class="layers" style="opacity: 1;"><g class="legendfill"/><g class="legendlines"><path class="js-line" d="M5,0h30" style="fill: none; stroke: rgb(217, 95, 2); stroke-opacity: 1; stroke-dasharray: 9px, 9px; stroke-width: 1.7px;"/></g><g class="legendsymbols"><g class="legendpoints"/></g></g><rect class="legendtoggle" x="0" y="-10.6" width="172.765625" height="21.2" style="fill: rgb(0, 0, 0); fill-opacity: 0;"/></g></g><g class="groups" transform="translate(0,40)"><g class="traces" transform="translate(0,100.39999999999999)" style="opacity: 1;"><text class="legendtext" text-anchor="start" x="40" y="5.46" style="font-family: 'Open Sans', verdana, arial, sans-serif; font-size: 14px; fill: rgb(0, 0, 0); fill-opacity: 1; white-space: pre;">Fit</text><g class="layers" style="opacity: 1;"><g class="legendfill"/><g class="legendlines"><path class="js-line" d="M5,0h30" style="fill: none; stroke: rgb(0, 0, 0); stroke-opacity: 1; stroke-dasharray: 9px, 9px; stroke-width: 1.7px;"/></g><g class="legendsymbols"><g class="legendpoints"/></g></g><rect class="legendtoggle" x="0" y="-10.6" width="172.765625" height="21.2" style="fill: rgb(0, 0, 0); fill-opacity: 0;"/></g></g></g><rect class="scrollbar" rx="20" ry="3" width="0" height="0" style="fill: rgb(128, 139, 164); fill-opacity: 1;" x="0" y="0"/></g><g class="g-gtitle"/><g class="g-xtitle" transform="translate(0,5.699999999999989)"><text class="xtitle" x="178" y="378.3" text-anchor="middle" style="opacity: 1; font-family: 'Open Sans', verdana, arial, sans-serif; font-size: 14px; fill: rgb(0, 0, 0); fill-opacity: 1; white-space: pre;">Time [h]</text></g><g class="g-ytitle" transform="translate(0.150390625,0)"><text class="ytitle" transform="rotate(-90,14.850000000000001,185)" x="14.850000000000001" y="185" text-anchor="middle" style="opacity: 1; font-family: 'Open Sans', verdana, arial, sans-serif; font-size: 14px; fill: rgb(0, 0, 0); fill-opacity: 1; white-space: pre;">Corrected OD</text></g></g></svg>