<svg class="main-svg" xmlns="http://www.w3.org/2000/svg" xmlns:xlink="http://www.w3.org/1999/xlink" width="250" height="200" style="" viewBox="0 0 250 200"><rect x="0" y="0" width="250" height="200" style="fill: rgb(255, 255, 255); fill-opacity: 1;"/><defs id="defs-e66da4"><g class="clips"><clipPath id="clipe66da4xyplot" class="plotclip"><rect width="180" height="129"/></clipPath><clipPath class="axesclip" id="clipe66da4x"><rect x="51" y="0" width="180" height="200"/></clipPath><clipPath class="axesclip" id="clipe66da4y"><rect x="0" y="30" width="250" height="129"/></clipPath><clipPath class="axesclip" id="clipe66da4xy"><rect x="51" y="30" width="180" height="129"/></clipPath></g><g class="gradients"/><g class="patterns"/></defs><g class="bglayer"/><g class="layer-below"><g class="imagelayer"/><g class="shapelayer"/></g><g class="cartesianlayer"><g class="subplot xy"><g class="layer-subplot"><g class="shapelayer"/><g class="imagelayer"/></g><g class="minor-gridlayer"><g class="x"/><g class="y"/></g><g class="gridlayer"><g class="x"><path class="xgrid crisp" transform="translate(63.75,0)" d="M0,30v129" style="stroke: rgb(128, 128, 128); stroke-opacity: 1; stroke-width: 0.2px;"/><path class="xgrid crisp" transform="translate(145.93,0)" d="M0,30v129" style="stroke: rgb(128, 128, 128); stroke-opacity: 1; stroke-width: 0.2px;"/><path class="xgrid crisp" transform="translate(228.11,0)" d="M0,30v129" style="stroke: rgb(128, 128, 128); stroke-opacity: 1; stroke-width: 0.2px;"/></g><g class="y"><path class="ygrid crisp" transform="translate(0,132.93)" d="M51,0h180" style="stroke: rgb(128, 128, 128); stroke-opacity: 1; stroke-width: 0.2px;"/><path class="ygrid crisp" transform="translate(0,99.82)" d="M51,0h180" style="stroke: rgb(128, 128, 128); stroke-opacity: 1; stroke-width: 0.2px;"/><path class="ygrid crisp" transform="translate(0,66.7)" d="M51,0h180" style="stroke: rgb(128, 128, 128); stroke-opacity: 1; stroke-width: 0.2px;"/><path class="ygrid crisp" transform="translate(0,33.58)" d="M51,0h180" style="stroke: rgb(128, 128, 128); stroke-opacity: 1; stroke-width: 0.2px;"/></g></g><g class="zerolinelayer"/><g class="layer-between"><g class="shapelayer"/><g class="imagelayer"/></g><path class="xlines-below"/><path class="ylines-below"/><g class="overlines-below"/><g class="xaxislayer-below"/><g class="yaxislayer-below"/><g class="overaxes-below"/><g class="overplot"><g class="xy" transform="translate(51,30)" clip-path="url(#clipe66da4xyplot)"><g class="scatterlayer mlayer"><g class="trace scatter trace90e2d5" style="stroke-miterlimit: 2; opacity: 0.6;"><g class="fills"/><g class="errorbars"/><g class="lines"><path class="js-line" d="M12.91,36.19L16.21,63.07L16.62,64.88L17.03,63.87L17.44,66.58L21.14,76.81L21.55,77.73L22.38,78.2L22.79,80.98L23.2,81.55L23.61,83.51L24.02,83.76L24.43,85.2L26.9,93.35L27.31,92.56L27.72,92.35L28.13,93.49L28.96,95.35L29.37,97.52L30.6,99.24L31.01,98.26L32.25,102.46L32.66,100.07L33.89,103.28L34.3,101.31L35.13,104.39L35.54,102.11L36.36,107.05L36.77,105.59L37.18,107.82L37.59,106.68L38.01,107.79L38.42,107.17L38.83,107.96L39.65,107.28L40.06,108.38L40.47,107.85L40.89,109.57L41.3,109.65L41.71,110.62L42.12,109.23L42.53,110.8L43.35,110.04L43.76,112.5L44.18,113.05L44.59,110.28L45.41,111.13L45.82,114.5L46.23,114.76L46.64,119.34L47.06,120.13L47.47,119.27L48.29,120.91L48.7,119.92L49.11,121.29L49.52,120.58L49.93,119.89L50.76,120.02L51.17,121.15L51.99,120.94L52.4,122.17L53.23,121.4L53.64,122.17L54.87,122.13L55.28,122.55L55.69,122.55L56.11,120.97L56.52,121.49L56.93,88.28L58.16,84.3L58.57,84.46L58.98,84.53L59.4,83.3L60.22,82.29L60.63,82.54L61.04,82.97L61.45,82.12L63.1,80.79L63.51,80.74L64.33,81.03L64.74,81.66L65.98,83.96L66.39,81.88L67.21,84.29L67.62,85.61L68.45,85.36L68.86,84.6L69.68,84.37L70.09,84.84L72.97,85.79L73.38,84.72L73.79,85.61L74.2,84.93L74.62,85.2L75.03,86.4L75.44,84.93L76.67,85.97L77.08,85.57L77.91,85.72L78.32,86.76L78.73,85.95L79.14,87.04L80.37,86.73L80.79,88.02L82.84,90.36L83.25,89.07L84.49,89.54L84.9,89.27L86.13,90.2L86.54,89.31L86.96,91.07L87.37,105.23L87.78,93.46L88.19,94.98L88.6,96.05L89.84,95.34L90.25,94.91L91.48,97.11L91.89,97.52L92.3,97.31L92.71,98.11L93.54,98.55L93.95,99.1L94.36,98.53L94.77,99.36L96.42,97.34L96.83,98.09L97.24,98.09L97.65,97.28L98.06,100.07L98.47,91.83L98.88,92.62L99.3,92.26L99.71,91.34L100.12,91.97L100.53,90.61L100.94,92.1L101.35,90.73L101.76,90.97L102.18,92.13L103,90.42L103.41,91.45L104.23,91.41L104.64,91.2L105.05,90.26L105.47,91.42L107.52,89.68L107.93,90.33L108.76,89.73L109.17,90.29L109.58,90.39L109.99,89.71L110.81,90.19L111.23,91.1L111.64,89.64L112.05,90.8L112.46,90.79L112.87,91.17L113.28,89.85L114.1,90.7L114.52,89.66L115.75,89.92L116.16,89.55L116.57,91.97L116.98,91.65L117.4,90.56L117.81,89.39L118.22,90.95L119.04,88.08L119.45,90.06L120.27,88.92L120.69,89.81L121.51,88.88L121.92,90.61L122.74,91.44L123.15,90.28L123.57,90.46L123.98,92.01L125.62,90.64L126.03,97.42L126.44,90.51L126.86,90.94L127.27,92.13L131.38,88.7L131.79,89.46L132.2,87.55L132.61,88.65L133.03,91.45L133.44,90.39L133.85,91.57L136.32,88.95L136.73,90.56L137.14,91L137.55,97.96L138.37,93.72L138.78,94.4L139.2,94.61L140.02,93.56L140.43,94.54L141.66,94.01L142.08,94.88L142.49,94.02L142.9,95L143.31,94.47L143.72,96.45L144.54,96.51L144.95,94.93L145.37,97.1L145.78,95.79L146.19,96.02L146.6,96.44L147.01,94.98L148.66,94.02L149.07,96.22L149.89,92.54L150.3,93.35L150.71,92.73L151.12,93.93L152.36,95.61L152.77,94.5L153.59,96.53L154,95.65L154.42,95.09L155.24,93.62L155.65,96.26L156.06,93.91L156.47,94.74L156.88,94.96L157.3,93.79L157.71,94.9L158.12,93.92L158.53,95.56L159.76,93.16L160.17,92.48L161,93.51L161.41,94.52L161.82,92.51L162.23,94.07L162.64,94.35L163.05,90.29L163.47,90.95L163.88,91.6L165.11,91L165.52,86.68L165.93,90.69L166.34,87.36" style="vector-effect: none; fill: none; stroke: rgb(217, 95, 2); stroke-opacity: 1; stroke-width: 2px; opacity: 1;"/></g><g class="points"/><g class="text"/></g><g class="trace scatter trace225c42" style="stroke-miterlimit: 2; opacity: 1;"><g class="fills"/><g class="errorbars"/><g class="lines"/><g class="points"><path class="point" transform="translate(12.75,10.2)" d="M3,0A3,3 0 1,1 0,-3A3,3 0 0,1 3,0Z" style="opacity: 1; stroke-width: 0px; fill: rgb(217, 95, 2); fill-opacity: 1;"/><path class="point" transform="translate(46.28,45.97)" d="M3,0A3,3 0 1,1 0,-3A3,3 0 0,1 3,0Z" style="opacity: 1; stroke-width: 0px; fill: rgb(217, 95, 2); fill-opacity: 1;"/><path class="point" transform="translate(57.13,43.32)" d="M3,0A3,3 0 1,1 0,-3A3,3 0 0,1 3,0Z" style="opacity: 1; stroke-width: 0px; fill: rgb(217, 95, 2); fill-opacity: 1;"/><path class="point" transform="translate(86.71,102.27)" d="M3,0A3,3 0 1,1 0,-3A3,3 0 0,1 3,0Z" style="opacity: 1; stroke-width: 0px; fill: rgb(217, 95, 2); fill-opacity: 1;"/><path class="point" transform="translate(124.52,102.54)" d="M3,0A3,3 0 1,1 0,-3A3,3 0 0,1 3,0Z" style="opacity: 1; stroke-width: 0px; fill: rgb(217, 95, 2); fill-opacity: 1;"/><path class="point" transform="translate(167.25,89.69)" d="M3,0A3,3 0 1,1 0,-3A3,3 0 0,1 3,0Z" style="opacity: 1; stroke-width: 0px; fill: rgb(217, 95, 2); fill-opacity: 1;"/></g><g class="text"/></g></g></g></g><g class="zerolinelayer-above"/><path class="xlines-above crisp" d="M50.5,159.25H231.5M50.5,29.75H231.5" style="fill: none; stroke-width: 0.5px; stroke: rgb(0, 0, 0); stroke-opacity: 1;"/><path class="ylines-above crisp" d="M50.75,30V159M231.25,30V159" style="fill: none; stroke-width: 0.5px; stroke: rgb(0, 0, 0); stroke-opacity: 1;"/><g class="overlines-above"/><g class="xaxislayer-above"><path class="xtick ticks crisp" d="M0,159v-5" transform="translate(63.75,0)" style="stroke: rgb(0, 0, 0); stroke-opacity: 1; stroke-width: 0.5px;"/><path class="xtick ticks crisp" d="M0,159v-5" transform="translate(145.93,0)" style="stroke: rgb(0, 0, 0); stroke-opacity: 1; stroke-width: 0.5px;"/><path class="xtick ticks crisp" d="M0,159v-5" transform="translate(228.11,0)" style="stroke: rgb(0, 0, 0); stroke-opacity: 1; stroke-width: 0.5px;"/><g class="xtick"><text text-anchor="middle" x="0" y="176.3" transform="translate(63.75,0)" style="font-family: 'Open Sans', verdana, arial, sans-serif; font-size: 14px; fill: rgb(0, 0, 0); fill-opacity: 1; white-space: pre;">0</text></g><g class="xtick"><text text-anchor="middle" x="0" y="176.3" style="font-family: 'Open Sans', verdana, arial, sans-serif; font-size: 14px; fill: rgb(0, 0, 0); fill-opacity: 1; white-space: pre;" transform="translate(145.93,0)">50</text></g><g class="xtick"><text text-anchor="middle" x="0" y="176.3" style="font-family: 'Open Sans', verdana, arial, sans-serif; font-size: 14px; fill: rgb(0, 0, 0); fill-opacity: 1; white-space: pre;" transform="translate(228.11,0)">100</text></g></g><g class="yaxislayer-above"><path class="ytick ticks crisp" d="M51,0h5" transform="translate(0,132.93)" style="stroke: rgb(0, 0, 0); stroke-opacity: 1; stroke-width: 0.5px;"/><path class="ytick ticks crisp" d="M51,0h5" transform="translate(0,99.82)" style="stroke: rgb(0, 0, 0); stroke-opacity: 1; stroke-width: 0.5px;"/><path class="ytick ticks crisp" d="M51,0h5" transform="translate(0,66.7)" style="stroke: rgb(0, 0, 0); stroke-opacity: 1; stroke-width: 0.5px;"/><path class="ytick ticks crisp" d="M51,0h5" transform="translate(0,33.58)" style="stroke: rgb(0, 0, 0); stroke-opacity: 1; stroke-width: 0.5px;"/><g class="ytick"><text text-anchor="end" x="47.7" y="4.8999999999999995" transform="translate(0,132.93)" style="font-family: 'Open Sans', verdana, arial, sans-serif; font-size: 14px; fill: rgb(0, 0, 0); fill-opacity: 1; white-space: pre;">0</text></g><g class="ytick"><text text-anchor="end" x="47.7" y="4.8999999999999995" style="font-family: 'Open Sans', verdana, arial, sans-serif; font-size: 14px; fill: rgb(0, 0, 0); fill-opacity: 1; white-space: pre;" transform="translate(0,99.82)">0.05</text></g><g class="ytick"><text text-anchor="end" x="47.7" y="4.8999999999999995" style="font-family: 'Open Sans', verdana, arial, sans-serif; font-size: 14px; fill: rgb(0, 0, 0); fill-opacity: 1; white-space: pre;" transform="translate(0,66.7)">0.1</text></g><g class="ytick"><text text-anchor="end" x="47.7" y="4.8999999999999995" style="font-family: 'Open Sans', verdana, arial, sans-serif; font-size: 14px; fill: rgb(0, 0, 0); fill-opacity: 1; white-space: pre;" transform="translate(0,33.58)">0.15</text></g></g><g class="overaxes-above"/></g></g><g class="polarlayer"/><g class="smithlayer"/><g class="ternarylayer"/><g class="geolayer"/><g class="funnelarealayer"/><g class="pielayer"/><g class="iciclelayer"/><g class="treemaplayer"/><g class="sunburstlayer"/><g class="glimages"/><defs id="topdefs-e66da4"><g class="clips"/><clipPath id="legende66da4"><rect width="122" height="53" x="0" y="0"/></clipPath></defs><g class="layer-above"><g class="imagelayer"/><g class="shapelayer"/></g><g class="infolayer"><g class="legend" pointer-events="all" transform="translate(107.19999999999999,31.290000000000003)"><rect class="bg" shape-rendering="crispEdges" style="stroke: rgb(68, 68, 68); stroke-opacity: 1; fill: rgb(255, 255, 255); fill-opacity: 1; stroke-width: 0px;" width="122" height="53" x="0" y="0"/><g class="scrollbox" transform="" clip-path="url(#legende66da4)"><g class="groups"><g class="traces" transform="translate(0,15.6)" style="opacity: 1;"><text class="legendtext" text-anchor="start" x="40" y="5.46" style="font-family: 'Open Sans', verdana, arial, sans-serif; font-size: 14px; fill: rgb(0, 0, 0); fill-opacity: 1; white-space: pre;">Chi.Bio</text><g class="layers" style="opacity: 0.6;"><g class="legendfill"/><g class="legendlines"><path class="js-line" d="M5,0h30" style="fill: none; stroke: rgb(217, 95, 2); stroke-opacity: 1; stroke-width: 2px;"/></g><g class="legendsymbols"><g class="legendpoints"/></g></g><rect class="legendtoggle" x="0" y="-10.6" width="116.2119140625" height="21.2" style="fill: rgb(0, 0, 0); fill-opacity: 0;"/></g><g class="traces" transform="translate(0,36.8)" style="opacity: 1;"><text class="legendtext" text-anchor="start" x="40" y="5.46" style="font-family: 'Open Sans', verdana, arial, sans-serif; font-size: 14px; fill: rgb(0, 0, 0); fill-opacity: 1; white-space: pre;">platereader</text><g class="layers" style="opacity: 1;"><g class="legendfill"/><g class="legendlines"/><g class="legendsymbols"><g class="legendpoints"><path class="scatterpts" transform="translate(20,0)" d="M3,0A3,3 0 1,1 0,-3A3,3 0 0,1 3,0Z" style="opacity: 1; stroke-width: 0px; fill: rgb(217, 95, 2); fill-opacity: 1;"/></g></g></g><rect class="legendtoggle" x="0" y="-10.6" width="116.2119140625" height="21.2" style="fill: rgb(0, 0, 0); fill-opacity: 0;"/></g></g></g><rect class="scrollbar" rx="20" ry="3" width="0" height="0" style="fill: rgb(128, 139, 164); fill-opacity: 1;" x="0" y="0"/></g><g class="g-gtitle"><text class="gtitle" x="12.5" y="15" text-anchor="start" dy="0em" style="opacity: 1; font-family: 'Open Sans', verdana, arial, sans-serif; font-size: 14px; fill: rgb(0, 0, 0); fill-opacity: 1; white-space: pre;">Oa, no cs</text></g><g class="g-xtitle" transform="translate(0,5.449999999999989)"><text class="xtitle" x="141" y="189.8498046875" text-anchor="middle" style="opacity: 1; font-family: 'Open Sans', verdana, arial, sans-serif; font-size: 14px; fill: rgb(0, 0, 0); fill-opacity: 1; white-space: pre;">Time [h]</text></g><g class="g-ytitle"><text class="ytitle" transform="rotate(-90,15.300195312500001,94.5)" x="15.300195312500001" y="94.5" text-anchor="middle" style="opacity: 1; font-family: 'Open Sans', verdana, arial, sans-serif; font-size: 14px; fill: rgb(0, 0, 0); fill-opacity: 1; white-space: pre;">OD</text></g></g></svg>